<svg xmlns="http://www.w3.org/2000/svg" xmlns:xlink="http://www.w3.org/1999/xlink" contentStyleType="text/css" data-diagram-type="SEQUENCE" height="895px" preserveAspectRatio="none" style="width:957px;height:895px;background:#FFFFFF;" version="1.1" viewBox="0 0 957 895" width="957px" zoomAndPan="magnify"><defs/><g><rect fill="#F8F8FF" height="883.1406" style="stroke:#181818;stroke-width:0.5;" width="253.9038" x="11" y="6"/><text fill="#000000" font-family="Helvetica" font-size="10" font-weight="bold" x="83.467" y="15.2822">Kubernetes Cluster</text><rect fill="#C9FFC9" height="883.1406" style="stroke:#181818;stroke-width:0.5;" width="561.5889" x="390.0493" y="6"/><text fill="#000000" font-family="Helvetica" font-size="10" font-weight="bold" x="646.4834" y="15.2822">Anbieter</text><rect fill="#F4A460" height="866.5" style="stroke:#181818;stroke-width:0.5;" width="435.7783" x="390.0493" y="22.6406"/><text fill="#000000" font-family="Helvetica" font-size="10" font-weight="bold" x="574.7939" y="31.9229">ZETA Guard</text><rect fill="#8FBC8F" height="866.5" style="stroke:#181818;stroke-width:0.5;" width="104.5" x="847.1382" y="22.6406"/><text fill="#000000" font-family="Helvetica" font-size="10" font-weight="bold" x="861.8564" y="31.9229">TI 2.0 Dienst</text><g><title>Client Workload</title><rect fill="#000000" fill-opacity="0.00000" height="768.2969" width="8" x="58.2046" y="76.5625"/><line style="stroke:#181818;stroke-width:0.5;stroke-dasharray:5,5;" x1="61.7046" x2="61.7046" y1="76.5625" y2="844.8594"/></g><g><title/><rect fill="#FFFFFF" height="755.2969" style="stroke:#181818;stroke-width:1;" width="10" x="56.7046" y="84.5625"/></g><g><title>Kubernetes IDP</title><rect fill="#000000" fill-opacity="0.00000" height="768.2969" width="8" x="211.8345" y="76.5625"/><line style="stroke:#181818;stroke-width:0.5;stroke-dasharray:5,5;" x1="215.3345" x2="215.3345" y1="76.5625" y2="844.8594"/></g><g><title/><rect fill="#FFFFFF" height="25.6406" style="stroke:#181818;stroke-width:1;" width="10" x="210.3345" y="102.2031"/></g><g><title/><rect fill="#FFFFFF" height="25.6406" style="stroke:#181818;stroke-width:1;" width="10" x="210.3345" y="190.7656"/></g><g><title/><rect fill="#FFFFFF" height="25.6406" style="stroke:#181818;stroke-width:1;" width="10" x="210.3345" y="242.0469"/></g><g><title>ZETA Guard</title><rect fill="#000000" fill-opacity="0.00000" height="768.2969" width="8" x="463.9165" y="76.5625"/><line style="stroke:#181818;stroke-width:0.5;stroke-dasharray:5,5;" x1="467.4165" x2="467.4165" y1="76.5625" y2="844.8594"/></g><g><title/><rect fill="#FFFFFF" height="409.6094" style="stroke:#181818;stroke-width:1;" width="10" x="462.4165" y="165.125"/></g><g><title>PEP</title><rect fill="#000000" fill-opacity="0.00000" height="768.2969" width="8" x="620.9741" y="76.5625"/><line style="stroke:#181818;stroke-width:0.5;stroke-dasharray:5,5;" x1="624.4741" x2="624.4741" y1="76.5625" y2="844.8594"/></g><g><title/><rect fill="#FFFFFF" height="198.4844" style="stroke:#181818;stroke-width:1;" width="10" x="619.4741" y="614.375"/></g><g><title>Policy Engine</title><rect fill="#000000" fill-opacity="0.00000" height="768.2969" width="8" x="778.0415" y="76.5625"/><line style="stroke:#181818;stroke-width:0.5;stroke-dasharray:5,5;" x1="781.5415" x2="781.5415" y1="76.5625" y2="844.8594"/></g><g><title/><rect fill="#FFFFFF" height="25.6406" style="stroke:#181818;stroke-width:1;" width="10" x="776.5415" y="371.25"/></g><g><title>Resource Server</title><rect fill="#000000" fill-opacity="0.00000" height="768.2969" width="8" x="895.8882" y="76.5625"/><line style="stroke:#181818;stroke-width:0.5;stroke-dasharray:5,5;" x1="899.3882" x2="899.3882" y1="76.5625" y2="844.8594"/></g><g><title/><rect fill="#FFFFFF" height="25.6406" style="stroke:#181818;stroke-width:1;" width="10" x="894.3882" y="706.2969"/></g><rect fill="#E2E2F0" height="25.6406" rx="2.5" ry="2.5" style="stroke:#181818;stroke-width:0.5;" width="93.4092" x="15" y="49.9219"/><text fill="#000000" font-family="Helvetica" font-size="10" x="22" y="66.2041">Client Workload</text><rect fill="#E2E2F0" height="25.6406" rx="2.5" ry="2.5" style="stroke:#181818;stroke-width:0.5;" width="91.1387" x="169.7651" y="49.9219"/><text fill="#000000" font-family="Helvetica" font-size="10" x="176.7651" y="66.2041">Kubernetes IDP</text><rect fill="#E2E2F0" height="37.2813" rx="2.5" ry="2.5" style="stroke:#181818;stroke-width:0.5;" width="146.7344" x="394.0493" y="38.2813"/><text fill="#000000" font-family="Helvetica" font-size="10" x="437.4312" y="54.5635">ZETA Guard</text><text fill="#000000" font-family="Helvetica" font-size="10" x="401.0493" y="66.2041">Authorization Server (STS)</text><rect fill="#E2E2F0" height="37.2813" rx="2.5" ry="2.5" style="stroke:#181818;stroke-width:0.5;" width="71.041" x="588.9536" y="38.2813"/><text fill="#000000" font-family="Helvetica" font-size="10" x="615.2847" y="54.5635">PEP</text><text fill="#000000" font-family="Helvetica" font-size="10" x="595.9536" y="66.2041">HTTP Proxy</text><rect fill="#E2E2F0" height="37.2813" rx="2.5" ry="2.5" style="stroke:#181818;stroke-width:0.5;" width="80.5723" x="741.2554" y="38.2813"/><text fill="#000000" font-family="Helvetica" font-size="10" x="748.2554" y="54.5635">Policy Engine</text><text fill="#000000" font-family="Helvetica" font-size="10" x="767.269" y="66.2041">(OPA)</text><rect fill="#E2E2F0" height="25.6406" rx="2.5" ry="2.5" style="stroke:#181818;stroke-width:0.5;" width="96.5" x="851.1382" y="49.9219"/><text fill="#000000" font-family="Helvetica" font-size="10" x="858.1382" y="66.2041">Resource Server</text><rect fill="#E2E2F0" height="25.6406" rx="2.5" ry="2.5" style="stroke:#181818;stroke-width:0.5;" width="93.4092" x="15" y="844.8594"/><text fill="#000000" font-family="Helvetica" font-size="10" x="22" y="861.1416">Client Workload</text><rect fill="#E2E2F0" height="25.6406" rx="2.5" ry="2.5" style="stroke:#181818;stroke-width:0.5;" width="91.1387" x="169.7651" y="844.8594"/><text fill="#000000" font-family="Helvetica" font-size="10" x="176.7651" y="861.1416">Kubernetes IDP</text><rect fill="#E2E2F0" height="37.2813" rx="2.5" ry="2.5" style="stroke:#181818;stroke-width:0.5;" width="146.7344" x="394.0493" y="844.8594"/><text fill="#000000" font-family="Helvetica" font-size="10" x="437.4312" y="861.1416">ZETA Guard</text><text fill="#000000" font-family="Helvetica" font-size="10" x="401.0493" y="872.7822">Authorization Server (STS)</text><rect fill="#E2E2F0" height="37.2813" rx="2.5" ry="2.5" style="stroke:#181818;stroke-width:0.5;" width="71.041" x="588.9536" y="844.8594"/><text fill="#000000" font-family="Helvetica" font-size="10" x="615.2847" y="861.1416">PEP</text><text fill="#000000" font-family="Helvetica" font-size="10" x="595.9536" y="872.7822">HTTP Proxy</text><rect fill="#E2E2F0" height="37.2813" rx="2.5" ry="2.5" style="stroke:#181818;stroke-width:0.5;" width="80.5723" x="741.2554" y="844.8594"/><text fill="#000000" font-family="Helvetica" font-size="10" x="748.2554" y="861.1416">Policy Engine</text><text fill="#000000" font-family="Helvetica" font-size="10" x="767.269" y="872.7822">(OPA)</text><rect fill="#E2E2F0" height="25.6406" rx="2.5" ry="2.5" style="stroke:#181818;stroke-width:0.5;" width="96.5" x="851.1382" y="844.8594"/><text fill="#000000" font-family="Helvetica" font-size="10" x="858.1382" y="861.1416">Resource Server</text><polygon fill="#181818" points="198.3345,98.2031,208.3345,102.2031,198.3345,106.2031,202.3345,102.2031" style="stroke:#181818;stroke-width:1;"/><line style="stroke:#181818;stroke-width:1;" x1="66.7046" x2="204.3345" y1="102.2031" y2="102.2031"/><text fill="#000000" font-family="Helvetica" font-size="10" x="73.7046" y="97.8447">(01)</text><text fill="#000000" font-family="Helvetica" font-size="10" x="98.2319" y="97.8447">Fordert ID-Token an</text><polygon fill="#181818" points="77.7046,123.8438,67.7046,127.8438,77.7046,131.8438,73.7046,127.8438" style="stroke:#181818;stroke-width:1;"/><line style="stroke:#181818;stroke-width:1;stroke-dasharray:2,2;" x1="71.7046" x2="209.3345" y1="127.8438" y2="127.8438"/><text fill="#000000" font-family="Helvetica" font-size="10" x="83.7046" y="123.4854">(02)</text><text fill="#000000" font-family="Helvetica" font-size="10" x="108.2319" y="123.4854">ID-Token</text><polygon fill="#181818" points="450.4165,161.125,460.4165,165.125,450.4165,169.125,454.4165,165.125" style="stroke:#181818;stroke-width:1;"/><line style="stroke:#181818;stroke-width:1;" x1="66.7046" x2="456.4165" y1="165.125" y2="165.125"/><text fill="#000000" font-family="Helvetica" font-size="10" x="73.7046" y="154.9463">(03)</text><text fill="#000000" font-family="Helvetica" font-size="10" x="98.2319" y="149.126">Fordert Access-Token an</text><text fill="#000000" font-family="Helvetica" font-size="10" x="98.2319" y="160.7666">(Token Exchange mit ID-Token)</text><polygon fill="#181818" points="231.3345,186.7656,221.3345,190.7656,231.3345,194.7656,227.3345,190.7656" style="stroke:#181818;stroke-width:1;"/><line style="stroke:#181818;stroke-width:1;" x1="225.3345" x2="461.4165" y1="190.7656" y2="190.7656"/><text fill="#000000" font-family="Helvetica" font-size="10" x="237.3345" y="186.4072">(04)</text><text fill="#000000" font-family="Helvetica" font-size="10" x="261.8618" y="186.4072">GET&#160;/.well-known/openid-configuration</text><polygon fill="#181818" points="450.4165,212.4063,460.4165,216.4063,450.4165,220.4063,454.4165,216.4063" style="stroke:#181818;stroke-width:1;"/><line style="stroke:#181818;stroke-width:1;stroke-dasharray:2,2;" x1="220.3345" x2="456.4165" y1="216.4063" y2="216.4063"/><text fill="#000000" font-family="Helvetica" font-size="10" x="227.3345" y="212.0479">(05)</text><text fill="#000000" font-family="Helvetica" font-size="10" x="251.8618" y="212.0479">OpenID Provider Metadaten</text><polygon fill="#181818" points="231.3345,238.0469,221.3345,242.0469,231.3345,246.0469,227.3345,242.0469" style="stroke:#181818;stroke-width:1;"/><line style="stroke:#181818;stroke-width:1;" x1="225.3345" x2="461.4165" y1="242.0469" y2="242.0469"/><text fill="#000000" font-family="Helvetica" font-size="10" x="237.3345" y="237.6885">(06)</text><text fill="#000000" font-family="Helvetica" font-size="10" x="261.8618" y="237.6885">GET /openid/v1/jwks</text><polygon fill="#181818" points="450.4165,263.6875,460.4165,267.6875,450.4165,271.6875,454.4165,267.6875" style="stroke:#181818;stroke-width:1;"/><line style="stroke:#181818;stroke-width:1;stroke-dasharray:2,2;" x1="220.3345" x2="456.4165" y1="267.6875" y2="267.6875"/><text fill="#000000" font-family="Helvetica" font-size="10" x="227.3345" y="263.3291">(07)</text><text fill="#000000" font-family="Helvetica" font-size="10" x="251.8618" y="263.3291">JWKS</text><line style="stroke:#181818;stroke-width:1;" x1="472.4165" x2="514.4165" y1="304.9688" y2="304.9688"/><line style="stroke:#181818;stroke-width:1;" x1="514.4165" x2="514.4165" y1="304.9688" y2="317.9688"/><line style="stroke:#181818;stroke-width:1;" x1="473.4165" x2="514.4165" y1="317.9688" y2="317.9688"/><polygon fill="#181818" points="483.4165,313.9688,473.4165,317.9688,483.4165,321.9688,479.4165,317.9688" style="stroke:#181818;stroke-width:1;"/><text fill="#000000" font-family="Helvetica" font-size="10" x="479.4165" y="294.79">(08)</text><text fill="#000000" font-family="Helvetica" font-size="10" x="503.9438" y="288.9697">Validiert ID-Token</text><text fill="#000000" font-family="Helvetica" font-size="10" x="503.9438" y="300.6104">(Signatur, Ablauf, etc.)</text><path d="M45.7046,329.9688 L105.6606,329.9688 L105.6606,333.6094 L95.6606,343.6094 L45.7046,343.6094 L45.7046,329.9688" fill="#EEEEEE" style="stroke:#000000;stroke-width:1.5;"/><rect fill="none" height="130.2031" style="stroke:#000000;stroke-width:1.5;" width="756.8369" x="45.7046" y="329.9688"/><text fill="#000000" font-family="Helvetica" font-size="10" font-weight="bold" x="60.7046" y="340.251">alt</text><text fill="#000000" font-family="Helvetica" font-size="10" font-weight="bold" x="120.6606" y="341.251">[Erfolgreiche Validierung]</text><line style="stroke:#000000;stroke-width:1;stroke-dasharray:2,2;" x1="45.7046" x2="802.5415" y1="415.8906" y2="415.8906"/><text fill="#000000" font-family="Helvetica" font-size="10" font-weight="bold" x="50.7046" y="427.1729">[Fehlgeschlagene Validierung]</text><polygon fill="#181818" points="764.5415,367.25,774.5415,371.25,764.5415,375.25,768.5415,371.25" style="stroke:#181818;stroke-width:1;"/><line style="stroke:#181818;stroke-width:1;" x1="472.4165" x2="770.5415" y1="371.25" y2="371.25"/><text fill="#000000" font-family="Helvetica" font-size="10" x="479.4165" y="366.8916">(09)</text><text fill="#000000" font-family="Helvetica" font-size="10" x="503.9438" y="366.8916">Entscheidungsanfrage (issuer uri, etc.)</text><polygon fill="#181818" points="483.4165,392.8906,473.4165,396.8906,483.4165,400.8906,479.4165,396.8906" style="stroke:#181818;stroke-width:1;"/><line style="stroke:#181818;stroke-width:1;stroke-dasharray:2,2;" x1="477.4165" x2="775.5415" y1="396.8906" y2="396.8906"/><text fill="#000000" font-family="Helvetica" font-size="10" x="489.4165" y="392.5322">(10)</text><text fill="#000000" font-family="Helvetica" font-size="10" x="513.9438" y="392.5322">Ergebnis</text><polygon fill="#181818" points="77.7046,448.1719,67.7046,452.1719,77.7046,456.1719,73.7046,452.1719" style="stroke:#181818;stroke-width:1;"/><line style="stroke:#181818;stroke-width:1;stroke-dasharray:2,2;" x1="71.7046" x2="461.4165" y1="452.1719" y2="452.1719"/><text fill="#000000" font-family="Helvetica" font-size="10" x="83.7046" y="447.8135">(11)</text><text fill="#000000" font-family="Helvetica" font-size="10" x="108.2319" y="447.8135">Fehler 403 Forbidden</text><path d="M45.7046,478.1719 L105.6606,478.1719 L105.6606,481.8125 L95.6606,491.8125 L45.7046,491.8125 L45.7046,478.1719" fill="#EEEEEE" style="stroke:#000000;stroke-width:1.5;"/><rect fill="none" height="104.5625" style="stroke:#000000;stroke-width:1.5;" width="437.7119" x="45.7046" y="478.1719"/><text fill="#000000" font-family="Helvetica" font-size="10" font-weight="bold" x="60.7046" y="488.4541">alt</text><text fill="#000000" font-family="Helvetica" font-size="10" font-weight="bold" x="120.6606" y="489.4541">[Erfolgreiche Autorisierung]</text><line style="stroke:#000000;stroke-width:1;stroke-dasharray:2,2;" x1="45.7046" x2="483.4165" y1="538.4531" y2="538.4531"/><text fill="#000000" font-family="Helvetica" font-size="10" font-weight="bold" x="50.7046" y="549.7354">[Fehlgeschlagene Autorisierung]</text><polygon fill="#181818" points="77.7046,515.4531,67.7046,519.4531,77.7046,523.4531,73.7046,519.4531" style="stroke:#181818;stroke-width:1;"/><line style="stroke:#181818;stroke-width:1;stroke-dasharray:2,2;" x1="71.7046" x2="461.4165" y1="519.4531" y2="519.4531"/><text fill="#000000" font-family="Helvetica" font-size="10" x="83.7046" y="515.0947">(12)</text><text fill="#000000" font-family="Helvetica" font-size="10" x="108.2319" y="515.0947">Access-Token</text><polygon fill="#181818" points="77.7046,570.7344,67.7046,574.7344,77.7046,578.7344,73.7046,574.7344" style="stroke:#181818;stroke-width:1;"/><line style="stroke:#181818;stroke-width:1;stroke-dasharray:2,2;" x1="71.7046" x2="461.4165" y1="574.7344" y2="574.7344"/><text fill="#000000" font-family="Helvetica" font-size="10" x="83.7046" y="570.376">(13)</text><text fill="#000000" font-family="Helvetica" font-size="10" x="108.2319" y="570.376">Fehler 403 Forbidden</text><polygon fill="#181818" points="607.4741,610.375,617.4741,614.375,607.4741,618.375,611.4741,614.375" style="stroke:#181818;stroke-width:1;"/><line style="stroke:#181818;stroke-width:1;" x1="66.7046" x2="613.4741" y1="614.375" y2="614.375"/><text fill="#000000" font-family="Helvetica" font-size="10" x="73.7046" y="610.0166">(14)</text><text fill="#000000" font-family="Helvetica" font-size="10" x="98.2319" y="610.0166">Anfrage mit Access-Token</text><line style="stroke:#181818;stroke-width:1;" x1="629.4741" x2="671.4741" y1="640.0156" y2="640.0156"/><line style="stroke:#181818;stroke-width:1;" x1="671.4741" x2="671.4741" y1="640.0156" y2="653.0156"/><line style="stroke:#181818;stroke-width:1;" x1="630.4741" x2="671.4741" y1="653.0156" y2="653.0156"/><polygon fill="#181818" points="640.4741,649.0156,630.4741,653.0156,640.4741,657.0156,636.4741,653.0156" style="stroke:#181818;stroke-width:1;"/><text fill="#000000" font-family="Helvetica" font-size="10" x="636.4741" y="635.6572">(15)</text><text fill="#000000" font-family="Helvetica" font-size="10" x="661.0015" y="635.6572">Validiert Access-Token</text><path d="M45.7046,665.0156 L105.6606,665.0156 L105.6606,668.6563 L95.6606,678.6563 L45.7046,678.6563 L45.7046,665.0156" fill="#EEEEEE" style="stroke:#000000;stroke-width:1.5;"/><rect fill="none" height="155.8438" style="stroke:#000000;stroke-width:1.5;" width="874.6836" x="45.7046" y="665.0156"/><text fill="#000000" font-family="Helvetica" font-size="10" font-weight="bold" x="60.7046" y="675.2979">alt</text><text fill="#000000" font-family="Helvetica" font-size="10" font-weight="bold" x="120.6606" y="676.2979">[Erfolgreiche Validierung]</text><line style="stroke:#000000;stroke-width:1;stroke-dasharray:2,2;" x1="45.7046" x2="920.3882" y1="776.5781" y2="776.5781"/><text fill="#000000" font-family="Helvetica" font-size="10" font-weight="bold" x="50.7046" y="787.8604">[Fehlgeschlagene Validierung]</text><polygon fill="#181818" points="882.3882,702.2969,892.3882,706.2969,882.3882,710.2969,886.3882,706.2969" style="stroke:#181818;stroke-width:1;"/><line style="stroke:#181818;stroke-width:1;" x1="629.4741" x2="888.3882" y1="706.2969" y2="706.2969"/><text fill="#000000" font-family="Helvetica" font-size="10" x="636.4741" y="701.9385">(16)</text><text fill="#000000" font-family="Helvetica" font-size="10" x="661.0015" y="701.9385">Weiterleitung der Anfrage mit Access-Token</text><polygon fill="#181818" points="640.4741,727.9375,630.4741,731.9375,640.4741,735.9375,636.4741,731.9375" style="stroke:#181818;stroke-width:1;"/><line style="stroke:#181818;stroke-width:1;stroke-dasharray:2,2;" x1="634.4741" x2="893.3882" y1="731.9375" y2="731.9375"/><text fill="#000000" font-family="Helvetica" font-size="10" x="646.4741" y="727.5791">(17)</text><text fill="#000000" font-family="Helvetica" font-size="10" x="671.0015" y="727.5791">Antwort</text><polygon fill="#181818" points="77.7046,753.5781,67.7046,757.5781,77.7046,761.5781,73.7046,757.5781" style="stroke:#181818;stroke-width:1;"/><line style="stroke:#181818;stroke-width:1;stroke-dasharray:2,2;" x1="71.7046" x2="618.4741" y1="757.5781" y2="757.5781"/><text fill="#000000" font-family="Helvetica" font-size="10" x="83.7046" y="753.2197">(18)</text><text fill="#000000" font-family="Helvetica" font-size="10" x="108.2319" y="753.2197">Antwort</text><polygon fill="#181818" points="77.7046,808.8594,67.7046,812.8594,77.7046,816.8594,73.7046,812.8594" style="stroke:#181818;stroke-width:1;"/><line style="stroke:#181818;stroke-width:1;stroke-dasharray:2,2;" x1="71.7046" x2="618.4741" y1="812.8594" y2="812.8594"/><text fill="#000000" font-family="Helvetica" font-size="10" x="83.7046" y="808.501">(19)</text><text fill="#000000" font-family="Helvetica" font-size="10" x="108.2319" y="808.501">Fehler 401 Unauthorized</text><!--SRC=[ZLHDKnf14Btlh-ZWHKjHJ798SKZL2YiOesov95OiByDkiumCFMHc5jHVaz-INvRU3t11gNZHOVlrw-xtUaPaJbCs6w61ndwhTT3mx5JIN1WnWmJ78bFkN9EBv3F2QUljuBMO8VHHBT39MDGmtH9pfKdRkOWnMQCxEZCIJGsha58tyPE7p3eWJLYBMVoT8SLuWsCq-U5CnDFKw8oIZbRQmEr4kdf2j9tmCiD7p_imDoAT2N2edy6P33rlf1-XSPcn38GEBNGKju6c0NkzYRQkv0TWTXvHpWKvQ7IKHFv_gyrKQP4qGEHv-RTjP8tueXiMmCilbeyUKW9Sksh0fv74ikmmwFIl1zy7lLzCLWJlWg4FlKmOhhGN2KgUpenU4eUtghq0xydFt4GR-IoSrCIoc0KRlHyDeuEYYpjqWd-yvWY3y9xwms48eT6FJmMu7xw1qqh6Jn1GAWdlQNyG-YKp7nYz6Y_FouSONi37unPqMIHsUQyhp3H2qJE8vHol-6_GygR4MBLUKA- -bP-Al5MTjPmYTd8X7AuCgRngVgs4Fpnimxas2Hh7bZI7Uee4Whmo2aq6bYdDPdiDy6eqbN9r7Z-EqTer5wjH7eF7U28eHPZ9bs87NiMmsHFqWk7VFoV7IrIgEINszqJFaMJIZ3MDPPgPmibwdnLFtkY0eHVTtBA5v9RWYaC9gq2xYq75Vx8uFNbOJkqEvc-tbr6Tf3gsuQTGCf5r6NdkIAOaN6QEm1yfaOsF05ryVE09vI0mOwrIWpAUu3exevHzhF7p-kGT1kGiusJ202jepFSMOLzQc_5q_8AiY25FsEuvC2cEI5eFbKKunubAaTaKSz3EqclZsqK6b_dS-fHRF999maBoXhqUWsyPNpAxPdkRhxuVR_Vq7fvyifsTrHQqNrZiLvhbgxTHln-MeBg36m3uZrabmUPTp2lU8Z-LHl5Vna6-XJjxWAtqOif-c4_earjguwewTH5NWNUOkfMyeTmf_21HFOwOU52eb-3Mk_4F]--></g></svg>