<svg xmlns="http://www.w3.org/2000/svg" xmlns:xlink="http://www.w3.org/1999/xlink" contentStyleType="text/css" data-diagram-type="SEQUENCE" height="1127px" preserveAspectRatio="none" style="width:1167px;height:1127px;background:#FFFFFF;" version="1.1" viewBox="0 0 1167 1127" width="1167px" zoomAndPan="magnify"><defs/><g><rect fill="#C9FFC9" height="1115.2188" style="stroke:#181818;stroke-width:0.5;" width="496.7573" x="11" y="6"/><text fill="#000000" font-family="Helvetica" font-size="10" font-weight="bold" x="229.408" y="15.2822">Anbieter A</text><rect fill="#F4A460" height="1098.5781" style="stroke:#181818;stroke-width:0.5;" width="317.4082" x="11" y="22.6406"/><text fill="#000000" font-family="Helvetica" font-size="10" font-weight="bold" x="130.9492" y="31.9229">ZETA Guard A</text><rect fill="#8FBC8F" height="1098.5781" style="stroke:#181818;stroke-width:0.5;" width="106.8027" x="400.9546" y="22.6406"/><text fill="#000000" font-family="Helvetica" font-size="10" font-weight="bold" x="412.9546" y="31.9229">TI 2.0 Dienst A</text><rect fill="#C9FFC9" height="1115.2188" style="stroke:#181818;stroke-width:0.5;" width="576.3906" x="584.6167" y="6"/><text fill="#000000" font-family="Helvetica" font-size="10" font-weight="bold" x="842.8999" y="15.2822">Anbieter B</text><rect fill="#F4A460" height="1098.5781" style="stroke:#181818;stroke-width:0.5;" width="457.7051" x="584.6167" y="22.6406"/><text fill="#000000" font-family="Helvetica" font-size="10" font-weight="bold" x="774.7729" y="31.9229">ZETA Guard B</text><rect fill="#8FBC8F" height="1098.5781" style="stroke:#181818;stroke-width:0.5;" width="106.6855" x="1054.3218" y="22.6406"/><text fill="#000000" font-family="Helvetica" font-size="10" font-weight="bold" x="1066.3218" y="31.9229">TI 2.0 Dienst B</text><g><title>cronjob Pod</title><rect fill="#000000" fill-opacity="0.00000" height="1000.375" width="8" x="47.9922" y="76.5625"/><line style="stroke:#181818;stroke-width:0.5;stroke-dasharray:5,5;" x1="51.4922" x2="51.4922" y1="76.5625" y2="1076.9375"/></g><g><title/><rect fill="#FFFFFF" height="542.8125" style="stroke:#181818;stroke-width:1;" width="10" x="46.4922" y="198.0781"/></g><g><title>ZETA Guard</title><rect fill="#000000" fill-opacity="0.00000" height="1000.375" width="8" x="201.6221" y="76.5625"/><line style="stroke:#181818;stroke-width:0.5;stroke-dasharray:5,5;" x1="205.1221" x2="205.1221" y1="76.5625" y2="1076.9375"/></g><g><title/><rect fill="#FFFFFF" height="25.6406" style="stroke:#181818;stroke-width:1;" width="10" x="200.1221" y="215.7188"/></g><g><title/><rect fill="#FFFFFF" height="25.6406" style="stroke:#181818;stroke-width:1;" width="10" x="200.1221" y="304.2813"/></g><g><title/><rect fill="#FFFFFF" height="25.6406" style="stroke:#181818;stroke-width:1;" width="10" x="200.1221" y="355.5625"/></g><g><title>etcd</title><rect fill="#000000" fill-opacity="0.00000" height="1000.375" width="8" x="302.9487" y="76.5625"/><line style="stroke:#181818;stroke-width:0.5;stroke-dasharray:5,5;" x1="306.4487" x2="306.4487" y1="76.5625" y2="1076.9375"/></g><g><title/><rect fill="#FFFFFF" height="878.8594" style="stroke:#181818;stroke-width:1;" width="10" x="301.4487" y="198.0781"/></g><g><title>Resource Server</title><rect fill="#000000" fill-opacity="0.00000" height="1000.375" width="8" x="450.856" y="76.5625"/><line style="stroke:#181818;stroke-width:0.5;stroke-dasharray:5,5;" x1="454.356" x2="454.356" y1="76.5625" y2="1076.9375"/></g><g><title/><rect fill="#FFFFFF" height="299.4063" style="stroke:#181818;stroke-width:1;" width="10" x="449.356" y="777.5313"/></g><g><title>gematik</title><rect fill="#000000" fill-opacity="0.00000" height="1000.375" width="8" x="547.687" y="76.5625"/><line style="stroke:#181818;stroke-width:0.5;stroke-dasharray:5,5;" x1="551.187" x2="551.187" y1="76.5625" y2="1076.9375"/></g><g><title>ZETA Guard</title><rect fill="#000000" fill-opacity="0.00000" height="1000.375" width="8" x="658.4839" y="76.5625"/><line style="stroke:#181818;stroke-width:0.5;stroke-dasharray:5,5;" x1="661.9839" x2="661.9839" y1="76.5625" y2="1076.9375"/></g><g><title/><rect fill="#FFFFFF" height="435.25" style="stroke:#181818;stroke-width:1;" width="10" x="656.9839" y="278.6406"/></g><g><title>PEP</title><rect fill="#000000" fill-opacity="0.00000" height="1000.375" width="8" x="815.5415" y="76.5625"/><line style="stroke:#181818;stroke-width:0.5;stroke-dasharray:5,5;" x1="819.0415" x2="819.0415" y1="76.5625" y2="1076.9375"/></g><g><title/><rect fill="#FFFFFF" height="198.4844" style="stroke:#181818;stroke-width:1;" width="10" x="814.0415" y="832.4531"/></g><g><title>Policy Engine</title><rect fill="#000000" fill-opacity="0.00000" height="1000.375" width="8" x="994.5356" y="76.5625"/><line style="stroke:#181818;stroke-width:0.5;stroke-dasharray:5,5;" x1="998.0356" x2="998.0356" y1="76.5625" y2="1076.9375"/></g><g><title/><rect fill="#FFFFFF" height="25.6406" style="stroke:#181818;stroke-width:1;" width="10" x="993.0356" y="484.7656"/></g><g><title>Resource Server</title><rect fill="#000000" fill-opacity="0.00000" height="1000.375" width="8" x="1104.1646" y="76.5625"/><line style="stroke:#181818;stroke-width:0.5;stroke-dasharray:5,5;" x1="1107.6646" x2="1107.6646" y1="76.5625" y2="1076.9375"/></g><g><title/><rect fill="#FFFFFF" height="25.6406" style="stroke:#181818;stroke-width:1;" width="10" x="1102.6646" y="924.375"/></g><rect fill="#E2E2F0" height="25.6406" rx="2.5" ry="2.5" style="stroke:#181818;stroke-width:0.5;" width="72.9844" x="15" y="49.9219"/><text fill="#000000" font-family="Helvetica" font-size="10" x="22" y="66.2041">cronjob Pod</text><rect fill="#E2E2F0" height="37.2813" rx="2.5" ry="2.5" style="stroke:#181818;stroke-width:0.5;" width="146.7344" x="131.7549" y="38.2813"/><text fill="#000000" font-family="Helvetica" font-size="10" x="175.1367" y="54.5635">ZETA Guard</text><text fill="#000000" font-family="Helvetica" font-size="10" x="138.7549" y="66.2041">Authorization Server (STS)</text><rect fill="#E2E2F0" height="25.6406" rx="2.5" ry="2.5" style="stroke:#181818;stroke-width:0.5;" width="35.9189" x="288.4893" y="49.9219"/><text fill="#000000" font-family="Helvetica" font-size="10" x="295.4893" y="66.2041">etcd</text><rect fill="#E2E2F0" height="37.2813" rx="2.5" ry="2.5" style="stroke:#181818;stroke-width:0.5;" width="96.5" x="406.106" y="38.2813"/><text fill="#000000" font-family="Helvetica" font-size="10" x="413.106" y="54.5635">Resource Server</text><text fill="#000000" font-family="Helvetica" font-size="10" x="430.7158" y="66.2041">Workload</text><rect fill="#E2E2F0" height="25.6406" rx="2.5" ry="2.5" style="stroke:#181818;stroke-width:0.5;" width="54.8594" x="523.7573" y="49.9219"/><text fill="#000000" font-family="Helvetica" font-size="10" x="530.7573" y="66.2041">gematik</text><rect fill="#E2E2F0" height="37.2813" rx="2.5" ry="2.5" style="stroke:#181818;stroke-width:0.5;" width="146.7344" x="588.6167" y="38.2813"/><text fill="#000000" font-family="Helvetica" font-size="10" x="631.9985" y="54.5635">ZETA Guard</text><text fill="#000000" font-family="Helvetica" font-size="10" x="595.6167" y="66.2041">Authorization Server (STS)</text><rect fill="#E2E2F0" height="37.2813" rx="2.5" ry="2.5" style="stroke:#181818;stroke-width:0.5;" width="71.041" x="783.521" y="38.2813"/><text fill="#000000" font-family="Helvetica" font-size="10" x="809.8521" y="54.5635">PEP</text><text fill="#000000" font-family="Helvetica" font-size="10" x="790.521" y="66.2041">HTTP Proxy</text><rect fill="#E2E2F0" height="37.2813" rx="2.5" ry="2.5" style="stroke:#181818;stroke-width:0.5;" width="80.5723" x="957.7495" y="38.2813"/><text fill="#000000" font-family="Helvetica" font-size="10" x="964.7495" y="54.5635">Policy Engine</text><text fill="#000000" font-family="Helvetica" font-size="10" x="983.7632" y="66.2041">(OPA)</text><rect fill="#E2E2F0" height="25.6406" rx="2.5" ry="2.5" style="stroke:#181818;stroke-width:0.5;" width="96.5" x="1059.4146" y="49.9219"/><text fill="#000000" font-family="Helvetica" font-size="10" x="1066.4146" y="66.2041">Resource Server</text><rect fill="#E2E2F0" height="25.6406" rx="2.5" ry="2.5" style="stroke:#181818;stroke-width:0.5;" width="72.9844" x="15" y="1076.9375"/><text fill="#000000" font-family="Helvetica" font-size="10" x="22" y="1093.2197">cronjob Pod</text><rect fill="#E2E2F0" height="37.2813" rx="2.5" ry="2.5" style="stroke:#181818;stroke-width:0.5;" width="146.7344" x="131.7549" y="1076.9375"/><text fill="#000000" font-family="Helvetica" font-size="10" x="175.1367" y="1093.2197">ZETA Guard</text><text fill="#000000" font-family="Helvetica" font-size="10" x="138.7549" y="1104.8604">Authorization Server (STS)</text><rect fill="#E2E2F0" height="25.6406" rx="2.5" ry="2.5" style="stroke:#181818;stroke-width:0.5;" width="35.9189" x="288.4893" y="1076.9375"/><text fill="#000000" font-family="Helvetica" font-size="10" x="295.4893" y="1093.2197">etcd</text><rect fill="#E2E2F0" height="37.2813" rx="2.5" ry="2.5" style="stroke:#181818;stroke-width:0.5;" width="96.5" x="406.106" y="1076.9375"/><text fill="#000000" font-family="Helvetica" font-size="10" x="413.106" y="1093.2197">Resource Server</text><text fill="#000000" font-family="Helvetica" font-size="10" x="430.7158" y="1104.8604">Workload</text><rect fill="#E2E2F0" height="25.6406" rx="2.5" ry="2.5" style="stroke:#181818;stroke-width:0.5;" width="54.8594" x="523.7573" y="1076.9375"/><text fill="#000000" font-family="Helvetica" font-size="10" x="530.7573" y="1093.2197">gematik</text><rect fill="#E2E2F0" height="37.2813" rx="2.5" ry="2.5" style="stroke:#181818;stroke-width:0.5;" width="146.7344" x="588.6167" y="1076.9375"/><text fill="#000000" font-family="Helvetica" font-size="10" x="631.9985" y="1093.2197">ZETA Guard</text><text fill="#000000" font-family="Helvetica" font-size="10" x="595.6167" y="1104.8604">Authorization Server (STS)</text><rect fill="#E2E2F0" height="37.2813" rx="2.5" ry="2.5" style="stroke:#181818;stroke-width:0.5;" width="71.041" x="783.521" y="1076.9375"/><text fill="#000000" font-family="Helvetica" font-size="10" x="809.8521" y="1093.2197">PEP</text><text fill="#000000" font-family="Helvetica" font-size="10" x="790.521" y="1104.8604">HTTP Proxy</text><rect fill="#E2E2F0" height="37.2813" rx="2.5" ry="2.5" style="stroke:#181818;stroke-width:0.5;" width="80.5723" x="957.7495" y="1076.9375"/><text fill="#000000" font-family="Helvetica" font-size="10" x="964.7495" y="1093.2197">Policy Engine</text><text fill="#000000" font-family="Helvetica" font-size="10" x="983.7632" y="1104.8604">(OPA)</text><rect fill="#E2E2F0" height="25.6406" rx="2.5" ry="2.5" style="stroke:#181818;stroke-width:0.5;" width="96.5" x="1059.4146" y="1076.9375"/><text fill="#000000" font-family="Helvetica" font-size="10" x="1066.4146" y="1093.2197">Resource Server</text><rect fill="#FFFFFF" height="37.9375" style="stroke:#000000;stroke-width:1.5;" width="442.8618" x="133.7549" y="84.5625"/><path d="M133.7549,84.5625 L197.7549,84.5625 L197.7549,89.5625 L187.7549,99.5625 L133.7549,99.5625 L133.7549,84.5625" fill="#EEEEEE" style="stroke:#000000;stroke-width:2;"/><text fill="#000000" font-family="Helvetica" font-size="12" font-weight="bold" x="146.7549" y="97.7012">ref</text><text fill="#000000" font-family="Helvetica" font-size="12" font-weight="bold" x="140.3049" y="114.7012">Registrierung beim Federation Master (Workload Identity Pool)</text><rect fill="#FFFFFF" height="37.9375" style="stroke:#000000;stroke-width:1.5;" width="510.5645" x="525.7573" y="127.5"/><path d="M525.7573,127.5 L589.7573,127.5 L589.7573,132.5 L579.7573,142.5 L525.7573,142.5 L525.7573,127.5" fill="#EEEEEE" style="stroke:#000000;stroke-width:2;"/><text fill="#000000" font-family="Helvetica" font-size="12" font-weight="bold" x="538.7573" y="140.6387">ref</text><text fill="#000000" font-family="Helvetica" font-size="12" font-weight="bold" x="529.7573" y="157.6387">Verteilung der Zugriffsberechtigten Workloads an die Policy Engine (OPA)</text><path d="M16.4922,174.4375 L80.3301,174.4375 L80.3301,178.0781 L70.3301,188.0781 L16.4922,188.0781 L16.4922,174.4375" fill="#EEEEEE" style="stroke:#000000;stroke-width:1.5;"/><rect fill="none" height="561.4531" style="stroke:#000000;stroke-width:1.5;" width="1027.5435" x="16.4922" y="174.4375"/><text fill="#000000" font-family="Helvetica" font-size="10" font-weight="bold" x="31.4922" y="184.7197">par</text><text fill="#000000" font-family="Helvetica" font-size="10" font-weight="bold" x="95.3301" y="185.7197">[Regelm&#228;&#223;iger Token Exchange (ID Token gegen Access Token)]</text><polygon fill="#181818" points="188.1221,211.7188,198.1221,215.7188,188.1221,219.7188,192.1221,215.7188" style="stroke:#181818;stroke-width:1;"/><line style="stroke:#181818;stroke-width:1;" x1="56.4922" x2="194.1221" y1="215.7188" y2="215.7188"/><text fill="#000000" font-family="Helvetica" font-size="10" x="63.4922" y="211.3604">(01)</text><text fill="#000000" font-family="Helvetica" font-size="10" x="88.0195" y="211.3604">Fordert ID-Token an</text><polygon fill="#181818" points="67.4922,237.3594,57.4922,241.3594,67.4922,245.3594,63.4922,241.3594" style="stroke:#181818;stroke-width:1;"/><line style="stroke:#181818;stroke-width:1;stroke-dasharray:2,2;" x1="61.4922" x2="199.1221" y1="241.3594" y2="241.3594"/><text fill="#000000" font-family="Helvetica" font-size="10" x="73.4922" y="237.001">(02)</text><text fill="#000000" font-family="Helvetica" font-size="10" x="98.0195" y="237.001">ID-Token</text><polygon fill="#181818" points="644.9839,274.6406,654.9839,278.6406,644.9839,282.6406,648.9839,278.6406" style="stroke:#181818;stroke-width:1;"/><line style="stroke:#181818;stroke-width:1;" x1="56.4922" x2="650.9839" y1="278.6406" y2="278.6406"/><text fill="#000000" font-family="Helvetica" font-size="10" x="63.4922" y="268.4619">(03)</text><text fill="#000000" font-family="Helvetica" font-size="10" x="88.0195" y="262.6416">Fordert Access-Token an</text><text fill="#000000" font-family="Helvetica" font-size="10" x="88.0195" y="274.2822">(Token Exchange mit ID-Token)</text><polygon fill="#181818" points="221.1221,300.2813,211.1221,304.2813,221.1221,308.2813,217.1221,304.2813" style="stroke:#181818;stroke-width:1;"/><line style="stroke:#181818;stroke-width:1;" x1="215.1221" x2="655.9839" y1="304.2813" y2="304.2813"/><text fill="#000000" font-family="Helvetica" font-size="10" x="227.1221" y="299.9229">(04)</text><text fill="#000000" font-family="Helvetica" font-size="10" x="251.6494" y="299.9229">GET&#160;/.well-known/openid-configuration</text><polygon fill="#181818" points="644.9839,325.9219,654.9839,329.9219,644.9839,333.9219,648.9839,329.9219" style="stroke:#181818;stroke-width:1;"/><line style="stroke:#181818;stroke-width:1;stroke-dasharray:2,2;" x1="210.1221" x2="650.9839" y1="329.9219" y2="329.9219"/><text fill="#000000" font-family="Helvetica" font-size="10" x="217.1221" y="325.5635">(05)</text><text fill="#000000" font-family="Helvetica" font-size="10" x="241.6494" y="325.5635">OpenID Provider Metadaten</text><polygon fill="#181818" points="221.1221,351.5625,211.1221,355.5625,221.1221,359.5625,217.1221,355.5625" style="stroke:#181818;stroke-width:1;"/><line style="stroke:#181818;stroke-width:1;" x1="215.1221" x2="655.9839" y1="355.5625" y2="355.5625"/><text fill="#000000" font-family="Helvetica" font-size="10" x="227.1221" y="351.2041">(06)</text><text fill="#000000" font-family="Helvetica" font-size="10" x="251.6494" y="351.2041">GET /openid/v1/jwks</text><polygon fill="#181818" points="644.9839,377.2031,654.9839,381.2031,644.9839,385.2031,648.9839,381.2031" style="stroke:#181818;stroke-width:1;"/><line style="stroke:#181818;stroke-width:1;stroke-dasharray:2,2;" x1="210.1221" x2="650.9839" y1="381.2031" y2="381.2031"/><text fill="#000000" font-family="Helvetica" font-size="10" x="217.1221" y="376.8447">(07)</text><text fill="#000000" font-family="Helvetica" font-size="10" x="241.6494" y="376.8447">JWKS</text><line style="stroke:#181818;stroke-width:1;" x1="666.9839" x2="708.9839" y1="418.4844" y2="418.4844"/><line style="stroke:#181818;stroke-width:1;" x1="708.9839" x2="708.9839" y1="418.4844" y2="431.4844"/><line style="stroke:#181818;stroke-width:1;" x1="667.9839" x2="708.9839" y1="431.4844" y2="431.4844"/><polygon fill="#181818" points="677.9839,427.4844,667.9839,431.4844,677.9839,435.4844,673.9839,431.4844" style="stroke:#181818;stroke-width:1;"/><text fill="#000000" font-family="Helvetica" font-size="10" x="673.9839" y="408.3057">(08)</text><text fill="#000000" font-family="Helvetica" font-size="10" x="698.5112" y="402.4854">Validiert ID-Token</text><text fill="#000000" font-family="Helvetica" font-size="10" x="698.5112" y="414.126">(Signatur, Ablauf, etc.)</text><path d="M35.4922,443.4844 L95.4482,443.4844 L95.4482,447.125 L85.4482,457.125 L35.4922,457.125 L35.4922,443.4844" fill="#EEEEEE" style="stroke:#000000;stroke-width:1.5;"/><rect fill="none" height="130.2031" style="stroke:#000000;stroke-width:1.5;" width="983.5435" x="35.4922" y="443.4844"/><text fill="#000000" font-family="Helvetica" font-size="10" font-weight="bold" x="50.4922" y="453.7666">alt</text><text fill="#000000" font-family="Helvetica" font-size="10" font-weight="bold" x="110.4482" y="454.7666">[Erfolgreiche Validierung]</text><line style="stroke:#000000;stroke-width:1;stroke-dasharray:2,2;" x1="35.4922" x2="1019.0356" y1="529.4063" y2="529.4063"/><text fill="#000000" font-family="Helvetica" font-size="10" font-weight="bold" x="40.4922" y="540.6885">[Fehlgeschlagene Validierung]</text><polygon fill="#181818" points="981.0356,480.7656,991.0356,484.7656,981.0356,488.7656,985.0356,484.7656" style="stroke:#181818;stroke-width:1;"/><line style="stroke:#181818;stroke-width:1;" x1="666.9839" x2="987.0356" y1="484.7656" y2="484.7656"/><text fill="#000000" font-family="Helvetica" font-size="10" x="673.9839" y="480.4072">(09)</text><text fill="#000000" font-family="Helvetica" font-size="10" x="698.5112" y="480.4072">Entscheidungsanfrage (issuer uri, etc.)</text><polygon fill="#181818" points="677.9839,506.4063,667.9839,510.4063,677.9839,514.4063,673.9839,510.4063" style="stroke:#181818;stroke-width:1;"/><line style="stroke:#181818;stroke-width:1;stroke-dasharray:2,2;" x1="671.9839" x2="992.0356" y1="510.4063" y2="510.4063"/><text fill="#000000" font-family="Helvetica" font-size="10" x="683.9839" y="506.0479">(10)</text><text fill="#000000" font-family="Helvetica" font-size="10" x="708.5112" y="506.0479">Ergebnis</text><polygon fill="#181818" points="67.4922,561.6875,57.4922,565.6875,67.4922,569.6875,63.4922,565.6875" style="stroke:#181818;stroke-width:1;"/><line style="stroke:#181818;stroke-width:1;stroke-dasharray:2,2;" x1="61.4922" x2="655.9839" y1="565.6875" y2="565.6875"/><text fill="#000000" font-family="Helvetica" font-size="10" x="73.4922" y="561.3291">(11)</text><text fill="#000000" font-family="Helvetica" font-size="10" x="98.0195" y="561.3291">Fehler 403 Forbidden</text><path d="M35.4922,591.6875 L95.4482,591.6875 L95.4482,595.3281 L85.4482,605.3281 L35.4922,605.3281 L35.4922,591.6875" fill="#EEEEEE" style="stroke:#000000;stroke-width:1.5;"/><rect fill="none" height="130.2031" style="stroke:#000000;stroke-width:1.5;" width="642.4917" x="35.4922" y="591.6875"/><text fill="#000000" font-family="Helvetica" font-size="10" font-weight="bold" x="50.4922" y="601.9697">alt</text><text fill="#000000" font-family="Helvetica" font-size="10" font-weight="bold" x="110.4482" y="602.9697">[Erfolgreiche Autorisierung]</text><line style="stroke:#000000;stroke-width:1;stroke-dasharray:2,2;" x1="35.4922" x2="677.9839" y1="677.6094" y2="677.6094"/><text fill="#000000" font-family="Helvetica" font-size="10" font-weight="bold" x="40.4922" y="688.8916">[Fehlgeschlagene Autorisierung]</text><polygon fill="#181818" points="67.4922,628.9688,57.4922,632.9688,67.4922,636.9688,63.4922,632.9688" style="stroke:#181818;stroke-width:1;"/><line style="stroke:#181818;stroke-width:1;stroke-dasharray:2,2;" x1="61.4922" x2="655.9839" y1="632.9688" y2="632.9688"/><text fill="#000000" font-family="Helvetica" font-size="10" x="73.4922" y="628.6104">(12)</text><text fill="#000000" font-family="Helvetica" font-size="10" x="98.0195" y="628.6104">Access-Token</text><polygon fill="#181818" points="289.4487,654.6094,299.4487,658.6094,289.4487,662.6094,293.4487,658.6094" style="stroke:#181818;stroke-width:1;"/><line style="stroke:#181818;stroke-width:1;" x1="56.4922" x2="295.4487" y1="658.6094" y2="658.6094"/><text fill="#000000" font-family="Helvetica" font-size="10" x="63.4922" y="654.251">(13)</text><text fill="#000000" font-family="Helvetica" font-size="10" x="88.0195" y="654.251">Speichert Access-Token als Secret</text><polygon fill="#181818" points="67.4922,709.8906,57.4922,713.8906,67.4922,717.8906,63.4922,713.8906" style="stroke:#181818;stroke-width:1;"/><line style="stroke:#181818;stroke-width:1;stroke-dasharray:2,2;" x1="61.4922" x2="655.9839" y1="713.8906" y2="713.8906"/><text fill="#000000" font-family="Helvetica" font-size="10" x="73.4922" y="709.5322">(14)</text><text fill="#000000" font-family="Helvetica" font-size="10" x="98.0195" y="709.5322">Fehler 403 Forbidden</text><path d="M35.4922,753.8906 L99.3301,753.8906 L99.3301,757.5313 L89.3301,767.5313 L35.4922,767.5313 L35.4922,753.8906" fill="#EEEEEE" style="stroke:#000000;stroke-width:1.5;"/><rect fill="none" height="299.0469" style="stroke:#000000;stroke-width:1.5;" width="1118.1724" x="35.4922" y="753.8906"/><text fill="#000000" font-family="Helvetica" font-size="10" font-weight="bold" x="50.4922" y="764.1729">par</text><text fill="#000000" font-family="Helvetica" font-size="10" font-weight="bold" x="114.3301" y="765.1729">[Ressourcenzugriff mit Access Token]</text><polygon fill="#181818" points="322.4487,802.8125,312.4487,806.8125,322.4487,810.8125,318.4487,806.8125" style="stroke:#181818;stroke-width:1;"/><line style="stroke:#181818;stroke-width:1;" x1="316.4487" x2="448.356" y1="806.8125" y2="806.8125"/><text fill="#000000" font-family="Helvetica" font-size="10" x="328.4487" y="796.6338">(15)</text><text fill="#000000" font-family="Helvetica" font-size="10" x="352.9761" y="790.8135">Liest Secret mit</text><text fill="#000000" font-family="Helvetica" font-size="10" x="352.9761" y="802.4541">Access-Token aus</text><polygon fill="#181818" points="802.0415,828.4531,812.0415,832.4531,802.0415,836.4531,806.0415,832.4531" style="stroke:#181818;stroke-width:1;"/><line style="stroke:#181818;stroke-width:1;" x1="459.356" x2="808.0415" y1="832.4531" y2="832.4531"/><text fill="#000000" font-family="Helvetica" font-size="10" x="466.356" y="828.0947">(16)</text><text fill="#000000" font-family="Helvetica" font-size="10" x="490.8833" y="828.0947">Anfrage mit Access-Token</text><line style="stroke:#181818;stroke-width:1;" x1="824.0415" x2="866.0415" y1="858.0938" y2="858.0938"/><line style="stroke:#181818;stroke-width:1;" x1="866.0415" x2="866.0415" y1="858.0938" y2="871.0938"/><line style="stroke:#181818;stroke-width:1;" x1="825.0415" x2="866.0415" y1="871.0938" y2="871.0938"/><polygon fill="#181818" points="835.0415,867.0938,825.0415,871.0938,835.0415,875.0938,831.0415,871.0938" style="stroke:#181818;stroke-width:1;"/><text fill="#000000" font-family="Helvetica" font-size="10" x="831.0415" y="853.7354">(17)</text><text fill="#000000" font-family="Helvetica" font-size="10" x="855.5688" y="853.7354">Validiert Access-Token</text><path d="M438.356,883.0938 L498.312,883.0938 L498.312,886.7344 L488.312,896.7344 L438.356,896.7344 L438.356,883.0938" fill="#EEEEEE" style="stroke:#000000;stroke-width:1.5;"/><rect fill="none" height="155.8438" style="stroke:#000000;stroke-width:1.5;" width="690.3086" x="438.356" y="883.0938"/><text fill="#000000" font-family="Helvetica" font-size="10" font-weight="bold" x="453.356" y="893.376">alt</text><text fill="#000000" font-family="Helvetica" font-size="10" font-weight="bold" x="513.312" y="894.376">[Erfolgreiche Validierung]</text><line style="stroke:#000000;stroke-width:1;stroke-dasharray:2,2;" x1="438.356" x2="1128.6646" y1="994.6563" y2="994.6563"/><text fill="#000000" font-family="Helvetica" font-size="10" font-weight="bold" x="443.356" y="1005.9385">[Fehlgeschlagene Validierung]</text><polygon fill="#181818" points="1090.6646,920.375,1100.6646,924.375,1090.6646,928.375,1094.6646,924.375" style="stroke:#181818;stroke-width:1;"/><line style="stroke:#181818;stroke-width:1;" x1="824.0415" x2="1096.6646" y1="924.375" y2="924.375"/><text fill="#000000" font-family="Helvetica" font-size="10" x="831.0415" y="920.0166">(18)</text><text fill="#000000" font-family="Helvetica" font-size="10" x="855.5688" y="920.0166">Weiterleitung der Anfrage mit Access-Token</text><polygon fill="#181818" points="835.0415,946.0156,825.0415,950.0156,835.0415,954.0156,831.0415,950.0156" style="stroke:#181818;stroke-width:1;"/><line style="stroke:#181818;stroke-width:1;stroke-dasharray:2,2;" x1="829.0415" x2="1101.6646" y1="950.0156" y2="950.0156"/><text fill="#000000" font-family="Helvetica" font-size="10" x="841.0415" y="945.6572">(19)</text><text fill="#000000" font-family="Helvetica" font-size="10" x="865.5688" y="945.6572">Antwort</text><polygon fill="#181818" points="470.356,971.6563,460.356,975.6563,470.356,979.6563,466.356,975.6563" style="stroke:#181818;stroke-width:1;"/><line style="stroke:#181818;stroke-width:1;stroke-dasharray:2,2;" x1="464.356" x2="813.0415" y1="975.6563" y2="975.6563"/><text fill="#000000" font-family="Helvetica" font-size="10" x="476.356" y="971.2979">(20)</text><text fill="#000000" font-family="Helvetica" font-size="10" x="500.8833" y="971.2979">Antwort</text><polygon fill="#181818" points="470.356,1026.9375,460.356,1030.9375,470.356,1034.9375,466.356,1030.9375" style="stroke:#181818;stroke-width:1;"/><line style="stroke:#181818;stroke-width:1;stroke-dasharray:2,2;" x1="464.356" x2="813.0415" y1="1030.9375" y2="1030.9375"/><text fill="#000000" font-family="Helvetica" font-size="10" x="476.356" y="1026.5791">(21)</text><text fill="#000000" font-family="Helvetica" font-size="10" x="500.8833" y="1026.5791">Fehler 401 Unauthorized</text><!--SRC=[dLRBTk964Dtp5HMoyGiRpsJ58kS8WusJyLZ78kCJ7syQgH1jcchItSAFdqaMyoKpFvPgIO04sCvaOqlTjs_LhRfTGcHEKpOReO7cNhkztspOgQIvC6862Ov5fjov9XV95uJJzkxDpsA6C42rG2TZKS7q2ioL9ctd8iPaXJxJcP5eAbY5bBf9a3narW5fmigUnRyof1XlS8p6FtH5F4sDpYWvqqeRk9r8LpqGRHvOQ_ZGQFmqDoAT2N2eNy2P31kDaNw2Pa0ZYOuh4JJXvs7_RF3v-jFrnPyDW7pxhZyCu28J9ia1aQ3akMlq8p40W0EpUZaNvA0P6qqFUWIXJfeWB9JlPqeYkMtuclcUWinDj94lmabDBCGiEA6zQ1Zjvqn-EzfcG1SNaVm3RoCbFkaSc2S_l8GFnsteSG9SNvz_JvXfXEB281OAjaXlq7AROYopkATRRQPAYoBIO_bI4RMCklpVgD6bE6DHq_mmFsyMlVjUqRll5Fq7gdY7Jl3BDaVO3-zfC1o641hzz9o31-4Ed5OoVeO-fPBmdlQkmw1WveVtoz_zF-NFwPThnTBkeXiSW_PwSwyS-LftuE3W1bDfdRzr6QKmGZc3SqpG52Mw4jOtOM_POhXCkAlIFRE7jTe_EAZmCk6H5-fPlw1nA9MdP2wuor8ZnsFBymJZYPEfGu8bfmL1a4Y4MlKWBvuFmEfPO8fgzlthzxzbodn3FMM2_bCy4PGozB9NBgMC8mZY6AqjblPztTdzXuVyKBjmsolG-hMepk5X1ywruTGTNFPQ1RVm3ScteSN0sibMgxC2DdRHbjQg4XTPhiZPBXkoPd8TtSieEMfPmaL_-EsVa-D7LAer9Ru19tgE99DMh6aiqwneP2tpaiVdVCrOBXwxUY5zewvuAn4kzzvhuQ2CSB8uFNbudDhNk7-x_JsgqvIF7VWYbEIELwhBwYEPad2PEO9Wf4GsFl9zE_R2XNBGDsEjKeCodk3gFFihDtib1hl69zedPnaf4uPOGMCUxUmJQMt6AlaZioO7VsGpzxv9SKJIQqDbaQ_4HAN8Z8fvw8q4DetHoOzop5_Q7ttdHp99ykholTobZ2l90yfMgDyahtgeH6zPpxk_0z4y3x3bEsLvaCG6tMjIVoWZNxit1M-W_NWgBxWjHXYz5BCYTt_r8lFX-hSblx_rfRNSJn9veXRAF1NF_fhipEuyF0YzUOBIB-iKLXKUX0Miwk7D9hnhruAaFhHzt5latoj6yT_bu7mZ4zWWo9in27q70d8ipQrYyKPTQWtodmp-2b6jtwVm1udo2uj9e_W8-McOe8YTNF1SsVZ9m_l_0W00]--></g></svg>