<svg xmlns="http://www.w3.org/2000/svg" xmlns:xlink="http://www.w3.org/1999/xlink" contentStyleType="text/css" data-diagram-type="SEQUENCE" height="843px" preserveAspectRatio="none" style="width:865px;height:843px;background:#FFFFFF;" version="1.1" viewBox="0 0 865 843" width="865px" zoomAndPan="magnify"><defs/><g><rect fill="#F8F8FF" height="831.8594" style="stroke:#181818;stroke-width:0.5;" width="253.9038" x="11" y="6"/><text fill="#000000" font-family="Helvetica" font-size="10" font-weight="bold" x="83.467" y="15.2822">Kubernetes Cluster</text><rect fill="#C9FFC9" height="831.8594" style="stroke:#181818;stroke-width:0.5;" width="561.5889" x="298.2769" y="6"/><text fill="#000000" font-family="Helvetica" font-size="10" font-weight="bold" x="554.7109" y="15.2822">Anbieter</text><rect fill="#F4A460" height="815.2188" style="stroke:#181818;stroke-width:0.5;" width="435.7783" x="298.2769" y="22.6406"/><text fill="#000000" font-family="Helvetica" font-size="10" font-weight="bold" x="483.0215" y="31.9229">ZETA Guard</text><rect fill="#8FBC8F" height="815.2188" style="stroke:#181818;stroke-width:0.5;" width="104.5" x="755.3657" y="22.6406"/><text fill="#000000" font-family="Helvetica" font-size="10" font-weight="bold" x="770.084" y="31.9229">TI 2.0 Dienst</text><g><title>Client Workload</title><rect fill="#000000" fill-opacity="0.00000" height="717.0156" width="8" x="58.2046" y="76.5625"/><line style="stroke:#181818;stroke-width:0.5;stroke-dasharray:5,5;" x1="61.7046" x2="61.7046" y1="76.5625" y2="793.5781"/></g><g><title/><rect fill="#FFFFFF" height="704.0156" style="stroke:#181818;stroke-width:1;" width="10" x="56.7046" y="84.5625"/></g><g><title>Kubernetes IDP</title><rect fill="#000000" fill-opacity="0.00000" height="717.0156" width="8" x="211.8345" y="76.5625"/><line style="stroke:#181818;stroke-width:0.5;stroke-dasharray:5,5;" x1="215.3345" x2="215.3345" y1="76.5625" y2="793.5781"/></g><g><title/><rect fill="#FFFFFF" height="25.6406" style="stroke:#181818;stroke-width:1;" width="10" x="210.3345" y="102.2031"/></g><g><title/><rect fill="#FFFFFF" height="25.6406" style="stroke:#181818;stroke-width:1;" width="10" x="210.3345" y="190.7656"/></g><g><title>ZETA Guard</title><rect fill="#000000" fill-opacity="0.00000" height="717.0156" width="8" x="372.144" y="76.5625"/><line style="stroke:#181818;stroke-width:0.5;stroke-dasharray:5,5;" x1="375.644" x2="375.644" y1="76.5625" y2="793.5781"/></g><g><title/><rect fill="#FFFFFF" height="358.3281" style="stroke:#181818;stroke-width:1;" width="10" x="370.644" y="165.125"/></g><g><title>PEP</title><rect fill="#000000" fill-opacity="0.00000" height="717.0156" width="8" x="529.2017" y="76.5625"/><line style="stroke:#181818;stroke-width:0.5;stroke-dasharray:5,5;" x1="532.7017" x2="532.7017" y1="76.5625" y2="793.5781"/></g><g><title/><rect fill="#FFFFFF" height="198.4844" style="stroke:#181818;stroke-width:1;" width="10" x="527.7017" y="563.0938"/></g><g><title>Policy Engine</title><rect fill="#000000" fill-opacity="0.00000" height="717.0156" width="8" x="686.269" y="76.5625"/><line style="stroke:#181818;stroke-width:0.5;stroke-dasharray:5,5;" x1="689.769" x2="689.769" y1="76.5625" y2="793.5781"/></g><g><title/><rect fill="#FFFFFF" height="25.6406" style="stroke:#181818;stroke-width:1;" width="10" x="684.769" y="319.9688"/></g><g><title>Resource Server</title><rect fill="#000000" fill-opacity="0.00000" height="717.0156" width="8" x="804.1157" y="76.5625"/><line style="stroke:#181818;stroke-width:0.5;stroke-dasharray:5,5;" x1="807.6157" x2="807.6157" y1="76.5625" y2="793.5781"/></g><g><title/><rect fill="#FFFFFF" height="25.6406" style="stroke:#181818;stroke-width:1;" width="10" x="802.6157" y="655.0156"/></g><rect fill="#E2E2F0" height="25.6406" rx="2.5" ry="2.5" style="stroke:#181818;stroke-width:0.5;" width="93.4092" x="15" y="49.9219"/><text fill="#000000" font-family="Helvetica" font-size="10" x="22" y="66.2041">Client Workload</text><rect fill="#E2E2F0" height="25.6406" rx="2.5" ry="2.5" style="stroke:#181818;stroke-width:0.5;" width="91.1387" x="169.7651" y="49.9219"/><text fill="#000000" font-family="Helvetica" font-size="10" x="176.7651" y="66.2041">Kubernetes IDP</text><rect fill="#E2E2F0" height="37.2813" rx="2.5" ry="2.5" style="stroke:#181818;stroke-width:0.5;" width="146.7344" x="302.2769" y="38.2813"/><text fill="#000000" font-family="Helvetica" font-size="10" x="345.6587" y="54.5635">ZETA Guard</text><text fill="#000000" font-family="Helvetica" font-size="10" x="309.2769" y="66.2041">Authorization Server (STS)</text><rect fill="#E2E2F0" height="37.2813" rx="2.5" ry="2.5" style="stroke:#181818;stroke-width:0.5;" width="71.041" x="497.1812" y="38.2813"/><text fill="#000000" font-family="Helvetica" font-size="10" x="523.5122" y="54.5635">PEP</text><text fill="#000000" font-family="Helvetica" font-size="10" x="504.1812" y="66.2041">HTTP Proxy</text><rect fill="#E2E2F0" height="37.2813" rx="2.5" ry="2.5" style="stroke:#181818;stroke-width:0.5;" width="80.5723" x="649.4829" y="38.2813"/><text fill="#000000" font-family="Helvetica" font-size="10" x="656.4829" y="54.5635">Policy Engine</text><text fill="#000000" font-family="Helvetica" font-size="10" x="675.4966" y="66.2041">(OPA)</text><rect fill="#E2E2F0" height="25.6406" rx="2.5" ry="2.5" style="stroke:#181818;stroke-width:0.5;" width="96.5" x="759.3657" y="49.9219"/><text fill="#000000" font-family="Helvetica" font-size="10" x="766.3657" y="66.2041">Resource Server</text><rect fill="#E2E2F0" height="25.6406" rx="2.5" ry="2.5" style="stroke:#181818;stroke-width:0.5;" width="93.4092" x="15" y="793.5781"/><text fill="#000000" font-family="Helvetica" font-size="10" x="22" y="809.8604">Client Workload</text><rect fill="#E2E2F0" height="25.6406" rx="2.5" ry="2.5" style="stroke:#181818;stroke-width:0.5;" width="91.1387" x="169.7651" y="793.5781"/><text fill="#000000" font-family="Helvetica" font-size="10" x="176.7651" y="809.8604">Kubernetes IDP</text><rect fill="#E2E2F0" height="37.2813" rx="2.5" ry="2.5" style="stroke:#181818;stroke-width:0.5;" width="146.7344" x="302.2769" y="793.5781"/><text fill="#000000" font-family="Helvetica" font-size="10" x="345.6587" y="809.8604">ZETA Guard</text><text fill="#000000" font-family="Helvetica" font-size="10" x="309.2769" y="821.501">Authorization Server (STS)</text><rect fill="#E2E2F0" height="37.2813" rx="2.5" ry="2.5" style="stroke:#181818;stroke-width:0.5;" width="71.041" x="497.1812" y="793.5781"/><text fill="#000000" font-family="Helvetica" font-size="10" x="523.5122" y="809.8604">PEP</text><text fill="#000000" font-family="Helvetica" font-size="10" x="504.1812" y="821.501">HTTP Proxy</text><rect fill="#E2E2F0" height="37.2813" rx="2.5" ry="2.5" style="stroke:#181818;stroke-width:0.5;" width="80.5723" x="649.4829" y="793.5781"/><text fill="#000000" font-family="Helvetica" font-size="10" x="656.4829" y="809.8604">Policy Engine</text><text fill="#000000" font-family="Helvetica" font-size="10" x="675.4966" y="821.501">(OPA)</text><rect fill="#E2E2F0" height="25.6406" rx="2.5" ry="2.5" style="stroke:#181818;stroke-width:0.5;" width="96.5" x="759.3657" y="793.5781"/><text fill="#000000" font-family="Helvetica" font-size="10" x="766.3657" y="809.8604">Resource Server</text><polygon fill="#181818" points="198.3345,98.2031,208.3345,102.2031,198.3345,106.2031,202.3345,102.2031" style="stroke:#181818;stroke-width:1;"/><line style="stroke:#181818;stroke-width:1;" x1="66.7046" x2="204.3345" y1="102.2031" y2="102.2031"/><text fill="#000000" font-family="Helvetica" font-size="10" x="73.7046" y="97.8447">(01)</text><text fill="#000000" font-family="Helvetica" font-size="10" x="98.2319" y="97.8447">Fordert ID-Token an</text><polygon fill="#181818" points="77.7046,123.8438,67.7046,127.8438,77.7046,131.8438,73.7046,127.8438" style="stroke:#181818;stroke-width:1;"/><line style="stroke:#181818;stroke-width:1;stroke-dasharray:2,2;" x1="71.7046" x2="209.3345" y1="127.8438" y2="127.8438"/><text fill="#000000" font-family="Helvetica" font-size="10" x="83.7046" y="123.4854">(02)</text><text fill="#000000" font-family="Helvetica" font-size="10" x="108.2319" y="123.4854">ID-Token</text><polygon fill="#181818" points="358.644,161.125,368.644,165.125,358.644,169.125,362.644,165.125" style="stroke:#181818;stroke-width:1;"/><line style="stroke:#181818;stroke-width:1;" x1="66.7046" x2="364.644" y1="165.125" y2="165.125"/><text fill="#000000" font-family="Helvetica" font-size="10" x="73.7046" y="154.9463">(03)</text><text fill="#000000" font-family="Helvetica" font-size="10" x="98.2319" y="149.126">Fordert Access-Token an</text><text fill="#000000" font-family="Helvetica" font-size="10" x="98.2319" y="160.7666">(Token Exchange mit ID-Token)</text><polygon fill="#181818" points="231.3345,186.7656,221.3345,190.7656,231.3345,194.7656,227.3345,190.7656" style="stroke:#181818;stroke-width:1;"/><line style="stroke:#181818;stroke-width:1;" x1="225.3345" x2="369.644" y1="190.7656" y2="190.7656"/><text fill="#000000" font-family="Helvetica" font-size="10" x="237.3345" y="186.4072">(04)</text><text fill="#000000" font-family="Helvetica" font-size="10" x="261.8618" y="186.4072">GET /openid/v1/jwks</text><polygon fill="#181818" points="358.644,212.4063,368.644,216.4063,358.644,220.4063,362.644,216.4063" style="stroke:#181818;stroke-width:1;"/><line style="stroke:#181818;stroke-width:1;stroke-dasharray:2,2;" x1="220.3345" x2="364.644" y1="216.4063" y2="216.4063"/><text fill="#000000" font-family="Helvetica" font-size="10" x="227.3345" y="212.0479">(05)</text><text fill="#000000" font-family="Helvetica" font-size="10" x="251.8618" y="212.0479">JWKS</text><line style="stroke:#181818;stroke-width:1;" x1="380.644" x2="422.644" y1="253.6875" y2="253.6875"/><line style="stroke:#181818;stroke-width:1;" x1="422.644" x2="422.644" y1="253.6875" y2="266.6875"/><line style="stroke:#181818;stroke-width:1;" x1="381.644" x2="422.644" y1="266.6875" y2="266.6875"/><polygon fill="#181818" points="391.644,262.6875,381.644,266.6875,391.644,270.6875,387.644,266.6875" style="stroke:#181818;stroke-width:1;"/><text fill="#000000" font-family="Helvetica" font-size="10" x="387.644" y="243.5088">(06)</text><text fill="#000000" font-family="Helvetica" font-size="10" x="412.1714" y="237.6885">Validiert ID-Token</text><text fill="#000000" font-family="Helvetica" font-size="10" x="412.1714" y="249.3291">(Signatur, Ablauf, etc.)</text><path d="M45.7046,278.6875 L105.6606,278.6875 L105.6606,282.3281 L95.6606,292.3281 L45.7046,292.3281 L45.7046,278.6875" fill="#EEEEEE" style="stroke:#000000;stroke-width:1.5;"/><rect fill="none" height="130.2031" style="stroke:#000000;stroke-width:1.5;" width="665.0645" x="45.7046" y="278.6875"/><text fill="#000000" font-family="Helvetica" font-size="10" font-weight="bold" x="60.7046" y="288.9697">alt</text><text fill="#000000" font-family="Helvetica" font-size="10" font-weight="bold" x="120.6606" y="289.9697">[Erfolgreiche Validierung]</text><line style="stroke:#000000;stroke-width:1;stroke-dasharray:2,2;" x1="45.7046" x2="710.769" y1="364.6094" y2="364.6094"/><text fill="#000000" font-family="Helvetica" font-size="10" font-weight="bold" x="50.7046" y="375.8916">[Fehlgeschlagene Validierung]</text><polygon fill="#181818" points="672.769,315.9688,682.769,319.9688,672.769,323.9688,676.769,319.9688" style="stroke:#181818;stroke-width:1;"/><line style="stroke:#181818;stroke-width:1;" x1="380.644" x2="678.769" y1="319.9688" y2="319.9688"/><text fill="#000000" font-family="Helvetica" font-size="10" x="387.644" y="315.6104">(07)</text><text fill="#000000" font-family="Helvetica" font-size="10" x="412.1714" y="315.6104">Entscheidungsanfrage (issuer uri, etc.)</text><polygon fill="#181818" points="391.644,341.6094,381.644,345.6094,391.644,349.6094,387.644,345.6094" style="stroke:#181818;stroke-width:1;"/><line style="stroke:#181818;stroke-width:1;stroke-dasharray:2,2;" x1="385.644" x2="683.769" y1="345.6094" y2="345.6094"/><text fill="#000000" font-family="Helvetica" font-size="10" x="397.644" y="341.251">(08)</text><text fill="#000000" font-family="Helvetica" font-size="10" x="422.1714" y="341.251">Ergebnis</text><polygon fill="#181818" points="77.7046,396.8906,67.7046,400.8906,77.7046,404.8906,73.7046,400.8906" style="stroke:#181818;stroke-width:1;"/><line style="stroke:#181818;stroke-width:1;stroke-dasharray:2,2;" x1="71.7046" x2="369.644" y1="400.8906" y2="400.8906"/><text fill="#000000" font-family="Helvetica" font-size="10" x="83.7046" y="396.5322">(09)</text><text fill="#000000" font-family="Helvetica" font-size="10" x="108.2319" y="396.5322">Fehler 403 Forbidden</text><path d="M45.7046,426.8906 L105.6606,426.8906 L105.6606,430.5313 L95.6606,440.5313 L45.7046,440.5313 L45.7046,426.8906" fill="#EEEEEE" style="stroke:#000000;stroke-width:1.5;"/><rect fill="none" height="104.5625" style="stroke:#000000;stroke-width:1.5;" width="345.9395" x="45.7046" y="426.8906"/><text fill="#000000" font-family="Helvetica" font-size="10" font-weight="bold" x="60.7046" y="437.1729">alt</text><text fill="#000000" font-family="Helvetica" font-size="10" font-weight="bold" x="120.6606" y="438.1729">[Erfolgreiche Autorisierung]</text><line style="stroke:#000000;stroke-width:1;stroke-dasharray:2,2;" x1="45.7046" x2="391.644" y1="487.1719" y2="487.1719"/><text fill="#000000" font-family="Helvetica" font-size="10" font-weight="bold" x="50.7046" y="498.4541">[Fehlgeschlagene Autorisierung]</text><polygon fill="#181818" points="77.7046,464.1719,67.7046,468.1719,77.7046,472.1719,73.7046,468.1719" style="stroke:#181818;stroke-width:1;"/><line style="stroke:#181818;stroke-width:1;stroke-dasharray:2,2;" x1="71.7046" x2="369.644" y1="468.1719" y2="468.1719"/><text fill="#000000" font-family="Helvetica" font-size="10" x="83.7046" y="463.8135">(10)</text><text fill="#000000" font-family="Helvetica" font-size="10" x="108.2319" y="463.8135">Access-Token</text><polygon fill="#181818" points="77.7046,519.4531,67.7046,523.4531,77.7046,527.4531,73.7046,523.4531" style="stroke:#181818;stroke-width:1;"/><line style="stroke:#181818;stroke-width:1;stroke-dasharray:2,2;" x1="71.7046" x2="369.644" y1="523.4531" y2="523.4531"/><text fill="#000000" font-family="Helvetica" font-size="10" x="83.7046" y="519.0947">(11)</text><text fill="#000000" font-family="Helvetica" font-size="10" x="108.2319" y="519.0947">Fehler 403 Forbidden</text><polygon fill="#181818" points="515.7017,559.0938,525.7017,563.0938,515.7017,567.0938,519.7017,563.0938" style="stroke:#181818;stroke-width:1;"/><line style="stroke:#181818;stroke-width:1;" x1="66.7046" x2="521.7017" y1="563.0938" y2="563.0938"/><text fill="#000000" font-family="Helvetica" font-size="10" x="73.7046" y="558.7354">(12)</text><text fill="#000000" font-family="Helvetica" font-size="10" x="98.2319" y="558.7354">Anfrage mit Access-Token</text><line style="stroke:#181818;stroke-width:1;" x1="537.7017" x2="579.7017" y1="588.7344" y2="588.7344"/><line style="stroke:#181818;stroke-width:1;" x1="579.7017" x2="579.7017" y1="588.7344" y2="601.7344"/><line style="stroke:#181818;stroke-width:1;" x1="538.7017" x2="579.7017" y1="601.7344" y2="601.7344"/><polygon fill="#181818" points="548.7017,597.7344,538.7017,601.7344,548.7017,605.7344,544.7017,601.7344" style="stroke:#181818;stroke-width:1;"/><text fill="#000000" font-family="Helvetica" font-size="10" x="544.7017" y="584.376">(13)</text><text fill="#000000" font-family="Helvetica" font-size="10" x="569.229" y="584.376">Validiert Access-Token</text><path d="M45.7046,613.7344 L105.6606,613.7344 L105.6606,617.375 L95.6606,627.375 L45.7046,627.375 L45.7046,613.7344" fill="#EEEEEE" style="stroke:#000000;stroke-width:1.5;"/><rect fill="none" height="155.8438" style="stroke:#000000;stroke-width:1.5;" width="782.9111" x="45.7046" y="613.7344"/><text fill="#000000" font-family="Helvetica" font-size="10" font-weight="bold" x="60.7046" y="624.0166">alt</text><text fill="#000000" font-family="Helvetica" font-size="10" font-weight="bold" x="120.6606" y="625.0166">[Erfolgreiche Validierung]</text><line style="stroke:#000000;stroke-width:1;stroke-dasharray:2,2;" x1="45.7046" x2="828.6157" y1="725.2969" y2="725.2969"/><text fill="#000000" font-family="Helvetica" font-size="10" font-weight="bold" x="50.7046" y="736.5791">[Fehlgeschlagene Validierung]</text><polygon fill="#181818" points="790.6157,651.0156,800.6157,655.0156,790.6157,659.0156,794.6157,655.0156" style="stroke:#181818;stroke-width:1;"/><line style="stroke:#181818;stroke-width:1;" x1="537.7017" x2="796.6157" y1="655.0156" y2="655.0156"/><text fill="#000000" font-family="Helvetica" font-size="10" x="544.7017" y="650.6572">(14)</text><text fill="#000000" font-family="Helvetica" font-size="10" x="569.229" y="650.6572">Weiterleitung der Anfrage mit Access-Token</text><polygon fill="#181818" points="548.7017,676.6563,538.7017,680.6563,548.7017,684.6563,544.7017,680.6563" style="stroke:#181818;stroke-width:1;"/><line style="stroke:#181818;stroke-width:1;stroke-dasharray:2,2;" x1="542.7017" x2="801.6157" y1="680.6563" y2="680.6563"/><text fill="#000000" font-family="Helvetica" font-size="10" x="554.7017" y="676.2979">(15)</text><text fill="#000000" font-family="Helvetica" font-size="10" x="579.229" y="676.2979">Antwort</text><polygon fill="#181818" points="77.7046,702.2969,67.7046,706.2969,77.7046,710.2969,73.7046,706.2969" style="stroke:#181818;stroke-width:1;"/><line style="stroke:#181818;stroke-width:1;stroke-dasharray:2,2;" x1="71.7046" x2="526.7017" y1="706.2969" y2="706.2969"/><text fill="#000000" font-family="Helvetica" font-size="10" x="83.7046" y="701.9385">(16)</text><text fill="#000000" font-family="Helvetica" font-size="10" x="108.2319" y="701.9385">Antwort</text><polygon fill="#181818" points="77.7046,757.5781,67.7046,761.5781,77.7046,765.5781,73.7046,761.5781" style="stroke:#181818;stroke-width:1;"/><line style="stroke:#181818;stroke-width:1;stroke-dasharray:2,2;" x1="71.7046" x2="526.7017" y1="761.5781" y2="761.5781"/><text fill="#000000" font-family="Helvetica" font-size="10" x="83.7046" y="757.2197">(17)</text><text fill="#000000" font-family="Helvetica" font-size="10" x="108.2319" y="757.2197">Fehler 401 Unauthorized</text><!--SRC=[ZLHDSzem4BtxLsp91IOX8MaF7GwTSS21D6tYYMcPPd8Hzc8Kn8fAClduzLr_G0mXqrn0jjw-VVkUP94vJTbYWWOQpKwdrV3iND9I6B601ASYK-v2aula2y9fP__cjLWW356jqCbOr33z4lDJaxPB4MEoGVTqPYIQ6bOXfMxc9m-PTK2QiBPdyM-65ECjJj7aYtCHprEZCqfwMca3uvbqzO9ej-1rXZFF-xGq8bq8SAXVm9aCFM-Ydw1nbR4DX0ujz1JBGDE0Wy5CMrVo0p0xZoYNWXmqUaeY_u-rcIijaWQ8l2v_juki4L_smm9uzTNoqaDAW7jN0doQI2pRZeBUyFhcnytW3vCLctV1o8T19WntEeW49S_dHZyIR-zqUmNUav-vcJRoHJYfYMqnAmww6OsYLg7Y3ftWXxSSOH3Uqt0q2Y4q-kcv00_3FJYjPFmC0QMIy9wQDw5VClE2qUlnyhfyYD4bd1rteCycSSe7VM7c4Og1GIpdUCD_YvPFIeoLz89w_QvyLTIj-spi5B6JA-5m7KYLLVjRPVpXOHSkj4dGE8waFT9p913abRlGPc1PqcvtDm2lHbCvL-VnunYjtN2n6-KoU8fdWbA4XNnjrl8gXcrDC0X6SAANI38vMPsUF3pERLrKLPIh-Zw-YkearR8BluMIYQnFnb8YcP9mcJa2Vw94DZq2TF5nonFAGM2cMgK6PJp3JNL6ALjRu-T4SuK1ESiucJ302fhoLK9eIcipFbbygTV4a1ViQWvCYXEIraDb4Ivmfb9aDiKSz6xhJHRTeeBRVEbypbsVo2JXL3ZqjsFmmUTpRpTi-_dgaUtNz16UVB9tbTNEpB28sAyyoq_3LlzXM8Bg2Mu1u3zXbGJRroFlE4R-UXd5lupZ3xTvNmFib1TJ3iDyGf_SepQkwbCtSRtnWL1tYhUSEuLV9Ahl5IOU5Eubk7EL_m40]--></g></svg>