<?plantuml 1.2026.2?><svg xmlns="http://www.w3.org/2000/svg" xmlns:xlink="http://www.w3.org/1999/xlink" contentStyleType="text/css" data-diagram-type="SEQUENCE" height="2539px" preserveAspectRatio="none" style="width:1342px;height:2539px;background:#FFFFFF;" version="1.1" viewBox="0 0 1342 2539" width="1342px" zoomAndPan="magnify"><title>ZETA RATS Integration</title><defs/><g><text fill="#000000" font-family="sans-serif" font-size="14" font-weight="bold" lengthAdjust="spacing" textLength="179.9082" x="577.3428" y="27.9951">ZETA RATS Integration</text><rect fill="none" height="801.7891" style="stroke:#000000;stroke-width:1.5;" width="1266.8369" x="10" y="880.8125"/><rect fill="none" height="289.3281" style="stroke:#000000;stroke-width:1.5;" width="396.3984" x="929.1953" y="2047.3281"/><rect fill="none" height="120.4688" style="stroke:#000000;stroke-width:1.5;" width="388.8188" x="636.3237" y="2350.6563"/><g class="participant-lifeline" data-entity-uid="part1" data-qualified-name="TPM" id="part1-lifeline"><g><title>TPM</title><rect fill="#000000" fill-opacity="0.00000" height="2398.2344" width="8" x="62.5356" y="89.8906"/><line style="stroke:#181818;stroke-width:0.5;stroke-dasharray:5,5;" x1="66" x2="66" y1="89.8906" y2="2488.125"/></g></g><g class="participant-lifeline" data-entity-uid="part2" data-qualified-name="ZAS" id="part2-lifeline"><g><title>ZAS</title><rect fill="#000000" fill-opacity="0.00000" height="2398.2344" width="8" x="421.3999" y="89.8906"/><line style="stroke:#181818;stroke-width:0.5;stroke-dasharray:5,5;" x1="424.7773" x2="424.7773" y1="89.8906" y2="2488.125"/></g></g><g class="participant-lifeline" data-entity-uid="part3" data-qualified-name="Client" id="part3-lifeline"><g><title>PS und ZETA</title><rect fill="#000000" fill-opacity="0.00000" height="2398.2344" width="8" x="694.0376" y="89.8906"/><line style="stroke:#181818;stroke-width:0.5;stroke-dasharray:5,5;" x1="697.3237" x2="697.3237" y1="89.8906" y2="2488.125"/></g></g><g class="participant-lifeline" data-entity-uid="part4" data-qualified-name="AuthS" id="part4-lifeline"><g><title>AuthS</title><rect fill="#000000" fill-opacity="0.00000" height="2398.2344" width="8" x="973.1689" y="89.8906"/><line style="stroke:#181818;stroke-width:0.5;stroke-dasharray:5,5;" x1="976.1953" x2="976.1953" y1="89.8906" y2="2488.125"/></g></g><g class="participant-lifeline" data-entity-uid="part5" data-qualified-name="OPA" id="part5-lifeline"><g><title>OPA</title><rect fill="#000000" fill-opacity="0.00000" height="2398.2344" width="8" x="1267.8369" y="89.8906"/><line style="stroke:#181818;stroke-width:0.5;stroke-dasharray:5,5;" x1="1271.0801" x2="1271.0801" y1="89.8906" y2="2488.125"/></g></g><g class="participant participant-head" data-entity-uid="part1" data-qualified-name="TPM" id="part1-head"><rect fill="#E2E2F0" height="46.5938" rx="2.5" ry="2.5" style="stroke:#181818;stroke-width:0.5;" width="93.0713" x="20" y="42.2969"/><text fill="#000000" font-family="sans-serif" font-size="14" lengthAdjust="spacing" textLength="29.0732" x="51.999" y="62.292">TPM</text><text fill="#000000" font-family="sans-serif" font-size="14" lengthAdjust="spacing" textLength="79.0713" x="27" y="78.5889">(Hardware)</text></g><g class="participant participant-tail" data-entity-uid="part1" data-qualified-name="TPM" id="part1-tail"><rect fill="#E2E2F0" height="46.5938" rx="2.5" ry="2.5" style="stroke:#181818;stroke-width:0.5;" width="93.0713" x="20" y="2487.125"/><text fill="#000000" font-family="sans-serif" font-size="14" lengthAdjust="spacing" textLength="29.0732" x="51.999" y="2507.1201">TPM</text><text fill="#000000" font-family="sans-serif" font-size="14" lengthAdjust="spacing" textLength="79.0713" x="27" y="2523.417">(Hardware)</text></g><g class="participant participant-head" data-entity-uid="part2" data-qualified-name="ZAS" id="part2-head"><rect fill="#E2E2F0" height="46.5938" rx="2.5" ry="2.5" style="stroke:#181818;stroke-width:0.5;" width="81.2451" x="384.7773" y="42.2969"/><text fill="#000000" font-family="sans-serif" font-size="14" lengthAdjust="spacing" textLength="28.0547" x="411.3726" y="62.292">ZAS</text><text fill="#000000" font-family="sans-serif" font-size="14" lengthAdjust="spacing" textLength="67.2451" x="391.7773" y="78.5889">(Attester)</text></g><g class="participant participant-tail" data-entity-uid="part2" data-qualified-name="ZAS" id="part2-tail"><rect fill="#E2E2F0" height="46.5938" rx="2.5" ry="2.5" style="stroke:#181818;stroke-width:0.5;" width="81.2451" x="384.7773" y="2487.125"/><text fill="#000000" font-family="sans-serif" font-size="14" lengthAdjust="spacing" textLength="28.0547" x="411.3726" y="2507.1201">ZAS</text><text fill="#000000" font-family="sans-serif" font-size="14" lengthAdjust="spacing" textLength="67.2451" x="391.7773" y="2523.417">(Attester)</text></g><g class="participant participant-head" data-entity-uid="part3" data-qualified-name="Client" id="part3-head"><rect fill="#E2E2F0" height="46.5938" rx="2.5" ry="2.5" style="stroke:#181818;stroke-width:0.5;" width="103.4277" x="646.3237" y="42.2969"/><text fill="#000000" font-family="sans-serif" font-size="14" lengthAdjust="spacing" textLength="89.4277" x="653.3237" y="62.292">PS und ZETA</text><text fill="#000000" font-family="sans-serif" font-size="14" lengthAdjust="spacing" textLength="40.5303" x="677.7725" y="78.5889">Client</text></g><g class="participant participant-tail" data-entity-uid="part3" data-qualified-name="Client" id="part3-tail"><rect fill="#E2E2F0" height="46.5938" rx="2.5" ry="2.5" style="stroke:#181818;stroke-width:0.5;" width="103.4277" x="646.3237" y="2487.125"/><text fill="#000000" font-family="sans-serif" font-size="14" lengthAdjust="spacing" textLength="89.4277" x="653.3237" y="2507.1201">PS und ZETA</text><text fill="#000000" font-family="sans-serif" font-size="14" lengthAdjust="spacing" textLength="40.5303" x="677.7725" y="2523.417">Client</text></g><g class="participant participant-head" data-entity-uid="part4" data-qualified-name="AuthS" id="part4-head"><rect fill="#E2E2F0" height="46.5938" rx="2.5" ry="2.5" style="stroke:#181818;stroke-width:0.5;" width="75.9473" x="939.1953" y="42.2969"/><text fill="#000000" font-family="sans-serif" font-size="14" lengthAdjust="spacing" textLength="41.6992" x="956.3193" y="62.292">AuthS</text><text fill="#000000" font-family="sans-serif" font-size="14" lengthAdjust="spacing" textLength="61.9473" x="946.1953" y="78.5889">(Verifier)</text></g><g class="participant participant-tail" data-entity-uid="part4" data-qualified-name="AuthS" id="part4-tail"><rect fill="#E2E2F0" height="46.5938" rx="2.5" ry="2.5" style="stroke:#181818;stroke-width:0.5;" width="75.9473" x="939.1953" y="2487.125"/><text fill="#000000" font-family="sans-serif" font-size="14" lengthAdjust="spacing" textLength="41.6992" x="956.3193" y="2507.1201">AuthS</text><text fill="#000000" font-family="sans-serif" font-size="14" lengthAdjust="spacing" textLength="61.9473" x="946.1953" y="2523.417">(Verifier)</text></g><g class="participant participant-head" data-entity-uid="part5" data-qualified-name="OPA" id="part5-head"><rect fill="#E2E2F0" height="46.5938" rx="2.5" ry="2.5" style="stroke:#181818;stroke-width:0.5;" width="87.5137" x="1228.0801" y="42.2969"/><text fill="#000000" font-family="sans-serif" font-size="14" lengthAdjust="spacing" textLength="29.0391" x="1257.3174" y="62.292">OPA</text><text fill="#000000" font-family="sans-serif" font-size="14" lengthAdjust="spacing" textLength="73.5137" x="1235.0801" y="78.5889">(Endorser)</text></g><g class="participant participant-tail" data-entity-uid="part5" data-qualified-name="OPA" id="part5-tail"><rect fill="#E2E2F0" height="46.5938" rx="2.5" ry="2.5" style="stroke:#181818;stroke-width:0.5;" width="87.5137" x="1228.0801" y="2487.125"/><text fill="#000000" font-family="sans-serif" font-size="14" lengthAdjust="spacing" textLength="29.0391" x="1257.3174" y="2507.1201">OPA</text><text fill="#000000" font-family="sans-serif" font-size="14" lengthAdjust="spacing" textLength="73.5137" x="1235.0801" y="2523.417">(Endorser)</text></g><rect fill="#EEEEEE" height="3" style="stroke:#EEEEEE;stroke-width:1;" width="1335.5938" x="0" y="120.457"/><line style="stroke:#000000;stroke-width:1;" x1="0" x2="1335.5938" y1="120.457" y2="120.457"/><line style="stroke:#000000;stroke-width:1;" x1="0" x2="1335.5938" y1="123.457" y2="123.457"/><rect fill="#EEEEEE" height="23.1328" style="stroke:#000000;stroke-width:2;" width="120.6533" x="607.4702" y="109.8906"/><text fill="#000000" font-family="sans-serif" font-size="13" font-weight="bold" lengthAdjust="spacing" textLength="102.1274" x="613.4702" y="125.9575">1: Installation</text><g class="message" data-entity-1="part2" data-entity-2="part2" id="msg1"><line style="stroke:#181818;stroke-width:1;stroke-dasharray:2,2;" x1="425.3999" x2="467.3999" y1="164.1563" y2="164.1563"/><line style="stroke:#181818;stroke-width:1;stroke-dasharray:2,2;" x1="467.3999" x2="467.3999" y1="164.1563" y2="177.1563"/><line style="stroke:#181818;stroke-width:1;stroke-dasharray:2,2;" x1="426.3999" x2="467.3999" y1="177.1563" y2="177.1563"/><polygon fill="#181818" points="436.3999,173.1563,426.3999,177.1563,436.3999,181.1563,432.3999,177.1563" style="stroke:#181818;stroke-width:1;"/><text fill="#000000" font-family="sans-serif" font-size="13" lengthAdjust="spacing" textLength="72.0015" x="432.3999" y="159.0903">Installation</text></g><g class="message" data-entity-1="part3" data-entity-2="part3" id="msg2"><line style="stroke:#181818;stroke-width:1;stroke-dasharray:2,2;" x1="698.0376" x2="740.0376" y1="206.2891" y2="206.2891"/><line style="stroke:#181818;stroke-width:1;stroke-dasharray:2,2;" x1="740.0376" x2="740.0376" y1="206.2891" y2="219.2891"/><line style="stroke:#181818;stroke-width:1;stroke-dasharray:2,2;" x1="699.0376" x2="740.0376" y1="219.2891" y2="219.2891"/><polygon fill="#181818" points="709.0376,215.2891,699.0376,219.2891,709.0376,223.2891,705.0376,219.2891" style="stroke:#181818;stroke-width:1;"/><text fill="#000000" font-family="sans-serif" font-size="13" lengthAdjust="spacing" textLength="72.0015" x="705.0376" y="201.2231">Installation</text></g><g class="message" data-entity-1="part2" data-entity-2="part2" id="msg3"><line style="stroke:#181818;stroke-width:1;stroke-dasharray:2,2;" x1="425.3999" x2="467.3999" y1="248.4219" y2="248.4219"/><line style="stroke:#181818;stroke-width:1;stroke-dasharray:2,2;" x1="467.3999" x2="467.3999" y1="248.4219" y2="261.4219"/><line style="stroke:#181818;stroke-width:1;stroke-dasharray:2,2;" x1="426.3999" x2="467.3999" y1="261.4219" y2="261.4219"/><polygon fill="#181818" points="436.3999,257.4219,426.3999,261.4219,436.3999,265.4219,432.3999,261.4219" style="stroke:#181818;stroke-width:1;"/><text fill="#000000" font-family="sans-serif" font-size="13" lengthAdjust="spacing" textLength="104.8696" x="432.3999" y="243.356">Messung des PS</text></g><g class="message" data-entity-1="part2" data-entity-2="part2" id="msg4"><line style="stroke:#181818;stroke-width:1;stroke-dasharray:2,2;" x1="425.3999" x2="467.3999" y1="305.6875" y2="305.6875"/><line style="stroke:#181818;stroke-width:1;stroke-dasharray:2,2;" x1="467.3999" x2="467.3999" y1="305.6875" y2="318.6875"/><line style="stroke:#181818;stroke-width:1;stroke-dasharray:2,2;" x1="426.3999" x2="467.3999" y1="318.6875" y2="318.6875"/><polygon fill="#181818" points="436.3999,314.6875,426.3999,318.6875,436.3999,322.6875,432.3999,318.6875" style="stroke:#181818;stroke-width:1;"/><text fill="#000000" font-family="sans-serif" font-size="13" lengthAdjust="spacing" textLength="173.9512" x="432.3999" y="285.4888">Vergleich der Messung mit</text><text fill="#000000" font-family="sans-serif" font-size="13" lengthAdjust="spacing" textLength="132.9072" x="452.9219" y="300.6216">Wert des Herstellers</text></g><g class="message" data-entity-1="part2" data-entity-2="part1" id="msg5"><polygon fill="#181818" points="77.5356,343.8203,67.5356,347.8203,77.5356,351.8203,73.5356,347.8203" style="stroke:#181818;stroke-width:1;"/><line style="stroke:#181818;stroke-width:1;" x1="71.5356" x2="424.3999" y1="347.8203" y2="347.8203"/><text fill="#000000" font-family="sans-serif" font-size="13" lengthAdjust="spacing" textLength="190.8232" x="150.5562" y="342.7544">TPM2_CreatePrimary() &#8594; SRK</text></g><g class="message" data-entity-1="part2" data-entity-2="part1" id="msg6"><polygon fill="#181818" points="77.5356,372.9531,67.5356,376.9531,77.5356,380.9531,73.5356,376.9531" style="stroke:#181818;stroke-width:1;"/><line style="stroke:#181818;stroke-width:1;" x1="71.5356" x2="424.3999" y1="376.9531" y2="376.9531"/><text fill="#000000" font-family="sans-serif" font-size="13" lengthAdjust="spacing" textLength="334.8643" x="78.5356" y="371.8872">TPM2_Create(SRK, restricted=sign, fixedTPM=true)</text></g><g class="message" data-entity-1="part1" data-entity-2="part2" id="msg7"><polygon fill="#181818" points="413.3999,402.0859,423.3999,406.0859,413.3999,410.0859,417.3999,406.0859" style="stroke:#181818;stroke-width:1;"/><line style="stroke:#181818;stroke-width:1;stroke-dasharray:2,2;" x1="66.5356" x2="419.3999" y1="406.0859" y2="406.0859"/><text fill="#000000" font-family="sans-serif" font-size="13" lengthAdjust="spacing" textLength="148.0908" x="171.9224" y="401.02">AK_pub, AK_priv (blob)</text></g><g class="message" data-entity-1="part2" data-entity-2="part1" id="msg8"><polygon fill="#181818" points="77.5356,431.2188,67.5356,435.2188,77.5356,439.2188,73.5356,435.2188" style="stroke:#181818;stroke-width:1;"/><line style="stroke:#181818;stroke-width:1;" x1="71.5356" x2="424.3999" y1="435.2188" y2="435.2188"/><text fill="#000000" font-family="sans-serif" font-size="13" lengthAdjust="spacing" textLength="312.0635" x="89.936" y="430.1528">TPM2_Load(SRK, AK_priv, AK_pub) &#8594; AK_Handle</text></g><g class="message" data-entity-1="part2" data-entity-2="part1" id="msg9"><polygon fill="#181818" points="77.5356,460.3516,67.5356,464.3516,77.5356,468.3516,73.5356,464.3516" style="stroke:#181818;stroke-width:1;"/><line style="stroke:#181818;stroke-width:1;" x1="71.5356" x2="424.3999" y1="464.3516" y2="464.3516"/><text fill="#000000" font-family="sans-serif" font-size="13" lengthAdjust="spacing" textLength="182.7236" x="154.606" y="459.2856">PCR_Extend(23, Messwerte)</text></g><rect fill="#EEEEEE" height="3" style="stroke:#EEEEEE;stroke-width:1;" width="1335.5938" x="0" y="492.918"/><line style="stroke:#000000;stroke-width:1;" x1="0" x2="1335.5938" y1="492.918" y2="492.918"/><line style="stroke:#000000;stroke-width:1;" x1="0" x2="1335.5938" y1="495.918" y2="495.918"/><rect fill="#EEEEEE" height="23.1328" style="stroke:#000000;stroke-width:2;" width="97.6875" x="618.9531" y="482.3516"/><text fill="#000000" font-family="sans-serif" font-size="13" font-weight="bold" lengthAdjust="spacing" textLength="79.1616" x="624.9531" y="498.4185">2: PS Start</text><g class="message" data-entity-1="part3" data-entity-2="part3" id="msg10"><line style="stroke:#181818;stroke-width:1;stroke-dasharray:2,2;" x1="698.0376" x2="740.0376" y1="536.6172" y2="536.6172"/><line style="stroke:#181818;stroke-width:1;stroke-dasharray:2,2;" x1="740.0376" x2="740.0376" y1="536.6172" y2="549.6172"/><line style="stroke:#181818;stroke-width:1;stroke-dasharray:2,2;" x1="699.0376" x2="740.0376" y1="549.6172" y2="549.6172"/><polygon fill="#181818" points="709.0376,545.6172,699.0376,549.6172,709.0376,553.6172,705.0376,549.6172" style="stroke:#181818;stroke-width:1;"/><text fill="#000000" font-family="sans-serif" font-size="13" lengthAdjust="spacing" textLength="31.7573" x="705.0376" y="531.5513">Start</text></g><g class="message" data-entity-1="part2" data-entity-2="part2" id="msg11"><line style="stroke:#181818;stroke-width:1;stroke-dasharray:2,2;" x1="425.3999" x2="467.3999" y1="578.75" y2="578.75"/><line style="stroke:#181818;stroke-width:1;stroke-dasharray:2,2;" x1="467.3999" x2="467.3999" y1="578.75" y2="591.75"/><line style="stroke:#181818;stroke-width:1;stroke-dasharray:2,2;" x1="426.3999" x2="467.3999" y1="591.75" y2="591.75"/><polygon fill="#181818" points="436.3999,587.75,426.3999,591.75,436.3999,595.75,432.3999,591.75" style="stroke:#181818;stroke-width:1;"/><text fill="#000000" font-family="sans-serif" font-size="13" lengthAdjust="spacing" textLength="104.8696" x="432.3999" y="573.6841">Messung des PS</text></g><g class="message" data-entity-1="part2" data-entity-2="part1" id="msg12"><polygon fill="#181818" points="77.5356,616.8828,67.5356,620.8828,77.5356,624.8828,73.5356,620.8828" style="stroke:#181818;stroke-width:1;"/><line style="stroke:#181818;stroke-width:1;" x1="71.5356" x2="424.3999" y1="620.8828" y2="620.8828"/><text fill="#000000" font-family="sans-serif" font-size="13" lengthAdjust="spacing" textLength="182.7236" x="154.606" y="615.8169">PCR_Extend(23, Messwerte)</text></g><rect fill="#EEEEEE" height="3" style="stroke:#EEEEEE;stroke-width:1;" width="1335.5938" x="0" y="649.4492"/><line style="stroke:#000000;stroke-width:1;" x1="0" x2="1335.5938" y1="649.4492" y2="649.4492"/><line style="stroke:#000000;stroke-width:1;" x1="0" x2="1335.5938" y1="652.4492" y2="652.4492"/><rect fill="#EEEEEE" height="23.1328" style="stroke:#000000;stroke-width:2;" width="208.4097" x="563.592" y="638.8828"/><text fill="#000000" font-family="sans-serif" font-size="13" font-weight="bold" lengthAdjust="spacing" textLength="189.8838" x="569.592" y="654.9497">3: Bindungs-Vorbereitung</text><g class="message" data-entity-1="part3" data-entity-2="part3" id="msg13"><line style="stroke:#FF0000;stroke-width:1;" x1="698.0376" x2="740.0376" y1="693.1484" y2="693.1484"/><line style="stroke:#FF0000;stroke-width:1;" x1="740.0376" x2="740.0376" y1="693.1484" y2="706.1484"/><line style="stroke:#FF0000;stroke-width:1;" x1="699.0376" x2="740.0376" y1="706.1484" y2="706.1484"/><polygon fill="#FF0000" points="709.0376,702.1484,699.0376,706.1484,709.0376,710.1484,705.0376,706.1484" style="stroke:#FF0000;stroke-width:1;"/><text fill="#000000" font-family="sans-serif" font-size="13" lengthAdjust="spacing" textLength="240.4746" x="705.0376" y="688.0825">Generiere CI_KeyPair (CI_pub/CI_prk)</text></g><g class="message" data-entity-1="part3" data-entity-2="part2" id="msg14"><polygon fill="#FF0000" points="436.3999,731.2813,426.3999,735.2813,436.3999,739.2813,432.3999,735.2813" style="stroke:#FF0000;stroke-width:1;"/><line style="stroke:#FF0000;stroke-width:1;" x1="430.3999" x2="697.0376" y1="735.2813" y2="735.2813"/><text fill="#000000" font-family="sans-serif" font-size="13" lengthAdjust="spacing" textLength="179.7402" x="471.8486" y="730.2153">dataToSign = Hash(CI_pub)</text></g><g class="message" data-entity-1="part2" data-entity-2="part1" id="msg15"><polygon fill="#FF0000" points="77.5356,760.4141,67.5356,764.4141,77.5356,768.4141,73.5356,764.4141" style="stroke:#FF0000;stroke-width:1;"/><line style="stroke:#FF0000;stroke-width:1;" x1="71.5356" x2="424.3999" y1="764.4141" y2="764.4141"/><text fill="#000000" font-family="sans-serif" font-size="13" lengthAdjust="spacing" textLength="231.8228" x="130.0564" y="759.3481">TPM2_Sign(AK_Handle, dataToSign)</text></g><g class="message" data-entity-1="part1" data-entity-2="part2" id="msg16"><polygon fill="#FF0000" points="413.3999,789.5469,423.3999,793.5469,413.3999,797.5469,417.3999,793.5469" style="stroke:#FF0000;stroke-width:1;"/><line style="stroke:#FF0000;stroke-width:1;stroke-dasharray:2,2;" x1="66.5356" x2="419.3999" y1="793.5469" y2="793.5469"/><text fill="#000000" font-family="sans-serif" font-size="13" lengthAdjust="spacing" textLength="80.9326" x="205.5015" y="788.481">signature_CI</text></g><g class="message" data-entity-1="part2" data-entity-2="part3" id="msg17"><polygon fill="#FF0000" points="686.0376,818.6797,696.0376,822.6797,686.0376,826.6797,690.0376,822.6797" style="stroke:#FF0000;stroke-width:1;"/><line style="stroke:#FF0000;stroke-width:1;stroke-dasharray:2,2;" x1="425.3999" x2="692.0376" y1="822.6797" y2="822.6797"/><text fill="#000000" font-family="sans-serif" font-size="13" lengthAdjust="spacing" textLength="137.8584" x="492.7896" y="817.6138">AK_pub, signature_CI</text></g><rect fill="#EEEEEE" height="3" style="stroke:#EEEEEE;stroke-width:1;" width="1335.5938" x="0" y="851.2461"/><line style="stroke:#000000;stroke-width:1;" x1="0" x2="1335.5938" y1="851.2461" y2="851.2461"/><line style="stroke:#000000;stroke-width:1;" x1="0" x2="1335.5938" y1="854.2461" y2="854.2461"/><rect fill="#EEEEEE" height="23.1328" style="stroke:#000000;stroke-width:2;" width="432.4375" x="451.5781" y="840.6797"/><text fill="#000000" font-family="sans-serif" font-size="13" font-weight="bold" lengthAdjust="spacing" textLength="413.9116" x="457.5781" y="856.7466">4: Dynamic Client Registration (DCR) mit AK-EK Bindung</text><path d="M10,880.8125 L74.4429,880.8125 L74.4429,887.9453 L64.4429,897.9453 L10,897.9453 L10,880.8125" fill="#EEEEEE" style="stroke:#000000;stroke-width:1.5;"/><rect fill="none" height="801.7891" style="stroke:#000000;stroke-width:1.5;" width="1266.8369" x="10" y="880.8125"/><text fill="#000000" font-family="sans-serif" font-size="13" font-weight="bold" lengthAdjust="spacing" textLength="19.4429" x="25" y="893.8794">alt</text><text fill="#000000" font-family="sans-serif" font-size="11" font-weight="bold" lengthAdjust="spacing" textLength="300.083" x="89.4429" y="893.0229">[Kein ZETA Guard Attestation Token vorhanden]</text><g class="message" data-entity-1="part3" data-entity-2="part2" id="msg18"><polygon fill="#FF0000" points="436.3999,915.0781,426.3999,919.0781,436.3999,923.0781,432.3999,919.0781" style="stroke:#FF0000;stroke-width:1;"/><line style="stroke:#FF0000;stroke-width:1;" x1="430.3999" x2="697.0376" y1="919.0781" y2="919.0781"/><text fill="#000000" font-family="sans-serif" font-size="13" lengthAdjust="spacing" textLength="164.5249" x="479.4563" y="914.0122">Request EK_pub, EK_Cert</text></g><g class="message" data-entity-1="part2" data-entity-2="part1" id="msg19"><polygon fill="#FF0000" points="77.5356,944.2109,67.5356,948.2109,77.5356,952.2109,73.5356,948.2109" style="stroke:#FF0000;stroke-width:1;"/><line style="stroke:#FF0000;stroke-width:1;" x1="71.5356" x2="424.3999" y1="948.2109" y2="948.2109"/><text fill="#000000" font-family="sans-serif" font-size="13" lengthAdjust="spacing" textLength="140.6006" x="175.6675" y="943.145">TPM2_ReadPublic(EK)</text></g><g class="message" data-entity-1="part1" data-entity-2="part2" id="msg20"><polygon fill="#FF0000" points="413.3999,973.3438,423.3999,977.3438,413.3999,981.3438,417.3999,977.3438" style="stroke:#FF0000;stroke-width:1;"/><line style="stroke:#FF0000;stroke-width:1;stroke-dasharray:2,2;" x1="66.5356" x2="419.3999" y1="977.3438" y2="977.3438"/><text fill="#000000" font-family="sans-serif" font-size="13" lengthAdjust="spacing" textLength="107.0024" x="192.4666" y="972.2778">EK_pub, EK_Cert</text></g><g class="message" data-entity-1="part2" data-entity-2="part3" id="msg21"><polygon fill="#FF0000" points="686.0376,1002.4766,696.0376,1006.4766,686.0376,1010.4766,690.0376,1006.4766" style="stroke:#FF0000;stroke-width:1;"/><line style="stroke:#FF0000;stroke-width:1;stroke-dasharray:2,2;" x1="425.3999" x2="692.0376" y1="1006.4766" y2="1006.4766"/><text fill="#000000" font-family="sans-serif" font-size="13" lengthAdjust="spacing" textLength="107.0024" x="508.2175" y="1001.4106">EK_pub, EK_Cert</text></g><g class="message" data-entity-1="part3" data-entity-2="part4" id="msg22"><polygon fill="#008000" points="965.1689,1061.875,975.1689,1065.875,965.1689,1069.875,969.1689,1065.875" style="stroke:#008000;stroke-width:1;"/><line style="stroke:#008000;stroke-width:1;" x1="698.0376" x2="971.1689" y1="1065.875" y2="1065.875"/><text fill="#000000" font-family="sans-serif" font-size="13" lengthAdjust="spacing" textLength="93.1963" x="791.0051" y="1030.5435">POST /register</text><text fill="#000000" font-family="sans-serif" font-size="13" lengthAdjust="spacing" textLength="176.3315" x="749.4375" y="1045.6763">{EK_pub, EK_Cert, AK_pub,</text><text fill="#000000" font-family="sans-serif" font-size="13" lengthAdjust="spacing" textLength="141.6226" x="766.792" y="1060.8091">CI_pub, signature_CI}</text></g><g class="message" data-entity-1="part4" data-entity-2="part4" id="msg23"><line style="stroke:#FF0000;stroke-width:1;" x1="977.1689" x2="1019.1689" y1="1110.1406" y2="1110.1406"/><line style="stroke:#FF0000;stroke-width:1;" x1="1019.1689" x2="1019.1689" y1="1110.1406" y2="1123.1406"/><line style="stroke:#FF0000;stroke-width:1;" x1="978.1689" x2="1019.1689" y1="1123.1406" y2="1123.1406"/><polygon fill="#FF0000" points="988.1689,1119.1406,978.1689,1123.1406,988.1689,1127.1406,984.1689,1123.1406" style="stroke:#FF0000;stroke-width:1;"/><text fill="#000000" font-family="sans-serif" font-size="13" lengthAdjust="spacing" textLength="154.0005" x="984.1689" y="1089.9419">Validiere EK_Cert-Chain</text><text fill="#000000" font-family="sans-serif" font-size="13" lengthAdjust="spacing" textLength="95.7988" x="1013.2698" y="1105.0747">(Hersteller CA)</text></g><g class="message" data-entity-1="part4" data-entity-2="part4" id="msg24"><line style="stroke:#FF0000;stroke-width:1;" x1="977.1689" x2="1019.1689" y1="1167.4063" y2="1167.4063"/><line style="stroke:#FF0000;stroke-width:1;" x1="1019.1689" x2="1019.1689" y1="1167.4063" y2="1180.4063"/><line style="stroke:#FF0000;stroke-width:1;" x1="978.1689" x2="1019.1689" y1="1180.4063" y2="1180.4063"/><polygon fill="#FF0000" points="988.1689,1176.4063,978.1689,1180.4063,988.1689,1184.4063,984.1689,1180.4063" style="stroke:#FF0000;stroke-width:1;"/><text fill="#000000" font-family="sans-serif" font-size="13" lengthAdjust="spacing" textLength="197.3613" x="984.1689" y="1147.2075">Pr&#252;fe signature_CI mit AK_pub</text><text fill="#000000" font-family="sans-serif" font-size="13" lengthAdjust="spacing" textLength="195.1079" x="985.2957" y="1162.3403">&#8594; CI_pub ist TPM-gebunden &#10003;</text></g><g class="message" data-entity-1="part4" data-entity-2="part4" id="msg25"><line style="stroke:#FF0000;stroke-width:1;" x1="977.1689" x2="1019.1689" y1="1224.6719" y2="1224.6719"/><line style="stroke:#FF0000;stroke-width:1;" x1="1019.1689" x2="1019.1689" y1="1224.6719" y2="1237.6719"/><line style="stroke:#FF0000;stroke-width:1;" x1="978.1689" x2="1019.1689" y1="1237.6719" y2="1237.6719"/><polygon fill="#FF0000" points="988.1689,1233.6719,978.1689,1237.6719,988.1689,1241.6719,984.1689,1237.6719" style="stroke:#FF0000;stroke-width:1;"/><text fill="#000000" font-family="sans-serif" font-size="13" lengthAdjust="spacing" textLength="110.957" x="1069.0244" y="1204.4731">CredentialBlob =</text><text fill="#000000" font-family="sans-serif" font-size="13" lengthAdjust="spacing" textLength="280.668" x="984.1689" y="1219.606">MakeCredential(EK_pub, Secret, AK_Name)</text></g><g class="message" data-entity-1="part4" data-entity-2="part3" id="msg26"><polygon fill="#FF0000" points="709.0376,1262.8047,699.0376,1266.8047,709.0376,1270.8047,705.0376,1266.8047" style="stroke:#FF0000;stroke-width:1;"/><line style="stroke:#FF0000;stroke-width:1;stroke-dasharray:2,2;" x1="703.0376" x2="976.1689" y1="1266.8047" y2="1266.8047"/><text fill="#000000" font-family="sans-serif" font-size="13" lengthAdjust="spacing" textLength="206.3369" x="734.4348" y="1261.7388">202 Accepted {CredentialBlob}</text></g><g class="message" data-entity-1="part3" data-entity-2="part2" id="msg27"><polygon fill="#FF0000" points="436.3999,1291.9375,426.3999,1295.9375,436.3999,1299.9375,432.3999,1295.9375" style="stroke:#FF0000;stroke-width:1;"/><line style="stroke:#FF0000;stroke-width:1;" x1="430.3999" x2="697.0376" y1="1295.9375" y2="1295.9375"/><text fill="#000000" font-family="sans-serif" font-size="13" lengthAdjust="spacing" textLength="159.5801" x="481.9287" y="1290.8716">Activate(CredentialBlob)</text></g><g class="message" data-entity-1="part2" data-entity-2="part1" id="msg28"><polygon fill="#FF0000" points="77.5356,1321.0703,67.5356,1325.0703,77.5356,1329.0703,73.5356,1325.0703" style="stroke:#FF0000;stroke-width:1;"/><line style="stroke:#FF0000;stroke-width:1;" x1="71.5356" x2="424.3999" y1="1325.0703" y2="1325.0703"/><text fill="#000000" font-family="sans-serif" font-size="13" lengthAdjust="spacing" textLength="268.5439" x="111.6958" y="1320.0044">TPM2_ActivateCredential(CredentialBlob)</text></g><g class="message" data-entity-1="part1" data-entity-2="part2" id="msg29"><polygon fill="#FF0000" points="413.3999,1350.2031,423.3999,1354.2031,413.3999,1358.2031,417.3999,1354.2031" style="stroke:#FF0000;stroke-width:1;"/><line style="stroke:#FF0000;stroke-width:1;stroke-dasharray:2,2;" x1="66.5356" x2="419.3999" y1="1354.2031" y2="1354.2031"/><text fill="#000000" font-family="sans-serif" font-size="13" lengthAdjust="spacing" textLength="41.8374" x="225.0491" y="1349.1372">Secret</text></g><g class="message" data-entity-1="part2" data-entity-2="part3" id="msg30"><polygon fill="#FF0000" points="686.0376,1379.3359,696.0376,1383.3359,686.0376,1387.3359,690.0376,1383.3359" style="stroke:#FF0000;stroke-width:1;"/><line style="stroke:#FF0000;stroke-width:1;stroke-dasharray:2,2;" x1="425.3999" x2="692.0376" y1="1383.3359" y2="1383.3359"/><text fill="#000000" font-family="sans-serif" font-size="13" lengthAdjust="spacing" textLength="41.8374" x="540.8" y="1378.27">Secret</text></g><g class="message" data-entity-1="part3" data-entity-2="part4" id="msg31"><polygon fill="#FF0000" points="965.1689,1408.4688,975.1689,1412.4688,965.1689,1416.4688,969.1689,1412.4688" style="stroke:#FF0000;stroke-width:1;"/><line style="stroke:#FF0000;stroke-width:1;" x1="698.0376" x2="971.1689" y1="1412.4688" y2="1412.4688"/><text fill="#000000" font-family="sans-serif" font-size="13" lengthAdjust="spacing" textLength="197.0059" x="739.1003" y="1407.4028">POST /register/verify {Secret}</text></g><g class="message" data-entity-1="part4" data-entity-2="part4" id="msg32"><line style="stroke:#181818;stroke-width:1;" x1="977.1689" x2="1019.1689" y1="1471.8672" y2="1471.8672"/><line style="stroke:#181818;stroke-width:1;" x1="1019.1689" x2="1019.1689" y1="1471.8672" y2="1484.8672"/><line style="stroke:#181818;stroke-width:1;" x1="978.1689" x2="1019.1689" y1="1484.8672" y2="1484.8672"/><polygon fill="#181818" points="988.1689,1480.8672,978.1689,1484.8672,988.1689,1488.8672,984.1689,1484.8672" style="stroke:#181818;stroke-width:1;"/><text fill="#000000" font-family="sans-serif" font-size="13" lengthAdjust="spacing" textLength="99.6646" x="1029.2627" y="1436.5356">Secret korrekt?</text><text fill="#000000" font-family="sans-serif" font-size="13" lengthAdjust="spacing" textLength="168.3716" x="994.9092" y="1451.6685">&#8594; AK ist TPM-gebunden &#10003;</text><text fill="#000000" font-family="sans-serif" font-size="13" lengthAdjust="spacing" textLength="189.8521" x="984.1689" y="1466.8013">client_id &#8596; AK &#8596; EK &#8596; CI_pub</text></g><g class="message" data-entity-1="part4" data-entity-2="part3" id="msg33"><polygon fill="#008000" points="709.0376,1510,699.0376,1514,709.0376,1518,705.0376,1514" style="stroke:#008000;stroke-width:1;"/><line style="stroke:#008000;stroke-width:1;stroke-dasharray:2,2;" x1="703.0376" x2="976.1689" y1="1514" y2="1514"/><text fill="#000000" font-family="sans-serif" font-size="13" lengthAdjust="spacing" textLength="155.4224" x="759.8921" y="1508.9341">201 Created {client_id}</text></g><line style="stroke:#000000;stroke-width:1;stroke-dasharray:2,2;" x1="10" x2="1276.8369" y1="1523" y2="1523"/><text fill="#000000" font-family="sans-serif" font-size="11" font-weight="bold" lengthAdjust="spacing" textLength="268.6675" x="15" y="1533.2104">[ZETA Guard Attestation Token vorhanden]</text><g class="message" data-entity-1="part3" data-entity-2="part4" id="msg34"><polygon fill="#008000" points="965.1689,1584.2031,975.1689,1588.2031,965.1689,1592.2031,969.1689,1588.2031" style="stroke:#008000;stroke-width:1;"/><line style="stroke:#008000;stroke-width:1;" x1="698.0376" x2="971.1689" y1="1588.2031" y2="1588.2031"/><text fill="#000000" font-family="sans-serif" font-size="13" lengthAdjust="spacing" textLength="93.1963" x="791.0051" y="1552.8716">POST /register</text><text fill="#000000" font-family="sans-serif" font-size="13" lengthAdjust="spacing" textLength="210.1138" x="732.5464" y="1568.0044">{ZETA Guard Attestation Token,</text><text fill="#000000" font-family="sans-serif" font-size="13" lengthAdjust="spacing" textLength="141.6226" x="766.792" y="1583.1372">CI_pub, signature_CI}</text></g><g class="message" data-entity-1="part4" data-entity-2="part4" id="msg35"><line style="stroke:#181818;stroke-width:1;" x1="977.1689" x2="1019.1689" y1="1632.4688" y2="1632.4688"/><line style="stroke:#181818;stroke-width:1;" x1="1019.1689" x2="1019.1689" y1="1632.4688" y2="1645.4688"/><line style="stroke:#181818;stroke-width:1;" x1="978.1689" x2="1019.1689" y1="1645.4688" y2="1645.4688"/><polygon fill="#181818" points="988.1689,1641.4688,978.1689,1645.4688,988.1689,1649.4688,984.1689,1645.4688" style="stroke:#181818;stroke-width:1;"/><text fill="#000000" font-family="sans-serif" font-size="13" lengthAdjust="spacing" textLength="177.125" x="993.1604" y="1612.27">Pr&#252;fe Token &amp; signature_CI</text><text fill="#000000" font-family="sans-serif" font-size="13" lengthAdjust="spacing" textLength="195.1079" x="984.1689" y="1627.4028">&#8594; CI_pub ist TPM-gebunden &#10003;</text></g><g class="message" data-entity-1="part4" data-entity-2="part3" id="msg36"><polygon fill="#008000" points="709.0376,1670.6016,699.0376,1674.6016,709.0376,1678.6016,705.0376,1674.6016" style="stroke:#008000;stroke-width:1;"/><line style="stroke:#008000;stroke-width:1;stroke-dasharray:2,2;" x1="703.0376" x2="976.1689" y1="1674.6016" y2="1674.6016"/><text fill="#000000" font-family="sans-serif" font-size="13" lengthAdjust="spacing" textLength="155.4224" x="759.8921" y="1669.5356">201 Created {client_id}</text></g><rect fill="#EEEEEE" height="3" style="stroke:#EEEEEE;stroke-width:1;" width="1335.5938" x="0" y="1710.168"/><line style="stroke:#000000;stroke-width:1;" x1="0" x2="1335.5938" y1="1710.168" y2="1710.168"/><line style="stroke:#000000;stroke-width:1;" x1="0" x2="1335.5938" y1="1713.168" y2="1713.168"/><rect fill="#EEEEEE" height="23.1328" style="stroke:#000000;stroke-width:2;" width="349.5562" x="493.0188" y="1699.6016"/><text fill="#000000" font-family="sans-serif" font-size="13" font-weight="bold" lengthAdjust="spacing" textLength="331.0303" x="499.0188" y="1715.6685">5: RATS Ablauf (Evidence &amp; Token Exchange)</text><g class="message" data-entity-1="part3" data-entity-2="part4" id="msg37"><polygon fill="#008000" points="965.1689,1749.8672,975.1689,1753.8672,965.1689,1757.8672,969.1689,1753.8672" style="stroke:#008000;stroke-width:1;"/><line style="stroke:#008000;stroke-width:1;" x1="698.0376" x2="971.1689" y1="1753.8672" y2="1753.8672"/><text fill="#000000" font-family="sans-serif" font-size="13" lengthAdjust="spacing" textLength="74.3184" x="800.4441" y="1748.8013">GET /nonce</text></g><g class="message" data-entity-1="part4" data-entity-2="part3" id="msg38"><polygon fill="#008000" points="709.0376,1779,699.0376,1783,709.0376,1787,705.0376,1783" style="stroke:#008000;stroke-width:1;"/><line style="stroke:#008000;stroke-width:1;stroke-dasharray:2,2;" x1="703.0376" x2="976.1689" y1="1783" y2="1783"/><text fill="#000000" font-family="sans-serif" font-size="13" lengthAdjust="spacing" textLength="41.063" x="817.0718" y="1777.9341">Nonce</text></g><g class="message" data-entity-1="part3" data-entity-2="part2" id="msg39"><polygon fill="#181818" points="436.3999,1808.1328,426.3999,1812.1328,436.3999,1816.1328,432.3999,1812.1328" style="stroke:#181818;stroke-width:1;"/><line style="stroke:#181818;stroke-width:1;" x1="430.3999" x2="697.0376" y1="1812.1328" y2="1812.1328"/><text fill="#000000" font-family="sans-serif" font-size="13" lengthAdjust="spacing" textLength="133.5293" x="494.9541" y="1807.0669">GetEvidence(Nonce)</text></g><g class="message" data-entity-1="part2" data-entity-2="part1" id="msg40"><polygon fill="#181818" points="77.5356,1837.2656,67.5356,1841.2656,77.5356,1845.2656,73.5356,1841.2656" style="stroke:#181818;stroke-width:1;"/><line style="stroke:#181818;stroke-width:1;" x1="71.5356" x2="424.3999" y1="1841.2656" y2="1841.2656"/><text fill="#000000" font-family="sans-serif" font-size="13" lengthAdjust="spacing" textLength="294.7153" x="98.6101" y="1836.1997">TPM2_Quote(PCR=[7,23], Nonce, AK_Handle)</text></g><g class="message" data-entity-1="part1" data-entity-2="part2" id="msg41"><polygon fill="#181818" points="413.3999,1866.3984,423.3999,1870.3984,413.3999,1874.3984,417.3999,1870.3984" style="stroke:#181818;stroke-width:1;"/><line style="stroke:#181818;stroke-width:1;stroke-dasharray:2,2;" x1="66.5356" x2="419.3999" y1="1870.3984" y2="1870.3984"/><text fill="#000000" font-family="sans-serif" font-size="13" lengthAdjust="spacing" textLength="180.3115" x="155.812" y="1865.3325">tpm_quote (signiert mit AK)</text></g><g class="message" data-entity-1="part2" data-entity-2="part1" id="msg42"><polygon fill="#181818" points="77.5356,1895.5313,67.5356,1899.5313,77.5356,1903.5313,73.5356,1899.5313" style="stroke:#181818;stroke-width:1;"/><line style="stroke:#181818;stroke-width:1;" x1="71.5356" x2="424.3999" y1="1899.5313" y2="1899.5313"/><text fill="#000000" font-family="sans-serif" font-size="13" lengthAdjust="spacing" textLength="135.77" x="178.0828" y="1894.4653">TPM2_GetEventLog()</text></g><g class="message" data-entity-1="part1" data-entity-2="part2" id="msg43"><polygon fill="#181818" points="413.3999,1924.6641,423.3999,1928.6641,413.3999,1932.6641,417.3999,1928.6641" style="stroke:#181818;stroke-width:1;"/><line style="stroke:#181818;stroke-width:1;stroke-dasharray:2,2;" x1="66.5356" x2="419.3999" y1="1928.6641" y2="1928.6641"/><text fill="#000000" font-family="sans-serif" font-size="13" lengthAdjust="spacing" textLength="95.856" x="198.0398" y="1923.5981">tpm_event_log</text></g><g class="message" data-entity-1="part2" data-entity-2="part3" id="msg44"><polygon fill="#181818" points="686.0376,1968.9297,696.0376,1972.9297,686.0376,1976.9297,690.0376,1972.9297" style="stroke:#181818;stroke-width:1;"/><line style="stroke:#181818;stroke-width:1;stroke-dasharray:2,2;" x1="425.3999" x2="692.0376" y1="1972.9297" y2="1972.9297"/><text fill="#000000" font-family="sans-serif" font-size="13" lengthAdjust="spacing" textLength="59.1538" x="532.1418" y="1952.731">Evidence</text><text fill="#000000" font-family="sans-serif" font-size="13" lengthAdjust="spacing" textLength="248.6377" x="437.3999" y="1967.8638">{tpm_quote, tpm_event_log, posture}</text></g><g class="message" data-entity-1="part3" data-entity-2="part4" id="msg45"><polygon fill="#008000" points="965.1689,2028.3281,975.1689,2032.3281,965.1689,2036.3281,969.1689,2032.3281" style="stroke:#008000;stroke-width:1;"/><line style="stroke:#008000;stroke-width:1;" x1="698.0376" x2="971.1689" y1="2032.3281" y2="2032.3281"/><text fill="#000000" font-family="sans-serif" font-size="13" lengthAdjust="spacing" textLength="79.5933" x="797.8066" y="1996.9966">POST /token</text><text fill="#000000" font-family="sans-serif" font-size="13" lengthAdjust="spacing" textLength="255.1313" x="710.0376" y="2012.1294">{client_assertion (JWT, CI_prk signiert),</text><text fill="#000000" font-family="sans-serif" font-size="13" lengthAdjust="spacing" textLength="116.7524" x="779.2271" y="2027.2622">Evidence, Nonce}</text></g><path d="M929.1953,2047.3281 L1202.2666,2047.3281 L1202.2666,2054.4609 L1192.2666,2064.4609 L929.1953,2064.4609 L929.1953,2047.3281" fill="#EEEEEE" style="stroke:#000000;stroke-width:1.5;"/><rect fill="none" height="289.3281" style="stroke:#000000;stroke-width:1.5;" width="396.3984" x="929.1953" y="2047.3281"/><text fill="#000000" font-family="sans-serif" font-size="13" font-weight="bold" lengthAdjust="spacing" textLength="228.0713" x="944.1953" y="2060.395">AuthS (Verifier &amp; Policy Check)</text><g class="message" data-entity-1="part4" data-entity-2="part4" id="msg46"><line style="stroke:#181818;stroke-width:1;" x1="977.1689" x2="1019.1689" y1="2100.7266" y2="2100.7266"/><line style="stroke:#181818;stroke-width:1;" x1="1019.1689" x2="1019.1689" y1="2100.7266" y2="2113.7266"/><line style="stroke:#181818;stroke-width:1;" x1="978.1689" x2="1019.1689" y1="2113.7266" y2="2113.7266"/><polygon fill="#181818" points="988.1689,2109.7266,978.1689,2113.7266,988.1689,2117.7266,984.1689,2113.7266" style="stroke:#181818;stroke-width:1;"/><text fill="#000000" font-family="sans-serif" font-size="13" lengthAdjust="spacing" textLength="171.9072" x="984.1689" y="2080.5278">Verifiziere client_assertion</text><text fill="#000000" font-family="sans-serif" font-size="13" lengthAdjust="spacing" textLength="139.166" x="1000.5396" y="2095.6606">mit CI_pub (aus DCR)</text></g><g class="message" data-entity-1="part4" data-entity-2="part4" id="msg47"><line style="stroke:#181818;stroke-width:1;" x1="977.1689" x2="1019.1689" y1="2157.9922" y2="2157.9922"/><line style="stroke:#181818;stroke-width:1;" x1="1019.1689" x2="1019.1689" y1="2157.9922" y2="2170.9922"/><line style="stroke:#181818;stroke-width:1;" x1="978.1689" x2="1019.1689" y1="2170.9922" y2="2170.9922"/><polygon fill="#181818" points="988.1689,2166.9922,978.1689,2170.9922,988.1689,2174.9922,984.1689,2170.9922" style="stroke:#181818;stroke-width:1;"/><text fill="#000000" font-family="sans-serif" font-size="13" lengthAdjust="spacing" textLength="169.1587" x="984.1689" y="2137.7935">Verifiziere Quote-Signatur</text><text fill="#000000" font-family="sans-serif" font-size="13" lengthAdjust="spacing" textLength="143.6729" x="996.9119" y="2152.9263">mit AK_pub (aus DCR)</text></g><g class="message" data-entity-1="part4" data-entity-2="part4" id="msg48"><line style="stroke:#181818;stroke-width:1;" x1="977.1689" x2="1019.1689" y1="2200.125" y2="2200.125"/><line style="stroke:#181818;stroke-width:1;" x1="1019.1689" x2="1019.1689" y1="2200.125" y2="2213.125"/><line style="stroke:#181818;stroke-width:1;" x1="978.1689" x2="1019.1689" y1="2213.125" y2="2213.125"/><polygon fill="#181818" points="988.1689,2209.125,978.1689,2213.125,988.1689,2217.125,984.1689,2213.125" style="stroke:#181818;stroke-width:1;"/><text fill="#000000" font-family="sans-serif" font-size="13" lengthAdjust="spacing" textLength="218.3276" x="984.1689" y="2195.0591">Verifiziere Nonce (Replay-Schutz)</text></g><g class="message" data-entity-1="part4" data-entity-2="part4" id="msg49"><line style="stroke:#181818;stroke-width:1;" x1="977.1689" x2="1019.1689" y1="2242.2578" y2="2242.2578"/><line style="stroke:#181818;stroke-width:1;" x1="1019.1689" x2="1019.1689" y1="2242.2578" y2="2255.2578"/><line style="stroke:#181818;stroke-width:1;" x1="978.1689" x2="1019.1689" y1="2255.2578" y2="2255.2578"/><polygon fill="#181818" points="988.1689,2251.2578,978.1689,2255.2578,988.1689,2259.2578,984.1689,2255.2578" style="stroke:#181818;stroke-width:1;"/><text fill="#000000" font-family="sans-serif" font-size="13" lengthAdjust="spacing" textLength="167.5527" x="984.1689" y="2237.1919">PCR-Replay via Event Log</text></g><g class="message" data-entity-1="part4" data-entity-2="part5" id="msg50"><polygon fill="#181818" points="1259.8369,2295.5234,1269.8369,2299.5234,1259.8369,2303.5234,1263.8369,2299.5234" style="stroke:#181818;stroke-width:1;"/><line style="stroke:#181818;stroke-width:1;" x1="977.1689" x2="1265.8369" y1="2299.5234" y2="2299.5234"/><text fill="#000000" font-family="sans-serif" font-size="13" lengthAdjust="spacing" textLength="179.918" x="1034.5439" y="2279.3247">Check PCR 7 (Secure Boot),</text><text fill="#000000" font-family="sans-serif" font-size="13" lengthAdjust="spacing" textLength="221.0762" x="1013.9648" y="2294.4575">PCR 23 (PS) gegen Referenzwerte</text></g><g class="message" data-entity-1="part5" data-entity-2="part4" id="msg51"><polygon fill="#181818" points="988.1689,2324.6563,978.1689,2328.6563,988.1689,2332.6563,984.1689,2328.6563" style="stroke:#181818;stroke-width:1;"/><line style="stroke:#181818;stroke-width:1;stroke-dasharray:2,2;" x1="982.1689" x2="1270.8369" y1="2328.6563" y2="2328.6563"/><text fill="#000000" font-family="sans-serif" font-size="13" lengthAdjust="spacing" textLength="204.0073" x="1022.4993" y="2323.5903">Attestation Result (Allow/Deny)</text></g><path d="M636.3237,2350.6563 L700.7666,2350.6563 L700.7666,2357.7891 L690.7666,2367.7891 L636.3237,2367.7891 L636.3237,2350.6563" fill="#EEEEEE" style="stroke:#000000;stroke-width:1.5;"/><rect fill="none" height="120.4688" style="stroke:#000000;stroke-width:1.5;" width="388.8188" x="636.3237" y="2350.6563"/><text fill="#000000" font-family="sans-serif" font-size="13" font-weight="bold" lengthAdjust="spacing" textLength="19.4429" x="651.3237" y="2363.7231">alt</text><text fill="#000000" font-family="sans-serif" font-size="11" font-weight="bold" lengthAdjust="spacing" textLength="151.8999" x="715.7666" y="2362.8667">[Attestation erfolgreich]</text><g class="message" data-entity-1="part4" data-entity-2="part3" id="msg52"><polygon fill="#008000" points="709.0376,2415.1875,699.0376,2419.1875,709.0376,2423.1875,705.0376,2419.1875" style="stroke:#008000;stroke-width:1;"/><line style="stroke:#008000;stroke-width:1;stroke-dasharray:2,2;" x1="703.0376" x2="976.1689" y1="2419.1875" y2="2419.1875"/><text fill="#000000" font-family="sans-serif" font-size="13" lengthAdjust="spacing" textLength="47.7026" x="813.752" y="2383.856">200 OK</text><text fill="#000000" font-family="sans-serif" font-size="13" lengthAdjust="spacing" textLength="202.9473" x="736.1296" y="2398.9888">{Access Token, Refresh Token,</text><text fill="#000000" font-family="sans-serif" font-size="13" lengthAdjust="spacing" textLength="205.9814" x="734.6125" y="2414.1216">ZETA Guard Attestation Token}</text></g><line style="stroke:#000000;stroke-width:1;stroke-dasharray:2,2;" x1="636.3237" x2="1025.1426" y1="2428.1875" y2="2428.1875"/><text fill="#000000" font-family="sans-serif" font-size="11" font-weight="bold" lengthAdjust="spacing" textLength="146.0508" x="641.3237" y="2438.3979">[Attestation fehlerhaft]</text><g class="message" data-entity-1="part4" data-entity-2="part3" id="msg53"><polygon fill="#008000" points="709.0376,2459.125,699.0376,2463.125,709.0376,2467.125,705.0376,2463.125" style="stroke:#008000;stroke-width:1;"/><line style="stroke:#008000;stroke-width:1;stroke-dasharray:2,2;" x1="703.0376" x2="976.1689" y1="2463.125" y2="2463.125"/><text fill="#000000" font-family="sans-serif" font-size="13" lengthAdjust="spacing" textLength="94.3262" x="790.4402" y="2458.0591">403 Forbidden</text></g><?plantuml-src dLRRRjj647tdLmnIe2012dRa5044A0MjgBQhE5P5mG4I1SAA754BqKjbkPGj6txj1xHzxAVqhN-IB-diBdMXBdRI5r7OFNDczipipEPJBcPCiXl8yKk18i9Bp7EMO93oH424Gg5q55SfmiTsFu1Uq0_XWbOJoHJFXEEGkU8Hdp6Xu4M_UpaGxZcJyIsJwBq0bWEjLK4VWv10WLAO4xi5qLeLr0sX4B5nEX2jb5Ca1cZ_Lh51eIQQyXeb7_CbfLcj0g-wHEQsHPp9V0cZDSTfDk5bWywLAvQcvc3GR3eK5DHgRtHmrKt7Hc4sxT-j_OgbbhGG2SIOGpUixb78IOeycj2kN25lk1g83oYLiJb7IKAbANsiyHkjQKF_r8SjYKnXL_8R9XUk1rz__mF2NkSGqAKz7oGfBtcaC6xcb6SVnlmEOu8rbIpGS-ZVEiIWCvmL8zzy9P-3EqgpaRVhu5t6OajV8ltIr0P5_y-PY5EiM7PRlM7xJg68tVg9RmIufNDJ33edTGA442hAeSx77jNDtlDoVvEtamQSSX6JRLwxpkG89NAbcJPSV_f1OlnvxVyC1HKT8Q5rCUpWeiku19V-qxcFz4TElHrZ4sRC5EjdeRvcJJXd-QIqAfLTOjVwQgYxKj7V82WJPasMCkZ4CbL87BOkDYatn5jcjWBLIhngmDk5O3SyAh7GmuHJpTYhuRvjzJnTfCHGQtUMgccTMAgWWrpORd5MK2S0UzEjQJ-Ree1v9YTq2XGEm5vnUheRvGhQPOJqRL6Y27v0d1wok5kCKXwvxOv7k3sAF4cs8SishX9a8X45kJRTXIhgAkp3aJJge1o8XotZvHtmgObTxAhzgCaDrVfG9VCrItbiAgkaghKcZ0lTNbVz05g1Tv2WA__zPumLTsNET1m3eI-bZGaeU2rOBS5HeTC2N__-yo0lDHA2ACxIKse4q1o8IpR5zQgxb234IA9Lu3sxqPTiYt93y_fn7O8emXdr97YekdXq3fL942a-rrsjQk0ThfEbnKQukxPxQiUUvM39bDjxujnR9qTpFQaMy63j7jV2h0pi3ampAN6gVhRf2ZfxKpKGaV4wv36rshyqJ7_QzcDplAczhU6A-Y_1pWSIVyL5kcEQu_-voi_TagSe3rwLNP7A4hUH_5Y1VrTzVxCWD3aSqo5_QjYdK31AMJ46jptdiNu-KHGsclPTHBeaw5MdnvOmPstIHMHaw1mEvhtPNv6K5Nc6QkdKDOWz8_ct8gFBGLEl-UcrNp_vx5ikVpsCjsQzcjqClsWZSBMON3z1RC_OmsuYe93UPOcxXmVrtZ3DajLuNZNOCcugX9L3lshZmopBTIeV7UUPib9QRw8gqyHoUjhPCVNhXxuFTWZ3yZWUbTVIVoa7kKXaLipAUbWz8ocNtOmcoW9Q4uockZFibg05tvj6lHt1G6ZjoXfqMP637fpFqfYirSAoc2s9RThVGM9E1cuFPobRrC9eKgZx_LPK7ZKBWpbdO58AbDCgc9x93Qk3De3Nu5A7elp0QPOPKVLg_GJSRkX1WWbTWHwEAH9nRvvOXer8J26KdZUlVW_pWjuERf2csUtHMnGBpzus_QBO1A8SPoaL0hsPDoFSUucFuQf3bQ47IvwNtKM7HU_VoQhPFDMB7cq7t5mVuuGcxuIDrJFkNnsVm2_qZEInxevqbly0?></g></svg>