<svg xmlns="http://www.w3.org/2000/svg" xmlns:xlink="http://www.w3.org/1999/xlink" contentStyleType="text/css" data-diagram-type="SEQUENCE" height="1556px" preserveAspectRatio="none" style="width:2769px;height:1556px;background:#FFFFFF;" version="1.1" viewBox="0 0 2769 1556" width="2769px" zoomAndPan="magnify"><title>Gesamtablauf: PoPP-Token Abruf mit ZETA SDK &amp; PAR (RFC 9126)</title><defs/><g><text fill="#000000" font-family="Verdana" font-size="22" font-weight="bold" lengthAdjust="spacing" textLength="820.9932" x="978.3347" y="35.4209">Gesamtablauf: PoPP-Token Abruf mit ZETA SDK &amp; PAR (RFC 9126)</text><rect fill="#FFFFFF" height="217.9297" style="stroke:#000000;stroke-width:1;" width="969.063" x="25" y="145.9063"/><rect fill="#FFFFFF" height="713.3203" style="stroke:#000000;stroke-width:1;" width="2116.9077" x="15" y="377.8359"/><rect fill="#FFFFFF" height="437.125" style="stroke:#000000;stroke-width:1;" width="2096.9077" x="25" y="460.2344"/><rect fill="#FFFFFF" height="234.0625" style="stroke:#000000;stroke-width:1;" width="1894.0645" x="869.5981" y="1105.1563"/><rect fill="#FFFFFF" height="104.5313" style="stroke:#000000;stroke-width:1;" width="969.063" x="25" y="1353.2188"/><g><title>Nutzer</title><rect fill="#000000" fill-opacity="0.00000" height="1345.8438" width="8" x="57.2764" y="128.9063"/><line style="stroke:#000000;stroke-width:1;stroke-dasharray:5,5;" x1="61" x2="61" y1="128.9063" y2="1474.75"/></g><g><title>Anbieter-App</title><rect fill="#000000" fill-opacity="0.00000" height="1345.8438" width="8" x="270.5317" y="128.9063"/><line style="stroke:#000000;stroke-width:1;stroke-dasharray:5,5;" x1="274.4814" x2="274.4814" y1="128.9063" y2="1474.75"/></g><g><title>PoPP-Modul</title><rect fill="#000000" fill-opacity="0.00000" height="1345.8438" width="8" x="561.2158" y="128.9063"/><line style="stroke:#000000;stroke-width:1;stroke-dasharray:5,5;" x1="564.5967" x2="564.5967" y1="128.9063" y2="1474.75"/></g><g><title>ZETA-SDK</title><rect fill="#000000" fill-opacity="0.00000" height="1345.8438" width="8" x="927.8306" y="128.9063"/><line style="stroke:#000000;stroke-width:1;stroke-dasharray:5,5;" x1="931.5981" x2="931.5981" y1="128.9063" y2="1474.75"/></g><g><title>Authorization Server</title><rect fill="#000000" fill-opacity="0.00000" height="1345.8438" width="8" x="1359.5659" y="128.9063"/><line style="stroke:#000000;stroke-width:1;stroke-dasharray:5,5;" x1="1363.5015" x2="1363.5015" y1="128.9063" y2="1474.75"/></g><g><title>Sektoraler IDP</title><rect fill="#000000" fill-opacity="0.00000" height="1345.8438" width="8" x="1770.8555" y="128.9063"/><line style="stroke:#000000;stroke-width:1;stroke-dasharray:5,5;" x1="1774.8267" x2="1774.8267" y1="128.9063" y2="1474.75"/></g><g><title>Authenticator-App</title><rect fill="#000000" fill-opacity="0.00000" height="1345.8438" width="8" x="2026.8242" y="128.9063"/><line style="stroke:#000000;stroke-width:1;stroke-dasharray:5,5;" x1="2030.7407" x2="2030.7407" y1="128.9063" y2="1474.75"/></g><g><title>HTTP-Proxy</title><rect fill="#000000" fill-opacity="0.00000" height="1345.8438" width="8" x="2199.374" y="128.9063"/><line style="stroke:#000000;stroke-width:1;stroke-dasharray:5,5;" x1="2202.9077" x2="2202.9077" y1="128.9063" y2="1474.75"/></g><g><title>Client Registry</title><rect fill="#000000" fill-opacity="0.00000" height="1345.8438" width="8" x="2483.3589" y="128.9063"/><line style="stroke:#000000;stroke-width:1;stroke-dasharray:5,5;" x1="2486.8979" x2="2486.8979" y1="128.9063" y2="1474.75"/></g><g><title>PoPP Resource Server</title><rect fill="#000000" fill-opacity="0.00000" height="1345.8438" width="8" x="2655.7412" y="128.9063"/><line style="stroke:#000000;stroke-width:1;stroke-dasharray:5,5;" x1="2658.8198" x2="2658.8198" y1="128.9063" y2="1474.75"/></g><g class="participant participant-head" data-participant="Nutzer"><text fill="#000000" font-family="Verdana" font-size="14" lengthAdjust="spacing" textLength="46.5527" x="35" y="125.6045">Nutzer</text><ellipse cx="61.2764" cy="60.6094" fill="#FFFFFF" rx="8" ry="8" style="stroke:#000000;stroke-width:1;"/><path d="M61.2764,68.6094 L61.2764,95.6094 M48.2764,76.6094 L74.2764,76.6094 M61.2764,95.6094 L48.2764,110.6094 M61.2764,95.6094 L74.2764,110.6094" fill="none" style="stroke:#000000;stroke-width:1;"/></g><g class="participant participant-tail" data-participant="Nutzer"><text fill="#000000" font-family="Verdana" font-size="14" lengthAdjust="spacing" textLength="46.5527" x="35" y="1486.7451">Nutzer</text><ellipse cx="61.2764" cy="1499.0469" fill="#FFFFFF" rx="8" ry="8" style="stroke:#000000;stroke-width:1;"/><path d="M61.2764,1507.0469 L61.2764,1534.0469 M48.2764,1515.0469 L74.2764,1515.0469 M61.2764,1534.0469 L48.2764,1549.0469 M61.2764,1534.0469 L74.2764,1549.0469" fill="none" style="stroke:#000000;stroke-width:1;"/></g><g class="participant participant-head" data-participant="App"><rect fill="#FFFFFF" height="30.2969" rx="2.5" ry="2.5" style="stroke:#000000;stroke-width:1;" width="106.1006" x="221.4814" y="97.6094"/><text fill="#000000" font-family="Verdana" font-size="14" lengthAdjust="spacing" textLength="92.1006" x="228.4814" y="117.6045">Anbieter-App</text></g><g class="participant participant-tail" data-participant="App"><rect fill="#FFFFFF" height="30.2969" rx="2.5" ry="2.5" style="stroke:#000000;stroke-width:1;" width="106.1006" x="221.4814" y="1473.75"/><text fill="#000000" font-family="Verdana" font-size="14" lengthAdjust="spacing" textLength="92.1006" x="228.4814" y="1493.7451">Anbieter-App</text></g><g class="participant participant-head" data-participant="PoPP"><rect fill="#FFFFFF" height="30.2969" rx="2.5" ry="2.5" style="stroke:#000000;stroke-width:1;" width="95.2383" x="517.5967" y="97.6094"/><text fill="#000000" font-family="Verdana" font-size="14" lengthAdjust="spacing" textLength="81.2383" x="524.5967" y="117.6045">PoPP-Modul</text></g><g class="participant participant-tail" data-participant="PoPP"><rect fill="#FFFFFF" height="30.2969" rx="2.5" ry="2.5" style="stroke:#000000;stroke-width:1;" width="95.2383" x="517.5967" y="1473.75"/><text fill="#000000" font-family="Verdana" font-size="14" lengthAdjust="spacing" textLength="81.2383" x="524.5967" y="1493.7451">PoPP-Modul</text></g><g class="participant participant-head" data-participant="SDK"><rect fill="#FFFFFF" height="30.2969" rx="2.5" ry="2.5" style="stroke:#000000;stroke-width:1;" width="84.4648" x="889.5981" y="97.6094"/><text fill="#000000" font-family="Verdana" font-size="14" lengthAdjust="spacing" textLength="70.4648" x="896.5981" y="117.6045">ZETA-SDK</text></g><g class="participant participant-tail" data-participant="SDK"><rect fill="#FFFFFF" height="30.2969" rx="2.5" ry="2.5" style="stroke:#000000;stroke-width:1;" width="84.4648" x="889.5981" y="1473.75"/><text fill="#000000" font-family="Verdana" font-size="14" lengthAdjust="spacing" textLength="70.4648" x="896.5981" y="1493.7451">ZETA-SDK</text></g><g class="participant participant-head" data-participant="AS"><rect fill="#FFFFFF" height="46.5938" rx="2.5" ry="2.5" style="stroke:#000000;stroke-width:1;" width="158.1289" x="1284.5015" y="81.3125"/><text fill="#000000" font-family="Verdana" font-size="14" lengthAdjust="spacing" textLength="144.1289" x="1291.5015" y="101.3076">Authorization Server</text><text fill="#000000" font-family="Verdana" font-size="14" lengthAdjust="spacing" textLength="128.9326" x="1299.0996" y="117.6045">(PoPP) Zeta Guard</text></g><g class="participant participant-tail" data-participant="AS"><rect fill="#FFFFFF" height="46.5938" rx="2.5" ry="2.5" style="stroke:#000000;stroke-width:1;" width="158.1289" x="1284.5015" y="1473.75"/><text fill="#000000" font-family="Verdana" font-size="14" lengthAdjust="spacing" textLength="144.1289" x="1291.5015" y="1493.7451">Authorization Server</text><text fill="#000000" font-family="Verdana" font-size="14" lengthAdjust="spacing" textLength="128.9326" x="1299.0996" y="1510.042">(PoPP) Zeta Guard</text></g><g class="participant participant-head" data-participant="IDP"><rect fill="#FFFFFF" height="30.2969" rx="2.5" ry="2.5" style="stroke:#000000;stroke-width:1;" width="114.0576" x="1717.8267" y="97.6094"/><text fill="#000000" font-family="Verdana" font-size="14" lengthAdjust="spacing" textLength="100.0576" x="1724.8267" y="117.6045">Sektoraler IDP</text></g><g class="participant participant-tail" data-participant="IDP"><rect fill="#FFFFFF" height="30.2969" rx="2.5" ry="2.5" style="stroke:#000000;stroke-width:1;" width="114.0576" x="1717.8267" y="1473.75"/><text fill="#000000" font-family="Verdana" font-size="14" lengthAdjust="spacing" textLength="100.0576" x="1724.8267" y="1493.7451">Sektoraler IDP</text></g><g class="participant participant-head" data-participant="AuthApp"><rect fill="#FFFFFF" height="30.2969" rx="2.5" ry="2.5" style="stroke:#000000;stroke-width:1;" width="142.167" x="1959.7407" y="97.6094"/><text fill="#000000" font-family="Verdana" font-size="14" lengthAdjust="spacing" textLength="128.167" x="1966.7407" y="117.6045">Authenticator-App</text></g><g class="participant participant-tail" data-participant="AuthApp"><rect fill="#FFFFFF" height="30.2969" rx="2.5" ry="2.5" style="stroke:#000000;stroke-width:1;" width="142.167" x="1959.7407" y="1473.75"/><text fill="#000000" font-family="Verdana" font-size="14" lengthAdjust="spacing" textLength="128.167" x="1966.7407" y="1493.7451">Authenticator-App</text></g><g class="participant participant-head" data-participant="Proxy"><rect fill="#FFFFFF" height="46.5938" rx="2.5" ry="2.5" style="stroke:#000000;stroke-width:1;" width="142.9326" x="2131.9077" y="81.3125"/><text fill="#000000" font-family="Verdana" font-size="14" lengthAdjust="spacing" textLength="80.459" x="2163.1445" y="101.3076">HTTP-Proxy</text><text fill="#000000" font-family="Verdana" font-size="14" lengthAdjust="spacing" textLength="128.9326" x="2138.9077" y="117.6045">(PoPP) Zeta Guard</text></g><g class="participant participant-tail" data-participant="Proxy"><rect fill="#FFFFFF" height="46.5938" rx="2.5" ry="2.5" style="stroke:#000000;stroke-width:1;" width="142.9326" x="2131.9077" y="1473.75"/><text fill="#000000" font-family="Verdana" font-size="14" lengthAdjust="spacing" textLength="80.459" x="2163.1445" y="1493.7451">HTTP-Proxy</text><text fill="#000000" font-family="Verdana" font-size="14" lengthAdjust="spacing" textLength="128.9326" x="2138.9077" y="1510.042">(PoPP) Zeta Guard</text></g><g class="participant participant-head" data-participant="CR"><rect fill="#FFFFFF" height="30.2969" rx="2.5" ry="2.5" style="stroke:#000000;stroke-width:1;" width="116.9219" x="2428.8979" y="97.6094"/><text fill="#000000" font-family="Verdana" font-size="14" lengthAdjust="spacing" textLength="102.9219" x="2435.8979" y="117.6045">Client Registry</text></g><g class="participant participant-tail" data-participant="CR"><rect fill="#FFFFFF" height="30.2969" rx="2.5" ry="2.5" style="stroke:#000000;stroke-width:1;" width="116.9219" x="2428.8979" y="1473.75"/><text fill="#000000" font-family="Verdana" font-size="14" lengthAdjust="spacing" textLength="102.9219" x="2435.8979" y="1493.7451">Client Registry</text></g><g class="participant participant-head" data-participant="RS"><rect fill="#FFFFFF" height="30.2969" rx="2.5" ry="2.5" style="stroke:#000000;stroke-width:1;" width="167.8428" x="2575.8198" y="97.6094"/><text fill="#000000" font-family="Verdana" font-size="14" lengthAdjust="spacing" textLength="153.8428" x="2582.8198" y="117.6045">PoPP Resource Server</text></g><g class="participant participant-tail" data-participant="RS"><rect fill="#FFFFFF" height="30.2969" rx="2.5" ry="2.5" style="stroke:#000000;stroke-width:1;" width="167.8428" x="2575.8198" y="1473.75"/><text fill="#000000" font-family="Verdana" font-size="14" lengthAdjust="spacing" textLength="153.8428" x="2582.8198" y="1493.7451">PoPP Resource Server</text></g><path d="M25,145.9063 L373.6528,145.9063 L373.6528,153.0391 L363.6528,163.0391 L25,163.0391 L25,145.9063" fill="#FFFFFF" style="stroke:#000000;stroke-width:1;"/><rect fill="none" height="217.9297" style="stroke:#000000;stroke-width:1;" width="969.063" x="25" y="145.9063"/><text fill="#000000" font-family="Verdana" font-size="13" font-weight="bold" lengthAdjust="spacing" textLength="303.6528" x="40" y="158.9731">Phase 1: Initialisierung und Vorbereitung</text><g class="message" data-participant-1="Nutzer" data-participant-2="App"><polygon fill="#000000" points="262.5317,180.1719,272.5317,184.1719,262.5317,188.1719,266.5317,184.1719" style="stroke:#000000;stroke-width:1;"/><line style="stroke:#000000;stroke-width:1;" x1="61.2764" x2="268.5317" y1="184.1719" y2="184.1719"/><text fill="#000000" font-family="Verdana" font-size="13" lengthAdjust="spacing" textLength="189.2554" x="68.2764" y="179.106">Startet Aktion (z.B. Check-in)</text></g><g class="message" data-participant-1="App" data-participant-2="PoPP"><polygon fill="#000000" points="553.2158,209.3047,563.2158,213.3047,553.2158,217.3047,557.2158,213.3047" style="stroke:#000000;stroke-width:1;"/><line style="stroke:#000000;stroke-width:1;" x1="274.5317" x2="559.2158" y1="213.3047" y2="213.3047"/><text fill="#000000" font-family="Verdana" font-size="13" lengthAdjust="spacing" textLength="266.6841" x="281.5317" y="208.2388">Initialisierung PoPP-Token mit LEI-Details</text></g><g class="message" data-participant-1="PoPP" data-participant-2="SDK"><polygon fill="#000000" points="919.8306,238.4375,929.8306,242.4375,919.8306,246.4375,923.8306,242.4375" style="stroke:#000000;stroke-width:1;"/><line style="stroke:#000000;stroke-width:1;" x1="565.2158" x2="925.8306" y1="242.4375" y2="242.4375"/><text fill="#000000" font-family="Verdana" font-size="13" lengthAdjust="spacing" textLength="183.644" x="572.2158" y="237.3716">init(FQDN des PoPP-Service)</text></g><g class="message" data-participant-1="SDK" data-participant-2="PoPP"><polygon fill="#000000" points="576.2158,267.5703,566.2158,271.5703,576.2158,275.5703,572.2158,271.5703" style="stroke:#000000;stroke-width:1;"/><line style="stroke:#000000;stroke-width:1;stroke-dasharray:2,2;" x1="570.2158" x2="930.8306" y1="271.5703" y2="271.5703"/><text fill="#000000" font-family="Verdana" font-size="13" lengthAdjust="spacing" textLength="188.1509" x="582.2158" y="266.5044">Initialisierung abgeschlossen</text></g><g class="message" data-participant-1="PoPP" data-participant-2="PoPP"><line style="stroke:#000000;stroke-width:1;" x1="565.2158" x2="607.2158" y1="300.7031" y2="300.7031"/><line style="stroke:#000000;stroke-width:1;" x1="607.2158" x2="607.2158" y1="300.7031" y2="313.7031"/><line style="stroke:#000000;stroke-width:1;" x1="566.2158" x2="607.2158" y1="313.7031" y2="313.7031"/><polygon fill="#000000" points="576.2158,309.7031,566.2158,313.7031,576.2158,317.7031,572.2158,313.7031" style="stroke:#000000;stroke-width:1;"/><text fill="#000000" font-family="Verdana" font-size="13" lengthAdjust="spacing" textLength="287.2822" x="572.2158" y="295.6372">Generiert HTTP-Request (Telematik-ID, etc.)</text></g><g class="message" data-participant-1="PoPP" data-participant-2="PoPP"><line style="stroke:#000000;stroke-width:1;" x1="565.2158" x2="607.2158" y1="342.8359" y2="342.8359"/><line style="stroke:#000000;stroke-width:1;" x1="607.2158" x2="607.2158" y1="342.8359" y2="355.8359"/><line style="stroke:#000000;stroke-width:1;" x1="566.2158" x2="607.2158" y1="355.8359" y2="355.8359"/><polygon fill="#000000" points="576.2158,351.8359,566.2158,355.8359,576.2158,359.8359,572.2158,355.8359" style="stroke:#000000;stroke-width:1;"/><text fill="#000000" font-family="Verdana" font-size="13" lengthAdjust="spacing" textLength="304.4399" x="572.2158" y="337.77">Generiert appDetails (Auth-Methode, Ziel-URL)</text></g><path d="M15,377.8359 L474.0894,377.8359 L474.0894,384.9688 L464.0894,394.9688 L15,394.9688 L15,377.8359" fill="#FFFFFF" style="stroke:#000000;stroke-width:1;"/><rect fill="none" height="713.3203" style="stroke:#000000;stroke-width:1;" width="2116.9077" x="15" y="377.8359"/><text fill="#000000" font-family="Verdana" font-size="13" font-weight="bold" lengthAdjust="spacing" textLength="414.0894" x="30" y="390.9028">Phase 2: OIDC Authentifizierung und Token Beschaffung</text><g class="message" data-participant-1="PoPP" data-participant-2="SDK"><polygon fill="#000000" points="919.8306,412.1016,929.8306,416.1016,919.8306,420.1016,923.8306,416.1016" style="stroke:#000000;stroke-width:1;"/><line style="stroke:#000000;stroke-width:1;" x1="565.2158" x2="925.8306" y1="416.1016" y2="416.1016"/><text fill="#000000" font-family="Verdana" font-size="13" lengthAdjust="spacing" textLength="342.6147" x="572.2158" y="411.0356">execute(HTTP-Request, callBackMethod, appDetails)</text></g><g class="message" data-participant-1="SDK" data-participant-2="AS"><polygon fill="#000000" points="1351.5659,441.2344,1361.5659,445.2344,1351.5659,449.2344,1355.5659,445.2344" style="stroke:#000000;stroke-width:1;"/><line style="stroke:#000000;stroke-width:1;" x1="931.8306" x2="1357.5659" y1="445.2344" y2="445.2344"/><text fill="#000000" font-family="Verdana" font-size="13" lengthAdjust="spacing" textLength="326.4028" x="938.8306" y="440.1685">Startet Authorization Flow am /authorize Endpoint</text></g><path d="M25,460.2344 L499.0508,460.2344 L499.0508,467.3672 L489.0508,477.3672 L25,477.3672 L25,460.2344" fill="#FFFFFF" style="stroke:#000000;stroke-width:1;"/><rect fill="none" height="437.125" style="stroke:#000000;stroke-width:1;" width="2096.9077" x="25" y="460.2344"/><text fill="#000000" font-family="Verdana" font-size="13" font-weight="bold" lengthAdjust="spacing" textLength="429.0508" x="40" y="473.3013">Innerer Flow: ZETA AS agiert als Client des Sektoralen IDP</text><g class="message" data-participant-1="AS" data-participant-2="IDP"><polygon fill="#000000" points="1762.8555,494.5,1772.8555,498.5,1762.8555,502.5,1766.8555,498.5" style="stroke:#000000;stroke-width:1;"/><line style="stroke:#000000;stroke-width:1;" x1="1363.5659" x2="1768.8555" y1="498.5" y2="498.5"/><text fill="#000000" font-family="Verdana" font-size="13" font-weight="bold" lengthAdjust="spacing" textLength="381.9956" x="1370.5659" y="493.4341">POST /par Endpoint (Pushed Authorization Request)</text></g><path d="M1368,511.5 L1368,551.5 L1569,551.5 L1569,521.5 L1559,511.5 L1368,511.5" fill="#FFFFFF" style="stroke:#000000;stroke-width:1;"/><path d="M1559,511.5 L1559,521.5 L1569,521.5 L1559,511.5" fill="#FFFFFF" style="stroke:#000000;stroke-width:1;"/><text fill="#000000" font-family="Verdana" font-size="13" lengthAdjust="spacing" textLength="180.667" x="1374" y="528.5669">Sendet alle Auth-Parameter</text><text fill="#000000" font-family="Verdana" font-size="13" lengthAdjust="spacing" textLength="156.2729" x="1374" y="543.6997">sicher via Back-Channel</text><g class="message" data-participant-1="IDP" data-participant-2="AS"><polygon fill="#000000" points="1374.5659,573.8984,1364.5659,577.8984,1374.5659,581.8984,1370.5659,577.8984" style="stroke:#000000;stroke-width:1;"/><line style="stroke:#000000;stroke-width:1;stroke-dasharray:2,2;" x1="1368.5659" x2="1773.8555" y1="577.8984" y2="577.8984"/><text fill="#000000" font-family="Verdana" font-size="13" lengthAdjust="spacing" textLength="89.8574" x="1380.5659" y="572.8325">Antwortet mit</text><text fill="#000000" font-family="Verdana" font-size="13" font-weight="bold" lengthAdjust="spacing" textLength="83.1797" x="1474.5557" y="572.8325">request_uri</text></g><g class="message" data-participant-1="AS" data-participant-2="IDP"><polygon fill="#000000" points="1762.8555,603.0313,1772.8555,607.0313,1762.8555,611.0313,1766.8555,607.0313" style="stroke:#000000;stroke-width:1;"/><line style="stroke:#000000;stroke-width:1;" x1="1363.5659" x2="1768.8555" y1="607.0313" y2="607.0313"/><text fill="#000000" font-family="Verdana" font-size="13" font-weight="bold" lengthAdjust="spacing" textLength="335.2769" x="1370.5659" y="601.9653">GET /authorize Endpoint (nur mit request_uri)</text></g><path d="M1368,620.0313 L1368,660.0313 L1754,660.0313 L1754,630.0313 L1744,620.0313 L1368,620.0313" fill="#FFFFFF" style="stroke:#000000;stroke-width:1;"/><path d="M1744,620.0313 L1744,630.0313 L1754,630.0313 L1744,620.0313" fill="#FFFFFF" style="stroke:#000000;stroke-width:1;"/><text fill="#000000" font-family="Verdana" font-size="13" lengthAdjust="spacing" textLength="161.9731" x="1374" y="637.0981">Leitet den Nutzer weiter.</text><text fill="#000000" font-family="Verdana" font-size="13" lengthAdjust="spacing" textLength="365.2759" x="1374" y="652.231">Die sensiblen Parameter sind nicht im Browser sichtbar.</text><g class="message" data-participant-1="IDP" data-participant-2="AuthApp"><polygon fill="#000000" points="2018.8242,682.4297,2028.8242,686.4297,2018.8242,690.4297,2022.8242,686.4297" style="stroke:#000000;stroke-width:1;"/><line style="stroke:#000000;stroke-width:1;" x1="1774.8555" x2="2024.8242" y1="686.4297" y2="686.4297"/><text fill="#000000" font-family="Verdana" font-size="13" lengthAdjust="spacing" textLength="231.9688" x="1781.8555" y="681.3638">Fordert Nutzer-Authentifizierung an</text></g><g class="message" data-participant-1="Nutzer" data-participant-2="AuthApp"><polygon fill="#000000" points="2018.8242,711.5625,2028.8242,715.5625,2018.8242,719.5625,2022.8242,715.5625" style="stroke:#000000;stroke-width:1;"/><line style="stroke:#000000;stroke-width:1;" x1="61.2764" x2="2024.8242" y1="715.5625" y2="715.5625"/><text fill="#000000" font-family="Verdana" font-size="13" lengthAdjust="spacing" textLength="122.3828" x="68.2764" y="710.4966">Authentifiziert sich</text></g><g class="message" data-participant-1="AuthApp" data-participant-2="IDP"><polygon fill="#000000" points="1785.8555,740.6953,1775.8555,744.6953,1785.8555,748.6953,1781.8555,744.6953" style="stroke:#000000;stroke-width:1;"/><line style="stroke:#000000;stroke-width:1;stroke-dasharray:2,2;" x1="1779.8555" x2="2029.8242" y1="744.6953" y2="744.6953"/><text fill="#000000" font-family="Verdana" font-size="13" lengthAdjust="spacing" textLength="186.3228" x="1791.8555" y="739.6294">Authentifizierung erfolgreich</text></g><g class="message" data-participant-1="IDP" data-participant-2="AS"><polygon fill="#000000" points="1374.5659,769.8281,1364.5659,773.8281,1374.5659,777.8281,1370.5659,773.8281" style="stroke:#000000;stroke-width:1;"/><line style="stroke:#000000;stroke-width:1;stroke-dasharray:2,2;" x1="1368.5659" x2="1773.8555" y1="773.8281" y2="773.8281"/><text fill="#000000" font-family="Verdana" font-size="13" lengthAdjust="spacing" textLength="180.5781" x="1380.5659" y="768.7622">Redirect zur&#252;ck zum AS mit</text><text fill="#000000" font-family="Verdana" font-size="13" font-weight="bold" lengthAdjust="spacing" textLength="202.5791" x="1565.2764" y="768.7622">Authorization Code (f&#252;r AS)</text></g><g class="message" data-participant-1="AS" data-participant-2="IDP"><polygon fill="#000000" points="1762.8555,814.0938,1772.8555,818.0938,1762.8555,822.0938,1766.8555,818.0938" style="stroke:#000000;stroke-width:1;"/><line style="stroke:#000000;stroke-width:1;" x1="1363.5659" x2="1768.8555" y1="818.0938" y2="818.0938"/><text fill="#000000" font-family="Verdana" font-size="13" lengthAdjust="spacing" textLength="316.0498" x="1370.5659" y="797.895">Ruft /token Endpoint des IDP auf (Back-Channel)</text><text fill="#000000" font-family="Verdana" font-size="13" lengthAdjust="spacing" textLength="166.6958" x="1370.5659" y="813.0278">mit dem erhaltenen Code</text></g><g class="message" data-participant-1="IDP" data-participant-2="AS"><polygon fill="#000000" points="1374.5659,843.2266,1364.5659,847.2266,1374.5659,851.2266,1370.5659,847.2266" style="stroke:#000000;stroke-width:1;"/><line style="stroke:#000000;stroke-width:1;stroke-dasharray:2,2;" x1="1368.5659" x2="1773.8555" y1="847.2266" y2="847.2266"/><text fill="#000000" font-family="Verdana" font-size="13" lengthAdjust="spacing" textLength="89.8574" x="1380.5659" y="842.1606">Antwortet mit</text><text fill="#000000" font-family="Verdana" font-size="13" font-weight="bold" lengthAdjust="spacing" textLength="65.5396" x="1474.5557" y="842.1606">ID-Token</text><text fill="#000000" font-family="Verdana" font-size="13" lengthAdjust="spacing" textLength="178.6484" x="1544.2275" y="842.1606">(enth&#228;lt KVNR, IK-Nummer)</text></g><g class="message" data-participant-1="AS" data-participant-2="AS"><line style="stroke:#000000;stroke-width:1;" x1="1363.5659" x2="1405.5659" y1="876.3594" y2="876.3594"/><line style="stroke:#000000;stroke-width:1;" x1="1405.5659" x2="1405.5659" y1="876.3594" y2="889.3594"/><line style="stroke:#000000;stroke-width:1;" x1="1364.5659" x2="1405.5659" y1="889.3594" y2="889.3594"/><polygon fill="#000000" points="1374.5659,885.3594,1364.5659,889.3594,1374.5659,893.3594,1370.5659,889.3594" style="stroke:#000000;stroke-width:1;"/><text fill="#000000" font-family="Verdana" font-size="13" lengthAdjust="spacing" textLength="261.936" x="1370.5659" y="871.2935">Validiert ID-Token und extrahiert Claims</text></g><g class="message" data-participant-1="AS" data-participant-2="SDK"><polygon fill="#000000" points="942.8306,921.4922,932.8306,925.4922,942.8306,929.4922,938.8306,925.4922" style="stroke:#000000;stroke-width:1;"/><line style="stroke:#000000;stroke-width:1;stroke-dasharray:2,2;" x1="936.8306" x2="1362.5659" y1="925.4922" y2="925.4922"/><text fill="#000000" font-family="Verdana" font-size="13" lengthAdjust="spacing" textLength="190.2202" x="948.8306" y="920.4263">Redirect zur&#252;ck zum SDK mit</text><text fill="#000000" font-family="Verdana" font-size="13" font-weight="bold" lengthAdjust="spacing" textLength="213.3828" x="1143.1831" y="920.4263">Authorization Code (f&#252;r SDK)</text></g><g class="message" data-participant-1="SDK" data-participant-2="AS"><polygon fill="#000000" points="1351.5659,965.7578,1361.5659,969.7578,1351.5659,973.7578,1355.5659,969.7578" style="stroke:#000000;stroke-width:1;"/><line style="stroke:#000000;stroke-width:1;" x1="931.8306" x2="1357.5659" y1="969.7578" y2="969.7578"/><text fill="#000000" font-family="Verdana" font-size="13" lengthAdjust="spacing" textLength="349.5972" x="938.8306" y="949.5591">Ruft /token Endpoint des ZETA AS auf (Back-Channel)</text><text fill="#000000" font-family="Verdana" font-size="13" lengthAdjust="spacing" textLength="136.6777" x="938.8306" y="964.6919">mit dem neuen Code</text></g><g class="message" data-participant-1="AS" data-participant-2="AS"><line style="stroke:#000000;stroke-width:1;" x1="1363.5659" x2="1405.5659" y1="998.8906" y2="998.8906"/><line style="stroke:#000000;stroke-width:1;" x1="1405.5659" x2="1405.5659" y1="998.8906" y2="1011.8906"/><line style="stroke:#000000;stroke-width:1;" x1="1364.5659" x2="1405.5659" y1="1011.8906" y2="1011.8906"/><polygon fill="#000000" points="1374.5659,1007.8906,1364.5659,1011.8906,1374.5659,1015.8906,1370.5659,1011.8906" style="stroke:#000000;stroke-width:1;"/><text fill="#000000" font-family="Verdana" font-size="13" lengthAdjust="spacing" textLength="61.7056" x="1370.5659" y="993.8247">Generiert</text><text fill="#000000" font-family="Verdana" font-size="13" font-weight="bold" lengthAdjust="spacing" textLength="98.8076" x="1436.4038" y="993.8247">Access Token</text><text fill="#000000" font-family="Verdana" font-size="13" lengthAdjust="spacing" textLength="114.8481" x="1539.3438" y="993.8247">f&#252;r das ZETA-SDK</text></g><g class="message" data-participant-1="AS" data-participant-2="SDK"><polygon fill="#000000" points="942.8306,1037.0234,932.8306,1041.0234,942.8306,1045.0234,938.8306,1041.0234" style="stroke:#000000;stroke-width:1;"/><line style="stroke:#000000;stroke-width:1;stroke-dasharray:2,2;" x1="936.8306" x2="1362.5659" y1="1041.0234" y2="1041.0234"/><text fill="#000000" font-family="Verdana" font-size="13" lengthAdjust="spacing" textLength="122.9033" x="948.8306" y="1035.9575">Antwortet mit dem</text><text fill="#000000" font-family="Verdana" font-size="13" font-weight="bold" lengthAdjust="spacing" textLength="98.8076" x="1075.8662" y="1035.9575">Access Token</text></g><g class="message" data-participant-1="SDK" data-participant-2="SDK"><line style="stroke:#000000;stroke-width:1;" x1="931.8306" x2="973.8306" y1="1070.1563" y2="1070.1563"/><line style="stroke:#000000;stroke-width:1;" x1="973.8306" x2="973.8306" y1="1070.1563" y2="1083.1563"/><line style="stroke:#000000;stroke-width:1;" x1="932.8306" x2="973.8306" y1="1083.1563" y2="1083.1563"/><polygon fill="#000000" points="942.8306,1079.1563,932.8306,1083.1563,942.8306,1087.1563,938.8306,1083.1563" style="stroke:#000000;stroke-width:1;"/><text fill="#000000" font-family="Verdana" font-size="13" lengthAdjust="spacing" textLength="232.8701" x="938.8306" y="1065.0903">Speichert Access Token zur Session</text></g><path d="M869.5981,1105.1563 L1358.0708,1105.1563 L1358.0708,1112.2891 L1348.0708,1122.2891 L869.5981,1122.2891 L869.5981,1105.1563" fill="#FFFFFF" style="stroke:#000000;stroke-width:1;"/><rect fill="none" height="234.0625" style="stroke:#000000;stroke-width:1;" width="1894.0645" x="869.5981" y="1105.1563"/><text fill="#000000" font-family="Verdana" font-size="13" font-weight="bold" lengthAdjust="spacing" textLength="443.4727" x="884.5981" y="1118.2231">Phase 3: Autorisierter Zugriff auf den PoPP Resource Server</text><g class="message" data-participant-1="SDK" data-participant-2="Proxy"><polygon fill="#000000" points="2191.374,1139.4219,2201.374,1143.4219,2191.374,1147.4219,2195.374,1143.4219" style="stroke:#000000;stroke-width:1;"/><line style="stroke:#000000;stroke-width:1;" x1="931.8306" x2="2197.374" y1="1143.4219" y2="1143.4219"/><text fill="#000000" font-family="Verdana" font-size="13" lengthAdjust="spacing" textLength="479.5273" x="938.8306" y="1138.356">Ruft HTTP-Proxy mit urspr&#252;nglichem HTTP-Request und Access Token auf</text></g><g class="message" data-participant-1="Proxy" data-participant-2="AS"><polygon fill="#000000" points="1374.5659,1168.5547,1364.5659,1172.5547,1374.5659,1176.5547,1370.5659,1172.5547" style="stroke:#000000;stroke-width:1;"/><line style="stroke:#000000;stroke-width:1;" x1="1368.5659" x2="2202.374" y1="1172.5547" y2="1172.5547"/><text fill="#000000" font-family="Verdana" font-size="13" lengthAdjust="spacing" textLength="317.1416" x="1380.5659" y="1167.4888">L&#228;dt PoPP-Metainformationen zum Access Token</text></g><g class="message" data-participant-1="Proxy" data-participant-2="CR"><polygon fill="#000000" points="2475.3589,1197.6875,2485.3589,1201.6875,2475.3589,1205.6875,2479.3589,1201.6875" style="stroke:#000000;stroke-width:1;"/><line style="stroke:#000000;stroke-width:1;" x1="2203.374" x2="2481.3589" y1="1201.6875" y2="1201.6875"/><text fill="#000000" font-family="Verdana" font-size="13" lengthAdjust="spacing" textLength="161.8208" x="2210.374" y="1196.6216">L&#228;dt Clientinformationen</text></g><g class="message" data-participant-1="Proxy" data-participant-2="Proxy"><line style="stroke:#000000;stroke-width:1;" x1="2203.374" x2="2245.374" y1="1230.8203" y2="1230.8203"/><line style="stroke:#000000;stroke-width:1;" x1="2245.374" x2="2245.374" y1="1230.8203" y2="1243.8203"/><line style="stroke:#000000;stroke-width:1;" x1="2204.374" x2="2245.374" y1="1243.8203" y2="1243.8203"/><polygon fill="#000000" points="2214.374,1239.8203,2204.374,1243.8203,2214.374,1247.8203,2210.374,1243.8203" style="stroke:#000000;stroke-width:1;"/><text fill="#000000" font-family="Verdana" font-size="13" lengthAdjust="spacing" textLength="269.9849" x="2210.374" y="1225.7544">Reichert HTTP-Request mit Metadaten an</text></g><g class="message" data-participant-1="Proxy" data-participant-2="RS"><polygon fill="#000000" points="2647.7412,1268.9531,2657.7412,1272.9531,2647.7412,1276.9531,2651.7412,1272.9531" style="stroke:#000000;stroke-width:1;"/><line style="stroke:#000000;stroke-width:1;" x1="2203.374" x2="2653.7412" y1="1272.9531" y2="1272.9531"/><text fill="#000000" font-family="Verdana" font-size="13" lengthAdjust="spacing" textLength="374.2896" x="2210.374" y="1267.8872">Sendet angereicherten Request an PoPP Resource Server</text></g><g class="message" data-participant-1="RS" data-participant-2="Proxy"><polygon fill="#000000" points="2214.374,1298.0859,2204.374,1302.0859,2214.374,1306.0859,2210.374,1302.0859" style="stroke:#000000;stroke-width:1;"/><line style="stroke:#000000;stroke-width:1;stroke-dasharray:2,2;" x1="2208.374" x2="2658.7412" y1="1302.0859" y2="1302.0859"/><text fill="#000000" font-family="Verdana" font-size="13" lengthAdjust="spacing" textLength="183.7202" x="2220.374" y="1297.02">Antwortet mit dem Ergebnis</text></g><g class="message" data-participant-1="Proxy" data-participant-2="SDK"><polygon fill="#000000" points="942.8306,1327.2188,932.8306,1331.2188,942.8306,1335.2188,938.8306,1331.2188" style="stroke:#000000;stroke-width:1;"/><line style="stroke:#000000;stroke-width:1;stroke-dasharray:2,2;" x1="936.8306" x2="2202.374" y1="1331.2188" y2="1331.2188"/><text fill="#000000" font-family="Verdana" font-size="13" lengthAdjust="spacing" textLength="173.0054" x="948.8306" y="1326.1528">Leitet die Response weiter</text></g><path d="M25,1353.2188 L419.4067,1353.2188 L419.4067,1360.3516 L409.4067,1370.3516 L25,1370.3516 L25,1353.2188" fill="#FFFFFF" style="stroke:#000000;stroke-width:1;"/><rect fill="none" height="104.5313" style="stroke:#000000;stroke-width:1;" width="969.063" x="25" y="1353.2188"/><text fill="#000000" font-family="Verdana" font-size="13" font-weight="bold" lengthAdjust="spacing" textLength="349.4067" x="40" y="1366.2856">Phase 4: Ergebnisverarbeitung und Darstellung</text><g class="message" data-participant-1="SDK" data-participant-2="PoPP"><polygon fill="#000000" points="576.2158,1387.4844,566.2158,1391.4844,576.2158,1395.4844,572.2158,1391.4844" style="stroke:#000000;stroke-width:1;"/><line style="stroke:#000000;stroke-width:1;" x1="570.2158" x2="930.8306" y1="1391.4844" y2="1391.4844"/><text fill="#000000" font-family="Verdana" font-size="13" lengthAdjust="spacing" textLength="315.2183" x="582.2158" y="1386.4185">Ruft callBackMethod mit der HTTP-Response auf</text></g><g class="message" data-participant-1="PoPP" data-participant-2="App"><polygon fill="#000000" points="285.5317,1416.6172,275.5317,1420.6172,285.5317,1424.6172,281.5317,1420.6172" style="stroke:#000000;stroke-width:1;"/><line style="stroke:#000000;stroke-width:1;" x1="279.5317" x2="564.2158" y1="1420.6172" y2="1420.6172"/><text fill="#000000" font-family="Verdana" font-size="13" lengthAdjust="spacing" textLength="205.5562" x="291.5317" y="1415.5513">Wertet die Antwort fachlich aus</text></g><g class="message" data-participant-1="App" data-participant-2="Nutzer"><polygon fill="#000000" points="72.2764,1445.75,62.2764,1449.75,72.2764,1453.75,68.2764,1449.75" style="stroke:#000000;stroke-width:1;"/><line style="stroke:#000000;stroke-width:1;" x1="66.2764" x2="273.5317" y1="1449.75" y2="1449.75"/><text fill="#000000" font-family="Verdana" font-size="13" lengthAdjust="spacing" textLength="147.3037" x="78.2764" y="1444.6841">Stellt das Ergebnis dar</text></g><!--SRC=[ZLRDRjj64BxhAQOvf99WEiWF2bI70B9akq9iHwLK5mWC52joA2r4BjNTPUpetFVenS_GaszwiSxEaXGfsMbr8KJEx_VDVZi_s1Lc29jKIDNfM6bJX4iq8hDYaOeY6S0qdqw3URv61SE5BXB8f8Klv_CXpCQVu3LCXo5qmuiH_FpstK-zJaT4DjTmKzWjwiv6Q2iZkH7AmgkXMaYqg8FXPlCAX05wjYqurtKU5ob_Tt_R1YvlG7dvCpqF4XHsbMkv5LRc2cQelwA-KrqNfWTVq0guB8IEVUvPstU6QwfRfAXXCfwo2JsFuwEY_u9CzrtGswDEVfdFfy5Kvm_VNYg0FxQTHgcay13YKXghlx7PA3o6Y2nCNkW8onxPC9nrEZz240GmNGc3y7O04oMj5Aaq4dMXbkvZPwdpOlEoIQ5YkCtr0ZLAIoywG3zF9WGV7MC3c5ag22qCrunpTtjwTWgZ5KRhGAeUUv2TCtV57kTeJ9IRfQlpIJ0cR6HgEkpCBP8tyJi0ISxTYr_7Dn2ZduZ0DIqZz9dS40OlfXAB9PfebUR6e6f7zmwNg52JiGLcBCG_2pGMkdDCCQCvMWUJyGcWZKvxt_KMcqtP0tJTG0JNIBCOumbyaPW6luLNlGwgk4tHkm5K8vN8RLdoQs1eWZDNk4YIvuWZny-JyUWPRyUVXxRXVumgFc1KMEmscpw1IAJfcOZMllQJHbCzZvqlVlTNiVkR1aJx8YxI_9uhhEcWEParngHrAjbQPF16bAyHpbMyoQMopHmJfJX3Dzdz4tkCKVSQ2TtaEEcf4djuAZTdCl0gDPo1M7gEY9poYBbPga-yufCEvQyaY49pdhsqrQbum6UkJV8RGBy__JoRmniwfdKhq9qMPeNnGVCbqhr-lmwaSekWvN9b8KyyRZGdwAebAUPHcWejCYUSTyh8Q4NjVPK27571Q2MeuxIEHWNnQN1nXihUvyo0mwhVrpxv7uMMbF_vJYxFvyyn0rrLQ0xJ2FBzBgv8Fz01hIhvk7TlzEcT6ai4Eev6BXpsTNTW90sleWujo0pET7vl-2szM0XzUi0GrOPxcfhSjD7uM0dq02vo7Rj1y0K5nwT7gDgteNcLUzlUScLx6BqLeyzW7aT7dUJfaeIruTOaBCHOQemiR0kzUuhMzCmSFPw-zYIDI5lSuNZIPD5aea5dM2GMtbXMWvf9D_akATtjq6tEKEzEkKGnPbJeIgIMjCtd-L_JDHbxIU_teKjjhtQFgOLFjpVX2Km-1JT5bj7vFQZInRabjOuPpYe2QnW-M2rM_7v4kqbcs9KLT3y2muNJzi8Oxchtw6L9xLN2r7FX4bRYzopEJhZ-0sWogP0-rBeNeQubw3jmAooQIE-nsLylL5KK8JLQOSm5nS8dS1lHKPTjWboUmo3D9jXbja7M5zBiXg63YKJ968BZ-0vxJp9RBBLC4kwHg0I-SdTFTakQG9jAkQeStc7l-OWGqCQBUpkC4uPdDfrcoRn0bT3lrotkjj1cGzIgPUhwoTftknklLd-KqD-Gx5zYVxLxZAtVDwxT7QYIN6Sy4en8rWhHTX-5bRk_RLg-RTEgXmhtLg6k4vSx5jPLUU0QDguAjKHTXi3wbg7NBsCO-aafyn_FohbUua99qynPZKabxPBftUIAsFJYVZmU7mPrA4ejQB7ajV9e6bwoSsIDXJOMqxJQP2h-UGLZ-jkBIzc4hj0iIwnfBXSXrlJVKLUzb2108aXK24noCCrbrjy8Rg-XMYmVlgfa-kDx_nS0]--></g></svg>