<svg xmlns="http://www.w3.org/2000/svg" xmlns:xlink="http://www.w3.org/1999/xlink" contentStyleType="text/css" data-diagram-type="SEQUENCE" height="2015px" preserveAspectRatio="none" style="width:1769px;height:2015px;background:#FFFFFF;" version="1.1" viewBox="0 0 1769 2015" width="1769px" zoomAndPan="magnify"><title>Gesamtablauf: PoPP-Token Abruf mit ZETA SDK &amp; PAR (RFC 9126)</title><defs/><g><rect fill="#F8F8FF" height="1966.5313" style="stroke:#181818;stroke-width:0.5;" width="679.312" x="98.1021" y="43.2969"/><text fill="#000000" font-family="Helvetica" font-size="10" font-weight="bold" x="398.6443" y="52.5791">User Device A</text><rect fill="#E6E6FA" height="1949.8906" style="stroke:#181818;stroke-width:0.5;" width="679.312" x="98.1021" y="59.9375"/><text fill="#000000" font-family="Helvetica" font-size="10" font-weight="bold" x="426.7302" y="69.2197">App</text><rect fill="#F4A460" height="1933.25" style="stroke:#181818;stroke-width:0.5;" width="89" x="688.4141" y="76.5781"/><text fill="#000000" font-family="Helvetica" font-size="10" font-weight="bold" x="700.4141" y="85.8604">ZETA Client</text><rect fill="#C9FFC9" height="1966.5313" style="stroke:#181818;stroke-width:0.5;" width="537.2993" x="907.9658" y="43.2969"/><text fill="#000000" font-family="Helvetica" font-size="10" font-weight="bold" x="1152.2551" y="52.5791">Anbieter</text><rect fill="#F4A460" height="1949.8906" style="stroke:#181818;stroke-width:0.5;" width="320.6714" x="907.9658" y="59.9375"/><text fill="#000000" font-family="Helvetica" font-size="10" font-weight="bold" x="1035.157" y="69.2197">ZETA Guard</text><rect fill="#8FBC8F" height="1949.8906" style="stroke:#181818;stroke-width:0.5;" width="131.8877" x="1313.3774" y="59.9375"/><text fill="#000000" font-family="Helvetica" font-size="10" font-weight="bold" x="1341.7896" y="69.2197">TI 2.0 Dienst</text><rect fill="#F8F8FF" height="1966.5313" style="stroke:#181818;stroke-width:0.5;" width="93.4697" x="1457.2651" y="43.2969"/><text fill="#000000" font-family="Helvetica" font-size="10" font-weight="bold" x="1494.3247" y="52.5791">IDP</text><rect fill="#F8F8FF" height="1966.5313" style="stroke:#181818;stroke-width:0.5;" width="102.1104" x="1655.5444" y="43.2969"/><text fill="#000000" font-family="Helvetica" font-size="10" font-weight="bold" x="1667.5444" y="52.5791">User Device B</text><rect fill="#E6E6FA" height="1949.8906" style="stroke:#181818;stroke-width:0.5;" width="102.1104" x="1655.5444" y="59.9375"/><text fill="#000000" font-family="Helvetica" font-size="10" font-weight="bold" x="1695.5718" y="69.2197">App</text><text fill="#000000" font-family="Helvetica" font-size="14" font-weight="bold" x="631.8359" y="27.9951">Gesamtablauf: PoPP-Token Abruf mit ZETA SDK &amp; PAR (RFC 9126)</text><g><title>User</title><rect fill="#000000" fill-opacity="0.00000" height="1768.3281" width="8" x="20.5" y="163.8594"/><line style="stroke:#181818;stroke-width:0.5;stroke-dasharray:5,5;" x1="24" x2="24" y1="163.8594" y2="1932.1875"/></g><g><title>Anbieter-App</title><rect fill="#000000" fill-opacity="0.00000" height="1768.3281" width="8" x="138.4951" y="163.8594"/><line style="stroke:#181818;stroke-width:0.5;stroke-dasharray:5,5;" x1="141.9951" x2="141.9951" y1="163.8594" y2="1932.1875"/></g><g><title>PoPP-Modul</title><rect fill="#000000" fill-opacity="0.00000" height="1768.3281" width="8" x="259.7568" y="163.8594"/><line style="stroke:#181818;stroke-width:0.5;stroke-dasharray:5,5;" x1="263.2568" x2="263.2568" y1="163.8594" y2="1932.1875"/></g><g><title>Browser . WebView</title><rect fill="#000000" fill-opacity="0.00000" height="1768.3281" width="8" x="432.6104" y="163.8594"/><line style="stroke:#181818;stroke-width:0.5;stroke-dasharray:5,5;" x1="436.1104" x2="436.1104" y1="163.8594" y2="1932.1875"/></g><g><title>ZETA-SDK</title><rect fill="#000000" fill-opacity="0.00000" height="1768.3281" width="8" x="729.4141" y="163.8594"/><line style="stroke:#181818;stroke-width:0.5;stroke-dasharray:5,5;" x1="732.9141" x2="732.9141" y1="163.8594" y2="1932.1875"/></g><g><title>Authorization Server</title><rect fill="#000000" fill-opacity="0.00000" height="1768.3281" width="8" x="966.9404" y="163.8594"/><line style="stroke:#181818;stroke-width:0.5;stroke-dasharray:5,5;" x1="970.4404" x2="970.4404" y1="163.8594" y2="1932.1875"/></g><g><title>HTTP-Proxy</title><rect fill="#000000" fill-opacity="0.00000" height="1768.3281" width="8" x="1168.0898" y="163.8594"/><line style="stroke:#181818;stroke-width:0.5;stroke-dasharray:5,5;" x1="1171.5898" x2="1171.5898" y1="163.8594" y2="1932.1875"/></g><g><title>PoPP Resource Server</title><rect fill="#000000" fill-opacity="0.00000" height="1768.3281" width="8" x="1375.8213" y="163.8594"/><line style="stroke:#181818;stroke-width:0.5;stroke-dasharray:5,5;" x1="1379.3213" x2="1379.3213" y1="163.8594" y2="1932.1875"/></g><g><title>Sektoraler IDP</title><rect fill="#000000" fill-opacity="0.00000" height="1768.3281" width="8" x="1500.5" y="163.8594"/><line style="stroke:#181818;stroke-width:0.5;stroke-dasharray:5,5;" x1="1504" x2="1504" y1="163.8594" y2="1932.1875"/></g><g><title>Authenticator</title><rect fill="#000000" fill-opacity="0.00000" height="1768.3281" width="8" x="1703.0996" y="163.8594"/><line style="stroke:#181818;stroke-width:0.5;stroke-dasharray:5,5;" x1="1706.5996" x2="1706.5996" y1="163.8594" y2="1932.1875"/></g><text fill="#000000" font-family="Helvetica" font-size="10" x="9.6035" y="161.501">User</text><ellipse cx="24" cy="100.7188" fill="#E2E2F0" rx="8" ry="8" style="stroke:#181818;stroke-width:0.5;"/><path d="M24,108.7188 L24,135.7188 M11,116.7188 L37,116.7188 M24,135.7188 L11,150.7188 M24,135.7188 L37,150.7188" fill="none" style="stroke:#181818;stroke-width:0.5;"/><rect fill="#E2E2F0" height="25.6406" rx="2.5" ry="2.5" style="stroke:#181818;stroke-width:0.5;" width="79.7861" x="102.1021" y="137.2188"/><text fill="#000000" font-family="Helvetica" font-size="10" x="109.1021" y="153.501">Anbieter-App</text><rect fill="#E2E2F0" height="25.6406" rx="2.5" ry="2.5" style="stroke:#181818;stroke-width:0.5;" width="72.0273" x="227.2432" y="137.2188"/><text fill="#000000" font-family="Helvetica" font-size="10" x="234.2432" y="153.501">PoPP-Modul</text><rect fill="#E2E2F0" height="25.6406" rx="2.5" ry="2.5" style="stroke:#181818;stroke-width:0.5;" width="110.8066" x="380.707" y="137.2188"/><text fill="#000000" font-family="Helvetica" font-size="10" x="387.707" y="153.501">Browser / WebView</text><rect fill="#E2E2F0" height="25.6406" rx="2.5" ry="2.5" style="stroke:#181818;stroke-width:0.5;" width="64.332" x="700.748" y="137.2188"/><text fill="#000000" font-family="Helvetica" font-size="10" x="707.748" y="153.501">ZETA-SDK</text><rect fill="#E2E2F0" height="37.2813" rx="2.5" ry="2.5" style="stroke:#181818;stroke-width:0.5;" width="116.9492" x="911.9658" y="125.5781"/><text fill="#000000" font-family="Helvetica" font-size="10" x="918.9658" y="141.8604">Authorization Server</text><text fill="#000000" font-family="Helvetica" font-size="10" x="924.3931" y="153.501">(PoPP) Zeta Guard</text><rect fill="#E2E2F0" height="37.2813" rx="2.5" ry="2.5" style="stroke:#181818;stroke-width:0.5;" width="106.0947" x="1118.5425" y="125.5781"/><text fill="#000000" font-family="Helvetica" font-size="10" x="1142.8545" y="141.8604">HTTP-Proxy</text><text fill="#000000" font-family="Helvetica" font-size="10" x="1125.5425" y="153.501">(PoPP) Zeta Guard</text><rect fill="#E2E2F0" height="25.6406" rx="2.5" ry="2.5" style="stroke:#181818;stroke-width:0.5;" width="123.8877" x="1317.3774" y="137.2188"/><text fill="#000000" font-family="Helvetica" font-size="10" x="1324.3774" y="153.501">PoPP Resource Server</text><rect fill="#E2E2F0" height="25.6406" rx="2.5" ry="2.5" style="stroke:#181818;stroke-width:0.5;" width="85.4697" x="1461.2651" y="137.2188"/><text fill="#000000" font-family="Helvetica" font-size="10" x="1468.2651" y="153.501">Sektoraler IDP</text><rect fill="#E2E2F0" height="25.6406" rx="2.5" ry="2.5" style="stroke:#181818;stroke-width:0.5;" width="82.4033" x="1665.3979" y="137.2188"/><text fill="#000000" font-family="Helvetica" font-size="10" x="1672.3979" y="153.501">Authenticator</text><text fill="#000000" font-family="Helvetica" font-size="10" x="9.6035" y="2001.4697">User</text><ellipse cx="24" cy="1940.6875" fill="#E2E2F0" rx="8" ry="8" style="stroke:#181818;stroke-width:0.5;"/><path d="M24,1948.6875 L24,1975.6875 M11,1956.6875 L37,1956.6875 M24,1975.6875 L11,1990.6875 M24,1975.6875 L37,1990.6875" fill="none" style="stroke:#181818;stroke-width:0.5;"/><rect fill="#E2E2F0" height="25.6406" rx="2.5" ry="2.5" style="stroke:#181818;stroke-width:0.5;" width="79.7861" x="102.1021" y="1932.1875"/><text fill="#000000" font-family="Helvetica" font-size="10" x="109.1021" y="1948.4697">Anbieter-App</text><rect fill="#E2E2F0" height="25.6406" rx="2.5" ry="2.5" style="stroke:#181818;stroke-width:0.5;" width="72.0273" x="227.2432" y="1932.1875"/><text fill="#000000" font-family="Helvetica" font-size="10" x="234.2432" y="1948.4697">PoPP-Modul</text><rect fill="#E2E2F0" height="25.6406" rx="2.5" ry="2.5" style="stroke:#181818;stroke-width:0.5;" width="110.8066" x="380.707" y="1932.1875"/><text fill="#000000" font-family="Helvetica" font-size="10" x="387.707" y="1948.4697">Browser / WebView</text><rect fill="#E2E2F0" height="25.6406" rx="2.5" ry="2.5" style="stroke:#181818;stroke-width:0.5;" width="64.332" x="700.748" y="1932.1875"/><text fill="#000000" font-family="Helvetica" font-size="10" x="707.748" y="1948.4697">ZETA-SDK</text><rect fill="#E2E2F0" height="37.2813" rx="2.5" ry="2.5" style="stroke:#181818;stroke-width:0.5;" width="116.9492" x="911.9658" y="1932.1875"/><text fill="#000000" font-family="Helvetica" font-size="10" x="918.9658" y="1948.4697">Authorization Server</text><text fill="#000000" font-family="Helvetica" font-size="10" x="924.3931" y="1960.1104">(PoPP) Zeta Guard</text><rect fill="#E2E2F0" height="37.2813" rx="2.5" ry="2.5" style="stroke:#181818;stroke-width:0.5;" width="106.0947" x="1118.5425" y="1932.1875"/><text fill="#000000" font-family="Helvetica" font-size="10" x="1142.8545" y="1948.4697">HTTP-Proxy</text><text fill="#000000" font-family="Helvetica" font-size="10" x="1125.5425" y="1960.1104">(PoPP) Zeta Guard</text><rect fill="#E2E2F0" height="25.6406" rx="2.5" ry="2.5" style="stroke:#181818;stroke-width:0.5;" width="123.8877" x="1317.3774" y="1932.1875"/><text fill="#000000" font-family="Helvetica" font-size="10" x="1324.3774" y="1948.4697">PoPP Resource Server</text><rect fill="#E2E2F0" height="25.6406" rx="2.5" ry="2.5" style="stroke:#181818;stroke-width:0.5;" width="85.4697" x="1461.2651" y="1932.1875"/><text fill="#000000" font-family="Helvetica" font-size="10" x="1468.2651" y="1948.4697">Sektoraler IDP</text><rect fill="#E2E2F0" height="25.6406" rx="2.5" ry="2.5" style="stroke:#181818;stroke-width:0.5;" width="82.4033" x="1665.3979" y="1932.1875"/><text fill="#000000" font-family="Helvetica" font-size="10" x="1672.3979" y="1948.4697">Authenticator</text><path d="M509.8789,175.8594 L811.2559,175.8594 L811.2559,179.5 L801.2559,189.5 L509.8789,189.5 L509.8789,175.8594" fill="#EEEEEE" style="stroke:#000000;stroke-width:1.5;"/><rect fill="none" height="269.0469" style="stroke:#000000;stroke-width:1.5;" width="677.7109" x="509.8789" y="175.8594"/><text fill="#000000" font-family="Helvetica" font-size="10" font-weight="bold" x="524.8789" y="186.1416">Phase 0: Client Registration (mit Attestation)</text><line style="stroke:#181818;stroke-width:1;" x1="732.9141" x2="774.9141" y1="217.1406" y2="217.1406"/><line style="stroke:#181818;stroke-width:1;" x1="774.9141" x2="774.9141" y1="217.1406" y2="230.1406"/><line style="stroke:#181818;stroke-width:1;" x1="733.9141" x2="774.9141" y1="230.1406" y2="230.1406"/><polygon fill="#181818" points="743.9141,226.1406,733.9141,230.1406,743.9141,234.1406,739.9141,230.1406" style="stroke:#181818;stroke-width:1;"/><text fill="#000000" font-family="Helvetica" font-size="10" x="739.9141" y="212.7822">(01)</text><text fill="#000000" font-family="Helvetica" font-size="10" x="764.4414" y="212.7822">Generiert DPoP-Schl&#252;sselpaar</text><line style="stroke:#181818;stroke-width:1;" x1="732.9141" x2="774.9141" y1="267.4219" y2="267.4219"/><line style="stroke:#181818;stroke-width:1;" x1="774.9141" x2="774.9141" y1="267.4219" y2="280.4219"/><line style="stroke:#181818;stroke-width:1;" x1="733.9141" x2="774.9141" y1="280.4219" y2="280.4219"/><polygon fill="#181818" points="743.9141,276.4219,733.9141,280.4219,743.9141,284.4219,739.9141,280.4219" style="stroke:#181818;stroke-width:1;"/><text fill="#000000" font-family="Helvetica" font-size="10" x="739.9141" y="257.2432">(02)</text><text fill="#000000" font-family="Helvetica" font-size="10" x="764.4414" y="251.4229">Fordert Attestation Statement</text><text fill="#000000" font-family="Helvetica" font-size="10" x="764.4414" y="263.0635">vom OS (Android/iOS) an</text><path d="M927.1836,243.1406 L927.1836,276.1406 L1117.1836,276.1406 L1117.1836,253.1406 L1107.1836,243.1406 L927.1836,243.1406" fill="#FEFFDD" style="stroke:#181818;stroke-width:0.5;"/><path d="M1107.1836,243.1406 L1107.1836,253.1406 L1117.1836,253.1406 L1107.1836,243.1406" fill="#FEFFDD" style="stroke:#181818;stroke-width:0.5;"/><text fill="#000000" font-family="Helvetica" font-size="10" x="933.1836" y="257.4229">SafetyNet/Play Integrity (Android)</text><text fill="#000000" font-family="Helvetica" font-size="10" x="933.1836" y="269.0635">App Attest (iOS)</text><polygon fill="#181818" points="958.4404,325.3438,968.4404,329.3438,958.4404,333.3438,962.4404,329.3438" style="stroke:#181818;stroke-width:1;"/><line style="stroke:#181818;stroke-width:1;" x1="732.9141" x2="964.4404" y1="329.3438" y2="329.3438"/><text fill="#000000" font-family="Helvetica" font-size="10" x="739.9141" y="313.3447">(03)</text><text fill="#000000" font-family="Helvetica" font-size="10" x="764.4414" y="301.7041">Registrierungsanfrage mit</text><text fill="#000000" font-family="Helvetica" font-size="10" x="764.4414" y="313.3447">Attestation Statement</text><text fill="#000000" font-family="Helvetica" font-size="10" x="764.4414" y="324.9854">und DPoP Public Key</text><line style="stroke:#181818;stroke-width:1;" x1="970.4404" x2="1012.4404" y1="354.9844" y2="354.9844"/><line style="stroke:#181818;stroke-width:1;" x1="1012.4404" x2="1012.4404" y1="354.9844" y2="367.9844"/><line style="stroke:#181818;stroke-width:1;" x1="971.4404" x2="1012.4404" y1="367.9844" y2="367.9844"/><polygon fill="#181818" points="981.4404,363.9844,971.4404,367.9844,981.4404,371.9844,977.4404,367.9844" style="stroke:#181818;stroke-width:1;"/><text fill="#000000" font-family="Helvetica" font-size="10" x="977.4404" y="350.626">(04)</text><text fill="#000000" font-family="Helvetica" font-size="10" x="1001.9678" y="350.626">Verifiziert Attestation Statement</text><polygon fill="#181818" points="743.9141,389.625,733.9141,393.625,743.9141,397.625,739.9141,393.625" style="stroke:#181818;stroke-width:1;"/><line style="stroke:#181818;stroke-width:1;stroke-dasharray:2,2;" x1="737.9141" x2="969.4404" y1="393.625" y2="393.625"/><text fill="#000000" font-family="Helvetica" font-size="10" x="749.9141" y="389.2666">(05)</text><text fill="#000000" font-family="Helvetica" font-size="10" x="774.4414" y="389.2666">Antwortet mit</text><text fill="#000000" font-family="Helvetica" font-size="10" font-weight="bold" x="846.7412" y="389.2666">client_id</text><path d="M530.8789,406.625 L530.8789,439.625 L727.8789,439.625 L727.8789,416.625 L717.8789,406.625 L530.8789,406.625" fill="#FEFFDD" style="stroke:#181818;stroke-width:0.5;"/><path d="M717.8789,406.625 L717.8789,416.625 L727.8789,416.625 L717.8789,406.625" fill="#FEFFDD" style="stroke:#181818;stroke-width:0.5;"/><text fill="#000000" font-family="Helvetica" font-size="10" x="536.8789" y="420.9072">App ist nun als vertrauensw&#252;rdiger</text><text fill="#000000" font-family="Helvetica" font-size="10" x="536.8789" y="432.5479">Client beim AS registriert.</text><path d="M8,462.9063 L286.5791,462.9063 L286.5791,466.5469 L276.5791,476.5469 L8,476.5469 L8,462.9063" fill="#EEEEEE" style="stroke:#000000;stroke-width:1.5;"/><rect fill="none" height="250.0469" style="stroke:#000000;stroke-width:1.5;" width="740.9141" x="8" y="462.9063"/><text fill="#000000" font-family="Helvetica" font-size="10" font-weight="bold" x="23" y="473.1885">Phase 1: Initialisierung und Vorbereitung</text><polygon fill="#181818" points="129.9951,500.1875,139.9951,504.1875,129.9951,508.1875,133.9951,504.1875" style="stroke:#181818;stroke-width:1;"/><line style="stroke:#181818;stroke-width:1;" x1="24" x2="135.9951" y1="504.1875" y2="504.1875"/><text fill="#000000" font-family="Helvetica" font-size="10" x="31" y="499.8291">(06)</text><text fill="#000000" font-family="Helvetica" font-size="10" x="55.5273" y="499.8291">Startet Aktion</text><polygon fill="#181818" points="251.2568,549.1094,261.2568,553.1094,251.2568,557.1094,255.2568,553.1094" style="stroke:#181818;stroke-width:1;"/><line style="stroke:#181818;stroke-width:1;" x1="141.9951" x2="257.2568" y1="553.1094" y2="553.1094"/><text fill="#000000" font-family="Helvetica" font-size="10" x="148.9951" y="537.1104">(07)</text><text fill="#000000" font-family="Helvetica" font-size="10" x="173.5225" y="525.4697">Initialisierung</text><text fill="#000000" font-family="Helvetica" font-size="10" x="173.5225" y="537.1104">PoPP-Token</text><text fill="#000000" font-family="Helvetica" font-size="10" x="173.5225" y="548.751">mit LEI-Details</text><polygon fill="#181818" points="720.9141,574.75,730.9141,578.75,720.9141,582.75,724.9141,578.75" style="stroke:#181818;stroke-width:1;"/><line style="stroke:#181818;stroke-width:1;" x1="263.2568" x2="726.9141" y1="578.75" y2="578.75"/><text fill="#000000" font-family="Helvetica" font-size="10" x="270.2568" y="574.3916">(08)</text><text fill="#000000" font-family="Helvetica" font-size="10" x="294.7842" y="574.3916">init(FQDN des PoPP-Service)</text><polygon fill="#181818" points="274.2568,600.3906,264.2568,604.3906,274.2568,608.3906,270.2568,604.3906" style="stroke:#181818;stroke-width:1;"/><line style="stroke:#181818;stroke-width:1;stroke-dasharray:2,2;" x1="268.2568" x2="731.9141" y1="604.3906" y2="604.3906"/><text fill="#000000" font-family="Helvetica" font-size="10" x="280.2568" y="600.0322">(09)</text><text fill="#000000" font-family="Helvetica" font-size="10" x="304.7842" y="600.0322">Initialisierung abgeschlossen</text><line style="stroke:#181818;stroke-width:1;" x1="263.2568" x2="305.2568" y1="641.6719" y2="641.6719"/><line style="stroke:#181818;stroke-width:1;" x1="305.2568" x2="305.2568" y1="641.6719" y2="654.6719"/><line style="stroke:#181818;stroke-width:1;" x1="264.2568" x2="305.2568" y1="654.6719" y2="654.6719"/><polygon fill="#181818" points="274.2568,650.6719,264.2568,654.6719,274.2568,658.6719,270.2568,654.6719" style="stroke:#181818;stroke-width:1;"/><text fill="#000000" font-family="Helvetica" font-size="10" x="270.2568" y="631.4932">(10)</text><text fill="#000000" font-family="Helvetica" font-size="10" x="294.7842" y="625.6729">Generiert HTTP-Request</text><text fill="#000000" font-family="Helvetica" font-size="10" x="294.7842" y="637.3135">(Telematik-ID, etc.)</text><line style="stroke:#181818;stroke-width:1;" x1="263.2568" x2="305.2568" y1="691.9531" y2="691.9531"/><line style="stroke:#181818;stroke-width:1;" x1="305.2568" x2="305.2568" y1="691.9531" y2="704.9531"/><line style="stroke:#181818;stroke-width:1;" x1="264.2568" x2="305.2568" y1="704.9531" y2="704.9531"/><polygon fill="#181818" points="274.2568,700.9531,264.2568,704.9531,274.2568,708.9531,270.2568,704.9531" style="stroke:#181818;stroke-width:1;"/><text fill="#000000" font-family="Helvetica" font-size="10" x="270.2568" y="681.7744">(11)</text><text fill="#000000" font-family="Helvetica" font-size="10" x="294.7842" y="675.9541">Generiert appDetails</text><text fill="#000000" font-family="Helvetica" font-size="10" x="294.7842" y="687.5947">(IDP iss uri, Auth-Methode)</text><path d="M8,730.9531 L371.5303,730.9531 L371.5303,734.5938 L361.5303,744.5938 L8,744.5938 L8,730.9531" fill="#EEEEEE" style="stroke:#000000;stroke-width:1.5;"/><rect fill="none" height="757.0625" style="stroke:#000000;stroke-width:1.5;" width="1755.915" x="8" y="730.9531"/><text fill="#000000" font-family="Helvetica" font-size="10" font-weight="bold" x="23" y="741.2354">Phase 2: OIDC Authentifizierung und Token Beschaffung</text><polygon fill="#181818" points="720.9141,779.875,730.9141,783.875,720.9141,787.875,724.9141,783.875" style="stroke:#181818;stroke-width:1;"/><line style="stroke:#181818;stroke-width:1;" x1="263.2568" x2="726.9141" y1="783.875" y2="783.875"/><text fill="#000000" font-family="Helvetica" font-size="10" x="270.2568" y="773.6963">(12)</text><text fill="#000000" font-family="Helvetica" font-size="10" x="294.7842" y="767.876">execute(HTTP-Request,</text><text fill="#000000" font-family="Helvetica" font-size="10" x="294.7842" y="779.5166">callBackMethod, appDetails)</text><polygon fill="#181818" points="447.1104,805.5156,437.1104,809.5156,447.1104,813.5156,443.1104,809.5156" style="stroke:#181818;stroke-width:1;"/><line style="stroke:#181818;stroke-width:1;" x1="441.1104" x2="731.9141" y1="809.5156" y2="809.5156"/><text fill="#000000" font-family="Helvetica" font-size="10" x="453.1104" y="805.1572">(13)</text><text fill="#000000" font-family="Helvetica" font-size="10" x="477.6377" y="805.1572">&#214;ffne URL f&#252;r ZETA AS</text><polygon fill="#181818" points="958.4404,842.7969,968.4404,846.7969,958.4404,850.7969,962.4404,846.7969" style="stroke:#181818;stroke-width:1;"/><line style="stroke:#181818;stroke-width:1;" x1="436.1104" x2="964.4404" y1="846.7969" y2="846.7969"/><text fill="#000000" font-family="Helvetica" font-size="10" x="443.1104" y="836.6182">(14)</text><text fill="#000000" font-family="Helvetica" font-size="10" font-weight="bold" x="467.6377" y="830.7979">[FRONT-CHANNEL]</text><text fill="#000000" font-family="Helvetica" font-size="10" x="467.6377" y="842.4385">GET /authorize?params...</text><polygon fill="#181818" points="1492,868.4375,1502,872.4375,1492,876.4375,1496,872.4375" style="stroke:#181818;stroke-width:1;"/><line style="stroke:#181818;stroke-width:1;" x1="970.4404" x2="1498" y1="872.4375" y2="872.4375"/><text fill="#000000" font-family="Helvetica" font-size="10" x="977.4404" y="868.0791">(15)</text><text fill="#000000" font-family="Helvetica" font-size="10" font-weight="bold" x="1001.9678" y="868.0791">[BACK-CHANNEL]</text><text fill="#000000" font-family="Helvetica" font-size="10" x="1102.2754" y="868.0791">POST /par (Pushed Authorization Request)</text><polygon fill="#181818" points="981.4404,894.0781,971.4404,898.0781,981.4404,902.0781,977.4404,898.0781" style="stroke:#181818;stroke-width:1;"/><line style="stroke:#181818;stroke-width:1;stroke-dasharray:2,2;" x1="975.4404" x2="1503" y1="898.0781" y2="898.0781"/><text fill="#000000" font-family="Helvetica" font-size="10" x="987.4404" y="893.7197">(16)</text><text fill="#000000" font-family="Helvetica" font-size="10" font-weight="bold" x="1011.9678" y="893.7197">[BACK-CHANNEL]</text><text fill="#000000" font-family="Helvetica" font-size="10" x="1112.2754" y="893.7197">Antwort mit request_uri</text><polygon fill="#181818" points="447.1104,931.3594,437.1104,935.3594,447.1104,939.3594,443.1104,935.3594" style="stroke:#181818;stroke-width:1;"/><line style="stroke:#181818;stroke-width:1;stroke-dasharray:2,2;" x1="441.1104" x2="969.4404" y1="935.3594" y2="935.3594"/><text fill="#000000" font-family="Helvetica" font-size="10" x="453.1104" y="925.1807">(17)</text><text fill="#000000" font-family="Helvetica" font-size="10" font-weight="bold" x="477.6377" y="919.3604">[FRONT-CHANNEL]</text><text fill="#000000" font-family="Helvetica" font-size="10" x="585.7188" y="919.3604">Antwort:</text><text fill="#000000" font-family="Helvetica" font-size="10" x="477.6377" y="931.001">HTTP 302 Redirect zum IDP</text><path d="M975.4404,948.3594 L975.4404,969.3594 L1139.4404,969.3594 L1139.4404,958.3594 L1129.4404,948.3594 L975.4404,948.3594" fill="#FEFFDD" style="stroke:#181818;stroke-width:0.5;"/><path d="M1129.4404,948.3594 L1129.4404,958.3594 L1139.4404,958.3594 L1129.4404,948.3594" fill="#FEFFDD" style="stroke:#181818;stroke-width:0.5;"/><text fill="#000000" font-family="Helvetica" font-size="10" x="981.4404" y="962.6416">"Browser, redirect zum IDP!"</text><polygon fill="#181818" points="1492,1000.2813,1502,1004.2813,1492,1008.2813,1496,1004.2813" style="stroke:#181818;stroke-width:1;"/><line style="stroke:#181818;stroke-width:1;" x1="436.1104" x2="1498" y1="1004.2813" y2="1004.2813"/><text fill="#000000" font-family="Helvetica" font-size="10" x="443.1104" y="994.1025">(18)</text><text fill="#000000" font-family="Helvetica" font-size="10" font-weight="bold" x="467.6377" y="988.2822">[FRONT-CHANNEL]</text><text fill="#000000" font-family="Helvetica" font-size="10" x="575.7188" y="988.2822">Folgt dem</text><text fill="#000000" font-family="Helvetica" font-size="10" x="467.6377" y="999.9229">Redirect und ruft den IDP auf</text><polygon fill="#181818" points="447.1104,1037.5625,437.1104,1041.5625,447.1104,1045.5625,443.1104,1041.5625" style="stroke:#181818;stroke-width:1;"/><line style="stroke:#181818;stroke-width:1;stroke-dasharray:2,2;" x1="441.1104" x2="1503" y1="1041.5625" y2="1041.5625"/><text fill="#000000" font-family="Helvetica" font-size="10" x="453.1104" y="1031.3838">(19)</text><text fill="#000000" font-family="Helvetica" font-size="10" font-weight="bold" x="477.6377" y="1025.5635">[FRONT-CHANNEL]</text><text fill="#000000" font-family="Helvetica" font-size="10" x="477.6377" y="1037.2041">Zeigt "Warten"-Seite an</text><polygon fill="#181818" points="1694.5996,1086.4844,1704.5996,1090.4844,1694.5996,1094.4844,1698.5996,1090.4844" style="stroke:#181818;stroke-width:1;"/><line style="stroke:#181818;stroke-width:1;" x1="1504" x2="1700.5996" y1="1090.4844" y2="1090.4844"/><text fill="#000000" font-family="Helvetica" font-size="10" x="1511" y="1074.4854">(20)</text><text fill="#000000" font-family="Helvetica" font-size="10" font-weight="bold" x="1535.5273" y="1062.8447">[PUSH / BACK-CHANNEL]</text><text fill="#000000" font-family="Helvetica" font-size="10" x="1535.5273" y="1074.4854">Sendet Push-Benachrichtigung</text><text fill="#000000" font-family="Helvetica" font-size="10" x="1535.5273" y="1086.126">Auth erforderlich</text><polygon fill="#181818" points="1694.5996,1112.125,1704.5996,1116.125,1694.5996,1120.125,1698.5996,1116.125" style="stroke:#181818;stroke-width:1;"/><line style="stroke:#181818;stroke-width:1;" x1="24" x2="1700.5996" y1="1116.125" y2="1116.125"/><text fill="#000000" font-family="Helvetica" font-size="10" x="31" y="1111.7666">(21)</text><text fill="#000000" font-family="Helvetica" font-size="10" x="55.5273" y="1111.7666">Authentifizierung f&#252;r App auf Ger&#228;t B</text><polygon fill="#181818" points="1515,1149.4063,1505,1153.4063,1515,1157.4063,1511,1153.4063" style="stroke:#181818;stroke-width:1;"/><line style="stroke:#181818;stroke-width:1;stroke-dasharray:2,2;" x1="1509" x2="1705.5996" y1="1153.4063" y2="1153.4063"/><text fill="#000000" font-family="Helvetica" font-size="10" x="1521" y="1143.2275">(22)</text><text fill="#000000" font-family="Helvetica" font-size="10" font-weight="bold" x="1545.5273" y="1137.4072">[BACK-CHANNEL]</text><text fill="#000000" font-family="Helvetica" font-size="10" x="1545.5273" y="1149.0479">Meldet Erfolg an IDP Server</text><polygon fill="#181818" points="447.1104,1175.0469,437.1104,1179.0469,447.1104,1183.0469,443.1104,1179.0469" style="stroke:#181818;stroke-width:1;"/><line style="stroke:#181818;stroke-width:1;stroke-dasharray:2,2;" x1="441.1104" x2="1503" y1="1179.0469" y2="1179.0469"/><text fill="#000000" font-family="Helvetica" font-size="10" x="453.1104" y="1174.6885">(23)</text><text fill="#000000" font-family="Helvetica" font-size="10" font-weight="bold" x="477.6377" y="1174.6885">[FRONT-CHANNEL]</text><text fill="#000000" font-family="Helvetica" font-size="10" x="585.7188" y="1174.6885">Antwort: HTTP 302 Redirect</text><path d="M1509,1192.0469 L1509,1213.0469 L1742,1213.0469 L1742,1202.0469 L1732,1192.0469 L1509,1192.0469" fill="#FEFFDD" style="stroke:#181818;stroke-width:0.5;"/><path d="M1732,1192.0469 L1732,1202.0469 L1742,1202.0469 L1732,1192.0469" fill="#FEFFDD" style="stroke:#181818;stroke-width:0.5;"/><text fill="#000000" font-family="Helvetica" font-size="10" x="1515" y="1206.3291">Location: https://zeta-as/callback?code=...</text><polygon fill="#181818" points="958.4404,1243.9688,968.4404,1247.9688,958.4404,1251.9688,962.4404,1247.9688" style="stroke:#181818;stroke-width:1;"/><line style="stroke:#181818;stroke-width:1;" x1="436.1104" x2="964.4404" y1="1247.9688" y2="1247.9688"/><text fill="#000000" font-family="Helvetica" font-size="10" x="443.1104" y="1237.79">(24)</text><text fill="#000000" font-family="Helvetica" font-size="10" font-weight="bold" x="467.6377" y="1231.9697">[FRONT-CHANNEL]</text><text fill="#000000" font-family="Helvetica" font-size="10" x="575.7188" y="1231.9697">Folgt dem Redirect und ruft den AS auf,</text><text fill="#000000" font-family="Helvetica" font-size="10" x="467.6377" y="1243.6104">&#252;bermittelt so den</text><text fill="#000000" font-family="Helvetica" font-size="10" font-weight="bold" x="563.502" y="1243.6104">Auth-Code (f&#252;r AS)</text><polygon fill="#181818" points="1492,1281.25,1502,1285.25,1492,1289.25,1496,1285.25" style="stroke:#181818;stroke-width:1;"/><line style="stroke:#181818;stroke-width:1;" x1="970.4404" x2="1498" y1="1285.25" y2="1285.25"/><text fill="#000000" font-family="Helvetica" font-size="10" x="977.4404" y="1275.0713">(25)</text><text fill="#000000" font-family="Helvetica" font-size="10" font-weight="bold" x="1001.9678" y="1269.251">[BACK-CHANNEL]</text><text fill="#000000" font-family="Helvetica" font-size="10" x="1001.9678" y="1280.8916">Ruft /token Endpoint des IDP auf</text><polygon fill="#181818" points="981.4404,1306.8906,971.4404,1310.8906,981.4404,1314.8906,977.4404,1310.8906" style="stroke:#181818;stroke-width:1;"/><line style="stroke:#181818;stroke-width:1;stroke-dasharray:2,2;" x1="975.4404" x2="1503" y1="1310.8906" y2="1310.8906"/><text fill="#000000" font-family="Helvetica" font-size="10" x="987.4404" y="1306.5322">(26)</text><text fill="#000000" font-family="Helvetica" font-size="10" font-weight="bold" x="1011.9678" y="1306.5322">[BACK-CHANNEL]</text><text fill="#000000" font-family="Helvetica" font-size="10" x="1112.2754" y="1306.5322">Antwortet mit ID-Token</text><polygon fill="#181818" points="447.1104,1332.5313,437.1104,1336.5313,447.1104,1340.5313,443.1104,1336.5313" style="stroke:#181818;stroke-width:1;"/><line style="stroke:#181818;stroke-width:1;stroke-dasharray:2,2;" x1="441.1104" x2="969.4404" y1="1336.5313" y2="1336.5313"/><text fill="#000000" font-family="Helvetica" font-size="10" x="453.1104" y="1332.1729">(27)</text><text fill="#000000" font-family="Helvetica" font-size="10" font-weight="bold" x="477.6377" y="1332.1729">[FRONT-CHANNEL]</text><text fill="#000000" font-family="Helvetica" font-size="10" x="585.7188" y="1332.1729">Antwort: HTTP 302 Redirect</text><path d="M975.4404,1349.5313 L975.4404,1370.5313 L1191.4404,1370.5313 L1191.4404,1359.5313 L1181.4404,1349.5313 L975.4404,1349.5313" fill="#FEFFDD" style="stroke:#181818;stroke-width:0.5;"/><path d="M1181.4404,1349.5313 L1181.4404,1359.5313 L1191.4404,1359.5313 L1181.4404,1349.5313" fill="#FEFFDD" style="stroke:#181818;stroke-width:0.5;"/><text fill="#000000" font-family="Helvetica" font-size="10" x="981.4404" y="1363.8135">Location: https://app/callback?code=...</text><polygon fill="#181818" points="720.9141,1401.4531,730.9141,1405.4531,720.9141,1409.4531,724.9141,1405.4531" style="stroke:#181818;stroke-width:1;"/><line style="stroke:#181818;stroke-width:1;" x1="436.1104" x2="726.9141" y1="1405.4531" y2="1405.4531"/><text fill="#000000" font-family="Helvetica" font-size="10" x="443.1104" y="1395.2744">(28)</text><text fill="#000000" font-family="Helvetica" font-size="10" font-weight="bold" x="467.6377" y="1389.4541">[FRONT-CHANNEL]</text><text fill="#000000" font-family="Helvetica" font-size="10" x="575.7188" y="1389.4541">Folgt dem Redirect zur App,</text><text fill="#000000" font-family="Helvetica" font-size="10" x="467.6377" y="1401.0947">&#252;bermittelt so den</text><text fill="#000000" font-family="Helvetica" font-size="10" font-weight="bold" x="563.502" y="1401.0947">Auth-Code (f&#252;r SDK)</text><polygon fill="#181818" points="958.4404,1438.7344,968.4404,1442.7344,958.4404,1446.7344,962.4404,1442.7344" style="stroke:#181818;stroke-width:1;"/><line style="stroke:#181818;stroke-width:1;" x1="732.9141" x2="964.4404" y1="1442.7344" y2="1442.7344"/><text fill="#000000" font-family="Helvetica" font-size="10" x="739.9141" y="1432.5557">(29)</text><text fill="#000000" font-family="Helvetica" font-size="10" font-weight="bold" x="764.4414" y="1426.7354">[BACK-CHANNEL]</text><text fill="#000000" font-family="Helvetica" font-size="10" x="764.4414" y="1438.376">Ruft /token Endpoint des ZETA AS auf</text><polygon fill="#181818" points="743.9141,1476.0156,733.9141,1480.0156,743.9141,1484.0156,739.9141,1480.0156" style="stroke:#181818;stroke-width:1;"/><line style="stroke:#181818;stroke-width:1;stroke-dasharray:2,2;" x1="737.9141" x2="969.4404" y1="1480.0156" y2="1480.0156"/><text fill="#000000" font-family="Helvetica" font-size="10" x="749.9141" y="1469.8369">(30)</text><text fill="#000000" font-family="Helvetica" font-size="10" font-weight="bold" x="774.4414" y="1464.0166">[BACK-CHANNEL]</text><text fill="#000000" font-family="Helvetica" font-size="10" x="774.4414" y="1475.6572">Antwortet mit finalem Access Token</text><path d="M716.9141,1506.0156 L1103.0469,1506.0156 L1103.0469,1509.6563 L1093.0469,1519.6563 L716.9141,1519.6563 L716.9141,1506.0156" fill="#EEEEEE" style="stroke:#000000;stroke-width:1.5;"/><rect fill="none" height="248.6875" style="stroke:#000000;stroke-width:1.5;" width="678.4072" x="716.9141" y="1506.0156"/><text fill="#000000" font-family="Helvetica" font-size="10" font-weight="bold" x="731.9141" y="1516.2979">Phase 3: Autorisierter Zugriff auf den PoPP Resource Server</text><polygon fill="#181818" points="1159.5898,1566.5781,1169.5898,1570.5781,1159.5898,1574.5781,1163.5898,1570.5781" style="stroke:#181818;stroke-width:1;"/><line style="stroke:#181818;stroke-width:1;" x1="732.9141" x2="1165.5898" y1="1570.5781" y2="1570.5781"/><text fill="#000000" font-family="Helvetica" font-size="10" x="739.9141" y="1554.5791">(31)</text><text fill="#000000" font-family="Helvetica" font-size="10" x="764.4414" y="1542.9385">Ruft HTTP-Proxy mit</text><text fill="#000000" font-family="Helvetica" font-size="10" x="764.4414" y="1554.5791">urspr&#252;nglichem HTTP-Request</text><text fill="#000000" font-family="Helvetica" font-size="10" x="764.4414" y="1566.2197">und Access Token auf</text><polygon fill="#181818" points="981.4404,1603.8594,971.4404,1607.8594,981.4404,1611.8594,977.4404,1607.8594" style="stroke:#181818;stroke-width:1;"/><line style="stroke:#181818;stroke-width:1;" x1="975.4404" x2="1170.5898" y1="1607.8594" y2="1607.8594"/><text fill="#000000" font-family="Helvetica" font-size="10" x="987.4404" y="1597.6807">(32)</text><text fill="#000000" font-family="Helvetica" font-size="10" x="1011.9678" y="1591.8604">L&#228;dt PoPP-Metainformationen</text><text fill="#000000" font-family="Helvetica" font-size="10" x="1011.9678" y="1603.501">zum Access Token</text><line style="stroke:#181818;stroke-width:1;" x1="1171.5898" x2="1213.5898" y1="1645.1406" y2="1645.1406"/><line style="stroke:#181818;stroke-width:1;" x1="1213.5898" x2="1213.5898" y1="1645.1406" y2="1658.1406"/><line style="stroke:#181818;stroke-width:1;" x1="1172.5898" x2="1213.5898" y1="1658.1406" y2="1658.1406"/><polygon fill="#181818" points="1182.5898,1654.1406,1172.5898,1658.1406,1182.5898,1662.1406,1178.5898,1658.1406" style="stroke:#181818;stroke-width:1;"/><text fill="#000000" font-family="Helvetica" font-size="10" x="1178.5898" y="1634.9619">(33)</text><text fill="#000000" font-family="Helvetica" font-size="10" x="1203.1172" y="1629.1416">Reichert HTTP-Request</text><text fill="#000000" font-family="Helvetica" font-size="10" x="1203.1172" y="1640.7822">mit Metadaten an</text><polygon fill="#181818" points="1367.3213,1691.4219,1377.3213,1695.4219,1367.3213,1699.4219,1371.3213,1695.4219" style="stroke:#181818;stroke-width:1;"/><line style="stroke:#181818;stroke-width:1;" x1="1171.5898" x2="1373.3213" y1="1695.4219" y2="1695.4219"/><text fill="#000000" font-family="Helvetica" font-size="10" x="1178.5898" y="1685.2432">(34)</text><text fill="#000000" font-family="Helvetica" font-size="10" x="1203.1172" y="1679.4229">Sendet angereicherten Request</text><text fill="#000000" font-family="Helvetica" font-size="10" x="1203.1172" y="1691.0635">an PoPP Resource Server</text><polygon fill="#181818" points="1182.5898,1717.0625,1172.5898,1721.0625,1182.5898,1725.0625,1178.5898,1721.0625" style="stroke:#181818;stroke-width:1;"/><line style="stroke:#181818;stroke-width:1;stroke-dasharray:2,2;" x1="1176.5898" x2="1378.3213" y1="1721.0625" y2="1721.0625"/><text fill="#000000" font-family="Helvetica" font-size="10" x="1188.5898" y="1716.7041">(35)</text><text fill="#000000" font-family="Helvetica" font-size="10" x="1213.1172" y="1716.7041">Antwortet mit dem Ergebnis</text><polygon fill="#181818" points="743.9141,1742.7031,733.9141,1746.7031,743.9141,1750.7031,739.9141,1746.7031" style="stroke:#181818;stroke-width:1;"/><line style="stroke:#181818;stroke-width:1;stroke-dasharray:2,2;" x1="737.9141" x2="1170.5898" y1="1746.7031" y2="1746.7031"/><text fill="#000000" font-family="Helvetica" font-size="10" x="749.9141" y="1742.3447">(36)</text><text fill="#000000" font-family="Helvetica" font-size="10" x="774.4414" y="1742.3447">Leitet die Response weiter</text><path d="M8,1772.7031 L321.7744,1772.7031 L321.7744,1776.3438 L311.7744,1786.3438 L8,1786.3438 L8,1772.7031" fill="#EEEEEE" style="stroke:#000000;stroke-width:1.5;"/><rect fill="none" height="135.4844" style="stroke:#000000;stroke-width:1.5;" width="740.9141" x="8" y="1772.7031"/><text fill="#000000" font-family="Helvetica" font-size="10" font-weight="bold" x="23" y="1782.9854">Phase 4: Ergebnisverarbeitung und Darstellung</text><polygon fill="#181818" points="274.2568,1821.625,264.2568,1825.625,274.2568,1829.625,270.2568,1825.625" style="stroke:#181818;stroke-width:1;"/><line style="stroke:#181818;stroke-width:1;" x1="268.2568" x2="731.9141" y1="1825.625" y2="1825.625"/><text fill="#000000" font-family="Helvetica" font-size="10" x="280.2568" y="1815.4463">(37)</text><text fill="#000000" font-family="Helvetica" font-size="10" x="304.7842" y="1809.626">Ruft callBackMethod</text><text fill="#000000" font-family="Helvetica" font-size="10" x="304.7842" y="1821.2666">mit der HTTP-Response auf</text><polygon fill="#181818" points="152.9951,1858.9063,142.9951,1862.9063,152.9951,1866.9063,148.9951,1862.9063" style="stroke:#181818;stroke-width:1;"/><line style="stroke:#181818;stroke-width:1;" x1="146.9951" x2="262.2568" y1="1862.9063" y2="1862.9063"/><text fill="#000000" font-family="Helvetica" font-size="10" x="158.9951" y="1852.7275">(38)</text><text fill="#000000" font-family="Helvetica" font-size="10" x="183.5225" y="1846.9072">Wertet die</text><text fill="#000000" font-family="Helvetica" font-size="10" x="183.5225" y="1858.5479">Antwort aus</text><polygon fill="#181818" points="35,1896.1875,25,1900.1875,35,1904.1875,31,1900.1875" style="stroke:#181818;stroke-width:1;"/><line style="stroke:#181818;stroke-width:1;" x1="29" x2="140.9951" y1="1900.1875" y2="1900.1875"/><text fill="#000000" font-family="Helvetica" font-size="10" x="41" y="1890.0088">(39)</text><text fill="#000000" font-family="Helvetica" font-size="10" x="65.5273" y="1884.1885">Stellt das</text><text fill="#000000" font-family="Helvetica" font-size="10" x="65.5273" y="1895.8291">Ergebnis dar</text><!--SRC=[dLVTRjlA4RxNKypn0H9PC6t7AGfKGC-1BFaFyOygAWcQgZXOaKDfQsgfBfTsxEi-GwyAzEOyXk_qOftP9IbIb0mtkGXbScPsvfjlVbPa9b7POeeQzjh7n_jxhVHUggNGOW4XHYABpNcYZ2-V4JuSR_zuAnO8bnW_e961gCWCdCnDef9qAG8CI-b-acc9kY8RevgPUI_yHvOQK8d2ohSK_vcX2d244Mh-SIg2-vbECXNsapZHy7KkJLN1trHOnt3IQlsqr6As460mUGQZCsorZ3GnmWMcOc74D1PPr8LXCXnwu-GU5VIcEejW8GryEnltm1zyWdSmx8sWFJhlmvy-dFnnlzNg1OPS-PnIMDFaE-pnBuBWGGO8lJtu-MAUfCPv2c0bUiiblRyM3wX2qWBwH_uJY78fbA7lQYhHeFQie4Y1daqfw-TD4cQnbU4_cqAdEdbaVuxWAqw_I7oqildRdfMtBjdu-h54PSWrNwZmYOMKbTYmoR8UOM5DqTFAK2XigRN-LJmTAaLCP7ryrh-ylRk-k_XhgthwHIPqs3oyZancvecMpyB8H56wzGFgYMfpxFlm3Oqeh31eVbF_SZmUUaETV7_QfMK_jghnE1_7Lt1oU0m3GeY8-lD0w7iVnOL6B33QaXuOOKgC9o8uL-q98xy6M1scgy5map8RTdsy9xw9c99gXSaYFJVCL3bu-cCS9AI935JOT9h3azuu8ZPSVm-Uvy5mBbA4usxE8mf-9bEZNQxUGSyOJ8txgurIBKGiP_kisUAQNhwkt-Ogh9ZOjovpHNg_yADBLQoGcuk10M7l-S4yNhsaASPB8NH3-ZpH8SjMlVBfYGiwUg8UaWNS-T3kgL0dCZoIT_u-29TgbHW4BMTpqmLVH6YURj4S3MFn15VAu4nByrHgxayKWPOV0sssK_MbvtUBECdrJCrIeI9gKyXTXrItUqSDq0O9msmQom0-uPCrslCBcry8YaW-ovqXbl8583rb7XDjqDX-r-a4DWc_oR3JMKSTOsGWYN8DYajoryuKY3W58ZXbYnfm-hXwqQ6SSMtckPoYNF1nkepL739_MdNoVEWIXD98eaRgy6ZmOui8m_4bqJJCK1fwOVsr9S1eB9TT3jk6rhjd55piv3rzvZ9jM9oezH2OACRZ-kpA6r2da77Qikgsl0li9Actp_yokANnw3gnnmLFrLT9zgx3G4ndc19R4oAhgbjt2cjcs_uruYcN4WtQOunnGOczzwu61u0cEDn_LLqibtaGf4nTWzAN0ata0rlStWrITmt9PvkOQbvEkb0q1CSgzliTM82yK_PUHD6sR97YtTMWlqMRa-QcR4M_2Ir-no0psAv6VZ1HWOXZtWQSomULo1m2zZ-E05R_obR_9MPeE8-JHoBYJ2eY9FbPASDY87PXzUyeKWYVHzSG4OlTuCz7II5L55cdyxVpqTtjsEjVzcvlpwx_tkbCrCNP68v4FgVmLxkOf8U7XnjkNIcrTkfHwX0U2WPZwPshPqgKFUkqr_zKEGg6TpuTHGT0UvYbSmoXFXvpj1mWd6rlxVUchRpwRUrhf_SR4QErTfXAY5gTGRLw8JTdOeh0JP9SVCuMrlo350L4rG1gy6w1h3YxEr6SPFXuV4AkXr9ZO0hR6tsNMn07Kgmt1-HpNU6dlLOZPGME3GVEatXcg7GN4rKUpFIavOzVAniTxOORAUGEut77ryAs5R38b0ev10Nmhs8mKTzGaWzxNxbFgJrg7yI3Ok1O4xyK0zWQ67xsBscfsqZZHFaypWqm7wWkbGZcMWPp8sUsgx45G1tPsKU3Orxlb8NzPh7QKk2EIIXGFz6htmsSkWmx9HlY3g9Er0t6xDKPdHnJltFuk9Le0zCTB6FvvqolNe9xcs7YrHQslTyWUHFbGi4MdDqekE_rgUbHGtH1qfpFJoWuXQ6pNkUV3RP9m8bYxRnh40lVJ86o3A1H1LlORq-_JW9RwLsO6xDCkqT7pzG3FP4USNkSKdlyDQ3G_bnqdpVqhtKjmFPI85o80zI1RO88GeEnWJIn7pkT4ayeuQJzuRMsLvj-RsfyLANipP6nq-DCXSj4AcD7RxLGtzRnydtdQk2cVMlduDZjxFlg6lM3j2DTvfqhijU9jxFnMUMSScvuh_xJQDL53RcJl1_fqsyYA7lPv2UDwJTmSnUGsyYPH_9cGZBG1IChE_Z_nRAykakcRUI_OQXEjKWgkhrHEe80QVroj6jiN1-xy2sZgqGKsPuRIWHBlTMBUIQSwMAPtomtDwwFjd_J5i3h9SsckXaAPTl5j0g7lG7JhOIZNz-NtNqaq-cI6AHcF3meXle-oesY6bK9aBEGGtsz-ZqqRac-uPLDqJXQM9xmicrxRnMPcdxX6_BnZNsOqMMJ8TrnL34yIzqHdPsFHw5cl6bP6rWkIXCbNa5dv9ASUr1FAJFoJCzmgcHQFRGWnRNRwZY9P7gPAChJ8x_JpSJ_eLkQegC5xOJsJjF8youvUpSKEgKoY8kDkiYilGxOnDRtPmSTxGG5eBcFPVxoZTnk1rzHvy6Kp2R1j7gfues2Brta0WaAkcqKhj9VBkR_0G00]--></g></svg>