<svg xmlns="http://www.w3.org/2000/svg" xmlns:xlink="http://www.w3.org/1999/xlink" contentStyleType="text/css" data-diagram-type="SEQUENCE" height="1728px" preserveAspectRatio="none" style="width:1765px;height:1728px;background:#FFFFFF;" version="1.1" viewBox="0 0 1765 1728" width="1765px" zoomAndPan="magnify"><title>Gesamtablauf: PoPP-Token Abruf mit ZETA SDK &amp; PAR (RFC 9126)</title><defs/><g><rect fill="#F8F8FF" height="1679.4844" style="stroke:#181818;stroke-width:0.5;" width="679.312" x="98.1021" y="43.2969"/><text fill="#000000" font-family="Helvetica" font-size="10" font-weight="bold" x="398.6443" y="52.5791">User Device A</text><rect fill="#E6E6FA" height="1662.8438" style="stroke:#181818;stroke-width:0.5;" width="679.312" x="98.1021" y="59.9375"/><text fill="#000000" font-family="Helvetica" font-size="10" font-weight="bold" x="426.7302" y="69.2197">App</text><rect fill="#F4A460" height="1646.2031" style="stroke:#181818;stroke-width:0.5;" width="89" x="688.4141" y="76.5781"/><text fill="#000000" font-family="Helvetica" font-size="10" font-weight="bold" x="700.4141" y="85.8604">ZETA Client</text><rect fill="#C9FFC9" height="1679.4844" style="stroke:#181818;stroke-width:0.5;" width="532.8511" x="907.9658" y="43.2969"/><text fill="#000000" font-family="Helvetica" font-size="10" font-weight="bold" x="1150.031" y="52.5791">Anbieter</text><rect fill="#F4A460" height="1662.8438" style="stroke:#181818;stroke-width:0.5;" width="316.2231" x="907.9658" y="59.9375"/><text fill="#000000" font-family="Helvetica" font-size="10" font-weight="bold" x="1032.9329" y="69.2197">ZETA Guard</text><rect fill="#8FBC8F" height="1662.8438" style="stroke:#181818;stroke-width:0.5;" width="131.8877" x="1308.9292" y="59.9375"/><text fill="#000000" font-family="Helvetica" font-size="10" font-weight="bold" x="1337.3413" y="69.2197">TI 2.0 Dienst</text><rect fill="#F8F8FF" height="1679.4844" style="stroke:#181818;stroke-width:0.5;" width="93.4697" x="1452.8169" y="43.2969"/><text fill="#000000" font-family="Helvetica" font-size="10" font-weight="bold" x="1489.8765" y="52.5791">IDP</text><rect fill="#F8F8FF" height="1679.4844" style="stroke:#181818;stroke-width:0.5;" width="102.1104" x="1651.0962" y="43.2969"/><text fill="#000000" font-family="Helvetica" font-size="10" font-weight="bold" x="1663.0962" y="52.5791">User Device B</text><rect fill="#E6E6FA" height="1662.8438" style="stroke:#181818;stroke-width:0.5;" width="102.1104" x="1651.0962" y="59.9375"/><text fill="#000000" font-family="Helvetica" font-size="10" font-weight="bold" x="1691.1235" y="69.2197">App</text><text fill="#000000" font-family="Helvetica" font-size="14" font-weight="bold" x="629.6118" y="27.9951">Gesamtablauf: PoPP-Token Abruf mit ZETA SDK &amp; PAR (RFC 9126)</text><g><title>User</title><rect fill="#000000" fill-opacity="0.00000" height="1481.2813" width="8" x="20.5" y="163.8594"/><line style="stroke:#181818;stroke-width:0.5;stroke-dasharray:5,5;" x1="24" x2="24" y1="163.8594" y2="1645.1406"/></g><g><title>Anbieter-App</title><rect fill="#000000" fill-opacity="0.00000" height="1481.2813" width="8" x="138.4951" y="163.8594"/><line style="stroke:#181818;stroke-width:0.5;stroke-dasharray:5,5;" x1="141.9951" x2="141.9951" y1="163.8594" y2="1645.1406"/></g><g><title>PoPP-Modul</title><rect fill="#000000" fill-opacity="0.00000" height="1481.2813" width="8" x="259.7568" y="163.8594"/><line style="stroke:#181818;stroke-width:0.5;stroke-dasharray:5,5;" x1="263.2568" x2="263.2568" y1="163.8594" y2="1645.1406"/></g><g><title>Browser . WebView</title><rect fill="#000000" fill-opacity="0.00000" height="1481.2813" width="8" x="432.6104" y="163.8594"/><line style="stroke:#181818;stroke-width:0.5;stroke-dasharray:5,5;" x1="436.1104" x2="436.1104" y1="163.8594" y2="1645.1406"/></g><g><title>ZETA-SDK</title><rect fill="#000000" fill-opacity="0.00000" height="1481.2813" width="8" x="729.4141" y="163.8594"/><line style="stroke:#181818;stroke-width:0.5;stroke-dasharray:5,5;" x1="732.9141" x2="732.9141" y1="163.8594" y2="1645.1406"/></g><g><title>Authorization Server</title><rect fill="#000000" fill-opacity="0.00000" height="1481.2813" width="8" x="966.9404" y="163.8594"/><line style="stroke:#181818;stroke-width:0.5;stroke-dasharray:5,5;" x1="970.4404" x2="970.4404" y1="163.8594" y2="1645.1406"/></g><g><title>HTTP-Proxy</title><rect fill="#000000" fill-opacity="0.00000" height="1481.2813" width="8" x="1163.6416" y="163.8594"/><line style="stroke:#181818;stroke-width:0.5;stroke-dasharray:5,5;" x1="1167.1416" x2="1167.1416" y1="163.8594" y2="1645.1406"/></g><g><title>PoPP Resource Server</title><rect fill="#000000" fill-opacity="0.00000" height="1481.2813" width="8" x="1371.373" y="163.8594"/><line style="stroke:#181818;stroke-width:0.5;stroke-dasharray:5,5;" x1="1374.873" x2="1374.873" y1="163.8594" y2="1645.1406"/></g><g><title>Sektoraler IDP</title><rect fill="#000000" fill-opacity="0.00000" height="1481.2813" width="8" x="1496.0518" y="163.8594"/><line style="stroke:#181818;stroke-width:0.5;stroke-dasharray:5,5;" x1="1499.5518" x2="1499.5518" y1="163.8594" y2="1645.1406"/></g><g><title>Authenticator</title><rect fill="#000000" fill-opacity="0.00000" height="1481.2813" width="8" x="1698.6514" y="163.8594"/><line style="stroke:#181818;stroke-width:0.5;stroke-dasharray:5,5;" x1="1702.1514" x2="1702.1514" y1="163.8594" y2="1645.1406"/></g><text fill="#000000" font-family="Helvetica" font-size="10" x="9.6035" y="161.501">User</text><ellipse cx="24" cy="100.7188" fill="#E2E2F0" rx="8" ry="8" style="stroke:#181818;stroke-width:0.5;"/><path d="M24,108.7188 L24,135.7188 M11,116.7188 L37,116.7188 M24,135.7188 L11,150.7188 M24,135.7188 L37,150.7188" fill="none" style="stroke:#181818;stroke-width:0.5;"/><rect fill="#E2E2F0" height="25.6406" rx="2.5" ry="2.5" style="stroke:#181818;stroke-width:0.5;" width="79.7861" x="102.1021" y="137.2188"/><text fill="#000000" font-family="Helvetica" font-size="10" x="109.1021" y="153.501">Anbieter-App</text><rect fill="#E2E2F0" height="25.6406" rx="2.5" ry="2.5" style="stroke:#181818;stroke-width:0.5;" width="72.0273" x="227.2432" y="137.2188"/><text fill="#000000" font-family="Helvetica" font-size="10" x="234.2432" y="153.501">PoPP-Modul</text><rect fill="#E2E2F0" height="25.6406" rx="2.5" ry="2.5" style="stroke:#181818;stroke-width:0.5;" width="110.8066" x="380.707" y="137.2188"/><text fill="#000000" font-family="Helvetica" font-size="10" x="387.707" y="153.501">Browser / WebView</text><rect fill="#E2E2F0" height="25.6406" rx="2.5" ry="2.5" style="stroke:#181818;stroke-width:0.5;" width="64.332" x="700.748" y="137.2188"/><text fill="#000000" font-family="Helvetica" font-size="10" x="707.748" y="153.501">ZETA-SDK</text><rect fill="#E2E2F0" height="37.2813" rx="2.5" ry="2.5" style="stroke:#181818;stroke-width:0.5;" width="116.9492" x="911.9658" y="125.5781"/><text fill="#000000" font-family="Helvetica" font-size="10" x="918.9658" y="141.8604">Authorization Server</text><text fill="#000000" font-family="Helvetica" font-size="10" x="924.3931" y="153.501">(PoPP) Zeta Guard</text><rect fill="#E2E2F0" height="37.2813" rx="2.5" ry="2.5" style="stroke:#181818;stroke-width:0.5;" width="106.0947" x="1114.0942" y="125.5781"/><text fill="#000000" font-family="Helvetica" font-size="10" x="1138.4063" y="141.8604">HTTP-Proxy</text><text fill="#000000" font-family="Helvetica" font-size="10" x="1121.0942" y="153.501">(PoPP) Zeta Guard</text><rect fill="#E2E2F0" height="25.6406" rx="2.5" ry="2.5" style="stroke:#181818;stroke-width:0.5;" width="123.8877" x="1312.9292" y="137.2188"/><text fill="#000000" font-family="Helvetica" font-size="10" x="1319.9292" y="153.501">PoPP Resource Server</text><rect fill="#E2E2F0" height="25.6406" rx="2.5" ry="2.5" style="stroke:#181818;stroke-width:0.5;" width="85.4697" x="1456.8169" y="137.2188"/><text fill="#000000" font-family="Helvetica" font-size="10" x="1463.8169" y="153.501">Sektoraler IDP</text><rect fill="#E2E2F0" height="25.6406" rx="2.5" ry="2.5" style="stroke:#181818;stroke-width:0.5;" width="82.4033" x="1660.9497" y="137.2188"/><text fill="#000000" font-family="Helvetica" font-size="10" x="1667.9497" y="153.501">Authenticator</text><text fill="#000000" font-family="Helvetica" font-size="10" x="9.6035" y="1714.4229">User</text><ellipse cx="24" cy="1653.6406" fill="#E2E2F0" rx="8" ry="8" style="stroke:#181818;stroke-width:0.5;"/><path d="M24,1661.6406 L24,1688.6406 M11,1669.6406 L37,1669.6406 M24,1688.6406 L11,1703.6406 M24,1688.6406 L37,1703.6406" fill="none" style="stroke:#181818;stroke-width:0.5;"/><rect fill="#E2E2F0" height="25.6406" rx="2.5" ry="2.5" style="stroke:#181818;stroke-width:0.5;" width="79.7861" x="102.1021" y="1645.1406"/><text fill="#000000" font-family="Helvetica" font-size="10" x="109.1021" y="1661.4229">Anbieter-App</text><rect fill="#E2E2F0" height="25.6406" rx="2.5" ry="2.5" style="stroke:#181818;stroke-width:0.5;" width="72.0273" x="227.2432" y="1645.1406"/><text fill="#000000" font-family="Helvetica" font-size="10" x="234.2432" y="1661.4229">PoPP-Modul</text><rect fill="#E2E2F0" height="25.6406" rx="2.5" ry="2.5" style="stroke:#181818;stroke-width:0.5;" width="110.8066" x="380.707" y="1645.1406"/><text fill="#000000" font-family="Helvetica" font-size="10" x="387.707" y="1661.4229">Browser / WebView</text><rect fill="#E2E2F0" height="25.6406" rx="2.5" ry="2.5" style="stroke:#181818;stroke-width:0.5;" width="64.332" x="700.748" y="1645.1406"/><text fill="#000000" font-family="Helvetica" font-size="10" x="707.748" y="1661.4229">ZETA-SDK</text><rect fill="#E2E2F0" height="37.2813" rx="2.5" ry="2.5" style="stroke:#181818;stroke-width:0.5;" width="116.9492" x="911.9658" y="1645.1406"/><text fill="#000000" font-family="Helvetica" font-size="10" x="918.9658" y="1661.4229">Authorization Server</text><text fill="#000000" font-family="Helvetica" font-size="10" x="924.3931" y="1673.0635">(PoPP) Zeta Guard</text><rect fill="#E2E2F0" height="37.2813" rx="2.5" ry="2.5" style="stroke:#181818;stroke-width:0.5;" width="106.0947" x="1114.0942" y="1645.1406"/><text fill="#000000" font-family="Helvetica" font-size="10" x="1138.4063" y="1661.4229">HTTP-Proxy</text><text fill="#000000" font-family="Helvetica" font-size="10" x="1121.0942" y="1673.0635">(PoPP) Zeta Guard</text><rect fill="#E2E2F0" height="25.6406" rx="2.5" ry="2.5" style="stroke:#181818;stroke-width:0.5;" width="123.8877" x="1312.9292" y="1645.1406"/><text fill="#000000" font-family="Helvetica" font-size="10" x="1319.9292" y="1661.4229">PoPP Resource Server</text><rect fill="#E2E2F0" height="25.6406" rx="2.5" ry="2.5" style="stroke:#181818;stroke-width:0.5;" width="85.4697" x="1456.8169" y="1645.1406"/><text fill="#000000" font-family="Helvetica" font-size="10" x="1463.8169" y="1661.4229">Sektoraler IDP</text><rect fill="#E2E2F0" height="25.6406" rx="2.5" ry="2.5" style="stroke:#181818;stroke-width:0.5;" width="82.4033" x="1660.9497" y="1645.1406"/><text fill="#000000" font-family="Helvetica" font-size="10" x="1667.9497" y="1661.4229">Authenticator</text><path d="M8,175.8594 L286.5791,175.8594 L286.5791,179.5 L276.5791,189.5 L8,189.5 L8,175.8594" fill="#EEEEEE" style="stroke:#000000;stroke-width:1.5;"/><rect fill="none" height="250.0469" style="stroke:#000000;stroke-width:1.5;" width="740.9141" x="8" y="175.8594"/><text fill="#000000" font-family="Helvetica" font-size="10" font-weight="bold" x="23" y="186.1416">Phase 1: Initialisierung und Vorbereitung</text><polygon fill="#181818" points="129.9951,213.1406,139.9951,217.1406,129.9951,221.1406,133.9951,217.1406" style="stroke:#181818;stroke-width:1;"/><line style="stroke:#181818;stroke-width:1;" x1="24" x2="135.9951" y1="217.1406" y2="217.1406"/><text fill="#000000" font-family="Helvetica" font-size="10" x="31" y="212.7822">(01)</text><text fill="#000000" font-family="Helvetica" font-size="10" x="55.5273" y="212.7822">Startet Aktion</text><polygon fill="#181818" points="251.2568,262.0625,261.2568,266.0625,251.2568,270.0625,255.2568,266.0625" style="stroke:#181818;stroke-width:1;"/><line style="stroke:#181818;stroke-width:1;" x1="141.9951" x2="257.2568" y1="266.0625" y2="266.0625"/><text fill="#000000" font-family="Helvetica" font-size="10" x="148.9951" y="250.0635">(02)</text><text fill="#000000" font-family="Helvetica" font-size="10" x="173.5225" y="238.4229">Initialisierung</text><text fill="#000000" font-family="Helvetica" font-size="10" x="173.5225" y="250.0635">PoPP-Token</text><text fill="#000000" font-family="Helvetica" font-size="10" x="173.5225" y="261.7041">mit LEI-Details</text><polygon fill="#181818" points="720.9141,287.7031,730.9141,291.7031,720.9141,295.7031,724.9141,291.7031" style="stroke:#181818;stroke-width:1;"/><line style="stroke:#181818;stroke-width:1;" x1="263.2568" x2="726.9141" y1="291.7031" y2="291.7031"/><text fill="#000000" font-family="Helvetica" font-size="10" x="270.2568" y="287.3447">(03)</text><text fill="#000000" font-family="Helvetica" font-size="10" x="294.7842" y="287.3447">init(FQDN des PoPP-Service)</text><polygon fill="#181818" points="274.2568,313.3438,264.2568,317.3438,274.2568,321.3438,270.2568,317.3438" style="stroke:#181818;stroke-width:1;"/><line style="stroke:#181818;stroke-width:1;stroke-dasharray:2,2;" x1="268.2568" x2="731.9141" y1="317.3438" y2="317.3438"/><text fill="#000000" font-family="Helvetica" font-size="10" x="280.2568" y="312.9854">(04)</text><text fill="#000000" font-family="Helvetica" font-size="10" x="304.7842" y="312.9854">Initialisierung abgeschlossen</text><line style="stroke:#181818;stroke-width:1;" x1="263.2568" x2="305.2568" y1="354.625" y2="354.625"/><line style="stroke:#181818;stroke-width:1;" x1="305.2568" x2="305.2568" y1="354.625" y2="367.625"/><line style="stroke:#181818;stroke-width:1;" x1="264.2568" x2="305.2568" y1="367.625" y2="367.625"/><polygon fill="#181818" points="274.2568,363.625,264.2568,367.625,274.2568,371.625,270.2568,367.625" style="stroke:#181818;stroke-width:1;"/><text fill="#000000" font-family="Helvetica" font-size="10" x="270.2568" y="344.4463">(05)</text><text fill="#000000" font-family="Helvetica" font-size="10" x="294.7842" y="338.626">Generiert HTTP-Request</text><text fill="#000000" font-family="Helvetica" font-size="10" x="294.7842" y="350.2666">(Telematik-ID, etc.)</text><line style="stroke:#181818;stroke-width:1;" x1="263.2568" x2="305.2568" y1="404.9063" y2="404.9063"/><line style="stroke:#181818;stroke-width:1;" x1="305.2568" x2="305.2568" y1="404.9063" y2="417.9063"/><line style="stroke:#181818;stroke-width:1;" x1="264.2568" x2="305.2568" y1="417.9063" y2="417.9063"/><polygon fill="#181818" points="274.2568,413.9063,264.2568,417.9063,274.2568,421.9063,270.2568,417.9063" style="stroke:#181818;stroke-width:1;"/><text fill="#000000" font-family="Helvetica" font-size="10" x="270.2568" y="394.7275">(06)</text><text fill="#000000" font-family="Helvetica" font-size="10" x="294.7842" y="388.9072">Generiert appDetails</text><text fill="#000000" font-family="Helvetica" font-size="10" x="294.7842" y="400.5479">(IDP iss uri, Auth-Methode)</text><path d="M8,443.9063 L371.5303,443.9063 L371.5303,447.5469 L361.5303,457.5469 L8,457.5469 L8,443.9063" fill="#EEEEEE" style="stroke:#000000;stroke-width:1.5;"/><rect fill="none" height="757.0625" style="stroke:#000000;stroke-width:1.5;" width="1751.4668" x="8" y="443.9063"/><text fill="#000000" font-family="Helvetica" font-size="10" font-weight="bold" x="23" y="454.1885">Phase 2: OIDC Authentifizierung und Token Beschaffung</text><polygon fill="#181818" points="720.9141,492.8281,730.9141,496.8281,720.9141,500.8281,724.9141,496.8281" style="stroke:#181818;stroke-width:1;"/><line style="stroke:#181818;stroke-width:1;" x1="263.2568" x2="726.9141" y1="496.8281" y2="496.8281"/><text fill="#000000" font-family="Helvetica" font-size="10" x="270.2568" y="486.6494">(07)</text><text fill="#000000" font-family="Helvetica" font-size="10" x="294.7842" y="480.8291">execute(HTTP-Request,</text><text fill="#000000" font-family="Helvetica" font-size="10" x="294.7842" y="492.4697">callBackMethod, appDetails)</text><polygon fill="#181818" points="447.1104,518.4688,437.1104,522.4688,447.1104,526.4688,443.1104,522.4688" style="stroke:#181818;stroke-width:1;"/><line style="stroke:#181818;stroke-width:1;" x1="441.1104" x2="731.9141" y1="522.4688" y2="522.4688"/><text fill="#000000" font-family="Helvetica" font-size="10" x="453.1104" y="518.1104">(08)</text><text fill="#000000" font-family="Helvetica" font-size="10" x="477.6377" y="518.1104">&#214;ffne URL f&#252;r ZETA AS</text><polygon fill="#181818" points="958.4404,555.75,968.4404,559.75,958.4404,563.75,962.4404,559.75" style="stroke:#181818;stroke-width:1;"/><line style="stroke:#181818;stroke-width:1;" x1="436.1104" x2="964.4404" y1="559.75" y2="559.75"/><text fill="#000000" font-family="Helvetica" font-size="10" x="443.1104" y="549.5713">(09)</text><text fill="#000000" font-family="Helvetica" font-size="10" font-weight="bold" x="467.6377" y="543.751">[FRONT-CHANNEL]</text><text fill="#000000" font-family="Helvetica" font-size="10" x="467.6377" y="555.3916">GET /authorize?params...</text><polygon fill="#181818" points="1487.5518,581.3906,1497.5518,585.3906,1487.5518,589.3906,1491.5518,585.3906" style="stroke:#181818;stroke-width:1;"/><line style="stroke:#181818;stroke-width:1;" x1="970.4404" x2="1493.5518" y1="585.3906" y2="585.3906"/><text fill="#000000" font-family="Helvetica" font-size="10" x="977.4404" y="581.0322">(10)</text><text fill="#000000" font-family="Helvetica" font-size="10" font-weight="bold" x="1001.9678" y="581.0322">[BACK-CHANNEL]</text><text fill="#000000" font-family="Helvetica" font-size="10" x="1102.2754" y="581.0322">POST /par (Pushed Authorization Request)</text><polygon fill="#181818" points="981.4404,607.0313,971.4404,611.0313,981.4404,615.0313,977.4404,611.0313" style="stroke:#181818;stroke-width:1;"/><line style="stroke:#181818;stroke-width:1;stroke-dasharray:2,2;" x1="975.4404" x2="1498.5518" y1="611.0313" y2="611.0313"/><text fill="#000000" font-family="Helvetica" font-size="10" x="987.4404" y="606.6729">(11)</text><text fill="#000000" font-family="Helvetica" font-size="10" font-weight="bold" x="1011.9678" y="606.6729">[BACK-CHANNEL]</text><text fill="#000000" font-family="Helvetica" font-size="10" x="1112.2754" y="606.6729">Antwort mit request_uri</text><polygon fill="#181818" points="447.1104,644.3125,437.1104,648.3125,447.1104,652.3125,443.1104,648.3125" style="stroke:#181818;stroke-width:1;"/><line style="stroke:#181818;stroke-width:1;stroke-dasharray:2,2;" x1="441.1104" x2="969.4404" y1="648.3125" y2="648.3125"/><text fill="#000000" font-family="Helvetica" font-size="10" x="453.1104" y="638.1338">(12)</text><text fill="#000000" font-family="Helvetica" font-size="10" font-weight="bold" x="477.6377" y="632.3135">[FRONT-CHANNEL]</text><text fill="#000000" font-family="Helvetica" font-size="10" x="585.7188" y="632.3135">Antwort:</text><text fill="#000000" font-family="Helvetica" font-size="10" x="477.6377" y="643.9541">HTTP 302 Redirect zum IDP</text><path d="M975.4404,661.3125 L975.4404,682.3125 L1139.4404,682.3125 L1139.4404,671.3125 L1129.4404,661.3125 L975.4404,661.3125" fill="#FEFFDD" style="stroke:#181818;stroke-width:0.5;"/><path d="M1129.4404,661.3125 L1129.4404,671.3125 L1139.4404,671.3125 L1129.4404,661.3125" fill="#FEFFDD" style="stroke:#181818;stroke-width:0.5;"/><text fill="#000000" font-family="Helvetica" font-size="10" x="981.4404" y="675.5947">"Browser, redirect zum IDP!"</text><polygon fill="#181818" points="1487.5518,713.2344,1497.5518,717.2344,1487.5518,721.2344,1491.5518,717.2344" style="stroke:#181818;stroke-width:1;"/><line style="stroke:#181818;stroke-width:1;" x1="436.1104" x2="1493.5518" y1="717.2344" y2="717.2344"/><text fill="#000000" font-family="Helvetica" font-size="10" x="443.1104" y="707.0557">(13)</text><text fill="#000000" font-family="Helvetica" font-size="10" font-weight="bold" x="467.6377" y="701.2354">[FRONT-CHANNEL]</text><text fill="#000000" font-family="Helvetica" font-size="10" x="575.7188" y="701.2354">Folgt dem</text><text fill="#000000" font-family="Helvetica" font-size="10" x="467.6377" y="712.876">Redirect und ruft den IDP auf</text><polygon fill="#181818" points="447.1104,750.5156,437.1104,754.5156,447.1104,758.5156,443.1104,754.5156" style="stroke:#181818;stroke-width:1;"/><line style="stroke:#181818;stroke-width:1;stroke-dasharray:2,2;" x1="441.1104" x2="1498.5518" y1="754.5156" y2="754.5156"/><text fill="#000000" font-family="Helvetica" font-size="10" x="453.1104" y="744.3369">(14)</text><text fill="#000000" font-family="Helvetica" font-size="10" font-weight="bold" x="477.6377" y="738.5166">[FRONT-CHANNEL]</text><text fill="#000000" font-family="Helvetica" font-size="10" x="477.6377" y="750.1572">Zeigt "Warten"-Seite an</text><polygon fill="#181818" points="1690.1514,799.4375,1700.1514,803.4375,1690.1514,807.4375,1694.1514,803.4375" style="stroke:#181818;stroke-width:1;"/><line style="stroke:#181818;stroke-width:1;" x1="1499.5518" x2="1696.1514" y1="803.4375" y2="803.4375"/><text fill="#000000" font-family="Helvetica" font-size="10" x="1506.5518" y="787.4385">(15)</text><text fill="#000000" font-family="Helvetica" font-size="10" font-weight="bold" x="1531.0791" y="775.7979">[PUSH / BACK-CHANNEL]</text><text fill="#000000" font-family="Helvetica" font-size="10" x="1531.0791" y="787.4385">Sendet Push-Benachrichtigung</text><text fill="#000000" font-family="Helvetica" font-size="10" x="1531.0791" y="799.0791">Auth erforderlich</text><polygon fill="#181818" points="1690.1514,825.0781,1700.1514,829.0781,1690.1514,833.0781,1694.1514,829.0781" style="stroke:#181818;stroke-width:1;"/><line style="stroke:#181818;stroke-width:1;" x1="24" x2="1696.1514" y1="829.0781" y2="829.0781"/><text fill="#000000" font-family="Helvetica" font-size="10" x="31" y="824.7197">(16)</text><text fill="#000000" font-family="Helvetica" font-size="10" x="55.5273" y="824.7197">Authentifizierung f&#252;r App auf Ger&#228;t B</text><polygon fill="#181818" points="1510.5518,862.3594,1500.5518,866.3594,1510.5518,870.3594,1506.5518,866.3594" style="stroke:#181818;stroke-width:1;"/><line style="stroke:#181818;stroke-width:1;stroke-dasharray:2,2;" x1="1504.5518" x2="1701.1514" y1="866.3594" y2="866.3594"/><text fill="#000000" font-family="Helvetica" font-size="10" x="1516.5518" y="856.1807">(17)</text><text fill="#000000" font-family="Helvetica" font-size="10" font-weight="bold" x="1541.0791" y="850.3604">[BACK-CHANNEL]</text><text fill="#000000" font-family="Helvetica" font-size="10" x="1541.0791" y="862.001">Meldet Erfolg an IDP Server</text><polygon fill="#181818" points="447.1104,888,437.1104,892,447.1104,896,443.1104,892" style="stroke:#181818;stroke-width:1;"/><line style="stroke:#181818;stroke-width:1;stroke-dasharray:2,2;" x1="441.1104" x2="1498.5518" y1="892" y2="892"/><text fill="#000000" font-family="Helvetica" font-size="10" x="453.1104" y="887.6416">(18)</text><text fill="#000000" font-family="Helvetica" font-size="10" font-weight="bold" x="477.6377" y="887.6416">[FRONT-CHANNEL]</text><text fill="#000000" font-family="Helvetica" font-size="10" x="585.7188" y="887.6416">Antwort: HTTP 302 Redirect</text><path d="M1504.5518,905 L1504.5518,926 L1737.5518,926 L1737.5518,915 L1727.5518,905 L1504.5518,905" fill="#FEFFDD" style="stroke:#181818;stroke-width:0.5;"/><path d="M1727.5518,905 L1727.5518,915 L1737.5518,915 L1727.5518,905" fill="#FEFFDD" style="stroke:#181818;stroke-width:0.5;"/><text fill="#000000" font-family="Helvetica" font-size="10" x="1510.5518" y="919.2822">Location: https://zeta-as/callback?code=...</text><polygon fill="#181818" points="958.4404,956.9219,968.4404,960.9219,958.4404,964.9219,962.4404,960.9219" style="stroke:#181818;stroke-width:1;"/><line style="stroke:#181818;stroke-width:1;" x1="436.1104" x2="964.4404" y1="960.9219" y2="960.9219"/><text fill="#000000" font-family="Helvetica" font-size="10" x="443.1104" y="950.7432">(19)</text><text fill="#000000" font-family="Helvetica" font-size="10" font-weight="bold" x="467.6377" y="944.9229">[FRONT-CHANNEL]</text><text fill="#000000" font-family="Helvetica" font-size="10" x="575.7188" y="944.9229">Folgt dem Redirect und ruft den AS auf,</text><text fill="#000000" font-family="Helvetica" font-size="10" x="467.6377" y="956.5635">&#252;bermittelt so den</text><text fill="#000000" font-family="Helvetica" font-size="10" font-weight="bold" x="563.502" y="956.5635">Auth-Code (f&#252;r AS)</text><polygon fill="#181818" points="1487.5518,994.2031,1497.5518,998.2031,1487.5518,1002.2031,1491.5518,998.2031" style="stroke:#181818;stroke-width:1;"/><line style="stroke:#181818;stroke-width:1;" x1="970.4404" x2="1493.5518" y1="998.2031" y2="998.2031"/><text fill="#000000" font-family="Helvetica" font-size="10" x="977.4404" y="988.0244">(20)</text><text fill="#000000" font-family="Helvetica" font-size="10" font-weight="bold" x="1001.9678" y="982.2041">[BACK-CHANNEL]</text><text fill="#000000" font-family="Helvetica" font-size="10" x="1001.9678" y="993.8447">Ruft /token Endpoint des IDP auf</text><polygon fill="#181818" points="981.4404,1019.8438,971.4404,1023.8438,981.4404,1027.8438,977.4404,1023.8438" style="stroke:#181818;stroke-width:1;"/><line style="stroke:#181818;stroke-width:1;stroke-dasharray:2,2;" x1="975.4404" x2="1498.5518" y1="1023.8438" y2="1023.8438"/><text fill="#000000" font-family="Helvetica" font-size="10" x="987.4404" y="1019.4854">(21)</text><text fill="#000000" font-family="Helvetica" font-size="10" font-weight="bold" x="1011.9678" y="1019.4854">[BACK-CHANNEL]</text><text fill="#000000" font-family="Helvetica" font-size="10" x="1112.2754" y="1019.4854">Antwortet mit ID-Token</text><polygon fill="#181818" points="447.1104,1045.4844,437.1104,1049.4844,447.1104,1053.4844,443.1104,1049.4844" style="stroke:#181818;stroke-width:1;"/><line style="stroke:#181818;stroke-width:1;stroke-dasharray:2,2;" x1="441.1104" x2="969.4404" y1="1049.4844" y2="1049.4844"/><text fill="#000000" font-family="Helvetica" font-size="10" x="453.1104" y="1045.126">(22)</text><text fill="#000000" font-family="Helvetica" font-size="10" font-weight="bold" x="477.6377" y="1045.126">[FRONT-CHANNEL]</text><text fill="#000000" font-family="Helvetica" font-size="10" x="585.7188" y="1045.126">Antwort: HTTP 302 Redirect</text><path d="M975.4404,1062.4844 L975.4404,1083.4844 L1191.4404,1083.4844 L1191.4404,1072.4844 L1181.4404,1062.4844 L975.4404,1062.4844" fill="#FEFFDD" style="stroke:#181818;stroke-width:0.5;"/><path d="M1181.4404,1062.4844 L1181.4404,1072.4844 L1191.4404,1072.4844 L1181.4404,1062.4844" fill="#FEFFDD" style="stroke:#181818;stroke-width:0.5;"/><text fill="#000000" font-family="Helvetica" font-size="10" x="981.4404" y="1076.7666">Location: https://app/callback?code=...</text><polygon fill="#181818" points="720.9141,1114.4063,730.9141,1118.4063,720.9141,1122.4063,724.9141,1118.4063" style="stroke:#181818;stroke-width:1;"/><line style="stroke:#181818;stroke-width:1;" x1="436.1104" x2="726.9141" y1="1118.4063" y2="1118.4063"/><text fill="#000000" font-family="Helvetica" font-size="10" x="443.1104" y="1108.2275">(23)</text><text fill="#000000" font-family="Helvetica" font-size="10" font-weight="bold" x="467.6377" y="1102.4072">[FRONT-CHANNEL]</text><text fill="#000000" font-family="Helvetica" font-size="10" x="575.7188" y="1102.4072">Folgt dem Redirect zur App,</text><text fill="#000000" font-family="Helvetica" font-size="10" x="467.6377" y="1114.0479">&#252;bermittelt so den</text><text fill="#000000" font-family="Helvetica" font-size="10" font-weight="bold" x="563.502" y="1114.0479">Auth-Code (f&#252;r SDK)</text><polygon fill="#181818" points="958.4404,1151.6875,968.4404,1155.6875,958.4404,1159.6875,962.4404,1155.6875" style="stroke:#181818;stroke-width:1;"/><line style="stroke:#181818;stroke-width:1;" x1="732.9141" x2="964.4404" y1="1155.6875" y2="1155.6875"/><text fill="#000000" font-family="Helvetica" font-size="10" x="739.9141" y="1145.5088">(24)</text><text fill="#000000" font-family="Helvetica" font-size="10" font-weight="bold" x="764.4414" y="1139.6885">[BACK-CHANNEL]</text><text fill="#000000" font-family="Helvetica" font-size="10" x="764.4414" y="1151.3291">Ruft /token Endpoint des ZETA AS auf</text><polygon fill="#181818" points="743.9141,1188.9688,733.9141,1192.9688,743.9141,1196.9688,739.9141,1192.9688" style="stroke:#181818;stroke-width:1;"/><line style="stroke:#181818;stroke-width:1;stroke-dasharray:2,2;" x1="737.9141" x2="969.4404" y1="1192.9688" y2="1192.9688"/><text fill="#000000" font-family="Helvetica" font-size="10" x="749.9141" y="1182.79">(25)</text><text fill="#000000" font-family="Helvetica" font-size="10" font-weight="bold" x="774.4414" y="1176.9697">[BACK-CHANNEL]</text><text fill="#000000" font-family="Helvetica" font-size="10" x="774.4414" y="1188.6104">Antwortet mit finalem Access Token</text><path d="M716.9141,1218.9688 L1103.0469,1218.9688 L1103.0469,1222.6094 L1093.0469,1232.6094 L716.9141,1232.6094 L716.9141,1218.9688" fill="#EEEEEE" style="stroke:#000000;stroke-width:1.5;"/><rect fill="none" height="248.6875" style="stroke:#000000;stroke-width:1.5;" width="673.959" x="716.9141" y="1218.9688"/><text fill="#000000" font-family="Helvetica" font-size="10" font-weight="bold" x="731.9141" y="1229.251">Phase 3: Autorisierter Zugriff auf den PoPP Resource Server</text><polygon fill="#181818" points="1155.1416,1279.5313,1165.1416,1283.5313,1155.1416,1287.5313,1159.1416,1283.5313" style="stroke:#181818;stroke-width:1;"/><line style="stroke:#181818;stroke-width:1;" x1="732.9141" x2="1161.1416" y1="1283.5313" y2="1283.5313"/><text fill="#000000" font-family="Helvetica" font-size="10" x="739.9141" y="1267.5322">(26)</text><text fill="#000000" font-family="Helvetica" font-size="10" x="764.4414" y="1255.8916">Ruft HTTP-Proxy mit</text><text fill="#000000" font-family="Helvetica" font-size="10" x="764.4414" y="1267.5322">urspr&#252;nglichem HTTP-Request</text><text fill="#000000" font-family="Helvetica" font-size="10" x="764.4414" y="1279.1729">und Access Token auf</text><polygon fill="#181818" points="981.4404,1316.8125,971.4404,1320.8125,981.4404,1324.8125,977.4404,1320.8125" style="stroke:#181818;stroke-width:1;"/><line style="stroke:#181818;stroke-width:1;" x1="975.4404" x2="1166.1416" y1="1320.8125" y2="1320.8125"/><text fill="#000000" font-family="Helvetica" font-size="10" x="987.4404" y="1310.6338">(27)</text><text fill="#000000" font-family="Helvetica" font-size="10" x="1011.9678" y="1304.8135">L&#228;dt PoPP-Metainformationen</text><text fill="#000000" font-family="Helvetica" font-size="10" x="1011.9678" y="1316.4541">zum Access Token</text><line style="stroke:#181818;stroke-width:1;" x1="1167.1416" x2="1209.1416" y1="1358.0938" y2="1358.0938"/><line style="stroke:#181818;stroke-width:1;" x1="1209.1416" x2="1209.1416" y1="1358.0938" y2="1371.0938"/><line style="stroke:#181818;stroke-width:1;" x1="1168.1416" x2="1209.1416" y1="1371.0938" y2="1371.0938"/><polygon fill="#181818" points="1178.1416,1367.0938,1168.1416,1371.0938,1178.1416,1375.0938,1174.1416,1371.0938" style="stroke:#181818;stroke-width:1;"/><text fill="#000000" font-family="Helvetica" font-size="10" x="1174.1416" y="1347.915">(28)</text><text fill="#000000" font-family="Helvetica" font-size="10" x="1198.6689" y="1342.0947">Reichert HTTP-Request</text><text fill="#000000" font-family="Helvetica" font-size="10" x="1198.6689" y="1353.7354">mit Metadaten an</text><polygon fill="#181818" points="1362.873,1404.375,1372.873,1408.375,1362.873,1412.375,1366.873,1408.375" style="stroke:#181818;stroke-width:1;"/><line style="stroke:#181818;stroke-width:1;" x1="1167.1416" x2="1368.873" y1="1408.375" y2="1408.375"/><text fill="#000000" font-family="Helvetica" font-size="10" x="1174.1416" y="1398.1963">(29)</text><text fill="#000000" font-family="Helvetica" font-size="10" x="1198.6689" y="1392.376">Sendet angereicherten Request</text><text fill="#000000" font-family="Helvetica" font-size="10" x="1198.6689" y="1404.0166">an PoPP Resource Server</text><polygon fill="#181818" points="1178.1416,1430.0156,1168.1416,1434.0156,1178.1416,1438.0156,1174.1416,1434.0156" style="stroke:#181818;stroke-width:1;"/><line style="stroke:#181818;stroke-width:1;stroke-dasharray:2,2;" x1="1172.1416" x2="1373.873" y1="1434.0156" y2="1434.0156"/><text fill="#000000" font-family="Helvetica" font-size="10" x="1184.1416" y="1429.6572">(30)</text><text fill="#000000" font-family="Helvetica" font-size="10" x="1208.6689" y="1429.6572">Antwortet mit dem Ergebnis</text><polygon fill="#181818" points="743.9141,1455.6563,733.9141,1459.6563,743.9141,1463.6563,739.9141,1459.6563" style="stroke:#181818;stroke-width:1;"/><line style="stroke:#181818;stroke-width:1;stroke-dasharray:2,2;" x1="737.9141" x2="1166.1416" y1="1459.6563" y2="1459.6563"/><text fill="#000000" font-family="Helvetica" font-size="10" x="749.9141" y="1455.2979">(31)</text><text fill="#000000" font-family="Helvetica" font-size="10" x="774.4414" y="1455.2979">Leitet die Response weiter</text><path d="M8,1485.6563 L321.7744,1485.6563 L321.7744,1489.2969 L311.7744,1499.2969 L8,1499.2969 L8,1485.6563" fill="#EEEEEE" style="stroke:#000000;stroke-width:1.5;"/><rect fill="none" height="135.4844" style="stroke:#000000;stroke-width:1.5;" width="740.9141" x="8" y="1485.6563"/><text fill="#000000" font-family="Helvetica" font-size="10" font-weight="bold" x="23" y="1495.9385">Phase 4: Ergebnisverarbeitung und Darstellung</text><polygon fill="#181818" points="274.2568,1534.5781,264.2568,1538.5781,274.2568,1542.5781,270.2568,1538.5781" style="stroke:#181818;stroke-width:1;"/><line style="stroke:#181818;stroke-width:1;" x1="268.2568" x2="731.9141" y1="1538.5781" y2="1538.5781"/><text fill="#000000" font-family="Helvetica" font-size="10" x="280.2568" y="1528.3994">(32)</text><text fill="#000000" font-family="Helvetica" font-size="10" x="304.7842" y="1522.5791">Ruft callBackMethod</text><text fill="#000000" font-family="Helvetica" font-size="10" x="304.7842" y="1534.2197">mit der HTTP-Response auf</text><polygon fill="#181818" points="152.9951,1571.8594,142.9951,1575.8594,152.9951,1579.8594,148.9951,1575.8594" style="stroke:#181818;stroke-width:1;"/><line style="stroke:#181818;stroke-width:1;" x1="146.9951" x2="262.2568" y1="1575.8594" y2="1575.8594"/><text fill="#000000" font-family="Helvetica" font-size="10" x="158.9951" y="1565.6807">(33)</text><text fill="#000000" font-family="Helvetica" font-size="10" x="183.5225" y="1559.8604">Wertet die</text><text fill="#000000" font-family="Helvetica" font-size="10" x="183.5225" y="1571.501">Antwort aus</text><polygon fill="#181818" points="35,1609.1406,25,1613.1406,35,1617.1406,31,1613.1406" style="stroke:#181818;stroke-width:1;"/><line style="stroke:#181818;stroke-width:1;" x1="29" x2="140.9951" y1="1613.1406" y2="1613.1406"/><text fill="#000000" font-family="Helvetica" font-size="10" x="41" y="1602.9619">(34)</text><text fill="#000000" font-family="Helvetica" font-size="10" x="65.5273" y="1597.1416">Stellt das</text><text fill="#000000" font-family="Helvetica" font-size="10" x="65.5273" y="1608.7822">Ergebnis dar</text><!--SRC=[dLVDRjj64BxpAIOEaDY2QJjEKQ02ca2M_2D4jbL9YT5KHR4YXz9MrAwwNDg9pds6dWhqaiVmJI_MsLrI8aN9CEA39P4pipFVVFFjBakr5EbiX0hszazE3lQyPCh5d2asWn0ZbiRwGWhTvmk4DoVRNzwm6S8LnlUeUS0ADYrdSos5JEOim71btPIfugWAjZ6AiPuqmZ_JH8EG0Wll4lmhHH5W3oDKviiP2wPZ9LCHDcKi5TnDk2uwz3STrZMSUjwBkMBZ6GEDSW5QfUXvckiOuH8JDjDi5BCqgaDNThl-G4vHG6EaqWXcNCFdyq43-gqFy0gwZHxizowQyDERqnyFFAyHQ4hbOq9bZUGNs3FV289x7Y0qzk3bvKGcscKAO2qQypazxx1x525v0VrH_WGYdpEXwRqOSTIeV6l84g3FgfNDyrg6QMnjpC-gqPcI3oQVOxZ3qIUE3zOsUzgmzZObMrypvYWqfTPd8lngZ8Irs8XfR7t2meQYJsj3fPX8tlfR_kbGoMkYw8FpvjNDRUVsybUlkFfbobHONRoCJAedKl45qrmAQhUwHpKK-wRs0_YCckLH36Zzgl_LOD3rkqf- -RhBoxxqYlMu70TjE3qwWHOXH4HzsM9gsaTsgH1pZBQq1tgO4EE922vLkqAlNmAi35ExrTsap4RSFaw9RoocfbfZYaYV6s6A73pxFWuIqaG66cnQpU59JnmHAwc_1j_teJjX2KrQ7Tg2QyvYdj2efs9iNdfcREUxJMYauPDKf4V8DJsm2Tag_7U6_dNeQqeFDJIcflVsFJqthmtIbOX3iPxZeJ0Zt3bl-orgDeyJpxhR3f4_KRWEdDptBtvftP32kM7oJSy8m0DhR6RVtxKOiD4Oas0IooGXFfIYEuTB56YKJuEbOCy8LQA9X0ECSKPqdlhjrY6W3euEddHdytbM13bJuu4d2P2e7jh- -DT80n9IpjIRSbzEwv3tDEABBEzNO07opqpsB8gsTOiSRzkjvXPlqpGdb0N_AhJu1ODKutwnyiEX25WS6q5tAHyMAdC8s7-c0bZ-dIx_8sOek8Zb0unmp0LnbF9STURTIjFgiFmdYWJ2nru7ekMZSjgTgK5kPMdLhqEjzjj5x_Pcu3Ul6ZStvvtVQxMXk3mVm37Bf0RVsxqbEJewsaYhBSGwgGUkGhZF6Oohx1fzinGrogvrrcX-A2m5tTi-BKKBm7utJIOOGbdXChGS8ARR_ZhlpLWDeHyaCSHmNJc_FuWOtZfX6g48jKQnVAGqnso4bF7CfBX8PpRyFMSvHCK2Il1kWInVkpuKfidmzkIKKW-vma3diMqm8JM2ukE91XdPGl8Twf1oBZkysFCgBSjnh2Hm8UEnfj6T3SLgOKDFsh_DOs6he-rzeuL6OVose7s9MLa1YypA8OCW1_v938RYCtBAOU_Ew9JO8_aW7W0Jwn3lSWsr0ReV-rUqBs-qSIZwHf4r63xGN0eMJ1GF9fgFhQgP280gaefaEwONPQNCurU7rOw2KKn2WVH4BRzfE7CTTawsn1r47OfhZ4rMvxHoJ7hdy76xsWQcErXcx1UfMZu6KzjXujKMjhtU87aLvTp13fpXkjMz9eaU2Q8hid-Ghv1p2aCNlSm_MsoLW4DXl3FL81O-cmAhCO3A56nXlrsz8mCxwNMOQ3rFwiV72z90doN7HXv798_l0ohjvrnzdg5Vwrc0xQD0k107I85jWmX2ZR66HDgNjTeAJrZ1MQjvJybUQVTxbl3Hb9fiZhNTFSv5E9TSQBlr5WVrUOg7JlFQBRVRUpitZjt9livKpkvNtqaxyZMySqFsDF5s2fzrpYZdDk_blnMfpcV8hUH_Zqu_Yw0cooe_QPj-1ZTt0RcDd5abpoQa0JfdPBRvRoV84opBfdl5j8t-LmALgHPnGGTmQaSG81s_7Eqg9wwtTVYSZXMF8gkv8KUmr5i-wWNXJ7U3x7AmUU9wQ_MRJW7cU4bxKpaCbRBjRb64mrvYwc2hNrzvJEf3aQfaJWmIOxDvK0tbywWHYc9LAu1SX0pgpl9RgDqX-TeSsGHjHpFB4tFOjjfRHARad-U6PldAUTYWQqA6J9l5Dtnxj7QsFJ8nDYSj6mDN1wMXO4-WqtDDpZ8ejzGmyboDSIHuKbmq9qN7dUfC4odqN0hgquDvfggD_w6-2aLBCpeJsZjDfS-xx4mJw8APq1Z4-Oawxwoz3jZ6bi_F3Zew4-I0PZck-fUToEtfu0vLLioAsMIO52zLvaHXBbsK0XaokctagT8lL_F_]--></g></svg>