<svg xmlns="http://www.w3.org/2000/svg" xmlns:xlink="http://www.w3.org/1999/xlink" contentStyleType="text/css" data-diagram-type="SEQUENCE" height="1037px" preserveAspectRatio="none" style="width:1477px;height:1037px;background:#FFFFFF;" version="1.1" viewBox="0 0 1477 1037" width="1477px" zoomAndPan="magnify"><?plantuml 1.2026.6?><defs/><g><rect fill="#FEFCFF" height="1011.9844" style="stroke:#181818;stroke-width:0.5;" width="444.4043" x="69.1411" y="11"/><text fill="#000000" font-family="Helvetica" font-size="10" font-weight="700" x="242.0635" y="20.2822">Mobiles Endger&#228;t</text><rect fill="#EDFDEC" height="1011.9844" style="stroke:#181818;stroke-width:0.5;" width="357.0752" x="1059.7583" y="11"/><text fill="#000000" font-family="Helvetica" font-size="10" font-weight="700" x="1176.4038" y="20.2822">Anbieter TI 2.0 Dienst</text><rect fill="#F5FFFA" height="995.3438" style="stroke:#181818;stroke-width:0.5;" width="357.0752" x="1059.7583" y="27.6406"/><text fill="#000000" font-family="Helvetica" font-size="10" font-weight="700" x="1138.9966" y="36.9229">optionale VAU (Betriebsvariante A)</text><rect fill="#FFF3E5" height="978.7031" style="stroke:#181818;stroke-width:0.5;" width="149.6758" x="1059.7583" y="44.2813"/><text fill="#000000" font-family="Helvetica" font-size="10" font-weight="700" x="1101.4517" y="53.5635">ZETA Guard</text><g><title>FdV App</title><rect fill="#000000" fill-opacity="0.00000" height="880.5" width="8" x="97.4688" y="98.2031"/><line style="stroke:#000000;stroke-width:0.5;stroke-dasharray:5,5;" x1="100.9688" x2="100.9688" y1="98.2031" y2="978.7031"/></g><g><title/><rect fill="#FFFFFF" height="339.6875" style="stroke:#181818;stroke-width:1;" width="10" x="95.9688" y="639.0156"/></g><g><title>ZETA Client Modul . SDK</title><rect fill="#000000" fill-opacity="0.00000" height="880.5" width="8" x="438.0615" y="98.2031"/><line style="stroke:#000000;stroke-width:0.5;stroke-dasharray:5,5;" x1="441.5615" x2="441.5615" y1="98.2031" y2="978.7031"/></g><g><title/><rect fill="#FFFFFF" height="800.8594" style="stroke:#181818;stroke-width:1;" width="10" x="436.5615" y="145.8438"/></g><g><title>Apple .APNs. . Google .FCM.</title><rect fill="#000000" fill-opacity="0.00000" height="880.5" width="8" x="604.2173" y="98.2031"/><line style="stroke:#000000;stroke-width:0.5;stroke-dasharray:5,5;" x1="607.7173" x2="607.7173" y1="98.2031" y2="978.7031"/></g><g><title/><rect fill="#FFFFFF" height="25.6406" style="stroke:#181818;stroke-width:1;" width="10" x="602.7173" y="613.375"/></g><g><title>Push Gateway</title><rect fill="#000000" fill-opacity="0.00000" height="880.5" width="8" x="824.9321" y="98.2031"/><line style="stroke:#000000;stroke-width:0.5;stroke-dasharray:5,5;" x1="828.4321" x2="828.4321" y1="98.2031" y2="978.7031"/></g><g><title/><rect fill="#FFFFFF" height="106.5625" style="stroke:#181818;stroke-width:1;" width="10" x="823.4321" y="506.8125"/></g><g><title>Notification Service</title><rect fill="#000000" fill-opacity="0.00000" height="880.5" width="8" x="1131.0962" y="98.2031"/><line style="stroke:#000000;stroke-width:0.5;stroke-dasharray:5,5;" x1="1134.5962" x2="1134.5962" y1="98.2031" y2="978.7031"/></g><g><title/><rect fill="#FFFFFF" height="832.8594" style="stroke:#181818;stroke-width:1;" width="10" x="1129.5962" y="145.8438"/></g><g><title>Resource Server</title><rect fill="#000000" fill-opacity="0.00000" height="880.5" width="8" x="1358.9839" y="98.2031"/><line style="stroke:#000000;stroke-width:0.5;stroke-dasharray:5,5;" x1="1362.4839" x2="1362.4839" y1="98.2031" y2="978.7031"/></g><g><title/><rect fill="#FFFFFF" height="832.8594" style="stroke:#181818;stroke-width:1;" width="10" x="1357.4839" y="145.8438"/></g><rect fill="#E2E2F0" height="37.2813" rx="2.5" ry="2.5" style="stroke:#181818;stroke-width:0.5;" width="55.6553" x="73.1411" y="59.9219"/><text fill="#000000" font-family="Helvetica" font-size="10" x="80.1411" y="76.2041">FdV App</text><text fill="#000000" font-family="Helvetica" font-size="10" x="99.3794" y="87.8447">&#160;</text><rect fill="#FFE6CC" height="37.2813" rx="2.5" ry="2.5" style="stroke:#D79B00;stroke-width:0.5;" width="135.9678" x="373.5776" y="59.9219"/><text fill="#000000" font-family="Helvetica" font-size="10" x="380.5776" y="76.2041">ZETA Client Modul / SDK</text><text fill="#000000" font-family="Helvetica" font-size="10" x="430.4751" y="87.8447">[ZH]</text><rect fill="#E2E2F0" height="37.2813" rx="2.5" ry="2.5" style="stroke:#181818;stroke-width:0.5;" width="156.3438" x="529.5454" y="59.9219"/><text fill="#000000" font-family="Helvetica" font-size="10" x="536.5454" y="76.2041">Apple (APNs) / Google (FCM)</text><text fill="#000000" font-family="Helvetica" font-size="10" x="562.561" y="87.8447">Push-Infrastruktur</text><rect fill="#E2E2F0" height="37.2813" rx="2.5" ry="2.5" style="stroke:#181818;stroke-width:0.5;" width="85.2695" x="785.7974" y="59.9219"/><text fill="#000000" font-family="Helvetica" font-size="10" x="792.7974" y="76.2041">Push Gateway</text><text fill="#000000" font-family="Helvetica" font-size="10" x="818.0952" y="87.8447">[AP]</text><rect fill="#FFE6CC" height="37.2813" rx="2.5" ry="2.5" style="stroke:#D79B00;stroke-width:0.5;" width="141.6758" x="1063.7583" y="59.9219"/><text fill="#000000" font-family="Helvetica" font-size="10" x="1085.8389" y="76.2041">Notification Service</text><text fill="#000000" font-family="Helvetica" font-size="10" x="1070.7583" y="87.8447">[ZH] (SW) / [FD] (Betrieb)</text><rect fill="#D5E8D4" height="37.2813" rx="2.5" ry="2.5" style="stroke:#82B366;stroke-width:0.5;" width="100.6992" x="1312.1343" y="59.9219"/><text fill="#000000" font-family="Helvetica" font-size="10" x="1321.2339" y="76.2041">Resource Server</text><text fill="#000000" font-family="Helvetica" font-size="10" x="1319.1343" y="87.8447">(Fachdienst) [FD]</text><rect fill="#E2E2F0" height="37.2813" rx="2.5" ry="2.5" style="stroke:#181818;stroke-width:0.5;" width="55.6553" x="73.1411" y="978.7031"/><text fill="#000000" font-family="Helvetica" font-size="10" x="80.1411" y="994.9854">FdV App</text><text fill="#000000" font-family="Helvetica" font-size="10" x="99.3794" y="1006.626">&#160;</text><rect fill="#FFE6CC" height="37.2813" rx="2.5" ry="2.5" style="stroke:#D79B00;stroke-width:0.5;" width="135.9678" x="373.5776" y="978.7031"/><text fill="#000000" font-family="Helvetica" font-size="10" x="380.5776" y="994.9854">ZETA Client Modul / SDK</text><text fill="#000000" font-family="Helvetica" font-size="10" x="430.4751" y="1006.626">[ZH]</text><rect fill="#E2E2F0" height="37.2813" rx="2.5" ry="2.5" style="stroke:#181818;stroke-width:0.5;" width="156.3438" x="529.5454" y="978.7031"/><text fill="#000000" font-family="Helvetica" font-size="10" x="536.5454" y="994.9854">Apple (APNs) / Google (FCM)</text><text fill="#000000" font-family="Helvetica" font-size="10" x="562.561" y="1006.626">Push-Infrastruktur</text><rect fill="#E2E2F0" height="37.2813" rx="2.5" ry="2.5" style="stroke:#181818;stroke-width:0.5;" width="85.2695" x="785.7974" y="978.7031"/><text fill="#000000" font-family="Helvetica" font-size="10" x="792.7974" y="994.9854">Push Gateway</text><text fill="#000000" font-family="Helvetica" font-size="10" x="818.0952" y="1006.626">[AP]</text><rect fill="#FFE6CC" height="37.2813" rx="2.5" ry="2.5" style="stroke:#D79B00;stroke-width:0.5;" width="141.6758" x="1063.7583" y="978.7031"/><text fill="#000000" font-family="Helvetica" font-size="10" x="1085.8389" y="994.9854">Notification Service</text><text fill="#000000" font-family="Helvetica" font-size="10" x="1070.7583" y="1006.626">[ZH] (SW) / [FD] (Betrieb)</text><rect fill="#D5E8D4" height="37.2813" rx="2.5" ry="2.5" style="stroke:#82B366;stroke-width:0.5;" width="100.6992" x="1312.1343" y="978.7031"/><text fill="#000000" font-family="Helvetica" font-size="10" x="1321.2339" y="994.9854">Resource Server</text><text fill="#000000" font-family="Helvetica" font-size="10" x="1319.1343" y="1006.626">(Fachdienst) [FD]</text><rect fill="#EEEEEE" height="3" style="stroke:#EEEEEE;stroke-width:1;" width="1456.1973" x="10" y="125.0234"/><line style="stroke:#000000;stroke-width:1;" x1="10" x2="1466.1973" y1="125.0234" y2="125.0234"/><line style="stroke:#000000;stroke-width:1;" x1="10" x2="1466.1973" y1="128.0234" y2="128.0234"/><rect fill="#EEEEEE" height="19.6406" style="stroke:#000000;stroke-width:2;" width="269.7031" x="603.2471" y="116.2031"/><text fill="#000000" font-family="Helvetica" font-size="10" font-weight="700" x="609.2471" y="129.4854">Registrierung / Schl&#252;ssel / Channel / Historie</text><polygon fill="#181818" points="1117.5962,182.7656,1127.5962,186.7656,1117.5962,190.7656,1121.5962,186.7656" style="stroke:#181818;stroke-width:1;stroke-linejoin:miter;stroke-miterlimit:10;"/><line style="stroke:#181818;stroke-width:1;" x1="446.5615" x2="1123.5962" y1="186.7656" y2="186.7656"/><text fill="#000000" font-family="Helvetica" font-size="10" x="453.5615" y="170.7666">(01)</text><text fill="#000000" font-family="Helvetica" font-size="10" x="478.0889" y="159.126">Aufruf zur Registrierung von Pushern,</text><text fill="#000000" font-family="Helvetica" font-size="10" x="478.0889" y="170.7666">Schl&#252;sselverwaltung &amp; Channel-Konfiguration</text><text fill="#000000" font-family="Helvetica" font-size="10" font-style="italic" x="478.0889" y="182.4072">[Auth: Dienstspezifisches ZETA-Zugriffstoken (DPoP)]</text><polygon fill="#181818" points="457.5615,208.4063,447.5615,212.4063,457.5615,216.4063,453.5615,212.4063" style="stroke:#181818;stroke-width:1;stroke-linejoin:miter;stroke-miterlimit:10;"/><line style="stroke:#181818;stroke-width:1;stroke-dasharray:2,2;" x1="451.5615" x2="1128.5962" y1="212.4063" y2="212.4063"/><text fill="#000000" font-family="Helvetica" font-size="10" x="463.5615" y="208.0479">(02)</text><text fill="#000000" font-family="Helvetica" font-size="10" x="488.0889" y="208.0479">Registrierungsbest&#228;tigung</text><rect fill="#EEEEEE" height="3" style="stroke:#EEEEEE;stroke-width:1;" width="1456.1973" x="10" y="239.2266"/><line style="stroke:#000000;stroke-width:1;" x1="10" x2="1466.1973" y1="239.2266" y2="239.2266"/><line style="stroke:#000000;stroke-width:1;" x1="10" x2="1466.1973" y1="242.2266" y2="242.2266"/><rect fill="#EEEEEE" height="19.6406" style="stroke:#000000;stroke-width:2;" width="208.8975" x="633.6499" y="230.4063"/><text fill="#000000" font-family="Helvetica" font-size="10" font-weight="700" x="639.6499" y="243.6885">Abfrage aktive Channel (optional)</text><path d="M1118.5962,264.0469 L1182.4048,264.0469 L1182.4048,267.6875 L1172.4048,277.6875 L1118.5962,277.6875 L1118.5962,264.0469" fill="#EEEEEE" style="stroke:#000000;stroke-width:1.5;"/><rect fill="none" height="74.9219" style="stroke:#000000;stroke-width:1.5;" width="259.8877" x="1118.5962" y="264.0469"/><text fill="#000000" font-family="Helvetica" font-size="10" font-weight="700" x="1133.5962" y="274.3291">opt</text><text fill="#000000" font-family="Helvetica" font-size="10" font-weight="700" x="1197.4048" y="275.3291">[Optionaler Schritt]</text><polygon fill="#181818" points="1150.5962,301.3281,1140.5962,305.3281,1150.5962,309.3281,1146.5962,305.3281" style="stroke:#181818;stroke-width:1;stroke-linejoin:miter;stroke-miterlimit:10;"/><line style="stroke:#181818;stroke-width:1;" x1="1144.5962" x2="1356.4839" y1="305.3281" y2="305.3281"/><text fill="#000000" font-family="Helvetica" font-size="10" x="1156.5962" y="300.9697">(03)</text><text fill="#000000" font-family="Helvetica" font-size="10" x="1181.1235" y="300.9697">Abfrage der aktiven Channel</text><polygon fill="#181818" points="1345.4839,326.9688,1355.4839,330.9688,1345.4839,334.9688,1349.4839,330.9688" style="stroke:#181818;stroke-width:1;stroke-linejoin:miter;stroke-miterlimit:10;"/><line style="stroke:#181818;stroke-width:1;stroke-dasharray:2,2;" x1="1139.5962" x2="1351.4839" y1="330.9688" y2="330.9688"/><text fill="#000000" font-family="Helvetica" font-size="10" x="1146.5962" y="326.6104">(04)</text><text fill="#000000" font-family="Helvetica" font-size="10" x="1171.1235" y="326.6104">R&#252;ckgabe aktive Channel</text><rect fill="#EEEEEE" height="3" style="stroke:#EEEEEE;stroke-width:1;" width="1456.1973" x="10" y="371.7891"/><line style="stroke:#000000;stroke-width:1;" x1="10" x2="1466.1973" y1="371.7891" y2="371.7891"/><line style="stroke:#000000;stroke-width:1;" x1="10" x2="1466.1973" y1="374.7891" y2="374.7891"/><rect fill="#EEEEEE" height="19.6406" style="stroke:#000000;stroke-width:2;" width="138.4189" x="668.8892" y="362.9688"/><text fill="#000000" font-family="Helvetica" font-size="10" font-weight="700" x="674.8892" y="376.251">Push-Zustellungsweg</text><polygon fill="#181818" points="1150.5962,406.25,1140.5962,410.25,1150.5962,414.25,1146.5962,410.25" style="stroke:#181818;stroke-width:1;stroke-linejoin:miter;stroke-miterlimit:10;"/><line style="stroke:#181818;stroke-width:1;" x1="1144.5962" x2="1356.4839" y1="410.25" y2="410.25"/><text fill="#000000" font-family="Helvetica" font-size="10" x="1156.5962" y="405.8916">(05)</text><text fill="#000000" font-family="Helvetica" font-size="10" x="1181.1235" y="405.8916">Push-Nachricht an aktive Channel</text><path d="M807.9951,423.25 L807.9951,444.25 L1460.9951,444.25 L1460.9951,433.25 L1450.9951,423.25 L807.9951,423.25" fill="#FEFFDD" style="stroke:#181818;stroke-width:0.5;"/><path d="M1450.9951,423.25 L1450.9951,433.25 L1460.9951,433.25 L1450.9951,423.25" fill="#FEFFDD" style="stroke:#181818;stroke-width:0.5;"/><text fill="#000000" font-family="Helvetica" font-size="10" x="813.9951" y="437.5322">NS verschl&#252;sselt Payload nur, wenn dieses zentral pro ZETA-Guard-Instanz aktiv ist. Andernfalls unverschl&#252;sselte Weitergabe.</text><path d="M807.4321,453.8906 L867.3882,453.8906 L867.3882,457.5313 L857.3882,467.5313 L807.4321,467.5313 L807.4321,453.8906" fill="#EEEEEE" style="stroke:#000000;stroke-width:1.5;"/><rect fill="none" height="127.8438" style="stroke:#000000;stroke-width:1.5;" width="343.1641" x="807.4321" y="453.8906"/><text fill="#000000" font-family="Helvetica" font-size="10" font-weight="700" x="822.4321" y="464.1729">alt</text><text fill="#000000" font-family="Helvetica" font-size="10" font-weight="700" x="882.3882" y="465.1729">[Verschl&#252;sselung aktiv]</text><line style="stroke:#000000;stroke-width:1;stroke-dasharray:2,2;" x1="807.4321" x2="1150.5962" y1="525.8125" y2="525.8125"/><text fill="#000000" font-family="Helvetica" font-size="10" font-weight="700" x="812.4321" y="537.0947">[Verschl&#252;sselung inaktiv]</text><polygon fill="#181818" points="844.4321,502.8125,834.4321,506.8125,844.4321,510.8125,840.4321,506.8125" style="stroke:#181818;stroke-width:1;stroke-linejoin:miter;stroke-miterlimit:10;"/><line style="stroke:#181818;stroke-width:1;" x1="838.4321" x2="1128.5962" y1="506.8125" y2="506.8125"/><text fill="#000000" font-family="Helvetica" font-size="10" x="850.4321" y="496.6338">(06)</text><text fill="#000000" font-family="Helvetica" font-size="10" x="874.9595" y="490.8135">Versand verschl&#252;sselte Push-Nachricht</text><text fill="#000000" font-family="Helvetica" font-size="10" x="874.9595" y="502.4541">Endpunkt: /notifyEncrypted/batch [Auth: mTLS]</text><polygon fill="#181818" points="844.4321,569.7344,834.4321,573.7344,844.4321,577.7344,840.4321,573.7344" style="stroke:#181818;stroke-width:1;stroke-linejoin:miter;stroke-miterlimit:10;"/><line style="stroke:#181818;stroke-width:1;" x1="838.4321" x2="1128.5962" y1="573.7344" y2="573.7344"/><text fill="#000000" font-family="Helvetica" font-size="10" x="850.4321" y="563.5557">(07)</text><text fill="#000000" font-family="Helvetica" font-size="10" x="874.9595" y="557.7354">Versand unverschl&#252;sselte Push-Nachricht</text><text fill="#000000" font-family="Helvetica" font-size="10" x="874.9595" y="569.376">Endpunkt: /notify oder /notify/batch [Auth: mTLS]</text><polygon fill="#181818" points="623.7173,609.375,613.7173,613.375,623.7173,617.375,619.7173,613.375" style="stroke:#181818;stroke-width:1;stroke-linejoin:miter;stroke-miterlimit:10;"/><line style="stroke:#181818;stroke-width:1;" x1="617.7173" x2="822.4321" y1="613.375" y2="613.375"/><text fill="#000000" font-family="Helvetica" font-size="10" x="629.7173" y="609.0166">(08)</text><text fill="#000000" font-family="Helvetica" font-size="10" x="654.2446" y="609.0166">Zustellung an Push-Infrastruktur</text><polygon fill="#181818" points="116.9688,635.0156,106.9688,639.0156,116.9688,643.0156,112.9688,639.0156" style="stroke:#181818;stroke-width:1;stroke-linejoin:miter;stroke-miterlimit:10;"/><line style="stroke:#181818;stroke-width:1;" x1="110.9688" x2="601.7173" y1="639.0156" y2="639.0156"/><text fill="#000000" font-family="Helvetica" font-size="10" x="122.9688" y="634.6572">(09)</text><text fill="#000000" font-family="Helvetica" font-size="10" x="147.4961" y="634.6572">Zustellung an FdV App auf dem Ger&#228;t</text><rect fill="#EEEEEE" height="3" style="stroke:#EEEEEE;stroke-width:1;" width="1456.1973" x="10" y="665.8359"/><line style="stroke:#000000;stroke-width:1;" x1="10" x2="1466.1973" y1="665.8359" y2="665.8359"/><line style="stroke:#000000;stroke-width:1;" x1="10" x2="1466.1973" y1="668.8359" y2="668.8359"/><rect fill="#EEEEEE" height="19.6406" style="stroke:#000000;stroke-width:2;" width="164.4785" x="655.8594" y="657.0156"/><text fill="#000000" font-family="Helvetica" font-size="10" font-weight="700" x="661.8594" y="670.2979">Verarbeitung im Endger&#228;t</text><polygon fill="#181818" points="424.5615,700.2969,434.5615,704.2969,424.5615,708.2969,428.5615,704.2969" style="stroke:#181818;stroke-width:1;stroke-linejoin:miter;stroke-miterlimit:10;"/><line style="stroke:#181818;stroke-width:1;" x1="105.9688" x2="430.5615" y1="704.2969" y2="704.2969"/><text fill="#000000" font-family="Helvetica" font-size="10" x="112.9688" y="699.9385">(10)</text><text fill="#000000" font-family="Helvetica" font-size="10" x="137.4961" y="699.9385">Weitergabe der Push-Nachricht an das SDK</text><path d="M350.644,717.2969 L350.644,750.2969 L531.644,750.2969 L531.644,727.2969 L521.644,717.2969 L350.644,717.2969" fill="#FEFFDD" style="stroke:#181818;stroke-width:0.5;"/><path d="M521.644,717.2969 L521.644,727.2969 L531.644,727.2969 L521.644,717.2969" fill="#FEFFDD" style="stroke:#181818;stroke-width:0.5;"/><text fill="#000000" font-family="Helvetica" font-size="10" x="356.644" y="731.5791">Verarbeitung &amp; Entschl&#252;sselung</text><text fill="#000000" font-family="Helvetica" font-size="10" x="356.644" y="743.2197">der Nachricht</text><polygon fill="#181818" points="116.9688,769.2188,106.9688,773.2188,116.9688,777.2188,112.9688,773.2188" style="stroke:#181818;stroke-width:1;stroke-linejoin:miter;stroke-miterlimit:10;"/><line style="stroke:#181818;stroke-width:1;stroke-dasharray:2,2;" x1="110.9688" x2="435.5615" y1="773.2188" y2="773.2188"/><text fill="#000000" font-family="Helvetica" font-size="10" x="122.9688" y="768.8604">(11)</text><text fill="#000000" font-family="Helvetica" font-size="10" x="147.4961" y="768.8604">&#220;bergabe Klartext-Payload</text><path d="M15,786.2188 L15,819.2188 L186,819.2188 L186,796.2188 L176,786.2188 L15,786.2188" fill="#FEFFDD" style="stroke:#181818;stroke-width:0.5;"/><path d="M176,786.2188 L176,796.2188 L186,796.2188 L176,786.2188" fill="#FEFFDD" style="stroke:#181818;stroke-width:0.5;"/><text fill="#000000" font-family="Helvetica" font-size="10" x="21" y="800.501">Anzeige der Benachrichtigung</text><text fill="#000000" font-family="Helvetica" font-size="10" x="21" y="812.1416">in der Benutzeroberfl&#228;che</text><path d="M84.9688,828.5 L148.7773,828.5 L148.7773,832.1406 L138.7773,842.1406 L84.9688,842.1406 L84.9688,828.5" fill="#EEEEEE" style="stroke:#000000;stroke-width:1.5;"/><rect fill="none" height="126.2031" style="stroke:#000000;stroke-width:1.5;" width="1065.6274" x="84.9688" y="828.5"/><text fill="#000000" font-family="Helvetica" font-size="10" font-weight="700" x="99.9688" y="838.7822">opt</text><text fill="#000000" font-family="Helvetica" font-size="10" font-weight="700" x="163.7773" y="839.7822">[Optionales Feature: Nachrichten-Historie]</text><polygon fill="#181818" points="424.5615,865.7813,434.5615,869.7813,424.5615,873.7813,428.5615,869.7813" style="stroke:#181818;stroke-width:1;stroke-linejoin:miter;stroke-miterlimit:10;"/><line style="stroke:#181818;stroke-width:1;" x1="105.9688" x2="430.5615" y1="869.7813" y2="869.7813"/><text fill="#000000" font-family="Helvetica" font-size="10" x="112.9688" y="865.4229">(12)</text><text fill="#000000" font-family="Helvetica" font-size="10" x="137.4961" y="865.4229">Abruf &#228;lterer/zugestellter Benachrichtigungen (/history/*)</text><polygon fill="#181818" points="1117.5962,891.4219,1127.5962,895.4219,1117.5962,899.4219,1121.5962,895.4219" style="stroke:#181818;stroke-width:1;stroke-linejoin:miter;stroke-miterlimit:10;"/><line style="stroke:#181818;stroke-width:1;" x1="446.5615" x2="1123.5962" y1="895.4219" y2="895.4219"/><text fill="#000000" font-family="Helvetica" font-size="10" x="453.5615" y="891.0635">(13)</text><text fill="#000000" font-family="Helvetica" font-size="10" x="478.0889" y="891.0635">Abruf &#228;lterer/zugestellter Benachrichtigungen (/history/*)</text><polygon fill="#181818" points="457.5615,917.0625,447.5615,921.0625,457.5615,925.0625,453.5615,921.0625" style="stroke:#181818;stroke-width:1;stroke-linejoin:miter;stroke-miterlimit:10;"/><line style="stroke:#181818;stroke-width:1;stroke-dasharray:2,2;" x1="451.5615" x2="1128.5962" y1="921.0625" y2="921.0625"/><text fill="#000000" font-family="Helvetica" font-size="10" x="463.5615" y="916.7041">(14)</text><text fill="#000000" font-family="Helvetica" font-size="10" x="488.0889" y="916.7041">R&#252;ckgabe Nachrichten-Historie</text><polygon fill="#181818" points="116.9688,942.7031,106.9688,946.7031,116.9688,950.7031,112.9688,946.7031" style="stroke:#181818;stroke-width:1;stroke-linejoin:miter;stroke-miterlimit:10;"/><line style="stroke:#181818;stroke-width:1;stroke-dasharray:2,2;" x1="110.9688" x2="435.5615" y1="946.7031" y2="946.7031"/><text fill="#000000" font-family="Helvetica" font-size="10" x="122.9688" y="942.3447">(15)</text><text fill="#000000" font-family="Helvetica" font-size="10" x="147.4961" y="942.3447">R&#252;ckgabe Nachrichten-Historie</text><?plantuml-src fLNRRjfQ47ttLypXI1KqDJxg8seYkK1eb2P1aAPIGbHjsuFPYZD6-v84lkKyvZFwne-TsHkRIsZLXvC7P9EPDMlMh1d-afGMDaDejwEvVIp2GYnAQzhcnGH1Khv0uw9CP84Q-fJbg5QlfW6z_irPj_-ZU_NrQXG0_ys5CZALSq466gVP3SJp-OGQ8BHxEWovxL_7q2qayij5cTa28XZtpYTqT_lbtgVn6tpwj4GZJau2f0oOIn3iWJ1oWT2CXvUwnVc3iipT-sdteZMXeTMpy8ocIcYZx8EnoiEwh_st-r3kQnW8WyzYmIJYuPh4S51f45CYqQ22wpFusFu7UinSin33qTNDMQy_saZXeykvaIK99dCJVuFcPpHAOgAVX99S3I5kDU3l2qccgr0yUdLydbTbO8NA6k2UVmo-nQFUZim7EbwMHavbAbmz6ADwaYckHOJc-BjJvUwqTx-XqF9TNOwtoZh4Mjq3z17gqgeKFJAg2JLFHJhBVEyjZ-pnHWvlhiedcQ7oc3NYPcx1yJ6CC9VQqL2MSZVlT5QiVcgDRlZTcI3oJryugEGeE3uEs0H7Hy7bc3z6xiEP8ZpX1ZeGswcoKrXQzGRuYPLmuqH57oQqBS8DF8l2k91tTRdmlAIfpAto0aueYkvYQsQTQhvwZakMLwSpjhyRI7XhSoMdKsRuW0JDth0SjkwZY2b2oCIONsUVZavG6zuPBaAvbo5Es7qvWdWmyWatZJThqxHSum6_mLLj8-MqKj8OFoAMkzQWWcBPApYgyNnanMh4eQFLp_GX5ydRkcv4dfRVbrkh3HQ5u_sCkIUohUOZBeLZaiuC27eBHILxksITEJpmrVbPRmPWO2WMHIao8Ai-m3CI0Nj9ixPBlWDA5C0cMklibu3NLnj1otKTO57R41CtIrDH51eixUCZV4V9I-hQR7llEKP1m5E7czr8vm6FkL7fX5VzwAZZmmGdlWNUxtr2V0ldbXvC1o9oAxZeKweMSuDPb0YJpg3oqUFrr_5zW8N6GmQI3Zbi6HmszqSEK3eZL2-_vE5cFHpuKlKTT5rln-wcUdWvEISCWqsAo-VRUvXP7NuGl9WPFiB0_rni4nc4dSOT2fNmfBm8ZzlV5UytbrzlqdQStkA71ipMFnGxplDvUnNUSG6pf_p4UGWsGEkhikwf0wj_awhaUS6t45zCMDass2dZGsDQegpMxpDIZUTNVKAIwdzOiqHLCkoqMBtoBNcptHfEKR3AsDboGWhhE-ZziQjAdBZ3jtfbJoXKqTBcw8TWVa737Qbevf4MqVkMnzezelyJQk_iRIxCRxlO4JeC_vZXtFeV?></g></svg>