<?xml version="1.0" encoding="us-ascii" standalone="no"?><svg xmlns="http://www.w3.org/2000/svg" xmlns:xlink="http://www.w3.org/1999/xlink" contentStyleType="text/css" height="1612px" preserveAspectRatio="none" style="width:664px;height:1612px;background:#FFFFFF;" version="1.1" viewBox="0 0 664 1612" width="664px" zoomAndPan="magnify"><defs/><g><rect fill="#FEFCFF" height="1561.75" style="stroke:#181818;stroke-width:0.5;" width="288.5" x="16" y="44.6094"/><text fill="#000000" font-family="Helvetica" font-size="10" font-weight="bold" x="142.75" y="54.9902">Device</text><rect fill="#E6E6FA" height="1544.1719" style="stroke:#181818;stroke-width:0.5;" width="92" x="16" y="62.1875"/><text fill="#000000" font-family="Helvetica" font-size="10" font-weight="bold" x="28" y="72.5684">Prim&#228;rsystem</text><rect fill="#FFF3E5" height="1561.75" style="stroke:#181818;stroke-width:0.5;" width="118" x="331" y="44.6094"/><text fill="#000000" font-family="Helvetica" font-size="10" font-weight="bold" x="361" y="54.9902">ZETA Guard</text><text fill="#000000" font-family="Helvetica" font-size="14" font-weight="bold" x="151" y="29.5332">&#220;berblick Attestierungsabl&#228;ufe nach Betriebssystem</text><line style="stroke:#000000;stroke-width:0.5;stroke-dasharray:5.0,5.0;" x1="62" x2="62" y1="106.3438" y2="1572.7813"/><line style="stroke:#000000;stroke-width:0.5;stroke-dasharray:5.0,5.0;" x1="234" x2="234" y1="106.3438" y2="1572.7813"/><rect fill="#FFFFFF" height="78.7344" style="stroke:#000000;stroke-width:1.0;" width="10" x="229" y="351.9688"/><rect fill="#FFFFFF" height="66.1563" style="stroke:#000000;stroke-width:1.0;" width="10" x="229" y="457.2813"/><line style="stroke:#000000;stroke-width:0.5;stroke-dasharray:5.0,5.0;" x1="390" x2="390" y1="106.3438" y2="1572.7813"/><rect fill="#FFFFFF" height="1022.7656" style="stroke:#000000;stroke-width:1.0;" width="10" x="385" y="550.0156"/><rect fill="#FFFFFF" height="846.875" style="stroke:#000000;stroke-width:1.0;" width="10" x="390" y="725.9063"/><rect fill="#FFFFFF" height="573.25" style="stroke:#000000;stroke-width:1.0;" width="10" x="395" y="999.5313"/><rect fill="#FFFFFF" height="365.3594" style="stroke:#000000;stroke-width:1.0;" width="10" x="400" y="1175.4219"/><rect fill="#FFFFFF" height="107.3125" style="stroke:#000000;stroke-width:1.0;" width="10" x="405" y="1336.7344"/><rect fill="#FFE6CC" height="26.5781" rx="2.5" ry="2.5" style="stroke:#D79B00;stroke-width:0.5;" width="72" x="26" y="78.7656"/><text fill="#000000" font-family="Helvetica" font-size="10" x="33" y="96.1465">ZETA Client</text><rect fill="#FFE6CC" height="26.5781" rx="2.5" ry="2.5" style="stroke:#D79B00;stroke-width:0.5;" width="133" x="167.5" y="78.7656"/><text fill="#000000" font-family="Helvetica" font-size="10" x="174.5" y="96.1465">ZETA Attestation Service</text><rect fill="#FFE6CC" height="26.5781" rx="2.5" ry="2.5" style="stroke:#D79B00;stroke-width:0.5;" width="110" x="335" y="78.7656"/><text fill="#000000" font-family="Helvetica" font-size="10" x="342" y="96.1465">Authorization Server</text><rect fill="#FFE6CC" height="26.5781" rx="2.5" ry="2.5" style="stroke:#D79B00;stroke-width:0.5;" width="72" x="26" y="1572.7813"/><text fill="#000000" font-family="Helvetica" font-size="10" x="33" y="1590.1621">ZETA Client</text><rect fill="#FFE6CC" height="26.5781" rx="2.5" ry="2.5" style="stroke:#D79B00;stroke-width:0.5;" width="133" x="167.5" y="1572.7813"/><text fill="#000000" font-family="Helvetica" font-size="10" x="174.5" y="1590.1621">ZETA Attestation Service</text><rect fill="#FFE6CC" height="26.5781" rx="2.5" ry="2.5" style="stroke:#D79B00;stroke-width:0.5;" width="110" x="335" y="1572.7813"/><text fill="#000000" font-family="Helvetica" font-size="10" x="342" y="1590.1621">Authorization Server</text><rect fill="#EEEEEE" height="3" style="stroke:#EEEEEE;stroke-width:1.0;" width="652" x="5" y="133.6328"/><line style="stroke:#000000;stroke-width:1.0;" x1="5" x2="657" y1="133.6328" y2="133.6328"/><line style="stroke:#000000;stroke-width:1.0;" x1="5" x2="657" y1="136.6328" y2="136.6328"/><rect fill="#EEEEEE" height="20.5781" style="stroke:#000000;stroke-width:2.0;" width="57" x="302.5" y="124.3438"/><text fill="#000000" font-family="Helvetica" font-size="10" font-weight="bold" x="308.5" y="138.7246">Einstieg</text><line style="stroke:#181818;stroke-width:1.0;" x1="62" x2="104" y1="186.0781" y2="186.0781"/><line style="stroke:#181818;stroke-width:1.0;" x1="104" x2="104" y1="186.0781" y2="199.0781"/><line style="stroke:#181818;stroke-width:1.0;" x1="63" x2="104" y1="199.0781" y2="199.0781"/><polygon fill="#181818" points="73,195.0781,63,199.0781,73,203.0781,69,199.0781" style="stroke:#181818;stroke-width:1.0;"/><text fill="#000000" font-family="Helvetica" font-size="10" x="69" y="175.5918">(01)</text><text fill="#000000" font-family="Helvetica" font-size="10" x="91" y="169.3027">Installation &amp; Start</text><text fill="#000000" font-family="Helvetica" font-size="10" x="91" y="181.8809">Schl&#252;sselgenerierung</text><rect fill="#EEEEEE" height="3" style="stroke:#EEEEEE;stroke-width:1.0;" width="652" x="5" y="226.3672"/><line style="stroke:#000000;stroke-width:1.0;" x1="5" x2="657" y1="226.3672" y2="226.3672"/><line style="stroke:#000000;stroke-width:1.0;" x1="5" x2="657" y1="229.3672" y2="229.3672"/><rect fill="#EEEEEE" height="20.5781" style="stroke:#000000;stroke-width:2.0;" width="147" x="257.5" y="217.0781"/><text fill="#000000" font-family="Helvetica" font-size="10" font-weight="bold" x="263.5" y="231.459">Wahl des Betriebssystems</text><path d="M8,251.6563 L65,251.6563 L65,256.2344 L55,266.2344 L8,266.2344 L8,251.6563 " fill="#EEEEEE" style="stroke:#000000;stroke-width:1.5;"/><rect fill="none" height="999.3438" style="stroke:#000000;stroke-width:1.5;" width="640" x="8" y="251.6563"/><text fill="#000000" font-family="Helvetica" font-size="10" font-weight="bold" x="23" y="263.0371">alt</text><text fill="#000000" font-family="Helvetica" font-size="10" font-weight="bold" x="80" y="264.0371">[Windows / Linux]</text><line style="stroke:#000000;stroke-width:1.0;stroke-dasharray:2.0,2.0;" x1="8" x2="648" y1="812.4844" y2="812.4844"/><text fill="#000000" font-family="Helvetica" font-size="10" font-weight="bold" x="13" y="824.8652">[macOS]</text><path d="M27,280.2344 L178,280.2344 L178,284.8125 L168,294.8125 L27,294.8125 L27,280.2344 " fill="#EEEEEE" style="stroke:#000000;stroke-width:1.5;"/><rect fill="none" height="507.25" style="stroke:#000000;stroke-width:1.5;" width="587" x="27" y="280.2344"/><text fill="#000000" font-family="Helvetica" font-size="10" font-weight="bold" x="42" y="291.6152">Windows / Linux Pfad</text><path d="M46,308.8125 L103,308.8125 L103,313.3906 L93,323.3906 L46,323.3906 L46,308.8125 " fill="#EEEEEE" style="stroke:#000000;stroke-width:1.5;"/><rect fill="none" height="464.6719" style="stroke:#000000;stroke-width:1.5;" width="543" x="46" y="308.8125"/><text fill="#000000" font-family="Helvetica" font-size="10" font-weight="bold" x="61" y="320.1934">alt</text><text fill="#000000" font-family="Helvetica" font-size="10" font-weight="bold" x="118" y="321.1934">[TPM + ZAS verf&#252;gbar]</text><line style="stroke:#000000;stroke-width:1.0;stroke-dasharray:2.0,2.0;" x1="46" x2="589" y1="608.5938" y2="608.5938"/><text fill="#000000" font-family="Helvetica" font-size="10" font-weight="bold" x="51" y="620.9746">[Software Fallback]</text><polygon fill="#181818" points="217,347.9688,227,351.9688,217,355.9688,221,351.9688" style="stroke:#181818;stroke-width:1.0;"/><line style="stroke:#181818;stroke-width:1.0;" x1="62" x2="223" y1="351.9688" y2="351.9688"/><text fill="#000000" font-family="Helvetica" font-size="10" x="69" y="347.7715">(02)</text><text fill="#000000" font-family="Helvetica" font-size="10" x="91" y="347.7715">Initialisierung</text><line style="stroke:#181818;stroke-width:1.0;" x1="239" x2="281" y1="391.125" y2="391.125"/><line style="stroke:#181818;stroke-width:1.0;" x1="281" x2="281" y1="391.125" y2="404.125"/><line style="stroke:#181818;stroke-width:1.0;" x1="240" x2="281" y1="404.125" y2="404.125"/><polygon fill="#181818" points="250,400.125,240,404.125,250,408.125,246,404.125" style="stroke:#181818;stroke-width:1.0;"/><text fill="#000000" font-family="Helvetica" font-size="10" x="246" y="380.6387">(03)</text><text fill="#000000" font-family="Helvetica" font-size="10" x="268" y="374.3496">TPM Setup</text><text fill="#000000" font-family="Helvetica" font-size="10" x="268" y="386.9277">(SRK, AK, PCR)</text><line style="stroke:#181818;stroke-width:1.0;" x1="63" x2="73" y1="430.7031" y2="426.7031"/><line style="stroke:#181818;stroke-width:1.0;" x1="63" x2="73" y1="430.7031" y2="434.7031"/><line style="stroke:#181818;stroke-width:1.0;stroke-dasharray:2.0,2.0;" x1="62" x2="228" y1="430.7031" y2="430.7031"/><text fill="#000000" font-family="Helvetica" font-size="10" x="79" y="426.5059">(04)</text><text fill="#000000" font-family="Helvetica" font-size="10" x="101" y="426.5059">Schl&#252;ssel + Handles</text><polygon fill="#181818" points="217,453.2813,227,457.2813,217,461.2813,221,457.2813" style="stroke:#181818;stroke-width:1.0;"/><line style="stroke:#181818;stroke-width:1.0;" x1="62" x2="223" y1="457.2813" y2="457.2813"/><text fill="#000000" font-family="Helvetica" font-size="10" x="69" y="453.084">(05)</text><text fill="#000000" font-family="Helvetica" font-size="10" x="91" y="453.084">GetEvidence (Nonce)</text><line style="stroke:#181818;stroke-width:1.0;" x1="239" x2="281" y1="483.8594" y2="483.8594"/><line style="stroke:#181818;stroke-width:1.0;" x1="281" x2="281" y1="483.8594" y2="496.8594"/><line style="stroke:#181818;stroke-width:1.0;" x1="240" x2="281" y1="496.8594" y2="496.8594"/><polygon fill="#181818" points="250,492.8594,240,496.8594,250,500.8594,246,496.8594" style="stroke:#181818;stroke-width:1.0;"/><text fill="#000000" font-family="Helvetica" font-size="10" x="246" y="479.6621">(06)</text><text fill="#000000" font-family="Helvetica" font-size="10" x="268" y="479.6621">TPM Quote + Event Log</text><line style="stroke:#181818;stroke-width:1.0;" x1="63" x2="73" y1="523.4375" y2="519.4375"/><line style="stroke:#181818;stroke-width:1.0;" x1="63" x2="73" y1="523.4375" y2="527.4375"/><line style="stroke:#181818;stroke-width:1.0;stroke-dasharray:2.0,2.0;" x1="62" x2="228" y1="523.4375" y2="523.4375"/><text fill="#000000" font-family="Helvetica" font-size="10" x="79" y="519.2402">(07)</text><text fill="#000000" font-family="Helvetica" font-size="10" x="101" y="519.2402">Evidence</text><polygon fill="#181818" points="373,546.0156,383,550.0156,373,554.0156,377,550.0156" style="stroke:#181818;stroke-width:1.0;"/><line style="stroke:#181818;stroke-width:1.0;" x1="62" x2="379" y1="550.0156" y2="550.0156"/><text fill="#000000" font-family="Helvetica" font-size="10" x="69" y="545.8184">(08)</text><text fill="#000000" font-family="Helvetica" font-size="10" x="91" y="545.8184">Registrierung (TPM Attestation)</text><line style="stroke:#181818;stroke-width:1.0;" x1="395" x2="437" y1="576.5938" y2="576.5938"/><line style="stroke:#181818;stroke-width:1.0;" x1="437" x2="437" y1="576.5938" y2="589.5938"/><line style="stroke:#181818;stroke-width:1.0;" x1="396" x2="437" y1="589.5938" y2="589.5938"/><polygon fill="#181818" points="406,585.5938,396,589.5938,406,593.5938,402,589.5938" style="stroke:#181818;stroke-width:1.0;"/><text fill="#000000" font-family="Helvetica" font-size="10" x="402" y="572.3965">(09)</text><text fill="#000000" font-family="Helvetica" font-size="10" x="424" y="572.3965">Verifiziere TPM Nachweis</text><line style="stroke:#181818;stroke-width:1.0;" x1="62" x2="104" y1="646.75" y2="646.75"/><line style="stroke:#181818;stroke-width:1.0;" x1="104" x2="104" y1="646.75" y2="659.75"/><line style="stroke:#181818;stroke-width:1.0;" x1="63" x2="104" y1="659.75" y2="659.75"/><polygon fill="#181818" points="73,655.75,63,659.75,73,663.75,69,659.75" style="stroke:#181818;stroke-width:1.0;"/><text fill="#000000" font-family="Helvetica" font-size="10" x="69" y="642.5527">(10)</text><text fill="#000000" font-family="Helvetica" font-size="10" x="91" y="642.5527">Software-Schl&#252;sselpaar</text><line style="stroke:#181818;stroke-width:1.0;" x1="62" x2="104" y1="686.3281" y2="686.3281"/><line style="stroke:#181818;stroke-width:1.0;" x1="104" x2="104" y1="686.3281" y2="699.3281"/><line style="stroke:#181818;stroke-width:1.0;" x1="63" x2="104" y1="699.3281" y2="699.3281"/><polygon fill="#181818" points="73,695.3281,63,699.3281,73,703.3281,69,699.3281" style="stroke:#181818;stroke-width:1.0;"/><text fill="#000000" font-family="Helvetica" font-size="10" x="69" y="682.1309">(11)</text><text fill="#000000" font-family="Helvetica" font-size="10" x="91" y="682.1309">Posture-Erhebung</text><polygon fill="#181818" points="378,721.9063,388,725.9063,378,729.9063,382,725.9063" style="stroke:#181818;stroke-width:1.0;"/><line style="stroke:#181818;stroke-width:1.0;" x1="62" x2="384" y1="725.9063" y2="725.9063"/><text fill="#000000" font-family="Helvetica" font-size="10" x="69" y="721.709">(12)</text><text fill="#000000" font-family="Helvetica" font-size="10" x="91" y="721.709">Registrierung (Software)</text><line style="stroke:#181818;stroke-width:1.0;" x1="400" x2="442" y1="752.4844" y2="752.4844"/><line style="stroke:#181818;stroke-width:1.0;" x1="442" x2="442" y1="752.4844" y2="765.4844"/><line style="stroke:#181818;stroke-width:1.0;" x1="401" x2="442" y1="765.4844" y2="765.4844"/><polygon fill="#181818" points="411,761.4844,401,765.4844,411,769.4844,407,765.4844" style="stroke:#181818;stroke-width:1.0;"/><text fill="#000000" font-family="Helvetica" font-size="10" x="407" y="748.2871">(13)</text><text fill="#000000" font-family="Helvetica" font-size="10" x="429" y="748.2871">Basisvalidierung</text><path d="M27,836.0625 L133,836.0625 L133,840.6406 L123,850.6406 L27,850.6406 L27,836.0625 " fill="#EEEEEE" style="stroke:#000000;stroke-width:1.5;"/><rect fill="none" height="400.9375" style="stroke:#000000;stroke-width:1.5;" width="596" x="27" y="836.0625"/><text fill="#000000" font-family="Helvetica" font-size="10" font-weight="bold" x="42" y="847.4434">macOS Pfad</text><path d="M46,864.6406 L103,864.6406 L103,869.2188 L93,879.2188 L46,879.2188 L46,864.6406 " fill="#EEEEEE" style="stroke:#000000;stroke-width:1.5;"/><rect fill="none" height="358.3594" style="stroke:#000000;stroke-width:1.5;" width="552" x="46" y="864.6406"/><text fill="#000000" font-family="Helvetica" font-size="10" font-weight="bold" x="61" y="876.0215">alt</text><text fill="#000000" font-family="Helvetica" font-size="10" font-weight="bold" x="118" y="877.0215">[Secure Enclave verf&#252;gbar]</text><line style="stroke:#000000;stroke-width:1.0;stroke-dasharray:2.0,2.0;" x1="46" x2="598" y1="1058.1094" y2="1058.1094"/><text fill="#000000" font-family="Helvetica" font-size="10" font-weight="bold" x="51" y="1070.4902">[Software Fallback]</text><line style="stroke:#181818;stroke-width:1.0;" x1="62" x2="104" y1="907.7969" y2="907.7969"/><line style="stroke:#181818;stroke-width:1.0;" x1="104" x2="104" y1="907.7969" y2="920.7969"/><line style="stroke:#181818;stroke-width:1.0;" x1="63" x2="104" y1="920.7969" y2="920.7969"/><polygon fill="#181818" points="73,916.7969,63,920.7969,73,924.7969,69,920.7969" style="stroke:#181818;stroke-width:1.0;"/><text fill="#000000" font-family="Helvetica" font-size="10" x="69" y="903.5996">(14)</text><text fill="#000000" font-family="Helvetica" font-size="10" x="91" y="903.5996">Schl&#252;ssel in Secure Enclave</text><line style="stroke:#181818;stroke-width:1.0;" x1="62" x2="104" y1="959.9531" y2="959.9531"/><line style="stroke:#181818;stroke-width:1.0;" x1="104" x2="104" y1="959.9531" y2="972.9531"/><line style="stroke:#181818;stroke-width:1.0;" x1="63" x2="104" y1="972.9531" y2="972.9531"/><polygon fill="#181818" points="73,968.9531,63,972.9531,73,976.9531,69,972.9531" style="stroke:#181818;stroke-width:1.0;"/><text fill="#000000" font-family="Helvetica" font-size="10" x="69" y="949.4668">(15)</text><text fill="#000000" font-family="Helvetica" font-size="10" x="91" y="943.1777">App Attest Assertion</text><text fill="#000000" font-family="Helvetica" font-size="10" x="91" y="955.7559">(Nonce + Posture)</text><polygon fill="#181818" points="383,995.5313,393,999.5313,383,1003.5313,387,999.5313" style="stroke:#181818;stroke-width:1.0;"/><line style="stroke:#181818;stroke-width:1.0;" x1="62" x2="389" y1="999.5313" y2="999.5313"/><text fill="#000000" font-family="Helvetica" font-size="10" x="69" y="995.334">(16)</text><text fill="#000000" font-family="Helvetica" font-size="10" x="91" y="995.334">Registrierung (Apple Attestation)</text><line style="stroke:#181818;stroke-width:1.0;" x1="405" x2="447" y1="1026.1094" y2="1026.1094"/><line style="stroke:#181818;stroke-width:1.0;" x1="447" x2="447" y1="1026.1094" y2="1039.1094"/><line style="stroke:#181818;stroke-width:1.0;" x1="406" x2="447" y1="1039.1094" y2="1039.1094"/><polygon fill="#181818" points="416,1035.1094,406,1039.1094,416,1043.1094,412,1039.1094" style="stroke:#181818;stroke-width:1.0;"/><text fill="#000000" font-family="Helvetica" font-size="10" x="412" y="1021.9121">(17)</text><text fill="#000000" font-family="Helvetica" font-size="10" x="434" y="1021.9121">Validiere Attestation Object</text><line style="stroke:#181818;stroke-width:1.0;" x1="62" x2="104" y1="1096.2656" y2="1096.2656"/><line style="stroke:#181818;stroke-width:1.0;" x1="104" x2="104" y1="1096.2656" y2="1109.2656"/><line style="stroke:#181818;stroke-width:1.0;" x1="63" x2="104" y1="1109.2656" y2="1109.2656"/><polygon fill="#181818" points="73,1105.2656,63,1109.2656,73,1113.2656,69,1109.2656" style="stroke:#181818;stroke-width:1.0;"/><text fill="#000000" font-family="Helvetica" font-size="10" x="69" y="1092.0684">(18)</text><text fill="#000000" font-family="Helvetica" font-size="10" x="91" y="1092.0684">Software-Schl&#252;sselpaar</text><line style="stroke:#181818;stroke-width:1.0;" x1="62" x2="104" y1="1135.8438" y2="1135.8438"/><line style="stroke:#181818;stroke-width:1.0;" x1="104" x2="104" y1="1135.8438" y2="1148.8438"/><line style="stroke:#181818;stroke-width:1.0;" x1="63" x2="104" y1="1148.8438" y2="1148.8438"/><polygon fill="#181818" points="73,1144.8438,63,1148.8438,73,1152.8438,69,1148.8438" style="stroke:#181818;stroke-width:1.0;"/><text fill="#000000" font-family="Helvetica" font-size="10" x="69" y="1131.6465">(19)</text><text fill="#000000" font-family="Helvetica" font-size="10" x="91" y="1131.6465">Posture-Erhebung</text><polygon fill="#181818" points="388,1171.4219,398,1175.4219,388,1179.4219,392,1175.4219" style="stroke:#181818;stroke-width:1.0;"/><line style="stroke:#181818;stroke-width:1.0;" x1="62" x2="394" y1="1175.4219" y2="1175.4219"/><text fill="#000000" font-family="Helvetica" font-size="10" x="69" y="1171.2246">(20)</text><text fill="#000000" font-family="Helvetica" font-size="10" x="91" y="1171.2246">Registrierung (Software)</text><line style="stroke:#181818;stroke-width:1.0;" x1="410" x2="452" y1="1202" y2="1202"/><line style="stroke:#181818;stroke-width:1.0;" x1="452" x2="452" y1="1202" y2="1215"/><line style="stroke:#181818;stroke-width:1.0;" x1="411" x2="452" y1="1215" y2="1215"/><polygon fill="#181818" points="421,1211,411,1215,421,1219,417,1215" style="stroke:#181818;stroke-width:1.0;"/><text fill="#000000" font-family="Helvetica" font-size="10" x="417" y="1197.8027">(21)</text><text fill="#000000" font-family="Helvetica" font-size="10" x="439" y="1197.8027">Basisvalidierung</text><rect fill="#EEEEEE" height="3" style="stroke:#EEEEEE;stroke-width:1.0;" width="652" x="5" y="1284.2891"/><line style="stroke:#000000;stroke-width:1.0;" x1="5" x2="657" y1="1284.2891" y2="1284.2891"/><line style="stroke:#000000;stroke-width:1.0;" x1="5" x2="657" y1="1287.2891" y2="1287.2891"/><rect fill="#EEEEEE" height="20.5781" style="stroke:#000000;stroke-width:2.0;" width="123" x="269.5" y="1275"/><text fill="#000000" font-family="Helvetica" font-size="10" font-weight="bold" x="275.5" y="1289.3809">Gemeinsame Schritte</text><polygon fill="#181818" points="393,1332.7344,403,1336.7344,393,1340.7344,397,1336.7344" style="stroke:#181818;stroke-width:1.0;"/><line style="stroke:#181818;stroke-width:1.0;" x1="62" x2="399" y1="1336.7344" y2="1336.7344"/><text fill="#000000" font-family="Helvetica" font-size="10" x="69" y="1326.248">(22)</text><text fill="#000000" font-family="Helvetica" font-size="10" x="91" y="1319.959">Token Exchange</text><text fill="#000000" font-family="Helvetica" font-size="10" x="91" y="1332.5371">(client_assertion + Evidence)</text><path d="M46,1348.7344 L103,1348.7344 L103,1353.3125 L93,1363.3125 L46,1363.3125 L46,1348.7344 " fill="#EEEEEE" style="stroke:#000000;stroke-width:1.5;"/><rect fill="none" height="200.0469" style="stroke:#000000;stroke-width:1.5;" width="508" x="46" y="1348.7344"/><text fill="#000000" font-family="Helvetica" font-size="10" font-weight="bold" x="61" y="1360.1152">alt</text><text fill="#000000" font-family="Helvetica" font-size="10" font-weight="bold" x="118" y="1361.1152">[Hardware Attestation]</text><line style="stroke:#000000;stroke-width:1.0;stroke-dasharray:2.0,2.0;" x1="46" x2="554" y1="1463.0469" y2="1463.0469"/><text fill="#000000" font-family="Helvetica" font-size="10" font-weight="bold" x="51" y="1475.4277">[Software Attestation]</text><line style="stroke:#181818;stroke-width:1.0;" x1="415" x2="457" y1="1404.4688" y2="1404.4688"/><line style="stroke:#181818;stroke-width:1.0;" x1="457" x2="457" y1="1404.4688" y2="1417.4688"/><line style="stroke:#181818;stroke-width:1.0;" x1="416" x2="457" y1="1417.4688" y2="1417.4688"/><polygon fill="#181818" points="426,1413.4688,416,1417.4688,426,1421.4688,422,1417.4688" style="stroke:#181818;stroke-width:1.0;"/><text fill="#000000" font-family="Helvetica" font-size="10" x="422" y="1393.9824">(23)</text><text fill="#000000" font-family="Helvetica" font-size="10" x="444" y="1387.6934">Erweiterte Pr&#252;fung</text><text fill="#000000" font-family="Helvetica" font-size="10" x="444" y="1400.2715">(TPM / SE)</text><line style="stroke:#181818;stroke-width:1.0;" x1="63" x2="73" y1="1444.0469" y2="1440.0469"/><line style="stroke:#181818;stroke-width:1.0;" x1="63" x2="73" y1="1444.0469" y2="1448.0469"/><line style="stroke:#181818;stroke-width:1.0;stroke-dasharray:2.0,2.0;" x1="62" x2="384" y1="1444.0469" y2="1444.0469"/><text fill="#000000" font-family="Helvetica" font-size="10" x="79" y="1439.8496">(24)</text><text fill="#000000" font-family="Helvetica" font-size="10" x="101" y="1439.8496">Access Token + zg_att_token</text><line style="stroke:#181818;stroke-width:1.0;" x1="410" x2="452" y1="1501.2031" y2="1501.2031"/><line style="stroke:#181818;stroke-width:1.0;" x1="452" x2="452" y1="1501.2031" y2="1514.2031"/><line style="stroke:#181818;stroke-width:1.0;" x1="411" x2="452" y1="1514.2031" y2="1514.2031"/><polygon fill="#181818" points="421,1510.2031,411,1514.2031,421,1518.2031,417,1514.2031" style="stroke:#181818;stroke-width:1.0;"/><text fill="#000000" font-family="Helvetica" font-size="10" x="417" y="1497.0059">(25)</text><text fill="#000000" font-family="Helvetica" font-size="10" x="439" y="1497.0059">Basispr&#252;fung</text><line style="stroke:#181818;stroke-width:1.0;" x1="63" x2="73" y1="1540.7813" y2="1536.7813"/><line style="stroke:#181818;stroke-width:1.0;" x1="63" x2="73" y1="1540.7813" y2="1544.7813"/><line style="stroke:#181818;stroke-width:1.0;stroke-dasharray:2.0,2.0;" x1="62" x2="384" y1="1540.7813" y2="1540.7813"/><text fill="#000000" font-family="Helvetica" font-size="10" x="79" y="1536.584">(26)</text><text fill="#000000" font-family="Helvetica" font-size="10" x="101" y="1536.584">Access Token</text><!--SRC=[xLNRJjj047ttLmnvg8ZIm7i4aKnm0ogGD4v1HKZHsfuuMvorjRiEa6_f8v_1MtwiisixjmA1zrgAVDcTCsVEd9tiSH4cUOHmS72OvTEacR2dDDS7-b4xpbucMJnbe36TWvOvEexcEa5O_0bG1WaFxy7L6fNcA7CHAnOaY-TyZ21OE84Jr99ZeDIJqZXrd21zXDefpdY8DJZrhiyxtgZJk-WD702xrfTykdYMnVuQz0Vdbwuty7_vG-zokHCWOrBpa6TCQEWa7Ed65DHklQ5RljVWw6YEchNR580YCl3EPk2jww-YYYAOvga07sN1S0bH0HG5s81kpcHK0_Cywlvq1wTBUkivt5nFYYpcAPLylag1yhKCnyVWSM7qZE7us77Ayfhjih0MdDCgIv82w0luclBT2J-S98iNfJ29KQ0isc7XRjWaWGZLLZUKXMU9XXikelH1mI5SS94J1oDnBDCysrw2_fX5nRgvJF2mVmaDgoKLD5wyn06JomtcMXL0cneDmvzhpXAkIexhcmrEiRDbaNtKUNOdzlt1zw_Wqg_V6TJ_ZMYsAtcQpHQif21cPqn42IhdVKvTrDwCHoX2XFshb6xrTtdzo5EDXExD3Cv56k_YLA6_nSCQnJ0POCoLBli7-oRPcZStMHNkgg9RS4rz7_CvnQ9bUKLdy07vMl6OA0G_7Ui7Hdk-aOq25jw_HQfoN1NGN2cRiJVRN4NrKwLp2lBa10Dhni-LNcLzl-OJfhYQaPsYolBBMaLfLNEsh9qTnzO_PM7FNtUv_V2AjtqCgG3mQ42o6QuRV9TWAmToiGMp8zJDihBXu1A0D5sd0s0zIOOhHQr_Lao2fQdzSIULWcw4G2_uZQ7-xwQbcymtch1Td2BDR3P5qtd9IRAjsRraDKplKO3t64wOY94Q6zez8rRrsWwLObRKY_5yHdyqLk2rLZYlaVSa7NPDC0XzkNWP4tzAO0R18VXUVJrcSpYvOOXAbTmQC8z7JEkHDg_EPeztKR3wPMNoZoMqAlu5]--></g></svg>