<?xml version="1.0" encoding="us-ascii" standalone="no"?><svg xmlns="http://www.w3.org/2000/svg" xmlns:xlink="http://www.w3.org/1999/xlink" contentStyleType="text/css" height="1567px" preserveAspectRatio="none" style="width:588px;height:1567px;background:#FFFFFF;" version="1.1" viewBox="0 0 588 1567" width="588px" zoomAndPan="magnify"><defs/><g><rect fill="#FEFCFF" height="1516.9531" style="stroke:#181818;stroke-width:0.5;" width="264.5" x="16" y="44.6094"/><text fill="#000000" font-family="Helvetica" font-size="10" font-weight="bold" x="130.75" y="54.9902">Device</text><rect fill="#E6E6FA" height="1499.375" style="stroke:#181818;stroke-width:0.5;" width="92" x="16" y="62.1875"/><text fill="#000000" font-family="Helvetica" font-size="10" font-weight="bold" x="28" y="72.5684">Prim&#228;rsystem</text><rect fill="#FFF3E5" height="1516.9531" style="stroke:#181818;stroke-width:0.5;" width="118" x="292.5" y="44.6094"/><text fill="#000000" font-family="Helvetica" font-size="10" font-weight="bold" x="322.5" y="54.9902">ZETA Guard</text><text fill="#000000" font-family="Helvetica" font-size="14" font-weight="bold" x="113.25" y="29.5332">&#220;berblick Attestierungsabl&#228;ufe nach Betriebssystem</text><line style="stroke:#000000;stroke-width:0.5;stroke-dasharray:5.0,5.0;" x1="62" x2="62" y1="106.3438" y2="1527.9844"/><line style="stroke:#000000;stroke-width:0.5;stroke-dasharray:5.0,5.0;" x1="210" x2="210" y1="106.3438" y2="1527.9844"/><line style="stroke:#000000;stroke-width:0.5;stroke-dasharray:5.0,5.0;" x1="351.5" x2="351.5" y1="106.3438" y2="1527.9844"/><rect fill="#FFE6CC" height="26.5781" rx="2.5" ry="2.5" style="stroke:#D79B00;stroke-width:0.5;" width="72" x="26" y="78.7656"/><text fill="#000000" font-family="Helvetica" font-size="10" x="33" y="96.1465">ZETA Client</text><rect fill="#FFE6CC" height="26.5781" rx="2.5" ry="2.5" style="stroke:#D79B00;stroke-width:0.5;" width="133" x="143.5" y="78.7656"/><text fill="#000000" font-family="Helvetica" font-size="10" x="150.5" y="96.1465">ZETA Attestation Service</text><rect fill="#FFE6CC" height="26.5781" rx="2.5" ry="2.5" style="stroke:#D79B00;stroke-width:0.5;" width="110" x="296.5" y="78.7656"/><text fill="#000000" font-family="Helvetica" font-size="10" x="303.5" y="96.1465">Authorization Server</text><rect fill="#FFE6CC" height="26.5781" rx="2.5" ry="2.5" style="stroke:#D79B00;stroke-width:0.5;" width="72" x="26" y="1527.9844"/><text fill="#000000" font-family="Helvetica" font-size="10" x="33" y="1545.3652">ZETA Client</text><rect fill="#FFE6CC" height="26.5781" rx="2.5" ry="2.5" style="stroke:#D79B00;stroke-width:0.5;" width="133" x="143.5" y="1527.9844"/><text fill="#000000" font-family="Helvetica" font-size="10" x="150.5" y="1545.3652">ZETA Attestation Service</text><rect fill="#FFE6CC" height="26.5781" rx="2.5" ry="2.5" style="stroke:#D79B00;stroke-width:0.5;" width="110" x="296.5" y="1527.9844"/><text fill="#000000" font-family="Helvetica" font-size="10" x="303.5" y="1545.3652">Authorization Server</text><rect fill="#EEEEEE" height="3" style="stroke:#EEEEEE;stroke-width:1.0;" width="576.5" x="5" y="133.6328"/><line style="stroke:#000000;stroke-width:1.0;" x1="5" x2="581.5" y1="133.6328" y2="133.6328"/><line style="stroke:#000000;stroke-width:1.0;" x1="5" x2="581.5" y1="136.6328" y2="136.6328"/><rect fill="#EEEEEE" height="20.5781" style="stroke:#000000;stroke-width:2.0;" width="57" x="264.75" y="124.3438"/><text fill="#000000" font-family="Helvetica" font-size="10" font-weight="bold" x="270.75" y="138.7246">Einstieg</text><line style="stroke:#181818;stroke-width:1.0;" x1="62" x2="104" y1="186.0781" y2="186.0781"/><line style="stroke:#181818;stroke-width:1.0;" x1="104" x2="104" y1="186.0781" y2="199.0781"/><line style="stroke:#181818;stroke-width:1.0;" x1="63" x2="104" y1="199.0781" y2="199.0781"/><polygon fill="#181818" points="73,195.0781,63,199.0781,73,203.0781,69,199.0781" style="stroke:#181818;stroke-width:1.0;"/><text fill="#000000" font-family="Helvetica" font-size="10" x="69" y="175.5918">(01)</text><text fill="#000000" font-family="Helvetica" font-size="10" x="91" y="169.3027">Installation &amp; Start</text><text fill="#000000" font-family="Helvetica" font-size="10" x="91" y="181.8809">Schl&#252;sselgenerierung</text><rect fill="#EEEEEE" height="3" style="stroke:#EEEEEE;stroke-width:1.0;" width="576.5" x="5" y="226.3672"/><line style="stroke:#000000;stroke-width:1.0;" x1="5" x2="581.5" y1="226.3672" y2="226.3672"/><line style="stroke:#000000;stroke-width:1.0;" x1="5" x2="581.5" y1="229.3672" y2="229.3672"/><rect fill="#EEEEEE" height="20.5781" style="stroke:#000000;stroke-width:2.0;" width="188" x="199.25" y="217.0781"/><text fill="#000000" font-family="Helvetica" font-size="10" font-weight="bold" x="205.25" y="231.459">Betriebssystem-abh&#228;ngige Schritte</text><path d="M8,251.6563 L65,251.6563 L65,256.2344 L55,266.2344 L8,266.2344 L8,251.6563 " fill="#EEEEEE" style="stroke:#000000;stroke-width:1.5;"/><rect fill="none" height="968.5469" style="stroke:#000000;stroke-width:1.5;" width="564.5" x="8" y="251.6563"/><text fill="#000000" font-family="Helvetica" font-size="10" font-weight="bold" x="23" y="263.0371">alt</text><text fill="#000000" font-family="Helvetica" font-size="10" font-weight="bold" x="80" y="264.0371">[Windows / Linux]</text><line style="stroke:#000000;stroke-width:1.0;stroke-dasharray:2.0,2.0;" x1="8" x2="572.5" y1="825.9531" y2="825.9531"/><text fill="#000000" font-family="Helvetica" font-size="10" font-weight="bold" x="13" y="838.334">[macOS]</text><path d="M27,280.2344 L178,280.2344 L178,284.8125 L168,294.8125 L27,294.8125 L27,280.2344 " fill="#EEEEEE" style="stroke:#000000;stroke-width:1.5;"/><rect fill="none" height="520.7188" style="stroke:#000000;stroke-width:1.5;" width="506.5" x="27" y="280.2344"/><text fill="#000000" font-family="Helvetica" font-size="10" font-weight="bold" x="42" y="291.6152">Windows / Linux Pfad</text><path d="M46,308.8125 L103,308.8125 L103,313.3906 L93,323.3906 L46,323.3906 L46,308.8125 " fill="#EEEEEE" style="stroke:#000000;stroke-width:1.5;"/><rect fill="none" height="478.1406" style="stroke:#000000;stroke-width:1.5;" width="462.5" x="46" y="308.8125"/><text fill="#000000" font-family="Helvetica" font-size="10" font-weight="bold" x="61" y="320.1934">alt</text><text fill="#000000" font-family="Helvetica" font-size="10" font-weight="bold" x="118" y="321.1934">[TPM + ZAS verf&#252;gbar]</text><line style="stroke:#000000;stroke-width:1.0;stroke-dasharray:2.0,2.0;" x1="46" x2="508.5" y1="650.4844" y2="650.4844"/><text fill="#000000" font-family="Helvetica" font-size="10" font-weight="bold" x="51" y="662.8652">[Software Fallback]</text><polygon fill="#181818" points="198,347.9688,208,351.9688,198,355.9688,202,351.9688" style="stroke:#181818;stroke-width:1.0;"/><line style="stroke:#181818;stroke-width:1.0;" x1="62" x2="204" y1="351.9688" y2="351.9688"/><text fill="#000000" font-family="Helvetica" font-size="10" x="69" y="347.7715">(02)</text><text fill="#000000" font-family="Helvetica" font-size="10" x="91" y="347.7715">Initialisierung</text><path d="M215,364.9688 L215,424.9688 L336,424.9688 L336,374.9688 L326,364.9688 L215,364.9688 " fill="#FEFFDD" style="stroke:#181818;stroke-width:0.5;"/><path d="M326,364.9688 L326,374.9688 L336,374.9688 L326,364.9688 " fill="#FEFFDD" style="stroke:#181818;stroke-width:0.5;"/><text fill="#000000" font-family="Helvetica" font-size="10" x="221" y="380.3496">TPM Setup:</text><text fill="#000000" font-family="Helvetica" font-size="10" x="221" y="392.9277">- SRK erstellen</text><text fill="#000000" font-family="Helvetica" font-size="10" x="221" y="405.5059">- Attestation Key (AK)</text><text fill="#000000" font-family="Helvetica" font-size="10" x="221" y="418.084">- PCR Konfiguration</text><polygon fill="#181818" points="73,444.8594,63,448.8594,73,452.8594,69,448.8594" style="stroke:#181818;stroke-width:1.0;"/><line style="stroke:#181818;stroke-width:1.0;stroke-dasharray:2.0,2.0;" x1="67" x2="209" y1="448.8594" y2="448.8594"/><text fill="#000000" font-family="Helvetica" font-size="10" x="79" y="444.6621">(03)</text><text fill="#000000" font-family="Helvetica" font-size="10" x="101" y="444.6621">Schl&#252;ssel + Handles</text><polygon fill="#181818" points="198,471.4375,208,475.4375,198,479.4375,202,475.4375" style="stroke:#181818;stroke-width:1.0;"/><line style="stroke:#181818;stroke-width:1.0;" x1="62" x2="204" y1="475.4375" y2="475.4375"/><text fill="#000000" font-family="Helvetica" font-size="10" x="69" y="471.2402">(04)</text><text fill="#000000" font-family="Helvetica" font-size="10" x="91" y="471.2402">GetEvidence (Nonce)</text><path d="M215,488.4375 L215,535.4375 L338,535.4375 L338,498.4375 L328,488.4375 L215,488.4375 " fill="#FEFFDD" style="stroke:#181818;stroke-width:0.5;"/><path d="M328,488.4375 L328,498.4375 L338,498.4375 L328,488.4375 " fill="#FEFFDD" style="stroke:#181818;stroke-width:0.5;"/><text fill="#000000" font-family="Helvetica" font-size="10" x="221" y="503.8184">Evidence-Erzeugung:</text><text fill="#000000" font-family="Helvetica" font-size="10" x="221" y="516.3965">- TPM Quote</text><text fill="#000000" font-family="Helvetica" font-size="10" x="221" y="528.9746">- Event Log</text><polygon fill="#181818" points="73,555.75,63,559.75,73,563.75,69,559.75" style="stroke:#181818;stroke-width:1.0;"/><line style="stroke:#181818;stroke-width:1.0;stroke-dasharray:2.0,2.0;" x1="67" x2="209" y1="559.75" y2="559.75"/><text fill="#000000" font-family="Helvetica" font-size="10" x="79" y="555.5527">(05)</text><text fill="#000000" font-family="Helvetica" font-size="10" x="101" y="555.5527">Evidence</text><polygon fill="#181818" points="339.5,582.3281,349.5,586.3281,339.5,590.3281,343.5,586.3281" style="stroke:#181818;stroke-width:1.0;"/><line style="stroke:#181818;stroke-width:1.0;" x1="62" x2="345.5" y1="586.3281" y2="586.3281"/><text fill="#000000" font-family="Helvetica" font-size="10" x="69" y="582.1309">(06)</text><text fill="#000000" font-family="Helvetica" font-size="10" x="91" y="582.1309">Registrierung (TPM Attestation)</text><path d="M356.5,599.3281 L356.5,634.3281 L487.5,634.3281 L487.5,609.3281 L477.5,599.3281 L356.5,599.3281 " fill="#FEFFDD" style="stroke:#181818;stroke-width:0.5;"/><path d="M477.5,599.3281 L477.5,609.3281 L487.5,609.3281 L477.5,599.3281 " fill="#FEFFDD" style="stroke:#181818;stroke-width:0.5;"/><text fill="#000000" font-family="Helvetica" font-size="10" x="362.5" y="614.709">Validierung:</text><text fill="#000000" font-family="Helvetica" font-size="10" x="362.5" y="627.2871">- TPM Nachweis pr&#252;fen</text><path d="M67,675.0625 L67,722.0625 L207,722.0625 L207,685.0625 L197,675.0625 L67,675.0625 " fill="#FEFFDD" style="stroke:#181818;stroke-width:0.5;"/><path d="M197,675.0625 L197,685.0625 L207,685.0625 L197,675.0625 " fill="#FEFFDD" style="stroke:#181818;stroke-width:0.5;"/><text fill="#000000" font-family="Helvetica" font-size="10" x="73" y="690.4434">Software-Modus:</text><text fill="#000000" font-family="Helvetica" font-size="10" x="73" y="703.0215">- Schl&#252;sselpaar erzeugen</text><text fill="#000000" font-family="Helvetica" font-size="10" x="73" y="715.5996">- Posture erfassen</text><polygon fill="#181818" points="339.5,742.375,349.5,746.375,339.5,750.375,343.5,746.375" style="stroke:#181818;stroke-width:1.0;"/><line style="stroke:#181818;stroke-width:1.0;" x1="62" x2="345.5" y1="746.375" y2="746.375"/><text fill="#000000" font-family="Helvetica" font-size="10" x="69" y="742.1777">(07)</text><text fill="#000000" font-family="Helvetica" font-size="10" x="91" y="742.1777">Registrierung (Software)</text><path d="M356.5,759.375 L356.5,781.375 L454.5,781.375 L454.5,769.375 L444.5,759.375 L356.5,759.375 " fill="#FEFFDD" style="stroke:#181818;stroke-width:0.5;"/><path d="M444.5,759.375 L444.5,769.375 L454.5,769.375 L444.5,759.375 " fill="#FEFFDD" style="stroke:#181818;stroke-width:0.5;"/><text fill="#000000" font-family="Helvetica" font-size="10" x="362.5" y="774.7559">Basisvalidierung</text><path d="M27,849.5313 L133,849.5313 L133,854.1094 L123,864.1094 L27,864.1094 L27,849.5313 " fill="#EEEEEE" style="stroke:#000000;stroke-width:1.5;"/><rect fill="none" height="356.6719" style="stroke:#000000;stroke-width:1.5;" width="520.5" x="27" y="849.5313"/><text fill="#000000" font-family="Helvetica" font-size="10" font-weight="bold" x="42" y="860.9121">macOS Pfad</text><path d="M46,878.1094 L103,878.1094 L103,882.6875 L93,892.6875 L46,892.6875 L46,878.1094 " fill="#EEEEEE" style="stroke:#000000;stroke-width:1.5;"/><rect fill="none" height="314.0938" style="stroke:#000000;stroke-width:1.5;" width="476.5" x="46" y="878.1094"/><text fill="#000000" font-family="Helvetica" font-size="10" font-weight="bold" x="61" y="889.4902">alt</text><text fill="#000000" font-family="Helvetica" font-size="10" font-weight="bold" x="118" y="890.4902">[Secure Enclave verf&#252;gbar]</text><line style="stroke:#000000;stroke-width:1.0;stroke-dasharray:2.0,2.0;" x1="46" x2="522.5" y1="1055.7344" y2="1055.7344"/><text fill="#000000" font-family="Helvetica" font-size="10" font-weight="bold" x="51" y="1068.1152">[Software Fallback]</text><path d="M67,907.6875 L67,967.6875 L193,967.6875 L193,917.6875 L183,907.6875 L67,907.6875 " fill="#FEFFDD" style="stroke:#181818;stroke-width:0.5;"/><path d="M183,907.6875 L183,917.6875 L193,917.6875 L183,907.6875 " fill="#FEFFDD" style="stroke:#181818;stroke-width:0.5;"/><text fill="#000000" font-family="Helvetica" font-size="10" x="73" y="923.0684">Secure Enclave:</text><text fill="#000000" font-family="Helvetica" font-size="10" x="73" y="935.6465">- Schl&#252;ssel generieren</text><text fill="#000000" font-family="Helvetica" font-size="10" x="73" y="948.2246">- App Attest Assertion</text><text fill="#000000" font-family="Helvetica" font-size="10" x="73" y="960.8027">- Nonce + Posture</text><polygon fill="#181818" points="339.5,987.5781,349.5,991.5781,339.5,995.5781,343.5,991.5781" style="stroke:#181818;stroke-width:1.0;"/><line style="stroke:#181818;stroke-width:1.0;" x1="62" x2="345.5" y1="991.5781" y2="991.5781"/><text fill="#000000" font-family="Helvetica" font-size="10" x="69" y="987.3809">(08)</text><text fill="#000000" font-family="Helvetica" font-size="10" x="91" y="987.3809">Registrierung (Apple Attestation)</text><path d="M356.5,1004.5781 L356.5,1039.5781 L501.5,1039.5781 L501.5,1014.5781 L491.5,1004.5781 L356.5,1004.5781 " fill="#FEFFDD" style="stroke:#181818;stroke-width:0.5;"/><path d="M491.5,1004.5781 L491.5,1014.5781 L501.5,1014.5781 L491.5,1004.5781 " fill="#FEFFDD" style="stroke:#181818;stroke-width:0.5;"/><text fill="#000000" font-family="Helvetica" font-size="10" x="362.5" y="1019.959">Validierung:</text><text fill="#000000" font-family="Helvetica" font-size="10" x="362.5" y="1032.5371">- Attestation Object pr&#252;fen</text><path d="M67,1080.3125 L67,1127.3125 L207,1127.3125 L207,1090.3125 L197,1080.3125 L67,1080.3125 " fill="#FEFFDD" style="stroke:#181818;stroke-width:0.5;"/><path d="M197,1080.3125 L197,1090.3125 L207,1090.3125 L197,1080.3125 " fill="#FEFFDD" style="stroke:#181818;stroke-width:0.5;"/><text fill="#000000" font-family="Helvetica" font-size="10" x="73" y="1095.6934">Software-Modus:</text><text fill="#000000" font-family="Helvetica" font-size="10" x="73" y="1108.2715">- Schl&#252;sselpaar erzeugen</text><text fill="#000000" font-family="Helvetica" font-size="10" x="73" y="1120.8496">- Posture erfassen</text><polygon fill="#181818" points="339.5,1147.625,349.5,1151.625,339.5,1155.625,343.5,1151.625" style="stroke:#181818;stroke-width:1.0;"/><line style="stroke:#181818;stroke-width:1.0;" x1="62" x2="345.5" y1="1151.625" y2="1151.625"/><text fill="#000000" font-family="Helvetica" font-size="10" x="69" y="1147.4277">(09)</text><text fill="#000000" font-family="Helvetica" font-size="10" x="91" y="1147.4277">Registrierung (Software)</text><path d="M356.5,1164.625 L356.5,1186.625 L454.5,1186.625 L454.5,1174.625 L444.5,1164.625 L356.5,1164.625 " fill="#FEFFDD" style="stroke:#181818;stroke-width:0.5;"/><path d="M444.5,1164.625 L444.5,1174.625 L454.5,1174.625 L444.5,1164.625 " fill="#FEFFDD" style="stroke:#181818;stroke-width:0.5;"/><text fill="#000000" font-family="Helvetica" font-size="10" x="362.5" y="1180.0059">Basisvalidierung</text><rect fill="#EEEEEE" height="3" style="stroke:#EEEEEE;stroke-width:1.0;" width="576.5" x="5" y="1253.4922"/><line style="stroke:#000000;stroke-width:1.0;" x1="5" x2="581.5" y1="1253.4922" y2="1253.4922"/><line style="stroke:#000000;stroke-width:1.0;" x1="5" x2="581.5" y1="1256.4922" y2="1256.4922"/><rect fill="#EEEEEE" height="20.5781" style="stroke:#000000;stroke-width:2.0;" width="123" x="231.75" y="1244.2031"/><text fill="#000000" font-family="Helvetica" font-size="10" font-weight="bold" x="237.75" y="1258.584">Gemeinsame Schritte</text><polygon fill="#181818" points="339.5,1301.9375,349.5,1305.9375,339.5,1309.9375,343.5,1305.9375" style="stroke:#181818;stroke-width:1.0;"/><line style="stroke:#181818;stroke-width:1.0;" x1="62" x2="345.5" y1="1305.9375" y2="1305.9375"/><text fill="#000000" font-family="Helvetica" font-size="10" x="69" y="1295.4512">(10)</text><text fill="#000000" font-family="Helvetica" font-size="10" x="91" y="1289.1621">Token Exchange</text><text fill="#000000" font-family="Helvetica" font-size="10" x="91" y="1301.7402">(client_assertion + Evidence)</text><path d="M46,1317.9375 L103,1317.9375 L103,1322.5156 L93,1332.5156 L46,1332.5156 L46,1317.9375 " fill="#EEEEEE" style="stroke:#000000;stroke-width:1.5;"/><rect fill="none" height="186.0469" style="stroke:#000000;stroke-width:1.5;" width="484.5" x="46" y="1317.9375"/><text fill="#000000" font-family="Helvetica" font-size="10" font-weight="bold" x="61" y="1329.3184">alt</text><text fill="#000000" font-family="Helvetica" font-size="10" font-weight="bold" x="118" y="1330.3184">[Hardware Attestation]</text><line style="stroke:#000000;stroke-width:1.0;stroke-dasharray:2.0,2.0;" x1="46" x2="530.5" y1="1425.25" y2="1425.25"/><text fill="#000000" font-family="Helvetica" font-size="10" font-weight="bold" x="51" y="1437.6309">[Software Attestation]</text><path d="M356.5,1347.5156 L356.5,1382.5156 L509.5,1382.5156 L509.5,1357.5156 L499.5,1347.5156 L356.5,1347.5156 " fill="#FEFFDD" style="stroke:#181818;stroke-width:0.5;"/><path d="M499.5,1347.5156 L499.5,1357.5156 L509.5,1357.5156 L499.5,1347.5156 " fill="#FEFFDD" style="stroke:#181818;stroke-width:0.5;"/><text fill="#000000" font-family="Helvetica" font-size="10" x="362.5" y="1362.8965">Erweiterte Pr&#252;fung :</text><text fill="#000000" font-family="Helvetica" font-size="10" x="362.5" y="1375.4746">- TPM oder Secure Enclave</text><polygon fill="#181818" points="73,1402.25,63,1406.25,73,1410.25,69,1406.25" style="stroke:#181818;stroke-width:1.0;"/><line style="stroke:#181818;stroke-width:1.0;stroke-dasharray:2.0,2.0;" x1="67" x2="350.5" y1="1406.25" y2="1406.25"/><text fill="#000000" font-family="Helvetica" font-size="10" x="79" y="1402.0527">(11)</text><text fill="#000000" font-family="Helvetica" font-size="10" x="101" y="1402.0527">Access Token + zg_att_token</text><path d="M356.5,1449.8281 L356.5,1471.8281 L437.5,1471.8281 L437.5,1459.8281 L427.5,1449.8281 L356.5,1449.8281 " fill="#FEFFDD" style="stroke:#181818;stroke-width:0.5;"/><path d="M427.5,1449.8281 L427.5,1459.8281 L437.5,1459.8281 L427.5,1449.8281 " fill="#FEFFDD" style="stroke:#181818;stroke-width:0.5;"/><text fill="#000000" font-family="Helvetica" font-size="10" x="362.5" y="1465.209">Basispr&#252;fung</text><polygon fill="#181818" points="73,1491.9844,63,1495.9844,73,1499.9844,69,1495.9844" style="stroke:#181818;stroke-width:1.0;"/><line style="stroke:#181818;stroke-width:1.0;stroke-dasharray:2.0,2.0;" x1="67" x2="350.5" y1="1495.9844" y2="1495.9844"/><text fill="#000000" font-family="Helvetica" font-size="10" x="79" y="1491.7871">(12)</text><text fill="#000000" font-family="Helvetica" font-size="10" x="101" y="1491.7871">Access Token</text><!--SRC=[xLRDJjj04BxxAQOvLA0gz8uAaWjkYW8bZIbL4LAqjYVEbiskjRiEa6VfaSVWbXVhh7yIvmTegbRgeRaapipEVDzyCxD-nMKiyWHXR-zjbez5Mx1xbTizUsSzxrMcMJfcO55DmUeSFSzoAn1cFoBKaU3n3VZMeh4STIvJmo8nUyY729B58tYFLdECZBat5iUU5waxQ1tZXCVOWkFWykGe61oTdvxtFO32rjDyF7lGfNyBUlsJCp_eXz_2Y-1ixWcGCMrvp3CcBHm9ZlJ53BIkWWk_Ucx1ktTJjEpma0wWJ5nuR_dWbHykJfKacELAGeYwH3WFKGSe2HG7EZdJIGlSxq7dYzy_diDhvl1pEogpk5zAy-aY1UfD6GuE8E3IrJE5WmFFg-Yr3ojY-t12LYP46UWrX9RoNSim7edPep4eKfIeIpcASCiYj5aqcZt8bAS8T4Pp8buaOiB2LouJTMlWBPnocHCQL-nKgpnRDK5lo9BIxZxky4Nl3DuKLILgmzbZ6Z4zTt2V1HLoSZouvKnmKsDj-af5i3HFHnRKqFalMQ585gBDi_qLGnl2VXTG4rSXKAvPcq9tyHvs_ExkcbFlg0zT9OSypNNXkkJXj7BubX4xuks6J0j1g2eVcKm46k-vUdJG1XEUe8mHTZuf-jhThYRrwNQWfvYdLDFruhYwVSuT-5LBC75WJbNw6rphp4_nAyPW7_gOScEhteGTXwKXnxDiYmWhc2-fUP8os6QYdsW7tI8taEdPun1VKX65ePbGGtlBDC87ch68nJVFeIePhkIk8xJFL9AR3VqvRuoCCKsjwiJQqAazPMnEG6YO67d_IW- -LF4QsjQbViyCDvD5lL-gfAnsWpCL-yFpYkgEMNmUDjTAySU6PH9YxBW7T3Un2JOtojPoB4LwJWweD-UcjP5bLQ-2JxvwRIaufs9eQTehvVw0O9IMBjk_DYJDPNWUVSVO_X-LVs5Kt7zqStTmZFGkmCOhL_KQzWjrWnA2ktZ4P8hNSYSkF0QiRbLgodf7xvPN_KTwVId4Q_H02UHfYe6cRMef8aBFjOahL2rQkN5LWdfbuhnrtkLRKVC2yUCOZQbul85fEc3M3gnxh3R7lDcsm5j8aLL8jyPHwl0J]--></g></svg>