<svg xmlns="http://www.w3.org/2000/svg" xmlns:xlink="http://www.w3.org/1999/xlink" contentStyleType="text/css" data-diagram-type="SEQUENCE" height="1562px" preserveAspectRatio="none" style="width:1255px;height:1562px;background:#FFFFFF;" version="1.1" viewBox="0 0 1255 1562" width="1255px" zoomAndPan="magnify"><?plantuml 1.2026.6?><defs/><g><rect fill="#FEFCFF" height="1536.6406" style="stroke:#181818;stroke-width:0.5;" width="80.2471" x="198.7378" y="11"/><text fill="#000000" font-family="Helvetica" font-size="10" font-weight="700" x="219.9917" y="20.2822">Device</text><rect fill="#E6E6FA" height="1520" style="stroke:#181818;stroke-width:0.5;" width="80.2471" x="198.7378" y="27.6406"/><text fill="#000000" font-family="Helvetica" font-size="10" font-weight="700" x="227.8335" y="36.9229">App</text><rect fill="#EDFDEC" height="1536.6406" style="stroke:#181818;stroke-width:0.5;" width="147.7842" x="685.9282" y="11"/><text fill="#000000" font-family="Helvetica" font-size="10" font-weight="700" x="697.9282" y="20.2822">Anbieter TI 2.0 Dienst</text><rect fill="#FFF3E5" height="1520" style="stroke:#181818;stroke-width:0.5;" width="147.7842" x="685.9282" y="27.6406"/><text fill="#000000" font-family="Helvetica" font-size="10" font-weight="700" x="726.6758" y="36.9229">ZETA Guard</text><g><title>Nutzer</title><rect fill="#000000" fill-opacity="0.00000" height="1355.0781" width="8" x="26.126" y="114.9219"/><line style="stroke:#000000;stroke-width:0.5;stroke-dasharray:5,5;" x1="29.626" x2="29.626" y1="114.9219" y2="1470"/></g><g><title>ZETA Client</title><rect fill="#000000" fill-opacity="0.00000" height="1355.0781" width="8" x="235.3613" y="114.9219"/><line style="stroke:#000000;stroke-width:0.5;stroke-dasharray:5,5;" x1="238.8613" x2="238.8613" y1="114.9219" y2="1470"/></g><g><title/><rect fill="#FFFFFF" height="1347.0781" style="stroke:#181818;stroke-width:1;" width="10" x="233.8613" y="122.9219"/></g><g><title>PDP</title><rect fill="#000000" fill-opacity="0.00000" height="1355.0781" width="8" x="756.3203" y="114.9219"/><line style="stroke:#000000;stroke-width:0.5;stroke-dasharray:5,5;" x1="759.8203" x2="759.8203" y1="114.9219" y2="1470"/></g><g><title/><rect fill="#FFFFFF" height="935.8281" style="stroke:#181818;stroke-width:1;" width="10" x="754.8203" y="207.4844"/></g><g><title/><rect fill="#FFFFFF" height="245.7656" style="stroke:#181818;stroke-width:1;" width="10" x="754.8203" y="1206.2344"/></g><text fill="#000000" font-family="Helvetica" font-size="10" x="10" y="112.5635">Nutzer</text><ellipse cx="29.626" cy="51.7813" fill="#E2E2F0" rx="8" ry="8" style="stroke:#181818;stroke-width:0.5;"/><path d="M29.626,59.7813 L29.626,86.7813 M16.626,67.7813 L42.626,67.7813 M29.626,86.7813 L16.626,101.7813 M29.626,86.7813 L42.626,101.7813" fill="none" style="stroke:#181818;stroke-width:0.5;"/><rect fill="#FFE6CC" height="25.6406" rx="2.5" ry="2.5" style="stroke:#D79B00;stroke-width:0.5;" width="72.2471" x="202.7378" y="88.2813"/><text fill="#000000" font-family="Helvetica" font-size="10" x="209.7378" y="104.5635">ZETA Client</text><rect fill="#FFE6CC" height="37.2813" rx="2.5" ry="2.5" style="stroke:#D79B00;stroke-width:0.5;" width="116.9492" x="701.3457" y="76.6406"/><text fill="#000000" font-family="Helvetica" font-size="10" x="749.9399" y="92.9229">PDP</text><text fill="#000000" font-family="Helvetica" font-size="10" x="708.3457" y="104.5635">Authorization Server</text><text fill="#000000" font-family="Helvetica" font-size="10" x="10" y="1539.2822">Nutzer</text><ellipse cx="29.626" cy="1478.5" fill="#E2E2F0" rx="8" ry="8" style="stroke:#181818;stroke-width:0.5;"/><path d="M29.626,1486.5 L29.626,1513.5 M16.626,1494.5 L42.626,1494.5 M29.626,1513.5 L16.626,1528.5 M29.626,1513.5 L42.626,1528.5" fill="none" style="stroke:#181818;stroke-width:0.5;"/><rect fill="#FFE6CC" height="25.6406" rx="2.5" ry="2.5" style="stroke:#D79B00;stroke-width:0.5;" width="72.2471" x="202.7378" y="1470"/><text fill="#000000" font-family="Helvetica" font-size="10" x="209.7378" y="1486.2822">ZETA Client</text><rect fill="#FFE6CC" height="37.2813" rx="2.5" ry="2.5" style="stroke:#D79B00;stroke-width:0.5;" width="116.9492" x="701.3457" y="1470"/><text fill="#000000" font-family="Helvetica" font-size="10" x="749.9399" y="1486.2822">PDP</text><text fill="#000000" font-family="Helvetica" font-size="10" x="708.3457" y="1497.9229">Authorization Server</text><path d="M13.626,126.9219 L73.582,126.9219 L73.582,130.5625 L63.582,140.5625 L13.626,140.5625 L13.626,126.9219" fill="#EEEEEE" style="stroke:#000000;stroke-width:1.5;"/><rect fill="none" height="1293.4375" style="stroke:#000000;stroke-width:1.5;" width="1221.3926" x="13.626" y="126.9219"/><text fill="#000000" font-family="Helvetica" font-size="10" font-weight="700" x="28.626" y="137.2041">alt</text><text fill="#000000" font-family="Helvetica" font-size="10" font-weight="700" x="88.582" y="138.2041">[Kein ZETA Attestation Token]</text><line style="stroke:#000000;stroke-width:1;stroke-dasharray:2,2;" x1="13.626" x2="1235.0186" y1="1263.875" y2="1263.875"/><text fill="#000000" font-family="Helvetica" font-size="10" font-weight="700" x="18.626" y="1275.1572">[ZETA Attestation Token vorhanden (Fast-Path)]</text><path d="M222.8613,154.5625 L282.8174,154.5625 L282.8174,158.2031 L272.8174,168.2031 L222.8613,168.2031 L222.8613,154.5625" fill="#EEEEEE" style="stroke:#000000;stroke-width:1.5;"/><rect fill="none" height="682.8594" style="stroke:#000000;stroke-width:1.5;" width="951.3496" x="222.8613" y="154.5625"/><text fill="#000000" font-family="Helvetica" font-size="10" font-weight="700" x="237.8613" y="164.8447">alt</text><text fill="#000000" font-family="Helvetica" font-size="10" font-weight="700" x="297.8174" y="165.8447">[Hardware Attestation: iOS, iPadOS, macOS (Apple App Attest)]</text><line style="stroke:#000000;stroke-width:1;stroke-dasharray:2,2;" x1="222.8613" x2="1174.2109" y1="320.0469" y2="320.0469"/><text fill="#000000" font-family="Helvetica" font-size="10" font-weight="700" x="227.8613" y="331.3291">[Hardware Attestation: Android (Keystore, TEE, StrongBox)]</text><line style="stroke:#000000;stroke-width:1;stroke-dasharray:2,2;" x1="222.8613" x2="1174.2109" y1="711.6563" y2="711.6563"/><text fill="#000000" font-family="Helvetica" font-size="10" font-weight="700" x="227.8613" y="722.9385">[Software Attestation (Legacy OIDC DCR)]</text><polygon fill="#181818" points="742.8203,203.4844,752.8203,207.4844,742.8203,211.4844,746.8203,207.4844" style="stroke:#181818;stroke-width:1;stroke-linejoin:miter;stroke-miterlimit:10;"/><line style="stroke:#181818;stroke-width:1;" x1="243.8613" x2="748.8203" y1="207.4844" y2="207.4844"/><text fill="#000000" font-family="Helvetica" font-size="10" x="250.8613" y="197.3057">(01)</text><text fill="#000000" font-family="Helvetica" font-size="10" x="275.3887" y="191.4854">POST /register</text><text fill="#000000" font-family="Helvetica" font-size="10" x="275.3887" y="203.126">{attestation_type="apple", Apple_Attestation_Object, PuK.Client.Sig, redirect_uris}</text><line style="stroke:#181818;stroke-width:1;" x1="764.8203" x2="806.8203" y1="233.125" y2="233.125"/><line style="stroke:#181818;stroke-width:1;" x1="806.8203" x2="806.8203" y1="233.125" y2="246.125"/><line style="stroke:#181818;stroke-width:1;" x1="765.8203" x2="806.8203" y1="246.125" y2="246.125"/><polygon fill="#181818" points="775.8203,242.125,765.8203,246.125,775.8203,250.125,771.8203,246.125" style="stroke:#181818;stroke-width:1;stroke-linejoin:miter;stroke-miterlimit:10;"/><text fill="#000000" font-family="Helvetica" font-size="10" x="771.8203" y="228.7666">(02)</text><text fill="#000000" font-family="Helvetica" font-size="10" x="796.3477" y="228.7666">Validiere Apple_Attestation_Object</text><path d="M769.8203,259.125 L769.8203,303.125 L1004.8203,303.125 L1004.8203,269.125 L994.8203,259.125 L769.8203,259.125" fill="#FEFFDD" style="stroke:#181818;stroke-width:0.5;"/><path d="M994.8203,259.125 L994.8203,269.125 L1004.8203,269.125 L994.8203,259.125" fill="#FEFFDD" style="stroke:#181818;stroke-width:0.5;"/><text fill="#000000" font-family="Helvetica" font-size="10" x="775.8203" y="273.4072">AuthS verifiziert Apple App Attest Root CA.</text><text fill="#000000" font-family="Helvetica" font-size="10" x="775.8203" y="285.0479">Extrahiert Hash(PuK.Client.Sig) aus Objekt</text><text fill="#000000" font-family="Helvetica" font-size="10" x="775.8203" y="296.6885">und vergleicht ihn mit dem Payload.</text><polygon fill="#181818" points="742.8203,398.8906,752.8203,402.8906,742.8203,406.8906,746.8203,402.8906" style="stroke:#181818;stroke-width:1;stroke-linejoin:miter;stroke-miterlimit:10;"/><line style="stroke:#181818;stroke-width:1;" x1="243.8613" x2="748.8203" y1="402.8906" y2="402.8906"/><text fill="#000000" font-family="Helvetica" font-size="10" x="250.8613" y="375.251">(03)</text><text fill="#000000" font-family="Helvetica" font-size="10" x="275.3887" y="351.9697">POST /register</text><text fill="#000000" font-family="Helvetica" font-size="10" x="275.3887" y="363.6104">{attestation_type="android", PuK.AK.Sig,</text><text fill="#000000" font-family="Helvetica" font-size="10" x="275.3887" y="375.251">Android_Key_Attestation_Certificate_Chain,</text><text fill="#000000" font-family="Helvetica" font-size="10" x="275.3887" y="386.8916">PuK.Client.Sig, signed_Hash_PuK.Client.Sig,</text><text fill="#000000" font-family="Helvetica" font-size="10" x="275.3887" y="398.5322">play_integrity_token, redirect_uris}</text><line style="stroke:#181818;stroke-width:1;" x1="764.8203" x2="806.8203" y1="428.5313" y2="428.5313"/><line style="stroke:#181818;stroke-width:1;" x1="806.8203" x2="806.8203" y1="428.5313" y2="441.5313"/><line style="stroke:#181818;stroke-width:1;" x1="765.8203" x2="806.8203" y1="441.5313" y2="441.5313"/><polygon fill="#181818" points="775.8203,437.5313,765.8203,441.5313,775.8203,445.5313,771.8203,441.5313" style="stroke:#181818;stroke-width:1;stroke-linejoin:miter;stroke-miterlimit:10;"/><text fill="#000000" font-family="Helvetica" font-size="10" x="771.8203" y="424.1729">(04)</text><text fill="#000000" font-family="Helvetica" font-size="10" x="796.3477" y="424.1729">Validiere Zertifikatskette gegen Google Root CA</text><line style="stroke:#181818;stroke-width:1;" x1="764.8203" x2="806.8203" y1="467.1719" y2="467.1719"/><line style="stroke:#181818;stroke-width:1;" x1="806.8203" x2="806.8203" y1="467.1719" y2="480.1719"/><line style="stroke:#181818;stroke-width:1;" x1="765.8203" x2="806.8203" y1="480.1719" y2="480.1719"/><polygon fill="#181818" points="775.8203,476.1719,765.8203,480.1719,775.8203,484.1719,771.8203,480.1719" style="stroke:#181818;stroke-width:1;stroke-linejoin:miter;stroke-miterlimit:10;"/><text fill="#000000" font-family="Helvetica" font-size="10" x="771.8203" y="462.8135">(05)</text><text fill="#000000" font-family="Helvetica" font-size="10" x="796.3477" y="462.8135">Pr&#252;fe signed_Hash_PuK.Client.Sig</text><path d="M743.8203,492.1719 L807.6289,492.1719 L807.6289,495.8125 L797.6289,505.8125 L743.8203,505.8125 L743.8203,492.1719" fill="#EEEEEE" style="stroke:#000000;stroke-width:1.5;"/><rect fill="none" height="139.5625" style="stroke:#000000;stroke-width:1.5;" width="405.3906" x="743.8203" y="492.1719"/><text fill="#000000" font-family="Helvetica" font-size="10" font-weight="700" x="758.8203" y="502.4541">opt</text><text fill="#000000" font-family="Helvetica" font-size="10" font-weight="700" x="822.6289" y="503.4541">[Play Integrity Pr&#252;fung]</text><line style="stroke:#181818;stroke-width:1;" x1="764.8203" x2="806.8203" y1="533.4531" y2="533.4531"/><line style="stroke:#181818;stroke-width:1;" x1="806.8203" x2="806.8203" y1="533.4531" y2="546.4531"/><line style="stroke:#181818;stroke-width:1;" x1="765.8203" x2="806.8203" y1="546.4531" y2="546.4531"/><polygon fill="#181818" points="775.8203,542.4531,765.8203,546.4531,775.8203,550.4531,771.8203,546.4531" style="stroke:#181818;stroke-width:1;stroke-linejoin:miter;stroke-miterlimit:10;"/><text fill="#000000" font-family="Helvetica" font-size="10" x="771.8203" y="529.0947">(06)</text><text fill="#000000" font-family="Helvetica" font-size="10" x="796.3477" y="529.0947">Entschl&#252;ssele play_integrity_token (lokal/remote)</text><line style="stroke:#181818;stroke-width:1;" x1="764.8203" x2="806.8203" y1="572.0938" y2="572.0938"/><line style="stroke:#181818;stroke-width:1;" x1="806.8203" x2="806.8203" y1="572.0938" y2="585.0938"/><line style="stroke:#181818;stroke-width:1;" x1="765.8203" x2="806.8203" y1="585.0938" y2="585.0938"/><polygon fill="#181818" points="775.8203,581.0938,765.8203,585.0938,775.8203,589.0938,771.8203,585.0938" style="stroke:#181818;stroke-width:1;stroke-linejoin:miter;stroke-miterlimit:10;"/><text fill="#000000" font-family="Helvetica" font-size="10" x="771.8203" y="567.7354">(07)</text><text fill="#000000" font-family="Helvetica" font-size="10" x="796.3477" y="567.7354">Verifiziere Nonce (Muss Hash(PuK.Client.Sig) entsprechen)</text><line style="stroke:#181818;stroke-width:1;" x1="764.8203" x2="806.8203" y1="610.7344" y2="610.7344"/><line style="stroke:#181818;stroke-width:1;" x1="806.8203" x2="806.8203" y1="610.7344" y2="623.7344"/><line style="stroke:#181818;stroke-width:1;" x1="765.8203" x2="806.8203" y1="623.7344" y2="623.7344"/><polygon fill="#181818" points="775.8203,619.7344,765.8203,623.7344,775.8203,627.7344,771.8203,623.7344" style="stroke:#181818;stroke-width:1;stroke-linejoin:miter;stroke-miterlimit:10;"/><text fill="#000000" font-family="Helvetica" font-size="10" x="771.8203" y="606.376">(08)</text><text fill="#000000" font-family="Helvetica" font-size="10" x="796.3477" y="606.376">Werte Verdicts aus (appIntegrity, deviceIntegrity, accountDetails)</text><path d="M769.8203,650.7344 L769.8203,694.7344 L1072.8203,694.7344 L1072.8203,660.7344 L1062.8203,650.7344 L769.8203,650.7344" fill="#FEFFDD" style="stroke:#181818;stroke-width:0.5;"/><path d="M1062.8203,650.7344 L1062.8203,660.7344 L1072.8203,660.7344 L1062.8203,650.7344" fill="#FEFFDD" style="stroke:#181818;stroke-width:0.5;"/><text fill="#000000" font-family="Helvetica" font-size="10" x="775.8203" y="665.0166">PuK.AK.Sig muss mit dem Blatt-Zertifikat</text><text fill="#000000" font-family="Helvetica" font-size="10" x="775.8203" y="676.6572">der Certificate Chain &#252;bereinstimmen.</text><text fill="#000000" font-family="Helvetica" font-size="10" x="775.8203" y="688.2979">Sicherheitsniveau: TrustedEnvironment oder StrongBox.</text><polygon fill="#181818" points="742.8203,825.4219,752.8203,829.4219,742.8203,833.4219,746.8203,829.4219" style="stroke:#181818;stroke-width:1;stroke-linejoin:miter;stroke-miterlimit:10;"/><line style="stroke:#181818;stroke-width:1;" x1="243.8613" x2="748.8203" y1="829.4219" y2="829.4219"/><text fill="#000000" font-family="Helvetica" font-size="10" x="250.8613" y="784.3213">(09)</text><text fill="#000000" font-family="Helvetica" font-size="10" x="275.3887" y="743.5791">POST /register</text><text fill="#000000" font-family="Helvetica" font-size="10" x="275.3887" y="755.2197">{</text><text fill="#000000" font-family="Helvetica" font-size="10" x="281.7461" y="766.8604">"client_name": "myClient",</text><text fill="#000000" font-family="Helvetica" font-size="10" x="281.7461" y="778.501">"grant_types": ["urn:ietf:params:oauth:grant-type:token-exchange", "refresh_token"],</text><text fill="#000000" font-family="Helvetica" font-size="10" x="281.7461" y="790.1416">"jwks": { "keys": [ PuK.Client.Sig ] },</text><text fill="#000000" font-family="Helvetica" font-size="10" x="281.7461" y="801.7822">"token_endpoint_auth_method": "private_key_jwt",</text><text fill="#000000" font-family="Helvetica" font-size="10" x="281.7461" y="813.4229">"redirect_uris": ["https:</text><text fill="#000000" font-family="Helvetica" font-size="10" font-style="italic" x="397.6104" y="813.4229">&lt;App-FQDN&gt;/cb/&lt;app&gt;/oidc", "https:</text><text fill="#000000" font-family="Helvetica" font-size="10" x="589.2559" y="813.4229">&lt;App-FQDN&gt;/cb/&lt;app&gt;/app"]</text><text fill="#000000" font-family="Helvetica" font-size="10" x="275.3887" y="825.0635">}</text><path d="M769.8203,856.4219 L769.8203,1005.4219 L1213.8203,1005.4219 L1213.8203,866.4219 L1203.8203,856.4219 L769.8203,856.4219" fill="#FEFFDD" style="stroke:#181818;stroke-width:0.5;"/><path d="M1203.8203,856.4219 L1203.8203,866.4219 L1213.8203,866.4219 L1203.8203,856.4219" fill="#FEFFDD" style="stroke:#181818;stroke-width:0.5;"/><text fill="#000000" font-family="Helvetica" font-size="10" x="775.8203" y="870.7041">Es werden zwei redirect_uris je App registriert (RFC 8252, claimed-HTTPS</text><text fill="#000000" font-family="Helvetica" font-size="10" x="775.8203" y="882.3447">Universal-/App-Links auf einer vom App-Hersteller kontrollierten Domain):</text><text fill="#000000" font-family="Helvetica" font-size="10" x="775.8203" y="893.9854">- https://&lt;App-FQDN&gt;/cb/&lt;app&gt;/oidc = oidc_redirect_uri</text><text fill="#000000" font-family="Helvetica" font-size="10" x="782.1777" y="905.626">(SekIDP Auth Code Flow, redirection_endpoint des AuthS, nicht /token)</text><text fill="#000000" font-family="Helvetica" font-size="10" x="775.8203" y="917.2666">- https://&lt;App-FQDN&gt;/cb/&lt;app&gt;/app = app_redirect_uri</text><text fill="#000000" font-family="Helvetica" font-size="10" x="782.1777" y="928.9072">(ZETA Guard Auth Code Flow, /token-Endpunkt des AuthS)</text><text fill="#000000" font-family="Helvetica" font-size="10" x="775.8203" y="940.5479">Beide Callbacks enden &#252;ber denselben App-Link/Universal-Link in der App;</text><text fill="#000000" font-family="Helvetica" font-size="10" x="775.8203" y="952.1885">der ZETA Client unterscheidet den zu nutzenden AuthS-Endpunkt anhand des Pfads.</text><text fill="#000000" font-family="Helvetica" font-size="10" x="775.8203" y="963.8291">Die OS-seitige Verkn&#252;pfung erfolgt &#252;ber apple-app-site-association bzw.</text><text fill="#000000" font-family="Helvetica" font-size="10" x="775.8203" y="975.4697">assetlinks.json (Deployment, kein Laufzeit-Flow). Die App ist inkl. redirect_uris</text><text fill="#000000" font-family="Helvetica" font-size="10" x="775.8203" y="987.1104">bei der gematik registriert; der AuthS pr&#252;ft beim DCR, ob die &#252;bergebenen</text><text fill="#000000" font-family="Helvetica" font-size="10" x="775.8203" y="998.751">redirect_uris registriert sind.</text><line style="stroke:#181818;stroke-width:1;" x1="764.8203" x2="806.8203" y1="1028.75" y2="1028.75"/><line style="stroke:#181818;stroke-width:1;" x1="806.8203" x2="806.8203" y1="1028.75" y2="1041.75"/><line style="stroke:#181818;stroke-width:1;" x1="765.8203" x2="806.8203" y1="1041.75" y2="1041.75"/><polygon fill="#181818" points="775.8203,1037.75,765.8203,1041.75,775.8203,1045.75,771.8203,1041.75" style="stroke:#181818;stroke-width:1;stroke-linejoin:miter;stroke-miterlimit:10;"/><text fill="#000000" font-family="Helvetica" font-size="10" x="771.8203" y="1024.3916">(10)</text><text fill="#000000" font-family="Helvetica" font-size="10" x="796.3477" y="1024.3916">Store Client Placeholder (state: pending_user_binding)</text><line style="stroke:#181818;stroke-width:1;" x1="764.8203" x2="806.8203" y1="1079.0313" y2="1079.0313"/><line style="stroke:#181818;stroke-width:1;" x1="806.8203" x2="806.8203" y1="1079.0313" y2="1092.0313"/><line style="stroke:#181818;stroke-width:1;" x1="765.8203" x2="806.8203" y1="1092.0313" y2="1092.0313"/><polygon fill="#181818" points="775.8203,1088.0313,765.8203,1092.0313,775.8203,1096.0313,771.8203,1092.0313" style="stroke:#181818;stroke-width:1;stroke-linejoin:miter;stroke-miterlimit:10;"/><text fill="#000000" font-family="Helvetica" font-size="10" x="771.8203" y="1068.8525">(11)</text><text fill="#000000" font-family="Helvetica" font-size="10" x="796.3477" y="1063.0322">Generiere OTP &amp; transaction_id</text><text fill="#000000" font-family="Helvetica" font-size="10" x="796.3477" y="1074.6729">Speichere Request im tempor&#228;ren Cache</text><polygon fill="#181818" points="40.626,1113.6719,30.626,1117.6719,40.626,1121.6719,36.626,1117.6719" style="stroke:#181818;stroke-width:1;stroke-linejoin:miter;stroke-miterlimit:10;"/><line style="stroke:#181818;stroke-width:1;" x1="34.626" x2="753.8203" y1="1117.6719" y2="1117.6719"/><text fill="#000000" font-family="Helvetica" font-size="10" x="46.626" y="1113.3135">(12)</text><text fill="#000000" font-family="Helvetica" font-size="10" x="71.1533" y="1113.3135">E-Mail mit OTP-Best&#228;tigungscode (Out-of-Band)</text><polygon fill="#181818" points="254.8613,1139.3125,244.8613,1143.3125,254.8613,1147.3125,250.8613,1143.3125" style="stroke:#181818;stroke-width:1;stroke-linejoin:miter;stroke-miterlimit:10;"/><line style="stroke:#181818;stroke-width:1;stroke-dasharray:2,2;" x1="248.8613" x2="753.8203" y1="1143.3125" y2="1143.3125"/><text fill="#000000" font-family="Helvetica" font-size="10" x="260.8613" y="1138.9541">(13)</text><text fill="#000000" font-family="Helvetica" font-size="10" x="285.3887" y="1138.9541">202 Accepted {transaction_id, message="OTP sent"}</text><polygon fill="#181818" points="221.8613,1164.9531,231.8613,1168.9531,221.8613,1172.9531,225.8613,1168.9531" style="stroke:#181818;stroke-width:1;stroke-linejoin:miter;stroke-miterlimit:10;"/><line style="stroke:#181818;stroke-width:1;" x1="29.626" x2="227.8613" y1="1168.9531" y2="1168.9531"/><text fill="#000000" font-family="Helvetica" font-size="10" x="36.626" y="1164.5947">(14)</text><text fill="#000000" font-family="Helvetica" font-size="10" x="61.1533" y="1164.5947">Gibt OTP-Best&#228;tigungscode ein</text><polygon fill="#181818" points="742.8203,1202.2344,752.8203,1206.2344,742.8203,1210.2344,746.8203,1206.2344" style="stroke:#181818;stroke-width:1;stroke-linejoin:miter;stroke-miterlimit:10;"/><line style="stroke:#181818;stroke-width:1;" x1="243.8613" x2="748.8203" y1="1206.2344" y2="1206.2344"/><text fill="#000000" font-family="Helvetica" font-size="10" x="250.8613" y="1196.0557">(15)</text><text fill="#000000" font-family="Helvetica" font-size="10" x="275.3887" y="1190.2354">POST /register/verify</text><text fill="#000000" font-family="Helvetica" font-size="10" x="275.3887" y="1201.876">{transaction_id, code}</text><line style="stroke:#181818;stroke-width:1;" x1="764.8203" x2="806.8203" y1="1231.875" y2="1231.875"/><line style="stroke:#181818;stroke-width:1;" x1="806.8203" x2="806.8203" y1="1231.875" y2="1244.875"/><line style="stroke:#181818;stroke-width:1;" x1="765.8203" x2="806.8203" y1="1244.875" y2="1244.875"/><polygon fill="#181818" points="775.8203,1240.875,765.8203,1244.875,775.8203,1248.875,771.8203,1244.875" style="stroke:#181818;stroke-width:1;stroke-linejoin:miter;stroke-miterlimit:10;"/><text fill="#000000" font-family="Helvetica" font-size="10" x="771.8203" y="1227.5166">(16)</text><text fill="#000000" font-family="Helvetica" font-size="10" x="796.3477" y="1227.5166">Verifiziere OTP-Code gegen Cache</text><polygon fill="#181818" points="742.8203,1331.0781,752.8203,1335.0781,742.8203,1339.0781,746.8203,1335.0781" style="stroke:#181818;stroke-width:1;stroke-linejoin:miter;stroke-miterlimit:10;"/><line style="stroke:#181818;stroke-width:1;" x1="243.8613" x2="748.8203" y1="1335.0781" y2="1335.0781"/><text fill="#000000" font-family="Helvetica" font-size="10" x="250.8613" y="1313.2588">(17)</text><text fill="#000000" font-family="Helvetica" font-size="10" x="275.3887" y="1295.7979">POST /register</text><text fill="#000000" font-family="Helvetica" font-size="10" x="275.3887" y="1307.4385">{attestation_type="zeta_attestation_token",</text><text fill="#000000" font-family="Helvetica" font-size="10" x="275.3887" y="1319.0791">zeta_guard_attestation_token, PuK.Client.Sig,</text><text fill="#000000" font-family="Helvetica" font-size="10" x="275.3887" y="1330.7197">Besitznachweis (Signatur/Assertion)}</text><line style="stroke:#181818;stroke-width:1;" x1="764.8203" x2="806.8203" y1="1360.7188" y2="1360.7188"/><line style="stroke:#181818;stroke-width:1;" x1="806.8203" x2="806.8203" y1="1360.7188" y2="1373.7188"/><line style="stroke:#181818;stroke-width:1;" x1="765.8203" x2="806.8203" y1="1373.7188" y2="1373.7188"/><polygon fill="#181818" points="775.8203,1369.7188,765.8203,1373.7188,775.8203,1377.7188,771.8203,1373.7188" style="stroke:#181818;stroke-width:1;stroke-linejoin:miter;stroke-miterlimit:10;"/><text fill="#000000" font-family="Helvetica" font-size="10" x="771.8203" y="1356.3604">(18)</text><text fill="#000000" font-family="Helvetica" font-size="10" x="796.3477" y="1356.3604">Pr&#252;fe Token-Signatur &amp; Vertrauensstellung</text><line style="stroke:#181818;stroke-width:1;" x1="764.8203" x2="806.8203" y1="1399.3594" y2="1399.3594"/><line style="stroke:#181818;stroke-width:1;" x1="806.8203" x2="806.8203" y1="1399.3594" y2="1412.3594"/><line style="stroke:#181818;stroke-width:1;" x1="765.8203" x2="806.8203" y1="1412.3594" y2="1412.3594"/><polygon fill="#181818" points="775.8203,1408.3594,765.8203,1412.3594,775.8203,1416.3594,771.8203,1412.3594" style="stroke:#181818;stroke-width:1;stroke-linejoin:miter;stroke-miterlimit:10;"/><text fill="#000000" font-family="Helvetica" font-size="10" x="771.8203" y="1395.001">(19)</text><text fill="#000000" font-family="Helvetica" font-size="10" x="796.3477" y="1395.001">Extrahiere PuK.AK.Sig aus Token, verifiziere Besitznachweis</text><polygon fill="#181818" points="254.8613,1448,244.8613,1452,254.8613,1456,250.8613,1452" style="stroke:#181818;stroke-width:1;stroke-linejoin:miter;stroke-miterlimit:10;"/><line style="stroke:#181818;stroke-width:1;stroke-dasharray:2,2;" x1="248.8613" x2="753.8203" y1="1452" y2="1452"/><text fill="#000000" font-family="Helvetica" font-size="10" x="260.8613" y="1447.6416">(20)</text><text fill="#000000" font-family="Helvetica" font-size="10" x="285.3887" y="1447.6416">201 Created {client_id, status="pending_user_binding"}</text><?plantuml-src dLVRZjks5dttL-pgeRKHosu37E30JGRms9x4c2Js6JifJkj0e2LQvbWYTKXgPZn1_gQVaRVviRD8-JgtflM3B8dasekRQr_qWv1nLYQSMgrsKUPPcB6rActBtjXQZSLMQVfek2PcAFXGsbkkWrfjhcuewFCh4VE0-eDFmzuWwetUZIvgH7wiMnG1ZI-6xxk3Yyb_9zF1-zquKS6q5R4ecBJKomJ7dqF_VJ3jRfu3UlNgbbjsSe85N2OEjBRzhwntvLnm2sBJ8Rri_Knzh3FM6Hrz6lO75yTyFFQRakaa87SVlVdOlUW_mQbRskN4KnhtnpFf7fKMjymA9Md2zHLyy2p1QXClNjHOPkcS2-bjKjTQRcm5CrKhBhrbVt4JtuBTDTFyS5w7n6ZI935cYVlFMJoQK1tUpJ2jA3PJ6nx3_JRk34-gJRnuqQ7nQ3AbjkQfC73NJ7vXU_Z8hWl-Ec0EBsYInuqEp4UZ-IMFRPF6vNchmcvDHDeapHEXCHALMfYlE_ELvxRME_I9PI8HNFCdeNTBfRASj4YNbjHYkxx2Wx_5Gjm2nzBzhTE5Kb1HjpMJWnkhsTBFUilCidxCkK6iDEIChknCbZWgmAOP5p4iYgMaN5XAU4vZjiuKIrerJurdXZznCbsPQ2KIgf_pjK6Sy2PD1uCcJQnMCZrLDqyUo_STIWKVLCxlddl7GutLwmX6ZzpPmxxXfPXP7lMMJ4ZClNzgHgII9v7pJdHlR2OB17uafEMf5dOTMIVGVt3GlrSyLioQ5GS_IddA9RrH2ixUdjQJE6Dzzst1do6wMxcxKOMbCRZJSCkzGYdbVl9ZfWRIcdYPtNqpXeFPOzkdUgPMBCCvvL1durcuJpkHSlgWPCof_huqvd4fuiOKSEkIo-THVuCtkSDEH6oDbt0TqRhRQXEITLduu0MBOrLAsqTs4fdPmoCxFNJUer6trnlbRWlRo3ZDeD9mVy0pcI3_7WYFlF3exjiSNX18noBFkKHeJX1bN2-vi4QAAyxA3arr2Uad0tab42wv2m_bu7RHSnY04xMmzmEGwkzuok8rZORz7lLx5tydt6QIA8Zzj4Yod0ST2lBrflWq_MYgKGjyB1gC_X6KMdPGSHOTb0gMcuvYmExuMQ6RrV6I2VbDl6GoTUaqq7oXEIJiHuBF5UxbzSe1Vg5WXRpXeEzbL_fCNwkfVbs4WoiKb1avWr7EKOqInxVGuif5Es2Yo-ijxQE0zSINrXQcqsw_GjOCp_xJ_t3IZkVjLv3HIHkP97PCdvk3I_1v9glWToggFQ6SZVy7XguXM8JFxJKNnnc4BglaNHs5zicwVd7Met-__DVB9iKP4pbFmhVJwNWBzz4fHXkMXMr7xfsGAnS82uB2e9ShbJl4y2tcM9vbUBLI4YBACeSE5dsLGvMDpWOlfBzo2BqcznSTCjzfgpxXgs5_x7TCFKYMpZ9rlK-KBXTlJmnHOohND4dwGjFsHzhuBYguW0ckJn3PzpGFo5HcmW5ub79rm6Dh-PGBJEwnB9kp6Fu4Oxu9N4oMo8XpF6_ztTwVWNianBWBLGp_ki5pZmVz6o41OJw27cQSUMYX9EdQHs_8SzdJOn8XatYMumLBJ6k3YfwEHfFG86-8rAV1bRpxLhZKJbmlL9RQ3MVVmOIuXaPOt1YZOb6bYVdjzHOFhxdDd81QbyPba3ulChLsoQT9AzUdlOEmRc4kT7vij3m3frU85RjUPQrZEMzmvv2vyq3ASzXS7QhxryfJFgqNhYnPDpjt-Qf9QauecjKMKWwFRrf2kXSqXz5YX4nQsr3qKLZ5u_tACN4ToVOuK1zZlbIPur9t-PDtgC1w8TEeH7SVpOL_Q5HOFrNPcKQIpWJ2odq1K7qwEllOUDJM6p3NllADfcFwaT27ISEgM109qd_1VG50_UV_ArtN1WzOdXTAt_sfeOSUm_0njFleG94EtwEA-Ge4wF0KQ-_-X1YW01CxlTT7fGtL8Zo5W1hxVlgdJPyEQTbhXJHWFSRBdv5af8gNT3uOVXZGfWA8v8T3ux1U-IqCEsu9TUEO5oXMzELuPsZ8kJ4iHRVcDcvSyVYwTU5lp9LkbwYgpwPm00UpURLD_qcrimCFYlbJEuGi3_TLzHchIjjLPTP7lXpsQz_r9T3sRVKQnV3-ffpPhxM_Qd8SMvzogWQlEi9QpTVhnpztaAkr2tJNM9qnOyCniyj6xPysoExxApfwxSiiog0VILrcV3Z-u5jc9k5pOMybDe1wXGOBRoMpfMvtaI-qMzfut1sRRjLlBjokWlxX9lYqH1xr9MdRYJxeGBSVBFomvN8zthHYUdNWxcEIDL-77zVhBzJJd7cvxlIDtXzEACthuB6mXsZ_3m00?></g></svg>