<svg xmlns="http://www.w3.org/2000/svg" xmlns:xlink="http://www.w3.org/1999/xlink" contentStyleType="text/css" data-diagram-type="SEQUENCE" height="1154px" preserveAspectRatio="none" style="width:941px;height:1154px;background:#FFFFFF;" version="1.1" viewBox="0 0 941 1154" width="941px" zoomAndPan="magnify"><?plantuml 1.2026.6?><defs/><g><rect fill="#FEFCFF" height="1128.5938" style="stroke:#181818;stroke-width:0.5;" width="275.8496" x="16" y="11"/><text fill="#000000" font-family="Helvetica" font-size="10" font-weight="700" x="122.3477" y="20.2822">Mobile App</text><rect fill="#EDFDEC" height="1128.5938" style="stroke:#181818;stroke-width:0.5;" width="374.2578" x="535.6792" y="11"/><text fill="#000000" font-family="Helvetica" font-size="10" font-weight="700" x="660.916" y="20.2822">Anbieter TI 2.0 Dienst</text><rect fill="#FFF3E5" height="1111.9531" style="stroke:#181818;stroke-width:0.5;" width="374.2578" x="535.6792" y="27.6406"/><text fill="#000000" font-family="Helvetica" font-size="10" font-weight="700" x="689.6636" y="36.9229">ZETA Guard</text><g><title>Fach-Client</title><rect fill="#000000" fill-opacity="0.00000" height="1013.75" width="8" x="51.6372" y="81.5625"/><line style="stroke:#000000;stroke-width:0.5;stroke-dasharray:5,5;" x1="55.1372" x2="55.1372" y1="81.5625" y2="1095.3125"/></g><g><title/><rect fill="#FFFFFF" height="915.9063" style="stroke:#181818;stroke-width:1;" width="10" x="50.1372" y="179.4063"/></g><g><title>ZETA Client</title><rect fill="#000000" fill-opacity="0.00000" height="1013.75" width="8" x="248.2261" y="81.5625"/><line style="stroke:#000000;stroke-width:0.5;stroke-dasharray:5,5;" x1="251.7261" x2="251.7261" y1="81.5625" y2="1095.3125"/></g><g><title/><rect fill="#FFFFFF" height="825.3438" style="stroke:#181818;stroke-width:1;" width="10" x="246.7261" y="208.6875"/></g><g><title>PDP</title><rect fill="#000000" fill-opacity="0.00000" height="1013.75" width="8" x="594.6538" y="81.5625"/><line style="stroke:#000000;stroke-width:0.5;stroke-dasharray:5,5;" x1="598.1538" x2="598.1538" y1="81.5625" y2="1095.3125"/></g><g><title/><rect fill="#FFFFFF" height="688.5" style="stroke:#181818;stroke-width:1;" width="10" x="593.1538" y="316.25"/></g><g><title>PDP</title><rect fill="#000000" fill-opacity="0.00000" height="1013.75" width="8" x="862.1509" y="81.5625"/><line style="stroke:#000000;stroke-width:0.5;stroke-dasharray:5,5;" x1="865.6509" x2="865.6509" y1="81.5625" y2="1095.3125"/></g><g><title/><rect fill="#FFFFFF" height="25.6406" style="stroke:#181818;stroke-width:1;" width="10" x="860.6509" y="781.9844"/></g><rect fill="#D5E8D4" height="25.6406" rx="2.5" ry="2.5" style="stroke:#82B366;stroke-width:0.5;" width="70.2744" x="20" y="54.9219"/><text fill="#000000" font-family="Helvetica" font-size="10" x="27" y="71.2041">Fach-Client</text><rect fill="#FFE6CC" height="25.6406" rx="2.5" ry="2.5" style="stroke:#D79B00;stroke-width:0.5;" width="72.2471" x="215.6025" y="54.9219"/><text fill="#000000" font-family="Helvetica" font-size="10" x="222.6025" y="71.2041">ZETA Client</text><rect fill="#FFE6CC" height="37.2813" rx="2.5" ry="2.5" style="stroke:#D79B00;stroke-width:0.5;" width="116.9492" x="539.6792" y="43.2813"/><text fill="#000000" font-family="Helvetica" font-size="10" x="588.2734" y="59.5635">PDP</text><text fill="#000000" font-family="Helvetica" font-size="10" x="546.6792" y="71.2041">Authorization Server</text><rect fill="#FFE6CC" height="37.2813" rx="2.5" ry="2.5" style="stroke:#D79B00;stroke-width:0.5;" width="80.5723" x="825.3647" y="43.2813"/><text fill="#000000" font-family="Helvetica" font-size="10" x="855.7705" y="59.5635">PDP</text><text fill="#000000" font-family="Helvetica" font-size="10" x="832.3647" y="71.2041">Policy Engine</text><rect fill="#D5E8D4" height="25.6406" rx="2.5" ry="2.5" style="stroke:#82B366;stroke-width:0.5;" width="70.2744" x="20" y="1095.3125"/><text fill="#000000" font-family="Helvetica" font-size="10" x="27" y="1111.5947">Fach-Client</text><rect fill="#FFE6CC" height="25.6406" rx="2.5" ry="2.5" style="stroke:#D79B00;stroke-width:0.5;" width="72.2471" x="215.6025" y="1095.3125"/><text fill="#000000" font-family="Helvetica" font-size="10" x="222.6025" y="1111.5947">ZETA Client</text><rect fill="#FFE6CC" height="37.2813" rx="2.5" ry="2.5" style="stroke:#D79B00;stroke-width:0.5;" width="116.9492" x="539.6792" y="1095.3125"/><text fill="#000000" font-family="Helvetica" font-size="10" x="588.2734" y="1111.5947">PDP</text><text fill="#000000" font-family="Helvetica" font-size="10" x="546.6792" y="1123.2354">Authorization Server</text><rect fill="#FFE6CC" height="37.2813" rx="2.5" ry="2.5" style="stroke:#D79B00;stroke-width:0.5;" width="80.5723" x="825.3647" y="1095.3125"/><text fill="#000000" font-family="Helvetica" font-size="10" x="855.7705" y="1111.5947">PDP</text><text fill="#000000" font-family="Helvetica" font-size="10" x="832.3647" y="1123.2354">Policy Engine</text><path d="M22.4255,94.5625 L22.4255,173.5625 L897.4255,173.5625 L897.4255,104.5625 L887.4255,94.5625 L22.4255,94.5625" fill="#FEFFDD" style="stroke:#181818;stroke-width:0.5;"/><path d="M887.4255,94.5625 L887.4255,104.5625 L897.4255,104.5625 L887.4255,94.5625" fill="#FEFFDD" style="stroke:#181818;stroke-width:0.5;"/><text fill="#000000" font-family="Helvetica" font-size="10" font-weight="700" x="181.585" y="108.8447">Vorbedingungen:</text><text fill="#000000" font-family="Helvetica" font-size="10" x="181.585" y="120.4854">- Service Discovery ist abgeschlossen (Abb-ZETA-Service-Discovery); der ZETA Client kennt die Endpunkte</text><text fill="#000000" font-family="Helvetica" font-size="10" x="187.9424" y="132.126">des PDP Authorization Server, insbesondere den token_endpoint (as-well-known).</text><text fill="#000000" font-family="Helvetica" font-size="10" x="181.585" y="143.7666">- Der ZETA Client wurde per Dynamic Client Registration registriert und besitzt PrK.Client.Sig / PuK.Client.Sig.</text><text fill="#000000" font-family="Helvetica" font-size="10" x="181.585" y="155.4072">-</text><text fill="#000000" font-family="Helvetica" font-size="10" font-weight="700" x="188.3721" y="155.4072">Keine</text><text fill="#000000" font-family="Helvetica" font-size="10" x="223.4111" y="155.4072">Nutzer-Authentisierung erforderlich: Jeder Nutzer ist f&#252;r den Dienst grunds&#228;tzlich berechtigt;</text><text fill="#000000" font-family="Helvetica" font-size="10" x="187.9424" y="167.0479">bewertet wird ausschlie&#223;lich der Client durch die Policy Engine.</text><polygon fill="#181818" points="234.7261,204.6875,244.7261,208.6875,234.7261,212.6875,238.7261,208.6875" style="stroke:#181818;stroke-width:1;stroke-linejoin:miter;stroke-miterlimit:10;"/><line style="stroke:#181818;stroke-width:1;" x1="60.1372" x2="240.7261" y1="208.6875" y2="208.6875"/><text fill="#000000" font-family="Helvetica" font-size="10" x="67.1372" y="198.5088">(01)</text><text fill="#000000" font-family="Helvetica" font-size="10" x="91.6646" y="192.6885">Beauftragt Verarbeitung des</text><text fill="#000000" font-family="Helvetica" font-size="10" x="91.6646" y="204.3291">fachlichen Requests</text><path d="M158.9932,221.6875 L158.9932,254.6875 L689.9932,254.6875 L689.9932,231.6875 L679.9932,221.6875 L158.9932,221.6875" fill="#FEFFDD" style="stroke:#181818;stroke-width:0.5;"/><path d="M679.9932,221.6875 L679.9932,231.6875 L689.9932,231.6875 L679.9932,221.6875" fill="#FEFFDD" style="stroke:#181818;stroke-width:0.5;"/><text fill="#000000" font-family="Helvetica" font-size="10" x="164.9932" y="235.9697">Es findet</text><text fill="#000000" font-family="Helvetica" font-size="10" font-weight="700" x="211.9365" y="235.9697">kein</text><text fill="#000000" font-family="Helvetica" font-size="10" x="239.0947" y="235.9697">Authorization Code Flow und</text><text fill="#000000" font-family="Helvetica" font-size="10" font-weight="700" x="386.2383" y="235.9697">keine</text><text fill="#000000" font-family="Helvetica" font-size="10" x="420.1787" y="235.9697">Nutzerauthentisierung am sektoralen IDP statt.</text><text fill="#000000" font-family="Helvetica" font-size="10" x="164.9932" y="247.6104">Der Client authentisiert sich direkt am Token-Endpunkt via JWT-Bearer-Grant (RFC 7523, Section 2.1).</text><line style="stroke:#181818;stroke-width:1;" x1="256.7261" x2="298.7261" y1="277.6094" y2="277.6094"/><line style="stroke:#181818;stroke-width:1;" x1="298.7261" x2="298.7261" y1="277.6094" y2="290.6094"/><line style="stroke:#181818;stroke-width:1;" x1="257.7261" x2="298.7261" y1="290.6094" y2="290.6094"/><polygon fill="#181818" points="267.7261,286.6094,257.7261,290.6094,267.7261,294.6094,263.7261,290.6094" style="stroke:#181818;stroke-width:1;stroke-linejoin:miter;stroke-miterlimit:10;"/><text fill="#000000" font-family="Helvetica" font-size="10" x="263.7261" y="273.251">(02)</text><text fill="#000000" font-family="Helvetica" font-size="10" x="288.2534" y="273.251">Erzeuge DPoP Key Pair</text><polygon fill="#181818" points="581.1538,312.25,591.1538,316.25,581.1538,320.25,585.1538,316.25" style="stroke:#181818;stroke-width:1;stroke-linejoin:miter;stroke-miterlimit:10;"/><line style="stroke:#181818;stroke-width:1;" x1="256.7261" x2="587.1538" y1="316.25" y2="316.25"/><text fill="#000000" font-family="Helvetica" font-size="10" x="263.7261" y="311.8916">(03)</text><text fill="#000000" font-family="Helvetica" font-size="10" x="288.2534" y="311.8916">GET /nonce</text><polygon fill="#181818" points="267.7261,337.8906,257.7261,341.8906,267.7261,345.8906,263.7261,341.8906" style="stroke:#181818;stroke-width:1;stroke-linejoin:miter;stroke-miterlimit:10;"/><line style="stroke:#181818;stroke-width:1;stroke-dasharray:2,2;" x1="261.7261" x2="592.1538" y1="341.8906" y2="341.8906"/><text fill="#000000" font-family="Helvetica" font-size="10" x="273.7261" y="337.5322">(04)</text><text fill="#000000" font-family="Helvetica" font-size="10" x="298.2534" y="337.5322">Nonce</text><line style="stroke:#181818;stroke-width:1;" x1="256.7261" x2="298.7261" y1="367.5313" y2="367.5313"/><line style="stroke:#181818;stroke-width:1;" x1="298.7261" x2="298.7261" y1="367.5313" y2="380.5313"/><line style="stroke:#181818;stroke-width:1;" x1="257.7261" x2="298.7261" y1="380.5313" y2="380.5313"/><polygon fill="#181818" points="267.7261,376.5313,257.7261,380.5313,267.7261,384.5313,263.7261,380.5313" style="stroke:#181818;stroke-width:1;stroke-linejoin:miter;stroke-miterlimit:10;"/><text fill="#000000" font-family="Helvetica" font-size="10" x="263.7261" y="363.1729">(05)</text><text fill="#000000" font-family="Helvetica" font-size="10" x="288.2534" y="363.1729">Create DPoP Proof (with Nonce from AuthS)</text><line style="stroke:#181818;stroke-width:1;" x1="256.7261" x2="298.7261" y1="441.0938" y2="441.0938"/><line style="stroke:#181818;stroke-width:1;" x1="298.7261" x2="298.7261" y1="441.0938" y2="454.0938"/><line style="stroke:#181818;stroke-width:1;" x1="257.7261" x2="298.7261" y1="454.0938" y2="454.0938"/><polygon fill="#181818" points="267.7261,450.0938,257.7261,454.0938,267.7261,458.0938,263.7261,454.0938" style="stroke:#181818;stroke-width:1;stroke-linejoin:miter;stroke-miterlimit:10;"/><text fill="#000000" font-family="Helvetica" font-size="10" x="263.7261" y="419.2744">(06)</text><text fill="#000000" font-family="Helvetica" font-size="10" x="288.2534" y="401.8135">Erzeuge JWT-Bearer Assertion</text><text fill="#000000" font-family="Helvetica" font-size="10" x="288.2534" y="413.4541">(JWT, signiert mit PrK.Client.Sig)</text><text fill="#000000" font-family="Helvetica" font-size="10" x="288.2534" y="425.0947">{iss=client_id, sub=client_id,</text><text fill="#000000" font-family="Helvetica" font-size="10" x="288.2534" y="436.7354">aud=token_endpoint, exp, iat, jti}</text><polygon fill="#181818" points="581.1538,510.6563,591.1538,514.6563,581.1538,518.6563,585.1538,514.6563" style="stroke:#181818;stroke-width:1;stroke-linejoin:miter;stroke-miterlimit:10;"/><line style="stroke:#181818;stroke-width:1;" x1="256.7261" x2="587.1538" y1="514.6563" y2="514.6563"/><text fill="#000000" font-family="Helvetica" font-size="10" x="263.7261" y="492.8369">(07)</text><text fill="#000000" font-family="Helvetica" font-size="10" x="288.2534" y="475.376">POST /token  dpop: &lt;dpop_proof&gt;</text><text fill="#000000" font-family="Helvetica" font-size="10" x="288.2534" y="487.0166">{grant_type=urn:ietf:params:oauth:grant-type:jwt-bearer,</text><text fill="#000000" font-family="Helvetica" font-size="10" x="288.2534" y="498.6572">assertion=&lt;JWT-Bearer Assertion&gt;, client_id,</text><text fill="#000000" font-family="Helvetica" font-size="10" x="288.2534" y="510.2979">scope, resource=&lt;Resource ServerS Endpunkt&gt;}</text><path d="M608.1538,527.6563 L608.1538,595.6563 L925.1538,595.6563 L925.1538,537.6563 L915.1538,527.6563 L608.1538,527.6563" fill="#FEFFDD" style="stroke:#181818;stroke-width:0.5;"/><path d="M915.1538,527.6563 L915.1538,537.6563 L925.1538,537.6563 L915.1538,527.6563" fill="#FEFFDD" style="stroke:#181818;stroke-width:0.5;"/><text fill="#000000" font-family="Helvetica" font-size="10" x="614.1538" y="541.9385">RFC 7523 Section 2.1:</text><text fill="#000000" font-family="Helvetica" font-size="10" x="614.1538" y="553.5791">- grant_type = urn:ietf:params:oauth:grant-type:jwt-bearer</text><text fill="#000000" font-family="Helvetica" font-size="10" x="614.1538" y="565.2197">- assertion = signiertes JWT des Clients</text><text fill="#000000" font-family="Helvetica" font-size="10" x="614.1538" y="576.8604">Die Assertion dient zugleich als Client-Authentisierung</text><text fill="#000000" font-family="Helvetica" font-size="10" x="614.1538" y="588.501">(Key Binding aus DCR: PuK.Client.Sig).</text><line style="stroke:#181818;stroke-width:1;" x1="603.1538" x2="645.1538" y1="641.7813" y2="641.7813"/><line style="stroke:#181818;stroke-width:1;" x1="645.1538" x2="645.1538" y1="641.7813" y2="654.7813"/><line style="stroke:#181818;stroke-width:1;" x1="604.1538" x2="645.1538" y1="654.7813" y2="654.7813"/><polygon fill="#181818" points="614.1538,650.7813,604.1538,654.7813,614.1538,658.7813,610.1538,654.7813" style="stroke:#181818;stroke-width:1;stroke-linejoin:miter;stroke-miterlimit:10;"/><text fill="#000000" font-family="Helvetica" font-size="10" x="610.1538" y="625.7822">(08)</text><text fill="#000000" font-family="Helvetica" font-size="10" x="634.6812" y="614.1416">Verifiziere JWT-Bearer Assertion</text><text fill="#000000" font-family="Helvetica" font-size="10" x="634.6812" y="625.7822">(Signatur gegen PuK.Client.Sig aus DCR,</text><text fill="#000000" font-family="Helvetica" font-size="10" x="634.6812" y="637.4229">iss/sub/aud/exp/jti), verifiziere DPoP Proof</text><rect fill="#EEEEEE" height="3" style="stroke:#EEEEEE;stroke-width:1;" width="920.6577" x="10" y="681.6016"/><line style="stroke:#000000;stroke-width:1;" x1="10" x2="930.6577" y1="681.6016" y2="681.6016"/><line style="stroke:#000000;stroke-width:1;" x1="10" x2="930.6577" y1="684.6016" y2="684.6016"/><rect fill="#EEEEEE" height="19.6406" style="stroke:#000000;stroke-width:2;" width="265.46" x="337.5989" y="672.7813"/><text fill="#000000" font-family="Helvetica" font-size="10" font-weight="700" x="343.5989" y="686.0635">Policy-Entscheidung (nur Client-Bewertung)</text><line style="stroke:#181818;stroke-width:1;" x1="603.1538" x2="645.1538" y1="743.3438" y2="743.3438"/><line style="stroke:#181818;stroke-width:1;" x1="645.1538" x2="645.1538" y1="743.3438" y2="756.3438"/><line style="stroke:#181818;stroke-width:1;" x1="604.1538" x2="645.1538" y1="756.3438" y2="756.3438"/><polygon fill="#181818" points="614.1538,752.3438,604.1538,756.3438,614.1538,760.3438,610.1538,756.3438" style="stroke:#181818;stroke-width:1;stroke-linejoin:miter;stroke-miterlimit:10;"/><text fill="#000000" font-family="Helvetica" font-size="10" x="610.1538" y="727.3447">(09)</text><text fill="#000000" font-family="Helvetica" font-size="10" x="634.6812" y="715.7041">Erzeuge Policy Engine Input</text><text fill="#000000" font-family="Helvetica" font-size="10" x="634.6812" y="727.3447">(Client-Identit&#228;t, Client-Posture, Kontext;</text><text fill="#000000" font-family="Helvetica" font-size="10" font-weight="700" x="634.6812" y="738.9854">keine</text><text fill="#000000" font-family="Helvetica" font-size="10" x="668.6216" y="738.9854">Nutzer-Identit&#228;ts-Claims)</text><polygon fill="#181818" points="848.6509,777.9844,858.6509,781.9844,848.6509,785.9844,852.6509,781.9844" style="stroke:#181818;stroke-width:1;stroke-linejoin:miter;stroke-miterlimit:10;"/><line style="stroke:#181818;stroke-width:1;" x1="603.1538" x2="854.6509" y1="781.9844" y2="781.9844"/><text fill="#000000" font-family="Helvetica" font-size="10" x="610.1538" y="777.626">(10)</text><text fill="#000000" font-family="Helvetica" font-size="10" x="634.6812" y="777.626">POST /v1/data/authz {Policy Engine Input}</text><polygon fill="#181818" points="614.1538,803.625,604.1538,807.625,614.1538,811.625,610.1538,807.625" style="stroke:#181818;stroke-width:1;stroke-linejoin:miter;stroke-miterlimit:10;"/><line style="stroke:#181818;stroke-width:1;stroke-dasharray:2,2;" x1="608.1538" x2="859.6509" y1="807.625" y2="807.625"/><text fill="#000000" font-family="Helvetica" font-size="10" x="620.1538" y="803.2666">(11)</text><text fill="#000000" font-family="Helvetica" font-size="10" x="644.6812" y="803.2666">Policy Decision</text><path d="M199.6025,819.625 L259.5586,819.625 L259.5586,823.2656 L249.5586,833.2656 L199.6025,833.2656 L199.6025,819.625" fill="#EEEEEE" style="stroke:#000000;stroke-width:1.5;"/><rect fill="none" height="171.125" style="stroke:#000000;stroke-width:1.5;" width="473.0259" x="199.6025" y="819.625"/><text fill="#000000" font-family="Helvetica" font-size="10" font-weight="700" x="214.6025" y="829.9072">alt</text><text fill="#000000" font-family="Helvetica" font-size="10" font-weight="700" x="274.5586" y="830.9072">[Policy Decision allow]</text><line style="stroke:#000000;stroke-width:1;stroke-dasharray:2,2;" x1="199.6025" x2="672.6284" y1="946.4688" y2="946.4688"/><text fill="#000000" font-family="Helvetica" font-size="10" font-weight="700" x="204.6025" y="957.751">[Policy Decision deny]</text><polygon fill="#181818" points="267.7261,880.1875,257.7261,884.1875,267.7261,888.1875,263.7261,884.1875" style="stroke:#181818;stroke-width:1;stroke-linejoin:miter;stroke-miterlimit:10;"/><line style="stroke:#181818;stroke-width:1;stroke-dasharray:2,2;" x1="261.7261" x2="592.1538" y1="884.1875" y2="884.1875"/><text fill="#000000" font-family="Helvetica" font-size="10" x="273.7261" y="868.1885">(12)</text><text fill="#000000" font-family="Helvetica" font-size="10" x="298.2534" y="856.5479">200 OK</text><text fill="#000000" font-family="Helvetica" font-size="10" x="298.2534" y="868.1885">{access_token (DPoP-gebunden, ohne Nutzer-Claims),</text><text fill="#000000" font-family="Helvetica" font-size="10" x="298.2534" y="879.8291">token_type=DPoP, expires_in}</text><path d="M209.427,897.1875 L209.427,930.1875 L640.427,930.1875 L640.427,907.1875 L630.427,897.1875 L209.427,897.1875" fill="#FEFFDD" style="stroke:#181818;stroke-width:0.5;"/><path d="M630.427,897.1875 L630.427,907.1875 L640.427,907.1875 L630.427,897.1875" fill="#FEFFDD" style="stroke:#181818;stroke-width:0.5;"/><text fill="#000000" font-family="Helvetica" font-size="10" x="242.4761" y="911.4697">Das Access Token enth&#228;lt keine Nutzer-Identit&#228;t, ist aber an den Client</text><text fill="#000000" font-family="Helvetica" font-size="10" x="242.4761" y="923.1104">gebunden (DPoP) und spiegelt die positive Policy-Entscheidung wider.</text><polygon fill="#181818" points="267.7261,978.75,257.7261,982.75,267.7261,986.75,263.7261,982.75" style="stroke:#181818;stroke-width:1;stroke-linejoin:miter;stroke-miterlimit:10;"/><line style="stroke:#181818;stroke-width:1;stroke-dasharray:2,2;" x1="261.7261" x2="592.1538" y1="982.75" y2="982.75"/><text fill="#000000" font-family="Helvetica" font-size="10" x="273.7261" y="978.3916">(13)</text><text fill="#000000" font-family="Helvetica" font-size="10" x="298.2534" y="978.3916">403 Forbidden {"reasons": ["..."]}</text><polygon fill="#181818" points="71.1372,1030.0313,61.1372,1034.0313,71.1372,1038.0313,67.1372,1034.0313" style="stroke:#181818;stroke-width:1;stroke-linejoin:miter;stroke-miterlimit:10;"/><line style="stroke:#181818;stroke-width:1;stroke-dasharray:2,2;" x1="65.1372" x2="245.7261" y1="1034.0313" y2="1034.0313"/><text fill="#000000" font-family="Helvetica" font-size="10" x="77.1372" y="1023.8525">(14)</text><text fill="#000000" font-family="Helvetica" font-size="10" x="101.6646" y="1018.0322">Fachliche Response</text><text fill="#000000" font-family="Helvetica" font-size="10" x="101.6646" y="1029.6729">(bzw. Fehler bei deny)</text><path d="M166.4297,1047.0313 L166.4297,1080.0313 L683.4297,1080.0313 L683.4297,1057.0313 L673.4297,1047.0313 L166.4297,1047.0313" fill="#FEFFDD" style="stroke:#181818;stroke-width:0.5;"/><path d="M673.4297,1047.0313 L673.4297,1057.0313 L683.4297,1057.0313 L673.4297,1047.0313" fill="#FEFFDD" style="stroke:#181818;stroke-width:0.5;"/><text fill="#000000" font-family="Helvetica" font-size="10" x="172.4297" y="1061.3135">Der ZETA Client kann mit dem DPoP-gebundenen Access Token auf den Resource Server zugreifen</text><text fill="#000000" font-family="Helvetica" font-size="10" x="172.4297" y="1072.9541">(siehe Abb-ZETA-Zugriff-auf-RS-mit-ASL bzw. Abb-ZETA-Zugriff-auf-RS-ohne-ASL).</text><?plantuml-src dLRTRXf75BxdAKwvAM0MKgTLfOsnH0os7ASnmguZfQwiWJt0nCliTcRMs4H-bjxaCNhd5-itixlynOxKvYA6uVoVxtpd_23LECuYfbQhdMRpE8Z5GvBPbhstbKhbH-gEOf5DGZgA9IiRT3CxmryvaKl9EbDJIcQAwKDcbwo3qyZzPf--Mggz-tWPl6MXyNoYXR9D6XuVqQ-_xB-km-n7gIEQFFsZgGUxnZBTiLwmYXY2_ZsIJ9yvObqOfodSHGQsbx4SpsZ4ciSpAwUMfB4jsEmRMZYp8ZDcF4EyJtzxIMSZ3v-YJBi7c1ua-Es1-ceg4V-85wmjmqnbbDnJzRTa96EcRffMgTU_EZtgtnoTlpyVLeXIeQqSonGf4H8IXgh7OZmBSWzLEZX8TN8duVJmS4Uy2CAfVEfVTccjicGh88xy2VwB8Bfg9DaY-CjJsc-zAYfLfS7m_Egqrn-kGlBItk999dHK9VVvvkJtxh2tajcEnBNnmWSow0skbVkQQBaKLYQABbYZ6HjXxMgV3xfhtQr2RYcLsQooKWdwdC0s2jTqLY3KQ5mbUiIHL5EWYLNOQE0ry478CIDfCtOg3wxB94PJThrDZ655jUve5BXSWq8wM4dNt_YsRvIPRbav1A3tVHMbcRgrx3EBs10oeUUAq2Ifp8XD0c1gXgWYcy3G3N9A4mbxDM621STnSAkIXQgtVF2z7TUBJ6F2Khps7fIOot7vmv2dI4ldBdN-1NDbANCrOoFjqj90dxLo-TQ5d5AR1jdcG-woqJXZDA3HA6Und5HJp2dhIO8ej1k9aDvjJfQhR3vpo2z7sSlJziONhHoO_pjnBOyA1uXAvVXeRm__KN1OAktjKKWWZso2sc30hrWBW4HQbmZwTQqcmlaR8qFKyA-CZJMR-ChjD7ES8s1GmqGwSa6TRb4db6cxtKS96dGS9mjV-LneNKonKqin9yEtDj4YHW2d08-nmbhNYTuwzKqjIyONHcheEVrB1wEWH2BTIK6xZ4craZ6RWEFOnxdV-gc-MRl2rQfq8VNrahCf1cUG3EYC7sWWfDwGyoNPsmlff7z9RPMeCLToEWWsh7pmxxlMqPKZpS8MrWSwIIPKMqWxonLeefDvxg7-dT3MYL8NWwnTPjVAROmcoZHLlbvpkOly-hNw8etfZFtBZOmWdOqslbuhaKMTxG5j4j-d66E1Jv-jVApibYAamVa5Ak7Lm0PfaePquFxSf2w_GtYTkdRSs8UKEvbM8LXv4e8GnTo4YUjow0K29n1-NjXWv9DpyPJfTGwUI_gmIPlHWxjIRe87J8AfuSx1iFXKiD75YhaE7mkqQpcTMK8NIgINaDb4JEWPOfq4TUW_fE6LLub0jsmHU1D9UVxCQseS_Z7fg_pStAFKosmQiuE_YCtk8L6C53Hh3gnlCQNIJLXcg7Sq37UuRWlx1MfNVGHB57V9Yn232ILiXcE2iMjsZ9TEqGd0h0rijO6dDl3J1dBgJNUYh1oi1w1IwNGASiCyMn0XoyYnH4rb9HSW5iUNUArJf_DjwELaR5ybfohDBA8kRAolgsPfTf0OP0FCd2NAyhrzSwrskMj3pU184N9kwcl_MCAE2_8HkFkf7GahsWuBI_hoJ32F5RVxWpBm80ZBa7iyHYyJLQc8sEu-el6WLhyulgMQ_LUlwFmCKoR6OpRc9X_4cYjmCEKH-9XLS-lCBB90d_9PzuFfvFsmWsBDZLIFtjtBAy7zw-6AwNglEH_ZPB6pfw-nEnRaSsTjixX2O4yelovpiuMzCjmy-hhV9IQLm5gSNnvfWfKkx_XPl2pSqTZofbOWvzZmDzM4XuSNYldpgzTqZ8DAHYwCBrMmDOuNKmtfZsghrQh--UW6g1An03lSEIRFwx5YHTXogpW0rH-NEnOhrgImmi3YQBbeqJ7FOfG06zd7Kl_UwjszXMw5KfxS8vxJLfCHy5OpiFvzYNTOqD69PZbXvKW3_840LuVW9_mc9vC0ki7m8e2Ve7lnddpKBmavQ3cfJNBv5m00?></g></svg>