<svg xmlns="http://www.w3.org/2000/svg" xmlns:xlink="http://www.w3.org/1999/xlink" contentStyleType="text/css" data-diagram-type="SEQUENCE" height="805px" preserveAspectRatio="none" style="width:1259px;height:805px;background:#FFFFFF;" version="1.1" viewBox="0 0 1259 805" width="1259px" zoomAndPan="magnify"><?plantuml 1.2026.6?><defs/><g><rect fill="#FEFCFF" height="779.7188" style="stroke:#181818;stroke-width:0.5;" width="277.7822" x="228.4878" y="11"/><text fill="#000000" font-family="Helvetica" font-size="10" font-weight="700" x="335.8018" y="20.2822">Mobile App</text><rect fill="#E4E4F4" height="779.7188" style="stroke:#181818;stroke-width:0.5;" width="124.2217" x="518.27" y="11"/><text fill="#000000" font-family="Helvetica" font-size="10" font-weight="700" x="541.3184" y="20.2822">Authenticator</text><rect fill="#EDFDEC" height="779.7188" style="stroke:#181818;stroke-width:0.5;" width="215.6045" x="828.9517" y="11"/><text fill="#000000" font-family="Helvetica" font-size="10" font-weight="700" x="874.8618" y="20.2822">Anbieter TI 2.0 Dienst</text><rect fill="#FFF3E5" height="763.0781" style="stroke:#181818;stroke-width:0.5;" width="215.6045" x="828.9517" y="27.6406"/><text fill="#000000" font-family="Helvetica" font-size="10" font-weight="700" x="903.6094" y="36.9229">ZETA Guard</text><rect fill="#EAF2FF" height="779.7188" style="stroke:#181818;stroke-width:0.5;" width="185.5557" x="1056.5562" y="11"/><text fill="#000000" font-family="Helvetica" font-size="10" font-weight="700" x="1111.2285" y="20.2822">TI-F&#246;deration</text><g><title>Nutzer</title><rect fill="#000000" fill-opacity="0.00000" height="574.875" width="8" x="44.0898" y="126.5625"/><line style="stroke:#000000;stroke-width:0.5;stroke-dasharray:5,5;" x1="47.5898" x2="47.5898" y1="126.5625" y2="701.4375"/></g><g><title>Fach-Client</title><rect fill="#000000" fill-opacity="0.00000" height="574.875" width="8" x="264.125" y="126.5625"/><line style="stroke:#000000;stroke-width:0.5;stroke-dasharray:5,5;" x1="267.625" x2="267.625" y1="126.5625" y2="701.4375"/></g><g><title/><rect fill="#FFFFFF" height="441.3906" style="stroke:#181818;stroke-width:1;" width="10" x="262.625" y="242.0469"/></g><g><title>ZETA Client</title><rect fill="#000000" fill-opacity="0.00000" height="574.875" width="8" x="462.6465" y="126.5625"/><line style="stroke:#000000;stroke-width:0.5;stroke-dasharray:5,5;" x1="466.1465" x2="466.1465" y1="126.5625" y2="701.4375"/></g><g><title/><rect fill="#FFFFFF" height="316.5469" style="stroke:#181818;stroke-width:1;" width="10" x="461.1465" y="341.25"/></g><g><title>Authenticator-Modul</title><rect fill="#000000" fill-opacity="0.00000" height="574.875" width="8" x="576.8809" y="126.5625"/><line style="stroke:#000000;stroke-width:0.5;stroke-dasharray:5,5;" x1="580.3809" x2="580.3809" y1="126.5625" y2="701.4375"/></g><g><title>PDP</title><rect fill="#000000" fill-opacity="0.00000" height="574.875" width="8" x="887.9678" y="126.5625"/><line style="stroke:#000000;stroke-width:0.5;stroke-dasharray:5,5;" x1="891.4678" x2="891.4678" y1="126.5625" y2="701.4375"/></g><g><title>PDP</title><rect fill="#000000" fill-opacity="0.00000" height="574.875" width="8" x="996.77" y="126.5625"/><line style="stroke:#000000;stroke-width:0.5;stroke-dasharray:5,5;" x1="1000.27" x2="1000.27" y1="126.5625" y2="701.4375"/></g><g><title>Sektoraler IDP</title><rect fill="#000000" fill-opacity="0.00000" height="574.875" width="8" x="1106.9346" y="126.5625"/><line style="stroke:#000000;stroke-width:0.5;stroke-dasharray:5,5;" x1="1110.4346" x2="1110.4346" y1="126.5625" y2="701.4375"/></g><g><title>Federation</title><rect fill="#000000" fill-opacity="0.00000" height="574.875" width="8" x="1200.7124" y="126.5625"/><line style="stroke:#000000;stroke-width:0.5;stroke-dasharray:5,5;" x1="1204.2124" x2="1204.2124" y1="126.5625" y2="701.4375"/></g><text fill="#000000" font-family="Helvetica" font-size="10" x="27.9639" y="112.5635">Nutzer</text><text fill="#000000" font-family="Helvetica" font-size="10" x="10" y="124.2041">(Versicherter)</text><ellipse cx="47.5898" cy="51.7813" fill="#E2E2F0" rx="8" ry="8" style="stroke:#181818;stroke-width:0.5;"/><path d="M47.5898,59.7813 L47.5898,86.7813 M34.5898,67.7813 L60.5898,67.7813 M47.5898,86.7813 L34.5898,101.7813 M47.5898,86.7813 L60.5898,101.7813" fill="none" style="stroke:#181818;stroke-width:0.5;"/><rect fill="#D5E8D4" height="25.6406" rx="2.5" ry="2.5" style="stroke:#82B366;stroke-width:0.5;" width="70.2744" x="232.4878" y="99.9219"/><text fill="#000000" font-family="Helvetica" font-size="10" x="239.4878" y="116.2041">Fach-Client</text><rect fill="#FFE6CC" height="25.6406" rx="2.5" ry="2.5" style="stroke:#D79B00;stroke-width:0.5;" width="72.2471" x="430.0229" y="99.9219"/><text fill="#000000" font-family="Helvetica" font-size="10" x="437.0229" y="116.2041">ZETA Client</text><rect fill="#E2E2F0" height="37.2813" rx="2.5" ry="2.5" style="stroke:#181818;stroke-width:0.5;" width="116.2217" x="522.27" y="88.2813"/><text fill="#000000" font-family="Helvetica" font-size="10" x="529.27" y="104.5635">Authenticator-Modul</text><text fill="#000000" font-family="Helvetica" font-size="10" x="541.3135" y="116.2041">(sektoraler IDP)</text><rect fill="#FFE6CC" height="48.9219" rx="2.5" ry="2.5" style="stroke:#D79B00;stroke-width:0.5;" width="117.0322" x="832.9517" y="76.6406"/><text fill="#000000" font-family="Helvetica" font-size="10" x="881.5874" y="92.9229">PDP</text><text fill="#000000" font-family="Helvetica" font-size="10" x="839.9932" y="104.5635">Authorization Server</text><text fill="#000000" font-family="Helvetica" font-size="10" x="839.9517" y="116.2041">(OIDC Relying Party)</text><rect fill="#FFE6CC" height="37.2813" rx="2.5" ry="2.5" style="stroke:#D79B00;stroke-width:0.5;" width="80.5723" x="959.9839" y="88.2813"/><text fill="#000000" font-family="Helvetica" font-size="10" x="990.3896" y="104.5635">PDP</text><text fill="#000000" font-family="Helvetica" font-size="10" x="966.9839" y="116.2041">Policy Engine</text><rect fill="#E2E2F0" height="48.9219" rx="2.5" ry="2.5" style="stroke:#181818;stroke-width:0.5;" width="99.7568" x="1060.5562" y="76.6406"/><text fill="#000000" font-family="Helvetica" font-size="10" x="1074.6997" y="92.9229">Sektoraler IDP</text><text fill="#000000" font-family="Helvetica" font-size="10" x="1075.1099" y="104.5635">(PAR- / Auth- /</text><text fill="#000000" font-family="Helvetica" font-size="10" x="1067.5562" y="116.2041">Token-Endpunkt)</text><rect fill="#E2E2F0" height="37.2813" rx="2.5" ry="2.5" style="stroke:#181818;stroke-width:0.5;" width="67.7988" x="1170.313" y="88.2813"/><text fill="#000000" font-family="Helvetica" font-size="10" x="1177.313" y="104.5635">Federation</text><text fill="#000000" font-family="Helvetica" font-size="10" x="1187.1372" y="116.2041">Master</text><text fill="#000000" font-family="Helvetica" font-size="10" x="27.9639" y="770.7197">Nutzer</text><text fill="#000000" font-family="Helvetica" font-size="10" x="10" y="782.3604">(Versicherter)</text><ellipse cx="47.5898" cy="709.9375" fill="#E2E2F0" rx="8" ry="8" style="stroke:#181818;stroke-width:0.5;"/><path d="M47.5898,717.9375 L47.5898,744.9375 M34.5898,725.9375 L60.5898,725.9375 M47.5898,744.9375 L34.5898,759.9375 M47.5898,744.9375 L60.5898,759.9375" fill="none" style="stroke:#181818;stroke-width:0.5;"/><rect fill="#D5E8D4" height="25.6406" rx="2.5" ry="2.5" style="stroke:#82B366;stroke-width:0.5;" width="70.2744" x="232.4878" y="701.4375"/><text fill="#000000" font-family="Helvetica" font-size="10" x="239.4878" y="717.7197">Fach-Client</text><rect fill="#FFE6CC" height="25.6406" rx="2.5" ry="2.5" style="stroke:#D79B00;stroke-width:0.5;" width="72.2471" x="430.0229" y="701.4375"/><text fill="#000000" font-family="Helvetica" font-size="10" x="437.0229" y="717.7197">ZETA Client</text><rect fill="#E2E2F0" height="37.2813" rx="2.5" ry="2.5" style="stroke:#181818;stroke-width:0.5;" width="116.2217" x="522.27" y="701.4375"/><text fill="#000000" font-family="Helvetica" font-size="10" x="529.27" y="717.7197">Authenticator-Modul</text><text fill="#000000" font-family="Helvetica" font-size="10" x="541.3135" y="729.3604">(sektoraler IDP)</text><rect fill="#FFE6CC" height="48.9219" rx="2.5" ry="2.5" style="stroke:#D79B00;stroke-width:0.5;" width="117.0322" x="832.9517" y="701.4375"/><text fill="#000000" font-family="Helvetica" font-size="10" x="881.5874" y="717.7197">PDP</text><text fill="#000000" font-family="Helvetica" font-size="10" x="839.9932" y="729.3604">Authorization Server</text><text fill="#000000" font-family="Helvetica" font-size="10" x="839.9517" y="741.001">(OIDC Relying Party)</text><rect fill="#FFE6CC" height="37.2813" rx="2.5" ry="2.5" style="stroke:#D79B00;stroke-width:0.5;" width="80.5723" x="959.9839" y="701.4375"/><text fill="#000000" font-family="Helvetica" font-size="10" x="990.3896" y="717.7197">PDP</text><text fill="#000000" font-family="Helvetica" font-size="10" x="966.9839" y="729.3604">Policy Engine</text><rect fill="#E2E2F0" height="48.9219" rx="2.5" ry="2.5" style="stroke:#181818;stroke-width:0.5;" width="99.7568" x="1060.5562" y="701.4375"/><text fill="#000000" font-family="Helvetica" font-size="10" x="1074.6997" y="717.7197">Sektoraler IDP</text><text fill="#000000" font-family="Helvetica" font-size="10" x="1075.1099" y="729.3604">(PAR- / Auth- /</text><text fill="#000000" font-family="Helvetica" font-size="10" x="1067.5562" y="741.001">Token-Endpunkt)</text><rect fill="#E2E2F0" height="37.2813" rx="2.5" ry="2.5" style="stroke:#181818;stroke-width:0.5;" width="67.7988" x="1170.313" y="701.4375"/><text fill="#000000" font-family="Helvetica" font-size="10" x="1177.313" y="717.7197">Federation</text><text fill="#000000" font-family="Helvetica" font-size="10" x="1187.1372" y="729.3604">Master</text><path d="M205.5601,139.5625 L205.5601,207.5625 L952.5601,207.5625 L952.5601,149.5625 L942.5601,139.5625 L205.5601,139.5625" fill="#FEFFDD" style="stroke:#181818;stroke-width:0.5;"/><path d="M942.5601,139.5625 L942.5601,149.5625 L952.5601,149.5625 L942.5601,139.5625" fill="#FEFFDD" style="stroke:#181818;stroke-width:0.5;"/><text fill="#000000" font-family="Helvetica" font-size="10" font-weight="700" x="211.5601" y="153.8447">Vorbedingungen:</text><text fill="#000000" font-family="Helvetica" font-size="10" x="211.5601" y="165.4854">- Service Discovery ist abgeschlossen (Abb-ZETA-Service-Discovery), der ZETA Client kennt die Endpunkte des PDP Authorization Server.</text><text fill="#000000" font-family="Helvetica" font-size="10" x="211.5601" y="177.126">- Der ZETA Client wurde per Dynamic Client Registration registriert (Abb-ZETA-DCR-f&#252;r-mobile-Clients) und besitzt PrK.Client.Sig / PuK.Client.Sig.</text><text fill="#000000" font-family="Helvetica" font-size="10" x="211.5601" y="188.7666">- Der PDP Authorization Server ist als Relying Party (Fachdienst) beim Federation Master registriert.</text><text fill="#000000" font-family="Helvetica" font-size="10" x="211.5601" y="200.4072">- App-Link / Universal-Link f&#252;r ZETA Client und Authenticator-Modul sind im Betriebssystem registriert.</text><polygon fill="#181818" points="250.625,238.0469,260.625,242.0469,250.625,246.0469,254.625,242.0469" style="stroke:#181818;stroke-width:1;stroke-linejoin:miter;stroke-miterlimit:10;"/><line style="stroke:#181818;stroke-width:1;" x1="47.5898" x2="256.625" y1="242.0469" y2="242.0469"/><text fill="#000000" font-family="Helvetica" font-size="10" x="54.5898" y="226.0479">W&#228;hlt sektoralen IDP (idp_iss)</text><text fill="#000000" font-family="Helvetica" font-size="10" x="54.5898" y="237.6885">und startet Zugriff auf den Fachdienst</text><line style="stroke:#181818;stroke-width:1;" x1="272.625" x2="314.625" y1="290.9688" y2="290.9688"/><line style="stroke:#181818;stroke-width:1;" x1="314.625" x2="314.625" y1="290.9688" y2="303.9688"/><line style="stroke:#181818;stroke-width:1;" x1="273.625" x2="314.625" y1="303.9688" y2="303.9688"/><polygon fill="#181818" points="283.625,299.9688,273.625,303.9688,283.625,307.9688,279.625,303.9688" style="stroke:#181818;stroke-width:1;stroke-linejoin:miter;stroke-miterlimit:10;"/><text fill="#000000" font-family="Helvetica" font-size="10" x="279.625" y="263.3291">Erstellt vollst&#228;ndigen</text><text fill="#000000" font-family="Helvetica" font-size="10" x="279.625" y="274.9697">fachlichen HTTPS-Request</text><text fill="#000000" font-family="Helvetica" font-size="10" x="279.625" y="286.6104">(inkl. Header)</text><polygon fill="#181818" points="449.1465,337.25,459.1465,341.25,449.1465,345.25,453.1465,341.25" style="stroke:#181818;stroke-width:1;stroke-linejoin:miter;stroke-miterlimit:10;"/><line style="stroke:#181818;stroke-width:1;" x1="272.625" x2="455.1465" y1="341.25" y2="341.25"/><text fill="#000000" font-family="Helvetica" font-size="10" x="279.625" y="325.251">Beauftragt Verarbeitung des</text><text fill="#000000" font-family="Helvetica" font-size="10" x="279.625" y="336.8916">fachlichen Requests (inkl. idp_iss)</text><path d="M382.8335,354.25 L382.8335,375.25 L973.8335,375.25 L973.8335,364.25 L963.8335,354.25 L382.8335,354.25" fill="#FEFFDD" style="stroke:#181818;stroke-width:0.5;"/><path d="M963.8335,354.25 L963.8335,364.25 L973.8335,364.25 L963.8335,354.25" fill="#FEFFDD" style="stroke:#181818;stroke-width:0.5;"/><text fill="#000000" font-family="Helvetica" font-size="10" x="388.8335" y="368.5322">Der ZETA Client ben&#246;tigt f&#252;r den Zugriff ein g&#252;ltiges Access Token und f&#252;hrt dazu die OIDC-Authentifizierung aus.</text><rect fill="#FFFFFF" height="51.9063" style="stroke:#000000;stroke-width:1.5;" width="804.0889" x="432.0229" y="380.8906"/><path d="M432.0229,380.8906 L496.0229,380.8906 L496.0229,385.8906 L486.0229,395.8906 L432.0229,395.8906 L432.0229,380.8906" fill="#EEEEEE" style="stroke:#000000;stroke-width:2;"/><text fill="#000000" font-family="Helvetica" font-size="12" font-weight="700" x="445.0229" y="394.0293">ref</text><text fill="#000000" font-family="Helvetica" font-size="12" font-weight="700" x="729.7266" y="411.0293">(A)</text><text fill="#000000" font-family="Helvetica" font-size="12" x="753.7969" y="411.0293">Authorization Request mit PAR</text><text fill="#000000" font-family="Helvetica" font-size="12" x="655.4502" y="424.998">siehe</text><text fill="#000000" font-family="Helvetica" font-size="12" font-weight="700" x="691.2217" y="424.998">Abb-ZETA-OIDC-Authorization-Request-mit-PAR</text><rect fill="#FFFFFF" height="51.9063" style="stroke:#000000;stroke-width:1.5;" width="1146.313" x="12" y="437.7969"/><path d="M12,437.7969 L76,437.7969 L76,442.7969 L66,452.7969 L12,452.7969 L12,437.7969" fill="#EEEEEE" style="stroke:#000000;stroke-width:2;"/><text fill="#000000" font-family="Helvetica" font-size="12" font-weight="700" x="25" y="450.9355">ref</text><text fill="#000000" font-family="Helvetica" font-size="12" font-weight="700" x="448.8557" y="467.9355">(B)</text><text fill="#000000" font-family="Helvetica" font-size="12" x="472.7854" y="467.9355">Nutzerauthentisierung am sektoralen IDP</text><text fill="#000000" font-family="Helvetica" font-size="12" x="435.7629" y="481.9043">siehe</text><text fill="#000000" font-family="Helvetica" font-size="12" font-weight="700" x="471.5344" y="481.9043">Abb-ZETA-OIDC-Nutzerauthentisierung</text><rect fill="#FFFFFF" height="51.9063" style="stroke:#000000;stroke-width:1.5;" width="726.29" x="432.0229" y="494.7031"/><path d="M432.0229,494.7031 L496.0229,494.7031 L496.0229,499.7031 L486.0229,509.7031 L432.0229,509.7031 L432.0229,494.7031" fill="#EEEEEE" style="stroke:#000000;stroke-width:2;"/><text fill="#000000" font-family="Helvetica" font-size="12" font-weight="700" x="445.0229" y="507.8418">ref</text><text fill="#000000" font-family="Helvetica" font-size="12" font-weight="700" x="644.4912" y="524.8418">(C)</text><text fill="#000000" font-family="Helvetica" font-size="12" x="668.0811" y="524.8418">Token-Bezug und Ausstellung der ZETA Token</text><text fill="#000000" font-family="Helvetica" font-size="12" x="678.9385" y="538.8105">siehe</text><text fill="#000000" font-family="Helvetica" font-size="12" font-weight="700" x="714.71" y="538.8105">Abb-ZETA-OIDC-Token-Bezug</text><path d="M423.8267,556.6094 L423.8267,577.6094 L932.8267,577.6094 L932.8267,566.6094 L922.8267,556.6094 L423.8267,556.6094" fill="#FEFFDD" style="stroke:#181818;stroke-width:0.5;"/><path d="M922.8267,556.6094 L922.8267,566.6094 L932.8267,566.6094 L922.8267,556.6094" fill="#FEFFDD" style="stroke:#181818;stroke-width:0.5;"/><text fill="#000000" font-family="Helvetica" font-size="10" x="511.4922" y="570.8916">Der ZETA Client besitzt nun ein DPoP-gebundenes Access Token.</text><rect fill="#FFFFFF" height="51.9063" style="stroke:#000000;stroke-width:1.5;" width="515.9609" x="432.0229" y="583.25"/><path d="M432.0229,583.25 L496.0229,583.25 L496.0229,588.25 L486.0229,598.25 L432.0229,598.25 L432.0229,583.25" fill="#EEEEEE" style="stroke:#000000;stroke-width:2;"/><text fill="#000000" font-family="Helvetica" font-size="12" font-weight="700" x="445.0229" y="596.3887">ref</text><text fill="#000000" font-family="Helvetica" font-size="12" x="524.019" y="613.3887">Zugriff auf den Resource Server mit dem Access Token</text><text fill="#000000" font-family="Helvetica" font-size="12" x="436.0229" y="627.3574">siehe</text><text fill="#000000" font-family="Helvetica" font-size="12" font-weight="700" x="471.7944" y="627.3574">Abb-ZETA-Zugriff-auf-RS-mit-ASL</text><text fill="#000000" font-family="Helvetica" font-size="12" x="700.3101" y="627.3574">/</text><text fill="#000000" font-family="Helvetica" font-size="12" font-weight="700" x="708.1675" y="627.3574">Abb-ZETA-Zugriff-auf-RS-ohne-ASL</text><polygon fill="#181818" points="283.625,653.7969,273.625,657.7969,283.625,661.7969,279.625,657.7969" style="stroke:#181818;stroke-width:1;stroke-linejoin:miter;stroke-miterlimit:10;"/><line style="stroke:#181818;stroke-width:1;stroke-dasharray:2,2;" x1="277.625" x2="460.1465" y1="657.7969" y2="657.7969"/><text fill="#000000" font-family="Helvetica" font-size="10" x="289.625" y="653.4385">Fachliche Response</text><polygon fill="#181818" points="58.5898,679.4375,48.5898,683.4375,58.5898,687.4375,54.5898,683.4375" style="stroke:#181818;stroke-width:1;stroke-linejoin:miter;stroke-miterlimit:10;"/><line style="stroke:#181818;stroke-width:1;stroke-dasharray:2,2;" x1="52.5898" x2="261.625" y1="683.4375" y2="683.4375"/><text fill="#000000" font-family="Helvetica" font-size="10" x="64.5898" y="679.0791">Ergebnis anzeigen</text><?plantuml-src bLLDR-984BtxLzIoXmKcJLPpZ4QH70mpQ4AmW6Ib4LBKjXjenRHPTpipy5lsEBzXJdFZZ-thjitNa9Ns4cAxkkgzglUgVvCgJej4KATplIvMAKlv9YjCntmp7YzCfefL97BI9bjxdlS7xVx1evRnqkX4yaNELwiRyWkp5Ch8kTnAaHTgGQiiaYdETLE93vgQeq7GTN5PBhVSo4nHDqFPVffzfPKq5FfZAbH2uUTkhuL2WHGK2CDbgkDbBeqHf2M-IqM9K9IBkSY5ilKC7gT2fZKUF4R27HAHK1tFux79SdhKmCCrDHuAinNvJ3MVIYOsGzvgU5wKVQF6q24dVxrkKD1x6dHxpztH_MZi4QrvRcGirrmPwdTThZwFbwmasQ0F7zPvzYeJaT_UdeMN8Ux8bzxKfyEHBJWYN80QwbSWweR67CWRTDyR0CGm73tq7gONuVX3b_la71jcIP62fnOlUEHs7eCW1DEpOYgI0YsWwO3UT_wqdLSQsCBnw6aGzCRxWYxQmVzOy3nfaFt_-UEZFmxsCMUmW6VYa8L1E5Edyv-8_DNDmMbZBDADX7927D-qZZfpddCK-eUCOPRAU4CzjP1Ad1ogEPvodGvOV_S34t8G6lHxp--_x_VFkeakkHAJayO1AKJAwDhHmkzCJRCNeLXF9Uj2lHXqzamavLJweYuuKqEkqUgZ4QWCoixG24ZggcmOihJRJraUYGGTWPs4kcctyPQvdiaOpf0wjeSs93La5IsiuDDCQuY_wKSHiwDXLJJRHxUkO9wSZYH8882_2TnMqn28qOJsqgLvTHoEu2pBroA7cTTu6smKNycu_Z0M2o0isSEqxi5wzWXbq1sp-UvdpigbKTb9jzmwW9EbsM8zv9yxvOVEH2umWx0uVd50zHRkib6fFXKQDQs34wVu5eh95HscHUMmZc6NTR0SsBrKBu3ng2IIQvwMBooFayPO3XTSMUso5Tq9cpZIUeDIgzDILYDM7fxdTXUxjLldtJkweRzstvUfeRsnbPDiKoRhPwbrQwPiMMt0K1ZwKYnoEPyJB-PkTHuOUyZdijvGBqVz53bVipJLPlTT9HAwcwavebEx9HLzcax32HkBlmkX3Tm0mcc7FWcEXhMgN1LjX_9Ee2Hclp24LSkXPsdivG1vdUIjCkAMA3FMD8xDKUQj37BpY_wmw7S_Z4GbDm5BiwOjS6CiTZzJV8Mi_JWMMfCphXiEufUGOyAtXNE1NKRirmkD5net2MwTKpZzeJDhqs-rssUogrZLbnlYj1HBWUYzylUrzgVgxZASOZW5sriLeEvHSQk6AplnilQThLrUQhp2hMlKgpEDl8dYulcBrMlg-_fTMx_SX7TYMomgpMidg7BUrR1Sq9iGZb8S5_uV6YXN1SJlXXw4MSWM8W8SeSv6VscMzUuzzyjOwAp8iNIhHM87ci2hn_akaQhoCEHXuucRg3-vHw-k_oCgMofHXXqwKF5ZvG9W3DRgr-wnwDQPqiBv3n7bgh0nlHpabTJ4rLPOCtl_0W00?></g></svg>