<svg xmlns="http://www.w3.org/2000/svg" xmlns:xlink="http://www.w3.org/1999/xlink" contentStyleType="text/css" data-diagram-type="SEQUENCE" height="1121px" preserveAspectRatio="none" style="width:1005px;height:1121px;background:#FFFFFF;" version="1.1" viewBox="0 0 1005 1121" width="1005px" zoomAndPan="magnify"><?plantuml 1.2026.4?><defs/><g><rect fill="#FEFCFF" height="1095.4688" style="stroke:#181818;stroke-width:0.5;" width="80.2471" x="16" y="11"/><text fill="#000000" font-family="Helvetica" font-size="10" font-weight="700" x="37.2539" y="20.2822">Device</text><rect fill="#E6E6FA" height="1078.8281" style="stroke:#181818;stroke-width:0.5;" width="80.2471" x="16" y="27.6406"/><text fill="#000000" font-family="Helvetica" font-size="10" font-weight="700" x="45.0957" y="36.9229">App</text><rect fill="#EDFDEC" height="1095.4688" style="stroke:#181818;stroke-width:0.5;" width="147.7842" x="472.0186" y="11"/><text fill="#000000" font-family="Helvetica" font-size="10" font-weight="700" x="484.0186" y="20.2822">Anbieter TI 2.0 Dienst</text><rect fill="#FFF3E5" height="1078.8281" style="stroke:#181818;stroke-width:0.5;" width="147.7842" x="472.0186" y="27.6406"/><text fill="#000000" font-family="Helvetica" font-size="10" font-weight="700" x="512.7661" y="36.9229">ZETA Guard</text><g><title>ZETA Client</title><rect fill="#000000" fill-opacity="0.00000" height="980.625" width="8" x="52.6235" y="81.5625"/><line style="stroke:#000000;stroke-width:0.5;stroke-dasharray:5,5;" x1="56.1235" x2="56.1235" y1="81.5625" y2="1062.1875"/></g><g><title/><rect fill="#FFFFFF" height="972.625" style="stroke:#181818;stroke-width:1;" width="10" x="51.1235" y="89.5625"/></g><g><title>PDP</title><rect fill="#000000" fill-opacity="0.00000" height="980.625" width="8" x="542.4106" y="81.5625"/><line style="stroke:#000000;stroke-width:0.5;stroke-dasharray:5,5;" x1="545.9106" x2="545.9106" y1="81.5625" y2="1062.1875"/></g><g><title/><rect fill="#FFFFFF" height="870.0625" style="stroke:#181818;stroke-width:1;" width="10" x="540.9106" y="174.125"/></g><rect fill="#FFE6CC" height="25.6406" rx="2.5" ry="2.5" style="stroke:#D79B00;stroke-width:0.5;" width="72.2471" x="20" y="54.9219"/><text fill="#000000" font-family="Helvetica" font-size="10" x="27" y="71.2041">ZETA Client</text><rect fill="#FFE6CC" height="37.2813" rx="2.5" ry="2.5" style="stroke:#D79B00;stroke-width:0.5;" width="116.9492" x="487.436" y="43.2813"/><text fill="#000000" font-family="Helvetica" font-size="10" x="536.0303" y="59.5635">PDP</text><text fill="#000000" font-family="Helvetica" font-size="10" x="494.436" y="71.2041">Authorization Server</text><rect fill="#FFE6CC" height="25.6406" rx="2.5" ry="2.5" style="stroke:#D79B00;stroke-width:0.5;" width="72.2471" x="20" y="1062.1875"/><text fill="#000000" font-family="Helvetica" font-size="10" x="27" y="1078.4697">ZETA Client</text><rect fill="#FFE6CC" height="37.2813" rx="2.5" ry="2.5" style="stroke:#D79B00;stroke-width:0.5;" width="116.9492" x="487.436" y="1062.1875"/><text fill="#000000" font-family="Helvetica" font-size="10" x="536.0303" y="1078.4697">PDP</text><text fill="#000000" font-family="Helvetica" font-size="10" x="494.436" y="1090.1104">Authorization Server</text><path d="M21.1235,93.5625 L81.0796,93.5625 L81.0796,97.2031 L71.0796,107.2031 L21.1235,107.2031 L21.1235,93.5625" fill="#EEEEEE" style="stroke:#000000;stroke-width:1.5;"/><rect fill="none" height="918.9844" style="stroke:#000000;stroke-width:1.5;" width="964.1777" x="21.1235" y="93.5625"/><text fill="#000000" font-family="Helvetica" font-size="10" font-weight="700" x="36.1235" y="103.8447">alt</text><text fill="#000000" font-family="Helvetica" font-size="10" font-weight="700" x="96.0796" y="104.8447">[Kein ZETA Guard Attestation Token]</text><line style="stroke:#000000;stroke-width:1;stroke-dasharray:2,2;" x1="21.1235" x2="985.3013" y1="856.0625" y2="856.0625"/><text fill="#000000" font-family="Helvetica" font-size="10" font-weight="700" x="26.1235" y="867.3447">[ZETA Attestation Token vorhanden (Fast-Path)]</text><path d="M40.1235,121.2031 L100.0796,121.2031 L100.0796,124.8438 L90.0796,134.8438 L40.1235,134.8438 L40.1235,121.2031" fill="#EEEEEE" style="stroke:#000000;stroke-width:1.5;"/><rect fill="none" height="709.8594" style="stroke:#000000;stroke-width:1.5;" width="920.1777" x="40.1235" y="121.2031"/><text fill="#000000" font-family="Helvetica" font-size="10" font-weight="700" x="55.1235" y="131.4854">alt</text><text fill="#000000" font-family="Helvetica" font-size="10" font-weight="700" x="115.0796" y="132.4854">[Hardware Attestation: iOS, iPadOS, macOS (Apple App Attest)]</text><line style="stroke:#000000;stroke-width:1;stroke-dasharray:2,2;" x1="40.1235" x2="960.3013" y1="286.6875" y2="286.6875"/><text fill="#000000" font-family="Helvetica" font-size="10" font-weight="700" x="45.1235" y="297.9697">[Hardware Attestation: Android (Keystore, TEE, StrongBox)]</text><line style="stroke:#000000;stroke-width:1;stroke-dasharray:2,2;" x1="40.1235" x2="960.3013" y1="678.2969" y2="678.2969"/><text fill="#000000" font-family="Helvetica" font-size="10" font-weight="700" x="45.1235" y="689.5791">[Software Attestation (Legacy OIDC DCR)]</text><polygon fill="#181818" points="528.9106,170.125,538.9106,174.125,528.9106,178.125,532.9106,174.125" style="stroke:#181818;stroke-width:1;stroke-linejoin:miter;stroke-miterlimit:10;"/><line style="stroke:#181818;stroke-width:1;" x1="61.1235" x2="534.9106" y1="174.125" y2="174.125"/><text fill="#000000" font-family="Helvetica" font-size="10" x="68.1235" y="163.9463">(01)</text><text fill="#000000" font-family="Helvetica" font-size="10" x="92.6509" y="158.126">POST /register</text><text fill="#000000" font-family="Helvetica" font-size="10" x="92.6509" y="169.7666">{attestation_type="apple", Apple_Attestation_Object, PuK.Client.Sig}</text><line style="stroke:#181818;stroke-width:1;" x1="550.9106" x2="592.9106" y1="199.7656" y2="199.7656"/><line style="stroke:#181818;stroke-width:1;" x1="592.9106" x2="592.9106" y1="199.7656" y2="212.7656"/><line style="stroke:#181818;stroke-width:1;" x1="551.9106" x2="592.9106" y1="212.7656" y2="212.7656"/><polygon fill="#181818" points="561.9106,208.7656,551.9106,212.7656,561.9106,216.7656,557.9106,212.7656" style="stroke:#181818;stroke-width:1;stroke-linejoin:miter;stroke-miterlimit:10;"/><text fill="#000000" font-family="Helvetica" font-size="10" x="557.9106" y="195.4072">(02)</text><text fill="#000000" font-family="Helvetica" font-size="10" x="582.438" y="195.4072">Validiere Apple_Attestation_Object</text><path d="M555.9106,225.7656 L555.9106,269.7656 L790.9106,269.7656 L790.9106,235.7656 L780.9106,225.7656 L555.9106,225.7656" fill="#FEFFDD" style="stroke:#181818;stroke-width:0.5;"/><path d="M780.9106,225.7656 L780.9106,235.7656 L790.9106,235.7656 L780.9106,225.7656" fill="#FEFFDD" style="stroke:#181818;stroke-width:0.5;"/><text fill="#000000" font-family="Helvetica" font-size="10" x="561.9106" y="240.0479">AuthS verifiziert Apple App Attest Root CA.</text><text fill="#000000" font-family="Helvetica" font-size="10" x="561.9106" y="251.6885">Extrahiert Hash(PuK.Client.Sig) aus Objekt</text><text fill="#000000" font-family="Helvetica" font-size="10" x="561.9106" y="263.3291">und vergleicht ihn mit dem Payload.</text><polygon fill="#181818" points="528.9106,365.5313,538.9106,369.5313,528.9106,373.5313,532.9106,369.5313" style="stroke:#181818;stroke-width:1;stroke-linejoin:miter;stroke-miterlimit:10;"/><line style="stroke:#181818;stroke-width:1;" x1="61.1235" x2="534.9106" y1="369.5313" y2="369.5313"/><text fill="#000000" font-family="Helvetica" font-size="10" x="68.1235" y="341.8916">(03)</text><text fill="#000000" font-family="Helvetica" font-size="10" x="92.6509" y="318.6104">POST /register</text><text fill="#000000" font-family="Helvetica" font-size="10" x="92.6509" y="330.251">{attestation_type="android", PuK.AK.Sig,</text><text fill="#000000" font-family="Helvetica" font-size="10" x="92.6509" y="341.8916">Android_Key_Attestation_Certificate_Chain,</text><text fill="#000000" font-family="Helvetica" font-size="10" x="92.6509" y="353.5322">PuK.Client.Sig, signed_Hash_PuK.Client.Sig,</text><text fill="#000000" font-family="Helvetica" font-size="10" x="92.6509" y="365.1729">play_integrity_token}</text><line style="stroke:#181818;stroke-width:1;" x1="550.9106" x2="592.9106" y1="395.1719" y2="395.1719"/><line style="stroke:#181818;stroke-width:1;" x1="592.9106" x2="592.9106" y1="395.1719" y2="408.1719"/><line style="stroke:#181818;stroke-width:1;" x1="551.9106" x2="592.9106" y1="408.1719" y2="408.1719"/><polygon fill="#181818" points="561.9106,404.1719,551.9106,408.1719,561.9106,412.1719,557.9106,408.1719" style="stroke:#181818;stroke-width:1;stroke-linejoin:miter;stroke-miterlimit:10;"/><text fill="#000000" font-family="Helvetica" font-size="10" x="557.9106" y="390.8135">(04)</text><text fill="#000000" font-family="Helvetica" font-size="10" x="582.438" y="390.8135">Validiere Zertifikatskette gegen Google Root CA</text><line style="stroke:#181818;stroke-width:1;" x1="550.9106" x2="592.9106" y1="433.8125" y2="433.8125"/><line style="stroke:#181818;stroke-width:1;" x1="592.9106" x2="592.9106" y1="433.8125" y2="446.8125"/><line style="stroke:#181818;stroke-width:1;" x1="551.9106" x2="592.9106" y1="446.8125" y2="446.8125"/><polygon fill="#181818" points="561.9106,442.8125,551.9106,446.8125,561.9106,450.8125,557.9106,446.8125" style="stroke:#181818;stroke-width:1;stroke-linejoin:miter;stroke-miterlimit:10;"/><text fill="#000000" font-family="Helvetica" font-size="10" x="557.9106" y="429.4541">(05)</text><text fill="#000000" font-family="Helvetica" font-size="10" x="582.438" y="429.4541">Pr&#252;fe signed_Hash_PuK.Client.Sig</text><path d="M529.9106,458.8125 L593.7192,458.8125 L593.7192,462.4531 L583.7192,472.4531 L529.9106,472.4531 L529.9106,458.8125" fill="#EEEEEE" style="stroke:#000000;stroke-width:1.5;"/><rect fill="none" height="139.5625" style="stroke:#000000;stroke-width:1.5;" width="405.3906" x="529.9106" y="458.8125"/><text fill="#000000" font-family="Helvetica" font-size="10" font-weight="700" x="544.9106" y="469.0947">opt</text><text fill="#000000" font-family="Helvetica" font-size="10" font-weight="700" x="608.7192" y="470.0947">[Play Integrity Pr&#252;fung]</text><line style="stroke:#181818;stroke-width:1;" x1="550.9106" x2="592.9106" y1="500.0938" y2="500.0938"/><line style="stroke:#181818;stroke-width:1;" x1="592.9106" x2="592.9106" y1="500.0938" y2="513.0938"/><line style="stroke:#181818;stroke-width:1;" x1="551.9106" x2="592.9106" y1="513.0938" y2="513.0938"/><polygon fill="#181818" points="561.9106,509.0938,551.9106,513.0938,561.9106,517.0938,557.9106,513.0938" style="stroke:#181818;stroke-width:1;stroke-linejoin:miter;stroke-miterlimit:10;"/><text fill="#000000" font-family="Helvetica" font-size="10" x="557.9106" y="495.7354">(06)</text><text fill="#000000" font-family="Helvetica" font-size="10" x="582.438" y="495.7354">Entschl&#252;ssele play_integrity_token (lokal/remote)</text><line style="stroke:#181818;stroke-width:1;" x1="550.9106" x2="592.9106" y1="538.7344" y2="538.7344"/><line style="stroke:#181818;stroke-width:1;" x1="592.9106" x2="592.9106" y1="538.7344" y2="551.7344"/><line style="stroke:#181818;stroke-width:1;" x1="551.9106" x2="592.9106" y1="551.7344" y2="551.7344"/><polygon fill="#181818" points="561.9106,547.7344,551.9106,551.7344,561.9106,555.7344,557.9106,551.7344" style="stroke:#181818;stroke-width:1;stroke-linejoin:miter;stroke-miterlimit:10;"/><text fill="#000000" font-family="Helvetica" font-size="10" x="557.9106" y="534.376">(07)</text><text fill="#000000" font-family="Helvetica" font-size="10" x="582.438" y="534.376">Verifiziere Nonce (Muss Hash(PuK.Client.Sig) entsprechen)</text><line style="stroke:#181818;stroke-width:1;" x1="550.9106" x2="592.9106" y1="577.375" y2="577.375"/><line style="stroke:#181818;stroke-width:1;" x1="592.9106" x2="592.9106" y1="577.375" y2="590.375"/><line style="stroke:#181818;stroke-width:1;" x1="551.9106" x2="592.9106" y1="590.375" y2="590.375"/><polygon fill="#181818" points="561.9106,586.375,551.9106,590.375,561.9106,594.375,557.9106,590.375" style="stroke:#181818;stroke-width:1;stroke-linejoin:miter;stroke-miterlimit:10;"/><text fill="#000000" font-family="Helvetica" font-size="10" x="557.9106" y="573.0166">(08)</text><text fill="#000000" font-family="Helvetica" font-size="10" x="582.438" y="573.0166">Werte Verdicts aus (appIntegrity, deviceIntegrity, accountDetails)</text><path d="M555.9106,617.375 L555.9106,661.375 L858.9106,661.375 L858.9106,627.375 L848.9106,617.375 L555.9106,617.375" fill="#FEFFDD" style="stroke:#181818;stroke-width:0.5;"/><path d="M848.9106,617.375 L848.9106,627.375 L858.9106,627.375 L848.9106,617.375" fill="#FEFFDD" style="stroke:#181818;stroke-width:0.5;"/><text fill="#000000" font-family="Helvetica" font-size="10" x="561.9106" y="631.6572">PuK.AK.Sig muss mit dem Blatt-Zertifikat</text><text fill="#000000" font-family="Helvetica" font-size="10" x="561.9106" y="643.2979">der Certificate Chain &#252;bereinstimmen.</text><text fill="#000000" font-family="Helvetica" font-size="10" x="561.9106" y="654.9385">Sicherheitsniveau: TrustedEnvironment oder StrongBox.</text><polygon fill="#181818" points="528.9106,780.4219,538.9106,784.4219,528.9106,788.4219,532.9106,784.4219" style="stroke:#181818;stroke-width:1;stroke-linejoin:miter;stroke-miterlimit:10;"/><line style="stroke:#181818;stroke-width:1;" x1="61.1235" x2="534.9106" y1="784.4219" y2="784.4219"/><text fill="#000000" font-family="Helvetica" font-size="10" x="68.1235" y="745.1416">(09)</text><text fill="#000000" font-family="Helvetica" font-size="10" x="92.6509" y="710.2197">POST /register</text><text fill="#000000" font-family="Helvetica" font-size="10" x="92.6509" y="721.8604">{</text><text fill="#000000" font-family="Helvetica" font-size="10" x="99.0083" y="733.501">"client_name": "myClient",</text><text fill="#000000" font-family="Helvetica" font-size="10" x="99.0083" y="745.1416">"grant_types": ["urn:ietf:params:oauth:grant-type:token-exchange", "refresh_token"],</text><text fill="#000000" font-family="Helvetica" font-size="10" x="99.0083" y="756.7822">"jwks": { "keys": [ PuK.Client.Sig ] },</text><text fill="#000000" font-family="Helvetica" font-size="10" x="99.0083" y="768.4229">"token_endpoint_auth_method": "private_key_jwt"</text><text fill="#000000" font-family="Helvetica" font-size="10" x="92.6509" y="780.0635">}</text><line style="stroke:#181818;stroke-width:1;" x1="550.9106" x2="592.9106" y1="810.0625" y2="810.0625"/><line style="stroke:#181818;stroke-width:1;" x1="592.9106" x2="592.9106" y1="810.0625" y2="823.0625"/><line style="stroke:#181818;stroke-width:1;" x1="551.9106" x2="592.9106" y1="823.0625" y2="823.0625"/><polygon fill="#181818" points="561.9106,819.0625,551.9106,823.0625,561.9106,827.0625,557.9106,823.0625" style="stroke:#181818;stroke-width:1;stroke-linejoin:miter;stroke-miterlimit:10;"/><text fill="#000000" font-family="Helvetica" font-size="10" x="557.9106" y="805.7041">(10)</text><text fill="#000000" font-family="Helvetica" font-size="10" x="582.438" y="805.7041">Store Client Placeholder (state: pending_attestation)</text><polygon fill="#181818" points="528.9106,923.2656,538.9106,927.2656,528.9106,931.2656,532.9106,927.2656" style="stroke:#181818;stroke-width:1;stroke-linejoin:miter;stroke-miterlimit:10;"/><line style="stroke:#181818;stroke-width:1;" x1="61.1235" x2="534.9106" y1="927.2656" y2="927.2656"/><text fill="#000000" font-family="Helvetica" font-size="10" x="68.1235" y="905.4463">(11)</text><text fill="#000000" font-family="Helvetica" font-size="10" x="92.6509" y="887.9854">POST /register</text><text fill="#000000" font-family="Helvetica" font-size="10" x="92.6509" y="899.626">{attestation_type="zeta_attestation_token",</text><text fill="#000000" font-family="Helvetica" font-size="10" x="92.6509" y="911.2666">zeta_guard_attestation_token, PuK.Client.Sig,</text><text fill="#000000" font-family="Helvetica" font-size="10" x="92.6509" y="922.9072">Besitznachweis (Signatur/Assertion)}</text><line style="stroke:#181818;stroke-width:1;" x1="550.9106" x2="592.9106" y1="952.9063" y2="952.9063"/><line style="stroke:#181818;stroke-width:1;" x1="592.9106" x2="592.9106" y1="952.9063" y2="965.9063"/><line style="stroke:#181818;stroke-width:1;" x1="551.9106" x2="592.9106" y1="965.9063" y2="965.9063"/><polygon fill="#181818" points="561.9106,961.9063,551.9106,965.9063,561.9106,969.9063,557.9106,965.9063" style="stroke:#181818;stroke-width:1;stroke-linejoin:miter;stroke-miterlimit:10;"/><text fill="#000000" font-family="Helvetica" font-size="10" x="557.9106" y="948.5479">(12)</text><text fill="#000000" font-family="Helvetica" font-size="10" x="582.438" y="948.5479">Pr&#252;fe Token-Signatur &amp; Vertrauensstellung</text><line style="stroke:#181818;stroke-width:1;" x1="550.9106" x2="592.9106" y1="991.5469" y2="991.5469"/><line style="stroke:#181818;stroke-width:1;" x1="592.9106" x2="592.9106" y1="991.5469" y2="1004.5469"/><line style="stroke:#181818;stroke-width:1;" x1="551.9106" x2="592.9106" y1="1004.5469" y2="1004.5469"/><polygon fill="#181818" points="561.9106,1000.5469,551.9106,1004.5469,561.9106,1008.5469,557.9106,1004.5469" style="stroke:#181818;stroke-width:1;stroke-linejoin:miter;stroke-miterlimit:10;"/><text fill="#000000" font-family="Helvetica" font-size="10" x="557.9106" y="987.1885">(13)</text><text fill="#000000" font-family="Helvetica" font-size="10" x="582.438" y="987.1885">Extrahiere PuK.AK.Sig aus Token, verifiziere Besitznachweis</text><polygon fill="#181818" points="72.1235,1040.1875,62.1235,1044.1875,72.1235,1048.1875,68.1235,1044.1875" style="stroke:#181818;stroke-width:1;stroke-linejoin:miter;stroke-miterlimit:10;"/><line style="stroke:#181818;stroke-width:1;stroke-dasharray:2,2;" x1="66.1235" x2="539.9106" y1="1044.1875" y2="1044.1875"/><text fill="#000000" font-family="Helvetica" font-size="10" x="78.1235" y="1039.8291">(14)</text><text fill="#000000" font-family="Helvetica" font-size="10" x="102.6509" y="1039.8291">201 Created {client_id}</text><?plantuml-src dLPDJ-D84BtdLzJwi0eY2RDpj6QHJ99b8eP956SOxMn6LcDNx2PsjzNT3WJ4F-F67zlgTZw1eDdbG1ntzQkgL_MgyXiNSLub29tEILaLUJjdIrcPZhapZKRZMjw1ryC5Zz63NlzgqEr7tU6NuRW1uCw2ilHWD1vS1lrn-7SuwLzkpW5AfWoFUSc4WMxEaJwO1kz7VnAildlmwTCz6dPwIXTG91QqiVwilGVYcgD11PC1VEnyW1xTqyOw7LuDUltnVZmE-xnYAl70FaVdtu9nxq1CGMMoq8KqwescmdwLYjypmwM04DK2rVi1raaS7pTORk02kO2jVmYCGMrgi8cSet3-tJzh_fbiRfd2NJiV-31i0H-nn7uMB1w6q2IESp8hovNfaSEmVojIswTrAiV7Feo6uGHE5APS4sbJyS2sy95PblYdnooUrmA76-suZuRNDnYR5eogYqwDtGbv-hZnLnEsTkV35Sjvmb7XGQpDLI4DWk9fPa3ErlThFAAPp_WzuHXucIkCfQJc2JfJqRypYcNEwZFJMNC_o2DWbGRhT6wceg8A4MoQ8u_98yy45Dn0WWMCs3ANBEaqN6YOQpnGYa0aIl84cXUur4OgRC6atsz1Q9GKwPcyErY7Nwj23U_LR0SNDeaMDM7zEYAdUtHsAMzYAMO6esx6k23RVGPQe7agC8aiEz6BiwaeITWH5mPJnSqoChOZVwMoFsh7SsRq72aWI3550UTI4hlhyXp46Qddfnc-4zdcvkP1bWP652mCri7MA9NO6h_bgY-CZhFy-KbhfCZUoXUQkPopd0fJK3iUlGjtjUbAXAzIn0ZDoqhhjtkF7dIfCCvGl8_wdTX4Yvtms6ZNiqtIuoRL5lMedROxBrWSoqgO7aqXdkijF4sXr-IzARDjWq5XKrXBuIodjcnl2pmL2StPdKu3rsdm_7HDB70QkxmeK90MGv8LgWovqO8la5K-J5H5lPxqnOAJFWgh1sdXDdBPLLmeP-Qbug3v1LCMBs4uw7MXrnt_5trD1O0NExD8i08z7xnYkLeoBNUQAfhvJdoQJl_nAYLysYmpdrO2AxGl6M7xpgfjhNpNCcsyYpCcKZimFOKpXTJ2xiJxMUFUtCuju0DuSneK5lh5_8IVy5YRkdiH5QwKr9cHTHWLI5idiV6MYY-il0ackhartlGTVOPs8Arv8RN4cCdSqjsqRA8F9NdX8ers1a_DfssRXYk2srMljXGifAA44wkMlvWsxH4pMNtr_umvkpoZlTUEE-B3dQHsLRu-Vxc2oFmCDJVtWiNPBN9I3RqLp5Jg922zAvTVJTU14UIIQwzlmUzMXBHGAlerGS7d-Ngyl1ehwxM3kpgomftKaIvs1iL-a0t7zGgG4EjyscqVFdxu0xeAgL89FApQbYUFZNy1?></g></svg>