<svg xmlns="http://www.w3.org/2000/svg" xmlns:xlink="http://www.w3.org/1999/xlink" contentStyleType="text/css" data-diagram-type="SEQUENCE" height="1169px" preserveAspectRatio="none" style="width:1381px;height:1169px;background:#FFFFFF;" version="1.1" viewBox="0 0 1381 1169" width="1381px" zoomAndPan="magnify"><?plantuml 1.2026.6?><defs/><g><rect fill="#FEFCFF" height="1143.5938" style="stroke:#181818;stroke-width:0.5;" width="87.1543" x="30.042" y="11"/><text fill="#000000" font-family="Helvetica" font-size="10" font-weight="700" x="42.042" y="20.2822">Mobile App</text><rect fill="#EDFDEC" height="1143.5938" style="stroke:#181818;stroke-width:0.5;" width="476.3354" x="477.3062" y="11"/><text fill="#000000" font-family="Helvetica" font-size="10" font-weight="700" x="653.5818" y="20.2822">Anbieter TI 2.0 Dienst</text><rect fill="#FFF3E5" height="1126.9531" style="stroke:#181818;stroke-width:0.5;" width="476.3354" x="477.3062" y="27.6406"/><text fill="#000000" font-family="Helvetica" font-size="10" font-weight="700" x="682.3293" y="36.9229">ZETA Guard</text><rect fill="#EAF2FF" height="1143.5938" style="stroke:#181818;stroke-width:0.5;" width="111.6582" x="965.6416" y="11"/><text fill="#000000" font-family="Helvetica" font-size="10" font-weight="700" x="983.3652" y="20.2822">TI-F&#246;deration</text><g><title>ZETA Client</title><rect fill="#000000" fill-opacity="0.00000" height="1005.4688" width="8" x="70.1191" y="93.2031"/><line style="stroke:#000000;stroke-width:0.5;stroke-dasharray:5,5;" x1="73.6191" x2="73.6191" y1="93.2031" y2="1098.6719"/></g><g><title/><rect fill="#FFFFFF" height="997.4688" style="stroke:#181818;stroke-width:1;" width="10" x="68.6191" y="101.2031"/></g><g><title>PDP</title><rect fill="#000000" fill-opacity="0.00000" height="1005.4688" width="8" x="536.3223" y="93.2031"/><line style="stroke:#000000;stroke-width:0.5;stroke-dasharray:5,5;" x1="539.8223" x2="539.8223" y1="93.2031" y2="1098.6719"/></g><g><title/><rect fill="#FFFFFF" height="807.0625" style="stroke:#181818;stroke-width:1;" width="10" x="534.8223" y="291.6094"/></g><g><title/><rect fill="#FFFFFF" height="99.2031" style="stroke:#181818;stroke-width:1;" width="10" x="539.8223" y="857.2656"/></g><g><title>PDP</title><rect fill="#000000" fill-opacity="0.00000" height="1005.4688" width="8" x="905.8555" y="93.2031"/><line style="stroke:#000000;stroke-width:0.5;stroke-dasharray:5,5;" x1="909.3555" x2="909.3555" y1="93.2031" y2="1098.6719"/></g><g><title/><rect fill="#FFFFFF" height="25.6406" style="stroke:#181818;stroke-width:1;" width="10" x="904.3555" y="617.2188"/></g><g><title>Sektoraler IDP</title><rect fill="#000000" fill-opacity="0.00000" height="1005.4688" width="8" x="1017.9707" y="93.2031"/><line style="stroke:#000000;stroke-width:0.5;stroke-dasharray:5,5;" x1="1021.4707" x2="1021.4707" y1="93.2031" y2="1098.6719"/></g><g><title/><rect fill="#FFFFFF" height="110.8438" style="stroke:#181818;stroke-width:1;" width="10" x="1016.4707" y="340.5313"/></g><rect fill="#FFE6CC" height="25.6406" rx="2.5" ry="2.5" style="stroke:#D79B00;stroke-width:0.5;" width="72.2471" x="37.4956" y="66.5625"/><text fill="#000000" font-family="Helvetica" font-size="10" x="44.4956" y="82.8447">ZETA Client</text><rect fill="#FFE6CC" height="48.9219" rx="2.5" ry="2.5" style="stroke:#D79B00;stroke-width:0.5;" width="117.0322" x="481.3062" y="43.2813"/><text fill="#000000" font-family="Helvetica" font-size="10" x="529.9419" y="59.5635">PDP</text><text fill="#000000" font-family="Helvetica" font-size="10" x="488.3477" y="71.2041">Authorization Server</text><text fill="#000000" font-family="Helvetica" font-size="10" x="488.3062" y="82.8447">(OIDC Relying Party)</text><rect fill="#FFE6CC" height="37.2813" rx="2.5" ry="2.5" style="stroke:#D79B00;stroke-width:0.5;" width="80.5723" x="869.0693" y="54.9219"/><text fill="#000000" font-family="Helvetica" font-size="10" x="899.4751" y="71.2041">PDP</text><text fill="#000000" font-family="Helvetica" font-size="10" x="876.0693" y="82.8447">Policy Engine</text><rect fill="#E2E2F0" height="37.2813" rx="2.5" ry="2.5" style="stroke:#181818;stroke-width:0.5;" width="103.6582" x="969.6416" y="54.9219"/><text fill="#000000" font-family="Helvetica" font-size="10" x="985.7358" y="71.2041">Sektoraler IDP</text><text fill="#000000" font-family="Helvetica" font-size="10" x="976.6416" y="82.8447">(Token-Endpunkt)</text><rect fill="#FFE6CC" height="25.6406" rx="2.5" ry="2.5" style="stroke:#D79B00;stroke-width:0.5;" width="72.2471" x="37.4956" y="1098.6719"/><text fill="#000000" font-family="Helvetica" font-size="10" x="44.4956" y="1114.9541">ZETA Client</text><rect fill="#FFE6CC" height="48.9219" rx="2.5" ry="2.5" style="stroke:#D79B00;stroke-width:0.5;" width="117.0322" x="481.3062" y="1098.6719"/><text fill="#000000" font-family="Helvetica" font-size="10" x="529.9419" y="1114.9541">PDP</text><text fill="#000000" font-family="Helvetica" font-size="10" x="488.3477" y="1126.5947">Authorization Server</text><text fill="#000000" font-family="Helvetica" font-size="10" x="488.3062" y="1138.2354">(OIDC Relying Party)</text><rect fill="#FFE6CC" height="37.2813" rx="2.5" ry="2.5" style="stroke:#D79B00;stroke-width:0.5;" width="80.5723" x="869.0693" y="1098.6719"/><text fill="#000000" font-family="Helvetica" font-size="10" x="899.4751" y="1114.9541">PDP</text><text fill="#000000" font-family="Helvetica" font-size="10" x="876.0693" y="1126.5947">Policy Engine</text><rect fill="#E2E2F0" height="37.2813" rx="2.5" ry="2.5" style="stroke:#181818;stroke-width:0.5;" width="103.6582" x="969.6416" y="1098.6719"/><text fill="#000000" font-family="Helvetica" font-size="10" x="985.7358" y="1114.9541">Sektoraler IDP</text><text fill="#000000" font-family="Helvetica" font-size="10" x="976.6416" y="1126.5947">(Token-Endpunkt)</text><path d="M34.6428,106.2031 L34.6428,127.2031 L1059.6428,127.2031 L1059.6428,116.2031 L1049.6428,106.2031 L34.6428,106.2031" fill="#FEFFDD" style="stroke:#181818;stroke-width:0.5;"/><path d="M1049.6428,106.2031 L1049.6428,116.2031 L1059.6428,116.2031 L1049.6428,106.2031" fill="#FEFFDD" style="stroke:#181818;stroke-width:0.5;"/><text fill="#000000" font-family="Helvetica" font-size="10" x="328.7285" y="120.4854">Der ZETA Client hat aus Teildiagramm (B) den AUTHORIZATION_CODE (IDP) erhalten.</text><rect fill="#EEEEEE" height="3" style="stroke:#EEEEEE;stroke-width:1;" width="1360.1104" x="10" y="151.6641"/><line style="stroke:#000000;stroke-width:1;" x1="10" x2="1370.1104" y1="151.6641" y2="151.6641"/><line style="stroke:#000000;stroke-width:1;" x1="10" x2="1370.1104" y1="154.6641" y2="154.6641"/><rect fill="#EEEEEE" height="19.6406" style="stroke:#000000;stroke-width:2;" width="286.7197" x="546.6953" y="142.8438"/><text fill="#000000" font-family="Helvetica" font-size="10" font-weight="700" x="552.6953" y="156.126">Innerer Flow: Token-Bezug beim sektoralen IDP</text><path d="M15,177.4844 L15,245.4844 L598,245.4844 L598,187.4844 L588,177.4844 L15,177.4844" fill="#FEFFDD" style="stroke:#181818;stroke-width:0.5;"/><path d="M588,177.4844 L588,187.4844 L598,187.4844 L588,177.4844" fill="#FEFFDD" style="stroke:#181818;stroke-width:0.5;"/><text fill="#000000" font-family="Helvetica" font-size="10" x="21" y="191.7666">Beide Auth Code Flows enden &#252;ber denselben App-Link/Universal-Link in der App. Der ZETA</text><text fill="#000000" font-family="Helvetica" font-size="10" x="21" y="203.4072">Client erkennt anhand des Pfads der redirect_uri, welcher AuthS-Endpunkt zu verwenden ist:</text><text fill="#000000" font-family="Helvetica" font-size="10" x="21" y="215.0479">- redirect_uri_as (/cb/&lt;app&gt;/as) &#8594; redirection_endpoint des AuthS (aus as-well-known),</text><text fill="#000000" font-family="Helvetica" font-size="10" x="27.3574" y="226.6885">nicht der /token-Endpunkt &#8594; SekIDP Auth Code Flow (innerer Flow).</text><text fill="#000000" font-family="Helvetica" font-size="10" x="21" y="238.3291">- redirect_uri_app (/cb/&lt;app&gt;/app) &#8594; /token-Endpunkt des AuthS &#8594; ZETA Guard Auth Code Flow (&#228;u&#223;erer Flow).</text><polygon fill="#181818" points="522.8223,287.6094,532.8223,291.6094,522.8223,295.6094,526.8223,291.6094" style="stroke:#181818;stroke-width:1;stroke-linejoin:miter;stroke-miterlimit:10;"/><line style="stroke:#181818;stroke-width:1;" x1="78.6191" x2="528.8223" y1="291.6094" y2="291.6094"/><text fill="#000000" font-family="Helvetica" font-size="10" x="85.6191" y="275.6104">(01)</text><text fill="#000000" font-family="Helvetica" font-size="10" x="110.1465" y="263.9697">GET &lt;redirect_uri_as&gt; (redirection_endpoint der OIDC Relying Party, nicht /token)</text><text fill="#000000" font-family="Helvetica" font-size="10" x="110.1465" y="275.6104">Folgt der 302-Redirection aus Teildiagramm (B)</text><text fill="#000000" font-family="Helvetica" font-size="10" x="110.1465" y="287.251">{code=AUTH_CODE_IDP, state=state_as}</text><polygon fill="#181818" points="1004.4707,336.5313,1014.4707,340.5313,1004.4707,344.5313,1008.4707,340.5313" style="stroke:#181818;stroke-width:1;stroke-linejoin:miter;stroke-miterlimit:10;"/><line style="stroke:#181818;stroke-width:1;" x1="544.8223" x2="1010.4707" y1="340.5313" y2="340.5313"/><text fill="#000000" font-family="Helvetica" font-size="10" x="551.8223" y="324.5322">(02)</text><text fill="#000000" font-family="Helvetica" font-size="10" x="576.3496" y="312.8916">POST /token (mTLS, self_signed_tls_client_auth)</text><text fill="#000000" font-family="Helvetica" font-size="10" x="576.3496" y="324.5322">{grant_type=authorization_code, code=AUTH_CODE_IDP,</text><text fill="#000000" font-family="Helvetica" font-size="10" x="576.3496" y="336.1729">code_verifier=code_verifier_as, client_id, redirect_uri_as}</text><line style="stroke:#181818;stroke-width:1;" x1="1026.4707" x2="1068.4707" y1="389.4531" y2="389.4531"/><line style="stroke:#181818;stroke-width:1;" x1="1068.4707" x2="1068.4707" y1="389.4531" y2="402.4531"/><line style="stroke:#181818;stroke-width:1;" x1="1027.4707" x2="1068.4707" y1="402.4531" y2="402.4531"/><polygon fill="#181818" points="1037.4707,398.4531,1027.4707,402.4531,1037.4707,406.4531,1033.4707,402.4531" style="stroke:#181818;stroke-width:1;stroke-linejoin:miter;stroke-miterlimit:10;"/><text fill="#000000" font-family="Helvetica" font-size="10" x="1033.4707" y="373.4541">(03)</text><text fill="#000000" font-family="Helvetica" font-size="10" x="1057.998" y="361.8135">Pr&#252;fe TLS-Clientzertifikat,</text><text fill="#000000" font-family="Helvetica" font-size="10" x="1057.998" y="373.4541">verifiziere code_verifier_as gegen code_challenge_as (S256),</text><text fill="#000000" font-family="Helvetica" font-size="10" x="1057.998" y="385.0947">invalidiere AUTHORIZATION_CODE</text><polygon fill="#181818" points="555.8223,447.375,545.8223,451.375,555.8223,455.375,551.8223,451.375" style="stroke:#181818;stroke-width:1;stroke-linejoin:miter;stroke-miterlimit:10;"/><line style="stroke:#181818;stroke-width:1;stroke-dasharray:2,2;" x1="549.8223" x2="1015.4707" y1="451.375" y2="451.375"/><text fill="#000000" font-family="Helvetica" font-size="10" x="561.8223" y="435.376">(04)</text><text fill="#000000" font-family="Helvetica" font-size="10" x="586.3496" y="423.7354">200 OK</text><text fill="#000000" font-family="Helvetica" font-size="10" x="586.3496" y="435.376">{id_token (JWE: ECDH-ES/A256GCM, signiert ES256),</text><text fill="#000000" font-family="Helvetica" font-size="10" x="586.3496" y="447.0166">access_token, token_type=Bearer, expires_in}</text><line style="stroke:#181818;stroke-width:1;" x1="544.8223" x2="586.8223" y1="488.6563" y2="488.6563"/><line style="stroke:#181818;stroke-width:1;" x1="586.8223" x2="586.8223" y1="488.6563" y2="501.6563"/><line style="stroke:#181818;stroke-width:1;" x1="545.8223" x2="586.8223" y1="501.6563" y2="501.6563"/><polygon fill="#181818" points="555.8223,497.6563,545.8223,501.6563,555.8223,505.6563,551.8223,501.6563" style="stroke:#181818;stroke-width:1;stroke-linejoin:miter;stroke-miterlimit:10;"/><text fill="#000000" font-family="Helvetica" font-size="10" x="551.8223" y="478.4775">(05)</text><text fill="#000000" font-family="Helvetica" font-size="10" x="576.3496" y="472.6572">Entschl&#252;ssele ID Token, verifiziere Signatur (kid/x5c),</text><text fill="#000000" font-family="Helvetica" font-size="10" x="576.3496" y="484.2979">pr&#252;fe iss/aud/nonce/exp, extrahiere Claims (KVNR, acr, amr, ...)</text><rect fill="#EEEEEE" height="3" style="stroke:#EEEEEE;stroke-width:1;" width="1360.1104" x="10" y="528.4766"/><line style="stroke:#000000;stroke-width:1;" x1="10" x2="1370.1104" y1="528.4766" y2="528.4766"/><line style="stroke:#000000;stroke-width:1;" x1="10" x2="1370.1104" y1="531.4766" y2="531.4766"/><rect fill="#EEEEEE" height="19.6406" style="stroke:#000000;stroke-width:2;" width="388.8975" x="495.6064" y="519.6563"/><text fill="#000000" font-family="Helvetica" font-size="10" font-weight="700" x="501.6064" y="532.9385">&#196;u&#223;erer Flow: Policy-Entscheidung &amp; Ausstellung der ZETA Token</text><line style="stroke:#181818;stroke-width:1;" x1="544.8223" x2="586.8223" y1="578.5781" y2="578.5781"/><line style="stroke:#181818;stroke-width:1;" x1="586.8223" x2="586.8223" y1="578.5781" y2="591.5781"/><line style="stroke:#181818;stroke-width:1;" x1="545.8223" x2="586.8223" y1="591.5781" y2="591.5781"/><polygon fill="#181818" points="555.8223,587.5781,545.8223,591.5781,555.8223,595.5781,551.8223,591.5781" style="stroke:#181818;stroke-width:1;stroke-linejoin:miter;stroke-miterlimit:10;"/><text fill="#000000" font-family="Helvetica" font-size="10" x="551.8223" y="568.3994">(06)</text><text fill="#000000" font-family="Helvetica" font-size="10" x="576.3496" y="562.5791">Erzeuge Policy Engine Input</text><text fill="#000000" font-family="Helvetica" font-size="10" x="576.3496" y="574.2197">(Identit&#228;ts-Claims, Posture, Kontext)</text><polygon fill="#181818" points="892.3555,613.2188,902.3555,617.2188,892.3555,621.2188,896.3555,617.2188" style="stroke:#181818;stroke-width:1;stroke-linejoin:miter;stroke-miterlimit:10;"/><line style="stroke:#181818;stroke-width:1;" x1="544.8223" x2="898.3555" y1="617.2188" y2="617.2188"/><text fill="#000000" font-family="Helvetica" font-size="10" x="551.8223" y="612.8604">(07)</text><text fill="#000000" font-family="Helvetica" font-size="10" x="576.3496" y="612.8604">POST /v1/data/authz {Policy Engine Input}</text><polygon fill="#181818" points="555.8223,638.8594,545.8223,642.8594,555.8223,646.8594,551.8223,642.8594" style="stroke:#181818;stroke-width:1;stroke-linejoin:miter;stroke-miterlimit:10;"/><line style="stroke:#181818;stroke-width:1;stroke-dasharray:2,2;" x1="549.8223" x2="903.3555" y1="642.8594" y2="642.8594"/><text fill="#000000" font-family="Helvetica" font-size="10" x="561.8223" y="638.501">(08)</text><text fill="#000000" font-family="Helvetica" font-size="10" x="586.3496" y="638.501">Policy Decision</text><path d="M57.6191,654.8594 L117.5752,654.8594 L117.5752,658.5 L107.5752,668.5 L57.6191,668.5 L57.6191,654.8594" fill="#EEEEEE" style="stroke:#000000;stroke-width:1.5;"/><rect fill="none" height="364.8906" style="stroke:#000000;stroke-width:1.5;" width="867.7363" x="57.6191" y="654.8594"/><text fill="#000000" font-family="Helvetica" font-size="10" font-weight="700" x="72.6191" y="665.1416">alt</text><text fill="#000000" font-family="Helvetica" font-size="10" font-weight="700" x="132.5752" y="666.1416">[Policy Decision allow]</text><line style="stroke:#000000;stroke-width:1;stroke-dasharray:2,2;" x1="57.6191" x2="925.3555" y1="975.4688" y2="975.4688"/><text fill="#000000" font-family="Helvetica" font-size="10" font-weight="700" x="62.6191" y="986.751">[Policy Decision deny]</text><line style="stroke:#181818;stroke-width:1;" x1="544.8223" x2="586.8223" y1="696.1406" y2="696.1406"/><line style="stroke:#181818;stroke-width:1;" x1="586.8223" x2="586.8223" y1="696.1406" y2="709.1406"/><line style="stroke:#181818;stroke-width:1;" x1="545.8223" x2="586.8223" y1="709.1406" y2="709.1406"/><polygon fill="#181818" points="555.8223,705.1406,545.8223,709.1406,555.8223,713.1406,551.8223,709.1406" style="stroke:#181818;stroke-width:1;stroke-linejoin:miter;stroke-miterlimit:10;"/><text fill="#000000" font-family="Helvetica" font-size="10" x="551.8223" y="691.7822">(09)</text><text fill="#000000" font-family="Helvetica" font-size="10" x="576.3496" y="691.7822">Erzeuge AUTHORIZATION_CODE (AS)</text><polygon fill="#181818" points="89.6191,742.4219,79.6191,746.4219,89.6191,750.4219,85.6191,746.4219" style="stroke:#181818;stroke-width:1;stroke-linejoin:miter;stroke-miterlimit:10;"/><line style="stroke:#181818;stroke-width:1;stroke-dasharray:2,2;" x1="83.6191" x2="533.8223" y1="746.4219" y2="746.4219"/><text fill="#000000" font-family="Helvetica" font-size="10" x="95.6191" y="736.2432">(10)</text><text fill="#000000" font-family="Helvetica" font-size="10" x="120.1465" y="730.4229">302 Found</text><text fill="#000000" font-family="Helvetica" font-size="10" x="120.1465" y="742.0635">Location: &lt;redirect_uri_app&gt;?code=AUTH_CODE_AS&amp;state=state_app</text><line style="stroke:#181818;stroke-width:1;" x1="78.6191" x2="120.6191" y1="783.7031" y2="783.7031"/><line style="stroke:#181818;stroke-width:1;" x1="120.6191" x2="120.6191" y1="783.7031" y2="796.7031"/><line style="stroke:#181818;stroke-width:1;" x1="79.6191" x2="120.6191" y1="796.7031" y2="796.7031"/><polygon fill="#181818" points="89.6191,792.7031,79.6191,796.7031,89.6191,800.7031,85.6191,796.7031" style="stroke:#181818;stroke-width:1;stroke-linejoin:miter;stroke-miterlimit:10;"/><text fill="#000000" font-family="Helvetica" font-size="10" x="85.6191" y="773.5244">(11)</text><text fill="#000000" font-family="Helvetica" font-size="10" x="110.1465" y="767.7041">Erzeuge DPoP Key Pair (PrK.DPoP.Sig, PuK.DPoP.Sig)</text><text fill="#000000" font-family="Helvetica" font-size="10" x="110.1465" y="779.3447">und DPoP Proof</text><polygon fill="#181818" points="527.8223,853.2656,537.8223,857.2656,527.8223,861.2656,531.8223,857.2656" style="stroke:#181818;stroke-width:1;stroke-linejoin:miter;stroke-miterlimit:10;"/><line style="stroke:#181818;stroke-width:1;" x1="78.6191" x2="533.8223" y1="857.2656" y2="857.2656"/><text fill="#000000" font-family="Helvetica" font-size="10" x="85.6191" y="835.4463">(12)</text><text fill="#000000" font-family="Helvetica" font-size="10" x="110.1465" y="817.9854">POST /token  dpop: &lt;dpop_proof&gt;</text><text fill="#000000" font-family="Helvetica" font-size="10" x="110.1465" y="829.626">{grant_type=authorization_code, code=AUTH_CODE_AS,</text><text fill="#000000" font-family="Helvetica" font-size="10" x="110.1465" y="841.2666">code_verifier=code_verifier_app, client_id, redirect_uri_app,</text><text fill="#000000" font-family="Helvetica" font-size="10" x="110.1465" y="852.9072">client_assertion (JWT, PrK.Client.Sig signiert)}</text><line style="stroke:#181818;stroke-width:1;" x1="549.8223" x2="591.8223" y1="894.5469" y2="894.5469"/><line style="stroke:#181818;stroke-width:1;" x1="591.8223" x2="591.8223" y1="894.5469" y2="907.5469"/><line style="stroke:#181818;stroke-width:1;" x1="550.8223" x2="591.8223" y1="907.5469" y2="907.5469"/><polygon fill="#181818" points="560.8223,903.5469,550.8223,907.5469,560.8223,911.5469,556.8223,907.5469" style="stroke:#181818;stroke-width:1;stroke-linejoin:miter;stroke-miterlimit:10;"/><text fill="#000000" font-family="Helvetica" font-size="10" x="556.8223" y="884.3682">(13)</text><text fill="#000000" font-family="Helvetica" font-size="10" x="581.3496" y="878.5479">Verifiziere code_verifier_app gegen code_challenge_app (S256),</text><text fill="#000000" font-family="Helvetica" font-size="10" x="581.3496" y="890.1885">DPoP Proof und Client Assertion (Key Binding aus DCR)</text><polygon fill="#181818" points="89.6191,952.4688,79.6191,956.4688,89.6191,960.4688,85.6191,956.4688" style="stroke:#181818;stroke-width:1;stroke-linejoin:miter;stroke-miterlimit:10;"/><line style="stroke:#181818;stroke-width:1;stroke-dasharray:2,2;" x1="83.6191" x2="538.8223" y1="956.4688" y2="956.4688"/><text fill="#000000" font-family="Helvetica" font-size="10" x="95.6191" y="940.4697">(14)</text><text fill="#000000" font-family="Helvetica" font-size="10" x="120.1465" y="928.8291">200 OK</text><text fill="#000000" font-family="Helvetica" font-size="10" x="120.1465" y="940.4697">{access_token (DPoP-gebunden), refresh_token,</text><text fill="#000000" font-family="Helvetica" font-size="10" x="120.1465" y="952.1104">token_type=DPoP, expires_in}</text><polygon fill="#181818" points="89.6191,1007.75,79.6191,1011.75,89.6191,1015.75,85.6191,1011.75" style="stroke:#181818;stroke-width:1;stroke-linejoin:miter;stroke-miterlimit:10;"/><line style="stroke:#181818;stroke-width:1;stroke-dasharray:2,2;" x1="83.6191" x2="533.8223" y1="1011.75" y2="1011.75"/><text fill="#000000" font-family="Helvetica" font-size="10" x="95.6191" y="1007.3916">(15)</text><text fill="#000000" font-family="Helvetica" font-size="10" x="120.1465" y="1007.3916">403 Forbidden {"reasons": ["..."]}</text><path d="M21.4941,1038.75 L21.4941,1082.75 L591.4941,1082.75 L591.4941,1048.75 L581.4941,1038.75 L21.4941,1038.75" fill="#FEFFDD" style="stroke:#181818;stroke-width:0.5;"/><path d="M581.4941,1038.75 L581.4941,1048.75 L591.4941,1048.75 L581.4941,1038.75" fill="#FEFFDD" style="stroke:#181818;stroke-width:0.5;"/><text fill="#000000" font-family="Helvetica" font-size="10" x="27.4941" y="1053.0322">Der ZETA Client besitzt nun ein DPoP-gebundenes Access Token und kann auf den Resource Server zugreifen</text><text fill="#000000" font-family="Helvetica" font-size="10" x="27.4941" y="1064.6729">(siehe Abb-ZETA-Zugriff-auf-RS-mit-ASL bzw. Abb-ZETA-Zugriff-auf-RS-ohne-ASL).</text><text fill="#000000" font-family="Helvetica" font-size="10" x="27.4941" y="1076.3135">Die Session-Erneuerung erfolgt &#252;ber Abb-ZETA-Token-Exchange-mit-Refresh-Token.</text><?plantuml-src bLVDRY974BxFKrI8b30o0uutcmCoZiOmzX9x5mIi8sqSeMQcW1P3pwYxnp-iV8lo07c1NFOPSjeRRv8dINNFy6kygro0dkcg-ghgww-QRxW8uon2g5PhQJQFlPWz9fckwWVjECxtC40UHvnD99lFeTnqwp18PYYySrna4nWXduF2cKuaYr50kzMjG3U9UVZe1KAhS8eyoiG4CX61docbCOxDEa897uA1dtihui1T8i0VZJppnkkqMqtFp_GKXUPZlk0eoTAR9oCUe_IQCQSNod56oGEKtjgduATf2Lh1JRiP39kTwqxF0KYPr3paAHCQSYDW2aesUhukmUdf0ZKxEtEGS9B3mgilHXmrGHsquQHw32tQhMXxjzUvQRU2tZg6tMqzNcPCHYMRs_3olTzhhVVi8Z69zIsGRgjxAymoaNp1DASQz57UeRmLPLC3w67yoAbcNJ9_TBV0xlliTFsDnxmB48W95xXZjCfnDzT1sxjO_aDziH1Ay6tWNvnSNEmLa1fiG_HNFPVc4I7DMH68ACt4JBkbZVUynaT7ZaWqGaA95MMl6DCwj5PKA9epPTIWJEqnxzmbpX0xtW_UT7hj3_wWtNb7fMq5K2OlBg2SibYZg3fEem5j8L2ItuiukVygOw7HS0w0insYzC-9mcXNq4peb_6fJ179UlbvH1RqIs4yCl3IrBlcObPxBpZvKYosI-32CfvULzVvakiYOvI4pz1IJ1bLBK85tJ6BbBMH6769eHvcabVW7cCwKp87joutB3AWSFSvAAvqdPnxEwP3wbgv5evgfonDpsfCkV3ldt-jjr3BXsIT9fnm600vFykc4Knv53RsPYAv5sx5qaxmSAejlfhUwRprIkmmTTsj6PJvLbVSwW68QRg3CKrpaFiXDlZCsysnUnPm-IbR_hqTqf3IT7h5Il3ESaz7HtMu30PmkbUpCoY_K289pmzdfQXB3jYz5HT9FCatlpe-yNeRJmSPVYi-XWI-OKXkkJsqUgeqqzYmduJeoSbJ9-Jqrk3kTlg38YIKvuFhFfbWF1ugFX4O3NMiXg7DTiZ8qaIXYBJIZoassBRm34tu2Xm0SIlCmo6HZAGOPMDdHQZ8A0_1eye-xvuSGuOSBw6LoyzZ189PIFW2fT7t6TCK9NTfj1vXFmPCS48fsiSXdNOwlXEqlEwVlFx99MikxbZC8slzN2bo6AkEUruTJewFeND51U5Kfhn-l_mQr25ejjvuGR_caz_Bvbkg9vMIl6e8Lg5O6A9IkLK5x5TUq7DaHBWAu4DAHL13BhOwPd-GVpiQu-LdHOr2gaikKHNOJhzFCPdE99HdFAezl0vDs3Il7bUgnhAe9X8HOer2cNXQigcrRCQCpwaiLpVlUXLW8Q5XS_geLgkkbSVb7zldedvmOd_tXNbj5VDPKdA1sGHXP_2G4gUPfldGZimOryjFMdavFdDHK9GV4Uug4PhmknkVDCesrBxxeHOnpMg6gmluU230asDctqvlYrqj3BaYQZiEZOVzXq0aIkwjeBsKpQ61u_VTRHioofbSDwSSBXAwxDoAwoIqPwg-hoaaRJ_ldJ2__ztE8KzJwt-ZKIl_ArIjRjA5AtmasU54aAwygff7LU8CbJNRhEYqcwkNtT-LIJBUSxmMlsqH0HAvb72Rhs5ghCx-jsZu_QzfHff-GJJe9PaNgaMdH5hHfDCveFmespm3a-7wRBfF1njvyxAYqBWvB2bc3gqE-gPqzX9RbCxVO39jEESYCbF0g7ghsJjCZnt5sTOFA9iWtWH7cHdWhYd6cBHZMiZBhTZI5xDrLrqmLlYCsUJdyGMI_dZyYaWgHpmojuMF9ObC9KALwl1RYIIYzFkJcPDVkXBjNzb6gBXUQ22k0T9TPoSTCwnjieLsc2hEc30ZS6plT3rKIIP3BAwzT9cPIEHZ-bi0K5OSfxZvK_21tl7ns2DRhzVtvbnxVlyQHelxwekRagb0iyjUEUWAJt6KgP4NI86P_LT1Lx2n7TNvXMxjgRZLFX0tY1WsN2zlJVvgwqRn7m00?></g></svg>