<svg xmlns="http://www.w3.org/2000/svg" xmlns:xlink="http://www.w3.org/1999/xlink" contentStyleType="text/css" data-diagram-type="SEQUENCE" height="1056px" preserveAspectRatio="none" style="width:1113px;height:1056px;background:#FFFFFF;" version="1.1" viewBox="0 0 1113 1056" width="1113px" zoomAndPan="magnify"><defs/><g><rect fill="#FEFCFF" height="1044.75" style="stroke:#181818;stroke-width:0.5;" width="87.1543" x="23.8091" y="6"/><text fill="#000000" font-family="Helvetica" font-size="10" font-weight="bold" x="35.8091" y="15.2822">Mobile App</text><rect fill="#EDFDEC" height="1044.75" style="stroke:#181818;stroke-width:0.5;" width="147.7842" x="313.0664" y="6"/><text fill="#000000" font-family="Helvetica" font-size="10" font-weight="bold" x="325.0664" y="15.2822">Anbieter TI 2.0 Dienst</text><rect fill="#FFF3E5" height="1028.1094" style="stroke:#181818;stroke-width:0.5;" width="147.7842" x="313.0664" y="22.6406"/><text fill="#000000" font-family="Helvetica" font-size="10" font-weight="bold" x="353.814" y="31.9229">ZETA Guard</text><rect fill="#EAF2FF" height="1044.75" style="stroke:#181818;stroke-width:0.5;" width="388.772" x="718.7412" y="6"/><text fill="#000000" font-family="Helvetica" font-size="10" font-weight="bold" x="875.0217" y="15.2822">TI-F&#246;deration</text><g><title>ZETA Client</title><rect fill="#000000" fill-opacity="0.00000" height="906.625" width="8" x="63.8862" y="88.2031"/><line style="stroke:#000000;stroke-width:0.5;stroke-dasharray:5.0,5.0;" x1="67.3862" x2="67.3862" y1="88.2031" y2="994.8281"/></g><g><title/><rect fill="#FFFFFF" height="898.625" style="stroke:#000000;stroke-width:1;" width="10" x="62.3862" y="96.2031"/></g><g><title>PDP</title><rect fill="#000000" fill-opacity="0.00000" height="906.625" width="8" x="383.4585" y="88.2031"/><line style="stroke:#000000;stroke-width:0.5;stroke-dasharray:5.0,5.0;" x1="386.9585" x2="386.9585" y1="88.2031" y2="994.8281"/></g><g><title/><rect fill="#FFFFFF" height="702.8594" style="stroke:#000000;stroke-width:1;" width="10" x="381.9585" y="242.3281"/></g><g><title/><rect fill="#FFFFFF" height="25.6406" style="stroke:#000000;stroke-width:1;" width="10" x="386.9585" y="667.5"/></g><g><title>Sektoraler IDP</title><rect fill="#000000" fill-opacity="0.00000" height="906.625" width="8" x="765.7261" y="88.2031"/><line style="stroke:#000000;stroke-width:0.5;stroke-dasharray:5.0,5.0;" x1="769.2261" x2="769.2261" y1="88.2031" y2="994.8281"/></g><g><title/><rect fill="#FFFFFF" height="25.6406" style="stroke:#000000;stroke-width:1;" width="10" x="764.2261" y="357.5313"/></g><g><title/><rect fill="#FFFFFF" height="282.0469" style="stroke:#000000;stroke-width:1;" width="10" x="764.2261" y="614.2188"/></g><g><title>Federation</title><rect fill="#000000" fill-opacity="0.00000" height="906.625" width="8" x="1066.1138" y="88.2031"/><line style="stroke:#000000;stroke-width:0.5;stroke-dasharray:5.0,5.0;" x1="1069.6138" x2="1069.6138" y1="88.2031" y2="994.8281"/></g><g><title/><rect fill="#FFFFFF" height="25.6406" style="stroke:#000000;stroke-width:1;" width="10" x="1064.6138" y="408.8125"/></g><g><title/><rect fill="#FFFFFF" height="25.6406" style="stroke:#000000;stroke-width:1;" width="10" x="1064.6138" y="718.7813"/></g><rect fill="#FFE6CC" height="25.6406" rx="2.5" ry="2.5" style="stroke:#D79B00;stroke-width:0.5;" width="72.2471" x="31.2627" y="61.5625"/><text fill="#000000" font-family="Helvetica" font-size="10" x="38.2627" y="77.8447">ZETA Client</text><rect fill="#FFE6CC" height="48.9219" rx="2.5" ry="2.5" style="stroke:#D79B00;stroke-width:0.5;" width="117.0322" x="328.4424" y="38.2813"/><text fill="#000000" font-family="Helvetica" font-size="10" x="377.0781" y="54.5635">PDP</text><text fill="#000000" font-family="Helvetica" font-size="10" x="335.4839" y="66.2041">Authorization Server</text><text fill="#000000" font-family="Helvetica" font-size="10" x="335.4424" y="77.8447">(OIDC Relying Party)</text><rect fill="#E2E2F0" height="37.2813" rx="2.5" ry="2.5" style="stroke:#181818;stroke-width:0.5;" width="92.9697" x="722.7412" y="49.9219"/><text fill="#000000" font-family="Helvetica" font-size="10" x="733.4912" y="66.2041">Sektoraler IDP</text><text fill="#000000" font-family="Helvetica" font-size="10" x="729.7412" y="77.8447">(PAR-Endpunkt)</text><rect fill="#E2E2F0" height="37.2813" rx="2.5" ry="2.5" style="stroke:#181818;stroke-width:0.5;" width="67.7988" x="1035.7144" y="49.9219"/><text fill="#000000" font-family="Helvetica" font-size="10" x="1042.7144" y="66.2041">Federation</text><text fill="#000000" font-family="Helvetica" font-size="10" x="1052.5386" y="77.8447">Master</text><rect fill="#FFE6CC" height="25.6406" rx="2.5" ry="2.5" style="stroke:#D79B00;stroke-width:0.5;" width="72.2471" x="31.2627" y="994.8281"/><text fill="#000000" font-family="Helvetica" font-size="10" x="38.2627" y="1011.1104">ZETA Client</text><rect fill="#FFE6CC" height="48.9219" rx="2.5" ry="2.5" style="stroke:#D79B00;stroke-width:0.5;" width="117.0322" x="328.4424" y="994.8281"/><text fill="#000000" font-family="Helvetica" font-size="10" x="377.0781" y="1011.1104">PDP</text><text fill="#000000" font-family="Helvetica" font-size="10" x="335.4839" y="1022.751">Authorization Server</text><text fill="#000000" font-family="Helvetica" font-size="10" x="335.4424" y="1034.3916">(OIDC Relying Party)</text><rect fill="#E2E2F0" height="37.2813" rx="2.5" ry="2.5" style="stroke:#181818;stroke-width:0.5;" width="92.9697" x="722.7412" y="994.8281"/><text fill="#000000" font-family="Helvetica" font-size="10" x="733.4912" y="1011.1104">Sektoraler IDP</text><text fill="#000000" font-family="Helvetica" font-size="10" x="729.7412" y="1022.751">(PAR-Endpunkt)</text><rect fill="#E2E2F0" height="37.2813" rx="2.5" ry="2.5" style="stroke:#181818;stroke-width:0.5;" width="67.7988" x="1035.7144" y="994.8281"/><text fill="#000000" font-family="Helvetica" font-size="10" x="1042.7144" y="1011.1104">Federation</text><text fill="#000000" font-family="Helvetica" font-size="10" x="1052.5386" y="1022.751">Master</text><path d="M10,101.2031 L10,122.2031 L444,122.2031 L444,111.2031 L434,101.2031 L10,101.2031" fill="#FEFFDD" style="stroke:#181818;stroke-width:0.5;"/><path d="M434,101.2031 L434,111.2031 L444,111.2031 L434,101.2031" fill="#FEFFDD" style="stroke:#181818;stroke-width:0.5;"/><text fill="#000000" font-family="Helvetica" font-size="10" x="16" y="115.4854">Der ZETA Client hat vom Fach-Client den fachlichen Request inkl. idp_iss erhalten.</text><line style="stroke:#181818;stroke-width:1;" x1="72.3862" x2="114.3862" y1="168.7656" y2="168.7656"/><line style="stroke:#181818;stroke-width:1;" x1="114.3862" x2="114.3862" y1="168.7656" y2="181.7656"/><line style="stroke:#181818;stroke-width:1;" x1="73.3862" x2="114.3862" y1="181.7656" y2="181.7656"/><polygon fill="#181818" points="83.3862,177.7656,73.3862,181.7656,83.3862,185.7656,79.3862,181.7656" style="stroke:#181818;stroke-width:1;"/><text fill="#000000" font-family="Helvetica" font-size="10" x="79.3862" y="152.7666">(01)</text><text fill="#000000" font-family="Helvetica" font-size="10" x="103.9136" y="141.126">Erzeuge PKCE (code_verifier_app),</text><text fill="#000000" font-family="Helvetica" font-size="10" x="103.9136" y="152.7666">code_challenge_app = S256(code_verifier_app),</text><text fill="#000000" font-family="Helvetica" font-size="10" x="103.9136" y="164.4072">state_app</text><polygon fill="#181818" points="369.9585,238.3281,379.9585,242.3281,369.9585,246.3281,373.9585,242.3281" style="stroke:#181818;stroke-width:1;"/><line style="stroke:#181818;stroke-width:1;" x1="72.3862" x2="375.9585" y1="242.3281" y2="242.3281"/><text fill="#000000" font-family="Helvetica" font-size="10" x="79.3862" y="220.5088">(02)</text><text fill="#000000" font-family="Helvetica" font-size="10" x="103.9136" y="203.0479">GET Authorization Request</text><text fill="#000000" font-family="Helvetica" font-size="10" x="103.9136" y="214.6885">{response_type=code, client_id, app_redirect_uri,</text><text fill="#000000" font-family="Helvetica" font-size="10" x="103.9136" y="226.3291">code_challenge_app, code_challenge_method=S256,</text><text fill="#000000" font-family="Helvetica" font-size="10" x="103.9136" y="237.9697">scope, state_app, idp_iss}</text><line style="stroke:#181818;stroke-width:1;" x1="391.9585" x2="433.9585" y1="291.25" y2="291.25"/><line style="stroke:#181818;stroke-width:1;" x1="433.9585" x2="433.9585" y1="291.25" y2="304.25"/><line style="stroke:#181818;stroke-width:1;" x1="392.9585" x2="433.9585" y1="304.25" y2="304.25"/><polygon fill="#181818" points="402.9585,300.25,392.9585,304.25,402.9585,308.25,398.9585,304.25" style="stroke:#181818;stroke-width:1;"/><text fill="#000000" font-family="Helvetica" font-size="10" x="398.9585" y="275.251">(03)</text><text fill="#000000" font-family="Helvetica" font-size="10" x="423.4858" y="263.6104">Erzeuge PKCE (code_verifier_as),</text><text fill="#000000" font-family="Helvetica" font-size="10" x="423.4858" y="275.251">code_challenge_as = S256(code_verifier_as),</text><text fill="#000000" font-family="Helvetica" font-size="10" x="423.4858" y="286.8916">state_as, nonce</text><path d="M370.9585,316.25 L434.7671,316.25 L434.7671,319.8906 L424.7671,329.8906 L370.9585,329.8906 L370.9585,316.25" fill="#EEEEEE" style="stroke:#000000;stroke-width:1.5;"/><rect fill="none" height="176.4844" style="stroke:#000000;stroke-width:1.5;" width="719.6553" x="370.9585" y="316.25"/><text fill="#000000" font-family="Helvetica" font-size="10" font-weight="bold" x="385.9585" y="326.5322">opt</text><text fill="#000000" font-family="Helvetica" font-size="10" font-weight="bold" x="449.7671" y="327.5322">[Entity Statement des IDP unbekannt]</text><polygon fill="#181818" points="752.2261,353.5313,762.2261,357.5313,752.2261,361.5313,756.2261,357.5313" style="stroke:#181818;stroke-width:1;"/><line style="stroke:#181818;stroke-width:1;" x1="391.9585" x2="758.2261" y1="357.5313" y2="357.5313"/><text fill="#000000" font-family="Helvetica" font-size="10" x="398.9585" y="353.1729">(04)</text><text fill="#000000" font-family="Helvetica" font-size="10" x="423.4858" y="353.1729">GET /.well-known/openid-federation</text><polygon fill="#181818" points="402.9585,379.1719,392.9585,383.1719,402.9585,387.1719,398.9585,383.1719" style="stroke:#181818;stroke-width:1;"/><line style="stroke:#181818;stroke-width:1;stroke-dasharray:2.0,2.0;" x1="396.9585" x2="763.2261" y1="383.1719" y2="383.1719"/><text fill="#000000" font-family="Helvetica" font-size="10" x="408.9585" y="378.8135">(05)</text><text fill="#000000" font-family="Helvetica" font-size="10" x="433.4858" y="378.8135">Entity Statement (signiert)</text><polygon fill="#181818" points="1052.6138,404.8125,1062.6138,408.8125,1052.6138,412.8125,1056.6138,408.8125" style="stroke:#181818;stroke-width:1;"/><line style="stroke:#181818;stroke-width:1;" x1="391.9585" x2="1058.6138" y1="408.8125" y2="408.8125"/><text fill="#000000" font-family="Helvetica" font-size="10" x="398.9585" y="404.4541">(06)</text><text fill="#000000" font-family="Helvetica" font-size="10" x="423.4858" y="404.4541">GET federation_fetch_endpoint?sub=&lt;idp_iss&gt;</text><polygon fill="#181818" points="402.9585,430.4531,392.9585,434.4531,402.9585,438.4531,398.9585,434.4531" style="stroke:#181818;stroke-width:1;"/><line style="stroke:#181818;stroke-width:1;stroke-dasharray:2.0,2.0;" x1="396.9585" x2="1063.6138" y1="434.4531" y2="434.4531"/><text fill="#000000" font-family="Helvetica" font-size="10" x="408.9585" y="430.0947">(07)</text><text fill="#000000" font-family="Helvetica" font-size="10" x="433.4858" y="430.0947">Entity Statement des IDP (signiert, Federation Master)</text><line style="stroke:#181818;stroke-width:1;" x1="391.9585" x2="433.9585" y1="471.7344" y2="471.7344"/><line style="stroke:#181818;stroke-width:1;" x1="433.9585" x2="433.9585" y1="471.7344" y2="484.7344"/><line style="stroke:#181818;stroke-width:1;" x1="392.9585" x2="433.9585" y1="484.7344" y2="484.7344"/><polygon fill="#181818" points="402.9585,480.7344,392.9585,484.7344,402.9585,488.7344,398.9585,484.7344" style="stroke:#181818;stroke-width:1;"/><text fill="#000000" font-family="Helvetica" font-size="10" x="398.9585" y="461.5557">(08)</text><text fill="#000000" font-family="Helvetica" font-size="10" x="423.4858" y="455.7354">Validiere Trust Chain, importiere Signaturschl&#252;ssel</text><text fill="#000000" font-family="Helvetica" font-size="10" x="423.4858" y="467.376">und OP-Metadaten (PAR-, Authorization-, Token-Endpunkt) des IDP</text><path d="M292.3677,511.7344 L292.3677,555.7344 L863.3677,555.7344 L863.3677,521.7344 L853.3677,511.7344 L292.3677,511.7344" fill="#FEFFDD" style="stroke:#181818;stroke-width:0.5;"/><path d="M853.3677,511.7344 L853.3677,521.7344 L863.3677,521.7344 L853.3677,511.7344" fill="#FEFFDD" style="stroke:#181818;stroke-width:0.5;"/><text fill="#000000" font-family="Helvetica" font-size="10" x="298.3677" y="526.0166">oidc_redirect_uri ist der Redirection-Endpunkt der OIDC Relying Party (AuthS) f&#252;r den SekIDP Auth Code Flow.</text><text fill="#000000" font-family="Helvetica" font-size="10" x="298.3677" y="537.6572">Sie wird im Entity Statement des AS (Fachdienst) gef&#252;hrt; der SekIDP pr&#252;ft beim PAR, ob oidc_redirect_uri</text><text fill="#000000" font-family="Helvetica" font-size="10" x="298.3677" y="549.2979">eine bekannte redirect_uri aus diesem AS-Entity-Statement ist.</text><polygon fill="#181818" points="752.2261,610.2188,762.2261,614.2188,752.2261,618.2188,756.2261,614.2188" style="stroke:#181818;stroke-width:1;"/><line style="stroke:#181818;stroke-width:1;" x1="391.9585" x2="758.2261" y1="614.2188" y2="614.2188"/><text fill="#000000" font-family="Helvetica" font-size="10" x="398.9585" y="592.3994">(09)</text><text fill="#000000" font-family="Helvetica" font-size="10" x="423.4858" y="574.9385">POST /PAR (mTLS, self_signed_tls_client_auth)</text><text fill="#000000" font-family="Helvetica" font-size="10" x="423.4858" y="586.5791">{client_id, oidc_redirect_uri, response_type=code,</text><text fill="#000000" font-family="Helvetica" font-size="10" x="423.4858" y="598.2197">code_challenge_as, code_challenge_method=S256,</text><text fill="#000000" font-family="Helvetica" font-size="10" x="423.4858" y="609.8604">scope, claims, acr_values, nonce, state_as}</text><path d="M365.9585,626.2188 L429.7671,626.2188 L429.7671,629.8594 L419.7671,639.8594 L365.9585,639.8594 L365.9585,626.2188" fill="#EEEEEE" style="stroke:#000000;stroke-width:1.5;"/><rect fill="none" height="176.4844" style="stroke:#000000;stroke-width:1.5;" width="724.6553" x="365.9585" y="626.2188"/><text fill="#000000" font-family="Helvetica" font-size="10" font-weight="bold" x="380.9585" y="636.501">opt</text><text fill="#000000" font-family="Helvetica" font-size="10" font-weight="bold" x="444.7671" y="637.501">[Entity Statement des Fachdienstes unbekannt]</text><polygon fill="#181818" points="407.9585,663.5,397.9585,667.5,407.9585,671.5,403.9585,667.5" style="stroke:#181818;stroke-width:1;"/><line style="stroke:#181818;stroke-width:1;" x1="401.9585" x2="763.2261" y1="667.5" y2="667.5"/><text fill="#000000" font-family="Helvetica" font-size="10" x="413.9585" y="663.1416">(10)</text><text fill="#000000" font-family="Helvetica" font-size="10" x="438.4858" y="663.1416">GET /.well-known/openid-federation</text><polygon fill="#181818" points="752.2261,689.1406,762.2261,693.1406,752.2261,697.1406,756.2261,693.1406" style="stroke:#181818;stroke-width:1;"/><line style="stroke:#181818;stroke-width:1;stroke-dasharray:2.0,2.0;" x1="396.9585" x2="758.2261" y1="693.1406" y2="693.1406"/><text fill="#000000" font-family="Helvetica" font-size="10" x="403.9585" y="688.7822">(11)</text><text fill="#000000" font-family="Helvetica" font-size="10" x="428.4858" y="688.7822">Entity Statement des Fachdienstes (signiert)</text><polygon fill="#181818" points="1052.6138,714.7813,1062.6138,718.7813,1052.6138,722.7813,1056.6138,718.7813" style="stroke:#181818;stroke-width:1;"/><line style="stroke:#181818;stroke-width:1;" x1="774.2261" x2="1058.6138" y1="718.7813" y2="718.7813"/><text fill="#000000" font-family="Helvetica" font-size="10" x="781.2261" y="714.4229">(12)</text><text fill="#000000" font-family="Helvetica" font-size="10" x="805.7534" y="714.4229">GET federation_fetch_endpoint?sub=&lt;client_id&gt;</text><polygon fill="#181818" points="785.2261,740.4219,775.2261,744.4219,785.2261,748.4219,781.2261,744.4219" style="stroke:#181818;stroke-width:1;"/><line style="stroke:#181818;stroke-width:1;stroke-dasharray:2.0,2.0;" x1="779.2261" x2="1063.6138" y1="744.4219" y2="744.4219"/><text fill="#000000" font-family="Helvetica" font-size="10" x="791.2261" y="740.0635">(13)</text><text fill="#000000" font-family="Helvetica" font-size="10" x="815.7534" y="740.0635">Entity Statement des Fachdienstes (signiert)</text><line style="stroke:#181818;stroke-width:1;" x1="774.2261" x2="816.2261" y1="781.7031" y2="781.7031"/><line style="stroke:#181818;stroke-width:1;" x1="816.2261" x2="816.2261" y1="781.7031" y2="794.7031"/><line style="stroke:#181818;stroke-width:1;" x1="775.2261" x2="816.2261" y1="794.7031" y2="794.7031"/><polygon fill="#181818" points="785.2261,790.7031,775.2261,794.7031,785.2261,798.7031,781.2261,794.7031" style="stroke:#181818;stroke-width:1;"/><text fill="#000000" font-family="Helvetica" font-size="10" x="781.2261" y="771.5244">(14)</text><text fill="#000000" font-family="Helvetica" font-size="10" x="805.7534" y="765.7041">Validiere Trust Chain, Automatic Registration,</text><text fill="#000000" font-family="Helvetica" font-size="10" x="805.7534" y="777.3447">importiere Schl&#252;ssel (sig/enc) des Fachdienstes</text><line style="stroke:#181818;stroke-width:1;" x1="774.2261" x2="816.2261" y1="857.625" y2="857.625"/><line style="stroke:#181818;stroke-width:1;" x1="816.2261" x2="816.2261" y1="857.625" y2="870.625"/><line style="stroke:#181818;stroke-width:1;" x1="775.2261" x2="816.2261" y1="870.625" y2="870.625"/><polygon fill="#181818" points="785.2261,866.625,775.2261,870.625,785.2261,874.625,781.2261,870.625" style="stroke:#181818;stroke-width:1;"/><text fill="#000000" font-family="Helvetica" font-size="10" x="781.2261" y="841.626">(15)</text><text fill="#000000" font-family="Helvetica" font-size="10" x="805.7534" y="829.9854">Validiere PAR: oidc_redirect_uri gegen redirect_uris</text><text fill="#000000" font-family="Helvetica" font-size="10" x="805.7534" y="841.626">im AS-Entity-Statement, scope, claims,</text><text fill="#000000" font-family="Helvetica" font-size="10" x="805.7534" y="853.2666">TLS-Clientzertifikat; erzeuge request_uri</text><polygon fill="#181818" points="402.9585,892.2656,392.9585,896.2656,402.9585,900.2656,398.9585,896.2656" style="stroke:#181818;stroke-width:1;"/><line style="stroke:#181818;stroke-width:1;stroke-dasharray:2.0,2.0;" x1="396.9585" x2="763.2261" y1="896.2656" y2="896.2656"/><text fill="#000000" font-family="Helvetica" font-size="10" x="408.9585" y="891.9072">(16)</text><text fill="#000000" font-family="Helvetica" font-size="10" x="433.4858" y="891.9072">201 Created {request_uri, expires_in (max. 90s)}</text><polygon fill="#181818" points="83.3862,941.1875,73.3862,945.1875,83.3862,949.1875,79.3862,945.1875" style="stroke:#181818;stroke-width:1;"/><line style="stroke:#181818;stroke-width:1;stroke-dasharray:2.0,2.0;" x1="77.3862" x2="380.9585" y1="945.1875" y2="945.1875"/><text fill="#000000" font-family="Helvetica" font-size="10" x="89.3862" y="929.1885">(17)</text><text fill="#000000" font-family="Helvetica" font-size="10" x="113.9136" y="917.5479">302 Found Location:</text><text fill="#000000" font-family="Helvetica" font-size="10" x="113.9136" y="929.1885">&lt;SekIDP Entity Statement authorization_endpoint&gt;</text><text fill="#000000" font-family="Helvetica" font-size="10" x="113.9136" y="940.8291">?client_id&amp;request_uri</text><path d="M31.082,958.1875 L31.082,979.1875 L805.082,979.1875 L805.082,968.1875 L795.082,958.1875 L31.082,958.1875" fill="#FEFFDD" style="stroke:#181818;stroke-width:0.5;"/><path d="M795.082,958.1875 L795.082,968.1875 L805.082,968.1875 L795.082,958.1875" fill="#FEFFDD" style="stroke:#181818;stroke-width:0.5;"/><text fill="#000000" font-family="Helvetica" font-size="10" x="242.0239" y="972.4697">Weiter mit Teildiagramm (B) Abb-ZETA-OIDC-Nutzerauthentisierung.</text><!--SRC=[fLPjR_8s5FsUNt77f8seX7QTDccixIF6IuNM3WIiaoQao2GNi4YSFBRJjqVxM_lKR_rZktP2I0hTAkqJmh7lEJu-vzfVSH54MOZGRf-cMHnv4NjACjtMZzfnd6zXZZmAELjB5iVGxBeTw6PwaqZ-p3HF14pnSuPAGuWA_XpCkz2BE0eDCTSmoTG6mtSMD2VTgLi0m3rzw2wNdgdWZKVzdcSMKHs-uiySPIRMNfmiUOJIom6KuooJHsZSsb7efca3-eExKM_WzyOtuwa3a3AfUS1JHdGALan1eyAo0HSNpwZPrPM38WGgM5JjYYL7ZHBc8pXldq6VPYkQFfcExqRzmRJ4iBDjnUkCoR1XDV2lV-zE- -MSEXEpiPabCkbF5g8kpWpbFSg5Q1eDIAheYOirJ6ZvariX2x2ZMwSz7td3rxz3bBPQ0xuUT8Vdm-4RBKRzYSMVuLOdaf6cPeX0wKIyWGZJJ6orstYpQdXh5mrnLtuXRfaYZHfx4hcg9oUEI3H2GbifX6xbs-v0duQgDjamJOSVmv05c-9aoKe2LlG_uW5Pe3GC5zke3JnCVQuKeDomIADexr31kogATc0Wdp5R8qn-xGsW6IGX-iI5l8JIPsdgjXR23WPK8qAnHZCAbp0x_-77uzELPjhEgiBPFPsSTE1wC3_kyeNu8b6bYL3ewwSKBqtn5WIsXC_35b19NsB89GRQpoG_IerMrCTY9B3mql0rv88afQebnzPEfRyS9xVRZkn_IAEEAQFU4KPLT54j48a8q76ILCE0SgkVO6Q-nVc9AkkwJ2nnouJGDXKbDVgqK_6q_O1Hv6r5yY1EQLU2Xzwgj9nTPWfvkmrvNkSGhgduMX17xTPnXhSxc7r9VuKwsFXauJJXGdzIsVBoef3loYudu_yxt6vt9MmBzYc1F2Hlc1I7SSSY7j8AXBdCoEAz3UE2JYzE4mgU6PzHIQOpgIWEhozAORGG6SLjFF5kgHU4n47OLkgrwWwa__DaYs8Vw1rF4rUdab3BfMM_02Gy36f-16wRkoH7vuEczgwc_N3OgkYUC3LTMBs-I1jdQZL68JCCFR8H3AFaeKruCuxmm6L8UpukR7S6JTCSGjk1NLWZ5Tr8_RF5BkgcylLbfM69L8MqQ46oFDo9wPfS81GMHAXjasKA24DXJ91UJiNRKo4LshRF6TqggIgiEndFoBi43SruVaDgqa6jVEC737qTARz8FADrBZM5IWCuuDc28otZI2m_rXI2YF6Ovh90-lSiegPKHBNi5wPBl9lQlVJqfnvVcyCtJV03yIsaoxLxDqyrt3TvBe0_dEPIx5gU_oSw_RoRNzfY4XEVW6An9kVatEXCgi4k0sq1Jb44xW5s7jNZY6Ispf6uhd5DUQiEAODxpDJaW9f75eAiMrp2pxHVwlDRHa73uigG-PrcitJGXC_FleEUH2eTmfVAp1RWOqfSbC-fKSNiiGq_dIbtVpELrxQfyltPEGmJq-1kai2grbc8YoBb1qV5gWslFFIhXVXK7latLT97dYLMr3-GcxUUURBMdxk_k6zUfRzbHXbMl4rL_Z9jE_y0]--></g></svg>