<svg xmlns="http://www.w3.org/2000/svg" xmlns:xlink="http://www.w3.org/1999/xlink" contentStyleType="text/css" data-diagram-type="SEQUENCE" height="1291px" preserveAspectRatio="none" style="width:1570px;height:1291px;background:#FFFFFF;" version="1.1" viewBox="0 0 1570 1291" width="1570px" zoomAndPan="magnify"><?plantuml 1.2026.6?><defs/><g><rect fill="#FEFCFF" height="1265.9844" style="stroke:#181818;stroke-width:0.5;" width="139.8252" x="282.2896" y="11"/><text fill="#000000" font-family="Helvetica" font-size="10" font-weight="700" x="294.2896" y="20.2822">Device (Ersatzger&#228;t)</text><rect fill="#E6E6FA" height="1249.3438" style="stroke:#181818;stroke-width:0.5;" width="139.8252" x="282.2896" y="27.6406"/><text fill="#000000" font-family="Helvetica" font-size="10" font-weight="700" x="341.1743" y="36.9229">App</text><rect fill="#E4E4F4" height="1265.9844" style="stroke:#181818;stroke-width:0.5;" width="124.2217" x="783.4233" y="11"/><text fill="#000000" font-family="Helvetica" font-size="10" font-weight="700" x="806.4717" y="20.2822">Authenticator</text><rect fill="#EDFDEC" height="1265.9844" style="stroke:#181818;stroke-width:0.5;" width="147.7842" x="919.645" y="11"/><text fill="#000000" font-family="Helvetica" font-size="10" font-weight="700" x="931.645" y="20.2822">Anbieter TI 2.0 Dienst</text><rect fill="#FFF3E5" height="1249.3438" style="stroke:#181818;stroke-width:0.5;" width="147.7842" x="919.645" y="27.6406"/><text fill="#000000" font-family="Helvetica" font-size="10" font-weight="700" x="960.3926" y="36.9229">ZETA Guard</text><rect fill="#EAF2FF" height="1265.9844" style="stroke:#181818;stroke-width:0.5;" width="100.2109" x="1441.7197" y="11"/><text fill="#000000" font-family="Helvetica" font-size="10" font-weight="700" x="1453.7197" y="20.2822">TI-F&#246;deration</text><g><title>Nutzer</title><rect fill="#000000" fill-opacity="0.00000" height="1084.4219" width="8" x="45.126" y="114.9219"/><line style="stroke:#000000;stroke-width:0.5;stroke-dasharray:5,5;" x1="48.626" x2="48.626" y1="114.9219" y2="1199.3438"/></g><g><title/><rect fill="#FFFFFF" height="958.9375" style="stroke:#181818;stroke-width:1;" width="10" x="43.626" y="240.4063"/></g><g><title>ZETA Client</title><rect fill="#000000" fill-opacity="0.00000" height="1084.4219" width="8" x="348.7021" y="114.9219"/><line style="stroke:#000000;stroke-width:0.5;stroke-dasharray:5,5;" x1="352.2021" x2="352.2021" y1="114.9219" y2="1199.3438"/></g><g><title/><rect fill="#FFFFFF" height="831.0938" style="stroke:#181818;stroke-width:1;" width="10" x="347.2021" y="258.0469"/></g><g><title>Authenticator-Modul</title><rect fill="#000000" fill-opacity="0.00000" height="1084.4219" width="8" x="842.0342" y="114.9219"/><line style="stroke:#000000;stroke-width:0.5;stroke-dasharray:5,5;" x1="845.5342" x2="845.5342" y1="114.9219" y2="1199.3438"/></g><g><title>PDP</title><rect fill="#000000" fill-opacity="0.00000" height="1084.4219" width="8" x="990.0371" y="114.9219"/><line style="stroke:#000000;stroke-width:0.5;stroke-dasharray:5,5;" x1="993.5371" x2="993.5371" y1="114.9219" y2="1199.3438"/></g><g><title/><rect fill="#FFFFFF" height="598.0938" style="stroke:#181818;stroke-width:1;" width="10" x="988.5371" y="465.4063"/></g><g><title>Sektoraler IDP</title><rect fill="#000000" fill-opacity="0.00000" height="1084.4219" width="8" x="1488.3252" y="114.9219"/><line style="stroke:#000000;stroke-width:0.5;stroke-dasharray:5,5;" x1="1491.8252" x2="1491.8252" y1="114.9219" y2="1199.3438"/></g><g><title/><rect fill="#FFFFFF" height="25.6406" style="stroke:#181818;stroke-width:1;" width="10" x="1486.8252" y="522.6875"/></g><text fill="#000000" font-family="Helvetica" font-size="10" x="29" y="112.5635">Nutzer</text><ellipse cx="48.626" cy="51.7813" fill="#E2E2F0" rx="8" ry="8" style="stroke:#181818;stroke-width:0.5;"/><path d="M48.626,59.7813 L48.626,86.7813 M35.626,67.7813 L61.626,67.7813 M48.626,86.7813 L35.626,101.7813 M48.626,86.7813 L61.626,101.7813" fill="none" style="stroke:#181818;stroke-width:0.5;"/><rect fill="#FFE6CC" height="25.6406" rx="2.5" ry="2.5" style="stroke:#D79B00;stroke-width:0.5;" width="72.2471" x="316.0786" y="88.2813"/><text fill="#000000" font-family="Helvetica" font-size="10" x="323.0786" y="104.5635">ZETA Client</text><rect fill="#E2E2F0" height="37.2813" rx="2.5" ry="2.5" style="stroke:#181818;stroke-width:0.5;" width="116.2217" x="787.4233" y="76.6406"/><text fill="#000000" font-family="Helvetica" font-size="10" x="794.4233" y="92.9229">Authenticator-Modul</text><text fill="#000000" font-family="Helvetica" font-size="10" x="806.4668" y="104.5635">(sektoraler IDP)</text><rect fill="#FFE6CC" height="48.9219" rx="2.5" ry="2.5" style="stroke:#D79B00;stroke-width:0.5;" width="117.0322" x="935.021" y="65"/><text fill="#000000" font-family="Helvetica" font-size="10" x="983.6567" y="81.2822">PDP</text><text fill="#000000" font-family="Helvetica" font-size="10" x="942.0625" y="92.9229">Authorization Server</text><text fill="#000000" font-family="Helvetica" font-size="10" x="942.021" y="104.5635">(OIDC Relying Party)</text><rect fill="#E2E2F0" height="25.6406" rx="2.5" ry="2.5" style="stroke:#181818;stroke-width:0.5;" width="85.4697" x="1449.0903" y="88.2813"/><text fill="#000000" font-family="Helvetica" font-size="10" x="1456.0903" y="104.5635">Sektoraler IDP</text><text fill="#000000" font-family="Helvetica" font-size="10" x="29" y="1268.626">Nutzer</text><ellipse cx="48.626" cy="1207.8438" fill="#E2E2F0" rx="8" ry="8" style="stroke:#181818;stroke-width:0.5;"/><path d="M48.626,1215.8438 L48.626,1242.8438 M35.626,1223.8438 L61.626,1223.8438 M48.626,1242.8438 L35.626,1257.8438 M48.626,1242.8438 L61.626,1257.8438" fill="none" style="stroke:#181818;stroke-width:0.5;"/><rect fill="#FFE6CC" height="25.6406" rx="2.5" ry="2.5" style="stroke:#D79B00;stroke-width:0.5;" width="72.2471" x="316.0786" y="1199.3438"/><text fill="#000000" font-family="Helvetica" font-size="10" x="323.0786" y="1215.626">ZETA Client</text><rect fill="#E2E2F0" height="37.2813" rx="2.5" ry="2.5" style="stroke:#181818;stroke-width:0.5;" width="116.2217" x="787.4233" y="1199.3438"/><text fill="#000000" font-family="Helvetica" font-size="10" x="794.4233" y="1215.626">Authenticator-Modul</text><text fill="#000000" font-family="Helvetica" font-size="10" x="806.4668" y="1227.2666">(sektoraler IDP)</text><rect fill="#FFE6CC" height="48.9219" rx="2.5" ry="2.5" style="stroke:#D79B00;stroke-width:0.5;" width="117.0322" x="935.021" y="1199.3438"/><text fill="#000000" font-family="Helvetica" font-size="10" x="983.6567" y="1215.626">PDP</text><text fill="#000000" font-family="Helvetica" font-size="10" x="942.0625" y="1227.2666">Authorization Server</text><text fill="#000000" font-family="Helvetica" font-size="10" x="942.021" y="1238.9072">(OIDC Relying Party)</text><rect fill="#E2E2F0" height="25.6406" rx="2.5" ry="2.5" style="stroke:#181818;stroke-width:0.5;" width="85.4697" x="1449.0903" y="1199.3438"/><text fill="#000000" font-family="Helvetica" font-size="10" x="1456.0903" y="1215.626">Sektoraler IDP</text><path d="M13,126.9219 L488.5176,126.9219 L488.5176,130.5625 L478.5176,140.5625 L13,140.5625 L13,126.9219" fill="#EEEEEE" style="stroke:#000000;stroke-width:1.5;"/><rect fill="none" height="1048.4219" style="stroke:#000000;stroke-width:1.5;" width="1537.5601" x="13" y="126.9219"/><text fill="#000000" font-family="Helvetica" font-size="10" font-weight="700" x="28" y="137.2041">Account Recovery: Verlust des Ger&#228;ts (Neubindung eines Instanzschl&#252;ssels)</text><path d="M22.4456,155.5625 L22.4456,234.5625 L1517.4456,234.5625 L1517.4456,165.5625 L1507.4456,155.5625 L22.4456,155.5625" fill="#FEFFDD" style="stroke:#181818;stroke-width:0.5;"/><path d="M1507.4456,155.5625 L1507.4456,165.5625 L1517.4456,165.5625 L1507.4456,155.5625" fill="#FEFFDD" style="stroke:#181818;stroke-width:0.5;"/><text fill="#000000" font-family="Helvetica" font-size="10" x="512.3052" y="169.8447">Der Nutzer hat den Zugriff auf sein altes registriertes Ger&#228;t verloren und bindet mit dem</text><text fill="#000000" font-family="Helvetica" font-size="10" x="512.3052" y="181.4854">zuvor erhaltenen recovery_code (&#252;berlebender Faktor F3) einen neuen Instanzschl&#252;ssel auf</text><text fill="#000000" font-family="Helvetica" font-size="10" x="512.3052" y="193.126">dem Ersatzger&#228;t an seinen bestehenden Nutzer-Account.</text><text fill="#000000" font-family="Helvetica" font-size="10" x="512.3052" y="204.7666">Recovery erfordert gem&#228;&#223; A_29928 BEIDES: eine IDP-(Step-up-)Authentisierung UND mindestens</text><text fill="#000000" font-family="Helvetica" font-size="10" x="512.3052" y="216.4072">einen &#252;berlebenden Faktor aus {F1, F2, F3}. Hier ist der &#252;berlebende Faktor der recovery_code (F3).</text><text fill="#000000" font-family="Helvetica" font-size="10" x="512.3052" y="228.0479">Die identit&#228;tsgebundene E-Mail-Adresse (F1) wird bei der Recovery NICHT ver&#228;ndert (A_29931).</text><polygon fill="#181818" points="335.2021,254.0469,345.2021,258.0469,335.2021,262.0469,339.2021,258.0469" style="stroke:#181818;stroke-width:1;stroke-linejoin:miter;stroke-miterlimit:10;"/><line style="stroke:#181818;stroke-width:1;" x1="53.626" x2="341.2021" y1="258.0469" y2="258.0469"/><text fill="#000000" font-family="Helvetica" font-size="10" x="60.626" y="253.6885">(01)</text><text fill="#000000" font-family="Helvetica" font-size="10" x="85.1533" y="253.6885">Startet Wiederherstellung, gibt recovery_code ein</text><line style="stroke:#181818;stroke-width:1;" x1="357.2021" x2="399.2021" y1="295.3281" y2="295.3281"/><line style="stroke:#181818;stroke-width:1;" x1="399.2021" x2="399.2021" y1="295.3281" y2="308.3281"/><line style="stroke:#181818;stroke-width:1;" x1="358.2021" x2="399.2021" y1="308.3281" y2="308.3281"/><polygon fill="#181818" points="368.2021,304.3281,358.2021,308.3281,368.2021,312.3281,364.2021,308.3281" style="stroke:#181818;stroke-width:1;stroke-linejoin:miter;stroke-miterlimit:10;"/><text fill="#000000" font-family="Helvetica" font-size="10" x="364.2021" y="285.1494">(02)</text><text fill="#000000" font-family="Helvetica" font-size="10" x="388.7295" y="279.3291">Erzeuge/lade Instanzschl&#252;ssel (PrK/PuK.Client.Sig)</text><text fill="#000000" font-family="Helvetica" font-size="10" x="388.7295" y="290.9697">und Hardware-Attestation des Ersatzger&#228;ts (Apple/Android/TPM, wie beim normalen DCR)</text><rect fill="#FFFFFF" height="65.875" style="stroke:#000000;stroke-width:1.5;" width="1501.5601" x="31" y="316.3281"/><path d="M31,316.3281 L95,316.3281 L95,321.3281 L85,331.3281 L31,331.3281 L31,316.3281" fill="#EEEEEE" style="stroke:#000000;stroke-width:2;"/><text fill="#000000" font-family="Helvetica" font-size="12" font-weight="700" x="44" y="329.4668">ref</text><text fill="#000000" font-family="Helvetica" font-size="12" font-weight="700" x="621.4089" y="346.4668">IDP-(Step-up-)Authentisierung</text><text fill="#000000" font-family="Helvetica" font-size="12" x="832.2234" y="346.4668">am sektoralen IDP</text><text fill="#000000" font-family="Helvetica" font-size="12" x="617.4802" y="360.4355">(Abb-ZETA-OIDC-Nutzerauthentisierung, eGK/PIN o. &#228;.)</text><text fill="#000000" font-family="Helvetica" font-size="12" x="569.0847" y="374.4043">Ergebnis: AUTHORIZATION_CODE (IDP) f&#252;r den AuthS als Relying Party</text><polygon fill="#181818" points="368.2021,400.8438,358.2021,404.8438,368.2021,408.8438,364.2021,404.8438" style="stroke:#181818;stroke-width:1;stroke-linejoin:miter;stroke-miterlimit:10;"/><line style="stroke:#181818;stroke-width:1;" x1="362.2021" x2="844.5342" y1="404.8438" y2="404.8438"/><text fill="#000000" font-family="Helvetica" font-size="10" x="374.2021" y="400.4854">(03)</text><text fill="#000000" font-family="Helvetica" font-size="10" x="398.7295" y="400.4854">App-Link / Universal-Link {code=AUTH_CODE_IDP}</text><polygon fill="#181818" points="976.5371,461.4063,986.5371,465.4063,976.5371,469.4063,980.5371,465.4063" style="stroke:#181818;stroke-width:1;stroke-linejoin:miter;stroke-miterlimit:10;"/><line style="stroke:#181818;stroke-width:1;" x1="357.2021" x2="982.5371" y1="465.4063" y2="465.4063"/><text fill="#000000" font-family="Helvetica" font-size="10" x="364.2021" y="443.5869">(04)</text><text fill="#000000" font-family="Helvetica" font-size="10" x="388.7295" y="426.126">POST /zeta/recover</text><text fill="#000000" font-family="Helvetica" font-size="10" x="388.7295" y="437.7666">{attestation_type, &lt;Hardware-Attestation des Ersatzger&#228;ts&gt;,</text><text fill="#000000" font-family="Helvetica" font-size="10" x="388.7295" y="449.4072">PuK.Client.Sig, signed_hash_puk_client_sig, recovery_code,</text><text fill="#000000" font-family="Helvetica" font-size="10" x="388.7295" y="461.0479">code=AUTH_CODE_IDP}</text><path d="M1003.5371,478.4063 L1003.5371,499.4063 L1474.5371,499.4063 L1474.5371,488.4063 L1464.5371,478.4063 L1003.5371,478.4063" fill="#FEFFDD" style="stroke:#181818;stroke-width:0.5;"/><path d="M1464.5371,478.4063 L1464.5371,488.4063 L1474.5371,488.4063 L1464.5371,478.4063" fill="#FEFFDD" style="stroke:#181818;stroke-width:0.5;"/><text fill="#000000" font-family="Helvetica" font-size="10" x="1009.5371" y="492.6885">Kein user_email-Parameter: Die Recovery &#228;ndert die E-Mail-Bindung (F1) nicht (A_29931).</text><polygon fill="#181818" points="1474.8252,518.6875,1484.8252,522.6875,1474.8252,526.6875,1478.8252,522.6875" style="stroke:#181818;stroke-width:1;stroke-linejoin:miter;stroke-miterlimit:10;"/><line style="stroke:#181818;stroke-width:1;" x1="998.5371" x2="1480.8252" y1="522.6875" y2="522.6875"/><text fill="#000000" font-family="Helvetica" font-size="10" x="1005.5371" y="518.3291">(05)</text><text fill="#000000" font-family="Helvetica" font-size="10" x="1030.0645" y="518.3291">Token-Bezug (OIDC Code Flow) f&#252;r AUTHORIZATION_CODE (IDP)</text><polygon fill="#181818" points="1009.5371,544.3281,999.5371,548.3281,1009.5371,552.3281,1005.5371,548.3281" style="stroke:#181818;stroke-width:1;stroke-linejoin:miter;stroke-miterlimit:10;"/><line style="stroke:#181818;stroke-width:1;stroke-dasharray:2,2;" x1="1003.5371" x2="1485.8252" y1="548.3281" y2="548.3281"/><text fill="#000000" font-family="Helvetica" font-size="10" x="1015.5371" y="543.9697">(06)</text><text fill="#000000" font-family="Helvetica" font-size="10" x="1040.0645" y="543.9697">id_token (Identit&#228;t + acr/amr)</text><line style="stroke:#181818;stroke-width:1;" x1="998.5371" x2="1040.5371" y1="597.25" y2="597.25"/><line style="stroke:#181818;stroke-width:1;" x1="1040.5371" x2="1040.5371" y1="597.25" y2="610.25"/><line style="stroke:#181818;stroke-width:1;" x1="999.5371" x2="1040.5371" y1="610.25" y2="610.25"/><polygon fill="#181818" points="1009.5371,606.25,999.5371,610.25,1009.5371,614.25,1005.5371,610.25" style="stroke:#181818;stroke-width:1;stroke-linejoin:miter;stroke-miterlimit:10;"/><text fill="#000000" font-family="Helvetica" font-size="10" x="1005.5371" y="581.251">(07)</text><text fill="#000000" font-family="Helvetica" font-size="10" x="1030.0645" y="569.6104">Validiere IDP-(Step-up-)Authentisierung:</text><text fill="#000000" font-family="Helvetica" font-size="10" x="1030.0645" y="581.251">id_token-Signatur, acr erreicht gefordertes Niveau,</text><text fill="#000000" font-family="Helvetica" font-size="10" x="1030.0645" y="592.8916">Identit&#228;t == bestehender Nutzer-Account</text><line style="stroke:#181818;stroke-width:1;" x1="998.5371" x2="1040.5371" y1="635.8906" y2="635.8906"/><line style="stroke:#181818;stroke-width:1;" x1="1040.5371" x2="1040.5371" y1="635.8906" y2="648.8906"/><line style="stroke:#181818;stroke-width:1;" x1="999.5371" x2="1040.5371" y1="648.8906" y2="648.8906"/><polygon fill="#181818" points="1009.5371,644.8906,999.5371,648.8906,1009.5371,652.8906,1005.5371,648.8906" style="stroke:#181818;stroke-width:1;stroke-linejoin:miter;stroke-miterlimit:10;"/><text fill="#000000" font-family="Helvetica" font-size="10" x="1005.5371" y="631.5322">(08)</text><text fill="#000000" font-family="Helvetica" font-size="10" x="1030.0645" y="631.5322">Validiere Hardware-Attestation des Ersatzger&#228;ts (wie beim normalen DCR-Flow)</text><line style="stroke:#181818;stroke-width:1;" x1="998.5371" x2="1040.5371" y1="674.5313" y2="674.5313"/><line style="stroke:#181818;stroke-width:1;" x1="1040.5371" x2="1040.5371" y1="674.5313" y2="687.5313"/><line style="stroke:#181818;stroke-width:1;" x1="999.5371" x2="1040.5371" y1="687.5313" y2="687.5313"/><polygon fill="#181818" points="1009.5371,683.5313,999.5371,687.5313,1009.5371,691.5313,1005.5371,687.5313" style="stroke:#181818;stroke-width:1;stroke-linejoin:miter;stroke-miterlimit:10;"/><text fill="#000000" font-family="Helvetica" font-size="10" x="1005.5371" y="670.1729">(09)</text><text fill="#000000" font-family="Helvetica" font-size="10" x="1030.0645" y="670.1729">Pr&#252;fe signed_hash_puk_client_sig mit PuK.Client.Sig</text><line style="stroke:#181818;stroke-width:1;" x1="998.5371" x2="1040.5371" y1="713.1719" y2="713.1719"/><line style="stroke:#181818;stroke-width:1;" x1="1040.5371" x2="1040.5371" y1="713.1719" y2="726.1719"/><line style="stroke:#181818;stroke-width:1;" x1="999.5371" x2="1040.5371" y1="726.1719" y2="726.1719"/><polygon fill="#181818" points="1009.5371,722.1719,999.5371,726.1719,1009.5371,730.1719,1005.5371,726.1719" style="stroke:#181818;stroke-width:1;stroke-linejoin:miter;stroke-miterlimit:10;"/><text fill="#000000" font-family="Helvetica" font-size="10" x="1005.5371" y="708.8135">(10)</text><text fill="#000000" font-family="Helvetica" font-size="10" x="1030.0645" y="708.8135">Verifiziere recovery_code (F3) gegen gespeicherten salted Hash</text><path d="M1003.5371,739.1719 L1003.5371,783.1719 L1461.5371,783.1719 L1461.5371,749.1719 L1451.5371,739.1719 L1003.5371,739.1719" fill="#FEFFDD" style="stroke:#181818;stroke-width:0.5;"/><path d="M1451.5371,739.1719 L1451.5371,749.1719 L1461.5371,749.1719 L1451.5371,739.1719" fill="#FEFFDD" style="stroke:#181818;stroke-width:0.5;"/><text fill="#000000" font-family="Helvetica" font-size="10" x="1009.5371" y="753.4541">Brute-Force-Schutz (A_29930): Ratenbegrenzung je Identit&#228;t/Quelle, ansteigender</text><text fill="#000000" font-family="Helvetica" font-size="10" x="1009.5371" y="765.0947">Backoff/Lockout nach mehreren Fehlversuchen, Protokollierung. F3 ist bei</text><text fill="#000000" font-family="Helvetica" font-size="10" x="1009.5371" y="776.7354">kompromittiertem IDP die letzte Barriere und DARF NICHT unbegrenzt geraten werden.</text><line style="stroke:#181818;stroke-width:1;" x1="998.5371" x2="1040.5371" y1="818.375" y2="818.375"/><line style="stroke:#181818;stroke-width:1;" x1="1040.5371" x2="1040.5371" y1="818.375" y2="831.375"/><line style="stroke:#181818;stroke-width:1;" x1="999.5371" x2="1040.5371" y1="831.375" y2="831.375"/><polygon fill="#181818" points="1009.5371,827.375,999.5371,831.375,1009.5371,835.375,1005.5371,831.375" style="stroke:#181818;stroke-width:1;stroke-linejoin:miter;stroke-miterlimit:10;"/><text fill="#000000" font-family="Helvetica" font-size="10" x="1005.5371" y="808.1963">(11)</text><text fill="#000000" font-family="Helvetica" font-size="10" x="1030.0645" y="802.376">Recovery-Schwellwert erf&#252;llt (A_29928):</text><text fill="#000000" font-family="Helvetica" font-size="10" x="1030.0645" y="814.0166">IDP-Step-up UND &#252;berlebender Faktor F3 nachgewiesen</text><line style="stroke:#181818;stroke-width:1;" x1="998.5371" x2="1040.5371" y1="868.6563" y2="868.6563"/><line style="stroke:#181818;stroke-width:1;" x1="1040.5371" x2="1040.5371" y1="868.6563" y2="881.6563"/><line style="stroke:#181818;stroke-width:1;" x1="999.5371" x2="1040.5371" y1="881.6563" y2="881.6563"/><polygon fill="#181818" points="1009.5371,877.6563,999.5371,881.6563,1009.5371,885.6563,1005.5371,881.6563" style="stroke:#181818;stroke-width:1;stroke-linejoin:miter;stroke-miterlimit:10;"/><text fill="#000000" font-family="Helvetica" font-size="10" x="1005.5371" y="858.4775">(12)</text><text fill="#000000" font-family="Helvetica" font-size="10" x="1030.0645" y="852.6572">Binde NEUEN Instanzschl&#252;ssel (PuK.Client.Sig) an bestehenden Nutzer-Account (A_29931).</text><text fill="#000000" font-family="Helvetica" font-size="10" x="1030.0645" y="864.2979">E-Mail-Bindung (F1) bleibt unver&#228;ndert.</text><line style="stroke:#181818;stroke-width:1;" x1="998.5371" x2="1040.5371" y1="907.2969" y2="907.2969"/><line style="stroke:#181818;stroke-width:1;" x1="1040.5371" x2="1040.5371" y1="907.2969" y2="920.2969"/><line style="stroke:#181818;stroke-width:1;" x1="999.5371" x2="1040.5371" y1="920.2969" y2="920.2969"/><polygon fill="#181818" points="1009.5371,916.2969,999.5371,920.2969,1009.5371,924.2969,1005.5371,920.2969" style="stroke:#181818;stroke-width:1;stroke-linejoin:miter;stroke-miterlimit:10;"/><text fill="#000000" font-family="Helvetica" font-size="10" x="1005.5371" y="902.9385">(13)</text><text fill="#000000" font-family="Helvetica" font-size="10" x="1030.0645" y="902.9385">Invalidiere verwendeten recovery_code unmittelbar (A_29929)</text><path d="M32.626,932.2969 L96.4346,932.2969 L96.4346,935.9375 L86.4346,945.9375 L32.626,945.9375 L32.626,932.2969" fill="#EEEEEE" style="stroke:#000000;stroke-width:1.5;"/><rect fill="none" height="99.5625" style="stroke:#000000;stroke-width:1.5;" width="1354.6719" x="32.626" y="932.2969"/><text fill="#000000" font-family="Helvetica" font-size="10" font-weight="700" x="47.626" y="942.5791">opt</text><text fill="#000000" font-family="Helvetica" font-size="10" font-weight="700" x="111.4346" y="943.5791">[Neuen Recovery-Codesatz ausgeben (A_29929 KANN)]</text><line style="stroke:#181818;stroke-width:1;" x1="998.5371" x2="1040.5371" y1="985.2188" y2="985.2188"/><line style="stroke:#181818;stroke-width:1;" x1="1040.5371" x2="1040.5371" y1="985.2188" y2="998.2188"/><line style="stroke:#181818;stroke-width:1;" x1="999.5371" x2="1040.5371" y1="998.2188" y2="998.2188"/><polygon fill="#181818" points="1009.5371,994.2188,999.5371,998.2188,1009.5371,1002.2188,1005.5371,998.2188" style="stroke:#181818;stroke-width:1;stroke-linejoin:miter;stroke-miterlimit:10;"/><text fill="#000000" font-family="Helvetica" font-size="10" x="1005.5371" y="975.04">(14)</text><text fill="#000000" font-family="Helvetica" font-size="10" x="1030.0645" y="969.2197">Generiere neuen Codesatz (&gt;=128 Bit Gesamtentropie, A_29932),</text><text fill="#000000" font-family="Helvetica" font-size="10" x="1030.0645" y="980.8604">speichere nur salted Hash</text><polygon fill="#181818" points="64.626,1019.8594,54.626,1023.8594,64.626,1027.8594,60.626,1023.8594" style="stroke:#181818;stroke-width:1;stroke-linejoin:miter;stroke-miterlimit:10;"/><line style="stroke:#181818;stroke-width:1;stroke-dasharray:2,2;" x1="58.626" x2="987.5371" y1="1023.8594" y2="1023.8594"/><text fill="#000000" font-family="Helvetica" font-size="10" x="70.626" y="1019.501">(15)</text><text fill="#000000" font-family="Helvetica" font-size="10" x="95.1533" y="1019.501">neuer recovery_code-Satz (Out-of-Band, einmalige Anzeige)</text><polygon fill="#181818" points="368.2021,1059.5,358.2021,1063.5,368.2021,1067.5,364.2021,1063.5" style="stroke:#181818;stroke-width:1;stroke-linejoin:miter;stroke-miterlimit:10;"/><line style="stroke:#181818;stroke-width:1;stroke-dasharray:2,2;" x1="362.2021" x2="987.5371" y1="1063.5" y2="1063.5"/><text fill="#000000" font-family="Helvetica" font-size="10" x="374.2021" y="1059.1416">(16)</text><text fill="#000000" font-family="Helvetica" font-size="10" x="398.7295" y="1059.1416">201 Created {client_id}</text><polygon fill="#181818" points="64.626,1085.1406,54.626,1089.1406,64.626,1093.1406,60.626,1089.1406" style="stroke:#181818;stroke-width:1;stroke-linejoin:miter;stroke-miterlimit:10;"/><line style="stroke:#181818;stroke-width:1;stroke-dasharray:2,2;" x1="58.626" x2="346.2021" y1="1089.1406" y2="1089.1406"/><text fill="#000000" font-family="Helvetica" font-size="10" x="70.626" y="1084.7822">(17)</text><text fill="#000000" font-family="Helvetica" font-size="10" x="95.1533" y="1084.7822">Wiederherstellung abgeschlossen</text><path d="M14.5549,1102.1406 L14.5549,1170.1406 L1027.5549,1170.1406 L1027.5549,1112.1406 L1017.5549,1102.1406 L14.5549,1102.1406" fill="#FEFFDD" style="stroke:#181818;stroke-width:0.5;"/><path d="M1017.5549,1102.1406 L1017.5549,1112.1406 L1027.5549,1112.1406 L1017.5549,1102.1406" fill="#FEFFDD" style="stroke:#181818;stroke-width:0.5;"/><text fill="#000000" font-family="Helvetica" font-size="10" x="284.3745" y="1116.4229">Hat der Nutzer zus&#228;tzlich den Zugriff auf die gebundene E-Mail (F1) verloren, erfolgt die</text><text fill="#000000" font-family="Helvetica" font-size="10" x="284.3745" y="1128.0635">E-Mail-&#196;nderung SEPARAT nach der Recovery vom nun wiederhergestellten Ger&#228;t &#252;ber den</text><text fill="#000000" font-family="Helvetica" font-size="10" x="284.3745" y="1139.7041">Prozess A_29911 (POST /zeta/identity/email), der seinerseits Step-up + &#252;berlebenden Faktor</text><text fill="#000000" font-family="Helvetica" font-size="10" x="284.3745" y="1151.3447">verlangt. Empfehlung A_29933: Bei noch vorhandenem Bestandsger&#228;t zuerst dort die E-Mail</text><text fill="#000000" font-family="Helvetica" font-size="10" x="284.3745" y="1162.9854">&#228;ndern (A_29911) und erst danach das Ersatzger&#228;t registrieren.</text><?plantuml-src ZLVDSjhA4jxp57qvYmCnWa0s9rJiAjc0JIK6Bk2SEYbNKGCqOgx5Y1hDsCUaiZllSJTvXhloZXUxtIE9820_2nkGDFtpzVTrj_ubrIoqSuHgjRQsgz0BnNDaJTNyRGe5CJEHXhiODOWOYZrhDgYBXS8q-XkABNoKCuHIMyV2R0BKsw-cN8HM-sFtgZsvwd_e3mi0xb5_lIx2ODYzzTl3qL-ZSVjsTnzWBRIHCxaMoi1LA94-sDcdzjXFVnVXtRiD6d5nGGTGpTbe8VjCWl6jMTAJSYOeuY9yQ7V9m-sWtsltnZjV-vxyM-SbTywxZUOsl5Ub61_efmWfxsvhK2uUEbDJYOPkZhlGgBw65WKP6ywm_x7RQW_poRj4hgtGyoBmzydrdJziVGS0ZcVa8Xkq1lUAVqPQReIHaO8HwaVK55-_sxg28ORFKWKmeEFFvL_0QDprEjl_pL4xQqNuhUrt6ftE0J2KiFC_oc6m1q4Xq95TWp-RHPQU7-8iegYUc_0HTMXZ0tECuThH8OPI3-rKghcbG54gkjCbg8JQnBDbk7s9OmpZiaD1HGQ1BJc-LTYfkmxGeci9zM0fsBo2JpRGSh40OHSGarqGeI7R6WCP6orHcrqCG2R3IDCXonbGB6XW9TdEAdMmiOz4SzHBjgBeIPtcD9b5f8pIzcLADd1A450C7S70GETDsMMaGA6b_qTvSN2f0t85-p81eLpOT6oAiS4bMrPfabwAR3Kzd05C0IuYJH4O272r_RhzB_YJnjktZJ_Wiasq6pLTF0oSLnePN7jsxPKpWiS42XVXhjUYxCaTkLLnwY89PJzDbQKfR0oVE_KAT1hqz-PB5Mx84aXNPvqxantXwmS84bXPEYGMa7CEoJ130fnQzeVGzcw533r_hf7WepFrCZn9JJL3wMpkWEXrhsx6NDVjL-NmA3aWtjHJ9qnLfbF1_M8wdPtjle9taRQLixCcZ0nHdmZnfqIoj4HDi8GX0LM1G4xDGHw4axEJjgcTfIPLTuCsm5eewB5ZAfG6-drjODzNa-Uh8ncKxnKJyeRwmfFGwFc6E6iIeRE2zlb2Eg8M6cBDLtCToNbjFBYj43Z8sAmeLxqYeIfeNGtBITA_moNEgJjmoUkkY2bNcZ_cXpkiSN5QYQzU_V3mgrSWLh1hdchlPCcVJZtkVXxtBYzXkiWVhm1U4qhT7aHLs7wjbjEpRKqaKJ9kWdytlkaFkv_ySRVVemxQQaE96pGijY_QDOQqVuPnlZtkQ46fkU_K_lUgH-1w7wHwW1hSAKcPno9CBdpckf-pN-TkGjw-72FSo2Dyib-G1k0ypwVo0PbSyCpAGNyqXXgtyrfwu5vz5jy8CZ7FQwp0kryZpqNbNkMvLu5O1WhdawM8bvErVPZCtBr9pFToCTBPKn3iEhQMmT90j4Y2Jolsdbko9V9CSCMQfXg85K_CffF_JiYPVkTo9__BT5Wu-IivM_v4tKd12JmAYw4RHm-el4lSMBBXvkGLAxSJHayfJRv78cUEfv-NbSBpcjIg9ePDqZExfWLd86Qw9bQwd8_1VQ51A499AUcVzEBclSgiUrGK9OmbjP5bwlGQNUe1fYsVQjeZOWfBzTWBvFnyRu3eWm7oazX-jVESR3EU0_IaXu7UlYpm1mnpqpTFoDEX8irukN717iyJmYQWM0ACrumLOqH3bISuDzLuMVW9Ho-rDUXr8Zr3RpHR4d8PqLwNcp0KP6wA0UqD6wRZVwYMEzXh_xOq94Y0WXezoi21dvaLiuTeiQXzYEZJ6b1YjeGLBZNo2jB1PSZjnLB0ga9GHLJ-A0mJGbHfmBh9Id2dvXwYrLf719XnIytA4PJb4gBPK6gNGci74C-IbZ_ifCFHPi4pXpGd0qz8J58_r50AVAPFnkM9CdrYZTBsiNq9mqoEZJ_An5_cTqfljrbyPrDoA0H8J8fHdNJ9iaVejU_QlPFZCpywUN_w_kAqrp3krQcsCWsHPxjLtrQ8wicekkfn9nTwzeczcQFzq2gk3uPJeJDmtgPZE5eRwBdrS8SfjoFM5u-CW97QdO7tVg-N3RtZOAvfIKfgdIoSEqEbY_CwBu6agckwig88ZOxMaWYQ0D4eKzV8P4B7hSu9vS0XUUIvttHk3ZOvR-GSzgtneeLtATIymaiHjGLI0VXgmseePnJBiMitRhchDbxNuKgZu1W-fvr1ph_avc4Q1pz-j9s1c9BmYI1Hp8mw-GAnB_ORaQohwMl4niOauqr8W1ozJh2u3fVIX3RPYqJ5RU9XuEPMjgCaDDl-mspY04VjWJ_qnud-SzlhOqIjr2fUtvAa0dHfCR7ILnOd8uuijKvzOaDBSLBEUftqy6r1I7VfvveRjUMAS-PUBZJzfmQUwVFiv8AVUk3SX0fC5TghzOAw5EUGiESDgPCsS1LH8lIUj1GEcHLTP9dEu_ILPcEvF32FSlCyDP-eBADwdS3aVfKS40b48ZzuzjxbZfeMK-l_?></g></svg>