<svg xmlns="http://www.w3.org/2000/svg" xmlns:xlink="http://www.w3.org/1999/xlink" contentStyleType="text/css" data-diagram-type="SEQUENCE" height="1051px" preserveAspectRatio="none" style="width:804px;height:1051px;background:#FFFFFF;" version="1.1" viewBox="0 0 804 1051" width="804px" zoomAndPan="magnify"><?plantuml 1.2026.6?><defs/><g><rect fill="#FEFCFF" height="1025.625" style="stroke:#181818;stroke-width:0.5;" width="606.5352" x="35" y="11"/><text fill="#000000" font-family="Helvetica" font-size="10" font-weight="700" x="319.3979" y="20.2822">Device</text><rect fill="#E6E6FA" height="1008.9844" style="stroke:#181818;stroke-width:0.5;" width="80.2471" x="561.2881" y="27.6406"/><text fill="#000000" font-family="Helvetica" font-size="10" font-weight="700" x="590.3838" y="36.9229">App</text><g><title>Secure Enclave</title><rect fill="#000000" fill-opacity="0.00000" height="934.0625" width="8" x="80.9546" y="69.9219"/><line style="stroke:#000000;stroke-width:0.5;stroke-dasharray:5,5;" x1="84.4546" x2="84.4546" y1="69.9219" y2="1003.9844"/></g><g><title/><rect fill="#FFFFFF" height="25.6406" style="stroke:#181818;stroke-width:1;" width="10" x="79.4546" y="282.0469"/></g><g><title/><rect fill="#FFFFFF" height="25.6406" style="stroke:#181818;stroke-width:1;" width="10" x="79.4546" y="467.5313"/></g><g><title/><rect fill="#FFFFFF" height="25.6406" style="stroke:#181818;stroke-width:1;" width="10" x="79.4546" y="632.0156"/></g><g><title/><rect fill="#FFFFFF" height="25.6406" style="stroke:#181818;stroke-width:1;" width="10" x="79.4546" y="840.7813"/></g><g><title>AppleOS .macOS. iOS. iPadOS.</title><rect fill="#000000" fill-opacity="0.00000" height="934.0625" width="8" x="306.9038" y="69.9219"/><line style="stroke:#000000;stroke-width:0.5;stroke-dasharray:5,5;" x1="310.4038" x2="310.4038" y1="69.9219" y2="1003.9844"/></g><g><title/><rect fill="#FFFFFF" height="926.0625" style="stroke:#181818;stroke-width:1;" width="10" x="305.4038" y="77.9219"/></g><g><title>ZETA Client</title><rect fill="#000000" fill-opacity="0.00000" height="934.0625" width="8" x="597.9116" y="69.9219"/><line style="stroke:#000000;stroke-width:0.5;stroke-dasharray:5,5;" x1="601.4116" x2="601.4116" y1="69.9219" y2="1003.9844"/></g><g><title/><rect fill="#FFFFFF" height="926.0625" style="stroke:#181818;stroke-width:1;" width="10" x="596.4116" y="77.9219"/></g><rect fill="#E4E4F4" height="25.6406" rx="2.5" ry="2.5" style="stroke:#181818;stroke-width:0.5;" width="90.9092" x="39" y="43.2813"/><text fill="#000000" font-family="Helvetica" font-size="10" x="46" y="59.5635">Secure Enclave</text><rect fill="#E4E4F4" height="25.6406" rx="2.5" ry="2.5" style="stroke:#181818;stroke-width:0.5;" width="168.4678" x="226.1699" y="43.2813"/><text fill="#000000" font-family="Helvetica" font-size="10" x="233.1699" y="59.5635">AppleOS (macOS, iOS, iPadOS)</text><rect fill="#FFE6CC" height="25.6406" rx="2.5" ry="2.5" style="stroke:#D79B00;stroke-width:0.5;" width="72.2471" x="565.2881" y="43.2813"/><text fill="#000000" font-family="Helvetica" font-size="10" x="572.2881" y="59.5635">ZETA Client</text><rect fill="#E4E4F4" height="25.6406" rx="2.5" ry="2.5" style="stroke:#181818;stroke-width:0.5;" width="90.9092" x="39" y="1003.9844"/><text fill="#000000" font-family="Helvetica" font-size="10" x="46" y="1020.2666">Secure Enclave</text><rect fill="#E4E4F4" height="25.6406" rx="2.5" ry="2.5" style="stroke:#181818;stroke-width:0.5;" width="168.4678" x="226.1699" y="1003.9844"/><text fill="#000000" font-family="Helvetica" font-size="10" x="233.1699" y="1020.2666">AppleOS (macOS, iOS, iPadOS)</text><rect fill="#FFE6CC" height="25.6406" rx="2.5" ry="2.5" style="stroke:#D79B00;stroke-width:0.5;" width="72.2471" x="565.2881" y="1003.9844"/><text fill="#000000" font-family="Helvetica" font-size="10" x="572.2881" y="1020.2666">ZETA Client</text><line style="stroke:#181818;stroke-width:1;stroke-dasharray:2,2;" x1="606.4116" x2="648.4116" y1="95.5625" y2="95.5625"/><line style="stroke:#181818;stroke-width:1;stroke-dasharray:2,2;" x1="648.4116" x2="648.4116" y1="95.5625" y2="108.5625"/><line style="stroke:#181818;stroke-width:1;stroke-dasharray:2,2;" x1="607.4116" x2="648.4116" y1="108.5625" y2="108.5625"/><polygon fill="#181818" points="617.4116,104.5625,607.4116,108.5625,617.4116,112.5625,613.4116,108.5625" style="stroke:#181818;stroke-width:1;stroke-linejoin:miter;stroke-miterlimit:10;"/><text fill="#000000" font-family="Helvetica" font-size="10" x="613.4116" y="91.2041">(01)</text><text fill="#000000" font-family="Helvetica" font-size="10" x="637.939" y="91.2041">Installation (User Space)</text><path d="M13,120.5625 L72.9561,120.5625 L72.9561,124.2031 L62.9561,134.2031 L13,134.2031 L13,120.5625" fill="#EEEEEE" style="stroke:#000000;stroke-width:1.5;"/><rect fill="none" height="859.4219" style="stroke:#000000;stroke-width:1.5;" width="771.4741" x="13" y="120.5625"/><text fill="#000000" font-family="Helvetica" font-size="10" font-weight="700" x="28" y="130.8447">alt</text><text fill="#000000" font-family="Helvetica" font-size="10" font-weight="700" x="87.9561" y="131.8447">[Secure Enclave]</text><line style="stroke:#000000;stroke-width:1;stroke-dasharray:2,2;" x1="13" x2="784.4741" y1="911.0625" y2="911.0625"/><text fill="#000000" font-family="Helvetica" font-size="10" font-weight="700" x="18" y="922.3447">[Fallback]</text><rect fill="#EEEEEE" height="3" style="stroke:#EEEEEE;stroke-width:1;" width="783.4741" x="10" y="163.0234"/><line style="stroke:#000000;stroke-width:1;" x1="10" x2="793.4741" y1="163.0234" y2="163.0234"/><line style="stroke:#000000;stroke-width:1;" x1="10" x2="793.4741" y1="166.0234" y2="166.0234"/><rect fill="#EEEEEE" height="19.6406" style="stroke:#000000;stroke-width:2;" width="331.2705" x="236.1018" y="154.2031"/><text fill="#000000" font-family="Helvetica" font-size="10" font-weight="700" x="242.1018" y="167.4854">Client Instance Key Pair (PrK.Client.Sig; PuK.Client.Sig)</text><polygon fill="#181818" points="326.4038,209.125,316.4038,213.125,326.4038,217.125,322.4038,213.125" style="stroke:#181818;stroke-width:1;stroke-linejoin:miter;stroke-miterlimit:10;"/><line style="stroke:#181818;stroke-width:1;" x1="320.4038" x2="595.4116" y1="213.125" y2="213.125"/><text fill="#000000" font-family="Helvetica" font-size="10" x="332.4038" y="202.9463">(02)</text><text fill="#000000" font-family="Helvetica" font-size="10" x="356.9312" y="197.126">SecKeyCreateRandomKey</text><text fill="#000000" font-family="Helvetica" font-size="10" x="356.9312" y="208.7666">(f&#252;r PrK.Client.Sig, PuK.Client.Sig in SE)</text><path d="M388.0288,226.125 L388.0288,259.125 L596.0288,259.125 L596.0288,236.125 L586.0288,226.125 L388.0288,226.125" fill="#FEFFDD" style="stroke:#181818;stroke-width:0.5;"/><path d="M586.0288,226.125 L586.0288,236.125 L596.0288,236.125 L586.0288,226.125" fill="#FEFFDD" style="stroke:#181818;stroke-width:0.5;"/><text fill="#000000" font-family="Helvetica" font-size="10" x="394.0288" y="240.4072">Generierung des prim&#228;ren Schl&#252;ssels</text><text fill="#000000" font-family="Helvetica" font-size="10" x="394.0288" y="252.0479">f&#252;r Client Assertions.</text><polygon fill="#181818" points="100.4546,278.0469,90.4546,282.0469,100.4546,286.0469,96.4546,282.0469" style="stroke:#181818;stroke-width:1;stroke-linejoin:miter;stroke-miterlimit:10;"/><line style="stroke:#181818;stroke-width:1;" x1="94.4546" x2="304.4038" y1="282.0469" y2="282.0469"/><text fill="#000000" font-family="Helvetica" font-size="10" x="106.4546" y="277.6885">(03)</text><text fill="#000000" font-family="Helvetica" font-size="10" x="130.9819" y="277.6885">Generiere Schl&#252;ssel (Client.Sig)</text><polygon fill="#181818" points="293.4038,303.6875,303.4038,307.6875,293.4038,311.6875,297.4038,307.6875" style="stroke:#181818;stroke-width:1;stroke-linejoin:miter;stroke-miterlimit:10;"/><line style="stroke:#181818;stroke-width:1;stroke-dasharray:2,2;" x1="89.4546" x2="299.4038" y1="307.6875" y2="307.6875"/><text fill="#000000" font-family="Helvetica" font-size="10" x="96.4546" y="303.3291">(04)</text><text fill="#000000" font-family="Helvetica" font-size="10" x="120.9819" y="303.3291">keyId (Referenz f&#252;r PrK.Client.Sig)</text><polygon fill="#181818" points="584.4116,329.3281,594.4116,333.3281,584.4116,337.3281,588.4116,333.3281" style="stroke:#181818;stroke-width:1;stroke-linejoin:miter;stroke-miterlimit:10;"/><line style="stroke:#181818;stroke-width:1;stroke-dasharray:2,2;" x1="315.4038" x2="590.4116" y1="333.3281" y2="333.3281"/><text fill="#000000" font-family="Helvetica" font-size="10" x="322.4038" y="328.9697">(05)</text><text fill="#000000" font-family="Helvetica" font-size="10" x="346.9312" y="328.9697">keyId (Referenz f&#252;r PrK.Client.Sig)</text><rect fill="#EEEEEE" height="3" style="stroke:#EEEEEE;stroke-width:1;" width="783.4741" x="10" y="360.1484"/><line style="stroke:#000000;stroke-width:1;" x1="10" x2="793.4741" y1="360.1484" y2="360.1484"/><line style="stroke:#000000;stroke-width:1;" x1="10" x2="793.4741" y1="363.1484" y2="363.1484"/><rect fill="#EEEEEE" height="19.6406" style="stroke:#000000;stroke-width:2;" width="316.4365" x="243.5188" y="351.3281"/><text fill="#000000" font-family="Helvetica" font-size="10" font-weight="700" x="249.5188" y="364.6104">Hardware-Attestierung (Attestation Key, App Attest)</text><path d="M347.0034,385.9688 L347.0034,418.9688 L596.0034,418.9688 L596.0034,395.9688 L586.0034,385.9688 L347.0034,385.9688" fill="#FEFFDD" style="stroke:#181818;stroke-width:0.5;"/><path d="M586.0034,385.9688 L586.0034,395.9688 L596.0034,395.9688 L586.0034,385.9688" fill="#FEFFDD" style="stroke:#181818;stroke-width:0.5;"/><text fill="#000000" font-family="Helvetica" font-size="10" x="353.0034" y="400.251">Generierung des dedizierten Attestation Keys</text><text fill="#000000" font-family="Helvetica" font-size="10" x="353.0034" y="411.8916">und einmalige Attestierung gegen Apple CA.</text><polygon fill="#181818" points="326.4038,437.8906,316.4038,441.8906,326.4038,445.8906,322.4038,441.8906" style="stroke:#181818;stroke-width:1;stroke-linejoin:miter;stroke-miterlimit:10;"/><line style="stroke:#181818;stroke-width:1;" x1="320.4038" x2="595.4116" y1="441.8906" y2="441.8906"/><text fill="#000000" font-family="Helvetica" font-size="10" x="332.4038" y="437.5322">(06)</text><text fill="#000000" font-family="Helvetica" font-size="10" x="356.9312" y="437.5322">DCAppAttest.shared.generateKey()</text><polygon fill="#181818" points="100.4546,463.5313,90.4546,467.5313,100.4546,471.5313,96.4546,467.5313" style="stroke:#181818;stroke-width:1;stroke-linejoin:miter;stroke-miterlimit:10;"/><line style="stroke:#181818;stroke-width:1;" x1="94.4546" x2="304.4038" y1="467.5313" y2="467.5313"/><text fill="#000000" font-family="Helvetica" font-size="10" x="106.4546" y="463.1729">(07)</text><text fill="#000000" font-family="Helvetica" font-size="10" x="130.9819" y="463.1729">Generiere AK-Schl&#252;sselpaar in SE</text><polygon fill="#181818" points="293.4038,489.1719,303.4038,493.1719,293.4038,497.1719,297.4038,493.1719" style="stroke:#181818;stroke-width:1;stroke-linejoin:miter;stroke-miterlimit:10;"/><line style="stroke:#181818;stroke-width:1;stroke-dasharray:2,2;" x1="89.4546" x2="299.4038" y1="493.1719" y2="493.1719"/><text fill="#000000" font-family="Helvetica" font-size="10" x="96.4546" y="488.8135">(08)</text><text fill="#000000" font-family="Helvetica" font-size="10" x="120.9819" y="488.8135">keyId_AK (Handle f&#252;r PrK.AK.Sig)</text><polygon fill="#181818" points="584.4116,514.8125,594.4116,518.8125,584.4116,522.8125,588.4116,518.8125" style="stroke:#181818;stroke-width:1;stroke-linejoin:miter;stroke-miterlimit:10;"/><line style="stroke:#181818;stroke-width:1;stroke-dasharray:2,2;" x1="315.4038" x2="590.4116" y1="518.8125" y2="518.8125"/><text fill="#000000" font-family="Helvetica" font-size="10" x="322.4038" y="514.4541">(09)</text><text fill="#000000" font-family="Helvetica" font-size="10" x="346.9312" y="514.4541">keyId_AK</text><line style="stroke:#181818;stroke-width:1;" x1="606.4116" x2="648.4116" y1="556.0938" y2="556.0938"/><line style="stroke:#181818;stroke-width:1;" x1="648.4116" x2="648.4116" y1="556.0938" y2="569.0938"/><line style="stroke:#181818;stroke-width:1;" x1="607.4116" x2="648.4116" y1="569.0938" y2="569.0938"/><polygon fill="#181818" points="617.4116,565.0938,607.4116,569.0938,617.4116,573.0938,613.4116,569.0938" style="stroke:#181818;stroke-width:1;stroke-linejoin:miter;stroke-miterlimit:10;"/><text fill="#000000" font-family="Helvetica" font-size="10" x="613.4116" y="545.915">(10)</text><text fill="#000000" font-family="Helvetica" font-size="10" x="637.939" y="540.0947">Berechne challenge =</text><text fill="#000000" font-family="Helvetica" font-size="10" x="637.939" y="551.7354">SHA-256(PuK.Client.Sig)</text><polygon fill="#181818" points="326.4038,602.375,316.4038,606.375,326.4038,610.375,322.4038,606.375" style="stroke:#181818;stroke-width:1;stroke-linejoin:miter;stroke-miterlimit:10;"/><line style="stroke:#181818;stroke-width:1;" x1="320.4038" x2="595.4116" y1="606.375" y2="606.375"/><text fill="#000000" font-family="Helvetica" font-size="10" x="332.4038" y="596.1963">(11)</text><text fill="#000000" font-family="Helvetica" font-size="10" x="356.9312" y="590.376">DCAppAttest.shared.attestKey(</text><text fill="#000000" font-family="Helvetica" font-size="10" x="363.2886" y="602.0166">keyId_AK, clientDataHash = challenge)</text><polygon fill="#181818" points="100.4546,628.0156,90.4546,632.0156,100.4546,636.0156,96.4546,632.0156" style="stroke:#181818;stroke-width:1;stroke-linejoin:miter;stroke-miterlimit:10;"/><line style="stroke:#181818;stroke-width:1;" x1="94.4546" x2="304.4038" y1="632.0156" y2="632.0156"/><text fill="#000000" font-family="Helvetica" font-size="10" x="106.4546" y="627.6572">(12)</text><text fill="#000000" font-family="Helvetica" font-size="10" x="130.9819" y="627.6572">Signiere challenge mit PrK.AK.Sig</text><polygon fill="#181818" points="293.4038,653.6563,303.4038,657.6563,293.4038,661.6563,297.4038,657.6563" style="stroke:#181818;stroke-width:1;stroke-linejoin:miter;stroke-miterlimit:10;"/><line style="stroke:#181818;stroke-width:1;stroke-dasharray:2,2;" x1="89.4546" x2="299.4038" y1="657.6563" y2="657.6563"/><text fill="#000000" font-family="Helvetica" font-size="10" x="96.4546" y="653.2979">(13)</text><text fill="#000000" font-family="Helvetica" font-size="10" x="120.9819" y="653.2979">Attestation-Objekt (CBOR)</text><polygon fill="#181818" points="584.4116,690.9375,594.4116,694.9375,584.4116,698.9375,588.4116,694.9375" style="stroke:#181818;stroke-width:1;stroke-linejoin:miter;stroke-miterlimit:10;"/><line style="stroke:#181818;stroke-width:1;stroke-dasharray:2,2;" x1="315.4038" x2="590.4116" y1="694.9375" y2="694.9375"/><text fill="#000000" font-family="Helvetica" font-size="10" x="322.4038" y="684.7588">(14)</text><text fill="#000000" font-family="Helvetica" font-size="10" x="346.9312" y="678.9385">apple_attestation_object</text><text fill="#000000" font-family="Helvetica" font-size="10" x="346.9312" y="690.5791">(X.509-Kette + Receipt, Challenge eingebettet)</text><rect fill="#EEEEEE" height="3" style="stroke:#EEEEEE;stroke-width:1;" width="783.4741" x="10" y="721.7578"/><line style="stroke:#000000;stroke-width:1;" x1="10" x2="793.4741" y1="721.7578" y2="721.7578"/><line style="stroke:#000000;stroke-width:1;" x1="10" x2="793.4741" y1="724.7578" y2="724.7578"/><rect fill="#EEEEEE" height="19.6406" style="stroke:#000000;stroke-width:2;" width="284.0635" x="259.7053" y="712.9375"/><text fill="#000000" font-family="Helvetica" font-size="10" font-weight="700" x="265.7053" y="726.2197">Expliziter Besitznachweis (Proof of Possession)</text><path d="M91.9058,747.5781 L91.9058,780.5781 L595.9058,780.5781 L595.9058,757.5781 L585.9058,747.5781 L91.9058,747.5781" fill="#FEFFDD" style="stroke:#181818;stroke-width:0.5;"/><path d="M585.9058,747.5781 L585.9058,757.5781 L595.9058,757.5781 L585.9058,747.5781" fill="#FEFFDD" style="stroke:#181818;stroke-width:0.5;"/><text fill="#000000" font-family="Helvetica" font-size="10" x="97.9058" y="761.8604">Besitznachweis des Client Instance Keys. Das apple_attestation_object beweist die HW-Bindung;</text><text fill="#000000" font-family="Helvetica" font-size="10" x="97.9058" y="773.501">diese Signatur beweist den physischen Besitz von PrK.Client.Sig.</text><polygon fill="#181818" points="326.4038,811.1406,316.4038,815.1406,326.4038,819.1406,322.4038,815.1406" style="stroke:#181818;stroke-width:1;stroke-linejoin:miter;stroke-miterlimit:10;"/><line style="stroke:#181818;stroke-width:1;" x1="320.4038" x2="595.4116" y1="815.1406" y2="815.1406"/><text fill="#000000" font-family="Helvetica" font-size="10" x="332.4038" y="804.9619">(15)</text><text fill="#000000" font-family="Helvetica" font-size="10" x="356.9312" y="799.1416">SecKeyCreateSignature(</text><text fill="#000000" font-family="Helvetica" font-size="10" x="363.2886" y="810.7822">PrK.Client.Sig, SHA-256(PuK.Client.Sig))</text><polygon fill="#181818" points="100.4546,836.7813,90.4546,840.7813,100.4546,844.7813,96.4546,840.7813" style="stroke:#181818;stroke-width:1;stroke-linejoin:miter;stroke-miterlimit:10;"/><line style="stroke:#181818;stroke-width:1;" x1="94.4546" x2="304.4038" y1="840.7813" y2="840.7813"/><text fill="#000000" font-family="Helvetica" font-size="10" x="106.4546" y="836.4229">(16)</text><text fill="#000000" font-family="Helvetica" font-size="10" x="130.9819" y="836.4229">Signiere Hash mit PrK.Client.Sig</text><polygon fill="#181818" points="293.4038,862.4219,303.4038,866.4219,293.4038,870.4219,297.4038,866.4219" style="stroke:#181818;stroke-width:1;stroke-linejoin:miter;stroke-miterlimit:10;"/><line style="stroke:#181818;stroke-width:1;stroke-dasharray:2,2;" x1="89.4546" x2="299.4038" y1="866.4219" y2="866.4219"/><text fill="#000000" font-family="Helvetica" font-size="10" x="96.4546" y="862.0635">(17)</text><text fill="#000000" font-family="Helvetica" font-size="10" x="120.9819" y="862.0635">ECDSA Signatur</text><polygon fill="#181818" points="584.4116,888.0625,594.4116,892.0625,584.4116,896.0625,588.4116,892.0625" style="stroke:#181818;stroke-width:1;stroke-linejoin:miter;stroke-miterlimit:10;"/><line style="stroke:#181818;stroke-width:1;stroke-dasharray:2,2;" x1="315.4038" x2="590.4116" y1="892.0625" y2="892.0625"/><text fill="#000000" font-family="Helvetica" font-size="10" x="322.4038" y="887.7041">(18)</text><text fill="#000000" font-family="Helvetica" font-size="10" x="346.9312" y="887.7041">signed_hash_puk_client_sig</text><line style="stroke:#181818;stroke-width:1;" x1="606.4116" x2="648.4116" y1="958.9844" y2="958.9844"/><line style="stroke:#181818;stroke-width:1;" x1="648.4116" x2="648.4116" y1="958.9844" y2="971.9844"/><line style="stroke:#181818;stroke-width:1;" x1="607.4116" x2="648.4116" y1="971.9844" y2="971.9844"/><polygon fill="#181818" points="617.4116,967.9844,607.4116,971.9844,617.4116,975.9844,613.4116,971.9844" style="stroke:#181818;stroke-width:1;stroke-linejoin:miter;stroke-miterlimit:10;"/><text fill="#000000" font-family="Helvetica" font-size="10" x="613.4116" y="948.8057">(19)</text><text fill="#000000" font-family="Helvetica" font-size="10" x="637.939" y="942.9854">Generiere PrK.Client.Sig,</text><text fill="#000000" font-family="Helvetica" font-size="10" x="637.939" y="954.626">PuK.Client.Sig</text><?plantuml-src bLNRRjf047ttLqnvCWAxLQLMQX8Y6N0B8Wa8frSXeSKUy3PcRNdNIU1x-XbvouzrVCDWGPfA2FPsvdBcpF262pT8F0JJV1ibwy08s2PCbAaUbQPfY_0H6dsyvouse6z_6_RiUMzyDPvg016B5NTvn8I2XeDk4YFOP8pTqricmR7XoXxIy-l9-CQ-kJqEjA8emB43-fgvOwSDFFkQC6_iD3CpvOFZjh80wKa39jFXjMLFdP_EhNszkwzv-sNVMj0BE0gL6S-NS76nHSKkBmc0makDQkMlbZzfjRGY45eLACEuB0oSmL18nOA0AHuAqBzAZC69c8jDJME1WaDwj4wdz9pXX8immWrC68z1dyGZCxyr7RuwXqcolsz2fvFb1QK9Yg88xIprGuPwCJA5KoQyS4tRcT2Npqyn71fkrmm35rIoPcPRX0eXmAM2SBbByGiAZ3d6YLY1XnAYcA-V_yH8CDSFdf-an43EHEQg2CsYipYbH9f5p6KrAMZ7RhKggxXd1VIzV0iWgSceCZMCCxZ3pT03VOfBGeij7CcnMVUwLx5NmJCyLMl0Ok-1nMXOIg5K1GjwlikBJaItKqUG7-xgz2ekFVJublQAsAmP9KeJqY9oiMO1No4SXB32LGf9yuEUbRDyH1Vz7Yrpe2bzIiGpLsa891DoeUSylL0RQsHKvOaOYtErQ2zKPcwDG1-G1Yco7RVMg2hBoQ8GifP7UTsbM5nV8BW-DHiAOgCp4yx0Cjv_-AZN6kK_k63PBcLY9c0NH1lS3DrdYWsOzA5J-Jt16FaL6M5LW6kkzb8_mTXUpOtnuZVUAUg1xdXwcYcMdirPXPk7X7CLDViFyyExJyO8wGvQC4KNUQJQqDk5H5fQuIAzLoHnahVz60MaFqLJgukIgwrWhl-0NARJA2JTqcSIKksb94ylIRjek9gLLE971fuqeKz3-5GgiC0KhS3Z28FlHfSBZpH_NlYWKuaPuqmbSVMO-Y7oDv9BrwTb7WdSKpCTDdVUA-cOJzFGNZ5GIrUOgQG-JK-ey5z2oOHLQgJ2dT29tUixrYxda-AGz02zkK-svr5oDyzrFATZJQCXZV2PfB1WxfrshCkgjg_bE1E7oQL_ajfV?></g></svg>