<svg xmlns="http://www.w3.org/2000/svg" xmlns:xlink="http://www.w3.org/1999/xlink" contentStyleType="text/css" data-diagram-type="SEQUENCE" height="1160px" preserveAspectRatio="none" style="width:1310px;height:1160px;background:#FFFFFF;" version="1.1" viewBox="0 0 1310 1160" width="1310px" zoomAndPan="magnify"><?plantuml 1.2026.6?><defs/><g><rect fill="#FEFCFF" height="1134.6719" style="stroke:#181818;stroke-width:0.5;" width="87.1543" x="16" y="11"/><text fill="#000000" font-family="Helvetica" font-size="10" font-weight="700" x="28" y="20.2822">Mobile App</text><rect fill="#EDFDEC" height="1134.6719" style="stroke:#181818;stroke-width:0.5;" width="147.7842" x="446.0239" y="11"/><text fill="#000000" font-family="Helvetica" font-size="10" font-weight="700" x="458.0239" y="20.2822">Anbieter TI 2.0 Dienst</text><rect fill="#FFF3E5" height="1118.0313" style="stroke:#181818;stroke-width:0.5;" width="147.7842" x="446.0239" y="27.6406"/><text fill="#000000" font-family="Helvetica" font-size="10" font-weight="700" x="486.7715" y="36.9229">ZETA Guard</text><rect fill="#EAF2FF" height="1134.6719" style="stroke:#181818;stroke-width:0.5;" width="386.5356" x="907.4507" y="11"/><text fill="#000000" font-family="Helvetica" font-size="10" font-weight="700" x="1062.613" y="20.2822">TI-F&#246;deration</text><g><title>ZETA Client</title><rect fill="#000000" fill-opacity="0.00000" height="996.5469" width="8" x="56.0771" y="93.2031"/><line style="stroke:#000000;stroke-width:0.5;stroke-dasharray:5,5;" x1="59.5771" x2="59.5771" y1="93.2031" y2="1089.75"/></g><g><title/><rect fill="#FFFFFF" height="988.5469" style="stroke:#181818;stroke-width:1;" width="10" x="54.5771" y="101.2031"/></g><g><title>PDP</title><rect fill="#000000" fill-opacity="0.00000" height="996.5469" width="8" x="516.416" y="93.2031"/><line style="stroke:#000000;stroke-width:0.5;stroke-dasharray:5,5;" x1="519.916" x2="519.916" y1="93.2031" y2="1089.75"/></g><g><title/><rect fill="#FFFFFF" height="804.4219" style="stroke:#181818;stroke-width:1;" width="10" x="514.916" y="235.6875"/></g><g><title>Sektoraler IDP</title><rect fill="#000000" fill-opacity="0.00000" height="996.5469" width="8" x="954.4355" y="93.2031"/><line style="stroke:#000000;stroke-width:0.5;stroke-dasharray:5,5;" x1="957.9355" x2="957.9355" y1="93.2031" y2="1089.75"/></g><g><title/><rect fill="#FFFFFF" height="25.6406" style="stroke:#181818;stroke-width:1;" width="10" x="952.9355" y="440.8125"/></g><g><title/><rect fill="#FFFFFF" height="282.0469" style="stroke:#181818;stroke-width:1;" width="10" x="952.9355" y="709.1406"/></g><g><title>Federation</title><rect fill="#000000" fill-opacity="0.00000" height="996.5469" width="8" x="1252.5869" y="93.2031"/><line style="stroke:#000000;stroke-width:0.5;stroke-dasharray:5,5;" x1="1256.0869" x2="1256.0869" y1="93.2031" y2="1089.75"/></g><g><title/><rect fill="#FFFFFF" height="25.6406" style="stroke:#181818;stroke-width:1;" width="10" x="1251.0869" y="492.0938"/></g><g><title/><rect fill="#FFFFFF" height="25.6406" style="stroke:#181818;stroke-width:1;" width="10" x="1251.0869" y="813.7031"/></g><rect fill="#FFE6CC" height="25.6406" rx="2.5" ry="2.5" style="stroke:#D79B00;stroke-width:0.5;" width="72.2471" x="23.4536" y="66.5625"/><text fill="#000000" font-family="Helvetica" font-size="10" x="30.4536" y="82.8447">ZETA Client</text><rect fill="#FFE6CC" height="48.9219" rx="2.5" ry="2.5" style="stroke:#D79B00;stroke-width:0.5;" width="117.0322" x="461.3999" y="43.2813"/><text fill="#000000" font-family="Helvetica" font-size="10" x="510.0356" y="59.5635">PDP</text><text fill="#000000" font-family="Helvetica" font-size="10" x="468.4414" y="71.2041">Authorization Server</text><text fill="#000000" font-family="Helvetica" font-size="10" x="468.3999" y="82.8447">(OIDC Relying Party)</text><rect fill="#E2E2F0" height="37.2813" rx="2.5" ry="2.5" style="stroke:#181818;stroke-width:0.5;" width="92.9697" x="911.4507" y="54.9219"/><text fill="#000000" font-family="Helvetica" font-size="10" x="922.2007" y="71.2041">Sektoraler IDP</text><text fill="#000000" font-family="Helvetica" font-size="10" x="918.4507" y="82.8447">(PAR-Endpunkt)</text><rect fill="#E2E2F0" height="37.2813" rx="2.5" ry="2.5" style="stroke:#181818;stroke-width:0.5;" width="67.7988" x="1222.1875" y="54.9219"/><text fill="#000000" font-family="Helvetica" font-size="10" x="1229.1875" y="71.2041">Federation</text><text fill="#000000" font-family="Helvetica" font-size="10" x="1239.0117" y="82.8447">Master</text><rect fill="#FFE6CC" height="25.6406" rx="2.5" ry="2.5" style="stroke:#D79B00;stroke-width:0.5;" width="72.2471" x="23.4536" y="1089.75"/><text fill="#000000" font-family="Helvetica" font-size="10" x="30.4536" y="1106.0322">ZETA Client</text><rect fill="#FFE6CC" height="48.9219" rx="2.5" ry="2.5" style="stroke:#D79B00;stroke-width:0.5;" width="117.0322" x="461.3999" y="1089.75"/><text fill="#000000" font-family="Helvetica" font-size="10" x="510.0356" y="1106.0322">PDP</text><text fill="#000000" font-family="Helvetica" font-size="10" x="468.4414" y="1117.6729">Authorization Server</text><text fill="#000000" font-family="Helvetica" font-size="10" x="468.3999" y="1129.3135">(OIDC Relying Party)</text><rect fill="#E2E2F0" height="37.2813" rx="2.5" ry="2.5" style="stroke:#181818;stroke-width:0.5;" width="92.9697" x="911.4507" y="1089.75"/><text fill="#000000" font-family="Helvetica" font-size="10" x="922.2007" y="1106.0322">Sektoraler IDP</text><text fill="#000000" font-family="Helvetica" font-size="10" x="918.4507" y="1117.6729">(PAR-Endpunkt)</text><rect fill="#E2E2F0" height="37.2813" rx="2.5" ry="2.5" style="stroke:#181818;stroke-width:0.5;" width="67.7988" x="1222.1875" y="1089.75"/><text fill="#000000" font-family="Helvetica" font-size="10" x="1229.1875" y="1106.0322">Federation</text><text fill="#000000" font-family="Helvetica" font-size="10" x="1239.0117" y="1117.6729">Master</text><path d="M17.2573,106.2031 L17.2573,127.2031 L561.2573,127.2031 L561.2573,116.2031 L551.2573,106.2031 L17.2573,106.2031" fill="#FEFFDD" style="stroke:#181818;stroke-width:0.5;"/><path d="M551.2573,106.2031 L551.2573,116.2031 L561.2573,116.2031 L551.2573,106.2031" fill="#FEFFDD" style="stroke:#181818;stroke-width:0.5;"/><text fill="#000000" font-family="Helvetica" font-size="10" x="78.5742" y="120.4854">Der ZETA Client hat vom Fach-Client den fachlichen Request inkl. idp_iss erhalten.</text><line style="stroke:#181818;stroke-width:1;" x1="64.5771" x2="106.5771" y1="173.7656" y2="173.7656"/><line style="stroke:#181818;stroke-width:1;" x1="106.5771" x2="106.5771" y1="173.7656" y2="186.7656"/><line style="stroke:#181818;stroke-width:1;" x1="65.5771" x2="106.5771" y1="186.7656" y2="186.7656"/><polygon fill="#181818" points="75.5771,182.7656,65.5771,186.7656,75.5771,190.7656,71.5771,186.7656" style="stroke:#181818;stroke-width:1;stroke-linejoin:miter;stroke-miterlimit:10;"/><text fill="#000000" font-family="Helvetica" font-size="10" x="71.5771" y="157.7666">(01)</text><text fill="#000000" font-family="Helvetica" font-size="10" x="96.1045" y="146.126">Erzeuge PKCE (code_verifier_app),</text><text fill="#000000" font-family="Helvetica" font-size="10" x="96.1045" y="157.7666">code_challenge_app = S256(code_verifier_app),</text><text fill="#000000" font-family="Helvetica" font-size="10" x="96.1045" y="169.4072">state_app</text><polygon fill="#181818" points="502.916,231.6875,512.916,235.6875,502.916,239.6875,506.916,235.6875" style="stroke:#181818;stroke-width:1;stroke-linejoin:miter;stroke-miterlimit:10;"/><line style="stroke:#181818;stroke-width:1;" x1="64.5771" x2="508.916" y1="235.6875" y2="235.6875"/><text fill="#000000" font-family="Helvetica" font-size="10" x="71.5771" y="219.6885">(02)</text><text fill="#000000" font-family="Helvetica" font-size="10" x="96.1045" y="208.0479">POST /par (private_key_jwt, client_assertion)</text><text fill="#000000" font-family="Helvetica" font-size="10" x="102.4619" y="219.6885">{response_type=code, client_id, redirect_uri_app,</text><text fill="#000000" font-family="Helvetica" font-size="10" x="102.4619" y="231.3291">code_challenge_app, code_challenge_method=S256, scope, state_app, idp_iss}</text><line style="stroke:#181818;stroke-width:1;" x1="524.916" x2="566.916" y1="261.3281" y2="261.3281"/><line style="stroke:#181818;stroke-width:1;" x1="566.916" x2="566.916" y1="261.3281" y2="274.3281"/><line style="stroke:#181818;stroke-width:1;" x1="525.916" x2="566.916" y1="274.3281" y2="274.3281"/><polygon fill="#181818" points="535.916,270.3281,525.916,274.3281,535.916,278.3281,531.916,274.3281" style="stroke:#181818;stroke-width:1;stroke-linejoin:miter;stroke-miterlimit:10;"/><text fill="#000000" font-family="Helvetica" font-size="10" x="531.916" y="256.9697">(03)</text><text fill="#000000" font-family="Helvetica" font-size="10" x="556.4434" y="256.9697">Validiere &amp; speichere Request-Parameter, erzeuge request_uri_app (kurzlebig)</text><polygon fill="#181818" points="75.5771,295.9688,65.5771,299.9688,75.5771,303.9688,71.5771,299.9688" style="stroke:#181818;stroke-width:1;stroke-linejoin:miter;stroke-miterlimit:10;"/><line style="stroke:#181818;stroke-width:1;stroke-dasharray:2,2;" x1="69.5771" x2="513.916" y1="299.9688" y2="299.9688"/><text fill="#000000" font-family="Helvetica" font-size="10" x="81.5771" y="295.6104">(04)</text><text fill="#000000" font-family="Helvetica" font-size="10" x="106.1045" y="295.6104">201 Created {request_uri_app, expires_in (z. B. max. 90s)}</text><polygon fill="#181818" points="502.916,321.6094,512.916,325.6094,502.916,329.6094,506.916,325.6094" style="stroke:#181818;stroke-width:1;stroke-linejoin:miter;stroke-miterlimit:10;"/><line style="stroke:#181818;stroke-width:1;" x1="64.5771" x2="508.916" y1="325.6094" y2="325.6094"/><text fill="#000000" font-family="Helvetica" font-size="10" x="71.5771" y="321.251">(05)</text><text fill="#000000" font-family="Helvetica" font-size="10" x="96.1045" y="321.251">GET /authorize?client_id=...&amp;request_uri=request_uri_app</text><line style="stroke:#181818;stroke-width:1;" x1="524.916" x2="566.916" y1="374.5313" y2="374.5313"/><line style="stroke:#181818;stroke-width:1;" x1="566.916" x2="566.916" y1="374.5313" y2="387.5313"/><line style="stroke:#181818;stroke-width:1;" x1="525.916" x2="566.916" y1="387.5313" y2="387.5313"/><polygon fill="#181818" points="535.916,383.5313,525.916,387.5313,535.916,391.5313,531.916,387.5313" style="stroke:#181818;stroke-width:1;stroke-linejoin:miter;stroke-miterlimit:10;"/><text fill="#000000" font-family="Helvetica" font-size="10" x="531.916" y="358.5322">(06)</text><text fill="#000000" font-family="Helvetica" font-size="10" x="556.4434" y="346.8916">Erzeuge PKCE (code_verifier_as),</text><text fill="#000000" font-family="Helvetica" font-size="10" x="556.4434" y="358.5322">code_challenge_as = S256(code_verifier_as),</text><text fill="#000000" font-family="Helvetica" font-size="10" x="556.4434" y="370.1729">state_as, nonce</text><path d="M503.916,399.5313 L567.7246,399.5313 L567.7246,403.1719 L557.7246,413.1719 L503.916,413.1719 L503.916,399.5313" fill="#EEEEEE" style="stroke:#000000;stroke-width:1.5;"/><rect fill="none" height="176.4844" style="stroke:#000000;stroke-width:1.5;" width="773.1709" x="503.916" y="399.5313"/><text fill="#000000" font-family="Helvetica" font-size="10" font-weight="700" x="518.916" y="409.8135">opt</text><text fill="#000000" font-family="Helvetica" font-size="10" font-weight="700" x="582.7246" y="410.8135">[Entity Statement des IDP unbekannt]</text><polygon fill="#181818" points="940.9355,436.8125,950.9355,440.8125,940.9355,444.8125,944.9355,440.8125" style="stroke:#181818;stroke-width:1;stroke-linejoin:miter;stroke-miterlimit:10;"/><line style="stroke:#181818;stroke-width:1;" x1="524.916" x2="946.9355" y1="440.8125" y2="440.8125"/><text fill="#000000" font-family="Helvetica" font-size="10" x="531.916" y="436.4541">(07)</text><text fill="#000000" font-family="Helvetica" font-size="10" x="556.4434" y="436.4541">GET /.well-known/openid-federation</text><polygon fill="#181818" points="535.916,462.4531,525.916,466.4531,535.916,470.4531,531.916,466.4531" style="stroke:#181818;stroke-width:1;stroke-linejoin:miter;stroke-miterlimit:10;"/><line style="stroke:#181818;stroke-width:1;stroke-dasharray:2,2;" x1="529.916" x2="951.9355" y1="466.4531" y2="466.4531"/><text fill="#000000" font-family="Helvetica" font-size="10" x="541.916" y="462.0947">(08)</text><text fill="#000000" font-family="Helvetica" font-size="10" x="566.4434" y="462.0947">Entity Statement (signiert)</text><polygon fill="#181818" points="1239.0869,488.0938,1249.0869,492.0938,1239.0869,496.0938,1243.0869,492.0938" style="stroke:#181818;stroke-width:1;stroke-linejoin:miter;stroke-miterlimit:10;"/><line style="stroke:#181818;stroke-width:1;" x1="524.916" x2="1245.0869" y1="492.0938" y2="492.0938"/><text fill="#000000" font-family="Helvetica" font-size="10" x="531.916" y="487.7354">(09)</text><text fill="#000000" font-family="Helvetica" font-size="10" x="556.4434" y="487.7354">GET federation_fetch_endpoint?sub=&lt;idp_iss&gt;</text><polygon fill="#181818" points="535.916,513.7344,525.916,517.7344,535.916,521.7344,531.916,517.7344" style="stroke:#181818;stroke-width:1;stroke-linejoin:miter;stroke-miterlimit:10;"/><line style="stroke:#181818;stroke-width:1;stroke-dasharray:2,2;" x1="529.916" x2="1250.0869" y1="517.7344" y2="517.7344"/><text fill="#000000" font-family="Helvetica" font-size="10" x="541.916" y="513.376">(10)</text><text fill="#000000" font-family="Helvetica" font-size="10" x="566.4434" y="513.376">Entity Statement des IDP (signiert, Federation Master)</text><line style="stroke:#181818;stroke-width:1;" x1="524.916" x2="566.916" y1="555.0156" y2="555.0156"/><line style="stroke:#181818;stroke-width:1;" x1="566.916" x2="566.916" y1="555.0156" y2="568.0156"/><line style="stroke:#181818;stroke-width:1;" x1="525.916" x2="566.916" y1="568.0156" y2="568.0156"/><polygon fill="#181818" points="535.916,564.0156,525.916,568.0156,535.916,572.0156,531.916,568.0156" style="stroke:#181818;stroke-width:1;stroke-linejoin:miter;stroke-miterlimit:10;"/><text fill="#000000" font-family="Helvetica" font-size="10" x="531.916" y="544.8369">(11)</text><text fill="#000000" font-family="Helvetica" font-size="10" x="556.4434" y="539.0166">Validiere Trust Chain, importiere Signaturschl&#252;ssel</text><text fill="#000000" font-family="Helvetica" font-size="10" x="556.4434" y="550.6572">und OP-Metadaten (PAR-, Authorization-, Token-Endpunkt) des IDP</text><path d="M472.4155,595.0156 L472.4155,651.0156 L1005.4155,651.0156 L1005.4155,605.0156 L995.4155,595.0156 L472.4155,595.0156" fill="#FEFFDD" style="stroke:#181818;stroke-width:0.5;"/><path d="M995.4155,595.0156 L995.4155,605.0156 L1005.4155,605.0156 L995.4155,595.0156" fill="#FEFFDD" style="stroke:#181818;stroke-width:0.5;"/><text fill="#000000" font-family="Helvetica" font-size="10" x="518.3052" y="609.2979">redirect_uri_as ist der Redirection-Endpunkt der OIDC Relying Party (AuthS) f&#252;r den</text><text fill="#000000" font-family="Helvetica" font-size="10" x="518.3052" y="620.9385">SekIDP Auth Code Flow. Sie wird im Entity Statement des AS (Fachdienst) gef&#252;hrt; der</text><text fill="#000000" font-family="Helvetica" font-size="10" x="518.3052" y="632.5791">SekIDP pr&#252;ft beim PAR, ob redirect_uri_as eine bekannte redirect_uri aus diesem</text><text fill="#000000" font-family="Helvetica" font-size="10" x="518.3052" y="644.2197">AS-Entity-Statement ist.</text><polygon fill="#181818" points="940.9355,705.1406,950.9355,709.1406,940.9355,713.1406,944.9355,709.1406" style="stroke:#181818;stroke-width:1;stroke-linejoin:miter;stroke-miterlimit:10;"/><line style="stroke:#181818;stroke-width:1;" x1="524.916" x2="946.9355" y1="709.1406" y2="709.1406"/><text fill="#000000" font-family="Helvetica" font-size="10" x="531.916" y="687.3213">(12)</text><text fill="#000000" font-family="Helvetica" font-size="10" x="556.4434" y="669.8604">POST /PAR (mTLS, self_signed_tls_client_auth)</text><text fill="#000000" font-family="Helvetica" font-size="10" x="556.4434" y="681.501">{client_id, redirect_uri_as, response_type=code,</text><text fill="#000000" font-family="Helvetica" font-size="10" x="556.4434" y="693.1416">code_challenge_as, code_challenge_method=S256,</text><text fill="#000000" font-family="Helvetica" font-size="10" x="556.4434" y="704.7822">scope, claims, acr_values, nonce, state_as}</text><path d="M503.916,721.1406 L567.7246,721.1406 L567.7246,724.7813 L557.7246,734.7813 L503.916,734.7813 L503.916,721.1406" fill="#EEEEEE" style="stroke:#000000;stroke-width:1.5;"/><rect fill="none" height="176.4844" style="stroke:#000000;stroke-width:1.5;" width="773.1709" x="503.916" y="721.1406"/><text fill="#000000" font-family="Helvetica" font-size="10" font-weight="700" x="518.916" y="731.4229">opt</text><text fill="#000000" font-family="Helvetica" font-size="10" font-weight="700" x="582.7246" y="732.4229">[Entity Statement des Fachdienstes unbekannt]</text><polygon fill="#181818" points="535.916,758.4219,525.916,762.4219,535.916,766.4219,531.916,762.4219" style="stroke:#181818;stroke-width:1;stroke-linejoin:miter;stroke-miterlimit:10;"/><line style="stroke:#181818;stroke-width:1;" x1="529.916" x2="951.9355" y1="762.4219" y2="762.4219"/><text fill="#000000" font-family="Helvetica" font-size="10" x="541.916" y="758.0635">(13)</text><text fill="#000000" font-family="Helvetica" font-size="10" x="566.4434" y="758.0635">GET /.well-known/openid-federation</text><polygon fill="#181818" points="940.9355,784.0625,950.9355,788.0625,940.9355,792.0625,944.9355,788.0625" style="stroke:#181818;stroke-width:1;stroke-linejoin:miter;stroke-miterlimit:10;"/><line style="stroke:#181818;stroke-width:1;stroke-dasharray:2,2;" x1="524.916" x2="946.9355" y1="788.0625" y2="788.0625"/><text fill="#000000" font-family="Helvetica" font-size="10" x="531.916" y="783.7041">(14)</text><text fill="#000000" font-family="Helvetica" font-size="10" x="556.4434" y="783.7041">Entity Statement des Fachdienstes (signiert)</text><polygon fill="#181818" points="1239.0869,809.7031,1249.0869,813.7031,1239.0869,817.7031,1243.0869,813.7031" style="stroke:#181818;stroke-width:1;stroke-linejoin:miter;stroke-miterlimit:10;"/><line style="stroke:#181818;stroke-width:1;" x1="962.9355" x2="1245.0869" y1="813.7031" y2="813.7031"/><text fill="#000000" font-family="Helvetica" font-size="10" x="969.9355" y="809.3447">(15)</text><text fill="#000000" font-family="Helvetica" font-size="10" x="994.4629" y="809.3447">GET federation_fetch_endpoint?sub=&lt;client_id&gt;</text><polygon fill="#181818" points="973.9355,835.3438,963.9355,839.3438,973.9355,843.3438,969.9355,839.3438" style="stroke:#181818;stroke-width:1;stroke-linejoin:miter;stroke-miterlimit:10;"/><line style="stroke:#181818;stroke-width:1;stroke-dasharray:2,2;" x1="967.9355" x2="1250.0869" y1="839.3438" y2="839.3438"/><text fill="#000000" font-family="Helvetica" font-size="10" x="979.9355" y="834.9854">(16)</text><text fill="#000000" font-family="Helvetica" font-size="10" x="1004.4629" y="834.9854">Entity Statement des Fachdienstes (signiert)</text><line style="stroke:#181818;stroke-width:1;" x1="962.9355" x2="1004.9355" y1="876.625" y2="876.625"/><line style="stroke:#181818;stroke-width:1;" x1="1004.9355" x2="1004.9355" y1="876.625" y2="889.625"/><line style="stroke:#181818;stroke-width:1;" x1="963.9355" x2="1004.9355" y1="889.625" y2="889.625"/><polygon fill="#181818" points="973.9355,885.625,963.9355,889.625,973.9355,893.625,969.9355,889.625" style="stroke:#181818;stroke-width:1;stroke-linejoin:miter;stroke-miterlimit:10;"/><text fill="#000000" font-family="Helvetica" font-size="10" x="969.9355" y="866.4463">(17)</text><text fill="#000000" font-family="Helvetica" font-size="10" x="994.4629" y="860.626">Validiere Trust Chain, Automatic Registration,</text><text fill="#000000" font-family="Helvetica" font-size="10" x="994.4629" y="872.2666">importiere Schl&#252;ssel (sig/enc) des Fachdienstes</text><line style="stroke:#181818;stroke-width:1;" x1="962.9355" x2="1004.9355" y1="952.5469" y2="952.5469"/><line style="stroke:#181818;stroke-width:1;" x1="1004.9355" x2="1004.9355" y1="952.5469" y2="965.5469"/><line style="stroke:#181818;stroke-width:1;" x1="963.9355" x2="1004.9355" y1="965.5469" y2="965.5469"/><polygon fill="#181818" points="973.9355,961.5469,963.9355,965.5469,973.9355,969.5469,969.9355,965.5469" style="stroke:#181818;stroke-width:1;stroke-linejoin:miter;stroke-miterlimit:10;"/><text fill="#000000" font-family="Helvetica" font-size="10" x="969.9355" y="936.5479">(18)</text><text fill="#000000" font-family="Helvetica" font-size="10" x="994.4629" y="924.9072">Validiere PAR: redirect_uri_as gegen redirect_uris</text><text fill="#000000" font-family="Helvetica" font-size="10" x="994.4629" y="936.5479">im AS-Entity-Statement, scope, claims,</text><text fill="#000000" font-family="Helvetica" font-size="10" x="994.4629" y="948.1885">TLS-Clientzertifikat; erzeuge request_uri</text><polygon fill="#181818" points="535.916,987.1875,525.916,991.1875,535.916,995.1875,531.916,991.1875" style="stroke:#181818;stroke-width:1;stroke-linejoin:miter;stroke-miterlimit:10;"/><line style="stroke:#181818;stroke-width:1;stroke-dasharray:2,2;" x1="529.916" x2="951.9355" y1="991.1875" y2="991.1875"/><text fill="#000000" font-family="Helvetica" font-size="10" x="541.916" y="986.8291">(19)</text><text fill="#000000" font-family="Helvetica" font-size="10" x="566.4434" y="986.8291">201 Created {request_uri, expires_in (max. 90s)}</text><polygon fill="#181818" points="75.5771,1036.1094,65.5771,1040.1094,75.5771,1044.1094,71.5771,1040.1094" style="stroke:#181818;stroke-width:1;stroke-linejoin:miter;stroke-miterlimit:10;"/><line style="stroke:#181818;stroke-width:1;stroke-dasharray:2,2;" x1="69.5771" x2="513.916" y1="1040.1094" y2="1040.1094"/><text fill="#000000" font-family="Helvetica" font-size="10" x="81.5771" y="1024.1104">(20)</text><text fill="#000000" font-family="Helvetica" font-size="10" x="106.1045" y="1012.4697">302 Found Location:</text><text fill="#000000" font-family="Helvetica" font-size="10" x="106.1045" y="1024.1104">&lt;SekIDP Entity Statement authorization_endpoint&gt;</text><text fill="#000000" font-family="Helvetica" font-size="10" x="106.1045" y="1035.751">?client_id&amp;request_uri</text><path d="M23.2729,1053.1094 L23.2729,1074.1094 L993.2729,1074.1094 L993.2729,1063.1094 L983.2729,1053.1094 L23.2729,1053.1094" fill="#FEFFDD" style="stroke:#181818;stroke-width:0.5;"/><path d="M983.2729,1053.1094 L983.2729,1063.1094 L993.2729,1063.1094 L983.2729,1053.1094" fill="#FEFFDD" style="stroke:#181818;stroke-width:0.5;"/><text fill="#000000" font-family="Helvetica" font-size="10" x="332.4741" y="1067.3916">Weiter mit Teildiagramm (B) Abb-ZETA-OIDC-Nutzerauthentisierung.</text><?plantuml-src ZLRPRkCs57tNLzowmDH692LDqG9ramnSBuEWayQ8tIbG611ewTfcBL4gIMNnO7whJ_EM7-ibjLZUflDcK-HT3iyvbzzm4SPvXE3xvrcUn5xCNj9S-_fPEuxp7KoHnn5dIycI1DgzJXTwkLwbac-Ovgc01_mdHwKXGWL_3QSzwCSSXOQ4QnZdQeNHYGFjSU-XKoQ0H_hGcyyz4y6xlntqFNE8ul05tt2KkLXwIJhdCKglIA0SPvu-G-lEha8lorem67wuxG-3_ltx-mS786DIyv1dZCefgs8AMeqgMt1rjK7DRcuS515Gm39gJymvQfGmlOLB_m86j5lHzl73_OVRmV2Xpc5tsuZlSYQZbiKWUFT7xs5Gxzcjn3GsiOMC1-EPs0LdWl8HvKoq3GO4LVp2nHB6TFobqoWMe2ftj-pfhJTw_JT2QQEruDjXRtGv6krXSJiOs_mJNEjKCiBKB55IkX5lAA8i5slTQUsT6jtPGoEimi_47LE4KMjRH87gsPaZKesGKYibq6xHTXS6jDIaoOffklm4HYnSbJTBL1AmeFyn3ua2DM6uMCS-y2WBk5A0SiLYZSAlie9tKmRjmb1kC5yYZ7_h3w4TfX46L0jn2MN0igpZpeHT32b6Z6A9PXMkONBvuq_7jolDjDtLJ6TxEZlhmlX-CeLpGWlQcUIFPkiQNuA_dwZnq6uFc58e3MoTcG3uA55bgL0Ow9SChqtAUYUFN90OSOcX3dB9JLRN73eisTrVIv3O55sRFbnGOPfHsBfqjmBlarEGi6gX2_21nJoYVX7UWChG84-_I-Wz8Y1BZ1vSmhs0LXQVgWAXlSxb9iOvNtQgw8qBkRpu7leIgP38zBvpb68-PzIj2hY0ziQ7Ntr8sBCFFr-epgTzkBlmRaXOir8s-BP6xTht_JUDsDTxUPo3hhz84tMC9Ue4ILI38ye5aOeG7IVDD0p9m_GBJCotf62tiWhCnHpNJ0Xj7Q8kZJuPHjac_IUCOsyjqYTnJbSfUEGjQldPOoQGLpNaUTt3T6t5bu9gr9tTFAExAiqsPB107Qu2adEMSg7Vgdn-VLLoviOU9nFuShggkpgj2rl7WC8mzYefBsFBmAdCIUxz5UE2A9jaAUd6h4ye9DEvL6GDhvz9J_5Cv6GzzsFlZdmneXg47IkUkpjpwFyqNQFOcbjLfx4kf-5MjXRNVe4z4IhWTin9KaMnRY9N4Us7GzEcYMaYTc3n-baQOwEmPBi68VC1-aGZ6CNfaq_T8Jnn6L77ns7jJQ1jR3AoiwW3IwIWAwb_CRctSJFv-dcXOOuKXx1m8PqVT89S89Jqmvslm785b45XGY5x4wyenTkMGYZurl4DQWrDbSGjh90IGpkPlYSiwPeMWM43He6ELL3v8PqZA_nuqlIKMJWmoIEI_A89aYeB5mnZnXFQoq8PFBAOZA6KQMsGP8kd5Ri5dlxiIjTgSDUT_b-uMukauzsloBcdupBfLwkuXdb7nnJbf8g_8hij_OHkgS4qeNf24iIIE5FKHlVH57GjP9lW74NOESXTIFHuHg9Pzu3SIroI3pHNbSbwZCprZ2pPCHD4sV8PiZ7ZUi7NZ0HsPEWv1zPxQiRjphV6P3kOaoRA3nUNC4gDhRrFGujPToQkIcqVN1HhsbnzvJSpiHsBpP7e77cOMKZ_H6vUk-RHlllW_xMpzox_FJV8iF9rhegtkU_y1m00?></g></svg>