<svg xmlns="http://www.w3.org/2000/svg" xmlns:xlink="http://www.w3.org/1999/xlink" contentStyleType="text/css" data-diagram-type="SEQUENCE" height="940px" preserveAspectRatio="none" style="width:1324px;height:940px;background:#FFFFFF;" version="1.1" viewBox="0 0 1324 940" width="1324px" zoomAndPan="magnify"><?plantuml 1.2026.4?><defs/><g><rect fill="#FEFCFF" height="914.9844" style="stroke:#181818;stroke-width:0.5;" width="437.2642" x="31.6167" y="11"/><text fill="#000000" font-family="Helvetica" font-size="10" font-weight="700" x="231.3792" y="20.2822">Device</text><rect fill="#E6E6FA" height="898.3438" style="stroke:#181818;stroke-width:0.5;" width="102.1934" x="366.6875" y="27.6406"/><text fill="#000000" font-family="Helvetica" font-size="10" font-weight="700" x="378.6875" y="36.9229">Prim&#228;rsystem</text><rect fill="#EDFDEC" height="914.9844" style="stroke:#181818;stroke-width:0.5;" width="147.7842" x="833.6792" y="11"/><text fill="#000000" font-family="Helvetica" font-size="10" font-weight="700" x="845.6792" y="20.2822">Anbieter TI 2.0 Dienst</text><rect fill="#FFF3E5" height="898.3438" style="stroke:#181818;stroke-width:0.5;" width="147.7842" x="833.6792" y="27.6406"/><text fill="#000000" font-family="Helvetica" font-size="10" font-weight="700" x="874.4268" y="36.9229">ZETA Guard</text><g><title>TPM</title><rect fill="#000000" fill-opacity="0.00000" height="800.1406" width="8" x="49.5" y="81.5625"/><line style="stroke:#000000;stroke-width:0.5;stroke-dasharray:5,5;" x1="53" x2="53" y1="81.5625" y2="881.7031"/></g><g><title/><rect fill="#FFFFFF" height="25.6406" style="stroke:#181818;stroke-width:1;" width="10" x="48" y="363.25"/></g><g><title>ZAS</title><rect fill="#000000" fill-opacity="0.00000" height="800.1406" width="8" x="233.0029" y="81.5625"/><line style="stroke:#000000;stroke-width:0.5;stroke-dasharray:5,5;" x1="236.5029" x2="236.5029" y1="81.5625" y2="881.7031"/></g><g><title/><rect fill="#FFFFFF" height="88.5625" style="stroke:#181818;stroke-width:1;" width="10" x="231.5029" y="325.9688"/></g><g><title>ZETA Client</title><rect fill="#000000" fill-opacity="0.00000" height="800.1406" width="8" x="414.2842" y="81.5625"/><line style="stroke:#000000;stroke-width:0.5;stroke-dasharray:5,5;" x1="417.7842" x2="417.7842" y1="81.5625" y2="881.7031"/></g><g><title/><rect fill="#FFFFFF" height="736.8594" style="stroke:#181818;stroke-width:1;" width="10" x="412.7842" y="144.8438"/></g><g><title>PDP</title><rect fill="#000000" fill-opacity="0.00000" height="800.1406" width="8" x="904.0713" y="81.5625"/><line style="stroke:#000000;stroke-width:0.5;stroke-dasharray:5,5;" x1="907.5713" x2="907.5713" y1="81.5625" y2="881.7031"/></g><g><title/><rect fill="#FFFFFF" height="677.9375" style="stroke:#181818;stroke-width:1;" width="10" x="902.5713" y="185.7656"/></g><rect fill="#E4E4F4" height="25.6406" rx="2.5" ry="2.5" style="stroke:#181818;stroke-width:0.5;" width="34.7666" x="35.6167" y="54.9219"/><text fill="#000000" font-family="Helvetica" font-size="10" x="42.6167" y="71.2041">TPM</text><rect fill="#FFE6CC" height="25.6406" rx="2.5" ry="2.5" style="stroke:#D79B00;stroke-width:0.5;" width="34.0391" x="219.4834" y="54.9219"/><text fill="#000000" font-family="Helvetica" font-size="10" x="226.4834" y="71.2041">ZAS</text><rect fill="#FFE6CC" height="25.6406" rx="2.5" ry="2.5" style="stroke:#D79B00;stroke-width:0.5;" width="72.2471" x="381.6606" y="54.9219"/><text fill="#000000" font-family="Helvetica" font-size="10" x="388.6606" y="71.2041">ZETA Client</text><rect fill="#FFE6CC" height="37.2813" rx="2.5" ry="2.5" style="stroke:#D79B00;stroke-width:0.5;" width="116.9492" x="849.0967" y="43.2813"/><text fill="#000000" font-family="Helvetica" font-size="10" x="897.6909" y="59.5635">PDP</text><text fill="#000000" font-family="Helvetica" font-size="10" x="856.0967" y="71.2041">Authorization Server</text><rect fill="#E4E4F4" height="25.6406" rx="2.5" ry="2.5" style="stroke:#181818;stroke-width:0.5;" width="34.7666" x="35.6167" y="881.7031"/><text fill="#000000" font-family="Helvetica" font-size="10" x="42.6167" y="897.9854">TPM</text><rect fill="#FFE6CC" height="25.6406" rx="2.5" ry="2.5" style="stroke:#D79B00;stroke-width:0.5;" width="34.0391" x="219.4834" y="881.7031"/><text fill="#000000" font-family="Helvetica" font-size="10" x="226.4834" y="897.9854">ZAS</text><rect fill="#FFE6CC" height="25.6406" rx="2.5" ry="2.5" style="stroke:#D79B00;stroke-width:0.5;" width="72.2471" x="381.6606" y="881.7031"/><text fill="#000000" font-family="Helvetica" font-size="10" x="388.6606" y="897.9854">ZETA Client</text><rect fill="#FFE6CC" height="37.2813" rx="2.5" ry="2.5" style="stroke:#D79B00;stroke-width:0.5;" width="116.9492" x="849.0967" y="881.7031"/><text fill="#000000" font-family="Helvetica" font-size="10" x="897.6909" y="897.9854">PDP</text><text fill="#000000" font-family="Helvetica" font-size="10" x="856.0967" y="909.626">Authorization Server</text><path d="M13,93.5625 L72.9561,93.5625 L72.9561,97.2031 L62.9561,107.2031 L13,107.2031 L13,93.5625" fill="#EEEEEE" style="stroke:#000000;stroke-width:1.5;"/><rect fill="none" height="699.8594" style="stroke:#000000;stroke-width:1.5;" width="1291.9844" x="13" y="93.5625"/><text fill="#000000" font-family="Helvetica" font-size="10" font-weight="700" x="28" y="103.8447">alt</text><text fill="#000000" font-family="Helvetica" font-size="10" font-weight="700" x="87.9561" y="104.8447">[Kein ZETA Guard Attestation Token]</text><line style="stroke:#000000;stroke-width:1;stroke-dasharray:2,2;" x1="13" x2="1304.9844" y1="636.9375" y2="636.9375"/><text fill="#000000" font-family="Helvetica" font-size="10" font-weight="700" x="18" y="648.2197">[ZETA Attestation Token vorhanden]</text><path d="M32,121.2031 L91.9561,121.2031 L91.9561,124.8438 L81.9561,134.8438 L32,134.8438 L32,121.2031" fill="#EEEEEE" style="stroke:#000000;stroke-width:1.5;"/><rect fill="none" height="490.7344" style="stroke:#000000;stroke-width:1.5;" width="1212.4082" x="32" y="121.2031"/><text fill="#000000" font-family="Helvetica" font-size="10" font-weight="700" x="47" y="131.4854">alt</text><text fill="#000000" font-family="Helvetica" font-size="10" font-weight="700" x="106.9561" y="132.4854">[Hardware Attestation: Windows / Linux (TPM)]</text><line style="stroke:#000000;stroke-width:1;stroke-dasharray:2,2;" x1="32" x2="1244.4082" y1="497.8125" y2="497.8125"/><text fill="#000000" font-family="Helvetica" font-size="10" font-weight="700" x="37" y="509.0947">[Software Attestation (Legacy OIDC DCR)]</text><polygon fill="#181818" points="890.5713,181.7656,900.5713,185.7656,890.5713,189.7656,894.5713,185.7656" style="stroke:#181818;stroke-width:1;stroke-linejoin:miter;stroke-miterlimit:10;"/><line style="stroke:#181818;stroke-width:1;" x1="422.7842" x2="896.5713" y1="185.7656" y2="185.7656"/><text fill="#000000" font-family="Helvetica" font-size="10" x="429.7842" y="169.7666">(01)</text><text fill="#000000" font-family="Helvetica" font-size="10" x="454.3115" y="158.126">POST /register</text><text fill="#000000" font-family="Helvetica" font-size="10" x="454.3115" y="169.7666">{attestation_type="tpm", PuK.EK.Enc, C.EK.Enc,</text><text fill="#000000" font-family="Helvetica" font-size="10" x="454.3115" y="181.4072">PuK.AK.Sig, PuK.Client.Sig, signed_Hash_PuK.Client.Sig}</text><line style="stroke:#181818;stroke-width:1;" x1="912.5713" x2="954.5713" y1="211.4063" y2="211.4063"/><line style="stroke:#181818;stroke-width:1;" x1="954.5713" x2="954.5713" y1="211.4063" y2="224.4063"/><line style="stroke:#181818;stroke-width:1;" x1="913.5713" x2="954.5713" y1="224.4063" y2="224.4063"/><polygon fill="#181818" points="923.5713,220.4063,913.5713,224.4063,923.5713,228.4063,919.5713,224.4063" style="stroke:#181818;stroke-width:1;stroke-linejoin:miter;stroke-miterlimit:10;"/><text fill="#000000" font-family="Helvetica" font-size="10" x="919.5713" y="207.0479">(02)</text><text fill="#000000" font-family="Helvetica" font-size="10" x="944.0986" y="207.0479">Validiere C.EK.Enc-Chain &amp; signed_Hash_PuK.Client.Sig</text><line style="stroke:#181818;stroke-width:1;" x1="912.5713" x2="954.5713" y1="261.6875" y2="261.6875"/><line style="stroke:#181818;stroke-width:1;" x1="954.5713" x2="954.5713" y1="261.6875" y2="274.6875"/><line style="stroke:#181818;stroke-width:1;" x1="913.5713" x2="954.5713" y1="274.6875" y2="274.6875"/><polygon fill="#181818" points="923.5713,270.6875,913.5713,274.6875,923.5713,278.6875,919.5713,274.6875" style="stroke:#181818;stroke-width:1;stroke-linejoin:miter;stroke-miterlimit:10;"/><text fill="#000000" font-family="Helvetica" font-size="10" x="919.5713" y="251.5088">(03)</text><text fill="#000000" font-family="Helvetica" font-size="10" x="944.0986" y="245.6885">CredentialBlob = MakeCredential(...);</text><text fill="#000000" font-family="Helvetica" font-size="10" x="944.0986" y="257.3291">(TPM 2.0 Commands, Section 12.5)</text><polygon fill="#181818" points="433.7842,296.3281,423.7842,300.3281,433.7842,304.3281,429.7842,300.3281" style="stroke:#181818;stroke-width:1;stroke-linejoin:miter;stroke-miterlimit:10;"/><line style="stroke:#181818;stroke-width:1;stroke-dasharray:2,2;" x1="427.7842" x2="901.5713" y1="300.3281" y2="300.3281"/><text fill="#000000" font-family="Helvetica" font-size="10" x="439.7842" y="295.9697">(04)</text><text fill="#000000" font-family="Helvetica" font-size="10" x="464.3115" y="295.9697">202 Accepted {CredentialBlob}</text><polygon fill="#181818" points="252.5029,321.9688,242.5029,325.9688,252.5029,329.9688,248.5029,325.9688" style="stroke:#181818;stroke-width:1;stroke-linejoin:miter;stroke-miterlimit:10;"/><line style="stroke:#181818;stroke-width:1;" x1="246.5029" x2="411.7842" y1="325.9688" y2="325.9688"/><text fill="#000000" font-family="Helvetica" font-size="10" x="258.5029" y="321.6104">(05)</text><text fill="#000000" font-family="Helvetica" font-size="10" x="283.0303" y="321.6104">Activate(CredentialBlob)</text><polygon fill="#181818" points="69,359.25,59,363.25,69,367.25,65,363.25" style="stroke:#181818;stroke-width:1;stroke-linejoin:miter;stroke-miterlimit:10;"/><line style="stroke:#181818;stroke-width:1;" x1="63" x2="230.5029" y1="363.25" y2="363.25"/><text fill="#000000" font-family="Helvetica" font-size="10" x="75" y="353.0713">(06)</text><text fill="#000000" font-family="Helvetica" font-size="10" x="99.5273" y="347.251">TPM2_ActivateCredential</text><text fill="#000000" font-family="Helvetica" font-size="10" x="99.5273" y="358.8916">(CredentialBlob)</text><polygon fill="#181818" points="219.5029,384.8906,229.5029,388.8906,219.5029,392.8906,223.5029,388.8906" style="stroke:#181818;stroke-width:1;stroke-linejoin:miter;stroke-miterlimit:10;"/><line style="stroke:#181818;stroke-width:1;stroke-dasharray:2,2;" x1="58" x2="225.5029" y1="388.8906" y2="388.8906"/><text fill="#000000" font-family="Helvetica" font-size="10" x="65" y="384.5322">(07)</text><text fill="#000000" font-family="Helvetica" font-size="10" x="89.5273" y="384.5322">Secret</text><polygon fill="#181818" points="400.7842,410.5313,410.7842,414.5313,400.7842,418.5313,404.7842,414.5313" style="stroke:#181818;stroke-width:1;stroke-linejoin:miter;stroke-miterlimit:10;"/><line style="stroke:#181818;stroke-width:1;stroke-dasharray:2,2;" x1="241.5029" x2="406.7842" y1="414.5313" y2="414.5313"/><text fill="#000000" font-family="Helvetica" font-size="10" x="248.5029" y="410.1729">(08)</text><text fill="#000000" font-family="Helvetica" font-size="10" x="273.0303" y="410.1729">Secret</text><polygon fill="#181818" points="890.5713,436.1719,900.5713,440.1719,890.5713,444.1719,894.5713,440.1719" style="stroke:#181818;stroke-width:1;stroke-linejoin:miter;stroke-miterlimit:10;"/><line style="stroke:#181818;stroke-width:1;" x1="422.7842" x2="896.5713" y1="440.1719" y2="440.1719"/><text fill="#000000" font-family="Helvetica" font-size="10" x="429.7842" y="435.8135">(09)</text><text fill="#000000" font-family="Helvetica" font-size="10" x="454.3115" y="435.8135">POST /register/verify {Secret}</text><line style="stroke:#181818;stroke-width:1;" x1="912.5713" x2="954.5713" y1="465.8125" y2="465.8125"/><line style="stroke:#181818;stroke-width:1;" x1="954.5713" x2="954.5713" y1="465.8125" y2="478.8125"/><line style="stroke:#181818;stroke-width:1;" x1="913.5713" x2="954.5713" y1="478.8125" y2="478.8125"/><polygon fill="#181818" points="923.5713,474.8125,913.5713,478.8125,923.5713,482.8125,919.5713,478.8125" style="stroke:#181818;stroke-width:1;stroke-linejoin:miter;stroke-miterlimit:10;"/><text fill="#000000" font-family="Helvetica" font-size="10" x="919.5713" y="461.4541">(10)</text><text fill="#000000" font-family="Helvetica" font-size="10" x="944.0986" y="461.4541">Secret korrekt? &#8594; PuK.Client.Sig hardware-gebunden &#10003;</text><polygon fill="#181818" points="890.5713,599.9375,900.5713,603.9375,890.5713,607.9375,894.5713,603.9375" style="stroke:#181818;stroke-width:1;stroke-linejoin:miter;stroke-miterlimit:10;"/><line style="stroke:#181818;stroke-width:1;" x1="422.7842" x2="896.5713" y1="603.9375" y2="603.9375"/><text fill="#000000" font-family="Helvetica" font-size="10" x="429.7842" y="564.6572">(11)</text><text fill="#000000" font-family="Helvetica" font-size="10" x="454.3115" y="529.7354">POST /register</text><text fill="#000000" font-family="Helvetica" font-size="10" x="454.3115" y="541.376">{</text><text fill="#000000" font-family="Helvetica" font-size="10" x="460.6689" y="553.0166">"client_name": "myClient",</text><text fill="#000000" font-family="Helvetica" font-size="10" x="460.6689" y="564.6572">"grant_types": ["urn:ietf:params:oauth:grant-type:token-exchange", "refresh_token"],</text><text fill="#000000" font-family="Helvetica" font-size="10" x="460.6689" y="576.2979">"jwks": { "keys": [ PuK.Client.Sig ] },</text><text fill="#000000" font-family="Helvetica" font-size="10" x="460.6689" y="587.9385">"token_endpoint_auth_method": "private_key_jwt"</text><text fill="#000000" font-family="Helvetica" font-size="10" x="454.3115" y="599.5791">}</text><polygon fill="#181818" points="890.5713,704.1406,900.5713,708.1406,890.5713,712.1406,894.5713,708.1406" style="stroke:#181818;stroke-width:1;stroke-linejoin:miter;stroke-miterlimit:10;"/><line style="stroke:#181818;stroke-width:1;" x1="422.7842" x2="896.5713" y1="708.1406" y2="708.1406"/><text fill="#000000" font-family="Helvetica" font-size="10" x="429.7842" y="686.3213">(12)</text><text fill="#000000" font-family="Helvetica" font-size="10" x="454.3115" y="668.8604">POST /register</text><text fill="#000000" font-family="Helvetica" font-size="10" x="454.3115" y="680.501">{attestation_type="zeta_attestation_token",</text><text fill="#000000" font-family="Helvetica" font-size="10" x="454.3115" y="692.1416">zeta_guard_attestation_token, PuK.Client.Sig,</text><text fill="#000000" font-family="Helvetica" font-size="10" x="454.3115" y="703.7822">signed_Hash_PuK.Client.Sig}</text><line style="stroke:#181818;stroke-width:1;" x1="912.5713" x2="954.5713" y1="733.7813" y2="733.7813"/><line style="stroke:#181818;stroke-width:1;" x1="954.5713" x2="954.5713" y1="733.7813" y2="746.7813"/><line style="stroke:#181818;stroke-width:1;" x1="913.5713" x2="954.5713" y1="746.7813" y2="746.7813"/><polygon fill="#181818" points="923.5713,742.7813,913.5713,746.7813,923.5713,750.7813,919.5713,746.7813" style="stroke:#181818;stroke-width:1;stroke-linejoin:miter;stroke-miterlimit:10;"/><text fill="#000000" font-family="Helvetica" font-size="10" x="919.5713" y="729.4229">(13)</text><text fill="#000000" font-family="Helvetica" font-size="10" x="944.0986" y="729.4229">Pr&#252;fe Token-Signatur &amp; Vertrauensstellung</text><line style="stroke:#181818;stroke-width:1;" x1="912.5713" x2="954.5713" y1="772.4219" y2="772.4219"/><line style="stroke:#181818;stroke-width:1;" x1="954.5713" x2="954.5713" y1="772.4219" y2="785.4219"/><line style="stroke:#181818;stroke-width:1;" x1="913.5713" x2="954.5713" y1="785.4219" y2="785.4219"/><polygon fill="#181818" points="923.5713,781.4219,913.5713,785.4219,923.5713,789.4219,919.5713,785.4219" style="stroke:#181818;stroke-width:1;stroke-linejoin:miter;stroke-miterlimit:10;"/><text fill="#000000" font-family="Helvetica" font-size="10" x="919.5713" y="768.0635">(14)</text><text fill="#000000" font-family="Helvetica" font-size="10" x="944.0986" y="768.0635">Extrahiere PuK.AK.Sig aus Token, pr&#252;fe signed_Hash_PuK.Client.Sig</text><line style="stroke:#181818;stroke-width:1;" x1="912.5713" x2="954.5713" y1="825.0625" y2="825.0625"/><line style="stroke:#181818;stroke-width:1;" x1="954.5713" x2="954.5713" y1="825.0625" y2="838.0625"/><line style="stroke:#181818;stroke-width:1;" x1="913.5713" x2="954.5713" y1="838.0625" y2="838.0625"/><polygon fill="#181818" points="923.5713,834.0625,913.5713,838.0625,923.5713,842.0625,919.5713,838.0625" style="stroke:#181818;stroke-width:1;stroke-linejoin:miter;stroke-miterlimit:10;"/><text fill="#000000" font-family="Helvetica" font-size="10" x="919.5713" y="820.7041">(15)</text><text fill="#000000" font-family="Helvetica" font-size="10" x="944.0986" y="820.7041">Store Client Placeholder (state: pending_user_binding)</text><polygon fill="#181818" points="433.7842,859.7031,423.7842,863.7031,433.7842,867.7031,429.7842,863.7031" style="stroke:#181818;stroke-width:1;stroke-linejoin:miter;stroke-miterlimit:10;"/><line style="stroke:#181818;stroke-width:1;stroke-dasharray:2,2;" x1="427.7842" x2="901.5713" y1="863.7031" y2="863.7031"/><text fill="#000000" font-family="Helvetica" font-size="10" x="439.7842" y="859.3447">(16)</text><text fill="#000000" font-family="Helvetica" font-size="10" x="464.3115" y="859.3447">201 Created {client_id}</text><?plantuml-src ZLNTZjf65BxtKvpweW8jzcwGSkCcMxbW9MYNW81krPR86ko3cM36Q3pUXQpsjW-GtFQoZz6xl4cUf6TcO0cmR8gGXfdpdU_yp9cF7xX8yYf5yFtpPRN8lPojYqhvQgKSnvaKAt3RUCiJTA4TtNHQKTpgNVS63i2IISKJlcH2WJlgTrrW9T0Arr67GDr-xrtqRlGa_8zmgC4khIwyUlKH5Rky98m9rvTyyUKVMQvBXGiN-eDEDum6mz-7ewZxoBRFryevqc8eer6usUzHeqWrlRDTRMcXc71KA67KWQP_0MtoAvKEshlfjAF1Opo3DjnlAYPJ5_Jl-CsluQ1z8gUmKZDRPR_T7mkzBIJ_o1Gl10nHtg9yFa6MAxX2Bc0N5aAbi5IMOrJCKPYm6lcMp7TCuhUG07xZ8YtkIZY7Qowg5TJeVkh6HtzicyxE3Wx0kxJPdvq5qEyDHt0kCUDq7N8ixjcEFrRh9RvsrNBXDg1VNVaHVKNIWDRsrrZeu_3A7_BCGcm8kozv9Z2Dtx9o5k_R7XvJictSPXJ03Sjvof4AtGRnMZD6NVhn6RgJR2s9AM4uot_9YmcyXYwRu-wmvlj-_QUnq6qpyz4g5Wicqh91DvYOMtZHz5_M3_afW0qUGFEY2M6Iu59X2lVxyHwS9pfFRqBtFIJwMwQmjk-o2wNV4C4fCmsdfHblVNOkbFefVrsIP-DvNg3haQZssH_B-0PmQbOE9-MSvfjFrt1l_KvVgBN3l90Iv-fd-FhNfuD1WTbcjhqC9vMWQk3htvzj9fYN2CDYgWvd7shNcB5a3RrEkmNjrg3-VpEd6HyB03Sni5Ym1Re1k8lrHbKQnff9UkJc0PHa_TEjf0X8IgO1QG1Rb471Y3imA4-Z0gMVguUhPCP4XlHWN8bJYJIhnkA-jxmVxkQQy1xSEQuDzM4ttiE3XHg_cFHYMN3AHGUC5qWoa-fybzBCGamqyOSxvOw5lGF2Euvfcz6L8qM1sq9IYkb6MxxVh6D1q9eMxnsR2YbhOycqb1tRZ_HXBBud48Upr9TV_fsYhSCZb62gagGCDoYLP1LfE-MSvvN8ddIFLeIQ6N7PoHQmghIC3LXQ_cU4ndJtQCHLeVNAThAVimHdHPxIlqvDDm03M98R5rbSbIZZ2JURkdCe9leLDYzUQD5YHaqs4yhJ1-S_?></g></svg>