<svg xmlns="http://www.w3.org/2000/svg" xmlns:xlink="http://www.w3.org/1999/xlink" contentStyleType="text/css" data-diagram-type="SEQUENCE" height="850px" preserveAspectRatio="none" style="width:957px;height:850px;background:#FFFFFF;" version="1.1" viewBox="0 0 957 850" width="957px" zoomAndPan="magnify"><?plantuml 1.2026.6?><defs/><g><rect fill="#FEFCFF" height="824.3438" style="stroke:#181818;stroke-width:0.5;" width="619.293" x="16" y="11"/><text fill="#000000" font-family="Helvetica" font-size="10" font-weight="700" x="306.7769" y="20.2822">Device</text><rect fill="#E6E6FA" height="807.7031" style="stroke:#181818;stroke-width:0.5;" width="102.1934" x="533.0996" y="27.6406"/><text fill="#000000" font-family="Helvetica" font-size="10" font-weight="700" x="545.0996" y="36.9229">Prim&#228;rsystem</text><rect fill="#EDFDEC" height="824.3438" style="stroke:#181818;stroke-width:0.5;" width="147.7842" x="804.2515" y="11"/><text fill="#000000" font-family="Helvetica" font-size="10" font-weight="700" x="816.2515" y="20.2822">Anbieter TI 2.0 Dienst</text><rect fill="#FFF3E5" height="807.7031" style="stroke:#181818;stroke-width:0.5;" width="147.7842" x="804.2515" y="27.6406"/><text fill="#000000" font-family="Helvetica" font-size="10" font-weight="700" x="844.999" y="36.9229">ZETA Guard</text><g><title>TEE . StrongBox</title><rect fill="#000000" fill-opacity="0.00000" height="709.5" width="8" x="73.8613" y="81.5625"/><line style="stroke:#000000;stroke-width:0.5;stroke-dasharray:5,5;" x1="77.3613" x2="77.3613" y1="81.5625" y2="791.0625"/></g><g><title/><rect fill="#FFFFFF" height="701.5" style="stroke:#181818;stroke-width:1;" width="10" x="72.3613" y="89.5625"/></g><g><title>OS .Android.</title><rect fill="#000000" fill-opacity="0.00000" height="709.5" width="8" x="253.1113" y="81.5625"/><line style="stroke:#000000;stroke-width:0.5;stroke-dasharray:5,5;" x1="256.6113" x2="256.6113" y1="81.5625" y2="791.0625"/></g><g><title/><rect fill="#FFFFFF" height="701.5" style="stroke:#181818;stroke-width:1;" width="10" x="251.6113" y="89.5625"/></g><g><title>ZETA Client</title><rect fill="#000000" fill-opacity="0.00000" height="709.5" width="8" x="580.6963" y="81.5625"/><line style="stroke:#000000;stroke-width:0.5;stroke-dasharray:5,5;" x1="584.1963" x2="584.1963" y1="81.5625" y2="791.0625"/></g><g><title/><rect fill="#FFFFFF" height="701.5" style="stroke:#181818;stroke-width:1;" width="10" x="579.1963" y="89.5625"/></g><g><title>PDP</title><rect fill="#000000" fill-opacity="0.00000" height="709.5" width="8" x="874.6436" y="81.5625"/><line style="stroke:#000000;stroke-width:0.5;stroke-dasharray:5,5;" x1="878.1436" x2="878.1436" y1="81.5625" y2="791.0625"/></g><g><title/><rect fill="#FFFFFF" height="25.6406" style="stroke:#181818;stroke-width:1;" width="10" x="873.1436" y="107.2031"/></g><rect fill="#E4E4F4" height="37.2813" rx="2.5" ry="2.5" style="stroke:#181818;stroke-width:0.5;" width="114.7227" x="20" y="43.2813"/><text fill="#000000" font-family="Helvetica" font-size="10" x="37.0854" y="59.5635">TEE / StrongBox</text><text fill="#000000" font-family="Helvetica" font-size="10" x="27" y="71.2041">(Hardware Security)</text><rect fill="#E4E4F4" height="25.6406" rx="2.5" ry="2.5" style="stroke:#181818;stroke-width:0.5;" width="78.082" x="217.5703" y="54.9219"/><text fill="#000000" font-family="Helvetica" font-size="10" x="224.5703" y="71.2041">OS (Android)</text><rect fill="#FFE6CC" height="25.6406" rx="2.5" ry="2.5" style="stroke:#D79B00;stroke-width:0.5;" width="72.2471" x="548.0728" y="54.9219"/><text fill="#000000" font-family="Helvetica" font-size="10" x="555.0728" y="71.2041">ZETA Client</text><rect fill="#FFE6CC" height="37.2813" rx="2.5" ry="2.5" style="stroke:#D79B00;stroke-width:0.5;" width="116.9492" x="819.6689" y="43.2813"/><text fill="#000000" font-family="Helvetica" font-size="10" x="868.2632" y="59.5635">PDP</text><text fill="#000000" font-family="Helvetica" font-size="10" x="826.6689" y="71.2041">Authorization Server</text><rect fill="#E4E4F4" height="37.2813" rx="2.5" ry="2.5" style="stroke:#181818;stroke-width:0.5;" width="114.7227" x="20" y="791.0625"/><text fill="#000000" font-family="Helvetica" font-size="10" x="37.0854" y="807.3447">TEE / StrongBox</text><text fill="#000000" font-family="Helvetica" font-size="10" x="27" y="818.9854">(Hardware Security)</text><rect fill="#E4E4F4" height="25.6406" rx="2.5" ry="2.5" style="stroke:#181818;stroke-width:0.5;" width="78.082" x="217.5703" y="791.0625"/><text fill="#000000" font-family="Helvetica" font-size="10" x="224.5703" y="807.3447">OS (Android)</text><rect fill="#FFE6CC" height="25.6406" rx="2.5" ry="2.5" style="stroke:#D79B00;stroke-width:0.5;" width="72.2471" x="548.0728" y="791.0625"/><text fill="#000000" font-family="Helvetica" font-size="10" x="555.0728" y="807.3447">ZETA Client</text><rect fill="#FFE6CC" height="37.2813" rx="2.5" ry="2.5" style="stroke:#D79B00;stroke-width:0.5;" width="116.9492" x="819.6689" y="791.0625"/><text fill="#000000" font-family="Helvetica" font-size="10" x="868.2632" y="807.3447">PDP</text><text fill="#000000" font-family="Helvetica" font-size="10" x="826.6689" y="818.9854">Authorization Server</text><polygon fill="#181818" points="861.1436,103.2031,871.1436,107.2031,861.1436,111.2031,865.1436,107.2031" style="stroke:#181818;stroke-width:1;stroke-linejoin:miter;stroke-miterlimit:10;"/><line style="stroke:#181818;stroke-width:1;" x1="589.1963" x2="867.1436" y1="107.2031" y2="107.2031"/><text fill="#000000" font-family="Helvetica" font-size="10" x="596.1963" y="102.8447">(01)</text><text fill="#000000" font-family="Helvetica" font-size="10" x="620.7236" y="102.8447">GET /nonce</text><polygon fill="#181818" points="600.1963,128.8438,590.1963,132.8438,600.1963,136.8438,596.1963,132.8438" style="stroke:#181818;stroke-width:1;stroke-linejoin:miter;stroke-miterlimit:10;"/><line style="stroke:#181818;stroke-width:1;stroke-dasharray:2,2;" x1="594.1963" x2="872.1436" y1="132.8438" y2="132.8438"/><text fill="#000000" font-family="Helvetica" font-size="10" x="606.1963" y="128.4854">(02)</text><text fill="#000000" font-family="Helvetica" font-size="10" x="630.7236" y="128.4854">Nonce</text><path d="M61.3613,144.8438 L121.3174,144.8438 L121.3174,148.4844 L111.3174,158.4844 L61.3613,158.4844 L61.3613,144.8438" fill="#EEEEEE" style="stroke:#000000;stroke-width:1.5;"/><rect fill="none" height="622.2188" style="stroke:#000000;stroke-width:1.5;" width="832.7822" x="61.3613" y="144.8438"/><text fill="#000000" font-family="Helvetica" font-size="10" font-weight="700" x="76.3613" y="155.126">alt</text><text fill="#000000" font-family="Helvetica" font-size="10" font-weight="700" x="136.3174" y="156.126">[Android Key / ID Attestation]</text><line style="stroke:#000000;stroke-width:1;stroke-dasharray:2,2;" x1="61.3613" x2="894.1436" y1="698.1406" y2="698.1406"/><text fill="#000000" font-family="Helvetica" font-size="10" font-weight="700" x="66.3613" y="709.4229">[Software Attestation (Fallback)]</text><polygon fill="#181818" points="272.6113,217.0469,262.6113,221.0469,272.6113,225.0469,268.6113,221.0469" style="stroke:#181818;stroke-width:1;stroke-linejoin:miter;stroke-miterlimit:10;"/><line style="stroke:#181818;stroke-width:1;" x1="266.6113" x2="578.1963" y1="221.0469" y2="221.0469"/><text fill="#000000" font-family="Helvetica" font-size="10" x="278.6113" y="199.2275">(03)</text><text fill="#000000" font-family="Helvetica" font-size="10" x="303.1387" y="181.7666">Ermittle Posture</text><text fill="#000000" font-family="Helvetica" font-size="10" x="303.1387" y="193.4072">(OS-Version, Security Patch Level,</text><text fill="#000000" font-family="Helvetica" font-size="10" x="303.1387" y="205.0479">Hersteller, Modell, Verified Boot,</text><text fill="#000000" font-family="Helvetica" font-size="10" x="303.1387" y="216.6885">App-Signaturinformationen)</text><polygon fill="#181818" points="567.1963,242.6875,577.1963,246.6875,567.1963,250.6875,571.1963,246.6875" style="stroke:#181818;stroke-width:1;stroke-linejoin:miter;stroke-miterlimit:10;"/><line style="stroke:#181818;stroke-width:1;stroke-dasharray:2,2;" x1="261.6113" x2="573.1963" y1="246.6875" y2="246.6875"/><text fill="#000000" font-family="Helvetica" font-size="10" x="268.6113" y="242.3291">(04)</text><text fill="#000000" font-family="Helvetica" font-size="10" x="293.1387" y="242.3291">Posture-Daten (Klartext)</text><line style="stroke:#181818;stroke-width:1;" x1="589.1963" x2="631.1963" y1="283.9688" y2="283.9688"/><line style="stroke:#181818;stroke-width:1;" x1="631.1963" x2="631.1963" y1="283.9688" y2="296.9688"/><line style="stroke:#181818;stroke-width:1;" x1="590.1963" x2="631.1963" y1="296.9688" y2="296.9688"/><polygon fill="#181818" points="600.1963,292.9688,590.1963,296.9688,600.1963,300.9688,596.1963,296.9688" style="stroke:#181818;stroke-width:1;stroke-linejoin:miter;stroke-miterlimit:10;"/><text fill="#000000" font-family="Helvetica" font-size="10" x="596.1963" y="273.79">(05)</text><text fill="#000000" font-family="Helvetica" font-size="10" x="620.7236" y="267.9697">clientDataHash =</text><text fill="#000000" font-family="Helvetica" font-size="10" x="620.7236" y="279.6104">SHA-256(Nonce || Posture-Daten || PuK.Client.Sig)</text><polygon fill="#181818" points="272.6113,341.8906,262.6113,345.8906,272.6113,349.8906,268.6113,345.8906" style="stroke:#181818;stroke-width:1;stroke-linejoin:miter;stroke-miterlimit:10;"/><line style="stroke:#181818;stroke-width:1;" x1="266.6113" x2="578.1963" y1="345.8906" y2="345.8906"/><text fill="#000000" font-family="Helvetica" font-size="10" x="278.6113" y="329.8916">(06)</text><text fill="#000000" font-family="Helvetica" font-size="10" x="303.1387" y="318.251">Signature.sign(</text><text fill="#000000" font-family="Helvetica" font-size="10" x="309.4961" y="329.8916">KeyStore.getKey(Alias_AK),</text><text fill="#000000" font-family="Helvetica" font-size="10" x="309.4961" y="341.5322">clientDataHash)</text><polygon fill="#181818" points="93.3613,379.1719,83.3613,383.1719,93.3613,387.1719,89.3613,383.1719" style="stroke:#181818;stroke-width:1;stroke-linejoin:miter;stroke-miterlimit:10;"/><line style="stroke:#181818;stroke-width:1;" x1="87.3613" x2="250.6113" y1="383.1719" y2="383.1719"/><text fill="#000000" font-family="Helvetica" font-size="10" x="99.3613" y="372.9932">(07)</text><text fill="#000000" font-family="Helvetica" font-size="10" x="123.8887" y="367.1729">Signiere clientDataHash</text><text fill="#000000" font-family="Helvetica" font-size="10" x="123.8887" y="378.8135">mit PrK.AK.Sig</text><polygon fill="#181818" points="239.6113,404.8125,249.6113,408.8125,239.6113,412.8125,243.6113,408.8125" style="stroke:#181818;stroke-width:1;stroke-linejoin:miter;stroke-miterlimit:10;"/><line style="stroke:#181818;stroke-width:1;stroke-dasharray:2,2;" x1="82.3613" x2="245.6113" y1="408.8125" y2="408.8125"/><text fill="#000000" font-family="Helvetica" font-size="10" x="89.3613" y="404.4541">(08)</text><text fill="#000000" font-family="Helvetica" font-size="10" x="113.8887" y="404.4541">ECDSA Signatur</text><polygon fill="#181818" points="567.1963,430.4531,577.1963,434.4531,567.1963,438.4531,571.1963,434.4531" style="stroke:#181818;stroke-width:1;stroke-linejoin:miter;stroke-miterlimit:10;"/><line style="stroke:#181818;stroke-width:1;stroke-dasharray:2,2;" x1="261.6113" x2="573.1963" y1="434.4531" y2="434.4531"/><text fill="#000000" font-family="Helvetica" font-size="10" x="268.6113" y="430.0947">(09)</text><text fill="#000000" font-family="Helvetica" font-size="10" x="293.1387" y="430.0947">signed_client_data_hash</text><path d="M128.2744,447.4531 L128.2744,491.4531 L578.2744,491.4531 L578.2744,457.4531 L568.2744,447.4531 L128.2744,447.4531" fill="#FEFFDD" style="stroke:#181818;stroke-width:0.5;"/><path d="M568.2744,447.4531 L568.2744,457.4531 L578.2744,457.4531 L568.2744,447.4531" fill="#FEFFDD" style="stroke:#181818;stroke-width:0.5;"/><text fill="#000000" font-family="Helvetica" font-size="10" x="134.2744" y="461.7354">android_key_attestation_certificate_chain wurde beim DCR &#252;bermittelt; kein erneutes</text><text fill="#000000" font-family="Helvetica" font-size="10" x="134.2744" y="473.376">Erzeugen eines Schl&#252;sselpaars. AuthS verifiziert: attestationChallenge im</text><text fill="#000000" font-family="Helvetica" font-size="10" x="134.2744" y="485.0166">Blatt-Zertifikat == SHA-256(PuK.Client.Sig).</text><path d="M240.6113,501.375 L304.4199,501.375 L304.4199,505.0156 L294.4199,515.0156 L240.6113,515.0156 L240.6113,501.375" fill="#EEEEEE" style="stroke:#000000;stroke-width:1.5;"/><rect fill="none" height="98.2031" style="stroke:#000000;stroke-width:1.5;" width="359.585" x="240.6113" y="501.375"/><text fill="#000000" font-family="Helvetica" font-size="10" font-weight="700" x="255.6113" y="511.6572">opt</text><text fill="#000000" font-family="Helvetica" font-size="10" font-weight="700" x="319.4199" y="512.6572">[Play Integrity API (erg&#228;nzend)]</text><polygon fill="#181818" points="272.6113,550.2969,262.6113,554.2969,272.6113,558.2969,268.6113,554.2969" style="stroke:#181818;stroke-width:1;stroke-linejoin:miter;stroke-miterlimit:10;"/><line style="stroke:#181818;stroke-width:1;" x1="266.6113" x2="578.1963" y1="554.2969" y2="554.2969"/><text fill="#000000" font-family="Helvetica" font-size="10" x="278.6113" y="544.1182">(10)</text><text fill="#000000" font-family="Helvetica" font-size="10" x="303.1387" y="538.2979">IntegrityTokenProvider.request(</text><text fill="#000000" font-family="Helvetica" font-size="10" x="303.1387" y="549.9385">requestHash = clientDataHash)</text><polygon fill="#181818" points="567.1963,587.5781,577.1963,591.5781,567.1963,595.5781,571.1963,591.5781" style="stroke:#181818;stroke-width:1;stroke-linejoin:miter;stroke-miterlimit:10;"/><line style="stroke:#181818;stroke-width:1;stroke-dasharray:2,2;" x1="261.6113" x2="573.1963" y1="591.5781" y2="591.5781"/><text fill="#000000" font-family="Helvetica" font-size="10" x="268.6113" y="581.3994">(11)</text><text fill="#000000" font-family="Helvetica" font-size="10" x="293.1387" y="575.5791">integrityToken</text><text fill="#000000" font-family="Helvetica" font-size="10" x="293.1387" y="587.2197">(JWS: deviceIntegrity + appIntegrity + accountDetails)</text><line style="stroke:#181818;stroke-width:1;" x1="589.1963" x2="631.1963" y1="666.1406" y2="666.1406"/><line style="stroke:#181818;stroke-width:1;" x1="631.1963" x2="631.1963" y1="666.1406" y2="679.1406"/><line style="stroke:#181818;stroke-width:1;" x1="590.1963" x2="631.1963" y1="679.1406" y2="679.1406"/><polygon fill="#181818" points="600.1963,675.1406,590.1963,679.1406,600.1963,683.1406,596.1963,679.1406" style="stroke:#181818;stroke-width:1;stroke-linejoin:miter;stroke-miterlimit:10;"/><text fill="#000000" font-family="Helvetica" font-size="10" x="596.1963" y="644.3213">(12)</text><text fill="#000000" font-family="Helvetica" font-size="10" x="620.7236" y="626.8604">Generiere client-statement</text><text fill="#000000" font-family="Helvetica" font-size="10" x="620.7236" y="638.501">(Evidence = signed_client_data_hash,</text><text fill="#000000" font-family="Helvetica" font-size="10" x="620.7236" y="650.1416">android_key_attestation_certificate_chain,</text><text fill="#000000" font-family="Helvetica" font-size="10" x="620.7236" y="661.7822">[integrityToken], Posture-Daten im Klartext)</text><line style="stroke:#181818;stroke-width:1;" x1="589.1963" x2="631.1963" y1="746.0625" y2="746.0625"/><line style="stroke:#181818;stroke-width:1;" x1="631.1963" x2="631.1963" y1="746.0625" y2="759.0625"/><line style="stroke:#181818;stroke-width:1;" x1="590.1963" x2="631.1963" y1="759.0625" y2="759.0625"/><polygon fill="#181818" points="600.1963,755.0625,590.1963,759.0625,600.1963,763.0625,596.1963,759.0625" style="stroke:#181818;stroke-width:1;stroke-linejoin:miter;stroke-miterlimit:10;"/><text fill="#000000" font-family="Helvetica" font-size="10" x="596.1963" y="735.8838">(13)</text><text fill="#000000" font-family="Helvetica" font-size="10" x="620.7236" y="730.0635">Generiere client-statement</text><text fill="#000000" font-family="Helvetica" font-size="10" x="620.7236" y="741.7041">(OS und PS Daten ungesichert)</text><?plantuml-src bLN1Rjiu4BthAwO-MR2b50Ls3zacW69f4w-JMB2yATgw46XfR1EMI2r5kR7Hp-bdz9OVsw5anN6I5hiNaHA7RzwyUQJUS95aLOhWkYT5bMTEnhQoqgw-rvRrfb1icJFGA7UWLOMMDPVtqF5nmnFiW1_S3GT1F1XVZoSMGC6KvWalcD3GcGO1d42abHJB2ta_4zqhfjAlJ254c5IAwwtT0LQ22RmEXeHo4uvlWzlfgtZZoCHsQEXw8bMIfxJxzMqrnL3n_E6xAhUbnhm3uMHuumMJw6Cq3MuU8uzJ33AED9WqduAfjt_lmFltEzJi_9mse4WDlDMEZHoUc7FKg60wX7VkM_1fNwbDql7Tq0ycnyngxCkAnEY0cSUNVtiJ_oUSl4glcif3Fvm9yoeLtp7DfI0TrGRLhmbQJHMzdZMEw45YqtDVgNE-n-_ru1GkWocS22aIj9gl3gstaGu5tDPh5ik8LjC26E6McZpqmTCQIrtJ8XO7_75q2e7AkTOPGYXBNIaaAumZvmvLIT7zHpT0o7IoWclSODQVYIjQrvXbgFfm8rEQzO7sy0N752war1JZ5OKJyQLW1Cl5GggyPe329XBZfnMSjiaTdsaKq1rbf3BUQ_k966reKeyKoAvOkOApcOYkFEVTRxztQmdWsxTdQEP3DNAR_IunigqNAhGyqIrfrfq9CEf5MjAN9MgQTxsCipBsHdRVh1wpQ2iwD-UbGUD8P-auQYP8QWZLoFL6XWTjCiVBQJiny2FlaSbBZGmpJEC6Cqu9D5uHgYb6I8sGuKA3NEpZQxEonWdn6hSnEvWWJf1ClE09wHCdAyO5VAqKNJDpv3duWmay_9XZRGpCz1-mHef09R0YY1euK3kibYGkhM09KRBA7dwK9MO5OwfqzyxTr8xOaHH4_qd-mOgHTSGIWUSrt4L6gywdXjMQQJWxWxQhpthdxi-HATcKBWkIbAv560gDozggNZY4BghbmtUner2xJd7SxyVWgLoZ29NSy1ILg_2VYaXI__UpncAlTFj5T_WH8fsYlpvGdhI-Ym_KUi2AukWrIMH5q7H5yAoqc-AExDack4H1SXvSvHWnCQSP9GiCV-F-iv_PX5pxdzr0iP-Fw_dIVtQeo2U7GufPIVyDkT3r3-J9RGFTFwdJSvQixVzV4mbSKQF329gK5HccvCcAsDhc2hN-1G00?></g></svg>