<svg xmlns="http://www.w3.org/2000/svg" xmlns:xlink="http://www.w3.org/1999/xlink" contentStyleType="text/css" data-diagram-type="SEQUENCE" height="1212px" preserveAspectRatio="none" style="width:1092px;height:1212px;background:#FFFFFF;" version="1.1" viewBox="0 0 1092 1212" width="1092px" zoomAndPan="magnify"><?plantuml 1.2026.6?><defs/><g><rect fill="#FEFCFF" height="1186.1094" style="stroke:#181818;stroke-width:0.5;" width="109.625" x="184.0488" y="11"/><text fill="#000000" font-family="Helvetica" font-size="10" font-weight="700" x="196.0488" y="20.2822">Android Device</text><rect fill="#E6E6FA" height="1169.4688" style="stroke:#181818;stroke-width:0.5;" width="109.625" x="184.0488" y="27.6406"/><text fill="#000000" font-family="Helvetica" font-size="10" font-weight="700" x="227.8335" y="36.9229">App</text><rect fill="#EDFDEC" height="1186.1094" style="stroke:#181818;stroke-width:0.5;" width="147.7842" x="507.4517" y="11"/><text fill="#000000" font-family="Helvetica" font-size="10" font-weight="700" x="519.4517" y="20.2822">Anbieter TI 2.0 Dienst</text><rect fill="#FFF3E5" height="1169.4688" style="stroke:#181818;stroke-width:0.5;" width="147.7842" x="507.4517" y="27.6406"/><text fill="#000000" font-family="Helvetica" font-size="10" font-weight="700" x="548.1992" y="36.9229">ZETA Guard</text><g><title>Nutzer</title><rect fill="#000000" fill-opacity="0.00000" height="1004.5469" width="8" x="26.126" y="114.9219"/><line style="stroke:#000000;stroke-width:0.5;stroke-dasharray:5,5;" x1="29.626" x2="29.626" y1="114.9219" y2="1119.4688"/></g><g><title>ZETA Client</title><rect fill="#000000" fill-opacity="0.00000" height="1004.5469" width="8" x="235.3613" y="114.9219"/><line style="stroke:#000000;stroke-width:0.5;stroke-dasharray:5,5;" x1="238.8613" x2="238.8613" y1="114.9219" y2="1119.4688"/></g><g><title/><rect fill="#FFFFFF" height="996.5469" style="stroke:#181818;stroke-width:1;" width="10" x="233.8613" y="122.9219"/></g><g><title>PDP</title><rect fill="#000000" fill-opacity="0.00000" height="1004.5469" width="8" x="577.8438" y="114.9219"/><line style="stroke:#000000;stroke-width:0.5;stroke-dasharray:5,5;" x1="581.3438" x2="581.3438" y1="114.9219" y2="1119.4688"/></g><g><title/><rect fill="#FFFFFF" height="578.0156" style="stroke:#181818;stroke-width:1;" width="10" x="576.3438" y="214.7656"/></g><g><title/><rect fill="#FFFFFF" height="245.7656" style="stroke:#181818;stroke-width:1;" width="10" x="576.3438" y="855.7031"/></g><text fill="#000000" font-family="Helvetica" font-size="10" x="10" y="112.5635">Nutzer</text><ellipse cx="29.626" cy="51.7813" fill="#E2E2F0" rx="8" ry="8" style="stroke:#181818;stroke-width:0.5;"/><path d="M29.626,59.7813 L29.626,86.7813 M16.626,67.7813 L42.626,67.7813 M29.626,86.7813 L16.626,101.7813 M29.626,86.7813 L42.626,101.7813" fill="none" style="stroke:#181818;stroke-width:0.5;"/><rect fill="#FFE6CC" height="25.6406" rx="2.5" ry="2.5" style="stroke:#D79B00;stroke-width:0.5;" width="72.2471" x="202.7378" y="88.2813"/><text fill="#000000" font-family="Helvetica" font-size="10" x="209.7378" y="104.5635">ZETA Client</text><rect fill="#FFE6CC" height="37.2813" rx="2.5" ry="2.5" style="stroke:#D79B00;stroke-width:0.5;" width="116.9492" x="522.8691" y="76.6406"/><text fill="#000000" font-family="Helvetica" font-size="10" x="571.4634" y="92.9229">PDP</text><text fill="#000000" font-family="Helvetica" font-size="10" x="529.8691" y="104.5635">Authorization Server</text><text fill="#000000" font-family="Helvetica" font-size="10" x="10" y="1188.751">Nutzer</text><ellipse cx="29.626" cy="1127.9688" fill="#E2E2F0" rx="8" ry="8" style="stroke:#181818;stroke-width:0.5;"/><path d="M29.626,1135.9688 L29.626,1162.9688 M16.626,1143.9688 L42.626,1143.9688 M29.626,1162.9688 L16.626,1177.9688 M29.626,1162.9688 L42.626,1177.9688" fill="none" style="stroke:#181818;stroke-width:0.5;"/><rect fill="#FFE6CC" height="25.6406" rx="2.5" ry="2.5" style="stroke:#D79B00;stroke-width:0.5;" width="72.2471" x="202.7378" y="1119.4688"/><text fill="#000000" font-family="Helvetica" font-size="10" x="209.7378" y="1135.751">ZETA Client</text><rect fill="#FFE6CC" height="37.2813" rx="2.5" ry="2.5" style="stroke:#D79B00;stroke-width:0.5;" width="116.9492" x="522.8691" y="1119.4688"/><text fill="#000000" font-family="Helvetica" font-size="10" x="571.4634" y="1135.751">PDP</text><text fill="#000000" font-family="Helvetica" font-size="10" x="529.8691" y="1147.3916">Authorization Server</text><path d="M13.626,126.9219 L73.582,126.9219 L73.582,130.5625 L63.582,140.5625 L13.626,140.5625 L13.626,126.9219" fill="#EEEEEE" style="stroke:#000000;stroke-width:1.5;"/><rect fill="none" height="942.9063" style="stroke:#000000;stroke-width:1.5;" width="1058.5898" x="13.626" y="126.9219"/><text fill="#000000" font-family="Helvetica" font-size="10" font-weight="700" x="28.626" y="137.2041">alt</text><text fill="#000000" font-family="Helvetica" font-size="10" font-weight="700" x="88.582" y="138.2041">[Kein ZETA Attestation Token vorhanden]</text><line style="stroke:#000000;stroke-width:1;stroke-dasharray:2,2;" x1="13.626" x2="1072.2158" y1="913.3438" y2="913.3438"/><text fill="#000000" font-family="Helvetica" font-size="10" font-weight="700" x="18.626" y="924.626">[ZETA Attestation Token vorhanden (Fast-Path)]</text><polygon fill="#181818" points="564.3438,210.7656,574.3438,214.7656,564.3438,218.7656,568.3438,214.7656" style="stroke:#181818;stroke-width:1;stroke-linejoin:miter;stroke-miterlimit:10;"/><line style="stroke:#181818;stroke-width:1;" x1="243.8613" x2="570.3438" y1="214.7656" y2="214.7656"/><text fill="#000000" font-family="Helvetica" font-size="10" x="250.8613" y="187.126">(01)</text><text fill="#000000" font-family="Helvetica" font-size="10" x="275.3887" y="163.8447">POST /register</text><text fill="#000000" font-family="Helvetica" font-size="10" x="275.3887" y="175.4854">{attestation_type="android", PuK.AK.Sig,</text><text fill="#000000" font-family="Helvetica" font-size="10" x="275.3887" y="187.126">Android_Key_Attestation_Certificate_Chain,</text><text fill="#000000" font-family="Helvetica" font-size="10" x="275.3887" y="198.7666">PuK.Client.Sig, signed_Hash_PuK.Client.Sig,</text><text fill="#000000" font-family="Helvetica" font-size="10" x="275.3887" y="210.4072">play_integrity_token, redirect_uris}</text><line style="stroke:#181818;stroke-width:1;" x1="586.3438" x2="628.3438" y1="240.4063" y2="240.4063"/><line style="stroke:#181818;stroke-width:1;" x1="628.3438" x2="628.3438" y1="240.4063" y2="253.4063"/><line style="stroke:#181818;stroke-width:1;" x1="587.3438" x2="628.3438" y1="253.4063" y2="253.4063"/><polygon fill="#181818" points="597.3438,249.4063,587.3438,253.4063,597.3438,257.4063,593.3438,253.4063" style="stroke:#181818;stroke-width:1;stroke-linejoin:miter;stroke-miterlimit:10;"/><text fill="#000000" font-family="Helvetica" font-size="10" x="593.3438" y="236.0479">(02)</text><text fill="#000000" font-family="Helvetica" font-size="10" x="617.8711" y="236.0479">Validiere Zertifikatskette gegen Google Root CA</text><line style="stroke:#181818;stroke-width:1;" x1="586.3438" x2="628.3438" y1="279.0469" y2="279.0469"/><line style="stroke:#181818;stroke-width:1;" x1="628.3438" x2="628.3438" y1="279.0469" y2="292.0469"/><line style="stroke:#181818;stroke-width:1;" x1="587.3438" x2="628.3438" y1="292.0469" y2="292.0469"/><polygon fill="#181818" points="597.3438,288.0469,587.3438,292.0469,597.3438,296.0469,593.3438,292.0469" style="stroke:#181818;stroke-width:1;stroke-linejoin:miter;stroke-miterlimit:10;"/><text fill="#000000" font-family="Helvetica" font-size="10" x="593.3438" y="274.6885">(03)</text><text fill="#000000" font-family="Helvetica" font-size="10" x="617.8711" y="274.6885">Pr&#252;fe signed_Hash_PuK.Client.Sig</text><path d="M565.3438,304.0469 L629.1523,304.0469 L629.1523,307.6875 L619.1523,317.6875 L565.3438,317.6875 L565.3438,304.0469" fill="#EEEEEE" style="stroke:#000000;stroke-width:1.5;"/><rect fill="none" height="139.5625" style="stroke:#000000;stroke-width:1.5;" width="405.3906" x="565.3438" y="304.0469"/><text fill="#000000" font-family="Helvetica" font-size="10" font-weight="700" x="580.3438" y="314.3291">opt</text><text fill="#000000" font-family="Helvetica" font-size="10" font-weight="700" x="644.1523" y="315.3291">[Play Integrity Pr&#252;fung]</text><line style="stroke:#181818;stroke-width:1;" x1="586.3438" x2="628.3438" y1="345.3281" y2="345.3281"/><line style="stroke:#181818;stroke-width:1;" x1="628.3438" x2="628.3438" y1="345.3281" y2="358.3281"/><line style="stroke:#181818;stroke-width:1;" x1="587.3438" x2="628.3438" y1="358.3281" y2="358.3281"/><polygon fill="#181818" points="597.3438,354.3281,587.3438,358.3281,597.3438,362.3281,593.3438,358.3281" style="stroke:#181818;stroke-width:1;stroke-linejoin:miter;stroke-miterlimit:10;"/><text fill="#000000" font-family="Helvetica" font-size="10" x="593.3438" y="340.9697">(04)</text><text fill="#000000" font-family="Helvetica" font-size="10" x="617.8711" y="340.9697">Entschl&#252;ssele play_integrity_token (lokal/remote)</text><line style="stroke:#181818;stroke-width:1;" x1="586.3438" x2="628.3438" y1="383.9688" y2="383.9688"/><line style="stroke:#181818;stroke-width:1;" x1="628.3438" x2="628.3438" y1="383.9688" y2="396.9688"/><line style="stroke:#181818;stroke-width:1;" x1="587.3438" x2="628.3438" y1="396.9688" y2="396.9688"/><polygon fill="#181818" points="597.3438,392.9688,587.3438,396.9688,597.3438,400.9688,593.3438,396.9688" style="stroke:#181818;stroke-width:1;stroke-linejoin:miter;stroke-miterlimit:10;"/><text fill="#000000" font-family="Helvetica" font-size="10" x="593.3438" y="379.6104">(05)</text><text fill="#000000" font-family="Helvetica" font-size="10" x="617.8711" y="379.6104">Verifiziere Nonce (Muss Hash(PuK.Client.Sig) entsprechen)</text><line style="stroke:#181818;stroke-width:1;" x1="586.3438" x2="628.3438" y1="422.6094" y2="422.6094"/><line style="stroke:#181818;stroke-width:1;" x1="628.3438" x2="628.3438" y1="422.6094" y2="435.6094"/><line style="stroke:#181818;stroke-width:1;" x1="587.3438" x2="628.3438" y1="435.6094" y2="435.6094"/><polygon fill="#181818" points="597.3438,431.6094,587.3438,435.6094,597.3438,439.6094,593.3438,435.6094" style="stroke:#181818;stroke-width:1;stroke-linejoin:miter;stroke-miterlimit:10;"/><text fill="#000000" font-family="Helvetica" font-size="10" x="593.3438" y="418.251">(06)</text><text fill="#000000" font-family="Helvetica" font-size="10" x="617.8711" y="418.251">Werte Verdicts aus (appIntegrity, deviceIntegrity, accountDetails)</text><path d="M591.3438,462.6094 L591.3438,506.6094 L894.3438,506.6094 L894.3438,472.6094 L884.3438,462.6094 L591.3438,462.6094" fill="#FEFFDD" style="stroke:#181818;stroke-width:0.5;"/><path d="M884.3438,462.6094 L884.3438,472.6094 L894.3438,472.6094 L884.3438,462.6094" fill="#FEFFDD" style="stroke:#181818;stroke-width:0.5;"/><text fill="#000000" font-family="Helvetica" font-size="10" x="597.3438" y="476.8916">PuK.AK.Sig muss mit dem Blatt-Zertifikat</text><text fill="#000000" font-family="Helvetica" font-size="10" x="597.3438" y="488.5322">der Certificate Chain &#252;bereinstimmen.</text><text fill="#000000" font-family="Helvetica" font-size="10" x="597.3438" y="500.1729">Sicherheitsniveau: TrustedEnvironment oder StrongBox.</text><path d="M591.3438,517.5313 L591.3438,655.5313 L1050.3438,655.5313 L1050.3438,527.5313 L1040.3438,517.5313 L591.3438,517.5313" fill="#FEFFDD" style="stroke:#181818;stroke-width:0.5;"/><path d="M1040.3438,517.5313 L1040.3438,527.5313 L1050.3438,527.5313 L1040.3438,517.5313" fill="#FEFFDD" style="stroke:#181818;stroke-width:0.5;"/><text fill="#000000" font-family="Helvetica" font-size="10" x="597.3438" y="531.8135">Es werden zwei redirect_uris je App registriert (RFC 8252, claimed-HTTPS</text><text fill="#000000" font-family="Helvetica" font-size="10" x="597.3438" y="543.4541">Universal-/App-Links auf einer vom App-Hersteller kontrollierten Domain):</text><text fill="#000000" font-family="Helvetica" font-size="10" x="597.3438" y="555.0947">- https://&lt;App-FQDN&gt;/cb/&lt;app&gt;/as = redirect_uri_as</text><text fill="#000000" font-family="Helvetica" font-size="10" x="603.7012" y="566.7354">(SekIDP Auth Code Flow, redirection_endpoint des AuthS, nicht /token)</text><text fill="#000000" font-family="Helvetica" font-size="10" x="597.3438" y="578.376">- https://&lt;App-FQDN&gt;/cb/&lt;app&gt;/app = redirect_uri_app</text><text fill="#000000" font-family="Helvetica" font-size="10" x="603.7012" y="590.0166">(ZETA Guard Auth Code Flow, /token-Endpunkt des AuthS)</text><text fill="#000000" font-family="Helvetica" font-size="10" x="597.3438" y="601.6572">Beide Callbacks enden &#252;ber denselben App-Link/Universal-Link in der App;</text><text fill="#000000" font-family="Helvetica" font-size="10" x="597.3438" y="613.2979">der ZETA Client unterscheidet den zu nutzenden AuthS-Endpunkt anhand des Pfads.</text><text fill="#000000" font-family="Helvetica" font-size="10" x="597.3438" y="624.9385">Die OS-seitige Verkn&#252;pfung erfolgt &#252;ber assetlinks.json</text><text fill="#000000" font-family="Helvetica" font-size="10" x="597.3438" y="636.5791">(Deployment, kein Laufzeit-Flow). Die App ist inkl. redirect_uris bei der gematik</text><text fill="#000000" font-family="Helvetica" font-size="10" x="597.3438" y="648.2197">registriert; der AuthS pr&#252;ft beim DCR, ob die &#252;bergebenen redirect_uris registriert sind.</text><line style="stroke:#181818;stroke-width:1;" x1="586.3438" x2="628.3438" y1="678.2188" y2="678.2188"/><line style="stroke:#181818;stroke-width:1;" x1="628.3438" x2="628.3438" y1="678.2188" y2="691.2188"/><line style="stroke:#181818;stroke-width:1;" x1="587.3438" x2="628.3438" y1="691.2188" y2="691.2188"/><polygon fill="#181818" points="597.3438,687.2188,587.3438,691.2188,597.3438,695.2188,593.3438,691.2188" style="stroke:#181818;stroke-width:1;stroke-linejoin:miter;stroke-miterlimit:10;"/><text fill="#000000" font-family="Helvetica" font-size="10" x="593.3438" y="673.8604">(07)</text><text fill="#000000" font-family="Helvetica" font-size="10" x="617.8711" y="673.8604">Store Client Placeholder (state: pending_user_binding)</text><line style="stroke:#181818;stroke-width:1;" x1="586.3438" x2="628.3438" y1="728.5" y2="728.5"/><line style="stroke:#181818;stroke-width:1;" x1="628.3438" x2="628.3438" y1="728.5" y2="741.5"/><line style="stroke:#181818;stroke-width:1;" x1="587.3438" x2="628.3438" y1="741.5" y2="741.5"/><polygon fill="#181818" points="597.3438,737.5,587.3438,741.5,597.3438,745.5,593.3438,741.5" style="stroke:#181818;stroke-width:1;stroke-linejoin:miter;stroke-miterlimit:10;"/><text fill="#000000" font-family="Helvetica" font-size="10" x="593.3438" y="718.3213">(08)</text><text fill="#000000" font-family="Helvetica" font-size="10" x="617.8711" y="712.501">Generiere OTP &amp; transaction_id</text><text fill="#000000" font-family="Helvetica" font-size="10" x="617.8711" y="724.1416">Speichere Request im tempor&#228;ren Cache</text><polygon fill="#181818" points="40.626,763.1406,30.626,767.1406,40.626,771.1406,36.626,767.1406" style="stroke:#181818;stroke-width:1;stroke-linejoin:miter;stroke-miterlimit:10;"/><line style="stroke:#181818;stroke-width:1;" x1="34.626" x2="575.3438" y1="767.1406" y2="767.1406"/><text fill="#000000" font-family="Helvetica" font-size="10" x="46.626" y="762.7822">(09)</text><text fill="#000000" font-family="Helvetica" font-size="10" x="71.1533" y="762.7822">E-Mail mit OTP-Best&#228;tigungscode (Out-of-Band)</text><polygon fill="#181818" points="254.8613,788.7813,244.8613,792.7813,254.8613,796.7813,250.8613,792.7813" style="stroke:#181818;stroke-width:1;stroke-linejoin:miter;stroke-miterlimit:10;"/><line style="stroke:#181818;stroke-width:1;stroke-dasharray:2,2;" x1="248.8613" x2="575.3438" y1="792.7813" y2="792.7813"/><text fill="#000000" font-family="Helvetica" font-size="10" x="260.8613" y="788.4229">(10)</text><text fill="#000000" font-family="Helvetica" font-size="10" x="285.3887" y="788.4229">202 Accepted {transaction_id, message="OTP sent"}</text><polygon fill="#181818" points="221.8613,814.4219,231.8613,818.4219,221.8613,822.4219,225.8613,818.4219" style="stroke:#181818;stroke-width:1;stroke-linejoin:miter;stroke-miterlimit:10;"/><line style="stroke:#181818;stroke-width:1;" x1="29.626" x2="227.8613" y1="818.4219" y2="818.4219"/><text fill="#000000" font-family="Helvetica" font-size="10" x="36.626" y="814.0635">(11)</text><text fill="#000000" font-family="Helvetica" font-size="10" x="61.1533" y="814.0635">Gibt OTP-Best&#228;tigungscode ein</text><polygon fill="#181818" points="564.3438,851.7031,574.3438,855.7031,564.3438,859.7031,568.3438,855.7031" style="stroke:#181818;stroke-width:1;stroke-linejoin:miter;stroke-miterlimit:10;"/><line style="stroke:#181818;stroke-width:1;" x1="243.8613" x2="570.3438" y1="855.7031" y2="855.7031"/><text fill="#000000" font-family="Helvetica" font-size="10" x="250.8613" y="845.5244">(12)</text><text fill="#000000" font-family="Helvetica" font-size="10" x="275.3887" y="839.7041">POST /register/verify</text><text fill="#000000" font-family="Helvetica" font-size="10" x="275.3887" y="851.3447">{transaction_id, code}</text><line style="stroke:#181818;stroke-width:1;" x1="586.3438" x2="628.3438" y1="881.3438" y2="881.3438"/><line style="stroke:#181818;stroke-width:1;" x1="628.3438" x2="628.3438" y1="881.3438" y2="894.3438"/><line style="stroke:#181818;stroke-width:1;" x1="587.3438" x2="628.3438" y1="894.3438" y2="894.3438"/><polygon fill="#181818" points="597.3438,890.3438,587.3438,894.3438,597.3438,898.3438,593.3438,894.3438" style="stroke:#181818;stroke-width:1;stroke-linejoin:miter;stroke-miterlimit:10;"/><text fill="#000000" font-family="Helvetica" font-size="10" x="593.3438" y="876.9854">(13)</text><text fill="#000000" font-family="Helvetica" font-size="10" x="617.8711" y="876.9854">Verifiziere OTP-Code gegen Cache</text><polygon fill="#181818" points="564.3438,980.5469,574.3438,984.5469,564.3438,988.5469,568.3438,984.5469" style="stroke:#181818;stroke-width:1;stroke-linejoin:miter;stroke-miterlimit:10;"/><line style="stroke:#181818;stroke-width:1;" x1="243.8613" x2="570.3438" y1="984.5469" y2="984.5469"/><text fill="#000000" font-family="Helvetica" font-size="10" x="250.8613" y="962.7275">(14)</text><text fill="#000000" font-family="Helvetica" font-size="10" x="275.3887" y="945.2666">POST /register</text><text fill="#000000" font-family="Helvetica" font-size="10" x="275.3887" y="956.9072">{attestation_type="zeta_attestation_token",</text><text fill="#000000" font-family="Helvetica" font-size="10" x="275.3887" y="968.5479">zeta_guard_attestation_token, PuK.Client.Sig,</text><text fill="#000000" font-family="Helvetica" font-size="10" x="275.3887" y="980.1885">Besitznachweis (Signatur/Assertion)}</text><line style="stroke:#181818;stroke-width:1;" x1="586.3438" x2="628.3438" y1="1010.1875" y2="1010.1875"/><line style="stroke:#181818;stroke-width:1;" x1="628.3438" x2="628.3438" y1="1010.1875" y2="1023.1875"/><line style="stroke:#181818;stroke-width:1;" x1="587.3438" x2="628.3438" y1="1023.1875" y2="1023.1875"/><polygon fill="#181818" points="597.3438,1019.1875,587.3438,1023.1875,597.3438,1027.1875,593.3438,1023.1875" style="stroke:#181818;stroke-width:1;stroke-linejoin:miter;stroke-miterlimit:10;"/><text fill="#000000" font-family="Helvetica" font-size="10" x="593.3438" y="1005.8291">(15)</text><text fill="#000000" font-family="Helvetica" font-size="10" x="617.8711" y="1005.8291">Pr&#252;fe Token-Signatur &amp; Vertrauensstellung</text><line style="stroke:#181818;stroke-width:1;" x1="586.3438" x2="628.3438" y1="1048.8281" y2="1048.8281"/><line style="stroke:#181818;stroke-width:1;" x1="628.3438" x2="628.3438" y1="1048.8281" y2="1061.8281"/><line style="stroke:#181818;stroke-width:1;" x1="587.3438" x2="628.3438" y1="1061.8281" y2="1061.8281"/><polygon fill="#181818" points="597.3438,1057.8281,587.3438,1061.8281,597.3438,1065.8281,593.3438,1061.8281" style="stroke:#181818;stroke-width:1;stroke-linejoin:miter;stroke-miterlimit:10;"/><text fill="#000000" font-family="Helvetica" font-size="10" x="593.3438" y="1044.4697">(16)</text><text fill="#000000" font-family="Helvetica" font-size="10" x="617.8711" y="1044.4697">Extrahiere PuK.AK.Sig aus Token, verifiziere Besitznachweis</text><polygon fill="#181818" points="254.8613,1097.4688,244.8613,1101.4688,254.8613,1105.4688,250.8613,1101.4688" style="stroke:#181818;stroke-width:1;stroke-linejoin:miter;stroke-miterlimit:10;"/><line style="stroke:#181818;stroke-width:1;stroke-dasharray:2,2;" x1="248.8613" x2="575.3438" y1="1101.4688" y2="1101.4688"/><text fill="#000000" font-family="Helvetica" font-size="10" x="260.8613" y="1097.1104">(17)</text><text fill="#000000" font-family="Helvetica" font-size="10" x="285.3887" y="1097.1104">201 Created {client_id, status="pending_user_binding"}</text><?plantuml-src ZLRRRjiu47tNLqpziBKHo-u6M62HfW4SsqcDNEordHHR111eYP5PIwIMf9nBqR_fP-GjFxQ7ag-vjNb88ecSEUVmp73U2HacUSIfqMXcUPhu2RjJkMtOM-jvBBHAquNXcfYXodbkxxckUDv4tLAb9IEjH4GTFXSXhr2dUzbhTuDs_xG_z8ZADLbMeS6mTzRg3aV_ZiRTizLteenfAqAHCMcfdGYEFoxBr-wujNYkqFx-FRViu00Rk8nSK6_vTubY8hW5m76FTXiVg8Dznhga_SjUfplSnbF4FiwPZYha_W-EBrh3pYkOMhcTZWf8WyxWIhf7fSKziq996d4zXnPl0Yn9xEnuBB5qmeKiSbBBMcvi6MQiPbpINEafan6N1ORYb_jPYE8Vb51sTlPeq1-DgQbvB0n8NydlR1qii7SP_rHXvRbKwZJ8JngjayP8n7N0Bry79_mks40Gj3aONukGMHwqfqn8h7KRo-J5PZ8YbZmAFZCp3Pvykv8P71C8QNciXRqBh6DK9yqZeNbeWrmBysD5gTHqoMYFBbaY8i4rfwybZXcpPiQ1Zs8UGvfZfUA4qr0fcAJrQfo1Vdouvcy0NUrS_QCoImDWfzuIUnabb-l5BwNgIcl2QVBuO0m7ifVeKpLHCvRWd59bUUtDS9TSW_PzeS6vaY6dwbbk33aErMqEDLZCcWooJhbyE-eNgCbTx4Y4rX3B3LLPbgserYagodRZ1Gj3bKlRWPr5OjRXOUVduadm8YtYgILrlJg4bTyeTHHIOP4cfSC4BlNN1tm5gslQC1uLngF7XmbK4AXVaQPSDgxaI82gdd9XZHHppl8z6kiSre-wSYwqagah4EN2ZImUuqDrs_2yLn0kq7SDtK0O7DFz3HVRJgLldD2qgAmmZLEnL1qUjUdltRzswnGcJAGyyZ-FnuDbk0k7J1kM-4tiz4-5d3d1hmbCW6kkKXVH_umrbYS9NisK1DWaST61egDIiA_jBUBvDBKsCtlDvhxRT_HFv_oW6KwQ-pY_WoRQqQSjo04pgrEfZlYirnaKRAaDMUWeKJVhOdJrZkFC5FoAap6bB7MIaDbIi_1kxVTWGAEdEB9i3MJTQ9-1ATFuNU38vMm3npBp8HTOt6P9Cc4XjEIkCvRcm6A9gflWUQbrSws_UoJuoDa1dpykuhd7ZKk5O7AiXx6GngM73tAIxcuh4XLOrl2OTAsvG3cuPf5fBABYeg7-o3VmfeYBKfl9nuVCjG_Y-bebiLrWPcWKDd6sQ7mpIYxsLpiyIzITCt2TPkvoE8LfxX7ETphL6aK6vqKO4QncIUE9LISmh-CMynIjVBQ8k-7SZwKIHMl8N6kpRazAdVQmJcf2QBmbn9X3KL3VZhzP0qR8g6JkRZTNMsMLFUqx8mmCV2aqkcl8fofnAAhklk5xb66_a76GOwW89g9uA0_-VLdQr9Tq950hRkwWwhX_T55xCTKn8EkYRVR70_g3h6RIiDBa8aBlo7ZHFN1vyFzoxaHCoV8qK_hnfmRRDiFdxT1kr467zy_G0elsXT3-8VO-_iGfusXDw8nSxUVMLzV-8PnHMz_PxnTJ0JnZRnHgsnOnTZ-WSqWLJkcasplleeauTO3ntMPoP2zby_qzjuLQOSWpT3hwlisiJYatXiMuwXrnu-Qa7zu2m1Vc-hxhFkMmvdUXBvkKD8j1RfK72eh9QmpXnqrUvIKrAsUMigthBIrx7U-t9fRct4Mwm-3ob9HB-yFxrGtfq1Qzf9mEoYFqF9x0AxyQhgXwn8pr1ynEQo-X_QtfoarxmTPhbwI2EQZu4hkMz_nxEOjjZKtGNDXx2GAuX70xuwraDjVD5jg5TbjhBykn67KASlvo5_mFcQ1fZWPPt3FBCURP-7ABLTD2p8txsWq8unBfV4FkRP1kilMyb_tw9xKrPuLTL_x6u0WHSlEfybBLmxJ_0m00?></g></svg>