<svg xmlns="http://www.w3.org/2000/svg" xmlns:xlink="http://www.w3.org/1999/xlink" contentStyleType="text/css" data-diagram-type="SEQUENCE" height="563px" preserveAspectRatio="none" style="width:867px;height:563px;background:#FFFFFF;" version="1.1" viewBox="0 0 867 563" width="867px" zoomAndPan="magnify"><?plantuml 1.2026.5?><defs/><g><rect fill="#FEFCFF" height="537.0938" style="stroke:#181818;stroke-width:0.5;" width="102.1934" x="16" y="11"/><text fill="#000000" font-family="Helvetica" font-size="10" font-weight="700" x="48.2271" y="20.2822">Device</text><rect fill="#E6E6FA" height="520.4531" style="stroke:#181818;stroke-width:0.5;" width="102.1934" x="16" y="27.6406"/><text fill="#000000" font-family="Helvetica" font-size="10" font-weight="700" x="28" y="36.9229">Prim&#228;rsystem</text><rect fill="#EDFDEC" height="537.0938" style="stroke:#181818;stroke-width:0.5;" width="147.7842" x="376.6343" y="11"/><text fill="#000000" font-family="Helvetica" font-size="10" font-weight="700" x="388.6343" y="20.2822">Anbieter TI 2.0 Dienst</text><rect fill="#FFF3E5" height="520.4531" style="stroke:#181818;stroke-width:0.5;" width="147.7842" x="376.6343" y="27.6406"/><text fill="#000000" font-family="Helvetica" font-size="10" font-weight="700" x="417.3818" y="36.9229">ZETA Guard</text><g><title>ZETA Client</title><rect fill="#000000" fill-opacity="0.00000" height="422.25" width="8" x="63.5967" y="81.5625"/><line style="stroke:#000000;stroke-width:0.5;stroke-dasharray:5,5;" x1="67.0967" x2="67.0967" y1="81.5625" y2="503.8125"/></g><g><title/><rect fill="#FFFFFF" height="414.25" style="stroke:#181818;stroke-width:1;" width="10" x="62.0967" y="89.5625"/></g><g><title>PDP</title><rect fill="#000000" fill-opacity="0.00000" height="422.25" width="8" x="447.0264" y="81.5625"/><line style="stroke:#000000;stroke-width:0.5;stroke-dasharray:5,5;" x1="450.5264" x2="450.5264" y1="81.5625" y2="503.8125"/></g><g><title/><rect fill="#FFFFFF" height="327.6875" style="stroke:#181818;stroke-width:1;" width="10" x="445.5264" y="158.125"/></g><rect fill="#FFE6CC" height="25.6406" rx="2.5" ry="2.5" style="stroke:#D79B00;stroke-width:0.5;" width="72.2471" x="30.9731" y="54.9219"/><text fill="#000000" font-family="Helvetica" font-size="10" x="37.9731" y="71.2041">ZETA Client</text><rect fill="#FFE6CC" height="37.2813" rx="2.5" ry="2.5" style="stroke:#D79B00;stroke-width:0.5;" width="116.9492" x="392.0518" y="43.2813"/><text fill="#000000" font-family="Helvetica" font-size="10" x="440.646" y="59.5635">PDP</text><text fill="#000000" font-family="Helvetica" font-size="10" x="399.0518" y="71.2041">Authorization Server</text><rect fill="#FFE6CC" height="25.6406" rx="2.5" ry="2.5" style="stroke:#D79B00;stroke-width:0.5;" width="72.2471" x="30.9731" y="503.8125"/><text fill="#000000" font-family="Helvetica" font-size="10" x="37.9731" y="520.0947">ZETA Client</text><rect fill="#FFE6CC" height="37.2813" rx="2.5" ry="2.5" style="stroke:#D79B00;stroke-width:0.5;" width="116.9492" x="392.0518" y="503.8125"/><text fill="#000000" font-family="Helvetica" font-size="10" x="440.646" y="520.0947">PDP</text><text fill="#000000" font-family="Helvetica" font-size="10" x="399.0518" y="531.7354">Authorization Server</text><path d="M51.0967,93.5625 L111.0527,93.5625 L111.0527,97.2031 L101.0527,107.2031 L51.0967,107.2031 L51.0967,93.5625" fill="#EEEEEE" style="stroke:#000000;stroke-width:1.5;"/><rect fill="none" height="321.9688" style="stroke:#000000;stroke-width:1.5;" width="796.8428" x="51.0967" y="93.5625"/><text fill="#000000" font-family="Helvetica" font-size="10" font-weight="700" x="66.0967" y="103.8447">alt</text><text fill="#000000" font-family="Helvetica" font-size="10" font-weight="700" x="126.0527" y="104.8447">[Kein ZETA Guard Attestation Token]</text><line style="stroke:#000000;stroke-width:1;stroke-dasharray:2,2;" x1="51.0967" x2="847.9395" y1="259.0469" y2="259.0469"/><text fill="#000000" font-family="Helvetica" font-size="10" font-weight="700" x="56.0967" y="270.3291">[ZETA Attestation Token vorhanden]</text><polygon fill="#181818" points="433.5264,154.125,443.5264,158.125,433.5264,162.125,437.5264,158.125" style="stroke:#181818;stroke-width:1;stroke-linejoin:miter;stroke-miterlimit:10;"/><line style="stroke:#181818;stroke-width:1;" x1="72.0967" x2="439.5264" y1="158.125" y2="158.125"/><text fill="#000000" font-family="Helvetica" font-size="10" x="79.0967" y="142.126">(01)</text><text fill="#000000" font-family="Helvetica" font-size="10" x="103.624" y="130.4854">POST /register</text><text fill="#000000" font-family="Helvetica" font-size="10" x="103.624" y="142.126">{attestation_type="apple", PuK.AK.Sig, Apple_Attestation_Object,</text><text fill="#000000" font-family="Helvetica" font-size="10" x="103.624" y="153.7666">PuK.Client.Sig, signed_Hash_PuK.Client.Sig}</text><line style="stroke:#181818;stroke-width:1;" x1="455.5264" x2="497.5264" y1="183.7656" y2="183.7656"/><line style="stroke:#181818;stroke-width:1;" x1="497.5264" x2="497.5264" y1="183.7656" y2="196.7656"/><line style="stroke:#181818;stroke-width:1;" x1="456.5264" x2="497.5264" y1="196.7656" y2="196.7656"/><polygon fill="#181818" points="466.5264,192.7656,456.5264,196.7656,466.5264,200.7656,462.5264,196.7656" style="stroke:#181818;stroke-width:1;stroke-linejoin:miter;stroke-miterlimit:10;"/><text fill="#000000" font-family="Helvetica" font-size="10" x="462.5264" y="179.4072">(02)</text><text fill="#000000" font-family="Helvetica" font-size="10" x="487.0537" y="179.4072">Validiere Apple_Attestation_Object &amp; signed_Hash_PuK.Client.Sig</text><path d="M460.5264,209.7656 L460.5264,242.7656 L757.5264,242.7656 L757.5264,219.7656 L747.5264,209.7656 L460.5264,209.7656" fill="#FEFFDD" style="stroke:#181818;stroke-width:0.5;"/><path d="M747.5264,209.7656 L747.5264,219.7656 L757.5264,219.7656 L747.5264,209.7656" fill="#FEFFDD" style="stroke:#181818;stroke-width:0.5;"/><text fill="#000000" font-family="Helvetica" font-size="10" x="466.5264" y="224.0479">AuthS verifiziert Apple App Attest Root CA und pr&#252;ft,</text><text fill="#000000" font-family="Helvetica" font-size="10" x="466.5264" y="235.6885">dass PuK.AK.Sig mit x5c[0] des Objekts &#252;bereinstimmt.</text><polygon fill="#181818" points="433.5264,326.25,443.5264,330.25,433.5264,334.25,437.5264,330.25" style="stroke:#181818;stroke-width:1;stroke-linejoin:miter;stroke-miterlimit:10;"/><line style="stroke:#181818;stroke-width:1;" x1="72.0967" x2="439.5264" y1="330.25" y2="330.25"/><text fill="#000000" font-family="Helvetica" font-size="10" x="79.0967" y="308.4307">(03)</text><text fill="#000000" font-family="Helvetica" font-size="10" x="103.624" y="290.9697">POST /register</text><text fill="#000000" font-family="Helvetica" font-size="10" x="103.624" y="302.6104">{attestation_type="zeta_attestation_token",</text><text fill="#000000" font-family="Helvetica" font-size="10" x="103.624" y="314.251">zeta_guard_attestation_token, PuK.Client.Sig,</text><text fill="#000000" font-family="Helvetica" font-size="10" x="103.624" y="325.8916">signed_Hash_PuK.Client.Sig}</text><line style="stroke:#181818;stroke-width:1;" x1="455.5264" x2="497.5264" y1="355.8906" y2="355.8906"/><line style="stroke:#181818;stroke-width:1;" x1="497.5264" x2="497.5264" y1="355.8906" y2="368.8906"/><line style="stroke:#181818;stroke-width:1;" x1="456.5264" x2="497.5264" y1="368.8906" y2="368.8906"/><polygon fill="#181818" points="466.5264,364.8906,456.5264,368.8906,466.5264,372.8906,462.5264,368.8906" style="stroke:#181818;stroke-width:1;stroke-linejoin:miter;stroke-miterlimit:10;"/><text fill="#000000" font-family="Helvetica" font-size="10" x="462.5264" y="351.5322">(04)</text><text fill="#000000" font-family="Helvetica" font-size="10" x="487.0537" y="351.5322">Pr&#252;fe Token-Signatur &amp; Vertrauensstellung</text><line style="stroke:#181818;stroke-width:1;" x1="455.5264" x2="497.5264" y1="394.5313" y2="394.5313"/><line style="stroke:#181818;stroke-width:1;" x1="497.5264" x2="497.5264" y1="394.5313" y2="407.5313"/><line style="stroke:#181818;stroke-width:1;" x1="456.5264" x2="497.5264" y1="407.5313" y2="407.5313"/><polygon fill="#181818" points="466.5264,403.5313,456.5264,407.5313,466.5264,411.5313,462.5264,407.5313" style="stroke:#181818;stroke-width:1;stroke-linejoin:miter;stroke-miterlimit:10;"/><text fill="#000000" font-family="Helvetica" font-size="10" x="462.5264" y="390.1729">(05)</text><text fill="#000000" font-family="Helvetica" font-size="10" x="487.0537" y="390.1729">Extrahiere PuK.AK.Sig aus Token, pr&#252;fe signed_Hash_PuK.Client.Sig</text><line style="stroke:#181818;stroke-width:1;" x1="455.5264" x2="497.5264" y1="447.1719" y2="447.1719"/><line style="stroke:#181818;stroke-width:1;" x1="497.5264" x2="497.5264" y1="447.1719" y2="460.1719"/><line style="stroke:#181818;stroke-width:1;" x1="456.5264" x2="497.5264" y1="460.1719" y2="460.1719"/><polygon fill="#181818" points="466.5264,456.1719,456.5264,460.1719,466.5264,464.1719,462.5264,460.1719" style="stroke:#181818;stroke-width:1;stroke-linejoin:miter;stroke-miterlimit:10;"/><text fill="#000000" font-family="Helvetica" font-size="10" x="462.5264" y="442.8135">(06)</text><text fill="#000000" font-family="Helvetica" font-size="10" x="487.0537" y="442.8135">Store Client Placeholder (state: pending_user_binding)</text><polygon fill="#181818" points="83.0967,481.8125,73.0967,485.8125,83.0967,489.8125,79.0967,485.8125" style="stroke:#181818;stroke-width:1;stroke-linejoin:miter;stroke-miterlimit:10;"/><line style="stroke:#181818;stroke-width:1;stroke-dasharray:2,2;" x1="77.0967" x2="444.5264" y1="485.8125" y2="485.8125"/><text fill="#000000" font-family="Helvetica" font-size="10" x="89.0967" y="481.4541">(07)</text><text fill="#000000" font-family="Helvetica" font-size="10" x="113.624" y="481.4541">201 Created {client_id, status="pending_user_binding"}</text><?plantuml-src ZLFRRjf047ttLqpzKBK2d3HINb0IoG8hHMc4XIbIMofhiGUpZLbRUub8elnDFoDl-R7EUg61ag2-UBsxCsVEd3FxZekiD3b241pLPbbsIdPN6HtebVOyRrQjmE_ZBS_GXtuq6VIYj3VyCXnv0CrTBFdo-RTKTqhZqeTuDBWEer7oBHb7rtyZ0MecDSzupOI6NicH5gR0_nwDm_NUXxEpUzJiue8IKEGMtjkiZaSePXmrIXWFu2GuXZxbAMsB3YU3VZJQPTPWNnecSn_iVthvDHprt-0K6hr86afnFvuAkwqalsUQLm8IbBSe3nDqJRHQ7YirN24Ny58VGgrHQGSshcvG4C9QXSw5gzrgTI4U9cCuabXm4bDEnGDxoKlrNOtdFglh4lqsnEOg2A-2X1Tj2ErPkbKZ7Sv-OQRRKs73N24NgdWXC4y_CxL8T-yUYP8JOSEe2nDMyfoZn3TBmFi3a8GeAeqWUR7GKCqtiAuCAShd_9xWjOEttxLICAegcfCG3CbRo-UdkMqcPqfjDGvBhc5rclqu_WavAh2CRhI2vwSPKUOq6Novr87dOQdGkR7d0znMSi54tZYovyb_EM978jqvji0-yMrk2Zi0-_VEmIrhfkAmD_lkn5ONT7rqA4emRIGPCY559JFqD8XpMHfHl9eUhIXgqRYxfIapoY6sdUvuo5yQVi_x5pVH5K6kbOnBbk6YAdDwj1-i0DY5cjAuA5AZKAOptcm-Rc08nwLsEbquEVu4FOcKbSD3rXodFASf9Y2ZpltNaFn7xmy0?></g></svg>