<svg xmlns="http://www.w3.org/2000/svg" xmlns:xlink="http://www.w3.org/1999/xlink" contentStyleType="text/css" data-diagram-type="SEQUENCE" height="1149px" preserveAspectRatio="none" style="width:1269px;height:1149px;background:#FFFFFF;" version="1.1" viewBox="0 0 1269 1149" width="1269px" zoomAndPan="magnify"><?plantuml 1.2026.6?><defs/><g><rect fill="#FEFCFF" height="1123.0313" style="stroke:#181818;stroke-width:0.5;" width="87.1543" x="16" y="11"/><text fill="#000000" font-family="Helvetica" font-size="10" font-weight="700" x="28" y="20.2822">Mobile App</text><rect fill="#EDFDEC" height="1123.0313" style="stroke:#181818;stroke-width:0.5;" width="147.7842" x="361.6929" y="11"/><text fill="#000000" font-family="Helvetica" font-size="10" font-weight="700" x="373.6929" y="20.2822">Anbieter TI 2.0 Dienst</text><rect fill="#FFF3E5" height="1106.3906" style="stroke:#181818;stroke-width:0.5;" width="147.7842" x="361.6929" y="27.6406"/><text fill="#000000" font-family="Helvetica" font-size="10" font-weight="700" x="402.4404" y="36.9229">ZETA Guard</text><rect fill="#EAF2FF" height="1123.0313" style="stroke:#181818;stroke-width:0.5;" width="388.772" x="863.3491" y="11"/><text fill="#000000" font-family="Helvetica" font-size="10" font-weight="700" x="1019.6296" y="20.2822">TI-F&#246;deration</text><g><title>ZETA Client</title><rect fill="#000000" fill-opacity="0.00000" height="984.9063" width="8" x="56.0771" y="93.2031"/><line style="stroke:#000000;stroke-width:0.5;stroke-dasharray:5,5;" x1="59.5771" x2="59.5771" y1="93.2031" y2="1078.1094"/></g><g><title/><rect fill="#FFFFFF" height="976.9063" style="stroke:#181818;stroke-width:1;" width="10" x="54.5771" y="101.2031"/></g><g><title>PDP</title><rect fill="#000000" fill-opacity="0.00000" height="984.9063" width="8" x="432.085" y="93.2031"/><line style="stroke:#000000;stroke-width:0.5;stroke-dasharray:5,5;" x1="435.585" x2="435.585" y1="93.2031" y2="1078.1094"/></g><g><title/><rect fill="#FFFFFF" height="781.1406" style="stroke:#181818;stroke-width:1;" width="10" x="430.585" y="247.3281"/></g><g><title>Sektoraler IDP</title><rect fill="#000000" fill-opacity="0.00000" height="984.9063" width="8" x="910.334" y="93.2031"/><line style="stroke:#000000;stroke-width:0.5;stroke-dasharray:5,5;" x1="913.834" x2="913.834" y1="93.2031" y2="1078.1094"/></g><g><title/><rect fill="#FFFFFF" height="25.6406" style="stroke:#181818;stroke-width:1;" width="10" x="908.834" y="452.4531"/></g><g><title/><rect fill="#FFFFFF" height="282.0469" style="stroke:#181818;stroke-width:1;" width="10" x="908.834" y="697.5"/></g><g><title>Federation</title><rect fill="#000000" fill-opacity="0.00000" height="984.9063" width="8" x="1210.7217" y="93.2031"/><line style="stroke:#000000;stroke-width:0.5;stroke-dasharray:5,5;" x1="1214.2217" x2="1214.2217" y1="93.2031" y2="1078.1094"/></g><g><title/><rect fill="#FFFFFF" height="25.6406" style="stroke:#181818;stroke-width:1;" width="10" x="1209.2217" y="503.7344"/></g><g><title/><rect fill="#FFFFFF" height="25.6406" style="stroke:#181818;stroke-width:1;" width="10" x="1209.2217" y="802.0625"/></g><rect fill="#FFE6CC" height="25.6406" rx="2.5" ry="2.5" style="stroke:#D79B00;stroke-width:0.5;" width="72.2471" x="23.4536" y="66.5625"/><text fill="#000000" font-family="Helvetica" font-size="10" x="30.4536" y="82.8447">ZETA Client</text><rect fill="#FFE6CC" height="48.9219" rx="2.5" ry="2.5" style="stroke:#D79B00;stroke-width:0.5;" width="117.0322" x="377.0688" y="43.2813"/><text fill="#000000" font-family="Helvetica" font-size="10" x="425.7046" y="59.5635">PDP</text><text fill="#000000" font-family="Helvetica" font-size="10" x="384.1104" y="71.2041">Authorization Server</text><text fill="#000000" font-family="Helvetica" font-size="10" x="384.0688" y="82.8447">(OIDC Relying Party)</text><rect fill="#E2E2F0" height="37.2813" rx="2.5" ry="2.5" style="stroke:#181818;stroke-width:0.5;" width="92.9697" x="867.3491" y="54.9219"/><text fill="#000000" font-family="Helvetica" font-size="10" x="878.0991" y="71.2041">Sektoraler IDP</text><text fill="#000000" font-family="Helvetica" font-size="10" x="874.3491" y="82.8447">(PAR-Endpunkt)</text><rect fill="#E2E2F0" height="37.2813" rx="2.5" ry="2.5" style="stroke:#181818;stroke-width:0.5;" width="67.7988" x="1180.3223" y="54.9219"/><text fill="#000000" font-family="Helvetica" font-size="10" x="1187.3223" y="71.2041">Federation</text><text fill="#000000" font-family="Helvetica" font-size="10" x="1197.1465" y="82.8447">Master</text><rect fill="#FFE6CC" height="25.6406" rx="2.5" ry="2.5" style="stroke:#D79B00;stroke-width:0.5;" width="72.2471" x="23.4536" y="1078.1094"/><text fill="#000000" font-family="Helvetica" font-size="10" x="30.4536" y="1094.3916">ZETA Client</text><rect fill="#FFE6CC" height="48.9219" rx="2.5" ry="2.5" style="stroke:#D79B00;stroke-width:0.5;" width="117.0322" x="377.0688" y="1078.1094"/><text fill="#000000" font-family="Helvetica" font-size="10" x="425.7046" y="1094.3916">PDP</text><text fill="#000000" font-family="Helvetica" font-size="10" x="384.1104" y="1106.0322">Authorization Server</text><text fill="#000000" font-family="Helvetica" font-size="10" x="384.0688" y="1117.6729">(OIDC Relying Party)</text><rect fill="#E2E2F0" height="37.2813" rx="2.5" ry="2.5" style="stroke:#181818;stroke-width:0.5;" width="92.9697" x="867.3491" y="1078.1094"/><text fill="#000000" font-family="Helvetica" font-size="10" x="878.0991" y="1094.3916">Sektoraler IDP</text><text fill="#000000" font-family="Helvetica" font-size="10" x="874.3491" y="1106.0322">(PAR-Endpunkt)</text><rect fill="#E2E2F0" height="37.2813" rx="2.5" ry="2.5" style="stroke:#181818;stroke-width:0.5;" width="67.7988" x="1180.3223" y="1078.1094"/><text fill="#000000" font-family="Helvetica" font-size="10" x="1187.3223" y="1094.3916">Federation</text><text fill="#000000" font-family="Helvetica" font-size="10" x="1197.1465" y="1106.0322">Master</text><path d="M17.2573,106.2031 L17.2573,127.2031 L477.2573,127.2031 L477.2573,116.2031 L467.2573,106.2031 L17.2573,106.2031" fill="#FEFFDD" style="stroke:#181818;stroke-width:0.5;"/><path d="M467.2573,106.2031 L467.2573,116.2031 L477.2573,116.2031 L467.2573,106.2031" fill="#FEFFDD" style="stroke:#181818;stroke-width:0.5;"/><text fill="#000000" font-family="Helvetica" font-size="10" x="36.4087" y="120.4854">Der ZETA Client hat vom Fach-Client den fachlichen Request inkl. idp_iss erhalten.</text><line style="stroke:#181818;stroke-width:1;" x1="64.5771" x2="106.5771" y1="173.7656" y2="173.7656"/><line style="stroke:#181818;stroke-width:1;" x1="106.5771" x2="106.5771" y1="173.7656" y2="186.7656"/><line style="stroke:#181818;stroke-width:1;" x1="65.5771" x2="106.5771" y1="186.7656" y2="186.7656"/><polygon fill="#181818" points="75.5771,182.7656,65.5771,186.7656,75.5771,190.7656,71.5771,186.7656" style="stroke:#181818;stroke-width:1;stroke-linejoin:miter;stroke-miterlimit:10;"/><text fill="#000000" font-family="Helvetica" font-size="10" x="71.5771" y="157.7666">(01)</text><text fill="#000000" font-family="Helvetica" font-size="10" x="96.1045" y="146.126">Erzeuge PKCE (code_verifier_app),</text><text fill="#000000" font-family="Helvetica" font-size="10" x="96.1045" y="157.7666">code_challenge_app = S256(code_verifier_app),</text><text fill="#000000" font-family="Helvetica" font-size="10" x="96.1045" y="169.4072">state_app</text><polygon fill="#181818" points="418.585,243.3281,428.585,247.3281,418.585,251.3281,422.585,247.3281" style="stroke:#181818;stroke-width:1;stroke-linejoin:miter;stroke-miterlimit:10;"/><line style="stroke:#181818;stroke-width:1;" x1="64.5771" x2="424.585" y1="247.3281" y2="247.3281"/><text fill="#000000" font-family="Helvetica" font-size="10" x="71.5771" y="225.5088">(02)</text><text fill="#000000" font-family="Helvetica" font-size="10" x="96.1045" y="208.0479">POST /par (private_key_jwt, client_assertion)</text><text fill="#000000" font-family="Helvetica" font-size="10" x="102.4619" y="219.6885">{response_type=code, client_id, redirect_uri=app_redirect_uri,</text><text fill="#000000" font-family="Helvetica" font-size="10" x="102.4619" y="231.3291">oidc_redirect_uri=oidc_redirect_uri, code_challenge_app,</text><text fill="#000000" font-family="Helvetica" font-size="10" x="102.4619" y="242.9697">code_challenge_method=S256, scope, state_app, idp_iss}</text><line style="stroke:#181818;stroke-width:1;" x1="440.585" x2="482.585" y1="272.9688" y2="272.9688"/><line style="stroke:#181818;stroke-width:1;" x1="482.585" x2="482.585" y1="272.9688" y2="285.9688"/><line style="stroke:#181818;stroke-width:1;" x1="441.585" x2="482.585" y1="285.9688" y2="285.9688"/><polygon fill="#181818" points="451.585,281.9688,441.585,285.9688,451.585,289.9688,447.585,285.9688" style="stroke:#181818;stroke-width:1;stroke-linejoin:miter;stroke-miterlimit:10;"/><text fill="#000000" font-family="Helvetica" font-size="10" x="447.585" y="268.6104">(03)</text><text fill="#000000" font-family="Helvetica" font-size="10" x="472.1123" y="268.6104">Validiere &amp; speichere Request-Parameter, erzeuge request_uri_app</text><polygon fill="#181818" points="75.5771,307.6094,65.5771,311.6094,75.5771,315.6094,71.5771,311.6094" style="stroke:#181818;stroke-width:1;stroke-linejoin:miter;stroke-miterlimit:10;"/><line style="stroke:#181818;stroke-width:1;stroke-dasharray:2,2;" x1="69.5771" x2="429.585" y1="311.6094" y2="311.6094"/><text fill="#000000" font-family="Helvetica" font-size="10" x="81.5771" y="307.251">(04)</text><text fill="#000000" font-family="Helvetica" font-size="10" x="106.1045" y="307.251">201 Created {request_uri_app, expires_in (5s)}</text><polygon fill="#181818" points="418.585,333.25,428.585,337.25,418.585,341.25,422.585,337.25" style="stroke:#181818;stroke-width:1;stroke-linejoin:miter;stroke-miterlimit:10;"/><line style="stroke:#181818;stroke-width:1;" x1="64.5771" x2="424.585" y1="337.25" y2="337.25"/><text fill="#000000" font-family="Helvetica" font-size="10" x="71.5771" y="332.8916">(05)</text><text fill="#000000" font-family="Helvetica" font-size="10" x="96.1045" y="332.8916">GET /authorize?client_id=...&amp;request_uri=request_uri_app</text><line style="stroke:#181818;stroke-width:1;" x1="440.585" x2="482.585" y1="386.1719" y2="386.1719"/><line style="stroke:#181818;stroke-width:1;" x1="482.585" x2="482.585" y1="386.1719" y2="399.1719"/><line style="stroke:#181818;stroke-width:1;" x1="441.585" x2="482.585" y1="399.1719" y2="399.1719"/><polygon fill="#181818" points="451.585,395.1719,441.585,399.1719,451.585,403.1719,447.585,399.1719" style="stroke:#181818;stroke-width:1;stroke-linejoin:miter;stroke-miterlimit:10;"/><text fill="#000000" font-family="Helvetica" font-size="10" x="447.585" y="370.1729">(06)</text><text fill="#000000" font-family="Helvetica" font-size="10" x="472.1123" y="358.5322">Erzeuge PKCE (code_verifier_as),</text><text fill="#000000" font-family="Helvetica" font-size="10" x="472.1123" y="370.1729">code_challenge_as = S256(code_verifier_as),</text><text fill="#000000" font-family="Helvetica" font-size="10" x="472.1123" y="381.8135">state_as, nonce</text><path d="M419.585,411.1719 L483.3936,411.1719 L483.3936,414.8125 L473.3936,424.8125 L419.585,424.8125 L419.585,411.1719" fill="#EEEEEE" style="stroke:#000000;stroke-width:1.5;"/><rect fill="none" height="176.4844" style="stroke:#000000;stroke-width:1.5;" width="815.6367" x="419.585" y="411.1719"/><text fill="#000000" font-family="Helvetica" font-size="10" font-weight="700" x="434.585" y="421.4541">opt</text><text fill="#000000" font-family="Helvetica" font-size="10" font-weight="700" x="498.3936" y="422.4541">[Entity Statement des IDP unbekannt]</text><polygon fill="#181818" points="896.834,448.4531,906.834,452.4531,896.834,456.4531,900.834,452.4531" style="stroke:#181818;stroke-width:1;stroke-linejoin:miter;stroke-miterlimit:10;"/><line style="stroke:#181818;stroke-width:1;" x1="440.585" x2="902.834" y1="452.4531" y2="452.4531"/><text fill="#000000" font-family="Helvetica" font-size="10" x="447.585" y="448.0947">(07)</text><text fill="#000000" font-family="Helvetica" font-size="10" x="472.1123" y="448.0947">GET /.well-known/openid-federation</text><polygon fill="#181818" points="451.585,474.0938,441.585,478.0938,451.585,482.0938,447.585,478.0938" style="stroke:#181818;stroke-width:1;stroke-linejoin:miter;stroke-miterlimit:10;"/><line style="stroke:#181818;stroke-width:1;stroke-dasharray:2,2;" x1="445.585" x2="907.834" y1="478.0938" y2="478.0938"/><text fill="#000000" font-family="Helvetica" font-size="10" x="457.585" y="473.7354">(08)</text><text fill="#000000" font-family="Helvetica" font-size="10" x="482.1123" y="473.7354">Entity Statement (signiert)</text><polygon fill="#181818" points="1197.2217,499.7344,1207.2217,503.7344,1197.2217,507.7344,1201.2217,503.7344" style="stroke:#181818;stroke-width:1;stroke-linejoin:miter;stroke-miterlimit:10;"/><line style="stroke:#181818;stroke-width:1;" x1="440.585" x2="1203.2217" y1="503.7344" y2="503.7344"/><text fill="#000000" font-family="Helvetica" font-size="10" x="447.585" y="499.376">(09)</text><text fill="#000000" font-family="Helvetica" font-size="10" x="472.1123" y="499.376">GET federation_fetch_endpoint?sub=&lt;idp_iss&gt;</text><polygon fill="#181818" points="451.585,525.375,441.585,529.375,451.585,533.375,447.585,529.375" style="stroke:#181818;stroke-width:1;stroke-linejoin:miter;stroke-miterlimit:10;"/><line style="stroke:#181818;stroke-width:1;stroke-dasharray:2,2;" x1="445.585" x2="1208.2217" y1="529.375" y2="529.375"/><text fill="#000000" font-family="Helvetica" font-size="10" x="457.585" y="525.0166">(10)</text><text fill="#000000" font-family="Helvetica" font-size="10" x="482.1123" y="525.0166">Entity Statement des IDP (signiert, Federation Master)</text><line style="stroke:#181818;stroke-width:1;" x1="440.585" x2="482.585" y1="566.6563" y2="566.6563"/><line style="stroke:#181818;stroke-width:1;" x1="482.585" x2="482.585" y1="566.6563" y2="579.6563"/><line style="stroke:#181818;stroke-width:1;" x1="441.585" x2="482.585" y1="579.6563" y2="579.6563"/><polygon fill="#181818" points="451.585,575.6563,441.585,579.6563,451.585,583.6563,447.585,579.6563" style="stroke:#181818;stroke-width:1;stroke-linejoin:miter;stroke-miterlimit:10;"/><text fill="#000000" font-family="Helvetica" font-size="10" x="447.585" y="556.4775">(11)</text><text fill="#000000" font-family="Helvetica" font-size="10" x="472.1123" y="550.6572">Validiere Trust Chain, importiere Signaturschl&#252;ssel</text><text fill="#000000" font-family="Helvetica" font-size="10" x="472.1123" y="562.2979">und OP-Metadaten (PAR-, Authorization-, Token-Endpunkt) des IDP</text><path d="M388.0845,606.6563 L388.0845,650.6563 L961.0845,650.6563 L961.0845,616.6563 L951.0845,606.6563 L388.0845,606.6563" fill="#FEFFDD" style="stroke:#181818;stroke-width:0.5;"/><path d="M951.0845,606.6563 L951.0845,616.6563 L961.0845,616.6563 L951.0845,606.6563" fill="#FEFFDD" style="stroke:#181818;stroke-width:0.5;"/><text fill="#000000" font-family="Helvetica" font-size="10" x="394.9849" y="620.9385">oidc_redirect_uri ist der Redirection-Endpunkt der OIDC Relying Party (AuthS) f&#252;r den SekIDP Auth Code Flow.</text><text fill="#000000" font-family="Helvetica" font-size="10" x="394.9849" y="632.5791">Sie wird im Entity Statement des AS (Fachdienst) gef&#252;hrt; der SekIDP pr&#252;ft beim PAR, ob oidc_redirect_uri</text><text fill="#000000" font-family="Helvetica" font-size="10" x="394.9849" y="644.2197">eine bekannte redirect_uri aus diesem AS-Entity-Statement ist.</text><polygon fill="#181818" points="896.834,693.5,906.834,697.5,896.834,701.5,900.834,697.5" style="stroke:#181818;stroke-width:1;stroke-linejoin:miter;stroke-miterlimit:10;"/><line style="stroke:#181818;stroke-width:1;" x1="440.585" x2="902.834" y1="697.5" y2="697.5"/><text fill="#000000" font-family="Helvetica" font-size="10" x="447.585" y="681.501">(12)</text><text fill="#000000" font-family="Helvetica" font-size="10" x="472.1123" y="669.8604">POST /PAR (mTLS, self_signed_tls_client_auth)</text><text fill="#000000" font-family="Helvetica" font-size="10" x="478.4697" y="681.501">{client_id, redirect_uri=oidc_redirect_uri, response_type=code, code_challenge_as,</text><text fill="#000000" font-family="Helvetica" font-size="10" x="478.4697" y="693.1416">code_challenge_method=S256, scope, claims, acr_values, nonce, state_as}</text><path d="M419.585,709.5 L483.3936,709.5 L483.3936,713.1406 L473.3936,723.1406 L419.585,723.1406 L419.585,709.5" fill="#EEEEEE" style="stroke:#000000;stroke-width:1.5;"/><rect fill="none" height="176.4844" style="stroke:#000000;stroke-width:1.5;" width="815.6367" x="419.585" y="709.5"/><text fill="#000000" font-family="Helvetica" font-size="10" font-weight="700" x="434.585" y="719.7822">opt</text><text fill="#000000" font-family="Helvetica" font-size="10" font-weight="700" x="498.3936" y="720.7822">[Entity Statement des Fachdienstes unbekannt]</text><polygon fill="#181818" points="451.585,746.7813,441.585,750.7813,451.585,754.7813,447.585,750.7813" style="stroke:#181818;stroke-width:1;stroke-linejoin:miter;stroke-miterlimit:10;"/><line style="stroke:#181818;stroke-width:1;" x1="445.585" x2="907.834" y1="750.7813" y2="750.7813"/><text fill="#000000" font-family="Helvetica" font-size="10" x="457.585" y="746.4229">(13)</text><text fill="#000000" font-family="Helvetica" font-size="10" x="482.1123" y="746.4229">GET /.well-known/openid-federation</text><polygon fill="#181818" points="896.834,772.4219,906.834,776.4219,896.834,780.4219,900.834,776.4219" style="stroke:#181818;stroke-width:1;stroke-linejoin:miter;stroke-miterlimit:10;"/><line style="stroke:#181818;stroke-width:1;stroke-dasharray:2,2;" x1="440.585" x2="902.834" y1="776.4219" y2="776.4219"/><text fill="#000000" font-family="Helvetica" font-size="10" x="447.585" y="772.0635">(14)</text><text fill="#000000" font-family="Helvetica" font-size="10" x="472.1123" y="772.0635">Entity Statement des Fachdienstes (signiert)</text><polygon fill="#181818" points="1197.2217,798.0625,1207.2217,802.0625,1197.2217,806.0625,1201.2217,802.0625" style="stroke:#181818;stroke-width:1;stroke-linejoin:miter;stroke-miterlimit:10;"/><line style="stroke:#181818;stroke-width:1;" x1="918.834" x2="1203.2217" y1="802.0625" y2="802.0625"/><text fill="#000000" font-family="Helvetica" font-size="10" x="925.834" y="797.7041">(15)</text><text fill="#000000" font-family="Helvetica" font-size="10" x="950.3613" y="797.7041">GET federation_fetch_endpoint?sub=&lt;client_id&gt;</text><polygon fill="#181818" points="929.834,823.7031,919.834,827.7031,929.834,831.7031,925.834,827.7031" style="stroke:#181818;stroke-width:1;stroke-linejoin:miter;stroke-miterlimit:10;"/><line style="stroke:#181818;stroke-width:1;stroke-dasharray:2,2;" x1="923.834" x2="1208.2217" y1="827.7031" y2="827.7031"/><text fill="#000000" font-family="Helvetica" font-size="10" x="935.834" y="823.3447">(16)</text><text fill="#000000" font-family="Helvetica" font-size="10" x="960.3613" y="823.3447">Entity Statement des Fachdienstes (signiert)</text><line style="stroke:#181818;stroke-width:1;" x1="918.834" x2="960.834" y1="864.9844" y2="864.9844"/><line style="stroke:#181818;stroke-width:1;" x1="960.834" x2="960.834" y1="864.9844" y2="877.9844"/><line style="stroke:#181818;stroke-width:1;" x1="919.834" x2="960.834" y1="877.9844" y2="877.9844"/><polygon fill="#181818" points="929.834,873.9844,919.834,877.9844,929.834,881.9844,925.834,877.9844" style="stroke:#181818;stroke-width:1;stroke-linejoin:miter;stroke-miterlimit:10;"/><text fill="#000000" font-family="Helvetica" font-size="10" x="925.834" y="854.8057">(17)</text><text fill="#000000" font-family="Helvetica" font-size="10" x="950.3613" y="848.9854">Validiere Trust Chain, Automatic Registration,</text><text fill="#000000" font-family="Helvetica" font-size="10" x="950.3613" y="860.626">importiere Schl&#252;ssel (sig/enc) des Fachdienstes</text><line style="stroke:#181818;stroke-width:1;" x1="918.834" x2="960.834" y1="940.9063" y2="940.9063"/><line style="stroke:#181818;stroke-width:1;" x1="960.834" x2="960.834" y1="940.9063" y2="953.9063"/><line style="stroke:#181818;stroke-width:1;" x1="919.834" x2="960.834" y1="953.9063" y2="953.9063"/><polygon fill="#181818" points="929.834,949.9063,919.834,953.9063,929.834,957.9063,925.834,953.9063" style="stroke:#181818;stroke-width:1;stroke-linejoin:miter;stroke-miterlimit:10;"/><text fill="#000000" font-family="Helvetica" font-size="10" x="925.834" y="924.9072">(18)</text><text fill="#000000" font-family="Helvetica" font-size="10" x="950.3613" y="913.2666">Validiere PAR: oidc_redirect_uri gegen redirect_uris</text><text fill="#000000" font-family="Helvetica" font-size="10" x="950.3613" y="924.9072">im AS-Entity-Statement, scope, claims,</text><text fill="#000000" font-family="Helvetica" font-size="10" x="950.3613" y="936.5479">TLS-Clientzertifikat; erzeuge request_uri</text><polygon fill="#181818" points="451.585,975.5469,441.585,979.5469,451.585,983.5469,447.585,979.5469" style="stroke:#181818;stroke-width:1;stroke-linejoin:miter;stroke-miterlimit:10;"/><line style="stroke:#181818;stroke-width:1;stroke-dasharray:2,2;" x1="445.585" x2="907.834" y1="979.5469" y2="979.5469"/><text fill="#000000" font-family="Helvetica" font-size="10" x="457.585" y="975.1885">(19)</text><text fill="#000000" font-family="Helvetica" font-size="10" x="482.1123" y="975.1885">201 Created {request_uri, expires_in (max. 90s)}</text><polygon fill="#181818" points="75.5771,1024.4688,65.5771,1028.4688,75.5771,1032.4688,71.5771,1028.4688" style="stroke:#181818;stroke-width:1;stroke-linejoin:miter;stroke-miterlimit:10;"/><line style="stroke:#181818;stroke-width:1;stroke-dasharray:2,2;" x1="69.5771" x2="429.585" y1="1028.4688" y2="1028.4688"/><text fill="#000000" font-family="Helvetica" font-size="10" x="81.5771" y="1012.4697">(20)</text><text fill="#000000" font-family="Helvetica" font-size="10" x="106.1045" y="1000.8291">302 Found Location:</text><text fill="#000000" font-family="Helvetica" font-size="10" x="106.1045" y="1012.4697">&lt;SekIDP Entity Statement authorization_endpoint&gt;</text><text fill="#000000" font-family="Helvetica" font-size="10" x="106.1045" y="1024.1104">?client_id&amp;request_uri</text><path d="M23.2729,1041.4688 L23.2729,1062.4688 L949.2729,1062.4688 L949.2729,1051.4688 L939.2729,1041.4688 L23.2729,1041.4688" fill="#FEFFDD" style="stroke:#181818;stroke-width:0.5;"/><path d="M939.2729,1041.4688 L939.2729,1051.4688 L949.2729,1051.4688 L939.2729,1041.4688" fill="#FEFFDD" style="stroke:#181818;stroke-width:0.5;"/><text fill="#000000" font-family="Helvetica" font-size="10" x="310.4233" y="1055.751">Weiter mit Teildiagramm (B) Abb-ZETA-OIDC-Nutzerauthentisierung.</text><?plantuml-src ZLVRRkCs47tNLqnTO6iZbfAcs09ruonSNuAWIMF4xXOe30YqDBPPIvHAKhaL-rjzobj-h4DAbYLVjdcBH-ISkPqpp3TS154M8dZUQPh5aHknvoJJddxIZkDy1rFaKSZPKh8uXcQlrO5UfbU9v2zCyqJ0FVwTeT8Gee8_XzCUz2EEGaFCDOmpjSBmo8Nck7VVAW3WWJxqvdFNU73lhWTzrrmYFtp1NpZAJ2pTE9dp2AMR0oZ7cITFqBYrLkYbQGC6my_N_Q7VlxkvktS0KYOr3tZAA9mYAgQWKOco0HSNBwZPvQM38WHoM7ZjYJb7ZHAcrt3kdS60JYiwFhw_-tmz6DwN6FQqzNYLCHasR0tygzzxzuFoJ3qIazZ41Z8UZ6UYNfm9oWUKCz4qDQ1IHSzSB65CrvzRbM01Dk7MmvvUkwEtVqEKrbi3lXtsHkUZqKujhWTZYp_1jKuaeveQ4u5IHzoX2DDCh7MhiNDhT6ilZN3ZVYPkcQ8QDRP1v5KzEN54eX4IIgKeT3jFkmC3CbN7PCKqDJ-64GjMHMTfb0Giw7V40ng1Sc2uM4SUy33rkLA0SiKYZSBRe89xMJZjm52-OBP46F_Q7q8pI4BqAHQQ9PG-IzDMUoQiCI0V4Oeb6YjqONB-ySV3nvLcsfwgmjcSJauwCBwRJE6KgWNDLF87StIDp_vVZvHuO8_xJ2cKfcojcG3uHw9A4w7GryyfTWraUPA7RP0OSec1zZF9kuJgLmrjuo7XOL2pTlSiv74lINjtnnmZZM3ODSctGGL9Ih6K-ROt5V_Yv9ExoRi3y9b5FAGY8Nm0bQ9f5_rTzCkbgMMn8L6RcfNtG-QVJ72sbeN7IkVEpxw7laG23qsHQiV9prDAsIcV2sX-LAqlkxtemDMG6i4AJk6digHTp_C-LFnrTqFPo-whCwGEZP0wCa6gCa2g3I8H0JfEaceOai3fPvYORt4--ihICnDpN3CXj9MFCZJwPCRD9kazOXIvQv4yYbDgcU2XkoYvQQyPH-uc8TVjxCCr5LyAYb6twZYZsmtCrgM_G1siVE9wcd2XFwbithqePkFINYU5-3hS9hiIjWrREO5SJNOYAPgndRIfp4WB-Yl61Orcd2P4AcEVa4kcCwb8DzvUYMpHJ6IaItTZzvP4CwGOXDqvRhk-aEZtD5cZs2hV9awZQqv5ocmiRVlb0F-0soqeQVvpe_6zyMa_x6iwBLJZimMBjrTfTOyqsLJ8cA5FOmIZA7dq26_24Hwv32ddmuNjJQ1fL3Iqgwe5IoIdAwb_jjY5trI-lIuqp96yK2tQaCptCp7hXGk4OWInfaR0CWM4eJ0cI3SFnTs6GbNmx48mTQkmgXZTN2a96fhnz8QgIOrQ-6OUCFHrfFoDNDAzN2cFgU81kJieghiaVQy21X7ZCT6L1T9_O169HK7TKXn94e-pUDiA-b6di-LbNR7-dynRgQJhdNTWxd2x07qtiykorxXDNeuo-nteDlGZNAO4avZY2OWYIvgYF3RgLfNa9Rajm2cAeBM7dTFsC28DNkS0TPUu9EvLJShW7XhmtVcO2HhZukNoOZRyWgyPaUx0odFs1FdOjgjlkfWzUV3JcTbtUnlJUFdXx1n6YH6xcoImLUlCn4N1-BrMiQhubKs_d8djigmkIkV0MyuMzG_ave5itldr_n5-QUqyvN_BJ6LOyQ1N-NFUS_u3?></g></svg>