<svg xmlns="http://www.w3.org/2000/svg" xmlns:xlink="http://www.w3.org/1999/xlink" contentStyleType="text/css" data-diagram-type="SEQUENCE" height="1382px" preserveAspectRatio="none" style="width:1188px;height:1382px;background:#FFFFFF;" version="1.1" viewBox="0 0 1188 1382" width="1188px" zoomAndPan="magnify"><?plantuml 1.2026.4?><defs/><g><rect fill="#FEFCFF" height="1356.6719" style="stroke:#181818;stroke-width:0.5;" width="80.2471" x="198.7378" y="11"/><text fill="#000000" font-family="Helvetica" font-size="10" font-weight="700" x="219.9917" y="20.2822">Device</text><rect fill="#E6E6FA" height="1340.0313" style="stroke:#181818;stroke-width:0.5;" width="80.2471" x="198.7378" y="27.6406"/><text fill="#000000" font-family="Helvetica" font-size="10" font-weight="700" x="227.8335" y="36.9229">App</text><rect fill="#EDFDEC" height="1356.6719" style="stroke:#181818;stroke-width:0.5;" width="147.7842" x="654.7563" y="11"/><text fill="#000000" font-family="Helvetica" font-size="10" font-weight="700" x="666.7563" y="20.2822">Anbieter TI 2.0 Dienst</text><rect fill="#FFF3E5" height="1340.0313" style="stroke:#181818;stroke-width:0.5;" width="147.7842" x="654.7563" y="27.6406"/><text fill="#000000" font-family="Helvetica" font-size="10" font-weight="700" x="695.5039" y="36.9229">ZETA Guard</text><g><title>Nutzer</title><rect fill="#000000" fill-opacity="0.00000" height="1175.1094" width="8" x="26.126" y="114.9219"/><line style="stroke:#000000;stroke-width:0.5;stroke-dasharray:5,5;" x1="29.626" x2="29.626" y1="114.9219" y2="1290.0313"/></g><g><title>ZETA Client</title><rect fill="#000000" fill-opacity="0.00000" height="1175.1094" width="8" x="235.3613" y="114.9219"/><line style="stroke:#000000;stroke-width:0.5;stroke-dasharray:5,5;" x1="238.8613" x2="238.8613" y1="114.9219" y2="1290.0313"/></g><g><title/><rect fill="#FFFFFF" height="1167.1094" style="stroke:#181818;stroke-width:1;" width="10" x="233.8613" y="122.9219"/></g><g><title>PDP</title><rect fill="#000000" fill-opacity="0.00000" height="1175.1094" width="8" x="725.1484" y="114.9219"/><line style="stroke:#000000;stroke-width:0.5;stroke-dasharray:5,5;" x1="728.6484" x2="728.6484" y1="114.9219" y2="1290.0313"/></g><g><title/><rect fill="#FFFFFF" height="870.0625" style="stroke:#181818;stroke-width:1;" width="10" x="723.6484" y="207.4844"/></g><g><title/><rect fill="#FFFFFF" height="64.2813" style="stroke:#181818;stroke-width:1;" width="10" x="723.6484" y="1193.75"/></g><text fill="#000000" font-family="Helvetica" font-size="10" x="10" y="112.5635">Nutzer</text><ellipse cx="29.626" cy="51.7813" fill="#E2E2F0" rx="8" ry="8" style="stroke:#181818;stroke-width:0.5;"/><path d="M29.626,59.7813 L29.626,86.7813 M16.626,67.7813 L42.626,67.7813 M29.626,86.7813 L16.626,101.7813 M29.626,86.7813 L42.626,101.7813" fill="none" style="stroke:#181818;stroke-width:0.5;"/><rect fill="#FFE6CC" height="25.6406" rx="2.5" ry="2.5" style="stroke:#D79B00;stroke-width:0.5;" width="72.2471" x="202.7378" y="88.2813"/><text fill="#000000" font-family="Helvetica" font-size="10" x="209.7378" y="104.5635">ZETA Client</text><rect fill="#FFE6CC" height="37.2813" rx="2.5" ry="2.5" style="stroke:#D79B00;stroke-width:0.5;" width="116.9492" x="670.1738" y="76.6406"/><text fill="#000000" font-family="Helvetica" font-size="10" x="718.7681" y="92.9229">PDP</text><text fill="#000000" font-family="Helvetica" font-size="10" x="677.1738" y="104.5635">Authorization Server</text><text fill="#000000" font-family="Helvetica" font-size="10" x="10" y="1359.3135">Nutzer</text><ellipse cx="29.626" cy="1298.5313" fill="#E2E2F0" rx="8" ry="8" style="stroke:#181818;stroke-width:0.5;"/><path d="M29.626,1306.5313 L29.626,1333.5313 M16.626,1314.5313 L42.626,1314.5313 M29.626,1333.5313 L16.626,1348.5313 M29.626,1333.5313 L42.626,1348.5313" fill="none" style="stroke:#181818;stroke-width:0.5;"/><rect fill="#FFE6CC" height="25.6406" rx="2.5" ry="2.5" style="stroke:#D79B00;stroke-width:0.5;" width="72.2471" x="202.7378" y="1290.0313"/><text fill="#000000" font-family="Helvetica" font-size="10" x="209.7378" y="1306.3135">ZETA Client</text><rect fill="#FFE6CC" height="37.2813" rx="2.5" ry="2.5" style="stroke:#D79B00;stroke-width:0.5;" width="116.9492" x="670.1738" y="1290.0313"/><text fill="#000000" font-family="Helvetica" font-size="10" x="718.7681" y="1306.3135">PDP</text><text fill="#000000" font-family="Helvetica" font-size="10" x="677.1738" y="1317.9541">Authorization Server</text><path d="M203.8613,126.9219 L263.8174,126.9219 L263.8174,130.5625 L253.8174,140.5625 L203.8613,140.5625 L203.8613,126.9219" fill="#EEEEEE" style="stroke:#000000;stroke-width:1.5;"/><rect fill="none" height="918.9844" style="stroke:#000000;stroke-width:1.5;" width="964.1777" x="203.8613" y="126.9219"/><text fill="#000000" font-family="Helvetica" font-size="10" font-weight="700" x="218.8613" y="137.2041">alt</text><text fill="#000000" font-family="Helvetica" font-size="10" font-weight="700" x="278.8174" y="138.2041">[Kein ZETA Guard Attestation Token]</text><line style="stroke:#000000;stroke-width:1;stroke-dasharray:2,2;" x1="203.8613" x2="1168.0391" y1="889.4219" y2="889.4219"/><text fill="#000000" font-family="Helvetica" font-size="10" font-weight="700" x="208.8613" y="900.7041">[ZETA Attestation Token vorhanden (Fast-Path)]</text><path d="M222.8613,154.5625 L282.8174,154.5625 L282.8174,158.2031 L272.8174,168.2031 L222.8613,168.2031 L222.8613,154.5625" fill="#EEEEEE" style="stroke:#000000;stroke-width:1.5;"/><rect fill="none" height="709.8594" style="stroke:#000000;stroke-width:1.5;" width="920.1777" x="222.8613" y="154.5625"/><text fill="#000000" font-family="Helvetica" font-size="10" font-weight="700" x="237.8613" y="164.8447">alt</text><text fill="#000000" font-family="Helvetica" font-size="10" font-weight="700" x="297.8174" y="165.8447">[Hardware Attestation: iOS, iPadOS, macOS (Apple App Attest)]</text><line style="stroke:#000000;stroke-width:1;stroke-dasharray:2,2;" x1="222.8613" x2="1143.0391" y1="320.0469" y2="320.0469"/><text fill="#000000" font-family="Helvetica" font-size="10" font-weight="700" x="227.8613" y="331.3291">[Hardware Attestation: Android (Keystore, TEE, StrongBox)]</text><line style="stroke:#000000;stroke-width:1;stroke-dasharray:2,2;" x1="222.8613" x2="1143.0391" y1="711.6563" y2="711.6563"/><text fill="#000000" font-family="Helvetica" font-size="10" font-weight="700" x="227.8613" y="722.9385">[Software Attestation (Legacy OIDC DCR)]</text><polygon fill="#181818" points="711.6484,203.4844,721.6484,207.4844,711.6484,211.4844,715.6484,207.4844" style="stroke:#181818;stroke-width:1;stroke-linejoin:miter;stroke-miterlimit:10;"/><line style="stroke:#181818;stroke-width:1;" x1="243.8613" x2="717.6484" y1="207.4844" y2="207.4844"/><text fill="#000000" font-family="Helvetica" font-size="10" x="250.8613" y="197.3057">(01)</text><text fill="#000000" font-family="Helvetica" font-size="10" x="275.3887" y="191.4854">POST /register</text><text fill="#000000" font-family="Helvetica" font-size="10" x="275.3887" y="203.126">{attestation_type="apple", Apple_Attestation_Object, PuK.Client.Sig}</text><line style="stroke:#181818;stroke-width:1;" x1="733.6484" x2="775.6484" y1="233.125" y2="233.125"/><line style="stroke:#181818;stroke-width:1;" x1="775.6484" x2="775.6484" y1="233.125" y2="246.125"/><line style="stroke:#181818;stroke-width:1;" x1="734.6484" x2="775.6484" y1="246.125" y2="246.125"/><polygon fill="#181818" points="744.6484,242.125,734.6484,246.125,744.6484,250.125,740.6484,246.125" style="stroke:#181818;stroke-width:1;stroke-linejoin:miter;stroke-miterlimit:10;"/><text fill="#000000" font-family="Helvetica" font-size="10" x="740.6484" y="228.7666">(02)</text><text fill="#000000" font-family="Helvetica" font-size="10" x="765.1758" y="228.7666">Validiere Apple_Attestation_Object</text><path d="M738.6484,259.125 L738.6484,303.125 L973.6484,303.125 L973.6484,269.125 L963.6484,259.125 L738.6484,259.125" fill="#FEFFDD" style="stroke:#181818;stroke-width:0.5;"/><path d="M963.6484,259.125 L963.6484,269.125 L973.6484,269.125 L963.6484,259.125" fill="#FEFFDD" style="stroke:#181818;stroke-width:0.5;"/><text fill="#000000" font-family="Helvetica" font-size="10" x="744.6484" y="273.4072">AuthS verifiziert Apple App Attest Root CA.</text><text fill="#000000" font-family="Helvetica" font-size="10" x="744.6484" y="285.0479">Extrahiert Hash(PuK.Client.Sig) aus Objekt</text><text fill="#000000" font-family="Helvetica" font-size="10" x="744.6484" y="296.6885">und vergleicht ihn mit dem Payload.</text><polygon fill="#181818" points="711.6484,398.8906,721.6484,402.8906,711.6484,406.8906,715.6484,402.8906" style="stroke:#181818;stroke-width:1;stroke-linejoin:miter;stroke-miterlimit:10;"/><line style="stroke:#181818;stroke-width:1;" x1="243.8613" x2="717.6484" y1="402.8906" y2="402.8906"/><text fill="#000000" font-family="Helvetica" font-size="10" x="250.8613" y="375.251">(03)</text><text fill="#000000" font-family="Helvetica" font-size="10" x="275.3887" y="351.9697">POST /register</text><text fill="#000000" font-family="Helvetica" font-size="10" x="275.3887" y="363.6104">{attestation_type="android", PuK.AK.Sig,</text><text fill="#000000" font-family="Helvetica" font-size="10" x="275.3887" y="375.251">Android_Key_Attestation_Certificate_Chain,</text><text fill="#000000" font-family="Helvetica" font-size="10" x="275.3887" y="386.8916">PuK.Client.Sig, signed_Hash_PuK.Client.Sig,</text><text fill="#000000" font-family="Helvetica" font-size="10" x="275.3887" y="398.5322">play_integrity_token}</text><line style="stroke:#181818;stroke-width:1;" x1="733.6484" x2="775.6484" y1="428.5313" y2="428.5313"/><line style="stroke:#181818;stroke-width:1;" x1="775.6484" x2="775.6484" y1="428.5313" y2="441.5313"/><line style="stroke:#181818;stroke-width:1;" x1="734.6484" x2="775.6484" y1="441.5313" y2="441.5313"/><polygon fill="#181818" points="744.6484,437.5313,734.6484,441.5313,744.6484,445.5313,740.6484,441.5313" style="stroke:#181818;stroke-width:1;stroke-linejoin:miter;stroke-miterlimit:10;"/><text fill="#000000" font-family="Helvetica" font-size="10" x="740.6484" y="424.1729">(04)</text><text fill="#000000" font-family="Helvetica" font-size="10" x="765.1758" y="424.1729">Validiere Zertifikatskette gegen Google Root CA</text><line style="stroke:#181818;stroke-width:1;" x1="733.6484" x2="775.6484" y1="467.1719" y2="467.1719"/><line style="stroke:#181818;stroke-width:1;" x1="775.6484" x2="775.6484" y1="467.1719" y2="480.1719"/><line style="stroke:#181818;stroke-width:1;" x1="734.6484" x2="775.6484" y1="480.1719" y2="480.1719"/><polygon fill="#181818" points="744.6484,476.1719,734.6484,480.1719,744.6484,484.1719,740.6484,480.1719" style="stroke:#181818;stroke-width:1;stroke-linejoin:miter;stroke-miterlimit:10;"/><text fill="#000000" font-family="Helvetica" font-size="10" x="740.6484" y="462.8135">(05)</text><text fill="#000000" font-family="Helvetica" font-size="10" x="765.1758" y="462.8135">Pr&#252;fe signed_Hash_PuK.Client.Sig</text><path d="M712.6484,492.1719 L776.457,492.1719 L776.457,495.8125 L766.457,505.8125 L712.6484,505.8125 L712.6484,492.1719" fill="#EEEEEE" style="stroke:#000000;stroke-width:1.5;"/><rect fill="none" height="139.5625" style="stroke:#000000;stroke-width:1.5;" width="405.3906" x="712.6484" y="492.1719"/><text fill="#000000" font-family="Helvetica" font-size="10" font-weight="700" x="727.6484" y="502.4541">opt</text><text fill="#000000" font-family="Helvetica" font-size="10" font-weight="700" x="791.457" y="503.4541">[Play Integrity Pr&#252;fung]</text><line style="stroke:#181818;stroke-width:1;" x1="733.6484" x2="775.6484" y1="533.4531" y2="533.4531"/><line style="stroke:#181818;stroke-width:1;" x1="775.6484" x2="775.6484" y1="533.4531" y2="546.4531"/><line style="stroke:#181818;stroke-width:1;" x1="734.6484" x2="775.6484" y1="546.4531" y2="546.4531"/><polygon fill="#181818" points="744.6484,542.4531,734.6484,546.4531,744.6484,550.4531,740.6484,546.4531" style="stroke:#181818;stroke-width:1;stroke-linejoin:miter;stroke-miterlimit:10;"/><text fill="#000000" font-family="Helvetica" font-size="10" x="740.6484" y="529.0947">(06)</text><text fill="#000000" font-family="Helvetica" font-size="10" x="765.1758" y="529.0947">Entschl&#252;ssele play_integrity_token (lokal/remote)</text><line style="stroke:#181818;stroke-width:1;" x1="733.6484" x2="775.6484" y1="572.0938" y2="572.0938"/><line style="stroke:#181818;stroke-width:1;" x1="775.6484" x2="775.6484" y1="572.0938" y2="585.0938"/><line style="stroke:#181818;stroke-width:1;" x1="734.6484" x2="775.6484" y1="585.0938" y2="585.0938"/><polygon fill="#181818" points="744.6484,581.0938,734.6484,585.0938,744.6484,589.0938,740.6484,585.0938" style="stroke:#181818;stroke-width:1;stroke-linejoin:miter;stroke-miterlimit:10;"/><text fill="#000000" font-family="Helvetica" font-size="10" x="740.6484" y="567.7354">(07)</text><text fill="#000000" font-family="Helvetica" font-size="10" x="765.1758" y="567.7354">Verifiziere Nonce (Muss Hash(PuK.Client.Sig) entsprechen)</text><line style="stroke:#181818;stroke-width:1;" x1="733.6484" x2="775.6484" y1="610.7344" y2="610.7344"/><line style="stroke:#181818;stroke-width:1;" x1="775.6484" x2="775.6484" y1="610.7344" y2="623.7344"/><line style="stroke:#181818;stroke-width:1;" x1="734.6484" x2="775.6484" y1="623.7344" y2="623.7344"/><polygon fill="#181818" points="744.6484,619.7344,734.6484,623.7344,744.6484,627.7344,740.6484,623.7344" style="stroke:#181818;stroke-width:1;stroke-linejoin:miter;stroke-miterlimit:10;"/><text fill="#000000" font-family="Helvetica" font-size="10" x="740.6484" y="606.376">(08)</text><text fill="#000000" font-family="Helvetica" font-size="10" x="765.1758" y="606.376">Werte Verdicts aus (appIntegrity, deviceIntegrity, accountDetails)</text><path d="M738.6484,650.7344 L738.6484,694.7344 L1041.6484,694.7344 L1041.6484,660.7344 L1031.6484,650.7344 L738.6484,650.7344" fill="#FEFFDD" style="stroke:#181818;stroke-width:0.5;"/><path d="M1031.6484,650.7344 L1031.6484,660.7344 L1041.6484,660.7344 L1031.6484,650.7344" fill="#FEFFDD" style="stroke:#181818;stroke-width:0.5;"/><text fill="#000000" font-family="Helvetica" font-size="10" x="744.6484" y="665.0166">PuK.AK.Sig muss mit dem Blatt-Zertifikat</text><text fill="#000000" font-family="Helvetica" font-size="10" x="744.6484" y="676.6572">der Certificate Chain &#252;bereinstimmen.</text><text fill="#000000" font-family="Helvetica" font-size="10" x="744.6484" y="688.2979">Sicherheitsniveau: TrustedEnvironment oder StrongBox.</text><polygon fill="#181818" points="711.6484,813.7813,721.6484,817.7813,711.6484,821.7813,715.6484,817.7813" style="stroke:#181818;stroke-width:1;stroke-linejoin:miter;stroke-miterlimit:10;"/><line style="stroke:#181818;stroke-width:1;" x1="243.8613" x2="717.6484" y1="817.7813" y2="817.7813"/><text fill="#000000" font-family="Helvetica" font-size="10" x="250.8613" y="778.501">(09)</text><text fill="#000000" font-family="Helvetica" font-size="10" x="275.3887" y="743.5791">POST /register</text><text fill="#000000" font-family="Helvetica" font-size="10" x="275.3887" y="755.2197">{</text><text fill="#000000" font-family="Helvetica" font-size="10" x="281.7461" y="766.8604">"client_name": "myClient",</text><text fill="#000000" font-family="Helvetica" font-size="10" x="281.7461" y="778.501">"grant_types": ["urn:ietf:params:oauth:grant-type:token-exchange", "refresh_token"],</text><text fill="#000000" font-family="Helvetica" font-size="10" x="281.7461" y="790.1416">"jwks": { "keys": [ PuK.Client.Sig ] },</text><text fill="#000000" font-family="Helvetica" font-size="10" x="281.7461" y="801.7822">"token_endpoint_auth_method": "private_key_jwt"</text><text fill="#000000" font-family="Helvetica" font-size="10" x="275.3887" y="813.4229">}</text><line style="stroke:#181818;stroke-width:1;" x1="733.6484" x2="775.6484" y1="843.4219" y2="843.4219"/><line style="stroke:#181818;stroke-width:1;" x1="775.6484" x2="775.6484" y1="843.4219" y2="856.4219"/><line style="stroke:#181818;stroke-width:1;" x1="734.6484" x2="775.6484" y1="856.4219" y2="856.4219"/><polygon fill="#181818" points="744.6484,852.4219,734.6484,856.4219,744.6484,860.4219,740.6484,856.4219" style="stroke:#181818;stroke-width:1;stroke-linejoin:miter;stroke-miterlimit:10;"/><text fill="#000000" font-family="Helvetica" font-size="10" x="740.6484" y="839.0635">(10)</text><text fill="#000000" font-family="Helvetica" font-size="10" x="765.1758" y="839.0635">Store Client Placeholder (state: pending_attestation)</text><polygon fill="#181818" points="711.6484,956.625,721.6484,960.625,711.6484,964.625,715.6484,960.625" style="stroke:#181818;stroke-width:1;stroke-linejoin:miter;stroke-miterlimit:10;"/><line style="stroke:#181818;stroke-width:1;" x1="243.8613" x2="717.6484" y1="960.625" y2="960.625"/><text fill="#000000" font-family="Helvetica" font-size="10" x="250.8613" y="938.8057">(11)</text><text fill="#000000" font-family="Helvetica" font-size="10" x="275.3887" y="921.3447">POST /register</text><text fill="#000000" font-family="Helvetica" font-size="10" x="275.3887" y="932.9854">{attestation_type="zeta_attestation_token",</text><text fill="#000000" font-family="Helvetica" font-size="10" x="275.3887" y="944.626">zeta_guard_attestation_token, PuK.Client.Sig,</text><text fill="#000000" font-family="Helvetica" font-size="10" x="275.3887" y="956.2666">Besitznachweis (Signatur/Assertion)}</text><line style="stroke:#181818;stroke-width:1;" x1="733.6484" x2="775.6484" y1="986.2656" y2="986.2656"/><line style="stroke:#181818;stroke-width:1;" x1="775.6484" x2="775.6484" y1="986.2656" y2="999.2656"/><line style="stroke:#181818;stroke-width:1;" x1="734.6484" x2="775.6484" y1="999.2656" y2="999.2656"/><polygon fill="#181818" points="744.6484,995.2656,734.6484,999.2656,744.6484,1003.2656,740.6484,999.2656" style="stroke:#181818;stroke-width:1;stroke-linejoin:miter;stroke-miterlimit:10;"/><text fill="#000000" font-family="Helvetica" font-size="10" x="740.6484" y="981.9072">(12)</text><text fill="#000000" font-family="Helvetica" font-size="10" x="765.1758" y="981.9072">Pr&#252;fe Token-Signatur &amp; Vertrauensstellung</text><line style="stroke:#181818;stroke-width:1;" x1="733.6484" x2="775.6484" y1="1024.9063" y2="1024.9063"/><line style="stroke:#181818;stroke-width:1;" x1="775.6484" x2="775.6484" y1="1024.9063" y2="1037.9063"/><line style="stroke:#181818;stroke-width:1;" x1="734.6484" x2="775.6484" y1="1037.9063" y2="1037.9063"/><polygon fill="#181818" points="744.6484,1033.9063,734.6484,1037.9063,744.6484,1041.9063,740.6484,1037.9063" style="stroke:#181818;stroke-width:1;stroke-linejoin:miter;stroke-miterlimit:10;"/><text fill="#000000" font-family="Helvetica" font-size="10" x="740.6484" y="1020.5479">(13)</text><text fill="#000000" font-family="Helvetica" font-size="10" x="765.1758" y="1020.5479">Extrahiere PuK.AK.Sig aus Token, verifiziere Besitznachweis</text><polygon fill="#181818" points="254.8613,1073.5469,244.8613,1077.5469,254.8613,1081.5469,250.8613,1077.5469" style="stroke:#181818;stroke-width:1;stroke-linejoin:miter;stroke-miterlimit:10;"/><line style="stroke:#181818;stroke-width:1;stroke-dasharray:2,2;" x1="248.8613" x2="722.6484" y1="1077.5469" y2="1077.5469"/><text fill="#000000" font-family="Helvetica" font-size="10" x="260.8613" y="1073.1885">(14)</text><text fill="#000000" font-family="Helvetica" font-size="10" x="285.3887" y="1073.1885">201 Created {client_id, status="pending_attestation"}</text><path d="M13.626,1089.5469 L77.4346,1089.5469 L77.4346,1093.1875 L67.4346,1103.1875 L13.626,1103.1875 L13.626,1089.5469" fill="#EEEEEE" style="stroke:#000000;stroke-width:1.5;"/><rect fill="none" height="176.4844" style="stroke:#000000;stroke-width:1.5;" width="967.5869" x="13.626" y="1089.5469"/><text fill="#000000" font-family="Helvetica" font-size="10" font-weight="700" x="28.626" y="1099.8291">opt</text><text fill="#000000" font-family="Helvetica" font-size="10" font-weight="700" x="92.4346" y="1100.8291">[Mobile DCR: TOFU (Trust-On-First-Use) E-Mail-Bindung]</text><polygon fill="#181818" points="40.626,1126.8281,30.626,1130.8281,40.626,1134.8281,36.626,1130.8281" style="stroke:#181818;stroke-width:1;stroke-linejoin:miter;stroke-miterlimit:10;"/><line style="stroke:#181818;stroke-width:1;" x1="34.626" x2="727.6484" y1="1130.8281" y2="1130.8281"/><text fill="#000000" font-family="Helvetica" font-size="10" x="46.626" y="1126.4697">(15)</text><text fill="#000000" font-family="Helvetica" font-size="10" x="71.1533" y="1126.4697">E-Mail mit OTP-Best&#228;tigungscode (Out-of-Band)</text><polygon fill="#181818" points="221.8613,1152.4688,231.8613,1156.4688,221.8613,1160.4688,225.8613,1156.4688" style="stroke:#181818;stroke-width:1;stroke-linejoin:miter;stroke-miterlimit:10;"/><line style="stroke:#181818;stroke-width:1;" x1="29.626" x2="227.8613" y1="1156.4688" y2="1156.4688"/><text fill="#000000" font-family="Helvetica" font-size="10" x="36.626" y="1152.1104">(16)</text><text fill="#000000" font-family="Helvetica" font-size="10" x="61.1533" y="1152.1104">Gibt OTP-Best&#228;tigungscode ein</text><polygon fill="#181818" points="711.6484,1189.75,721.6484,1193.75,711.6484,1197.75,715.6484,1193.75" style="stroke:#181818;stroke-width:1;stroke-linejoin:miter;stroke-miterlimit:10;"/><line style="stroke:#181818;stroke-width:1;" x1="243.8613" x2="717.6484" y1="1193.75" y2="1193.75"/><text fill="#000000" font-family="Helvetica" font-size="10" x="250.8613" y="1183.5713">(17)</text><text fill="#000000" font-family="Helvetica" font-size="10" x="275.3887" y="1177.751">POST /register/verify</text><text fill="#000000" font-family="Helvetica" font-size="10" x="275.3887" y="1189.3916">{client_id, code}</text><line style="stroke:#181818;stroke-width:1;" x1="733.6484" x2="775.6484" y1="1219.3906" y2="1219.3906"/><line style="stroke:#181818;stroke-width:1;" x1="775.6484" x2="775.6484" y1="1219.3906" y2="1232.3906"/><line style="stroke:#181818;stroke-width:1;" x1="734.6484" x2="775.6484" y1="1232.3906" y2="1232.3906"/><polygon fill="#181818" points="744.6484,1228.3906,734.6484,1232.3906,744.6484,1236.3906,740.6484,1232.3906" style="stroke:#181818;stroke-width:1;stroke-linejoin:miter;stroke-miterlimit:10;"/><text fill="#000000" font-family="Helvetica" font-size="10" x="740.6484" y="1215.0322">(18)</text><text fill="#000000" font-family="Helvetica" font-size="10" x="765.1758" y="1215.0322">Verifiziere OTP-Code &amp; aktiviere Client</text><polygon fill="#181818" points="254.8613,1254.0313,244.8613,1258.0313,254.8613,1262.0313,250.8613,1258.0313" style="stroke:#181818;stroke-width:1;stroke-linejoin:miter;stroke-miterlimit:10;"/><line style="stroke:#181818;stroke-width:1;stroke-dasharray:2,2;" x1="248.8613" x2="722.6484" y1="1258.0313" y2="1258.0313"/><text fill="#000000" font-family="Helvetica" font-size="10" x="260.8613" y="1253.6729">(19)</text><text fill="#000000" font-family="Helvetica" font-size="10" x="285.3887" y="1253.6729">200 OK</text><?plantuml-src dLRDRjiu4BxhAMPrA1p4Sh8z2cq1ntRJ84rbs6uMstKXCD9OOYoH0aavSOAyJHyZjxpO3YdRSNuST3U7I1Q7tynyCz-GVt2H57MAqEaSL7LP10LRojfqpBNnF9OOgU2xHWLCW_-jDZUeVC-xaDVWzt714_IXFpW_wGtYNlGr6da0RgrRLJuCHoTdtS5e_FTuCZZRh0DKJ1cUy8e90xs28pqi-e_1fBlwxSE73pTesATFj055Qa6zzRFntXKN70q5DZc1zvr3wDC-RQpJwFoaFnWzZSTX7zTCfJxOz_ZuUtVKtn5JjpRvs8Kqx0-dmlwKYjymmwM0CQe5SV1cW4qI-_iUAmoS8XVmw1-wng0s3TX4pb4u_-wVDVz2DbTCuRPT23mQju4FMMgV9KkYCRI8uuBCgcfbkkSmxD-ArE1Jayh-VWZ3Q3o10uKPrqJQLDooH_ZOB2lyw3EBvxV1uSPRxkFeuX8JquPXVTffi3jZdjrj_3M4hTs5SCuAdd9Kk1DhirL8Ww1ubXkGi_N-1ezevZD-GpW6dkSA8ocfURgTgHXS6yLoP_M5wRprDCWzOBK6wtHkfgAc2X5iLY1Fo2FF1PJSG8eb3Dcoa2pjU2uqB3JkA4LNf4ho55gdkDGa3sp3P31emzWeAR8ZURsp3hzNXGRURzZkdjeasjI4pUUOd3wXiqTv4qi9CnZtSiO5sJvbe0sQPmBJsB8JFrkRYehq7dDXC5FSB6DZE_9tAlkZSJndHi-H0e8CCnHmB2MnkoxFJfoXUhYVuHkHRNPkNcHbO4Z1miaws0Qb5e_6hxaQ2AEJl7YurnefijVoXLOXvwoWmfJKZdjlmfrlkXBXcnG9GkkirlhrtgCNNIbCSXHle_v5RAB5JdbYjElP5kbnasgRUjHEswqFB4baBKoVfX0lz2CyJQ6NvBqgiyS6WzAci9R2KK5j6JmMU2fIchDRdGQkq-3X_e9Ou3HsULcY82sEILQeSkH62xv0LeSmKJNrUZeG2qxwAAqUf8NRo6LRSMCvCyyL1wslcB5a2T59lmVztkY_w6ig0Fp4cSM2bUY7u9VBrI7JTgkPefdlnATfzH-_LYAaasKMqf70IXrAHjYXimgiLUXQ9i3h96SYimFJLpXJI2tiLloV3UxbrTm2te8_fq5XeP_DJ_W9TusfsnTJuIf9dHbRXt69TEgaDjvAyOMLDy74brV6dxwXpx4TI6jUI2q9vhAmTBSicnX2HLwuoEAjmTFmQTl6SqLmPzMBKmeMKb72gLNBPwPDC6GcRxR-dp5d3y_uoMV77V7XLZ9xLBvSVtu4aVaHQcvk14loA-Ia6legcAdLGPVqhbn-3LqxHf1BBbZlWdTMX7IWr7IReE2BOZrUNeoLzR63spgomfqqaIws1iNJ83t7zGgG49jyWY24zuT_GayXLIg5srNRyfGcE95Gwu_-AzNpxppFZiOpUS5fl94-I7FHv-_GSieB8X5yvefUw1Qt1uFWZAP5SCH5-Y8nUyqBLnPk5aIJOK2HcuTVXcTahXDIBhIYsWHo5XnHCpJrT_V3JHuX7FEBNPjfMdY_TKCvSFGjgNUsQB0GhnTpUofRppthx1smkU4Bzx5nkBtt6V6749swmlmB?></g></svg>