<svg xmlns="http://www.w3.org/2000/svg" xmlns:xlink="http://www.w3.org/1999/xlink" contentStyleType="text/css" data-diagram-type="SEQUENCE" height="1469px" preserveAspectRatio="none" style="width:1206px;height:1469px;background:#FFFFFF;" version="1.1" viewBox="0 0 1206 1469" width="1206px" zoomAndPan="magnify"><?plantuml 1.2026.6?><defs/><g><rect fill="#FEFCFF" height="1443.5156" style="stroke:#181818;stroke-width:0.5;" width="80.2471" x="198.7378" y="11"/><text fill="#000000" font-family="Helvetica" font-size="10" font-weight="700" x="219.9917" y="20.2822">Device</text><rect fill="#E6E6FA" height="1426.875" style="stroke:#181818;stroke-width:0.5;" width="80.2471" x="198.7378" y="27.6406"/><text fill="#000000" font-family="Helvetica" font-size="10" font-weight="700" x="227.8335" y="36.9229">App</text><rect fill="#EDFDEC" height="1443.5156" style="stroke:#181818;stroke-width:0.5;" width="147.7842" x="654.7563" y="11"/><text fill="#000000" font-family="Helvetica" font-size="10" font-weight="700" x="666.7563" y="20.2822">Anbieter TI 2.0 Dienst</text><rect fill="#FFF3E5" height="1426.875" style="stroke:#181818;stroke-width:0.5;" width="147.7842" x="654.7563" y="27.6406"/><text fill="#000000" font-family="Helvetica" font-size="10" font-weight="700" x="695.5039" y="36.9229">ZETA Guard</text><g><title>Nutzer</title><rect fill="#000000" fill-opacity="0.00000" height="1261.9531" width="8" x="26.126" y="114.9219"/><line style="stroke:#000000;stroke-width:0.5;stroke-dasharray:5,5;" x1="29.626" x2="29.626" y1="114.9219" y2="1376.875"/></g><g><title>ZETA Client</title><rect fill="#000000" fill-opacity="0.00000" height="1261.9531" width="8" x="235.3613" y="114.9219"/><line style="stroke:#000000;stroke-width:0.5;stroke-dasharray:5,5;" x1="238.8613" x2="238.8613" y1="114.9219" y2="1376.875"/></g><g><title/><rect fill="#FFFFFF" height="1253.9531" style="stroke:#181818;stroke-width:1;" width="10" x="233.8613" y="122.9219"/></g><g><title>PDP</title><rect fill="#000000" fill-opacity="0.00000" height="1261.9531" width="8" x="725.1484" y="114.9219"/><line style="stroke:#000000;stroke-width:0.5;stroke-dasharray:5,5;" x1="728.6484" x2="728.6484" y1="114.9219" y2="1376.875"/></g><g><title/><rect fill="#FFFFFF" height="842.7031" style="stroke:#181818;stroke-width:1;" width="10" x="723.6484" y="207.4844"/></g><g><title/><rect fill="#FFFFFF" height="245.7656" style="stroke:#181818;stroke-width:1;" width="10" x="723.6484" y="1113.1094"/></g><text fill="#000000" font-family="Helvetica" font-size="10" x="10" y="112.5635">Nutzer</text><ellipse cx="29.626" cy="51.7813" fill="#E2E2F0" rx="8" ry="8" style="stroke:#181818;stroke-width:0.5;"/><path d="M29.626,59.7813 L29.626,86.7813 M16.626,67.7813 L42.626,67.7813 M29.626,86.7813 L16.626,101.7813 M29.626,86.7813 L42.626,101.7813" fill="none" style="stroke:#181818;stroke-width:0.5;"/><rect fill="#FFE6CC" height="25.6406" rx="2.5" ry="2.5" style="stroke:#D79B00;stroke-width:0.5;" width="72.2471" x="202.7378" y="88.2813"/><text fill="#000000" font-family="Helvetica" font-size="10" x="209.7378" y="104.5635">ZETA Client</text><rect fill="#FFE6CC" height="37.2813" rx="2.5" ry="2.5" style="stroke:#D79B00;stroke-width:0.5;" width="116.9492" x="670.1738" y="76.6406"/><text fill="#000000" font-family="Helvetica" font-size="10" x="718.7681" y="92.9229">PDP</text><text fill="#000000" font-family="Helvetica" font-size="10" x="677.1738" y="104.5635">Authorization Server</text><text fill="#000000" font-family="Helvetica" font-size="10" x="10" y="1446.1572">Nutzer</text><ellipse cx="29.626" cy="1385.375" fill="#E2E2F0" rx="8" ry="8" style="stroke:#181818;stroke-width:0.5;"/><path d="M29.626,1393.375 L29.626,1420.375 M16.626,1401.375 L42.626,1401.375 M29.626,1420.375 L16.626,1435.375 M29.626,1420.375 L42.626,1435.375" fill="none" style="stroke:#181818;stroke-width:0.5;"/><rect fill="#FFE6CC" height="25.6406" rx="2.5" ry="2.5" style="stroke:#D79B00;stroke-width:0.5;" width="72.2471" x="202.7378" y="1376.875"/><text fill="#000000" font-family="Helvetica" font-size="10" x="209.7378" y="1393.1572">ZETA Client</text><rect fill="#FFE6CC" height="37.2813" rx="2.5" ry="2.5" style="stroke:#D79B00;stroke-width:0.5;" width="116.9492" x="670.1738" y="1376.875"/><text fill="#000000" font-family="Helvetica" font-size="10" x="718.7681" y="1393.1572">PDP</text><text fill="#000000" font-family="Helvetica" font-size="10" x="677.1738" y="1404.7979">Authorization Server</text><path d="M13.626,126.9219 L73.582,126.9219 L73.582,130.5625 L63.582,140.5625 L13.626,140.5625 L13.626,126.9219" fill="#EEEEEE" style="stroke:#000000;stroke-width:1.5;"/><rect fill="none" height="1200.3125" style="stroke:#000000;stroke-width:1.5;" width="1173.1797" x="13.626" y="126.9219"/><text fill="#000000" font-family="Helvetica" font-size="10" font-weight="700" x="28.626" y="137.2041">alt</text><text fill="#000000" font-family="Helvetica" font-size="10" font-weight="700" x="88.582" y="138.2041">[Kein ZETA Attestation Token]</text><line style="stroke:#000000;stroke-width:1;stroke-dasharray:2,2;" x1="13.626" x2="1186.8057" y1="1170.75" y2="1170.75"/><text fill="#000000" font-family="Helvetica" font-size="10" font-weight="700" x="18.626" y="1182.0322">[ZETA Attestation Token vorhanden (Fast-Path)]</text><path d="M222.8613,154.5625 L282.8174,154.5625 L282.8174,158.2031 L272.8174,168.2031 L222.8613,168.2031 L222.8613,154.5625" fill="#EEEEEE" style="stroke:#000000;stroke-width:1.5;"/><rect fill="none" height="682.8594" style="stroke:#000000;stroke-width:1.5;" width="920.1777" x="222.8613" y="154.5625"/><text fill="#000000" font-family="Helvetica" font-size="10" font-weight="700" x="237.8613" y="164.8447">alt</text><text fill="#000000" font-family="Helvetica" font-size="10" font-weight="700" x="297.8174" y="165.8447">[Hardware Attestation: iOS, iPadOS, macOS (Apple App Attest)]</text><line style="stroke:#000000;stroke-width:1;stroke-dasharray:2,2;" x1="222.8613" x2="1143.0391" y1="320.0469" y2="320.0469"/><text fill="#000000" font-family="Helvetica" font-size="10" font-weight="700" x="227.8613" y="331.3291">[Hardware Attestation: Android (Keystore, TEE, StrongBox)]</text><line style="stroke:#000000;stroke-width:1;stroke-dasharray:2,2;" x1="222.8613" x2="1143.0391" y1="711.6563" y2="711.6563"/><text fill="#000000" font-family="Helvetica" font-size="10" font-weight="700" x="227.8613" y="722.9385">[Software Attestation (Legacy OIDC DCR)]</text><polygon fill="#181818" points="711.6484,203.4844,721.6484,207.4844,711.6484,211.4844,715.6484,207.4844" style="stroke:#181818;stroke-width:1;stroke-linejoin:miter;stroke-miterlimit:10;"/><line style="stroke:#181818;stroke-width:1;" x1="243.8613" x2="717.6484" y1="207.4844" y2="207.4844"/><text fill="#000000" font-family="Helvetica" font-size="10" x="250.8613" y="197.3057">(01)</text><text fill="#000000" font-family="Helvetica" font-size="10" x="275.3887" y="191.4854">POST /register</text><text fill="#000000" font-family="Helvetica" font-size="10" x="275.3887" y="203.126">{attestation_type="apple", Apple_Attestation_Object, PuK.Client.Sig, redirect_uris}</text><line style="stroke:#181818;stroke-width:1;" x1="733.6484" x2="775.6484" y1="233.125" y2="233.125"/><line style="stroke:#181818;stroke-width:1;" x1="775.6484" x2="775.6484" y1="233.125" y2="246.125"/><line style="stroke:#181818;stroke-width:1;" x1="734.6484" x2="775.6484" y1="246.125" y2="246.125"/><polygon fill="#181818" points="744.6484,242.125,734.6484,246.125,744.6484,250.125,740.6484,246.125" style="stroke:#181818;stroke-width:1;stroke-linejoin:miter;stroke-miterlimit:10;"/><text fill="#000000" font-family="Helvetica" font-size="10" x="740.6484" y="228.7666">(02)</text><text fill="#000000" font-family="Helvetica" font-size="10" x="765.1758" y="228.7666">Validiere Apple_Attestation_Object</text><path d="M738.6484,259.125 L738.6484,303.125 L973.6484,303.125 L973.6484,269.125 L963.6484,259.125 L738.6484,259.125" fill="#FEFFDD" style="stroke:#181818;stroke-width:0.5;"/><path d="M963.6484,259.125 L963.6484,269.125 L973.6484,269.125 L963.6484,259.125" fill="#FEFFDD" style="stroke:#181818;stroke-width:0.5;"/><text fill="#000000" font-family="Helvetica" font-size="10" x="744.6484" y="273.4072">AuthS verifiziert Apple App Attest Root CA.</text><text fill="#000000" font-family="Helvetica" font-size="10" x="744.6484" y="285.0479">Extrahiert Hash(PuK.Client.Sig) aus Objekt</text><text fill="#000000" font-family="Helvetica" font-size="10" x="744.6484" y="296.6885">und vergleicht ihn mit dem Payload.</text><polygon fill="#181818" points="711.6484,398.8906,721.6484,402.8906,711.6484,406.8906,715.6484,402.8906" style="stroke:#181818;stroke-width:1;stroke-linejoin:miter;stroke-miterlimit:10;"/><line style="stroke:#181818;stroke-width:1;" x1="243.8613" x2="717.6484" y1="402.8906" y2="402.8906"/><text fill="#000000" font-family="Helvetica" font-size="10" x="250.8613" y="375.251">(03)</text><text fill="#000000" font-family="Helvetica" font-size="10" x="275.3887" y="351.9697">POST /register</text><text fill="#000000" font-family="Helvetica" font-size="10" x="275.3887" y="363.6104">{attestation_type="android", PuK.AK.Sig,</text><text fill="#000000" font-family="Helvetica" font-size="10" x="275.3887" y="375.251">Android_Key_Attestation_Certificate_Chain,</text><text fill="#000000" font-family="Helvetica" font-size="10" x="275.3887" y="386.8916">PuK.Client.Sig, signed_Hash_PuK.Client.Sig,</text><text fill="#000000" font-family="Helvetica" font-size="10" x="275.3887" y="398.5322">play_integrity_token, redirect_uris}</text><line style="stroke:#181818;stroke-width:1;" x1="733.6484" x2="775.6484" y1="428.5313" y2="428.5313"/><line style="stroke:#181818;stroke-width:1;" x1="775.6484" x2="775.6484" y1="428.5313" y2="441.5313"/><line style="stroke:#181818;stroke-width:1;" x1="734.6484" x2="775.6484" y1="441.5313" y2="441.5313"/><polygon fill="#181818" points="744.6484,437.5313,734.6484,441.5313,744.6484,445.5313,740.6484,441.5313" style="stroke:#181818;stroke-width:1;stroke-linejoin:miter;stroke-miterlimit:10;"/><text fill="#000000" font-family="Helvetica" font-size="10" x="740.6484" y="424.1729">(04)</text><text fill="#000000" font-family="Helvetica" font-size="10" x="765.1758" y="424.1729">Validiere Zertifikatskette gegen Google Root CA</text><line style="stroke:#181818;stroke-width:1;" x1="733.6484" x2="775.6484" y1="467.1719" y2="467.1719"/><line style="stroke:#181818;stroke-width:1;" x1="775.6484" x2="775.6484" y1="467.1719" y2="480.1719"/><line style="stroke:#181818;stroke-width:1;" x1="734.6484" x2="775.6484" y1="480.1719" y2="480.1719"/><polygon fill="#181818" points="744.6484,476.1719,734.6484,480.1719,744.6484,484.1719,740.6484,480.1719" style="stroke:#181818;stroke-width:1;stroke-linejoin:miter;stroke-miterlimit:10;"/><text fill="#000000" font-family="Helvetica" font-size="10" x="740.6484" y="462.8135">(05)</text><text fill="#000000" font-family="Helvetica" font-size="10" x="765.1758" y="462.8135">Pr&#252;fe signed_Hash_PuK.Client.Sig</text><path d="M712.6484,492.1719 L776.457,492.1719 L776.457,495.8125 L766.457,505.8125 L712.6484,505.8125 L712.6484,492.1719" fill="#EEEEEE" style="stroke:#000000;stroke-width:1.5;"/><rect fill="none" height="139.5625" style="stroke:#000000;stroke-width:1.5;" width="405.3906" x="712.6484" y="492.1719"/><text fill="#000000" font-family="Helvetica" font-size="10" font-weight="700" x="727.6484" y="502.4541">opt</text><text fill="#000000" font-family="Helvetica" font-size="10" font-weight="700" x="791.457" y="503.4541">[Play Integrity Pr&#252;fung]</text><line style="stroke:#181818;stroke-width:1;" x1="733.6484" x2="775.6484" y1="533.4531" y2="533.4531"/><line style="stroke:#181818;stroke-width:1;" x1="775.6484" x2="775.6484" y1="533.4531" y2="546.4531"/><line style="stroke:#181818;stroke-width:1;" x1="734.6484" x2="775.6484" y1="546.4531" y2="546.4531"/><polygon fill="#181818" points="744.6484,542.4531,734.6484,546.4531,744.6484,550.4531,740.6484,546.4531" style="stroke:#181818;stroke-width:1;stroke-linejoin:miter;stroke-miterlimit:10;"/><text fill="#000000" font-family="Helvetica" font-size="10" x="740.6484" y="529.0947">(06)</text><text fill="#000000" font-family="Helvetica" font-size="10" x="765.1758" y="529.0947">Entschl&#252;ssele play_integrity_token (lokal/remote)</text><line style="stroke:#181818;stroke-width:1;" x1="733.6484" x2="775.6484" y1="572.0938" y2="572.0938"/><line style="stroke:#181818;stroke-width:1;" x1="775.6484" x2="775.6484" y1="572.0938" y2="585.0938"/><line style="stroke:#181818;stroke-width:1;" x1="734.6484" x2="775.6484" y1="585.0938" y2="585.0938"/><polygon fill="#181818" points="744.6484,581.0938,734.6484,585.0938,744.6484,589.0938,740.6484,585.0938" style="stroke:#181818;stroke-width:1;stroke-linejoin:miter;stroke-miterlimit:10;"/><text fill="#000000" font-family="Helvetica" font-size="10" x="740.6484" y="567.7354">(07)</text><text fill="#000000" font-family="Helvetica" font-size="10" x="765.1758" y="567.7354">Verifiziere Nonce (Muss Hash(PuK.Client.Sig) entsprechen)</text><line style="stroke:#181818;stroke-width:1;" x1="733.6484" x2="775.6484" y1="610.7344" y2="610.7344"/><line style="stroke:#181818;stroke-width:1;" x1="775.6484" x2="775.6484" y1="610.7344" y2="623.7344"/><line style="stroke:#181818;stroke-width:1;" x1="734.6484" x2="775.6484" y1="623.7344" y2="623.7344"/><polygon fill="#181818" points="744.6484,619.7344,734.6484,623.7344,744.6484,627.7344,740.6484,623.7344" style="stroke:#181818;stroke-width:1;stroke-linejoin:miter;stroke-miterlimit:10;"/><text fill="#000000" font-family="Helvetica" font-size="10" x="740.6484" y="606.376">(08)</text><text fill="#000000" font-family="Helvetica" font-size="10" x="765.1758" y="606.376">Werte Verdicts aus (appIntegrity, deviceIntegrity, accountDetails)</text><path d="M738.6484,650.7344 L738.6484,694.7344 L1041.6484,694.7344 L1041.6484,660.7344 L1031.6484,650.7344 L738.6484,650.7344" fill="#FEFFDD" style="stroke:#181818;stroke-width:0.5;"/><path d="M1031.6484,650.7344 L1031.6484,660.7344 L1041.6484,660.7344 L1031.6484,650.7344" fill="#FEFFDD" style="stroke:#181818;stroke-width:0.5;"/><text fill="#000000" font-family="Helvetica" font-size="10" x="744.6484" y="665.0166">PuK.AK.Sig muss mit dem Blatt-Zertifikat</text><text fill="#000000" font-family="Helvetica" font-size="10" x="744.6484" y="676.6572">der Certificate Chain &#252;bereinstimmen.</text><text fill="#000000" font-family="Helvetica" font-size="10" x="744.6484" y="688.2979">Sicherheitsniveau: TrustedEnvironment oder StrongBox.</text><polygon fill="#181818" points="711.6484,825.4219,721.6484,829.4219,711.6484,833.4219,715.6484,829.4219" style="stroke:#181818;stroke-width:1;stroke-linejoin:miter;stroke-miterlimit:10;"/><line style="stroke:#181818;stroke-width:1;" x1="243.8613" x2="717.6484" y1="829.4219" y2="829.4219"/><text fill="#000000" font-family="Helvetica" font-size="10" x="250.8613" y="784.3213">(09)</text><text fill="#000000" font-family="Helvetica" font-size="10" x="275.3887" y="743.5791">POST /register</text><text fill="#000000" font-family="Helvetica" font-size="10" x="275.3887" y="755.2197">{</text><text fill="#000000" font-family="Helvetica" font-size="10" x="281.7461" y="766.8604">"client_name": "myClient",</text><text fill="#000000" font-family="Helvetica" font-size="10" x="281.7461" y="778.501">"grant_types": ["urn:ietf:params:oauth:grant-type:token-exchange", "refresh_token"],</text><text fill="#000000" font-family="Helvetica" font-size="10" x="281.7461" y="790.1416">"jwks": { "keys": [ PuK.Client.Sig ] },</text><text fill="#000000" font-family="Helvetica" font-size="10" x="281.7461" y="801.7822">"token_endpoint_auth_method": "private_key_jwt",</text><text fill="#000000" font-family="Helvetica" font-size="10" x="281.7461" y="813.4229">"redirect_uris": ["https://&lt;AuthS-FQDN&gt;/cb/&lt;app-spezifischer-Pfad&gt;"]</text><text fill="#000000" font-family="Helvetica" font-size="10" x="275.3887" y="825.0635">}</text><path d="M738.6484,856.4219 L738.6484,912.4219 L1165.6484,912.4219 L1165.6484,866.4219 L1155.6484,856.4219 L738.6484,856.4219" fill="#FEFFDD" style="stroke:#181818;stroke-width:0.5;"/><path d="M1155.6484,856.4219 L1155.6484,866.4219 L1165.6484,866.4219 L1155.6484,856.4219" fill="#FEFFDD" style="stroke:#181818;stroke-width:0.5;"/><text fill="#000000" font-family="Helvetica" font-size="10" x="744.6484" y="870.7041">redirect_uris ist je App ein eigener claimed-HTTPS Universal-/App-Link</text><text fill="#000000" font-family="Helvetica" font-size="10" x="744.6484" y="882.3447">auf der AuthS-Domain (RFC 8252). Unterschiedliche Pfade pro App erm&#246;glichen</text><text fill="#000000" font-family="Helvetica" font-size="10" x="744.6484" y="893.9854">die eindeutige Callback-Zustellung; die OS-seitige Verkn&#252;pfung erfolgt &#252;ber</text><text fill="#000000" font-family="Helvetica" font-size="10" x="744.6484" y="905.626">apple-app-site-association bzw. assetlinks.json (Deployment, kein Laufzeit-Flow).</text><line style="stroke:#181818;stroke-width:1;" x1="733.6484" x2="775.6484" y1="935.625" y2="935.625"/><line style="stroke:#181818;stroke-width:1;" x1="775.6484" x2="775.6484" y1="935.625" y2="948.625"/><line style="stroke:#181818;stroke-width:1;" x1="734.6484" x2="775.6484" y1="948.625" y2="948.625"/><polygon fill="#181818" points="744.6484,944.625,734.6484,948.625,744.6484,952.625,740.6484,948.625" style="stroke:#181818;stroke-width:1;stroke-linejoin:miter;stroke-miterlimit:10;"/><text fill="#000000" font-family="Helvetica" font-size="10" x="740.6484" y="931.2666">(10)</text><text fill="#000000" font-family="Helvetica" font-size="10" x="765.1758" y="931.2666">Store Client Placeholder (state: pending_user_binding)</text><line style="stroke:#181818;stroke-width:1;" x1="733.6484" x2="775.6484" y1="985.9063" y2="985.9063"/><line style="stroke:#181818;stroke-width:1;" x1="775.6484" x2="775.6484" y1="985.9063" y2="998.9063"/><line style="stroke:#181818;stroke-width:1;" x1="734.6484" x2="775.6484" y1="998.9063" y2="998.9063"/><polygon fill="#181818" points="744.6484,994.9063,734.6484,998.9063,744.6484,1002.9063,740.6484,998.9063" style="stroke:#181818;stroke-width:1;stroke-linejoin:miter;stroke-miterlimit:10;"/><text fill="#000000" font-family="Helvetica" font-size="10" x="740.6484" y="975.7275">(11)</text><text fill="#000000" font-family="Helvetica" font-size="10" x="765.1758" y="969.9072">Generiere OTP &amp; transaction_id</text><text fill="#000000" font-family="Helvetica" font-size="10" x="765.1758" y="981.5479">Speichere Request im tempor&#228;ren Cache</text><polygon fill="#181818" points="40.626,1020.5469,30.626,1024.5469,40.626,1028.5469,36.626,1024.5469" style="stroke:#181818;stroke-width:1;stroke-linejoin:miter;stroke-miterlimit:10;"/><line style="stroke:#181818;stroke-width:1;" x1="34.626" x2="722.6484" y1="1024.5469" y2="1024.5469"/><text fill="#000000" font-family="Helvetica" font-size="10" x="46.626" y="1020.1885">(12)</text><text fill="#000000" font-family="Helvetica" font-size="10" x="71.1533" y="1020.1885">E-Mail mit OTP-Best&#228;tigungscode (Out-of-Band)</text><polygon fill="#181818" points="254.8613,1046.1875,244.8613,1050.1875,254.8613,1054.1875,250.8613,1050.1875" style="stroke:#181818;stroke-width:1;stroke-linejoin:miter;stroke-miterlimit:10;"/><line style="stroke:#181818;stroke-width:1;stroke-dasharray:2,2;" x1="248.8613" x2="722.6484" y1="1050.1875" y2="1050.1875"/><text fill="#000000" font-family="Helvetica" font-size="10" x="260.8613" y="1045.8291">(13)</text><text fill="#000000" font-family="Helvetica" font-size="10" x="285.3887" y="1045.8291">202 Accepted {transaction_id, message="OTP sent"}</text><polygon fill="#181818" points="221.8613,1071.8281,231.8613,1075.8281,221.8613,1079.8281,225.8613,1075.8281" style="stroke:#181818;stroke-width:1;stroke-linejoin:miter;stroke-miterlimit:10;"/><line style="stroke:#181818;stroke-width:1;" x1="29.626" x2="227.8613" y1="1075.8281" y2="1075.8281"/><text fill="#000000" font-family="Helvetica" font-size="10" x="36.626" y="1071.4697">(14)</text><text fill="#000000" font-family="Helvetica" font-size="10" x="61.1533" y="1071.4697">Gibt OTP-Best&#228;tigungscode ein</text><polygon fill="#181818" points="711.6484,1109.1094,721.6484,1113.1094,711.6484,1117.1094,715.6484,1113.1094" style="stroke:#181818;stroke-width:1;stroke-linejoin:miter;stroke-miterlimit:10;"/><line style="stroke:#181818;stroke-width:1;" x1="243.8613" x2="717.6484" y1="1113.1094" y2="1113.1094"/><text fill="#000000" font-family="Helvetica" font-size="10" x="250.8613" y="1102.9307">(15)</text><text fill="#000000" font-family="Helvetica" font-size="10" x="275.3887" y="1097.1104">POST /register/verify</text><text fill="#000000" font-family="Helvetica" font-size="10" x="275.3887" y="1108.751">{transaction_id, code}</text><line style="stroke:#181818;stroke-width:1;" x1="733.6484" x2="775.6484" y1="1138.75" y2="1138.75"/><line style="stroke:#181818;stroke-width:1;" x1="775.6484" x2="775.6484" y1="1138.75" y2="1151.75"/><line style="stroke:#181818;stroke-width:1;" x1="734.6484" x2="775.6484" y1="1151.75" y2="1151.75"/><polygon fill="#181818" points="744.6484,1147.75,734.6484,1151.75,744.6484,1155.75,740.6484,1151.75" style="stroke:#181818;stroke-width:1;stroke-linejoin:miter;stroke-miterlimit:10;"/><text fill="#000000" font-family="Helvetica" font-size="10" x="740.6484" y="1134.3916">(16)</text><text fill="#000000" font-family="Helvetica" font-size="10" x="765.1758" y="1134.3916">Verifiziere OTP-Code gegen Cache</text><polygon fill="#181818" points="711.6484,1237.9531,721.6484,1241.9531,711.6484,1245.9531,715.6484,1241.9531" style="stroke:#181818;stroke-width:1;stroke-linejoin:miter;stroke-miterlimit:10;"/><line style="stroke:#181818;stroke-width:1;" x1="243.8613" x2="717.6484" y1="1241.9531" y2="1241.9531"/><text fill="#000000" font-family="Helvetica" font-size="10" x="250.8613" y="1220.1338">(17)</text><text fill="#000000" font-family="Helvetica" font-size="10" x="275.3887" y="1202.6729">POST /register</text><text fill="#000000" font-family="Helvetica" font-size="10" x="275.3887" y="1214.3135">{attestation_type="zeta_attestation_token",</text><text fill="#000000" font-family="Helvetica" font-size="10" x="275.3887" y="1225.9541">zeta_guard_attestation_token, PuK.Client.Sig,</text><text fill="#000000" font-family="Helvetica" font-size="10" x="275.3887" y="1237.5947">Besitznachweis (Signatur/Assertion)}</text><line style="stroke:#181818;stroke-width:1;" x1="733.6484" x2="775.6484" y1="1267.5938" y2="1267.5938"/><line style="stroke:#181818;stroke-width:1;" x1="775.6484" x2="775.6484" y1="1267.5938" y2="1280.5938"/><line style="stroke:#181818;stroke-width:1;" x1="734.6484" x2="775.6484" y1="1280.5938" y2="1280.5938"/><polygon fill="#181818" points="744.6484,1276.5938,734.6484,1280.5938,744.6484,1284.5938,740.6484,1280.5938" style="stroke:#181818;stroke-width:1;stroke-linejoin:miter;stroke-miterlimit:10;"/><text fill="#000000" font-family="Helvetica" font-size="10" x="740.6484" y="1263.2354">(18)</text><text fill="#000000" font-family="Helvetica" font-size="10" x="765.1758" y="1263.2354">Pr&#252;fe Token-Signatur &amp; Vertrauensstellung</text><line style="stroke:#181818;stroke-width:1;" x1="733.6484" x2="775.6484" y1="1306.2344" y2="1306.2344"/><line style="stroke:#181818;stroke-width:1;" x1="775.6484" x2="775.6484" y1="1306.2344" y2="1319.2344"/><line style="stroke:#181818;stroke-width:1;" x1="734.6484" x2="775.6484" y1="1319.2344" y2="1319.2344"/><polygon fill="#181818" points="744.6484,1315.2344,734.6484,1319.2344,744.6484,1323.2344,740.6484,1319.2344" style="stroke:#181818;stroke-width:1;stroke-linejoin:miter;stroke-miterlimit:10;"/><text fill="#000000" font-family="Helvetica" font-size="10" x="740.6484" y="1301.876">(19)</text><text fill="#000000" font-family="Helvetica" font-size="10" x="765.1758" y="1301.876">Extrahiere PuK.AK.Sig aus Token, verifiziere Besitznachweis</text><polygon fill="#181818" points="254.8613,1354.875,244.8613,1358.875,254.8613,1362.875,250.8613,1358.875" style="stroke:#181818;stroke-width:1;stroke-linejoin:miter;stroke-miterlimit:10;"/><line style="stroke:#181818;stroke-width:1;stroke-dasharray:2,2;" x1="248.8613" x2="722.6484" y1="1358.875" y2="1358.875"/><text fill="#000000" font-family="Helvetica" font-size="10" x="260.8613" y="1354.5166">(20)</text><text fill="#000000" font-family="Helvetica" font-size="10" x="285.3887" y="1354.5166">201 Created {client_id, status="pending_user_binding"}</text><?plantuml-src dLVTRXf75BxdAKxteW6PXTHIfOewbZ3W1Fa7Qh2ZfaIhOVUmZDcTsSxCseR8RvDdw9Nl_68zCmiO7EocyOLPTcREppVV-SxX9ox298yGQhLwbgU9dx2vp4tDt9bIYOL6AhZKg81fyCvpiq3bbKfZUGTU6szuY1wqErVTLYTezKvx5oK0jzRCCW_w5zspPkTYyETWs3bRhmDaJ1aUyem90ws48trOwvywm-RokmS71miqxF2G3g28hD7IwhFmtXHZZeO26tPXl_OMsdHE6-kqTzLjTowsut6st-TCHHxOv-3zPVEY_K9CpTnC1owaVhi_4lQhL7p139S21gXk28DN0ooIsDihiSJ02NBXV4BJ6DIcC3EKCnJEi_jdDtwWw6wPmirz3U2zGHLudqNsCsLXRm1bGZUXRLcst5fnDkpV4ax_i4XYRwy1_TvW27M5CTS4rqXyOK_c0pFFy9t7h3sl2ivkiE4-w8slCJHLwESdjS9sRS3ZAYYCkAAL85TStw_T5yYjl3VWYYKyugZmHTFheq8Q1CNZgG4vMPqlx17UVC8NPCV0yzJXGafYKRCs4fqxezZKxVh0zBIy7NC5MAx1EfsPaSZfgiXid20FoIEV2aYvWGXJwBDv8bbKAxdGCD7umiqqHQGaZw1yWdDDTO9L67OwLHWO9KLy9EzUl9RlkvJ2l5U0tpnnm1CRYzS1ETs2iqLv4qeXCnYqfemBsllyrZIF1KQ1HITujZOI6HL-m8N1M74p3umbw0zSzASYZXapUeOK7yGOeu3tKXBOgzjwqKvVFJvCy9L0roVN3p8pqAVOeRkAlR2IYwVDkrnrXD7XD7byq1efibtfGpcHCvRGFQN4pighvgxM94Kubo94A9_bMk-c8ZteZ62TedZTwaT24wtjY8T6EmgNgLhNgLQ9ibQ5DrwmC9IvC6rI9vxe9_EaJj-2jxFgdlW6gKrXLHb72R7KVxhWaOX8VpU81uvuyFWm9XGuoJ5FKnHKcWEgCbHJv4OBVeCiRy1GvKJzg2DkE9LBQij3MdFhwjaim86ScES52ELJZ5auXrwttO9sw-B_bDj807YXsnO8bgBN02-TBvjFrQt6Ydg1gqLDgtzvkH8DwZYJ1hKAbkg6P6IxuNRvTbV3KSR7kt3AH6pbr5CuKKWKTYlUvyBkzUtC6lm2tenqmvf-fgxm6UwBhUvSG1UNIM9cO1q6AL8tYcoycU8tjjh9J71zkmfxgs1Tu5DZCjsermyS6Fxn7-tpmteuhXyGaNoTuO9kJzlxyViJ5XrwdqUYA7JBcD8BB5bYlUKD25suBjJPDZtaLFbqfM72U8gH_s4ux0_WqZ90QPRuTThedt8nMnfZ-GGi1OeuspArP2fV7BVWj_rVzoirEagtHw5oZ1BBAB01K-agMVXKwUC_iLiHIvEaIJQK27D3mK2B9ScOXJF_aoLVaf16_Exsz0Q-9dRQFLHiC_7ua5a18PCJcSIceFGgJDk2V0SUD_IWjGnvGSdnuhP6WuD6ar1QkdQjBK_Rc2LoRYbUXPa5vfGoNP0x_pYHjvNQ2co7Su7uSnqOsFwouZMfNOXJcLYiohOQi04PdUSY3dAQrO8nTrygXQqtHQr1Jy0nL_H0ynoKXxtZoyfEN-_jfJaTwmtxy3DGLnMQ9a7RPNX4nPoXAsTIS_mxjpsOfs0mpQHw_Af8DLkCbhTDsn6I9DS_8qroUaAc_ICw-_YLG2UaTKZL3-LURdmvyO-e-LMUfgCtowaBgDPk9IcYSJRst-vN2RDm2YUTxda7blNCevysdPFt0ZVVRzWZq0n3p4XwuCjsPZHUeTOifjvh4zTM2kvN47vaLeWjGuiXsEyGm6nSfEa6vBKVGf2FNygGhdyphw9hp0hs53ghjh3ijalVDTVLtP0q9sbxdfHrUr_whvPbestP08jsNLnXgUJKT_Vm2ZTIaT95jaqUCstyFZFJIkb7nnqxJGTRhvreagYvbTZExj-kVpEPZWHXpir2K0AtI9fKfhU2cLpLcrINoXwjx8PZENkuvFpLAU8_mKIOvlJpOgKPEu-lnq_SRA2sOm-BI6ysuDuEikIKTZTVVu6MGkRekkOtJN84GgxVURlAdaZxBm00?></g></svg>