<svg xmlns="http://www.w3.org/2000/svg" xmlns:xlink="http://www.w3.org/1999/xlink" contentStyleType="text/css" data-diagram-type="SEQUENCE" height="729px" preserveAspectRatio="none" style="width:977px;height:729px;background:#FFFFFF;" version="1.1" viewBox="0 0 977 729" width="977px" zoomAndPan="magnify"><?plantuml 1.2026.5?><defs/><g><rect fill="#FEFCFF" height="703.8594" style="stroke:#181818;stroke-width:0.5;" width="102.1934" x="16" y="11"/><text fill="#000000" font-family="Helvetica" font-size="10" font-weight="700" x="48.2271" y="20.2822">Device</text><rect fill="#E6E6FA" height="687.2188" style="stroke:#181818;stroke-width:0.5;" width="102.1934" x="16" y="27.6406"/><text fill="#000000" font-family="Helvetica" font-size="10" font-weight="700" x="28" y="36.9229">Prim&#228;rsystem</text><rect fill="#EDFDEC" height="703.8594" style="stroke:#181818;stroke-width:0.5;" width="147.7842" x="477.9917" y="11"/><text fill="#000000" font-family="Helvetica" font-size="10" font-weight="700" x="489.9917" y="20.2822">Anbieter TI 2.0 Dienst</text><rect fill="#FFF3E5" height="687.2188" style="stroke:#181818;stroke-width:0.5;" width="147.7842" x="477.9917" y="27.6406"/><text fill="#000000" font-family="Helvetica" font-size="10" font-weight="700" x="518.7393" y="36.9229">ZETA Guard</text><g><title>ZETA Client</title><rect fill="#000000" fill-opacity="0.00000" height="589.0156" width="8" x="63.5967" y="81.5625"/><line style="stroke:#000000;stroke-width:0.5;stroke-dasharray:5,5;" x1="67.0967" x2="67.0967" y1="81.5625" y2="670.5781"/></g><g><title>PDP</title><rect fill="#000000" fill-opacity="0.00000" height="589.0156" width="8" x="548.3838" y="81.5625"/><line style="stroke:#000000;stroke-width:0.5;stroke-dasharray:5,5;" x1="551.8838" x2="551.8838" y1="81.5625" y2="670.5781"/></g><rect fill="#FFE6CC" height="25.6406" rx="2.5" ry="2.5" style="stroke:#D79B00;stroke-width:0.5;" width="72.2471" x="30.9731" y="54.9219"/><text fill="#000000" font-family="Helvetica" font-size="10" x="37.9731" y="71.2041">ZETA Client</text><rect fill="#FFE6CC" height="37.2813" rx="2.5" ry="2.5" style="stroke:#D79B00;stroke-width:0.5;" width="116.9492" x="493.4092" y="43.2813"/><text fill="#000000" font-family="Helvetica" font-size="10" x="542.0034" y="59.5635">PDP</text><text fill="#000000" font-family="Helvetica" font-size="10" x="500.4092" y="71.2041">Authorization Server</text><rect fill="#FFE6CC" height="25.6406" rx="2.5" ry="2.5" style="stroke:#D79B00;stroke-width:0.5;" width="72.2471" x="30.9731" y="670.5781"/><text fill="#000000" font-family="Helvetica" font-size="10" x="37.9731" y="686.8604">ZETA Client</text><rect fill="#FFE6CC" height="37.2813" rx="2.5" ry="2.5" style="stroke:#D79B00;stroke-width:0.5;" width="116.9492" x="493.4092" y="670.5781"/><text fill="#000000" font-family="Helvetica" font-size="10" x="542.0034" y="686.8604">PDP</text><text fill="#000000" font-family="Helvetica" font-size="10" x="500.4092" y="698.501">Authorization Server</text><path d="M32.0967,93.5625 L92.0527,93.5625 L92.0527,97.2031 L82.0527,107.2031 L32.0967,107.2031 L32.0967,93.5625" fill="#EEEEEE" style="stroke:#000000;stroke-width:1.5;"/><rect fill="none" height="488.7344" style="stroke:#000000;stroke-width:1.5;" width="925.0762" x="32.0967" y="93.5625"/><text fill="#000000" font-family="Helvetica" font-size="10" font-weight="700" x="47.0967" y="103.8447">alt</text><text fill="#000000" font-family="Helvetica" font-size="10" font-weight="700" x="107.0527" y="104.8447">[Kein ZETA Guard Attestation Token]</text><line style="stroke:#000000;stroke-width:1;stroke-dasharray:2,2;" x1="32.0967" x2="957.1729" y1="425.8125" y2="425.8125"/><text fill="#000000" font-family="Helvetica" font-size="10" font-weight="700" x="37.0967" y="437.0947">[ZETA Attestation Token vorhanden]</text><path d="M51.0967,121.2031 L111.0527,121.2031 L111.0527,124.8438 L101.0527,134.8438 L51.0967,134.8438 L51.0967,121.2031" fill="#EEEEEE" style="stroke:#000000;stroke-width:1.5;"/><rect fill="none" height="279.6094" style="stroke:#000000;stroke-width:1.5;" width="881.0762" x="51.0967" y="121.2031"/><text fill="#000000" font-family="Helvetica" font-size="10" font-weight="700" x="66.0967" y="131.4854">alt</text><text fill="#000000" font-family="Helvetica" font-size="10" font-weight="700" x="126.0527" y="132.4854">[Hardware Attestation: macOS (Apple App Attest)]</text><line style="stroke:#000000;stroke-width:1;stroke-dasharray:2,2;" x1="51.0967" x2="932.1729" y1="286.6875" y2="286.6875"/><text fill="#000000" font-family="Helvetica" font-size="10" font-weight="700" x="56.0967" y="297.9697">[Software Attestation (Legacy OIDC DCR)]</text><polygon fill="#181818" points="539.8838,181.7656,549.8838,185.7656,539.8838,189.7656,543.8838,185.7656" style="stroke:#181818;stroke-width:1;stroke-linejoin:miter;stroke-miterlimit:10;"/><line style="stroke:#181818;stroke-width:1;" x1="67.0967" x2="545.8838" y1="185.7656" y2="185.7656"/><text fill="#000000" font-family="Helvetica" font-size="10" x="74.0967" y="169.7666">(01)</text><text fill="#000000" font-family="Helvetica" font-size="10" x="98.624" y="158.126">POST /register</text><text fill="#000000" font-family="Helvetica" font-size="10" x="98.624" y="169.7666">{attestation_type="apple", PuK.AK.Sig, Apple_Attestation_Object,</text><text fill="#000000" font-family="Helvetica" font-size="10" x="98.624" y="181.4072">PuK.Client.Sig, signed_Hash_PuK.Client.Sig}</text><line style="stroke:#181818;stroke-width:1;" x1="551.8838" x2="593.8838" y1="211.4063" y2="211.4063"/><line style="stroke:#181818;stroke-width:1;" x1="593.8838" x2="593.8838" y1="211.4063" y2="224.4063"/><line style="stroke:#181818;stroke-width:1;" x1="552.8838" x2="593.8838" y1="224.4063" y2="224.4063"/><polygon fill="#181818" points="562.8838,220.4063,552.8838,224.4063,562.8838,228.4063,558.8838,224.4063" style="stroke:#181818;stroke-width:1;stroke-linejoin:miter;stroke-miterlimit:10;"/><text fill="#000000" font-family="Helvetica" font-size="10" x="558.8838" y="207.0479">(02)</text><text fill="#000000" font-family="Helvetica" font-size="10" x="583.4111" y="207.0479">Validiere Apple_Attestation_Object &amp; signed_Hash_PuK.Client.Sig</text><path d="M556.8838,237.4063 L556.8838,270.4063 L853.8838,270.4063 L853.8838,247.4063 L843.8838,237.4063 L556.8838,237.4063" fill="#FEFFDD" style="stroke:#181818;stroke-width:0.5;"/><path d="M843.8838,237.4063 L843.8838,247.4063 L853.8838,247.4063 L843.8838,237.4063" fill="#FEFFDD" style="stroke:#181818;stroke-width:0.5;"/><text fill="#000000" font-family="Helvetica" font-size="10" x="562.8838" y="251.6885">AuthS verifiziert Apple App Attest Root CA und pr&#252;ft,</text><text fill="#000000" font-family="Helvetica" font-size="10" x="562.8838" y="263.3291">dass PuK.AK.Sig mit x5c[0] des Objekts &#252;bereinstimmt.</text><polygon fill="#181818" points="539.8838,388.8125,549.8838,392.8125,539.8838,396.8125,543.8838,392.8125" style="stroke:#181818;stroke-width:1;stroke-linejoin:miter;stroke-miterlimit:10;"/><line style="stroke:#181818;stroke-width:1;" x1="67.0967" x2="545.8838" y1="392.8125" y2="392.8125"/><text fill="#000000" font-family="Helvetica" font-size="10" x="74.0967" y="353.5322">(03)</text><text fill="#000000" font-family="Helvetica" font-size="10" x="98.624" y="318.6104">POST /register</text><text fill="#000000" font-family="Helvetica" font-size="10" x="98.624" y="330.251">{</text><text fill="#000000" font-family="Helvetica" font-size="10" x="104.9814" y="341.8916">"client_name": "myClient",</text><text fill="#000000" font-family="Helvetica" font-size="10" x="104.9814" y="353.5322">"grant_types": ["urn:ietf:params:oauth:grant-type:token-exchange", "refresh_token"],</text><text fill="#000000" font-family="Helvetica" font-size="10" x="104.9814" y="365.1729">"jwks": { "keys": [ PuK.Client.Sig ] },</text><text fill="#000000" font-family="Helvetica" font-size="10" x="104.9814" y="376.8135">"token_endpoint_auth_method": "private_key_jwt"</text><text fill="#000000" font-family="Helvetica" font-size="10" x="98.624" y="388.4541">}</text><polygon fill="#181818" points="539.8838,493.0156,549.8838,497.0156,539.8838,501.0156,543.8838,497.0156" style="stroke:#181818;stroke-width:1;stroke-linejoin:miter;stroke-miterlimit:10;"/><line style="stroke:#181818;stroke-width:1;" x1="67.0967" x2="545.8838" y1="497.0156" y2="497.0156"/><text fill="#000000" font-family="Helvetica" font-size="10" x="74.0967" y="475.1963">(04)</text><text fill="#000000" font-family="Helvetica" font-size="10" x="98.624" y="457.7354">POST /register</text><text fill="#000000" font-family="Helvetica" font-size="10" x="98.624" y="469.376">{attestation_type="zeta_attestation_token",</text><text fill="#000000" font-family="Helvetica" font-size="10" x="98.624" y="481.0166">zeta_guard_attestation_token, PuK.Client.Sig,</text><text fill="#000000" font-family="Helvetica" font-size="10" x="98.624" y="492.6572">signed_Hash_PuK.Client.Sig}</text><line style="stroke:#181818;stroke-width:1;" x1="551.8838" x2="593.8838" y1="522.6563" y2="522.6563"/><line style="stroke:#181818;stroke-width:1;" x1="593.8838" x2="593.8838" y1="522.6563" y2="535.6563"/><line style="stroke:#181818;stroke-width:1;" x1="552.8838" x2="593.8838" y1="535.6563" y2="535.6563"/><polygon fill="#181818" points="562.8838,531.6563,552.8838,535.6563,562.8838,539.6563,558.8838,535.6563" style="stroke:#181818;stroke-width:1;stroke-linejoin:miter;stroke-miterlimit:10;"/><text fill="#000000" font-family="Helvetica" font-size="10" x="558.8838" y="518.2979">(05)</text><text fill="#000000" font-family="Helvetica" font-size="10" x="583.4111" y="518.2979">Pr&#252;fe Token-Signatur &amp; Vertrauensstellung</text><line style="stroke:#181818;stroke-width:1;" x1="551.8838" x2="593.8838" y1="561.2969" y2="561.2969"/><line style="stroke:#181818;stroke-width:1;" x1="593.8838" x2="593.8838" y1="561.2969" y2="574.2969"/><line style="stroke:#181818;stroke-width:1;" x1="552.8838" x2="593.8838" y1="574.2969" y2="574.2969"/><polygon fill="#181818" points="562.8838,570.2969,552.8838,574.2969,562.8838,578.2969,558.8838,574.2969" style="stroke:#181818;stroke-width:1;stroke-linejoin:miter;stroke-miterlimit:10;"/><text fill="#000000" font-family="Helvetica" font-size="10" x="558.8838" y="556.9385">(06)</text><text fill="#000000" font-family="Helvetica" font-size="10" x="583.4111" y="556.9385">Extrahiere PuK.AK.Sig aus Token, pr&#252;fe signed_Hash_PuK.Client.Sig</text><line style="stroke:#181818;stroke-width:1;" x1="551.8838" x2="593.8838" y1="613.9375" y2="613.9375"/><line style="stroke:#181818;stroke-width:1;" x1="593.8838" x2="593.8838" y1="613.9375" y2="626.9375"/><line style="stroke:#181818;stroke-width:1;" x1="552.8838" x2="593.8838" y1="626.9375" y2="626.9375"/><polygon fill="#181818" points="562.8838,622.9375,552.8838,626.9375,562.8838,630.9375,558.8838,626.9375" style="stroke:#181818;stroke-width:1;stroke-linejoin:miter;stroke-miterlimit:10;"/><text fill="#000000" font-family="Helvetica" font-size="10" x="558.8838" y="609.5791">(07)</text><text fill="#000000" font-family="Helvetica" font-size="10" x="583.4111" y="609.5791">Store Client Placeholder (state: pending_user_binding)</text><polygon fill="#181818" points="78.0967,648.5781,68.0967,652.5781,78.0967,656.5781,74.0967,652.5781" style="stroke:#181818;stroke-width:1;stroke-linejoin:miter;stroke-miterlimit:10;"/><line style="stroke:#181818;stroke-width:1;stroke-dasharray:2,2;" x1="72.0967" x2="550.8838" y1="652.5781" y2="652.5781"/><text fill="#000000" font-family="Helvetica" font-size="10" x="84.0967" y="648.2197">(08)</text><text fill="#000000" font-family="Helvetica" font-size="10" x="108.624" y="648.2197">201 Created {client_id, status="pending_user_binding"}</text><?plantuml-src dLJRJjj047ttLqpteG8f2HIfBnOWMKa44Q14SOhK4cHjx8cpn5vRksj8GFnDFuCtVgopwt19k5HjNXnxpfmvEtDclmWPPrM2q6hjb5MUDJE-B2hJCWlZUTwaM03huBM8aK6dUzvhTwDs_xG_z01SRA14_lXRwQKsc3CO37jdGNSO_Wn7tRDd9439bH6nABaqqCu4qeDhOB-wes3rpc1__nODFpoa19I9fVUUdhMEG4u46bGmwi5UQnSwbAUDBTe_xtMwmtLbZlkeuYfXOFz7Hp-2OUS3JK5bPg6JDEWCnjA-5ahSSYCA2I6gQrIV2-IPWHCK4bxAGc0CQbDpZ8evIbVM8eyfVCCLleRuaFEu7y9MK9OPHSfo5TrsQVQtwbppiDRhmw0VZc17OIge_Meix_WBNsIM9HumRjbO0mRLIIiuQOKYRO2h4Bsg7VKdLnYRnbXQM5scXcgHIaoYOwvdqNhi_bbMtRmNLUSy4ub0XHyMWg-V43_poi8WA97E31JJ9_Aw6Cr3JCKj5J6msIyO5WMvB82AXbEgnuUfFLZ2jNxL1CY5WSNt-6Bt4XBKO7NDZOR7Xma95-GhaUUcvJanc6c4i9YQpPd1rYccF5v2lzTfGwSz_9TPZIK0YnqiaZn7vWFBbwjjQBXegiYSRf2QeXUiKjAd5PZwv5sUQx_WnEqxLDEYV6DjriH5FECojMDd2gSAgSSkmYvhtgkRkIMy0pR7fQE6zHd09TpNK9SNaS_BGf0MMp3AaTOZiNfB9QwvmOXeegiRmyQojWNXFS-rpUt3cqs0wqAHn6Ir4_zZRBkBqTfdTq9IxIAfNS6tySR6GGd-DujlsdjWBONrEPg4ajnKYXnzJcPKlA8xYJHdMINJTzEx2qBDt7gyiYElTCtOg2sBdos8w-ucRsWAebnrSf3n66T5bj1jkMKRW3wKb2Pa6bKQLJGHxcNxYOPuwjHcquUztM_GLaXP2Toj72eIkWo8gD87x3qcTk_z0G00?></g></svg>