<svg xmlns="http://www.w3.org/2000/svg" xmlns:xlink="http://www.w3.org/1999/xlink" contentStyleType="text/css" data-diagram-type="SEQUENCE" height="1131px" preserveAspectRatio="none" style="width:1004px;height:1131px;background:#FFFFFF;" version="1.1" viewBox="0 0 1004 1131" width="1004px" zoomAndPan="magnify"><?plantuml 1.2026.6?><defs/><g><rect fill="#FEFCFF" height="1105.3125" style="stroke:#181818;stroke-width:0.5;" width="275.8496" x="16" y="11"/><text fill="#000000" font-family="Helvetica" font-size="10" font-weight="700" x="122.3477" y="20.2822">Mobile App</text><rect fill="#EDFDEC" height="1105.3125" style="stroke:#181818;stroke-width:0.5;" width="396.4648" x="590.7036" y="11"/><text fill="#000000" font-family="Helvetica" font-size="10" font-weight="700" x="727.0439" y="20.2822">Anbieter TI 2.0 Dienst</text><rect fill="#FFF3E5" height="1088.6719" style="stroke:#181818;stroke-width:0.5;" width="396.4648" x="590.7036" y="27.6406"/><text fill="#000000" font-family="Helvetica" font-size="10" font-weight="700" x="755.7915" y="36.9229">ZETA Guard</text><g><title>Fach-Client</title><rect fill="#000000" fill-opacity="0.00000" height="990.4688" width="8" x="51.6372" y="81.5625"/><line style="stroke:#000000;stroke-width:0.5;stroke-dasharray:5,5;" x1="55.1372" x2="55.1372" y1="81.5625" y2="1072.0313"/></g><g><title/><rect fill="#FFFFFF" height="892.625" style="stroke:#181818;stroke-width:1;" width="10" x="50.1372" y="179.4063"/></g><g><title>ZETA Client</title><rect fill="#000000" fill-opacity="0.00000" height="990.4688" width="8" x="248.2261" y="81.5625"/><line style="stroke:#000000;stroke-width:0.5;stroke-dasharray:5,5;" x1="251.7261" x2="251.7261" y1="81.5625" y2="1072.0313"/></g><g><title/><rect fill="#FFFFFF" height="802.0625" style="stroke:#181818;stroke-width:1;" width="10" x="246.7261" y="208.6875"/></g><g><title>PDP</title><rect fill="#000000" fill-opacity="0.00000" height="990.4688" width="8" x="649.6782" y="81.5625"/><line style="stroke:#000000;stroke-width:0.5;stroke-dasharray:5,5;" x1="653.1782" x2="653.1782" y1="81.5625" y2="1072.0313"/></g><g><title/><rect fill="#FFFFFF" height="665.2188" style="stroke:#181818;stroke-width:1;" width="10" x="648.1782" y="316.25"/></g><g><title>PDP</title><rect fill="#000000" fill-opacity="0.00000" height="990.4688" width="8" x="939.3823" y="81.5625"/><line style="stroke:#000000;stroke-width:0.5;stroke-dasharray:5,5;" x1="942.8823" x2="942.8823" y1="81.5625" y2="1072.0313"/></g><g><title/><rect fill="#FFFFFF" height="25.6406" style="stroke:#181818;stroke-width:1;" width="10" x="937.8823" y="758.7031"/></g><rect fill="#D5E8D4" height="25.6406" rx="2.5" ry="2.5" style="stroke:#82B366;stroke-width:0.5;" width="70.2744" x="20" y="54.9219"/><text fill="#000000" font-family="Helvetica" font-size="10" x="27" y="71.2041">Fach-Client</text><rect fill="#FFE6CC" height="25.6406" rx="2.5" ry="2.5" style="stroke:#D79B00;stroke-width:0.5;" width="72.2471" x="215.6025" y="54.9219"/><text fill="#000000" font-family="Helvetica" font-size="10" x="222.6025" y="71.2041">ZETA Client</text><rect fill="#FFE6CC" height="37.2813" rx="2.5" ry="2.5" style="stroke:#D79B00;stroke-width:0.5;" width="116.9492" x="594.7036" y="43.2813"/><text fill="#000000" font-family="Helvetica" font-size="10" x="643.2979" y="59.5635">PDP</text><text fill="#000000" font-family="Helvetica" font-size="10" x="601.7036" y="71.2041">Authorization Server</text><rect fill="#FFE6CC" height="37.2813" rx="2.5" ry="2.5" style="stroke:#D79B00;stroke-width:0.5;" width="80.5723" x="902.5962" y="43.2813"/><text fill="#000000" font-family="Helvetica" font-size="10" x="933.002" y="59.5635">PDP</text><text fill="#000000" font-family="Helvetica" font-size="10" x="909.5962" y="71.2041">Policy Engine</text><rect fill="#D5E8D4" height="25.6406" rx="2.5" ry="2.5" style="stroke:#82B366;stroke-width:0.5;" width="70.2744" x="20" y="1072.0313"/><text fill="#000000" font-family="Helvetica" font-size="10" x="27" y="1088.3135">Fach-Client</text><rect fill="#FFE6CC" height="25.6406" rx="2.5" ry="2.5" style="stroke:#D79B00;stroke-width:0.5;" width="72.2471" x="215.6025" y="1072.0313"/><text fill="#000000" font-family="Helvetica" font-size="10" x="222.6025" y="1088.3135">ZETA Client</text><rect fill="#FFE6CC" height="37.2813" rx="2.5" ry="2.5" style="stroke:#D79B00;stroke-width:0.5;" width="116.9492" x="594.7036" y="1072.0313"/><text fill="#000000" font-family="Helvetica" font-size="10" x="643.2979" y="1088.3135">PDP</text><text fill="#000000" font-family="Helvetica" font-size="10" x="601.7036" y="1099.9541">Authorization Server</text><rect fill="#FFE6CC" height="37.2813" rx="2.5" ry="2.5" style="stroke:#D79B00;stroke-width:0.5;" width="80.5723" x="902.5962" y="1072.0313"/><text fill="#000000" font-family="Helvetica" font-size="10" x="933.002" y="1088.3135">PDP</text><text fill="#000000" font-family="Helvetica" font-size="10" x="909.5962" y="1099.9541">Policy Engine</text><path d="M22.4255,94.5625 L22.4255,173.5625 L975.4255,173.5625 L975.4255,104.5625 L965.4255,94.5625 L22.4255,94.5625" fill="#FEFFDD" style="stroke:#181818;stroke-width:0.5;"/><path d="M965.4255,94.5625 L965.4255,104.5625 L975.4255,104.5625 L965.4255,94.5625" fill="#FEFFDD" style="stroke:#181818;stroke-width:0.5;"/><text fill="#000000" font-family="Helvetica" font-size="10" font-weight="700" x="220.2007" y="108.8447">Vorbedingungen:</text><text fill="#000000" font-family="Helvetica" font-size="10" x="220.2007" y="120.4854">- Service Discovery ist abgeschlossen (Abb-ZETA-Service-Discovery); der ZETA Client kennt die Endpunkte</text><text fill="#000000" font-family="Helvetica" font-size="10" x="226.5581" y="132.126">des PDP Authorization Server, insbesondere den token_endpoint (as-well-known).</text><text fill="#000000" font-family="Helvetica" font-size="10" x="220.2007" y="143.7666">- Der ZETA Client wurde per Dynamic Client Registration registriert und besitzt PrK.Client.Sig / PuK.Client.Sig.</text><text fill="#000000" font-family="Helvetica" font-size="10" x="220.2007" y="155.4072">-</text><text fill="#000000" font-family="Helvetica" font-size="10" font-weight="700" x="226.9878" y="155.4072">Keine</text><text fill="#000000" font-family="Helvetica" font-size="10" x="262.0269" y="155.4072">Nutzer-Authentisierung erforderlich: Jeder Nutzer ist f&#252;r den Dienst grunds&#228;tzlich berechtigt;</text><text fill="#000000" font-family="Helvetica" font-size="10" x="226.5581" y="167.0479">bewertet wird ausschlie&#223;lich der Client durch die Policy Engine.</text><polygon fill="#181818" points="234.7261,204.6875,244.7261,208.6875,234.7261,212.6875,238.7261,208.6875" style="stroke:#181818;stroke-width:1;stroke-linejoin:miter;stroke-miterlimit:10;"/><line style="stroke:#181818;stroke-width:1;" x1="60.1372" x2="240.7261" y1="208.6875" y2="208.6875"/><text fill="#000000" font-family="Helvetica" font-size="10" x="67.1372" y="198.5088">(01)</text><text fill="#000000" font-family="Helvetica" font-size="10" x="91.6646" y="192.6885">Beauftragt Verarbeitung des</text><text fill="#000000" font-family="Helvetica" font-size="10" x="91.6646" y="204.3291">fachlichen Requests</text><path d="M186.5054,221.6875 L186.5054,254.6875 L717.5054,254.6875 L717.5054,231.6875 L707.5054,221.6875 L186.5054,221.6875" fill="#FEFFDD" style="stroke:#181818;stroke-width:0.5;"/><path d="M707.5054,221.6875 L707.5054,231.6875 L717.5054,231.6875 L707.5054,221.6875" fill="#FEFFDD" style="stroke:#181818;stroke-width:0.5;"/><text fill="#000000" font-family="Helvetica" font-size="10" x="192.5054" y="235.9697">Es findet</text><text fill="#000000" font-family="Helvetica" font-size="10" font-weight="700" x="239.4487" y="235.9697">kein</text><text fill="#000000" font-family="Helvetica" font-size="10" x="266.6069" y="235.9697">Authorization Code Flow und</text><text fill="#000000" font-family="Helvetica" font-size="10" font-weight="700" x="413.7505" y="235.9697">keine</text><text fill="#000000" font-family="Helvetica" font-size="10" x="447.6909" y="235.9697">Nutzerauthentisierung am sektoralen IDP statt.</text><text fill="#000000" font-family="Helvetica" font-size="10" x="192.5054" y="247.6104">Der Client authentisiert sich direkt am Token-Endpunkt via JWT-Bearer-Grant (RFC 7523, Section 2.1).</text><line style="stroke:#181818;stroke-width:1;" x1="256.7261" x2="298.7261" y1="277.6094" y2="277.6094"/><line style="stroke:#181818;stroke-width:1;" x1="298.7261" x2="298.7261" y1="277.6094" y2="290.6094"/><line style="stroke:#181818;stroke-width:1;" x1="257.7261" x2="298.7261" y1="290.6094" y2="290.6094"/><polygon fill="#181818" points="267.7261,286.6094,257.7261,290.6094,267.7261,294.6094,263.7261,290.6094" style="stroke:#181818;stroke-width:1;stroke-linejoin:miter;stroke-miterlimit:10;"/><text fill="#000000" font-family="Helvetica" font-size="10" x="263.7261" y="273.251">(02)</text><text fill="#000000" font-family="Helvetica" font-size="10" x="288.2534" y="273.251">Erzeuge DPoP Key Pair</text><polygon fill="#181818" points="636.1782,312.25,646.1782,316.25,636.1782,320.25,640.1782,316.25" style="stroke:#181818;stroke-width:1;stroke-linejoin:miter;stroke-miterlimit:10;"/><line style="stroke:#181818;stroke-width:1;" x1="256.7261" x2="642.1782" y1="316.25" y2="316.25"/><text fill="#000000" font-family="Helvetica" font-size="10" x="263.7261" y="311.8916">(03)</text><text fill="#000000" font-family="Helvetica" font-size="10" x="288.2534" y="311.8916">GET /nonce</text><polygon fill="#181818" points="267.7261,337.8906,257.7261,341.8906,267.7261,345.8906,263.7261,341.8906" style="stroke:#181818;stroke-width:1;stroke-linejoin:miter;stroke-miterlimit:10;"/><line style="stroke:#181818;stroke-width:1;stroke-dasharray:2,2;" x1="261.7261" x2="647.1782" y1="341.8906" y2="341.8906"/><text fill="#000000" font-family="Helvetica" font-size="10" x="273.7261" y="337.5322">(04)</text><text fill="#000000" font-family="Helvetica" font-size="10" x="298.2534" y="337.5322">Nonce</text><line style="stroke:#181818;stroke-width:1;" x1="256.7261" x2="298.7261" y1="367.5313" y2="367.5313"/><line style="stroke:#181818;stroke-width:1;" x1="298.7261" x2="298.7261" y1="367.5313" y2="380.5313"/><line style="stroke:#181818;stroke-width:1;" x1="257.7261" x2="298.7261" y1="380.5313" y2="380.5313"/><polygon fill="#181818" points="267.7261,376.5313,257.7261,380.5313,267.7261,384.5313,263.7261,380.5313" style="stroke:#181818;stroke-width:1;stroke-linejoin:miter;stroke-miterlimit:10;"/><text fill="#000000" font-family="Helvetica" font-size="10" x="263.7261" y="363.1729">(05)</text><text fill="#000000" font-family="Helvetica" font-size="10" x="288.2534" y="363.1729">Create DPoP Proof (with Nonce from AuthS)</text><line style="stroke:#181818;stroke-width:1;" x1="256.7261" x2="298.7261" y1="417.8125" y2="417.8125"/><line style="stroke:#181818;stroke-width:1;" x1="298.7261" x2="298.7261" y1="417.8125" y2="430.8125"/><line style="stroke:#181818;stroke-width:1;" x1="257.7261" x2="298.7261" y1="430.8125" y2="430.8125"/><polygon fill="#181818" points="267.7261,426.8125,257.7261,430.8125,267.7261,434.8125,263.7261,430.8125" style="stroke:#181818;stroke-width:1;stroke-linejoin:miter;stroke-miterlimit:10;"/><text fill="#000000" font-family="Helvetica" font-size="10" x="263.7261" y="407.6338">(06)</text><text fill="#000000" font-family="Helvetica" font-size="10" x="288.2534" y="401.8135">Erzeuge JWT-Bearer Assertion (JWT, signiert mit PrK.Client.Sig)</text><text fill="#000000" font-family="Helvetica" font-size="10" x="288.2534" y="413.4541">{iss=client_id, sub=client_id, aud=token_endpoint, nonce, exp, iat, jti}</text><polygon fill="#181818" points="636.1782,487.375,646.1782,491.375,636.1782,495.375,640.1782,491.375" style="stroke:#181818;stroke-width:1;stroke-linejoin:miter;stroke-miterlimit:10;"/><line style="stroke:#181818;stroke-width:1;" x1="256.7261" x2="642.1782" y1="491.375" y2="491.375"/><text fill="#000000" font-family="Helvetica" font-size="10" x="263.7261" y="469.5557">(07)</text><text fill="#000000" font-family="Helvetica" font-size="10" x="288.2534" y="452.0947">POST /token  dpop: &lt;dpop_proof&gt;</text><text fill="#000000" font-family="Helvetica" font-size="10" x="288.2534" y="463.7354">{grant_type=urn:ietf:params:oauth:grant-type:jwt-bearer,</text><text fill="#000000" font-family="Helvetica" font-size="10" x="288.2534" y="475.376">assertion=&lt;JWT-Bearer Assertion&gt;, client_id,</text><text fill="#000000" font-family="Helvetica" font-size="10" x="288.2534" y="487.0166">scope, resource=&lt;Resource Server Endpunkt&gt;}</text><path d="M663.1782,504.375 L663.1782,572.375 L980.1782,572.375 L980.1782,514.375 L970.1782,504.375 L663.1782,504.375" fill="#FEFFDD" style="stroke:#181818;stroke-width:0.5;"/><path d="M970.1782,504.375 L970.1782,514.375 L980.1782,514.375 L970.1782,504.375" fill="#FEFFDD" style="stroke:#181818;stroke-width:0.5;"/><text fill="#000000" font-family="Helvetica" font-size="10" x="669.1782" y="518.6572">RFC 7523 Section 2.1:</text><text fill="#000000" font-family="Helvetica" font-size="10" x="669.1782" y="530.2979">- grant_type = urn:ietf:params:oauth:grant-type:jwt-bearer</text><text fill="#000000" font-family="Helvetica" font-size="10" x="669.1782" y="541.9385">- assertion = signiertes JWT des Clients</text><text fill="#000000" font-family="Helvetica" font-size="10" x="669.1782" y="553.5791">Die Assertion dient zugleich als Client-Authentisierung</text><text fill="#000000" font-family="Helvetica" font-size="10" x="669.1782" y="565.2197">(Key Binding aus DCR: PuK.Client.Sig).</text><line style="stroke:#181818;stroke-width:1;" x1="658.1782" x2="700.1782" y1="618.5" y2="618.5"/><line style="stroke:#181818;stroke-width:1;" x1="700.1782" x2="700.1782" y1="618.5" y2="631.5"/><line style="stroke:#181818;stroke-width:1;" x1="659.1782" x2="700.1782" y1="631.5" y2="631.5"/><polygon fill="#181818" points="669.1782,627.5,659.1782,631.5,669.1782,635.5,665.1782,631.5" style="stroke:#181818;stroke-width:1;stroke-linejoin:miter;stroke-miterlimit:10;"/><text fill="#000000" font-family="Helvetica" font-size="10" x="665.1782" y="602.501">(08)</text><text fill="#000000" font-family="Helvetica" font-size="10" x="689.7056" y="590.8604">Verifiziere JWT-Bearer Assertion</text><text fill="#000000" font-family="Helvetica" font-size="10" x="689.7056" y="602.501">(Signatur gegen PuK.Client.Sig aus DCR,</text><text fill="#000000" font-family="Helvetica" font-size="10" x="689.7056" y="614.1416">iss/sub/aud/exp/jti, nonce), verifiziere DPoP Proof</text><rect fill="#EEEEEE" height="3" style="stroke:#EEEEEE;stroke-width:1;" width="983.1685" x="10" y="658.3203"/><line style="stroke:#000000;stroke-width:1;" x1="10" x2="993.1685" y1="658.3203" y2="658.3203"/><line style="stroke:#000000;stroke-width:1;" x1="10" x2="993.1685" y1="661.3203" y2="661.3203"/><rect fill="#EEEEEE" height="19.6406" style="stroke:#000000;stroke-width:2;" width="265.46" x="368.8542" y="649.5"/><text fill="#000000" font-family="Helvetica" font-size="10" font-weight="700" x="374.8542" y="662.7822">Policy-Entscheidung (nur Client-Bewertung)</text><line style="stroke:#181818;stroke-width:1;" x1="658.1782" x2="700.1782" y1="720.0625" y2="720.0625"/><line style="stroke:#181818;stroke-width:1;" x1="700.1782" x2="700.1782" y1="720.0625" y2="733.0625"/><line style="stroke:#181818;stroke-width:1;" x1="659.1782" x2="700.1782" y1="733.0625" y2="733.0625"/><polygon fill="#181818" points="669.1782,729.0625,659.1782,733.0625,669.1782,737.0625,665.1782,733.0625" style="stroke:#181818;stroke-width:1;stroke-linejoin:miter;stroke-miterlimit:10;"/><text fill="#000000" font-family="Helvetica" font-size="10" x="665.1782" y="704.0635">(09)</text><text fill="#000000" font-family="Helvetica" font-size="10" x="689.7056" y="692.4229">Erzeuge Policy Engine Input</text><text fill="#000000" font-family="Helvetica" font-size="10" x="689.7056" y="704.0635">(Client-Identit&#228;t, Client-Posture, Kontext;</text><text fill="#000000" font-family="Helvetica" font-size="10" font-weight="700" x="689.7056" y="715.7041">keine</text><text fill="#000000" font-family="Helvetica" font-size="10" x="723.646" y="715.7041">Nutzer-Identit&#228;ts-Claims)</text><polygon fill="#181818" points="925.8823,754.7031,935.8823,758.7031,925.8823,762.7031,929.8823,758.7031" style="stroke:#181818;stroke-width:1;stroke-linejoin:miter;stroke-miterlimit:10;"/><line style="stroke:#181818;stroke-width:1;" x1="658.1782" x2="931.8823" y1="758.7031" y2="758.7031"/><text fill="#000000" font-family="Helvetica" font-size="10" x="665.1782" y="754.3447">(10)</text><text fill="#000000" font-family="Helvetica" font-size="10" x="689.7056" y="754.3447">POST /v1/data/authz {Policy Engine Input}</text><polygon fill="#181818" points="669.1782,780.3438,659.1782,784.3438,669.1782,788.3438,665.1782,784.3438" style="stroke:#181818;stroke-width:1;stroke-linejoin:miter;stroke-miterlimit:10;"/><line style="stroke:#181818;stroke-width:1;stroke-dasharray:2,2;" x1="663.1782" x2="936.8823" y1="784.3438" y2="784.3438"/><text fill="#000000" font-family="Helvetica" font-size="10" x="675.1782" y="779.9854">(11)</text><text fill="#000000" font-family="Helvetica" font-size="10" x="699.7056" y="779.9854">Policy Decision</text><path d="M199.6025,796.3438 L259.5586,796.3438 L259.5586,799.9844 L249.5586,809.9844 L199.6025,809.9844 L199.6025,796.3438" fill="#EEEEEE" style="stroke:#000000;stroke-width:1.5;"/><rect fill="none" height="171.125" style="stroke:#000000;stroke-width:1.5;" width="528.0503" x="199.6025" y="796.3438"/><text fill="#000000" font-family="Helvetica" font-size="10" font-weight="700" x="214.6025" y="806.626">alt</text><text fill="#000000" font-family="Helvetica" font-size="10" font-weight="700" x="274.5586" y="807.626">[Policy Decision allow]</text><line style="stroke:#000000;stroke-width:1;stroke-dasharray:2,2;" x1="199.6025" x2="727.6528" y1="923.1875" y2="923.1875"/><text fill="#000000" font-family="Helvetica" font-size="10" font-weight="700" x="204.6025" y="934.4697">[Policy Decision deny]</text><polygon fill="#181818" points="267.7261,856.9063,257.7261,860.9063,267.7261,864.9063,263.7261,860.9063" style="stroke:#181818;stroke-width:1;stroke-linejoin:miter;stroke-miterlimit:10;"/><line style="stroke:#181818;stroke-width:1;stroke-dasharray:2,2;" x1="261.7261" x2="647.1782" y1="860.9063" y2="860.9063"/><text fill="#000000" font-family="Helvetica" font-size="10" x="273.7261" y="844.9072">(12)</text><text fill="#000000" font-family="Helvetica" font-size="10" x="298.2534" y="833.2666">200 OK</text><text fill="#000000" font-family="Helvetica" font-size="10" x="298.2534" y="844.9072">{access_token (DPoP-gebunden, ohne Nutzer-Claims),</text><text fill="#000000" font-family="Helvetica" font-size="10" x="298.2534" y="856.5479">token_type=DPoP, expires_in}</text><path d="M209.427,873.9063 L209.427,906.9063 L695.427,906.9063 L695.427,883.9063 L685.427,873.9063 L209.427,873.9063" fill="#FEFFDD" style="stroke:#181818;stroke-width:0.5;"/><path d="M685.427,873.9063 L685.427,883.9063 L695.427,883.9063 L685.427,873.9063" fill="#FEFFDD" style="stroke:#181818;stroke-width:0.5;"/><text fill="#000000" font-family="Helvetica" font-size="10" x="269.9883" y="888.1885">Das Access Token enth&#228;lt keine Nutzer-Identit&#228;t, ist aber an den Client</text><text fill="#000000" font-family="Helvetica" font-size="10" x="269.9883" y="899.8291">gebunden (DPoP) und spiegelt die positive Policy-Entscheidung wider.</text><polygon fill="#181818" points="267.7261,955.4688,257.7261,959.4688,267.7261,963.4688,263.7261,959.4688" style="stroke:#181818;stroke-width:1;stroke-linejoin:miter;stroke-miterlimit:10;"/><line style="stroke:#181818;stroke-width:1;stroke-dasharray:2,2;" x1="261.7261" x2="647.1782" y1="959.4688" y2="959.4688"/><text fill="#000000" font-family="Helvetica" font-size="10" x="273.7261" y="955.1104">(13)</text><text fill="#000000" font-family="Helvetica" font-size="10" x="298.2534" y="955.1104">403 Forbidden {"reasons": ["..."]}</text><polygon fill="#181818" points="71.1372,1006.75,61.1372,1010.75,71.1372,1014.75,67.1372,1010.75" style="stroke:#181818;stroke-width:1;stroke-linejoin:miter;stroke-miterlimit:10;"/><line style="stroke:#181818;stroke-width:1;stroke-dasharray:2,2;" x1="65.1372" x2="245.7261" y1="1010.75" y2="1010.75"/><text fill="#000000" font-family="Helvetica" font-size="10" x="77.1372" y="1000.5713">(14)</text><text fill="#000000" font-family="Helvetica" font-size="10" x="101.6646" y="994.751">Fachliche Response</text><text fill="#000000" font-family="Helvetica" font-size="10" x="101.6646" y="1006.3916">(bzw. Fehler bei deny)</text><path d="M193.9419,1023.75 L193.9419,1056.75 L710.9419,1056.75 L710.9419,1033.75 L700.9419,1023.75 L193.9419,1023.75" fill="#FEFFDD" style="stroke:#181818;stroke-width:0.5;"/><path d="M700.9419,1023.75 L700.9419,1033.75 L710.9419,1033.75 L700.9419,1023.75" fill="#FEFFDD" style="stroke:#181818;stroke-width:0.5;"/><text fill="#000000" font-family="Helvetica" font-size="10" x="199.9419" y="1038.0322">Der ZETA Client kann mit dem DPoP-gebundenen Access Token auf den Resource Server zugreifen</text><text fill="#000000" font-family="Helvetica" font-size="10" x="199.9419" y="1049.6729">(siehe Abb-ZETA-Zugriff-auf-RS-mit-ASL bzw. Abb-ZETA-Zugriff-auf-RS-ohne-ASL).</text><?plantuml-src dLPTJnj757tthxZrIstZjLFIgj868pdO848QB4E9b5AXiVVQdh2UtSxCOd34R-bBVaRV-6CzCxlhhq2abWV0upltyvmpzmUfnd4MCRLQxJIRnq4i7fBCjkozhLGgFr9t58ji4j9HB5dPe9lP6VxAYLnArfcQKZ9JJ1yoksGTd4RkE_lqrLBjtSVBu2qBZUCJBPHjql3uY7xzPVzr7Mu_IXtHvEaVJJtuDPRfZlM2LSGmzEUHPFhC4Ul2EKqHBZBmlOpbU4OZrZoUMJcr98rjmMVVqCAv5PanundoVVhRMpeVUVeKPTeTmFKWmNSFr5TJYVn7l61j6Muge-IUghyb8napTTEqIht-rUbH_-Re_Ftvi4AK2ctbMAOeYL2GC5Gz5kDPa4Ueqi51gfCxYQ27XplcHHBkogV-PPVMLvPi1SnHFo5-aKHNZIHR97zvIlkjLqMdgZGOdb-Tzlh3LKhUsdiyoOIEgkJ-lpdvlJlihMosCt5ZlF2937g3Q-K-9bekXPM9eWlM6CP6MhktpmVTzTsjHcvTAgjPLQKIp3c1RpIkwRp0gD6uIlI88wccG1EhiD70QU2Ja6D6qMRihZouAPCOJTdDDZ665TMwer7WQWqAws1bNN_ZnxxHPhfbvH20sVTLb6RgrhAlB693g8IUQqAJf38ZDWc0gHccYcm2HpUeAKqa_DM42HOSny6jIXQgtlB9ztP2Bp8DXgKuxJqeCPVZyeiXJr6MpaFg_0DuPIbpFMCZxTBIG9-rSllMXPnIcmRPva4Uij4uOmoWqIYvM3BL53nbFKcGXNQK2EdT9hDSPtFEeRuSPI-pxOrlMacO_ykubaU50qIbSdoqjuTV51oMb_RsA2I8HpP1Rq3mAzO2897M5O9vNQk9SF76g10z_2jZOyqcld8_pHpdI1ZIC95END2dM_G9RTeUzr620Ht7oS9tFZTQDrFiz5BCoV2jJRI8aS0fm6EiiDPDehSkVVEM9UCR8pNkkVkN3aP1YKIwau9s5PDgfM8s0SUnptE_zLDzitT5g5NhGkhh9MTJ46UG3EYC7sWWfDwmyotPsmlff7z9RPMeCLToEGWsl7pmvxlUCPKZpS8MtWSwIIPKMqWxoo_GH2VpF4BzEwcj2wKkYAnzPUx1QA9BK-NRDPUxmAzVgo_IcCxOdzp82DRPQFEZoABEDZsRv0ji4j-duBB0mMSh7okx_GXfS7w1TlZRa8GqIKCwS7zkKbVa8M9FtKnkx4FAdKoh4D8y2Q6AOcx2n8qwz0Q1CmW_BsmmyXKshvKeQ-mSF5VvOPFMDLmh25YAX3L41zJXpi6m-A-Gf9Lw7JuMYDToEhE4IPHeBs6pYPhGgyIw1khGVwZ2NrxLWRlbdA2TgCbhQDvIupW0jgy76_bEBxDfp8u28ZQxoqH1AzoiES2-1LEbOrbcg7Sq37VqRWl_1N9NOuHI5Bl9yp2xLZMuKC9cM2WOxysEyp8e1W6ijG6mDb3L1dpQ04u1fthJRIkhE6ikL2gTJg5peBQ59hACd63KL5RA0b9oqedJEdKwtrPGacHxGJbLQMQHVE5ZlMWrIxU3nA0e8ESiKPRlxPjhjIjZ6zSCzXKXvwQ-Ze_tsCb2JeIxdzgHiABj8B6aByyayrXnQq1G9Xu4OPboZySOQQ8g5H7RtKFC7ohhtv1lLMV_rIiwFmFNn7ZCnjpaTAov1WTJ7a6QMJMtDiwY2emh9xwdfxFtb8VQcXkf7dsubry7zzF3GjFrKNDfnlPYPqzVOxStoESst6QnaC2VKFxbpDqM_ifqy-ph_bangGJaudm9IHEyxlAEdyNBmksFBUzgXNME3N_JJKHuUA6PFxzwJSVOhMJaqlXIXN1ZZp7LaFwejbgjwf-FZaULY0L4uiw9UjwFbJR2btkL0wZ-SVdSuhKrARmmi3XQBbfqpBCOBS3Zx7EfV-yLtbsBReLINkWZdjFMa97mrZ2m2VWMxseXL4MpdB1osW4PGOAhdV0JlfEJIO2xmV0YG9oWU_6UVDOl6JbeEQjDZVaN?></g></svg>