<svg xmlns="http://www.w3.org/2000/svg" xmlns:xlink="http://www.w3.org/1999/xlink" contentStyleType="text/css" data-diagram-type="SEQUENCE" height="1402px" preserveAspectRatio="none" style="width:1133px;height:1402px;background:#FFFFFF;" version="1.1" viewBox="0 0 1133 1402" width="1133px" zoomAndPan="magnify"><?plantuml 1.2026.6?><defs/><g><rect fill="#FEFCFF" height="1376.5156" style="stroke:#181818;stroke-width:0.5;" width="109.625" x="184.0488" y="11"/><text fill="#000000" font-family="Helvetica" font-size="10" font-weight="700" x="196.0488" y="20.2822">Android Device</text><rect fill="#E6E6FA" height="1359.875" style="stroke:#181818;stroke-width:0.5;" width="109.625" x="184.0488" y="27.6406"/><text fill="#000000" font-family="Helvetica" font-size="10" font-weight="700" x="227.8335" y="36.9229">App</text><rect fill="#EDFDEC" height="1376.5156" style="stroke:#181818;stroke-width:0.5;" width="147.7842" x="549.0386" y="11"/><text fill="#000000" font-family="Helvetica" font-size="10" font-weight="700" x="561.0386" y="20.2822">Anbieter TI 2.0 Dienst</text><rect fill="#FFF3E5" height="1359.875" style="stroke:#181818;stroke-width:0.5;" width="147.7842" x="549.0386" y="27.6406"/><text fill="#000000" font-family="Helvetica" font-size="10" font-weight="700" x="589.7861" y="36.9229">ZETA Guard</text><g><title>Nutzer</title><rect fill="#000000" fill-opacity="0.00000" height="1194.9531" width="8" x="26.126" y="114.9219"/><line style="stroke:#000000;stroke-width:0.5;stroke-dasharray:5,5;" x1="29.626" x2="29.626" y1="114.9219" y2="1309.875"/></g><g><title>ZETA Client</title><rect fill="#000000" fill-opacity="0.00000" height="1194.9531" width="8" x="235.3613" y="114.9219"/><line style="stroke:#000000;stroke-width:0.5;stroke-dasharray:5,5;" x1="238.8613" x2="238.8613" y1="114.9219" y2="1309.875"/></g><g><title/><rect fill="#FFFFFF" height="1186.9531" style="stroke:#181818;stroke-width:1;" width="10" x="233.8613" y="122.9219"/></g><g><title>PDP</title><rect fill="#000000" fill-opacity="0.00000" height="1194.9531" width="8" x="619.4307" y="114.9219"/><line style="stroke:#000000;stroke-width:0.5;stroke-dasharray:5,5;" x1="622.9307" x2="622.9307" y1="114.9219" y2="1309.875"/></g><g><title/><rect fill="#FFFFFF" height="578.0156" style="stroke:#181818;stroke-width:1;" width="10" x="617.9307" y="214.7656"/></g><g><title/><rect fill="#FFFFFF" height="436.1719" style="stroke:#181818;stroke-width:1;" width="10" x="617.9307" y="855.7031"/></g><text fill="#000000" font-family="Helvetica" font-size="10" x="10" y="112.5635">Nutzer</text><ellipse cx="29.626" cy="51.7813" fill="#E2E2F0" rx="8" ry="8" style="stroke:#181818;stroke-width:0.5;"/><path d="M29.626,59.7813 L29.626,86.7813 M16.626,67.7813 L42.626,67.7813 M29.626,86.7813 L16.626,101.7813 M29.626,86.7813 L42.626,101.7813" fill="none" style="stroke:#181818;stroke-width:0.5;"/><rect fill="#FFE6CC" height="25.6406" rx="2.5" ry="2.5" style="stroke:#D79B00;stroke-width:0.5;" width="72.2471" x="202.7378" y="88.2813"/><text fill="#000000" font-family="Helvetica" font-size="10" x="209.7378" y="104.5635">ZETA Client</text><rect fill="#FFE6CC" height="37.2813" rx="2.5" ry="2.5" style="stroke:#D79B00;stroke-width:0.5;" width="116.9492" x="564.4561" y="76.6406"/><text fill="#000000" font-family="Helvetica" font-size="10" x="613.0503" y="92.9229">PDP</text><text fill="#000000" font-family="Helvetica" font-size="10" x="571.4561" y="104.5635">Authorization Server</text><text fill="#000000" font-family="Helvetica" font-size="10" x="10" y="1379.1572">Nutzer</text><ellipse cx="29.626" cy="1318.375" fill="#E2E2F0" rx="8" ry="8" style="stroke:#181818;stroke-width:0.5;"/><path d="M29.626,1326.375 L29.626,1353.375 M16.626,1334.375 L42.626,1334.375 M29.626,1353.375 L16.626,1368.375 M29.626,1353.375 L42.626,1368.375" fill="none" style="stroke:#181818;stroke-width:0.5;"/><rect fill="#FFE6CC" height="25.6406" rx="2.5" ry="2.5" style="stroke:#D79B00;stroke-width:0.5;" width="72.2471" x="202.7378" y="1309.875"/><text fill="#000000" font-family="Helvetica" font-size="10" x="209.7378" y="1326.1572">ZETA Client</text><rect fill="#FFE6CC" height="37.2813" rx="2.5" ry="2.5" style="stroke:#D79B00;stroke-width:0.5;" width="116.9492" x="564.4561" y="1309.875"/><text fill="#000000" font-family="Helvetica" font-size="10" x="613.0503" y="1326.1572">PDP</text><text fill="#000000" font-family="Helvetica" font-size="10" x="571.4561" y="1337.7979">Authorization Server</text><path d="M13.626,126.9219 L73.582,126.9219 L73.582,130.5625 L63.582,140.5625 L13.626,140.5625 L13.626,126.9219" fill="#EEEEEE" style="stroke:#000000;stroke-width:1.5;"/><rect fill="none" height="1055.1094" style="stroke:#000000;stroke-width:1.5;" width="1100.1768" x="13.626" y="126.9219"/><text fill="#000000" font-family="Helvetica" font-size="10" font-weight="700" x="28.626" y="137.2041">alt</text><text fill="#000000" font-family="Helvetica" font-size="10" font-weight="700" x="88.582" y="138.2041">[Kein ZETA Attestation Token vorhanden]</text><line style="stroke:#000000;stroke-width:1;stroke-dasharray:2,2;" x1="13.626" x2="1113.8027" y1="975.2656" y2="975.2656"/><text fill="#000000" font-family="Helvetica" font-size="10" font-weight="700" x="18.626" y="986.5479">[ZETA Attestation Token vorhanden (Fast-Path)]</text><polygon fill="#181818" points="605.9307,210.7656,615.9307,214.7656,605.9307,218.7656,609.9307,214.7656" style="stroke:#181818;stroke-width:1;stroke-linejoin:miter;stroke-miterlimit:10;"/><line style="stroke:#181818;stroke-width:1;" x1="243.8613" x2="611.9307" y1="214.7656" y2="214.7656"/><text fill="#000000" font-family="Helvetica" font-size="10" x="250.8613" y="187.126">(01)</text><text fill="#000000" font-family="Helvetica" font-size="10" x="275.3887" y="163.8447">POST /register</text><text fill="#000000" font-family="Helvetica" font-size="10" x="275.3887" y="175.4854">{attestation_type="android", PuK.AK.Sig,</text><text fill="#000000" font-family="Helvetica" font-size="10" x="275.3887" y="187.126">Android_Key_Attestation_Certificate_Chain,</text><text fill="#000000" font-family="Helvetica" font-size="10" x="275.3887" y="198.7666">PuK.Client.Sig, signed_Hash_PuK.Client.Sig,</text><text fill="#000000" font-family="Helvetica" font-size="10" x="275.3887" y="210.4072">play_integrity_token, redirect_uris}</text><line style="stroke:#181818;stroke-width:1;" x1="627.9307" x2="669.9307" y1="240.4063" y2="240.4063"/><line style="stroke:#181818;stroke-width:1;" x1="669.9307" x2="669.9307" y1="240.4063" y2="253.4063"/><line style="stroke:#181818;stroke-width:1;" x1="628.9307" x2="669.9307" y1="253.4063" y2="253.4063"/><polygon fill="#181818" points="638.9307,249.4063,628.9307,253.4063,638.9307,257.4063,634.9307,253.4063" style="stroke:#181818;stroke-width:1;stroke-linejoin:miter;stroke-miterlimit:10;"/><text fill="#000000" font-family="Helvetica" font-size="10" x="634.9307" y="236.0479">(02)</text><text fill="#000000" font-family="Helvetica" font-size="10" x="659.458" y="236.0479">Validiere Zertifikatskette gegen Google Root CA</text><line style="stroke:#181818;stroke-width:1;" x1="627.9307" x2="669.9307" y1="279.0469" y2="279.0469"/><line style="stroke:#181818;stroke-width:1;" x1="669.9307" x2="669.9307" y1="279.0469" y2="292.0469"/><line style="stroke:#181818;stroke-width:1;" x1="628.9307" x2="669.9307" y1="292.0469" y2="292.0469"/><polygon fill="#181818" points="638.9307,288.0469,628.9307,292.0469,638.9307,296.0469,634.9307,292.0469" style="stroke:#181818;stroke-width:1;stroke-linejoin:miter;stroke-miterlimit:10;"/><text fill="#000000" font-family="Helvetica" font-size="10" x="634.9307" y="274.6885">(03)</text><text fill="#000000" font-family="Helvetica" font-size="10" x="659.458" y="274.6885">Pr&#252;fe signed_Hash_PuK.Client.Sig</text><path d="M606.9307,304.0469 L670.7393,304.0469 L670.7393,307.6875 L660.7393,317.6875 L606.9307,317.6875 L606.9307,304.0469" fill="#EEEEEE" style="stroke:#000000;stroke-width:1.5;"/><rect fill="none" height="139.5625" style="stroke:#000000;stroke-width:1.5;" width="405.3906" x="606.9307" y="304.0469"/><text fill="#000000" font-family="Helvetica" font-size="10" font-weight="700" x="621.9307" y="314.3291">opt</text><text fill="#000000" font-family="Helvetica" font-size="10" font-weight="700" x="685.7393" y="315.3291">[Play Integrity Pr&#252;fung]</text><line style="stroke:#181818;stroke-width:1;" x1="627.9307" x2="669.9307" y1="345.3281" y2="345.3281"/><line style="stroke:#181818;stroke-width:1;" x1="669.9307" x2="669.9307" y1="345.3281" y2="358.3281"/><line style="stroke:#181818;stroke-width:1;" x1="628.9307" x2="669.9307" y1="358.3281" y2="358.3281"/><polygon fill="#181818" points="638.9307,354.3281,628.9307,358.3281,638.9307,362.3281,634.9307,358.3281" style="stroke:#181818;stroke-width:1;stroke-linejoin:miter;stroke-miterlimit:10;"/><text fill="#000000" font-family="Helvetica" font-size="10" x="634.9307" y="340.9697">(04)</text><text fill="#000000" font-family="Helvetica" font-size="10" x="659.458" y="340.9697">Entschl&#252;ssele play_integrity_token (lokal/remote)</text><line style="stroke:#181818;stroke-width:1;" x1="627.9307" x2="669.9307" y1="383.9688" y2="383.9688"/><line style="stroke:#181818;stroke-width:1;" x1="669.9307" x2="669.9307" y1="383.9688" y2="396.9688"/><line style="stroke:#181818;stroke-width:1;" x1="628.9307" x2="669.9307" y1="396.9688" y2="396.9688"/><polygon fill="#181818" points="638.9307,392.9688,628.9307,396.9688,638.9307,400.9688,634.9307,396.9688" style="stroke:#181818;stroke-width:1;stroke-linejoin:miter;stroke-miterlimit:10;"/><text fill="#000000" font-family="Helvetica" font-size="10" x="634.9307" y="379.6104">(05)</text><text fill="#000000" font-family="Helvetica" font-size="10" x="659.458" y="379.6104">Verifiziere Nonce (Muss Hash(PuK.Client.Sig) entsprechen)</text><line style="stroke:#181818;stroke-width:1;" x1="627.9307" x2="669.9307" y1="422.6094" y2="422.6094"/><line style="stroke:#181818;stroke-width:1;" x1="669.9307" x2="669.9307" y1="422.6094" y2="435.6094"/><line style="stroke:#181818;stroke-width:1;" x1="628.9307" x2="669.9307" y1="435.6094" y2="435.6094"/><polygon fill="#181818" points="638.9307,431.6094,628.9307,435.6094,638.9307,439.6094,634.9307,435.6094" style="stroke:#181818;stroke-width:1;stroke-linejoin:miter;stroke-miterlimit:10;"/><text fill="#000000" font-family="Helvetica" font-size="10" x="634.9307" y="418.251">(06)</text><text fill="#000000" font-family="Helvetica" font-size="10" x="659.458" y="418.251">Werte Verdicts aus (appIntegrity, deviceIntegrity, accountDetails)</text><path d="M632.9307,462.6094 L632.9307,506.6094 L935.9307,506.6094 L935.9307,472.6094 L925.9307,462.6094 L632.9307,462.6094" fill="#FEFFDD" style="stroke:#181818;stroke-width:0.5;"/><path d="M925.9307,462.6094 L925.9307,472.6094 L935.9307,472.6094 L925.9307,462.6094" fill="#FEFFDD" style="stroke:#181818;stroke-width:0.5;"/><text fill="#000000" font-family="Helvetica" font-size="10" x="638.9307" y="476.8916">PuK.AK.Sig muss mit dem Blatt-Zertifikat</text><text fill="#000000" font-family="Helvetica" font-size="10" x="638.9307" y="488.5322">der Certificate Chain &#252;bereinstimmen.</text><text fill="#000000" font-family="Helvetica" font-size="10" x="638.9307" y="500.1729">Sicherheitsniveau: TrustedEnvironment oder StrongBox.</text><path d="M632.9307,517.5313 L632.9307,655.5313 L1091.9307,655.5313 L1091.9307,527.5313 L1081.9307,517.5313 L632.9307,517.5313" fill="#FEFFDD" style="stroke:#181818;stroke-width:0.5;"/><path d="M1081.9307,517.5313 L1081.9307,527.5313 L1091.9307,527.5313 L1081.9307,517.5313" fill="#FEFFDD" style="stroke:#181818;stroke-width:0.5;"/><text fill="#000000" font-family="Helvetica" font-size="10" x="638.9307" y="531.8135">Es werden zwei redirect_uris je App registriert (RFC 8252, claimed-HTTPS</text><text fill="#000000" font-family="Helvetica" font-size="10" x="638.9307" y="543.4541">Universal-/App-Links auf einer vom App-Hersteller kontrollierten Domain):</text><text fill="#000000" font-family="Helvetica" font-size="10" x="638.9307" y="555.0947">- https://&lt;App-FQDN&gt;/cb/&lt;app&gt;/as = redirect_uri_as</text><text fill="#000000" font-family="Helvetica" font-size="10" x="645.2881" y="566.7354">(SekIDP Auth Code Flow, redirection_endpoint des AuthS, nicht /token)</text><text fill="#000000" font-family="Helvetica" font-size="10" x="638.9307" y="578.376">- https://&lt;App-FQDN&gt;/cb/&lt;app&gt;/app = redirect_uri_app</text><text fill="#000000" font-family="Helvetica" font-size="10" x="645.2881" y="590.0166">(ZETA Guard Auth Code Flow, /token-Endpunkt des AuthS)</text><text fill="#000000" font-family="Helvetica" font-size="10" x="638.9307" y="601.6572">Beide Callbacks enden &#252;ber denselben App-Link/Universal-Link in der App;</text><text fill="#000000" font-family="Helvetica" font-size="10" x="638.9307" y="613.2979">der ZETA Client unterscheidet den zu nutzenden AuthS-Endpunkt anhand des Pfads.</text><text fill="#000000" font-family="Helvetica" font-size="10" x="638.9307" y="624.9385">Die OS-seitige Verkn&#252;pfung erfolgt &#252;ber assetlinks.json</text><text fill="#000000" font-family="Helvetica" font-size="10" x="638.9307" y="636.5791">(Deployment, kein Laufzeit-Flow). Die App ist inkl. redirect_uris bei der gematik</text><text fill="#000000" font-family="Helvetica" font-size="10" x="638.9307" y="648.2197">registriert; der AuthS pr&#252;ft beim DCR, ob die &#252;bergebenen redirect_uris registriert sind.</text><line style="stroke:#181818;stroke-width:1;" x1="627.9307" x2="669.9307" y1="678.2188" y2="678.2188"/><line style="stroke:#181818;stroke-width:1;" x1="669.9307" x2="669.9307" y1="678.2188" y2="691.2188"/><line style="stroke:#181818;stroke-width:1;" x1="628.9307" x2="669.9307" y1="691.2188" y2="691.2188"/><polygon fill="#181818" points="638.9307,687.2188,628.9307,691.2188,638.9307,695.2188,634.9307,691.2188" style="stroke:#181818;stroke-width:1;stroke-linejoin:miter;stroke-miterlimit:10;"/><text fill="#000000" font-family="Helvetica" font-size="10" x="634.9307" y="673.8604">(07)</text><text fill="#000000" font-family="Helvetica" font-size="10" x="659.458" y="673.8604">Store Client Placeholder (state: pending_user_binding)</text><line style="stroke:#181818;stroke-width:1;" x1="627.9307" x2="669.9307" y1="728.5" y2="728.5"/><line style="stroke:#181818;stroke-width:1;" x1="669.9307" x2="669.9307" y1="728.5" y2="741.5"/><line style="stroke:#181818;stroke-width:1;" x1="628.9307" x2="669.9307" y1="741.5" y2="741.5"/><polygon fill="#181818" points="638.9307,737.5,628.9307,741.5,638.9307,745.5,634.9307,741.5" style="stroke:#181818;stroke-width:1;stroke-linejoin:miter;stroke-miterlimit:10;"/><text fill="#000000" font-family="Helvetica" font-size="10" x="634.9307" y="718.3213">(08)</text><text fill="#000000" font-family="Helvetica" font-size="10" x="659.458" y="712.501">Generiere OTP &amp; transaction_id</text><text fill="#000000" font-family="Helvetica" font-size="10" x="659.458" y="724.1416">Speichere Request im tempor&#228;ren Cache</text><polygon fill="#181818" points="40.626,763.1406,30.626,767.1406,40.626,771.1406,36.626,767.1406" style="stroke:#181818;stroke-width:1;stroke-linejoin:miter;stroke-miterlimit:10;"/><line style="stroke:#181818;stroke-width:1;" x1="34.626" x2="616.9307" y1="767.1406" y2="767.1406"/><text fill="#000000" font-family="Helvetica" font-size="10" x="46.626" y="762.7822">(09)</text><text fill="#000000" font-family="Helvetica" font-size="10" x="71.1533" y="762.7822">E-Mail mit OTP-Best&#228;tigungscode (Out-of-Band)</text><polygon fill="#181818" points="254.8613,788.7813,244.8613,792.7813,254.8613,796.7813,250.8613,792.7813" style="stroke:#181818;stroke-width:1;stroke-linejoin:miter;stroke-miterlimit:10;"/><line style="stroke:#181818;stroke-width:1;stroke-dasharray:2,2;" x1="248.8613" x2="616.9307" y1="792.7813" y2="792.7813"/><text fill="#000000" font-family="Helvetica" font-size="10" x="260.8613" y="788.4229">(10)</text><text fill="#000000" font-family="Helvetica" font-size="10" x="285.3887" y="788.4229">202 Accepted {transaction_id, message="OTP sent"}</text><polygon fill="#181818" points="221.8613,814.4219,231.8613,818.4219,221.8613,822.4219,225.8613,818.4219" style="stroke:#181818;stroke-width:1;stroke-linejoin:miter;stroke-miterlimit:10;"/><line style="stroke:#181818;stroke-width:1;" x1="29.626" x2="227.8613" y1="818.4219" y2="818.4219"/><text fill="#000000" font-family="Helvetica" font-size="10" x="36.626" y="814.0635">(11)</text><text fill="#000000" font-family="Helvetica" font-size="10" x="61.1533" y="814.0635">Gibt OTP-Best&#228;tigungscode ein</text><polygon fill="#181818" points="605.9307,851.7031,615.9307,855.7031,605.9307,859.7031,609.9307,855.7031" style="stroke:#181818;stroke-width:1;stroke-linejoin:miter;stroke-miterlimit:10;"/><line style="stroke:#181818;stroke-width:1;" x1="243.8613" x2="611.9307" y1="855.7031" y2="855.7031"/><text fill="#000000" font-family="Helvetica" font-size="10" x="250.8613" y="845.5244">(12)</text><text fill="#000000" font-family="Helvetica" font-size="10" x="275.3887" y="839.7041">POST /register/verify</text><text fill="#000000" font-family="Helvetica" font-size="10" x="275.3887" y="851.3447">{transaction_id, code}</text><line style="stroke:#181818;stroke-width:1;" x1="627.9307" x2="669.9307" y1="881.3438" y2="881.3438"/><line style="stroke:#181818;stroke-width:1;" x1="669.9307" x2="669.9307" y1="881.3438" y2="894.3438"/><line style="stroke:#181818;stroke-width:1;" x1="628.9307" x2="669.9307" y1="894.3438" y2="894.3438"/><polygon fill="#181818" points="638.9307,890.3438,628.9307,894.3438,638.9307,898.3438,634.9307,894.3438" style="stroke:#181818;stroke-width:1;stroke-linejoin:miter;stroke-miterlimit:10;"/><text fill="#000000" font-family="Helvetica" font-size="10" x="634.9307" y="876.9854">(13)</text><text fill="#000000" font-family="Helvetica" font-size="10" x="659.458" y="876.9854">Verifiziere OTP-Code gegen Cache</text><line style="stroke:#181818;stroke-width:1;" x1="627.9307" x2="669.9307" y1="943.2656" y2="943.2656"/><line style="stroke:#181818;stroke-width:1;" x1="669.9307" x2="669.9307" y1="943.2656" y2="956.2656"/><line style="stroke:#181818;stroke-width:1;" x1="628.9307" x2="669.9307" y1="956.2656" y2="956.2656"/><polygon fill="#181818" points="638.9307,952.2656,628.9307,956.2656,638.9307,960.2656,634.9307,956.2656" style="stroke:#181818;stroke-width:1;stroke-linejoin:miter;stroke-miterlimit:10;"/><text fill="#000000" font-family="Helvetica" font-size="10" x="634.9307" y="927.2666">(14)</text><text fill="#000000" font-family="Helvetica" font-size="10" x="659.458" y="915.626">Stelle ZETA Guard Attestation Token aus</text><text fill="#000000" font-family="Helvetica" font-size="10" x="659.458" y="927.2666">(attestation_type="android", signiert, cnf=PuK.AK.Sig,</text><text fill="#000000" font-family="Helvetica" font-size="10" x="659.458" y="938.9072">enth&#228;lt die registrierten redirect_uris)</text><polygon fill="#181818" points="605.9307,1042.4688,615.9307,1046.4688,605.9307,1050.4688,609.9307,1046.4688" style="stroke:#181818;stroke-width:1;stroke-linejoin:miter;stroke-miterlimit:10;"/><line style="stroke:#181818;stroke-width:1;" x1="243.8613" x2="611.9307" y1="1046.4688" y2="1046.4688"/><text fill="#000000" font-family="Helvetica" font-size="10" x="250.8613" y="1024.6494">(15)</text><text fill="#000000" font-family="Helvetica" font-size="10" x="275.3887" y="1007.1885">POST /register</text><text fill="#000000" font-family="Helvetica" font-size="10" x="275.3887" y="1018.8291">{attestation_type="zeta_attestation_token",</text><text fill="#000000" font-family="Helvetica" font-size="10" x="275.3887" y="1030.4697">zeta_guard_attestation_token, PuK.Client.Sig,</text><text fill="#000000" font-family="Helvetica" font-size="10" x="275.3887" y="1042.1104">Besitznachweis (Signatur/Assertion)}</text><line style="stroke:#181818;stroke-width:1;" x1="627.9307" x2="669.9307" y1="1072.1094" y2="1072.1094"/><line style="stroke:#181818;stroke-width:1;" x1="669.9307" x2="669.9307" y1="1072.1094" y2="1085.1094"/><line style="stroke:#181818;stroke-width:1;" x1="628.9307" x2="669.9307" y1="1085.1094" y2="1085.1094"/><polygon fill="#181818" points="638.9307,1081.1094,628.9307,1085.1094,638.9307,1089.1094,634.9307,1085.1094" style="stroke:#181818;stroke-width:1;stroke-linejoin:miter;stroke-miterlimit:10;"/><text fill="#000000" font-family="Helvetica" font-size="10" x="634.9307" y="1067.751">(16)</text><text fill="#000000" font-family="Helvetica" font-size="10" x="659.458" y="1067.751">Pr&#252;fe Token-Signatur &amp; Vertrauensstellung</text><line style="stroke:#181818;stroke-width:1;" x1="627.9307" x2="669.9307" y1="1110.75" y2="1110.75"/><line style="stroke:#181818;stroke-width:1;" x1="669.9307" x2="669.9307" y1="1110.75" y2="1123.75"/><line style="stroke:#181818;stroke-width:1;" x1="628.9307" x2="669.9307" y1="1123.75" y2="1123.75"/><polygon fill="#181818" points="638.9307,1119.75,628.9307,1123.75,638.9307,1127.75,634.9307,1123.75" style="stroke:#181818;stroke-width:1;stroke-linejoin:miter;stroke-miterlimit:10;"/><text fill="#000000" font-family="Helvetica" font-size="10" x="634.9307" y="1106.3916">(17)</text><text fill="#000000" font-family="Helvetica" font-size="10" x="659.458" y="1106.3916">Extrahiere PuK.AK.Sig aus Token, verifiziere Besitznachweis</text><line style="stroke:#181818;stroke-width:1;" x1="627.9307" x2="669.9307" y1="1161.0313" y2="1161.0313"/><line style="stroke:#181818;stroke-width:1;" x1="669.9307" x2="669.9307" y1="1161.0313" y2="1174.0313"/><line style="stroke:#181818;stroke-width:1;" x1="628.9307" x2="669.9307" y1="1174.0313" y2="1174.0313"/><polygon fill="#181818" points="638.9307,1170.0313,628.9307,1174.0313,638.9307,1178.0313,634.9307,1174.0313" style="stroke:#181818;stroke-width:1;stroke-linejoin:miter;stroke-miterlimit:10;"/><text fill="#000000" font-family="Helvetica" font-size="10" x="634.9307" y="1150.8525">(18)</text><text fill="#000000" font-family="Helvetica" font-size="10" x="659.458" y="1145.0322">&#220;bernimm registrierte redirect_uris aus dem Token</text><text fill="#000000" font-family="Helvetica" font-size="10" x="659.458" y="1156.6729">(kein erneutes Senden im Fast-Path)</text><path d="M180.9673,1201.0313 L180.9673,1257.0313 L679.9673,1257.0313 L679.9673,1211.0313 L669.9673,1201.0313 L180.9673,1201.0313" fill="#FEFFDD" style="stroke:#181818;stroke-width:0.5;"/><path d="M669.9673,1201.0313 L669.9673,1211.0313 L679.9673,1211.0313 L669.9673,1201.0313" fill="#FEFFDD" style="stroke:#181818;stroke-width:0.5;"/><text fill="#000000" font-family="Helvetica" font-size="10" x="186.9673" y="1215.3135">Der zeta_guard_attestation_token zertifiziert die erfolgreiche Android Key Attestation,</text><text fill="#000000" font-family="Helvetica" font-size="10" x="186.9673" y="1226.9541">ist an PuK.AK.Sig gebunden (cnf) und enth&#228;lt die registrierten redirect_uris. Er kann</text><text fill="#000000" font-family="Helvetica" font-size="10" x="186.9673" y="1238.5947">bei einer erneuten Registrierung im Fast-Path vorgelegt werden, sodass Hardware-Attestierung</text><text fill="#000000" font-family="Helvetica" font-size="10" x="186.9673" y="1250.2354">und redirect_uris nicht erneut &#252;bertragen werden m&#252;ssen.</text><polygon fill="#181818" points="254.8613,1287.875,244.8613,1291.875,254.8613,1295.875,250.8613,1291.875" style="stroke:#181818;stroke-width:1;stroke-linejoin:miter;stroke-miterlimit:10;"/><line style="stroke:#181818;stroke-width:1;stroke-dasharray:2,2;" x1="248.8613" x2="616.9307" y1="1291.875" y2="1291.875"/><text fill="#000000" font-family="Helvetica" font-size="10" x="260.8613" y="1281.6963">(19)</text><text fill="#000000" font-family="Helvetica" font-size="10" x="285.3887" y="1275.876">201 Created {client_id, status="pending_user_binding",</text><text fill="#000000" font-family="Helvetica" font-size="10" x="285.3887" y="1287.5166">zeta_guard_attestation_token (bei HW-Attestierung ausgestellt)}</text><?plantuml-src ZLTTRnkt4dtNhvZgePKGhTG6A52uYG5PaXF3IQHhAGbkOK2WTkaLgnMv9Rbsx2B_v3xcP-JDV-oU8VLfAqxo47jtoPapCsTcZdzIEYsgJ5AxtIchPP4KujPKlkq_-LfDfDvOUk-a9U6e_gxoTzBMQxMP-KJrhiwiKHdrvRLAPPtwWmzdlS6qDtmplAWHnJDbMQVHnTdRxk1Y_D_nPF1syvse5DQhL9L2U-eLIk87U_bhCEckdklquiMTzEBu61UapjXeRVrpZMAcf0V0oHazR_zAVTnpdfqEFvpr1nVxU8BjLvMmMPtuz-chzzsB_ZSmTIi_7mT8e_xeKlEZiUfEU6KqZQMzHYwU11Y3UFQi9WfFvrBfu9Ewtaldevc9MKXDryREXSwa3XZ2V_nlbPJaE49vzko8HiFnX3fMvieXw4lzhzWQc_hRKhwiYrYNUej6rNcxUzuUgxm5-F7rz5pUJdSGJ7iI4L-fL7WvxSs5qZZB5wFpS9cSohNCfg-5cqyVVBlK9HWpLThBt2f_E_KSKOkip9ILgPzMLhdFcv1YJjSH7T47KQXCIIlfhuXZ8RnRIE2ZNEP8pIjZyaBIXJ4WIVURTaRs_kkLV0BevkRc5rDw6W4xdQsnHokLtXu-v6gWlKldnVrNvoIG7GgV6eLPY09rMXelcq-Q-o0jmhuBENXdT2gfyRPoZZY6nduCJL3Ckn9fdKlzjDMFoAPasvbAlIDHEMg8ijo4sg8ijEtE2v6cfjA-3pghmctDWywFawSH5rcLppsPgqqHDdoZ9OUmL1vkbdHIWAN9ji2NeBgb7U9H81xTVvqX2mhzgvPBgTkNUgmGgfrBvPrMrr9KHpIn5QYV3VIriaOlkK4CcnjxFEOdvbExLli6mXNwWQCR90PbkhkHQf-fzBSa32sA7MPH5K-DYzCU_V7yz-SjIWkXbZ9BNaycexMvzupCEb4a7TnCtYYzu8HV4I81hckpP8l9QvpniYZmQc4qm1O5MmUAlbaY-kRHobv2S-zBTzJflE1xf__flplkfBFE2zJlk8Dnz78FybIuJLKQOxauwuz2jDH3MkYqC3VRPkH-HpbB0xwYCYwcfKKQQVRK2Tnj_XWCvEWXZhBS0jaEsaTWefja01oLNkpWM7i-aGg7Uw8ePY95BYLFnaWE7DRekXcUrxdkRFFFZmGUCHtm-S-LFNxSMIe4akCyY0Ktx1uyg4ZpRWkE0fOjFA5vD0UKeokHkVRAAXOD3SU90pTL7bfjeU-_bZm-IDehK-H-XLbWKFY2QT7-snczkj_eox8mjqpW5YruERm1QUvWBk4yDTl10tCHH4HKYwBzWAepa9TZo-KIetonihl3t3zZ9i9eA7cqURwpf7xleaLcHXYy4M8kaL64lcz_jmUSqbcCdBSRzrRiieTpPmp18DU9ndHDvTmKZAB1-qOUKOdxIkVJ2g9YEbFX8HR-bzZQDDHqgj0hh3keCHcUlcyUTFKAa6qOcyF9Y7ucRuLs8f9SPPWTfGpJ0yj3_bD9JkAIl5oMnjv_iOYs9_1vtpHB7Kpuv2r6O1XVC9sSuExz5rGPfNKf4xanh7nYhf8JCAEvtTc_h5G1EEDl37hR1nlFVyNaq2QTq_dWxDq0GuIp0um_xJg7zvYs93dYAzHDKrbYqj6_-v6rQ2cT4pbMFGVkM2Tzhgq0V1GyztdwHB6M391VCOjX1Y6tyOCCgjct8WGVT-EAIseHDKiSwtOlbsVzsWyfbiurMxg5S7aO5BlzNFlUXcIqOPP4TN2WX1iYygobtJdqI7PXArxgnbCAYlK4yn_mzDNBFJs5EEVtNo3ik8jsMkLX6pLhjPeidFokzgF6gN0-6Ga_RnvAvW-9FnQZqxtNxAGElE5Bpfbu_3rAnJrL1qeeVwUHN-n8Y0UyrS9NjjF5DBDyjNcuMYib5e9BrhVGdgWYIbvXVeSrk5PPZzJL9voQXrhlo0dMBvE8z7g73ViW3zgx_n_ccuQUsAlHWqd7vbce11UWH1Z7k2Oh90fD7Sg3wR5J85P5jQ0n37Typ5rhepFwUFTKnl4ng9-xC5sPGd5ds32pQFst5SJwBcLQiCpRGEZTv61wLv5086aJwosZ7oLdcmQG8q9pi_CwYP9b5Rd6u5pVvAsscm2cRGxvYoKNjHHwnMGYw5QRtGWhauWxteLvXhMVzQWwehEuXr1wxkgLEbi6YQtRjUtAEJmhVwEUbIACoiri1Hxah78lwuSsplSQWXgSZTSVzu9WckGoiDU3_Fy7?></g></svg>