<svg xmlns="http://www.w3.org/2000/svg" xmlns:xlink="http://www.w3.org/1999/xlink" contentStyleType="text/css" data-diagram-type="SEQUENCE" height="1149px" preserveAspectRatio="none" style="width:1230px;height:1149px;background:#FFFFFF;" version="1.1" viewBox="0 0 1230 1149" width="1230px" zoomAndPan="magnify"><?plantuml 1.2026.6?><defs/><g><rect fill="#FEFCFF" height="1123.0313" style="stroke:#181818;stroke-width:0.5;" width="87.1543" x="16" y="11"/><text fill="#000000" font-family="Helvetica" font-size="10" font-weight="700" x="28" y="20.2822">Mobile App</text><rect fill="#EDFDEC" height="1123.0313" style="stroke:#181818;stroke-width:0.5;" width="147.7842" x="361.6929" y="11"/><text fill="#000000" font-family="Helvetica" font-size="10" font-weight="700" x="373.6929" y="20.2822">Anbieter TI 2.0 Dienst</text><rect fill="#FFF3E5" height="1106.3906" style="stroke:#181818;stroke-width:0.5;" width="147.7842" x="361.6929" y="27.6406"/><text fill="#000000" font-family="Helvetica" font-size="10" font-weight="700" x="402.4404" y="36.9229">ZETA Guard</text><rect fill="#EAF2FF" height="1123.0313" style="stroke:#181818;stroke-width:0.5;" width="388.772" x="825.0288" y="11"/><text fill="#000000" font-family="Helvetica" font-size="10" font-weight="700" x="981.3093" y="20.2822">TI-F&#246;deration</text><g><title>ZETA Client</title><rect fill="#000000" fill-opacity="0.00000" height="984.9063" width="8" x="56.0771" y="93.2031"/><line style="stroke:#000000;stroke-width:0.5;stroke-dasharray:5,5;" x1="59.5771" x2="59.5771" y1="93.2031" y2="1078.1094"/></g><g><title/><rect fill="#FFFFFF" height="976.9063" style="stroke:#181818;stroke-width:1;" width="10" x="54.5771" y="101.2031"/></g><g><title>PDP</title><rect fill="#000000" fill-opacity="0.00000" height="984.9063" width="8" x="432.085" y="93.2031"/><line style="stroke:#000000;stroke-width:0.5;stroke-dasharray:5,5;" x1="435.585" x2="435.585" y1="93.2031" y2="1078.1094"/></g><g><title/><rect fill="#FFFFFF" height="781.1406" style="stroke:#181818;stroke-width:1;" width="10" x="430.585" y="247.3281"/></g><g><title>Sektoraler IDP</title><rect fill="#000000" fill-opacity="0.00000" height="984.9063" width="8" x="872.0137" y="93.2031"/><line style="stroke:#000000;stroke-width:0.5;stroke-dasharray:5,5;" x1="875.5137" x2="875.5137" y1="93.2031" y2="1078.1094"/></g><g><title/><rect fill="#FFFFFF" height="25.6406" style="stroke:#181818;stroke-width:1;" width="10" x="870.5137" y="452.4531"/></g><g><title/><rect fill="#FFFFFF" height="282.0469" style="stroke:#181818;stroke-width:1;" width="10" x="870.5137" y="697.5"/></g><g><title>Federation</title><rect fill="#000000" fill-opacity="0.00000" height="984.9063" width="8" x="1172.4014" y="93.2031"/><line style="stroke:#000000;stroke-width:0.5;stroke-dasharray:5,5;" x1="1175.9014" x2="1175.9014" y1="93.2031" y2="1078.1094"/></g><g><title/><rect fill="#FFFFFF" height="25.6406" style="stroke:#181818;stroke-width:1;" width="10" x="1170.9014" y="503.7344"/></g><g><title/><rect fill="#FFFFFF" height="25.6406" style="stroke:#181818;stroke-width:1;" width="10" x="1170.9014" y="802.0625"/></g><rect fill="#FFE6CC" height="25.6406" rx="2.5" ry="2.5" style="stroke:#D79B00;stroke-width:0.5;" width="72.2471" x="23.4536" y="66.5625"/><text fill="#000000" font-family="Helvetica" font-size="10" x="30.4536" y="82.8447">ZETA Client</text><rect fill="#FFE6CC" height="48.9219" rx="2.5" ry="2.5" style="stroke:#D79B00;stroke-width:0.5;" width="117.0322" x="377.0688" y="43.2813"/><text fill="#000000" font-family="Helvetica" font-size="10" x="425.7046" y="59.5635">PDP</text><text fill="#000000" font-family="Helvetica" font-size="10" x="384.1104" y="71.2041">Authorization Server</text><text fill="#000000" font-family="Helvetica" font-size="10" x="384.0688" y="82.8447">(OIDC Relying Party)</text><rect fill="#E2E2F0" height="37.2813" rx="2.5" ry="2.5" style="stroke:#181818;stroke-width:0.5;" width="92.9697" x="829.0288" y="54.9219"/><text fill="#000000" font-family="Helvetica" font-size="10" x="839.7788" y="71.2041">Sektoraler IDP</text><text fill="#000000" font-family="Helvetica" font-size="10" x="836.0288" y="82.8447">(PAR-Endpunkt)</text><rect fill="#E2E2F0" height="37.2813" rx="2.5" ry="2.5" style="stroke:#181818;stroke-width:0.5;" width="67.7988" x="1142.002" y="54.9219"/><text fill="#000000" font-family="Helvetica" font-size="10" x="1149.002" y="71.2041">Federation</text><text fill="#000000" font-family="Helvetica" font-size="10" x="1158.8262" y="82.8447">Master</text><rect fill="#FFE6CC" height="25.6406" rx="2.5" ry="2.5" style="stroke:#D79B00;stroke-width:0.5;" width="72.2471" x="23.4536" y="1078.1094"/><text fill="#000000" font-family="Helvetica" font-size="10" x="30.4536" y="1094.3916">ZETA Client</text><rect fill="#FFE6CC" height="48.9219" rx="2.5" ry="2.5" style="stroke:#D79B00;stroke-width:0.5;" width="117.0322" x="377.0688" y="1078.1094"/><text fill="#000000" font-family="Helvetica" font-size="10" x="425.7046" y="1094.3916">PDP</text><text fill="#000000" font-family="Helvetica" font-size="10" x="384.1104" y="1106.0322">Authorization Server</text><text fill="#000000" font-family="Helvetica" font-size="10" x="384.0688" y="1117.6729">(OIDC Relying Party)</text><rect fill="#E2E2F0" height="37.2813" rx="2.5" ry="2.5" style="stroke:#181818;stroke-width:0.5;" width="92.9697" x="829.0288" y="1078.1094"/><text fill="#000000" font-family="Helvetica" font-size="10" x="839.7788" y="1094.3916">Sektoraler IDP</text><text fill="#000000" font-family="Helvetica" font-size="10" x="836.0288" y="1106.0322">(PAR-Endpunkt)</text><rect fill="#E2E2F0" height="37.2813" rx="2.5" ry="2.5" style="stroke:#181818;stroke-width:0.5;" width="67.7988" x="1142.002" y="1078.1094"/><text fill="#000000" font-family="Helvetica" font-size="10" x="1149.002" y="1094.3916">Federation</text><text fill="#000000" font-family="Helvetica" font-size="10" x="1158.8262" y="1106.0322">Master</text><path d="M17.2573,106.2031 L17.2573,127.2031 L477.2573,127.2031 L477.2573,116.2031 L467.2573,106.2031 L17.2573,106.2031" fill="#FEFFDD" style="stroke:#181818;stroke-width:0.5;"/><path d="M467.2573,106.2031 L467.2573,116.2031 L477.2573,116.2031 L467.2573,106.2031" fill="#FEFFDD" style="stroke:#181818;stroke-width:0.5;"/><text fill="#000000" font-family="Helvetica" font-size="10" x="36.4087" y="120.4854">Der ZETA Client hat vom Fach-Client den fachlichen Request inkl. idp_iss erhalten.</text><line style="stroke:#181818;stroke-width:1;" x1="64.5771" x2="106.5771" y1="173.7656" y2="173.7656"/><line style="stroke:#181818;stroke-width:1;" x1="106.5771" x2="106.5771" y1="173.7656" y2="186.7656"/><line style="stroke:#181818;stroke-width:1;" x1="65.5771" x2="106.5771" y1="186.7656" y2="186.7656"/><polygon fill="#181818" points="75.5771,182.7656,65.5771,186.7656,75.5771,190.7656,71.5771,186.7656" style="stroke:#181818;stroke-width:1;stroke-linejoin:miter;stroke-miterlimit:10;"/><text fill="#000000" font-family="Helvetica" font-size="10" x="71.5771" y="157.7666">(01)</text><text fill="#000000" font-family="Helvetica" font-size="10" x="96.1045" y="146.126">Erzeuge PKCE (code_verifier_app),</text><text fill="#000000" font-family="Helvetica" font-size="10" x="96.1045" y="157.7666">code_challenge_app = S256(code_verifier_app),</text><text fill="#000000" font-family="Helvetica" font-size="10" x="96.1045" y="169.4072">state_app</text><polygon fill="#181818" points="418.585,243.3281,428.585,247.3281,418.585,251.3281,422.585,247.3281" style="stroke:#181818;stroke-width:1;stroke-linejoin:miter;stroke-miterlimit:10;"/><line style="stroke:#181818;stroke-width:1;" x1="64.5771" x2="424.585" y1="247.3281" y2="247.3281"/><text fill="#000000" font-family="Helvetica" font-size="10" x="71.5771" y="225.5088">(02)</text><text fill="#000000" font-family="Helvetica" font-size="10" x="96.1045" y="208.0479">POST /par (private_key_jwt, client_assertion)</text><text fill="#000000" font-family="Helvetica" font-size="10" x="102.4619" y="219.6885">{response_type=code, client_id, redirect_uri=redirect_uri_app,</text><text fill="#000000" font-family="Helvetica" font-size="10" x="102.4619" y="231.3291">oidc_redirect_uri=oidc_redirect_uri, code_challenge_app,</text><text fill="#000000" font-family="Helvetica" font-size="10" x="102.4619" y="242.9697">code_challenge_method=S256, scope, state_app, idp_iss}</text><line style="stroke:#181818;stroke-width:1;" x1="440.585" x2="482.585" y1="272.9688" y2="272.9688"/><line style="stroke:#181818;stroke-width:1;" x1="482.585" x2="482.585" y1="272.9688" y2="285.9688"/><line style="stroke:#181818;stroke-width:1;" x1="441.585" x2="482.585" y1="285.9688" y2="285.9688"/><polygon fill="#181818" points="451.585,281.9688,441.585,285.9688,451.585,289.9688,447.585,285.9688" style="stroke:#181818;stroke-width:1;stroke-linejoin:miter;stroke-miterlimit:10;"/><text fill="#000000" font-family="Helvetica" font-size="10" x="447.585" y="268.6104">(03)</text><text fill="#000000" font-family="Helvetica" font-size="10" x="472.1123" y="268.6104">Validiere &amp; speichere Request-Parameter, erzeuge request_uri_app</text><polygon fill="#181818" points="75.5771,307.6094,65.5771,311.6094,75.5771,315.6094,71.5771,311.6094" style="stroke:#181818;stroke-width:1;stroke-linejoin:miter;stroke-miterlimit:10;"/><line style="stroke:#181818;stroke-width:1;stroke-dasharray:2,2;" x1="69.5771" x2="429.585" y1="311.6094" y2="311.6094"/><text fill="#000000" font-family="Helvetica" font-size="10" x="81.5771" y="307.251">(04)</text><text fill="#000000" font-family="Helvetica" font-size="10" x="106.1045" y="307.251">201 Created {request_uri_app, expires_in (5s)}</text><polygon fill="#181818" points="418.585,333.25,428.585,337.25,418.585,341.25,422.585,337.25" style="stroke:#181818;stroke-width:1;stroke-linejoin:miter;stroke-miterlimit:10;"/><line style="stroke:#181818;stroke-width:1;" x1="64.5771" x2="424.585" y1="337.25" y2="337.25"/><text fill="#000000" font-family="Helvetica" font-size="10" x="71.5771" y="332.8916">(05)</text><text fill="#000000" font-family="Helvetica" font-size="10" x="96.1045" y="332.8916">GET /authorize?client_id=...&amp;request_uri=request_uri_app</text><line style="stroke:#181818;stroke-width:1;" x1="440.585" x2="482.585" y1="386.1719" y2="386.1719"/><line style="stroke:#181818;stroke-width:1;" x1="482.585" x2="482.585" y1="386.1719" y2="399.1719"/><line style="stroke:#181818;stroke-width:1;" x1="441.585" x2="482.585" y1="399.1719" y2="399.1719"/><polygon fill="#181818" points="451.585,395.1719,441.585,399.1719,451.585,403.1719,447.585,399.1719" style="stroke:#181818;stroke-width:1;stroke-linejoin:miter;stroke-miterlimit:10;"/><text fill="#000000" font-family="Helvetica" font-size="10" x="447.585" y="370.1729">(06)</text><text fill="#000000" font-family="Helvetica" font-size="10" x="472.1123" y="358.5322">Erzeuge PKCE (code_verifier_as),</text><text fill="#000000" font-family="Helvetica" font-size="10" x="472.1123" y="370.1729">code_challenge_as = S256(code_verifier_as),</text><text fill="#000000" font-family="Helvetica" font-size="10" x="472.1123" y="381.8135">state_as, nonce</text><path d="M419.585,411.1719 L483.3936,411.1719 L483.3936,414.8125 L473.3936,424.8125 L419.585,424.8125 L419.585,411.1719" fill="#EEEEEE" style="stroke:#000000;stroke-width:1.5;"/><rect fill="none" height="176.4844" style="stroke:#000000;stroke-width:1.5;" width="777.3164" x="419.585" y="411.1719"/><text fill="#000000" font-family="Helvetica" font-size="10" font-weight="700" x="434.585" y="421.4541">opt</text><text fill="#000000" font-family="Helvetica" font-size="10" font-weight="700" x="498.3936" y="422.4541">[Entity Statement des IDP unbekannt]</text><polygon fill="#181818" points="858.5137,448.4531,868.5137,452.4531,858.5137,456.4531,862.5137,452.4531" style="stroke:#181818;stroke-width:1;stroke-linejoin:miter;stroke-miterlimit:10;"/><line style="stroke:#181818;stroke-width:1;" x1="440.585" x2="864.5137" y1="452.4531" y2="452.4531"/><text fill="#000000" font-family="Helvetica" font-size="10" x="447.585" y="448.0947">(07)</text><text fill="#000000" font-family="Helvetica" font-size="10" x="472.1123" y="448.0947">GET /.well-known/openid-federation</text><polygon fill="#181818" points="451.585,474.0938,441.585,478.0938,451.585,482.0938,447.585,478.0938" style="stroke:#181818;stroke-width:1;stroke-linejoin:miter;stroke-miterlimit:10;"/><line style="stroke:#181818;stroke-width:1;stroke-dasharray:2,2;" x1="445.585" x2="869.5137" y1="478.0938" y2="478.0938"/><text fill="#000000" font-family="Helvetica" font-size="10" x="457.585" y="473.7354">(08)</text><text fill="#000000" font-family="Helvetica" font-size="10" x="482.1123" y="473.7354">Entity Statement (signiert)</text><polygon fill="#181818" points="1158.9014,499.7344,1168.9014,503.7344,1158.9014,507.7344,1162.9014,503.7344" style="stroke:#181818;stroke-width:1;stroke-linejoin:miter;stroke-miterlimit:10;"/><line style="stroke:#181818;stroke-width:1;" x1="440.585" x2="1164.9014" y1="503.7344" y2="503.7344"/><text fill="#000000" font-family="Helvetica" font-size="10" x="447.585" y="499.376">(09)</text><text fill="#000000" font-family="Helvetica" font-size="10" x="472.1123" y="499.376">GET federation_fetch_endpoint?sub=&lt;idp_iss&gt;</text><polygon fill="#181818" points="451.585,525.375,441.585,529.375,451.585,533.375,447.585,529.375" style="stroke:#181818;stroke-width:1;stroke-linejoin:miter;stroke-miterlimit:10;"/><line style="stroke:#181818;stroke-width:1;stroke-dasharray:2,2;" x1="445.585" x2="1169.9014" y1="529.375" y2="529.375"/><text fill="#000000" font-family="Helvetica" font-size="10" x="457.585" y="525.0166">(10)</text><text fill="#000000" font-family="Helvetica" font-size="10" x="482.1123" y="525.0166">Entity Statement des IDP (signiert, Federation Master)</text><line style="stroke:#181818;stroke-width:1;" x1="440.585" x2="482.585" y1="566.6563" y2="566.6563"/><line style="stroke:#181818;stroke-width:1;" x1="482.585" x2="482.585" y1="566.6563" y2="579.6563"/><line style="stroke:#181818;stroke-width:1;" x1="441.585" x2="482.585" y1="579.6563" y2="579.6563"/><polygon fill="#181818" points="451.585,575.6563,441.585,579.6563,451.585,583.6563,447.585,579.6563" style="stroke:#181818;stroke-width:1;stroke-linejoin:miter;stroke-miterlimit:10;"/><text fill="#000000" font-family="Helvetica" font-size="10" x="447.585" y="556.4775">(11)</text><text fill="#000000" font-family="Helvetica" font-size="10" x="472.1123" y="550.6572">Validiere Trust Chain, importiere Signaturschl&#252;ssel</text><text fill="#000000" font-family="Helvetica" font-size="10" x="472.1123" y="562.2979">und OP-Metadaten (PAR-, Authorization-, Token-Endpunkt) des IDP</text><path d="M369.8247,606.6563 L369.8247,650.6563 L940.8247,650.6563 L940.8247,616.6563 L930.8247,606.6563 L369.8247,606.6563" fill="#FEFFDD" style="stroke:#181818;stroke-width:0.5;"/><path d="M930.8247,606.6563 L930.8247,616.6563 L940.8247,616.6563 L930.8247,606.6563" fill="#FEFFDD" style="stroke:#181818;stroke-width:0.5;"/><text fill="#000000" font-family="Helvetica" font-size="10" x="375.8247" y="620.9385">oidc_redirect_uri ist der Redirection-Endpunkt der OIDC Relying Party (AuthS) f&#252;r den SekIDP Auth Code Flow.</text><text fill="#000000" font-family="Helvetica" font-size="10" x="375.8247" y="632.5791">Sie wird im Entity Statement des AS (Fachdienst) gef&#252;hrt; der SekIDP pr&#252;ft beim PAR, ob oidc_redirect_uri</text><text fill="#000000" font-family="Helvetica" font-size="10" x="375.8247" y="644.2197">eine bekannte redirect_uri aus diesem AS-Entity-Statement ist.</text><polygon fill="#181818" points="858.5137,693.5,868.5137,697.5,858.5137,701.5,862.5137,697.5" style="stroke:#181818;stroke-width:1;stroke-linejoin:miter;stroke-miterlimit:10;"/><line style="stroke:#181818;stroke-width:1;" x1="440.585" x2="864.5137" y1="697.5" y2="697.5"/><text fill="#000000" font-family="Helvetica" font-size="10" x="447.585" y="681.501">(12)</text><text fill="#000000" font-family="Helvetica" font-size="10" x="472.1123" y="669.8604">POST /PAR (mTLS, self_signed_tls_client_auth)</text><text fill="#000000" font-family="Helvetica" font-size="10" x="478.4697" y="681.501">{client_id, oidc_redirect_uri, response_type=code, code_challenge_as,</text><text fill="#000000" font-family="Helvetica" font-size="10" x="478.4697" y="693.1416">code_challenge_method=S256, scope, claims, acr_values, nonce, state_as}</text><path d="M419.585,709.5 L483.3936,709.5 L483.3936,713.1406 L473.3936,723.1406 L419.585,723.1406 L419.585,709.5" fill="#EEEEEE" style="stroke:#000000;stroke-width:1.5;"/><rect fill="none" height="176.4844" style="stroke:#000000;stroke-width:1.5;" width="777.3164" x="419.585" y="709.5"/><text fill="#000000" font-family="Helvetica" font-size="10" font-weight="700" x="434.585" y="719.7822">opt</text><text fill="#000000" font-family="Helvetica" font-size="10" font-weight="700" x="498.3936" y="720.7822">[Entity Statement des Fachdienstes unbekannt]</text><polygon fill="#181818" points="451.585,746.7813,441.585,750.7813,451.585,754.7813,447.585,750.7813" style="stroke:#181818;stroke-width:1;stroke-linejoin:miter;stroke-miterlimit:10;"/><line style="stroke:#181818;stroke-width:1;" x1="445.585" x2="869.5137" y1="750.7813" y2="750.7813"/><text fill="#000000" font-family="Helvetica" font-size="10" x="457.585" y="746.4229">(13)</text><text fill="#000000" font-family="Helvetica" font-size="10" x="482.1123" y="746.4229">GET /.well-known/openid-federation</text><polygon fill="#181818" points="858.5137,772.4219,868.5137,776.4219,858.5137,780.4219,862.5137,776.4219" style="stroke:#181818;stroke-width:1;stroke-linejoin:miter;stroke-miterlimit:10;"/><line style="stroke:#181818;stroke-width:1;stroke-dasharray:2,2;" x1="440.585" x2="864.5137" y1="776.4219" y2="776.4219"/><text fill="#000000" font-family="Helvetica" font-size="10" x="447.585" y="772.0635">(14)</text><text fill="#000000" font-family="Helvetica" font-size="10" x="472.1123" y="772.0635">Entity Statement des Fachdienstes (signiert)</text><polygon fill="#181818" points="1158.9014,798.0625,1168.9014,802.0625,1158.9014,806.0625,1162.9014,802.0625" style="stroke:#181818;stroke-width:1;stroke-linejoin:miter;stroke-miterlimit:10;"/><line style="stroke:#181818;stroke-width:1;" x1="880.5137" x2="1164.9014" y1="802.0625" y2="802.0625"/><text fill="#000000" font-family="Helvetica" font-size="10" x="887.5137" y="797.7041">(15)</text><text fill="#000000" font-family="Helvetica" font-size="10" x="912.041" y="797.7041">GET federation_fetch_endpoint?sub=&lt;client_id&gt;</text><polygon fill="#181818" points="891.5137,823.7031,881.5137,827.7031,891.5137,831.7031,887.5137,827.7031" style="stroke:#181818;stroke-width:1;stroke-linejoin:miter;stroke-miterlimit:10;"/><line style="stroke:#181818;stroke-width:1;stroke-dasharray:2,2;" x1="885.5137" x2="1169.9014" y1="827.7031" y2="827.7031"/><text fill="#000000" font-family="Helvetica" font-size="10" x="897.5137" y="823.3447">(16)</text><text fill="#000000" font-family="Helvetica" font-size="10" x="922.041" y="823.3447">Entity Statement des Fachdienstes (signiert)</text><line style="stroke:#181818;stroke-width:1;" x1="880.5137" x2="922.5137" y1="864.9844" y2="864.9844"/><line style="stroke:#181818;stroke-width:1;" x1="922.5137" x2="922.5137" y1="864.9844" y2="877.9844"/><line style="stroke:#181818;stroke-width:1;" x1="881.5137" x2="922.5137" y1="877.9844" y2="877.9844"/><polygon fill="#181818" points="891.5137,873.9844,881.5137,877.9844,891.5137,881.9844,887.5137,877.9844" style="stroke:#181818;stroke-width:1;stroke-linejoin:miter;stroke-miterlimit:10;"/><text fill="#000000" font-family="Helvetica" font-size="10" x="887.5137" y="854.8057">(17)</text><text fill="#000000" font-family="Helvetica" font-size="10" x="912.041" y="848.9854">Validiere Trust Chain, Automatic Registration,</text><text fill="#000000" font-family="Helvetica" font-size="10" x="912.041" y="860.626">importiere Schl&#252;ssel (sig/enc) des Fachdienstes</text><line style="stroke:#181818;stroke-width:1;" x1="880.5137" x2="922.5137" y1="940.9063" y2="940.9063"/><line style="stroke:#181818;stroke-width:1;" x1="922.5137" x2="922.5137" y1="940.9063" y2="953.9063"/><line style="stroke:#181818;stroke-width:1;" x1="881.5137" x2="922.5137" y1="953.9063" y2="953.9063"/><polygon fill="#181818" points="891.5137,949.9063,881.5137,953.9063,891.5137,957.9063,887.5137,953.9063" style="stroke:#181818;stroke-width:1;stroke-linejoin:miter;stroke-miterlimit:10;"/><text fill="#000000" font-family="Helvetica" font-size="10" x="887.5137" y="924.9072">(18)</text><text fill="#000000" font-family="Helvetica" font-size="10" x="912.041" y="913.2666">Validiere PAR: oidc_redirect_uri gegen redirect_uris</text><text fill="#000000" font-family="Helvetica" font-size="10" x="912.041" y="924.9072">im AS-Entity-Statement, scope, claims,</text><text fill="#000000" font-family="Helvetica" font-size="10" x="912.041" y="936.5479">TLS-Clientzertifikat; erzeuge request_uri</text><polygon fill="#181818" points="451.585,975.5469,441.585,979.5469,451.585,983.5469,447.585,979.5469" style="stroke:#181818;stroke-width:1;stroke-linejoin:miter;stroke-miterlimit:10;"/><line style="stroke:#181818;stroke-width:1;stroke-dasharray:2,2;" x1="445.585" x2="869.5137" y1="979.5469" y2="979.5469"/><text fill="#000000" font-family="Helvetica" font-size="10" x="457.585" y="975.1885">(19)</text><text fill="#000000" font-family="Helvetica" font-size="10" x="482.1123" y="975.1885">201 Created {request_uri, expires_in (max. 90s)}</text><polygon fill="#181818" points="75.5771,1024.4688,65.5771,1028.4688,75.5771,1032.4688,71.5771,1028.4688" style="stroke:#181818;stroke-width:1;stroke-linejoin:miter;stroke-miterlimit:10;"/><line style="stroke:#181818;stroke-width:1;stroke-dasharray:2,2;" x1="69.5771" x2="429.585" y1="1028.4688" y2="1028.4688"/><text fill="#000000" font-family="Helvetica" font-size="10" x="81.5771" y="1012.4697">(20)</text><text fill="#000000" font-family="Helvetica" font-size="10" x="106.1045" y="1000.8291">302 Found Location:</text><text fill="#000000" font-family="Helvetica" font-size="10" x="106.1045" y="1012.4697">&lt;SekIDP Entity Statement authorization_endpoint&gt;</text><text fill="#000000" font-family="Helvetica" font-size="10" x="106.1045" y="1024.1104">?client_id&amp;request_uri</text><path d="M23.2729,1041.4688 L23.2729,1062.4688 L911.2729,1062.4688 L911.2729,1051.4688 L901.2729,1041.4688 L23.2729,1041.4688" fill="#FEFFDD" style="stroke:#181818;stroke-width:0.5;"/><path d="M901.2729,1041.4688 L901.2729,1051.4688 L911.2729,1051.4688 L901.2729,1041.4688" fill="#FEFFDD" style="stroke:#181818;stroke-width:0.5;"/><text fill="#000000" font-family="Helvetica" font-size="10" x="291.2632" y="1055.751">Weiter mit Teildiagramm (B) Abb-ZETA-OIDC-Nutzerauthentisierung.</text><?plantuml-src ZLTRR-9657xthpYbqXOKxAIfjb9fo8foYQ9k6XJeLggGhC4-m1HxxCwCSwlsR_Lft_B7UcPymGQopHkUoxb-ttU6RxW8eYn4yBpJD8iZDs9FIQOz_QWTn_aEviYZaBErP74CxK6d1uDCRnB9dvdcYO0x_3j3fI541N-EvmCOHXo5XfXhc6PgW-4h5zhJmLsdS03tj35OBbrZmRsz7WrTSudiy1L_vYWpiNRZPCaZb6xkG3dECdc4rerTXK6Qjc0q_dGz7Fl3su-tTmv0ogJc0KyPXLD4nHIqQb6suEBY6JMxl7HGX4062wi3iUIeKSBy6iwzCnZHQKN7ftUtdwv7uxlAXprjBLvbJ8OjMmF_wlV1tQWwqup493QpWKn7quLe5cU6yXxbGhHD3QXKqHCNQvZIzQTEBLY0CjncsFDhT_BoRuZIMcl1j-F1v7mosQl5zMXg_SzmgnF9gAPcYPnIHzon2DDCR7MdjNThScClJR0qln0tJ56DMhiWyggUd3WYqGW9fL8KkfkdtOCHBTLXic6QcX_3X0MRehC49G4h-evuG12e0CF5DlA0XwdFbGAK6nPf55xf5TpBmcWFnl8PipN2zDVX6Df14g9FiH2MKFeiJJlTXR2B0Tc8KApHh48VPkVlVpn-N6ccxQcwEvlJoKaFfhUpEPnIjQ2TIdvlZcxnoV_hWH8Fx76VAONIbAsp403_I5Hf8XJw-Yd5ld5PdUHX5oI6N6AW_KpoVlt3XD0r5X8U1dxZsC4AMJn8qjxTMuwH81ZsJV9TK46IKYnLljsouf-T7BbbtZs0JopY8HK9uHse54sxw7VHBvTGos93eYurA--7pBVAH4gBjSwTdtqFGudaF3H5QXmdEuyfPQTyBg3zNdK-x_UY1rTZQWGhE8KVgfBsFSzxLxFNtm_b8BklOaWTWv1w1K6g1Y3L1P6801qdIJMCIU3q4ypCNfn3NrbwPcA9MoQ4jl9HXKPR1cusIUy1eyZTYkH1d5BB10_TLSLDUyqOSik4NBTtwAwj-5fGZBhJz3EvATtiJFehrC769wwd2HVwWygM_Oi26vVsEYd4rzsLsLLkkx2J4yZLP2-IeXaxfCrbHbemt30k29fncX2fpFgCJ3ATIKMwyVA5o1OjH4QwT3jrRqWqGuf1s9dZTfi3YRxdoHR5JldAE8skEJKfix5qxSuH_W6tKr0I_lD5OxkqQJSEDPq6gh7PWTNB5sbrZpJPLCWimv1W19CeUV38tumZF70PKix72pkOGTkeQ6X7LGVMI4OtKlziVHTsK_doPQLXYMI5Qj65P7cOYHalN20K4CI66W7B590FXJ6vTFDGt5qeL0NF3WHJjngh2kZcIackeHtFFr8rgL4ht-01Grz7oY_bakxbIbbJnICATrH7ztdvLj4B8iPZOYWBf7_F8jA7WgsL7f8AlaxSNVNfeybWIyMcIFq_VtVgIDTxR_2vH-V2wPl9N5MwGMUoyYgPt-3TXluAVId19APu0cB5ce2JnqRTglEwuhDrS8eYw1pupfbwt2DXhNU4hMjS4ztgIyhuFORfVNmi126tUAmycw6-ubj6F3iovPm33Nvjm3M7MymUFVZfp8ouWo5fhFnmTWwJnEZRnoImLUijn4L1yeDMiRhULKs_N8ZTVApFHkV8yyqMzG_avaridlRDlmM_TFPUxxzbfZAiUCEh_0NlEVy1?></g></svg>