<svg xmlns="http://www.w3.org/2000/svg" xmlns:xlink="http://www.w3.org/1999/xlink" contentStyleType="text/css" data-diagram-type="SEQUENCE" height="1465px" preserveAspectRatio="none" style="width:1372px;height:1465px;background:#FFFFFF;" version="1.1" viewBox="0 0 1372 1465" width="1372px" zoomAndPan="magnify"><?plantuml 1.2026.6?><defs/><g><rect fill="#FEFCFF" height="1439.3125" style="stroke:#181818;stroke-width:0.5;" width="80.2471" x="198.7378" y="11"/><text fill="#000000" font-family="Helvetica" font-size="10" font-weight="700" x="219.9917" y="20.2822">Device</text><rect fill="#E6E6FA" height="1422.6719" style="stroke:#181818;stroke-width:0.5;" width="80.2471" x="198.7378" y="27.6406"/><text fill="#000000" font-family="Helvetica" font-size="10" font-weight="700" x="227.8335" y="36.9229">App</text><rect fill="#EDFDEC" height="1439.3125" style="stroke:#181818;stroke-width:0.5;" width="147.7842" x="734.9224" y="11"/><text fill="#000000" font-family="Helvetica" font-size="10" font-weight="700" x="746.9224" y="20.2822">Anbieter TI 2.0 Dienst</text><rect fill="#FFF3E5" height="1422.6719" style="stroke:#181818;stroke-width:0.5;" width="147.7842" x="734.9224" y="27.6406"/><text fill="#000000" font-family="Helvetica" font-size="10" font-weight="700" x="775.6699" y="36.9229">ZETA Guard</text><g><title>Nutzer</title><rect fill="#000000" fill-opacity="0.00000" height="1257.75" width="8" x="26.126" y="114.9219"/><line style="stroke:#000000;stroke-width:0.5;stroke-dasharray:5,5;" x1="29.626" x2="29.626" y1="114.9219" y2="1372.6719"/></g><g><title>ZETA Client</title><rect fill="#000000" fill-opacity="0.00000" height="1257.75" width="8" x="235.3613" y="114.9219"/><line style="stroke:#000000;stroke-width:0.5;stroke-dasharray:5,5;" x1="238.8613" x2="238.8613" y1="114.9219" y2="1372.6719"/></g><g><title/><rect fill="#FFFFFF" height="1249.75" style="stroke:#181818;stroke-width:1;" width="10" x="233.8613" y="122.9219"/></g><g><title>PDP</title><rect fill="#000000" fill-opacity="0.00000" height="1257.75" width="8" x="805.3145" y="114.9219"/><line style="stroke:#000000;stroke-width:0.5;stroke-dasharray:5,5;" x1="808.8145" x2="808.8145" y1="114.9219" y2="1372.6719"/></g><g><title/><rect fill="#FFFFFF" height="850.1406" style="stroke:#181818;stroke-width:1;" width="10" x="803.8145" y="207.4844"/></g><g><title/><rect fill="#FFFFFF" height="234.125" style="stroke:#181818;stroke-width:1;" width="10" x="803.8145" y="1120.5469"/></g><text fill="#000000" font-family="Helvetica" font-size="10" x="10" y="112.5635">Nutzer</text><ellipse cx="29.626" cy="51.7813" fill="#E2E2F0" rx="8" ry="8" style="stroke:#181818;stroke-width:0.5;"/><path d="M29.626,59.7813 L29.626,86.7813 M16.626,67.7813 L42.626,67.7813 M29.626,86.7813 L16.626,101.7813 M29.626,86.7813 L42.626,101.7813" fill="none" style="stroke:#181818;stroke-width:0.5;"/><rect fill="#FFE6CC" height="25.6406" rx="2.5" ry="2.5" style="stroke:#D79B00;stroke-width:0.5;" width="72.2471" x="202.7378" y="88.2813"/><text fill="#000000" font-family="Helvetica" font-size="10" x="209.7378" y="104.5635">ZETA Client</text><rect fill="#FFE6CC" height="37.2813" rx="2.5" ry="2.5" style="stroke:#D79B00;stroke-width:0.5;" width="116.9492" x="750.3398" y="76.6406"/><text fill="#000000" font-family="Helvetica" font-size="10" x="798.9341" y="92.9229">PDP</text><text fill="#000000" font-family="Helvetica" font-size="10" x="757.3398" y="104.5635">Authorization Server</text><text fill="#000000" font-family="Helvetica" font-size="10" x="10" y="1441.9541">Nutzer</text><ellipse cx="29.626" cy="1381.1719" fill="#E2E2F0" rx="8" ry="8" style="stroke:#181818;stroke-width:0.5;"/><path d="M29.626,1389.1719 L29.626,1416.1719 M16.626,1397.1719 L42.626,1397.1719 M29.626,1416.1719 L16.626,1431.1719 M29.626,1416.1719 L42.626,1431.1719" fill="none" style="stroke:#181818;stroke-width:0.5;"/><rect fill="#FFE6CC" height="25.6406" rx="2.5" ry="2.5" style="stroke:#D79B00;stroke-width:0.5;" width="72.2471" x="202.7378" y="1372.6719"/><text fill="#000000" font-family="Helvetica" font-size="10" x="209.7378" y="1388.9541">ZETA Client</text><rect fill="#FFE6CC" height="37.2813" rx="2.5" ry="2.5" style="stroke:#D79B00;stroke-width:0.5;" width="116.9492" x="750.3398" y="1372.6719"/><text fill="#000000" font-family="Helvetica" font-size="10" x="798.9341" y="1388.9541">PDP</text><text fill="#000000" font-family="Helvetica" font-size="10" x="757.3398" y="1400.5947">Authorization Server</text><path d="M13.626,126.9219 L73.582,126.9219 L73.582,130.5625 L63.582,140.5625 L13.626,140.5625 L13.626,126.9219" fill="#EEEEEE" style="stroke:#000000;stroke-width:1.5;"/><rect fill="none" height="1196.1094" style="stroke:#000000;stroke-width:1.5;" width="1339.1904" x="13.626" y="126.9219"/><text fill="#000000" font-family="Helvetica" font-size="10" font-weight="700" x="28.626" y="137.2041">alt</text><text fill="#000000" font-family="Helvetica" font-size="10" font-weight="700" x="88.582" y="138.2041">[Kein ZETA Attestation Token]</text><line style="stroke:#000000;stroke-width:1;stroke-dasharray:2,2;" x1="13.626" x2="1352.8164" y1="1178.1875" y2="1178.1875"/><text fill="#000000" font-family="Helvetica" font-size="10" font-weight="700" x="18.626" y="1189.4697">[ZETA Attestation Token vorhanden (Fast-Path)]</text><path d="M222.8613,154.5625 L282.8174,154.5625 L282.8174,158.2031 L272.8174,168.2031 L222.8613,168.2031 L222.8613,154.5625" fill="#EEEEEE" style="stroke:#000000;stroke-width:1.5;"/><rect fill="none" height="678.6563" style="stroke:#000000;stroke-width:1.5;" width="1104.9551" x="222.8613" y="154.5625"/><text fill="#000000" font-family="Helvetica" font-size="10" font-weight="700" x="237.8613" y="164.8447">alt</text><text fill="#000000" font-family="Helvetica" font-size="10" font-weight="700" x="297.8174" y="165.8447">[Hardware Attestation: iOS, iPadOS, macOS (Apple App Attest)]</text><line style="stroke:#000000;stroke-width:1;stroke-dasharray:2,2;" x1="222.8613" x2="1327.8164" y1="308.4063" y2="308.4063"/><text fill="#000000" font-family="Helvetica" font-size="10" font-weight="700" x="227.8613" y="319.6885">[Hardware Attestation: Android (Keystore, TEE, StrongBox)]</text><line style="stroke:#000000;stroke-width:1;stroke-dasharray:2,2;" x1="222.8613" x2="1327.8164" y1="754.0156" y2="754.0156"/><text fill="#000000" font-family="Helvetica" font-size="10" font-weight="700" x="227.8613" y="765.2979">[Software Attestation (Legacy OIDC DCR)]</text><polygon fill="#181818" points="791.8145,203.4844,801.8145,207.4844,791.8145,211.4844,795.8145,207.4844" style="stroke:#181818;stroke-width:1;stroke-linejoin:miter;stroke-miterlimit:10;"/><line style="stroke:#181818;stroke-width:1;" x1="243.8613" x2="797.8145" y1="207.4844" y2="207.4844"/><text fill="#000000" font-family="Helvetica" font-size="10" x="250.8613" y="197.3057">(01)</text><text fill="#000000" font-family="Helvetica" font-size="10" x="275.3887" y="191.4854">POST /register</text><text fill="#000000" font-family="Helvetica" font-size="10" x="275.3887" y="203.126">{attestation_type="apple", Apple_Attestation_Object, PuK.Client.Sig, redirect_uris}</text><line style="stroke:#181818;stroke-width:1;" x1="813.8145" x2="855.8145" y1="233.125" y2="233.125"/><line style="stroke:#181818;stroke-width:1;" x1="855.8145" x2="855.8145" y1="233.125" y2="246.125"/><line style="stroke:#181818;stroke-width:1;" x1="814.8145" x2="855.8145" y1="246.125" y2="246.125"/><polygon fill="#181818" points="824.8145,242.125,814.8145,246.125,824.8145,250.125,820.8145,246.125" style="stroke:#181818;stroke-width:1;stroke-linejoin:miter;stroke-miterlimit:10;"/><text fill="#000000" font-family="Helvetica" font-size="10" x="820.8145" y="228.7666">(02)</text><text fill="#000000" font-family="Helvetica" font-size="10" x="845.3418" y="228.7666">Validiere Apple_Attestation_Object</text><path d="M818.8145,259.125 L818.8145,292.125 L1236.8145,292.125 L1236.8145,269.125 L1226.8145,259.125 L818.8145,259.125" fill="#FEFFDD" style="stroke:#181818;stroke-width:0.5;"/><path d="M1226.8145,259.125 L1226.8145,269.125 L1236.8145,269.125 L1226.8145,259.125" fill="#FEFFDD" style="stroke:#181818;stroke-width:0.5;"/><text fill="#000000" font-family="Helvetica" font-size="10" x="824.8145" y="273.4072">AuthS verifiziert Apple App Attest Root CA.</text><text fill="#000000" font-family="Helvetica" font-size="10" x="824.8145" y="285.0479">Extrahiert Hash(PuK.Client.Sig) aus Objekt und vergleicht ihn mit dem Payload.</text><polygon fill="#181818" points="791.8145,363.9688,801.8145,367.9688,791.8145,371.9688,795.8145,367.9688" style="stroke:#181818;stroke-width:1;stroke-linejoin:miter;stroke-miterlimit:10;"/><line style="stroke:#181818;stroke-width:1;" x1="243.8613" x2="797.8145" y1="367.9688" y2="367.9688"/><text fill="#000000" font-family="Helvetica" font-size="10" x="250.8613" y="351.9697">(03)</text><text fill="#000000" font-family="Helvetica" font-size="10" x="275.3887" y="340.3291">POST /register</text><text fill="#000000" font-family="Helvetica" font-size="10" x="275.3887" y="351.9697">{attestation_type="android", PuK.AK.Sig, Android_Key_Attestation_Certificate_Chain,</text><text fill="#000000" font-family="Helvetica" font-size="10" x="275.3887" y="363.6104">PuK.Client.Sig, signed_hash_puk_client_sig, play_integrity_token, redirect_uris}</text><line style="stroke:#181818;stroke-width:1;" x1="813.8145" x2="855.8145" y1="393.6094" y2="393.6094"/><line style="stroke:#181818;stroke-width:1;" x1="855.8145" x2="855.8145" y1="393.6094" y2="406.6094"/><line style="stroke:#181818;stroke-width:1;" x1="814.8145" x2="855.8145" y1="406.6094" y2="406.6094"/><polygon fill="#181818" points="824.8145,402.6094,814.8145,406.6094,824.8145,410.6094,820.8145,406.6094" style="stroke:#181818;stroke-width:1;stroke-linejoin:miter;stroke-miterlimit:10;"/><text fill="#000000" font-family="Helvetica" font-size="10" x="820.8145" y="389.251">(04)</text><text fill="#000000" font-family="Helvetica" font-size="10" x="845.3418" y="389.251">Validiere Zertifikatskette gegen Google Root CA</text><line style="stroke:#181818;stroke-width:1;" x1="813.8145" x2="855.8145" y1="432.25" y2="432.25"/><line style="stroke:#181818;stroke-width:1;" x1="855.8145" x2="855.8145" y1="432.25" y2="445.25"/><line style="stroke:#181818;stroke-width:1;" x1="814.8145" x2="855.8145" y1="445.25" y2="445.25"/><polygon fill="#181818" points="824.8145,441.25,814.8145,445.25,824.8145,449.25,820.8145,445.25" style="stroke:#181818;stroke-width:1;stroke-linejoin:miter;stroke-miterlimit:10;"/><text fill="#000000" font-family="Helvetica" font-size="10" x="820.8145" y="427.8916">(05)</text><text fill="#000000" font-family="Helvetica" font-size="10" x="845.3418" y="427.8916">Extrahiere attestationChallenge aus KeyDescription ASN.1-Extension des Blatt-Zertifikats</text><line style="stroke:#181818;stroke-width:1;" x1="813.8145" x2="855.8145" y1="470.8906" y2="470.8906"/><line style="stroke:#181818;stroke-width:1;" x1="855.8145" x2="855.8145" y1="470.8906" y2="483.8906"/><line style="stroke:#181818;stroke-width:1;" x1="814.8145" x2="855.8145" y1="483.8906" y2="483.8906"/><polygon fill="#181818" points="824.8145,479.8906,814.8145,483.8906,824.8145,487.8906,820.8145,483.8906" style="stroke:#181818;stroke-width:1;stroke-linejoin:miter;stroke-miterlimit:10;"/><text fill="#000000" font-family="Helvetica" font-size="10" x="820.8145" y="466.5322">(06)</text><text fill="#000000" font-family="Helvetica" font-size="10" x="845.3418" y="466.5322">Pr&#252;fe attestationChallenge == SHA-256(PuK.Client.Sig)</text><line style="stroke:#181818;stroke-width:1;" x1="813.8145" x2="855.8145" y1="509.5313" y2="509.5313"/><line style="stroke:#181818;stroke-width:1;" x1="855.8145" x2="855.8145" y1="509.5313" y2="522.5313"/><line style="stroke:#181818;stroke-width:1;" x1="814.8145" x2="855.8145" y1="522.5313" y2="522.5313"/><polygon fill="#181818" points="824.8145,518.5313,814.8145,522.5313,824.8145,526.5313,820.8145,522.5313" style="stroke:#181818;stroke-width:1;stroke-linejoin:miter;stroke-miterlimit:10;"/><text fill="#000000" font-family="Helvetica" font-size="10" x="820.8145" y="505.1729">(07)</text><text fill="#000000" font-family="Helvetica" font-size="10" x="845.3418" y="505.1729">Pr&#252;fe signed_hash_puk_client_sig mit PuK.Client.Sig</text><path d="M792.8145,534.5313 L856.623,534.5313 L856.623,538.1719 L846.623,548.1719 L792.8145,548.1719 L792.8145,534.5313" fill="#EEEEEE" style="stroke:#000000;stroke-width:1.5;"/><rect fill="none" height="139.5625" style="stroke:#000000;stroke-width:1.5;" width="405.3906" x="792.8145" y="534.5313"/><text fill="#000000" font-family="Helvetica" font-size="10" font-weight="700" x="807.8145" y="544.8135">opt</text><text fill="#000000" font-family="Helvetica" font-size="10" font-weight="700" x="871.623" y="545.8135">[Play Integrity Pr&#252;fung]</text><line style="stroke:#181818;stroke-width:1;" x1="813.8145" x2="855.8145" y1="575.8125" y2="575.8125"/><line style="stroke:#181818;stroke-width:1;" x1="855.8145" x2="855.8145" y1="575.8125" y2="588.8125"/><line style="stroke:#181818;stroke-width:1;" x1="814.8145" x2="855.8145" y1="588.8125" y2="588.8125"/><polygon fill="#181818" points="824.8145,584.8125,814.8145,588.8125,824.8145,592.8125,820.8145,588.8125" style="stroke:#181818;stroke-width:1;stroke-linejoin:miter;stroke-miterlimit:10;"/><text fill="#000000" font-family="Helvetica" font-size="10" x="820.8145" y="571.4541">(08)</text><text fill="#000000" font-family="Helvetica" font-size="10" x="845.3418" y="571.4541">Entschl&#252;ssele play_integrity_token (lokal/remote)</text><line style="stroke:#181818;stroke-width:1;" x1="813.8145" x2="855.8145" y1="614.4531" y2="614.4531"/><line style="stroke:#181818;stroke-width:1;" x1="855.8145" x2="855.8145" y1="614.4531" y2="627.4531"/><line style="stroke:#181818;stroke-width:1;" x1="814.8145" x2="855.8145" y1="627.4531" y2="627.4531"/><polygon fill="#181818" points="824.8145,623.4531,814.8145,627.4531,824.8145,631.4531,820.8145,627.4531" style="stroke:#181818;stroke-width:1;stroke-linejoin:miter;stroke-miterlimit:10;"/><text fill="#000000" font-family="Helvetica" font-size="10" x="820.8145" y="610.0947">(09)</text><text fill="#000000" font-family="Helvetica" font-size="10" x="845.3418" y="610.0947">Verifiziere Nonce (Muss SHA-256(PuK.Client.Sig) entsprechen)</text><line style="stroke:#181818;stroke-width:1;" x1="813.8145" x2="855.8145" y1="653.0938" y2="653.0938"/><line style="stroke:#181818;stroke-width:1;" x1="855.8145" x2="855.8145" y1="653.0938" y2="666.0938"/><line style="stroke:#181818;stroke-width:1;" x1="814.8145" x2="855.8145" y1="666.0938" y2="666.0938"/><polygon fill="#181818" points="824.8145,662.0938,814.8145,666.0938,824.8145,670.0938,820.8145,666.0938" style="stroke:#181818;stroke-width:1;stroke-linejoin:miter;stroke-miterlimit:10;"/><text fill="#000000" font-family="Helvetica" font-size="10" x="820.8145" y="648.7354">(10)</text><text fill="#000000" font-family="Helvetica" font-size="10" x="845.3418" y="648.7354">Werte Verdicts aus (appIntegrity, deviceIntegrity, accountDetails)</text><path d="M818.8145,693.0938 L818.8145,737.0938 L1306.8145,737.0938 L1306.8145,703.0938 L1296.8145,693.0938 L818.8145,693.0938" fill="#FEFFDD" style="stroke:#181818;stroke-width:0.5;"/><path d="M1296.8145,693.0938 L1296.8145,703.0938 L1306.8145,703.0938 L1296.8145,693.0938" fill="#FEFFDD" style="stroke:#181818;stroke-width:0.5;"/><text fill="#000000" font-family="Helvetica" font-size="10" x="824.8145" y="707.376">PuK.AK.Sig muss mit dem Blatt-Zertifikat der Certificate Chain &#252;bereinstimmen.</text><text fill="#000000" font-family="Helvetica" font-size="10" x="824.8145" y="719.0166">Sicherheitsniveau: TrustedEnvironment oder StrongBox.</text><text fill="#000000" font-family="Helvetica" font-size="10" x="824.8145" y="730.6572">attestationChallenge im Blatt-Zertifikat beweist die TEE-interne Bindung AK &#8596; PuK.Client.Sig.</text><polygon fill="#181818" points="791.8145,821.2188,801.8145,825.2188,791.8145,829.2188,795.8145,825.2188" style="stroke:#181818;stroke-width:1;stroke-linejoin:miter;stroke-miterlimit:10;"/><line style="stroke:#181818;stroke-width:1;" x1="243.8613" x2="797.8145" y1="825.2188" y2="825.2188"/><text fill="#000000" font-family="Helvetica" font-size="10" x="250.8613" y="803.3994">(11)</text><text fill="#000000" font-family="Helvetica" font-size="10" x="275.3887" y="785.9385">POST /register</text><text fill="#000000" font-family="Helvetica" font-size="10" x="275.3887" y="797.5791">{client_name, "grant_types": ["urn:ietf:params:oauth:grant-type:token-exchange", "refresh_token",</text><text fill="#000000" font-family="Helvetica" font-size="10" x="275.3887" y="809.2197">"urn:ietf:params:oauth:grant-type:jwt-bearer"], jwks, token_endpoint_auth_method="private_key_jwt",</text><text fill="#000000" font-family="Helvetica" font-size="10" x="281.7461" y="820.8604">"redirect_uris": ["https:</text><text fill="#000000" font-family="Helvetica" font-size="10" font-style="italic" x="397.6104" y="820.8604">&lt;App-FQDN&gt;/cb/&lt;app&gt;/oidc", "https:</text><text fill="#000000" font-family="Helvetica" font-size="10" x="589.2559" y="820.8604">&lt;App-FQDN&gt;/cb/&lt;app&gt;/app"]}</text><path d="M248.8613,852.2188 L248.8613,931.2188 L1069.8613,931.2188 L1069.8613,862.2188 L1059.8613,852.2188 L248.8613,852.2188" fill="#FEFFDD" style="stroke:#181818;stroke-width:0.5;"/><path d="M1059.8613,852.2188 L1059.8613,862.2188 L1069.8613,862.2188 L1059.8613,852.2188" fill="#FEFFDD" style="stroke:#181818;stroke-width:0.5;"/><text fill="#000000" font-family="Helvetica" font-size="10" x="254.8613" y="866.501">Es werden zwei redirect_uris je App registriert (RFC 8252, claimed-HTTPS Universal-/App-Links auf einer vom App-Hersteller kontrollierten Domain):</text><text fill="#000000" font-family="Helvetica" font-size="10" x="254.8613" y="878.1416">- https://&lt;App-FQDN&gt;/cb/&lt;app&gt;/oidc = oidc_redirect_uri (SekIDP Auth Code Flow, redirection_endpoint des AuthS, nicht /token)</text><text fill="#000000" font-family="Helvetica" font-size="10" x="254.8613" y="889.7822">- https://&lt;App-FQDN&gt;/cb/&lt;app&gt;/app = app_redirect_uri (ZETA Guard Auth Code Flow, /token-Endpunkt des AuthS)</text><text fill="#000000" font-family="Helvetica" font-size="10" x="254.8613" y="901.4229">Beide Callbacks enden &#252;ber denselben App-Link/Universal-Link in der App; der ZETA Client unterscheidet den zu nutzenden AuthS-Endpunkt anhand des Pfads.</text><text fill="#000000" font-family="Helvetica" font-size="10" x="254.8613" y="913.0635">Die OS-seitige Verkn&#252;pfung erfolgt &#252;ber apple-app-site-association bzw. assetlinks.json (Deployment, kein Laufzeit-Flow). Die App ist inkl. redirect_uris</text><text fill="#000000" font-family="Helvetica" font-size="10" x="254.8613" y="924.7041">bei der gematik registriert; der AuthS pr&#252;ft beim DCR, ob die &#252;bergebenen redirect_uris registriert sind.</text><line style="stroke:#181818;stroke-width:1;" x1="813.8145" x2="855.8145" y1="954.7031" y2="954.7031"/><line style="stroke:#181818;stroke-width:1;" x1="855.8145" x2="855.8145" y1="954.7031" y2="967.7031"/><line style="stroke:#181818;stroke-width:1;" x1="814.8145" x2="855.8145" y1="967.7031" y2="967.7031"/><polygon fill="#181818" points="824.8145,963.7031,814.8145,967.7031,824.8145,971.7031,820.8145,967.7031" style="stroke:#181818;stroke-width:1;stroke-linejoin:miter;stroke-miterlimit:10;"/><text fill="#000000" font-family="Helvetica" font-size="10" x="820.8145" y="950.3447">(12)</text><text fill="#000000" font-family="Helvetica" font-size="10" x="845.3418" y="950.3447">Store Client Placeholder (state: pending_user_binding)</text><line style="stroke:#181818;stroke-width:1;" x1="813.8145" x2="855.8145" y1="993.3438" y2="993.3438"/><line style="stroke:#181818;stroke-width:1;" x1="855.8145" x2="855.8145" y1="993.3438" y2="1006.3438"/><line style="stroke:#181818;stroke-width:1;" x1="814.8145" x2="855.8145" y1="1006.3438" y2="1006.3438"/><polygon fill="#181818" points="824.8145,1002.3438,814.8145,1006.3438,824.8145,1010.3438,820.8145,1006.3438" style="stroke:#181818;stroke-width:1;stroke-linejoin:miter;stroke-miterlimit:10;"/><text fill="#000000" font-family="Helvetica" font-size="10" x="820.8145" y="988.9854">(13)</text><text fill="#000000" font-family="Helvetica" font-size="10" x="845.3418" y="988.9854">Generiere OTP &amp; transaction_id, Speichere Request im tempor&#228;ren Cache</text><polygon fill="#181818" points="40.626,1027.9844,30.626,1031.9844,40.626,1035.9844,36.626,1031.9844" style="stroke:#181818;stroke-width:1;stroke-linejoin:miter;stroke-miterlimit:10;"/><line style="stroke:#181818;stroke-width:1;" x1="34.626" x2="802.8145" y1="1031.9844" y2="1031.9844"/><text fill="#000000" font-family="Helvetica" font-size="10" x="46.626" y="1027.626">(14)</text><text fill="#000000" font-family="Helvetica" font-size="10" x="71.1533" y="1027.626">E-Mail mit OTP-Best&#228;tigungscode (Out-of-Band)</text><polygon fill="#181818" points="254.8613,1053.625,244.8613,1057.625,254.8613,1061.625,250.8613,1057.625" style="stroke:#181818;stroke-width:1;stroke-linejoin:miter;stroke-miterlimit:10;"/><line style="stroke:#181818;stroke-width:1;stroke-dasharray:2,2;" x1="248.8613" x2="802.8145" y1="1057.625" y2="1057.625"/><text fill="#000000" font-family="Helvetica" font-size="10" x="260.8613" y="1053.2666">(15)</text><text fill="#000000" font-family="Helvetica" font-size="10" x="285.3887" y="1053.2666">202 Accepted {transaction_id, message="OTP sent"}</text><polygon fill="#181818" points="221.8613,1079.2656,231.8613,1083.2656,221.8613,1087.2656,225.8613,1083.2656" style="stroke:#181818;stroke-width:1;stroke-linejoin:miter;stroke-miterlimit:10;"/><line style="stroke:#181818;stroke-width:1;" x1="29.626" x2="227.8613" y1="1083.2656" y2="1083.2656"/><text fill="#000000" font-family="Helvetica" font-size="10" x="36.626" y="1078.9072">(16)</text><text fill="#000000" font-family="Helvetica" font-size="10" x="61.1533" y="1078.9072">Gibt OTP-Best&#228;tigungscode ein</text><polygon fill="#181818" points="791.8145,1116.5469,801.8145,1120.5469,791.8145,1124.5469,795.8145,1120.5469" style="stroke:#181818;stroke-width:1;stroke-linejoin:miter;stroke-miterlimit:10;"/><line style="stroke:#181818;stroke-width:1;" x1="243.8613" x2="797.8145" y1="1120.5469" y2="1120.5469"/><text fill="#000000" font-family="Helvetica" font-size="10" x="250.8613" y="1110.3682">(17)</text><text fill="#000000" font-family="Helvetica" font-size="10" x="275.3887" y="1104.5479">POST /register/verify</text><text fill="#000000" font-family="Helvetica" font-size="10" x="275.3887" y="1116.1885">{transaction_id, code}</text><line style="stroke:#181818;stroke-width:1;" x1="813.8145" x2="855.8145" y1="1146.1875" y2="1146.1875"/><line style="stroke:#181818;stroke-width:1;" x1="855.8145" x2="855.8145" y1="1146.1875" y2="1159.1875"/><line style="stroke:#181818;stroke-width:1;" x1="814.8145" x2="855.8145" y1="1159.1875" y2="1159.1875"/><polygon fill="#181818" points="824.8145,1155.1875,814.8145,1159.1875,824.8145,1163.1875,820.8145,1159.1875" style="stroke:#181818;stroke-width:1;stroke-linejoin:miter;stroke-miterlimit:10;"/><text fill="#000000" font-family="Helvetica" font-size="10" x="820.8145" y="1141.8291">(18)</text><text fill="#000000" font-family="Helvetica" font-size="10" x="845.3418" y="1141.8291">Verifiziere OTP-Code gegen Cache</text><polygon fill="#181818" points="791.8145,1233.75,801.8145,1237.75,791.8145,1241.75,795.8145,1237.75" style="stroke:#181818;stroke-width:1;stroke-linejoin:miter;stroke-miterlimit:10;"/><line style="stroke:#181818;stroke-width:1;" x1="243.8613" x2="797.8145" y1="1237.75" y2="1237.75"/><text fill="#000000" font-family="Helvetica" font-size="10" x="250.8613" y="1221.751">(19)</text><text fill="#000000" font-family="Helvetica" font-size="10" x="275.3887" y="1210.1104">POST /register</text><text fill="#000000" font-family="Helvetica" font-size="10" x="275.3887" y="1221.751">{attestation_type="zeta_attestation_token", zeta_guard_attestation_token,</text><text fill="#000000" font-family="Helvetica" font-size="10" x="275.3887" y="1233.3916">PuK.Client.Sig, Besitznachweis (Signatur/Assertion)}</text><line style="stroke:#181818;stroke-width:1;" x1="813.8145" x2="855.8145" y1="1263.3906" y2="1263.3906"/><line style="stroke:#181818;stroke-width:1;" x1="855.8145" x2="855.8145" y1="1263.3906" y2="1276.3906"/><line style="stroke:#181818;stroke-width:1;" x1="814.8145" x2="855.8145" y1="1276.3906" y2="1276.3906"/><polygon fill="#181818" points="824.8145,1272.3906,814.8145,1276.3906,824.8145,1280.3906,820.8145,1276.3906" style="stroke:#181818;stroke-width:1;stroke-linejoin:miter;stroke-miterlimit:10;"/><text fill="#000000" font-family="Helvetica" font-size="10" x="820.8145" y="1259.0322">(20)</text><text fill="#000000" font-family="Helvetica" font-size="10" x="845.3418" y="1259.0322">Pr&#252;fe Token-Signatur &amp; Vertrauensstellung</text><line style="stroke:#181818;stroke-width:1;" x1="813.8145" x2="855.8145" y1="1302.0313" y2="1302.0313"/><line style="stroke:#181818;stroke-width:1;" x1="855.8145" x2="855.8145" y1="1302.0313" y2="1315.0313"/><line style="stroke:#181818;stroke-width:1;" x1="814.8145" x2="855.8145" y1="1315.0313" y2="1315.0313"/><polygon fill="#181818" points="824.8145,1311.0313,814.8145,1315.0313,824.8145,1319.0313,820.8145,1315.0313" style="stroke:#181818;stroke-width:1;stroke-linejoin:miter;stroke-miterlimit:10;"/><text fill="#000000" font-family="Helvetica" font-size="10" x="820.8145" y="1297.6729">(21)</text><text fill="#000000" font-family="Helvetica" font-size="10" x="845.3418" y="1297.6729">Extrahiere PuK.AK.Sig aus Token, verifiziere Besitznachweis</text><polygon fill="#181818" points="254.8613,1350.6719,244.8613,1354.6719,254.8613,1358.6719,250.8613,1354.6719" style="stroke:#181818;stroke-width:1;stroke-linejoin:miter;stroke-miterlimit:10;"/><line style="stroke:#181818;stroke-width:1;stroke-dasharray:2,2;" x1="248.8613" x2="802.8145" y1="1354.6719" y2="1354.6719"/><text fill="#000000" font-family="Helvetica" font-size="10" x="260.8613" y="1350.3135">(22)</text><text fill="#000000" font-family="Helvetica" font-size="10" x="285.3887" y="1350.3135">201 Created {client_id, status="pending_user_binding"}</text><?plantuml-src dLTTSY974dxd5Eb-M4CC3ROYlB71ZXI108q8pGWic76iTnmTHNVHb6YgsbNL-dFCgq-mH_0nvaqtsPFiLzM06XaqizO3gEcgpAmll_mowniXuwn8EBLQxRnOPM76xbLXM_RErceijahJUyCrCKF1PM4Vk0vgjPcwew3FRqJC0-eFFWnxWwWtUZkwgX7vTzqy3sXyDNpN7LnD_ZMP3jvjtnFbJ5iHYvn9IxrCS7mvwpyFfjtrSq2lNpzmoqvEi87Bn1cjRRvBxrqv4zmYiEcGZbhVKH_xZ7LEHn-6_S7LRZpUzfk2wIGWzt_qvdttgdyWfcvX5nCVqhW__YZTezBYWLcX94sulW46BmPO7kBLgnhBB5rm8RrFwbhBZItDJDMII-_PVxY5vuZkbcbUNTSXCPeqIOnPuhvNB1vDg0vqCopBy_NIXhVX_jPmXYVb8Lwzwj1uD9bIM_DK6C3rKVx6din7zZxdnm5pze8cURjHnNqqcbtps3PfN5oqIjkjYKYRf7aYDDv4XHRcqzPzYTp6UuS-i4maWcj-qFHsgrIManRfmfAQR_QNze2tc8i7sB7q_EXqfHHOr6rzb8Cxgzd2hpfdPb7VZRb1h33ad2uj5SWKhAOP5p4SYeMabR2Ky1MDsNscMDAgrNXc-86aT6MYbKYeVi7l3Kg4Dsaw63HfOhMIwQcwEvYHhyj7QJueSUzUb9YldKRmkGDa3oS6FZ6pFEejc93DZ_9vlen89K-Y1N29yc8PnVvTPDox71KV2MbvgeMzZwnZvb_8yCzb64jcpP8ZF4fvoYMzKGemRz9qqCusUPmgUE0uMSPbodtoSF0-Dx4MkI-XxkIozNs8ZIXyzvnmGwSPTeULK0uw7El7p_C3pewFQNBU3Oz--Fjp4dt9t66SFS5shTMsrbIETqW33JTfA0qMCjsksOkQj2PUP8-VZU40ULycgPwf9Sj0k1KghF6YkG_RGkDqgMJCgVwkCEOG610-QtAGPC7bouP_GaAuCv-8s1gVp3f4PtlQ9fBdcadb1nR7gf2s3v4LcNao3v6jlIGQbJYUYeTMxXYR4dzE4loegL95vAk87Z_F08H0Ln6h5PUjYkK9P8Fh1HVMI773MT6XgIvGpyb0tWXemChLl79sjv9GtR-NTM9FP3D-ow4JX19p2XEwv6h9wLJ81EIWxWNzz_V_FEDLgmgMnyZ_uFLiekRskPvH_IrFMNnFes6_H_tUrV-ZNck6IxQ220QfHWFrAcQ23lqxABJie4tFE-YlR6KwYi5CnwyAtQgEvsZ8x-850mPGl43pkUOe7_ycW9PzsSZrhGrd7AVImIzDkhvTcYRvxH40o1L0YzoMQCNHoPFZ8DVYngdb4agAlSu9ESSLnVFHBwpDJQVTVer-4vxzsByyQSUpzcimzwGD9OvTk2-jmKVmIwcTMzhkKhR4TmttmD0jIWGr-u2ixoemNPTThqHU-ovNlphhqJ-EVZXgKfmniU99U3wTZYVqtf5I6vQ5RHVLMo6NhkZc13Q3aZTgvMo5vrXZETYdQQaaU9fbpYxyzzKA5T3eh0CBwKj8q36vhwWQCzKdV3diZprrg8TgeBDCtJwr5jUyDWdowkqvrYJfctBRPx3nLI7W0n7Wyra0JsFVdu8epOS3-2_aik9_u_6K2opkeJfdB0P-Y9IlHG6B9GHtXkSDlkqdpDqZ2UbL1Q__wV-f3BUOFb0wq6tdm3b6lWkIRhRsBdmKJu4nYT98V7pZEKlCfhenyD9e4Xg8a4Yzk2xbu-VSzGpYUgworAwZzUDTYC_G28j_Z56nA2j_zd3RmgHhkCqSILhNnib1d-UPkdSQrgIb6r_VWZmFS1Gwx1ejxzknqKaJzcMjNRAk8vo1nExiAL_1sxBAtHAKiatahjCvgOC0GdoQf6PUxtpmAGVA06Mt6AfLO225hTgEsjNszQ29czCsAK2pZVb2PIwAkfD1tg4S-uLCemBNdMWc_4EZjFLjAUyqadGcK3JkIaJrwUZiVMElhpU8MVisEfgEwM-4sKOQLZ9U99WJS-ux2EOY_clXnbYStV9LhlJZ7nh7xJ6ytZNjRc7e-E4xz4FVoc0wFCNUnpz006JTn8xTzL5XGpKFJq6QnjC5uzlrnGLqihSAHMwzZQFl81vInGkw60ml1xHMSv5yKtKExoLkOTXnMwWRnpn7jwFVdfzinOrXAMPOTt3ZhdAVDX3-nDmGu6Iel4U60m3CPkKn_HrpwmS8YjcX4uAGrNELGykov7FPulKEbiD-xQkkHcr_pxX7Jtj-AEVsK-rB4vEBrWjCEVYMALnV8_RV_w34sXMtczBEcB7XcDb5e_PNhmtkGXhj_5osKF8lKYU3Vtwzvx80o8Lza8ZV3H-GSGorp1QwtOLGQBUriH-DzH3ipnPkTe7-G0cG5X1DtsysK-qBTu3AwEQ6nMbv9xcfeBqRPCttr_rq_PvwcZFFrYszSIC228N1BB2dwi7P_m40?></g></svg>