<svg xmlns="http://www.w3.org/2000/svg" xmlns:xlink="http://www.w3.org/1999/xlink" contentStyleType="text/css" data-diagram-type="SEQUENCE" height="759px" preserveAspectRatio="none" style="width:1220px;height:759px;background:#FFFFFF;" version="1.1" viewBox="0 0 1220 759" width="1220px" zoomAndPan="magnify"><?plantuml 1.2026.6?><defs/><g><rect fill="#FEFCFF" height="733.7813" style="stroke:#181818;stroke-width:0.5;" width="103.3066" x="187.208" y="11"/><text fill="#000000" font-family="Helvetica" font-size="10" font-weight="700" x="199.208" y="20.2822">mobile Device</text><rect fill="#E6E6FA" height="717.1406" style="stroke:#181818;stroke-width:0.5;" width="103.3066" x="187.208" y="27.6406"/><text fill="#000000" font-family="Helvetica" font-size="10" font-weight="700" x="227.8335" y="36.9229">App</text><rect fill="#EDFDEC" height="733.7813" style="stroke:#181818;stroke-width:0.5;" width="147.7842" x="676.5239" y="11"/><text fill="#000000" font-family="Helvetica" font-size="10" font-weight="700" x="688.5239" y="20.2822">Anbieter TI 2.0 Dienst</text><rect fill="#FFF3E5" height="717.1406" style="stroke:#181818;stroke-width:0.5;" width="147.7842" x="676.5239" y="27.6406"/><text fill="#000000" font-family="Helvetica" font-size="10" font-weight="700" x="717.2715" y="36.9229">ZETA Guard</text><g><title>Nutzer</title><rect fill="#000000" fill-opacity="0.00000" height="552.2188" width="8" x="26.126" y="114.9219"/><line style="stroke:#000000;stroke-width:0.5;stroke-dasharray:5,5;" x1="29.626" x2="29.626" y1="114.9219" y2="667.1406"/></g><g><title>ZETA Client</title><rect fill="#000000" fill-opacity="0.00000" height="552.2188" width="8" x="235.3613" y="114.9219"/><line style="stroke:#000000;stroke-width:0.5;stroke-dasharray:5,5;" x1="238.8613" x2="238.8613" y1="114.9219" y2="667.1406"/></g><g><title/><rect fill="#FFFFFF" height="544.2188" style="stroke:#181818;stroke-width:1;" width="10" x="233.8613" y="122.9219"/></g><g><title>PDP</title><rect fill="#000000" fill-opacity="0.00000" height="552.2188" width="8" x="746.916" y="114.9219"/><line style="stroke:#000000;stroke-width:0.5;stroke-dasharray:5,5;" x1="750.416" x2="750.416" y1="114.9219" y2="667.1406"/></g><g><title/><rect fill="#FFFFFF" height="299.8906" style="stroke:#181818;stroke-width:1;" width="10" x="745.416" y="222.0469"/></g><g><title/><rect fill="#FFFFFF" height="64.2813" style="stroke:#181818;stroke-width:1;" width="10" x="745.416" y="584.8594"/></g><text fill="#000000" font-family="Helvetica" font-size="10" x="10" y="112.5635">Nutzer</text><ellipse cx="29.626" cy="51.7813" fill="#E2E2F0" rx="8" ry="8" style="stroke:#181818;stroke-width:0.5;"/><path d="M29.626,59.7813 L29.626,86.7813 M16.626,67.7813 L42.626,67.7813 M29.626,86.7813 L16.626,101.7813 M29.626,86.7813 L42.626,101.7813" fill="none" style="stroke:#181818;stroke-width:0.5;"/><rect fill="#FFE6CC" height="25.6406" rx="2.5" ry="2.5" style="stroke:#D79B00;stroke-width:0.5;" width="72.2471" x="202.7378" y="88.2813"/><text fill="#000000" font-family="Helvetica" font-size="10" x="209.7378" y="104.5635">ZETA Client</text><rect fill="#FFE6CC" height="37.2813" rx="2.5" ry="2.5" style="stroke:#D79B00;stroke-width:0.5;" width="116.9492" x="691.9414" y="76.6406"/><text fill="#000000" font-family="Helvetica" font-size="10" x="740.5356" y="92.9229">PDP</text><text fill="#000000" font-family="Helvetica" font-size="10" x="698.9414" y="104.5635">Authorization Server</text><text fill="#000000" font-family="Helvetica" font-size="10" x="10" y="736.4229">Nutzer</text><ellipse cx="29.626" cy="675.6406" fill="#E2E2F0" rx="8" ry="8" style="stroke:#181818;stroke-width:0.5;"/><path d="M29.626,683.6406 L29.626,710.6406 M16.626,691.6406 L42.626,691.6406 M29.626,710.6406 L16.626,725.6406 M29.626,710.6406 L42.626,725.6406" fill="none" style="stroke:#181818;stroke-width:0.5;"/><rect fill="#FFE6CC" height="25.6406" rx="2.5" ry="2.5" style="stroke:#D79B00;stroke-width:0.5;" width="72.2471" x="202.7378" y="667.1406"/><text fill="#000000" font-family="Helvetica" font-size="10" x="209.7378" y="683.4229">ZETA Client</text><rect fill="#FFE6CC" height="37.2813" rx="2.5" ry="2.5" style="stroke:#D79B00;stroke-width:0.5;" width="116.9492" x="691.9414" y="667.1406"/><text fill="#000000" font-family="Helvetica" font-size="10" x="740.5356" y="683.4229">PDP</text><text fill="#000000" font-family="Helvetica" font-size="10" x="698.9414" y="695.0635">Authorization Server</text><polygon fill="#181818" points="733.416,218.0469,743.416,222.0469,733.416,226.0469,737.416,222.0469" style="stroke:#181818;stroke-width:1;stroke-linejoin:miter;stroke-miterlimit:10;"/><line style="stroke:#181818;stroke-width:1;" x1="243.8613" x2="739.416" y1="222.0469" y2="222.0469"/><text fill="#000000" font-family="Helvetica" font-size="10" x="250.8613" y="176.9463">(01)</text><text fill="#000000" font-family="Helvetica" font-size="10" x="275.3887" y="136.2041">POST /register</text><text fill="#000000" font-family="Helvetica" font-size="10" x="275.3887" y="147.8447">{</text><text fill="#000000" font-family="Helvetica" font-size="10" x="281.7461" y="159.4854">"client_name": "myClient",</text><text fill="#000000" font-family="Helvetica" font-size="10" x="281.7461" y="171.126">"grant_types": ["urn:ietf:params:oauth:grant-type:token-exchange", "refresh_token"],</text><text fill="#000000" font-family="Helvetica" font-size="10" x="281.7461" y="182.7666">"jwks": { "keys": [ PuK.Client.Sig ] },</text><text fill="#000000" font-family="Helvetica" font-size="10" x="281.7461" y="194.4072">"token_endpoint_auth_method": "private_key_jwt",</text><text fill="#000000" font-family="Helvetica" font-size="10" x="281.7461" y="206.0479">"redirect_uris": ["https:</text><text fill="#000000" font-family="Helvetica" font-size="10" font-style="italic" x="397.6104" y="206.0479">&lt;App-FQDN&gt;/cb/&lt;app&gt;/as", "https:</text><text fill="#000000" font-family="Helvetica" font-size="10" x="579.8516" y="206.0479">&lt;App-FQDN&gt;/cb/&lt;app&gt;/app"]</text><text fill="#000000" font-family="Helvetica" font-size="10" x="275.3887" y="217.6885">}</text><path d="M760.416,235.0469 L760.416,384.0469 L1204.416,384.0469 L1204.416,245.0469 L1194.416,235.0469 L760.416,235.0469" fill="#FEFFDD" style="stroke:#181818;stroke-width:0.5;"/><path d="M1194.416,235.0469 L1194.416,245.0469 L1204.416,245.0469 L1194.416,235.0469" fill="#FEFFDD" style="stroke:#181818;stroke-width:0.5;"/><text fill="#000000" font-family="Helvetica" font-size="10" x="766.416" y="249.3291">Es werden zwei redirect_uris je App registriert (RFC 8252, claimed-HTTPS</text><text fill="#000000" font-family="Helvetica" font-size="10" x="766.416" y="260.9697">Universal-/App-Links auf einer vom App-Hersteller kontrollierten Domain):</text><text fill="#000000" font-family="Helvetica" font-size="10" x="766.416" y="272.6104">- https://&lt;App-FQDN&gt;/cb/&lt;app&gt;/as = oidc_redirect_uri</text><text fill="#000000" font-family="Helvetica" font-size="10" x="772.7734" y="284.251">(SekIDP Auth Code Flow, redirection_endpoint des AuthS, nicht /token)</text><text fill="#000000" font-family="Helvetica" font-size="10" x="766.416" y="295.8916">- https://&lt;App-FQDN&gt;/cb/&lt;app&gt;/app = redirect_uri_app</text><text fill="#000000" font-family="Helvetica" font-size="10" x="772.7734" y="307.5322">(ZETA Guard Auth Code Flow, /token-Endpunkt des AuthS)</text><text fill="#000000" font-family="Helvetica" font-size="10" x="766.416" y="319.1729">Beide Callbacks enden &#252;ber denselben App-Link/Universal-Link in der App;</text><text fill="#000000" font-family="Helvetica" font-size="10" x="766.416" y="330.8135">der ZETA Client unterscheidet den zu nutzenden AuthS-Endpunkt anhand des Pfads.</text><text fill="#000000" font-family="Helvetica" font-size="10" x="766.416" y="342.4541">Die OS-seitige Verkn&#252;pfung erfolgt &#252;ber apple-app-site-association bzw.</text><text fill="#000000" font-family="Helvetica" font-size="10" x="766.416" y="354.0947">assetlinks.json (Deployment, kein Laufzeit-Flow). Die App ist inkl. redirect_uris</text><text fill="#000000" font-family="Helvetica" font-size="10" x="766.416" y="365.7354">bei der gematik registriert; der AuthS pr&#252;ft beim DCR, ob die &#252;bergebenen</text><text fill="#000000" font-family="Helvetica" font-size="10" x="766.416" y="377.376">redirect_uris registriert sind.</text><line style="stroke:#181818;stroke-width:1;" x1="755.416" x2="797.416" y1="407.375" y2="407.375"/><line style="stroke:#181818;stroke-width:1;" x1="797.416" x2="797.416" y1="407.375" y2="420.375"/><line style="stroke:#181818;stroke-width:1;" x1="756.416" x2="797.416" y1="420.375" y2="420.375"/><polygon fill="#181818" points="766.416,416.375,756.416,420.375,766.416,424.375,762.416,420.375" style="stroke:#181818;stroke-width:1;stroke-linejoin:miter;stroke-miterlimit:10;"/><text fill="#000000" font-family="Helvetica" font-size="10" x="762.416" y="403.0166">(02)</text><text fill="#000000" font-family="Helvetica" font-size="10" x="786.9434" y="403.0166">Store Client Placeholder (state: pending_user_binding)</text><line style="stroke:#181818;stroke-width:1;" x1="755.416" x2="797.416" y1="457.6563" y2="457.6563"/><line style="stroke:#181818;stroke-width:1;" x1="797.416" x2="797.416" y1="457.6563" y2="470.6563"/><line style="stroke:#181818;stroke-width:1;" x1="756.416" x2="797.416" y1="470.6563" y2="470.6563"/><polygon fill="#181818" points="766.416,466.6563,756.416,470.6563,766.416,474.6563,762.416,470.6563" style="stroke:#181818;stroke-width:1;stroke-linejoin:miter;stroke-miterlimit:10;"/><text fill="#000000" font-family="Helvetica" font-size="10" x="762.416" y="447.4775">(03)</text><text fill="#000000" font-family="Helvetica" font-size="10" x="786.9434" y="441.6572">Generiere OTP &amp; transaction_id</text><text fill="#000000" font-family="Helvetica" font-size="10" x="786.9434" y="453.2979">Speichere Request im tempor&#228;ren Cache</text><polygon fill="#181818" points="40.626,492.2969,30.626,496.2969,40.626,500.2969,36.626,496.2969" style="stroke:#181818;stroke-width:1;stroke-linejoin:miter;stroke-miterlimit:10;"/><line style="stroke:#181818;stroke-width:1;" x1="34.626" x2="744.416" y1="496.2969" y2="496.2969"/><text fill="#000000" font-family="Helvetica" font-size="10" x="46.626" y="491.9385">(04)</text><text fill="#000000" font-family="Helvetica" font-size="10" x="71.1533" y="491.9385">E-Mail mit OTP-Best&#228;tigungscode (Out-of-Band)</text><polygon fill="#181818" points="254.8613,517.9375,244.8613,521.9375,254.8613,525.9375,250.8613,521.9375" style="stroke:#181818;stroke-width:1;stroke-linejoin:miter;stroke-miterlimit:10;"/><line style="stroke:#181818;stroke-width:1;stroke-dasharray:2,2;" x1="248.8613" x2="744.416" y1="521.9375" y2="521.9375"/><text fill="#000000" font-family="Helvetica" font-size="10" x="260.8613" y="517.5791">(05)</text><text fill="#000000" font-family="Helvetica" font-size="10" x="285.3887" y="517.5791">202 Accepted {transaction_id, message="OTP sent"}</text><polygon fill="#181818" points="221.8613,543.5781,231.8613,547.5781,221.8613,551.5781,225.8613,547.5781" style="stroke:#181818;stroke-width:1;stroke-linejoin:miter;stroke-miterlimit:10;"/><line style="stroke:#181818;stroke-width:1;" x1="29.626" x2="227.8613" y1="547.5781" y2="547.5781"/><text fill="#000000" font-family="Helvetica" font-size="10" x="36.626" y="543.2197">(06)</text><text fill="#000000" font-family="Helvetica" font-size="10" x="61.1533" y="543.2197">Gibt OTP-Best&#228;tigungscode ein</text><polygon fill="#181818" points="733.416,580.8594,743.416,584.8594,733.416,588.8594,737.416,584.8594" style="stroke:#181818;stroke-width:1;stroke-linejoin:miter;stroke-miterlimit:10;"/><line style="stroke:#181818;stroke-width:1;" x1="243.8613" x2="739.416" y1="584.8594" y2="584.8594"/><text fill="#000000" font-family="Helvetica" font-size="10" x="250.8613" y="574.6807">(07)</text><text fill="#000000" font-family="Helvetica" font-size="10" x="275.3887" y="568.8604">POST /register/verify</text><text fill="#000000" font-family="Helvetica" font-size="10" x="275.3887" y="580.501">{transaction_id, code}</text><line style="stroke:#181818;stroke-width:1;" x1="755.416" x2="797.416" y1="610.5" y2="610.5"/><line style="stroke:#181818;stroke-width:1;" x1="797.416" x2="797.416" y1="610.5" y2="623.5"/><line style="stroke:#181818;stroke-width:1;" x1="756.416" x2="797.416" y1="623.5" y2="623.5"/><polygon fill="#181818" points="766.416,619.5,756.416,623.5,766.416,627.5,762.416,623.5" style="stroke:#181818;stroke-width:1;stroke-linejoin:miter;stroke-miterlimit:10;"/><text fill="#000000" font-family="Helvetica" font-size="10" x="762.416" y="606.1416">(08)</text><text fill="#000000" font-family="Helvetica" font-size="10" x="786.9434" y="606.1416">Verifiziere OTP-Code gegen Cache</text><polygon fill="#181818" points="254.8613,645.1406,244.8613,649.1406,254.8613,653.1406,250.8613,649.1406" style="stroke:#181818;stroke-width:1;stroke-linejoin:miter;stroke-miterlimit:10;"/><line style="stroke:#181818;stroke-width:1;stroke-dasharray:2,2;" x1="248.8613" x2="744.416" y1="649.1406" y2="649.1406"/><text fill="#000000" font-family="Helvetica" font-size="10" x="260.8613" y="644.7822">(09)</text><text fill="#000000" font-family="Helvetica" font-size="10" x="285.3887" y="644.7822">201 Created {client_id, status="pending_user_binding"}</text><?plantuml-src XLNHKkCs57tFLzprGmj3d6oPwKp72yo49Enc5aYQ13fjOJooVUE8s98hoOI4uM_sCtZZnteb9o5fMPO7ObjNvvvxxj7L1oxYh4mG6ercKUQPdx65B4t3F9XQZSL6AhZIg81fy2vBiqJbrMgHV00lbn7F43fupsFqeDEzxhMxORj_tX_M05n8goWy60nx5wtkSFJdQDozsAm354mP7lE22GFjZ2Fzs2H_TSUjrRi7HqTBDEpaX3QWI2neRVrRaMY9YACXVkCU73O-GeVsQMEJzgzxdUvmbu_3_bmobNXWdyFFLwrXvpkSMgMPZXobGMTm8-ohL7p939S2HgZkIOft2LP571oi7i0_gJ0F3W8Oz4TZQ2fCkIRsD-BnHW1uiGiC1SlH2qZXnKg7kbjD5T4ApQ90JQj_UwKI0HK_2OWrotKW6Q47BigtKO6HCnG-FiHJ9bBqwk0fd2ZKqz2jUBSLxjryPW4VmPlXma73eFpQg78tHZo5MtYgGjs-a2ei92SkDc6O8mcJMBw5ulVCO4WmuTryJLjXmXN69YmLhuXFZIbqq6mUaJ_yizyxboVDE6eUiQ8uQJ9jURuRGQQwlH5FDI4DWkBfr82SLD9I6xeQvgWI5B2S8uUTx727G8XGwQuuAWDxmxCs_7Ruws4Tuepn71F_otWyi51NWbEJDSlyfkLnpiLC0oidW5oGvUvbRj7yBnHZCCleqqmAesIMMMHYq94vus8_82mVtgyQZa7o90wt-JfBxermrkiCN7tGbdHIpp8vhsyA8pTk6W89wag8EWWUap1Drx7z7nCWLOvtn0hfKqNWzTJyZqG5xtSfVobcM_bjnbFa5DXcMHQnc9GZbgJ9otD4Gj6JnYoYzxMopLUrxIjmGK7ABdyYBFkuDHcW57HiT3orAMnQwdO9miudbyHnUAN519s0nB4RJ5YY6uH8amBw8ryZDpn5k4Or4o_FnQGKAQ2Qo2mrAwuaH8O-_VSrD_IWjOnvDGQYvTnYqISqcRL7uqxJvxqE5fbSvCIq3ZDo2voJRPQKohUwxJTSTkj4iY5LEiiQkqQr0ulCQwjECQTSistFVggKSVEfK2_F4sEZS-YqXtMG4IG4xgYdI0gZ8BJTOx3jVyr5qd13ovwdccjv1RsULm6Cw1h0jVI3ZCKubPdbiASD7VW02jhFHHgMT5M44NSl-nNMpp1M9LNP5t36wQ3OwmJsnlspg_qtStqcnfOPTMSyW9_0q3pJhF8vJsx4g41ojbqVuZybMlroC9WNKhryKzJxDgFbNMXxWmNGzIyOpo3dnaBxfxJtvHirdpgkO-lflNvfV3dnJyai5RbL1TMq9nkPkQI3RHp6uKSQ6KB6K_ZQxLrsOJMyUV9XEpbbhtJp_S1kWLOSOs4mWSVTokgGezOinMFF5gxjt7zQI_W7tKleHazr1_jT4fX5LPdkVjxa8GLvzBqAoOhRTP7f-OJFAY_RccnFjxNiTLpa3o-mvhr5Mj0zzj-YRDgdDnjT9L-kM-sxiP9YkcaX_RqjuY_GLiYSXXlHws2jMEfZxoqlafB_0W00?></g></svg>