<svg xmlns="http://www.w3.org/2000/svg" xmlns:xlink="http://www.w3.org/1999/xlink" contentStyleType="text/css" data-diagram-type="SEQUENCE" height="645px" preserveAspectRatio="none" style="width:1057px;height:645px;background:#FFFFFF;" version="1.1" viewBox="0 0 1057 645" width="1057px" zoomAndPan="magnify"><defs/><g><rect fill="#FEFCFF" height="633.375" style="stroke:#181818;stroke-width:0.5;" width="87.1543" x="86.1797" y="6"/><text fill="#000000" font-family="Helvetica" font-size="10" font-weight="bold" x="98.1797" y="15.2822">Mobile App</text><rect fill="#E4E4F4" height="633.375" style="stroke:#181818;stroke-width:0.5;" width="124.2217" x="362.1255" y="6"/><text fill="#000000" font-family="Helvetica" font-size="10" font-weight="bold" x="385.1738" y="15.2822">Authenticator</text><rect fill="#EAF2FF" height="633.375" style="stroke:#181818;stroke-width:0.5;" width="148.1279" x="736.0972" y="6"/><text fill="#000000" font-family="Helvetica" font-size="10" font-weight="bold" x="772.0557" y="15.2822">TI-F&#246;deration</text><g><title>Nutzer</title><rect fill="#000000" fill-opacity="0.00000" height="445.1719" width="8" x="39.0898" y="104.9219"/><line style="stroke:#000000;stroke-width:0.5;stroke-dasharray:5.0,5.0;" x1="42.5898" x2="42.5898" y1="104.9219" y2="550.0938"/></g><g><title>ZETA Client</title><rect fill="#000000" fill-opacity="0.00000" height="445.1719" width="8" x="126.2568" y="104.9219"/><line style="stroke:#000000;stroke-width:0.5;stroke-dasharray:5.0,5.0;" x1="129.7568" x2="129.7568" y1="104.9219" y2="550.0938"/></g><g><title>Authenticator-Modul</title><rect fill="#000000" fill-opacity="0.00000" height="445.1719" width="8" x="420.7363" y="104.9219"/><line style="stroke:#000000;stroke-width:0.5;stroke-dasharray:5.0,5.0;" x1="424.2363" x2="424.2363" y1="104.9219" y2="550.0938"/></g><g><title/><rect fill="#FFFFFF" height="326.6094" style="stroke:#000000;stroke-width:1;" width="10" x="419.2363" y="173.8438"/></g><g><title>Sektoraler IDP</title><rect fill="#000000" fill-opacity="0.00000" height="445.1719" width="8" x="806.6611" y="104.9219"/><line style="stroke:#000000;stroke-width:0.5;stroke-dasharray:5.0,5.0;" x1="810.1611" x2="810.1611" y1="104.9219" y2="550.0938"/></g><g><title/><rect fill="#FFFFFF" height="252.0469" style="stroke:#000000;stroke-width:1;" width="10" x="805.1611" y="211.125"/></g><text fill="#000000" font-family="Helvetica" font-size="10" x="22.9639" y="90.9229">Nutzer</text><text fill="#000000" font-family="Helvetica" font-size="10" x="5" y="102.5635">(Versicherter)</text><ellipse cx="42.5898" cy="30.1406" fill="#E2E2F0" rx="8" ry="8" style="stroke:#181818;stroke-width:0.5;"/><path d="M42.5898,38.1406 L42.5898,65.1406 M29.5898,46.1406 L55.5898,46.1406 M42.5898,65.1406 L29.5898,80.1406 M42.5898,65.1406 L55.5898,80.1406" fill="none" style="stroke:#181818;stroke-width:0.5;"/><rect fill="#FFE6CC" height="25.6406" rx="2.5" ry="2.5" style="stroke:#D79B00;stroke-width:0.5;" width="72.2471" x="93.6333" y="78.2813"/><text fill="#000000" font-family="Helvetica" font-size="10" x="100.6333" y="94.5635">ZETA Client</text><rect fill="#E2E2F0" height="37.2813" rx="2.5" ry="2.5" style="stroke:#181818;stroke-width:0.5;" width="116.2217" x="366.1255" y="66.6406"/><text fill="#000000" font-family="Helvetica" font-size="10" x="373.1255" y="82.9229">Authenticator-Modul</text><text fill="#000000" font-family="Helvetica" font-size="10" x="385.1689" y="94.5635">(sektoraler IDP)</text><rect fill="#E2E2F0" height="37.2813" rx="2.5" ry="2.5" style="stroke:#181818;stroke-width:0.5;" width="140.1279" x="740.0972" y="66.6406"/><text fill="#000000" font-family="Helvetica" font-size="10" x="774.4263" y="82.9229">Sektoraler IDP</text><text fill="#000000" font-family="Helvetica" font-size="10" x="747.0972" y="94.5635">(Authorization-Endpunkt)</text><text fill="#000000" font-family="Helvetica" font-size="10" x="22.9639" y="619.376">Nutzer</text><text fill="#000000" font-family="Helvetica" font-size="10" x="5" y="631.0166">(Versicherter)</text><ellipse cx="42.5898" cy="558.5938" fill="#E2E2F0" rx="8" ry="8" style="stroke:#181818;stroke-width:0.5;"/><path d="M42.5898,566.5938 L42.5898,593.5938 M29.5898,574.5938 L55.5898,574.5938 M42.5898,593.5938 L29.5898,608.5938 M42.5898,593.5938 L55.5898,608.5938" fill="none" style="stroke:#181818;stroke-width:0.5;"/><rect fill="#FFE6CC" height="25.6406" rx="2.5" ry="2.5" style="stroke:#D79B00;stroke-width:0.5;" width="72.2471" x="93.6333" y="550.0938"/><text fill="#000000" font-family="Helvetica" font-size="10" x="100.6333" y="566.376">ZETA Client</text><rect fill="#E2E2F0" height="37.2813" rx="2.5" ry="2.5" style="stroke:#181818;stroke-width:0.5;" width="116.2217" x="366.1255" y="550.0938"/><text fill="#000000" font-family="Helvetica" font-size="10" x="373.1255" y="566.376">Authenticator-Modul</text><text fill="#000000" font-family="Helvetica" font-size="10" x="385.1689" y="578.0166">(sektoraler IDP)</text><rect fill="#E2E2F0" height="37.2813" rx="2.5" ry="2.5" style="stroke:#181818;stroke-width:0.5;" width="140.1279" x="740.0972" y="550.0938"/><text fill="#000000" font-family="Helvetica" font-size="10" x="774.4263" y="566.376">Sektoraler IDP</text><text fill="#000000" font-family="Helvetica" font-size="10" x="747.0972" y="578.0166">(Authorization-Endpunkt)</text><path d="M81.6631,117.9219 L81.6631,138.9219 L857.6631,138.9219 L857.6631,127.9219 L847.6631,117.9219 L81.6631,117.9219" fill="#FEFFDD" style="stroke:#181818;stroke-width:0.5;"/><path d="M847.6631,117.9219 L847.6631,127.9219 L857.6631,127.9219 L847.6631,117.9219" fill="#FEFFDD" style="stroke:#181818;stroke-width:0.5;"/><text fill="#000000" font-family="Helvetica" font-size="10" x="273.0396" y="132.2041">Der ZETA Client hat aus Teildiagramm (A) request_uri und client_id erhalten.</text><polygon fill="#181818" points="407.2363,169.8438,417.2363,173.8438,407.2363,177.8438,411.2363,173.8438" style="stroke:#181818;stroke-width:1;"/><line style="stroke:#181818;stroke-width:1;" x1="129.7568" x2="413.2363" y1="173.8438" y2="173.8438"/><text fill="#000000" font-family="Helvetica" font-size="10" x="136.7568" y="163.665">(01)</text><text fill="#000000" font-family="Helvetica" font-size="10" x="161.2842" y="157.8447">&#214;ffne Authenticator (Deep-Link / Universal-Link)</text><text fill="#000000" font-family="Helvetica" font-size="10" x="161.2842" y="169.4854">{client_id, request_uri}</text><polygon fill="#181818" points="793.1611,207.125,803.1611,211.125,793.1611,215.125,797.1611,211.125" style="stroke:#181818;stroke-width:1;"/><line style="stroke:#181818;stroke-width:1;" x1="429.2363" x2="799.1611" y1="211.125" y2="211.125"/><text fill="#000000" font-family="Helvetica" font-size="10" x="436.2363" y="200.9463">(02)</text><text fill="#000000" font-family="Helvetica" font-size="10" x="460.7637" y="195.126">GET /auth {client_id, request_uri}</text><text fill="#000000" font-family="Helvetica" font-size="10" x="460.7637" y="206.7666">(Authentication Request)</text><line style="stroke:#181818;stroke-width:1;" x1="815.1611" x2="857.1611" y1="248.4063" y2="248.4063"/><line style="stroke:#181818;stroke-width:1;" x1="857.1611" x2="857.1611" y1="248.4063" y2="261.4063"/><line style="stroke:#181818;stroke-width:1;" x1="816.1611" x2="857.1611" y1="261.4063" y2="261.4063"/><polygon fill="#181818" points="826.1611,257.4063,816.1611,261.4063,826.1611,265.4063,822.1611,261.4063" style="stroke:#181818;stroke-width:1;"/><text fill="#000000" font-family="Helvetica" font-size="10" x="822.1611" y="238.2275">(03)</text><text fill="#000000" font-family="Helvetica" font-size="10" x="846.6885" y="232.4072">Pr&#252;fe request_uri (Bezug zum PAR),</text><text fill="#000000" font-family="Helvetica" font-size="10" x="846.6885" y="244.0479">stelle Consent gem&#228;&#223; Claims zusammen</text><polygon fill="#181818" points="440.2363,283.0469,430.2363,287.0469,440.2363,291.0469,436.2363,287.0469" style="stroke:#181818;stroke-width:1;"/><line style="stroke:#181818;stroke-width:1;stroke-dasharray:2.0,2.0;" x1="434.2363" x2="804.1611" y1="287.0469" y2="287.0469"/><text fill="#000000" font-family="Helvetica" font-size="10" x="446.2363" y="282.6885">(04)</text><text fill="#000000" font-family="Helvetica" font-size="10" x="470.7637" y="282.6885">Consent-Abfrage &amp; Authentisierungsanforderung (propriet&#228;r)</text><polygon fill="#181818" points="53.5898,320.3281,43.5898,324.3281,53.5898,328.3281,49.5898,324.3281" style="stroke:#181818;stroke-width:1;"/><line style="stroke:#181818;stroke-width:1;" x1="47.5898" x2="418.2363" y1="324.3281" y2="324.3281"/><text fill="#000000" font-family="Helvetica" font-size="10" x="59.5898" y="314.1494">(05)</text><text fill="#000000" font-family="Helvetica" font-size="10" x="84.1172" y="308.3291">Fordere Authentisierung (eGK+PIN / eID)</text><text fill="#000000" font-family="Helvetica" font-size="10" x="84.1172" y="319.9697">und Consent-Freigabe an</text><polygon fill="#181818" points="407.2363,345.9688,417.2363,349.9688,407.2363,353.9688,411.2363,349.9688" style="stroke:#181818;stroke-width:1;"/><line style="stroke:#181818;stroke-width:1;" x1="42.5898" x2="413.2363" y1="349.9688" y2="349.9688"/><text fill="#000000" font-family="Helvetica" font-size="10" x="49.5898" y="345.6104">(06)</text><text fill="#000000" font-family="Helvetica" font-size="10" x="74.1172" y="345.6104">Authentisierung + Consent-Freigabe</text><polygon fill="#181818" points="793.1611,371.6094,803.1611,375.6094,793.1611,379.6094,797.1611,375.6094" style="stroke:#181818;stroke-width:1;"/><line style="stroke:#181818;stroke-width:1;" x1="429.2363" x2="799.1611" y1="375.6094" y2="375.6094"/><text fill="#000000" font-family="Helvetica" font-size="10" x="436.2363" y="371.251">(07)</text><text fill="#000000" font-family="Helvetica" font-size="10" x="460.7637" y="371.251">Best&#228;tigt erfolgreiche Authentisierung (propriet&#228;r)</text><line style="stroke:#181818;stroke-width:1;" x1="815.1611" x2="857.1611" y1="412.8906" y2="412.8906"/><line style="stroke:#181818;stroke-width:1;" x1="857.1611" x2="857.1611" y1="412.8906" y2="425.8906"/><line style="stroke:#181818;stroke-width:1;" x1="816.1611" x2="857.1611" y1="425.8906" y2="425.8906"/><polygon fill="#181818" points="826.1611,421.8906,816.1611,425.8906,826.1611,429.8906,822.1611,425.8906" style="stroke:#181818;stroke-width:1;"/><text fill="#000000" font-family="Helvetica" font-size="10" x="822.1611" y="402.7119">(08)</text><text fill="#000000" font-family="Helvetica" font-size="10" x="846.6885" y="396.8916">Erzeuge AUTHORIZATION_CODE (IDP),</text><text fill="#000000" font-family="Helvetica" font-size="10" x="846.6885" y="408.5322">G&#252;ltigkeit max. 90s</text><polygon fill="#181818" points="440.2363,459.1719,430.2363,463.1719,440.2363,467.1719,436.2363,463.1719" style="stroke:#181818;stroke-width:1;"/><line style="stroke:#181818;stroke-width:1;stroke-dasharray:2.0,2.0;" x1="434.2363" x2="804.1611" y1="463.1719" y2="463.1719"/><text fill="#000000" font-family="Helvetica" font-size="10" x="446.2363" y="452.9932">(09)</text><text fill="#000000" font-family="Helvetica" font-size="10" x="470.7637" y="447.1729">302 Found</text><text fill="#000000" font-family="Helvetica" font-size="10" x="470.7637" y="458.8135">Location: &lt;redirect_uri&gt;?code=AUTH_CODE_IDP&amp;state=state_as</text><polygon fill="#181818" points="140.7568,496.4531,130.7568,500.4531,140.7568,504.4531,136.7568,500.4531" style="stroke:#181818;stroke-width:1;"/><line style="stroke:#181818;stroke-width:1;" x1="134.7568" x2="418.2363" y1="500.4531" y2="500.4531"/><text fill="#000000" font-family="Helvetica" font-size="10" x="146.7568" y="490.2744">(10)</text><text fill="#000000" font-family="Helvetica" font-size="10" x="171.2842" y="484.4541">App-Link / Universal-Link</text><text fill="#000000" font-family="Helvetica" font-size="10" x="171.2842" y="496.0947">{code=AUTH_CODE_IDP, state=state_as}</text><path d="M81.6631,513.4531 L81.6631,534.4531 L857.6631,534.4531 L857.6631,523.4531 L847.6631,513.4531 L81.6631,513.4531" fill="#FEFFDD" style="stroke:#181818;stroke-width:0.5;"/><path d="M847.6631,513.4531 L847.6631,523.4531 L857.6631,523.4531 L847.6631,513.4531" fill="#FEFFDD" style="stroke:#181818;stroke-width:0.5;"/><text fill="#000000" font-family="Helvetica" font-size="10" x="317.3047" y="527.7354">Weiter mit Teildiagramm (C) Abb-ZETA-OIDC-Token-Bezug.</text><!--SRC=[TPJDRjf04CVlVeefbL8Gc4JfgLP2vO19hV8bIb8fGa8B7c25lUlkhgEKAg_HQozvXfvoyujr_94KI791OdVcD_F_xupVSR48am2XsJoEaoYqG_PJ9gPfxenbMHzWWZmCE5if5aLGlQWvC4ZC5XLBp1g5uPgZIiGAM0GQDqOg5g80lpE2z76E2WAcmIrZ5upkxRuCah0amwqKuCxdzeqtSUsXtsdRJy5BlYtGTYJdF4HbjqDE5zgos88uSAK9J_HAqT1KLAzHQRvOepAeQXNBciixgFJpR73Zk08TxzflUxFsi3SSMm0nKzGKZvamKC1pNjPB-Ry2PsTRDApLib04GC2IkYUf0ZtF9sf_D1nuWychVBUVir-nWXf_Tavbpb7h-yKcljrD_mPakk5ILE2zvtPFkzs32fddMOblUp2YPpMbujiys_P442TYOtQh26aGv2rb5B8RMQO37JhOCGFMZ0nAzC5Ck3LG-2D1RMQ9uf0GT977ptW0gDOiD2YQbbL2x1PvKQyxaFvUBWNk3mTKEuYntUDY0yTm9JZrf5cO7zIcujSpkB5RyzuYTubBJMVWIsy2nzbymblnfIbbMN85niLjpSfSB50EZ5JwkCGzTTKBt2Ohs2OHZDnnhJ4Lsc18yzMMGcVoLXYb3-aViepnI5EW9fDG5DnSk_CKQxlpfM8hXADd4yfjqamifGgApQh6IiQAeqaVLArKcis-0zqy1W-peOgNN-iZVq0MejyXtx8tUIhQLSXNR8x0X9MlKDdK8QJ-8kE_omvSa27fW-4hGq-ybE6AOcZpNhQor_okkPxQOaBYtQl9b-7Olt4d_d10gzFne9ej0LbxcJw6L6A3t434xfhmwKJl66dR3dmyEIKRIDzKz6JnbWwSAGoumaN-PAtF2ndWULOcfyy8SAGDCtYU_ywOBeKL0vfHwMFn-Wnc8_Y2re1ztFsR2_MTbD1PH7hsTwXTE_WAJkG6XPqFMzFw1m00]--></g></svg>