<svg xmlns="http://www.w3.org/2000/svg" xmlns:xlink="http://www.w3.org/1999/xlink" contentStyleType="text/css" data-diagram-type="SEQUENCE" height="1064px" preserveAspectRatio="none" style="width:1015px;height:1064px;background:#FFFFFF;" version="1.1" viewBox="0 0 1015 1064" width="1015px" zoomAndPan="magnify"><?plantuml 1.2026.6?><defs/><g><rect fill="#FEFCFF" height="1038.0625" style="stroke:#181818;stroke-width:0.5;" width="109.625" x="184.0488" y="11"/><text fill="#000000" font-family="Helvetica" font-size="10" font-weight="700" x="196.0488" y="20.2822">Android Device</text><rect fill="#E6E6FA" height="1021.4219" style="stroke:#181818;stroke-width:0.5;" width="109.625" x="184.0488" y="27.6406"/><text fill="#000000" font-family="Helvetica" font-size="10" font-weight="700" x="227.8335" y="36.9229">App</text><rect fill="#EDFDEC" height="1038.0625" style="stroke:#181818;stroke-width:0.5;" width="147.7842" x="507.4517" y="11"/><text fill="#000000" font-family="Helvetica" font-size="10" font-weight="700" x="519.4517" y="20.2822">Anbieter TI 2.0 Dienst</text><rect fill="#FFF3E5" height="1021.4219" style="stroke:#181818;stroke-width:0.5;" width="147.7842" x="507.4517" y="27.6406"/><text fill="#000000" font-family="Helvetica" font-size="10" font-weight="700" x="548.1992" y="36.9229">ZETA Guard</text><g><title>Nutzer</title><rect fill="#000000" fill-opacity="0.00000" height="856.5" width="8" x="26.126" y="114.9219"/><line style="stroke:#000000;stroke-width:0.5;stroke-dasharray:5,5;" x1="29.626" x2="29.626" y1="114.9219" y2="971.4219"/></g><g><title>ZETA Client</title><rect fill="#000000" fill-opacity="0.00000" height="856.5" width="8" x="235.3613" y="114.9219"/><line style="stroke:#000000;stroke-width:0.5;stroke-dasharray:5,5;" x1="238.8613" x2="238.8613" y1="114.9219" y2="971.4219"/></g><g><title/><rect fill="#FFFFFF" height="848.5" style="stroke:#181818;stroke-width:1;" width="10" x="233.8613" y="122.9219"/></g><g><title>PDP</title><rect fill="#000000" fill-opacity="0.00000" height="856.5" width="8" x="577.8438" y="114.9219"/><line style="stroke:#000000;stroke-width:0.5;stroke-dasharray:5,5;" x1="581.3438" x2="581.3438" y1="114.9219" y2="971.4219"/></g><g><title/><rect fill="#FFFFFF" height="429.9688" style="stroke:#181818;stroke-width:1;" width="10" x="576.3438" y="214.7656"/></g><g><title/><rect fill="#FFFFFF" height="245.7656" style="stroke:#181818;stroke-width:1;" width="10" x="576.3438" y="707.6563"/></g><text fill="#000000" font-family="Helvetica" font-size="10" x="10" y="112.5635">Nutzer</text><ellipse cx="29.626" cy="51.7813" fill="#E2E2F0" rx="8" ry="8" style="stroke:#181818;stroke-width:0.5;"/><path d="M29.626,59.7813 L29.626,86.7813 M16.626,67.7813 L42.626,67.7813 M29.626,86.7813 L16.626,101.7813 M29.626,86.7813 L42.626,101.7813" fill="none" style="stroke:#181818;stroke-width:0.5;"/><rect fill="#FFE6CC" height="25.6406" rx="2.5" ry="2.5" style="stroke:#D79B00;stroke-width:0.5;" width="72.2471" x="202.7378" y="88.2813"/><text fill="#000000" font-family="Helvetica" font-size="10" x="209.7378" y="104.5635">ZETA Client</text><rect fill="#FFE6CC" height="37.2813" rx="2.5" ry="2.5" style="stroke:#D79B00;stroke-width:0.5;" width="116.9492" x="522.8691" y="76.6406"/><text fill="#000000" font-family="Helvetica" font-size="10" x="571.4634" y="92.9229">PDP</text><text fill="#000000" font-family="Helvetica" font-size="10" x="529.8691" y="104.5635">Authorization Server</text><text fill="#000000" font-family="Helvetica" font-size="10" x="10" y="1040.7041">Nutzer</text><ellipse cx="29.626" cy="979.9219" fill="#E2E2F0" rx="8" ry="8" style="stroke:#181818;stroke-width:0.5;"/><path d="M29.626,987.9219 L29.626,1014.9219 M16.626,995.9219 L42.626,995.9219 M29.626,1014.9219 L16.626,1029.9219 M29.626,1014.9219 L42.626,1029.9219" fill="none" style="stroke:#181818;stroke-width:0.5;"/><rect fill="#FFE6CC" height="25.6406" rx="2.5" ry="2.5" style="stroke:#D79B00;stroke-width:0.5;" width="72.2471" x="202.7378" y="971.4219"/><text fill="#000000" font-family="Helvetica" font-size="10" x="209.7378" y="987.7041">ZETA Client</text><rect fill="#FFE6CC" height="37.2813" rx="2.5" ry="2.5" style="stroke:#D79B00;stroke-width:0.5;" width="116.9492" x="522.8691" y="971.4219"/><text fill="#000000" font-family="Helvetica" font-size="10" x="571.4634" y="987.7041">PDP</text><text fill="#000000" font-family="Helvetica" font-size="10" x="529.8691" y="999.3447">Authorization Server</text><path d="M13.626,126.9219 L73.582,126.9219 L73.582,130.5625 L63.582,140.5625 L13.626,140.5625 L13.626,126.9219" fill="#EEEEEE" style="stroke:#000000;stroke-width:1.5;"/><rect fill="none" height="794.8594" style="stroke:#000000;stroke-width:1.5;" width="982.1084" x="13.626" y="126.9219"/><text fill="#000000" font-family="Helvetica" font-size="10" font-weight="700" x="28.626" y="137.2041">alt</text><text fill="#000000" font-family="Helvetica" font-size="10" font-weight="700" x="88.582" y="138.2041">[Kein ZETA Attestation Token vorhanden]</text><line style="stroke:#000000;stroke-width:1;stroke-dasharray:2,2;" x1="13.626" x2="995.7344" y1="765.2969" y2="765.2969"/><text fill="#000000" font-family="Helvetica" font-size="10" font-weight="700" x="18.626" y="776.5791">[ZETA Attestation Token vorhanden (Fast-Path)]</text><polygon fill="#181818" points="564.3438,210.7656,574.3438,214.7656,564.3438,218.7656,568.3438,214.7656" style="stroke:#181818;stroke-width:1;stroke-linejoin:miter;stroke-miterlimit:10;"/><line style="stroke:#181818;stroke-width:1;" x1="243.8613" x2="570.3438" y1="214.7656" y2="214.7656"/><text fill="#000000" font-family="Helvetica" font-size="10" x="250.8613" y="187.126">(01)</text><text fill="#000000" font-family="Helvetica" font-size="10" x="275.3887" y="163.8447">POST /register</text><text fill="#000000" font-family="Helvetica" font-size="10" x="275.3887" y="175.4854">{attestation_type="android", PuK.AK.Sig,</text><text fill="#000000" font-family="Helvetica" font-size="10" x="275.3887" y="187.126">Android_Key_Attestation_Certificate_Chain,</text><text fill="#000000" font-family="Helvetica" font-size="10" x="275.3887" y="198.7666">PuK.Client.Sig, signed_Hash_PuK.Client.Sig,</text><text fill="#000000" font-family="Helvetica" font-size="10" x="275.3887" y="210.4072">play_integrity_token, redirect_uris}</text><line style="stroke:#181818;stroke-width:1;" x1="586.3438" x2="628.3438" y1="240.4063" y2="240.4063"/><line style="stroke:#181818;stroke-width:1;" x1="628.3438" x2="628.3438" y1="240.4063" y2="253.4063"/><line style="stroke:#181818;stroke-width:1;" x1="587.3438" x2="628.3438" y1="253.4063" y2="253.4063"/><polygon fill="#181818" points="597.3438,249.4063,587.3438,253.4063,597.3438,257.4063,593.3438,253.4063" style="stroke:#181818;stroke-width:1;stroke-linejoin:miter;stroke-miterlimit:10;"/><text fill="#000000" font-family="Helvetica" font-size="10" x="593.3438" y="236.0479">(02)</text><text fill="#000000" font-family="Helvetica" font-size="10" x="617.8711" y="236.0479">Validiere Zertifikatskette gegen Google Root CA</text><line style="stroke:#181818;stroke-width:1;" x1="586.3438" x2="628.3438" y1="279.0469" y2="279.0469"/><line style="stroke:#181818;stroke-width:1;" x1="628.3438" x2="628.3438" y1="279.0469" y2="292.0469"/><line style="stroke:#181818;stroke-width:1;" x1="587.3438" x2="628.3438" y1="292.0469" y2="292.0469"/><polygon fill="#181818" points="597.3438,288.0469,587.3438,292.0469,597.3438,296.0469,593.3438,292.0469" style="stroke:#181818;stroke-width:1;stroke-linejoin:miter;stroke-miterlimit:10;"/><text fill="#000000" font-family="Helvetica" font-size="10" x="593.3438" y="274.6885">(03)</text><text fill="#000000" font-family="Helvetica" font-size="10" x="617.8711" y="274.6885">Pr&#252;fe signed_Hash_PuK.Client.Sig</text><path d="M565.3438,304.0469 L629.1523,304.0469 L629.1523,307.6875 L619.1523,317.6875 L565.3438,317.6875 L565.3438,304.0469" fill="#EEEEEE" style="stroke:#000000;stroke-width:1.5;"/><rect fill="none" height="139.5625" style="stroke:#000000;stroke-width:1.5;" width="405.3906" x="565.3438" y="304.0469"/><text fill="#000000" font-family="Helvetica" font-size="10" font-weight="700" x="580.3438" y="314.3291">opt</text><text fill="#000000" font-family="Helvetica" font-size="10" font-weight="700" x="644.1523" y="315.3291">[Play Integrity Pr&#252;fung]</text><line style="stroke:#181818;stroke-width:1;" x1="586.3438" x2="628.3438" y1="345.3281" y2="345.3281"/><line style="stroke:#181818;stroke-width:1;" x1="628.3438" x2="628.3438" y1="345.3281" y2="358.3281"/><line style="stroke:#181818;stroke-width:1;" x1="587.3438" x2="628.3438" y1="358.3281" y2="358.3281"/><polygon fill="#181818" points="597.3438,354.3281,587.3438,358.3281,597.3438,362.3281,593.3438,358.3281" style="stroke:#181818;stroke-width:1;stroke-linejoin:miter;stroke-miterlimit:10;"/><text fill="#000000" font-family="Helvetica" font-size="10" x="593.3438" y="340.9697">(04)</text><text fill="#000000" font-family="Helvetica" font-size="10" x="617.8711" y="340.9697">Entschl&#252;ssele play_integrity_token (lokal/remote)</text><line style="stroke:#181818;stroke-width:1;" x1="586.3438" x2="628.3438" y1="383.9688" y2="383.9688"/><line style="stroke:#181818;stroke-width:1;" x1="628.3438" x2="628.3438" y1="383.9688" y2="396.9688"/><line style="stroke:#181818;stroke-width:1;" x1="587.3438" x2="628.3438" y1="396.9688" y2="396.9688"/><polygon fill="#181818" points="597.3438,392.9688,587.3438,396.9688,597.3438,400.9688,593.3438,396.9688" style="stroke:#181818;stroke-width:1;stroke-linejoin:miter;stroke-miterlimit:10;"/><text fill="#000000" font-family="Helvetica" font-size="10" x="593.3438" y="379.6104">(05)</text><text fill="#000000" font-family="Helvetica" font-size="10" x="617.8711" y="379.6104">Verifiziere Nonce (Muss Hash(PuK.Client.Sig) entsprechen)</text><line style="stroke:#181818;stroke-width:1;" x1="586.3438" x2="628.3438" y1="422.6094" y2="422.6094"/><line style="stroke:#181818;stroke-width:1;" x1="628.3438" x2="628.3438" y1="422.6094" y2="435.6094"/><line style="stroke:#181818;stroke-width:1;" x1="587.3438" x2="628.3438" y1="435.6094" y2="435.6094"/><polygon fill="#181818" points="597.3438,431.6094,587.3438,435.6094,597.3438,439.6094,593.3438,435.6094" style="stroke:#181818;stroke-width:1;stroke-linejoin:miter;stroke-miterlimit:10;"/><text fill="#000000" font-family="Helvetica" font-size="10" x="593.3438" y="418.251">(06)</text><text fill="#000000" font-family="Helvetica" font-size="10" x="617.8711" y="418.251">Werte Verdicts aus (appIntegrity, deviceIntegrity, accountDetails)</text><path d="M591.3438,462.6094 L591.3438,506.6094 L894.3438,506.6094 L894.3438,472.6094 L884.3438,462.6094 L591.3438,462.6094" fill="#FEFFDD" style="stroke:#181818;stroke-width:0.5;"/><path d="M884.3438,462.6094 L884.3438,472.6094 L894.3438,472.6094 L884.3438,462.6094" fill="#FEFFDD" style="stroke:#181818;stroke-width:0.5;"/><text fill="#000000" font-family="Helvetica" font-size="10" x="597.3438" y="476.8916">PuK.AK.Sig muss mit dem Blatt-Zertifikat</text><text fill="#000000" font-family="Helvetica" font-size="10" x="597.3438" y="488.5322">der Certificate Chain &#252;bereinstimmen.</text><text fill="#000000" font-family="Helvetica" font-size="10" x="597.3438" y="500.1729">Sicherheitsniveau: TrustedEnvironment oder StrongBox.</text><line style="stroke:#181818;stroke-width:1;" x1="586.3438" x2="628.3438" y1="530.1719" y2="530.1719"/><line style="stroke:#181818;stroke-width:1;" x1="628.3438" x2="628.3438" y1="530.1719" y2="543.1719"/><line style="stroke:#181818;stroke-width:1;" x1="587.3438" x2="628.3438" y1="543.1719" y2="543.1719"/><polygon fill="#181818" points="597.3438,539.1719,587.3438,543.1719,597.3438,547.1719,593.3438,543.1719" style="stroke:#181818;stroke-width:1;stroke-linejoin:miter;stroke-miterlimit:10;"/><text fill="#000000" font-family="Helvetica" font-size="10" x="593.3438" y="525.8135">(07)</text><text fill="#000000" font-family="Helvetica" font-size="10" x="617.8711" y="525.8135">Store Client Placeholder (state: pending_user_binding)</text><line style="stroke:#181818;stroke-width:1;" x1="586.3438" x2="628.3438" y1="580.4531" y2="580.4531"/><line style="stroke:#181818;stroke-width:1;" x1="628.3438" x2="628.3438" y1="580.4531" y2="593.4531"/><line style="stroke:#181818;stroke-width:1;" x1="587.3438" x2="628.3438" y1="593.4531" y2="593.4531"/><polygon fill="#181818" points="597.3438,589.4531,587.3438,593.4531,597.3438,597.4531,593.3438,593.4531" style="stroke:#181818;stroke-width:1;stroke-linejoin:miter;stroke-miterlimit:10;"/><text fill="#000000" font-family="Helvetica" font-size="10" x="593.3438" y="570.2744">(08)</text><text fill="#000000" font-family="Helvetica" font-size="10" x="617.8711" y="564.4541">Generiere OTP &amp; transaction_id</text><text fill="#000000" font-family="Helvetica" font-size="10" x="617.8711" y="576.0947">Speichere Request im tempor&#228;ren Cache</text><polygon fill="#181818" points="40.626,615.0938,30.626,619.0938,40.626,623.0938,36.626,619.0938" style="stroke:#181818;stroke-width:1;stroke-linejoin:miter;stroke-miterlimit:10;"/><line style="stroke:#181818;stroke-width:1;" x1="34.626" x2="575.3438" y1="619.0938" y2="619.0938"/><text fill="#000000" font-family="Helvetica" font-size="10" x="46.626" y="614.7354">(09)</text><text fill="#000000" font-family="Helvetica" font-size="10" x="71.1533" y="614.7354">E-Mail mit OTP-Best&#228;tigungscode (Out-of-Band)</text><polygon fill="#181818" points="254.8613,640.7344,244.8613,644.7344,254.8613,648.7344,250.8613,644.7344" style="stroke:#181818;stroke-width:1;stroke-linejoin:miter;stroke-miterlimit:10;"/><line style="stroke:#181818;stroke-width:1;stroke-dasharray:2,2;" x1="248.8613" x2="575.3438" y1="644.7344" y2="644.7344"/><text fill="#000000" font-family="Helvetica" font-size="10" x="260.8613" y="640.376">(10)</text><text fill="#000000" font-family="Helvetica" font-size="10" x="285.3887" y="640.376">202 Accepted {transaction_id, message="OTP sent"}</text><polygon fill="#181818" points="221.8613,666.375,231.8613,670.375,221.8613,674.375,225.8613,670.375" style="stroke:#181818;stroke-width:1;stroke-linejoin:miter;stroke-miterlimit:10;"/><line style="stroke:#181818;stroke-width:1;" x1="29.626" x2="227.8613" y1="670.375" y2="670.375"/><text fill="#000000" font-family="Helvetica" font-size="10" x="36.626" y="666.0166">(11)</text><text fill="#000000" font-family="Helvetica" font-size="10" x="61.1533" y="666.0166">Gibt OTP-Best&#228;tigungscode ein</text><polygon fill="#181818" points="564.3438,703.6563,574.3438,707.6563,564.3438,711.6563,568.3438,707.6563" style="stroke:#181818;stroke-width:1;stroke-linejoin:miter;stroke-miterlimit:10;"/><line style="stroke:#181818;stroke-width:1;" x1="243.8613" x2="570.3438" y1="707.6563" y2="707.6563"/><text fill="#000000" font-family="Helvetica" font-size="10" x="250.8613" y="697.4775">(12)</text><text fill="#000000" font-family="Helvetica" font-size="10" x="275.3887" y="691.6572">POST /register/verify</text><text fill="#000000" font-family="Helvetica" font-size="10" x="275.3887" y="703.2979">{transaction_id, code}</text><line style="stroke:#181818;stroke-width:1;" x1="586.3438" x2="628.3438" y1="733.2969" y2="733.2969"/><line style="stroke:#181818;stroke-width:1;" x1="628.3438" x2="628.3438" y1="733.2969" y2="746.2969"/><line style="stroke:#181818;stroke-width:1;" x1="587.3438" x2="628.3438" y1="746.2969" y2="746.2969"/><polygon fill="#181818" points="597.3438,742.2969,587.3438,746.2969,597.3438,750.2969,593.3438,746.2969" style="stroke:#181818;stroke-width:1;stroke-linejoin:miter;stroke-miterlimit:10;"/><text fill="#000000" font-family="Helvetica" font-size="10" x="593.3438" y="728.9385">(13)</text><text fill="#000000" font-family="Helvetica" font-size="10" x="617.8711" y="728.9385">Verifiziere OTP-Code gegen Cache</text><polygon fill="#181818" points="564.3438,832.5,574.3438,836.5,564.3438,840.5,568.3438,836.5" style="stroke:#181818;stroke-width:1;stroke-linejoin:miter;stroke-miterlimit:10;"/><line style="stroke:#181818;stroke-width:1;" x1="243.8613" x2="570.3438" y1="836.5" y2="836.5"/><text fill="#000000" font-family="Helvetica" font-size="10" x="250.8613" y="814.6807">(14)</text><text fill="#000000" font-family="Helvetica" font-size="10" x="275.3887" y="797.2197">POST /register</text><text fill="#000000" font-family="Helvetica" font-size="10" x="275.3887" y="808.8604">{attestation_type="zeta_attestation_token",</text><text fill="#000000" font-family="Helvetica" font-size="10" x="275.3887" y="820.501">zeta_guard_attestation_token, PuK.Client.Sig,</text><text fill="#000000" font-family="Helvetica" font-size="10" x="275.3887" y="832.1416">Besitznachweis (Signatur/Assertion)}</text><line style="stroke:#181818;stroke-width:1;" x1="586.3438" x2="628.3438" y1="862.1406" y2="862.1406"/><line style="stroke:#181818;stroke-width:1;" x1="628.3438" x2="628.3438" y1="862.1406" y2="875.1406"/><line style="stroke:#181818;stroke-width:1;" x1="587.3438" x2="628.3438" y1="875.1406" y2="875.1406"/><polygon fill="#181818" points="597.3438,871.1406,587.3438,875.1406,597.3438,879.1406,593.3438,875.1406" style="stroke:#181818;stroke-width:1;stroke-linejoin:miter;stroke-miterlimit:10;"/><text fill="#000000" font-family="Helvetica" font-size="10" x="593.3438" y="857.7822">(15)</text><text fill="#000000" font-family="Helvetica" font-size="10" x="617.8711" y="857.7822">Pr&#252;fe Token-Signatur &amp; Vertrauensstellung</text><line style="stroke:#181818;stroke-width:1;" x1="586.3438" x2="628.3438" y1="900.7813" y2="900.7813"/><line style="stroke:#181818;stroke-width:1;" x1="628.3438" x2="628.3438" y1="900.7813" y2="913.7813"/><line style="stroke:#181818;stroke-width:1;" x1="587.3438" x2="628.3438" y1="913.7813" y2="913.7813"/><polygon fill="#181818" points="597.3438,909.7813,587.3438,913.7813,597.3438,917.7813,593.3438,913.7813" style="stroke:#181818;stroke-width:1;stroke-linejoin:miter;stroke-miterlimit:10;"/><text fill="#000000" font-family="Helvetica" font-size="10" x="593.3438" y="896.4229">(16)</text><text fill="#000000" font-family="Helvetica" font-size="10" x="617.8711" y="896.4229">Extrahiere PuK.AK.Sig aus Token, verifiziere Besitznachweis</text><polygon fill="#181818" points="254.8613,949.4219,244.8613,953.4219,254.8613,957.4219,250.8613,953.4219" style="stroke:#181818;stroke-width:1;stroke-linejoin:miter;stroke-miterlimit:10;"/><line style="stroke:#181818;stroke-width:1;stroke-dasharray:2,2;" x1="248.8613" x2="575.3438" y1="953.4219" y2="953.4219"/><text fill="#000000" font-family="Helvetica" font-size="10" x="260.8613" y="949.0635">(17)</text><text fill="#000000" font-family="Helvetica" font-size="10" x="285.3887" y="949.0635">201 Created {client_id, status="pending_user_binding"}</text><?plantuml-src ZLNRJjjA57ttL-pwuJGHSUZX4RL88J4qua2Y952T2icQs1jxX3tZpYK5Alwcdy4RFzOz7XAI4cXv8BxDtckjlMRDEoxIqcO8tUvkRQioAjcjjAPhRamGiDH81USQ5J0DuParTwZ289ZB6mXx8bEIPp301KynX45yCUp7IN_qtsWI0FXlwZg4yMHuseidq_-di_XqzHwWPihmbDTC6EYN7Ed7TVaQptfFzo5y_7Y7XXqSq08KcIiQB7-NAEOS3G6S3M6l-m46j4uRrtHqCHp4aqqyJUrZorGMWhjEZizxay4hc7hM5DC6qdWmlXJkLYf-nmoN0gQe5gJ5cm0zYPsTW9K6Jf2BfYVqZ45jV9cPl4O12waA9Z8K3ORcd_jx4YKwy51sTlPXF9hEO5TXpZMHlXG_s7EnnDpM-2baVYvX1yRsfDixwKvvtY7u_d5oWhV96eAaZyJuYgVCOD8l61VqhLlecpUBGVDSO9PyPhf8VdjtAMfoJCA5mLnnSviOnwW32ZEkC3M9LLpVhoXvJPUCzk62bJpZg12-UXpNpEXh97oGOqxI74kPbmWJASaalLVhZDNZmnM-0NIrSdKXQmDZmWx39NPVnOhdZxUrYeNHQL4-FcYDX6mRVMYLyfgLDATA6co_MUu25T6-QpGuao95Q9rQhS5nQ6roQ9F5ZAv9rWB5srM_a9heQcSyDHgOrT1YTRsYse6isRPh3rYQIYlCWEpCI_rSdkpyKZn1l43nl30WhrP3MFaDAaUXueRQL71OaakZvm5VajKLh1aF6kF1uyESLE2qVtbLeUXUYYadggf0RhJW2sHs7sRAalMpM2ouag9o6qIwSbD3j_cXlEa6GR1DaYbb6Ixt50q-nKAMRcNBRGNSXvgOSf4dbl8kcVFcnilmtdU5aO0ZhkY28X5Qiz7HUNjhgsCKD5KtqT5i3F-0KKne2bEtttX6j6fiY96lyPkbhGYy0eDLBTNZJqN-wJDwlLdQfJ2PBpgbwJJAKkdeaDO-_ZGy9zFgb7I0riYQI5v5XnG3xUSuUVyKM431zbsIDqnJO-_3NeTccHPm4W_FOaWRTGZZk_NcrDtB5aNxRWdqqXHh6WBys6JMWGgrPZcba2EkNOJV1qy0lZ1dIMQlm9yZKKpwihcdsPmngpwa89-_nf0CiixBxvzh7wVUSMf3o-4W-AimtLsuIhUKgR-JSctlWpzjNeUsxm3wuF8Z308ioIj_odre7J5jeZ4pHNiRshyAVdSG9HkFNPEG8hfvaxjZx-LxVqni93ffpisT80BVaLDmq5F1Z5MxFOeyvPQsjylnbC8DkMYvYlnFCf6cbavc0b-MouHzaQmtz5NHYBaM9IwxPXxfOatkJP3kq0s2xNxz5_eAMMFNbR_fJ2CHhFuKRjlrPDfV?></g></svg>