<svg xmlns="http://www.w3.org/2000/svg" xmlns:xlink="http://www.w3.org/1999/xlink" contentStyleType="text/css" data-diagram-type="SEQUENCE" height="1065px" preserveAspectRatio="none" style="width:1324px;height:1065px;background:#FFFFFF;" version="1.1" viewBox="0 0 1324 1065" width="1324px" zoomAndPan="magnify"><defs/><g><rect fill="#FEFCFF" height="1053.75" style="stroke:#181818;stroke-width:0.5;" width="87.1543" x="59.1899" y="6"/><text fill="#000000" font-family="Helvetica" font-size="10" font-weight="bold" x="71.1899" y="15.2822">Mobile App</text><rect fill="#EDFDEC" height="1053.75" style="stroke:#181818;stroke-width:0.5;" width="476.3354" x="425.1699" y="6"/><text fill="#000000" font-family="Helvetica" font-size="10" font-weight="bold" x="601.4456" y="15.2822">Anbieter TI 2.0 Dienst</text><rect fill="#FFF3E5" height="1037.1094" style="stroke:#181818;stroke-width:0.5;" width="476.3354" x="425.1699" y="22.6406"/><text fill="#000000" font-family="Helvetica" font-size="10" font-weight="bold" x="630.1931" y="31.9229">ZETA Guard</text><rect fill="#EAF2FF" height="1053.75" style="stroke:#181818;stroke-width:0.5;" width="111.6582" x="913.5054" y="6"/><text fill="#000000" font-family="Helvetica" font-size="10" font-weight="bold" x="931.229" y="15.2822">TI-F&#246;deration</text><g><title>ZETA Client</title><rect fill="#000000" fill-opacity="0.00000" height="915.625" width="8" x="99.2671" y="88.2031"/><line style="stroke:#000000;stroke-width:0.5;stroke-dasharray:5.0,5.0;" x1="102.7671" x2="102.7671" y1="88.2031" y2="1003.8281"/></g><g><title>PDP</title><rect fill="#000000" fill-opacity="0.00000" height="915.625" width="8" x="484.186" y="88.2031"/><line style="stroke:#000000;stroke-width:0.5;stroke-dasharray:5.0,5.0;" x1="487.686" x2="487.686" y1="88.2031" y2="1003.8281"/></g><g><title/><rect fill="#FFFFFF" height="807.0625" style="stroke:#000000;stroke-width:1;" width="10" x="482.686" y="196.7656"/></g><g><title/><rect fill="#FFFFFF" height="99.2031" style="stroke:#000000;stroke-width:1;" width="10" x="487.686" y="762.4219"/></g><g><title>PDP</title><rect fill="#000000" fill-opacity="0.00000" height="915.625" width="8" x="853.7192" y="88.2031"/><line style="stroke:#000000;stroke-width:0.5;stroke-dasharray:5.0,5.0;" x1="857.2192" x2="857.2192" y1="88.2031" y2="1003.8281"/></g><g><title/><rect fill="#FFFFFF" height="25.6406" style="stroke:#000000;stroke-width:1;" width="10" x="852.2192" y="522.375"/></g><g><title>Sektoraler IDP</title><rect fill="#000000" fill-opacity="0.00000" height="915.625" width="8" x="965.8345" y="88.2031"/><line style="stroke:#000000;stroke-width:0.5;stroke-dasharray:5.0,5.0;" x1="969.3345" x2="969.3345" y1="88.2031" y2="1003.8281"/></g><g><title/><rect fill="#FFFFFF" height="110.8438" style="stroke:#000000;stroke-width:1;" width="10" x="964.3345" y="245.6875"/></g><rect fill="#FFE6CC" height="25.6406" rx="2.5" ry="2.5" style="stroke:#D79B00;stroke-width:0.5;" width="72.2471" x="66.6436" y="61.5625"/><text fill="#000000" font-family="Helvetica" font-size="10" x="73.6436" y="77.8447">ZETA Client</text><rect fill="#FFE6CC" height="48.9219" rx="2.5" ry="2.5" style="stroke:#D79B00;stroke-width:0.5;" width="117.0322" x="429.1699" y="38.2813"/><text fill="#000000" font-family="Helvetica" font-size="10" x="477.8057" y="54.5635">PDP</text><text fill="#000000" font-family="Helvetica" font-size="10" x="436.2114" y="66.2041">Authorization Server</text><text fill="#000000" font-family="Helvetica" font-size="10" x="436.1699" y="77.8447">(OIDC Relying Party)</text><rect fill="#FFE6CC" height="37.2813" rx="2.5" ry="2.5" style="stroke:#D79B00;stroke-width:0.5;" width="80.5723" x="816.9331" y="49.9219"/><text fill="#000000" font-family="Helvetica" font-size="10" x="847.3389" y="66.2041">PDP</text><text fill="#000000" font-family="Helvetica" font-size="10" x="823.9331" y="77.8447">Policy Engine</text><rect fill="#E2E2F0" height="37.2813" rx="2.5" ry="2.5" style="stroke:#181818;stroke-width:0.5;" width="103.6582" x="917.5054" y="49.9219"/><text fill="#000000" font-family="Helvetica" font-size="10" x="933.5996" y="66.2041">Sektoraler IDP</text><text fill="#000000" font-family="Helvetica" font-size="10" x="924.5054" y="77.8447">(Token-Endpunkt)</text><rect fill="#FFE6CC" height="25.6406" rx="2.5" ry="2.5" style="stroke:#D79B00;stroke-width:0.5;" width="72.2471" x="66.6436" y="1003.8281"/><text fill="#000000" font-family="Helvetica" font-size="10" x="73.6436" y="1020.1104">ZETA Client</text><rect fill="#FFE6CC" height="48.9219" rx="2.5" ry="2.5" style="stroke:#D79B00;stroke-width:0.5;" width="117.0322" x="429.1699" y="1003.8281"/><text fill="#000000" font-family="Helvetica" font-size="10" x="477.8057" y="1020.1104">PDP</text><text fill="#000000" font-family="Helvetica" font-size="10" x="436.2114" y="1031.751">Authorization Server</text><text fill="#000000" font-family="Helvetica" font-size="10" x="436.1699" y="1043.3916">(OIDC Relying Party)</text><rect fill="#FFE6CC" height="37.2813" rx="2.5" ry="2.5" style="stroke:#D79B00;stroke-width:0.5;" width="80.5723" x="816.9331" y="1003.8281"/><text fill="#000000" font-family="Helvetica" font-size="10" x="847.3389" y="1020.1104">PDP</text><text fill="#000000" font-family="Helvetica" font-size="10" x="823.9331" y="1031.751">Policy Engine</text><rect fill="#E2E2F0" height="37.2813" rx="2.5" ry="2.5" style="stroke:#181818;stroke-width:0.5;" width="103.6582" x="917.5054" y="1003.8281"/><text fill="#000000" font-family="Helvetica" font-size="10" x="933.5996" y="1020.1104">Sektoraler IDP</text><text fill="#000000" font-family="Helvetica" font-size="10" x="924.5054" y="1031.751">(Token-Endpunkt)</text><path d="M63.7908,101.2031 L63.7908,122.2031 L1007.7908,122.2031 L1007.7908,111.2031 L997.7908,101.2031 L63.7908,101.2031" fill="#FEFFDD" style="stroke:#181818;stroke-width:0.5;"/><path d="M997.7908,101.2031 L997.7908,111.2031 L1007.7908,111.2031 L997.7908,101.2031" fill="#FEFFDD" style="stroke:#181818;stroke-width:0.5;"/><text fill="#000000" font-family="Helvetica" font-size="10" x="317.2344" y="115.4854">Der ZETA Client hat aus Teildiagramm (B) den AUTHORIZATION_CODE (IDP) erhalten.</text><rect fill="#EEEEEE" height="3" style="stroke:#EEEEEE;stroke-width:1;" width="1312.9741" x="5" y="146.6641"/><line style="stroke:#000000;stroke-width:1;" x1="5" x2="1317.9741" y1="146.6641" y2="146.6641"/><line style="stroke:#000000;stroke-width:1;" x1="5" x2="1317.9741" y1="149.6641" y2="149.6641"/><rect fill="#EEEEEE" height="19.6406" style="stroke:#000000;stroke-width:2;" width="286.7197" x="518.1272" y="137.8438"/><text fill="#000000" font-family="Helvetica" font-size="10" font-weight="bold" x="524.1272" y="151.126">Innerer Flow: Token-Bezug beim sektoralen IDP</text><polygon fill="#181818" points="470.686,192.7656,480.686,196.7656,470.686,200.7656,474.686,196.7656" style="stroke:#181818;stroke-width:1;"/><line style="stroke:#181818;stroke-width:1;" x1="102.7671" x2="476.686" y1="196.7656" y2="196.7656"/><text fill="#000000" font-family="Helvetica" font-size="10" x="109.7671" y="186.5869">(01)</text><text fill="#000000" font-family="Helvetica" font-size="10" x="134.2944" y="180.7666">Leitet AUTHORIZATION_CODE (IDP) weiter</text><text fill="#000000" font-family="Helvetica" font-size="10" x="134.2944" y="192.4072">{code=AUTH_CODE_IDP, state=state_as}</text><polygon fill="#181818" points="952.3345,241.6875,962.3345,245.6875,952.3345,249.6875,956.3345,245.6875" style="stroke:#181818;stroke-width:1;"/><line style="stroke:#181818;stroke-width:1;" x1="492.686" x2="958.3345" y1="245.6875" y2="245.6875"/><text fill="#000000" font-family="Helvetica" font-size="10" x="499.686" y="229.6885">(02)</text><text fill="#000000" font-family="Helvetica" font-size="10" x="524.2134" y="218.0479">POST /token (mTLS, self_signed_tls_client_auth)</text><text fill="#000000" font-family="Helvetica" font-size="10" x="524.2134" y="229.6885">{grant_type=authorization_code, code=AUTH_CODE_IDP,</text><text fill="#000000" font-family="Helvetica" font-size="10" x="524.2134" y="241.3291">code_verifier=code_verifier_as, client_id, redirect_uri}</text><line style="stroke:#181818;stroke-width:1;" x1="974.3345" x2="1016.3345" y1="294.6094" y2="294.6094"/><line style="stroke:#181818;stroke-width:1;" x1="1016.3345" x2="1016.3345" y1="294.6094" y2="307.6094"/><line style="stroke:#181818;stroke-width:1;" x1="975.3345" x2="1016.3345" y1="307.6094" y2="307.6094"/><polygon fill="#181818" points="985.3345,303.6094,975.3345,307.6094,985.3345,311.6094,981.3345,307.6094" style="stroke:#181818;stroke-width:1;"/><text fill="#000000" font-family="Helvetica" font-size="10" x="981.3345" y="278.6104">(03)</text><text fill="#000000" font-family="Helvetica" font-size="10" x="1005.8618" y="266.9697">Pr&#252;fe TLS-Clientzertifikat,</text><text fill="#000000" font-family="Helvetica" font-size="10" x="1005.8618" y="278.6104">verifiziere code_verifier_as gegen code_challenge_as (S256),</text><text fill="#000000" font-family="Helvetica" font-size="10" x="1005.8618" y="290.251">invalidiere AUTHORIZATION_CODE</text><polygon fill="#181818" points="503.686,352.5313,493.686,356.5313,503.686,360.5313,499.686,356.5313" style="stroke:#181818;stroke-width:1;"/><line style="stroke:#181818;stroke-width:1;stroke-dasharray:2.0,2.0;" x1="497.686" x2="963.3345" y1="356.5313" y2="356.5313"/><text fill="#000000" font-family="Helvetica" font-size="10" x="509.686" y="340.5322">(04)</text><text fill="#000000" font-family="Helvetica" font-size="10" x="534.2134" y="328.8916">200 OK</text><text fill="#000000" font-family="Helvetica" font-size="10" x="534.2134" y="340.5322">{id_token (JWE: ECDH-ES/A256GCM, signiert ES256),</text><text fill="#000000" font-family="Helvetica" font-size="10" x="534.2134" y="352.1729">access_token, token_type=Bearer, expires_in}</text><line style="stroke:#181818;stroke-width:1;" x1="492.686" x2="534.686" y1="393.8125" y2="393.8125"/><line style="stroke:#181818;stroke-width:1;" x1="534.686" x2="534.686" y1="393.8125" y2="406.8125"/><line style="stroke:#181818;stroke-width:1;" x1="493.686" x2="534.686" y1="406.8125" y2="406.8125"/><polygon fill="#181818" points="503.686,402.8125,493.686,406.8125,503.686,410.8125,499.686,406.8125" style="stroke:#181818;stroke-width:1;"/><text fill="#000000" font-family="Helvetica" font-size="10" x="499.686" y="383.6338">(05)</text><text fill="#000000" font-family="Helvetica" font-size="10" x="524.2134" y="377.8135">Entschl&#252;ssele ID Token, verifiziere Signatur (kid/x5c),</text><text fill="#000000" font-family="Helvetica" font-size="10" x="524.2134" y="389.4541">pr&#252;fe iss/aud/nonce/exp, extrahiere Claims (KVNR, acr, amr, ...)</text><rect fill="#EEEEEE" height="3" style="stroke:#EEEEEE;stroke-width:1;" width="1312.9741" x="5" y="433.6328"/><line style="stroke:#000000;stroke-width:1;" x1="5" x2="1317.9741" y1="433.6328" y2="433.6328"/><line style="stroke:#000000;stroke-width:1;" x1="5" x2="1317.9741" y1="436.6328" y2="436.6328"/><rect fill="#EEEEEE" height="19.6406" style="stroke:#000000;stroke-width:2;" width="388.8975" x="467.0383" y="424.8125"/><text fill="#000000" font-family="Helvetica" font-size="10" font-weight="bold" x="473.0383" y="438.0947">&#196;u&#223;erer Flow: Policy-Entscheidung &amp; Ausstellung der ZETA Token</text><line style="stroke:#181818;stroke-width:1;" x1="492.686" x2="534.686" y1="483.7344" y2="483.7344"/><line style="stroke:#181818;stroke-width:1;" x1="534.686" x2="534.686" y1="483.7344" y2="496.7344"/><line style="stroke:#181818;stroke-width:1;" x1="493.686" x2="534.686" y1="496.7344" y2="496.7344"/><polygon fill="#181818" points="503.686,492.7344,493.686,496.7344,503.686,500.7344,499.686,496.7344" style="stroke:#181818;stroke-width:1;"/><text fill="#000000" font-family="Helvetica" font-size="10" x="499.686" y="473.5557">(06)</text><text fill="#000000" font-family="Helvetica" font-size="10" x="524.2134" y="467.7354">Erzeuge Policy Engine Input</text><text fill="#000000" font-family="Helvetica" font-size="10" x="524.2134" y="479.376">(Identit&#228;ts-Claims, Posture, Kontext)</text><polygon fill="#181818" points="840.2192,518.375,850.2192,522.375,840.2192,526.375,844.2192,522.375" style="stroke:#181818;stroke-width:1;"/><line style="stroke:#181818;stroke-width:1;" x1="492.686" x2="846.2192" y1="522.375" y2="522.375"/><text fill="#000000" font-family="Helvetica" font-size="10" x="499.686" y="518.0166">(07)</text><text fill="#000000" font-family="Helvetica" font-size="10" x="524.2134" y="518.0166">POST /v1/data/authz {Policy Engine Input}</text><polygon fill="#181818" points="503.686,544.0156,493.686,548.0156,503.686,552.0156,499.686,548.0156" style="stroke:#181818;stroke-width:1;"/><line style="stroke:#181818;stroke-width:1;stroke-dasharray:2.0,2.0;" x1="497.686" x2="851.2192" y1="548.0156" y2="548.0156"/><text fill="#000000" font-family="Helvetica" font-size="10" x="509.686" y="543.6572">(08)</text><text fill="#000000" font-family="Helvetica" font-size="10" x="534.2134" y="543.6572">Policy Decision</text><path d="M86.7671,560.0156 L146.7231,560.0156 L146.7231,563.6563 L136.7231,573.6563 L86.7671,573.6563 L86.7671,560.0156" fill="#EEEEEE" style="stroke:#000000;stroke-width:1.5;"/><rect fill="none" height="364.8906" style="stroke:#000000;stroke-width:1.5;" width="786.4521" x="86.7671" y="560.0156"/><text fill="#000000" font-family="Helvetica" font-size="10" font-weight="bold" x="101.7671" y="570.2979">alt</text><text fill="#000000" font-family="Helvetica" font-size="10" font-weight="bold" x="161.7231" y="571.2979">[Policy Decision allow]</text><line style="stroke:#000000;stroke-width:1;stroke-dasharray:2.0,2.0;" x1="86.7671" x2="873.2192" y1="880.625" y2="880.625"/><text fill="#000000" font-family="Helvetica" font-size="10" font-weight="bold" x="91.7671" y="891.9072">[Policy Decision deny]</text><line style="stroke:#181818;stroke-width:1;" x1="492.686" x2="534.686" y1="601.2969" y2="601.2969"/><line style="stroke:#181818;stroke-width:1;" x1="534.686" x2="534.686" y1="601.2969" y2="614.2969"/><line style="stroke:#181818;stroke-width:1;" x1="493.686" x2="534.686" y1="614.2969" y2="614.2969"/><polygon fill="#181818" points="503.686,610.2969,493.686,614.2969,503.686,618.2969,499.686,614.2969" style="stroke:#181818;stroke-width:1;"/><text fill="#000000" font-family="Helvetica" font-size="10" x="499.686" y="596.9385">(09)</text><text fill="#000000" font-family="Helvetica" font-size="10" x="524.2134" y="596.9385">Erzeuge AUTHORIZATION_CODE (AS)</text><polygon fill="#181818" points="113.7671,647.5781,103.7671,651.5781,113.7671,655.5781,109.7671,651.5781" style="stroke:#181818;stroke-width:1;"/><line style="stroke:#181818;stroke-width:1;stroke-dasharray:2.0,2.0;" x1="107.7671" x2="481.686" y1="651.5781" y2="651.5781"/><text fill="#000000" font-family="Helvetica" font-size="10" x="119.7671" y="641.3994">(10)</text><text fill="#000000" font-family="Helvetica" font-size="10" x="144.2944" y="635.5791">302 Found</text><text fill="#000000" font-family="Helvetica" font-size="10" x="144.2944" y="647.2197">Location: &lt;redirect_uri&gt;?code=AUTH_CODE_AS&amp;state=state_app</text><line style="stroke:#181818;stroke-width:1;" x1="102.7671" x2="144.7671" y1="688.8594" y2="688.8594"/><line style="stroke:#181818;stroke-width:1;" x1="144.7671" x2="144.7671" y1="688.8594" y2="701.8594"/><line style="stroke:#181818;stroke-width:1;" x1="103.7671" x2="144.7671" y1="701.8594" y2="701.8594"/><polygon fill="#181818" points="113.7671,697.8594,103.7671,701.8594,113.7671,705.8594,109.7671,701.8594" style="stroke:#181818;stroke-width:1;"/><text fill="#000000" font-family="Helvetica" font-size="10" x="109.7671" y="678.6807">(11)</text><text fill="#000000" font-family="Helvetica" font-size="10" x="134.2944" y="672.8604">Erzeuge DPoP Key Pair (PrK.DPoP.Sig, PuK.DPoP.Sig)</text><text fill="#000000" font-family="Helvetica" font-size="10" x="134.2944" y="684.501">und DPoP Proof</text><polygon fill="#181818" points="475.686,758.4219,485.686,762.4219,475.686,766.4219,479.686,762.4219" style="stroke:#181818;stroke-width:1;"/><line style="stroke:#181818;stroke-width:1;" x1="102.7671" x2="481.686" y1="762.4219" y2="762.4219"/><text fill="#000000" font-family="Helvetica" font-size="10" x="109.7671" y="740.6025">(12)</text><text fill="#000000" font-family="Helvetica" font-size="10" x="134.2944" y="723.1416">POST /token  dpop: &lt;dpop_proof&gt;</text><text fill="#000000" font-family="Helvetica" font-size="10" x="134.2944" y="734.7822">{grant_type=authorization_code, code=AUTH_CODE_AS,</text><text fill="#000000" font-family="Helvetica" font-size="10" x="134.2944" y="746.4229">code_verifier=code_verifier_app, client_id, redirect_uri,</text><text fill="#000000" font-family="Helvetica" font-size="10" x="134.2944" y="758.0635">client_assertion (JWT, PrK.Client.Sig signiert)}</text><line style="stroke:#181818;stroke-width:1;" x1="497.686" x2="539.686" y1="799.7031" y2="799.7031"/><line style="stroke:#181818;stroke-width:1;" x1="539.686" x2="539.686" y1="799.7031" y2="812.7031"/><line style="stroke:#181818;stroke-width:1;" x1="498.686" x2="539.686" y1="812.7031" y2="812.7031"/><polygon fill="#181818" points="508.686,808.7031,498.686,812.7031,508.686,816.7031,504.686,812.7031" style="stroke:#181818;stroke-width:1;"/><text fill="#000000" font-family="Helvetica" font-size="10" x="504.686" y="789.5244">(13)</text><text fill="#000000" font-family="Helvetica" font-size="10" x="529.2134" y="783.7041">Verifiziere code_verifier_app gegen code_challenge_app (S256),</text><text fill="#000000" font-family="Helvetica" font-size="10" x="529.2134" y="795.3447">DPoP Proof und Client Assertion (Key Binding aus DCR)</text><polygon fill="#181818" points="113.7671,857.625,103.7671,861.625,113.7671,865.625,109.7671,861.625" style="stroke:#181818;stroke-width:1;"/><line style="stroke:#181818;stroke-width:1;stroke-dasharray:2.0,2.0;" x1="107.7671" x2="486.686" y1="861.625" y2="861.625"/><text fill="#000000" font-family="Helvetica" font-size="10" x="119.7671" y="845.626">(14)</text><text fill="#000000" font-family="Helvetica" font-size="10" x="144.2944" y="833.9854">200 OK</text><text fill="#000000" font-family="Helvetica" font-size="10" x="144.2944" y="845.626">{access_token (DPoP-gebunden), refresh_token,</text><text fill="#000000" font-family="Helvetica" font-size="10" x="144.2944" y="857.2666">token_type=DPoP, expires_in}</text><polygon fill="#181818" points="113.7671,912.9063,103.7671,916.9063,113.7671,920.9063,109.7671,916.9063" style="stroke:#181818;stroke-width:1;"/><line style="stroke:#181818;stroke-width:1;stroke-dasharray:2.0,2.0;" x1="107.7671" x2="481.686" y1="916.9063" y2="916.9063"/><text fill="#000000" font-family="Helvetica" font-size="10" x="119.7671" y="912.5479">(15)</text><text fill="#000000" font-family="Helvetica" font-size="10" x="144.2944" y="912.5479">403 Forbidden {"reasons": ["..."]}</text><path d="M10,943.9063 L10,987.9063 L580,987.9063 L580,953.9063 L570,943.9063 L10,943.9063" fill="#FEFFDD" style="stroke:#181818;stroke-width:0.5;"/><path d="M570,943.9063 L570,953.9063 L580,953.9063 L570,943.9063" fill="#FEFFDD" style="stroke:#181818;stroke-width:0.5;"/><text fill="#000000" font-family="Helvetica" font-size="10" x="16" y="958.1885">Der ZETA Client besitzt nun ein DPoP-gebundenes Access Token und kann auf den Resource Server zugreifen</text><text fill="#000000" font-family="Helvetica" font-size="10" x="16" y="969.8291">(siehe Abb-ZETA-Zugriff-auf-RS-mit-ASL bzw. Abb-ZETA-Zugriff-auf-RS-ohne-ASL).</text><text fill="#000000" font-family="Helvetica" font-size="10" x="16" y="981.4697">Die Session-Erneuerung erfolgt &#252;ber Abb-ZETA-Token-Exchange-mit-Refresh-Token.</text><!--SRC=[bLRTRk965BxtKvnIQOkr6D9ijnTeIUM0iqkJNH1cKscRoXhi0unYnjRCE0ciSjVtw4sVeLUvuyLwPWpX9z1LRqB6C-VlEz_vPhxZ8awB1A5UR-J5BFLIDiyANTSFsd6S7s28F4qucqWscq6rxJPXcDsYyCvnKKnWX7m62czr9bcA0hgTVWtwMShZkHS8hU8fygGG4oX40dwXbCOqDUi49Nm9XdxfRHK7xZ81_cZacHslr-sqFR_GKnIQZ_c2eoHBRvQDU8hIQwUSDfJZZB87g7oqNy7FymfqWkjkEuZQlQlUm078cTGyvZaJ6aeZO0egDdgvhi2xTmlKxEpCGSgJ7Awy-cB4KLEgmowSra-WGwSL7UyFUjVTJZ1uZc5FMu_l2oQJYgqjUl_P7tIUp-ncOWeBRIBzJlz6c6Kc-O9fJXY4AEzGteYgmG06cCuvOTOdyxcxbUo-prxVttWikm21c721EqRh6dTh7NQzY-K_r1URGWM-3_oBqukBFG2fmJP4kEwvD9yeqv8LWKZoGjngjxBnBZADa54zAxHhng89dJK3LZsPCkfBeVO8T-uILOWKduSVUeFk5t_OxNqYH3i1LCcB2oYdBDKewexJQa5N29JazoBDxhz9L6Yr76SLt3ih6_BwTHEka6lKnqFUctrgpjSuIx1bZjdTo79VQQQnPVz6J3qwPPl9FUqQv_rUE8I6Dfb1TJQy2ia4qt6a-4HW4kbKHR5DAM9awL8K0e9MUfvZYssJ93BXQt0WYHjXFaQ4E8qDojREYh8Yep84JseWCU4IOnqLaZyw1fOoMKfLBf_629JZQjOMACqWtZ9D8Kf_PYWHzWF012TKd_qSKty8y8c10whXwTkVNRBcuewbFB7MBu4kqrZtnFEQS7fo0hrBGeCJHYLul_uMD25eTpvuGTZmoU_xzaS2at0ahng2TIWMnwXKQLK3-rEYUOwCk583VCW90HLniTKk-m_vjngMBfyKTGa9bv9KDTWkFwIOJ1SIghSyQJoyZKtOl4IFAzLWHT8GcOYnGQ5CF2tPr5gsKyPd1ClbzQT13LXCsR0P_QdNwwubzFBFOldN5gKFIUkh_n1Mo_4NHSa55XE47OMWsSaBJOFSJOpUwkNVMdbbVaRH5TL7RBlCXARytOrFqfmDh-z-R2HCiuOXwWA-7WZmw1YHskdjwbG7Oww8ruv30xt_4OX4sRqLl6FL79fNFtItRSYeP78JtfoSmaL6jzADkCfYEr1DUBSz36U_x8sM7xxQcUuyjxut2hBslSweqy_wS8bp4cvEvEZBoxhvL2U-4AJ5PaLZRkv7Uxulisoyv_XPchRL0v8yoobdynFbnkhiVwk57tvBBFByg5eOqvLKqNH8Ut7HL0wfDggqpDvKzpoJxkF11buVLv8yFo8bjF6i9HlOx2jZ1Pk_oScqu9oBnDoXveRfj0U7QR6ZDDkw0LKJn9lWY2AWS0qGOzACwKfMRiIMhfYZkwg2gS8NZ2O_yoFa_Eda3P5JZdXYxhwl5ObCPK9Lcl1xXQIXyiUZkLqFtQpM5tdTlrn7gBXUQ22U0N81E-MW0jyMkz8CW-8j4pHqnTZUlWDKMI5ZNBrBW2vKYNnCxpQ0gk8unSshxGljyV7O8rjl47ephZq_l8BHuhv-z50s5MXEkNMJEZTnbC782wJ0mZxxwA8VP-b4m_9fH1ayUrezEnw86qGC6svGjgRSgjjtY07A-HS0]--></g></svg>