<svg xmlns="http://www.w3.org/2000/svg" xmlns:xlink="http://www.w3.org/1999/xlink" contentStyleType="text/css" data-diagram-type="SEQUENCE" height="601px" preserveAspectRatio="none" style="width:886px;height:601px;background:#FFFFFF;" version="1.1" viewBox="0 0 886 601" width="886px" zoomAndPan="magnify"><?plantuml 1.2026.5?><defs/><g><rect fill="#FEFCFF" height="575.7344" style="stroke:#181818;stroke-width:0.5;" width="102.1934" x="16" y="11"/><text fill="#000000" font-family="Helvetica" font-size="10" font-weight="700" x="48.2271" y="20.2822">Device</text><rect fill="#E6E6FA" height="559.0938" style="stroke:#181818;stroke-width:0.5;" width="102.1934" x="16" y="27.6406"/><text fill="#000000" font-family="Helvetica" font-size="10" font-weight="700" x="28" y="36.9229">Prim&#228;rsystem</text><rect fill="#EDFDEC" height="575.7344" style="stroke:#181818;stroke-width:0.5;" width="147.7842" x="395.3696" y="11"/><text fill="#000000" font-family="Helvetica" font-size="10" font-weight="700" x="407.3696" y="20.2822">Anbieter TI 2.0 Dienst</text><rect fill="#FFF3E5" height="559.0938" style="stroke:#181818;stroke-width:0.5;" width="147.7842" x="395.3696" y="27.6406"/><text fill="#000000" font-family="Helvetica" font-size="10" font-weight="700" x="436.1172" y="36.9229">ZETA Guard</text><g><title>ZETA Client</title><rect fill="#000000" fill-opacity="0.00000" height="460.8906" width="8" x="63.5967" y="81.5625"/><line style="stroke:#000000;stroke-width:0.5;stroke-dasharray:5,5;" x1="67.0967" x2="67.0967" y1="81.5625" y2="542.4531"/></g><g><title/><rect fill="#FFFFFF" height="452.8906" style="stroke:#181818;stroke-width:1;" width="10" x="62.0967" y="89.5625"/></g><g><title>PDP</title><rect fill="#000000" fill-opacity="0.00000" height="460.8906" width="8" x="465.7617" y="81.5625"/><line style="stroke:#000000;stroke-width:0.5;stroke-dasharray:5,5;" x1="469.2617" x2="469.2617" y1="81.5625" y2="542.4531"/></g><g><title/><rect fill="#FFFFFF" height="377.9688" style="stroke:#181818;stroke-width:1;" width="10" x="464.2617" y="146.4844"/></g><rect fill="#FFE6CC" height="25.6406" rx="2.5" ry="2.5" style="stroke:#D79B00;stroke-width:0.5;" width="72.2471" x="30.9731" y="54.9219"/><text fill="#000000" font-family="Helvetica" font-size="10" x="37.9731" y="71.2041">ZETA Client</text><rect fill="#FFE6CC" height="37.2813" rx="2.5" ry="2.5" style="stroke:#D79B00;stroke-width:0.5;" width="116.9492" x="410.7871" y="43.2813"/><text fill="#000000" font-family="Helvetica" font-size="10" x="459.3813" y="59.5635">PDP</text><text fill="#000000" font-family="Helvetica" font-size="10" x="417.7871" y="71.2041">Authorization Server</text><rect fill="#FFE6CC" height="25.6406" rx="2.5" ry="2.5" style="stroke:#D79B00;stroke-width:0.5;" width="72.2471" x="30.9731" y="542.4531"/><text fill="#000000" font-family="Helvetica" font-size="10" x="37.9731" y="558.7354">ZETA Client</text><rect fill="#FFE6CC" height="37.2813" rx="2.5" ry="2.5" style="stroke:#D79B00;stroke-width:0.5;" width="116.9492" x="410.7871" y="542.4531"/><text fill="#000000" font-family="Helvetica" font-size="10" x="459.3813" y="558.7354">PDP</text><text fill="#000000" font-family="Helvetica" font-size="10" x="417.7871" y="570.376">Authorization Server</text><path d="M51.0967,93.5625 L111.0527,93.5625 L111.0527,97.2031 L101.0527,107.2031 L51.0967,107.2031 L51.0967,93.5625" fill="#EEEEEE" style="stroke:#000000;stroke-width:1.5;"/><rect fill="none" height="360.6094" style="stroke:#000000;stroke-width:1.5;" width="815.5781" x="51.0967" y="93.5625"/><text fill="#000000" font-family="Helvetica" font-size="10" font-weight="700" x="66.0967" y="103.8447">alt</text><text fill="#000000" font-family="Helvetica" font-size="10" font-weight="700" x="126.0527" y="104.8447">[Kein ZETA Guard Attestation Token]</text><line style="stroke:#000000;stroke-width:1;stroke-dasharray:2,2;" x1="51.0967" x2="866.6748" y1="297.6875" y2="297.6875"/><text fill="#000000" font-family="Helvetica" font-size="10" font-weight="700" x="56.0967" y="308.9697">[ZETA Attestation Token vorhanden]</text><polygon fill="#181818" points="452.2617,142.4844,462.2617,146.4844,452.2617,150.4844,456.2617,146.4844" style="stroke:#181818;stroke-width:1;stroke-linejoin:miter;stroke-miterlimit:10;"/><line style="stroke:#181818;stroke-width:1;" x1="72.0967" x2="458.2617" y1="146.4844" y2="146.4844"/><text fill="#000000" font-family="Helvetica" font-size="10" x="79.0967" y="136.3057">(01)</text><text fill="#000000" font-family="Helvetica" font-size="10" x="103.624" y="130.4854">POST /register</text><text fill="#000000" font-family="Helvetica" font-size="10" x="103.624" y="142.126">{attestation_type="apple", Apple_Attestation_Object, PuK.Client.Sig}</text><line style="stroke:#181818;stroke-width:1;" x1="474.2617" x2="516.2617" y1="172.125" y2="172.125"/><line style="stroke:#181818;stroke-width:1;" x1="516.2617" x2="516.2617" y1="172.125" y2="185.125"/><line style="stroke:#181818;stroke-width:1;" x1="475.2617" x2="516.2617" y1="185.125" y2="185.125"/><polygon fill="#181818" points="485.2617,181.125,475.2617,185.125,485.2617,189.125,481.2617,185.125" style="stroke:#181818;stroke-width:1;stroke-linejoin:miter;stroke-miterlimit:10;"/><text fill="#000000" font-family="Helvetica" font-size="10" x="481.2617" y="167.7666">(02)</text><text fill="#000000" font-family="Helvetica" font-size="10" x="505.7891" y="167.7666">Validiere Apple_Attestation_Object</text><path d="M479.2617,198.125 L479.2617,242.125 L714.2617,242.125 L714.2617,208.125 L704.2617,198.125 L479.2617,198.125" fill="#FEFFDD" style="stroke:#181818;stroke-width:0.5;"/><path d="M704.2617,198.125 L704.2617,208.125 L714.2617,208.125 L704.2617,198.125" fill="#FEFFDD" style="stroke:#181818;stroke-width:0.5;"/><text fill="#000000" font-family="Helvetica" font-size="10" x="485.2617" y="212.4072">AuthS verifiziert Apple App Attest Root CA.</text><text fill="#000000" font-family="Helvetica" font-size="10" x="485.2617" y="224.0479">Extrahiert Hash(PuK.Client.Sig) aus Objekt</text><text fill="#000000" font-family="Helvetica" font-size="10" x="485.2617" y="235.6885">und vergleicht ihn mit dem Payload.</text><line style="stroke:#181818;stroke-width:1;" x1="474.2617" x2="516.2617" y1="265.6875" y2="265.6875"/><line style="stroke:#181818;stroke-width:1;" x1="516.2617" x2="516.2617" y1="265.6875" y2="278.6875"/><line style="stroke:#181818;stroke-width:1;" x1="475.2617" x2="516.2617" y1="278.6875" y2="278.6875"/><polygon fill="#181818" points="485.2617,274.6875,475.2617,278.6875,485.2617,282.6875,481.2617,278.6875" style="stroke:#181818;stroke-width:1;stroke-linejoin:miter;stroke-miterlimit:10;"/><text fill="#000000" font-family="Helvetica" font-size="10" x="481.2617" y="261.3291">(03)</text><text fill="#000000" font-family="Helvetica" font-size="10" x="505.7891" y="261.3291">Store Client Placeholder (state: pending_user_binding)</text><polygon fill="#181818" points="452.2617,364.8906,462.2617,368.8906,452.2617,372.8906,456.2617,368.8906" style="stroke:#181818;stroke-width:1;stroke-linejoin:miter;stroke-miterlimit:10;"/><line style="stroke:#181818;stroke-width:1;" x1="72.0967" x2="458.2617" y1="368.8906" y2="368.8906"/><text fill="#000000" font-family="Helvetica" font-size="10" x="79.0967" y="347.0713">(04)</text><text fill="#000000" font-family="Helvetica" font-size="10" x="103.624" y="329.6104">POST /register</text><text fill="#000000" font-family="Helvetica" font-size="10" x="103.624" y="341.251">{attestation_type="zeta_attestation_token",</text><text fill="#000000" font-family="Helvetica" font-size="10" x="103.624" y="352.8916">zeta_guard_attestation_token, PuK.Client.Sig,</text><text fill="#000000" font-family="Helvetica" font-size="10" x="103.624" y="364.5322">signed_Hash_PuK.Client.Sig}</text><line style="stroke:#181818;stroke-width:1;" x1="474.2617" x2="516.2617" y1="394.5313" y2="394.5313"/><line style="stroke:#181818;stroke-width:1;" x1="516.2617" x2="516.2617" y1="394.5313" y2="407.5313"/><line style="stroke:#181818;stroke-width:1;" x1="475.2617" x2="516.2617" y1="407.5313" y2="407.5313"/><polygon fill="#181818" points="485.2617,403.5313,475.2617,407.5313,485.2617,411.5313,481.2617,407.5313" style="stroke:#181818;stroke-width:1;stroke-linejoin:miter;stroke-miterlimit:10;"/><text fill="#000000" font-family="Helvetica" font-size="10" x="481.2617" y="390.1729">(05)</text><text fill="#000000" font-family="Helvetica" font-size="10" x="505.7891" y="390.1729">Pr&#252;fe Token-Signatur &amp; Vertrauensstellung</text><line style="stroke:#181818;stroke-width:1;" x1="474.2617" x2="516.2617" y1="433.1719" y2="433.1719"/><line style="stroke:#181818;stroke-width:1;" x1="516.2617" x2="516.2617" y1="433.1719" y2="446.1719"/><line style="stroke:#181818;stroke-width:1;" x1="475.2617" x2="516.2617" y1="446.1719" y2="446.1719"/><polygon fill="#181818" points="485.2617,442.1719,475.2617,446.1719,485.2617,450.1719,481.2617,446.1719" style="stroke:#181818;stroke-width:1;stroke-linejoin:miter;stroke-miterlimit:10;"/><text fill="#000000" font-family="Helvetica" font-size="10" x="481.2617" y="428.8135">(06)</text><text fill="#000000" font-family="Helvetica" font-size="10" x="505.7891" y="428.8135">Extrahiere PuK.AK.Sig aus Token, pr&#252;fe signed_Hash_PuK.Client.Sig</text><line style="stroke:#181818;stroke-width:1;" x1="474.2617" x2="516.2617" y1="485.8125" y2="485.8125"/><line style="stroke:#181818;stroke-width:1;" x1="516.2617" x2="516.2617" y1="485.8125" y2="498.8125"/><line style="stroke:#181818;stroke-width:1;" x1="475.2617" x2="516.2617" y1="498.8125" y2="498.8125"/><polygon fill="#181818" points="485.2617,494.8125,475.2617,498.8125,485.2617,502.8125,481.2617,498.8125" style="stroke:#181818;stroke-width:1;stroke-linejoin:miter;stroke-miterlimit:10;"/><text fill="#000000" font-family="Helvetica" font-size="10" x="481.2617" y="481.4541">(07)</text><text fill="#000000" font-family="Helvetica" font-size="10" x="505.7891" y="481.4541">Store Client Placeholder (state: pending_user_binding)</text><polygon fill="#181818" points="83.0967,520.4531,73.0967,524.4531,83.0967,528.4531,79.0967,524.4531" style="stroke:#181818;stroke-width:1;stroke-linejoin:miter;stroke-miterlimit:10;"/><line style="stroke:#181818;stroke-width:1;stroke-dasharray:2,2;" x1="77.0967" x2="463.2617" y1="524.4531" y2="524.4531"/><text fill="#000000" font-family="Helvetica" font-size="10" x="89.0967" y="520.0947">(08)</text><text fill="#000000" font-family="Helvetica" font-size="10" x="113.624" y="520.0947">201 Created {client_id, status="pending_user_binding"}</text><?plantuml-src hLFHJjim57tFLzpbOGAr3Op72f2YDc8LGusQhjAcIf6RN18FruwSQqH1_Cq-Os_ysEoum1Xbuc4lSMpVUywvzrn_uB8GfaI8eeF6hCL0i8qo5D4D1K6mKZSGZl6Q5nZ2E5bCHaa-cdwPpWA0xYxLVFtmKxURbd0TGZgRNCJ9BFkMpPEBfqY0XcdY1M-O91W9ZdPXBOJVatcytOTmV7oBn4vFRGBAqi47ZwlN4SiLHq8DymaSHOSmjdajETBfOZ9EPY-LTTXdXkao1FUVdtsDP-CtDCM6wgoJb8xJfNHRfVaj8wuaPAYlKVzRe2-YrmkO83X7Bk6P7s8YRCc3pTKLoev_suV1gMVlzOQGJhCv76Yik6sdNiexzfoPqwR1av0rZS2m3x5Ryp-Gy-dg1nRKXzISHnuxodXrtt7v-XwfXh1WWfSSDRw9qwL9HGYQLpM1kdpCzLYs8_oItreCyXZkkwqKPafPd-DeAPCRqgpkeZwpjjvxAMuVc6d14LxHKXhRJ0jR2UI5PUIrX3KdA74DATi8nSees5bDHifMikrdAbY1jHAb7PGzLnCEeR4-SLdbfaMThtYtsRVZZQ95RzGhY-1QwPh9ShTPxxBAJKl-ujW1X_sbx6ugDnklx_ysq8Qtl99Ovgw1-NlSJVN3hqlqTGnib6HaD7o4XRL1CsDVZTKiX97LplGdpx2J4fyxfiwfkHVOUFotPRbt4GJ_oQOjZCNngOF148uEFy58eyqguQxeZdDUzi41cVOat8KKtWU_0G00?></g></svg>