<svg xmlns="http://www.w3.org/2000/svg" xmlns:xlink="http://www.w3.org/1999/xlink" contentStyleType="text/css" data-diagram-type="SEQUENCE" height="1332px" preserveAspectRatio="none" style="width:1140px;height:1332px;background:#FFFFFF;" version="1.1" viewBox="0 0 1140 1332" width="1140px" zoomAndPan="magnify"><?plantuml 1.2026.6?><defs/><g><rect fill="#FEFCFF" height="1306.6719" style="stroke:#181818;stroke-width:0.5;" width="109.625" x="205.4839" y="11"/><text fill="#000000" font-family="Helvetica" font-size="10" font-weight="700" x="217.4839" y="20.2822">Android Device</text><rect fill="#E6E6FA" height="1290.0313" style="stroke:#181818;stroke-width:0.5;" width="109.625" x="205.4839" y="27.6406"/><text fill="#000000" font-family="Helvetica" font-size="10" font-weight="700" x="249.2686" y="36.9229">App</text><rect fill="#EDFDEC" height="1306.6719" style="stroke:#181818;stroke-width:0.5;" width="147.7842" x="570.4736" y="11"/><text fill="#000000" font-family="Helvetica" font-size="10" font-weight="700" x="582.4736" y="20.2822">Anbieter TI 2.0 Dienst</text><rect fill="#FFF3E5" height="1290.0313" style="stroke:#181818;stroke-width:0.5;" width="147.7842" x="570.4736" y="27.6406"/><text fill="#000000" font-family="Helvetica" font-size="10" font-weight="700" x="611.2212" y="36.9229">ZETA Guard</text><g><title>Nutzer</title><rect fill="#000000" fill-opacity="0.00000" height="1125.1094" width="8" x="47.561" y="114.9219"/><line style="stroke:#000000;stroke-width:0.5;stroke-dasharray:5,5;" x1="51.061" x2="51.061" y1="114.9219" y2="1240.0313"/></g><g><title>ZETA Client</title><rect fill="#000000" fill-opacity="0.00000" height="1125.1094" width="8" x="256.7964" y="114.9219"/><line style="stroke:#000000;stroke-width:0.5;stroke-dasharray:5,5;" x1="260.2964" x2="260.2964" y1="114.9219" y2="1240.0313"/></g><g><title/><rect fill="#FFFFFF" height="1117.1094" style="stroke:#181818;stroke-width:1;" width="10" x="255.2964" y="122.9219"/></g><g><title>PDP</title><rect fill="#000000" fill-opacity="0.00000" height="1125.1094" width="8" x="640.8657" y="114.9219"/><line style="stroke:#000000;stroke-width:0.5;stroke-dasharray:5,5;" x1="644.3657" x2="644.3657" y1="114.9219" y2="1240.0313"/></g><g><title/><rect fill="#FFFFFF" height="531.4531" style="stroke:#181818;stroke-width:1;" width="10" x="639.3657" y="214.7656"/></g><g><title/><rect fill="#FFFFFF" height="412.8906" style="stroke:#181818;stroke-width:1;" width="10" x="639.3657" y="809.1406"/></g><text fill="#000000" font-family="Helvetica" font-size="10" x="31.4351" y="112.5635">Nutzer</text><ellipse cx="51.061" cy="51.7813" fill="#E2E2F0" rx="8" ry="8" style="stroke:#181818;stroke-width:0.5;"/><path d="M51.061,59.7813 L51.061,86.7813 M38.061,67.7813 L64.061,67.7813 M51.061,86.7813 L38.061,101.7813 M51.061,86.7813 L64.061,101.7813" fill="none" style="stroke:#181818;stroke-width:0.5;"/><rect fill="#FFE6CC" height="25.6406" rx="2.5" ry="2.5" style="stroke:#D79B00;stroke-width:0.5;" width="72.2471" x="224.1729" y="88.2813"/><text fill="#000000" font-family="Helvetica" font-size="10" x="231.1729" y="104.5635">ZETA Client</text><rect fill="#FFE6CC" height="37.2813" rx="2.5" ry="2.5" style="stroke:#D79B00;stroke-width:0.5;" width="116.9492" x="585.8911" y="76.6406"/><text fill="#000000" font-family="Helvetica" font-size="10" x="634.4854" y="92.9229">PDP</text><text fill="#000000" font-family="Helvetica" font-size="10" x="592.8911" y="104.5635">Authorization Server</text><text fill="#000000" font-family="Helvetica" font-size="10" x="31.4351" y="1309.3135">Nutzer</text><ellipse cx="51.061" cy="1248.5313" fill="#E2E2F0" rx="8" ry="8" style="stroke:#181818;stroke-width:0.5;"/><path d="M51.061,1256.5313 L51.061,1283.5313 M38.061,1264.5313 L64.061,1264.5313 M51.061,1283.5313 L38.061,1298.5313 M51.061,1283.5313 L64.061,1298.5313" fill="none" style="stroke:#181818;stroke-width:0.5;"/><rect fill="#FFE6CC" height="25.6406" rx="2.5" ry="2.5" style="stroke:#D79B00;stroke-width:0.5;" width="72.2471" x="224.1729" y="1240.0313"/><text fill="#000000" font-family="Helvetica" font-size="10" x="231.1729" y="1256.3135">ZETA Client</text><rect fill="#FFE6CC" height="37.2813" rx="2.5" ry="2.5" style="stroke:#D79B00;stroke-width:0.5;" width="116.9492" x="585.8911" y="1240.0313"/><text fill="#000000" font-family="Helvetica" font-size="10" x="634.4854" y="1256.3135">PDP</text><text fill="#000000" font-family="Helvetica" font-size="10" x="592.8911" y="1267.9541">Authorization Server</text><path d="M35.061,126.9219 L95.0171,126.9219 L95.0171,130.5625 L85.0171,140.5625 L35.061,140.5625 L35.061,126.9219" fill="#EEEEEE" style="stroke:#000000;stroke-width:1.5;"/><rect fill="none" height="1008.5469" style="stroke:#000000;stroke-width:1.5;" width="1085.8555" x="35.061" y="126.9219"/><text fill="#000000" font-family="Helvetica" font-size="10" font-weight="700" x="50.061" y="137.2041">alt</text><text fill="#000000" font-family="Helvetica" font-size="10" font-weight="700" x="110.0171" y="138.2041">[Kein ZETA Attestation Token vorhanden]</text><line style="stroke:#000000;stroke-width:1;stroke-dasharray:2,2;" x1="35.061" x2="1120.9165" y1="928.7031" y2="928.7031"/><text fill="#000000" font-family="Helvetica" font-size="10" font-weight="700" x="40.061" y="939.9854">[ZETA Attestation Token vorhanden (Fast-Path)]</text><polygon fill="#181818" points="627.3657,210.7656,637.3657,214.7656,627.3657,218.7656,631.3657,214.7656" style="stroke:#181818;stroke-width:1;stroke-linejoin:miter;stroke-miterlimit:10;"/><line style="stroke:#181818;stroke-width:1;" x1="265.2964" x2="633.3657" y1="214.7656" y2="214.7656"/><text fill="#000000" font-family="Helvetica" font-size="10" x="272.2964" y="187.126">(01)</text><text fill="#000000" font-family="Helvetica" font-size="10" x="296.8237" y="163.8447">POST /register</text><text fill="#000000" font-family="Helvetica" font-size="10" x="296.8237" y="175.4854">{attestation_type="android", PuK.AK.Sig,</text><text fill="#000000" font-family="Helvetica" font-size="10" x="296.8237" y="187.126">Android_Key_Attestation_Certificate_Chain,</text><text fill="#000000" font-family="Helvetica" font-size="10" x="296.8237" y="198.7666">PuK.Client.Sig, signed_Hash_PuK.Client.Sig,</text><text fill="#000000" font-family="Helvetica" font-size="10" x="296.8237" y="210.4072">play_integrity_token, redirect_uris}</text><line style="stroke:#181818;stroke-width:1;" x1="649.3657" x2="691.3657" y1="240.4063" y2="240.4063"/><line style="stroke:#181818;stroke-width:1;" x1="691.3657" x2="691.3657" y1="240.4063" y2="253.4063"/><line style="stroke:#181818;stroke-width:1;" x1="650.3657" x2="691.3657" y1="253.4063" y2="253.4063"/><polygon fill="#181818" points="660.3657,249.4063,650.3657,253.4063,660.3657,257.4063,656.3657,253.4063" style="stroke:#181818;stroke-width:1;stroke-linejoin:miter;stroke-miterlimit:10;"/><text fill="#000000" font-family="Helvetica" font-size="10" x="656.3657" y="236.0479">(02)</text><text fill="#000000" font-family="Helvetica" font-size="10" x="680.8931" y="236.0479">Validiere Zertifikatskette gegen Google Root CA</text><line style="stroke:#181818;stroke-width:1;" x1="649.3657" x2="691.3657" y1="279.0469" y2="279.0469"/><line style="stroke:#181818;stroke-width:1;" x1="691.3657" x2="691.3657" y1="279.0469" y2="292.0469"/><line style="stroke:#181818;stroke-width:1;" x1="650.3657" x2="691.3657" y1="292.0469" y2="292.0469"/><polygon fill="#181818" points="660.3657,288.0469,650.3657,292.0469,660.3657,296.0469,656.3657,292.0469" style="stroke:#181818;stroke-width:1;stroke-linejoin:miter;stroke-miterlimit:10;"/><text fill="#000000" font-family="Helvetica" font-size="10" x="656.3657" y="274.6885">(03)</text><text fill="#000000" font-family="Helvetica" font-size="10" x="680.8931" y="274.6885">Pr&#252;fe signed_Hash_PuK.Client.Sig</text><path d="M628.3657,304.0469 L692.1743,304.0469 L692.1743,307.6875 L682.1743,317.6875 L628.3657,317.6875 L628.3657,304.0469" fill="#EEEEEE" style="stroke:#000000;stroke-width:1.5;"/><rect fill="none" height="139.5625" style="stroke:#000000;stroke-width:1.5;" width="405.3906" x="628.3657" y="304.0469"/><text fill="#000000" font-family="Helvetica" font-size="10" font-weight="700" x="643.3657" y="314.3291">opt</text><text fill="#000000" font-family="Helvetica" font-size="10" font-weight="700" x="707.1743" y="315.3291">[Play Integrity Pr&#252;fung]</text><line style="stroke:#181818;stroke-width:1;" x1="649.3657" x2="691.3657" y1="345.3281" y2="345.3281"/><line style="stroke:#181818;stroke-width:1;" x1="691.3657" x2="691.3657" y1="345.3281" y2="358.3281"/><line style="stroke:#181818;stroke-width:1;" x1="650.3657" x2="691.3657" y1="358.3281" y2="358.3281"/><polygon fill="#181818" points="660.3657,354.3281,650.3657,358.3281,660.3657,362.3281,656.3657,358.3281" style="stroke:#181818;stroke-width:1;stroke-linejoin:miter;stroke-miterlimit:10;"/><text fill="#000000" font-family="Helvetica" font-size="10" x="656.3657" y="340.9697">(04)</text><text fill="#000000" font-family="Helvetica" font-size="10" x="680.8931" y="340.9697">Entschl&#252;ssele play_integrity_token (lokal/remote)</text><line style="stroke:#181818;stroke-width:1;" x1="649.3657" x2="691.3657" y1="383.9688" y2="383.9688"/><line style="stroke:#181818;stroke-width:1;" x1="691.3657" x2="691.3657" y1="383.9688" y2="396.9688"/><line style="stroke:#181818;stroke-width:1;" x1="650.3657" x2="691.3657" y1="396.9688" y2="396.9688"/><polygon fill="#181818" points="660.3657,392.9688,650.3657,396.9688,660.3657,400.9688,656.3657,396.9688" style="stroke:#181818;stroke-width:1;stroke-linejoin:miter;stroke-miterlimit:10;"/><text fill="#000000" font-family="Helvetica" font-size="10" x="656.3657" y="379.6104">(05)</text><text fill="#000000" font-family="Helvetica" font-size="10" x="680.8931" y="379.6104">Verifiziere Nonce (Muss Hash(PuK.Client.Sig) entsprechen)</text><line style="stroke:#181818;stroke-width:1;" x1="649.3657" x2="691.3657" y1="422.6094" y2="422.6094"/><line style="stroke:#181818;stroke-width:1;" x1="691.3657" x2="691.3657" y1="422.6094" y2="435.6094"/><line style="stroke:#181818;stroke-width:1;" x1="650.3657" x2="691.3657" y1="435.6094" y2="435.6094"/><polygon fill="#181818" points="660.3657,431.6094,650.3657,435.6094,660.3657,439.6094,656.3657,435.6094" style="stroke:#181818;stroke-width:1;stroke-linejoin:miter;stroke-miterlimit:10;"/><text fill="#000000" font-family="Helvetica" font-size="10" x="656.3657" y="418.251">(06)</text><text fill="#000000" font-family="Helvetica" font-size="10" x="680.8931" y="418.251">Werte Verdicts aus (appIntegrity, deviceIntegrity, accountDetails)</text><path d="M654.3657,462.6094 L654.3657,495.6094 L1075.3657,495.6094 L1075.3657,472.6094 L1065.3657,462.6094 L654.3657,462.6094" fill="#FEFFDD" style="stroke:#181818;stroke-width:0.5;"/><path d="M1065.3657,462.6094 L1065.3657,472.6094 L1075.3657,472.6094 L1065.3657,462.6094" fill="#FEFFDD" style="stroke:#181818;stroke-width:0.5;"/><text fill="#000000" font-family="Helvetica" font-size="10" x="660.3657" y="476.8916">PuK.AK.Sig muss mit dem Blatt-Zertifikat der Certificate Chain &#252;bereinstimmen.</text><text fill="#000000" font-family="Helvetica" font-size="10" x="660.3657" y="488.5322">Sicherheitsniveau: TrustedEnvironment oder StrongBox.</text><path d="M654.3657,505.8906 L654.3657,608.8906 L1099.3657,608.8906 L1099.3657,515.8906 L1089.3657,505.8906 L654.3657,505.8906" fill="#FEFFDD" style="stroke:#181818;stroke-width:0.5;"/><path d="M1089.3657,505.8906 L1089.3657,515.8906 L1099.3657,515.8906 L1089.3657,505.8906" fill="#FEFFDD" style="stroke:#181818;stroke-width:0.5;"/><text fill="#000000" font-family="Helvetica" font-size="10" x="660.3657" y="520.1729">Es werden zwei redirect_uris je App registriert (RFC 8252, claimed-HTTPS</text><text fill="#000000" font-family="Helvetica" font-size="10" x="660.3657" y="531.8135">Universal-/App-Links auf einer vom App-Hersteller kontrollierten Domain):</text><text fill="#000000" font-family="Helvetica" font-size="10" x="660.3657" y="543.4541">- https://&lt;App-FQDN&gt;/cb/&lt;app&gt;/oidc = oidc_redirect_uri</text><text fill="#000000" font-family="Helvetica" font-size="10" x="666.7231" y="555.0947">(SekIDP Auth Code Flow, redirection_endpoint des AuthS, nicht /token)</text><text fill="#000000" font-family="Helvetica" font-size="10" x="660.3657" y="566.7354">- https://&lt;App-FQDN&gt;/cb/&lt;app&gt;/app = app_redirect_uri</text><text fill="#000000" font-family="Helvetica" font-size="10" x="666.7231" y="578.376">(ZETA Guard Auth Code Flow, /token-Endpunkt des AuthS)</text><text fill="#000000" font-family="Helvetica" font-size="10" x="660.3657" y="590.0166">Beide Callbacks enden &#252;ber denselben App-Link/Universal-Link in der App.</text><text fill="#000000" font-family="Helvetica" font-size="10" x="660.3657" y="601.6572">Der ZETA Client unterscheidet den zu nutzenden AuthS-Endpunkt anhand des Pfads.</text><line style="stroke:#181818;stroke-width:1;" x1="649.3657" x2="691.3657" y1="631.6563" y2="631.6563"/><line style="stroke:#181818;stroke-width:1;" x1="691.3657" x2="691.3657" y1="631.6563" y2="644.6563"/><line style="stroke:#181818;stroke-width:1;" x1="650.3657" x2="691.3657" y1="644.6563" y2="644.6563"/><polygon fill="#181818" points="660.3657,640.6563,650.3657,644.6563,660.3657,648.6563,656.3657,644.6563" style="stroke:#181818;stroke-width:1;stroke-linejoin:miter;stroke-miterlimit:10;"/><text fill="#000000" font-family="Helvetica" font-size="10" x="656.3657" y="627.2979">(07)</text><text fill="#000000" font-family="Helvetica" font-size="10" x="680.8931" y="627.2979">Store Client Placeholder (state: pending_user_binding)</text><line style="stroke:#181818;stroke-width:1;" x1="649.3657" x2="691.3657" y1="681.9375" y2="681.9375"/><line style="stroke:#181818;stroke-width:1;" x1="691.3657" x2="691.3657" y1="681.9375" y2="694.9375"/><line style="stroke:#181818;stroke-width:1;" x1="650.3657" x2="691.3657" y1="694.9375" y2="694.9375"/><polygon fill="#181818" points="660.3657,690.9375,650.3657,694.9375,660.3657,698.9375,656.3657,694.9375" style="stroke:#181818;stroke-width:1;stroke-linejoin:miter;stroke-miterlimit:10;"/><text fill="#000000" font-family="Helvetica" font-size="10" x="656.3657" y="671.7588">(08)</text><text fill="#000000" font-family="Helvetica" font-size="10" x="680.8931" y="665.9385">Generiere OTP &amp; transaction_id</text><text fill="#000000" font-family="Helvetica" font-size="10" x="680.8931" y="677.5791">Speichere Request im tempor&#228;ren Cache</text><polygon fill="#181818" points="62.061,716.5781,52.061,720.5781,62.061,724.5781,58.061,720.5781" style="stroke:#181818;stroke-width:1;stroke-linejoin:miter;stroke-miterlimit:10;"/><line style="stroke:#181818;stroke-width:1;" x1="56.061" x2="638.3657" y1="720.5781" y2="720.5781"/><text fill="#000000" font-family="Helvetica" font-size="10" x="68.061" y="716.2197">(09)</text><text fill="#000000" font-family="Helvetica" font-size="10" x="92.5884" y="716.2197">E-Mail mit OTP-Best&#228;tigungscode (Out-of-Band)</text><polygon fill="#181818" points="276.2964,742.2188,266.2964,746.2188,276.2964,750.2188,272.2964,746.2188" style="stroke:#181818;stroke-width:1;stroke-linejoin:miter;stroke-miterlimit:10;"/><line style="stroke:#181818;stroke-width:1;stroke-dasharray:2,2;" x1="270.2964" x2="638.3657" y1="746.2188" y2="746.2188"/><text fill="#000000" font-family="Helvetica" font-size="10" x="282.2964" y="741.8604">(10)</text><text fill="#000000" font-family="Helvetica" font-size="10" x="306.8237" y="741.8604">202 Accepted {transaction_id, message="OTP sent"}</text><polygon fill="#181818" points="243.2964,767.8594,253.2964,771.8594,243.2964,775.8594,247.2964,771.8594" style="stroke:#181818;stroke-width:1;stroke-linejoin:miter;stroke-miterlimit:10;"/><line style="stroke:#181818;stroke-width:1;" x1="51.061" x2="249.2964" y1="771.8594" y2="771.8594"/><text fill="#000000" font-family="Helvetica" font-size="10" x="58.061" y="767.501">(11)</text><text fill="#000000" font-family="Helvetica" font-size="10" x="82.5884" y="767.501">Gibt OTP-Best&#228;tigungscode ein</text><polygon fill="#181818" points="627.3657,805.1406,637.3657,809.1406,627.3657,813.1406,631.3657,809.1406" style="stroke:#181818;stroke-width:1;stroke-linejoin:miter;stroke-miterlimit:10;"/><line style="stroke:#181818;stroke-width:1;" x1="265.2964" x2="633.3657" y1="809.1406" y2="809.1406"/><text fill="#000000" font-family="Helvetica" font-size="10" x="272.2964" y="798.9619">(12)</text><text fill="#000000" font-family="Helvetica" font-size="10" x="296.8237" y="793.1416">POST /register/verify</text><text fill="#000000" font-family="Helvetica" font-size="10" x="296.8237" y="804.7822">{transaction_id, code}</text><line style="stroke:#181818;stroke-width:1;" x1="649.3657" x2="691.3657" y1="834.7813" y2="834.7813"/><line style="stroke:#181818;stroke-width:1;" x1="691.3657" x2="691.3657" y1="834.7813" y2="847.7813"/><line style="stroke:#181818;stroke-width:1;" x1="650.3657" x2="691.3657" y1="847.7813" y2="847.7813"/><polygon fill="#181818" points="660.3657,843.7813,650.3657,847.7813,660.3657,851.7813,656.3657,847.7813" style="stroke:#181818;stroke-width:1;stroke-linejoin:miter;stroke-miterlimit:10;"/><text fill="#000000" font-family="Helvetica" font-size="10" x="656.3657" y="830.4229">(13)</text><text fill="#000000" font-family="Helvetica" font-size="10" x="680.8931" y="830.4229">Verifiziere OTP-Code gegen Cache</text><line style="stroke:#181818;stroke-width:1;" x1="649.3657" x2="691.3657" y1="896.7031" y2="896.7031"/><line style="stroke:#181818;stroke-width:1;" x1="691.3657" x2="691.3657" y1="896.7031" y2="909.7031"/><line style="stroke:#181818;stroke-width:1;" x1="650.3657" x2="691.3657" y1="909.7031" y2="909.7031"/><polygon fill="#181818" points="660.3657,905.7031,650.3657,909.7031,660.3657,913.7031,656.3657,909.7031" style="stroke:#181818;stroke-width:1;stroke-linejoin:miter;stroke-miterlimit:10;"/><text fill="#000000" font-family="Helvetica" font-size="10" x="656.3657" y="880.7041">(14)</text><text fill="#000000" font-family="Helvetica" font-size="10" x="680.8931" y="869.0635">Stelle ZETA Guard Attestation Token aus</text><text fill="#000000" font-family="Helvetica" font-size="10" x="680.8931" y="880.7041">(attestation_type="android", signiert, cnf=PuK.AK.Sig,</text><text fill="#000000" font-family="Helvetica" font-size="10" x="680.8931" y="892.3447">enth&#228;lt die registrierten redirect_uris)</text><polygon fill="#181818" points="627.3657,995.9063,637.3657,999.9063,627.3657,1003.9063,631.3657,999.9063" style="stroke:#181818;stroke-width:1;stroke-linejoin:miter;stroke-miterlimit:10;"/><line style="stroke:#181818;stroke-width:1;" x1="265.2964" x2="633.3657" y1="999.9063" y2="999.9063"/><text fill="#000000" font-family="Helvetica" font-size="10" x="272.2964" y="978.0869">(15)</text><text fill="#000000" font-family="Helvetica" font-size="10" x="296.8237" y="960.626">POST /register</text><text fill="#000000" font-family="Helvetica" font-size="10" x="296.8237" y="972.2666">{attestation_type="zeta_attestation_token",</text><text fill="#000000" font-family="Helvetica" font-size="10" x="296.8237" y="983.9072">zeta_guard_attestation_token, PuK.Client.Sig,</text><text fill="#000000" font-family="Helvetica" font-size="10" x="296.8237" y="995.5479">Besitznachweis (Signatur/Assertion)}</text><line style="stroke:#181818;stroke-width:1;" x1="649.3657" x2="691.3657" y1="1025.5469" y2="1025.5469"/><line style="stroke:#181818;stroke-width:1;" x1="691.3657" x2="691.3657" y1="1025.5469" y2="1038.5469"/><line style="stroke:#181818;stroke-width:1;" x1="650.3657" x2="691.3657" y1="1038.5469" y2="1038.5469"/><polygon fill="#181818" points="660.3657,1034.5469,650.3657,1038.5469,660.3657,1042.5469,656.3657,1038.5469" style="stroke:#181818;stroke-width:1;stroke-linejoin:miter;stroke-miterlimit:10;"/><text fill="#000000" font-family="Helvetica" font-size="10" x="656.3657" y="1021.1885">(16)</text><text fill="#000000" font-family="Helvetica" font-size="10" x="680.8931" y="1021.1885">Pr&#252;fe Token-Signatur &amp; Vertrauensstellung</text><line style="stroke:#181818;stroke-width:1;" x1="649.3657" x2="691.3657" y1="1064.1875" y2="1064.1875"/><line style="stroke:#181818;stroke-width:1;" x1="691.3657" x2="691.3657" y1="1064.1875" y2="1077.1875"/><line style="stroke:#181818;stroke-width:1;" x1="650.3657" x2="691.3657" y1="1077.1875" y2="1077.1875"/><polygon fill="#181818" points="660.3657,1073.1875,650.3657,1077.1875,660.3657,1081.1875,656.3657,1077.1875" style="stroke:#181818;stroke-width:1;stroke-linejoin:miter;stroke-miterlimit:10;"/><text fill="#000000" font-family="Helvetica" font-size="10" x="656.3657" y="1059.8291">(17)</text><text fill="#000000" font-family="Helvetica" font-size="10" x="680.8931" y="1059.8291">Extrahiere PuK.AK.Sig aus Token, verifiziere Besitznachweis</text><line style="stroke:#181818;stroke-width:1;" x1="649.3657" x2="691.3657" y1="1114.4688" y2="1114.4688"/><line style="stroke:#181818;stroke-width:1;" x1="691.3657" x2="691.3657" y1="1114.4688" y2="1127.4688"/><line style="stroke:#181818;stroke-width:1;" x1="650.3657" x2="691.3657" y1="1127.4688" y2="1127.4688"/><polygon fill="#181818" points="660.3657,1123.4688,650.3657,1127.4688,660.3657,1131.4688,656.3657,1127.4688" style="stroke:#181818;stroke-width:1;stroke-linejoin:miter;stroke-miterlimit:10;"/><text fill="#000000" font-family="Helvetica" font-size="10" x="656.3657" y="1104.29">(18)</text><text fill="#000000" font-family="Helvetica" font-size="10" x="680.8931" y="1098.4697">&#220;bernimm registrierte redirect_uris aus dem Token</text><text fill="#000000" font-family="Helvetica" font-size="10" x="680.8931" y="1110.1104">(kein erneutes Senden im Fast-Path)</text><path d="M15,1154.4688 L15,1187.4688 L889,1187.4688 L889,1164.4688 L879,1154.4688 L15,1154.4688" fill="#FEFFDD" style="stroke:#181818;stroke-width:0.5;"/><path d="M879,1154.4688 L879,1164.4688 L889,1164.4688 L879,1154.4688" fill="#FEFFDD" style="stroke:#181818;stroke-width:0.5;"/><text fill="#000000" font-family="Helvetica" font-size="10" x="21" y="1168.751">Der zeta_guard_attestation_token zertifiziert die erfolgreiche Android Key Attestation, ist an PuK.AK.Sig gebunden (cnf) und enth&#228;lt die registrierten redirect_uris. Er kann</text><text fill="#000000" font-family="Helvetica" font-size="10" x="21" y="1180.3916">bei einer erneuten Registrierung im Fast-Path vorgelegt werden, sodass Hardware-Attestierung und redirect_uris nicht erneut &#252;bertragen werden m&#252;ssen.</text><polygon fill="#181818" points="276.2964,1218.0313,266.2964,1222.0313,276.2964,1226.0313,272.2964,1222.0313" style="stroke:#181818;stroke-width:1;stroke-linejoin:miter;stroke-miterlimit:10;"/><line style="stroke:#181818;stroke-width:1;stroke-dasharray:2,2;" x1="270.2964" x2="638.3657" y1="1222.0313" y2="1222.0313"/><text fill="#000000" font-family="Helvetica" font-size="10" x="282.2964" y="1211.8525">(19)</text><text fill="#000000" font-family="Helvetica" font-size="10" x="306.8237" y="1206.0322">201 Created {client_id, status="pending_user_binding",</text><text fill="#000000" font-family="Helvetica" font-size="10" x="306.8237" y="1217.6729">zeta_guard_attestation_token (bei HW-Attestierung ausgestellt)}</text><?plantuml-src ZLVRRXf947sVhwZmi06PWQobbLQMRGa3liYnOGrsj94brCmqGoz3zsnF3xv4-PDzp6VapJ-sfxkvsjYn7u2vTDMfgbDroX-4ZD8YvbIhrRDYceOfUr25gPbx4mGiCahJTSuriPnAbuLvvBeK14DrJwM6ZBKICRNuJ4IyHAtspLcpFMXsFdUk0YB_JfQLg7jrTj5eN_N-xlNR5yldH1dJHaGYOz9GCnKSNzRBrtQ_CRykqVx-8pViy107k8ojqM3nlK0n5Dm0OF-CTckVg8LpkR5EEpTdhVRL9Xvd-wHWEYwH_JqukMvSjLx1r2ZCkESWTLlTMsalbHQFp0WbgSVr3Bbu4w0FOcSdOAcXSowayqaDOtXkl9c-cd19CwN7JCPSEWpkm_xDan8UUYWxEtlKxVJwLDSy4Jc2lfNVsChOm3na_A34V5rALUeMvxN6UQqdaYhW-zk3S_umM4CmQ794F18HCtpG73CXyQuzw9sxmvIBHF9uSChoyU3PirkPWJ438GrFj30F0sCZgfBciT0yCeD2Y_pxCYIVqqL4UtJ3KX4BhZbzzJWcpEGJ3doKy0IfEL4gIJbTAGMID5wrqzLFFqVy3Q3BayiVAZFK1NOwMs3tLWgvUdcRgxOqUJHEdtxcEGUoRU5JELKJbg9EKsLuvKrpDrmZx4UNWqib8qxbYoBFoSPGteoX0egPF4DQnro-RVKBiicjxLX49YTMv5HcMROCjKgnQzkr6ooAL25D2tGMQRuo3pg_J9v4NAH5CZQaHiiYBFb6Knl2L1YucT9H2fQ6gmBZfgOrtf7Z7Jtz72890kqhfbCkQxUo9n2f7dDXSYbcd1LxrDS5c1-tvKne9QUsFvGrrpEuJ8xKVIq8NW4u1z_EwGvvGPKUxxZO92hzmmapYto3QHJ5KFdgk4b_xlwnMwKePMBAu_2qt-ykp5rRP3fdQLZ7oV2pa1ERxn4X4k2QgQcr69xY7SFJ5BScIW9icbhhGD5IKqHVsPlR2sbiJ9RlrUlxzjpnNwtBmteqhE-ZV8TrT7141sI_1kl8buKfz_ZahDLr4LCJgQ7ZLDsj-j6sF2gQAL0MTSXzQgeaaMf3TKVVohkWu0D8yFaAaDMiVG76kmdRm578oHgEXUSZBl1oawNfa4N89xV3qHC4BqiqtX3NYtpNLpMmbmGkMKhWSMrkhuNBDLqXy1plWrnmOzs32mL9As_EaSEoWiUadSuEPNV4ujnRjMFUiippxNa3zg2SVE4EOoRYOvLQL6KxUFaUPJWlP38eeAw3eN0NFloFdkJKaNGim1ehm5JkTuwlArjTdN0GpSsFJhzBlv7HJERCbrh4wAACkpx25EN_5XZy9APa-3HJ-kc7HhXDXiURfgtcOzI55vW5hezXEZp2sQSVHYGOaNbaordk52PKe_08-QcinElZN1wHENEdm7BZREn-GWz95Otfl7rssKOxsUm0uuTrv_3kqnQ6U_O8DQA8P-Xv-hOPMPMcFCzP0ispWUTsOVWUp05yONO0sZxqMqlOHdxPq8VfDfgb7sHG35-B45sy7fUVrXCltdw-wOrSdhM2TqbtVMOjFK31dmTbtNuFVYKL5gthA2-JMqgu9AATEhJUZI_s3yZ3hIo_jKfOORNp2l3aw61ZiK2SuwSVs72Wu-k34tOtPcib20AUvloNIn2LZrbkmYupuygsPBvh2x9RsM3ZjdLI0bxt9B6PUFdSxqmRwmqe8SoZH7wX5b1Ht9NC5BhUWFvhUxIolLhpbSG55ovEeJrHHPIym1HpWh1ODrwi6VTuQ-nglQQhLiZx7kbiZGsR8BVQU_eFmrD2MJTgz4p-h7chsCu5A36nIokEyGA9GbExyc1wh1N8hWU1KrjbEzxdhhfKN3jvtyeu7hezuD5fhQKGroEL9jhDB5hyau6jTPqoLK84c2xhgKduiF3q0KKh6F4nlPUQDMf3bfcqhJx4Jk2bUnwtnDXSd4InDiAtf4sm1IPclbEWKrJCtFgcupkcUUXHpyzQK9iPzxhhNNc1GzbjHyztbAdRCsKjMCdDzZdvEpKrPsvCBkSgq21VHNvGsgOslse6AjjSd7xP304KIRXZhW7n_mS0?></g></svg>