<svg xmlns="http://www.w3.org/2000/svg" xmlns:xlink="http://www.w3.org/1999/xlink" contentStyleType="text/css" data-diagram-type="SEQUENCE" height="1181px" preserveAspectRatio="none" style="width:1354px;height:1181px;background:#FFFFFF;" version="1.1" viewBox="0 0 1354 1181" width="1354px" zoomAndPan="magnify"><?plantuml 1.2026.6?><defs/><g><rect fill="#FEFCFF" height="1155.2344" style="stroke:#181818;stroke-width:0.5;" width="87.1543" x="56.2725" y="11"/><text fill="#000000" font-family="Helvetica" font-size="10" font-weight="700" x="68.2725" y="20.2822">Mobile App</text><rect fill="#EDFDEC" height="1155.2344" style="stroke:#181818;stroke-width:0.5;" width="476.3354" x="451.0757" y="11"/><text fill="#000000" font-family="Helvetica" font-size="10" font-weight="700" x="627.3513" y="20.2822">Anbieter TI 2.0 Dienst</text><rect fill="#FFF3E5" height="1138.5938" style="stroke:#181818;stroke-width:0.5;" width="476.3354" x="451.0757" y="27.6406"/><text fill="#000000" font-family="Helvetica" font-size="10" font-weight="700" x="656.0989" y="36.9229">ZETA Guard</text><rect fill="#EAF2FF" height="1155.2344" style="stroke:#181818;stroke-width:0.5;" width="111.6582" x="939.4111" y="11"/><text fill="#000000" font-family="Helvetica" font-size="10" font-weight="700" x="957.1348" y="20.2822">TI-F&#246;deration</text><g><title>ZETA Client</title><rect fill="#000000" fill-opacity="0.00000" height="1017.1094" width="8" x="96.3496" y="93.2031"/><line style="stroke:#000000;stroke-width:0.5;stroke-dasharray:5,5;" x1="99.8496" x2="99.8496" y1="93.2031" y2="1110.3125"/></g><g><title/><rect fill="#FFFFFF" height="1009.1094" style="stroke:#181818;stroke-width:1;" width="10" x="94.8496" y="101.2031"/></g><g><title>PDP</title><rect fill="#000000" fill-opacity="0.00000" height="1017.1094" width="8" x="510.0918" y="93.2031"/><line style="stroke:#000000;stroke-width:0.5;stroke-dasharray:5,5;" x1="513.5918" x2="513.5918" y1="93.2031" y2="1110.3125"/></g><g><title/><rect fill="#FFFFFF" height="807.0625" style="stroke:#181818;stroke-width:1;" width="10" x="508.5918" y="303.25"/></g><g><title/><rect fill="#FFFFFF" height="99.2031" style="stroke:#181818;stroke-width:1;" width="10" x="513.5918" y="868.9063"/></g><g><title>PDP</title><rect fill="#000000" fill-opacity="0.00000" height="1017.1094" width="8" x="879.625" y="93.2031"/><line style="stroke:#000000;stroke-width:0.5;stroke-dasharray:5,5;" x1="883.125" x2="883.125" y1="93.2031" y2="1110.3125"/></g><g><title/><rect fill="#FFFFFF" height="25.6406" style="stroke:#181818;stroke-width:1;" width="10" x="878.125" y="628.8594"/></g><g><title>Sektoraler IDP</title><rect fill="#000000" fill-opacity="0.00000" height="1017.1094" width="8" x="991.7402" y="93.2031"/><line style="stroke:#000000;stroke-width:0.5;stroke-dasharray:5,5;" x1="995.2402" x2="995.2402" y1="93.2031" y2="1110.3125"/></g><g><title/><rect fill="#FFFFFF" height="110.8438" style="stroke:#181818;stroke-width:1;" width="10" x="990.2402" y="352.1719"/></g><rect fill="#FFE6CC" height="25.6406" rx="2.5" ry="2.5" style="stroke:#D79B00;stroke-width:0.5;" width="72.2471" x="63.7261" y="66.5625"/><text fill="#000000" font-family="Helvetica" font-size="10" x="70.7261" y="82.8447">ZETA Client</text><rect fill="#FFE6CC" height="48.9219" rx="2.5" ry="2.5" style="stroke:#D79B00;stroke-width:0.5;" width="117.0322" x="455.0757" y="43.2813"/><text fill="#000000" font-family="Helvetica" font-size="10" x="503.7114" y="59.5635">PDP</text><text fill="#000000" font-family="Helvetica" font-size="10" x="462.1172" y="71.2041">Authorization Server</text><text fill="#000000" font-family="Helvetica" font-size="10" x="462.0757" y="82.8447">(OIDC Relying Party)</text><rect fill="#FFE6CC" height="37.2813" rx="2.5" ry="2.5" style="stroke:#D79B00;stroke-width:0.5;" width="80.5723" x="842.8389" y="54.9219"/><text fill="#000000" font-family="Helvetica" font-size="10" x="873.2446" y="71.2041">PDP</text><text fill="#000000" font-family="Helvetica" font-size="10" x="849.8389" y="82.8447">Policy Engine</text><rect fill="#E2E2F0" height="37.2813" rx="2.5" ry="2.5" style="stroke:#181818;stroke-width:0.5;" width="103.6582" x="943.4111" y="54.9219"/><text fill="#000000" font-family="Helvetica" font-size="10" x="959.5054" y="71.2041">Sektoraler IDP</text><text fill="#000000" font-family="Helvetica" font-size="10" x="950.4111" y="82.8447">(Token-Endpunkt)</text><rect fill="#FFE6CC" height="25.6406" rx="2.5" ry="2.5" style="stroke:#D79B00;stroke-width:0.5;" width="72.2471" x="63.7261" y="1110.3125"/><text fill="#000000" font-family="Helvetica" font-size="10" x="70.7261" y="1126.5947">ZETA Client</text><rect fill="#FFE6CC" height="48.9219" rx="2.5" ry="2.5" style="stroke:#D79B00;stroke-width:0.5;" width="117.0322" x="455.0757" y="1110.3125"/><text fill="#000000" font-family="Helvetica" font-size="10" x="503.7114" y="1126.5947">PDP</text><text fill="#000000" font-family="Helvetica" font-size="10" x="462.1172" y="1138.2354">Authorization Server</text><text fill="#000000" font-family="Helvetica" font-size="10" x="462.0757" y="1149.876">(OIDC Relying Party)</text><rect fill="#FFE6CC" height="37.2813" rx="2.5" ry="2.5" style="stroke:#D79B00;stroke-width:0.5;" width="80.5723" x="842.8389" y="1110.3125"/><text fill="#000000" font-family="Helvetica" font-size="10" x="873.2446" y="1126.5947">PDP</text><text fill="#000000" font-family="Helvetica" font-size="10" x="849.8389" y="1138.2354">Policy Engine</text><rect fill="#E2E2F0" height="37.2813" rx="2.5" ry="2.5" style="stroke:#181818;stroke-width:0.5;" width="103.6582" x="943.4111" y="1110.3125"/><text fill="#000000" font-family="Helvetica" font-size="10" x="959.5054" y="1126.5947">Sektoraler IDP</text><text fill="#000000" font-family="Helvetica" font-size="10" x="950.4111" y="1138.2354">(Token-Endpunkt)</text><path d="M60.8733,106.2031 L60.8733,127.2031 L1033.8733,127.2031 L1033.8733,116.2031 L1023.8733,106.2031 L60.8733,106.2031" fill="#FEFFDD" style="stroke:#181818;stroke-width:0.5;"/><path d="M1023.8733,106.2031 L1023.8733,116.2031 L1033.8733,116.2031 L1023.8733,106.2031" fill="#FEFFDD" style="stroke:#181818;stroke-width:0.5;"/><text fill="#000000" font-family="Helvetica" font-size="10" x="328.7285" y="120.4854">Der ZETA Client hat aus Teildiagramm (B) den AUTHORIZATION_CODE (IDP) erhalten.</text><rect fill="#EEEEEE" height="3" style="stroke:#EEEEEE;stroke-width:1;" width="1333.8799" x="10" y="151.6641"/><line style="stroke:#000000;stroke-width:1;" x1="10" x2="1343.8799" y1="151.6641" y2="151.6641"/><line style="stroke:#000000;stroke-width:1;" x1="10" x2="1343.8799" y1="154.6641" y2="154.6641"/><rect fill="#EEEEEE" height="19.6406" style="stroke:#000000;stroke-width:2;" width="286.7197" x="533.5801" y="142.8438"/><text fill="#000000" font-family="Helvetica" font-size="10" font-weight="700" x="539.5801" y="156.126">Innerer Flow: Token-Bezug beim sektoralen IDP</text><path d="M15,177.4844 L15,245.4844 L598,245.4844 L598,187.4844 L588,177.4844 L15,177.4844" fill="#FEFFDD" style="stroke:#181818;stroke-width:0.5;"/><path d="M588,177.4844 L588,187.4844 L598,187.4844 L588,177.4844" fill="#FEFFDD" style="stroke:#181818;stroke-width:0.5;"/><text fill="#000000" font-family="Helvetica" font-size="10" x="21" y="191.7666">Beide Auth Code Flows enden &#252;ber denselben App-Link/Universal-Link in der App. Der ZETA</text><text fill="#000000" font-family="Helvetica" font-size="10" x="21" y="203.4072">Client erkennt anhand des Pfads der redirect_uri, welcher AuthS-Endpunkt zu verwenden ist:</text><text fill="#000000" font-family="Helvetica" font-size="10" x="21" y="215.0479">- oidc_redirect_uri (/cb/&lt;app&gt;/oidc) &#8594; redirection_endpoint des AuthS (aus as-well-known),</text><text fill="#000000" font-family="Helvetica" font-size="10" x="27.3574" y="226.6885">nicht der /token-Endpunkt &#8594; SekIDP Auth Code Flow (innerer Flow).</text><text fill="#000000" font-family="Helvetica" font-size="10" x="21" y="238.3291">- app_redirect_uri (/cb/&lt;app&gt;/app) &#8594; /token-Endpunkt des AuthS &#8594; ZETA Guard Auth Code Flow (&#228;u&#223;erer Flow).</text><polygon fill="#181818" points="496.5918,299.25,506.5918,303.25,496.5918,307.25,500.5918,303.25" style="stroke:#181818;stroke-width:1;stroke-linejoin:miter;stroke-miterlimit:10;"/><line style="stroke:#181818;stroke-width:1;" x1="104.8496" x2="502.5918" y1="303.25" y2="303.25"/><text fill="#000000" font-family="Helvetica" font-size="10" x="111.8496" y="281.4307">(01)</text><text fill="#000000" font-family="Helvetica" font-size="10" x="136.377" y="263.9697">GET &lt;redirection_endpoint der OIDC Relying Party&gt;</text><text fill="#000000" font-family="Helvetica" font-size="10" x="136.377" y="275.6104">Folgt der 302-Redirection aus Teildiagramm (B)</text><text fill="#000000" font-family="Helvetica" font-size="10" x="136.377" y="287.251">Ruft redirection_endpoint aus as-well-known auf</text><text fill="#000000" font-family="Helvetica" font-size="10" x="136.377" y="298.8916">{code=AUTH_CODE_IDP, state=state_as}</text><polygon fill="#181818" points="978.2402,348.1719,988.2402,352.1719,978.2402,356.1719,982.2402,352.1719" style="stroke:#181818;stroke-width:1;stroke-linejoin:miter;stroke-miterlimit:10;"/><line style="stroke:#181818;stroke-width:1;" x1="518.5918" x2="984.2402" y1="352.1719" y2="352.1719"/><text fill="#000000" font-family="Helvetica" font-size="10" x="525.5918" y="336.1729">(02)</text><text fill="#000000" font-family="Helvetica" font-size="10" x="550.1191" y="324.5322">POST /token (mTLS, self_signed_tls_client_auth)</text><text fill="#000000" font-family="Helvetica" font-size="10" x="550.1191" y="336.1729">{grant_type=authorization_code, code=AUTH_CODE_IDP,</text><text fill="#000000" font-family="Helvetica" font-size="10" x="550.1191" y="347.8135">code_verifier=code_verifier_as, client_id, oidc_redirect_uri}</text><line style="stroke:#181818;stroke-width:1;" x1="1000.2402" x2="1042.2402" y1="401.0938" y2="401.0938"/><line style="stroke:#181818;stroke-width:1;" x1="1042.2402" x2="1042.2402" y1="401.0938" y2="414.0938"/><line style="stroke:#181818;stroke-width:1;" x1="1001.2402" x2="1042.2402" y1="414.0938" y2="414.0938"/><polygon fill="#181818" points="1011.2402,410.0938,1001.2402,414.0938,1011.2402,418.0938,1007.2402,414.0938" style="stroke:#181818;stroke-width:1;stroke-linejoin:miter;stroke-miterlimit:10;"/><text fill="#000000" font-family="Helvetica" font-size="10" x="1007.2402" y="385.0947">(03)</text><text fill="#000000" font-family="Helvetica" font-size="10" x="1031.7676" y="373.4541">Pr&#252;fe TLS-Clientzertifikat,</text><text fill="#000000" font-family="Helvetica" font-size="10" x="1031.7676" y="385.0947">verifiziere code_verifier_as gegen code_challenge_as (S256),</text><text fill="#000000" font-family="Helvetica" font-size="10" x="1031.7676" y="396.7354">invalidiere AUTHORIZATION_CODE</text><polygon fill="#181818" points="529.5918,459.0156,519.5918,463.0156,529.5918,467.0156,525.5918,463.0156" style="stroke:#181818;stroke-width:1;stroke-linejoin:miter;stroke-miterlimit:10;"/><line style="stroke:#181818;stroke-width:1;stroke-dasharray:2,2;" x1="523.5918" x2="989.2402" y1="463.0156" y2="463.0156"/><text fill="#000000" font-family="Helvetica" font-size="10" x="535.5918" y="447.0166">(04)</text><text fill="#000000" font-family="Helvetica" font-size="10" x="560.1191" y="435.376">200 OK</text><text fill="#000000" font-family="Helvetica" font-size="10" x="560.1191" y="447.0166">{id_token (JWE: ECDH-ES/A256GCM, signiert ES256),</text><text fill="#000000" font-family="Helvetica" font-size="10" x="560.1191" y="458.6572">access_token, token_type=Bearer, expires_in}</text><line style="stroke:#181818;stroke-width:1;" x1="518.5918" x2="560.5918" y1="500.2969" y2="500.2969"/><line style="stroke:#181818;stroke-width:1;" x1="560.5918" x2="560.5918" y1="500.2969" y2="513.2969"/><line style="stroke:#181818;stroke-width:1;" x1="519.5918" x2="560.5918" y1="513.2969" y2="513.2969"/><polygon fill="#181818" points="529.5918,509.2969,519.5918,513.2969,529.5918,517.2969,525.5918,513.2969" style="stroke:#181818;stroke-width:1;stroke-linejoin:miter;stroke-miterlimit:10;"/><text fill="#000000" font-family="Helvetica" font-size="10" x="525.5918" y="490.1182">(05)</text><text fill="#000000" font-family="Helvetica" font-size="10" x="550.1191" y="484.2979">Entschl&#252;ssele ID Token, verifiziere Signatur (kid/x5c),</text><text fill="#000000" font-family="Helvetica" font-size="10" x="550.1191" y="495.9385">pr&#252;fe iss/aud/nonce/exp, extrahiere Claims (KVNR, acr, amr, ...)</text><rect fill="#EEEEEE" height="3" style="stroke:#EEEEEE;stroke-width:1;" width="1333.8799" x="10" y="540.1172"/><line style="stroke:#000000;stroke-width:1;" x1="10" x2="1343.8799" y1="540.1172" y2="540.1172"/><line style="stroke:#000000;stroke-width:1;" x1="10" x2="1343.8799" y1="543.1172" y2="543.1172"/><rect fill="#EEEEEE" height="19.6406" style="stroke:#000000;stroke-width:2;" width="388.8975" x="482.4912" y="531.2969"/><text fill="#000000" font-family="Helvetica" font-size="10" font-weight="700" x="488.4912" y="544.5791">&#196;u&#223;erer Flow: Policy-Entscheidung &amp; Ausstellung der ZETA Token</text><line style="stroke:#181818;stroke-width:1;" x1="518.5918" x2="560.5918" y1="590.2188" y2="590.2188"/><line style="stroke:#181818;stroke-width:1;" x1="560.5918" x2="560.5918" y1="590.2188" y2="603.2188"/><line style="stroke:#181818;stroke-width:1;" x1="519.5918" x2="560.5918" y1="603.2188" y2="603.2188"/><polygon fill="#181818" points="529.5918,599.2188,519.5918,603.2188,529.5918,607.2188,525.5918,603.2188" style="stroke:#181818;stroke-width:1;stroke-linejoin:miter;stroke-miterlimit:10;"/><text fill="#000000" font-family="Helvetica" font-size="10" x="525.5918" y="580.04">(06)</text><text fill="#000000" font-family="Helvetica" font-size="10" x="550.1191" y="574.2197">Erzeuge Policy Engine Input</text><text fill="#000000" font-family="Helvetica" font-size="10" x="550.1191" y="585.8604">(Identit&#228;ts-Claims, Posture, Kontext)</text><polygon fill="#181818" points="866.125,624.8594,876.125,628.8594,866.125,632.8594,870.125,628.8594" style="stroke:#181818;stroke-width:1;stroke-linejoin:miter;stroke-miterlimit:10;"/><line style="stroke:#181818;stroke-width:1;" x1="518.5918" x2="872.125" y1="628.8594" y2="628.8594"/><text fill="#000000" font-family="Helvetica" font-size="10" x="525.5918" y="624.501">(07)</text><text fill="#000000" font-family="Helvetica" font-size="10" x="550.1191" y="624.501">POST /v1/data/authz {Policy Engine Input}</text><polygon fill="#181818" points="529.5918,650.5,519.5918,654.5,529.5918,658.5,525.5918,654.5" style="stroke:#181818;stroke-width:1;stroke-linejoin:miter;stroke-miterlimit:10;"/><line style="stroke:#181818;stroke-width:1;stroke-dasharray:2,2;" x1="523.5918" x2="877.125" y1="654.5" y2="654.5"/><text fill="#000000" font-family="Helvetica" font-size="10" x="535.5918" y="650.1416">(08)</text><text fill="#000000" font-family="Helvetica" font-size="10" x="560.1191" y="650.1416">Policy Decision</text><path d="M83.8496,666.5 L143.8057,666.5 L143.8057,670.1406 L133.8057,680.1406 L83.8496,680.1406 L83.8496,666.5" fill="#EEEEEE" style="stroke:#000000;stroke-width:1.5;"/><rect fill="none" height="364.8906" style="stroke:#000000;stroke-width:1.5;" width="815.2754" x="83.8496" y="666.5"/><text fill="#000000" font-family="Helvetica" font-size="10" font-weight="700" x="98.8496" y="676.7822">alt</text><text fill="#000000" font-family="Helvetica" font-size="10" font-weight="700" x="158.8057" y="677.7822">[Policy Decision allow]</text><line style="stroke:#000000;stroke-width:1;stroke-dasharray:2,2;" x1="83.8496" x2="899.125" y1="987.1094" y2="987.1094"/><text fill="#000000" font-family="Helvetica" font-size="10" font-weight="700" x="88.8496" y="998.3916">[Policy Decision deny]</text><line style="stroke:#181818;stroke-width:1;" x1="518.5918" x2="560.5918" y1="707.7813" y2="707.7813"/><line style="stroke:#181818;stroke-width:1;" x1="560.5918" x2="560.5918" y1="707.7813" y2="720.7813"/><line style="stroke:#181818;stroke-width:1;" x1="519.5918" x2="560.5918" y1="720.7813" y2="720.7813"/><polygon fill="#181818" points="529.5918,716.7813,519.5918,720.7813,529.5918,724.7813,525.5918,720.7813" style="stroke:#181818;stroke-width:1;stroke-linejoin:miter;stroke-miterlimit:10;"/><text fill="#000000" font-family="Helvetica" font-size="10" x="525.5918" y="703.4229">(09)</text><text fill="#000000" font-family="Helvetica" font-size="10" x="550.1191" y="703.4229">Erzeuge AUTHORIZATION_CODE (AS)</text><polygon fill="#181818" points="115.8496,754.0625,105.8496,758.0625,115.8496,762.0625,111.8496,758.0625" style="stroke:#181818;stroke-width:1;stroke-linejoin:miter;stroke-miterlimit:10;"/><line style="stroke:#181818;stroke-width:1;stroke-dasharray:2,2;" x1="109.8496" x2="507.5918" y1="758.0625" y2="758.0625"/><text fill="#000000" font-family="Helvetica" font-size="10" x="121.8496" y="747.8838">(10)</text><text fill="#000000" font-family="Helvetica" font-size="10" x="146.377" y="742.0635">302 Found</text><text fill="#000000" font-family="Helvetica" font-size="10" x="146.377" y="753.7041">Location: &lt;app_redirect_uri&gt;?code=AUTH_CODE_AS&amp;state=state_app</text><line style="stroke:#181818;stroke-width:1;" x1="104.8496" x2="146.8496" y1="795.3438" y2="795.3438"/><line style="stroke:#181818;stroke-width:1;" x1="146.8496" x2="146.8496" y1="795.3438" y2="808.3438"/><line style="stroke:#181818;stroke-width:1;" x1="105.8496" x2="146.8496" y1="808.3438" y2="808.3438"/><polygon fill="#181818" points="115.8496,804.3438,105.8496,808.3438,115.8496,812.3438,111.8496,808.3438" style="stroke:#181818;stroke-width:1;stroke-linejoin:miter;stroke-miterlimit:10;"/><text fill="#000000" font-family="Helvetica" font-size="10" x="111.8496" y="785.165">(11)</text><text fill="#000000" font-family="Helvetica" font-size="10" x="136.377" y="779.3447">Erzeuge DPoP Key Pair (PrK.DPoP.Sig, PuK.DPoP.Sig)</text><text fill="#000000" font-family="Helvetica" font-size="10" x="136.377" y="790.9854">und DPoP Proof</text><polygon fill="#181818" points="501.5918,864.9063,511.5918,868.9063,501.5918,872.9063,505.5918,868.9063" style="stroke:#181818;stroke-width:1;stroke-linejoin:miter;stroke-miterlimit:10;"/><line style="stroke:#181818;stroke-width:1;" x1="104.8496" x2="507.5918" y1="868.9063" y2="868.9063"/><text fill="#000000" font-family="Helvetica" font-size="10" x="111.8496" y="847.0869">(12)</text><text fill="#000000" font-family="Helvetica" font-size="10" x="136.377" y="829.626">POST /token  dpop: &lt;dpop_proof&gt;</text><text fill="#000000" font-family="Helvetica" font-size="10" x="136.377" y="841.2666">{grant_type=authorization_code, code=AUTH_CODE_AS,</text><text fill="#000000" font-family="Helvetica" font-size="10" x="136.377" y="852.9072">code_verifier=code_verifier_app, client_id, app_redirect_uri,</text><text fill="#000000" font-family="Helvetica" font-size="10" x="136.377" y="864.5479">client_assertion (JWT, PrK.Client.Sig signiert)}</text><line style="stroke:#181818;stroke-width:1;" x1="523.5918" x2="565.5918" y1="906.1875" y2="906.1875"/><line style="stroke:#181818;stroke-width:1;" x1="565.5918" x2="565.5918" y1="906.1875" y2="919.1875"/><line style="stroke:#181818;stroke-width:1;" x1="524.5918" x2="565.5918" y1="919.1875" y2="919.1875"/><polygon fill="#181818" points="534.5918,915.1875,524.5918,919.1875,534.5918,923.1875,530.5918,919.1875" style="stroke:#181818;stroke-width:1;stroke-linejoin:miter;stroke-miterlimit:10;"/><text fill="#000000" font-family="Helvetica" font-size="10" x="530.5918" y="896.0088">(13)</text><text fill="#000000" font-family="Helvetica" font-size="10" x="555.1191" y="890.1885">Verifiziere code_verifier_app gegen code_challenge_app (S256),</text><text fill="#000000" font-family="Helvetica" font-size="10" x="555.1191" y="901.8291">DPoP Proof und Client Assertion (Key Binding aus DCR)</text><polygon fill="#181818" points="115.8496,964.1094,105.8496,968.1094,115.8496,972.1094,111.8496,968.1094" style="stroke:#181818;stroke-width:1;stroke-linejoin:miter;stroke-miterlimit:10;"/><line style="stroke:#181818;stroke-width:1;stroke-dasharray:2,2;" x1="109.8496" x2="512.5918" y1="968.1094" y2="968.1094"/><text fill="#000000" font-family="Helvetica" font-size="10" x="121.8496" y="952.1104">(14)</text><text fill="#000000" font-family="Helvetica" font-size="10" x="146.377" y="940.4697">200 OK</text><text fill="#000000" font-family="Helvetica" font-size="10" x="146.377" y="952.1104">{access_token (DPoP-gebunden), refresh_token,</text><text fill="#000000" font-family="Helvetica" font-size="10" x="146.377" y="963.751">token_type=DPoP, expires_in}</text><polygon fill="#181818" points="115.8496,1019.3906,105.8496,1023.3906,115.8496,1027.3906,111.8496,1023.3906" style="stroke:#181818;stroke-width:1;stroke-linejoin:miter;stroke-miterlimit:10;"/><line style="stroke:#181818;stroke-width:1;stroke-dasharray:2,2;" x1="109.8496" x2="507.5918" y1="1023.3906" y2="1023.3906"/><text fill="#000000" font-family="Helvetica" font-size="10" x="121.8496" y="1019.0322">(15)</text><text fill="#000000" font-family="Helvetica" font-size="10" x="146.377" y="1019.0322">403 Forbidden {"reasons": ["..."]}</text><path d="M21.4941,1050.3906 L21.4941,1094.3906 L591.4941,1094.3906 L591.4941,1060.3906 L581.4941,1050.3906 L21.4941,1050.3906" fill="#FEFFDD" style="stroke:#181818;stroke-width:0.5;"/><path d="M581.4941,1050.3906 L581.4941,1060.3906 L591.4941,1060.3906 L581.4941,1050.3906" fill="#FEFFDD" style="stroke:#181818;stroke-width:0.5;"/><text fill="#000000" font-family="Helvetica" font-size="10" x="27.4941" y="1064.6729">Der ZETA Client besitzt nun ein DPoP-gebundenes Access Token und kann auf den Resource Server zugreifen</text><text fill="#000000" font-family="Helvetica" font-size="10" x="27.4941" y="1076.3135">(siehe Abb-ZETA-Zugriff-auf-RS-mit-ASL bzw. Abb-ZETA-Zugriff-auf-RS-ohne-ASL).</text><text fill="#000000" font-family="Helvetica" font-size="10" x="27.4941" y="1087.9541">Die Session-Erneuerung erfolgt &#252;ber Abb-ZETA-Token-Exchange-mit-Refresh-Token.</text><?plantuml-src bLVTRk965BxtKvnIQGiAXcossmiKKZdWP6co2m8sbRPKrc0VO8GPMpFZ_13bhke3z0Lwiy_GgxtZJVeaFJFcFsHNlG7icVFtdM--Ctp7HHXd4KAbKaspMUp6x279T4NVQyTnVe0-yZZYR2pPR0R5Hga6_MIAmZt7UJQ68V8PA9pgHB8O1RIQdJ9qafY73wulj0edoADCZ24J4NYPKXhZs3n7AE6Jt_ToRyiuS9i8y8P3rwouxLQpuNgPdg3GVCJd72LPkhDao6EKRYFcjA0SPvZSG-6zVGjUcXQWwT-q6dxGQ5-tkmv0ogJc8K-Pq90R0LDGiD7pvmASdivHixCp1obFShZqweaXHqsfzbjmKZc69krMjBtJRT-qcdvt7SFkjXulCoQZWgqjkFpeTPlhFRkPcC9wDf5EipCGvZ6HVCuq9mnwA6zH3aJHO01TZ1yuOTOXyuVILhBxFjiTR-CnxmBuOim5xXYjQjojjTzoBnR_K5zi2WNutlSkJYukzW2a1jiGlLNFfNb5cUQiy4MKPcAgIuMDznpZeoD791eXeSAMi9UDQGsQAoeicpDXrA1CxJ7ll4IS8NPyxBzhTrkVl7wh_O6WRVfG92ybG3bXiKPHSPnw7Lf2e2I_5t5ozqt6Ghtk74ZETeZAFoSAets2HaA_Z4zbG2JhnPSXMT0lXV7Gf9UcxZKNq-f7mScNOh5z12uiuscvigwNN2yhHadv6LgA2IFK8bJG6R58MHk94PSOwY2Jl0nt6DEPadboQxXXdW65kykJuahNoBaB2O_2ODiUYjLmM3rbQNfMDOib-FVFlzOHgEq1UKWJJhcO97AE5aqpc78fTEnEHN8dIcLBFS73YROvLlLEzwrNOeZ1TXStAFAjpfGgDarAvyKiwIDFSZ_49Z-pkZbwpm8kFcUBlxT36cAQRg-O2UvPxkdeg0QNVXzENm14mlFZU3OG5qaypfVV79-utOtjGHOFH3SRwSEOFmEQtem6uZ6aQkg6-PRmWHLPfPd6klqCc7foSYoe55erXNJQlVuID2ZE-jSzCi5u52W-5XW5EbP1QCiF65bIMe-K8ZtfXnJhR5kD0XE-30UI60ZpCY3caJwZhEyyKLPab8VWKVav6PySmuyyOyfNBhwC42ZHfRBFKHhPdp9DSNAdPWGWx4U1COwfIFiw916WKpqsc42nT_Bsfn9PSt7BOXvPw-S2agUn8e7hrk3a-1ZQLmG99w1o17_vrQ-1tsY-S_rUrIE_buttX2Y1ILur-AjGB0nHgTog3FOhX_GS6N6m37YV4W8gu6AhP_O7-RSJCrvyKTGg95novIh3TlazYibq9g4uvL7r_cremgOvUbofAikYgaX4Y5KAPU9foIRMiX4pFYDOhcu-TCl0Gig6pUYZKgcKh6ek_jW-AhM3W_pLLyQu5T9dHSavPcE4dNb40frcciP6ApBJNIy-Q-Nc-PdxWwBwY79NYT2KVsdZaoRSXjothwiHqwngs3g7nmC1dXmp4dTwkzpLn90h8hVZqDJOVmb4ekJEQjnBrHoQGrwlj6r3HZcJQqOOu2AXEz10N2UXFLKrEDtNlREVzywOrtkrSypJrFhVoDRA_oghPYVfm1K-a3Pn8aX7NbNCgmfnXc3DDazqtisDpExlo2GPxJbUw-6sZ039L4fvcwyWDLPd_rislDwtL2DDTsHZ7oHZljGjEYNIwYoTpZxLHzNc5PWArsUpz7ImaJSlAqgQlY0fjB3Mb0rqzcwxXCxRv6JQSCv5P4Q54VPcetkO7ZkAiwqVK3H1t34ECpFNIsMQ6YFIZibINWPYIr_CrbrrmLZXCsQJduSNIFhZyHiYgHpoo5mY7WiIcKg4AjJWjm99HE7t9pCwltPJsh_93L5nFTT0N0EaAz1EEMP-ssANsc5Gd39XPvwzwdLH9PaCSNaRfZlEM28VqRy5WABYEC7DVuLFjCP78vTitMxFdN7jUhrh6CxlAYzkIYO2pIvx2w6RFSLH1YFNbm8p-sU3RcOZEztpUzxQq_AoUq_S86BOSDsyDVdIrYNZFm00?></g></svg>