<svg xmlns="http://www.w3.org/2000/svg" xmlns:xlink="http://www.w3.org/1999/xlink" contentStyleType="text/css" data-diagram-type="SEQUENCE" height="980px" preserveAspectRatio="none" style="width:1110px;height:980px;background:#FFFFFF;" version="1.1" viewBox="0 0 1110 980" width="1110px" zoomAndPan="magnify"><?plantuml 1.2026.6?><defs/><g><rect fill="#FEFCFF" height="954.9063" style="stroke:#181818;stroke-width:0.5;" width="87.1543" x="16" y="11"/><text fill="#000000" font-family="Helvetica" font-size="10" font-weight="700" x="28" y="20.2822">Mobile App</text><rect fill="#EDFDEC" height="954.9063" style="stroke:#181818;stroke-width:0.5;" width="147.7842" x="331.7515" y="11"/><text fill="#000000" font-family="Helvetica" font-size="10" font-weight="700" x="343.7515" y="20.2822">Anbieter TI 2.0 Dienst</text><rect fill="#FFF3E5" height="938.2656" style="stroke:#181818;stroke-width:0.5;" width="147.7842" x="331.7515" y="27.6406"/><text fill="#000000" font-family="Helvetica" font-size="10" font-weight="700" x="372.499" y="36.9229">ZETA Guard</text><rect fill="#EAF2FF" height="954.9063" style="stroke:#181818;stroke-width:0.5;" width="386.5356" x="706.479" y="11"/><text fill="#000000" font-family="Helvetica" font-size="10" font-weight="700" x="861.6414" y="20.2822">TI-F&#246;deration</text><g><title>ZETA Client</title><rect fill="#000000" fill-opacity="0.00000" height="816.7813" width="8" x="56.0771" y="93.2031"/><line style="stroke:#000000;stroke-width:0.5;stroke-dasharray:5,5;" x1="59.5771" x2="59.5771" y1="93.2031" y2="909.9844"/></g><g><title>PDP</title><rect fill="#000000" fill-opacity="0.00000" height="816.7813" width="8" x="402.1436" y="93.2031"/><line style="stroke:#000000;stroke-width:0.5;stroke-dasharray:5,5;" x1="405.6436" x2="405.6436" y1="93.2031" y2="909.9844"/></g><g><title/><rect fill="#FFFFFF" height="613.0156" style="stroke:#181818;stroke-width:1;" width="10" x="400.6436" y="247.3281"/></g><g><title/><rect fill="#FFFFFF" height="25.6406" style="stroke:#181818;stroke-width:1;" width="10" x="405.6436" y="605.9375"/></g><g><title>Sektoraler IDP</title><rect fill="#000000" fill-opacity="0.00000" height="816.7813" width="8" x="753.4639" y="93.2031"/><line style="stroke:#000000;stroke-width:0.5;stroke-dasharray:5,5;" x1="756.9639" x2="756.9639" y1="93.2031" y2="909.9844"/></g><g><title/><rect fill="#FFFFFF" height="25.6406" style="stroke:#181818;stroke-width:1;" width="10" x="751.9639" y="362.5313"/></g><g><title/><rect fill="#FFFFFF" height="270.4063" style="stroke:#181818;stroke-width:1;" width="10" x="751.9639" y="552.6563"/></g><g><title>Federation</title><rect fill="#000000" fill-opacity="0.00000" height="816.7813" width="8" x="1051.6152" y="93.2031"/><line style="stroke:#000000;stroke-width:0.5;stroke-dasharray:5,5;" x1="1055.1152" x2="1055.1152" y1="93.2031" y2="909.9844"/></g><g><title/><rect fill="#FFFFFF" height="25.6406" style="stroke:#181818;stroke-width:1;" width="10" x="1050.1152" y="413.8125"/></g><g><title/><rect fill="#FFFFFF" height="25.6406" style="stroke:#181818;stroke-width:1;" width="10" x="1050.1152" y="657.2188"/></g><rect fill="#FFE6CC" height="25.6406" rx="2.5" ry="2.5" style="stroke:#D79B00;stroke-width:0.5;" width="72.2471" x="23.4536" y="66.5625"/><text fill="#000000" font-family="Helvetica" font-size="10" x="30.4536" y="82.8447">ZETA Client</text><rect fill="#FFE6CC" height="48.9219" rx="2.5" ry="2.5" style="stroke:#D79B00;stroke-width:0.5;" width="117.0322" x="347.1274" y="43.2813"/><text fill="#000000" font-family="Helvetica" font-size="10" x="395.7632" y="59.5635">PDP</text><text fill="#000000" font-family="Helvetica" font-size="10" x="354.1689" y="71.2041">Authorization Server</text><text fill="#000000" font-family="Helvetica" font-size="10" x="354.1274" y="82.8447">(OIDC Relying Party)</text><rect fill="#E2E2F0" height="37.2813" rx="2.5" ry="2.5" style="stroke:#181818;stroke-width:0.5;" width="92.9697" x="710.479" y="54.9219"/><text fill="#000000" font-family="Helvetica" font-size="10" x="721.229" y="71.2041">Sektoraler IDP</text><text fill="#000000" font-family="Helvetica" font-size="10" x="717.479" y="82.8447">(PAR-Endpunkt)</text><rect fill="#E2E2F0" height="37.2813" rx="2.5" ry="2.5" style="stroke:#181818;stroke-width:0.5;" width="67.7988" x="1021.2158" y="54.9219"/><text fill="#000000" font-family="Helvetica" font-size="10" x="1028.2158" y="71.2041">Federation</text><text fill="#000000" font-family="Helvetica" font-size="10" x="1038.04" y="82.8447">Master</text><rect fill="#FFE6CC" height="25.6406" rx="2.5" ry="2.5" style="stroke:#D79B00;stroke-width:0.5;" width="72.2471" x="23.4536" y="909.9844"/><text fill="#000000" font-family="Helvetica" font-size="10" x="30.4536" y="926.2666">ZETA Client</text><rect fill="#FFE6CC" height="48.9219" rx="2.5" ry="2.5" style="stroke:#D79B00;stroke-width:0.5;" width="117.0322" x="347.1274" y="909.9844"/><text fill="#000000" font-family="Helvetica" font-size="10" x="395.7632" y="926.2666">PDP</text><text fill="#000000" font-family="Helvetica" font-size="10" x="354.1689" y="937.9072">Authorization Server</text><text fill="#000000" font-family="Helvetica" font-size="10" x="354.1274" y="949.5479">(OIDC Relying Party)</text><rect fill="#E2E2F0" height="37.2813" rx="2.5" ry="2.5" style="stroke:#181818;stroke-width:0.5;" width="92.9697" x="710.479" y="909.9844"/><text fill="#000000" font-family="Helvetica" font-size="10" x="721.229" y="926.2666">Sektoraler IDP</text><text fill="#000000" font-family="Helvetica" font-size="10" x="717.479" y="937.9072">(PAR-Endpunkt)</text><rect fill="#E2E2F0" height="37.2813" rx="2.5" ry="2.5" style="stroke:#181818;stroke-width:0.5;" width="67.7988" x="1021.2158" y="909.9844"/><text fill="#000000" font-family="Helvetica" font-size="10" x="1028.2158" y="926.2666">Federation</text><text fill="#000000" font-family="Helvetica" font-size="10" x="1038.04" y="937.9072">Master</text><path d="M15.438,106.2031 L15.438,127.2031 L449.438,127.2031 L449.438,116.2031 L439.438,106.2031 L15.438,106.2031" fill="#FEFFDD" style="stroke:#181818;stroke-width:0.5;"/><path d="M439.438,106.2031 L439.438,116.2031 L449.438,116.2031 L439.438,106.2031" fill="#FEFFDD" style="stroke:#181818;stroke-width:0.5;"/><text fill="#000000" font-family="Helvetica" font-size="10" x="21.438" y="120.4854">Der ZETA Client hat vom Fach-Client den fachlichen Request inkl. idp_iss erhalten.</text><line style="stroke:#181818;stroke-width:1;" x1="59.5771" x2="101.5771" y1="173.7656" y2="173.7656"/><line style="stroke:#181818;stroke-width:1;" x1="101.5771" x2="101.5771" y1="173.7656" y2="186.7656"/><line style="stroke:#181818;stroke-width:1;" x1="60.5771" x2="101.5771" y1="186.7656" y2="186.7656"/><polygon fill="#181818" points="70.5771,182.7656,60.5771,186.7656,70.5771,190.7656,66.5771,186.7656" style="stroke:#181818;stroke-width:1;stroke-linejoin:miter;stroke-miterlimit:10;"/><text fill="#000000" font-family="Helvetica" font-size="10" x="66.5771" y="157.7666">(01)</text><text fill="#000000" font-family="Helvetica" font-size="10" x="91.1045" y="146.126">Erzeuge PKCE (code_verifier_app),</text><text fill="#000000" font-family="Helvetica" font-size="10" x="91.1045" y="157.7666">code_challenge_app = S256(code_verifier_app),</text><text fill="#000000" font-family="Helvetica" font-size="10" x="91.1045" y="169.4072">state_app</text><polygon fill="#181818" points="388.6436,243.3281,398.6436,247.3281,388.6436,251.3281,392.6436,247.3281" style="stroke:#181818;stroke-width:1;stroke-linejoin:miter;stroke-miterlimit:10;"/><line style="stroke:#181818;stroke-width:1;" x1="59.5771" x2="394.6436" y1="247.3281" y2="247.3281"/><text fill="#000000" font-family="Helvetica" font-size="10" x="66.5771" y="225.5088">(02)</text><text fill="#000000" font-family="Helvetica" font-size="10" x="91.1045" y="208.0479">Authorization Request</text><text fill="#000000" font-family="Helvetica" font-size="10" x="91.1045" y="219.6885">{response_type=code, client_id, redirect_uri,</text><text fill="#000000" font-family="Helvetica" font-size="10" x="91.1045" y="231.3291">code_challenge_app, code_challenge_method=S256,</text><text fill="#000000" font-family="Helvetica" font-size="10" x="91.1045" y="242.9697">scope, state_app, idp_iss}</text><line style="stroke:#181818;stroke-width:1;" x1="410.6436" x2="452.6436" y1="296.25" y2="296.25"/><line style="stroke:#181818;stroke-width:1;" x1="452.6436" x2="452.6436" y1="296.25" y2="309.25"/><line style="stroke:#181818;stroke-width:1;" x1="411.6436" x2="452.6436" y1="309.25" y2="309.25"/><polygon fill="#181818" points="421.6436,305.25,411.6436,309.25,421.6436,313.25,417.6436,309.25" style="stroke:#181818;stroke-width:1;stroke-linejoin:miter;stroke-miterlimit:10;"/><text fill="#000000" font-family="Helvetica" font-size="10" x="417.6436" y="280.251">(03)</text><text fill="#000000" font-family="Helvetica" font-size="10" x="442.1709" y="268.6104">Erzeuge PKCE (code_verifier_as),</text><text fill="#000000" font-family="Helvetica" font-size="10" x="442.1709" y="280.251">code_challenge_as = S256(code_verifier_as),</text><text fill="#000000" font-family="Helvetica" font-size="10" x="442.1709" y="291.8916">state_as, nonce</text><path d="M389.6436,321.25 L453.4521,321.25 L453.4521,324.8906 L443.4521,334.8906 L389.6436,334.8906 L389.6436,321.25" fill="#EEEEEE" style="stroke:#000000;stroke-width:1.5;"/><rect fill="none" height="164.8438" style="stroke:#000000;stroke-width:1.5;" width="686.4717" x="389.6436" y="321.25"/><text fill="#000000" font-family="Helvetica" font-size="10" font-weight="700" x="404.6436" y="331.5322">opt</text><text fill="#000000" font-family="Helvetica" font-size="10" font-weight="700" x="468.4521" y="332.5322">[Entity Statement des IDP unbekannt]</text><polygon fill="#181818" points="739.9639,358.5313,749.9639,362.5313,739.9639,366.5313,743.9639,362.5313" style="stroke:#181818;stroke-width:1;stroke-linejoin:miter;stroke-miterlimit:10;"/><line style="stroke:#181818;stroke-width:1;" x1="410.6436" x2="745.9639" y1="362.5313" y2="362.5313"/><text fill="#000000" font-family="Helvetica" font-size="10" x="417.6436" y="358.1729">(04)</text><text fill="#000000" font-family="Helvetica" font-size="10" x="442.1709" y="358.1729">GET /.well-known/openid-federation</text><polygon fill="#181818" points="421.6436,384.1719,411.6436,388.1719,421.6436,392.1719,417.6436,388.1719" style="stroke:#181818;stroke-width:1;stroke-linejoin:miter;stroke-miterlimit:10;"/><line style="stroke:#181818;stroke-width:1;stroke-dasharray:2,2;" x1="415.6436" x2="750.9639" y1="388.1719" y2="388.1719"/><text fill="#000000" font-family="Helvetica" font-size="10" x="427.6436" y="383.8135">(05)</text><text fill="#000000" font-family="Helvetica" font-size="10" x="452.1709" y="383.8135">Entity Statement (signiert)</text><polygon fill="#181818" points="1038.1152,409.8125,1048.1152,413.8125,1038.1152,417.8125,1042.1152,413.8125" style="stroke:#181818;stroke-width:1;stroke-linejoin:miter;stroke-miterlimit:10;"/><line style="stroke:#181818;stroke-width:1;" x1="410.6436" x2="1044.1152" y1="413.8125" y2="413.8125"/><text fill="#000000" font-family="Helvetica" font-size="10" x="417.6436" y="409.4541">(06)</text><text fill="#000000" font-family="Helvetica" font-size="10" x="442.1709" y="409.4541">GET federation_fetch_endpoint?sub=&lt;idp_iss&gt;</text><polygon fill="#181818" points="421.6436,435.4531,411.6436,439.4531,421.6436,443.4531,417.6436,439.4531" style="stroke:#181818;stroke-width:1;stroke-linejoin:miter;stroke-miterlimit:10;"/><line style="stroke:#181818;stroke-width:1;stroke-dasharray:2,2;" x1="415.6436" x2="1049.1152" y1="439.4531" y2="439.4531"/><text fill="#000000" font-family="Helvetica" font-size="10" x="427.6436" y="435.0947">(07)</text><text fill="#000000" font-family="Helvetica" font-size="10" x="452.1709" y="435.0947">Entity Statement des IDP (signiert, Federation Master)</text><line style="stroke:#181818;stroke-width:1;" x1="410.6436" x2="452.6436" y1="465.0938" y2="465.0938"/><line style="stroke:#181818;stroke-width:1;" x1="452.6436" x2="452.6436" y1="465.0938" y2="478.0938"/><line style="stroke:#181818;stroke-width:1;" x1="411.6436" x2="452.6436" y1="478.0938" y2="478.0938"/><polygon fill="#181818" points="421.6436,474.0938,411.6436,478.0938,421.6436,482.0938,417.6436,478.0938" style="stroke:#181818;stroke-width:1;stroke-linejoin:miter;stroke-miterlimit:10;"/><text fill="#000000" font-family="Helvetica" font-size="10" x="417.6436" y="460.7354">(08)</text><text fill="#000000" font-family="Helvetica" font-size="10" x="442.1709" y="460.7354">Validiere Trust Chain &amp; importiere Signaturschl&#252;ssel des IDP</text><polygon fill="#181818" points="739.9639,548.6563,749.9639,552.6563,739.9639,556.6563,743.9639,552.6563" style="stroke:#181818;stroke-width:1;stroke-linejoin:miter;stroke-miterlimit:10;"/><line style="stroke:#181818;stroke-width:1;" x1="410.6436" x2="745.9639" y1="552.6563" y2="552.6563"/><text fill="#000000" font-family="Helvetica" font-size="10" x="417.6436" y="530.8369">(09)</text><text fill="#000000" font-family="Helvetica" font-size="10" x="442.1709" y="513.376">POST /PAR (mTLS, self_signed_tls_client_auth)</text><text fill="#000000" font-family="Helvetica" font-size="10" x="442.1709" y="525.0166">{client_id, redirect_uri, response_type=code,</text><text fill="#000000" font-family="Helvetica" font-size="10" x="442.1709" y="536.6572">code_challenge_as, code_challenge_method=S256,</text><text fill="#000000" font-family="Helvetica" font-size="10" x="442.1709" y="548.2979">scope, claims, acr_values, nonce, state_as}</text><path d="M384.6436,564.6563 L448.4521,564.6563 L448.4521,568.2969 L438.4521,578.2969 L384.6436,578.2969 L384.6436,564.6563" fill="#EEEEEE" style="stroke:#000000;stroke-width:1.5;"/><rect fill="none" height="176.4844" style="stroke:#000000;stroke-width:1.5;" width="691.4717" x="384.6436" y="564.6563"/><text fill="#000000" font-family="Helvetica" font-size="10" font-weight="700" x="399.6436" y="574.9385">opt</text><text fill="#000000" font-family="Helvetica" font-size="10" font-weight="700" x="463.4521" y="575.9385">[Entity Statement des Fachdienstes unbekannt]</text><polygon fill="#181818" points="426.6436,601.9375,416.6436,605.9375,426.6436,609.9375,422.6436,605.9375" style="stroke:#181818;stroke-width:1;stroke-linejoin:miter;stroke-miterlimit:10;"/><line style="stroke:#181818;stroke-width:1;" x1="420.6436" x2="750.9639" y1="605.9375" y2="605.9375"/><text fill="#000000" font-family="Helvetica" font-size="10" x="432.6436" y="601.5791">(10)</text><text fill="#000000" font-family="Helvetica" font-size="10" x="457.1709" y="601.5791">GET /.well-known/openid-federation</text><polygon fill="#181818" points="739.9639,627.5781,749.9639,631.5781,739.9639,635.5781,743.9639,631.5781" style="stroke:#181818;stroke-width:1;stroke-linejoin:miter;stroke-miterlimit:10;"/><line style="stroke:#181818;stroke-width:1;stroke-dasharray:2,2;" x1="415.6436" x2="745.9639" y1="631.5781" y2="631.5781"/><text fill="#000000" font-family="Helvetica" font-size="10" x="422.6436" y="627.2197">(11)</text><text fill="#000000" font-family="Helvetica" font-size="10" x="447.1709" y="627.2197">Entity Statement des Fachdienstes (signiert)</text><polygon fill="#181818" points="1038.1152,653.2188,1048.1152,657.2188,1038.1152,661.2188,1042.1152,657.2188" style="stroke:#181818;stroke-width:1;stroke-linejoin:miter;stroke-miterlimit:10;"/><line style="stroke:#181818;stroke-width:1;" x1="761.9639" x2="1044.1152" y1="657.2188" y2="657.2188"/><text fill="#000000" font-family="Helvetica" font-size="10" x="768.9639" y="652.8604">(12)</text><text fill="#000000" font-family="Helvetica" font-size="10" x="793.4912" y="652.8604">GET federation_fetch_endpoint?sub=&lt;client_id&gt;</text><polygon fill="#181818" points="772.9639,678.8594,762.9639,682.8594,772.9639,686.8594,768.9639,682.8594" style="stroke:#181818;stroke-width:1;stroke-linejoin:miter;stroke-miterlimit:10;"/><line style="stroke:#181818;stroke-width:1;stroke-dasharray:2,2;" x1="766.9639" x2="1049.1152" y1="682.8594" y2="682.8594"/><text fill="#000000" font-family="Helvetica" font-size="10" x="778.9639" y="678.501">(13)</text><text fill="#000000" font-family="Helvetica" font-size="10" x="803.4912" y="678.501">Entity Statement des Fachdienstes (signiert)</text><line style="stroke:#181818;stroke-width:1;" x1="761.9639" x2="803.9639" y1="720.1406" y2="720.1406"/><line style="stroke:#181818;stroke-width:1;" x1="803.9639" x2="803.9639" y1="720.1406" y2="733.1406"/><line style="stroke:#181818;stroke-width:1;" x1="762.9639" x2="803.9639" y1="733.1406" y2="733.1406"/><polygon fill="#181818" points="772.9639,729.1406,762.9639,733.1406,772.9639,737.1406,768.9639,733.1406" style="stroke:#181818;stroke-width:1;stroke-linejoin:miter;stroke-miterlimit:10;"/><text fill="#000000" font-family="Helvetica" font-size="10" x="768.9639" y="709.9619">(14)</text><text fill="#000000" font-family="Helvetica" font-size="10" x="793.4912" y="704.1416">Validiere Trust Chain, Automatic Registration,</text><text fill="#000000" font-family="Helvetica" font-size="10" x="793.4912" y="715.7822">importiere Schl&#252;ssel (sig/enc) des Fachdienstes</text><line style="stroke:#181818;stroke-width:1;" x1="761.9639" x2="803.9639" y1="784.4219" y2="784.4219"/><line style="stroke:#181818;stroke-width:1;" x1="803.9639" x2="803.9639" y1="784.4219" y2="797.4219"/><line style="stroke:#181818;stroke-width:1;" x1="762.9639" x2="803.9639" y1="797.4219" y2="797.4219"/><polygon fill="#181818" points="772.9639,793.4219,762.9639,797.4219,772.9639,801.4219,768.9639,797.4219" style="stroke:#181818;stroke-width:1;stroke-linejoin:miter;stroke-miterlimit:10;"/><text fill="#000000" font-family="Helvetica" font-size="10" x="768.9639" y="774.2432">(15)</text><text fill="#000000" font-family="Helvetica" font-size="10" x="793.4912" y="768.4229">Validiere PAR (redirect_uri, scope, claims,</text><text fill="#000000" font-family="Helvetica" font-size="10" x="793.4912" y="780.0635">TLS-Clientzertifikat), erzeuge request_uri</text><polygon fill="#181818" points="421.6436,819.0625,411.6436,823.0625,421.6436,827.0625,417.6436,823.0625" style="stroke:#181818;stroke-width:1;stroke-linejoin:miter;stroke-miterlimit:10;"/><line style="stroke:#181818;stroke-width:1;stroke-dasharray:2,2;" x1="415.6436" x2="750.9639" y1="823.0625" y2="823.0625"/><text fill="#000000" font-family="Helvetica" font-size="10" x="427.6436" y="818.7041">(16)</text><text fill="#000000" font-family="Helvetica" font-size="10" x="452.1709" y="818.7041">201 Created {request_uri, expires_in (max. 90s)}</text><polygon fill="#181818" points="70.5771,856.3438,60.5771,860.3438,70.5771,864.3438,66.5771,860.3438" style="stroke:#181818;stroke-width:1;stroke-linejoin:miter;stroke-miterlimit:10;"/><line style="stroke:#181818;stroke-width:1;stroke-dasharray:2,2;" x1="64.5771" x2="399.6436" y1="860.3438" y2="860.3438"/><text fill="#000000" font-family="Helvetica" font-size="10" x="76.5771" y="850.165">(17)</text><text fill="#000000" font-family="Helvetica" font-size="10" x="101.1045" y="844.3447">302 Found</text><text fill="#000000" font-family="Helvetica" font-size="10" x="101.1045" y="855.9854">Location: &lt;authorization_endpoint&gt;?client_id&amp;request_uri</text><path d="M23.2729,873.3438 L23.2729,894.3438 L792.2729,894.3438 L792.2729,883.3438 L782.2729,873.3438 L23.2729,873.3438" fill="#FEFFDD" style="stroke:#181818;stroke-width:0.5;"/><path d="M782.2729,873.3438 L782.2729,883.3438 L792.2729,883.3438 L782.2729,873.3438" fill="#FEFFDD" style="stroke:#181818;stroke-width:0.5;"/><text fill="#000000" font-family="Helvetica" font-size="10" x="231.9883" y="887.626">Weiter mit Teildiagramm (B) Abb-ZETA-OIDC-Nutzerauthentisierung.</text><?plantuml-src fLPHR-9647xthvXIwOfrcAHKhTGeoOc2YL2JWe2cKeLaBVO4LjXhTtUT2vpkRzrJt-wFTNPj73k1DbAV4BixyttxpJVZ_OQBCCuZX6xtBCkJs8lPBirrLpzfnt6-WmNoEE9iBLcIGBllNa0_rvjKyZtJF1KmmxzoL1eYLF2dl-Z38EOeD2HSmpHN6unE1BId_PbR0i0ZRVHNAyzay2RZuS0pGPI7F_0zHvcBjPUaAnwZz0e0vJYhz0bQTtOL-bdMWg5_FnxumM1oEvav01cJceSyOqIdPCKKj6eiMt1vkKVDhgyT515GmZ9hNwmuQfIm64ElUmv3Egte-7GskHyF_Lc5OK_RZ3Svar7BQX3S_DwV3QipJIRcOdDBP3gSBaLJd3dAHvHBqJOQa5JnZeirJ2byvzR80XpeDcalnjxewvS8fStMWc_z_gWt6htGOZoSMlmvRdKg6MbgbWYKAkBv8ifoiTLkwqNKwCu6ZV2GVYdkc2ADMiyaHAeHKhf1gM-dkEq536cfxeuDqrJp14Oit9G59GS9UA3_CG-fyfLFkDZ6NU1H5d2b0EM6nHf5rt7ACE-wJ7e1ljnZlaQO_ZhmeHsc4GR4XIo4Cc1PvdQMmYw6b2D6iKQp2bSmx_tuq_7ZIZDjJzNXx9tUlp_H2KlnIQBAKg4mqBiChqpY3eGsFE1H1oH6N6AeWrpoevJeT7CjGGAAhWnFGofCCyfOSUiSrFdiE8Mx3YJ_Gn9rJ15rGX1LqqDrGAGYHCT9Cmq-jQdUmTpi9KKbbJLPBbQuPK9esmGLDTeowjtu2pZhViGuzhOY_IZEw5Q2Hzv3vJ0RPX9vXmjvtiLhkBRYQq4SjTl46TqTO9vJ1W-emqr0ZirIBlG7bQ-kBalvhcqu-VpVuGwtgs0xyDmKKFJ42oPbCUvPp2EAG5Z8dAmzs30ku1tm94kfqSp6d78odKj5VV3rRwKmFk2PBglLjnHnEfcJYjIuq4uMjtDo1SOFWM66KQ1Z5PI-OnJdaZLFsH2EUFQ8Dzxcp31cFA6pB9J18ukfAqg_LAOrLZrf7JCK8ZjmwK_JGzOCjGvyeuTArGhPJXQrWVl2L2NmcorLwTmmrVz4fvyJ9hA3Das8JqXpQCsLBhXHJUhcUZQL0JX34Rgli0kV7KUqFclwfbdofI0JbWDzJ_HfTcoPTZiqjuiv98iXQMATLvtTE_yU1X99bGW-rKvI-5D6c2gWTcadxAaBFvyhztdSLTy0a-M7ynwCqbn4It6RXbQ62xXazLbT5UlwGrMeTtLgHxvaLee_a9jNWNdSD1z6lxWltY-_vKO0LhvYLF66wJh_0000?></g></svg>