<svg xmlns="http://www.w3.org/2000/svg" xmlns:xlink="http://www.w3.org/1999/xlink" contentStyleType="text/css" data-diagram-type="SEQUENCE" height="832px" preserveAspectRatio="none" style="width:1089px;height:832px;background:#FFFFFF;" version="1.1" viewBox="0 0 1089 832" width="1089px" zoomAndPan="magnify"><?plantuml 1.2026.6?><defs/><g><rect fill="#FEFCFF" height="806.9375" style="stroke:#181818;stroke-width:0.5;" width="139.0537" x="169.3345" y="11"/><text fill="#000000" font-family="Helvetica" font-size="10" font-weight="700" x="181.3345" y="20.2822">mobile Apple Device</text><rect fill="#E6E6FA" height="790.2969" style="stroke:#181818;stroke-width:0.5;" width="139.0537" x="169.3345" y="27.6406"/><text fill="#000000" font-family="Helvetica" font-size="10" font-weight="700" x="227.8335" y="36.9229">App</text><rect fill="#EDFDEC" height="806.9375" style="stroke:#181818;stroke-width:0.5;" width="147.7842" x="636.0015" y="11"/><text fill="#000000" font-family="Helvetica" font-size="10" font-weight="700" x="648.0015" y="20.2822">Anbieter TI 2.0 Dienst</text><rect fill="#FFF3E5" height="790.2969" style="stroke:#181818;stroke-width:0.5;" width="147.7842" x="636.0015" y="27.6406"/><text fill="#000000" font-family="Helvetica" font-size="10" font-weight="700" x="676.749" y="36.9229">ZETA Guard</text><g><title>Nutzer</title><rect fill="#000000" fill-opacity="0.00000" height="625.375" width="8" x="26.126" y="114.9219"/><line style="stroke:#000000;stroke-width:0.5;stroke-dasharray:5,5;" x1="29.626" x2="29.626" y1="114.9219" y2="740.2969"/></g><g><title>ZETA Client</title><rect fill="#000000" fill-opacity="0.00000" height="625.375" width="8" x="235.3613" y="114.9219"/><line style="stroke:#000000;stroke-width:0.5;stroke-dasharray:5,5;" x1="238.8613" x2="238.8613" y1="114.9219" y2="740.2969"/></g><g><title/><rect fill="#FFFFFF" height="617.375" style="stroke:#181818;stroke-width:1;" width="10" x="233.8613" y="122.9219"/></g><g><title>PDP</title><rect fill="#000000" fill-opacity="0.00000" height="625.375" width="8" x="706.3936" y="114.9219"/><line style="stroke:#000000;stroke-width:0.5;stroke-dasharray:5,5;" x1="709.8936" x2="709.8936" y1="114.9219" y2="740.2969"/></g><g><title/><rect fill="#FFFFFF" height="233.7656" style="stroke:#181818;stroke-width:1;" width="10" x="704.8936" y="179.8438"/></g><g><title/><rect fill="#FFFFFF" height="245.7656" style="stroke:#181818;stroke-width:1;" width="10" x="704.8936" y="476.5313"/></g><text fill="#000000" font-family="Helvetica" font-size="10" x="10" y="112.5635">Nutzer</text><ellipse cx="29.626" cy="51.7813" fill="#E2E2F0" rx="8" ry="8" style="stroke:#181818;stroke-width:0.5;"/><path d="M29.626,59.7813 L29.626,86.7813 M16.626,67.7813 L42.626,67.7813 M29.626,86.7813 L16.626,101.7813 M29.626,86.7813 L42.626,101.7813" fill="none" style="stroke:#181818;stroke-width:0.5;"/><rect fill="#FFE6CC" height="25.6406" rx="2.5" ry="2.5" style="stroke:#D79B00;stroke-width:0.5;" width="72.2471" x="202.7378" y="88.2813"/><text fill="#000000" font-family="Helvetica" font-size="10" x="209.7378" y="104.5635">ZETA Client</text><rect fill="#FFE6CC" height="37.2813" rx="2.5" ry="2.5" style="stroke:#D79B00;stroke-width:0.5;" width="116.9492" x="651.4189" y="76.6406"/><text fill="#000000" font-family="Helvetica" font-size="10" x="700.0132" y="92.9229">PDP</text><text fill="#000000" font-family="Helvetica" font-size="10" x="658.4189" y="104.5635">Authorization Server</text><text fill="#000000" font-family="Helvetica" font-size="10" x="10" y="809.5791">Nutzer</text><ellipse cx="29.626" cy="748.7969" fill="#E2E2F0" rx="8" ry="8" style="stroke:#181818;stroke-width:0.5;"/><path d="M29.626,756.7969 L29.626,783.7969 M16.626,764.7969 L42.626,764.7969 M29.626,783.7969 L16.626,798.7969 M29.626,783.7969 L42.626,798.7969" fill="none" style="stroke:#181818;stroke-width:0.5;"/><rect fill="#FFE6CC" height="25.6406" rx="2.5" ry="2.5" style="stroke:#D79B00;stroke-width:0.5;" width="72.2471" x="202.7378" y="740.2969"/><text fill="#000000" font-family="Helvetica" font-size="10" x="209.7378" y="756.5791">ZETA Client</text><rect fill="#FFE6CC" height="37.2813" rx="2.5" ry="2.5" style="stroke:#D79B00;stroke-width:0.5;" width="116.9492" x="651.4189" y="740.2969"/><text fill="#000000" font-family="Helvetica" font-size="10" x="700.0132" y="756.5791">PDP</text><text fill="#000000" font-family="Helvetica" font-size="10" x="658.4189" y="768.2197">Authorization Server</text><path d="M13.626,126.9219 L73.582,126.9219 L73.582,130.5625 L63.582,140.5625 L13.626,140.5625 L13.626,126.9219" fill="#EEEEEE" style="stroke:#000000;stroke-width:1.5;"/><rect fill="none" height="563.7344" style="stroke:#000000;stroke-width:1.5;" width="1055.6289" x="13.626" y="126.9219"/><text fill="#000000" font-family="Helvetica" font-size="10" font-weight="700" x="28.626" y="137.2041">alt</text><text fill="#000000" font-family="Helvetica" font-size="10" font-weight="700" x="88.582" y="138.2041">[Kein ZETA Attestation Token vorhanden]</text><line style="stroke:#000000;stroke-width:1;stroke-dasharray:2,2;" x1="13.626" x2="1069.2549" y1="534.1719" y2="534.1719"/><text fill="#000000" font-family="Helvetica" font-size="10" font-weight="700" x="18.626" y="545.4541">[ZETA Attestation Token vorhanden (Fast-Path)]</text><polygon fill="#181818" points="692.8936,175.8438,702.8936,179.8438,692.8936,183.8438,696.8936,179.8438" style="stroke:#181818;stroke-width:1;stroke-linejoin:miter;stroke-miterlimit:10;"/><line style="stroke:#181818;stroke-width:1;" x1="243.8613" x2="698.8936" y1="179.8438" y2="179.8438"/><text fill="#000000" font-family="Helvetica" font-size="10" x="250.8613" y="169.665">(01)</text><text fill="#000000" font-family="Helvetica" font-size="10" x="275.3887" y="163.8447">POST /register</text><text fill="#000000" font-family="Helvetica" font-size="10" x="275.3887" y="175.4854">{attestation_type="apple", Apple_Attestation_Object, PuK.Client.Sig, redirect_uris}</text><line style="stroke:#181818;stroke-width:1;" x1="714.8936" x2="756.8936" y1="205.4844" y2="205.4844"/><line style="stroke:#181818;stroke-width:1;" x1="756.8936" x2="756.8936" y1="205.4844" y2="218.4844"/><line style="stroke:#181818;stroke-width:1;" x1="715.8936" x2="756.8936" y1="218.4844" y2="218.4844"/><polygon fill="#181818" points="725.8936,214.4844,715.8936,218.4844,725.8936,222.4844,721.8936,218.4844" style="stroke:#181818;stroke-width:1;stroke-linejoin:miter;stroke-miterlimit:10;"/><text fill="#000000" font-family="Helvetica" font-size="10" x="721.8936" y="201.126">(02)</text><text fill="#000000" font-family="Helvetica" font-size="10" x="746.4209" y="201.126">Validiere Apple_Attestation_Object</text><path d="M719.8936,231.4844 L719.8936,275.4844 L954.8936,275.4844 L954.8936,241.4844 L944.8936,231.4844 L719.8936,231.4844" fill="#FEFFDD" style="stroke:#181818;stroke-width:0.5;"/><path d="M944.8936,231.4844 L944.8936,241.4844 L954.8936,241.4844 L944.8936,231.4844" fill="#FEFFDD" style="stroke:#181818;stroke-width:0.5;"/><text fill="#000000" font-family="Helvetica" font-size="10" x="725.8936" y="245.7666">AuthS verifiziert Apple App Attest Root CA.</text><text fill="#000000" font-family="Helvetica" font-size="10" x="725.8936" y="257.4072">Extrahiert Hash(PuK.Client.Sig) aus Objekt</text><text fill="#000000" font-family="Helvetica" font-size="10" x="725.8936" y="269.0479">und vergleicht ihn mit dem Payload.</text><line style="stroke:#181818;stroke-width:1;" x1="714.8936" x2="756.8936" y1="299.0469" y2="299.0469"/><line style="stroke:#181818;stroke-width:1;" x1="756.8936" x2="756.8936" y1="299.0469" y2="312.0469"/><line style="stroke:#181818;stroke-width:1;" x1="715.8936" x2="756.8936" y1="312.0469" y2="312.0469"/><polygon fill="#181818" points="725.8936,308.0469,715.8936,312.0469,725.8936,316.0469,721.8936,312.0469" style="stroke:#181818;stroke-width:1;stroke-linejoin:miter;stroke-miterlimit:10;"/><text fill="#000000" font-family="Helvetica" font-size="10" x="721.8936" y="294.6885">(03)</text><text fill="#000000" font-family="Helvetica" font-size="10" x="746.4209" y="294.6885">Store Client Placeholder (state: pending_user_binding)</text><line style="stroke:#181818;stroke-width:1;" x1="714.8936" x2="756.8936" y1="349.3281" y2="349.3281"/><line style="stroke:#181818;stroke-width:1;" x1="756.8936" x2="756.8936" y1="349.3281" y2="362.3281"/><line style="stroke:#181818;stroke-width:1;" x1="715.8936" x2="756.8936" y1="362.3281" y2="362.3281"/><polygon fill="#181818" points="725.8936,358.3281,715.8936,362.3281,725.8936,366.3281,721.8936,362.3281" style="stroke:#181818;stroke-width:1;stroke-linejoin:miter;stroke-miterlimit:10;"/><text fill="#000000" font-family="Helvetica" font-size="10" x="721.8936" y="339.1494">(04)</text><text fill="#000000" font-family="Helvetica" font-size="10" x="746.4209" y="333.3291">Generiere OTP &amp; transaction_id</text><text fill="#000000" font-family="Helvetica" font-size="10" x="746.4209" y="344.9697">Speichere Request im tempor&#228;ren Cache</text><polygon fill="#181818" points="40.626,383.9688,30.626,387.9688,40.626,391.9688,36.626,387.9688" style="stroke:#181818;stroke-width:1;stroke-linejoin:miter;stroke-miterlimit:10;"/><line style="stroke:#181818;stroke-width:1;" x1="34.626" x2="703.8936" y1="387.9688" y2="387.9688"/><text fill="#000000" font-family="Helvetica" font-size="10" x="46.626" y="383.6104">(05)</text><text fill="#000000" font-family="Helvetica" font-size="10" x="71.1533" y="383.6104">E-Mail mit OTP-Best&#228;tigungscode (Out-of-Band)</text><polygon fill="#181818" points="254.8613,409.6094,244.8613,413.6094,254.8613,417.6094,250.8613,413.6094" style="stroke:#181818;stroke-width:1;stroke-linejoin:miter;stroke-miterlimit:10;"/><line style="stroke:#181818;stroke-width:1;stroke-dasharray:2,2;" x1="248.8613" x2="703.8936" y1="413.6094" y2="413.6094"/><text fill="#000000" font-family="Helvetica" font-size="10" x="260.8613" y="409.251">(06)</text><text fill="#000000" font-family="Helvetica" font-size="10" x="285.3887" y="409.251">202 Accepted {transaction_id, message="OTP sent"}</text><polygon fill="#181818" points="221.8613,435.25,231.8613,439.25,221.8613,443.25,225.8613,439.25" style="stroke:#181818;stroke-width:1;stroke-linejoin:miter;stroke-miterlimit:10;"/><line style="stroke:#181818;stroke-width:1;" x1="29.626" x2="227.8613" y1="439.25" y2="439.25"/><text fill="#000000" font-family="Helvetica" font-size="10" x="36.626" y="434.8916">(07)</text><text fill="#000000" font-family="Helvetica" font-size="10" x="61.1533" y="434.8916">Gibt OTP-Best&#228;tigungscode ein</text><polygon fill="#181818" points="692.8936,472.5313,702.8936,476.5313,692.8936,480.5313,696.8936,476.5313" style="stroke:#181818;stroke-width:1;stroke-linejoin:miter;stroke-miterlimit:10;"/><line style="stroke:#181818;stroke-width:1;" x1="243.8613" x2="698.8936" y1="476.5313" y2="476.5313"/><text fill="#000000" font-family="Helvetica" font-size="10" x="250.8613" y="466.3525">(08)</text><text fill="#000000" font-family="Helvetica" font-size="10" x="275.3887" y="460.5322">POST /register/verify</text><text fill="#000000" font-family="Helvetica" font-size="10" x="275.3887" y="472.1729">{transaction_id, code}</text><line style="stroke:#181818;stroke-width:1;" x1="714.8936" x2="756.8936" y1="502.1719" y2="502.1719"/><line style="stroke:#181818;stroke-width:1;" x1="756.8936" x2="756.8936" y1="502.1719" y2="515.1719"/><line style="stroke:#181818;stroke-width:1;" x1="715.8936" x2="756.8936" y1="515.1719" y2="515.1719"/><polygon fill="#181818" points="725.8936,511.1719,715.8936,515.1719,725.8936,519.1719,721.8936,515.1719" style="stroke:#181818;stroke-width:1;stroke-linejoin:miter;stroke-miterlimit:10;"/><text fill="#000000" font-family="Helvetica" font-size="10" x="721.8936" y="497.8135">(09)</text><text fill="#000000" font-family="Helvetica" font-size="10" x="746.4209" y="497.8135">Verifiziere OTP-Code gegen Cache</text><polygon fill="#181818" points="692.8936,601.375,702.8936,605.375,692.8936,609.375,696.8936,605.375" style="stroke:#181818;stroke-width:1;stroke-linejoin:miter;stroke-miterlimit:10;"/><line style="stroke:#181818;stroke-width:1;" x1="243.8613" x2="698.8936" y1="605.375" y2="605.375"/><text fill="#000000" font-family="Helvetica" font-size="10" x="250.8613" y="583.5557">(10)</text><text fill="#000000" font-family="Helvetica" font-size="10" x="275.3887" y="566.0947">POST /register</text><text fill="#000000" font-family="Helvetica" font-size="10" x="275.3887" y="577.7354">{attestation_type="zeta_attestation_token",</text><text fill="#000000" font-family="Helvetica" font-size="10" x="275.3887" y="589.376">zeta_guard_attestation_token, PuK.Client.Sig,</text><text fill="#000000" font-family="Helvetica" font-size="10" x="275.3887" y="601.0166">Besitznachweis (Signatur/Assertion)}</text><line style="stroke:#181818;stroke-width:1;" x1="714.8936" x2="756.8936" y1="631.0156" y2="631.0156"/><line style="stroke:#181818;stroke-width:1;" x1="756.8936" x2="756.8936" y1="631.0156" y2="644.0156"/><line style="stroke:#181818;stroke-width:1;" x1="715.8936" x2="756.8936" y1="644.0156" y2="644.0156"/><polygon fill="#181818" points="725.8936,640.0156,715.8936,644.0156,725.8936,648.0156,721.8936,644.0156" style="stroke:#181818;stroke-width:1;stroke-linejoin:miter;stroke-miterlimit:10;"/><text fill="#000000" font-family="Helvetica" font-size="10" x="721.8936" y="626.6572">(11)</text><text fill="#000000" font-family="Helvetica" font-size="10" x="746.4209" y="626.6572">Pr&#252;fe Token-Signatur &amp; Vertrauensstellung</text><line style="stroke:#181818;stroke-width:1;" x1="714.8936" x2="756.8936" y1="669.6563" y2="669.6563"/><line style="stroke:#181818;stroke-width:1;" x1="756.8936" x2="756.8936" y1="669.6563" y2="682.6563"/><line style="stroke:#181818;stroke-width:1;" x1="715.8936" x2="756.8936" y1="682.6563" y2="682.6563"/><polygon fill="#181818" points="725.8936,678.6563,715.8936,682.6563,725.8936,686.6563,721.8936,682.6563" style="stroke:#181818;stroke-width:1;stroke-linejoin:miter;stroke-miterlimit:10;"/><text fill="#000000" font-family="Helvetica" font-size="10" x="721.8936" y="665.2979">(12)</text><text fill="#000000" font-family="Helvetica" font-size="10" x="746.4209" y="665.2979">Extrahiere PuK.AK.Sig aus Token, verifiziere Besitznachweis</text><polygon fill="#181818" points="254.8613,718.2969,244.8613,722.2969,254.8613,726.2969,250.8613,722.2969" style="stroke:#181818;stroke-width:1;stroke-linejoin:miter;stroke-miterlimit:10;"/><line style="stroke:#181818;stroke-width:1;stroke-dasharray:2,2;" x1="248.8613" x2="703.8936" y1="722.2969" y2="722.2969"/><text fill="#000000" font-family="Helvetica" font-size="10" x="260.8613" y="717.9385">(13)</text><text fill="#000000" font-family="Helvetica" font-size="10" x="285.3887" y="717.9385">201 Created {client_id, status="pending_user_binding"}</text><?plantuml-src ZLJRRjj647tdLqpuq4YmAAT-5183Z4IxWkkGa6W7AGGGAt94RatjiijTnrQGlybdzCq_rjcbf5YDtEQ5j-NCd7FcpBpY8gzDWJ0SdZPcNGSrUvH63_M3zZoMQwdWfaK5h0N_Wz4RLBxdBUK3-6kvv3L2s3HqdU0zpz67INGx7KVPEFuzdda0xaVwmuTaDhqEezdyqpoDhlVd00rJckUyOKB3kEP8DrlgZoWDj-y-l7sxGStEpoa0HM6JUhjx1oKKIuwQKAPJE1k-WGd5jTeMZM-dasXsYCVblZHC5JxOv-po9fnDNi0K6btD7QHaaYo4VPMARvZcKi0SrJq9yfy0En8d9nwhDLmX5wucX5fZgxiqgRn30VTILKmKA1m6TzaA4fntC4vEHf34ynHE5PQy9S8ByOLzJvJfnmRV-Snsn1zqdScU5ShYvP-Owm4avchOvHxEUJa0XGLNT98PnTklhdJ7UrTv1BUivWL7XI-cTM52QWJ5oqg3NErYkroa55_n3UNGMzFGTQi3pAIa_eV3XOWUj6AL--itrbQzGwnzOAO5M_1EBuGXaIbjMIFFgIAl1AovXWBNaB37Mh9Yw1rbCoTVuqxUf6OvLh8ko40zomb7q53_k2WpGzxFbjozzBjSho5LXY370YwueWUQ3-YbySLD_sYjInJ4t2eNfmdy0aHFj3HPLZbUBCIyiUZj-Gp_CbOClWQDwqQgfs-AZ35cT7oOsexa2ABWcl7QKQRKmNkAVVgcUMb4sUQIPheN6nt8LV2UVDN_RglNM-C26VopL1grot7svcn03Smhk8gc7oB8dJo4yTNpubIzqoq8HZO4mZp7HcC1NmwP3M2DRSjASgGbtjfH_hgJy2ED658lLz0jbI0YWTcoe-aMphuEASYNBp6aUNhEwzPvxAuRgyuAwa3BwUJd1klKkVMHvklVf6pP5qPaRt3Nwc1i0PPOxbleULYJL_vl_g5tmLeT94nN_MDeVse9s8MK7NosHVp1GhYJqgw_7yz_M0qBGPfplH54u3Fo5dhqLJ1jr6dOKfjiQF-u78bw-dk57RbW5qN-9vb8KqCRci3NDRNoQFX-3w3355vPF6xwqmxf_JEv3q7QvUjvn_twAumLCcVNlRy7O4KmxJl_sDYJQVy1?></g></svg>