<svg xmlns="http://www.w3.org/2000/svg" xmlns:xlink="http://www.w3.org/1999/xlink" contentStyleType="text/css" data-diagram-type="SEQUENCE" height="621px" preserveAspectRatio="none" style="width:1039px;height:621px;background:#FFFFFF;" version="1.1" viewBox="0 0 1039 621" width="1039px" zoomAndPan="magnify"><?plantuml 1.2026.6?><defs/><g><rect fill="#FEFCFF" height="595.0156" style="stroke:#181818;stroke-width:0.5;" width="675.6772" x="16" y="11"/><text fill="#000000" font-family="Helvetica" font-size="10" font-weight="700" x="334.969" y="20.2822">Device</text><rect fill="#E6E6FA" height="578.375" style="stroke:#181818;stroke-width:0.5;" width="102.1934" x="589.4839" y="27.6406"/><text fill="#000000" font-family="Helvetica" font-size="10" font-weight="700" x="601.4839" y="36.9229">Prim&#228;rsystem</text><rect fill="#EDFDEC" height="595.0156" style="stroke:#181818;stroke-width:0.5;" width="147.7842" x="885.8994" y="11"/><text fill="#000000" font-family="Helvetica" font-size="10" font-weight="700" x="897.8994" y="20.2822">Anbieter TI 2.0 Dienst</text><rect fill="#FFF3E5" height="578.375" style="stroke:#181818;stroke-width:0.5;" width="147.7842" x="885.8994" y="27.6406"/><text fill="#000000" font-family="Helvetica" font-size="10" font-weight="700" x="926.647" y="36.9229">ZETA Guard</text><g><title>Secure Enclave</title><rect fill="#000000" fill-opacity="0.00000" height="480.1719" width="8" x="61.9546" y="81.5625"/><line style="stroke:#000000;stroke-width:0.5;stroke-dasharray:5,5;" x1="65.4546" x2="65.4546" y1="81.5625" y2="561.7344"/></g><g><title/><rect fill="#FFFFFF" height="472.1719" style="stroke:#181818;stroke-width:1;" width="10" x="60.4546" y="89.5625"/></g><g><title>OS .macOS. iOS. iPadOS.</title><rect fill="#000000" fill-opacity="0.00000" height="480.1719" width="8" x="361.522" y="81.5625"/><line style="stroke:#000000;stroke-width:0.5;stroke-dasharray:5,5;" x1="365.022" x2="365.022" y1="81.5625" y2="561.7344"/></g><g><title/><rect fill="#FFFFFF" height="472.1719" style="stroke:#181818;stroke-width:1;" width="10" x="360.022" y="89.5625"/></g><g><title>ZETA Client</title><rect fill="#000000" fill-opacity="0.00000" height="480.1719" width="8" x="637.0806" y="81.5625"/><line style="stroke:#000000;stroke-width:0.5;stroke-dasharray:5,5;" x1="640.5806" x2="640.5806" y1="81.5625" y2="561.7344"/></g><g><title/><rect fill="#FFFFFF" height="472.1719" style="stroke:#181818;stroke-width:1;" width="10" x="635.5806" y="89.5625"/></g><g><title>PDP</title><rect fill="#000000" fill-opacity="0.00000" height="480.1719" width="8" x="956.2915" y="81.5625"/><line style="stroke:#000000;stroke-width:0.5;stroke-dasharray:5,5;" x1="959.7915" x2="959.7915" y1="81.5625" y2="561.7344"/></g><g><title/><rect fill="#FFFFFF" height="25.6406" style="stroke:#181818;stroke-width:1;" width="10" x="954.7915" y="107.2031"/></g><rect fill="#E4E4F4" height="25.6406" rx="2.5" ry="2.5" style="stroke:#181818;stroke-width:0.5;" width="90.9092" x="20" y="54.9219"/><text fill="#000000" font-family="Helvetica" font-size="10" x="27" y="71.2041">Secure Enclave</text><rect fill="#E4E4F4" height="25.6406" rx="2.5" ry="2.5" style="stroke:#181818;stroke-width:0.5;" width="140.001" x="295.0215" y="54.9219"/><text fill="#000000" font-family="Helvetica" font-size="10" x="302.0215" y="71.2041">OS (macOS, iOS, iPadOS)</text><rect fill="#FFE6CC" height="25.6406" rx="2.5" ry="2.5" style="stroke:#D79B00;stroke-width:0.5;" width="72.2471" x="604.457" y="54.9219"/><text fill="#000000" font-family="Helvetica" font-size="10" x="611.457" y="71.2041">ZETA Client</text><rect fill="#FFE6CC" height="37.2813" rx="2.5" ry="2.5" style="stroke:#D79B00;stroke-width:0.5;" width="116.9492" x="901.3169" y="43.2813"/><text fill="#000000" font-family="Helvetica" font-size="10" x="949.9111" y="59.5635">PDP</text><text fill="#000000" font-family="Helvetica" font-size="10" x="908.3169" y="71.2041">Authorization Server</text><rect fill="#E4E4F4" height="25.6406" rx="2.5" ry="2.5" style="stroke:#181818;stroke-width:0.5;" width="90.9092" x="20" y="561.7344"/><text fill="#000000" font-family="Helvetica" font-size="10" x="27" y="578.0166">Secure Enclave</text><rect fill="#E4E4F4" height="25.6406" rx="2.5" ry="2.5" style="stroke:#181818;stroke-width:0.5;" width="140.001" x="295.0215" y="561.7344"/><text fill="#000000" font-family="Helvetica" font-size="10" x="302.0215" y="578.0166">OS (macOS, iOS, iPadOS)</text><rect fill="#FFE6CC" height="25.6406" rx="2.5" ry="2.5" style="stroke:#D79B00;stroke-width:0.5;" width="72.2471" x="604.457" y="561.7344"/><text fill="#000000" font-family="Helvetica" font-size="10" x="611.457" y="578.0166">ZETA Client</text><rect fill="#FFE6CC" height="37.2813" rx="2.5" ry="2.5" style="stroke:#D79B00;stroke-width:0.5;" width="116.9492" x="901.3169" y="561.7344"/><text fill="#000000" font-family="Helvetica" font-size="10" x="949.9111" y="578.0166">PDP</text><text fill="#000000" font-family="Helvetica" font-size="10" x="908.3169" y="589.6572">Authorization Server</text><polygon fill="#181818" points="942.7915,103.2031,952.7915,107.2031,942.7915,111.2031,946.7915,107.2031" style="stroke:#181818;stroke-width:1;stroke-linejoin:miter;stroke-miterlimit:10;"/><line style="stroke:#181818;stroke-width:1;" x1="645.5806" x2="948.7915" y1="107.2031" y2="107.2031"/><text fill="#000000" font-family="Helvetica" font-size="10" x="652.5806" y="102.8447">(01)</text><text fill="#000000" font-family="Helvetica" font-size="10" x="677.1079" y="102.8447">GET /nonce</text><polygon fill="#181818" points="656.5806,128.8438,646.5806,132.8438,656.5806,136.8438,652.5806,132.8438" style="stroke:#181818;stroke-width:1;stroke-linejoin:miter;stroke-miterlimit:10;"/><line style="stroke:#181818;stroke-width:1;stroke-dasharray:2,2;" x1="650.5806" x2="953.7915" y1="132.8438" y2="132.8438"/><text fill="#000000" font-family="Helvetica" font-size="10" x="662.5806" y="128.4854">(02)</text><text fill="#000000" font-family="Helvetica" font-size="10" x="687.1079" y="128.4854">Nonce</text><path d="M49.4546,144.8438 L109.4106,144.8438 L109.4106,148.4844 L99.4106,158.4844 L49.4546,158.4844 L49.4546,144.8438" fill="#EEEEEE" style="stroke:#000000;stroke-width:1.5;"/><rect fill="none" height="392.8906" style="stroke:#000000;stroke-width:1.5;" width="926.3369" x="49.4546" y="144.8438"/><text fill="#000000" font-family="Helvetica" font-size="10" font-weight="700" x="64.4546" y="155.126">alt</text><text fill="#000000" font-family="Helvetica" font-size="10" font-weight="700" x="124.4106" y="156.126">[Apple AppAttest Attestation]</text><line style="stroke:#000000;stroke-width:1;stroke-dasharray:2,2;" x1="49.4546" x2="975.7915" y1="468.8125" y2="468.8125"/><text fill="#000000" font-family="Helvetica" font-size="10" font-weight="700" x="54.4546" y="480.0947">[Software Attestation (Fallback)]</text><polygon fill="#181818" points="381.022,193.7656,371.022,197.7656,381.022,201.7656,377.022,197.7656" style="stroke:#181818;stroke-width:1;stroke-linejoin:miter;stroke-miterlimit:10;"/><line style="stroke:#181818;stroke-width:1;" x1="375.022" x2="634.5806" y1="197.7656" y2="197.7656"/><text fill="#000000" font-family="Helvetica" font-size="10" x="387.022" y="187.5869">(03)</text><text fill="#000000" font-family="Helvetica" font-size="10" x="411.5493" y="181.7666">Ermittle Posture</text><text fill="#000000" font-family="Helvetica" font-size="10" x="411.5493" y="193.4072">(SIP, Gatekeeper, OS-Version, Secure Boot)</text><polygon fill="#181818" points="623.5806,219.4063,633.5806,223.4063,623.5806,227.4063,627.5806,223.4063" style="stroke:#181818;stroke-width:1;stroke-linejoin:miter;stroke-miterlimit:10;"/><line style="stroke:#181818;stroke-width:1;stroke-dasharray:2,2;" x1="370.022" x2="629.5806" y1="223.4063" y2="223.4063"/><text fill="#000000" font-family="Helvetica" font-size="10" x="377.022" y="219.0479">(04)</text><text fill="#000000" font-family="Helvetica" font-size="10" x="401.5493" y="219.0479">Posture-Daten (Klartext)</text><line style="stroke:#181818;stroke-width:1;" x1="645.5806" x2="687.5806" y1="260.6875" y2="260.6875"/><line style="stroke:#181818;stroke-width:1;" x1="687.5806" x2="687.5806" y1="260.6875" y2="273.6875"/><line style="stroke:#181818;stroke-width:1;" x1="646.5806" x2="687.5806" y1="273.6875" y2="273.6875"/><polygon fill="#181818" points="656.5806,269.6875,646.5806,273.6875,656.5806,277.6875,652.5806,273.6875" style="stroke:#181818;stroke-width:1;stroke-linejoin:miter;stroke-miterlimit:10;"/><text fill="#000000" font-family="Helvetica" font-size="10" x="652.5806" y="250.5088">(05)</text><text fill="#000000" font-family="Helvetica" font-size="10" x="677.1079" y="244.6885">clientDataHash =</text><text fill="#000000" font-family="Helvetica" font-size="10" x="677.1079" y="256.3291">SHA-256(Nonce || Posture-Daten || PuK.Client.Sig)</text><polygon fill="#181818" points="381.022,306.9688,371.022,310.9688,381.022,314.9688,377.022,310.9688" style="stroke:#181818;stroke-width:1;stroke-linejoin:miter;stroke-miterlimit:10;"/><line style="stroke:#181818;stroke-width:1;" x1="375.022" x2="634.5806" y1="310.9688" y2="310.9688"/><text fill="#000000" font-family="Helvetica" font-size="10" x="387.022" y="300.79">(06)</text><text fill="#000000" font-family="Helvetica" font-size="10" x="411.5493" y="294.9697">DCAppAttest.generateAssertion(</text><text fill="#000000" font-family="Helvetica" font-size="10" x="411.5493" y="306.6104">keyId: Handle_PrK.AK.Sig,  clientDataHash)</text><polygon fill="#181818" points="81.4546,332.6094,71.4546,336.6094,81.4546,340.6094,77.4546,336.6094" style="stroke:#181818;stroke-width:1;stroke-linejoin:miter;stroke-miterlimit:10;"/><line style="stroke:#181818;stroke-width:1;" x1="75.4546" x2="359.022" y1="336.6094" y2="336.6094"/><text fill="#000000" font-family="Helvetica" font-size="10" x="87.4546" y="332.251">(07)</text><text fill="#000000" font-family="Helvetica" font-size="10" x="111.9819" y="332.251">Erstelle Hardware-Signatur &#252;ber clientDataHash</text><polygon fill="#181818" points="348.022,358.25,358.022,362.25,348.022,366.25,352.022,362.25" style="stroke:#181818;stroke-width:1;stroke-linejoin:miter;stroke-miterlimit:10;"/><line style="stroke:#181818;stroke-width:1;stroke-dasharray:2,2;" x1="70.4546" x2="354.022" y1="362.25" y2="362.25"/><text fill="#000000" font-family="Helvetica" font-size="10" x="77.4546" y="357.8916">(08)</text><text fill="#000000" font-family="Helvetica" font-size="10" x="101.9819" y="357.8916">Signatur + Authenticator Data (Counter)</text><polygon fill="#181818" points="623.5806,395.5313,633.5806,399.5313,623.5806,403.5313,627.5806,399.5313" style="stroke:#181818;stroke-width:1;stroke-linejoin:miter;stroke-miterlimit:10;"/><line style="stroke:#181818;stroke-width:1;stroke-dasharray:2,2;" x1="370.022" x2="629.5806" y1="399.5313" y2="399.5313"/><text fill="#000000" font-family="Helvetica" font-size="10" x="377.022" y="389.3525">(09)</text><text fill="#000000" font-family="Helvetica" font-size="10" x="401.5493" y="383.5322">dc_assertion</text><text fill="#000000" font-family="Helvetica" font-size="10" x="401.5493" y="395.1729">(CBOR: Signatur + authenticatorData)</text><line style="stroke:#181818;stroke-width:1;" x1="645.5806" x2="687.5806" y1="436.8125" y2="436.8125"/><line style="stroke:#181818;stroke-width:1;" x1="687.5806" x2="687.5806" y1="436.8125" y2="449.8125"/><line style="stroke:#181818;stroke-width:1;" x1="646.5806" x2="687.5806" y1="449.8125" y2="449.8125"/><polygon fill="#181818" points="656.5806,445.8125,646.5806,449.8125,656.5806,453.8125,652.5806,449.8125" style="stroke:#181818;stroke-width:1;stroke-linejoin:miter;stroke-miterlimit:10;"/><text fill="#000000" font-family="Helvetica" font-size="10" x="652.5806" y="426.6338">(10)</text><text fill="#000000" font-family="Helvetica" font-size="10" x="677.1079" y="420.8135">Generiere client-statement</text><text fill="#000000" font-family="Helvetica" font-size="10" x="677.1079" y="432.4541">(Evidence = dc_assertion + Posture-Daten im Klartext)</text><line style="stroke:#181818;stroke-width:1;" x1="645.5806" x2="687.5806" y1="516.7344" y2="516.7344"/><line style="stroke:#181818;stroke-width:1;" x1="687.5806" x2="687.5806" y1="516.7344" y2="529.7344"/><line style="stroke:#181818;stroke-width:1;" x1="646.5806" x2="687.5806" y1="529.7344" y2="529.7344"/><polygon fill="#181818" points="656.5806,525.7344,646.5806,529.7344,656.5806,533.7344,652.5806,529.7344" style="stroke:#181818;stroke-width:1;stroke-linejoin:miter;stroke-miterlimit:10;"/><text fill="#000000" font-family="Helvetica" font-size="10" x="652.5806" y="506.5557">(11)</text><text fill="#000000" font-family="Helvetica" font-size="10" x="677.1079" y="500.7354">Generiere client-statement</text><text fill="#000000" font-family="Helvetica" font-size="10" x="677.1079" y="512.376">(OS und PS Daten ungesichert)</text><?plantuml-src dLJ1Rfj04Btp5HCknR8XLQJsO2MMYA6svJWWhnkfbILh3LDd5LZGihX9bC_fP_IM7-iis4cS9ZtqiWlBcpTlPjvo96IIrIc2vnsNTPwv6RyhQktfMsrPrWVGGcS8qLfp8S7N6YlDjIWaX5kHeapGievAnJSv1ut5FMXLqz6wk0KxmAr8q8OWl9eCmzKmkeZc5a39bHQ9ABdKO3DCQeKGaWY-9IolW8Lm4Ku8FekZo_1oyMPWn0pKfit9UHAn7eXcYNaQiOxz3aCZArOYV_obghjAOsv3F9_C_73Elh55E7j27cORPW9fCnc_Xmj_zsx3wUazQZuOK03ArD1R-xrjWI_N0ZKgM4pWnFi80SLLsYIDhYP1E3zKrd2FQgvI6yppQlJLdmVlQF9hVTqs8GxYfJIlXHBtxN0OgYsgVmkqsYgwNIjYjB2GbbsXxc17t-r27qRX0evbOMRTdhhqVOzq2N3PVBDuHghAakn2QskLbuuX3S_q4Uj3g7AXZRlYejBaWgLqs2JkmOXhl44iKVK8vrwXgYYy1pkld1U5xX1Pz598Vq_Y1XGjmPbcr2kyRP3FQVVWfDa9oiUykeQpfMHZtptvzDbfQe67XrTyvg2UUcsynyIcyrSvmV2fR6-34XK5-bM5oXJlBEKDtatIFeovJ3DSnMhg-LF3r8DNSlR53UWgc2wHJpFgqfXyyPEJ8egHdBJ1u-yrMUimc6Bf0haxJK_GRZDGmec4wqA1WOCpB6f9xdoZcscoudljD9VXUJG_OEClsGpPstqUcJu8fAcrAbtZ1SpfYKZtVn0uEqX7x8Uz5payJnEp2e4LFxHfnS4FoVd2ispDavl_a4BLrtGlOWPjobfki1B9DIdgc1jZ_G40?></g></svg>