<svg xmlns="http://www.w3.org/2000/svg" xmlns:xlink="http://www.w3.org/1999/xlink" contentStyleType="text/css" data-diagram-type="SEQUENCE" height="795px" preserveAspectRatio="none" style="width:1048px;height:795px;background:#FFFFFF;" version="1.1" viewBox="0 0 1048 795" width="1048px" zoomAndPan="magnify"><?plantuml 1.2026.6?><defs/><g><rect fill="#FEFCFF" height="769.4219" style="stroke:#181818;stroke-width:0.5;" width="694.2637" x="16" y="11"/><text fill="#000000" font-family="Helvetica" font-size="10" font-weight="700" x="344.2622" y="20.2822">Device</text><rect fill="#E6E6FA" height="752.7813" style="stroke:#181818;stroke-width:0.5;" width="102.1934" x="608.0703" y="27.6406"/><text fill="#000000" font-family="Helvetica" font-size="10" font-weight="700" x="620.0703" y="36.9229">Prim&#228;rsystem</text><rect fill="#EDFDEC" height="769.4219" style="stroke:#181818;stroke-width:0.5;" width="147.7842" x="894.8325" y="11"/><text fill="#000000" font-family="Helvetica" font-size="10" font-weight="700" x="906.8325" y="20.2822">Anbieter TI 2.0 Dienst</text><rect fill="#FFF3E5" height="752.7813" style="stroke:#181818;stroke-width:0.5;" width="147.7842" x="894.8325" y="27.6406"/><text fill="#000000" font-family="Helvetica" font-size="10" font-weight="700" x="935.5801" y="36.9229">ZETA Guard</text><g><title>TEE . StrongBox</title><rect fill="#000000" fill-opacity="0.00000" height="654.5781" width="8" x="73.8613" y="81.5625"/><line style="stroke:#000000;stroke-width:0.5;stroke-dasharray:5,5;" x1="77.3613" x2="77.3613" y1="81.5625" y2="736.1406"/></g><g><title/><rect fill="#FFFFFF" height="646.5781" style="stroke:#181818;stroke-width:1;" width="10" x="72.3613" y="89.5625"/></g><g><title>OS .Android.</title><rect fill="#000000" fill-opacity="0.00000" height="654.5781" width="8" x="328.082" y="81.5625"/><line style="stroke:#000000;stroke-width:0.5;stroke-dasharray:5,5;" x1="331.582" x2="331.582" y1="81.5625" y2="736.1406"/></g><g><title/><rect fill="#FFFFFF" height="646.5781" style="stroke:#181818;stroke-width:1;" width="10" x="326.582" y="89.5625"/></g><g><title>ZETA Client</title><rect fill="#000000" fill-opacity="0.00000" height="654.5781" width="8" x="655.667" y="81.5625"/><line style="stroke:#000000;stroke-width:0.5;stroke-dasharray:5,5;" x1="659.167" x2="659.167" y1="81.5625" y2="736.1406"/></g><g><title/><rect fill="#FFFFFF" height="646.5781" style="stroke:#181818;stroke-width:1;" width="10" x="654.167" y="89.5625"/></g><g><title>PDP</title><rect fill="#000000" fill-opacity="0.00000" height="654.5781" width="8" x="965.2246" y="81.5625"/><line style="stroke:#000000;stroke-width:0.5;stroke-dasharray:5,5;" x1="968.7246" x2="968.7246" y1="81.5625" y2="736.1406"/></g><g><title/><rect fill="#FFFFFF" height="25.6406" style="stroke:#181818;stroke-width:1;" width="10" x="963.7246" y="107.2031"/></g><rect fill="#E4E4F4" height="37.2813" rx="2.5" ry="2.5" style="stroke:#181818;stroke-width:0.5;" width="114.7227" x="20" y="43.2813"/><text fill="#000000" font-family="Helvetica" font-size="10" x="37.0854" y="59.5635">TEE / StrongBox</text><text fill="#000000" font-family="Helvetica" font-size="10" x="27" y="71.2041">(Hardware Security)</text><rect fill="#E4E4F4" height="25.6406" rx="2.5" ry="2.5" style="stroke:#181818;stroke-width:0.5;" width="78.082" x="292.541" y="54.9219"/><text fill="#000000" font-family="Helvetica" font-size="10" x="299.541" y="71.2041">OS (Android)</text><rect fill="#FFE6CC" height="25.6406" rx="2.5" ry="2.5" style="stroke:#D79B00;stroke-width:0.5;" width="72.2471" x="623.0435" y="54.9219"/><text fill="#000000" font-family="Helvetica" font-size="10" x="630.0435" y="71.2041">ZETA Client</text><rect fill="#FFE6CC" height="37.2813" rx="2.5" ry="2.5" style="stroke:#D79B00;stroke-width:0.5;" width="116.9492" x="910.25" y="43.2813"/><text fill="#000000" font-family="Helvetica" font-size="10" x="958.8442" y="59.5635">PDP</text><text fill="#000000" font-family="Helvetica" font-size="10" x="917.25" y="71.2041">Authorization Server</text><rect fill="#E4E4F4" height="37.2813" rx="2.5" ry="2.5" style="stroke:#181818;stroke-width:0.5;" width="114.7227" x="20" y="736.1406"/><text fill="#000000" font-family="Helvetica" font-size="10" x="37.0854" y="752.4229">TEE / StrongBox</text><text fill="#000000" font-family="Helvetica" font-size="10" x="27" y="764.0635">(Hardware Security)</text><rect fill="#E4E4F4" height="25.6406" rx="2.5" ry="2.5" style="stroke:#181818;stroke-width:0.5;" width="78.082" x="292.541" y="736.1406"/><text fill="#000000" font-family="Helvetica" font-size="10" x="299.541" y="752.4229">OS (Android)</text><rect fill="#FFE6CC" height="25.6406" rx="2.5" ry="2.5" style="stroke:#D79B00;stroke-width:0.5;" width="72.2471" x="623.0435" y="736.1406"/><text fill="#000000" font-family="Helvetica" font-size="10" x="630.0435" y="752.4229">ZETA Client</text><rect fill="#FFE6CC" height="37.2813" rx="2.5" ry="2.5" style="stroke:#D79B00;stroke-width:0.5;" width="116.9492" x="910.25" y="736.1406"/><text fill="#000000" font-family="Helvetica" font-size="10" x="958.8442" y="752.4229">PDP</text><text fill="#000000" font-family="Helvetica" font-size="10" x="917.25" y="764.0635">Authorization Server</text><polygon fill="#181818" points="951.7246,103.2031,961.7246,107.2031,951.7246,111.2031,955.7246,107.2031" style="stroke:#181818;stroke-width:1;stroke-linejoin:miter;stroke-miterlimit:10;"/><line style="stroke:#181818;stroke-width:1;" x1="664.167" x2="957.7246" y1="107.2031" y2="107.2031"/><text fill="#000000" font-family="Helvetica" font-size="10" x="671.167" y="102.8447">(01)</text><text fill="#000000" font-family="Helvetica" font-size="10" x="695.6943" y="102.8447">(01) GET /nonce</text><polygon fill="#181818" points="675.167,128.8438,665.167,132.8438,675.167,136.8438,671.167,132.8438" style="stroke:#181818;stroke-width:1;stroke-linejoin:miter;stroke-miterlimit:10;"/><line style="stroke:#181818;stroke-width:1;stroke-dasharray:2,2;" x1="669.167" x2="962.7246" y1="132.8438" y2="132.8438"/><text fill="#000000" font-family="Helvetica" font-size="10" x="681.167" y="128.4854">(02)</text><text fill="#000000" font-family="Helvetica" font-size="10" x="705.6943" y="128.4854">(02) Nonce</text><path d="M61.3613,144.8438 L121.3174,144.8438 L121.3174,148.4844 L111.3174,158.4844 L61.3613,158.4844 L61.3613,144.8438" fill="#EEEEEE" style="stroke:#000000;stroke-width:1.5;"/><rect fill="none" height="567.2969" style="stroke:#000000;stroke-width:1.5;" width="923.3633" x="61.3613" y="144.8438"/><text fill="#000000" font-family="Helvetica" font-size="10" font-weight="700" x="76.3613" y="155.126">alt</text><text fill="#000000" font-family="Helvetica" font-size="10" font-weight="700" x="136.3174" y="156.126">[Android Key / ID Attestation]</text><line style="stroke:#000000;stroke-width:1;stroke-dasharray:2,2;" x1="61.3613" x2="984.7246" y1="643.2188" y2="643.2188"/><text fill="#000000" font-family="Helvetica" font-size="10" font-weight="700" x="66.3613" y="654.501">[Software Attestation (Fallback)]</text><polygon fill="#181818" points="347.582,217.0469,337.582,221.0469,347.582,225.0469,343.582,221.0469" style="stroke:#181818;stroke-width:1;stroke-linejoin:miter;stroke-miterlimit:10;"/><line style="stroke:#181818;stroke-width:1;" x1="341.582" x2="653.167" y1="221.0469" y2="221.0469"/><text fill="#000000" font-family="Helvetica" font-size="10" x="353.582" y="199.2275">(03)</text><text fill="#000000" font-family="Helvetica" font-size="10" x="378.1094" y="181.7666">(03) Ermittle Posture</text><text fill="#000000" font-family="Helvetica" font-size="10" x="378.1094" y="193.4072">(OS-Version, Security Patch Level,</text><text fill="#000000" font-family="Helvetica" font-size="10" x="378.1094" y="205.0479">Hersteller, Modell, Verified Boot,</text><text fill="#000000" font-family="Helvetica" font-size="10" x="378.1094" y="216.6885">App-Signaturinformationen)</text><polygon fill="#181818" points="642.167,242.6875,652.167,246.6875,642.167,250.6875,646.167,246.6875" style="stroke:#181818;stroke-width:1;stroke-linejoin:miter;stroke-miterlimit:10;"/><line style="stroke:#181818;stroke-width:1;stroke-dasharray:2,2;" x1="336.582" x2="648.167" y1="246.6875" y2="246.6875"/><text fill="#000000" font-family="Helvetica" font-size="10" x="343.582" y="242.3291">(04)</text><text fill="#000000" font-family="Helvetica" font-size="10" x="368.1094" y="242.3291">(04) Posture-Daten (Klartext)</text><line style="stroke:#181818;stroke-width:1;" x1="664.167" x2="706.167" y1="272.3281" y2="272.3281"/><line style="stroke:#181818;stroke-width:1;" x1="706.167" x2="706.167" y1="272.3281" y2="285.3281"/><line style="stroke:#181818;stroke-width:1;" x1="665.167" x2="706.167" y1="285.3281" y2="285.3281"/><polygon fill="#181818" points="675.167,281.3281,665.167,285.3281,675.167,289.3281,671.167,285.3281" style="stroke:#181818;stroke-width:1;stroke-linejoin:miter;stroke-miterlimit:10;"/><text fill="#000000" font-family="Helvetica" font-size="10" x="671.167" y="267.9697">(05)</text><text fill="#000000" font-family="Helvetica" font-size="10" x="695.6943" y="267.9697">(05) clientDataHash = Hash(Nonce + Posture-Daten)</text><polygon fill="#181818" points="347.582,330.25,337.582,334.25,347.582,338.25,343.582,334.25" style="stroke:#181818;stroke-width:1;stroke-linejoin:miter;stroke-miterlimit:10;"/><line style="stroke:#181818;stroke-width:1;" x1="341.582" x2="653.167" y1="334.25" y2="334.25"/><text fill="#000000" font-family="Helvetica" font-size="10" x="353.582" y="318.251">(06)</text><text fill="#000000" font-family="Helvetica" font-size="10" x="378.1094" y="306.6104">(06) KeyPairGenerator mit</text><text fill="#000000" font-family="Helvetica" font-size="10" x="378.1094" y="318.251">setAttestationChallenge(clientDataHash)</text><text fill="#000000" font-family="Helvetica" font-size="10" x="378.1094" y="329.8916">[KeyProperties.PURPOSE_SIGN, StrongBox]</text><polygon fill="#181818" points="93.3613,367.5313,83.3613,371.5313,93.3613,375.5313,89.3613,371.5313" style="stroke:#181818;stroke-width:1;stroke-linejoin:miter;stroke-miterlimit:10;"/><line style="stroke:#181818;stroke-width:1;" x1="87.3613" x2="325.582" y1="371.5313" y2="371.5313"/><text fill="#000000" font-family="Helvetica" font-size="10" x="99.3613" y="361.3525">(07)</text><text fill="#000000" font-family="Helvetica" font-size="10" x="123.8887" y="355.5322">(07) Erstelle hardwaregebundenes</text><text fill="#000000" font-family="Helvetica" font-size="10" x="123.8887" y="367.1729">Schl&#252;sselpaar + Attestierungszertifikat</text><polygon fill="#181818" points="314.582,404.8125,324.582,408.8125,314.582,412.8125,318.582,408.8125" style="stroke:#181818;stroke-width:1;stroke-linejoin:miter;stroke-miterlimit:10;"/><line style="stroke:#181818;stroke-width:1;stroke-dasharray:2,2;" x1="82.3613" x2="320.582" y1="408.8125" y2="408.8125"/><text fill="#000000" font-family="Helvetica" font-size="10" x="89.3613" y="398.6338">(08)</text><text fill="#000000" font-family="Helvetica" font-size="10" x="113.8887" y="392.8135">(08) Attestierungszertifikatskette</text><text fill="#000000" font-family="Helvetica" font-size="10" x="113.8887" y="404.4541">(X.509 mit KeyDescription Extension)</text><polygon fill="#181818" points="642.167,442.0938,652.167,446.0938,642.167,450.0938,646.167,446.0938" style="stroke:#181818;stroke-width:1;stroke-linejoin:miter;stroke-miterlimit:10;"/><line style="stroke:#181818;stroke-width:1;stroke-dasharray:2,2;" x1="336.582" x2="648.167" y1="446.0938" y2="446.0938"/><text fill="#000000" font-family="Helvetica" font-size="10" x="343.582" y="435.915">(09)</text><text fill="#000000" font-family="Helvetica" font-size="10" x="368.1094" y="430.0947">(09) attestationCertChain</text><text fill="#000000" font-family="Helvetica" font-size="10" x="368.1094" y="441.7354">(Root &#8594; Intermediate &#8594; Leaf + KeyDescription)</text><path d="M315.582,458.0938 L379.3906,458.0938 L379.3906,461.7344 L369.3906,471.7344 L315.582,471.7344 L315.582,458.0938" fill="#EEEEEE" style="stroke:#000000;stroke-width:1.5;"/><rect fill="none" height="98.2031" style="stroke:#000000;stroke-width:1.5;" width="359.585" x="315.582" y="458.0938"/><text fill="#000000" font-family="Helvetica" font-size="10" font-weight="700" x="330.582" y="468.376">opt</text><text fill="#000000" font-family="Helvetica" font-size="10" font-weight="700" x="394.3906" y="469.376">[Play Integrity API (erg&#228;nzend)]</text><polygon fill="#181818" points="347.582,507.0156,337.582,511.0156,347.582,515.0156,343.582,511.0156" style="stroke:#181818;stroke-width:1;stroke-linejoin:miter;stroke-miterlimit:10;"/><line style="stroke:#181818;stroke-width:1;" x1="341.582" x2="653.167" y1="511.0156" y2="511.0156"/><text fill="#000000" font-family="Helvetica" font-size="10" x="353.582" y="500.8369">(10)</text><text fill="#000000" font-family="Helvetica" font-size="10" x="378.1094" y="495.0166">(10) IntegrityTokenProvider.request(</text><text fill="#000000" font-family="Helvetica" font-size="10" x="378.1094" y="506.6572">requestHash = clientDataHash)</text><polygon fill="#181818" points="642.167,544.2969,652.167,548.2969,642.167,552.2969,646.167,548.2969" style="stroke:#181818;stroke-width:1;stroke-linejoin:miter;stroke-miterlimit:10;"/><line style="stroke:#181818;stroke-width:1;stroke-dasharray:2,2;" x1="336.582" x2="648.167" y1="548.2969" y2="548.2969"/><text fill="#000000" font-family="Helvetica" font-size="10" x="343.582" y="538.1182">(11)</text><text fill="#000000" font-family="Helvetica" font-size="10" x="368.1094" y="532.2979">(11) integrityToken</text><text fill="#000000" font-family="Helvetica" font-size="10" x="368.1094" y="543.9385">(JWS: deviceIntegrity + appIntegrity + accountDetails)</text><line style="stroke:#181818;stroke-width:1;" x1="664.167" x2="706.167" y1="611.2188" y2="611.2188"/><line style="stroke:#181818;stroke-width:1;" x1="706.167" x2="706.167" y1="611.2188" y2="624.2188"/><line style="stroke:#181818;stroke-width:1;" x1="665.167" x2="706.167" y1="624.2188" y2="624.2188"/><polygon fill="#181818" points="675.167,620.2188,665.167,624.2188,675.167,628.2188,671.167,624.2188" style="stroke:#181818;stroke-width:1;stroke-linejoin:miter;stroke-miterlimit:10;"/><text fill="#000000" font-family="Helvetica" font-size="10" x="671.167" y="595.2197">(12)</text><text fill="#000000" font-family="Helvetica" font-size="10" x="695.6943" y="583.5791">(12) Generiere client-statement</text><text fill="#000000" font-family="Helvetica" font-size="10" x="695.6943" y="595.2197">(Evidence = attestationCertChain</text><text fill="#000000" font-family="Helvetica" font-size="10" x="695.6943" y="606.8604">[+ integrityToken] + Posture-Daten im Klartext)</text><line style="stroke:#181818;stroke-width:1;" x1="664.167" x2="706.167" y1="691.1406" y2="691.1406"/><line style="stroke:#181818;stroke-width:1;" x1="706.167" x2="706.167" y1="691.1406" y2="704.1406"/><line style="stroke:#181818;stroke-width:1;" x1="665.167" x2="706.167" y1="704.1406" y2="704.1406"/><polygon fill="#181818" points="675.167,700.1406,665.167,704.1406,675.167,708.1406,671.167,704.1406" style="stroke:#181818;stroke-width:1;stroke-linejoin:miter;stroke-miterlimit:10;"/><text fill="#000000" font-family="Helvetica" font-size="10" x="671.167" y="680.9619">(13)</text><text fill="#000000" font-family="Helvetica" font-size="10" x="695.6943" y="675.1416">(13) Generiere client-statement</text><text fill="#000000" font-family="Helvetica" font-size="10" x="695.6943" y="686.7822">(OS und PS Daten ungesichert)</text><?plantuml-src XLHTSjis47xdAJPw8aUYR2LDqsGIpp0MAxEnJOweE6sZZ0ScLnB69C02e2Fh03r0pv1ZzCqtoKco86NBqiZj2m4G-_Fjjz_Y6HTPKUS8_Vv1LPU5Nx1RMPk-MHh7ULOfDYyP69GhCAf6nxcII-WCyOPds85XU14TXvV7yMayTW0gfWpFUCM4WSua3E40KgEacB-NowbmJvZAlpA5a69MAsvklGum3TRmD8meobaIduVdaxtnujJQTcXn0v4hoNFotk_MG4mKB---ANsh3POTICRHMH2Eqp_IINZsOBcTuhZWI8jDysSu2TRd3hnzkqB3Zex80KLkmpltQqj78Auu6bGmYU1v_n26vAUDJHfVHCDml8siYJsgYOmEsFtbw6Cm7Zw1AQZDegqy6IPJOOzIyHKpN0hYKTsW-c-0Jbj5j-l4ANs8RFgkA_MFrl6xNNW3xk70Wr4uWGCXHOPEU-MJqRsvtrWzz-2yCN1OGG3RPi07lALsHqC8Z45j6e24PvCfJgtp2mz2LN9Z2eH4QbCh96N4gN-1IfDBxq4Sa32JBU0KRx3eJSK9tHii2bGzE9CvxNf0Fdp6COVtKXgo2QhAJ_bSC0hBnKogie61mYCayUDQB9IVl7i4_f0P5E1-A8XvN1fl2_Z6uwK7MNCWUtR2z0BUWLtSXW_eRiVpzfJ_isU9IXXN8nIec94AY8sfq6WU4NUyO5IfcAExdS-RYi_MNyaAIIEe-yd7SHAduMKQZSvxcsdxiYxuo4wNJVpAyjuI28lr7CxngXOvuT1JaMQBukvVhR6e65DKIek6ewh5NAzijXc_PeRYsddr7ohwnNlAL5yZNL1tV--_F7njoxIr3r5dYbUDViCbqMIxlhS_hprWZoYXk4GB5nHmJEs6xt__0v6WgIinvyHty-CKsOp0R-Vn70elAmC9lMsDpxmHM914uAAQttqJAveNhnc-dOuD3hsDnqHUeo3oRtYEgg_mhvhGkLEntgqLiTEo9kfkSGCQDRuLbihwxHDbp9kdTGEo2wogjevP9ckAJnFF2-srC-_iL-o0PhKH6ZK7ry1yIoYMjAEKeIt5QlVT4rn_xkxW_B8hS-0bR0O72qtlkvoPvg5_96bmVoLDNx7i-edf6hpu7wp48SaLaXJQlAGsr3nR45ZFldVE3m00?></g></svg>