<svg xmlns="http://www.w3.org/2000/svg" xmlns:xlink="http://www.w3.org/1999/xlink" contentStyleType="text/css" data-diagram-type="SEQUENCE" height="1131px" preserveAspectRatio="none" style="width:959px;height:1131px;background:#FFFFFF;" version="1.1" viewBox="0 0 959 1131" width="959px" zoomAndPan="magnify"><?plantuml 1.2026.6?><defs/><g><rect fill="#FEFCFF" height="1105.3125" style="stroke:#181818;stroke-width:0.5;" width="275.8496" x="16" y="11"/><text fill="#000000" font-family="Helvetica" font-size="10" font-weight="700" x="122.3477" y="20.2822">Mobile App</text><rect fill="#EDFDEC" height="1105.3125" style="stroke:#181818;stroke-width:0.5;" width="374.2578" x="553.9019" y="11"/><text fill="#000000" font-family="Helvetica" font-size="10" font-weight="700" x="679.1387" y="20.2822">Anbieter TI 2.0 Dienst</text><rect fill="#FFF3E5" height="1088.6719" style="stroke:#181818;stroke-width:0.5;" width="374.2578" x="553.9019" y="27.6406"/><text fill="#000000" font-family="Helvetica" font-size="10" font-weight="700" x="707.8862" y="36.9229">ZETA Guard</text><g><title>Fach-Client</title><rect fill="#000000" fill-opacity="0.00000" height="990.4688" width="8" x="51.6372" y="81.5625"/><line style="stroke:#000000;stroke-width:0.5;stroke-dasharray:5,5;" x1="55.1372" x2="55.1372" y1="81.5625" y2="1072.0313"/></g><g><title/><rect fill="#FFFFFF" height="892.625" style="stroke:#181818;stroke-width:1;" width="10" x="50.1372" y="179.4063"/></g><g><title>ZETA Client</title><rect fill="#000000" fill-opacity="0.00000" height="990.4688" width="8" x="248.2261" y="81.5625"/><line style="stroke:#000000;stroke-width:0.5;stroke-dasharray:5,5;" x1="251.7261" x2="251.7261" y1="81.5625" y2="1072.0313"/></g><g><title/><rect fill="#FFFFFF" height="802.0625" style="stroke:#181818;stroke-width:1;" width="10" x="246.7261" y="208.6875"/></g><g><title>PDP</title><rect fill="#000000" fill-opacity="0.00000" height="990.4688" width="8" x="612.8765" y="81.5625"/><line style="stroke:#000000;stroke-width:0.5;stroke-dasharray:5,5;" x1="616.3765" x2="616.3765" y1="81.5625" y2="1072.0313"/></g><g><title/><rect fill="#FFFFFF" height="665.2188" style="stroke:#181818;stroke-width:1;" width="10" x="611.3765" y="316.25"/></g><g><title>PDP</title><rect fill="#000000" fill-opacity="0.00000" height="990.4688" width="8" x="880.3735" y="81.5625"/><line style="stroke:#000000;stroke-width:0.5;stroke-dasharray:5,5;" x1="883.8735" x2="883.8735" y1="81.5625" y2="1072.0313"/></g><g><title/><rect fill="#FFFFFF" height="25.6406" style="stroke:#181818;stroke-width:1;" width="10" x="878.8735" y="758.7031"/></g><rect fill="#D5E8D4" height="25.6406" rx="2.5" ry="2.5" style="stroke:#82B366;stroke-width:0.5;" width="70.2744" x="20" y="54.9219"/><text fill="#000000" font-family="Helvetica" font-size="10" x="27" y="71.2041">Fach-Client</text><rect fill="#FFE6CC" height="25.6406" rx="2.5" ry="2.5" style="stroke:#D79B00;stroke-width:0.5;" width="72.2471" x="215.6025" y="54.9219"/><text fill="#000000" font-family="Helvetica" font-size="10" x="222.6025" y="71.2041">ZETA Client</text><rect fill="#FFE6CC" height="37.2813" rx="2.5" ry="2.5" style="stroke:#D79B00;stroke-width:0.5;" width="116.9492" x="557.9019" y="43.2813"/><text fill="#000000" font-family="Helvetica" font-size="10" x="606.4961" y="59.5635">PDP</text><text fill="#000000" font-family="Helvetica" font-size="10" x="564.9019" y="71.2041">Authorization Server</text><rect fill="#FFE6CC" height="37.2813" rx="2.5" ry="2.5" style="stroke:#D79B00;stroke-width:0.5;" width="80.5723" x="843.5874" y="43.2813"/><text fill="#000000" font-family="Helvetica" font-size="10" x="873.9932" y="59.5635">PDP</text><text fill="#000000" font-family="Helvetica" font-size="10" x="850.5874" y="71.2041">Policy Engine</text><rect fill="#D5E8D4" height="25.6406" rx="2.5" ry="2.5" style="stroke:#82B366;stroke-width:0.5;" width="70.2744" x="20" y="1072.0313"/><text fill="#000000" font-family="Helvetica" font-size="10" x="27" y="1088.3135">Fach-Client</text><rect fill="#FFE6CC" height="25.6406" rx="2.5" ry="2.5" style="stroke:#D79B00;stroke-width:0.5;" width="72.2471" x="215.6025" y="1072.0313"/><text fill="#000000" font-family="Helvetica" font-size="10" x="222.6025" y="1088.3135">ZETA Client</text><rect fill="#FFE6CC" height="37.2813" rx="2.5" ry="2.5" style="stroke:#D79B00;stroke-width:0.5;" width="116.9492" x="557.9019" y="1072.0313"/><text fill="#000000" font-family="Helvetica" font-size="10" x="606.4961" y="1088.3135">PDP</text><text fill="#000000" font-family="Helvetica" font-size="10" x="564.9019" y="1099.9541">Authorization Server</text><rect fill="#FFE6CC" height="37.2813" rx="2.5" ry="2.5" style="stroke:#D79B00;stroke-width:0.5;" width="80.5723" x="843.5874" y="1072.0313"/><text fill="#000000" font-family="Helvetica" font-size="10" x="873.9932" y="1088.3135">PDP</text><text fill="#000000" font-family="Helvetica" font-size="10" x="850.5874" y="1099.9541">Policy Engine</text><path d="M22.4255,94.5625 L22.4255,173.5625 L916.4255,173.5625 L916.4255,104.5625 L906.4255,94.5625 L22.4255,94.5625" fill="#FEFFDD" style="stroke:#181818;stroke-width:0.5;"/><path d="M906.4255,94.5625 L906.4255,104.5625 L916.4255,104.5625 L906.4255,94.5625" fill="#FEFFDD" style="stroke:#181818;stroke-width:0.5;"/><text fill="#000000" font-family="Helvetica" font-size="10" font-weight="700" x="190.6963" y="108.8447">Vorbedingungen:</text><text fill="#000000" font-family="Helvetica" font-size="10" x="190.6963" y="120.4854">- Service Discovery ist abgeschlossen (Abb-ZETA-Service-Discovery); der ZETA Client kennt die Endpunkte</text><text fill="#000000" font-family="Helvetica" font-size="10" x="197.0537" y="132.126">des PDP Authorization Server, insbesondere den token_endpoint (as-well-known).</text><text fill="#000000" font-family="Helvetica" font-size="10" x="190.6963" y="143.7666">- Der ZETA Client wurde per Dynamic Client Registration registriert und besitzt PrK.Client.Sig / PuK.Client.Sig.</text><text fill="#000000" font-family="Helvetica" font-size="10" x="190.6963" y="155.4072">-</text><text fill="#000000" font-family="Helvetica" font-size="10" font-weight="700" x="197.4834" y="155.4072">Keine</text><text fill="#000000" font-family="Helvetica" font-size="10" x="232.5225" y="155.4072">Nutzer-Authentisierung erforderlich: Jeder Nutzer ist f&#252;r den Dienst grunds&#228;tzlich berechtigt;</text><text fill="#000000" font-family="Helvetica" font-size="10" x="197.0537" y="167.0479">bewertet wird ausschlie&#223;lich der Client durch die Policy Engine.</text><polygon fill="#181818" points="234.7261,204.6875,244.7261,208.6875,234.7261,212.6875,238.7261,208.6875" style="stroke:#181818;stroke-width:1;stroke-linejoin:miter;stroke-miterlimit:10;"/><line style="stroke:#181818;stroke-width:1;" x1="60.1372" x2="240.7261" y1="208.6875" y2="208.6875"/><text fill="#000000" font-family="Helvetica" font-size="10" x="67.1372" y="198.5088">(01)</text><text fill="#000000" font-family="Helvetica" font-size="10" x="91.6646" y="192.6885">Beauftragt Verarbeitung des</text><text fill="#000000" font-family="Helvetica" font-size="10" x="91.6646" y="204.3291">fachlichen Requests</text><path d="M168.1045,221.6875 L168.1045,254.6875 L699.1045,254.6875 L699.1045,231.6875 L689.1045,221.6875 L168.1045,221.6875" fill="#FEFFDD" style="stroke:#181818;stroke-width:0.5;"/><path d="M689.1045,221.6875 L689.1045,231.6875 L699.1045,231.6875 L689.1045,221.6875" fill="#FEFFDD" style="stroke:#181818;stroke-width:0.5;"/><text fill="#000000" font-family="Helvetica" font-size="10" x="174.1045" y="235.9697">Es findet</text><text fill="#000000" font-family="Helvetica" font-size="10" font-weight="700" x="221.0479" y="235.9697">kein</text><text fill="#000000" font-family="Helvetica" font-size="10" x="248.2061" y="235.9697">Authorization Code Flow und</text><text fill="#000000" font-family="Helvetica" font-size="10" font-weight="700" x="395.3496" y="235.9697">keine</text><text fill="#000000" font-family="Helvetica" font-size="10" x="429.29" y="235.9697">Nutzerauthentisierung am sektoralen IDP statt.</text><text fill="#000000" font-family="Helvetica" font-size="10" x="174.1045" y="247.6104">Der Client authentisiert sich direkt am Token-Endpunkt via JWT-Bearer-Grant (RFC 7523, Section 2.1).</text><line style="stroke:#181818;stroke-width:1;" x1="256.7261" x2="298.7261" y1="277.6094" y2="277.6094"/><line style="stroke:#181818;stroke-width:1;" x1="298.7261" x2="298.7261" y1="277.6094" y2="290.6094"/><line style="stroke:#181818;stroke-width:1;" x1="257.7261" x2="298.7261" y1="290.6094" y2="290.6094"/><polygon fill="#181818" points="267.7261,286.6094,257.7261,290.6094,267.7261,294.6094,263.7261,290.6094" style="stroke:#181818;stroke-width:1;stroke-linejoin:miter;stroke-miterlimit:10;"/><text fill="#000000" font-family="Helvetica" font-size="10" x="263.7261" y="273.251">(02)</text><text fill="#000000" font-family="Helvetica" font-size="10" x="288.2534" y="273.251">Erzeuge DPoP Key Pair</text><polygon fill="#181818" points="599.3765,312.25,609.3765,316.25,599.3765,320.25,603.3765,316.25" style="stroke:#181818;stroke-width:1;stroke-linejoin:miter;stroke-miterlimit:10;"/><line style="stroke:#181818;stroke-width:1;" x1="256.7261" x2="605.3765" y1="316.25" y2="316.25"/><text fill="#000000" font-family="Helvetica" font-size="10" x="263.7261" y="311.8916">(03)</text><text fill="#000000" font-family="Helvetica" font-size="10" x="288.2534" y="311.8916">GET /nonce</text><polygon fill="#181818" points="267.7261,337.8906,257.7261,341.8906,267.7261,345.8906,263.7261,341.8906" style="stroke:#181818;stroke-width:1;stroke-linejoin:miter;stroke-miterlimit:10;"/><line style="stroke:#181818;stroke-width:1;stroke-dasharray:2,2;" x1="261.7261" x2="610.3765" y1="341.8906" y2="341.8906"/><text fill="#000000" font-family="Helvetica" font-size="10" x="273.7261" y="337.5322">(04)</text><text fill="#000000" font-family="Helvetica" font-size="10" x="298.2534" y="337.5322">Nonce</text><line style="stroke:#181818;stroke-width:1;" x1="256.7261" x2="298.7261" y1="367.5313" y2="367.5313"/><line style="stroke:#181818;stroke-width:1;" x1="298.7261" x2="298.7261" y1="367.5313" y2="380.5313"/><line style="stroke:#181818;stroke-width:1;" x1="257.7261" x2="298.7261" y1="380.5313" y2="380.5313"/><polygon fill="#181818" points="267.7261,376.5313,257.7261,380.5313,267.7261,384.5313,263.7261,380.5313" style="stroke:#181818;stroke-width:1;stroke-linejoin:miter;stroke-miterlimit:10;"/><text fill="#000000" font-family="Helvetica" font-size="10" x="263.7261" y="363.1729">(05)</text><text fill="#000000" font-family="Helvetica" font-size="10" x="288.2534" y="363.1729">Create DPoP Proof (with Nonce from AuthS)</text><line style="stroke:#181818;stroke-width:1;" x1="256.7261" x2="298.7261" y1="417.8125" y2="417.8125"/><line style="stroke:#181818;stroke-width:1;" x1="298.7261" x2="298.7261" y1="417.8125" y2="430.8125"/><line style="stroke:#181818;stroke-width:1;" x1="257.7261" x2="298.7261" y1="430.8125" y2="430.8125"/><polygon fill="#181818" points="267.7261,426.8125,257.7261,430.8125,267.7261,434.8125,263.7261,430.8125" style="stroke:#181818;stroke-width:1;stroke-linejoin:miter;stroke-miterlimit:10;"/><text fill="#000000" font-family="Helvetica" font-size="10" x="263.7261" y="407.6338">(06)</text><text fill="#000000" font-family="Helvetica" font-size="10" x="288.2534" y="401.8135">Erzeuge JWT-Bearer Assertion (JWT, signiert mit PrK.Client.Sig)</text><text fill="#000000" font-family="Helvetica" font-size="10" x="288.2534" y="413.4541">{iss=client_id, sub=client_id, aud=token_endpoint, exp, iat, jti}</text><polygon fill="#181818" points="599.3765,487.375,609.3765,491.375,599.3765,495.375,603.3765,491.375" style="stroke:#181818;stroke-width:1;stroke-linejoin:miter;stroke-miterlimit:10;"/><line style="stroke:#181818;stroke-width:1;" x1="256.7261" x2="605.3765" y1="491.375" y2="491.375"/><text fill="#000000" font-family="Helvetica" font-size="10" x="263.7261" y="469.5557">(07)</text><text fill="#000000" font-family="Helvetica" font-size="10" x="288.2534" y="452.0947">POST /token  dpop: &lt;dpop_proof&gt;</text><text fill="#000000" font-family="Helvetica" font-size="10" x="288.2534" y="463.7354">{grant_type=urn:ietf:params:oauth:grant-type:jwt-bearer,</text><text fill="#000000" font-family="Helvetica" font-size="10" x="288.2534" y="475.376">assertion=&lt;JWT-Bearer Assertion&gt;, client_id,</text><text fill="#000000" font-family="Helvetica" font-size="10" x="288.2534" y="487.0166">scope, resource=&lt;Resource Server Endpunkt&gt;}</text><path d="M626.3765,504.375 L626.3765,572.375 L943.3765,572.375 L943.3765,514.375 L933.3765,504.375 L626.3765,504.375" fill="#FEFFDD" style="stroke:#181818;stroke-width:0.5;"/><path d="M933.3765,504.375 L933.3765,514.375 L943.3765,514.375 L933.3765,504.375" fill="#FEFFDD" style="stroke:#181818;stroke-width:0.5;"/><text fill="#000000" font-family="Helvetica" font-size="10" x="632.3765" y="518.6572">RFC 7523 Section 2.1:</text><text fill="#000000" font-family="Helvetica" font-size="10" x="632.3765" y="530.2979">- grant_type = urn:ietf:params:oauth:grant-type:jwt-bearer</text><text fill="#000000" font-family="Helvetica" font-size="10" x="632.3765" y="541.9385">- assertion = signiertes JWT des Clients</text><text fill="#000000" font-family="Helvetica" font-size="10" x="632.3765" y="553.5791">Die Assertion dient zugleich als Client-Authentisierung</text><text fill="#000000" font-family="Helvetica" font-size="10" x="632.3765" y="565.2197">(Key Binding aus DCR: PuK.Client.Sig).</text><line style="stroke:#181818;stroke-width:1;" x1="621.3765" x2="663.3765" y1="618.5" y2="618.5"/><line style="stroke:#181818;stroke-width:1;" x1="663.3765" x2="663.3765" y1="618.5" y2="631.5"/><line style="stroke:#181818;stroke-width:1;" x1="622.3765" x2="663.3765" y1="631.5" y2="631.5"/><polygon fill="#181818" points="632.3765,627.5,622.3765,631.5,632.3765,635.5,628.3765,631.5" style="stroke:#181818;stroke-width:1;stroke-linejoin:miter;stroke-miterlimit:10;"/><text fill="#000000" font-family="Helvetica" font-size="10" x="628.3765" y="602.501">(08)</text><text fill="#000000" font-family="Helvetica" font-size="10" x="652.9038" y="590.8604">Verifiziere JWT-Bearer Assertion</text><text fill="#000000" font-family="Helvetica" font-size="10" x="652.9038" y="602.501">(Signatur gegen PuK.Client.Sig aus DCR,</text><text fill="#000000" font-family="Helvetica" font-size="10" x="652.9038" y="614.1416">iss/sub/aud/exp/jti), verifiziere DPoP Proof</text><rect fill="#EEEEEE" height="3" style="stroke:#EEEEEE;stroke-width:1;" width="938.8804" x="10" y="658.3203"/><line style="stroke:#000000;stroke-width:1;" x1="10" x2="948.8804" y1="658.3203" y2="658.3203"/><line style="stroke:#000000;stroke-width:1;" x1="10" x2="948.8804" y1="661.3203" y2="661.3203"/><rect fill="#EEEEEE" height="19.6406" style="stroke:#000000;stroke-width:2;" width="265.46" x="346.7102" y="649.5"/><text fill="#000000" font-family="Helvetica" font-size="10" font-weight="700" x="352.7102" y="662.7822">Policy-Entscheidung (nur Client-Bewertung)</text><line style="stroke:#181818;stroke-width:1;" x1="621.3765" x2="663.3765" y1="720.0625" y2="720.0625"/><line style="stroke:#181818;stroke-width:1;" x1="663.3765" x2="663.3765" y1="720.0625" y2="733.0625"/><line style="stroke:#181818;stroke-width:1;" x1="622.3765" x2="663.3765" y1="733.0625" y2="733.0625"/><polygon fill="#181818" points="632.3765,729.0625,622.3765,733.0625,632.3765,737.0625,628.3765,733.0625" style="stroke:#181818;stroke-width:1;stroke-linejoin:miter;stroke-miterlimit:10;"/><text fill="#000000" font-family="Helvetica" font-size="10" x="628.3765" y="704.0635">(09)</text><text fill="#000000" font-family="Helvetica" font-size="10" x="652.9038" y="692.4229">Erzeuge Policy Engine Input</text><text fill="#000000" font-family="Helvetica" font-size="10" x="652.9038" y="704.0635">(Client-Identit&#228;t, Client-Posture, Kontext;</text><text fill="#000000" font-family="Helvetica" font-size="10" font-weight="700" x="652.9038" y="715.7041">keine</text><text fill="#000000" font-family="Helvetica" font-size="10" x="686.8442" y="715.7041">Nutzer-Identit&#228;ts-Claims)</text><polygon fill="#181818" points="866.8735,754.7031,876.8735,758.7031,866.8735,762.7031,870.8735,758.7031" style="stroke:#181818;stroke-width:1;stroke-linejoin:miter;stroke-miterlimit:10;"/><line style="stroke:#181818;stroke-width:1;" x1="621.3765" x2="872.8735" y1="758.7031" y2="758.7031"/><text fill="#000000" font-family="Helvetica" font-size="10" x="628.3765" y="754.3447">(10)</text><text fill="#000000" font-family="Helvetica" font-size="10" x="652.9038" y="754.3447">POST /v1/data/authz {Policy Engine Input}</text><polygon fill="#181818" points="632.3765,780.3438,622.3765,784.3438,632.3765,788.3438,628.3765,784.3438" style="stroke:#181818;stroke-width:1;stroke-linejoin:miter;stroke-miterlimit:10;"/><line style="stroke:#181818;stroke-width:1;stroke-dasharray:2,2;" x1="626.3765" x2="877.8735" y1="784.3438" y2="784.3438"/><text fill="#000000" font-family="Helvetica" font-size="10" x="638.3765" y="779.9854">(11)</text><text fill="#000000" font-family="Helvetica" font-size="10" x="662.9038" y="779.9854">Policy Decision</text><path d="M199.6025,796.3438 L259.5586,796.3438 L259.5586,799.9844 L249.5586,809.9844 L199.6025,809.9844 L199.6025,796.3438" fill="#EEEEEE" style="stroke:#000000;stroke-width:1.5;"/><rect fill="none" height="171.125" style="stroke:#000000;stroke-width:1.5;" width="491.2485" x="199.6025" y="796.3438"/><text fill="#000000" font-family="Helvetica" font-size="10" font-weight="700" x="214.6025" y="806.626">alt</text><text fill="#000000" font-family="Helvetica" font-size="10" font-weight="700" x="274.5586" y="807.626">[Policy Decision allow]</text><line style="stroke:#000000;stroke-width:1;stroke-dasharray:2,2;" x1="199.6025" x2="690.8511" y1="923.1875" y2="923.1875"/><text fill="#000000" font-family="Helvetica" font-size="10" font-weight="700" x="204.6025" y="934.4697">[Policy Decision deny]</text><polygon fill="#181818" points="267.7261,856.9063,257.7261,860.9063,267.7261,864.9063,263.7261,860.9063" style="stroke:#181818;stroke-width:1;stroke-linejoin:miter;stroke-miterlimit:10;"/><line style="stroke:#181818;stroke-width:1;stroke-dasharray:2,2;" x1="261.7261" x2="610.3765" y1="860.9063" y2="860.9063"/><text fill="#000000" font-family="Helvetica" font-size="10" x="273.7261" y="844.9072">(12)</text><text fill="#000000" font-family="Helvetica" font-size="10" x="298.2534" y="833.2666">200 OK</text><text fill="#000000" font-family="Helvetica" font-size="10" x="298.2534" y="844.9072">{access_token (DPoP-gebunden, ohne Nutzer-Claims),</text><text fill="#000000" font-family="Helvetica" font-size="10" x="298.2534" y="856.5479">token_type=DPoP, expires_in}</text><path d="M209.427,873.9063 L209.427,906.9063 L658.427,906.9063 L658.427,883.9063 L648.427,873.9063 L209.427,873.9063" fill="#FEFFDD" style="stroke:#181818;stroke-width:0.5;"/><path d="M648.427,873.9063 L648.427,883.9063 L658.427,883.9063 L648.427,873.9063" fill="#FEFFDD" style="stroke:#181818;stroke-width:0.5;"/><text fill="#000000" font-family="Helvetica" font-size="10" x="251.5874" y="888.1885">Das Access Token enth&#228;lt keine Nutzer-Identit&#228;t, ist aber an den Client</text><text fill="#000000" font-family="Helvetica" font-size="10" x="251.5874" y="899.8291">gebunden (DPoP) und spiegelt die positive Policy-Entscheidung wider.</text><polygon fill="#181818" points="267.7261,955.4688,257.7261,959.4688,267.7261,963.4688,263.7261,959.4688" style="stroke:#181818;stroke-width:1;stroke-linejoin:miter;stroke-miterlimit:10;"/><line style="stroke:#181818;stroke-width:1;stroke-dasharray:2,2;" x1="261.7261" x2="610.3765" y1="959.4688" y2="959.4688"/><text fill="#000000" font-family="Helvetica" font-size="10" x="273.7261" y="955.1104">(13)</text><text fill="#000000" font-family="Helvetica" font-size="10" x="298.2534" y="955.1104">403 Forbidden {"reasons": ["..."]}</text><polygon fill="#181818" points="71.1372,1006.75,61.1372,1010.75,71.1372,1014.75,67.1372,1010.75" style="stroke:#181818;stroke-width:1;stroke-linejoin:miter;stroke-miterlimit:10;"/><line style="stroke:#181818;stroke-width:1;stroke-dasharray:2,2;" x1="65.1372" x2="245.7261" y1="1010.75" y2="1010.75"/><text fill="#000000" font-family="Helvetica" font-size="10" x="77.1372" y="1000.5713">(14)</text><text fill="#000000" font-family="Helvetica" font-size="10" x="101.6646" y="994.751">Fachliche Response</text><text fill="#000000" font-family="Helvetica" font-size="10" x="101.6646" y="1006.3916">(bzw. Fehler bei deny)</text><path d="M175.541,1023.75 L175.541,1056.75 L692.541,1056.75 L692.541,1033.75 L682.541,1023.75 L175.541,1023.75" fill="#FEFFDD" style="stroke:#181818;stroke-width:0.5;"/><path d="M682.541,1023.75 L682.541,1033.75 L692.541,1033.75 L682.541,1023.75" fill="#FEFFDD" style="stroke:#181818;stroke-width:0.5;"/><text fill="#000000" font-family="Helvetica" font-size="10" x="181.541" y="1038.0322">Der ZETA Client kann mit dem DPoP-gebundenen Access Token auf den Resource Server zugreifen</text><text fill="#000000" font-family="Helvetica" font-size="10" x="181.541" y="1049.6729">(siehe Abb-ZETA-Zugriff-auf-RS-mit-ASL bzw. Abb-ZETA-Zugriff-auf-RS-ohne-ASL).</text><?plantuml-src dLRTRXf75BxdAKwvAM0MKgTLfOsnH0os7ASnmguZfQwiWJt0nCliTcRMs4H-bjxaCNhd5-itixlynOxKvYA6uVoVxtpd_23LECuYfbQhdMRpE8Z5GvBPbhstbKhbH-gEOf5DGZgA9IiRT3CxmryvaKl9EbDJIcQAwKDcbwo3qyZzPf--Mggz-tWPl6MXyNoYXR9D6XuVqQ-_xB-km-n7gIEQFFsZgGUxnZBTiLwmYXY2_ZsIJ9yvObqOfodSHGQsbx4SpsZ4ciSpAwUMfB4jsEmRMZYp8ZDcF4EyJtzxIMSZ3v-YJBi7c1ua-Es1-ceg4V-85wmjmqnbbDnJzRTa96EcRffMgTU_EZtgtnoTlpyVLeXIeQqSonGf4H8IXgh7OZmBSWzLEZX8TN8duVJmS4Uy2CAfVEfVTccjicGh88xy2VwB8Bfg9DaY-CjJsc-zAYfLfS7m_Egqrn-kGlBItk999dHK9VVvvkJtxh2tajcEnBNnmWSow0skbVkQQBaKLYQABbYZ6HjXxMgV3xfhtQr2RYcLsQooKWdwdC0s2jTqLY3KQ5mbUiIHL5EWYLNOQE0ry478CIDfCtOg3wxB94PJThrDZ655jUve5BXSWq8wM4dNt_YsRvIPRbav1A3tVHMbcRgrx3EBs10oeUUAq2Ifp8XD0c1gXgWYcy3G3N9A4mbxDM621STnSAkIXQgtVF2z7TUBJ6F2Khps7fIOot7vmv2dI4ldBdN-1NDbANCrOoFjqj90dxLo-TQ5d5AR1jdcG-woqJXZDA3HA6Und5HJp2dhIO8ej1k9aDvjJfQhR3vpo2z7sSlJziONhHoO_pjnBOyA1uXAvVXeRm__KN1OAktjKKWWZso2sc30hrWBW4HQbmZwTQqcmlaR8qFKyA-CZJMR-ChjD7ES8s1GmqGwSa6TRb4db6cxtKS96dGS9mjV-LneNKonKqin9yEtDj4YHW2d08-nmbhNYTuwzKqjIyONHcheEVrB1wEWH2BTIK6xZ4craZ6RWEFOnxdV-gc-MRl2rQfq8VNrahCf1cUG3EYC7sWWfDwGyoNPsmlff7z9RPMeCLToEWWsh7pmxxlMqPKZpS8MrWSwIIPKMqWxonLeefDvxg7-dT3MYL8NWwnzPcvXD56bgVBbcijTuDUlrHTfJ6ViNsva1EbijFbLP55dUpoRnFSfXbZWqsSh7okxXGXfS7w1EdWrS46Qf24Tk3ytgSlk44wdhXatzY7bJgPL24wUXA13CJTXudeSUe702OIV5pOO-TIQrqgKoNKEdalvi4dhuAyLc2lb9bZ099WPxXmCYqy55wrew_2nWBgMqvabjA24UOcNJRY4dXxMEL27_aCMNdcL1tJB1e4qaPCdpxoane4VOxxkQEGhlSocCJliYzZiNX75F46pvf3w5YCgtNXbXdf7mt27wBQ0Nq1srKPGH76KF8-lQrM32ILiXak2iMXsZ9TEqGY0h0rajG6dDk3J1d3gJNUVh1oiqL-fT3e5is6OBLYGPUGeegQoaWWGYoDBlDQfq_asz78ija-IKvLc5b4NDjQdLRCqEqWCiW5apX9b-Tw-kLQxnBMXPd2X23atzRL_R6171Fa4tFtKZeGLROU59Nrv9fZ7YblyGHbu48Hbo3qUevU9gbH4R7SVqNZmgjyQt_BC_gjNT7w68HFZCHjpayzXpHKucF88PCogkNLZ5bcWJ_ce-xbqydxMmQ_cHgf7x-xbVU3-zN32TBtNd8nnhzZPqzVONGhokPksMPmWi2UKtvMvsS9U6MuUVTql4fDAO2tEpuuqmJwNT_miNXRkOcnvKokGSspucsh2myCBnVpvrMiwnZKb8nV6boge6fUBgORqHxNLQbN_V7G3L8bOW1tk78tdzLYH8covFHo0vu_B1OlzQb9OOM1nj5oqw9XdCKg0TUnZgNzlx-uUGhT2AK_j4Szfgya8UAiPsFs-nBia23hHB2Ui76c0Fn3WwWhyXD_aP190DnXU1F0JT2_Uau_w9I47BIUrIIx_0W00?></g></svg>