<svg xmlns="http://www.w3.org/2000/svg" xmlns:xlink="http://www.w3.org/1999/xlink" contentStyleType="text/css" data-diagram-type="SEQUENCE" height="1133px" preserveAspectRatio="none" style="width:960px;height:1133px;background:#FFFFFF;" version="1.1" viewBox="0 0 960 1133" width="960px" zoomAndPan="magnify"><?plantuml 1.2026.4?><defs/><g><rect fill="#FEFCFF" height="1107.9844" style="stroke:#181818;stroke-width:0.5;" width="102.1934" x="159.083" y="11"/><text fill="#000000" font-family="Helvetica" font-size="10" font-weight="700" x="191.3101" y="20.2822">Device</text><rect fill="#E6E6FA" height="1091.3438" style="stroke:#181818;stroke-width:0.5;" width="102.1934" x="159.083" y="27.6406"/><text fill="#000000" font-family="Helvetica" font-size="10" font-weight="700" x="171.083" y="36.9229">Prim&#228;rsystem</text><rect fill="#EDFDEC" height="1107.9844" style="stroke:#181818;stroke-width:0.5;" width="468.2129" x="475.6465" y="11"/><text fill="#000000" font-family="Helvetica" font-size="10" font-weight="700" x="647.8608" y="20.2822">Anbieter TI 2.0 Dienst</text><rect fill="#FFF3E5" height="1091.3438" style="stroke:#181818;stroke-width:0.5;" width="468.2129" x="475.6465" y="27.6406"/><text fill="#000000" font-family="Helvetica" font-size="10" font-weight="700" x="676.6084" y="36.9229">ZETA Guard</text><g><title>Konnektor or</title><rect fill="#000000" fill-opacity="0.00000" height="993.1406" width="8" x="45.9268" y="81.5625"/><line style="stroke:#000000;stroke-width:0.5;stroke-dasharray:5,5;" x1="49.4268" x2="49.4268" y1="81.5625" y2="1074.7031"/></g><g><title/><rect fill="#FFFFFF" height="25.6406" style="stroke:#181818;stroke-width:1;" width="10" x="44.4268" y="173.4844"/></g><g><title>SM.C.-B</title><rect fill="#000000" fill-opacity="0.00000" height="993.1406" width="8" x="122.4683" y="81.5625"/><line style="stroke:#000000;stroke-width:0.5;stroke-dasharray:5,5;" x1="125.9683" x2="125.9683" y1="81.5625" y2="1074.7031"/></g><g><title>ZETA Client</title><rect fill="#000000" fill-opacity="0.00000" height="993.1406" width="8" x="206.6797" y="81.5625"/><line style="stroke:#000000;stroke-width:0.5;stroke-dasharray:5,5;" x1="210.1797" x2="210.1797" y1="81.5625" y2="1074.7031"/></g><g><title/><rect fill="#FFFFFF" height="985.1406" style="stroke:#181818;stroke-width:1;" width="10" x="205.1797" y="89.5625"/></g><g><title>PDP</title><rect fill="#000000" fill-opacity="0.00000" height="993.1406" width="8" x="534.6211" y="81.5625"/><line style="stroke:#000000;stroke-width:0.5;stroke-dasharray:5,5;" x1="538.1211" x2="538.1211" y1="81.5625" y2="1074.7031"/></g><g><title/><rect fill="#FFFFFF" height="622.4531" style="stroke:#181818;stroke-width:1;" width="10" x="533.1211" y="350.9688"/></g><g><title>PDP</title><rect fill="#000000" fill-opacity="0.00000" height="993.1406" width="8" x="896.0732" y="81.5625"/><line style="stroke:#000000;stroke-width:0.5;stroke-dasharray:5,5;" x1="899.5732" x2="899.5732" y1="81.5625" y2="1074.7031"/></g><g><title/><rect fill="#FFFFFF" height="25.6406" style="stroke:#181818;stroke-width:1;" width="10" x="894.5732" y="665.0156"/></g><rect fill="#E4E4F4" height="37.2813" rx="2.5" ry="2.5" style="stroke:#181818;stroke-width:0.5;" width="78.8535" x="10" y="43.2813"/><text fill="#000000" font-family="Helvetica" font-size="10" x="17" y="59.5635">Konnektor or</text><text fill="#000000" font-family="Helvetica" font-size="10" x="21.0063" y="71.2041">TI-Gateway</text><rect fill="#E4E4F4" height="25.6406" rx="2.5" ry="2.5" style="stroke:#181818;stroke-width:0.5;" width="54.2295" x="98.8535" y="54.9219"/><text fill="#000000" font-family="Helvetica" font-size="10" x="105.8535" y="71.2041">SM(C)-B</text><rect fill="#FFE6CC" height="25.6406" rx="2.5" ry="2.5" style="stroke:#D79B00;stroke-width:0.5;" width="72.2471" x="174.0562" y="54.9219"/><text fill="#000000" font-family="Helvetica" font-size="10" x="181.0562" y="71.2041">ZETA Client</text><rect fill="#FFE6CC" height="37.2813" rx="2.5" ry="2.5" style="stroke:#D79B00;stroke-width:0.5;" width="116.9492" x="479.6465" y="43.2813"/><text fill="#000000" font-family="Helvetica" font-size="10" x="528.2407" y="59.5635">PDP</text><text fill="#000000" font-family="Helvetica" font-size="10" x="486.6465" y="71.2041">Authorization Server</text><rect fill="#FFE6CC" height="37.2813" rx="2.5" ry="2.5" style="stroke:#D79B00;stroke-width:0.5;" width="80.5723" x="859.2871" y="43.2813"/><text fill="#000000" font-family="Helvetica" font-size="10" x="889.6929" y="59.5635">PDP</text><text fill="#000000" font-family="Helvetica" font-size="10" x="866.2871" y="71.2041">Policy Engine</text><rect fill="#E4E4F4" height="37.2813" rx="2.5" ry="2.5" style="stroke:#181818;stroke-width:0.5;" width="78.8535" x="10" y="1074.7031"/><text fill="#000000" font-family="Helvetica" font-size="10" x="17" y="1090.9854">Konnektor or</text><text fill="#000000" font-family="Helvetica" font-size="10" x="21.0063" y="1102.626">TI-Gateway</text><rect fill="#E4E4F4" height="25.6406" rx="2.5" ry="2.5" style="stroke:#181818;stroke-width:0.5;" width="54.2295" x="98.8535" y="1074.7031"/><text fill="#000000" font-family="Helvetica" font-size="10" x="105.8535" y="1090.9854">SM(C)-B</text><rect fill="#FFE6CC" height="25.6406" rx="2.5" ry="2.5" style="stroke:#D79B00;stroke-width:0.5;" width="72.2471" x="174.0562" y="1074.7031"/><text fill="#000000" font-family="Helvetica" font-size="10" x="181.0562" y="1090.9854">ZETA Client</text><rect fill="#FFE6CC" height="37.2813" rx="2.5" ry="2.5" style="stroke:#D79B00;stroke-width:0.5;" width="116.9492" x="479.6465" y="1074.7031"/><text fill="#000000" font-family="Helvetica" font-size="10" x="528.2407" y="1090.9854">PDP</text><text fill="#000000" font-family="Helvetica" font-size="10" x="486.6465" y="1102.626">Authorization Server</text><rect fill="#FFE6CC" height="37.2813" rx="2.5" ry="2.5" style="stroke:#D79B00;stroke-width:0.5;" width="80.5723" x="859.2871" y="1074.7031"/><text fill="#000000" font-family="Helvetica" font-size="10" x="889.6929" y="1090.9854">PDP</text><text fill="#000000" font-family="Helvetica" font-size="10" x="866.2871" y="1102.626">Policy Engine</text><line style="stroke:#181818;stroke-width:1;" x1="215.1797" x2="257.1797" y1="107.2031" y2="107.2031"/><line style="stroke:#181818;stroke-width:1;" x1="257.1797" x2="257.1797" y1="107.2031" y2="120.2031"/><line style="stroke:#181818;stroke-width:1;" x1="216.1797" x2="257.1797" y1="120.2031" y2="120.2031"/><polygon fill="#181818" points="226.1797,116.2031,216.1797,120.2031,226.1797,124.2031,222.1797,120.2031" style="stroke:#181818;stroke-width:1;stroke-linejoin:miter;stroke-miterlimit:10;"/><text fill="#000000" font-family="Helvetica" font-size="10" x="222.1797" y="102.8447">(01)</text><text fill="#000000" font-family="Helvetica" font-size="10" x="246.707" y="102.8447">Generiere subject_token</text><path d="M28.4268,132.2031 L258.8711,132.2031 L258.8711,135.8438 L248.8711,145.8438 L28.4268,145.8438 L28.4268,132.2031" fill="#EEEEEE" style="stroke:#000000;stroke-width:1.5;"/><rect fill="none" height="74.9219" style="stroke:#000000;stroke-width:1.5;" width="246.4443" x="28.4268" y="132.2031"/><text fill="#000000" font-family="Helvetica" font-size="10" font-weight="700" x="43.4268" y="142.4854">Sign Subject Token with SM(C)-B</text><polygon fill="#181818" points="65.4268,169.4844,55.4268,173.4844,65.4268,177.4844,61.4268,173.4844" style="stroke:#181818;stroke-width:1;stroke-linejoin:miter;stroke-miterlimit:10;"/><line style="stroke:#181818;stroke-width:1;" x1="59.4268" x2="204.1797" y1="173.4844" y2="173.4844"/><text fill="#000000" font-family="Helvetica" font-size="10" x="71.4268" y="169.126">(02)</text><text fill="#000000" font-family="Helvetica" font-size="10" x="95.9541" y="169.126">&#160;</text><polygon fill="#181818" points="193.1797,195.125,203.1797,199.125,193.1797,203.125,197.1797,199.125" style="stroke:#181818;stroke-width:1;stroke-linejoin:miter;stroke-miterlimit:10;"/><line style="stroke:#181818;stroke-width:1;stroke-dasharray:2,2;" x1="54.4268" x2="199.1797" y1="199.125" y2="199.125"/><text fill="#000000" font-family="Helvetica" font-size="10" x="61.4268" y="194.7666">(03)</text><text fill="#000000" font-family="Helvetica" font-size="10" x="85.9541" y="194.7666">&#160;</text><line style="stroke:#181818;stroke-width:1;" x1="215.1797" x2="257.1797" y1="238.7656" y2="238.7656"/><line style="stroke:#181818;stroke-width:1;" x1="257.1797" x2="257.1797" y1="238.7656" y2="251.7656"/><line style="stroke:#181818;stroke-width:1;" x1="216.1797" x2="257.1797" y1="251.7656" y2="251.7656"/><polygon fill="#181818" points="226.1797,247.7656,216.1797,251.7656,226.1797,255.7656,222.1797,251.7656" style="stroke:#181818;stroke-width:1;stroke-linejoin:miter;stroke-miterlimit:10;"/><text fill="#000000" font-family="Helvetica" font-size="10" x="222.1797" y="234.4072">(04)</text><text fill="#000000" font-family="Helvetica" font-size="10" x="246.707" y="234.4072">Create DPoP Key Pair (PrK.DPoP.Sig, PuK.DPoP.Sig)</text><path d="M513.6289,226.125 L513.6289,247.125 L739.6289,247.125 L739.6289,236.125 L729.6289,226.125 L513.6289,226.125" fill="#FEFFDD" style="stroke:#181818;stroke-width:0.5;"/><path d="M729.6289,226.125 L729.6289,236.125 L739.6289,236.125 L729.6289,226.125" fill="#FEFFDD" style="stroke:#181818;stroke-width:0.5;"/><text fill="#000000" font-family="Helvetica" font-size="10" x="519.6289" y="240.4072">Session-based Key Pair for DPoP binding.</text><line style="stroke:#181818;stroke-width:1;" x1="215.1797" x2="257.1797" y1="277.4063" y2="277.4063"/><line style="stroke:#181818;stroke-width:1;" x1="257.1797" x2="257.1797" y1="277.4063" y2="290.4063"/><line style="stroke:#181818;stroke-width:1;" x1="216.1797" x2="257.1797" y1="290.4063" y2="290.4063"/><polygon fill="#181818" points="226.1797,286.4063,216.1797,290.4063,226.1797,294.4063,222.1797,290.4063" style="stroke:#181818;stroke-width:1;stroke-linejoin:miter;stroke-miterlimit:10;"/><text fill="#000000" font-family="Helvetica" font-size="10" x="222.1797" y="273.0479">(05)</text><text fill="#000000" font-family="Helvetica" font-size="10" x="246.707" y="273.0479">Create DPoP Proof (with Nonce from AuthS)</text><polygon fill="#181818" points="521.1211,346.9688,531.1211,350.9688,521.1211,354.9688,525.1211,350.9688" style="stroke:#181818;stroke-width:1;stroke-linejoin:miter;stroke-miterlimit:10;"/><line style="stroke:#181818;stroke-width:1;" x1="215.1797" x2="527.1211" y1="350.9688" y2="350.9688"/><text fill="#000000" font-family="Helvetica" font-size="10" x="222.1797" y="329.1494">(06)</text><text fill="#000000" font-family="Helvetica" font-size="10" x="246.707" y="311.6885">POST /token dpop: dpop_proof</text><text fill="#000000" font-family="Helvetica" font-size="10" x="246.707" y="323.3291">{client_assertion (JWT, PrK.Client.Sig signiert),</text><text fill="#000000" font-family="Helvetica" font-size="10" x="246.707" y="334.9697">subject_token (SMC-B signiert, inkl. Nonce),</text><text fill="#000000" font-family="Helvetica" font-size="10" x="246.707" y="346.6104">[Evidence]}</text><line style="stroke:#181818;stroke-width:1;" x1="543.1211" x2="585.1211" y1="399.8906" y2="399.8906"/><line style="stroke:#181818;stroke-width:1;" x1="585.1211" x2="585.1211" y1="399.8906" y2="412.8906"/><line style="stroke:#181818;stroke-width:1;" x1="544.1211" x2="585.1211" y1="412.8906" y2="412.8906"/><polygon fill="#181818" points="554.1211,408.8906,544.1211,412.8906,554.1211,416.8906,550.1211,412.8906" style="stroke:#181818;stroke-width:1;stroke-linejoin:miter;stroke-miterlimit:10;"/><text fill="#000000" font-family="Helvetica" font-size="10" x="550.1211" y="383.8916">(07)</text><text fill="#000000" font-family="Helvetica" font-size="10" x="574.6484" y="372.251">Validate Request (Client Assertion, DPoP Proof,</text><text fill="#000000" font-family="Helvetica" font-size="10" x="574.6484" y="383.8916">Subject Token, Nonce and Key bindings from DCR,</text><text fill="#000000" font-family="Helvetica" font-size="10" x="574.6484" y="395.5322">Sperrstatus (OCSP) der SM(C)-B)</text><path d="M522.1211,424.8906 L582.0771,424.8906 L582.0771,428.5313 L572.0771,438.5313 L522.1211,438.5313 L522.1211,424.8906" fill="#EEEEEE" style="stroke:#000000;stroke-width:1.5;"/><rect fill="none" height="142.2031" style="stroke:#000000;stroke-width:1.5;" width="393.4521" x="522.1211" y="424.8906"/><text fill="#000000" font-family="Helvetica" font-size="10" font-weight="700" x="537.1211" y="435.1729">alt</text><text fill="#000000" font-family="Helvetica" font-size="10" font-weight="700" x="597.0771" y="436.1729">[TPM Attestation (Windows / Linux)]</text><line style="stroke:#000000;stroke-width:1;stroke-dasharray:2,2;" x1="522.1211" x2="915.5732" y1="509.8125" y2="509.8125"/><text fill="#000000" font-family="Helvetica" font-size="10" font-weight="700" x="527.1211" y="521.0947">[macOS Attestation (Secure Enclave)]</text><line style="stroke:#181818;stroke-width:1;" x1="543.1211" x2="585.1211" y1="477.8125" y2="477.8125"/><line style="stroke:#181818;stroke-width:1;" x1="585.1211" x2="585.1211" y1="477.8125" y2="490.8125"/><line style="stroke:#181818;stroke-width:1;" x1="544.1211" x2="585.1211" y1="490.8125" y2="490.8125"/><polygon fill="#181818" points="554.1211,486.8125,544.1211,490.8125,554.1211,494.8125,550.1211,490.8125" style="stroke:#181818;stroke-width:1;stroke-linejoin:miter;stroke-miterlimit:10;"/><text fill="#000000" font-family="Helvetica" font-size="10" x="550.1211" y="467.6338">(08)</text><text fill="#000000" font-family="Helvetica" font-size="10" x="574.6484" y="461.8135">Verifiziere Hardware-Signatur (Quote) gegen extrahierte Nonce</text><text fill="#000000" font-family="Helvetica" font-size="10" x="574.6484" y="473.4541">PCR-Replay via Event Log</text><line style="stroke:#181818;stroke-width:1;" x1="543.1211" x2="585.1211" y1="546.0938" y2="546.0938"/><line style="stroke:#181818;stroke-width:1;" x1="585.1211" x2="585.1211" y1="546.0938" y2="559.0938"/><line style="stroke:#181818;stroke-width:1;" x1="544.1211" x2="585.1211" y1="559.0938" y2="559.0938"/><polygon fill="#181818" points="554.1211,555.0938,544.1211,559.0938,554.1211,563.0938,550.1211,559.0938" style="stroke:#181818;stroke-width:1;stroke-linejoin:miter;stroke-miterlimit:10;"/><text fill="#000000" font-family="Helvetica" font-size="10" x="550.1211" y="541.7354">(09)</text><text fill="#000000" font-family="Helvetica" font-size="10" x="574.6484" y="541.7354">Pr&#252;fe Signaturen und counter (Replay-Schutz)</text><path d="M156.1797,585.0938 L216.1357,585.0938 L216.1357,588.7344 L206.1357,598.7344 L156.1797,598.7344 L156.1797,585.0938" fill="#EEEEEE" style="stroke:#000000;stroke-width:1.5;"/><rect fill="none" height="465.6094" style="stroke:#000000;stroke-width:1.5;" width="764.3936" x="156.1797" y="585.0938"/><text fill="#000000" font-family="Helvetica" font-size="10" font-weight="700" x="171.1797" y="595.376">alt</text><text fill="#000000" font-family="Helvetica" font-size="10" font-weight="700" x="231.1357" y="596.376">[Validation successful]</text><line style="stroke:#000000;stroke-width:1;stroke-dasharray:2,2;" x1="156.1797" x2="920.5732" y1="1006.4219" y2="1006.4219"/><text fill="#000000" font-family="Helvetica" font-size="10" font-weight="700" x="161.1797" y="1017.7041">[Validation fehlerhaft]</text><line style="stroke:#181818;stroke-width:1;" x1="543.1211" x2="585.1211" y1="626.375" y2="626.375"/><line style="stroke:#181818;stroke-width:1;" x1="585.1211" x2="585.1211" y1="626.375" y2="639.375"/><line style="stroke:#181818;stroke-width:1;" x1="544.1211" x2="585.1211" y1="639.375" y2="639.375"/><polygon fill="#181818" points="554.1211,635.375,544.1211,639.375,554.1211,643.375,550.1211,639.375" style="stroke:#181818;stroke-width:1;stroke-linejoin:miter;stroke-miterlimit:10;"/><text fill="#000000" font-family="Helvetica" font-size="10" x="550.1211" y="622.0166">(10)</text><text fill="#000000" font-family="Helvetica" font-size="10" x="574.6484" y="622.0166">Policy Engine Input erstellen</text><polygon fill="#181818" points="882.5732,661.0156,892.5732,665.0156,882.5732,669.0156,886.5732,665.0156" style="stroke:#181818;stroke-width:1;stroke-linejoin:miter;stroke-miterlimit:10;"/><line style="stroke:#181818;stroke-width:1;" x1="543.1211" x2="888.5732" y1="665.0156" y2="665.0156"/><text fill="#000000" font-family="Helvetica" font-size="10" x="550.1211" y="660.6572">(11)</text><text fill="#000000" font-family="Helvetica" font-size="10" x="574.6484" y="660.6572">POST /v1/data/authz {Policy Engine Input}</text><polygon fill="#181818" points="554.1211,686.6563,544.1211,690.6563,554.1211,694.6563,550.1211,690.6563" style="stroke:#181818;stroke-width:1;stroke-linejoin:miter;stroke-miterlimit:10;"/><line style="stroke:#181818;stroke-width:1;stroke-dasharray:2,2;" x1="548.1211" x2="893.5732" y1="690.6563" y2="690.6563"/><text fill="#000000" font-family="Helvetica" font-size="10" x="560.1211" y="686.2979">(12)</text><text fill="#000000" font-family="Helvetica" font-size="10" x="584.6484" y="686.2979">Policy Decision</text><path d="M175.1797,702.6563 L235.1357,702.6563 L235.1357,706.2969 L225.1357,716.2969 L175.1797,716.2969 L175.1797,702.6563" fill="#EEEEEE" style="stroke:#000000;stroke-width:1.5;"/><rect fill="none" height="278.7656" style="stroke:#000000;stroke-width:1.5;" width="711.0479" x="175.1797" y="702.6563"/><text fill="#000000" font-family="Helvetica" font-size="10" font-weight="700" x="190.1797" y="712.9385">alt</text><text fill="#000000" font-family="Helvetica" font-size="10" font-weight="700" x="250.1357" y="713.9385">[Policy Decision allow]</text><line style="stroke:#000000;stroke-width:1;stroke-dasharray:2,2;" x1="175.1797" x2="886.2275" y1="937.1406" y2="937.1406"/><text fill="#000000" font-family="Helvetica" font-size="10" font-weight="700" x="180.1797" y="948.4229">[Policy Decision deny]</text><line style="stroke:#181818;stroke-width:1;" x1="543.1211" x2="585.1211" y1="743.9375" y2="743.9375"/><line style="stroke:#181818;stroke-width:1;" x1="585.1211" x2="585.1211" y1="743.9375" y2="756.9375"/><line style="stroke:#181818;stroke-width:1;" x1="544.1211" x2="585.1211" y1="756.9375" y2="756.9375"/><polygon fill="#181818" points="554.1211,752.9375,544.1211,756.9375,554.1211,760.9375,550.1211,756.9375" style="stroke:#181818;stroke-width:1;stroke-linejoin:miter;stroke-miterlimit:10;"/><text fill="#000000" font-family="Helvetica" font-size="10" x="550.1211" y="739.5791">(13)</text><text fill="#000000" font-family="Helvetica" font-size="10" x="574.6484" y="739.5791">Create Token (Access Token, Refresh Token)</text><path d="M194.1797,768.9375 L254.1357,768.9375 L254.1357,772.5781 L244.1357,782.5781 L194.1797,782.5781 L194.1797,768.9375" fill="#EEEEEE" style="stroke:#000000;stroke-width:1.5;"/><rect fill="none" height="143.2031" style="stroke:#000000;stroke-width:1.5;" width="667.0479" x="194.1797" y="768.9375"/><text fill="#000000" font-family="Helvetica" font-size="10" font-weight="700" x="209.1797" y="779.2197">alt</text><text fill="#000000" font-family="Helvetica" font-size="10" font-weight="700" x="269.1357" y="780.2197">[Hardware Attestation  (TPM / SE)]</text><line style="stroke:#000000;stroke-width:1;stroke-dasharray:2,2;" x1="194.1797" x2="861.2275" y1="867.8594" y2="867.8594"/><text fill="#000000" font-family="Helvetica" font-size="10" font-weight="700" x="199.1797" y="879.1416">[Software Attestation (Fallback)]</text><line style="stroke:#181818;stroke-width:1;" x1="543.1211" x2="585.1211" y1="810.2188" y2="810.2188"/><line style="stroke:#181818;stroke-width:1;" x1="585.1211" x2="585.1211" y1="810.2188" y2="823.2188"/><line style="stroke:#181818;stroke-width:1;" x1="544.1211" x2="585.1211" y1="823.2188" y2="823.2188"/><polygon fill="#181818" points="554.1211,819.2188,544.1211,823.2188,554.1211,827.2188,550.1211,823.2188" style="stroke:#181818;stroke-width:1;stroke-linejoin:miter;stroke-miterlimit:10;"/><text fill="#000000" font-family="Helvetica" font-size="10" x="550.1211" y="805.8604">(14)</text><text fill="#000000" font-family="Helvetica" font-size="10" x="574.6484" y="805.8604">Create ZETA Guard Attestation Token (zg_att_token)</text><polygon fill="#181818" points="226.1797,844.8594,216.1797,848.8594,226.1797,852.8594,222.1797,848.8594" style="stroke:#181818;stroke-width:1;stroke-linejoin:miter;stroke-miterlimit:10;"/><line style="stroke:#181818;stroke-width:1;stroke-dasharray:2,2;" x1="220.1797" x2="532.1211" y1="848.8594" y2="848.8594"/><text fill="#000000" font-family="Helvetica" font-size="10" x="232.1797" y="844.501">(15)</text><text fill="#000000" font-family="Helvetica" font-size="10" x="256.707" y="844.501">200 OK {Access Token, Refresh Token, zg_att_token}</text><polygon fill="#181818" points="226.1797,900.1406,216.1797,904.1406,226.1797,908.1406,222.1797,904.1406" style="stroke:#181818;stroke-width:1;stroke-linejoin:miter;stroke-miterlimit:10;"/><line style="stroke:#181818;stroke-width:1;stroke-dasharray:2,2;" x1="220.1797" x2="532.1211" y1="904.1406" y2="904.1406"/><text fill="#000000" font-family="Helvetica" font-size="10" x="232.1797" y="899.7822">(16)</text><text fill="#000000" font-family="Helvetica" font-size="10" x="256.707" y="899.7822">200 OK {Access Token, Refresh Token}</text><polygon fill="#181818" points="226.1797,969.4219,216.1797,973.4219,226.1797,977.4219,222.1797,973.4219" style="stroke:#181818;stroke-width:1;stroke-linejoin:miter;stroke-miterlimit:10;"/><line style="stroke:#181818;stroke-width:1;stroke-dasharray:2,2;" x1="220.1797" x2="532.1211" y1="973.4219" y2="973.4219"/><text fill="#000000" font-family="Helvetica" font-size="10" x="232.1797" y="969.0635">(17)</text><text fill="#000000" font-family="Helvetica" font-size="10" x="256.707" y="969.0635">403 Forbidden {"reasons": [""...]}</text><polygon fill="#181818" points="226.1797,1038.7031,216.1797,1042.7031,226.1797,1046.7031,222.1797,1042.7031" style="stroke:#181818;stroke-width:1;stroke-linejoin:miter;stroke-miterlimit:10;"/><line style="stroke:#181818;stroke-width:1;stroke-dasharray:2,2;" x1="220.1797" x2="537.1211" y1="1042.7031" y2="1042.7031"/><text fill="#000000" font-family="Helvetica" font-size="10" x="232.1797" y="1038.3447">(18)</text><text fill="#000000" font-family="Helvetica" font-size="10" x="256.707" y="1038.3447">403 Forbidden {"reasons": [""...]}</text><?plantuml-src hLLDS-964BthLtHqYIWZuMnoehPSXK7h41kZ8EAjPBr53QA1YUKPTcQ43Ix_c_oClUqVsvwH-5gppY6v88rc-htNtM-Q7xZ8ycA244MDHN6VXpbRoS94vj5udlSZ66voXA6yGm7nOpPdOeRmmCqSMiQWDinmAJnlmPJX6LymOU1I2e5tHYfW6lpTIgfRCUo65ypW0rlvS1LtH-r-B-bVnzT3Uhlg3mvmqjwvGqXxGRiMdXyF6Cj7y3kuv1dwq8blkksusW5mUudYzr_-KNgb3Txxa0owlLOyIFzCXt5lUn9WdxYTSwI7vVuh7hQgjGzltwxHiBCp2a0niV3UvbdgQ8anHuCAXbru4vr2X-AqiQJzcsud7XmgSzWN1LCJ7-pxwEAFrg3p7KsjminJ9odf9BV2BgNYQrT-I54jKHq8F8pk9wrTR29pdgqW5ZCkyFMioinFJgeN2C-gOZJX0WKgZWf15-E_CJCZOqtYUJCbYmMaV4QwoftAFiurLJETmXtepYJ4PRTs7y8j9xr24wmuxuKUscWh96T19v49NE8A4iOL18cwZEodY0JL8Ibsgved99rNV3QdT5BKcaePZfd6oIv-IWeSufYB2HUpw5-f4oNb50ANxBKK6S9KoVkoVxMzOFVXvAG9IJyTGiCL3oOBkMYwtz72ujoAfyn5Z9ZMg5opWz_U3oaJogi4ixc0fd9JCqojVYiE-W51sck7vzi3TU3YBezAQVRqXtZ99qYBZy-ULxfiewu9Dopd4vlQ03yLTDiXg19eRUJKzx8cj8EErwi2C55MjAgXBYlIQGzim0ALicEaq13qssbIWmbTeCecDO_b19RqzgSD1Ey9I3veQC0L5yLZpLdcXNQovvIldKL_fKlsm1I6rfR4HSRulQ3krs26CoeIFXh5vhO-M6gcMz8UX0DSq3Y49MSGBstQLtBcOQuHxbdMJmz5fPWLH1NJF6LBFAufKLy-Jn4sAeYveDfaiX1sQWGbNvXcyyAiQyxfDl-g2vP55rb6JfqM-N7y_QiDNR4e322L5_EShkP118s4dVkMFpM8W3KOxQxXwGZCiuksSoJSq8NXbh236TVkZy2Uifg_sQ1lkNnmkyTqLnUed1D1o-MuyT00fmhrl5pMjX2MPDFMWqP0OFtIW3JU7Nw5SpU53r0gAUlPY9dgAXs5svk8RqvFeNy9Jw_8hyC-uFCMq7agbLFp8flW7LLkpBAx_u5zZu-SjUNzjbKq3LRUzuXiqtyv_HdUIJNc4peAJpuLKakX_IPyyFqeYZwMH9R44UpvTuhp7DMSJOtt7z0jybS0?></g></svg>