<svg xmlns="http://www.w3.org/2000/svg" xmlns:xlink="http://www.w3.org/1999/xlink" contentStyleType="text/css" data-diagram-type="SEQUENCE" height="1149px" preserveAspectRatio="none" style="width:1228px;height:1149px;background:#FFFFFF;" version="1.1" viewBox="0 0 1228 1149" width="1228px" zoomAndPan="magnify"><?plantuml 1.2026.6?><defs/><g><rect fill="#FEFCFF" height="1123.0313" style="stroke:#181818;stroke-width:0.5;" width="87.1543" x="16" y="11"/><text fill="#000000" font-family="Helvetica" font-size="10" font-weight="700" x="28" y="20.2822">Mobile App</text><rect fill="#EDFDEC" height="1123.0313" style="stroke:#181818;stroke-width:0.5;" width="147.7842" x="361.6929" y="11"/><text fill="#000000" font-family="Helvetica" font-size="10" font-weight="700" x="373.6929" y="20.2822">Anbieter TI 2.0 Dienst</text><rect fill="#FFF3E5" height="1106.3906" style="stroke:#181818;stroke-width:0.5;" width="147.7842" x="361.6929" y="27.6406"/><text fill="#000000" font-family="Helvetica" font-size="10" font-weight="700" x="402.4404" y="36.9229">ZETA Guard</text><rect fill="#EAF2FF" height="1123.0313" style="stroke:#181818;stroke-width:0.5;" width="386.5356" x="825.0288" y="11"/><text fill="#000000" font-family="Helvetica" font-size="10" font-weight="700" x="980.1912" y="20.2822">TI-F&#246;deration</text><g><title>ZETA Client</title><rect fill="#000000" fill-opacity="0.00000" height="984.9063" width="8" x="56.0771" y="93.2031"/><line style="stroke:#000000;stroke-width:0.5;stroke-dasharray:5,5;" x1="59.5771" x2="59.5771" y1="93.2031" y2="1078.1094"/></g><g><title/><rect fill="#FFFFFF" height="976.9063" style="stroke:#181818;stroke-width:1;" width="10" x="54.5771" y="101.2031"/></g><g><title>PDP</title><rect fill="#000000" fill-opacity="0.00000" height="984.9063" width="8" x="432.085" y="93.2031"/><line style="stroke:#000000;stroke-width:0.5;stroke-dasharray:5,5;" x1="435.585" x2="435.585" y1="93.2031" y2="1078.1094"/></g><g><title/><rect fill="#FFFFFF" height="781.1406" style="stroke:#181818;stroke-width:1;" width="10" x="430.585" y="247.3281"/></g><g><title>Sektoraler IDP</title><rect fill="#000000" fill-opacity="0.00000" height="984.9063" width="8" x="872.0137" y="93.2031"/><line style="stroke:#000000;stroke-width:0.5;stroke-dasharray:5,5;" x1="875.5137" x2="875.5137" y1="93.2031" y2="1078.1094"/></g><g><title/><rect fill="#FFFFFF" height="25.6406" style="stroke:#181818;stroke-width:1;" width="10" x="870.5137" y="452.4531"/></g><g><title/><rect fill="#FFFFFF" height="282.0469" style="stroke:#181818;stroke-width:1;" width="10" x="870.5137" y="697.5"/></g><g><title>Federation</title><rect fill="#000000" fill-opacity="0.00000" height="984.9063" width="8" x="1170.165" y="93.2031"/><line style="stroke:#000000;stroke-width:0.5;stroke-dasharray:5,5;" x1="1173.665" x2="1173.665" y1="93.2031" y2="1078.1094"/></g><g><title/><rect fill="#FFFFFF" height="25.6406" style="stroke:#181818;stroke-width:1;" width="10" x="1168.665" y="503.7344"/></g><g><title/><rect fill="#FFFFFF" height="25.6406" style="stroke:#181818;stroke-width:1;" width="10" x="1168.665" y="802.0625"/></g><rect fill="#FFE6CC" height="25.6406" rx="2.5" ry="2.5" style="stroke:#D79B00;stroke-width:0.5;" width="72.2471" x="23.4536" y="66.5625"/><text fill="#000000" font-family="Helvetica" font-size="10" x="30.4536" y="82.8447">ZETA Client</text><rect fill="#FFE6CC" height="48.9219" rx="2.5" ry="2.5" style="stroke:#D79B00;stroke-width:0.5;" width="117.0322" x="377.0688" y="43.2813"/><text fill="#000000" font-family="Helvetica" font-size="10" x="425.7046" y="59.5635">PDP</text><text fill="#000000" font-family="Helvetica" font-size="10" x="384.1104" y="71.2041">Authorization Server</text><text fill="#000000" font-family="Helvetica" font-size="10" x="384.0688" y="82.8447">(OIDC Relying Party)</text><rect fill="#E2E2F0" height="37.2813" rx="2.5" ry="2.5" style="stroke:#181818;stroke-width:0.5;" width="92.9697" x="829.0288" y="54.9219"/><text fill="#000000" font-family="Helvetica" font-size="10" x="839.7788" y="71.2041">Sektoraler IDP</text><text fill="#000000" font-family="Helvetica" font-size="10" x="836.0288" y="82.8447">(PAR-Endpunkt)</text><rect fill="#E2E2F0" height="37.2813" rx="2.5" ry="2.5" style="stroke:#181818;stroke-width:0.5;" width="67.7988" x="1139.7656" y="54.9219"/><text fill="#000000" font-family="Helvetica" font-size="10" x="1146.7656" y="71.2041">Federation</text><text fill="#000000" font-family="Helvetica" font-size="10" x="1156.5898" y="82.8447">Master</text><rect fill="#FFE6CC" height="25.6406" rx="2.5" ry="2.5" style="stroke:#D79B00;stroke-width:0.5;" width="72.2471" x="23.4536" y="1078.1094"/><text fill="#000000" font-family="Helvetica" font-size="10" x="30.4536" y="1094.3916">ZETA Client</text><rect fill="#FFE6CC" height="48.9219" rx="2.5" ry="2.5" style="stroke:#D79B00;stroke-width:0.5;" width="117.0322" x="377.0688" y="1078.1094"/><text fill="#000000" font-family="Helvetica" font-size="10" x="425.7046" y="1094.3916">PDP</text><text fill="#000000" font-family="Helvetica" font-size="10" x="384.1104" y="1106.0322">Authorization Server</text><text fill="#000000" font-family="Helvetica" font-size="10" x="384.0688" y="1117.6729">(OIDC Relying Party)</text><rect fill="#E2E2F0" height="37.2813" rx="2.5" ry="2.5" style="stroke:#181818;stroke-width:0.5;" width="92.9697" x="829.0288" y="1078.1094"/><text fill="#000000" font-family="Helvetica" font-size="10" x="839.7788" y="1094.3916">Sektoraler IDP</text><text fill="#000000" font-family="Helvetica" font-size="10" x="836.0288" y="1106.0322">(PAR-Endpunkt)</text><rect fill="#E2E2F0" height="37.2813" rx="2.5" ry="2.5" style="stroke:#181818;stroke-width:0.5;" width="67.7988" x="1139.7656" y="1078.1094"/><text fill="#000000" font-family="Helvetica" font-size="10" x="1146.7656" y="1094.3916">Federation</text><text fill="#000000" font-family="Helvetica" font-size="10" x="1156.5898" y="1106.0322">Master</text><path d="M17.2573,106.2031 L17.2573,127.2031 L477.2573,127.2031 L477.2573,116.2031 L467.2573,106.2031 L17.2573,106.2031" fill="#FEFFDD" style="stroke:#181818;stroke-width:0.5;"/><path d="M467.2573,106.2031 L467.2573,116.2031 L477.2573,116.2031 L467.2573,106.2031" fill="#FEFFDD" style="stroke:#181818;stroke-width:0.5;"/><text fill="#000000" font-family="Helvetica" font-size="10" x="36.4087" y="120.4854">Der ZETA Client hat vom Fach-Client den fachlichen Request inkl. idp_iss erhalten.</text><line style="stroke:#181818;stroke-width:1;" x1="64.5771" x2="106.5771" y1="173.7656" y2="173.7656"/><line style="stroke:#181818;stroke-width:1;" x1="106.5771" x2="106.5771" y1="173.7656" y2="186.7656"/><line style="stroke:#181818;stroke-width:1;" x1="65.5771" x2="106.5771" y1="186.7656" y2="186.7656"/><polygon fill="#181818" points="75.5771,182.7656,65.5771,186.7656,75.5771,190.7656,71.5771,186.7656" style="stroke:#181818;stroke-width:1;stroke-linejoin:miter;stroke-miterlimit:10;"/><text fill="#000000" font-family="Helvetica" font-size="10" x="71.5771" y="157.7666">(01)</text><text fill="#000000" font-family="Helvetica" font-size="10" x="96.1045" y="146.126">Erzeuge PKCE (code_verifier_app),</text><text fill="#000000" font-family="Helvetica" font-size="10" x="96.1045" y="157.7666">code_challenge_app = S256(code_verifier_app),</text><text fill="#000000" font-family="Helvetica" font-size="10" x="96.1045" y="169.4072">state_app</text><polygon fill="#181818" points="418.585,243.3281,428.585,247.3281,418.585,251.3281,422.585,247.3281" style="stroke:#181818;stroke-width:1;stroke-linejoin:miter;stroke-miterlimit:10;"/><line style="stroke:#181818;stroke-width:1;" x1="64.5771" x2="424.585" y1="247.3281" y2="247.3281"/><text fill="#000000" font-family="Helvetica" font-size="10" x="71.5771" y="225.5088">(02)</text><text fill="#000000" font-family="Helvetica" font-size="10" x="96.1045" y="208.0479">POST /par (private_key_jwt, client_assertion)</text><text fill="#000000" font-family="Helvetica" font-size="10" x="102.4619" y="219.6885">{response_type=code, client_id, redirect_uri=redirect_uri_app,</text><text fill="#000000" font-family="Helvetica" font-size="10" x="102.4619" y="231.3291">redirect_uri_as=redirect_uri_as, code_challenge_app,</text><text fill="#000000" font-family="Helvetica" font-size="10" x="102.4619" y="242.9697">code_challenge_method=S256, scope, state_app, idp_iss}</text><line style="stroke:#181818;stroke-width:1;" x1="440.585" x2="482.585" y1="272.9688" y2="272.9688"/><line style="stroke:#181818;stroke-width:1;" x1="482.585" x2="482.585" y1="272.9688" y2="285.9688"/><line style="stroke:#181818;stroke-width:1;" x1="441.585" x2="482.585" y1="285.9688" y2="285.9688"/><polygon fill="#181818" points="451.585,281.9688,441.585,285.9688,451.585,289.9688,447.585,285.9688" style="stroke:#181818;stroke-width:1;stroke-linejoin:miter;stroke-miterlimit:10;"/><text fill="#000000" font-family="Helvetica" font-size="10" x="447.585" y="268.6104">(03)</text><text fill="#000000" font-family="Helvetica" font-size="10" x="472.1123" y="268.6104">Validiere &amp; speichere Request-Parameter, erzeuge request_uri_app</text><polygon fill="#181818" points="75.5771,307.6094,65.5771,311.6094,75.5771,315.6094,71.5771,311.6094" style="stroke:#181818;stroke-width:1;stroke-linejoin:miter;stroke-miterlimit:10;"/><line style="stroke:#181818;stroke-width:1;stroke-dasharray:2,2;" x1="69.5771" x2="429.585" y1="311.6094" y2="311.6094"/><text fill="#000000" font-family="Helvetica" font-size="10" x="81.5771" y="307.251">(04)</text><text fill="#000000" font-family="Helvetica" font-size="10" x="106.1045" y="307.251">201 Created {request_uri_app, expires_in (5s)}</text><polygon fill="#181818" points="418.585,333.25,428.585,337.25,418.585,341.25,422.585,337.25" style="stroke:#181818;stroke-width:1;stroke-linejoin:miter;stroke-miterlimit:10;"/><line style="stroke:#181818;stroke-width:1;" x1="64.5771" x2="424.585" y1="337.25" y2="337.25"/><text fill="#000000" font-family="Helvetica" font-size="10" x="71.5771" y="332.8916">(05)</text><text fill="#000000" font-family="Helvetica" font-size="10" x="96.1045" y="332.8916">GET /authorize?client_id=...&amp;request_uri=request_uri_app</text><line style="stroke:#181818;stroke-width:1;" x1="440.585" x2="482.585" y1="386.1719" y2="386.1719"/><line style="stroke:#181818;stroke-width:1;" x1="482.585" x2="482.585" y1="386.1719" y2="399.1719"/><line style="stroke:#181818;stroke-width:1;" x1="441.585" x2="482.585" y1="399.1719" y2="399.1719"/><polygon fill="#181818" points="451.585,395.1719,441.585,399.1719,451.585,403.1719,447.585,399.1719" style="stroke:#181818;stroke-width:1;stroke-linejoin:miter;stroke-miterlimit:10;"/><text fill="#000000" font-family="Helvetica" font-size="10" x="447.585" y="370.1729">(06)</text><text fill="#000000" font-family="Helvetica" font-size="10" x="472.1123" y="358.5322">Erzeuge PKCE (code_verifier_as),</text><text fill="#000000" font-family="Helvetica" font-size="10" x="472.1123" y="370.1729">code_challenge_as = S256(code_verifier_as),</text><text fill="#000000" font-family="Helvetica" font-size="10" x="472.1123" y="381.8135">state_as, nonce</text><path d="M419.585,411.1719 L483.3936,411.1719 L483.3936,414.8125 L473.3936,424.8125 L419.585,424.8125 L419.585,411.1719" fill="#EEEEEE" style="stroke:#000000;stroke-width:1.5;"/><rect fill="none" height="176.4844" style="stroke:#000000;stroke-width:1.5;" width="775.0801" x="419.585" y="411.1719"/><text fill="#000000" font-family="Helvetica" font-size="10" font-weight="700" x="434.585" y="421.4541">opt</text><text fill="#000000" font-family="Helvetica" font-size="10" font-weight="700" x="498.3936" y="422.4541">[Entity Statement des IDP unbekannt]</text><polygon fill="#181818" points="858.5137,448.4531,868.5137,452.4531,858.5137,456.4531,862.5137,452.4531" style="stroke:#181818;stroke-width:1;stroke-linejoin:miter;stroke-miterlimit:10;"/><line style="stroke:#181818;stroke-width:1;" x1="440.585" x2="864.5137" y1="452.4531" y2="452.4531"/><text fill="#000000" font-family="Helvetica" font-size="10" x="447.585" y="448.0947">(07)</text><text fill="#000000" font-family="Helvetica" font-size="10" x="472.1123" y="448.0947">GET /.well-known/openid-federation</text><polygon fill="#181818" points="451.585,474.0938,441.585,478.0938,451.585,482.0938,447.585,478.0938" style="stroke:#181818;stroke-width:1;stroke-linejoin:miter;stroke-miterlimit:10;"/><line style="stroke:#181818;stroke-width:1;stroke-dasharray:2,2;" x1="445.585" x2="869.5137" y1="478.0938" y2="478.0938"/><text fill="#000000" font-family="Helvetica" font-size="10" x="457.585" y="473.7354">(08)</text><text fill="#000000" font-family="Helvetica" font-size="10" x="482.1123" y="473.7354">Entity Statement (signiert)</text><polygon fill="#181818" points="1156.665,499.7344,1166.665,503.7344,1156.665,507.7344,1160.665,503.7344" style="stroke:#181818;stroke-width:1;stroke-linejoin:miter;stroke-miterlimit:10;"/><line style="stroke:#181818;stroke-width:1;" x1="440.585" x2="1162.665" y1="503.7344" y2="503.7344"/><text fill="#000000" font-family="Helvetica" font-size="10" x="447.585" y="499.376">(09)</text><text fill="#000000" font-family="Helvetica" font-size="10" x="472.1123" y="499.376">GET federation_fetch_endpoint?sub=&lt;idp_iss&gt;</text><polygon fill="#181818" points="451.585,525.375,441.585,529.375,451.585,533.375,447.585,529.375" style="stroke:#181818;stroke-width:1;stroke-linejoin:miter;stroke-miterlimit:10;"/><line style="stroke:#181818;stroke-width:1;stroke-dasharray:2,2;" x1="445.585" x2="1167.665" y1="529.375" y2="529.375"/><text fill="#000000" font-family="Helvetica" font-size="10" x="457.585" y="525.0166">(10)</text><text fill="#000000" font-family="Helvetica" font-size="10" x="482.1123" y="525.0166">Entity Statement des IDP (signiert, Federation Master)</text><line style="stroke:#181818;stroke-width:1;" x1="440.585" x2="482.585" y1="566.6563" y2="566.6563"/><line style="stroke:#181818;stroke-width:1;" x1="482.585" x2="482.585" y1="566.6563" y2="579.6563"/><line style="stroke:#181818;stroke-width:1;" x1="441.585" x2="482.585" y1="579.6563" y2="579.6563"/><polygon fill="#181818" points="451.585,575.6563,441.585,579.6563,451.585,583.6563,447.585,579.6563" style="stroke:#181818;stroke-width:1;stroke-linejoin:miter;stroke-miterlimit:10;"/><text fill="#000000" font-family="Helvetica" font-size="10" x="447.585" y="556.4775">(11)</text><text fill="#000000" font-family="Helvetica" font-size="10" x="472.1123" y="550.6572">Validiere Trust Chain, importiere Signaturschl&#252;ssel</text><text fill="#000000" font-family="Helvetica" font-size="10" x="472.1123" y="562.2979">und OP-Metadaten (PAR-, Authorization-, Token-Endpunkt) des IDP</text><path d="M374.5269,606.6563 L374.5269,650.6563 L936.5269,650.6563 L936.5269,616.6563 L926.5269,606.6563 L374.5269,606.6563" fill="#FEFFDD" style="stroke:#181818;stroke-width:0.5;"/><path d="M926.5269,606.6563 L926.5269,616.6563 L936.5269,616.6563 L926.5269,606.6563" fill="#FEFFDD" style="stroke:#181818;stroke-width:0.5;"/><text fill="#000000" font-family="Helvetica" font-size="10" x="380.5269" y="620.9385">redirect_uri_as ist der Redirection-Endpunkt der OIDC Relying Party (AuthS) f&#252;r den SekIDP Auth Code Flow.</text><text fill="#000000" font-family="Helvetica" font-size="10" x="380.5269" y="632.5791">Sie wird im Entity Statement des AS (Fachdienst) gef&#252;hrt; der SekIDP pr&#252;ft beim PAR, ob redirect_uri_as</text><text fill="#000000" font-family="Helvetica" font-size="10" x="380.5269" y="644.2197">eine bekannte redirect_uri aus diesem AS-Entity-Statement ist.</text><polygon fill="#181818" points="858.5137,693.5,868.5137,697.5,858.5137,701.5,862.5137,697.5" style="stroke:#181818;stroke-width:1;stroke-linejoin:miter;stroke-miterlimit:10;"/><line style="stroke:#181818;stroke-width:1;" x1="440.585" x2="864.5137" y1="697.5" y2="697.5"/><text fill="#000000" font-family="Helvetica" font-size="10" x="447.585" y="681.501">(12)</text><text fill="#000000" font-family="Helvetica" font-size="10" x="472.1123" y="669.8604">POST /PAR (mTLS, self_signed_tls_client_auth)</text><text fill="#000000" font-family="Helvetica" font-size="10" x="478.4697" y="681.501">{client_id, redirect_uri_as, response_type=code, code_challenge_as,</text><text fill="#000000" font-family="Helvetica" font-size="10" x="478.4697" y="693.1416">code_challenge_method=S256, scope, claims, acr_values, nonce, state_as}</text><path d="M419.585,709.5 L483.3936,709.5 L483.3936,713.1406 L473.3936,723.1406 L419.585,723.1406 L419.585,709.5" fill="#EEEEEE" style="stroke:#000000;stroke-width:1.5;"/><rect fill="none" height="176.4844" style="stroke:#000000;stroke-width:1.5;" width="775.0801" x="419.585" y="709.5"/><text fill="#000000" font-family="Helvetica" font-size="10" font-weight="700" x="434.585" y="719.7822">opt</text><text fill="#000000" font-family="Helvetica" font-size="10" font-weight="700" x="498.3936" y="720.7822">[Entity Statement des Fachdienstes unbekannt]</text><polygon fill="#181818" points="451.585,746.7813,441.585,750.7813,451.585,754.7813,447.585,750.7813" style="stroke:#181818;stroke-width:1;stroke-linejoin:miter;stroke-miterlimit:10;"/><line style="stroke:#181818;stroke-width:1;" x1="445.585" x2="869.5137" y1="750.7813" y2="750.7813"/><text fill="#000000" font-family="Helvetica" font-size="10" x="457.585" y="746.4229">(13)</text><text fill="#000000" font-family="Helvetica" font-size="10" x="482.1123" y="746.4229">GET /.well-known/openid-federation</text><polygon fill="#181818" points="858.5137,772.4219,868.5137,776.4219,858.5137,780.4219,862.5137,776.4219" style="stroke:#181818;stroke-width:1;stroke-linejoin:miter;stroke-miterlimit:10;"/><line style="stroke:#181818;stroke-width:1;stroke-dasharray:2,2;" x1="440.585" x2="864.5137" y1="776.4219" y2="776.4219"/><text fill="#000000" font-family="Helvetica" font-size="10" x="447.585" y="772.0635">(14)</text><text fill="#000000" font-family="Helvetica" font-size="10" x="472.1123" y="772.0635">Entity Statement des Fachdienstes (signiert)</text><polygon fill="#181818" points="1156.665,798.0625,1166.665,802.0625,1156.665,806.0625,1160.665,802.0625" style="stroke:#181818;stroke-width:1;stroke-linejoin:miter;stroke-miterlimit:10;"/><line style="stroke:#181818;stroke-width:1;" x1="880.5137" x2="1162.665" y1="802.0625" y2="802.0625"/><text fill="#000000" font-family="Helvetica" font-size="10" x="887.5137" y="797.7041">(15)</text><text fill="#000000" font-family="Helvetica" font-size="10" x="912.041" y="797.7041">GET federation_fetch_endpoint?sub=&lt;client_id&gt;</text><polygon fill="#181818" points="891.5137,823.7031,881.5137,827.7031,891.5137,831.7031,887.5137,827.7031" style="stroke:#181818;stroke-width:1;stroke-linejoin:miter;stroke-miterlimit:10;"/><line style="stroke:#181818;stroke-width:1;stroke-dasharray:2,2;" x1="885.5137" x2="1167.665" y1="827.7031" y2="827.7031"/><text fill="#000000" font-family="Helvetica" font-size="10" x="897.5137" y="823.3447">(16)</text><text fill="#000000" font-family="Helvetica" font-size="10" x="922.041" y="823.3447">Entity Statement des Fachdienstes (signiert)</text><line style="stroke:#181818;stroke-width:1;" x1="880.5137" x2="922.5137" y1="864.9844" y2="864.9844"/><line style="stroke:#181818;stroke-width:1;" x1="922.5137" x2="922.5137" y1="864.9844" y2="877.9844"/><line style="stroke:#181818;stroke-width:1;" x1="881.5137" x2="922.5137" y1="877.9844" y2="877.9844"/><polygon fill="#181818" points="891.5137,873.9844,881.5137,877.9844,891.5137,881.9844,887.5137,877.9844" style="stroke:#181818;stroke-width:1;stroke-linejoin:miter;stroke-miterlimit:10;"/><text fill="#000000" font-family="Helvetica" font-size="10" x="887.5137" y="854.8057">(17)</text><text fill="#000000" font-family="Helvetica" font-size="10" x="912.041" y="848.9854">Validiere Trust Chain, Automatic Registration,</text><text fill="#000000" font-family="Helvetica" font-size="10" x="912.041" y="860.626">importiere Schl&#252;ssel (sig/enc) des Fachdienstes</text><line style="stroke:#181818;stroke-width:1;" x1="880.5137" x2="922.5137" y1="940.9063" y2="940.9063"/><line style="stroke:#181818;stroke-width:1;" x1="922.5137" x2="922.5137" y1="940.9063" y2="953.9063"/><line style="stroke:#181818;stroke-width:1;" x1="881.5137" x2="922.5137" y1="953.9063" y2="953.9063"/><polygon fill="#181818" points="891.5137,949.9063,881.5137,953.9063,891.5137,957.9063,887.5137,953.9063" style="stroke:#181818;stroke-width:1;stroke-linejoin:miter;stroke-miterlimit:10;"/><text fill="#000000" font-family="Helvetica" font-size="10" x="887.5137" y="924.9072">(18)</text><text fill="#000000" font-family="Helvetica" font-size="10" x="912.041" y="913.2666">Validiere PAR: redirect_uri_as gegen redirect_uris</text><text fill="#000000" font-family="Helvetica" font-size="10" x="912.041" y="924.9072">im AS-Entity-Statement, scope, claims,</text><text fill="#000000" font-family="Helvetica" font-size="10" x="912.041" y="936.5479">TLS-Clientzertifikat; erzeuge request_uri</text><polygon fill="#181818" points="451.585,975.5469,441.585,979.5469,451.585,983.5469,447.585,979.5469" style="stroke:#181818;stroke-width:1;stroke-linejoin:miter;stroke-miterlimit:10;"/><line style="stroke:#181818;stroke-width:1;stroke-dasharray:2,2;" x1="445.585" x2="869.5137" y1="979.5469" y2="979.5469"/><text fill="#000000" font-family="Helvetica" font-size="10" x="457.585" y="975.1885">(19)</text><text fill="#000000" font-family="Helvetica" font-size="10" x="482.1123" y="975.1885">201 Created {request_uri, expires_in (max. 90s)}</text><polygon fill="#181818" points="75.5771,1024.4688,65.5771,1028.4688,75.5771,1032.4688,71.5771,1028.4688" style="stroke:#181818;stroke-width:1;stroke-linejoin:miter;stroke-miterlimit:10;"/><line style="stroke:#181818;stroke-width:1;stroke-dasharray:2,2;" x1="69.5771" x2="429.585" y1="1028.4688" y2="1028.4688"/><text fill="#000000" font-family="Helvetica" font-size="10" x="81.5771" y="1012.4697">(20)</text><text fill="#000000" font-family="Helvetica" font-size="10" x="106.1045" y="1000.8291">302 Found Location:</text><text fill="#000000" font-family="Helvetica" font-size="10" x="106.1045" y="1012.4697">&lt;SekIDP Entity Statement authorization_endpoint&gt;</text><text fill="#000000" font-family="Helvetica" font-size="10" x="106.1045" y="1024.1104">?client_id&amp;request_uri</text><path d="M23.2729,1041.4688 L23.2729,1062.4688 L911.2729,1062.4688 L911.2729,1051.4688 L901.2729,1041.4688 L23.2729,1041.4688" fill="#FEFFDD" style="stroke:#181818;stroke-width:0.5;"/><path d="M901.2729,1041.4688 L901.2729,1051.4688 L911.2729,1051.4688 L901.2729,1041.4688" fill="#FEFFDD" style="stroke:#181818;stroke-width:0.5;"/><text fill="#000000" font-family="Helvetica" font-size="10" x="291.2632" y="1055.751">Weiter mit Teildiagramm (B) Abb-ZETA-OIDC-Nutzerauthentisierung.</text><?plantuml-src ZLVRRkf657ttL-nIwHGKxAIfJgNIa2FA9OgQD2ZGKwb2iWPx0rFiiJippgqwlzMdlEN7kcTiZCtbD6zuBlkwrjh3Drm4KHOYUDvfciMH6x7d9DEUVjAEutm7K-HHoDbIiZY6Pg_LWLwcLudaBqppHC0z_fsXqX2YWZ-7qnxq8uv2GymrZ3Erml38XUQuTzyg7C03RVJcSzTOSE-k1ttNN28xVC5VECfCBDqucVC8fPixK8upJvwWSMjNePUc3HWCFr_tXtx_xkRktW58cTGyu2cZS8gec8969Se6N5oye6QNbmwA4CXWORKdvXmrIfXUmxbt1WCwhUZu-Fxky_LWU5_wiAUjnQkCoR1XQ-1V_Twx7vHdwf6On2OsaF5WF1FruanGFg2SYQQf0PKgUkPY2MEw_jog10km2RSUzlJQ7Rtz6wAqrXhmxR0tEX-DTcfnFHXR_nDSwqGoggbP8gVK4NSemZGJQzrgxDmQtTfB8zoOdubRfgX6ZMqGULLFJXoHQ8I4KYaAtSxJxi20bgemMJ5DpOzXn89LqLc2ae05VKSy80YKWE5Y7Nd0mzJdIW7A5Oiq2c_Z5TpBmcW7Xl85ioN2-DV-49f14g9FiH2MKFeiJLljcR2B0Tc8K2pHh48N9kSVVpnyN6ccxQcgEvlJoKa7ndUJAPnIjQ2PIlvWZgxnsV_haH8Fx76VAONIbAqr4m3_I5Hf8XJw-Zd5hd5PdkHX6oI6N6AW_KpoRlN3XD0s5kgBQkUG8cjx2TfxEyin4lp2hacy3If8KegZpBMzgVON9qVj9kSEm6SMyP0AXF01L8gcLVIxw9LBY6Mn8L2R6fNtGkPRcoGs5YjTEp_x7leIoNbe2bGxJdQUKafG-Ln0ywDgVTdjGmUkXjG4Ll09FvNbx7gUzw5YhxiRobvsNyMFEWGVTGGzgW8UQef8H82EawGQXYHk-XacPY_EOQyiDJCnnpKJGblfA4EZBGCrcwJtY57ahaNoA4wfPOA7xgBafRrc3BcRX5oti--kgVXIK8owLVSpkjsusPhq5wY3bKyyJnCkz2ULpRiN1JOkxNLIXw-xssHNkct3LaeWLvATI8fcR94sbHdfG7_5k21encb2X3Bh4pB9T2OLQSRRAn4jcecCDEbkxDwIO8OKWx3pnctNXn5zJvCrYgtgRU8qckPKPCp6qhOxUzm3RkUV9FJdwyRongBTs5Tp6gN6OWiMRw_IAXwfiQcFMOO-WGX6KVBeaRS9HtZaCgIC3vUrDu6cqS_G3gaMB96ChgJ-sVekxARoxNMXOOvaXIhHXcI-cuSPArmW5F33sZwmJ05vK1YJGpSFnDq6GZNmx20mDQimge1jhf3a69hnz8OgIKrQ-0OB6FewKlv69kbUhf17rD3IwA1wxZBolN8NH8p7P9G5qdzW4Ib3mTDI2Kd_ZbDsMtdwg7FNah0kJ__FtAqkqlNEEtpk4Bbm-cuQbtMk4Pci7ANnExpRq8yGbn9COeed84Oi2JPvRDIjAgDB9bi7foY2rfxldAE7FHBIEdiyNUAIY5PTLSRh8JplecCc2BN50-N53F85NpDYs87fvknfxx71LXzgCNlouASpCzhsXgEnyiFPEOmIesitIM1hrfc9YuBUUurYLPqhMtuv4zkvM9s9pe4dcotf7yZDEzWyv-j_1NvfxRpOVyjCPLZnRbVvgzrp_WC0?></g></svg>