<svg xmlns="http://www.w3.org/2000/svg" xmlns:xlink="http://www.w3.org/1999/xlink" contentStyleType="text/css" data-diagram-type="SEQUENCE" height="1562px" preserveAspectRatio="none" style="width:1245px;height:1562px;background:#FFFFFF;" version="1.1" viewBox="0 0 1245 1562" width="1245px" zoomAndPan="magnify"><?plantuml 1.2026.6?><defs/><g><rect fill="#FEFCFF" height="1536.6406" style="stroke:#181818;stroke-width:0.5;" width="80.2471" x="198.7378" y="11"/><text fill="#000000" font-family="Helvetica" font-size="10" font-weight="700" x="219.9917" y="20.2822">Device</text><rect fill="#E6E6FA" height="1520" style="stroke:#181818;stroke-width:0.5;" width="80.2471" x="198.7378" y="27.6406"/><text fill="#000000" font-family="Helvetica" font-size="10" font-weight="700" x="227.8335" y="36.9229">App</text><rect fill="#EDFDEC" height="1536.6406" style="stroke:#181818;stroke-width:0.5;" width="147.7842" x="676.5239" y="11"/><text fill="#000000" font-family="Helvetica" font-size="10" font-weight="700" x="688.5239" y="20.2822">Anbieter TI 2.0 Dienst</text><rect fill="#FFF3E5" height="1520" style="stroke:#181818;stroke-width:0.5;" width="147.7842" x="676.5239" y="27.6406"/><text fill="#000000" font-family="Helvetica" font-size="10" font-weight="700" x="717.2715" y="36.9229">ZETA Guard</text><g><title>Nutzer</title><rect fill="#000000" fill-opacity="0.00000" height="1355.0781" width="8" x="26.126" y="114.9219"/><line style="stroke:#000000;stroke-width:0.5;stroke-dasharray:5,5;" x1="29.626" x2="29.626" y1="114.9219" y2="1470"/></g><g><title>ZETA Client</title><rect fill="#000000" fill-opacity="0.00000" height="1355.0781" width="8" x="235.3613" y="114.9219"/><line style="stroke:#000000;stroke-width:0.5;stroke-dasharray:5,5;" x1="238.8613" x2="238.8613" y1="114.9219" y2="1470"/></g><g><title/><rect fill="#FFFFFF" height="1347.0781" style="stroke:#181818;stroke-width:1;" width="10" x="233.8613" y="122.9219"/></g><g><title>PDP</title><rect fill="#000000" fill-opacity="0.00000" height="1355.0781" width="8" x="746.916" y="114.9219"/><line style="stroke:#000000;stroke-width:0.5;stroke-dasharray:5,5;" x1="750.416" x2="750.416" y1="114.9219" y2="1470"/></g><g><title/><rect fill="#FFFFFF" height="935.8281" style="stroke:#181818;stroke-width:1;" width="10" x="745.416" y="207.4844"/></g><g><title/><rect fill="#FFFFFF" height="245.7656" style="stroke:#181818;stroke-width:1;" width="10" x="745.416" y="1206.2344"/></g><text fill="#000000" font-family="Helvetica" font-size="10" x="10" y="112.5635">Nutzer</text><ellipse cx="29.626" cy="51.7813" fill="#E2E2F0" rx="8" ry="8" style="stroke:#181818;stroke-width:0.5;"/><path d="M29.626,59.7813 L29.626,86.7813 M16.626,67.7813 L42.626,67.7813 M29.626,86.7813 L16.626,101.7813 M29.626,86.7813 L42.626,101.7813" fill="none" style="stroke:#181818;stroke-width:0.5;"/><rect fill="#FFE6CC" height="25.6406" rx="2.5" ry="2.5" style="stroke:#D79B00;stroke-width:0.5;" width="72.2471" x="202.7378" y="88.2813"/><text fill="#000000" font-family="Helvetica" font-size="10" x="209.7378" y="104.5635">ZETA Client</text><rect fill="#FFE6CC" height="37.2813" rx="2.5" ry="2.5" style="stroke:#D79B00;stroke-width:0.5;" width="116.9492" x="691.9414" y="76.6406"/><text fill="#000000" font-family="Helvetica" font-size="10" x="740.5356" y="92.9229">PDP</text><text fill="#000000" font-family="Helvetica" font-size="10" x="698.9414" y="104.5635">Authorization Server</text><text fill="#000000" font-family="Helvetica" font-size="10" x="10" y="1539.2822">Nutzer</text><ellipse cx="29.626" cy="1478.5" fill="#E2E2F0" rx="8" ry="8" style="stroke:#181818;stroke-width:0.5;"/><path d="M29.626,1486.5 L29.626,1513.5 M16.626,1494.5 L42.626,1494.5 M29.626,1513.5 L16.626,1528.5 M29.626,1513.5 L42.626,1528.5" fill="none" style="stroke:#181818;stroke-width:0.5;"/><rect fill="#FFE6CC" height="25.6406" rx="2.5" ry="2.5" style="stroke:#D79B00;stroke-width:0.5;" width="72.2471" x="202.7378" y="1470"/><text fill="#000000" font-family="Helvetica" font-size="10" x="209.7378" y="1486.2822">ZETA Client</text><rect fill="#FFE6CC" height="37.2813" rx="2.5" ry="2.5" style="stroke:#D79B00;stroke-width:0.5;" width="116.9492" x="691.9414" y="1470"/><text fill="#000000" font-family="Helvetica" font-size="10" x="740.5356" y="1486.2822">PDP</text><text fill="#000000" font-family="Helvetica" font-size="10" x="698.9414" y="1497.9229">Authorization Server</text><path d="M13.626,126.9219 L73.582,126.9219 L73.582,130.5625 L63.582,140.5625 L13.626,140.5625 L13.626,126.9219" fill="#EEEEEE" style="stroke:#000000;stroke-width:1.5;"/><rect fill="none" height="1293.4375" style="stroke:#000000;stroke-width:1.5;" width="1211.9883" x="13.626" y="126.9219"/><text fill="#000000" font-family="Helvetica" font-size="10" font-weight="700" x="28.626" y="137.2041">alt</text><text fill="#000000" font-family="Helvetica" font-size="10" font-weight="700" x="88.582" y="138.2041">[Kein ZETA Attestation Token]</text><line style="stroke:#000000;stroke-width:1;stroke-dasharray:2,2;" x1="13.626" x2="1225.6143" y1="1263.875" y2="1263.875"/><text fill="#000000" font-family="Helvetica" font-size="10" font-weight="700" x="18.626" y="1275.1572">[ZETA Attestation Token vorhanden (Fast-Path)]</text><path d="M222.8613,154.5625 L282.8174,154.5625 L282.8174,158.2031 L272.8174,168.2031 L222.8613,168.2031 L222.8613,154.5625" fill="#EEEEEE" style="stroke:#000000;stroke-width:1.5;"/><rect fill="none" height="682.8594" style="stroke:#000000;stroke-width:1.5;" width="941.9453" x="222.8613" y="154.5625"/><text fill="#000000" font-family="Helvetica" font-size="10" font-weight="700" x="237.8613" y="164.8447">alt</text><text fill="#000000" font-family="Helvetica" font-size="10" font-weight="700" x="297.8174" y="165.8447">[Hardware Attestation: iOS, iPadOS, macOS (Apple App Attest)]</text><line style="stroke:#000000;stroke-width:1;stroke-dasharray:2,2;" x1="222.8613" x2="1164.8066" y1="320.0469" y2="320.0469"/><text fill="#000000" font-family="Helvetica" font-size="10" font-weight="700" x="227.8613" y="331.3291">[Hardware Attestation: Android (Keystore, TEE, StrongBox)]</text><line style="stroke:#000000;stroke-width:1;stroke-dasharray:2,2;" x1="222.8613" x2="1164.8066" y1="711.6563" y2="711.6563"/><text fill="#000000" font-family="Helvetica" font-size="10" font-weight="700" x="227.8613" y="722.9385">[Software Attestation (Legacy OIDC DCR)]</text><polygon fill="#181818" points="733.416,203.4844,743.416,207.4844,733.416,211.4844,737.416,207.4844" style="stroke:#181818;stroke-width:1;stroke-linejoin:miter;stroke-miterlimit:10;"/><line style="stroke:#181818;stroke-width:1;" x1="243.8613" x2="739.416" y1="207.4844" y2="207.4844"/><text fill="#000000" font-family="Helvetica" font-size="10" x="250.8613" y="197.3057">(01)</text><text fill="#000000" font-family="Helvetica" font-size="10" x="275.3887" y="191.4854">POST /register</text><text fill="#000000" font-family="Helvetica" font-size="10" x="275.3887" y="203.126">{attestation_type="apple", Apple_Attestation_Object, PuK.Client.Sig, redirect_uris}</text><line style="stroke:#181818;stroke-width:1;" x1="755.416" x2="797.416" y1="233.125" y2="233.125"/><line style="stroke:#181818;stroke-width:1;" x1="797.416" x2="797.416" y1="233.125" y2="246.125"/><line style="stroke:#181818;stroke-width:1;" x1="756.416" x2="797.416" y1="246.125" y2="246.125"/><polygon fill="#181818" points="766.416,242.125,756.416,246.125,766.416,250.125,762.416,246.125" style="stroke:#181818;stroke-width:1;stroke-linejoin:miter;stroke-miterlimit:10;"/><text fill="#000000" font-family="Helvetica" font-size="10" x="762.416" y="228.7666">(02)</text><text fill="#000000" font-family="Helvetica" font-size="10" x="786.9434" y="228.7666">Validiere Apple_Attestation_Object</text><path d="M760.416,259.125 L760.416,303.125 L995.416,303.125 L995.416,269.125 L985.416,259.125 L760.416,259.125" fill="#FEFFDD" style="stroke:#181818;stroke-width:0.5;"/><path d="M985.416,259.125 L985.416,269.125 L995.416,269.125 L985.416,259.125" fill="#FEFFDD" style="stroke:#181818;stroke-width:0.5;"/><text fill="#000000" font-family="Helvetica" font-size="10" x="766.416" y="273.4072">AuthS verifiziert Apple App Attest Root CA.</text><text fill="#000000" font-family="Helvetica" font-size="10" x="766.416" y="285.0479">Extrahiert Hash(PuK.Client.Sig) aus Objekt</text><text fill="#000000" font-family="Helvetica" font-size="10" x="766.416" y="296.6885">und vergleicht ihn mit dem Payload.</text><polygon fill="#181818" points="733.416,398.8906,743.416,402.8906,733.416,406.8906,737.416,402.8906" style="stroke:#181818;stroke-width:1;stroke-linejoin:miter;stroke-miterlimit:10;"/><line style="stroke:#181818;stroke-width:1;" x1="243.8613" x2="739.416" y1="402.8906" y2="402.8906"/><text fill="#000000" font-family="Helvetica" font-size="10" x="250.8613" y="375.251">(03)</text><text fill="#000000" font-family="Helvetica" font-size="10" x="275.3887" y="351.9697">POST /register</text><text fill="#000000" font-family="Helvetica" font-size="10" x="275.3887" y="363.6104">{attestation_type="android", PuK.AK.Sig,</text><text fill="#000000" font-family="Helvetica" font-size="10" x="275.3887" y="375.251">Android_Key_Attestation_Certificate_Chain,</text><text fill="#000000" font-family="Helvetica" font-size="10" x="275.3887" y="386.8916">PuK.Client.Sig, signed_Hash_PuK.Client.Sig,</text><text fill="#000000" font-family="Helvetica" font-size="10" x="275.3887" y="398.5322">play_integrity_token, redirect_uris}</text><line style="stroke:#181818;stroke-width:1;" x1="755.416" x2="797.416" y1="428.5313" y2="428.5313"/><line style="stroke:#181818;stroke-width:1;" x1="797.416" x2="797.416" y1="428.5313" y2="441.5313"/><line style="stroke:#181818;stroke-width:1;" x1="756.416" x2="797.416" y1="441.5313" y2="441.5313"/><polygon fill="#181818" points="766.416,437.5313,756.416,441.5313,766.416,445.5313,762.416,441.5313" style="stroke:#181818;stroke-width:1;stroke-linejoin:miter;stroke-miterlimit:10;"/><text fill="#000000" font-family="Helvetica" font-size="10" x="762.416" y="424.1729">(04)</text><text fill="#000000" font-family="Helvetica" font-size="10" x="786.9434" y="424.1729">Validiere Zertifikatskette gegen Google Root CA</text><line style="stroke:#181818;stroke-width:1;" x1="755.416" x2="797.416" y1="467.1719" y2="467.1719"/><line style="stroke:#181818;stroke-width:1;" x1="797.416" x2="797.416" y1="467.1719" y2="480.1719"/><line style="stroke:#181818;stroke-width:1;" x1="756.416" x2="797.416" y1="480.1719" y2="480.1719"/><polygon fill="#181818" points="766.416,476.1719,756.416,480.1719,766.416,484.1719,762.416,480.1719" style="stroke:#181818;stroke-width:1;stroke-linejoin:miter;stroke-miterlimit:10;"/><text fill="#000000" font-family="Helvetica" font-size="10" x="762.416" y="462.8135">(05)</text><text fill="#000000" font-family="Helvetica" font-size="10" x="786.9434" y="462.8135">Pr&#252;fe signed_Hash_PuK.Client.Sig</text><path d="M734.416,492.1719 L798.2246,492.1719 L798.2246,495.8125 L788.2246,505.8125 L734.416,505.8125 L734.416,492.1719" fill="#EEEEEE" style="stroke:#000000;stroke-width:1.5;"/><rect fill="none" height="139.5625" style="stroke:#000000;stroke-width:1.5;" width="405.3906" x="734.416" y="492.1719"/><text fill="#000000" font-family="Helvetica" font-size="10" font-weight="700" x="749.416" y="502.4541">opt</text><text fill="#000000" font-family="Helvetica" font-size="10" font-weight="700" x="813.2246" y="503.4541">[Play Integrity Pr&#252;fung]</text><line style="stroke:#181818;stroke-width:1;" x1="755.416" x2="797.416" y1="533.4531" y2="533.4531"/><line style="stroke:#181818;stroke-width:1;" x1="797.416" x2="797.416" y1="533.4531" y2="546.4531"/><line style="stroke:#181818;stroke-width:1;" x1="756.416" x2="797.416" y1="546.4531" y2="546.4531"/><polygon fill="#181818" points="766.416,542.4531,756.416,546.4531,766.416,550.4531,762.416,546.4531" style="stroke:#181818;stroke-width:1;stroke-linejoin:miter;stroke-miterlimit:10;"/><text fill="#000000" font-family="Helvetica" font-size="10" x="762.416" y="529.0947">(06)</text><text fill="#000000" font-family="Helvetica" font-size="10" x="786.9434" y="529.0947">Entschl&#252;ssele play_integrity_token (lokal/remote)</text><line style="stroke:#181818;stroke-width:1;" x1="755.416" x2="797.416" y1="572.0938" y2="572.0938"/><line style="stroke:#181818;stroke-width:1;" x1="797.416" x2="797.416" y1="572.0938" y2="585.0938"/><line style="stroke:#181818;stroke-width:1;" x1="756.416" x2="797.416" y1="585.0938" y2="585.0938"/><polygon fill="#181818" points="766.416,581.0938,756.416,585.0938,766.416,589.0938,762.416,585.0938" style="stroke:#181818;stroke-width:1;stroke-linejoin:miter;stroke-miterlimit:10;"/><text fill="#000000" font-family="Helvetica" font-size="10" x="762.416" y="567.7354">(07)</text><text fill="#000000" font-family="Helvetica" font-size="10" x="786.9434" y="567.7354">Verifiziere Nonce (Muss Hash(PuK.Client.Sig) entsprechen)</text><line style="stroke:#181818;stroke-width:1;" x1="755.416" x2="797.416" y1="610.7344" y2="610.7344"/><line style="stroke:#181818;stroke-width:1;" x1="797.416" x2="797.416" y1="610.7344" y2="623.7344"/><line style="stroke:#181818;stroke-width:1;" x1="756.416" x2="797.416" y1="623.7344" y2="623.7344"/><polygon fill="#181818" points="766.416,619.7344,756.416,623.7344,766.416,627.7344,762.416,623.7344" style="stroke:#181818;stroke-width:1;stroke-linejoin:miter;stroke-miterlimit:10;"/><text fill="#000000" font-family="Helvetica" font-size="10" x="762.416" y="606.376">(08)</text><text fill="#000000" font-family="Helvetica" font-size="10" x="786.9434" y="606.376">Werte Verdicts aus (appIntegrity, deviceIntegrity, accountDetails)</text><path d="M760.416,650.7344 L760.416,694.7344 L1063.416,694.7344 L1063.416,660.7344 L1053.416,650.7344 L760.416,650.7344" fill="#FEFFDD" style="stroke:#181818;stroke-width:0.5;"/><path d="M1053.416,650.7344 L1053.416,660.7344 L1063.416,660.7344 L1053.416,650.7344" fill="#FEFFDD" style="stroke:#181818;stroke-width:0.5;"/><text fill="#000000" font-family="Helvetica" font-size="10" x="766.416" y="665.0166">PuK.AK.Sig muss mit dem Blatt-Zertifikat</text><text fill="#000000" font-family="Helvetica" font-size="10" x="766.416" y="676.6572">der Certificate Chain &#252;bereinstimmen.</text><text fill="#000000" font-family="Helvetica" font-size="10" x="766.416" y="688.2979">Sicherheitsniveau: TrustedEnvironment oder StrongBox.</text><polygon fill="#181818" points="733.416,825.4219,743.416,829.4219,733.416,833.4219,737.416,829.4219" style="stroke:#181818;stroke-width:1;stroke-linejoin:miter;stroke-miterlimit:10;"/><line style="stroke:#181818;stroke-width:1;" x1="243.8613" x2="739.416" y1="829.4219" y2="829.4219"/><text fill="#000000" font-family="Helvetica" font-size="10" x="250.8613" y="784.3213">(09)</text><text fill="#000000" font-family="Helvetica" font-size="10" x="275.3887" y="743.5791">POST /register</text><text fill="#000000" font-family="Helvetica" font-size="10" x="275.3887" y="755.2197">{</text><text fill="#000000" font-family="Helvetica" font-size="10" x="281.7461" y="766.8604">"client_name": "myClient",</text><text fill="#000000" font-family="Helvetica" font-size="10" x="281.7461" y="778.501">"grant_types": ["urn:ietf:params:oauth:grant-type:token-exchange", "refresh_token"],</text><text fill="#000000" font-family="Helvetica" font-size="10" x="281.7461" y="790.1416">"jwks": { "keys": [ PuK.Client.Sig ] },</text><text fill="#000000" font-family="Helvetica" font-size="10" x="281.7461" y="801.7822">"token_endpoint_auth_method": "private_key_jwt",</text><text fill="#000000" font-family="Helvetica" font-size="10" x="281.7461" y="813.4229">"redirect_uris": ["https:</text><text fill="#000000" font-family="Helvetica" font-size="10" font-style="italic" x="397.6104" y="813.4229">&lt;App-FQDN&gt;/cb/&lt;app&gt;/as", "https:</text><text fill="#000000" font-family="Helvetica" font-size="10" x="579.8516" y="813.4229">&lt;App-FQDN&gt;/cb/&lt;app&gt;/app"]</text><text fill="#000000" font-family="Helvetica" font-size="10" x="275.3887" y="825.0635">}</text><path d="M760.416,856.4219 L760.416,1005.4219 L1204.416,1005.4219 L1204.416,866.4219 L1194.416,856.4219 L760.416,856.4219" fill="#FEFFDD" style="stroke:#181818;stroke-width:0.5;"/><path d="M1194.416,856.4219 L1194.416,866.4219 L1204.416,866.4219 L1194.416,856.4219" fill="#FEFFDD" style="stroke:#181818;stroke-width:0.5;"/><text fill="#000000" font-family="Helvetica" font-size="10" x="766.416" y="870.7041">Es werden zwei redirect_uris je App registriert (RFC 8252, claimed-HTTPS</text><text fill="#000000" font-family="Helvetica" font-size="10" x="766.416" y="882.3447">Universal-/App-Links auf einer vom App-Hersteller kontrollierten Domain):</text><text fill="#000000" font-family="Helvetica" font-size="10" x="766.416" y="893.9854">- https://&lt;App-FQDN&gt;/cb/&lt;app&gt;/as = redirect_uri_as</text><text fill="#000000" font-family="Helvetica" font-size="10" x="772.7734" y="905.626">(SekIDP Auth Code Flow, redirection_endpoint des AuthS, nicht /token)</text><text fill="#000000" font-family="Helvetica" font-size="10" x="766.416" y="917.2666">- https://&lt;App-FQDN&gt;/cb/&lt;app&gt;/app = redirect_uri_app</text><text fill="#000000" font-family="Helvetica" font-size="10" x="772.7734" y="928.9072">(ZETA Guard Auth Code Flow, /token-Endpunkt des AuthS)</text><text fill="#000000" font-family="Helvetica" font-size="10" x="766.416" y="940.5479">Beide Callbacks enden &#252;ber denselben App-Link/Universal-Link in der App;</text><text fill="#000000" font-family="Helvetica" font-size="10" x="766.416" y="952.1885">der ZETA Client unterscheidet den zu nutzenden AuthS-Endpunkt anhand des Pfads.</text><text fill="#000000" font-family="Helvetica" font-size="10" x="766.416" y="963.8291">Die OS-seitige Verkn&#252;pfung erfolgt &#252;ber apple-app-site-association bzw.</text><text fill="#000000" font-family="Helvetica" font-size="10" x="766.416" y="975.4697">assetlinks.json (Deployment, kein Laufzeit-Flow). Die App ist inkl. redirect_uris</text><text fill="#000000" font-family="Helvetica" font-size="10" x="766.416" y="987.1104">bei der gematik registriert; der AuthS pr&#252;ft beim DCR, ob die &#252;bergebenen</text><text fill="#000000" font-family="Helvetica" font-size="10" x="766.416" y="998.751">redirect_uris registriert sind.</text><line style="stroke:#181818;stroke-width:1;" x1="755.416" x2="797.416" y1="1028.75" y2="1028.75"/><line style="stroke:#181818;stroke-width:1;" x1="797.416" x2="797.416" y1="1028.75" y2="1041.75"/><line style="stroke:#181818;stroke-width:1;" x1="756.416" x2="797.416" y1="1041.75" y2="1041.75"/><polygon fill="#181818" points="766.416,1037.75,756.416,1041.75,766.416,1045.75,762.416,1041.75" style="stroke:#181818;stroke-width:1;stroke-linejoin:miter;stroke-miterlimit:10;"/><text fill="#000000" font-family="Helvetica" font-size="10" x="762.416" y="1024.3916">(10)</text><text fill="#000000" font-family="Helvetica" font-size="10" x="786.9434" y="1024.3916">Store Client Placeholder (state: pending_user_binding)</text><line style="stroke:#181818;stroke-width:1;" x1="755.416" x2="797.416" y1="1079.0313" y2="1079.0313"/><line style="stroke:#181818;stroke-width:1;" x1="797.416" x2="797.416" y1="1079.0313" y2="1092.0313"/><line style="stroke:#181818;stroke-width:1;" x1="756.416" x2="797.416" y1="1092.0313" y2="1092.0313"/><polygon fill="#181818" points="766.416,1088.0313,756.416,1092.0313,766.416,1096.0313,762.416,1092.0313" style="stroke:#181818;stroke-width:1;stroke-linejoin:miter;stroke-miterlimit:10;"/><text fill="#000000" font-family="Helvetica" font-size="10" x="762.416" y="1068.8525">(11)</text><text fill="#000000" font-family="Helvetica" font-size="10" x="786.9434" y="1063.0322">Generiere OTP &amp; transaction_id</text><text fill="#000000" font-family="Helvetica" font-size="10" x="786.9434" y="1074.6729">Speichere Request im tempor&#228;ren Cache</text><polygon fill="#181818" points="40.626,1113.6719,30.626,1117.6719,40.626,1121.6719,36.626,1117.6719" style="stroke:#181818;stroke-width:1;stroke-linejoin:miter;stroke-miterlimit:10;"/><line style="stroke:#181818;stroke-width:1;" x1="34.626" x2="744.416" y1="1117.6719" y2="1117.6719"/><text fill="#000000" font-family="Helvetica" font-size="10" x="46.626" y="1113.3135">(12)</text><text fill="#000000" font-family="Helvetica" font-size="10" x="71.1533" y="1113.3135">E-Mail mit OTP-Best&#228;tigungscode (Out-of-Band)</text><polygon fill="#181818" points="254.8613,1139.3125,244.8613,1143.3125,254.8613,1147.3125,250.8613,1143.3125" style="stroke:#181818;stroke-width:1;stroke-linejoin:miter;stroke-miterlimit:10;"/><line style="stroke:#181818;stroke-width:1;stroke-dasharray:2,2;" x1="248.8613" x2="744.416" y1="1143.3125" y2="1143.3125"/><text fill="#000000" font-family="Helvetica" font-size="10" x="260.8613" y="1138.9541">(13)</text><text fill="#000000" font-family="Helvetica" font-size="10" x="285.3887" y="1138.9541">202 Accepted {transaction_id, message="OTP sent"}</text><polygon fill="#181818" points="221.8613,1164.9531,231.8613,1168.9531,221.8613,1172.9531,225.8613,1168.9531" style="stroke:#181818;stroke-width:1;stroke-linejoin:miter;stroke-miterlimit:10;"/><line style="stroke:#181818;stroke-width:1;" x1="29.626" x2="227.8613" y1="1168.9531" y2="1168.9531"/><text fill="#000000" font-family="Helvetica" font-size="10" x="36.626" y="1164.5947">(14)</text><text fill="#000000" font-family="Helvetica" font-size="10" x="61.1533" y="1164.5947">Gibt OTP-Best&#228;tigungscode ein</text><polygon fill="#181818" points="733.416,1202.2344,743.416,1206.2344,733.416,1210.2344,737.416,1206.2344" style="stroke:#181818;stroke-width:1;stroke-linejoin:miter;stroke-miterlimit:10;"/><line style="stroke:#181818;stroke-width:1;" x1="243.8613" x2="739.416" y1="1206.2344" y2="1206.2344"/><text fill="#000000" font-family="Helvetica" font-size="10" x="250.8613" y="1196.0557">(15)</text><text fill="#000000" font-family="Helvetica" font-size="10" x="275.3887" y="1190.2354">POST /register/verify</text><text fill="#000000" font-family="Helvetica" font-size="10" x="275.3887" y="1201.876">{transaction_id, code}</text><line style="stroke:#181818;stroke-width:1;" x1="755.416" x2="797.416" y1="1231.875" y2="1231.875"/><line style="stroke:#181818;stroke-width:1;" x1="797.416" x2="797.416" y1="1231.875" y2="1244.875"/><line style="stroke:#181818;stroke-width:1;" x1="756.416" x2="797.416" y1="1244.875" y2="1244.875"/><polygon fill="#181818" points="766.416,1240.875,756.416,1244.875,766.416,1248.875,762.416,1244.875" style="stroke:#181818;stroke-width:1;stroke-linejoin:miter;stroke-miterlimit:10;"/><text fill="#000000" font-family="Helvetica" font-size="10" x="762.416" y="1227.5166">(16)</text><text fill="#000000" font-family="Helvetica" font-size="10" x="786.9434" y="1227.5166">Verifiziere OTP-Code gegen Cache</text><polygon fill="#181818" points="733.416,1331.0781,743.416,1335.0781,733.416,1339.0781,737.416,1335.0781" style="stroke:#181818;stroke-width:1;stroke-linejoin:miter;stroke-miterlimit:10;"/><line style="stroke:#181818;stroke-width:1;" x1="243.8613" x2="739.416" y1="1335.0781" y2="1335.0781"/><text fill="#000000" font-family="Helvetica" font-size="10" x="250.8613" y="1313.2588">(17)</text><text fill="#000000" font-family="Helvetica" font-size="10" x="275.3887" y="1295.7979">POST /register</text><text fill="#000000" font-family="Helvetica" font-size="10" x="275.3887" y="1307.4385">{attestation_type="zeta_attestation_token",</text><text fill="#000000" font-family="Helvetica" font-size="10" x="275.3887" y="1319.0791">zeta_guard_attestation_token, PuK.Client.Sig,</text><text fill="#000000" font-family="Helvetica" font-size="10" x="275.3887" y="1330.7197">Besitznachweis (Signatur/Assertion)}</text><line style="stroke:#181818;stroke-width:1;" x1="755.416" x2="797.416" y1="1360.7188" y2="1360.7188"/><line style="stroke:#181818;stroke-width:1;" x1="797.416" x2="797.416" y1="1360.7188" y2="1373.7188"/><line style="stroke:#181818;stroke-width:1;" x1="756.416" x2="797.416" y1="1373.7188" y2="1373.7188"/><polygon fill="#181818" points="766.416,1369.7188,756.416,1373.7188,766.416,1377.7188,762.416,1373.7188" style="stroke:#181818;stroke-width:1;stroke-linejoin:miter;stroke-miterlimit:10;"/><text fill="#000000" font-family="Helvetica" font-size="10" x="762.416" y="1356.3604">(18)</text><text fill="#000000" font-family="Helvetica" font-size="10" x="786.9434" y="1356.3604">Pr&#252;fe Token-Signatur &amp; Vertrauensstellung</text><line style="stroke:#181818;stroke-width:1;" x1="755.416" x2="797.416" y1="1399.3594" y2="1399.3594"/><line style="stroke:#181818;stroke-width:1;" x1="797.416" x2="797.416" y1="1399.3594" y2="1412.3594"/><line style="stroke:#181818;stroke-width:1;" x1="756.416" x2="797.416" y1="1412.3594" y2="1412.3594"/><polygon fill="#181818" points="766.416,1408.3594,756.416,1412.3594,766.416,1416.3594,762.416,1412.3594" style="stroke:#181818;stroke-width:1;stroke-linejoin:miter;stroke-miterlimit:10;"/><text fill="#000000" font-family="Helvetica" font-size="10" x="762.416" y="1395.001">(19)</text><text fill="#000000" font-family="Helvetica" font-size="10" x="786.9434" y="1395.001">Extrahiere PuK.AK.Sig aus Token, verifiziere Besitznachweis</text><polygon fill="#181818" points="254.8613,1448,244.8613,1452,254.8613,1456,250.8613,1452" style="stroke:#181818;stroke-width:1;stroke-linejoin:miter;stroke-miterlimit:10;"/><line style="stroke:#181818;stroke-width:1;stroke-dasharray:2,2;" x1="248.8613" x2="744.416" y1="1452" y2="1452"/><text fill="#000000" font-family="Helvetica" font-size="10" x="260.8613" y="1447.6416">(20)</text><text fill="#000000" font-family="Helvetica" font-size="10" x="285.3887" y="1447.6416">201 Created {client_id, status="pending_user_binding"}</text><?plantuml-src dLVRSjks5dtNL-pguLIQY59FPZhJKHFFo9ASQ9n4EfQIpccLuK0aHC4Y0HO0RSkP_4q_8s_-iRC0wcxPpQaVB980zbvOMFk27uICqYBcr6osyY9BWvIjL66RzivMAYooIjD7mpKnGzKFXRtdkbgfpDGTLNlyHaIyIht-fq6t7tQ7xuPN5I8_ridpAesk1kyx_QlnVyUJ_lljE57Ej1MHo9cqr4q5nu-p_dj_qbc_L-dLgtjksTaP5d0PEwELpM_flIDdWbi0cmpePVCdwc6TiSxfyDEWrxywnEDjlocOZgladiCt7pjNlISmTGgx67j8ezveAjshqkAUMQ4aZRc-0GVF0YmtyU95XQMMBhcGtYTrhEN6bcOcQicbz-p_kOblWUwMQRu_hqrYE6wG6B7O_MOi6ewf1dPJJClpzTIwj-7-rdG6P-KcNhneqsWudb1ByqGOq3MLNzZEV6XNENzTPSvUjK7URhZdFXpEhdba6pGgBfkbxUPO90tIF1OQ8s6XXVcwTLyoj_7Ufayi5R7WcZzfUhjKAij9YsHXISqtwqjxu5lCnJtiM3hUEbqf1HLrcbFPlxEQBVoijymiQeUOwyGAGyxfqavbWQE2sIJb8e97iP2K2KinpsZ4LgbYSRFYeV7Ky2TEfYDZhKHCjKk-CeWJtg19lz-WiTLA9kVgxibZ-Rv3ASrNI_8xbvvugB7y7CBf0PrTx1iiHSpoiBjWGcBkyQaPaKWUXuwTy6XiAdC4VYYavOaMTXLQ9z1_SD2_bpYMp9eb1pvAUC8blL4AP6zEwqax8_tmRSwV0RfTkNrGkQKHiDDWWxsqKiZTv5Ek-jAQQ94-V3E60zcfxLCjLKkMufmogBF-hBbFMv5o-g1anAdslZ3cj1JnO7BGkk3oUQk_WKtkRCSYiiPBk8PetMwr0ScwBBptWKMHAgJj8Jk9rEpC8piz9kzarEtqHfdRmYOopbEeDDWTy5J6oBzxmYClF7huDWCB0kbOP1cN2Cqneeph1HVMI773MT6cYIuW_RWlRmJ29NFXePovRVJi1-1OpUrn05Bj7KzOjABXeDUbNlVg_mctgIIgHdvQA5d6gssgPgjryMduqKIZ5lXOD1ZzerfesKR5cRTHAbXcseh1TjlF2joijfTCmE-Y1PE9IwTLpUUQGy9-fFgvj7jzktG6lr1rYRpXJ1zbL_fCNykfVbs8WyiLb1awXs76KOrYXpVNuiP5Eyo4rxSRs0S1wu4lhCrDkzLwXQmPNFodz-6i5SrQho2ZinOp3kUpCr39Fqzb6VfEGvKdTBDcls_e5d95yDpVSd6OF-YwJDtbGMYVgcjN5rtwvUNFBniKfKnaF0xUJYQZZRcFJY_Qi3HeEN3lX5owC9WJz0MrtAZCMGpUOexbQOfFIoKXeJHrre6Yfp9eijvUsmleUJhezG7aa9cjgcfZlXpqHdwtr8LOwI9LjxiKwRBmvgmGBwQafK7IbvYMFypwzy40HySuydm7PDVDF09JkWdwm578vHwEZUTpBZ2voz9qnY9m2SHy7RAOB94BPtZVSDtQyUzU2T7jWXJ3lwxjkTUzpesGUZ0VuGutpZrqK91qZQDtvB7iu369O8azoj6SnQQvjefkZeRZm21ZYCGdmALy-9Qxf4vSprMQs3Lctxi4-1yOOV5WZ8f4cI1czxSRU_ZCRUh4qxmsBdVqU9wgbKix3Lgw3kqTH7KFTu7ZiTxq29nM8LJiUfas3wMyjZk3n1q32S_WSxclx5zBfdn2prr1icvsvZ9LWzICK2xBBIGSZA-RGJeAcFr8CKB6pKqO-WWiO_6uPenTBx8v3bJ6Y2zKwh3KNERaRSgnNiWaBD3NXpFXN-gbhH_Bl4n3IHS28ULwVwfDXXSVwoTzlG5oxMlUS3AYVn4wC6bO6GiYHkBFkK_zgFpypyBrQs30yYnN-k4l3Jrq6OOFJRlh1ifpy1xrozSUc0xEiVRXBuW12Z2HqtjjMDX0pODp2AY-wwH_N7Vea9QzLKW1rjju-HCIZ5JHWYxxWmzzMkT-4V-mxnpUIzw2eEsMK2UAU8uoHLyETuPMd1l34lHfRkF6bOsl6mf_OwvekoHLNfY2FWXcitAR_ZArzGC6nUof7KAM-_igEunbgUso9ki3BWUzodVT0Lg-eLwX31vlohdzMlcxziQXzIcdREtA8wnKVAK-VT51djOkq5rBTS6C3KRCBkgLVzeQkvjNUF3P5rWKG3-IkCpuUFpHBMOgmRcmzn8RGAr2QuMlajb2jph85zejhP-cOzsd-iq5crNGFsW2fmNog2z7cnxqKU-vkQhm_MRBTNUJ4kdD7js782k-1f_Mwx-fgpdpSjtg6rq_I2ZCw-gfi8Te_mS0?></g></svg>