<svg xmlns="http://www.w3.org/2000/svg" xmlns:xlink="http://www.w3.org/1999/xlink" contentStyleType="text/css" data-diagram-type="SEQUENCE" height="815px" preserveAspectRatio="none" style="width:1177px;height:815px;background:#FFFFFF;" version="1.1" viewBox="0 0 1177 815" width="1177px" zoomAndPan="magnify"><?plantuml 1.2026.5?><defs/><g><rect fill="#FEFCFF" height="789.8594" style="stroke:#181818;stroke-width:0.5;" width="437.2642" x="31.6167" y="11"/><text fill="#000000" font-family="Helvetica" font-size="10" font-weight="700" x="231.3792" y="20.2822">Device</text><rect fill="#E6E6FA" height="773.2188" style="stroke:#181818;stroke-width:0.5;" width="102.1934" x="366.6875" y="27.6406"/><text fill="#000000" font-family="Helvetica" font-size="10" font-weight="700" x="378.6875" y="36.9229">Prim&#228;rsystem</text><rect fill="#EDFDEC" height="789.8594" style="stroke:#181818;stroke-width:0.5;" width="147.7842" x="686.3745" y="11"/><text fill="#000000" font-family="Helvetica" font-size="10" font-weight="700" x="698.3745" y="20.2822">Anbieter TI 2.0 Dienst</text><rect fill="#FFF3E5" height="773.2188" style="stroke:#181818;stroke-width:0.5;" width="147.7842" x="686.3745" y="27.6406"/><text fill="#000000" font-family="Helvetica" font-size="10" font-weight="700" x="727.1221" y="36.9229">ZETA Guard</text><g><title>TPM</title><rect fill="#000000" fill-opacity="0.00000" height="675.0156" width="8" x="49.5" y="81.5625"/><line style="stroke:#000000;stroke-width:0.5;stroke-dasharray:5,5;" x1="53" x2="53" y1="81.5625" y2="756.5781"/></g><g><title/><rect fill="#FFFFFF" height="25.6406" style="stroke:#181818;stroke-width:1;" width="10" x="48" y="363.25"/></g><g><title>ZAS</title><rect fill="#000000" fill-opacity="0.00000" height="675.0156" width="8" x="233.0029" y="81.5625"/><line style="stroke:#000000;stroke-width:0.5;stroke-dasharray:5,5;" x1="236.5029" x2="236.5029" y1="81.5625" y2="756.5781"/></g><g><title/><rect fill="#FFFFFF" height="88.5625" style="stroke:#181818;stroke-width:1;" width="10" x="231.5029" y="325.9688"/></g><g><title>ZETA Client</title><rect fill="#000000" fill-opacity="0.00000" height="675.0156" width="8" x="414.2842" y="81.5625"/><line style="stroke:#000000;stroke-width:0.5;stroke-dasharray:5,5;" x1="417.7842" x2="417.7842" y1="81.5625" y2="756.5781"/></g><g><title/><rect fill="#FFFFFF" height="611.7344" style="stroke:#181818;stroke-width:1;" width="10" x="412.7842" y="144.8438"/></g><g><title>PDP</title><rect fill="#000000" fill-opacity="0.00000" height="675.0156" width="8" x="756.7666" y="81.5625"/><line style="stroke:#000000;stroke-width:0.5;stroke-dasharray:5,5;" x1="760.2666" x2="760.2666" y1="81.5625" y2="756.5781"/></g><g><title/><rect fill="#FFFFFF" height="552.8125" style="stroke:#181818;stroke-width:1;" width="10" x="755.2666" y="185.7656"/></g><rect fill="#E4E4F4" height="25.6406" rx="2.5" ry="2.5" style="stroke:#181818;stroke-width:0.5;" width="34.7666" x="35.6167" y="54.9219"/><text fill="#000000" font-family="Helvetica" font-size="10" x="42.6167" y="71.2041">TPM</text><rect fill="#FFE6CC" height="25.6406" rx="2.5" ry="2.5" style="stroke:#D79B00;stroke-width:0.5;" width="34.0391" x="219.4834" y="54.9219"/><text fill="#000000" font-family="Helvetica" font-size="10" x="226.4834" y="71.2041">ZAS</text><rect fill="#FFE6CC" height="25.6406" rx="2.5" ry="2.5" style="stroke:#D79B00;stroke-width:0.5;" width="72.2471" x="381.6606" y="54.9219"/><text fill="#000000" font-family="Helvetica" font-size="10" x="388.6606" y="71.2041">ZETA Client</text><rect fill="#FFE6CC" height="37.2813" rx="2.5" ry="2.5" style="stroke:#D79B00;stroke-width:0.5;" width="116.9492" x="701.792" y="43.2813"/><text fill="#000000" font-family="Helvetica" font-size="10" x="750.3862" y="59.5635">PDP</text><text fill="#000000" font-family="Helvetica" font-size="10" x="708.792" y="71.2041">Authorization Server</text><rect fill="#E4E4F4" height="25.6406" rx="2.5" ry="2.5" style="stroke:#181818;stroke-width:0.5;" width="34.7666" x="35.6167" y="756.5781"/><text fill="#000000" font-family="Helvetica" font-size="10" x="42.6167" y="772.8604">TPM</text><rect fill="#FFE6CC" height="25.6406" rx="2.5" ry="2.5" style="stroke:#D79B00;stroke-width:0.5;" width="34.0391" x="219.4834" y="756.5781"/><text fill="#000000" font-family="Helvetica" font-size="10" x="226.4834" y="772.8604">ZAS</text><rect fill="#FFE6CC" height="25.6406" rx="2.5" ry="2.5" style="stroke:#D79B00;stroke-width:0.5;" width="72.2471" x="381.6606" y="756.5781"/><text fill="#000000" font-family="Helvetica" font-size="10" x="388.6606" y="772.8604">ZETA Client</text><rect fill="#FFE6CC" height="37.2813" rx="2.5" ry="2.5" style="stroke:#D79B00;stroke-width:0.5;" width="116.9492" x="701.792" y="756.5781"/><text fill="#000000" font-family="Helvetica" font-size="10" x="750.3862" y="772.8604">PDP</text><text fill="#000000" font-family="Helvetica" font-size="10" x="708.792" y="784.501">Authorization Server</text><path d="M13,93.5625 L72.9561,93.5625 L72.9561,97.2031 L62.9561,107.2031 L13,107.2031 L13,93.5625" fill="#EEEEEE" style="stroke:#000000;stroke-width:1.5;"/><rect fill="none" height="574.7344" style="stroke:#000000;stroke-width:1.5;" width="1144.6797" x="13" y="93.5625"/><text fill="#000000" font-family="Helvetica" font-size="10" font-weight="700" x="28" y="103.8447">alt</text><text fill="#000000" font-family="Helvetica" font-size="10" font-weight="700" x="87.9561" y="104.8447">[Kein ZETA Guard Attestation Token vorhanden]</text><line style="stroke:#000000;stroke-width:1;stroke-dasharray:2,2;" x1="13" x2="1157.6797" y1="511.8125" y2="511.8125"/><text fill="#000000" font-family="Helvetica" font-size="10" font-weight="700" x="18" y="523.0947">[ZETA Attestation Token vorhanden]</text><path d="M32,121.2031 L91.9561,121.2031 L91.9561,124.8438 L81.9561,134.8438 L32,134.8438 L32,121.2031" fill="#EEEEEE" style="stroke:#000000;stroke-width:1.5;"/><rect fill="none" height="365.6094" style="stroke:#000000;stroke-width:1.5;" width="1065.1035" x="32" y="121.2031"/><text fill="#000000" font-family="Helvetica" font-size="10" font-weight="700" x="47" y="131.4854">alt</text><text fill="#000000" font-family="Helvetica" font-size="10" font-weight="700" x="106.9561" y="132.4854">[Hardware Attestation: Windows / Linux (TPM)]</text><polygon fill="#181818" points="743.2666,181.7656,753.2666,185.7656,743.2666,189.7656,747.2666,185.7656" style="stroke:#181818;stroke-width:1;stroke-linejoin:miter;stroke-miterlimit:10;"/><line style="stroke:#181818;stroke-width:1;" x1="422.7842" x2="749.2666" y1="185.7656" y2="185.7656"/><text fill="#000000" font-family="Helvetica" font-size="10" x="429.7842" y="169.7666">(01)</text><text fill="#000000" font-family="Helvetica" font-size="10" x="454.3115" y="158.126">POST /register</text><text fill="#000000" font-family="Helvetica" font-size="10" x="454.3115" y="169.7666">{attestation_type="tpm", PuK.EK.Enc, C.EK.Enc,</text><text fill="#000000" font-family="Helvetica" font-size="10" x="454.3115" y="181.4072">PuK.AK.Sig, PuK.Client.Sig, signed_Hash_PuK.Client.Sig}</text><line style="stroke:#181818;stroke-width:1;" x1="765.2666" x2="807.2666" y1="211.4063" y2="211.4063"/><line style="stroke:#181818;stroke-width:1;" x1="807.2666" x2="807.2666" y1="211.4063" y2="224.4063"/><line style="stroke:#181818;stroke-width:1;" x1="766.2666" x2="807.2666" y1="224.4063" y2="224.4063"/><polygon fill="#181818" points="776.2666,220.4063,766.2666,224.4063,776.2666,228.4063,772.2666,224.4063" style="stroke:#181818;stroke-width:1;stroke-linejoin:miter;stroke-miterlimit:10;"/><text fill="#000000" font-family="Helvetica" font-size="10" x="772.2666" y="207.0479">(02)</text><text fill="#000000" font-family="Helvetica" font-size="10" x="796.7939" y="207.0479">Validiere C.EK.Enc-Chain &amp; signed_Hash_PuK.Client.Sig</text><line style="stroke:#181818;stroke-width:1;" x1="765.2666" x2="807.2666" y1="261.6875" y2="261.6875"/><line style="stroke:#181818;stroke-width:1;" x1="807.2666" x2="807.2666" y1="261.6875" y2="274.6875"/><line style="stroke:#181818;stroke-width:1;" x1="766.2666" x2="807.2666" y1="274.6875" y2="274.6875"/><polygon fill="#181818" points="776.2666,270.6875,766.2666,274.6875,776.2666,278.6875,772.2666,274.6875" style="stroke:#181818;stroke-width:1;stroke-linejoin:miter;stroke-miterlimit:10;"/><text fill="#000000" font-family="Helvetica" font-size="10" x="772.2666" y="251.5088">(03)</text><text fill="#000000" font-family="Helvetica" font-size="10" x="796.7939" y="245.6885">CredentialBlob = MakeCredential(...);</text><text fill="#000000" font-family="Helvetica" font-size="10" x="796.7939" y="257.3291">(TPM 2.0 Commands, Section 12.5)</text><polygon fill="#181818" points="433.7842,296.3281,423.7842,300.3281,433.7842,304.3281,429.7842,300.3281" style="stroke:#181818;stroke-width:1;stroke-linejoin:miter;stroke-miterlimit:10;"/><line style="stroke:#181818;stroke-width:1;stroke-dasharray:2,2;" x1="427.7842" x2="754.2666" y1="300.3281" y2="300.3281"/><text fill="#000000" font-family="Helvetica" font-size="10" x="439.7842" y="295.9697">(04)</text><text fill="#000000" font-family="Helvetica" font-size="10" x="464.3115" y="295.9697">202 Accepted {CredentialBlob}</text><polygon fill="#181818" points="252.5029,321.9688,242.5029,325.9688,252.5029,329.9688,248.5029,325.9688" style="stroke:#181818;stroke-width:1;stroke-linejoin:miter;stroke-miterlimit:10;"/><line style="stroke:#181818;stroke-width:1;" x1="246.5029" x2="411.7842" y1="325.9688" y2="325.9688"/><text fill="#000000" font-family="Helvetica" font-size="10" x="258.5029" y="321.6104">(05)</text><text fill="#000000" font-family="Helvetica" font-size="10" x="283.0303" y="321.6104">Activate(CredentialBlob)</text><polygon fill="#181818" points="69,359.25,59,363.25,69,367.25,65,363.25" style="stroke:#181818;stroke-width:1;stroke-linejoin:miter;stroke-miterlimit:10;"/><line style="stroke:#181818;stroke-width:1;" x1="63" x2="230.5029" y1="363.25" y2="363.25"/><text fill="#000000" font-family="Helvetica" font-size="10" x="75" y="353.0713">(06)</text><text fill="#000000" font-family="Helvetica" font-size="10" x="99.5273" y="347.251">TPM2_ActivateCredential</text><text fill="#000000" font-family="Helvetica" font-size="10" x="99.5273" y="358.8916">(CredentialBlob)</text><polygon fill="#181818" points="219.5029,384.8906,229.5029,388.8906,219.5029,392.8906,223.5029,388.8906" style="stroke:#181818;stroke-width:1;stroke-linejoin:miter;stroke-miterlimit:10;"/><line style="stroke:#181818;stroke-width:1;stroke-dasharray:2,2;" x1="58" x2="225.5029" y1="388.8906" y2="388.8906"/><text fill="#000000" font-family="Helvetica" font-size="10" x="65" y="384.5322">(07)</text><text fill="#000000" font-family="Helvetica" font-size="10" x="89.5273" y="384.5322">Secret</text><polygon fill="#181818" points="400.7842,410.5313,410.7842,414.5313,400.7842,418.5313,404.7842,414.5313" style="stroke:#181818;stroke-width:1;stroke-linejoin:miter;stroke-miterlimit:10;"/><line style="stroke:#181818;stroke-width:1;stroke-dasharray:2,2;" x1="241.5029" x2="406.7842" y1="414.5313" y2="414.5313"/><text fill="#000000" font-family="Helvetica" font-size="10" x="248.5029" y="410.1729">(08)</text><text fill="#000000" font-family="Helvetica" font-size="10" x="273.0303" y="410.1729">Secret</text><polygon fill="#181818" points="743.2666,436.1719,753.2666,440.1719,743.2666,444.1719,747.2666,440.1719" style="stroke:#181818;stroke-width:1;stroke-linejoin:miter;stroke-miterlimit:10;"/><line style="stroke:#181818;stroke-width:1;" x1="422.7842" x2="749.2666" y1="440.1719" y2="440.1719"/><text fill="#000000" font-family="Helvetica" font-size="10" x="429.7842" y="435.8135">(09)</text><text fill="#000000" font-family="Helvetica" font-size="10" x="454.3115" y="435.8135">POST /register/verify {Secret}</text><line style="stroke:#181818;stroke-width:1;" x1="765.2666" x2="807.2666" y1="465.8125" y2="465.8125"/><line style="stroke:#181818;stroke-width:1;" x1="807.2666" x2="807.2666" y1="465.8125" y2="478.8125"/><line style="stroke:#181818;stroke-width:1;" x1="766.2666" x2="807.2666" y1="478.8125" y2="478.8125"/><polygon fill="#181818" points="776.2666,474.8125,766.2666,478.8125,776.2666,482.8125,772.2666,478.8125" style="stroke:#181818;stroke-width:1;stroke-linejoin:miter;stroke-miterlimit:10;"/><text fill="#000000" font-family="Helvetica" font-size="10" x="772.2666" y="461.4541">(10)</text><text fill="#000000" font-family="Helvetica" font-size="10" x="796.7939" y="461.4541">Secret korrekt? &#8594; PuK.Client.Sig hardware-gebunden &#10003;</text><polygon fill="#181818" points="743.2666,579.0156,753.2666,583.0156,743.2666,587.0156,747.2666,583.0156" style="stroke:#181818;stroke-width:1;stroke-linejoin:miter;stroke-miterlimit:10;"/><line style="stroke:#181818;stroke-width:1;" x1="422.7842" x2="749.2666" y1="583.0156" y2="583.0156"/><text fill="#000000" font-family="Helvetica" font-size="10" x="429.7842" y="561.1963">(11)</text><text fill="#000000" font-family="Helvetica" font-size="10" x="454.3115" y="543.7354">POST /register</text><text fill="#000000" font-family="Helvetica" font-size="10" x="454.3115" y="555.376">{attestation_type="zeta_attestation_token",</text><text fill="#000000" font-family="Helvetica" font-size="10" x="454.3115" y="567.0166">zeta_guard_attestation_token, PuK.Client.Sig,</text><text fill="#000000" font-family="Helvetica" font-size="10" x="454.3115" y="578.6572">signed_Hash_PuK.Client.Sig}</text><line style="stroke:#181818;stroke-width:1;" x1="765.2666" x2="807.2666" y1="608.6563" y2="608.6563"/><line style="stroke:#181818;stroke-width:1;" x1="807.2666" x2="807.2666" y1="608.6563" y2="621.6563"/><line style="stroke:#181818;stroke-width:1;" x1="766.2666" x2="807.2666" y1="621.6563" y2="621.6563"/><polygon fill="#181818" points="776.2666,617.6563,766.2666,621.6563,776.2666,625.6563,772.2666,621.6563" style="stroke:#181818;stroke-width:1;stroke-linejoin:miter;stroke-miterlimit:10;"/><text fill="#000000" font-family="Helvetica" font-size="10" x="772.2666" y="604.2979">(12)</text><text fill="#000000" font-family="Helvetica" font-size="10" x="796.7939" y="604.2979">Pr&#252;fe Token-Signatur &amp; Vertrauensstellung</text><line style="stroke:#181818;stroke-width:1;" x1="765.2666" x2="807.2666" y1="647.2969" y2="647.2969"/><line style="stroke:#181818;stroke-width:1;" x1="807.2666" x2="807.2666" y1="647.2969" y2="660.2969"/><line style="stroke:#181818;stroke-width:1;" x1="766.2666" x2="807.2666" y1="660.2969" y2="660.2969"/><polygon fill="#181818" points="776.2666,656.2969,766.2666,660.2969,776.2666,664.2969,772.2666,660.2969" style="stroke:#181818;stroke-width:1;stroke-linejoin:miter;stroke-miterlimit:10;"/><text fill="#000000" font-family="Helvetica" font-size="10" x="772.2666" y="642.9385">(13)</text><text fill="#000000" font-family="Helvetica" font-size="10" x="796.7939" y="642.9385">Extrahiere PuK.AK.Sig aus Token, pr&#252;fe signed_Hash_PuK.Client.Sig</text><line style="stroke:#181818;stroke-width:1;" x1="765.2666" x2="807.2666" y1="699.9375" y2="699.9375"/><line style="stroke:#181818;stroke-width:1;" x1="807.2666" x2="807.2666" y1="699.9375" y2="712.9375"/><line style="stroke:#181818;stroke-width:1;" x1="766.2666" x2="807.2666" y1="712.9375" y2="712.9375"/><polygon fill="#181818" points="776.2666,708.9375,766.2666,712.9375,776.2666,716.9375,772.2666,712.9375" style="stroke:#181818;stroke-width:1;stroke-linejoin:miter;stroke-miterlimit:10;"/><text fill="#000000" font-family="Helvetica" font-size="10" x="772.2666" y="695.5791">(14)</text><text fill="#000000" font-family="Helvetica" font-size="10" x="796.7939" y="695.5791">Store Client Placeholder (state: pending_user_binding)</text><polygon fill="#181818" points="433.7842,734.5781,423.7842,738.5781,433.7842,742.5781,429.7842,738.5781" style="stroke:#181818;stroke-width:1;stroke-linejoin:miter;stroke-miterlimit:10;"/><line style="stroke:#181818;stroke-width:1;stroke-dasharray:2,2;" x1="427.7842" x2="754.2666" y1="738.5781" y2="738.5781"/><text fill="#000000" font-family="Helvetica" font-size="10" x="439.7842" y="734.2197">(15)</text><text fill="#000000" font-family="Helvetica" font-size="10" x="464.3115" y="734.2197">201 Created {client_id, status="pending_user_binding"}</text><?plantuml-src XLHDRjf05Dxx5AzULA1W9qNgXYQfNB0Ib10ieAbQ8Lc3_G8Zp1YDnoGaohO7QBTTzXZTvIOvITzu0WG22K8QpyptllVxpJikeYIF4LntVvfF4YTXypHNhhfHbcKDqXkm6pZZ4ThGy2-RTJ-ijy_R7GjWogJY4PyoeS3k1IqRM0QqmhdV950hQ5_u5xsjy1zULuDjMcquFBn5nOwF2LEu2oIVFFoLsJnJEB4Xw3HRdj_fVk_s_DQIRPsldd2afQ3qUzxJVeqQHQpfhSLgKlF4WAD22RqcLDq3Q91TfhJJzcMpuNUM_WfqmNsICndReB_3awzUfx4Z9YzN8vDbq0ZwGczJoM-Pugc0BiePojS3P8c2C-G2Lcx1KmepPJXwwHW5p58vOY96KGIWRKu9UCqaFWVNu1iNSNgTmJwSSv7VG8awLIvizCyKR6zlum2SOvF7tbuDWdQt1_iIXvmQ8_lYZgtuGpMVuf6jfXEx0a5-vlhq5r45wekllj37tfdRvKC3CIxCFkD3WN5uoh9Hk7vtlmp957GHKGqkMS9ZZfJemebJ7p6gr_jNw7QorILI4HLdoPSa7S0HjDWOLuSbrtNBd_f2bwsOb7ewcL3TimhrCYhwyQ7gVYnlyfC3uxm6rOCgU564KuKntAtxkxUsL9xKeUlk4VsCAIojcwnSQJKHd2BJS5gguS9cPKAXxxBNAJd6d-FKT3uIrJhxCerdW5spiZaf-pJf_6eETyPkTqFDFOnJAN6iFiFZpryRWmAZfzbsXZZ8zTJ3uv_V1I79nh8moT38vIsXl17prkdMKWtNZZMnJQDTt0orGb_UlnZsldXhsZSB4yY7VrTeyd089PZA9Otv9KebMKvF5iMS9BaORZNtRmWrAfIoqY2mF3EC5PWQ_bTKKrJtHRzKgiLdAXaaBC9HciJqc9Pq0R06KpBZOXZc6Sfmm8jDsTfKXXwfwi47hK1MI2CgZaCUqxj0H7bsP6zZik-j_m00?></g></svg>