<svg xmlns="http://www.w3.org/2000/svg" xmlns:xlink="http://www.w3.org/1999/xlink" contentStyleType="text/css" data-diagram-type="SEQUENCE" height="1079px" preserveAspectRatio="none" style="width:1333px;height:1079px;background:#FFFFFF;" version="1.1" viewBox="0 0 1333 1079" width="1333px" zoomAndPan="magnify"><?plantuml 1.2026.6?><defs/><g><rect fill="#FEFCFF" height="1053.75" style="stroke:#181818;stroke-width:0.5;" width="87.1543" x="64.1899" y="11"/><text fill="#000000" font-family="Helvetica" font-size="10" font-weight="700" x="76.1899" y="20.2822">Mobile App</text><rect fill="#EDFDEC" height="1053.75" style="stroke:#181818;stroke-width:0.5;" width="476.3354" x="430.1699" y="11"/><text fill="#000000" font-family="Helvetica" font-size="10" font-weight="700" x="606.4456" y="20.2822">Anbieter TI 2.0 Dienst</text><rect fill="#FFF3E5" height="1037.1094" style="stroke:#181818;stroke-width:0.5;" width="476.3354" x="430.1699" y="27.6406"/><text fill="#000000" font-family="Helvetica" font-size="10" font-weight="700" x="635.1931" y="36.9229">ZETA Guard</text><rect fill="#EAF2FF" height="1053.75" style="stroke:#181818;stroke-width:0.5;" width="111.6582" x="918.5054" y="11"/><text fill="#000000" font-family="Helvetica" font-size="10" font-weight="700" x="936.229" y="20.2822">TI-F&#246;deration</text><g><title>ZETA Client</title><rect fill="#000000" fill-opacity="0.00000" height="915.625" width="8" x="104.2671" y="93.2031"/><line style="stroke:#000000;stroke-width:0.5;stroke-dasharray:5,5;" x1="107.7671" x2="107.7671" y1="93.2031" y2="1008.8281"/></g><g><title>PDP</title><rect fill="#000000" fill-opacity="0.00000" height="915.625" width="8" x="489.186" y="93.2031"/><line style="stroke:#000000;stroke-width:0.5;stroke-dasharray:5,5;" x1="492.686" x2="492.686" y1="93.2031" y2="1008.8281"/></g><g><title/><rect fill="#FFFFFF" height="807.0625" style="stroke:#181818;stroke-width:1;" width="10" x="487.686" y="201.7656"/></g><g><title/><rect fill="#FFFFFF" height="99.2031" style="stroke:#181818;stroke-width:1;" width="10" x="492.686" y="767.4219"/></g><g><title>PDP</title><rect fill="#000000" fill-opacity="0.00000" height="915.625" width="8" x="858.7192" y="93.2031"/><line style="stroke:#000000;stroke-width:0.5;stroke-dasharray:5,5;" x1="862.2192" x2="862.2192" y1="93.2031" y2="1008.8281"/></g><g><title/><rect fill="#FFFFFF" height="25.6406" style="stroke:#181818;stroke-width:1;" width="10" x="857.2192" y="527.375"/></g><g><title>Sektoraler IDP</title><rect fill="#000000" fill-opacity="0.00000" height="915.625" width="8" x="970.8345" y="93.2031"/><line style="stroke:#000000;stroke-width:0.5;stroke-dasharray:5,5;" x1="974.3345" x2="974.3345" y1="93.2031" y2="1008.8281"/></g><g><title/><rect fill="#FFFFFF" height="110.8438" style="stroke:#181818;stroke-width:1;" width="10" x="969.3345" y="250.6875"/></g><rect fill="#FFE6CC" height="25.6406" rx="2.5" ry="2.5" style="stroke:#D79B00;stroke-width:0.5;" width="72.2471" x="71.6436" y="66.5625"/><text fill="#000000" font-family="Helvetica" font-size="10" x="78.6436" y="82.8447">ZETA Client</text><rect fill="#FFE6CC" height="48.9219" rx="2.5" ry="2.5" style="stroke:#D79B00;stroke-width:0.5;" width="117.0322" x="434.1699" y="43.2813"/><text fill="#000000" font-family="Helvetica" font-size="10" x="482.8057" y="59.5635">PDP</text><text fill="#000000" font-family="Helvetica" font-size="10" x="441.2114" y="71.2041">Authorization Server</text><text fill="#000000" font-family="Helvetica" font-size="10" x="441.1699" y="82.8447">(OIDC Relying Party)</text><rect fill="#FFE6CC" height="37.2813" rx="2.5" ry="2.5" style="stroke:#D79B00;stroke-width:0.5;" width="80.5723" x="821.9331" y="54.9219"/><text fill="#000000" font-family="Helvetica" font-size="10" x="852.3389" y="71.2041">PDP</text><text fill="#000000" font-family="Helvetica" font-size="10" x="828.9331" y="82.8447">Policy Engine</text><rect fill="#E2E2F0" height="37.2813" rx="2.5" ry="2.5" style="stroke:#181818;stroke-width:0.5;" width="103.6582" x="922.5054" y="54.9219"/><text fill="#000000" font-family="Helvetica" font-size="10" x="938.5996" y="71.2041">Sektoraler IDP</text><text fill="#000000" font-family="Helvetica" font-size="10" x="929.5054" y="82.8447">(Token-Endpunkt)</text><rect fill="#FFE6CC" height="25.6406" rx="2.5" ry="2.5" style="stroke:#D79B00;stroke-width:0.5;" width="72.2471" x="71.6436" y="1008.8281"/><text fill="#000000" font-family="Helvetica" font-size="10" x="78.6436" y="1025.1104">ZETA Client</text><rect fill="#FFE6CC" height="48.9219" rx="2.5" ry="2.5" style="stroke:#D79B00;stroke-width:0.5;" width="117.0322" x="434.1699" y="1008.8281"/><text fill="#000000" font-family="Helvetica" font-size="10" x="482.8057" y="1025.1104">PDP</text><text fill="#000000" font-family="Helvetica" font-size="10" x="441.2114" y="1036.751">Authorization Server</text><text fill="#000000" font-family="Helvetica" font-size="10" x="441.1699" y="1048.3916">(OIDC Relying Party)</text><rect fill="#FFE6CC" height="37.2813" rx="2.5" ry="2.5" style="stroke:#D79B00;stroke-width:0.5;" width="80.5723" x="821.9331" y="1008.8281"/><text fill="#000000" font-family="Helvetica" font-size="10" x="852.3389" y="1025.1104">PDP</text><text fill="#000000" font-family="Helvetica" font-size="10" x="828.9331" y="1036.751">Policy Engine</text><rect fill="#E2E2F0" height="37.2813" rx="2.5" ry="2.5" style="stroke:#181818;stroke-width:0.5;" width="103.6582" x="922.5054" y="1008.8281"/><text fill="#000000" font-family="Helvetica" font-size="10" x="938.5996" y="1025.1104">Sektoraler IDP</text><text fill="#000000" font-family="Helvetica" font-size="10" x="929.5054" y="1036.751">(Token-Endpunkt)</text><path d="M68.7908,106.2031 L68.7908,127.2031 L1012.7908,127.2031 L1012.7908,116.2031 L1002.7908,106.2031 L68.7908,106.2031" fill="#FEFFDD" style="stroke:#181818;stroke-width:0.5;"/><path d="M1002.7908,106.2031 L1002.7908,116.2031 L1012.7908,116.2031 L1002.7908,106.2031" fill="#FEFFDD" style="stroke:#181818;stroke-width:0.5;"/><text fill="#000000" font-family="Helvetica" font-size="10" x="322.2344" y="120.4854">Der ZETA Client hat aus Teildiagramm (B) den AUTHORIZATION_CODE (IDP) erhalten.</text><rect fill="#EEEEEE" height="3" style="stroke:#EEEEEE;stroke-width:1;" width="1312.9741" x="10" y="151.6641"/><line style="stroke:#000000;stroke-width:1;" x1="10" x2="1322.9741" y1="151.6641" y2="151.6641"/><line style="stroke:#000000;stroke-width:1;" x1="10" x2="1322.9741" y1="154.6641" y2="154.6641"/><rect fill="#EEEEEE" height="19.6406" style="stroke:#000000;stroke-width:2;" width="286.7197" x="523.1272" y="142.8438"/><text fill="#000000" font-family="Helvetica" font-size="10" font-weight="700" x="529.1272" y="156.126">Innerer Flow: Token-Bezug beim sektoralen IDP</text><polygon fill="#181818" points="475.686,197.7656,485.686,201.7656,475.686,205.7656,479.686,201.7656" style="stroke:#181818;stroke-width:1;stroke-linejoin:miter;stroke-miterlimit:10;"/><line style="stroke:#181818;stroke-width:1;" x1="107.7671" x2="481.686" y1="201.7656" y2="201.7656"/><text fill="#000000" font-family="Helvetica" font-size="10" x="114.7671" y="191.5869">(01)</text><text fill="#000000" font-family="Helvetica" font-size="10" x="139.2944" y="185.7666">Leitet AUTHORIZATION_CODE (IDP) weiter</text><text fill="#000000" font-family="Helvetica" font-size="10" x="139.2944" y="197.4072">{code=AUTH_CODE_IDP, state=state_as}</text><polygon fill="#181818" points="957.3345,246.6875,967.3345,250.6875,957.3345,254.6875,961.3345,250.6875" style="stroke:#181818;stroke-width:1;stroke-linejoin:miter;stroke-miterlimit:10;"/><line style="stroke:#181818;stroke-width:1;" x1="497.686" x2="963.3345" y1="250.6875" y2="250.6875"/><text fill="#000000" font-family="Helvetica" font-size="10" x="504.686" y="234.6885">(02)</text><text fill="#000000" font-family="Helvetica" font-size="10" x="529.2134" y="223.0479">POST /token (mTLS, self_signed_tls_client_auth)</text><text fill="#000000" font-family="Helvetica" font-size="10" x="529.2134" y="234.6885">{grant_type=authorization_code, code=AUTH_CODE_IDP,</text><text fill="#000000" font-family="Helvetica" font-size="10" x="529.2134" y="246.3291">code_verifier=code_verifier_as, client_id, redirect_uri}</text><line style="stroke:#181818;stroke-width:1;" x1="979.3345" x2="1021.3345" y1="299.6094" y2="299.6094"/><line style="stroke:#181818;stroke-width:1;" x1="1021.3345" x2="1021.3345" y1="299.6094" y2="312.6094"/><line style="stroke:#181818;stroke-width:1;" x1="980.3345" x2="1021.3345" y1="312.6094" y2="312.6094"/><polygon fill="#181818" points="990.3345,308.6094,980.3345,312.6094,990.3345,316.6094,986.3345,312.6094" style="stroke:#181818;stroke-width:1;stroke-linejoin:miter;stroke-miterlimit:10;"/><text fill="#000000" font-family="Helvetica" font-size="10" x="986.3345" y="283.6104">(03)</text><text fill="#000000" font-family="Helvetica" font-size="10" x="1010.8618" y="271.9697">Pr&#252;fe TLS-Clientzertifikat,</text><text fill="#000000" font-family="Helvetica" font-size="10" x="1010.8618" y="283.6104">verifiziere code_verifier_as gegen code_challenge_as (S256),</text><text fill="#000000" font-family="Helvetica" font-size="10" x="1010.8618" y="295.251">invalidiere AUTHORIZATION_CODE</text><polygon fill="#181818" points="508.686,357.5313,498.686,361.5313,508.686,365.5313,504.686,361.5313" style="stroke:#181818;stroke-width:1;stroke-linejoin:miter;stroke-miterlimit:10;"/><line style="stroke:#181818;stroke-width:1;stroke-dasharray:2,2;" x1="502.686" x2="968.3345" y1="361.5313" y2="361.5313"/><text fill="#000000" font-family="Helvetica" font-size="10" x="514.686" y="345.5322">(04)</text><text fill="#000000" font-family="Helvetica" font-size="10" x="539.2134" y="333.8916">200 OK</text><text fill="#000000" font-family="Helvetica" font-size="10" x="539.2134" y="345.5322">{id_token (JWE: ECDH-ES/A256GCM, signiert ES256),</text><text fill="#000000" font-family="Helvetica" font-size="10" x="539.2134" y="357.1729">access_token, token_type=Bearer, expires_in}</text><line style="stroke:#181818;stroke-width:1;" x1="497.686" x2="539.686" y1="398.8125" y2="398.8125"/><line style="stroke:#181818;stroke-width:1;" x1="539.686" x2="539.686" y1="398.8125" y2="411.8125"/><line style="stroke:#181818;stroke-width:1;" x1="498.686" x2="539.686" y1="411.8125" y2="411.8125"/><polygon fill="#181818" points="508.686,407.8125,498.686,411.8125,508.686,415.8125,504.686,411.8125" style="stroke:#181818;stroke-width:1;stroke-linejoin:miter;stroke-miterlimit:10;"/><text fill="#000000" font-family="Helvetica" font-size="10" x="504.686" y="388.6338">(05)</text><text fill="#000000" font-family="Helvetica" font-size="10" x="529.2134" y="382.8135">Entschl&#252;ssele ID Token, verifiziere Signatur (kid/x5c),</text><text fill="#000000" font-family="Helvetica" font-size="10" x="529.2134" y="394.4541">pr&#252;fe iss/aud/nonce/exp, extrahiere Claims (KVNR, acr, amr, ...)</text><rect fill="#EEEEEE" height="3" style="stroke:#EEEEEE;stroke-width:1;" width="1312.9741" x="10" y="438.6328"/><line style="stroke:#000000;stroke-width:1;" x1="10" x2="1322.9741" y1="438.6328" y2="438.6328"/><line style="stroke:#000000;stroke-width:1;" x1="10" x2="1322.9741" y1="441.6328" y2="441.6328"/><rect fill="#EEEEEE" height="19.6406" style="stroke:#000000;stroke-width:2;" width="388.8975" x="472.0383" y="429.8125"/><text fill="#000000" font-family="Helvetica" font-size="10" font-weight="700" x="478.0383" y="443.0947">&#196;u&#223;erer Flow: Policy-Entscheidung &amp; Ausstellung der ZETA Token</text><line style="stroke:#181818;stroke-width:1;" x1="497.686" x2="539.686" y1="488.7344" y2="488.7344"/><line style="stroke:#181818;stroke-width:1;" x1="539.686" x2="539.686" y1="488.7344" y2="501.7344"/><line style="stroke:#181818;stroke-width:1;" x1="498.686" x2="539.686" y1="501.7344" y2="501.7344"/><polygon fill="#181818" points="508.686,497.7344,498.686,501.7344,508.686,505.7344,504.686,501.7344" style="stroke:#181818;stroke-width:1;stroke-linejoin:miter;stroke-miterlimit:10;"/><text fill="#000000" font-family="Helvetica" font-size="10" x="504.686" y="478.5557">(06)</text><text fill="#000000" font-family="Helvetica" font-size="10" x="529.2134" y="472.7354">Erzeuge Policy Engine Input</text><text fill="#000000" font-family="Helvetica" font-size="10" x="529.2134" y="484.376">(Identit&#228;ts-Claims, Posture, Kontext)</text><polygon fill="#181818" points="845.2192,523.375,855.2192,527.375,845.2192,531.375,849.2192,527.375" style="stroke:#181818;stroke-width:1;stroke-linejoin:miter;stroke-miterlimit:10;"/><line style="stroke:#181818;stroke-width:1;" x1="497.686" x2="851.2192" y1="527.375" y2="527.375"/><text fill="#000000" font-family="Helvetica" font-size="10" x="504.686" y="523.0166">(07)</text><text fill="#000000" font-family="Helvetica" font-size="10" x="529.2134" y="523.0166">POST /v1/data/authz {Policy Engine Input}</text><polygon fill="#181818" points="508.686,549.0156,498.686,553.0156,508.686,557.0156,504.686,553.0156" style="stroke:#181818;stroke-width:1;stroke-linejoin:miter;stroke-miterlimit:10;"/><line style="stroke:#181818;stroke-width:1;stroke-dasharray:2,2;" x1="502.686" x2="856.2192" y1="553.0156" y2="553.0156"/><text fill="#000000" font-family="Helvetica" font-size="10" x="514.686" y="548.6572">(08)</text><text fill="#000000" font-family="Helvetica" font-size="10" x="539.2134" y="548.6572">Policy Decision</text><path d="M91.7671,565.0156 L151.7231,565.0156 L151.7231,568.6563 L141.7231,578.6563 L91.7671,578.6563 L91.7671,565.0156" fill="#EEEEEE" style="stroke:#000000;stroke-width:1.5;"/><rect fill="none" height="364.8906" style="stroke:#000000;stroke-width:1.5;" width="786.4521" x="91.7671" y="565.0156"/><text fill="#000000" font-family="Helvetica" font-size="10" font-weight="700" x="106.7671" y="575.2979">alt</text><text fill="#000000" font-family="Helvetica" font-size="10" font-weight="700" x="166.7231" y="576.2979">[Policy Decision allow]</text><line style="stroke:#000000;stroke-width:1;stroke-dasharray:2,2;" x1="91.7671" x2="878.2192" y1="885.625" y2="885.625"/><text fill="#000000" font-family="Helvetica" font-size="10" font-weight="700" x="96.7671" y="896.9072">[Policy Decision deny]</text><line style="stroke:#181818;stroke-width:1;" x1="497.686" x2="539.686" y1="606.2969" y2="606.2969"/><line style="stroke:#181818;stroke-width:1;" x1="539.686" x2="539.686" y1="606.2969" y2="619.2969"/><line style="stroke:#181818;stroke-width:1;" x1="498.686" x2="539.686" y1="619.2969" y2="619.2969"/><polygon fill="#181818" points="508.686,615.2969,498.686,619.2969,508.686,623.2969,504.686,619.2969" style="stroke:#181818;stroke-width:1;stroke-linejoin:miter;stroke-miterlimit:10;"/><text fill="#000000" font-family="Helvetica" font-size="10" x="504.686" y="601.9385">(09)</text><text fill="#000000" font-family="Helvetica" font-size="10" x="529.2134" y="601.9385">Erzeuge AUTHORIZATION_CODE (AS)</text><polygon fill="#181818" points="118.7671,652.5781,108.7671,656.5781,118.7671,660.5781,114.7671,656.5781" style="stroke:#181818;stroke-width:1;stroke-linejoin:miter;stroke-miterlimit:10;"/><line style="stroke:#181818;stroke-width:1;stroke-dasharray:2,2;" x1="112.7671" x2="486.686" y1="656.5781" y2="656.5781"/><text fill="#000000" font-family="Helvetica" font-size="10" x="124.7671" y="646.3994">(10)</text><text fill="#000000" font-family="Helvetica" font-size="10" x="149.2944" y="640.5791">302 Found</text><text fill="#000000" font-family="Helvetica" font-size="10" x="149.2944" y="652.2197">Location: &lt;redirect_uri&gt;?code=AUTH_CODE_AS&amp;state=state_app</text><line style="stroke:#181818;stroke-width:1;" x1="107.7671" x2="149.7671" y1="693.8594" y2="693.8594"/><line style="stroke:#181818;stroke-width:1;" x1="149.7671" x2="149.7671" y1="693.8594" y2="706.8594"/><line style="stroke:#181818;stroke-width:1;" x1="108.7671" x2="149.7671" y1="706.8594" y2="706.8594"/><polygon fill="#181818" points="118.7671,702.8594,108.7671,706.8594,118.7671,710.8594,114.7671,706.8594" style="stroke:#181818;stroke-width:1;stroke-linejoin:miter;stroke-miterlimit:10;"/><text fill="#000000" font-family="Helvetica" font-size="10" x="114.7671" y="683.6807">(11)</text><text fill="#000000" font-family="Helvetica" font-size="10" x="139.2944" y="677.8604">Erzeuge DPoP Key Pair (PrK.DPoP.Sig, PuK.DPoP.Sig)</text><text fill="#000000" font-family="Helvetica" font-size="10" x="139.2944" y="689.501">und DPoP Proof</text><polygon fill="#181818" points="480.686,763.4219,490.686,767.4219,480.686,771.4219,484.686,767.4219" style="stroke:#181818;stroke-width:1;stroke-linejoin:miter;stroke-miterlimit:10;"/><line style="stroke:#181818;stroke-width:1;" x1="107.7671" x2="486.686" y1="767.4219" y2="767.4219"/><text fill="#000000" font-family="Helvetica" font-size="10" x="114.7671" y="745.6025">(12)</text><text fill="#000000" font-family="Helvetica" font-size="10" x="139.2944" y="728.1416">POST /token  dpop: &lt;dpop_proof&gt;</text><text fill="#000000" font-family="Helvetica" font-size="10" x="139.2944" y="739.7822">{grant_type=authorization_code, code=AUTH_CODE_AS,</text><text fill="#000000" font-family="Helvetica" font-size="10" x="139.2944" y="751.4229">code_verifier=code_verifier_app, client_id, redirect_uri,</text><text fill="#000000" font-family="Helvetica" font-size="10" x="139.2944" y="763.0635">client_assertion (JWT, PrK.Client.Sig signiert)}</text><line style="stroke:#181818;stroke-width:1;" x1="502.686" x2="544.686" y1="804.7031" y2="804.7031"/><line style="stroke:#181818;stroke-width:1;" x1="544.686" x2="544.686" y1="804.7031" y2="817.7031"/><line style="stroke:#181818;stroke-width:1;" x1="503.686" x2="544.686" y1="817.7031" y2="817.7031"/><polygon fill="#181818" points="513.686,813.7031,503.686,817.7031,513.686,821.7031,509.686,817.7031" style="stroke:#181818;stroke-width:1;stroke-linejoin:miter;stroke-miterlimit:10;"/><text fill="#000000" font-family="Helvetica" font-size="10" x="509.686" y="794.5244">(13)</text><text fill="#000000" font-family="Helvetica" font-size="10" x="534.2134" y="788.7041">Verifiziere code_verifier_app gegen code_challenge_app (S256),</text><text fill="#000000" font-family="Helvetica" font-size="10" x="534.2134" y="800.3447">DPoP Proof und Client Assertion (Key Binding aus DCR)</text><polygon fill="#181818" points="118.7671,862.625,108.7671,866.625,118.7671,870.625,114.7671,866.625" style="stroke:#181818;stroke-width:1;stroke-linejoin:miter;stroke-miterlimit:10;"/><line style="stroke:#181818;stroke-width:1;stroke-dasharray:2,2;" x1="112.7671" x2="491.686" y1="866.625" y2="866.625"/><text fill="#000000" font-family="Helvetica" font-size="10" x="124.7671" y="850.626">(14)</text><text fill="#000000" font-family="Helvetica" font-size="10" x="149.2944" y="838.9854">200 OK</text><text fill="#000000" font-family="Helvetica" font-size="10" x="149.2944" y="850.626">{access_token (DPoP-gebunden), refresh_token,</text><text fill="#000000" font-family="Helvetica" font-size="10" x="149.2944" y="862.2666">token_type=DPoP, expires_in}</text><polygon fill="#181818" points="118.7671,917.9063,108.7671,921.9063,118.7671,925.9063,114.7671,921.9063" style="stroke:#181818;stroke-width:1;stroke-linejoin:miter;stroke-miterlimit:10;"/><line style="stroke:#181818;stroke-width:1;stroke-dasharray:2,2;" x1="112.7671" x2="486.686" y1="921.9063" y2="921.9063"/><text fill="#000000" font-family="Helvetica" font-size="10" x="124.7671" y="917.5479">(15)</text><text fill="#000000" font-family="Helvetica" font-size="10" x="149.2944" y="917.5479">403 Forbidden {"reasons": ["..."]}</text><path d="M15,948.9063 L15,992.9063 L585,992.9063 L585,958.9063 L575,948.9063 L15,948.9063" fill="#FEFFDD" style="stroke:#181818;stroke-width:0.5;"/><path d="M575,948.9063 L575,958.9063 L585,958.9063 L575,948.9063" fill="#FEFFDD" style="stroke:#181818;stroke-width:0.5;"/><text fill="#000000" font-family="Helvetica" font-size="10" x="21" y="963.1885">Der ZETA Client besitzt nun ein DPoP-gebundenes Access Token und kann auf den Resource Server zugreifen</text><text fill="#000000" font-family="Helvetica" font-size="10" x="21" y="974.8291">(siehe Abb-ZETA-Zugriff-auf-RS-mit-ASL bzw. Abb-ZETA-Zugriff-auf-RS-ohne-ASL).</text><text fill="#000000" font-family="Helvetica" font-size="10" x="21" y="986.4697">Die Session-Erneuerung erfolgt &#252;ber Abb-ZETA-Token-Exchange-mit-Refresh-Token.</text><?plantuml-src bLRTRk965BxtKvnIQOkr6D9ijnTeIUM0iqkJNH1cKscRoXhi0unYnjRCE0ciSjVtw4sVeLUvuyLwPWpX9z1LRqB6C-VlEz_vPhxZ8awB1A5UR-J5BFLIDiyANTSFsd6S7s28F4qucqWscq6rxJPXcDsYyCvnKKnWX7m62czr9bcA0hgTVWtwMShZkHS8hU8fygGG4oX40dwXbCOqDUi49Nm9XdxfRHK7xZ81_cZacHslr-sqFR_GKnIQZ_c2eoHBRvQDU8hIQwUSDfJZZB87g7oqNy7FymfqWkjkEuZQlQlUm078cTGyvZaJ6aeZO0egDdgvhi2xTmlKxEpCGSgJ7Awy-cB4KLEgmowSra-WGwSL7UyFUjVTJZ1uZc5FMu_l2oQJYgqjUl_P7tIUp-ncOWeBRIBzJlz6c6Kc-O9fJXY4AEzGteYgmG06cCuvOTOdyxcxbUo-prxVttWikm21c721EqRh6dTh7NQzY-K_r1URGWM-3_oBqukBFG2fmJP4kEwvD9yeqv8LWKZoGjngjxBnBZADa54zAxHhng89dJK3LZsPCkfBeVO8T-uILOWKduSVUeFk5t_OxNqYH3i1LCcB2oYdBDKewexJQa5N29JazoBDxhz9L6Yr76SLt3ih6_BwTHEka6lKnqFUctrgpjSuIx1bZjdTo79VQQQnPVz6J3qwPPl9FUqQv_rUE8I6Dfb1TJQy2ia4qt6a-4HW4kbKHR5DAM9awL8K0e9MUfvZYssJ93BXQt0WYHjXFaQ4E8qDojREYh8Yep84JseWCU4IOnqLaZyw1fOoMKfLBf_629JZQjOMACqWtZ9D8Kf_PYWHzWF012TKd_qSKty8y8c10whXwTkVNRBcuewbFB7MBu4kqrZtnFEQS7fo0hrBGeCJHYLul_uMD25eTpvuGTZmoU_xzaS2at0ahng2TIWMnwXKQLK3-rEYUOwCk583VCW90HLniTKk-m_vjngMBfyKTGa9bv9KDTWkFwIOJ1SIghSyQJoyZKtOl4IFAzLWHT8GcOYnGQ5CF2tPr5gsKyPd1ClbzQT13LXCsR0P_QdNwwubzFBFOldN5gKFIUkh_n1Mo_4NHSa55XE47OMWsSaBJOFSJOpUwkNVMdbbVaRH5TL7RBlCXARytOrFqfmDh-z-R2HCiuOXwWA-7WZmw1YHskdjwbG7Oww8ruv30xt_4OX4sRqLl6FL79fNFtItRSYeP78JtfoSmaL6jzADkCfYEr1DUBSz36U_x8sM7xxQcUuyjxut2hBslSweqy_wS8bp4cvEvEZBoxhvL2U-4AJ5PaLZRkv7Uxulisoyv_XPchRL0v8yoobdynFbnkhiVwk57tvBBFByg5eOqvLKqNH8Ut7HL0wfDggqpDvKzpoJxkF11buVLv8yFo8bjF6i9HlOx2jZ1Pk_oScqu9oBnDoXveRfj0U7QR6ZDDkw0LKJn9lWY2AWS0qGOzACwKfMRiIMhfYZkwg2gS8NZ2O_yoFa_Eda3P5JZdXYxhwl5ObCPK9Lcl1xXQIXyiUZkLqFtQpM5tdTlrn7gBXUQ22U0N81E-MW0jyMkz8CW-8j4pHqnTZUlWDKMI5ZNBrBW2vKYNnCxpQ0gk8unSshxGljyV7O8rjl47ephZq_l8BHuhv-z50s5MXEkNMJEZTnbC782wJ0mZxxwA8VP-b4m_9fH1ayUrezEnw86qGC6svGjgRSgjjtY07A-HS0?></g></svg>