<svg xmlns="http://www.w3.org/2000/svg" xmlns:xlink="http://www.w3.org/1999/xlink" contentStyleType="text/css" data-diagram-type="SEQUENCE" height="645px" preserveAspectRatio="none" style="width:1083px;height:645px;background:#FFFFFF;" version="1.1" viewBox="0 0 1083 645" width="1083px" zoomAndPan="magnify"><defs/><g><rect fill="#FEFCFF" height="633.375" style="stroke:#181818;stroke-width:0.5;" width="87.1543" x="86.1797" y="6"/><text fill="#000000" font-family="Helvetica" font-size="10" font-weight="bold" x="98.1797" y="15.2822">Mobile App</text><rect fill="#E4E4F4" height="633.375" style="stroke:#181818;stroke-width:0.5;" width="124.2217" x="362.1255" y="6"/><text fill="#000000" font-family="Helvetica" font-size="10" font-weight="bold" x="385.1738" y="15.2822">Authenticator</text><rect fill="#EAF2FF" height="633.375" style="stroke:#181818;stroke-width:0.5;" width="148.1279" x="761.8394" y="6"/><text fill="#000000" font-family="Helvetica" font-size="10" font-weight="bold" x="797.7979" y="15.2822">TI-F&#246;deration</text><g><title>Nutzer</title><rect fill="#000000" fill-opacity="0.00000" height="445.1719" width="8" x="39.0898" y="104.9219"/><line style="stroke:#000000;stroke-width:0.5;stroke-dasharray:5.0,5.0;" x1="42.5898" x2="42.5898" y1="104.9219" y2="550.0938"/></g><g><title/><rect fill="#FFFFFF" height="25.6406" style="stroke:#000000;stroke-width:1;" width="10" x="37.5898" y="324.3281"/></g><g><title>ZETA Client</title><rect fill="#000000" fill-opacity="0.00000" height="445.1719" width="8" x="126.2568" y="104.9219"/><line style="stroke:#000000;stroke-width:0.5;stroke-dasharray:5.0,5.0;" x1="129.7568" x2="129.7568" y1="104.9219" y2="550.0938"/></g><g><title/><rect fill="#FFFFFF" height="437.1719" style="stroke:#000000;stroke-width:1;" width="10" x="124.7568" y="112.9219"/></g><g><title>Authenticator-Modul</title><rect fill="#000000" fill-opacity="0.00000" height="445.1719" width="8" x="420.7363" y="104.9219"/><line style="stroke:#000000;stroke-width:0.5;stroke-dasharray:5.0,5.0;" x1="424.2363" x2="424.2363" y1="104.9219" y2="550.0938"/></g><g><title/><rect fill="#FFFFFF" height="326.6094" style="stroke:#000000;stroke-width:1;" width="10" x="419.2363" y="173.8438"/></g><g><title>Sektoraler IDP</title><rect fill="#000000" fill-opacity="0.00000" height="445.1719" width="8" x="832.4033" y="104.9219"/><line style="stroke:#000000;stroke-width:0.5;stroke-dasharray:5.0,5.0;" x1="835.9033" x2="835.9033" y1="104.9219" y2="550.0938"/></g><g><title/><rect fill="#FFFFFF" height="252.0469" style="stroke:#000000;stroke-width:1;" width="10" x="830.9033" y="211.125"/></g><text fill="#000000" font-family="Helvetica" font-size="10" x="22.9639" y="90.9229">Nutzer</text><text fill="#000000" font-family="Helvetica" font-size="10" x="5" y="102.5635">(Versicherter)</text><ellipse cx="42.5898" cy="30.1406" fill="#E2E2F0" rx="8" ry="8" style="stroke:#181818;stroke-width:0.5;"/><path d="M42.5898,38.1406 L42.5898,65.1406 M29.5898,46.1406 L55.5898,46.1406 M42.5898,65.1406 L29.5898,80.1406 M42.5898,65.1406 L55.5898,80.1406" fill="none" style="stroke:#181818;stroke-width:0.5;"/><rect fill="#FFE6CC" height="25.6406" rx="2.5" ry="2.5" style="stroke:#D79B00;stroke-width:0.5;" width="72.2471" x="93.6333" y="78.2813"/><text fill="#000000" font-family="Helvetica" font-size="10" x="100.6333" y="94.5635">ZETA Client</text><rect fill="#E2E2F0" height="37.2813" rx="2.5" ry="2.5" style="stroke:#181818;stroke-width:0.5;" width="116.2217" x="366.1255" y="66.6406"/><text fill="#000000" font-family="Helvetica" font-size="10" x="373.1255" y="82.9229">Authenticator-Modul</text><text fill="#000000" font-family="Helvetica" font-size="10" x="385.1689" y="94.5635">(sektoraler IDP)</text><rect fill="#E2E2F0" height="37.2813" rx="2.5" ry="2.5" style="stroke:#181818;stroke-width:0.5;" width="140.1279" x="765.8394" y="66.6406"/><text fill="#000000" font-family="Helvetica" font-size="10" x="800.1685" y="82.9229">Sektoraler IDP</text><text fill="#000000" font-family="Helvetica" font-size="10" x="772.8394" y="94.5635">(Authorization-Endpunkt)</text><text fill="#000000" font-family="Helvetica" font-size="10" x="22.9639" y="619.376">Nutzer</text><text fill="#000000" font-family="Helvetica" font-size="10" x="5" y="631.0166">(Versicherter)</text><ellipse cx="42.5898" cy="558.5938" fill="#E2E2F0" rx="8" ry="8" style="stroke:#181818;stroke-width:0.5;"/><path d="M42.5898,566.5938 L42.5898,593.5938 M29.5898,574.5938 L55.5898,574.5938 M42.5898,593.5938 L29.5898,608.5938 M42.5898,593.5938 L55.5898,608.5938" fill="none" style="stroke:#181818;stroke-width:0.5;"/><rect fill="#FFE6CC" height="25.6406" rx="2.5" ry="2.5" style="stroke:#D79B00;stroke-width:0.5;" width="72.2471" x="93.6333" y="550.0938"/><text fill="#000000" font-family="Helvetica" font-size="10" x="100.6333" y="566.376">ZETA Client</text><rect fill="#E2E2F0" height="37.2813" rx="2.5" ry="2.5" style="stroke:#181818;stroke-width:0.5;" width="116.2217" x="366.1255" y="550.0938"/><text fill="#000000" font-family="Helvetica" font-size="10" x="373.1255" y="566.376">Authenticator-Modul</text><text fill="#000000" font-family="Helvetica" font-size="10" x="385.1689" y="578.0166">(sektoraler IDP)</text><rect fill="#E2E2F0" height="37.2813" rx="2.5" ry="2.5" style="stroke:#181818;stroke-width:0.5;" width="140.1279" x="765.8394" y="550.0938"/><text fill="#000000" font-family="Helvetica" font-size="10" x="800.1685" y="566.376">Sektoraler IDP</text><text fill="#000000" font-family="Helvetica" font-size="10" x="772.8394" y="578.0166">(Authorization-Endpunkt)</text><path d="M81.6631,117.9219 L81.6631,138.9219 L883.6631,138.9219 L883.6631,127.9219 L873.6631,117.9219 L81.6631,117.9219" fill="#FEFFDD" style="stroke:#181818;stroke-width:0.5;"/><path d="M873.6631,117.9219 L873.6631,127.9219 L883.6631,127.9219 L873.6631,117.9219" fill="#FEFFDD" style="stroke:#181818;stroke-width:0.5;"/><text fill="#000000" font-family="Helvetica" font-size="10" x="285.9106" y="132.2041">Der ZETA Client hat aus Teildiagramm (A) request_uri und client_id erhalten.</text><polygon fill="#181818" points="407.2363,169.8438,417.2363,173.8438,407.2363,177.8438,411.2363,173.8438" style="stroke:#181818;stroke-width:1;"/><line style="stroke:#181818;stroke-width:1;" x1="134.7568" x2="413.2363" y1="173.8438" y2="173.8438"/><text fill="#000000" font-family="Helvetica" font-size="10" x="141.7568" y="163.665">(01)</text><text fill="#000000" font-family="Helvetica" font-size="10" x="166.2842" y="157.8447">&#214;ffne Authenticator (Deep-Link / Universal-Link)</text><text fill="#000000" font-family="Helvetica" font-size="10" x="166.2842" y="169.4854">{client_id, request_uri}</text><polygon fill="#181818" points="818.9033,207.125,828.9033,211.125,818.9033,215.125,822.9033,211.125" style="stroke:#181818;stroke-width:1;"/><line style="stroke:#181818;stroke-width:1;" x1="429.2363" x2="824.9033" y1="211.125" y2="211.125"/><text fill="#000000" font-family="Helvetica" font-size="10" x="436.2363" y="200.9463">(02)</text><text fill="#000000" font-family="Helvetica" font-size="10" x="460.7637" y="195.126">GET /auth {client_id, request_uri}</text><text fill="#000000" font-family="Helvetica" font-size="10" x="460.7637" y="206.7666">(Authentication Request)</text><line style="stroke:#181818;stroke-width:1;" x1="840.9033" x2="882.9033" y1="248.4063" y2="248.4063"/><line style="stroke:#181818;stroke-width:1;" x1="882.9033" x2="882.9033" y1="248.4063" y2="261.4063"/><line style="stroke:#181818;stroke-width:1;" x1="841.9033" x2="882.9033" y1="261.4063" y2="261.4063"/><polygon fill="#181818" points="851.9033,257.4063,841.9033,261.4063,851.9033,265.4063,847.9033,261.4063" style="stroke:#181818;stroke-width:1;"/><text fill="#000000" font-family="Helvetica" font-size="10" x="847.9033" y="238.2275">(03)</text><text fill="#000000" font-family="Helvetica" font-size="10" x="872.4307" y="232.4072">Pr&#252;fe request_uri (Bezug zum PAR),</text><text fill="#000000" font-family="Helvetica" font-size="10" x="872.4307" y="244.0479">stelle Consent gem&#228;&#223; Claims zusammen</text><polygon fill="#181818" points="440.2363,283.0469,430.2363,287.0469,440.2363,291.0469,436.2363,287.0469" style="stroke:#181818;stroke-width:1;"/><line style="stroke:#181818;stroke-width:1;stroke-dasharray:2.0,2.0;" x1="434.2363" x2="829.9033" y1="287.0469" y2="287.0469"/><text fill="#000000" font-family="Helvetica" font-size="10" x="446.2363" y="282.6885">(04)</text><text fill="#000000" font-family="Helvetica" font-size="10" x="470.7637" y="282.6885">Consent-Abfrage &amp; Authentisierungsanforderung (propriet&#228;r)</text><polygon fill="#181818" points="58.5898,320.3281,48.5898,324.3281,58.5898,328.3281,54.5898,324.3281" style="stroke:#181818;stroke-width:1;"/><line style="stroke:#181818;stroke-width:1;" x1="52.5898" x2="418.2363" y1="324.3281" y2="324.3281"/><text fill="#000000" font-family="Helvetica" font-size="10" x="64.5898" y="314.1494">(05)</text><text fill="#000000" font-family="Helvetica" font-size="10" x="89.1172" y="308.3291">Fordere Authentisierung (eGK+PIN / eID)</text><text fill="#000000" font-family="Helvetica" font-size="10" x="89.1172" y="319.9697">und Consent-Freigabe an</text><polygon fill="#181818" points="407.2363,345.9688,417.2363,349.9688,407.2363,353.9688,411.2363,349.9688" style="stroke:#181818;stroke-width:1;"/><line style="stroke:#181818;stroke-width:1;" x1="47.5898" x2="413.2363" y1="349.9688" y2="349.9688"/><text fill="#000000" font-family="Helvetica" font-size="10" x="54.5898" y="345.6104">(06)</text><text fill="#000000" font-family="Helvetica" font-size="10" x="79.1172" y="345.6104">Authentisierung + Consent-Freigabe</text><polygon fill="#181818" points="818.9033,371.6094,828.9033,375.6094,818.9033,379.6094,822.9033,375.6094" style="stroke:#181818;stroke-width:1;"/><line style="stroke:#181818;stroke-width:1;" x1="429.2363" x2="824.9033" y1="375.6094" y2="375.6094"/><text fill="#000000" font-family="Helvetica" font-size="10" x="436.2363" y="371.251">(07)</text><text fill="#000000" font-family="Helvetica" font-size="10" x="460.7637" y="371.251">Best&#228;tigt erfolgreiche Authentisierung (propriet&#228;r)</text><line style="stroke:#181818;stroke-width:1;" x1="840.9033" x2="882.9033" y1="412.8906" y2="412.8906"/><line style="stroke:#181818;stroke-width:1;" x1="882.9033" x2="882.9033" y1="412.8906" y2="425.8906"/><line style="stroke:#181818;stroke-width:1;" x1="841.9033" x2="882.9033" y1="425.8906" y2="425.8906"/><polygon fill="#181818" points="851.9033,421.8906,841.9033,425.8906,851.9033,429.8906,847.9033,425.8906" style="stroke:#181818;stroke-width:1;"/><text fill="#000000" font-family="Helvetica" font-size="10" x="847.9033" y="402.7119">(08)</text><text fill="#000000" font-family="Helvetica" font-size="10" x="872.4307" y="396.8916">Erzeuge AUTHORIZATION_CODE (IDP),</text><text fill="#000000" font-family="Helvetica" font-size="10" x="872.4307" y="408.5322">G&#252;ltigkeit max. 90s</text><polygon fill="#181818" points="440.2363,459.1719,430.2363,463.1719,440.2363,467.1719,436.2363,463.1719" style="stroke:#181818;stroke-width:1;"/><line style="stroke:#181818;stroke-width:1;stroke-dasharray:2.0,2.0;" x1="434.2363" x2="829.9033" y1="463.1719" y2="463.1719"/><text fill="#000000" font-family="Helvetica" font-size="10" x="446.2363" y="452.9932">(09)</text><text fill="#000000" font-family="Helvetica" font-size="10" x="470.7637" y="447.1729">302 Found</text><text fill="#000000" font-family="Helvetica" font-size="10" x="470.7637" y="458.8135">Location: &lt;oidc_redirect_uri&gt;?code=AUTH_CODE_IDP&amp;state=state_as</text><polygon fill="#181818" points="145.7568,496.4531,135.7568,500.4531,145.7568,504.4531,141.7568,500.4531" style="stroke:#181818;stroke-width:1;"/><line style="stroke:#181818;stroke-width:1;" x1="139.7568" x2="418.2363" y1="500.4531" y2="500.4531"/><text fill="#000000" font-family="Helvetica" font-size="10" x="151.7568" y="490.2744">(10)</text><text fill="#000000" font-family="Helvetica" font-size="10" x="176.2842" y="484.4541">App-Link / Universal-Link</text><text fill="#000000" font-family="Helvetica" font-size="10" x="176.2842" y="496.0947">{code=AUTH_CODE_IDP, state=state_as}</text><path d="M81.6631,513.4531 L81.6631,534.4531 L883.6631,534.4531 L883.6631,523.4531 L873.6631,513.4531 L81.6631,513.4531" fill="#FEFFDD" style="stroke:#181818;stroke-width:0.5;"/><path d="M873.6631,513.4531 L873.6631,523.4531 L883.6631,523.4531 L873.6631,513.4531" fill="#FEFFDD" style="stroke:#181818;stroke-width:0.5;"/><text fill="#000000" font-family="Helvetica" font-size="10" x="330.1758" y="527.7354">Weiter mit Teildiagramm (C) Abb-ZETA-OIDC-Token-Bezug.</text><!--SRC=[TPJ1Rjf0443l_eefbL8Gc4JfgIYXSi2aLXD0AKcb20ajU80LzgwxkuvIgln6hxta6thApJ_MMTka499B9DQpRsRUpkGT5xCe3H6QpSCaZICtOZzbQfhctZYEym56oAEGiuLYSGpLireB-gbPesAfMQ8mN7DKgLW0Yq7ZoaZ58XGGT8UGFKrHGSWqU6NiZD5tzrA6QLIIuKuAyAPJzzOVUUuWw7RSJV2Shmkq6yifZr2vdOZJ1-quR4OSkDQ49tgbA6WigZUeD9yjKHbKjOhZJEKzL2xps-0bIGMw_atGyIUTmSNWoW58cAAYUCA4WGAUysmjvUyAd9oiqR1ssq4H0W5BwavB5RZm0w9U3WTzlpzwbUzTvknNL53Xp-QKDKUbxoOR1Mul-nkITCEbgC1xt-iTztelCbZdDiMt7HZHRKwf-3g_xVeYJ5AnCjjPYcRhTKT8Wo3lw6fnrB285dJfOCiAB1cPIlMBuV1geF17YjfCKiKX9VeiZv_m450jMMHGD3VPm6sJb7gz1Tdl-LpWxfH0jOkOk1TShE0GhWMdcZIByeFQMFnw1ZUsSpuuf9cuLBG5d_iZEBI32c_5btRAjAG7heglDSVgB50j6AhiQOuxtLNFS9qkO9t6CFIkQesnq0OZ6hIE5Dgsjy0uUyp-a3B6Oqs1cYIXABXvxwrDhEjDvuej40wU9PHhfPcOInKMArPDb4mKHvCzgbhPgLq2sselZyANzw6Avr_hmw1F4Z7eaZdxAfkqFOLymQO8J3ZvDkLbkMvh3rFVk_FVT0lEI4hsQFZ2q3FFPRIW65h3_M9s6jWMxAirfYJ0knvz6Lm5jzue6FHfZxe-LEr6aDxpx2cY52la1c9stuHFHtfBfgtwuz4nYQ0En-925k_PWXF9mzb4OSWLplAtQt-UoH1FRQuynOGe1zemWwVvtmdJPNV5fEP2aZU6qSxY7gq1kxW7vwtD-axjq5bCJUqkKwVsul_YIAvGkFdKDPr_]--></g></svg>