<svg xmlns="http://www.w3.org/2000/svg" xmlns:xlink="http://www.w3.org/1999/xlink" contentStyleType="text/css" data-diagram-type="SEQUENCE" height="1169px" preserveAspectRatio="none" style="width:1385px;height:1169px;background:#FFFFFF;" version="1.1" viewBox="0 0 1385 1169" width="1385px" zoomAndPan="magnify"><?plantuml 1.2026.6?><defs/><g><rect fill="#FEFCFF" height="1143.5938" style="stroke:#181818;stroke-width:0.5;" width="87.1543" x="25.3398" y="11"/><text fill="#000000" font-family="Helvetica" font-size="10" font-weight="700" x="37.3398" y="20.2822">Mobile App</text><rect fill="#EDFDEC" height="1143.5938" style="stroke:#181818;stroke-width:0.5;" width="476.3354" x="482.0083" y="11"/><text fill="#000000" font-family="Helvetica" font-size="10" font-weight="700" x="658.2839" y="20.2822">Anbieter TI 2.0 Dienst</text><rect fill="#FFF3E5" height="1126.9531" style="stroke:#181818;stroke-width:0.5;" width="476.3354" x="482.0083" y="27.6406"/><text fill="#000000" font-family="Helvetica" font-size="10" font-weight="700" x="687.0315" y="36.9229">ZETA Guard</text><rect fill="#EAF2FF" height="1143.5938" style="stroke:#181818;stroke-width:0.5;" width="111.6582" x="970.3438" y="11"/><text fill="#000000" font-family="Helvetica" font-size="10" font-weight="700" x="988.0674" y="20.2822">TI-F&#246;deration</text><g><title>ZETA Client</title><rect fill="#000000" fill-opacity="0.00000" height="1005.4688" width="8" x="65.417" y="93.2031"/><line style="stroke:#000000;stroke-width:0.5;stroke-dasharray:5,5;" x1="68.917" x2="68.917" y1="93.2031" y2="1098.6719"/></g><g><title/><rect fill="#FFFFFF" height="997.4688" style="stroke:#181818;stroke-width:1;" width="10" x="63.917" y="101.2031"/></g><g><title>PDP</title><rect fill="#000000" fill-opacity="0.00000" height="1005.4688" width="8" x="541.0244" y="93.2031"/><line style="stroke:#000000;stroke-width:0.5;stroke-dasharray:5,5;" x1="544.5244" x2="544.5244" y1="93.2031" y2="1098.6719"/></g><g><title/><rect fill="#FFFFFF" height="807.0625" style="stroke:#181818;stroke-width:1;" width="10" x="539.5244" y="291.6094"/></g><g><title/><rect fill="#FFFFFF" height="99.2031" style="stroke:#181818;stroke-width:1;" width="10" x="544.5244" y="857.2656"/></g><g><title>PDP</title><rect fill="#000000" fill-opacity="0.00000" height="1005.4688" width="8" x="910.5576" y="93.2031"/><line style="stroke:#000000;stroke-width:0.5;stroke-dasharray:5,5;" x1="914.0576" x2="914.0576" y1="93.2031" y2="1098.6719"/></g><g><title/><rect fill="#FFFFFF" height="25.6406" style="stroke:#181818;stroke-width:1;" width="10" x="909.0576" y="617.2188"/></g><g><title>Sektoraler IDP</title><rect fill="#000000" fill-opacity="0.00000" height="1005.4688" width="8" x="1022.6729" y="93.2031"/><line style="stroke:#000000;stroke-width:0.5;stroke-dasharray:5,5;" x1="1026.1729" x2="1026.1729" y1="93.2031" y2="1098.6719"/></g><g><title/><rect fill="#FFFFFF" height="110.8438" style="stroke:#181818;stroke-width:1;" width="10" x="1021.1729" y="340.5313"/></g><rect fill="#FFE6CC" height="25.6406" rx="2.5" ry="2.5" style="stroke:#D79B00;stroke-width:0.5;" width="72.2471" x="32.7935" y="66.5625"/><text fill="#000000" font-family="Helvetica" font-size="10" x="39.7935" y="82.8447">ZETA Client</text><rect fill="#FFE6CC" height="48.9219" rx="2.5" ry="2.5" style="stroke:#D79B00;stroke-width:0.5;" width="117.0322" x="486.0083" y="43.2813"/><text fill="#000000" font-family="Helvetica" font-size="10" x="534.644" y="59.5635">PDP</text><text fill="#000000" font-family="Helvetica" font-size="10" x="493.0498" y="71.2041">Authorization Server</text><text fill="#000000" font-family="Helvetica" font-size="10" x="493.0083" y="82.8447">(OIDC Relying Party)</text><rect fill="#FFE6CC" height="37.2813" rx="2.5" ry="2.5" style="stroke:#D79B00;stroke-width:0.5;" width="80.5723" x="873.7715" y="54.9219"/><text fill="#000000" font-family="Helvetica" font-size="10" x="904.1772" y="71.2041">PDP</text><text fill="#000000" font-family="Helvetica" font-size="10" x="880.7715" y="82.8447">Policy Engine</text><rect fill="#E2E2F0" height="37.2813" rx="2.5" ry="2.5" style="stroke:#181818;stroke-width:0.5;" width="103.6582" x="974.3438" y="54.9219"/><text fill="#000000" font-family="Helvetica" font-size="10" x="990.438" y="71.2041">Sektoraler IDP</text><text fill="#000000" font-family="Helvetica" font-size="10" x="981.3438" y="82.8447">(Token-Endpunkt)</text><rect fill="#FFE6CC" height="25.6406" rx="2.5" ry="2.5" style="stroke:#D79B00;stroke-width:0.5;" width="72.2471" x="32.7935" y="1098.6719"/><text fill="#000000" font-family="Helvetica" font-size="10" x="39.7935" y="1114.9541">ZETA Client</text><rect fill="#FFE6CC" height="48.9219" rx="2.5" ry="2.5" style="stroke:#D79B00;stroke-width:0.5;" width="117.0322" x="486.0083" y="1098.6719"/><text fill="#000000" font-family="Helvetica" font-size="10" x="534.644" y="1114.9541">PDP</text><text fill="#000000" font-family="Helvetica" font-size="10" x="493.0498" y="1126.5947">Authorization Server</text><text fill="#000000" font-family="Helvetica" font-size="10" x="493.0083" y="1138.2354">(OIDC Relying Party)</text><rect fill="#FFE6CC" height="37.2813" rx="2.5" ry="2.5" style="stroke:#D79B00;stroke-width:0.5;" width="80.5723" x="873.7715" y="1098.6719"/><text fill="#000000" font-family="Helvetica" font-size="10" x="904.1772" y="1114.9541">PDP</text><text fill="#000000" font-family="Helvetica" font-size="10" x="880.7715" y="1126.5947">Policy Engine</text><rect fill="#E2E2F0" height="37.2813" rx="2.5" ry="2.5" style="stroke:#181818;stroke-width:0.5;" width="103.6582" x="974.3438" y="1098.6719"/><text fill="#000000" font-family="Helvetica" font-size="10" x="990.438" y="1114.9541">Sektoraler IDP</text><text fill="#000000" font-family="Helvetica" font-size="10" x="981.3438" y="1126.5947">(Token-Endpunkt)</text><path d="M29.9407,106.2031 L29.9407,127.2031 L1064.9407,127.2031 L1064.9407,116.2031 L1054.9407,106.2031 L29.9407,106.2031" fill="#FEFFDD" style="stroke:#181818;stroke-width:0.5;"/><path d="M1054.9407,106.2031 L1054.9407,116.2031 L1064.9407,116.2031 L1054.9407,106.2031" fill="#FEFFDD" style="stroke:#181818;stroke-width:0.5;"/><text fill="#000000" font-family="Helvetica" font-size="10" x="328.7285" y="120.4854">Der ZETA Client hat aus Teildiagramm (B) den AUTHORIZATION_CODE (IDP) erhalten.</text><rect fill="#EEEEEE" height="3" style="stroke:#EEEEEE;stroke-width:1;" width="1364.8125" x="10" y="151.6641"/><line style="stroke:#000000;stroke-width:1;" x1="10" x2="1374.8125" y1="151.6641" y2="151.6641"/><line style="stroke:#000000;stroke-width:1;" x1="10" x2="1374.8125" y1="154.6641" y2="154.6641"/><rect fill="#EEEEEE" height="19.6406" style="stroke:#000000;stroke-width:2;" width="286.7197" x="549.0464" y="142.8438"/><text fill="#000000" font-family="Helvetica" font-size="10" font-weight="700" x="555.0464" y="156.126">Innerer Flow: Token-Bezug beim sektoralen IDP</text><path d="M15,177.4844 L15,245.4844 L598,245.4844 L598,187.4844 L588,177.4844 L15,177.4844" fill="#FEFFDD" style="stroke:#181818;stroke-width:0.5;"/><path d="M588,177.4844 L588,187.4844 L598,187.4844 L588,177.4844" fill="#FEFFDD" style="stroke:#181818;stroke-width:0.5;"/><text fill="#000000" font-family="Helvetica" font-size="10" x="21" y="191.7666">Beide Auth Code Flows enden &#252;ber denselben App-Link/Universal-Link in der App. Der ZETA</text><text fill="#000000" font-family="Helvetica" font-size="10" x="21" y="203.4072">Client erkennt anhand des Pfads der redirect_uri, welcher AuthS-Endpunkt zu verwenden ist:</text><text fill="#000000" font-family="Helvetica" font-size="10" x="21" y="215.0479">- oidc_redirect_uri (/cb/&lt;app&gt;/oidc) &#8594; redirection_endpoint des AuthS (aus as-well-known),</text><text fill="#000000" font-family="Helvetica" font-size="10" x="27.3574" y="226.6885">nicht der /token-Endpunkt &#8594; SekIDP Auth Code Flow (innerer Flow).</text><text fill="#000000" font-family="Helvetica" font-size="10" x="21" y="238.3291">- app_redirect_uri (/cb/&lt;app&gt;/app) &#8594; /token-Endpunkt des AuthS &#8594; ZETA Guard Auth Code Flow (&#228;u&#223;erer Flow).</text><polygon fill="#181818" points="527.5244,287.6094,537.5244,291.6094,527.5244,295.6094,531.5244,291.6094" style="stroke:#181818;stroke-width:1;stroke-linejoin:miter;stroke-miterlimit:10;"/><line style="stroke:#181818;stroke-width:1;" x1="73.917" x2="533.5244" y1="291.6094" y2="291.6094"/><text fill="#000000" font-family="Helvetica" font-size="10" x="80.917" y="275.6104">(01)</text><text fill="#000000" font-family="Helvetica" font-size="10" x="105.4443" y="263.9697">GET &lt;oidc_redirect_uri&gt; (redirection_endpoint der OIDC Relying Party, nicht /token)</text><text fill="#000000" font-family="Helvetica" font-size="10" x="105.4443" y="275.6104">Folgt der 302-Redirection aus Teildiagramm (B)</text><text fill="#000000" font-family="Helvetica" font-size="10" x="105.4443" y="287.251">{code=AUTH_CODE_IDP, state=state_as}</text><polygon fill="#181818" points="1009.1729,336.5313,1019.1729,340.5313,1009.1729,344.5313,1013.1729,340.5313" style="stroke:#181818;stroke-width:1;stroke-linejoin:miter;stroke-miterlimit:10;"/><line style="stroke:#181818;stroke-width:1;" x1="549.5244" x2="1015.1729" y1="340.5313" y2="340.5313"/><text fill="#000000" font-family="Helvetica" font-size="10" x="556.5244" y="324.5322">(02)</text><text fill="#000000" font-family="Helvetica" font-size="10" x="581.0518" y="312.8916">POST /token (mTLS, self_signed_tls_client_auth)</text><text fill="#000000" font-family="Helvetica" font-size="10" x="581.0518" y="324.5322">{grant_type=authorization_code, code=AUTH_CODE_IDP,</text><text fill="#000000" font-family="Helvetica" font-size="10" x="581.0518" y="336.1729">code_verifier=code_verifier_as, client_id, oidc_redirect_uri}</text><line style="stroke:#181818;stroke-width:1;" x1="1031.1729" x2="1073.1729" y1="389.4531" y2="389.4531"/><line style="stroke:#181818;stroke-width:1;" x1="1073.1729" x2="1073.1729" y1="389.4531" y2="402.4531"/><line style="stroke:#181818;stroke-width:1;" x1="1032.1729" x2="1073.1729" y1="402.4531" y2="402.4531"/><polygon fill="#181818" points="1042.1729,398.4531,1032.1729,402.4531,1042.1729,406.4531,1038.1729,402.4531" style="stroke:#181818;stroke-width:1;stroke-linejoin:miter;stroke-miterlimit:10;"/><text fill="#000000" font-family="Helvetica" font-size="10" x="1038.1729" y="373.4541">(03)</text><text fill="#000000" font-family="Helvetica" font-size="10" x="1062.7002" y="361.8135">Pr&#252;fe TLS-Clientzertifikat,</text><text fill="#000000" font-family="Helvetica" font-size="10" x="1062.7002" y="373.4541">verifiziere code_verifier_as gegen code_challenge_as (S256),</text><text fill="#000000" font-family="Helvetica" font-size="10" x="1062.7002" y="385.0947">invalidiere AUTHORIZATION_CODE</text><polygon fill="#181818" points="560.5244,447.375,550.5244,451.375,560.5244,455.375,556.5244,451.375" style="stroke:#181818;stroke-width:1;stroke-linejoin:miter;stroke-miterlimit:10;"/><line style="stroke:#181818;stroke-width:1;stroke-dasharray:2,2;" x1="554.5244" x2="1020.1729" y1="451.375" y2="451.375"/><text fill="#000000" font-family="Helvetica" font-size="10" x="566.5244" y="435.376">(04)</text><text fill="#000000" font-family="Helvetica" font-size="10" x="591.0518" y="423.7354">200 OK</text><text fill="#000000" font-family="Helvetica" font-size="10" x="591.0518" y="435.376">{id_token (JWE: ECDH-ES/A256GCM, signiert ES256),</text><text fill="#000000" font-family="Helvetica" font-size="10" x="591.0518" y="447.0166">access_token, token_type=Bearer, expires_in}</text><line style="stroke:#181818;stroke-width:1;" x1="549.5244" x2="591.5244" y1="488.6563" y2="488.6563"/><line style="stroke:#181818;stroke-width:1;" x1="591.5244" x2="591.5244" y1="488.6563" y2="501.6563"/><line style="stroke:#181818;stroke-width:1;" x1="550.5244" x2="591.5244" y1="501.6563" y2="501.6563"/><polygon fill="#181818" points="560.5244,497.6563,550.5244,501.6563,560.5244,505.6563,556.5244,501.6563" style="stroke:#181818;stroke-width:1;stroke-linejoin:miter;stroke-miterlimit:10;"/><text fill="#000000" font-family="Helvetica" font-size="10" x="556.5244" y="478.4775">(05)</text><text fill="#000000" font-family="Helvetica" font-size="10" x="581.0518" y="472.6572">Entschl&#252;ssele ID Token, verifiziere Signatur (kid/x5c),</text><text fill="#000000" font-family="Helvetica" font-size="10" x="581.0518" y="484.2979">pr&#252;fe iss/aud/nonce/exp, extrahiere Claims (KVNR, acr, amr, ...)</text><rect fill="#EEEEEE" height="3" style="stroke:#EEEEEE;stroke-width:1;" width="1364.8125" x="10" y="528.4766"/><line style="stroke:#000000;stroke-width:1;" x1="10" x2="1374.8125" y1="528.4766" y2="528.4766"/><line style="stroke:#000000;stroke-width:1;" x1="10" x2="1374.8125" y1="531.4766" y2="531.4766"/><rect fill="#EEEEEE" height="19.6406" style="stroke:#000000;stroke-width:2;" width="388.8975" x="497.9575" y="519.6563"/><text fill="#000000" font-family="Helvetica" font-size="10" font-weight="700" x="503.9575" y="532.9385">&#196;u&#223;erer Flow: Policy-Entscheidung &amp; Ausstellung der ZETA Token</text><line style="stroke:#181818;stroke-width:1;" x1="549.5244" x2="591.5244" y1="578.5781" y2="578.5781"/><line style="stroke:#181818;stroke-width:1;" x1="591.5244" x2="591.5244" y1="578.5781" y2="591.5781"/><line style="stroke:#181818;stroke-width:1;" x1="550.5244" x2="591.5244" y1="591.5781" y2="591.5781"/><polygon fill="#181818" points="560.5244,587.5781,550.5244,591.5781,560.5244,595.5781,556.5244,591.5781" style="stroke:#181818;stroke-width:1;stroke-linejoin:miter;stroke-miterlimit:10;"/><text fill="#000000" font-family="Helvetica" font-size="10" x="556.5244" y="568.3994">(06)</text><text fill="#000000" font-family="Helvetica" font-size="10" x="581.0518" y="562.5791">Erzeuge Policy Engine Input</text><text fill="#000000" font-family="Helvetica" font-size="10" x="581.0518" y="574.2197">(Identit&#228;ts-Claims, Posture, Kontext)</text><polygon fill="#181818" points="897.0576,613.2188,907.0576,617.2188,897.0576,621.2188,901.0576,617.2188" style="stroke:#181818;stroke-width:1;stroke-linejoin:miter;stroke-miterlimit:10;"/><line style="stroke:#181818;stroke-width:1;" x1="549.5244" x2="903.0576" y1="617.2188" y2="617.2188"/><text fill="#000000" font-family="Helvetica" font-size="10" x="556.5244" y="612.8604">(07)</text><text fill="#000000" font-family="Helvetica" font-size="10" x="581.0518" y="612.8604">POST /v1/data/authz {Policy Engine Input}</text><polygon fill="#181818" points="560.5244,638.8594,550.5244,642.8594,560.5244,646.8594,556.5244,642.8594" style="stroke:#181818;stroke-width:1;stroke-linejoin:miter;stroke-miterlimit:10;"/><line style="stroke:#181818;stroke-width:1;stroke-dasharray:2,2;" x1="554.5244" x2="908.0576" y1="642.8594" y2="642.8594"/><text fill="#000000" font-family="Helvetica" font-size="10" x="566.5244" y="638.501">(08)</text><text fill="#000000" font-family="Helvetica" font-size="10" x="591.0518" y="638.501">Policy Decision</text><path d="M52.917,654.8594 L112.873,654.8594 L112.873,658.5 L102.873,668.5 L52.917,668.5 L52.917,654.8594" fill="#EEEEEE" style="stroke:#000000;stroke-width:1.5;"/><rect fill="none" height="364.8906" style="stroke:#000000;stroke-width:1.5;" width="877.1406" x="52.917" y="654.8594"/><text fill="#000000" font-family="Helvetica" font-size="10" font-weight="700" x="67.917" y="665.1416">alt</text><text fill="#000000" font-family="Helvetica" font-size="10" font-weight="700" x="127.873" y="666.1416">[Policy Decision allow]</text><line style="stroke:#000000;stroke-width:1;stroke-dasharray:2,2;" x1="52.917" x2="930.0576" y1="975.4688" y2="975.4688"/><text fill="#000000" font-family="Helvetica" font-size="10" font-weight="700" x="57.917" y="986.751">[Policy Decision deny]</text><line style="stroke:#181818;stroke-width:1;" x1="549.5244" x2="591.5244" y1="696.1406" y2="696.1406"/><line style="stroke:#181818;stroke-width:1;" x1="591.5244" x2="591.5244" y1="696.1406" y2="709.1406"/><line style="stroke:#181818;stroke-width:1;" x1="550.5244" x2="591.5244" y1="709.1406" y2="709.1406"/><polygon fill="#181818" points="560.5244,705.1406,550.5244,709.1406,560.5244,713.1406,556.5244,709.1406" style="stroke:#181818;stroke-width:1;stroke-linejoin:miter;stroke-miterlimit:10;"/><text fill="#000000" font-family="Helvetica" font-size="10" x="556.5244" y="691.7822">(09)</text><text fill="#000000" font-family="Helvetica" font-size="10" x="581.0518" y="691.7822">Erzeuge AUTHORIZATION_CODE (AS)</text><polygon fill="#181818" points="84.917,742.4219,74.917,746.4219,84.917,750.4219,80.917,746.4219" style="stroke:#181818;stroke-width:1;stroke-linejoin:miter;stroke-miterlimit:10;"/><line style="stroke:#181818;stroke-width:1;stroke-dasharray:2,2;" x1="78.917" x2="538.5244" y1="746.4219" y2="746.4219"/><text fill="#000000" font-family="Helvetica" font-size="10" x="90.917" y="736.2432">(10)</text><text fill="#000000" font-family="Helvetica" font-size="10" x="115.4443" y="730.4229">302 Found</text><text fill="#000000" font-family="Helvetica" font-size="10" x="115.4443" y="742.0635">Location: &lt;app_redirect_uri&gt;?code=AUTH_CODE_AS&amp;state=state_app</text><line style="stroke:#181818;stroke-width:1;" x1="73.917" x2="115.917" y1="783.7031" y2="783.7031"/><line style="stroke:#181818;stroke-width:1;" x1="115.917" x2="115.917" y1="783.7031" y2="796.7031"/><line style="stroke:#181818;stroke-width:1;" x1="74.917" x2="115.917" y1="796.7031" y2="796.7031"/><polygon fill="#181818" points="84.917,792.7031,74.917,796.7031,84.917,800.7031,80.917,796.7031" style="stroke:#181818;stroke-width:1;stroke-linejoin:miter;stroke-miterlimit:10;"/><text fill="#000000" font-family="Helvetica" font-size="10" x="80.917" y="773.5244">(11)</text><text fill="#000000" font-family="Helvetica" font-size="10" x="105.4443" y="767.7041">Erzeuge DPoP Key Pair (PrK.DPoP.Sig, PuK.DPoP.Sig)</text><text fill="#000000" font-family="Helvetica" font-size="10" x="105.4443" y="779.3447">und DPoP Proof</text><polygon fill="#181818" points="532.5244,853.2656,542.5244,857.2656,532.5244,861.2656,536.5244,857.2656" style="stroke:#181818;stroke-width:1;stroke-linejoin:miter;stroke-miterlimit:10;"/><line style="stroke:#181818;stroke-width:1;" x1="73.917" x2="538.5244" y1="857.2656" y2="857.2656"/><text fill="#000000" font-family="Helvetica" font-size="10" x="80.917" y="835.4463">(12)</text><text fill="#000000" font-family="Helvetica" font-size="10" x="105.4443" y="817.9854">POST /token  dpop: &lt;dpop_proof&gt;</text><text fill="#000000" font-family="Helvetica" font-size="10" x="105.4443" y="829.626">{grant_type=authorization_code, code=AUTH_CODE_AS,</text><text fill="#000000" font-family="Helvetica" font-size="10" x="105.4443" y="841.2666">code_verifier=code_verifier_app, client_id, app_redirect_uri,</text><text fill="#000000" font-family="Helvetica" font-size="10" x="105.4443" y="852.9072">client_assertion (JWT, PrK.Client.Sig signiert)}</text><line style="stroke:#181818;stroke-width:1;" x1="554.5244" x2="596.5244" y1="894.5469" y2="894.5469"/><line style="stroke:#181818;stroke-width:1;" x1="596.5244" x2="596.5244" y1="894.5469" y2="907.5469"/><line style="stroke:#181818;stroke-width:1;" x1="555.5244" x2="596.5244" y1="907.5469" y2="907.5469"/><polygon fill="#181818" points="565.5244,903.5469,555.5244,907.5469,565.5244,911.5469,561.5244,907.5469" style="stroke:#181818;stroke-width:1;stroke-linejoin:miter;stroke-miterlimit:10;"/><text fill="#000000" font-family="Helvetica" font-size="10" x="561.5244" y="884.3682">(13)</text><text fill="#000000" font-family="Helvetica" font-size="10" x="586.0518" y="878.5479">Verifiziere code_verifier_app gegen code_challenge_app (S256),</text><text fill="#000000" font-family="Helvetica" font-size="10" x="586.0518" y="890.1885">DPoP Proof und Client Assertion (Key Binding aus DCR)</text><polygon fill="#181818" points="84.917,952.4688,74.917,956.4688,84.917,960.4688,80.917,956.4688" style="stroke:#181818;stroke-width:1;stroke-linejoin:miter;stroke-miterlimit:10;"/><line style="stroke:#181818;stroke-width:1;stroke-dasharray:2,2;" x1="78.917" x2="543.5244" y1="956.4688" y2="956.4688"/><text fill="#000000" font-family="Helvetica" font-size="10" x="90.917" y="940.4697">(14)</text><text fill="#000000" font-family="Helvetica" font-size="10" x="115.4443" y="928.8291">200 OK</text><text fill="#000000" font-family="Helvetica" font-size="10" x="115.4443" y="940.4697">{access_token (DPoP-gebunden), refresh_token,</text><text fill="#000000" font-family="Helvetica" font-size="10" x="115.4443" y="952.1104">token_type=DPoP, expires_in}</text><polygon fill="#181818" points="84.917,1007.75,74.917,1011.75,84.917,1015.75,80.917,1011.75" style="stroke:#181818;stroke-width:1;stroke-linejoin:miter;stroke-miterlimit:10;"/><line style="stroke:#181818;stroke-width:1;stroke-dasharray:2,2;" x1="78.917" x2="538.5244" y1="1011.75" y2="1011.75"/><text fill="#000000" font-family="Helvetica" font-size="10" x="90.917" y="1007.3916">(15)</text><text fill="#000000" font-family="Helvetica" font-size="10" x="115.4443" y="1007.3916">403 Forbidden {"reasons": ["..."]}</text><path d="M21.4941,1038.75 L21.4941,1082.75 L591.4941,1082.75 L591.4941,1048.75 L581.4941,1038.75 L21.4941,1038.75" fill="#FEFFDD" style="stroke:#181818;stroke-width:0.5;"/><path d="M581.4941,1038.75 L581.4941,1048.75 L591.4941,1048.75 L581.4941,1038.75" fill="#FEFFDD" style="stroke:#181818;stroke-width:0.5;"/><text fill="#000000" font-family="Helvetica" font-size="10" x="27.4941" y="1053.0322">Der ZETA Client besitzt nun ein DPoP-gebundenes Access Token und kann auf den Resource Server zugreifen</text><text fill="#000000" font-family="Helvetica" font-size="10" x="27.4941" y="1064.6729">(siehe Abb-ZETA-Zugriff-auf-RS-mit-ASL bzw. Abb-ZETA-Zugriff-auf-RS-ohne-ASL).</text><text fill="#000000" font-family="Helvetica" font-size="10" x="27.4941" y="1076.3135">Die Session-Erneuerung erfolgt &#252;ber Abb-ZETA-Token-Exchange-mit-Refresh-Token.</text><?plantuml-src bLVDRY974BxFKrI8b30o0uutcmCoZiQ0lSJU1G7hI1j7esQcW1P3pwYxnp-iV8lo07c1NFOPSjeRRv8dINNFy6kygro0cUwg-ghgww-BRxW8uon2g5PhQJQFlPWz9fckwWVjECxtC4GUHvnD99lFeTnqwp1CPYYySrna4nWXduF2cKuaYr50fzMhG2-9UVZejOLMuHHvb8a9P282FrDAOnoRvmWbV6WF_TnR4GVk4W7-QEIP5Q_RQJKzFzDJ59gF-OAZ94jldenuZD9hnfmMbEECaWSelRLlmK_J4hJQDvrcEsXshxjz1o1bKlEGfqneo8s0AIZPwFbp2KvF5wZPsPc3X9CS5bvzCUAe2Ugm0oVLOsZHRaNRU_tkJQVLxgzZsDtMusN6P5IokGMNx_r-Qxrd5ub9R621z5gzMs4U4yaNJ7EgmG3b7SfRKJOrW3x6ZvngrYFpHtSBxBxFRi_VUCox06qnuG9tZ5OvxkOwx7WNot-eBnP22Rvj-nSd5nTx1QG6sn23LS-bUKL8SrQqHPHcOgRTqiPxNkEZ8qSa6Y6Xn8goLunf7LehAXJDcJ9gKARsc7Vk4cU87U-7RxhzpWT_sEc-ezAssb0cBowWdB9OewWwJgC17I5Gaj-BEBd_AcEXqN0EWBCTelJFYS9edw2Pq2_ZKvaYalNoyuWiw9V2U6JWfQbtpSMizbvmygLOR1-12yjuMgwkyoNNHSOe2P-XfPWogbg42dfZ5Ybh8p7Y4aCTP99Nu1vZEbCo1xSkDomoe73tEIYkT9sSUv3mA0osxQ5S2qUrKvQcPpMpwCA_V_wrZa1j3yX3cd32Oa3a72sRPZ3bKUZOcudaNhWLIpt1mwcs66jwf_lMAp74r7QtRb3cMvrngnOcmNaH9Nta8FT3RF2PrStHUnPm-IbR_hqTqX3JT7l5JF3ESaz7HtMuR0_Xz5dTpg3yGf4aF3-YbQ8oEMJtLbmayIJV_EhunEjlF1ta-Qtu61ByXg6wPNXWLLLffh5XFmEcdfmyUS9EgmPvhpiO5Y6XF1zU3yW4ut6W-4HW5EXO1Q7DDs1aQQ9GH7hIZoassBRy12Py1Gw0k1NcPK1K8q56sTXv8bHab8VWKUKv-vuSGuWSCU6LoyzZ109QIFa2fT7v6TCK9tTgD1zXFmfCS499sjSXdNewnXDJ4oWFJbx_v98r5tSivf6rVguOEOnLrpsl3YV7nz2zef9mAbHUmLz-RTUXtMozyTg3caz-BvjlgQ9KJFAgeRqAnS8GbSgjAc2_yfAU8oFILG0VKgg02hZOwfdzGVxj5HalFojg5L9TSgcgm7Rw0uh9T2QXFEDHxU5rQCAcUVMuKZMMHJMHY11h5Ch4qv9DhMKpPdnEPRcwUTUl00i93PlJHxLQTQrCBl_OFXlrWpVtTr-ujwroFajABZ2R8EnSGAJ8QQRfdkX4vZhNoqzQUJa-Cp0eoeyeTvK8JVZTZK-wqZRallkX5Z7DQeQj2_Xu8C2JO-x0dTuMkreOSaNaTXow9lPV0f4ekRUYzb8sXouUV-1ksv1HpkIwEUTmaT3GSokkaz2UgZgSxWlTsSzxPymVVBTppDFK-j_erCh_2bMhb_JW2Xz9U3WHf2UlgkPLbJX3PSqsJtJUpGXcz_Taaept7Ay5S5j6W6Gk9TpcAqYDrTd_bWr_y3NLIDCTsTWlaZ4lT8jEYRIoIQTpIFbHjda69iFrsNIV3ZRovcL5ITCN98KMrfgoAPqTPelI-HjCfWtdN4Jc7Z2wtchs3zDZHt6szGFA9eWtmL5cBdAtGbVpcBHZMiZBhTZI5xDrLrqmLlYCsUJdyGMI_dZyYaWgHpmoKyF7aaIc4g5ATVYjH19H-lt9t9LV6etsHxSHAguN6eXhW3JpxAHZBcoRRA4Tfeep9imbEBQpNHzLaiaGY_6NXfg9H3wclmS0PSLnYfi_1nzeZO_77jbw_O4tvzhp1zSmMjnNNzoKJ0MQNNRie56UuYXJ8wyj1MRstmMDOcDxMUU3tTfJCTq-43U863PSFszDlhGrLVm7?></g></svg>