<svg xmlns="http://www.w3.org/2000/svg" xmlns:xlink="http://www.w3.org/1999/xlink" contentStyleType="text/css" data-diagram-type="SEQUENCE" height="675px" preserveAspectRatio="none" style="width:1031px;height:675px;background:#FFFFFF;" version="1.1" viewBox="0 0 1031 675" width="1031px" zoomAndPan="magnify"><defs/><g><rect fill="#EDFDEC" height="663.6563" style="stroke:#181818;stroke-width:0.5;" width="656.5596" x="362.4058" y="6"/><text fill="#000000" font-family="Helvetica" font-size="10" font-weight="bold" x="666.3252" y="15.2822">Anbieter</text><rect fill="#FFF3E5" height="647.0156" style="stroke:#181818;stroke-width:0.5;" width="508.1553" x="362.4058" y="22.6406"/><text fill="#000000" font-family="Helvetica" font-size="10" font-weight="bold" x="583.3389" y="31.9229">ZETA Guard</text><g><title>Zieldienst</title><rect fill="#000000" fill-opacity="0.00000" height="525.5313" width="8" x="38.7417" y="88.2031"/><line style="stroke:#000000;stroke-width:0.5;stroke-dasharray:5.0,5.0;" x1="42.2417" x2="42.2417" y1="88.2031" y2="613.7344"/></g><g><title/><rect fill="#FFFFFF" height="25.6406" style="stroke:#000000;stroke-width:1;" width="10" x="37.2417" y="544.4531"/></g><g><title>Secure Token Service</title><rect fill="#000000" fill-opacity="0.00000" height="525.5313" width="8" x="147.1948" y="88.2031"/><line style="stroke:#000000;stroke-width:0.5;stroke-dasharray:5.0,5.0;" x1="150.6948" x2="150.6948" y1="88.2031" y2="613.7344"/></g><g><title/><rect fill="#FFFFFF" height="25.6406" style="stroke:#000000;stroke-width:1;" width="10" x="145.6948" y="440.5313"/></g><g><title>ZG Client</title><rect fill="#000000" fill-opacity="0.00000" height="525.5313" width="8" x="393.27" y="88.2031"/><line style="stroke:#000000;stroke-width:0.5;stroke-dasharray:5.0,5.0;" x1="396.77" x2="396.77" y1="88.2031" y2="613.7344"/></g><g><title/><rect fill="#FFFFFF" height="477.8906" style="stroke:#000000;stroke-width:1;" width="10" x="391.77" y="135.8438"/></g><g><title>PDP</title><rect fill="#000000" fill-opacity="0.00000" height="525.5313" width="8" x="695.8257" y="88.2031"/><line style="stroke:#000000;stroke-width:0.5;stroke-dasharray:5.0,5.0;" x1="699.3257" x2="699.3257" y1="88.2031" y2="613.7344"/></g><g><title/><rect fill="#FFFFFF" height="25.6406" style="stroke:#000000;stroke-width:1;" width="10" x="694.3257" y="165.125"/></g><g><title>PDP</title><rect fill="#000000" fill-opacity="0.00000" height="525.5313" width="8" x="804.5864" y="88.2031"/><line style="stroke:#000000;stroke-width:0.5;stroke-dasharray:5.0,5.0;" x1="808.0864" x2="808.0864" y1="88.2031" y2="613.7344"/></g><g><title/><rect fill="#FFFFFF" height="25.6406" style="stroke:#000000;stroke-width:1;" width="10" x="803.0864" y="377.6094"/></g><g><title>Fachkomponente</title><rect fill="#000000" fill-opacity="0.00000" height="525.5313" width="8" x="947.2632" y="88.2031"/><line style="stroke:#000000;stroke-width:0.5;stroke-dasharray:5.0,5.0;" x1="950.7632" x2="950.7632" y1="88.2031" y2="613.7344"/></g><g><title/><rect fill="#FFFFFF" height="375.3281" style="stroke:#000000;stroke-width:1;" width="10" x="945.7632" y="238.4063"/></g><rect fill="#E2E2F0" height="37.2813" rx="2.5" ry="2.5" style="stroke:#181818;stroke-width:0.5;" width="74.4834" x="5" y="49.9219"/><text fill="#000000" font-family="Helvetica" font-size="10" x="17.5884" y="66.2041">Zieldienst</text><text fill="#000000" font-family="Helvetica" font-size="10" x="12" y="77.8447">(Anbieter B)</text><rect fill="#E2E2F0" height="37.2813" rx="2.5" ry="2.5" style="stroke:#181818;stroke-width:0.5;" width="122.4229" x="89.4834" y="49.9219"/><text fill="#000000" font-family="Helvetica" font-size="10" x="96.4834" y="66.2041">Secure Token Service</text><text fill="#000000" font-family="Helvetica" font-size="10" x="120.4531" y="77.8447">(Anbieter B)</text><rect fill="#FFE6CC" height="25.6406" rx="2.5" ry="2.5" style="stroke:#D79B00;stroke-width:0.5;" width="60.7285" x="366.4058" y="61.5625"/><text fill="#000000" font-family="Helvetica" font-size="10" x="373.4058" y="77.8447">ZG Client</text><rect fill="#E2E2F0" height="37.2813" rx="2.5" ry="2.5" style="stroke:#181818;stroke-width:0.5;" width="80.5723" x="659.0396" y="49.9219"/><text fill="#000000" font-family="Helvetica" font-size="10" x="689.4453" y="66.2041">PDP</text><text fill="#000000" font-family="Helvetica" font-size="10" x="666.0396" y="77.8447">Policy Engine</text><rect fill="#E2E2F0" height="48.9219" rx="2.5" ry="2.5" style="stroke:#181818;stroke-width:0.5;" width="116.9492" x="749.6118" y="38.2813"/><text fill="#000000" font-family="Helvetica" font-size="10" x="798.2061" y="54.5635">PDP</text><text fill="#000000" font-family="Helvetica" font-size="10" x="756.6118" y="66.2041">Authorization Server</text><text fill="#000000" font-family="Helvetica" font-size="10" x="777.8545" y="77.8447">(Anbieter A)</text><rect fill="#D5E8D4" height="48.9219" rx="2.5" ry="2.5" style="stroke:#82B366;stroke-width:0.5;" width="128.4043" x="886.561" y="38.2813"/><text fill="#000000" font-family="Helvetica" font-size="10" x="907.3965" y="54.5635">Fachkomponente</text><text fill="#000000" font-family="Helvetica" font-size="10" x="893.561" y="66.2041">(z. B. Resource Server,</text><text fill="#000000" font-family="Helvetica" font-size="10" x="916.0366" y="77.8447">otel-collector)</text><rect fill="#E2E2F0" height="37.2813" rx="2.5" ry="2.5" style="stroke:#181818;stroke-width:0.5;" width="74.4834" x="5" y="613.7344"/><text fill="#000000" font-family="Helvetica" font-size="10" x="17.5884" y="630.0166">Zieldienst</text><text fill="#000000" font-family="Helvetica" font-size="10" x="12" y="641.6572">(Anbieter B)</text><rect fill="#E2E2F0" height="37.2813" rx="2.5" ry="2.5" style="stroke:#181818;stroke-width:0.5;" width="122.4229" x="89.4834" y="613.7344"/><text fill="#000000" font-family="Helvetica" font-size="10" x="96.4834" y="630.0166">Secure Token Service</text><text fill="#000000" font-family="Helvetica" font-size="10" x="120.4531" y="641.6572">(Anbieter B)</text><rect fill="#FFE6CC" height="25.6406" rx="2.5" ry="2.5" style="stroke:#D79B00;stroke-width:0.5;" width="60.7285" x="366.4058" y="613.7344"/><text fill="#000000" font-family="Helvetica" font-size="10" x="373.4058" y="630.0166">ZG Client</text><rect fill="#E2E2F0" height="37.2813" rx="2.5" ry="2.5" style="stroke:#181818;stroke-width:0.5;" width="80.5723" x="659.0396" y="613.7344"/><text fill="#000000" font-family="Helvetica" font-size="10" x="689.4453" y="630.0166">PDP</text><text fill="#000000" font-family="Helvetica" font-size="10" x="666.0396" y="641.6572">Policy Engine</text><rect fill="#E2E2F0" height="48.9219" rx="2.5" ry="2.5" style="stroke:#181818;stroke-width:0.5;" width="116.9492" x="749.6118" y="613.7344"/><text fill="#000000" font-family="Helvetica" font-size="10" x="798.2061" y="630.0166">PDP</text><text fill="#000000" font-family="Helvetica" font-size="10" x="756.6118" y="641.6572">Authorization Server</text><text fill="#000000" font-family="Helvetica" font-size="10" x="777.8545" y="653.2979">(Anbieter A)</text><rect fill="#D5E8D4" height="48.9219" rx="2.5" ry="2.5" style="stroke:#82B366;stroke-width:0.5;" width="128.4043" x="886.561" y="613.7344"/><text fill="#000000" font-family="Helvetica" font-size="10" x="907.3965" y="630.0166">Fachkomponente</text><text fill="#000000" font-family="Helvetica" font-size="10" x="893.561" y="641.6572">(z. B. Resource Server,</text><text fill="#000000" font-family="Helvetica" font-size="10" x="916.0366" y="653.2979">otel-collector)</text><rect fill="#EEEEEE" height="3" style="stroke:#EEEEEE;stroke-width:1;" width="1019.9653" x="5" y="115.0234"/><line style="stroke:#000000;stroke-width:1;" x1="5" x2="1024.9653" y1="115.0234" y2="115.0234"/><line style="stroke:#000000;stroke-width:1;" x1="5" x2="1024.9653" y1="118.0234" y2="118.0234"/><rect fill="#EEEEEE" height="19.6406" style="stroke:#000000;stroke-width:2;" width="135.1426" x="447.4114" y="106.2031"/><text fill="#000000" font-family="Helvetica" font-size="10" font-weight="bold" x="453.4114" y="119.4854">Konfigurationsbezug</text><polygon fill="#181818" points="682.3257,161.125,692.3257,165.125,682.3257,169.125,686.3257,165.125" style="stroke:#181818;stroke-width:1;"/><line style="stroke:#181818;stroke-width:1;" x1="401.77" x2="688.3257" y1="165.125" y2="165.125"/><text fill="#000000" font-family="Helvetica" font-size="10" x="408.77" y="154.9463">(01)</text><text fill="#000000" font-family="Helvetica" font-size="10" x="433.2974" y="149.126">Konfiguration abrufen</text><text fill="#000000" font-family="Helvetica" font-size="10" x="433.2974" y="160.7666">(zul&#228;ssige Zieldienste, Scopes, Token-Endpunkte)</text><polygon fill="#181818" points="412.77,186.7656,402.77,190.7656,412.77,194.7656,408.77,190.7656" style="stroke:#181818;stroke-width:1;"/><line style="stroke:#181818;stroke-width:1;stroke-dasharray:2.0,2.0;" x1="406.77" x2="693.3257" y1="190.7656" y2="190.7656"/><text fill="#000000" font-family="Helvetica" font-size="10" x="418.77" y="186.4072">(02)</text><text fill="#000000" font-family="Helvetica" font-size="10" x="443.2974" y="186.4072">Konfiguration</text><rect fill="#EEEEEE" height="3" style="stroke:#EEEEEE;stroke-width:1;" width="1019.9653" x="5" y="217.5859"/><line style="stroke:#000000;stroke-width:1;" x1="5" x2="1024.9653" y1="217.5859" y2="217.5859"/><line style="stroke:#000000;stroke-width:1;" x1="5" x2="1024.9653" y1="220.5859" y2="220.5859"/><rect fill="#EEEEEE" height="19.6406" style="stroke:#000000;stroke-width:2;" width="125.4795" x="452.2429" y="208.7656"/><text fill="#000000" font-family="Helvetica" font-size="10" font-weight="bold" x="458.2429" y="222.0479">Fachlicher Request</text><polygon fill="#181818" points="412.77,252.0469,402.77,256.0469,412.77,260.0469,408.77,256.0469" style="stroke:#181818;stroke-width:1;"/><line style="stroke:#181818;stroke-width:1;" x1="406.77" x2="944.7632" y1="256.0469" y2="256.0469"/><text fill="#000000" font-family="Helvetica" font-size="10" x="418.77" y="251.6885">(03)</text><text fill="#000000" font-family="Helvetica" font-size="10" x="443.2974" y="251.6885">Fachlicher Request (Ziel: externer Dienst)</text><path d="M129.6948,268.0469 L189.6509,268.0469 L189.6509,271.6875 L179.6509,281.6875 L129.6948,281.6875 L129.6948,268.0469" fill="#EEEEEE" style="stroke:#000000;stroke-width:1.5;"/><rect fill="none" height="244.7656" style="stroke:#000000;stroke-width:1.5;" width="699.3916" x="129.6948" y="268.0469"/><text fill="#000000" font-family="Helvetica" font-size="10" font-weight="bold" x="144.6948" y="278.3291">alt</text><text fill="#000000" font-family="Helvetica" font-size="10" font-weight="bold" x="204.6509" y="279.3291">[Access Token im Cache g&#252;ltig]</text><line style="stroke:#000000;stroke-width:1;stroke-dasharray:2.0,2.0;" x1="129.6948" x2="829.0864" y1="341.3281" y2="341.3281"/><text fill="#000000" font-family="Helvetica" font-size="10" font-weight="bold" x="134.6948" y="352.6104">[Access Token fehlt oder abgelaufen]</text><line style="stroke:#181818;stroke-width:1;" x1="401.77" x2="443.77" y1="309.3281" y2="309.3281"/><line style="stroke:#181818;stroke-width:1;" x1="443.77" x2="443.77" y1="309.3281" y2="322.3281"/><line style="stroke:#181818;stroke-width:1;" x1="402.77" x2="443.77" y1="322.3281" y2="322.3281"/><polygon fill="#181818" points="412.77,318.3281,402.77,322.3281,412.77,326.3281,408.77,322.3281" style="stroke:#181818;stroke-width:1;"/><text fill="#000000" font-family="Helvetica" font-size="10" x="408.77" y="304.9697">(04)</text><text fill="#000000" font-family="Helvetica" font-size="10" x="433.2974" y="304.9697">g&#252;ltiges Access Token aus Cache verwenden</text><polygon fill="#181818" points="791.0864,373.6094,801.0864,377.6094,791.0864,381.6094,795.0864,377.6094" style="stroke:#181818;stroke-width:1;"/><line style="stroke:#181818;stroke-width:1;" x1="401.77" x2="797.0864" y1="377.6094" y2="377.6094"/><text fill="#000000" font-family="Helvetica" font-size="10" x="408.77" y="373.251">(05)</text><text fill="#000000" font-family="Helvetica" font-size="10" x="433.2974" y="373.251">Subject Token anfordern</text><polygon fill="#181818" points="412.77,399.25,402.77,403.25,412.77,407.25,408.77,403.25" style="stroke:#181818;stroke-width:1;"/><line style="stroke:#181818;stroke-width:1;stroke-dasharray:2.0,2.0;" x1="406.77" x2="802.0864" y1="403.25" y2="403.25"/><text fill="#000000" font-family="Helvetica" font-size="10" x="418.77" y="398.8916">(06)</text><text fill="#000000" font-family="Helvetica" font-size="10" x="443.2974" y="398.8916">Subject Token</text><polygon fill="#181818" points="166.6948,436.5313,156.6948,440.5313,166.6948,444.5313,162.6948,440.5313" style="stroke:#181818;stroke-width:1;"/><line style="stroke:#181818;stroke-width:1;" x1="160.6948" x2="390.77" y1="440.5313" y2="440.5313"/><text fill="#000000" font-family="Helvetica" font-size="10" x="172.6948" y="430.3525">(07)</text><text fill="#000000" font-family="Helvetica" font-size="10" x="197.2222" y="424.5322">Token Exchange</text><text fill="#000000" font-family="Helvetica" font-size="10" x="197.2222" y="436.1729">(Subject Token gegen Access Token)</text><polygon fill="#181818" points="379.77,462.1719,389.77,466.1719,379.77,470.1719,383.77,466.1719" style="stroke:#181818;stroke-width:1;"/><line style="stroke:#181818;stroke-width:1;stroke-dasharray:2.0,2.0;" x1="155.6948" x2="385.77" y1="466.1719" y2="466.1719"/><text fill="#000000" font-family="Helvetica" font-size="10" x="162.6948" y="461.8135">(08)</text><text fill="#000000" font-family="Helvetica" font-size="10" x="187.2222" y="461.8135">200 OK, Access Token</text><line style="stroke:#181818;stroke-width:1;" x1="401.77" x2="443.77" y1="491.8125" y2="491.8125"/><line style="stroke:#181818;stroke-width:1;" x1="443.77" x2="443.77" y1="491.8125" y2="504.8125"/><line style="stroke:#181818;stroke-width:1;" x1="402.77" x2="443.77" y1="504.8125" y2="504.8125"/><polygon fill="#181818" points="412.77,500.8125,402.77,504.8125,412.77,508.8125,408.77,504.8125" style="stroke:#181818;stroke-width:1;"/><text fill="#000000" font-family="Helvetica" font-size="10" x="408.77" y="487.4541">(09)</text><text fill="#000000" font-family="Helvetica" font-size="10" x="433.2974" y="487.4541">Access Token cachen</text><polygon fill="#181818" points="58.2417,540.4531,48.2417,544.4531,58.2417,548.4531,54.2417,544.4531" style="stroke:#181818;stroke-width:1;"/><line style="stroke:#181818;stroke-width:1;" x1="52.2417" x2="390.77" y1="544.4531" y2="544.4531"/><text fill="#000000" font-family="Helvetica" font-size="10" x="64.2417" y="540.0947">(10)</text><text fill="#000000" font-family="Helvetica" font-size="10" x="88.769" y="540.0947">Fachlicher Request + Access Token (Authorization Header)</text><polygon fill="#181818" points="379.77,566.0938,389.77,570.0938,379.77,574.0938,383.77,570.0938" style="stroke:#181818;stroke-width:1;"/><line style="stroke:#181818;stroke-width:1;stroke-dasharray:2.0,2.0;" x1="47.2417" x2="385.77" y1="570.0938" y2="570.0938"/><text fill="#000000" font-family="Helvetica" font-size="10" x="54.2417" y="565.7354">(11)</text><text fill="#000000" font-family="Helvetica" font-size="10" x="78.769" y="565.7354">Antwort</text><polygon fill="#181818" points="933.7632,591.7344,943.7632,595.7344,933.7632,599.7344,937.7632,595.7344" style="stroke:#181818;stroke-width:1;"/><line style="stroke:#181818;stroke-width:1;stroke-dasharray:2.0,2.0;" x1="401.77" x2="939.7632" y1="595.7344" y2="595.7344"/><text fill="#000000" font-family="Helvetica" font-size="10" x="408.77" y="591.376">(12)</text><text fill="#000000" font-family="Helvetica" font-size="10" x="433.2974" y="591.376">Antwort (unver&#228;ndert)</text><!--SRC=[TLF1RXen5BpxAruvWM1fr6CK8YsmeHMLG2pj8OeK6VDOt3ZsrcidXE_9P_IM7-lpBgGuII-hbJqpdfbdVv9QABz6wFS_b_vU9Oe_6U_wRkSOAxbrKiYIQmUjQubgBL5NxaQtKxsIwD32iDC2Ni7rU1YZSnJU8YpD7Mh8qJv8WH_mycK-P6nbTj0wRhLWlfZz_3RE5hUZsVVPWW7K-zVPCeM9vtRTWl1_E_cHBiQl683OxGH6Yjownjva11SNUtJyyl8zTZwUt-YvKL8yGQOBgR4cpRF_G5FljiRAFNVIDE7GdcPBcsnfdf80wdNmpzu8NN6nlJFtfT7aCJIpxyEm3mkiZBS23wgz6sqSgaGOfL0uOnlbgocbAQrva6kqbEXu1XiCO6hqHXRUrkQg5Uvz0OC1emQwtV25v9AITRjm7aE1hwpVe0vMl7fvhYfP8FmRElOW5wR4gjSCDSdqklJwpc67pJD8I9RKa-IjRcqgfALwjrJE0dzxh5pmT3KbIvIbeHBn0rWxE3W7t56ncjR7jPaEOrmvI8N0gZfSCdaF8-8Z52z_b9D5FRn3u4R-i85LJEI-EZ2fyKVg4ZL3LM6Csk2MJZHKE3LLeEAXhDCpQDnrgxbV_Q9P7SNrnbWYDL32H4r5s5Eny2vgjKObsuajrqMu9x5yWGLzJursQfd0ZqxwSdO6isalWhvlA4eiGYSwN2vsl3Zqp6jN7mog6vFRyIFvYfnAw30IY6obsZqQwnfzMgVRyBe8RQzf8Y_FD15B8_yB]--></g></svg>