<svg xmlns="http://www.w3.org/2000/svg" xmlns:xlink="http://www.w3.org/1999/xlink" contentStyleType="text/css" data-diagram-type="SEQUENCE" height="659px" preserveAspectRatio="none" style="width:1073px;height:659px;background:#FFFFFF;" version="1.1" viewBox="0 0 1073 659" width="1073px" zoomAndPan="magnify"><?plantuml 1.2026.6?><defs/><g><rect fill="#FEFCFF" height="633.375" style="stroke:#181818;stroke-width:0.5;" width="87.1543" x="91.1797" y="11"/><text fill="#000000" font-family="Helvetica" font-size="10" font-weight="700" x="103.1797" y="20.2822">Mobile App</text><rect fill="#E4E4F4" height="633.375" style="stroke:#181818;stroke-width:0.5;" width="124.2217" x="367.1255" y="11"/><text fill="#000000" font-family="Helvetica" font-size="10" font-weight="700" x="390.1738" y="20.2822">Authenticator</text><rect fill="#EAF2FF" height="633.375" style="stroke:#181818;stroke-width:0.5;" width="148.1279" x="741.0972" y="11"/><text fill="#000000" font-family="Helvetica" font-size="10" font-weight="700" x="777.0557" y="20.2822">TI-F&#246;deration</text><g><title>Nutzer</title><rect fill="#000000" fill-opacity="0.00000" height="445.1719" width="8" x="44.0898" y="109.9219"/><line style="stroke:#000000;stroke-width:0.5;stroke-dasharray:5,5;" x1="47.5898" x2="47.5898" y1="109.9219" y2="555.0938"/></g><g><title/><rect fill="#FFFFFF" height="25.6406" style="stroke:#181818;stroke-width:1;" width="10" x="42.5898" y="329.3281"/></g><g><title>ZETA Client</title><rect fill="#000000" fill-opacity="0.00000" height="445.1719" width="8" x="131.2568" y="109.9219"/><line style="stroke:#000000;stroke-width:0.5;stroke-dasharray:5,5;" x1="134.7568" x2="134.7568" y1="109.9219" y2="555.0938"/></g><g><title/><rect fill="#FFFFFF" height="437.1719" style="stroke:#181818;stroke-width:1;" width="10" x="129.7568" y="117.9219"/></g><g><title>Authenticator-Modul</title><rect fill="#000000" fill-opacity="0.00000" height="445.1719" width="8" x="425.7363" y="109.9219"/><line style="stroke:#000000;stroke-width:0.5;stroke-dasharray:5,5;" x1="429.2363" x2="429.2363" y1="109.9219" y2="555.0938"/></g><g><title/><rect fill="#FFFFFF" height="326.6094" style="stroke:#181818;stroke-width:1;" width="10" x="424.2363" y="178.8438"/></g><g><title>Sektoraler IDP</title><rect fill="#000000" fill-opacity="0.00000" height="445.1719" width="8" x="811.6611" y="109.9219"/><line style="stroke:#000000;stroke-width:0.5;stroke-dasharray:5,5;" x1="815.1611" x2="815.1611" y1="109.9219" y2="555.0938"/></g><g><title/><rect fill="#FFFFFF" height="252.0469" style="stroke:#181818;stroke-width:1;" width="10" x="810.1611" y="216.125"/></g><text fill="#000000" font-family="Helvetica" font-size="10" x="27.9639" y="95.9229">Nutzer</text><text fill="#000000" font-family="Helvetica" font-size="10" x="10" y="107.5635">(Versicherter)</text><ellipse cx="47.5898" cy="35.1406" fill="#E2E2F0" rx="8" ry="8" style="stroke:#181818;stroke-width:0.5;"/><path d="M47.5898,43.1406 L47.5898,70.1406 M34.5898,51.1406 L60.5898,51.1406 M47.5898,70.1406 L34.5898,85.1406 M47.5898,70.1406 L60.5898,85.1406" fill="none" style="stroke:#181818;stroke-width:0.5;"/><rect fill="#FFE6CC" height="25.6406" rx="2.5" ry="2.5" style="stroke:#D79B00;stroke-width:0.5;" width="72.2471" x="98.6333" y="83.2813"/><text fill="#000000" font-family="Helvetica" font-size="10" x="105.6333" y="99.5635">ZETA Client</text><rect fill="#E2E2F0" height="37.2813" rx="2.5" ry="2.5" style="stroke:#181818;stroke-width:0.5;" width="116.2217" x="371.1255" y="71.6406"/><text fill="#000000" font-family="Helvetica" font-size="10" x="378.1255" y="87.9229">Authenticator-Modul</text><text fill="#000000" font-family="Helvetica" font-size="10" x="390.1689" y="99.5635">(sektoraler IDP)</text><rect fill="#E2E2F0" height="37.2813" rx="2.5" ry="2.5" style="stroke:#181818;stroke-width:0.5;" width="140.1279" x="745.0972" y="71.6406"/><text fill="#000000" font-family="Helvetica" font-size="10" x="779.4263" y="87.9229">Sektoraler IDP</text><text fill="#000000" font-family="Helvetica" font-size="10" x="752.0972" y="99.5635">(Authorization-Endpunkt)</text><text fill="#000000" font-family="Helvetica" font-size="10" x="27.9639" y="624.376">Nutzer</text><text fill="#000000" font-family="Helvetica" font-size="10" x="10" y="636.0166">(Versicherter)</text><ellipse cx="47.5898" cy="563.5938" fill="#E2E2F0" rx="8" ry="8" style="stroke:#181818;stroke-width:0.5;"/><path d="M47.5898,571.5938 L47.5898,598.5938 M34.5898,579.5938 L60.5898,579.5938 M47.5898,598.5938 L34.5898,613.5938 M47.5898,598.5938 L60.5898,613.5938" fill="none" style="stroke:#181818;stroke-width:0.5;"/><rect fill="#FFE6CC" height="25.6406" rx="2.5" ry="2.5" style="stroke:#D79B00;stroke-width:0.5;" width="72.2471" x="98.6333" y="555.0938"/><text fill="#000000" font-family="Helvetica" font-size="10" x="105.6333" y="571.376">ZETA Client</text><rect fill="#E2E2F0" height="37.2813" rx="2.5" ry="2.5" style="stroke:#181818;stroke-width:0.5;" width="116.2217" x="371.1255" y="555.0938"/><text fill="#000000" font-family="Helvetica" font-size="10" x="378.1255" y="571.376">Authenticator-Modul</text><text fill="#000000" font-family="Helvetica" font-size="10" x="390.1689" y="583.0166">(sektoraler IDP)</text><rect fill="#E2E2F0" height="37.2813" rx="2.5" ry="2.5" style="stroke:#181818;stroke-width:0.5;" width="140.1279" x="745.0972" y="555.0938"/><text fill="#000000" font-family="Helvetica" font-size="10" x="779.4263" y="571.376">Sektoraler IDP</text><text fill="#000000" font-family="Helvetica" font-size="10" x="752.0972" y="583.0166">(Authorization-Endpunkt)</text><path d="M86.6631,122.9219 L86.6631,143.9219 L862.6631,143.9219 L862.6631,132.9219 L852.6631,122.9219 L86.6631,122.9219" fill="#FEFFDD" style="stroke:#181818;stroke-width:0.5;"/><path d="M852.6631,122.9219 L852.6631,132.9219 L862.6631,132.9219 L852.6631,122.9219" fill="#FEFFDD" style="stroke:#181818;stroke-width:0.5;"/><text fill="#000000" font-family="Helvetica" font-size="10" x="278.0396" y="137.2041">Der ZETA Client hat aus Teildiagramm (A) request_uri und client_id erhalten.</text><polygon fill="#181818" points="412.2363,174.8438,422.2363,178.8438,412.2363,182.8438,416.2363,178.8438" style="stroke:#181818;stroke-width:1;stroke-linejoin:miter;stroke-miterlimit:10;"/><line style="stroke:#181818;stroke-width:1;" x1="139.7568" x2="418.2363" y1="178.8438" y2="178.8438"/><text fill="#000000" font-family="Helvetica" font-size="10" x="146.7568" y="168.665">(01)</text><text fill="#000000" font-family="Helvetica" font-size="10" x="171.2842" y="162.8447">&#214;ffne Authenticator (Deep-Link / Universal-Link)</text><text fill="#000000" font-family="Helvetica" font-size="10" x="171.2842" y="174.4854">{client_id, request_uri}</text><polygon fill="#181818" points="798.1611,212.125,808.1611,216.125,798.1611,220.125,802.1611,216.125" style="stroke:#181818;stroke-width:1;stroke-linejoin:miter;stroke-miterlimit:10;"/><line style="stroke:#181818;stroke-width:1;" x1="434.2363" x2="804.1611" y1="216.125" y2="216.125"/><text fill="#000000" font-family="Helvetica" font-size="10" x="441.2363" y="205.9463">(02)</text><text fill="#000000" font-family="Helvetica" font-size="10" x="465.7637" y="200.126">GET /auth {client_id, request_uri}</text><text fill="#000000" font-family="Helvetica" font-size="10" x="465.7637" y="211.7666">(Authentication Request)</text><line style="stroke:#181818;stroke-width:1;" x1="820.1611" x2="862.1611" y1="253.4063" y2="253.4063"/><line style="stroke:#181818;stroke-width:1;" x1="862.1611" x2="862.1611" y1="253.4063" y2="266.4063"/><line style="stroke:#181818;stroke-width:1;" x1="821.1611" x2="862.1611" y1="266.4063" y2="266.4063"/><polygon fill="#181818" points="831.1611,262.4063,821.1611,266.4063,831.1611,270.4063,827.1611,266.4063" style="stroke:#181818;stroke-width:1;stroke-linejoin:miter;stroke-miterlimit:10;"/><text fill="#000000" font-family="Helvetica" font-size="10" x="827.1611" y="243.2275">(03)</text><text fill="#000000" font-family="Helvetica" font-size="10" x="851.6885" y="237.4072">Pr&#252;fe request_uri (Bezug zum PAR),</text><text fill="#000000" font-family="Helvetica" font-size="10" x="851.6885" y="249.0479">stelle Consent gem&#228;&#223; Claims zusammen</text><polygon fill="#181818" points="445.2363,288.0469,435.2363,292.0469,445.2363,296.0469,441.2363,292.0469" style="stroke:#181818;stroke-width:1;stroke-linejoin:miter;stroke-miterlimit:10;"/><line style="stroke:#181818;stroke-width:1;stroke-dasharray:2,2;" x1="439.2363" x2="809.1611" y1="292.0469" y2="292.0469"/><text fill="#000000" font-family="Helvetica" font-size="10" x="451.2363" y="287.6885">(04)</text><text fill="#000000" font-family="Helvetica" font-size="10" x="475.7637" y="287.6885">Consent-Abfrage &amp; Authentisierungsanforderung (propriet&#228;r)</text><polygon fill="#181818" points="63.5898,325.3281,53.5898,329.3281,63.5898,333.3281,59.5898,329.3281" style="stroke:#181818;stroke-width:1;stroke-linejoin:miter;stroke-miterlimit:10;"/><line style="stroke:#181818;stroke-width:1;" x1="57.5898" x2="423.2363" y1="329.3281" y2="329.3281"/><text fill="#000000" font-family="Helvetica" font-size="10" x="69.5898" y="319.1494">(05)</text><text fill="#000000" font-family="Helvetica" font-size="10" x="94.1172" y="313.3291">Fordere Authentisierung (eGK+PIN / eID)</text><text fill="#000000" font-family="Helvetica" font-size="10" x="94.1172" y="324.9697">und Consent-Freigabe an</text><polygon fill="#181818" points="412.2363,350.9688,422.2363,354.9688,412.2363,358.9688,416.2363,354.9688" style="stroke:#181818;stroke-width:1;stroke-linejoin:miter;stroke-miterlimit:10;"/><line style="stroke:#181818;stroke-width:1;" x1="52.5898" x2="418.2363" y1="354.9688" y2="354.9688"/><text fill="#000000" font-family="Helvetica" font-size="10" x="59.5898" y="350.6104">(06)</text><text fill="#000000" font-family="Helvetica" font-size="10" x="84.1172" y="350.6104">Authentisierung + Consent-Freigabe</text><polygon fill="#181818" points="798.1611,376.6094,808.1611,380.6094,798.1611,384.6094,802.1611,380.6094" style="stroke:#181818;stroke-width:1;stroke-linejoin:miter;stroke-miterlimit:10;"/><line style="stroke:#181818;stroke-width:1;" x1="434.2363" x2="804.1611" y1="380.6094" y2="380.6094"/><text fill="#000000" font-family="Helvetica" font-size="10" x="441.2363" y="376.251">(07)</text><text fill="#000000" font-family="Helvetica" font-size="10" x="465.7637" y="376.251">Best&#228;tigt erfolgreiche Authentisierung (propriet&#228;r)</text><line style="stroke:#181818;stroke-width:1;" x1="820.1611" x2="862.1611" y1="417.8906" y2="417.8906"/><line style="stroke:#181818;stroke-width:1;" x1="862.1611" x2="862.1611" y1="417.8906" y2="430.8906"/><line style="stroke:#181818;stroke-width:1;" x1="821.1611" x2="862.1611" y1="430.8906" y2="430.8906"/><polygon fill="#181818" points="831.1611,426.8906,821.1611,430.8906,831.1611,434.8906,827.1611,430.8906" style="stroke:#181818;stroke-width:1;stroke-linejoin:miter;stroke-miterlimit:10;"/><text fill="#000000" font-family="Helvetica" font-size="10" x="827.1611" y="407.7119">(08)</text><text fill="#000000" font-family="Helvetica" font-size="10" x="851.6885" y="401.8916">Erzeuge AUTHORIZATION_CODE (IDP),</text><text fill="#000000" font-family="Helvetica" font-size="10" x="851.6885" y="413.5322">G&#252;ltigkeit max. 90s</text><polygon fill="#181818" points="445.2363,464.1719,435.2363,468.1719,445.2363,472.1719,441.2363,468.1719" style="stroke:#181818;stroke-width:1;stroke-linejoin:miter;stroke-miterlimit:10;"/><line style="stroke:#181818;stroke-width:1;stroke-dasharray:2,2;" x1="439.2363" x2="809.1611" y1="468.1719" y2="468.1719"/><text fill="#000000" font-family="Helvetica" font-size="10" x="451.2363" y="457.9932">(09)</text><text fill="#000000" font-family="Helvetica" font-size="10" x="475.7637" y="452.1729">302 Found</text><text fill="#000000" font-family="Helvetica" font-size="10" x="475.7637" y="463.8135">Location: &lt;redirect_uri&gt;?code=AUTH_CODE_IDP&amp;state=state_as</text><polygon fill="#181818" points="150.7568,501.4531,140.7568,505.4531,150.7568,509.4531,146.7568,505.4531" style="stroke:#181818;stroke-width:1;stroke-linejoin:miter;stroke-miterlimit:10;"/><line style="stroke:#181818;stroke-width:1;" x1="144.7568" x2="423.2363" y1="505.4531" y2="505.4531"/><text fill="#000000" font-family="Helvetica" font-size="10" x="156.7568" y="495.2744">(10)</text><text fill="#000000" font-family="Helvetica" font-size="10" x="181.2842" y="489.4541">App-Link / Universal-Link</text><text fill="#000000" font-family="Helvetica" font-size="10" x="181.2842" y="501.0947">{code=AUTH_CODE_IDP, state=state_as}</text><path d="M86.6631,518.4531 L86.6631,539.4531 L862.6631,539.4531 L862.6631,528.4531 L852.6631,518.4531 L86.6631,518.4531" fill="#FEFFDD" style="stroke:#181818;stroke-width:0.5;"/><path d="M852.6631,518.4531 L852.6631,528.4531 L862.6631,528.4531 L852.6631,518.4531" fill="#FEFFDD" style="stroke:#181818;stroke-width:0.5;"/><text fill="#000000" font-family="Helvetica" font-size="10" x="322.3047" y="532.7354">Weiter mit Teildiagramm (C) Abb-ZETA-OIDC-Token-Bezug.</text><?plantuml-src TPJ1Rjf0443l_eefbL8Gc4JfgIYXSi2aLXD0AKcb20ajU80LzgwxkuvIgln6hxta6thApJ_MMTka499B9DQpRsRUpkGT5xCe3H6QpSCaZICtOZzbQfhctZYEym56oAEGiuLYSGpLireB-gbPesAfMQ8mN7DKgLW0Yq7ZoaZ58XGGT8UGFKrHGSWqU6NiZD5tzrA6QLIIuKuAyAPJzzOVUUuWw7RSJV2Shmkq6yifZr2vdOZJ1-quR4OSkDQ49tgbA6WigZUeD9yjKHbKjOhZJEKzL2xps-0bIGMw_atGyIUTmSNWoW58cAAYUCA4WGAUysmjvUyAd9oiqR1ssq4H0W5BwavB5RZm0w9U3WTzlpzwbUzTvknNL53Xp-QKDKUbxoOR1Mul-nkITCEbgC1xt-iTztelCbZdDiMt7HZHRKwf-3g_xVeYJ5AnCjjPYcRhTKT8Wo3lw6fnrB285dJfOCiAB1cPIlMBuV1geF17YjfCKiKX9VeiZv_m450jMMHGD3VPm6sJb7gz1Tdl-LpWxfH0jOkOk1TShE0GhWMdcZIByeFQMFnw1ZUsSpuuf9cuLBG5d_iZEBI32c_5btRAjAG7heglDSVgB50j6AhiQOuxtLNFS9qkO9t6CFIkQesnq0OZ6hIE5Dgsjy0uUyp-a3B6Oqs1cYIXABXvxwrDhEjDvuej40wU9PHhfPcOInKMArPDb4mKHvCzgbhPgLq2sselZyANzw6Avr_hmw1F4Z7eaZdxAfkqFOLymQO8J3ZvDkLbkMvh3rFVk_FVT0lEI4hsQFZ2q3FFPRIW65h3_M9s6jWMxAirfYJ0knvz6Lm5jzue6FHfZxe-LEr6aDxpx2cY52la1c9stuHFHtfBfgtwuz4nYQ0En-925k_PWXE58LSuov-j_NacGporQNBwX007sZ23f_dV2TDbOyMGvYwID-RGZk4UhG6xk0VdhQNwJftGMKpzxEvHf_RYN-98hb2u-S0rdNy0?></g></svg>