<svg xmlns="http://www.w3.org/2000/svg" xmlns:xlink="http://www.w3.org/1999/xlink" contentStyleType="text/css" data-diagram-type="SEQUENCE" height="911px" preserveAspectRatio="none" style="width:979px;height:911px;background:#FFFFFF;" version="1.1" viewBox="0 0 979 911" width="979px" zoomAndPan="magnify"><?plantuml 1.2026.6?><defs/><g><rect fill="#FFFFFF" height="885.4219" style="stroke:#181818;stroke-width:0.5;" width="107.4688" x="16" y="11"/><text fill="#000000" font-family="Helvetica" font-size="10" font-weight="700" x="50.0762" y="20.2822">Google</text><rect fill="#FEFCFF" height="885.4219" style="stroke:#181818;stroke-width:0.5;" width="667.5459" x="135.4688" y="11"/><text fill="#000000" font-family="Helvetica" font-size="10" font-weight="700" x="450.3721" y="20.2822">Device</text><rect fill="#E6E6FA" height="868.7813" style="stroke:#181818;stroke-width:0.5;" width="80.2471" x="722.7676" y="27.6406"/><text fill="#000000" font-family="Helvetica" font-size="10" font-weight="700" x="751.8633" y="36.9229">App</text><g><title>Play Integrity API</title><rect fill="#000000" fill-opacity="0.00000" height="793.8594" width="8" x="66.2344" y="69.9219"/><line style="stroke:#000000;stroke-width:0.5;stroke-dasharray:5,5;" x1="69.7344" x2="69.7344" y1="69.9219" y2="863.7813"/></g><g><title/><rect fill="#FFFFFF" height="25.6406" style="stroke:#181818;stroke-width:1;" width="10" x="64.7344" y="820.1406"/></g><g><title>TEE . StrongBox</title><rect fill="#000000" fill-opacity="0.00000" height="793.8594" width="8" x="183.2446" y="69.9219"/><line style="stroke:#000000;stroke-width:0.5;stroke-dasharray:5,5;" x1="186.7446" x2="186.7446" y1="69.9219" y2="863.7813"/></g><g><title/><rect fill="#FFFFFF" height="25.6406" style="stroke:#181818;stroke-width:1;" width="10" x="181.7446" y="204.125"/></g><g><title/><rect fill="#FFFFFF" height="25.6406" style="stroke:#181818;stroke-width:1;" width="10" x="181.7446" y="451.5313"/></g><g><title/><rect fill="#FFFFFF" height="25.6406" style="stroke:#181818;stroke-width:1;" width="10" x="181.7446" y="660.2969"/></g><g><title>Android OS</title><rect fill="#000000" fill-opacity="0.00000" height="793.8594" width="8" x="452.0015" y="69.9219"/><line style="stroke:#000000;stroke-width:0.5;stroke-dasharray:5,5;" x1="455.5015" x2="455.5015" y1="69.9219" y2="863.7813"/></g><g><title/><rect fill="#FFFFFF" height="785.8594" style="stroke:#181818;stroke-width:1;" width="10" x="450.5015" y="77.9219"/></g><g><title>ZETA Client</title><rect fill="#000000" fill-opacity="0.00000" height="793.8594" width="8" x="759.3911" y="69.9219"/><line style="stroke:#000000;stroke-width:0.5;stroke-dasharray:5,5;" x1="762.8911" x2="762.8911" y1="69.9219" y2="863.7813"/></g><g><title/><rect fill="#FFFFFF" height="767.8594" style="stroke:#181818;stroke-width:1;" width="10" x="757.8911" y="77.9219"/></g><rect fill="#E2E2F0" height="25.6406" rx="2.5" ry="2.5" style="stroke:#181818;stroke-width:0.5;" width="99.4688" x="20" y="43.2813"/><text fill="#000000" font-family="Helvetica" font-size="10" x="27" y="59.5635">Play Integrity API</text><rect fill="#E2E2F0" height="25.6406" rx="2.5" ry="2.5" style="stroke:#181818;stroke-width:0.5;" width="94.5518" x="139.4688" y="43.2813"/><text fill="#000000" font-family="Helvetica" font-size="10" x="146.4688" y="59.5635">TEE / StrongBox</text><rect fill="#E2E2F0" height="25.6406" rx="2.5" ry="2.5" style="stroke:#181818;stroke-width:0.5;" width="70.2793" x="420.3618" y="43.2813"/><text fill="#000000" font-family="Helvetica" font-size="10" x="427.3618" y="59.5635">Android OS</text><rect fill="#FFE6CC" height="25.6406" rx="2.5" ry="2.5" style="stroke:#D79B00;stroke-width:0.5;" width="72.2471" x="726.7676" y="43.2813"/><text fill="#000000" font-family="Helvetica" font-size="10" x="733.7676" y="59.5635">ZETA Client</text><rect fill="#E2E2F0" height="25.6406" rx="2.5" ry="2.5" style="stroke:#181818;stroke-width:0.5;" width="99.4688" x="20" y="863.7813"/><text fill="#000000" font-family="Helvetica" font-size="10" x="27" y="880.0635">Play Integrity API</text><rect fill="#E2E2F0" height="25.6406" rx="2.5" ry="2.5" style="stroke:#181818;stroke-width:0.5;" width="94.5518" x="139.4688" y="863.7813"/><text fill="#000000" font-family="Helvetica" font-size="10" x="146.4688" y="880.0635">TEE / StrongBox</text><rect fill="#E2E2F0" height="25.6406" rx="2.5" ry="2.5" style="stroke:#181818;stroke-width:0.5;" width="70.2793" x="420.3618" y="863.7813"/><text fill="#000000" font-family="Helvetica" font-size="10" x="427.3618" y="880.0635">Android OS</text><rect fill="#FFE6CC" height="25.6406" rx="2.5" ry="2.5" style="stroke:#D79B00;stroke-width:0.5;" width="72.2471" x="726.7676" y="863.7813"/><text fill="#000000" font-family="Helvetica" font-size="10" x="733.7676" y="880.0635">ZETA Client</text><rect fill="#EEEEEE" height="3" style="stroke:#EEEEEE;stroke-width:1;" width="958.0493" x="10" y="96.7422"/><line style="stroke:#000000;stroke-width:1;" x1="10" x2="968.0493" y1="96.7422" y2="96.7422"/><line style="stroke:#000000;stroke-width:1;" x1="10" x2="968.0493" y1="99.7422" y2="99.7422"/><rect fill="#EEEEEE" height="19.6406" style="stroke:#000000;stroke-width:2;" width="331.2705" x="323.3894" y="87.9219"/><text fill="#000000" font-family="Helvetica" font-size="10" font-weight="700" x="329.3894" y="101.2041">Client Instance Key Pair (PrK.Client.Sig; PuK.Client.Sig)</text><path d="M549.5083,122.5625 L549.5083,155.5625 L757.5083,155.5625 L757.5083,132.5625 L747.5083,122.5625 L549.5083,122.5625" fill="#FEFFDD" style="stroke:#181818;stroke-width:0.5;"/><path d="M747.5083,122.5625 L747.5083,132.5625 L757.5083,132.5625 L747.5083,122.5625" fill="#FEFFDD" style="stroke:#181818;stroke-width:0.5;"/><text fill="#000000" font-family="Helvetica" font-size="10" x="555.5083" y="136.8447">Generierung des prim&#228;ren Schl&#252;ssels</text><text fill="#000000" font-family="Helvetica" font-size="10" x="555.5083" y="148.4854">f&#252;r Client Assertions.</text><polygon fill="#181818" points="471.5015,174.4844,461.5015,178.4844,471.5015,182.4844,467.5015,178.4844" style="stroke:#181818;stroke-width:1;stroke-linejoin:miter;stroke-miterlimit:10;"/><line style="stroke:#181818;stroke-width:1;" x1="465.5015" x2="756.8911" y1="178.4844" y2="178.4844"/><text fill="#000000" font-family="Helvetica" font-size="10" x="477.5015" y="174.126">(01)</text><text fill="#000000" font-family="Helvetica" font-size="10" x="502.0288" y="174.126">KeyStore.generateKey(Alias_Client_Sig)</text><polygon fill="#181818" points="202.7446,200.125,192.7446,204.125,202.7446,208.125,198.7446,204.125" style="stroke:#181818;stroke-width:1;stroke-linejoin:miter;stroke-miterlimit:10;"/><line style="stroke:#181818;stroke-width:1;" x1="196.7446" x2="449.5015" y1="204.125" y2="204.125"/><text fill="#000000" font-family="Helvetica" font-size="10" x="208.7446" y="199.7666">(02)</text><text fill="#000000" font-family="Helvetica" font-size="10" x="233.272" y="199.7666">Erzeuge Client Key Pair</text><polygon fill="#181818" points="438.5015,225.7656,448.5015,229.7656,438.5015,233.7656,442.5015,229.7656" style="stroke:#181818;stroke-width:1;stroke-linejoin:miter;stroke-miterlimit:10;"/><line style="stroke:#181818;stroke-width:1;stroke-dasharray:2,2;" x1="191.7446" x2="444.5015" y1="229.7656" y2="229.7656"/><text fill="#000000" font-family="Helvetica" font-size="10" x="198.7446" y="225.4072">(03)</text><text fill="#000000" font-family="Helvetica" font-size="10" x="223.272" y="225.4072">(Schl&#252;ssel verbleibt in HW)</text><polygon fill="#181818" points="745.8911,251.4063,755.8911,255.4063,745.8911,259.4063,749.8911,255.4063" style="stroke:#181818;stroke-width:1;stroke-linejoin:miter;stroke-miterlimit:10;"/><line style="stroke:#181818;stroke-width:1;stroke-dasharray:2,2;" x1="460.5015" x2="751.8911" y1="255.4063" y2="255.4063"/><text fill="#000000" font-family="Helvetica" font-size="10" x="467.5015" y="251.0479">(04)</text><text fill="#000000" font-family="Helvetica" font-size="10" x="492.0288" y="251.0479">Client Key Referenz (Alias)</text><line style="stroke:#181818;stroke-width:1;" x1="767.8911" x2="809.8911" y1="292.6875" y2="292.6875"/><line style="stroke:#181818;stroke-width:1;" x1="809.8911" x2="809.8911" y1="292.6875" y2="305.6875"/><line style="stroke:#181818;stroke-width:1;" x1="768.8911" x2="809.8911" y1="305.6875" y2="305.6875"/><polygon fill="#181818" points="778.8911,301.6875,768.8911,305.6875,778.8911,309.6875,774.8911,305.6875" style="stroke:#181818;stroke-width:1;stroke-linejoin:miter;stroke-miterlimit:10;"/><text fill="#000000" font-family="Helvetica" font-size="10" x="774.8911" y="282.5088">(05)</text><text fill="#000000" font-family="Helvetica" font-size="10" x="799.4185" y="276.6885">Berechne hash_puk_client_sig =</text><text fill="#000000" font-family="Helvetica" font-size="10" x="799.4185" y="288.3291">SHA-256(PuK.Client.Sig)</text><rect fill="#EEEEEE" height="3" style="stroke:#EEEEEE;stroke-width:1;" width="958.0493" x="10" y="332.5078"/><line style="stroke:#000000;stroke-width:1;" x1="10" x2="968.0493" y1="332.5078" y2="332.5078"/><line style="stroke:#000000;stroke-width:1;" x1="10" x2="968.0493" y1="335.5078" y2="335.5078"/><rect fill="#EEEEEE" height="19.6406" style="stroke:#000000;stroke-width:2;" width="248.8047" x="364.6223" y="323.6875"/><text fill="#000000" font-family="Helvetica" font-size="10" font-weight="700" x="370.6223" y="336.9697">Hardware-Attestierung (Attestation Key)</text><path d="M484.103,358.3281 L484.103,391.3281 L757.103,391.3281 L757.103,368.3281 L747.103,358.3281 L484.103,358.3281" fill="#FEFFDD" style="stroke:#181818;stroke-width:0.5;"/><path d="M747.103,358.3281 L747.103,368.3281 L757.103,368.3281 L747.103,358.3281" fill="#FEFFDD" style="stroke:#181818;stroke-width:0.5;"/><text fill="#000000" font-family="Helvetica" font-size="10" x="490.103" y="372.6104">Generierung des dedizierten Attestation Keys (AK)</text><text fill="#000000" font-family="Helvetica" font-size="10" x="490.103" y="384.251">und Bindung an den Client Key.</text><polygon fill="#181818" points="471.5015,421.8906,461.5015,425.8906,471.5015,429.8906,467.5015,425.8906" style="stroke:#181818;stroke-width:1;stroke-linejoin:miter;stroke-miterlimit:10;"/><line style="stroke:#181818;stroke-width:1;" x1="465.5015" x2="756.8911" y1="425.8906" y2="425.8906"/><text fill="#000000" font-family="Helvetica" font-size="10" x="477.5015" y="415.7119">(06)</text><text fill="#000000" font-family="Helvetica" font-size="10" x="502.0288" y="409.8916">KeyStore.generateKey(Alias_AK,</text><text fill="#000000" font-family="Helvetica" font-size="10" x="502.0288" y="421.5322">AttestationChallenge = hash_puk_client_sig)</text><polygon fill="#181818" points="202.7446,447.5313,192.7446,451.5313,202.7446,455.5313,198.7446,451.5313" style="stroke:#181818;stroke-width:1;stroke-linejoin:miter;stroke-miterlimit:10;"/><line style="stroke:#181818;stroke-width:1;" x1="196.7446" x2="449.5015" y1="451.5313" y2="451.5313"/><text fill="#000000" font-family="Helvetica" font-size="10" x="208.7446" y="447.1729">(07)</text><text fill="#000000" font-family="Helvetica" font-size="10" x="233.272" y="447.1729">Erzeuge Attestation Key Pair (AK) &amp; Chain</text><polygon fill="#181818" points="438.5015,473.1719,448.5015,477.1719,438.5015,481.1719,442.5015,477.1719" style="stroke:#181818;stroke-width:1;stroke-linejoin:miter;stroke-miterlimit:10;"/><line style="stroke:#181818;stroke-width:1;stroke-dasharray:2,2;" x1="191.7446" x2="444.5015" y1="477.1719" y2="477.1719"/><text fill="#000000" font-family="Helvetica" font-size="10" x="198.7446" y="472.8135">(08)</text><text fill="#000000" font-family="Helvetica" font-size="10" x="223.272" y="472.8135">Zertifikatskette (inkl. PuK.AK.Sig)</text><polygon fill="#181818" points="745.8911,498.8125,755.8911,502.8125,745.8911,506.8125,749.8911,502.8125" style="stroke:#181818;stroke-width:1;stroke-linejoin:miter;stroke-miterlimit:10;"/><line style="stroke:#181818;stroke-width:1;stroke-dasharray:2,2;" x1="460.5015" x2="751.8911" y1="502.8125" y2="502.8125"/><text fill="#000000" font-family="Helvetica" font-size="10" x="467.5015" y="498.4541">(09)</text><text fill="#000000" font-family="Helvetica" font-size="10" x="492.0288" y="498.4541">android_key_attestation_certificate_chain</text><rect fill="#EEEEEE" height="3" style="stroke:#EEEEEE;stroke-width:1;" width="958.0493" x="10" y="529.6328"/><line style="stroke:#000000;stroke-width:1;" x1="10" x2="968.0493" y1="529.6328" y2="529.6328"/><line style="stroke:#000000;stroke-width:1;" x1="10" x2="968.0493" y1="532.6328" y2="532.6328"/><rect fill="#EEEEEE" height="19.6406" style="stroke:#000000;stroke-width:2;" width="284.0635" x="346.9929" y="520.8125"/><text fill="#000000" font-family="Helvetica" font-size="10" font-weight="700" x="352.9929" y="534.0947">Expliziter Besitznachweis (Proof of Possession)</text><path d="M494.103,555.4531 L494.103,599.4531 L757.103,599.4531 L757.103,565.4531 L747.103,555.4531 L494.103,555.4531" fill="#FEFFDD" style="stroke:#181818;stroke-width:0.5;"/><path d="M747.103,555.4531 L747.103,565.4531 L757.103,565.4531 L747.103,555.4531" fill="#FEFFDD" style="stroke:#181818;stroke-width:0.5;"/><text fill="#000000" font-family="Helvetica" font-size="10" x="500.103" y="569.7354">Besitznachweis des Client Instance Keys.</text><text fill="#000000" font-family="Helvetica" font-size="10" x="500.103" y="581.376">Die AK-Kette beweist die HW-Bindung;</text><text fill="#000000" font-family="Helvetica" font-size="10" x="500.103" y="593.0166">diese Signatur beweist Besitz von PrK.Client.Sig.</text><polygon fill="#181818" points="471.5015,630.6563,461.5015,634.6563,471.5015,638.6563,467.5015,634.6563" style="stroke:#181818;stroke-width:1;stroke-linejoin:miter;stroke-miterlimit:10;"/><line style="stroke:#181818;stroke-width:1;" x1="465.5015" x2="756.8911" y1="634.6563" y2="634.6563"/><text fill="#000000" font-family="Helvetica" font-size="10" x="477.5015" y="624.4775">(10)</text><text fill="#000000" font-family="Helvetica" font-size="10" x="502.0288" y="618.6572">Signature.sign(KeyStore.getKey(Alias_Client_Sig),</text><text fill="#000000" font-family="Helvetica" font-size="10" x="502.0288" y="630.2979">hash_puk_client_sig)</text><polygon fill="#181818" points="202.7446,656.2969,192.7446,660.2969,202.7446,664.2969,198.7446,660.2969" style="stroke:#181818;stroke-width:1;stroke-linejoin:miter;stroke-miterlimit:10;"/><line style="stroke:#181818;stroke-width:1;" x1="196.7446" x2="449.5015" y1="660.2969" y2="660.2969"/><text fill="#000000" font-family="Helvetica" font-size="10" x="208.7446" y="655.9385">(11)</text><text fill="#000000" font-family="Helvetica" font-size="10" x="233.272" y="655.9385">Signiere Hash mit PrK.Client.Sig</text><polygon fill="#181818" points="438.5015,681.9375,448.5015,685.9375,438.5015,689.9375,442.5015,685.9375" style="stroke:#181818;stroke-width:1;stroke-linejoin:miter;stroke-miterlimit:10;"/><line style="stroke:#181818;stroke-width:1;stroke-dasharray:2,2;" x1="191.7446" x2="444.5015" y1="685.9375" y2="685.9375"/><text fill="#000000" font-family="Helvetica" font-size="10" x="198.7446" y="681.5791">(12)</text><text fill="#000000" font-family="Helvetica" font-size="10" x="223.272" y="681.5791">ECDSA Signatur</text><polygon fill="#181818" points="745.8911,707.5781,755.8911,711.5781,745.8911,715.5781,749.8911,711.5781" style="stroke:#181818;stroke-width:1;stroke-linejoin:miter;stroke-miterlimit:10;"/><line style="stroke:#181818;stroke-width:1;stroke-dasharray:2,2;" x1="460.5015" x2="751.8911" y1="711.5781" y2="711.5781"/><text fill="#000000" font-family="Helvetica" font-size="10" x="467.5015" y="707.2197">(13)</text><text fill="#000000" font-family="Helvetica" font-size="10" x="492.0288" y="707.2197">signed_hash_puk_client_sig</text><rect fill="#EEEEEE" height="3" style="stroke:#EEEEEE;stroke-width:1;" width="958.0493" x="10" y="738.3984"/><line style="stroke:#000000;stroke-width:1;" x1="10" x2="968.0493" y1="738.3984" y2="738.3984"/><line style="stroke:#000000;stroke-width:1;" x1="10" x2="968.0493" y1="741.3984" y2="741.3984"/><rect fill="#EEEEEE" height="19.6406" style="stroke:#000000;stroke-width:2;" width="244.4395" x="366.8049" y="729.5781"/><text fill="#000000" font-family="Helvetica" font-size="10" font-weight="700" x="372.8049" y="742.8604">Play Integrity API (Optional, empfohlen)</text><path d="M527.2622,764.2188 L527.2622,785.2188 L757.2622,785.2188 L757.2622,774.2188 L747.2622,764.2188 L527.2622,764.2188" fill="#FEFFDD" style="stroke:#181818;stroke-width:0.5;"/><path d="M747.2622,764.2188 L747.2622,774.2188 L757.2622,774.2188 L747.2622,764.2188" fill="#FEFFDD" style="stroke:#181818;stroke-width:0.5;"/><text fill="#000000" font-family="Helvetica" font-size="10" x="533.2622" y="778.501">Einholung des Ger&#228;te- und App-Zustands.</text><polygon fill="#181818" points="85.7344,816.1406,75.7344,820.1406,85.7344,824.1406,81.7344,820.1406" style="stroke:#181818;stroke-width:1;stroke-linejoin:miter;stroke-miterlimit:10;"/><line style="stroke:#181818;stroke-width:1;" x1="79.7344" x2="756.8911" y1="820.1406" y2="820.1406"/><text fill="#000000" font-family="Helvetica" font-size="10" x="91.7344" y="809.9619">(14)</text><text fill="#000000" font-family="Helvetica" font-size="10" x="116.2617" y="804.1416">requestIntegrityToken(</text><text fill="#000000" font-family="Helvetica" font-size="10" x="116.2617" y="815.7822">nonce = hash_puk_client_sig)</text><polygon fill="#181818" points="745.8911,841.7813,755.8911,845.7813,745.8911,849.7813,749.8911,845.7813" style="stroke:#181818;stroke-width:1;stroke-linejoin:miter;stroke-miterlimit:10;"/><line style="stroke:#181818;stroke-width:1;stroke-dasharray:2,2;" x1="74.7344" x2="751.8911" y1="845.7813" y2="845.7813"/><text fill="#000000" font-family="Helvetica" font-size="10" x="81.7344" y="841.4229">(15)</text><text fill="#000000" font-family="Helvetica" font-size="10" x="106.2617" y="841.4229">play_integrity_token (Base64)</text><?plantuml-src dLNRRjiu47tFLqozm491AXLOTFEGDW4KHviORc4Z2beqC20mqjWch0or99MBlwUVaRVys0vrY-8uARg2OOWKvyoPEOVaEqbfNcO8GV2XAAzpFnVtghI1lRCxEy3FbRg3mQbIYnm7yCS_rLDz02Y4jZALXI0BWoa7meWiBhIqzn1EHmCG1jmqlrSHI9c3w-6Uu8rC6VSa-ZOQHibmycLolWty8ehW0yHMAreSgxiAkHjj2mWfqqfcC8chjSrm4ZThg-HXKGnWUZxw6aRdyO_u8lhwZC06ucLq4S8mbqYsWgnVuVFdDLfnTDG4jIM-ABTUlhTN3JewpRZwEpniCKTahA0KOOptC1LIWpVLuw3-6iHoyGccPN-yoy4L1YcBaEFSWfetQ0TmYeHQeYvf0HaQABIyVlofaI1Eb_dZWp6OcndD7nzqoo3aEQvTaGbwxC4_Ug9-uDZ5LcaC5Yw1iCWJNfXBOP9wVUAeFHNOXJgSJhszlGE8z1hB1RPfshAhg6uX-Ftqldy0tXD_k45zbQEyiY09phvlJyi0RLDwgSvnZjoDDTJaTpSgRYEEUL6w98IbCCkaA5T9MbTfv08EPnIVXVvVV-zx6zBijEAU2PtT2er-Q2qQsmZYrIFXcktO_9wK6MPopMFBOcu06OOUxyweP1SUIyfSY22Ee5xj_q_TSFn-HhrqmwN8SoGMy71RStxB0XjLDFRdIk1Fu3oIVcMAIsVSkLm9QrR8OE19MkL1jMF2ST1PShijH3sRhF0-4KzKahH6JRaFIThHQAMDxegSTR2esIL6sZM9T7cBqhYDgrW__aqL-zGO1djBukOOsK1nKcyv6vhD2N0YkN5ZVrpLUuKknaB6asVV_KRxJyrIdZK8t0KIjjJTuZeXt73NdnyrGNUKERQlswL5n80L9w_d7hlrM607lMgLrrtYih3TkJ2EXMjfDzZ-oXpHy2GEEwvl-C0LWLcoXU8puLzUUk1D2kSOaRy7l2xcQiaxu-rD7KbQghpTqgUe7tzQzC5jNBwY_ClIAPwzE8cRczMrHUE_9Lkr8tAXLaZUZ4WvfxonAHkCNkckImNF9h85Iwn30-zO6Dp_kDk_pdn_vpy0?></g></svg>