<svg xmlns="http://www.w3.org/2000/svg" xmlns:xlink="http://www.w3.org/1999/xlink" contentStyleType="text/css" data-diagram-type="SEQUENCE" height="1091px" preserveAspectRatio="none" style="width:1336px;height:1091px;background:#FFFFFF;" version="1.1" viewBox="0 0 1336 1091" width="1336px" zoomAndPan="magnify"><?plantuml 1.2026.6?><defs/><g><rect fill="#FEFCFF" height="1065.3906" style="stroke:#181818;stroke-width:0.5;" width="87.1543" x="61.6899" y="11"/><text fill="#000000" font-family="Helvetica" font-size="10" font-weight="700" x="73.6899" y="20.2822">Mobile App</text><rect fill="#EDFDEC" height="1065.3906" style="stroke:#181818;stroke-width:0.5;" width="476.3354" x="432.6699" y="11"/><text fill="#000000" font-family="Helvetica" font-size="10" font-weight="700" x="608.9456" y="20.2822">Anbieter TI 2.0 Dienst</text><rect fill="#FFF3E5" height="1048.75" style="stroke:#181818;stroke-width:0.5;" width="476.3354" x="432.6699" y="27.6406"/><text fill="#000000" font-family="Helvetica" font-size="10" font-weight="700" x="637.6931" y="36.9229">ZETA Guard</text><rect fill="#EAF2FF" height="1065.3906" style="stroke:#181818;stroke-width:0.5;" width="111.6582" x="921.0054" y="11"/><text fill="#000000" font-family="Helvetica" font-size="10" font-weight="700" x="938.729" y="20.2822">TI-F&#246;deration</text><g><title>ZETA Client</title><rect fill="#000000" fill-opacity="0.00000" height="927.2656" width="8" x="101.7671" y="93.2031"/><line style="stroke:#000000;stroke-width:0.5;stroke-dasharray:5,5;" x1="105.2671" x2="105.2671" y1="93.2031" y2="1020.4688"/></g><g><title/><rect fill="#FFFFFF" height="919.2656" style="stroke:#181818;stroke-width:1;" width="10" x="100.2671" y="101.2031"/></g><g><title>PDP</title><rect fill="#000000" fill-opacity="0.00000" height="927.2656" width="8" x="491.686" y="93.2031"/><line style="stroke:#000000;stroke-width:0.5;stroke-dasharray:5,5;" x1="495.186" x2="495.186" y1="93.2031" y2="1020.4688"/></g><g><title/><rect fill="#FFFFFF" height="807.0625" style="stroke:#181818;stroke-width:1;" width="10" x="490.186" y="213.4063"/></g><g><title/><rect fill="#FFFFFF" height="99.2031" style="stroke:#181818;stroke-width:1;" width="10" x="495.186" y="779.0625"/></g><g><title>PDP</title><rect fill="#000000" fill-opacity="0.00000" height="927.2656" width="8" x="861.2192" y="93.2031"/><line style="stroke:#000000;stroke-width:0.5;stroke-dasharray:5,5;" x1="864.7192" x2="864.7192" y1="93.2031" y2="1020.4688"/></g><g><title/><rect fill="#FFFFFF" height="25.6406" style="stroke:#181818;stroke-width:1;" width="10" x="859.7192" y="539.0156"/></g><g><title>Sektoraler IDP</title><rect fill="#000000" fill-opacity="0.00000" height="927.2656" width="8" x="973.3345" y="93.2031"/><line style="stroke:#000000;stroke-width:0.5;stroke-dasharray:5,5;" x1="976.8345" x2="976.8345" y1="93.2031" y2="1020.4688"/></g><g><title/><rect fill="#FFFFFF" height="110.8438" style="stroke:#181818;stroke-width:1;" width="10" x="971.8345" y="262.3281"/></g><rect fill="#FFE6CC" height="25.6406" rx="2.5" ry="2.5" style="stroke:#D79B00;stroke-width:0.5;" width="72.2471" x="69.1436" y="66.5625"/><text fill="#000000" font-family="Helvetica" font-size="10" x="76.1436" y="82.8447">ZETA Client</text><rect fill="#FFE6CC" height="48.9219" rx="2.5" ry="2.5" style="stroke:#D79B00;stroke-width:0.5;" width="117.0322" x="436.6699" y="43.2813"/><text fill="#000000" font-family="Helvetica" font-size="10" x="485.3057" y="59.5635">PDP</text><text fill="#000000" font-family="Helvetica" font-size="10" x="443.7114" y="71.2041">Authorization Server</text><text fill="#000000" font-family="Helvetica" font-size="10" x="443.6699" y="82.8447">(OIDC Relying Party)</text><rect fill="#FFE6CC" height="37.2813" rx="2.5" ry="2.5" style="stroke:#D79B00;stroke-width:0.5;" width="80.5723" x="824.4331" y="54.9219"/><text fill="#000000" font-family="Helvetica" font-size="10" x="854.8389" y="71.2041">PDP</text><text fill="#000000" font-family="Helvetica" font-size="10" x="831.4331" y="82.8447">Policy Engine</text><rect fill="#E2E2F0" height="37.2813" rx="2.5" ry="2.5" style="stroke:#181818;stroke-width:0.5;" width="103.6582" x="925.0054" y="54.9219"/><text fill="#000000" font-family="Helvetica" font-size="10" x="941.0996" y="71.2041">Sektoraler IDP</text><text fill="#000000" font-family="Helvetica" font-size="10" x="932.0054" y="82.8447">(Token-Endpunkt)</text><rect fill="#FFE6CC" height="25.6406" rx="2.5" ry="2.5" style="stroke:#D79B00;stroke-width:0.5;" width="72.2471" x="69.1436" y="1020.4688"/><text fill="#000000" font-family="Helvetica" font-size="10" x="76.1436" y="1036.751">ZETA Client</text><rect fill="#FFE6CC" height="48.9219" rx="2.5" ry="2.5" style="stroke:#D79B00;stroke-width:0.5;" width="117.0322" x="436.6699" y="1020.4688"/><text fill="#000000" font-family="Helvetica" font-size="10" x="485.3057" y="1036.751">PDP</text><text fill="#000000" font-family="Helvetica" font-size="10" x="443.7114" y="1048.3916">Authorization Server</text><text fill="#000000" font-family="Helvetica" font-size="10" x="443.6699" y="1060.0322">(OIDC Relying Party)</text><rect fill="#FFE6CC" height="37.2813" rx="2.5" ry="2.5" style="stroke:#D79B00;stroke-width:0.5;" width="80.5723" x="824.4331" y="1020.4688"/><text fill="#000000" font-family="Helvetica" font-size="10" x="854.8389" y="1036.751">PDP</text><text fill="#000000" font-family="Helvetica" font-size="10" x="831.4331" y="1048.3916">Policy Engine</text><rect fill="#E2E2F0" height="37.2813" rx="2.5" ry="2.5" style="stroke:#181818;stroke-width:0.5;" width="103.6582" x="925.0054" y="1020.4688"/><text fill="#000000" font-family="Helvetica" font-size="10" x="941.0996" y="1036.751">Sektoraler IDP</text><text fill="#000000" font-family="Helvetica" font-size="10" x="932.0054" y="1048.3916">(Token-Endpunkt)</text><path d="M66.2908,106.2031 L66.2908,127.2031 L1015.2908,127.2031 L1015.2908,116.2031 L1005.2908,106.2031 L66.2908,106.2031" fill="#FEFFDD" style="stroke:#181818;stroke-width:0.5;"/><path d="M1005.2908,106.2031 L1005.2908,116.2031 L1015.2908,116.2031 L1005.2908,106.2031" fill="#FEFFDD" style="stroke:#181818;stroke-width:0.5;"/><text fill="#000000" font-family="Helvetica" font-size="10" x="322.2344" y="120.4854">Der ZETA Client hat aus Teildiagramm (B) den AUTHORIZATION_CODE (IDP) erhalten.</text><rect fill="#EEEEEE" height="3" style="stroke:#EEEEEE;stroke-width:1;" width="1315.4741" x="10" y="151.6641"/><line style="stroke:#000000;stroke-width:1;" x1="10" x2="1325.4741" y1="151.6641" y2="151.6641"/><line style="stroke:#000000;stroke-width:1;" x1="10" x2="1325.4741" y1="154.6641" y2="154.6641"/><rect fill="#EEEEEE" height="19.6406" style="stroke:#000000;stroke-width:2;" width="286.7197" x="524.3772" y="142.8438"/><text fill="#000000" font-family="Helvetica" font-size="10" font-weight="700" x="530.3772" y="156.126">Innerer Flow: Token-Bezug beim sektoralen IDP</text><polygon fill="#181818" points="478.186,209.4063,488.186,213.4063,478.186,217.4063,482.186,213.4063" style="stroke:#181818;stroke-width:1;stroke-linejoin:miter;stroke-miterlimit:10;"/><line style="stroke:#181818;stroke-width:1;" x1="110.2671" x2="484.186" y1="213.4063" y2="213.4063"/><text fill="#000000" font-family="Helvetica" font-size="10" x="117.2671" y="197.4072">(01)</text><text fill="#000000" font-family="Helvetica" font-size="10" x="141.7944" y="185.7666">GET &lt;redirect_uri&gt; (Redirection-Endpunkt der OIDC Relying Party)</text><text fill="#000000" font-family="Helvetica" font-size="10" x="141.7944" y="197.4072">Folgt der 302-Redirection aus Teildiagramm (B)</text><text fill="#000000" font-family="Helvetica" font-size="10" x="141.7944" y="209.0479">{code=AUTH_CODE_IDP, state=state_as}</text><polygon fill="#181818" points="959.8345,258.3281,969.8345,262.3281,959.8345,266.3281,963.8345,262.3281" style="stroke:#181818;stroke-width:1;stroke-linejoin:miter;stroke-miterlimit:10;"/><line style="stroke:#181818;stroke-width:1;" x1="500.186" x2="965.8345" y1="262.3281" y2="262.3281"/><text fill="#000000" font-family="Helvetica" font-size="10" x="507.186" y="246.3291">(02)</text><text fill="#000000" font-family="Helvetica" font-size="10" x="531.7134" y="234.6885">POST /token (mTLS, self_signed_tls_client_auth)</text><text fill="#000000" font-family="Helvetica" font-size="10" x="531.7134" y="246.3291">{grant_type=authorization_code, code=AUTH_CODE_IDP,</text><text fill="#000000" font-family="Helvetica" font-size="10" x="531.7134" y="257.9697">code_verifier=code_verifier_as, client_id, redirect_uri}</text><line style="stroke:#181818;stroke-width:1;" x1="981.8345" x2="1023.8345" y1="311.25" y2="311.25"/><line style="stroke:#181818;stroke-width:1;" x1="1023.8345" x2="1023.8345" y1="311.25" y2="324.25"/><line style="stroke:#181818;stroke-width:1;" x1="982.8345" x2="1023.8345" y1="324.25" y2="324.25"/><polygon fill="#181818" points="992.8345,320.25,982.8345,324.25,992.8345,328.25,988.8345,324.25" style="stroke:#181818;stroke-width:1;stroke-linejoin:miter;stroke-miterlimit:10;"/><text fill="#000000" font-family="Helvetica" font-size="10" x="988.8345" y="295.251">(03)</text><text fill="#000000" font-family="Helvetica" font-size="10" x="1013.3618" y="283.6104">Pr&#252;fe TLS-Clientzertifikat,</text><text fill="#000000" font-family="Helvetica" font-size="10" x="1013.3618" y="295.251">verifiziere code_verifier_as gegen code_challenge_as (S256),</text><text fill="#000000" font-family="Helvetica" font-size="10" x="1013.3618" y="306.8916">invalidiere AUTHORIZATION_CODE</text><polygon fill="#181818" points="511.186,369.1719,501.186,373.1719,511.186,377.1719,507.186,373.1719" style="stroke:#181818;stroke-width:1;stroke-linejoin:miter;stroke-miterlimit:10;"/><line style="stroke:#181818;stroke-width:1;stroke-dasharray:2,2;" x1="505.186" x2="970.8345" y1="373.1719" y2="373.1719"/><text fill="#000000" font-family="Helvetica" font-size="10" x="517.186" y="357.1729">(04)</text><text fill="#000000" font-family="Helvetica" font-size="10" x="541.7134" y="345.5322">200 OK</text><text fill="#000000" font-family="Helvetica" font-size="10" x="541.7134" y="357.1729">{id_token (JWE: ECDH-ES/A256GCM, signiert ES256),</text><text fill="#000000" font-family="Helvetica" font-size="10" x="541.7134" y="368.8135">access_token, token_type=Bearer, expires_in}</text><line style="stroke:#181818;stroke-width:1;" x1="500.186" x2="542.186" y1="410.4531" y2="410.4531"/><line style="stroke:#181818;stroke-width:1;" x1="542.186" x2="542.186" y1="410.4531" y2="423.4531"/><line style="stroke:#181818;stroke-width:1;" x1="501.186" x2="542.186" y1="423.4531" y2="423.4531"/><polygon fill="#181818" points="511.186,419.4531,501.186,423.4531,511.186,427.4531,507.186,423.4531" style="stroke:#181818;stroke-width:1;stroke-linejoin:miter;stroke-miterlimit:10;"/><text fill="#000000" font-family="Helvetica" font-size="10" x="507.186" y="400.2744">(05)</text><text fill="#000000" font-family="Helvetica" font-size="10" x="531.7134" y="394.4541">Entschl&#252;ssele ID Token, verifiziere Signatur (kid/x5c),</text><text fill="#000000" font-family="Helvetica" font-size="10" x="531.7134" y="406.0947">pr&#252;fe iss/aud/nonce/exp, extrahiere Claims (KVNR, acr, amr, ...)</text><rect fill="#EEEEEE" height="3" style="stroke:#EEEEEE;stroke-width:1;" width="1315.4741" x="10" y="450.2734"/><line style="stroke:#000000;stroke-width:1;" x1="10" x2="1325.4741" y1="450.2734" y2="450.2734"/><line style="stroke:#000000;stroke-width:1;" x1="10" x2="1325.4741" y1="453.2734" y2="453.2734"/><rect fill="#EEEEEE" height="19.6406" style="stroke:#000000;stroke-width:2;" width="388.8975" x="473.2883" y="441.4531"/><text fill="#000000" font-family="Helvetica" font-size="10" font-weight="700" x="479.2883" y="454.7354">&#196;u&#223;erer Flow: Policy-Entscheidung &amp; Ausstellung der ZETA Token</text><line style="stroke:#181818;stroke-width:1;" x1="500.186" x2="542.186" y1="500.375" y2="500.375"/><line style="stroke:#181818;stroke-width:1;" x1="542.186" x2="542.186" y1="500.375" y2="513.375"/><line style="stroke:#181818;stroke-width:1;" x1="501.186" x2="542.186" y1="513.375" y2="513.375"/><polygon fill="#181818" points="511.186,509.375,501.186,513.375,511.186,517.375,507.186,513.375" style="stroke:#181818;stroke-width:1;stroke-linejoin:miter;stroke-miterlimit:10;"/><text fill="#000000" font-family="Helvetica" font-size="10" x="507.186" y="490.1963">(06)</text><text fill="#000000" font-family="Helvetica" font-size="10" x="531.7134" y="484.376">Erzeuge Policy Engine Input</text><text fill="#000000" font-family="Helvetica" font-size="10" x="531.7134" y="496.0166">(Identit&#228;ts-Claims, Posture, Kontext)</text><polygon fill="#181818" points="847.7192,535.0156,857.7192,539.0156,847.7192,543.0156,851.7192,539.0156" style="stroke:#181818;stroke-width:1;stroke-linejoin:miter;stroke-miterlimit:10;"/><line style="stroke:#181818;stroke-width:1;" x1="500.186" x2="853.7192" y1="539.0156" y2="539.0156"/><text fill="#000000" font-family="Helvetica" font-size="10" x="507.186" y="534.6572">(07)</text><text fill="#000000" font-family="Helvetica" font-size="10" x="531.7134" y="534.6572">POST /v1/data/authz {Policy Engine Input}</text><polygon fill="#181818" points="511.186,560.6563,501.186,564.6563,511.186,568.6563,507.186,564.6563" style="stroke:#181818;stroke-width:1;stroke-linejoin:miter;stroke-miterlimit:10;"/><line style="stroke:#181818;stroke-width:1;stroke-dasharray:2,2;" x1="505.186" x2="858.7192" y1="564.6563" y2="564.6563"/><text fill="#000000" font-family="Helvetica" font-size="10" x="517.186" y="560.2979">(08)</text><text fill="#000000" font-family="Helvetica" font-size="10" x="541.7134" y="560.2979">Policy Decision</text><path d="M89.2671,576.6563 L149.2231,576.6563 L149.2231,580.2969 L139.2231,590.2969 L89.2671,590.2969 L89.2671,576.6563" fill="#EEEEEE" style="stroke:#000000;stroke-width:1.5;"/><rect fill="none" height="364.8906" style="stroke:#000000;stroke-width:1.5;" width="791.4521" x="89.2671" y="576.6563"/><text fill="#000000" font-family="Helvetica" font-size="10" font-weight="700" x="104.2671" y="586.9385">alt</text><text fill="#000000" font-family="Helvetica" font-size="10" font-weight="700" x="164.2231" y="587.9385">[Policy Decision allow]</text><line style="stroke:#000000;stroke-width:1;stroke-dasharray:2,2;" x1="89.2671" x2="880.7192" y1="897.2656" y2="897.2656"/><text fill="#000000" font-family="Helvetica" font-size="10" font-weight="700" x="94.2671" y="908.5479">[Policy Decision deny]</text><line style="stroke:#181818;stroke-width:1;" x1="500.186" x2="542.186" y1="617.9375" y2="617.9375"/><line style="stroke:#181818;stroke-width:1;" x1="542.186" x2="542.186" y1="617.9375" y2="630.9375"/><line style="stroke:#181818;stroke-width:1;" x1="501.186" x2="542.186" y1="630.9375" y2="630.9375"/><polygon fill="#181818" points="511.186,626.9375,501.186,630.9375,511.186,634.9375,507.186,630.9375" style="stroke:#181818;stroke-width:1;stroke-linejoin:miter;stroke-miterlimit:10;"/><text fill="#000000" font-family="Helvetica" font-size="10" x="507.186" y="613.5791">(09)</text><text fill="#000000" font-family="Helvetica" font-size="10" x="531.7134" y="613.5791">Erzeuge AUTHORIZATION_CODE (AS)</text><polygon fill="#181818" points="121.2671,664.2188,111.2671,668.2188,121.2671,672.2188,117.2671,668.2188" style="stroke:#181818;stroke-width:1;stroke-linejoin:miter;stroke-miterlimit:10;"/><line style="stroke:#181818;stroke-width:1;stroke-dasharray:2,2;" x1="115.2671" x2="489.186" y1="668.2188" y2="668.2188"/><text fill="#000000" font-family="Helvetica" font-size="10" x="127.2671" y="658.04">(10)</text><text fill="#000000" font-family="Helvetica" font-size="10" x="151.7944" y="652.2197">302 Found</text><text fill="#000000" font-family="Helvetica" font-size="10" x="151.7944" y="663.8604">Location: &lt;redirect_uri&gt;?code=AUTH_CODE_AS&amp;state=state_app</text><line style="stroke:#181818;stroke-width:1;" x1="110.2671" x2="152.2671" y1="705.5" y2="705.5"/><line style="stroke:#181818;stroke-width:1;" x1="152.2671" x2="152.2671" y1="705.5" y2="718.5"/><line style="stroke:#181818;stroke-width:1;" x1="111.2671" x2="152.2671" y1="718.5" y2="718.5"/><polygon fill="#181818" points="121.2671,714.5,111.2671,718.5,121.2671,722.5,117.2671,718.5" style="stroke:#181818;stroke-width:1;stroke-linejoin:miter;stroke-miterlimit:10;"/><text fill="#000000" font-family="Helvetica" font-size="10" x="117.2671" y="695.3213">(11)</text><text fill="#000000" font-family="Helvetica" font-size="10" x="141.7944" y="689.501">Erzeuge DPoP Key Pair (PrK.DPoP.Sig, PuK.DPoP.Sig)</text><text fill="#000000" font-family="Helvetica" font-size="10" x="141.7944" y="701.1416">und DPoP Proof</text><polygon fill="#181818" points="483.186,775.0625,493.186,779.0625,483.186,783.0625,487.186,779.0625" style="stroke:#181818;stroke-width:1;stroke-linejoin:miter;stroke-miterlimit:10;"/><line style="stroke:#181818;stroke-width:1;" x1="110.2671" x2="489.186" y1="779.0625" y2="779.0625"/><text fill="#000000" font-family="Helvetica" font-size="10" x="117.2671" y="757.2432">(12)</text><text fill="#000000" font-family="Helvetica" font-size="10" x="141.7944" y="739.7822">POST /token  dpop: &lt;dpop_proof&gt;</text><text fill="#000000" font-family="Helvetica" font-size="10" x="141.7944" y="751.4229">{grant_type=authorization_code, code=AUTH_CODE_AS,</text><text fill="#000000" font-family="Helvetica" font-size="10" x="141.7944" y="763.0635">code_verifier=code_verifier_app, client_id, redirect_uri,</text><text fill="#000000" font-family="Helvetica" font-size="10" x="141.7944" y="774.7041">client_assertion (JWT, PrK.Client.Sig signiert)}</text><line style="stroke:#181818;stroke-width:1;" x1="505.186" x2="547.186" y1="816.3438" y2="816.3438"/><line style="stroke:#181818;stroke-width:1;" x1="547.186" x2="547.186" y1="816.3438" y2="829.3438"/><line style="stroke:#181818;stroke-width:1;" x1="506.186" x2="547.186" y1="829.3438" y2="829.3438"/><polygon fill="#181818" points="516.186,825.3438,506.186,829.3438,516.186,833.3438,512.186,829.3438" style="stroke:#181818;stroke-width:1;stroke-linejoin:miter;stroke-miterlimit:10;"/><text fill="#000000" font-family="Helvetica" font-size="10" x="512.186" y="806.165">(13)</text><text fill="#000000" font-family="Helvetica" font-size="10" x="536.7134" y="800.3447">Verifiziere code_verifier_app gegen code_challenge_app (S256),</text><text fill="#000000" font-family="Helvetica" font-size="10" x="536.7134" y="811.9854">DPoP Proof und Client Assertion (Key Binding aus DCR)</text><polygon fill="#181818" points="121.2671,874.2656,111.2671,878.2656,121.2671,882.2656,117.2671,878.2656" style="stroke:#181818;stroke-width:1;stroke-linejoin:miter;stroke-miterlimit:10;"/><line style="stroke:#181818;stroke-width:1;stroke-dasharray:2,2;" x1="115.2671" x2="494.186" y1="878.2656" y2="878.2656"/><text fill="#000000" font-family="Helvetica" font-size="10" x="127.2671" y="862.2666">(14)</text><text fill="#000000" font-family="Helvetica" font-size="10" x="151.7944" y="850.626">200 OK</text><text fill="#000000" font-family="Helvetica" font-size="10" x="151.7944" y="862.2666">{access_token (DPoP-gebunden), refresh_token,</text><text fill="#000000" font-family="Helvetica" font-size="10" x="151.7944" y="873.9072">token_type=DPoP, expires_in}</text><polygon fill="#181818" points="121.2671,929.5469,111.2671,933.5469,121.2671,937.5469,117.2671,933.5469" style="stroke:#181818;stroke-width:1;stroke-linejoin:miter;stroke-miterlimit:10;"/><line style="stroke:#181818;stroke-width:1;stroke-dasharray:2,2;" x1="115.2671" x2="489.186" y1="933.5469" y2="933.5469"/><text fill="#000000" font-family="Helvetica" font-size="10" x="127.2671" y="929.1885">(15)</text><text fill="#000000" font-family="Helvetica" font-size="10" x="151.7944" y="929.1885">403 Forbidden {"reasons": ["..."]}</text><path d="M15,960.5469 L15,1004.5469 L585,1004.5469 L585,970.5469 L575,960.5469 L15,960.5469" fill="#FEFFDD" style="stroke:#181818;stroke-width:0.5;"/><path d="M575,960.5469 L575,970.5469 L585,970.5469 L575,960.5469" fill="#FEFFDD" style="stroke:#181818;stroke-width:0.5;"/><text fill="#000000" font-family="Helvetica" font-size="10" x="21" y="974.8291">Der ZETA Client besitzt nun ein DPoP-gebundenes Access Token und kann auf den Resource Server zugreifen</text><text fill="#000000" font-family="Helvetica" font-size="10" x="21" y="986.4697">(siehe Abb-ZETA-Zugriff-auf-RS-mit-ASL bzw. Abb-ZETA-Zugriff-auf-RS-ohne-ASL).</text><text fill="#000000" font-family="Helvetica" font-size="10" x="21" y="998.1104">Die Session-Erneuerung erfolgt &#252;ber Abb-ZETA-Token-Exchange-mit-Refresh-Token.</text><?plantuml-src bLRTRk965BxtKvnIQGiAXZJRxGLQKZbWiZJP1M4sbRPKQB0FC8ePMpFZ9B3ANT-ZDts6NkqTBzOpO_ExfAlUX8ndpjztllFDVCT566SHGgrMJxD5xCPicMIwff-qupW_m11v774sasonW7Ahqe1XSe_2lS9LDeC9yWKelDU9P34AwBRxLUWdCG-NhY-q2kV8eqpC81CHU9bI6kFOh2EKyCaVUhct8Wuy90AyoSGrEswlsswvNgRdA3IVyXL7IPRk8fdm6ANRYZbjACUP94zGUc-_WfUc9MZxTzsMFsxrRdi31o1bKlEGfqneo8s0AIZPwFcw16_Vhb2poqi7AKzoM7Zrn8IZfbI7NRYedKERJYiwtX_qxhfjVx2DOKzRZzSPar79rZQ-_kWDsjipXvcOmWARIB_T7mcpJ2HVCSq9Wm3b0ygHA1iCO83naXDcVJ9VLlQIFVRPwtixZtaNm1SpBl30Q5FZOQt3hjjP_qDziIcKu7lVwrnqEaS0KeDjY63JSsa-KQOvAtmHfPcurvNIpdkEyTcP8nADa51X1UnLOzg0zeOAHNFcZ1gKgIFcNLM8CyIEZyDtlK7tapVizZuGj6qVokIb0YZdBDOeQexJR49N29JajnCdZzzaB3IRcop1lSmxStRMW6j_26ybHbnYgCUPv9TG7XHBWcXRh2NpYKwDH2U9P_dsw_CBTy_sP84ZyJbC8coQ6crfOpjEIZEDJVjtpDIpapE74gLTasQ_5moXhasDK5uCRmComNWwLdmcC1hhM8r3MzoOaQM9GX5ffPSfDja-xyOcV1LE934IvkEOUaUJYB9viAAio2WFmQCgx4Fsx1Y0ysGfLRd-CaMW78lnNQ4qittFD8N8_PavHpWE03ESKNtsSqYTfjRD31nG3YxU_5mXQouUMCmZQ_qrI_8qDjrrtGPSd9z3xuRGu8HH3jwll_aDy5ljTwuVr3toUzrwJs0IZkHLWxy9nS8GbSgjgc1_SZIla17hge1FAI6WnbpijSl-G_wjBCRhBugwX8HBJiygx9SVK4ocCmdbUnxLdzw49coQeyULghCigej4X5YdK2QUbcnkBLinumk2vURkmw0ABAHis8B-r6grYXsDzP_P-g-zuJYbrg_-Gwljj7nLb5nXDaCu41sQmZJJf0tTo4YuNl-jbPldPou9HVKHssuIeId_oiudoTYErmy_rYEcMTqGTGMVJmHuTepk7VIsEDN6a2lYjUEGD1n_129HycWrzALgJecD5rJsRSWePtB3Z3Xq4hheHk8s2Ur0DOxquvUZqVA2LmVJdQRMzqwBDhut6RNxIHzkS4aAmuaSVNbJCvzgn1U2DDkjQCpDbMlFzsMIJ8ySRqLkNpqWIfEKSZO_uzHONVvljV22Rub5chwe5iQqa2gQ3ccLagPoIBLHfNdsfhhjJ5QUJpRmxcKbITCNf8GsjbgoWyq-N0hOl5rEfWLNN4H6x8sKjrk3qxGuK9fztO2o2UBES48HK5GC45FIZ7aXAoEnfolcwA6gOApmAqQJd-KBvFpf_3MHKqvuP6xHpoM9J2L2bHhmUucaeVJ7ixcmdHDtjFL5Ne-lwGaghbSQY6U0NC11EQZ0iyKMcc5Gl6V2t7jJUuyFK2MP3B5uwW1TpHBvb9w206N5SOwxX-0dskFJgKksxY1m5roxNd0BazLZxSL3oLoWELMfcTIvYQEKlRIbmCo-9Ed9CBNty_hBX3BOUYfUCa_43IA63JV8MvDlrUpJnW3b_0i0?></g></svg>