<svg xmlns="http://www.w3.org/2000/svg" xmlns:xlink="http://www.w3.org/1999/xlink" contentStyleType="text/css" data-diagram-type="SEQUENCE" height="1101px" preserveAspectRatio="none" style="width:1211px;height:1101px;background:#FFFFFF;" version="1.1" viewBox="0 0 1211 1101" width="1211px" zoomAndPan="magnify"><?plantuml 1.2026.6?><defs/><g><rect fill="#FEFCFF" height="1075.5469" style="stroke:#181818;stroke-width:0.5;" width="139.0537" x="169.3345" y="11"/><text fill="#000000" font-family="Helvetica" font-size="10" font-weight="700" x="181.3345" y="20.2822">mobile Apple Device</text><rect fill="#E6E6FA" height="1058.9063" style="stroke:#181818;stroke-width:0.5;" width="139.0537" x="169.3345" y="27.6406"/><text fill="#000000" font-family="Helvetica" font-size="10" font-weight="700" x="227.8335" y="36.9229">App</text><rect fill="#EDFDEC" height="1075.5469" style="stroke:#181818;stroke-width:0.5;" width="147.7842" x="636.0015" y="11"/><text fill="#000000" font-family="Helvetica" font-size="10" font-weight="700" x="648.0015" y="20.2822">Anbieter TI 2.0 Dienst</text><rect fill="#FFF3E5" height="1058.9063" style="stroke:#181818;stroke-width:0.5;" width="147.7842" x="636.0015" y="27.6406"/><text fill="#000000" font-family="Helvetica" font-size="10" font-weight="700" x="676.749" y="36.9229">ZETA Guard</text><g><title>Nutzer</title><rect fill="#000000" fill-opacity="0.00000" height="893.9844" width="8" x="26.126" y="114.9219"/><line style="stroke:#000000;stroke-width:0.5;stroke-dasharray:5,5;" x1="29.626" x2="29.626" y1="114.9219" y2="1008.9063"/></g><g><title>ZETA Client</title><rect fill="#000000" fill-opacity="0.00000" height="893.9844" width="8" x="235.3613" y="114.9219"/><line style="stroke:#000000;stroke-width:0.5;stroke-dasharray:5,5;" x1="238.8613" x2="238.8613" y1="114.9219" y2="1008.9063"/></g><g><title/><rect fill="#FFFFFF" height="885.9844" style="stroke:#181818;stroke-width:1;" width="10" x="233.8613" y="122.9219"/></g><g><title>PDP</title><rect fill="#000000" fill-opacity="0.00000" height="893.9844" width="8" x="706.3936" y="114.9219"/><line style="stroke:#000000;stroke-width:0.5;stroke-dasharray:5,5;" x1="709.8936" x2="709.8936" y1="114.9219" y2="1008.9063"/></g><g><title/><rect fill="#FFFFFF" height="335.25" style="stroke:#181818;stroke-width:1;" width="10" x="704.8936" y="179.8438"/></g><g><title/><rect fill="#FFFFFF" height="412.8906" style="stroke:#181818;stroke-width:1;" width="10" x="704.8936" y="578.0156"/></g><text fill="#000000" font-family="Helvetica" font-size="10" x="10" y="112.5635">Nutzer</text><ellipse cx="29.626" cy="51.7813" fill="#E2E2F0" rx="8" ry="8" style="stroke:#181818;stroke-width:0.5;"/><path d="M29.626,59.7813 L29.626,86.7813 M16.626,67.7813 L42.626,67.7813 M29.626,86.7813 L16.626,101.7813 M29.626,86.7813 L42.626,101.7813" fill="none" style="stroke:#181818;stroke-width:0.5;"/><rect fill="#FFE6CC" height="25.6406" rx="2.5" ry="2.5" style="stroke:#D79B00;stroke-width:0.5;" width="72.2471" x="202.7378" y="88.2813"/><text fill="#000000" font-family="Helvetica" font-size="10" x="209.7378" y="104.5635">ZETA Client</text><rect fill="#FFE6CC" height="37.2813" rx="2.5" ry="2.5" style="stroke:#D79B00;stroke-width:0.5;" width="116.9492" x="651.4189" y="76.6406"/><text fill="#000000" font-family="Helvetica" font-size="10" x="700.0132" y="92.9229">PDP</text><text fill="#000000" font-family="Helvetica" font-size="10" x="658.4189" y="104.5635">Authorization Server</text><text fill="#000000" font-family="Helvetica" font-size="10" x="10" y="1078.1885">Nutzer</text><ellipse cx="29.626" cy="1017.4063" fill="#E2E2F0" rx="8" ry="8" style="stroke:#181818;stroke-width:0.5;"/><path d="M29.626,1025.4063 L29.626,1052.4063 M16.626,1033.4063 L42.626,1033.4063 M29.626,1052.4063 L16.626,1067.4063 M29.626,1052.4063 L42.626,1067.4063" fill="none" style="stroke:#181818;stroke-width:0.5;"/><rect fill="#FFE6CC" height="25.6406" rx="2.5" ry="2.5" style="stroke:#D79B00;stroke-width:0.5;" width="72.2471" x="202.7378" y="1008.9063"/><text fill="#000000" font-family="Helvetica" font-size="10" x="209.7378" y="1025.1885">ZETA Client</text><rect fill="#FFE6CC" height="37.2813" rx="2.5" ry="2.5" style="stroke:#D79B00;stroke-width:0.5;" width="116.9492" x="651.4189" y="1008.9063"/><text fill="#000000" font-family="Helvetica" font-size="10" x="700.0132" y="1025.1885">PDP</text><text fill="#000000" font-family="Helvetica" font-size="10" x="658.4189" y="1036.8291">Authorization Server</text><path d="M13.626,126.9219 L73.582,126.9219 L73.582,130.5625 L63.582,140.5625 L13.626,140.5625 L13.626,126.9219" fill="#EEEEEE" style="stroke:#000000;stroke-width:1.5;"/><rect fill="none" height="777.4219" style="stroke:#000000;stroke-width:1.5;" width="1178.3262" x="13.626" y="126.9219"/><text fill="#000000" font-family="Helvetica" font-size="10" font-weight="700" x="28.626" y="137.2041">alt</text><text fill="#000000" font-family="Helvetica" font-size="10" font-weight="700" x="88.582" y="138.2041">[Kein ZETA Attestation Token vorhanden]</text><line style="stroke:#000000;stroke-width:1;stroke-dasharray:2,2;" x1="13.626" x2="1191.9521" y1="697.5781" y2="697.5781"/><text fill="#000000" font-family="Helvetica" font-size="10" font-weight="700" x="18.626" y="708.8604">[ZETA Attestation Token vorhanden (Fast-Path)]</text><polygon fill="#181818" points="692.8936,175.8438,702.8936,179.8438,692.8936,183.8438,696.8936,179.8438" style="stroke:#181818;stroke-width:1;stroke-linejoin:miter;stroke-miterlimit:10;"/><line style="stroke:#181818;stroke-width:1;" x1="243.8613" x2="698.8936" y1="179.8438" y2="179.8438"/><text fill="#000000" font-family="Helvetica" font-size="10" x="250.8613" y="169.665">(01)</text><text fill="#000000" font-family="Helvetica" font-size="10" x="275.3887" y="163.8447">POST /register</text><text fill="#000000" font-family="Helvetica" font-size="10" x="275.3887" y="175.4854">{attestation_type="apple", Apple_Attestation_Object, PuK.Client.Sig, redirect_uris}</text><line style="stroke:#181818;stroke-width:1;" x1="714.8936" x2="756.8936" y1="205.4844" y2="205.4844"/><line style="stroke:#181818;stroke-width:1;" x1="756.8936" x2="756.8936" y1="205.4844" y2="218.4844"/><line style="stroke:#181818;stroke-width:1;" x1="715.8936" x2="756.8936" y1="218.4844" y2="218.4844"/><polygon fill="#181818" points="725.8936,214.4844,715.8936,218.4844,725.8936,222.4844,721.8936,218.4844" style="stroke:#181818;stroke-width:1;stroke-linejoin:miter;stroke-miterlimit:10;"/><text fill="#000000" font-family="Helvetica" font-size="10" x="721.8936" y="201.126">(02)</text><text fill="#000000" font-family="Helvetica" font-size="10" x="746.4209" y="201.126">Validiere Apple_Attestation_Object</text><path d="M719.8936,231.4844 L719.8936,264.4844 L1170.8936,264.4844 L1170.8936,241.4844 L1160.8936,231.4844 L719.8936,231.4844" fill="#FEFFDD" style="stroke:#181818;stroke-width:0.5;"/><path d="M1160.8936,231.4844 L1160.8936,241.4844 L1170.8936,241.4844 L1160.8936,231.4844" fill="#FEFFDD" style="stroke:#181818;stroke-width:0.5;"/><text fill="#000000" font-family="Helvetica" font-size="10" x="725.8936" y="245.7666">AuthS verifiziert Apple App Attest Root CA. Extrahiert Hash(PuK.Client.Sig) aus Objekt</text><text fill="#000000" font-family="Helvetica" font-size="10" x="725.8936" y="257.4072">und vergleicht ihn mit dem Payload.</text><path d="M719.8936,274.7656 L719.8936,377.7656 L1164.8936,377.7656 L1164.8936,284.7656 L1154.8936,274.7656 L719.8936,274.7656" fill="#FEFFDD" style="stroke:#181818;stroke-width:0.5;"/><path d="M1154.8936,274.7656 L1154.8936,284.7656 L1164.8936,284.7656 L1154.8936,274.7656" fill="#FEFFDD" style="stroke:#181818;stroke-width:0.5;"/><text fill="#000000" font-family="Helvetica" font-size="10" x="725.8936" y="289.0479">Es werden zwei redirect_uris je App registriert (RFC 8252, claimed-HTTPS</text><text fill="#000000" font-family="Helvetica" font-size="10" x="725.8936" y="300.6885">Universal-/App-Links auf einer vom App-Hersteller kontrollierten Domain):</text><text fill="#000000" font-family="Helvetica" font-size="10" x="725.8936" y="312.3291">- https://&lt;App-FQDN&gt;/cb/&lt;app&gt;/as = oidc_redirect_uri</text><text fill="#000000" font-family="Helvetica" font-size="10" x="732.251" y="323.9697">(SekIDP Auth Code Flow, redirection_endpoint des AuthS, nicht /token)</text><text fill="#000000" font-family="Helvetica" font-size="10" x="725.8936" y="335.6104">- https://&lt;App-FQDN&gt;/cb/&lt;app&gt;/app = redirect_uri_app</text><text fill="#000000" font-family="Helvetica" font-size="10" x="732.251" y="347.251">(ZETA Guard Auth Code Flow, /token-Endpunkt des AuthS)</text><text fill="#000000" font-family="Helvetica" font-size="10" x="725.8936" y="358.8916">Beide Callbacks enden &#252;ber denselben App-Link/Universal-Link in der App.</text><text fill="#000000" font-family="Helvetica" font-size="10" x="725.8936" y="370.5322">Der ZETA Client unterscheidet den zu nutzenden AuthS-Endpunkt anhand des Pfads.</text><line style="stroke:#181818;stroke-width:1;" x1="714.8936" x2="756.8936" y1="400.5313" y2="400.5313"/><line style="stroke:#181818;stroke-width:1;" x1="756.8936" x2="756.8936" y1="400.5313" y2="413.5313"/><line style="stroke:#181818;stroke-width:1;" x1="715.8936" x2="756.8936" y1="413.5313" y2="413.5313"/><polygon fill="#181818" points="725.8936,409.5313,715.8936,413.5313,725.8936,417.5313,721.8936,413.5313" style="stroke:#181818;stroke-width:1;stroke-linejoin:miter;stroke-miterlimit:10;"/><text fill="#000000" font-family="Helvetica" font-size="10" x="721.8936" y="396.1729">(03)</text><text fill="#000000" font-family="Helvetica" font-size="10" x="746.4209" y="396.1729">Store Client Placeholder (state: pending_user_binding)</text><line style="stroke:#181818;stroke-width:1;" x1="714.8936" x2="756.8936" y1="450.8125" y2="450.8125"/><line style="stroke:#181818;stroke-width:1;" x1="756.8936" x2="756.8936" y1="450.8125" y2="463.8125"/><line style="stroke:#181818;stroke-width:1;" x1="715.8936" x2="756.8936" y1="463.8125" y2="463.8125"/><polygon fill="#181818" points="725.8936,459.8125,715.8936,463.8125,725.8936,467.8125,721.8936,463.8125" style="stroke:#181818;stroke-width:1;stroke-linejoin:miter;stroke-miterlimit:10;"/><text fill="#000000" font-family="Helvetica" font-size="10" x="721.8936" y="440.6338">(04)</text><text fill="#000000" font-family="Helvetica" font-size="10" x="746.4209" y="434.8135">Generiere OTP &amp; transaction_id</text><text fill="#000000" font-family="Helvetica" font-size="10" x="746.4209" y="446.4541">Speichere Request im tempor&#228;ren Cache</text><polygon fill="#181818" points="40.626,485.4531,30.626,489.4531,40.626,493.4531,36.626,489.4531" style="stroke:#181818;stroke-width:1;stroke-linejoin:miter;stroke-miterlimit:10;"/><line style="stroke:#181818;stroke-width:1;" x1="34.626" x2="703.8936" y1="489.4531" y2="489.4531"/><text fill="#000000" font-family="Helvetica" font-size="10" x="46.626" y="485.0947">(05)</text><text fill="#000000" font-family="Helvetica" font-size="10" x="71.1533" y="485.0947">E-Mail mit OTP-Best&#228;tigungscode (Out-of-Band)</text><polygon fill="#181818" points="254.8613,511.0938,244.8613,515.0938,254.8613,519.0938,250.8613,515.0938" style="stroke:#181818;stroke-width:1;stroke-linejoin:miter;stroke-miterlimit:10;"/><line style="stroke:#181818;stroke-width:1;stroke-dasharray:2,2;" x1="248.8613" x2="703.8936" y1="515.0938" y2="515.0938"/><text fill="#000000" font-family="Helvetica" font-size="10" x="260.8613" y="510.7354">(06)</text><text fill="#000000" font-family="Helvetica" font-size="10" x="285.3887" y="510.7354">202 Accepted {transaction_id, message="OTP sent"}</text><polygon fill="#181818" points="221.8613,536.7344,231.8613,540.7344,221.8613,544.7344,225.8613,540.7344" style="stroke:#181818;stroke-width:1;stroke-linejoin:miter;stroke-miterlimit:10;"/><line style="stroke:#181818;stroke-width:1;" x1="29.626" x2="227.8613" y1="540.7344" y2="540.7344"/><text fill="#000000" font-family="Helvetica" font-size="10" x="36.626" y="536.376">(07)</text><text fill="#000000" font-family="Helvetica" font-size="10" x="61.1533" y="536.376">Gibt OTP-Best&#228;tigungscode ein</text><polygon fill="#181818" points="692.8936,574.0156,702.8936,578.0156,692.8936,582.0156,696.8936,578.0156" style="stroke:#181818;stroke-width:1;stroke-linejoin:miter;stroke-miterlimit:10;"/><line style="stroke:#181818;stroke-width:1;" x1="243.8613" x2="698.8936" y1="578.0156" y2="578.0156"/><text fill="#000000" font-family="Helvetica" font-size="10" x="250.8613" y="567.8369">(08)</text><text fill="#000000" font-family="Helvetica" font-size="10" x="275.3887" y="562.0166">POST /register/verify</text><text fill="#000000" font-family="Helvetica" font-size="10" x="275.3887" y="573.6572">{transaction_id, code}</text><line style="stroke:#181818;stroke-width:1;" x1="714.8936" x2="756.8936" y1="603.6563" y2="603.6563"/><line style="stroke:#181818;stroke-width:1;" x1="756.8936" x2="756.8936" y1="603.6563" y2="616.6563"/><line style="stroke:#181818;stroke-width:1;" x1="715.8936" x2="756.8936" y1="616.6563" y2="616.6563"/><polygon fill="#181818" points="725.8936,612.6563,715.8936,616.6563,725.8936,620.6563,721.8936,616.6563" style="stroke:#181818;stroke-width:1;stroke-linejoin:miter;stroke-miterlimit:10;"/><text fill="#000000" font-family="Helvetica" font-size="10" x="721.8936" y="599.2979">(09)</text><text fill="#000000" font-family="Helvetica" font-size="10" x="746.4209" y="599.2979">Verifiziere OTP-Code gegen Cache</text><line style="stroke:#181818;stroke-width:1;" x1="714.8936" x2="756.8936" y1="665.5781" y2="665.5781"/><line style="stroke:#181818;stroke-width:1;" x1="756.8936" x2="756.8936" y1="665.5781" y2="678.5781"/><line style="stroke:#181818;stroke-width:1;" x1="715.8936" x2="756.8936" y1="678.5781" y2="678.5781"/><polygon fill="#181818" points="725.8936,674.5781,715.8936,678.5781,725.8936,682.5781,721.8936,678.5781" style="stroke:#181818;stroke-width:1;stroke-linejoin:miter;stroke-miterlimit:10;"/><text fill="#000000" font-family="Helvetica" font-size="10" x="721.8936" y="649.5791">(10)</text><text fill="#000000" font-family="Helvetica" font-size="10" x="746.4209" y="637.9385">Stelle ZETA Guard Attestation Token aus</text><text fill="#000000" font-family="Helvetica" font-size="10" x="746.4209" y="649.5791">(attestation_type="apple", signiert, cnf=PuK.AK.Sig,</text><text fill="#000000" font-family="Helvetica" font-size="10" x="746.4209" y="661.2197">enth&#228;lt die registrierten redirect_uris)</text><polygon fill="#181818" points="692.8936,764.7813,702.8936,768.7813,692.8936,772.7813,696.8936,768.7813" style="stroke:#181818;stroke-width:1;stroke-linejoin:miter;stroke-miterlimit:10;"/><line style="stroke:#181818;stroke-width:1;" x1="243.8613" x2="698.8936" y1="768.7813" y2="768.7813"/><text fill="#000000" font-family="Helvetica" font-size="10" x="250.8613" y="746.9619">(11)</text><text fill="#000000" font-family="Helvetica" font-size="10" x="275.3887" y="729.501">POST /register</text><text fill="#000000" font-family="Helvetica" font-size="10" x="275.3887" y="741.1416">{attestation_type="zeta_attestation_token",</text><text fill="#000000" font-family="Helvetica" font-size="10" x="275.3887" y="752.7822">zeta_guard_attestation_token, PuK.Client.Sig,</text><text fill="#000000" font-family="Helvetica" font-size="10" x="275.3887" y="764.4229">Besitznachweis (Signatur/Assertion)}</text><line style="stroke:#181818;stroke-width:1;" x1="714.8936" x2="756.8936" y1="794.4219" y2="794.4219"/><line style="stroke:#181818;stroke-width:1;" x1="756.8936" x2="756.8936" y1="794.4219" y2="807.4219"/><line style="stroke:#181818;stroke-width:1;" x1="715.8936" x2="756.8936" y1="807.4219" y2="807.4219"/><polygon fill="#181818" points="725.8936,803.4219,715.8936,807.4219,725.8936,811.4219,721.8936,807.4219" style="stroke:#181818;stroke-width:1;stroke-linejoin:miter;stroke-miterlimit:10;"/><text fill="#000000" font-family="Helvetica" font-size="10" x="721.8936" y="790.0635">(12)</text><text fill="#000000" font-family="Helvetica" font-size="10" x="746.4209" y="790.0635">Pr&#252;fe Token-Signatur &amp; Vertrauensstellung</text><line style="stroke:#181818;stroke-width:1;" x1="714.8936" x2="756.8936" y1="833.0625" y2="833.0625"/><line style="stroke:#181818;stroke-width:1;" x1="756.8936" x2="756.8936" y1="833.0625" y2="846.0625"/><line style="stroke:#181818;stroke-width:1;" x1="715.8936" x2="756.8936" y1="846.0625" y2="846.0625"/><polygon fill="#181818" points="725.8936,842.0625,715.8936,846.0625,725.8936,850.0625,721.8936,846.0625" style="stroke:#181818;stroke-width:1;stroke-linejoin:miter;stroke-miterlimit:10;"/><text fill="#000000" font-family="Helvetica" font-size="10" x="721.8936" y="828.7041">(13)</text><text fill="#000000" font-family="Helvetica" font-size="10" x="746.4209" y="828.7041">Extrahiere PuK.AK.Sig aus Token, verifiziere Besitznachweis</text><line style="stroke:#181818;stroke-width:1;" x1="714.8936" x2="756.8936" y1="883.3438" y2="883.3438"/><line style="stroke:#181818;stroke-width:1;" x1="756.8936" x2="756.8936" y1="883.3438" y2="896.3438"/><line style="stroke:#181818;stroke-width:1;" x1="715.8936" x2="756.8936" y1="896.3438" y2="896.3438"/><polygon fill="#181818" points="725.8936,892.3438,715.8936,896.3438,725.8936,900.3438,721.8936,896.3438" style="stroke:#181818;stroke-width:1;stroke-linejoin:miter;stroke-miterlimit:10;"/><text fill="#000000" font-family="Helvetica" font-size="10" x="721.8936" y="873.165">(14)</text><text fill="#000000" font-family="Helvetica" font-size="10" x="746.4209" y="867.3447">&#220;bernimm registrierte redirect_uris aus dem Token</text><text fill="#000000" font-family="Helvetica" font-size="10" x="746.4209" y="878.9854">(kein erneutes Senden im Fast-Path)</text><path d="M20.7915,923.3438 L20.7915,956.3438 L927.7915,956.3438 L927.7915,933.3438 L917.7915,923.3438 L20.7915,923.3438" fill="#FEFFDD" style="stroke:#181818;stroke-width:0.5;"/><path d="M917.7915,923.3438 L917.7915,933.3438 L927.7915,933.3438 L917.7915,923.3438" fill="#FEFFDD" style="stroke:#181818;stroke-width:0.5;"/><text fill="#000000" font-family="Helvetica" font-size="10" x="26.7915" y="937.626">Der zeta_guard_attestation_token zertifiziert die erfolgreiche Apple App Attest Attestierung, ist an PuK.AK.Sig gebunden (cnf) und enth&#228;lt die registrierten</text><text fill="#000000" font-family="Helvetica" font-size="10" x="26.7915" y="949.2666">redirect_uris. Er kann bei einer erneuten Registrierung im Fast-Path vorgelegt werden, sodass Hardware-Attestierung und redirect_uris nicht erneut &#252;bertragen werden m&#252;ssen.</text><polygon fill="#181818" points="254.8613,986.9063,244.8613,990.9063,254.8613,994.9063,250.8613,990.9063" style="stroke:#181818;stroke-width:1;stroke-linejoin:miter;stroke-miterlimit:10;"/><line style="stroke:#181818;stroke-width:1;stroke-dasharray:2,2;" x1="248.8613" x2="703.8936" y1="990.9063" y2="990.9063"/><text fill="#000000" font-family="Helvetica" font-size="10" x="260.8613" y="980.7275">(15)</text><text fill="#000000" font-family="Helvetica" font-size="10" x="285.3887" y="974.9072">201 Created {client_id, status="pending_user_binding",</text><text fill="#000000" font-family="Helvetica" font-size="10" x="285.3887" y="986.5479">zeta_guard_attestation_token (bei HW-Attestierung ausgestellt)}</text><?plantuml-src ZLPTRnev57tdLzpoi0M5WMwabLPH4ea2QQAqXGMIQbT8oCoOmMMmMTkJDAdwJ_QnFwDl-MDxRFCr3RHzOPYnVU-vvzvxhby86MTvmgbURoppHHPbx47bjcu_sLA9nLPfkZ5S4pDKVf_RHwxBfT94VQBoGar4ngcvNEAtpUz4pClKxjnUjJhZLlTjjryYyXkneqoz_jMxPgS_-7imxBpRh1CjcROY5aicBRKomV5mhlxf39khzpATdZvooyxFSO3Bn1ajhPy1IbDE1BT0ERoYu_ehQkESiSvfz_QgtUaNyNZRRtAcapAv_-CtDyr--m2cPcvd0m-fr-wDf7jLMZmoAvIa0TTt8EI704CGHqSbbbcwva9wdzIqbXiRp0pLd4kwKth6PCAbn-1_LeH4vm76qT49zRg38JKqJuL1m2FvcMqDZUt3af-LcSj8kHOoCzvnDEvEFlBOrgYNNzU3xVf0f3NIF14QA-DS2_F5kmvnhpsVq2tBH2AuvWVD-cDIMKvQf3DBQhe-6so1AJ4LZx1XLqM3tnKFr5SA-M_MgVF9QZRpcowPcLMAKAl4SaFEtzoEP0wEOJNDk8ZXKCmaBOIbX2-ennuonP9wwH0g_vseO-YUQv1EZ_TS58cWZm5Y85jxJ9N-HOl-FFxZk4PnniI29z7bSDXRcxkH0e0Cow86JaPlXPmRG9uIyexol5CBPp6wn1xBimoVvafQhRBCMGUAjbem8QidAtiHpQnTcfD6uzITk_Yh_Vwy4KyQfyZnUGDLUKPA9F5u5_VgA55bmETNxPwFbreAFNwHgVjjjbtgKAPB9QGZpGHYQYGzcmthghBwQq30qbc1l34-RO5iE-uPcE0cwW17BkSxEDQUNtE1pIsMPHCMWqtkMeIUlar07luPdatmlcQxiSs0UoMqMuADMAwlxBNnkgCkb4lqaObdperpZqh8IJgbyuuybYqy9bsFUfIzAKjCiEgQtTLOQM_h322YVEskbx6OprJcK5LS0_4JMkAyaEauXz2E9yA_L8EjbpJKEVgZA-b2e6YS65DbsBsugUxrzOQZpdoRTeSz-etGJDAma6kHZEHWwNh5hVVvlxdhFB4WonTBfP--QiJRObWkcdRwVqATw1qJcMymc8vUu-pJLolINAOcTlciT7CRgMdq6WHLjnhsSgMIeCxUAnIvzJQENw65f8fdTDsvUjz1DpbwWF75hdDu3xn5qOaxGiquvalB4_fSZAn62suCIo5_Bd3ZviQNDOKVeEVSjs6OO5471BD92DDFjuqVC2WcXo944-_6TUi5RHuqF0YFBd1vrVur5MzuQNo0c7yVb7DxG8ytQkfJ7VcMIdcwFuMRIdIYGxlj-6mCGM17id9ugXYHIYTM02UdPqwUczT-YemaefmzVSMOmw3OLKrOBGWhQhl4CyD_EWcfSi6CZNhCpghxgFobSUX6yxZmsJaf0wzVIHqFpzUV3ScHH448-oZ1BaQ5WRo22MPptMWQr90xMjsVgvv--ZRb8RXeVGhDYHmYuJb4p4y3rDdUuvkHo6bBjn-4mu3qRgSMYY3tsdlw3zefnM9HoD5tiy-PTuFKkq11pDtD1STu3gBGqZuzq8wT1E5RgUH7hNBz7hYhRSQj4zuVCOv5aBY-8RWIudggibHxnNf-PGWFR0PlDK8SK9XTWb8-oKCHeL2hv2uBXmiK-0hnuoA2sSoaf0ck1M5whwANaCxrIRWkaE1AD-KPJ-tgMe5-KGap1fSPdTmppQDTs1vKaVSmV8EhCEMGVDVLgslAukaRgatMIzkPiryhVwUMvinBvKPRWGQCv-Qil6_a_AmbgEAukFnG3065ad9VlnRb_py0?></g></svg>