<svg xmlns="http://www.w3.org/2000/svg" xmlns:xlink="http://www.w3.org/1999/xlink" contentStyleType="text/css" data-diagram-type="SEQUENCE" height="1515px" preserveAspectRatio="none" style="width:1372px;height:1515px;background:#FFFFFF;" version="1.1" viewBox="0 0 1372 1515" width="1372px" zoomAndPan="magnify"><?plantuml 1.2026.6?><defs/><g><rect fill="#FEFCFF" height="1489.5938" style="stroke:#181818;stroke-width:0.5;" width="80.2471" x="198.7378" y="11"/><text fill="#000000" font-family="Helvetica" font-size="10" font-weight="700" x="219.9917" y="20.2822">Device</text><rect fill="#E6E6FA" height="1472.9531" style="stroke:#181818;stroke-width:0.5;" width="80.2471" x="198.7378" y="27.6406"/><text fill="#000000" font-family="Helvetica" font-size="10" font-weight="700" x="227.8335" y="36.9229">App</text><rect fill="#EDFDEC" height="1489.5938" style="stroke:#181818;stroke-width:0.5;" width="147.7842" x="734.9224" y="11"/><text fill="#000000" font-family="Helvetica" font-size="10" font-weight="700" x="746.9224" y="20.2822">Anbieter TI 2.0 Dienst</text><rect fill="#FFF3E5" height="1472.9531" style="stroke:#181818;stroke-width:0.5;" width="147.7842" x="734.9224" y="27.6406"/><text fill="#000000" font-family="Helvetica" font-size="10" font-weight="700" x="775.6699" y="36.9229">ZETA Guard</text><g><title>Nutzer</title><rect fill="#000000" fill-opacity="0.00000" height="1308.0313" width="8" x="26.126" y="114.9219"/><line style="stroke:#000000;stroke-width:0.5;stroke-dasharray:5,5;" x1="29.626" x2="29.626" y1="114.9219" y2="1422.9531"/></g><g><title>ZETA Client</title><rect fill="#000000" fill-opacity="0.00000" height="1308.0313" width="8" x="235.3613" y="114.9219"/><line style="stroke:#000000;stroke-width:0.5;stroke-dasharray:5,5;" x1="238.8613" x2="238.8613" y1="114.9219" y2="1422.9531"/></g><g><title/><rect fill="#FFFFFF" height="1300.0313" style="stroke:#181818;stroke-width:1;" width="10" x="233.8613" y="122.9219"/></g><g><title>PDP</title><rect fill="#000000" fill-opacity="0.00000" height="1308.0313" width="8" x="805.3145" y="114.9219"/><line style="stroke:#000000;stroke-width:0.5;stroke-dasharray:5,5;" x1="808.8145" x2="808.8145" y1="114.9219" y2="1422.9531"/></g><g><title/><rect fill="#FFFFFF" height="888.7813" style="stroke:#181818;stroke-width:1;" width="10" x="803.8145" y="219.125"/></g><g><title/><rect fill="#FFFFFF" height="234.125" style="stroke:#181818;stroke-width:1;" width="10" x="803.8145" y="1170.8281"/></g><text fill="#000000" font-family="Helvetica" font-size="10" x="10" y="112.5635">Nutzer</text><ellipse cx="29.626" cy="51.7813" fill="#E2E2F0" rx="8" ry="8" style="stroke:#181818;stroke-width:0.5;"/><path d="M29.626,59.7813 L29.626,86.7813 M16.626,67.7813 L42.626,67.7813 M29.626,86.7813 L16.626,101.7813 M29.626,86.7813 L42.626,101.7813" fill="none" style="stroke:#181818;stroke-width:0.5;"/><rect fill="#FFE6CC" height="25.6406" rx="2.5" ry="2.5" style="stroke:#D79B00;stroke-width:0.5;" width="72.2471" x="202.7378" y="88.2813"/><text fill="#000000" font-family="Helvetica" font-size="10" x="209.7378" y="104.5635">ZETA Client</text><rect fill="#FFE6CC" height="37.2813" rx="2.5" ry="2.5" style="stroke:#D79B00;stroke-width:0.5;" width="116.9492" x="750.3398" y="76.6406"/><text fill="#000000" font-family="Helvetica" font-size="10" x="798.9341" y="92.9229">PDP</text><text fill="#000000" font-family="Helvetica" font-size="10" x="757.3398" y="104.5635">Authorization Server</text><text fill="#000000" font-family="Helvetica" font-size="10" x="10" y="1492.2354">Nutzer</text><ellipse cx="29.626" cy="1431.4531" fill="#E2E2F0" rx="8" ry="8" style="stroke:#181818;stroke-width:0.5;"/><path d="M29.626,1439.4531 L29.626,1466.4531 M16.626,1447.4531 L42.626,1447.4531 M29.626,1466.4531 L16.626,1481.4531 M29.626,1466.4531 L42.626,1481.4531" fill="none" style="stroke:#181818;stroke-width:0.5;"/><rect fill="#FFE6CC" height="25.6406" rx="2.5" ry="2.5" style="stroke:#D79B00;stroke-width:0.5;" width="72.2471" x="202.7378" y="1422.9531"/><text fill="#000000" font-family="Helvetica" font-size="10" x="209.7378" y="1439.2354">ZETA Client</text><rect fill="#FFE6CC" height="37.2813" rx="2.5" ry="2.5" style="stroke:#D79B00;stroke-width:0.5;" width="116.9492" x="750.3398" y="1422.9531"/><text fill="#000000" font-family="Helvetica" font-size="10" x="798.9341" y="1439.2354">PDP</text><text fill="#000000" font-family="Helvetica" font-size="10" x="757.3398" y="1450.876">Authorization Server</text><path d="M13.626,126.9219 L73.582,126.9219 L73.582,130.5625 L63.582,140.5625 L13.626,140.5625 L13.626,126.9219" fill="#EEEEEE" style="stroke:#000000;stroke-width:1.5;"/><rect fill="none" height="1246.3906" style="stroke:#000000;stroke-width:1.5;" width="1339.1904" x="13.626" y="126.9219"/><text fill="#000000" font-family="Helvetica" font-size="10" font-weight="700" x="28.626" y="137.2041">alt</text><text fill="#000000" font-family="Helvetica" font-size="10" font-weight="700" x="88.582" y="138.2041">[Kein ZETA Attestation Token]</text><line style="stroke:#000000;stroke-width:1;stroke-dasharray:2,2;" x1="13.626" x2="1352.8164" y1="1228.4688" y2="1228.4688"/><text fill="#000000" font-family="Helvetica" font-size="10" font-weight="700" x="18.626" y="1239.751">[ZETA Attestation Token vorhanden (Fast-Path)]</text><path d="M222.8613,154.5625 L282.8174,154.5625 L282.8174,158.2031 L272.8174,168.2031 L222.8613,168.2031 L222.8613,154.5625" fill="#EEEEEE" style="stroke:#000000;stroke-width:1.5;"/><rect fill="none" height="728.9375" style="stroke:#000000;stroke-width:1.5;" width="1104.9551" x="222.8613" y="154.5625"/><text fill="#000000" font-family="Helvetica" font-size="10" font-weight="700" x="237.8613" y="164.8447">alt</text><text fill="#000000" font-family="Helvetica" font-size="10" font-weight="700" x="297.8174" y="165.8447">[Hardware Attestation: iOS, iPadOS, macOS (Apple App Attest)]</text><line style="stroke:#000000;stroke-width:1;stroke-dasharray:2,2;" x1="222.8613" x2="1327.8164" y1="358.6875" y2="358.6875"/><text fill="#000000" font-family="Helvetica" font-size="10" font-weight="700" x="227.8613" y="369.9697">[Hardware Attestation: Android (Keystore, TEE, StrongBox)]</text><line style="stroke:#000000;stroke-width:1;stroke-dasharray:2,2;" x1="222.8613" x2="1327.8164" y1="804.2969" y2="804.2969"/><text fill="#000000" font-family="Helvetica" font-size="10" font-weight="700" x="227.8613" y="815.5791">[Software Attestation (Legacy OIDC DCR)]</text><polygon fill="#181818" points="791.8145,215.125,801.8145,219.125,791.8145,223.125,795.8145,219.125" style="stroke:#181818;stroke-width:1;stroke-linejoin:miter;stroke-miterlimit:10;"/><line style="stroke:#181818;stroke-width:1;" x1="243.8613" x2="797.8145" y1="219.125" y2="219.125"/><text fill="#000000" font-family="Helvetica" font-size="10" x="250.8613" y="203.126">(01)</text><text fill="#000000" font-family="Helvetica" font-size="10" x="275.3887" y="191.4854">POST /register</text><text fill="#000000" font-family="Helvetica" font-size="10" x="275.3887" y="203.126">{attestation_type="apple", Apple_Attestation_Object, PuK.Client.Sig,</text><text fill="#000000" font-family="Helvetica" font-size="10" x="275.3887" y="214.7666">signed_hash_puk_client_sig, redirect_uris}</text><line style="stroke:#181818;stroke-width:1;" x1="813.8145" x2="855.8145" y1="244.7656" y2="244.7656"/><line style="stroke:#181818;stroke-width:1;" x1="855.8145" x2="855.8145" y1="244.7656" y2="257.7656"/><line style="stroke:#181818;stroke-width:1;" x1="814.8145" x2="855.8145" y1="257.7656" y2="257.7656"/><polygon fill="#181818" points="824.8145,253.7656,814.8145,257.7656,824.8145,261.7656,820.8145,257.7656" style="stroke:#181818;stroke-width:1;stroke-linejoin:miter;stroke-miterlimit:10;"/><text fill="#000000" font-family="Helvetica" font-size="10" x="820.8145" y="240.4072">(02)</text><text fill="#000000" font-family="Helvetica" font-size="10" x="845.3418" y="240.4072">Validiere Apple_Attestation_Object</text><line style="stroke:#181818;stroke-width:1;" x1="813.8145" x2="855.8145" y1="283.4063" y2="283.4063"/><line style="stroke:#181818;stroke-width:1;" x1="855.8145" x2="855.8145" y1="283.4063" y2="296.4063"/><line style="stroke:#181818;stroke-width:1;" x1="814.8145" x2="855.8145" y1="296.4063" y2="296.4063"/><polygon fill="#181818" points="824.8145,292.4063,814.8145,296.4063,824.8145,300.4063,820.8145,296.4063" style="stroke:#181818;stroke-width:1;stroke-linejoin:miter;stroke-miterlimit:10;"/><text fill="#000000" font-family="Helvetica" font-size="10" x="820.8145" y="279.0479">(03)</text><text fill="#000000" font-family="Helvetica" font-size="10" x="845.3418" y="279.0479">Pr&#252;fe signed_hash_puk_client_sig mit PuK.Client.Sig</text><path d="M818.8145,309.4063 L818.8145,342.4063 L1236.8145,342.4063 L1236.8145,319.4063 L1226.8145,309.4063 L818.8145,309.4063" fill="#FEFFDD" style="stroke:#181818;stroke-width:0.5;"/><path d="M1226.8145,309.4063 L1226.8145,319.4063 L1236.8145,319.4063 L1226.8145,309.4063" fill="#FEFFDD" style="stroke:#181818;stroke-width:0.5;"/><text fill="#000000" font-family="Helvetica" font-size="10" x="824.8145" y="323.6885">AuthS verifiziert Apple App Attest Root CA.</text><text fill="#000000" font-family="Helvetica" font-size="10" x="824.8145" y="335.3291">Extrahiert Hash(PuK.Client.Sig) aus Objekt und vergleicht ihn mit dem Payload.</text><polygon fill="#181818" points="791.8145,414.25,801.8145,418.25,791.8145,422.25,795.8145,418.25" style="stroke:#181818;stroke-width:1;stroke-linejoin:miter;stroke-miterlimit:10;"/><line style="stroke:#181818;stroke-width:1;" x1="243.8613" x2="797.8145" y1="418.25" y2="418.25"/><text fill="#000000" font-family="Helvetica" font-size="10" x="250.8613" y="402.251">(04)</text><text fill="#000000" font-family="Helvetica" font-size="10" x="275.3887" y="390.6104">POST /register</text><text fill="#000000" font-family="Helvetica" font-size="10" x="275.3887" y="402.251">{attestation_type="android", PuK.AK.Sig, Android_Key_Attestation_Certificate_Chain,</text><text fill="#000000" font-family="Helvetica" font-size="10" x="275.3887" y="413.8916">PuK.Client.Sig, signed_hash_puk_client_sig, play_integrity_token, redirect_uris}</text><line style="stroke:#181818;stroke-width:1;" x1="813.8145" x2="855.8145" y1="443.8906" y2="443.8906"/><line style="stroke:#181818;stroke-width:1;" x1="855.8145" x2="855.8145" y1="443.8906" y2="456.8906"/><line style="stroke:#181818;stroke-width:1;" x1="814.8145" x2="855.8145" y1="456.8906" y2="456.8906"/><polygon fill="#181818" points="824.8145,452.8906,814.8145,456.8906,824.8145,460.8906,820.8145,456.8906" style="stroke:#181818;stroke-width:1;stroke-linejoin:miter;stroke-miterlimit:10;"/><text fill="#000000" font-family="Helvetica" font-size="10" x="820.8145" y="439.5322">(05)</text><text fill="#000000" font-family="Helvetica" font-size="10" x="845.3418" y="439.5322">Validiere Zertifikatskette gegen Google Root CA</text><line style="stroke:#181818;stroke-width:1;" x1="813.8145" x2="855.8145" y1="482.5313" y2="482.5313"/><line style="stroke:#181818;stroke-width:1;" x1="855.8145" x2="855.8145" y1="482.5313" y2="495.5313"/><line style="stroke:#181818;stroke-width:1;" x1="814.8145" x2="855.8145" y1="495.5313" y2="495.5313"/><polygon fill="#181818" points="824.8145,491.5313,814.8145,495.5313,824.8145,499.5313,820.8145,495.5313" style="stroke:#181818;stroke-width:1;stroke-linejoin:miter;stroke-miterlimit:10;"/><text fill="#000000" font-family="Helvetica" font-size="10" x="820.8145" y="478.1729">(06)</text><text fill="#000000" font-family="Helvetica" font-size="10" x="845.3418" y="478.1729">Extrahiere attestationChallenge aus KeyDescription ASN.1-Extension des Blatt-Zertifikats</text><line style="stroke:#181818;stroke-width:1;" x1="813.8145" x2="855.8145" y1="521.1719" y2="521.1719"/><line style="stroke:#181818;stroke-width:1;" x1="855.8145" x2="855.8145" y1="521.1719" y2="534.1719"/><line style="stroke:#181818;stroke-width:1;" x1="814.8145" x2="855.8145" y1="534.1719" y2="534.1719"/><polygon fill="#181818" points="824.8145,530.1719,814.8145,534.1719,824.8145,538.1719,820.8145,534.1719" style="stroke:#181818;stroke-width:1;stroke-linejoin:miter;stroke-miterlimit:10;"/><text fill="#000000" font-family="Helvetica" font-size="10" x="820.8145" y="516.8135">(07)</text><text fill="#000000" font-family="Helvetica" font-size="10" x="845.3418" y="516.8135">Pr&#252;fe attestationChallenge == SHA-256(PuK.Client.Sig)</text><line style="stroke:#181818;stroke-width:1;" x1="813.8145" x2="855.8145" y1="559.8125" y2="559.8125"/><line style="stroke:#181818;stroke-width:1;" x1="855.8145" x2="855.8145" y1="559.8125" y2="572.8125"/><line style="stroke:#181818;stroke-width:1;" x1="814.8145" x2="855.8145" y1="572.8125" y2="572.8125"/><polygon fill="#181818" points="824.8145,568.8125,814.8145,572.8125,824.8145,576.8125,820.8145,572.8125" style="stroke:#181818;stroke-width:1;stroke-linejoin:miter;stroke-miterlimit:10;"/><text fill="#000000" font-family="Helvetica" font-size="10" x="820.8145" y="555.4541">(08)</text><text fill="#000000" font-family="Helvetica" font-size="10" x="845.3418" y="555.4541">Pr&#252;fe signed_hash_puk_client_sig mit PuK.Client.Sig</text><path d="M792.8145,584.8125 L856.623,584.8125 L856.623,588.4531 L846.623,598.4531 L792.8145,598.4531 L792.8145,584.8125" fill="#EEEEEE" style="stroke:#000000;stroke-width:1.5;"/><rect fill="none" height="139.5625" style="stroke:#000000;stroke-width:1.5;" width="405.3906" x="792.8145" y="584.8125"/><text fill="#000000" font-family="Helvetica" font-size="10" font-weight="700" x="807.8145" y="595.0947">opt</text><text fill="#000000" font-family="Helvetica" font-size="10" font-weight="700" x="871.623" y="596.0947">[Play Integrity Pr&#252;fung]</text><line style="stroke:#181818;stroke-width:1;" x1="813.8145" x2="855.8145" y1="626.0938" y2="626.0938"/><line style="stroke:#181818;stroke-width:1;" x1="855.8145" x2="855.8145" y1="626.0938" y2="639.0938"/><line style="stroke:#181818;stroke-width:1;" x1="814.8145" x2="855.8145" y1="639.0938" y2="639.0938"/><polygon fill="#181818" points="824.8145,635.0938,814.8145,639.0938,824.8145,643.0938,820.8145,639.0938" style="stroke:#181818;stroke-width:1;stroke-linejoin:miter;stroke-miterlimit:10;"/><text fill="#000000" font-family="Helvetica" font-size="10" x="820.8145" y="621.7354">(09)</text><text fill="#000000" font-family="Helvetica" font-size="10" x="845.3418" y="621.7354">Entschl&#252;ssele play_integrity_token (lokal/remote)</text><line style="stroke:#181818;stroke-width:1;" x1="813.8145" x2="855.8145" y1="664.7344" y2="664.7344"/><line style="stroke:#181818;stroke-width:1;" x1="855.8145" x2="855.8145" y1="664.7344" y2="677.7344"/><line style="stroke:#181818;stroke-width:1;" x1="814.8145" x2="855.8145" y1="677.7344" y2="677.7344"/><polygon fill="#181818" points="824.8145,673.7344,814.8145,677.7344,824.8145,681.7344,820.8145,677.7344" style="stroke:#181818;stroke-width:1;stroke-linejoin:miter;stroke-miterlimit:10;"/><text fill="#000000" font-family="Helvetica" font-size="10" x="820.8145" y="660.376">(10)</text><text fill="#000000" font-family="Helvetica" font-size="10" x="845.3418" y="660.376">Verifiziere Nonce (Muss SHA-256(PuK.Client.Sig) entsprechen)</text><line style="stroke:#181818;stroke-width:1;" x1="813.8145" x2="855.8145" y1="703.375" y2="703.375"/><line style="stroke:#181818;stroke-width:1;" x1="855.8145" x2="855.8145" y1="703.375" y2="716.375"/><line style="stroke:#181818;stroke-width:1;" x1="814.8145" x2="855.8145" y1="716.375" y2="716.375"/><polygon fill="#181818" points="824.8145,712.375,814.8145,716.375,824.8145,720.375,820.8145,716.375" style="stroke:#181818;stroke-width:1;stroke-linejoin:miter;stroke-miterlimit:10;"/><text fill="#000000" font-family="Helvetica" font-size="10" x="820.8145" y="699.0166">(11)</text><text fill="#000000" font-family="Helvetica" font-size="10" x="845.3418" y="699.0166">Werte Verdicts aus (appIntegrity, deviceIntegrity, accountDetails)</text><path d="M818.8145,743.375 L818.8145,787.375 L1306.8145,787.375 L1306.8145,753.375 L1296.8145,743.375 L818.8145,743.375" fill="#FEFFDD" style="stroke:#181818;stroke-width:0.5;"/><path d="M1296.8145,743.375 L1296.8145,753.375 L1306.8145,753.375 L1296.8145,743.375" fill="#FEFFDD" style="stroke:#181818;stroke-width:0.5;"/><text fill="#000000" font-family="Helvetica" font-size="10" x="824.8145" y="757.6572">PuK.AK.Sig muss mit dem Blatt-Zertifikat der Certificate Chain &#252;bereinstimmen.</text><text fill="#000000" font-family="Helvetica" font-size="10" x="824.8145" y="769.2979">Sicherheitsniveau: TrustedEnvironment oder StrongBox.</text><text fill="#000000" font-family="Helvetica" font-size="10" x="824.8145" y="780.9385">attestationChallenge im Blatt-Zertifikat beweist die TEE-interne Bindung AK &#8596; PuK.Client.Sig.</text><polygon fill="#181818" points="791.8145,871.5,801.8145,875.5,791.8145,879.5,795.8145,875.5" style="stroke:#181818;stroke-width:1;stroke-linejoin:miter;stroke-miterlimit:10;"/><line style="stroke:#181818;stroke-width:1;" x1="243.8613" x2="797.8145" y1="875.5" y2="875.5"/><text fill="#000000" font-family="Helvetica" font-size="10" x="250.8613" y="853.6807">(12)</text><text fill="#000000" font-family="Helvetica" font-size="10" x="275.3887" y="836.2197">POST /register</text><text fill="#000000" font-family="Helvetica" font-size="10" x="275.3887" y="847.8604">{client_name, "grant_types": ["urn:ietf:params:oauth:grant-type:token-exchange", "refresh_token",</text><text fill="#000000" font-family="Helvetica" font-size="10" x="275.3887" y="859.501">"urn:ietf:params:oauth:grant-type:jwt-bearer"], jwks, token_endpoint_auth_method="private_key_jwt",</text><text fill="#000000" font-family="Helvetica" font-size="10" x="281.7461" y="871.1416">"redirect_uris": ["https:</text><text fill="#000000" font-family="Helvetica" font-size="10" font-style="italic" x="397.6104" y="871.1416">&lt;App-FQDN&gt;/cb/&lt;app&gt;/oidc", "https:</text><text fill="#000000" font-family="Helvetica" font-size="10" x="589.2559" y="871.1416">&lt;App-FQDN&gt;/cb/&lt;app&gt;/app"]}</text><path d="M248.8613,902.5 L248.8613,981.5 L1069.8613,981.5 L1069.8613,912.5 L1059.8613,902.5 L248.8613,902.5" fill="#FEFFDD" style="stroke:#181818;stroke-width:0.5;"/><path d="M1059.8613,902.5 L1059.8613,912.5 L1069.8613,912.5 L1059.8613,902.5" fill="#FEFFDD" style="stroke:#181818;stroke-width:0.5;"/><text fill="#000000" font-family="Helvetica" font-size="10" x="254.8613" y="916.7822">Es werden zwei redirect_uris je App registriert (RFC 8252, claimed-HTTPS Universal-/App-Links auf einer vom App-Hersteller kontrollierten Domain):</text><text fill="#000000" font-family="Helvetica" font-size="10" x="254.8613" y="928.4229">- https://&lt;App-FQDN&gt;/cb/&lt;app&gt;/oidc = oidc_redirect_uri (SekIDP Auth Code Flow, redirection_endpoint des AuthS, nicht /token)</text><text fill="#000000" font-family="Helvetica" font-size="10" x="254.8613" y="940.0635">- https://&lt;App-FQDN&gt;/cb/&lt;app&gt;/app = app_redirect_uri (ZETA Guard Auth Code Flow, /token-Endpunkt des AuthS)</text><text fill="#000000" font-family="Helvetica" font-size="10" x="254.8613" y="951.7041">Beide Callbacks enden &#252;ber denselben App-Link/Universal-Link in der App; der ZETA Client unterscheidet den zu nutzenden AuthS-Endpunkt anhand des Pfads.</text><text fill="#000000" font-family="Helvetica" font-size="10" x="254.8613" y="963.3447">Die OS-seitige Verkn&#252;pfung erfolgt &#252;ber apple-app-site-association bzw. assetlinks.json (Deployment, kein Laufzeit-Flow). Die App ist inkl. redirect_uris</text><text fill="#000000" font-family="Helvetica" font-size="10" x="254.8613" y="974.9854">bei der gematik registriert; der AuthS pr&#252;ft beim DCR, ob die &#252;bergebenen redirect_uris registriert sind.</text><line style="stroke:#181818;stroke-width:1;" x1="813.8145" x2="855.8145" y1="1004.9844" y2="1004.9844"/><line style="stroke:#181818;stroke-width:1;" x1="855.8145" x2="855.8145" y1="1004.9844" y2="1017.9844"/><line style="stroke:#181818;stroke-width:1;" x1="814.8145" x2="855.8145" y1="1017.9844" y2="1017.9844"/><polygon fill="#181818" points="824.8145,1013.9844,814.8145,1017.9844,824.8145,1021.9844,820.8145,1017.9844" style="stroke:#181818;stroke-width:1;stroke-linejoin:miter;stroke-miterlimit:10;"/><text fill="#000000" font-family="Helvetica" font-size="10" x="820.8145" y="1000.626">(13)</text><text fill="#000000" font-family="Helvetica" font-size="10" x="845.3418" y="1000.626">Store Client Placeholder (state: pending_user_binding)</text><line style="stroke:#181818;stroke-width:1;" x1="813.8145" x2="855.8145" y1="1043.625" y2="1043.625"/><line style="stroke:#181818;stroke-width:1;" x1="855.8145" x2="855.8145" y1="1043.625" y2="1056.625"/><line style="stroke:#181818;stroke-width:1;" x1="814.8145" x2="855.8145" y1="1056.625" y2="1056.625"/><polygon fill="#181818" points="824.8145,1052.625,814.8145,1056.625,824.8145,1060.625,820.8145,1056.625" style="stroke:#181818;stroke-width:1;stroke-linejoin:miter;stroke-miterlimit:10;"/><text fill="#000000" font-family="Helvetica" font-size="10" x="820.8145" y="1039.2666">(14)</text><text fill="#000000" font-family="Helvetica" font-size="10" x="845.3418" y="1039.2666">Generiere OTP &amp; transaction_id, Speichere Request im tempor&#228;ren Cache</text><polygon fill="#181818" points="40.626,1078.2656,30.626,1082.2656,40.626,1086.2656,36.626,1082.2656" style="stroke:#181818;stroke-width:1;stroke-linejoin:miter;stroke-miterlimit:10;"/><line style="stroke:#181818;stroke-width:1;" x1="34.626" x2="802.8145" y1="1082.2656" y2="1082.2656"/><text fill="#000000" font-family="Helvetica" font-size="10" x="46.626" y="1077.9072">(15)</text><text fill="#000000" font-family="Helvetica" font-size="10" x="71.1533" y="1077.9072">E-Mail mit OTP-Best&#228;tigungscode (Out-of-Band)</text><polygon fill="#181818" points="254.8613,1103.9063,244.8613,1107.9063,254.8613,1111.9063,250.8613,1107.9063" style="stroke:#181818;stroke-width:1;stroke-linejoin:miter;stroke-miterlimit:10;"/><line style="stroke:#181818;stroke-width:1;stroke-dasharray:2,2;" x1="248.8613" x2="802.8145" y1="1107.9063" y2="1107.9063"/><text fill="#000000" font-family="Helvetica" font-size="10" x="260.8613" y="1103.5479">(16)</text><text fill="#000000" font-family="Helvetica" font-size="10" x="285.3887" y="1103.5479">202 Accepted {transaction_id, message="OTP sent"}</text><polygon fill="#181818" points="221.8613,1129.5469,231.8613,1133.5469,221.8613,1137.5469,225.8613,1133.5469" style="stroke:#181818;stroke-width:1;stroke-linejoin:miter;stroke-miterlimit:10;"/><line style="stroke:#181818;stroke-width:1;" x1="29.626" x2="227.8613" y1="1133.5469" y2="1133.5469"/><text fill="#000000" font-family="Helvetica" font-size="10" x="36.626" y="1129.1885">(17)</text><text fill="#000000" font-family="Helvetica" font-size="10" x="61.1533" y="1129.1885">Gibt OTP-Best&#228;tigungscode ein</text><polygon fill="#181818" points="791.8145,1166.8281,801.8145,1170.8281,791.8145,1174.8281,795.8145,1170.8281" style="stroke:#181818;stroke-width:1;stroke-linejoin:miter;stroke-miterlimit:10;"/><line style="stroke:#181818;stroke-width:1;" x1="243.8613" x2="797.8145" y1="1170.8281" y2="1170.8281"/><text fill="#000000" font-family="Helvetica" font-size="10" x="250.8613" y="1160.6494">(18)</text><text fill="#000000" font-family="Helvetica" font-size="10" x="275.3887" y="1154.8291">POST /register/verify</text><text fill="#000000" font-family="Helvetica" font-size="10" x="275.3887" y="1166.4697">{transaction_id, code}</text><line style="stroke:#181818;stroke-width:1;" x1="813.8145" x2="855.8145" y1="1196.4688" y2="1196.4688"/><line style="stroke:#181818;stroke-width:1;" x1="855.8145" x2="855.8145" y1="1196.4688" y2="1209.4688"/><line style="stroke:#181818;stroke-width:1;" x1="814.8145" x2="855.8145" y1="1209.4688" y2="1209.4688"/><polygon fill="#181818" points="824.8145,1205.4688,814.8145,1209.4688,824.8145,1213.4688,820.8145,1209.4688" style="stroke:#181818;stroke-width:1;stroke-linejoin:miter;stroke-miterlimit:10;"/><text fill="#000000" font-family="Helvetica" font-size="10" x="820.8145" y="1192.1104">(19)</text><text fill="#000000" font-family="Helvetica" font-size="10" x="845.3418" y="1192.1104">Verifiziere OTP-Code gegen Cache</text><polygon fill="#181818" points="791.8145,1284.0313,801.8145,1288.0313,791.8145,1292.0313,795.8145,1288.0313" style="stroke:#181818;stroke-width:1;stroke-linejoin:miter;stroke-miterlimit:10;"/><line style="stroke:#181818;stroke-width:1;" x1="243.8613" x2="797.8145" y1="1288.0313" y2="1288.0313"/><text fill="#000000" font-family="Helvetica" font-size="10" x="250.8613" y="1272.0322">(20)</text><text fill="#000000" font-family="Helvetica" font-size="10" x="275.3887" y="1260.3916">POST /register</text><text fill="#000000" font-family="Helvetica" font-size="10" x="275.3887" y="1272.0322">{attestation_type="zeta_attestation_token", zeta_guard_attestation_token,</text><text fill="#000000" font-family="Helvetica" font-size="10" x="275.3887" y="1283.6729">PuK.Client.Sig, Besitznachweis (Signatur/Assertion)}</text><line style="stroke:#181818;stroke-width:1;" x1="813.8145" x2="855.8145" y1="1313.6719" y2="1313.6719"/><line style="stroke:#181818;stroke-width:1;" x1="855.8145" x2="855.8145" y1="1313.6719" y2="1326.6719"/><line style="stroke:#181818;stroke-width:1;" x1="814.8145" x2="855.8145" y1="1326.6719" y2="1326.6719"/><polygon fill="#181818" points="824.8145,1322.6719,814.8145,1326.6719,824.8145,1330.6719,820.8145,1326.6719" style="stroke:#181818;stroke-width:1;stroke-linejoin:miter;stroke-miterlimit:10;"/><text fill="#000000" font-family="Helvetica" font-size="10" x="820.8145" y="1309.3135">(21)</text><text fill="#000000" font-family="Helvetica" font-size="10" x="845.3418" y="1309.3135">Pr&#252;fe Token-Signatur &amp; Vertrauensstellung</text><line style="stroke:#181818;stroke-width:1;" x1="813.8145" x2="855.8145" y1="1352.3125" y2="1352.3125"/><line style="stroke:#181818;stroke-width:1;" x1="855.8145" x2="855.8145" y1="1352.3125" y2="1365.3125"/><line style="stroke:#181818;stroke-width:1;" x1="814.8145" x2="855.8145" y1="1365.3125" y2="1365.3125"/><polygon fill="#181818" points="824.8145,1361.3125,814.8145,1365.3125,824.8145,1369.3125,820.8145,1365.3125" style="stroke:#181818;stroke-width:1;stroke-linejoin:miter;stroke-miterlimit:10;"/><text fill="#000000" font-family="Helvetica" font-size="10" x="820.8145" y="1347.9541">(22)</text><text fill="#000000" font-family="Helvetica" font-size="10" x="845.3418" y="1347.9541">Extrahiere PuK.AK.Sig aus Token, verifiziere Besitznachweis</text><polygon fill="#181818" points="254.8613,1400.9531,244.8613,1404.9531,254.8613,1408.9531,250.8613,1404.9531" style="stroke:#181818;stroke-width:1;stroke-linejoin:miter;stroke-miterlimit:10;"/><line style="stroke:#181818;stroke-width:1;stroke-dasharray:2,2;" x1="248.8613" x2="802.8145" y1="1404.9531" y2="1404.9531"/><text fill="#000000" font-family="Helvetica" font-size="10" x="260.8613" y="1400.5947">(23)</text><text fill="#000000" font-family="Helvetica" font-size="10" x="285.3887" y="1400.5947">201 Created {client_id, status="pending_user_binding"}</text><?plantuml-src hLVRSY974dtdAz8yh2661biHtjXWHuf0W4OApGWic76iTnmTHNS29PhgtgfgtHppkb_WJ_1dp9l-PBzaJrLpQJ3Ip3fM3w2cgpApJfuycVMDL56InqpDPYlBbqcGY8SqjqrxRoiL4TbKqtl3ceIXwbLk7rbNAvL9Ua_L7j_AYAlKwt-uwFR3xk3juBf2vDzrignAm-kBTvt-zUWVet7_tUOzKIQqbP7CXBBKJIJZord_kJ_kh9whzFhr8rjnSe8Dh69djBB-Bhntr4IoHM3Z2pfgVaSzx3FMEHrykEZrhtVZyRRVv4B7LNB_Xs_UTwvxpyJKoUryv4CQzeOVbNjCjNmKLgQAHgnlWS6B0HQ7UFMg8X9BbooLzqaTQzdOmimuNR3odls7MtYEwEw4vlAwDid1g45oA6BtlHJHO4Gre9jWMPQjbjQz3VUtWZCuAGxnwbMRXeFHc5gQPz80he_gLx4r7zg7Z8-hmjchDiZR3Klkmy7aXYFRe65-sIniDqTorlYeZ9mfZiEvCFCmonTXv5-6-Bb1ccEfiItCjJIVDh4LiAv3QzC7aSXOikPd_JwxTQYVFa-PdW-2bjBk1RqnfbBBfELiRYcThYqM7f1PEPMF2ChIFiXqdQRWQwVvKVNlhHPpl-eSlckxZkeaSaFk10jBEJW1gxE4PGI7SgvyQ34lQIWUabJ4JHyO9uQVOK17nJgLCTKk-S6W7hb1utw_GIEhKpKxJU-VJV_N9RymNosItBdq2Lux3U5p9p5T71eGHS9os9qBgS25FNBGIzp882-XL9PdMjg7qBeo-1EC-Ra8Oo6iMJ32endFMD6RD0NIwqmzQsUJFwOI7ZXEah2QiSyV3jvZ4scP-NhjZAwQtmVO29Lnpp4REasmEoY5yYM-7dHsV4oZyqvmzCDVztdq_wN_nbgQuHtIG1VhD1G6SxMjaOEeAMkYUVBqsHW6o8SoIRKaNOW4X5kYoEelclkmgJMcgrH5JBLtkJ7FWG6LjIO3IUQiNZRy4nB2pdmi8sjyCcjGkCrf6qYUwrob7qGKfRcoFIYwJCpMF1Izyf9kbEBO5WyjtJ7MLRvF4loegLH5vAk8dZvF08H42vFB9QjcoV88oi5wpj8Q9MzPv6qQwnpr7FVLhOG6B5tDfyxkHXBA-m-oJXw8RC9t39qWb9XJcC0bLokcKwbYa8Cwb_IVV_-snwjc6IoFqLRFHkdKxkiPrTxoJ4GFDBZeTQdNlVvVr6l5S2MM4C7gJADRUnKprJRzivfhrSPCC6sZcOkbQQS2Pjf-LU1MjJr70xwFvW8OGF6gcgUQKJx-JHLQzcKZDtSsc31EfQk_DEZcRc4QvBU7021B0LhejeHBnjWG7rSpBM-TMYwWfDZhd91pN58y7_tSsioqMwtNQ3d1sO-zgvDMD6cz1dDFMb3Yo8NxqXfyL7yfj7D3srtA5lYkuEuRkaE9e6OVaVLT1QQRel4Lo6lVw6hNPrtwsz4FHmsA4Y6N70Vdu_5mHEyTARKHIT1oKRsLQk6ARafWCoXvcowThU0SQoo3VPeMgG9FayJPXVzUkaG5rDkhm0Bw4X9qJEuhBCTCjH4lBdf3JntgeXheB4dljgt5DQzrWhnwUuurIFc-tF8Ph7zL2FX01FZS2s0xO_uXYC9yq8V_N2rA_jSUJrbYSHVLEH4Hy4Eal185B5OGt0cUr_YsjfYxHvBAgmfU_zt_KvgaCO2WTA3Rpe5pZ7pdfDmWxrtuABQ12ONIY7rymwc8pRgwCLtJO1GOY92SUN5TgAVFcUiPn7gQ9ZExYjRFaW4-0oCj_Z4cZMHH-PF7koR6QiCsSIHftXWd1ptEalJ1QLY35cvMVWloFC9HuB2hDxrlnqOdJTYND7V9kefm0XAxiyzu2M-BCdSBK8esaRbEvwGE0WZnQL0wyNhdWvynK0OekyLGhW83AMnMTjIkSgW7ZToSjau1cct4ypHnKTIS37ARCkoNQXRck5k54-aVweMjRmjvfu6YCucYSVSlgeq7P-_h1tszGSpQjz71U4X_8SmsoeY2yJB6d9Ynxo2OY_XVkPjaSNRBoopLJxzh7BShy7hNjBloeUC7xz0FVIk3wU0KUvz-1m6GTHCvTjS6kGtIQN0AqjItjvblLxSaqCdUfIXowsqSVGVnK6aqfyl-nLMVLcekus_Apk6zm2q8scuBTQA8CtGx-dN_P4isHimmmxg36tTl_BI6y2VXXW0dGyMbDUW3O34fZkalj1i_G51EdZiX25a-Lp6qB0e-5orUxs1vqQjyrJsivQyQ3-Xf-uToRZzLlZGnkMYzm1I3Rv72IiMttSENJIYnTiNjfhGpOMmm57PUh_pPQuEx_OOxFnSjbFoBcPF1Fxu-S5a0vD8-AiJlXW_8E8PQONFTwa0ejDjQFup6QWZsPmlMkq1_e0H8SuYcxpVhgVQ5Eq1fT7F3uhYuazoMqDuDikBxws6wVazTpSApTKDlt8W0Gcum2noeUd3slm00?></g></svg>