<svg xmlns="http://www.w3.org/2000/svg" xmlns:xlink="http://www.w3.org/1999/xlink" contentStyleType="text/css" data-diagram-type="SEQUENCE" height="1171px" preserveAspectRatio="none" style="width:1220px;height:1171px;background:#FFFFFF;" version="1.1" viewBox="0 0 1220 1171" width="1220px" zoomAndPan="magnify"><?plantuml 1.2026.6?><defs/><g><rect fill="#FEFCFF" height="1145.3906" style="stroke:#181818;stroke-width:0.5;" width="139.0537" x="169.3345" y="11"/><text fill="#000000" font-family="Helvetica" font-size="10" font-weight="700" x="181.3345" y="20.2822">mobile Apple Device</text><rect fill="#E6E6FA" height="1128.75" style="stroke:#181818;stroke-width:0.5;" width="139.0537" x="169.3345" y="27.6406"/><text fill="#000000" font-family="Helvetica" font-size="10" font-weight="700" x="227.8335" y="36.9229">App</text><rect fill="#EDFDEC" height="1145.3906" style="stroke:#181818;stroke-width:0.5;" width="147.7842" x="636.0015" y="11"/><text fill="#000000" font-family="Helvetica" font-size="10" font-weight="700" x="648.0015" y="20.2822">Anbieter TI 2.0 Dienst</text><rect fill="#FFF3E5" height="1128.75" style="stroke:#181818;stroke-width:0.5;" width="147.7842" x="636.0015" y="27.6406"/><text fill="#000000" font-family="Helvetica" font-size="10" font-weight="700" x="676.749" y="36.9229">ZETA Guard</text><g><title>Nutzer</title><rect fill="#000000" fill-opacity="0.00000" height="963.8281" width="8" x="26.126" y="114.9219"/><line style="stroke:#000000;stroke-width:0.5;stroke-dasharray:5,5;" x1="29.626" x2="29.626" y1="114.9219" y2="1078.75"/></g><g><title>ZETA Client</title><rect fill="#000000" fill-opacity="0.00000" height="963.8281" width="8" x="235.3613" y="114.9219"/><line style="stroke:#000000;stroke-width:0.5;stroke-dasharray:5,5;" x1="238.8613" x2="238.8613" y1="114.9219" y2="1078.75"/></g><g><title/><rect fill="#FFFFFF" height="955.8281" style="stroke:#181818;stroke-width:1;" width="10" x="233.8613" y="122.9219"/></g><g><title>PDP</title><rect fill="#000000" fill-opacity="0.00000" height="963.8281" width="8" x="706.3936" y="114.9219"/><line style="stroke:#000000;stroke-width:0.5;stroke-dasharray:5,5;" x1="709.8936" x2="709.8936" y1="114.9219" y2="1078.75"/></g><g><title/><rect fill="#FFFFFF" height="381.8125" style="stroke:#181818;stroke-width:1;" width="10" x="704.8936" y="179.8438"/></g><g><title/><rect fill="#FFFFFF" height="436.1719" style="stroke:#181818;stroke-width:1;" width="10" x="704.8936" y="624.5781"/></g><text fill="#000000" font-family="Helvetica" font-size="10" x="10" y="112.5635">Nutzer</text><ellipse cx="29.626" cy="51.7813" fill="#E2E2F0" rx="8" ry="8" style="stroke:#181818;stroke-width:0.5;"/><path d="M29.626,59.7813 L29.626,86.7813 M16.626,67.7813 L42.626,67.7813 M29.626,86.7813 L16.626,101.7813 M29.626,86.7813 L42.626,101.7813" fill="none" style="stroke:#181818;stroke-width:0.5;"/><rect fill="#FFE6CC" height="25.6406" rx="2.5" ry="2.5" style="stroke:#D79B00;stroke-width:0.5;" width="72.2471" x="202.7378" y="88.2813"/><text fill="#000000" font-family="Helvetica" font-size="10" x="209.7378" y="104.5635">ZETA Client</text><rect fill="#FFE6CC" height="37.2813" rx="2.5" ry="2.5" style="stroke:#D79B00;stroke-width:0.5;" width="116.9492" x="651.4189" y="76.6406"/><text fill="#000000" font-family="Helvetica" font-size="10" x="700.0132" y="92.9229">PDP</text><text fill="#000000" font-family="Helvetica" font-size="10" x="658.4189" y="104.5635">Authorization Server</text><text fill="#000000" font-family="Helvetica" font-size="10" x="10" y="1148.0322">Nutzer</text><ellipse cx="29.626" cy="1087.25" fill="#E2E2F0" rx="8" ry="8" style="stroke:#181818;stroke-width:0.5;"/><path d="M29.626,1095.25 L29.626,1122.25 M16.626,1103.25 L42.626,1103.25 M29.626,1122.25 L16.626,1137.25 M29.626,1122.25 L42.626,1137.25" fill="none" style="stroke:#181818;stroke-width:0.5;"/><rect fill="#FFE6CC" height="25.6406" rx="2.5" ry="2.5" style="stroke:#D79B00;stroke-width:0.5;" width="72.2471" x="202.7378" y="1078.75"/><text fill="#000000" font-family="Helvetica" font-size="10" x="209.7378" y="1095.0322">ZETA Client</text><rect fill="#FFE6CC" height="37.2813" rx="2.5" ry="2.5" style="stroke:#D79B00;stroke-width:0.5;" width="116.9492" x="651.4189" y="1078.75"/><text fill="#000000" font-family="Helvetica" font-size="10" x="700.0132" y="1095.0322">PDP</text><text fill="#000000" font-family="Helvetica" font-size="10" x="658.4189" y="1106.6729">Authorization Server</text><path d="M13.626,126.9219 L73.582,126.9219 L73.582,130.5625 L63.582,140.5625 L13.626,140.5625 L13.626,126.9219" fill="#EEEEEE" style="stroke:#000000;stroke-width:1.5;"/><rect fill="none" height="823.9844" style="stroke:#000000;stroke-width:1.5;" width="1187.1396" x="13.626" y="126.9219"/><text fill="#000000" font-family="Helvetica" font-size="10" font-weight="700" x="28.626" y="137.2041">alt</text><text fill="#000000" font-family="Helvetica" font-size="10" font-weight="700" x="88.582" y="138.2041">[Kein ZETA Attestation Token vorhanden]</text><line style="stroke:#000000;stroke-width:1;stroke-dasharray:2,2;" x1="13.626" x2="1200.7656" y1="744.1406" y2="744.1406"/><text fill="#000000" font-family="Helvetica" font-size="10" font-weight="700" x="18.626" y="755.4229">[ZETA Attestation Token vorhanden (Fast-Path)]</text><polygon fill="#181818" points="692.8936,175.8438,702.8936,179.8438,692.8936,183.8438,696.8936,179.8438" style="stroke:#181818;stroke-width:1;stroke-linejoin:miter;stroke-miterlimit:10;"/><line style="stroke:#181818;stroke-width:1;" x1="243.8613" x2="698.8936" y1="179.8438" y2="179.8438"/><text fill="#000000" font-family="Helvetica" font-size="10" x="250.8613" y="169.665">(01)</text><text fill="#000000" font-family="Helvetica" font-size="10" x="275.3887" y="163.8447">POST /register</text><text fill="#000000" font-family="Helvetica" font-size="10" x="275.3887" y="175.4854">{attestation_type="apple", Apple_Attestation_Object, PuK.Client.Sig, redirect_uris}</text><line style="stroke:#181818;stroke-width:1;" x1="714.8936" x2="756.8936" y1="205.4844" y2="205.4844"/><line style="stroke:#181818;stroke-width:1;" x1="756.8936" x2="756.8936" y1="205.4844" y2="218.4844"/><line style="stroke:#181818;stroke-width:1;" x1="715.8936" x2="756.8936" y1="218.4844" y2="218.4844"/><polygon fill="#181818" points="725.8936,214.4844,715.8936,218.4844,725.8936,222.4844,721.8936,218.4844" style="stroke:#181818;stroke-width:1;stroke-linejoin:miter;stroke-miterlimit:10;"/><text fill="#000000" font-family="Helvetica" font-size="10" x="721.8936" y="201.126">(02)</text><text fill="#000000" font-family="Helvetica" font-size="10" x="746.4209" y="201.126">Validiere Apple_Attestation_Object</text><path d="M719.8936,231.4844 L719.8936,275.4844 L954.8936,275.4844 L954.8936,241.4844 L944.8936,231.4844 L719.8936,231.4844" fill="#FEFFDD" style="stroke:#181818;stroke-width:0.5;"/><path d="M944.8936,231.4844 L944.8936,241.4844 L954.8936,241.4844 L944.8936,231.4844" fill="#FEFFDD" style="stroke:#181818;stroke-width:0.5;"/><text fill="#000000" font-family="Helvetica" font-size="10" x="725.8936" y="245.7666">AuthS verifiziert Apple App Attest Root CA.</text><text fill="#000000" font-family="Helvetica" font-size="10" x="725.8936" y="257.4072">Extrahiert Hash(PuK.Client.Sig) aus Objekt</text><text fill="#000000" font-family="Helvetica" font-size="10" x="725.8936" y="269.0479">und vergleicht ihn mit dem Payload.</text><path d="M719.8936,286.4063 L719.8936,424.4063 L1178.8936,424.4063 L1178.8936,296.4063 L1168.8936,286.4063 L719.8936,286.4063" fill="#FEFFDD" style="stroke:#181818;stroke-width:0.5;"/><path d="M1168.8936,286.4063 L1168.8936,296.4063 L1178.8936,296.4063 L1168.8936,286.4063" fill="#FEFFDD" style="stroke:#181818;stroke-width:0.5;"/><text fill="#000000" font-family="Helvetica" font-size="10" x="725.8936" y="300.6885">Es werden zwei redirect_uris je App registriert (RFC 8252, claimed-HTTPS</text><text fill="#000000" font-family="Helvetica" font-size="10" x="725.8936" y="312.3291">Universal-/App-Links auf einer vom App-Hersteller kontrollierten Domain):</text><text fill="#000000" font-family="Helvetica" font-size="10" x="725.8936" y="323.9697">- https://&lt;App-FQDN&gt;/cb/&lt;app&gt;/as = redirect_uri_as</text><text fill="#000000" font-family="Helvetica" font-size="10" x="732.251" y="335.6104">(SekIDP Auth Code Flow, redirection_endpoint des AuthS, nicht /token)</text><text fill="#000000" font-family="Helvetica" font-size="10" x="725.8936" y="347.251">- https://&lt;App-FQDN&gt;/cb/&lt;app&gt;/app = redirect_uri_app</text><text fill="#000000" font-family="Helvetica" font-size="10" x="732.251" y="358.8916">(ZETA Guard Auth Code Flow, /token-Endpunkt des AuthS)</text><text fill="#000000" font-family="Helvetica" font-size="10" x="725.8936" y="370.5322">Beide Callbacks enden &#252;ber denselben App-Link/Universal-Link in der App;</text><text fill="#000000" font-family="Helvetica" font-size="10" x="725.8936" y="382.1729">der ZETA Client unterscheidet den zu nutzenden AuthS-Endpunkt anhand des Pfads.</text><text fill="#000000" font-family="Helvetica" font-size="10" x="725.8936" y="393.8135">Die OS-seitige Verkn&#252;pfung erfolgt &#252;ber apple-app-site-association</text><text fill="#000000" font-family="Helvetica" font-size="10" x="725.8936" y="405.4541">(Deployment, kein Laufzeit-Flow). Die App ist inkl. redirect_uris bei der gematik</text><text fill="#000000" font-family="Helvetica" font-size="10" x="725.8936" y="417.0947">registriert; der AuthS pr&#252;ft beim DCR, ob die &#252;bergebenen redirect_uris registriert sind.</text><line style="stroke:#181818;stroke-width:1;" x1="714.8936" x2="756.8936" y1="447.0938" y2="447.0938"/><line style="stroke:#181818;stroke-width:1;" x1="756.8936" x2="756.8936" y1="447.0938" y2="460.0938"/><line style="stroke:#181818;stroke-width:1;" x1="715.8936" x2="756.8936" y1="460.0938" y2="460.0938"/><polygon fill="#181818" points="725.8936,456.0938,715.8936,460.0938,725.8936,464.0938,721.8936,460.0938" style="stroke:#181818;stroke-width:1;stroke-linejoin:miter;stroke-miterlimit:10;"/><text fill="#000000" font-family="Helvetica" font-size="10" x="721.8936" y="442.7354">(03)</text><text fill="#000000" font-family="Helvetica" font-size="10" x="746.4209" y="442.7354">Store Client Placeholder (state: pending_user_binding)</text><line style="stroke:#181818;stroke-width:1;" x1="714.8936" x2="756.8936" y1="497.375" y2="497.375"/><line style="stroke:#181818;stroke-width:1;" x1="756.8936" x2="756.8936" y1="497.375" y2="510.375"/><line style="stroke:#181818;stroke-width:1;" x1="715.8936" x2="756.8936" y1="510.375" y2="510.375"/><polygon fill="#181818" points="725.8936,506.375,715.8936,510.375,725.8936,514.375,721.8936,510.375" style="stroke:#181818;stroke-width:1;stroke-linejoin:miter;stroke-miterlimit:10;"/><text fill="#000000" font-family="Helvetica" font-size="10" x="721.8936" y="487.1963">(04)</text><text fill="#000000" font-family="Helvetica" font-size="10" x="746.4209" y="481.376">Generiere OTP &amp; transaction_id</text><text fill="#000000" font-family="Helvetica" font-size="10" x="746.4209" y="493.0166">Speichere Request im tempor&#228;ren Cache</text><polygon fill="#181818" points="40.626,532.0156,30.626,536.0156,40.626,540.0156,36.626,536.0156" style="stroke:#181818;stroke-width:1;stroke-linejoin:miter;stroke-miterlimit:10;"/><line style="stroke:#181818;stroke-width:1;" x1="34.626" x2="703.8936" y1="536.0156" y2="536.0156"/><text fill="#000000" font-family="Helvetica" font-size="10" x="46.626" y="531.6572">(05)</text><text fill="#000000" font-family="Helvetica" font-size="10" x="71.1533" y="531.6572">E-Mail mit OTP-Best&#228;tigungscode (Out-of-Band)</text><polygon fill="#181818" points="254.8613,557.6563,244.8613,561.6563,254.8613,565.6563,250.8613,561.6563" style="stroke:#181818;stroke-width:1;stroke-linejoin:miter;stroke-miterlimit:10;"/><line style="stroke:#181818;stroke-width:1;stroke-dasharray:2,2;" x1="248.8613" x2="703.8936" y1="561.6563" y2="561.6563"/><text fill="#000000" font-family="Helvetica" font-size="10" x="260.8613" y="557.2979">(06)</text><text fill="#000000" font-family="Helvetica" font-size="10" x="285.3887" y="557.2979">202 Accepted {transaction_id, message="OTP sent"}</text><polygon fill="#181818" points="221.8613,583.2969,231.8613,587.2969,221.8613,591.2969,225.8613,587.2969" style="stroke:#181818;stroke-width:1;stroke-linejoin:miter;stroke-miterlimit:10;"/><line style="stroke:#181818;stroke-width:1;" x1="29.626" x2="227.8613" y1="587.2969" y2="587.2969"/><text fill="#000000" font-family="Helvetica" font-size="10" x="36.626" y="582.9385">(07)</text><text fill="#000000" font-family="Helvetica" font-size="10" x="61.1533" y="582.9385">Gibt OTP-Best&#228;tigungscode ein</text><polygon fill="#181818" points="692.8936,620.5781,702.8936,624.5781,692.8936,628.5781,696.8936,624.5781" style="stroke:#181818;stroke-width:1;stroke-linejoin:miter;stroke-miterlimit:10;"/><line style="stroke:#181818;stroke-width:1;" x1="243.8613" x2="698.8936" y1="624.5781" y2="624.5781"/><text fill="#000000" font-family="Helvetica" font-size="10" x="250.8613" y="614.3994">(08)</text><text fill="#000000" font-family="Helvetica" font-size="10" x="275.3887" y="608.5791">POST /register/verify</text><text fill="#000000" font-family="Helvetica" font-size="10" x="275.3887" y="620.2197">{transaction_id, code}</text><line style="stroke:#181818;stroke-width:1;" x1="714.8936" x2="756.8936" y1="650.2188" y2="650.2188"/><line style="stroke:#181818;stroke-width:1;" x1="756.8936" x2="756.8936" y1="650.2188" y2="663.2188"/><line style="stroke:#181818;stroke-width:1;" x1="715.8936" x2="756.8936" y1="663.2188" y2="663.2188"/><polygon fill="#181818" points="725.8936,659.2188,715.8936,663.2188,725.8936,667.2188,721.8936,663.2188" style="stroke:#181818;stroke-width:1;stroke-linejoin:miter;stroke-miterlimit:10;"/><text fill="#000000" font-family="Helvetica" font-size="10" x="721.8936" y="645.8604">(09)</text><text fill="#000000" font-family="Helvetica" font-size="10" x="746.4209" y="645.8604">Verifiziere OTP-Code gegen Cache</text><line style="stroke:#181818;stroke-width:1;" x1="714.8936" x2="756.8936" y1="712.1406" y2="712.1406"/><line style="stroke:#181818;stroke-width:1;" x1="756.8936" x2="756.8936" y1="712.1406" y2="725.1406"/><line style="stroke:#181818;stroke-width:1;" x1="715.8936" x2="756.8936" y1="725.1406" y2="725.1406"/><polygon fill="#181818" points="725.8936,721.1406,715.8936,725.1406,725.8936,729.1406,721.8936,725.1406" style="stroke:#181818;stroke-width:1;stroke-linejoin:miter;stroke-miterlimit:10;"/><text fill="#000000" font-family="Helvetica" font-size="10" x="721.8936" y="696.1416">(10)</text><text fill="#000000" font-family="Helvetica" font-size="10" x="746.4209" y="684.501">Stelle ZETA Guard Attestation Token aus</text><text fill="#000000" font-family="Helvetica" font-size="10" x="746.4209" y="696.1416">(attestation_type="apple", signiert, cnf=PuK.AK.Sig,</text><text fill="#000000" font-family="Helvetica" font-size="10" x="746.4209" y="707.7822">enth&#228;lt die registrierten redirect_uris)</text><polygon fill="#181818" points="692.8936,811.3438,702.8936,815.3438,692.8936,819.3438,696.8936,815.3438" style="stroke:#181818;stroke-width:1;stroke-linejoin:miter;stroke-miterlimit:10;"/><line style="stroke:#181818;stroke-width:1;" x1="243.8613" x2="698.8936" y1="815.3438" y2="815.3438"/><text fill="#000000" font-family="Helvetica" font-size="10" x="250.8613" y="793.5244">(11)</text><text fill="#000000" font-family="Helvetica" font-size="10" x="275.3887" y="776.0635">POST /register</text><text fill="#000000" font-family="Helvetica" font-size="10" x="275.3887" y="787.7041">{attestation_type="zeta_attestation_token",</text><text fill="#000000" font-family="Helvetica" font-size="10" x="275.3887" y="799.3447">zeta_guard_attestation_token, PuK.Client.Sig,</text><text fill="#000000" font-family="Helvetica" font-size="10" x="275.3887" y="810.9854">Besitznachweis (Signatur/Assertion)}</text><line style="stroke:#181818;stroke-width:1;" x1="714.8936" x2="756.8936" y1="840.9844" y2="840.9844"/><line style="stroke:#181818;stroke-width:1;" x1="756.8936" x2="756.8936" y1="840.9844" y2="853.9844"/><line style="stroke:#181818;stroke-width:1;" x1="715.8936" x2="756.8936" y1="853.9844" y2="853.9844"/><polygon fill="#181818" points="725.8936,849.9844,715.8936,853.9844,725.8936,857.9844,721.8936,853.9844" style="stroke:#181818;stroke-width:1;stroke-linejoin:miter;stroke-miterlimit:10;"/><text fill="#000000" font-family="Helvetica" font-size="10" x="721.8936" y="836.626">(12)</text><text fill="#000000" font-family="Helvetica" font-size="10" x="746.4209" y="836.626">Pr&#252;fe Token-Signatur &amp; Vertrauensstellung</text><line style="stroke:#181818;stroke-width:1;" x1="714.8936" x2="756.8936" y1="879.625" y2="879.625"/><line style="stroke:#181818;stroke-width:1;" x1="756.8936" x2="756.8936" y1="879.625" y2="892.625"/><line style="stroke:#181818;stroke-width:1;" x1="715.8936" x2="756.8936" y1="892.625" y2="892.625"/><polygon fill="#181818" points="725.8936,888.625,715.8936,892.625,725.8936,896.625,721.8936,892.625" style="stroke:#181818;stroke-width:1;stroke-linejoin:miter;stroke-miterlimit:10;"/><text fill="#000000" font-family="Helvetica" font-size="10" x="721.8936" y="875.2666">(13)</text><text fill="#000000" font-family="Helvetica" font-size="10" x="746.4209" y="875.2666">Extrahiere PuK.AK.Sig aus Token, verifiziere Besitznachweis</text><line style="stroke:#181818;stroke-width:1;" x1="714.8936" x2="756.8936" y1="929.9063" y2="929.9063"/><line style="stroke:#181818;stroke-width:1;" x1="756.8936" x2="756.8936" y1="929.9063" y2="942.9063"/><line style="stroke:#181818;stroke-width:1;" x1="715.8936" x2="756.8936" y1="942.9063" y2="942.9063"/><polygon fill="#181818" points="725.8936,938.9063,715.8936,942.9063,725.8936,946.9063,721.8936,942.9063" style="stroke:#181818;stroke-width:1;stroke-linejoin:miter;stroke-miterlimit:10;"/><text fill="#000000" font-family="Helvetica" font-size="10" x="721.8936" y="919.7275">(14)</text><text fill="#000000" font-family="Helvetica" font-size="10" x="746.4209" y="913.9072">&#220;bernimm registrierte redirect_uris aus dem Token</text><text fill="#000000" font-family="Helvetica" font-size="10" x="746.4209" y="925.5479">(kein erneutes Senden im Fast-Path)</text><path d="M196.5623,969.9063 L196.5623,1025.9063 L751.5623,1025.9063 L751.5623,979.9063 L741.5623,969.9063 L196.5623,969.9063" fill="#FEFFDD" style="stroke:#181818;stroke-width:0.5;"/><path d="M741.5623,969.9063 L741.5623,979.9063 L751.5623,979.9063 L741.5623,969.9063" fill="#FEFFDD" style="stroke:#181818;stroke-width:0.5;"/><text fill="#000000" font-family="Helvetica" font-size="10" x="245.4854" y="984.1885">Der zeta_guard_attestation_token zertifiziert die erfolgreiche Apple App Attest</text><text fill="#000000" font-family="Helvetica" font-size="10" x="245.4854" y="995.8291">Attestierung, ist an PuK.AK.Sig gebunden (cnf) und enth&#228;lt die registrierten</text><text fill="#000000" font-family="Helvetica" font-size="10" x="245.4854" y="1007.4697">redirect_uris. Er kann bei einer erneuten Registrierung im Fast-Path vorgelegt werden,</text><text fill="#000000" font-family="Helvetica" font-size="10" x="245.4854" y="1019.1104">sodass Hardware-Attestierung und redirect_uris nicht erneut &#252;bertragen werden m&#252;ssen.</text><polygon fill="#181818" points="254.8613,1056.75,244.8613,1060.75,254.8613,1064.75,250.8613,1060.75" style="stroke:#181818;stroke-width:1;stroke-linejoin:miter;stroke-miterlimit:10;"/><line style="stroke:#181818;stroke-width:1;stroke-dasharray:2,2;" x1="248.8613" x2="703.8936" y1="1060.75" y2="1060.75"/><text fill="#000000" font-family="Helvetica" font-size="10" x="260.8613" y="1050.5713">(15)</text><text fill="#000000" font-family="Helvetica" font-size="10" x="285.3887" y="1044.751">201 Created {client_id, status="pending_user_binding",</text><text fill="#000000" font-family="Helvetica" font-size="10" x="285.3887" y="1056.3916">zeta_guard_attestation_token (bei HW-Attestierung ausgestellt)}</text><?plantuml-src ZLRRRXf947tdAoeyR41c86jffPLZMoA04yj9O04xsXKIQcQQeSFGFTlTOyUEyYVxcC_m6p-sfxl1W8sJl0pCfQjEdJfrUI5ad1K9ftgzaHUBBChOhIfitNwnfHABhT9qQRWcPgZyiR1tN9TBfOdwGkM5ceYCKpFFSMtpQn7pChKxL-UjphZLVT_jbuZyX_YYJBt--OTcfp_uUp3iV7XuJvGpRKKiSYOjjJB1yUDS_TCPDbVtPJe-lkEMdPxY09U9CrfQ_mOeJJaHt0Bby9mEww-eZNF6EgVTg_Dsfx-Bnzj-Mp2TbCdz7x-zRFRRps1g5dOsy91wxTv8kbkbnHspGaaQS7qDGdu8C0HnS51YcQKBBgJtIKrhkR71p53DkQHhfMTC9bnw3Fwo8YGw3J0E3ewernqCgQ5vAWm27iclR6DeR6zpVb9cBYFbMiZCUClHk3lvp6DRervnKG-swmEHraZpH6Yy6HTQc6_UTOXxxVc8hbWc4i4rVzQiFoQLvQH5EhEafkkpmHQO4bDn1njs9HfSLpnGNodalraVoSuNgzdCV_MEcLbb5skLM678EPpRaIn0Cioc6HSnF8gPf8MmbF05zTXjfbXIBpq7opydwXYwuHgiqzqD5xjCqEU0CR2jFQPA_wn5Vnx-SLYZE6DYmPFetN3OMvkxb0A03CkY1av6xuMS6q2U4X8FVLwhXRCOlSCtbcSP7isLj5fbcRCE56srO49MZrRs8ffPcvkZHkFOdJlxg_tnj15F6iT8yca3iZpPWJncPdMGg3BWy_DspqTBBOKIFylKpIRPBdDGQQw4T9IPG4kDfEUoOPqegxy60nmznf7d6o2RWdi29hY9Ei1HoFaMZhNdDrpWunRBiWcBmILt5KBB-mcemp_3imdkrrmtDloxMqAr9VWGhr-lxBdRhUP2XKGPcNZct3Ztq451qZKwxyXZsS1ZqfMeHzcRiiJKLrRHSAWxY0mNLgIShhYUo-LzFYraIbnFLPRQ5MPVd16kaH4MVunHiV1bj39LQVCyKxSBWAlHtFMBzz3F7In7Zh9gtJjpieGc4U0ygpzIxGGwTc6cV073yvNTBH6_3gJugiprydvgtPa5jLlz6ga9eSu3sfI3NB2mQt-x78oGII31DJnNPgMzxME0GSBNdFSo5lEPoXoAYciY_8Xod1So7HSODkE9y3VLOEib3NM1MBkIpWJgnWqagWoxPvVLlRxU0hFshQexxD5lX7uY3Gk25yb83dBNBjpxFl-tSDq7iLk-o9LUVjS8jyNmUjUqcu57r8a-C97v7WFJqHkSNNv7nf5c4pjHLxg5ZTGqUWELL3Tz_ELgKa0_zaQXpgstSVWANKIgU4ONdVEF7JGKHmymljXs3k-1joWwSaUe6SSyjpoXhxkHrMZ1ZM4fHe0BtBZP-MrDuIVCDEuxKPZYKGS4iqa8qq_u1pzWK4oUYn22t8xhoZVrUPXZeVVg7IxFsxysoHf-FDnYe3qEohbzPYOzJ1IVwiZtbPId-rFue4JNTscx9pqPnPWn8rbvVh8QaKedVu2JqnCtePeNVfAEK2rsjloEKU-AQAjI7bSHj5tYcU4_tGQeSiQCZNhCpghxgFobbS2j9-ETnyv96NZzczJnyFJzaqLX9248OUyasCMqD9WnO8BPGZUQ1XfoHwlxSzLpVOQ7uABrAHGdSeY45-ZaVY12PtkFFsm5d3Pq-rrW691URsbX5-HUUyl_qDwaM2nsSlIeqJdpRfVmBY08turnZ1SW2YNjquFUiPKWF2kL_BQXNBq7xceF6qSRptx4E5w2nFMMv2GKfeVs7Ul9sWIBuGy-1tCrFnAOtAO8BRm8Ce9Kg-GsfkSbMg9T1khKmOB2fFGp9Qmmg_WbckVwf9jospGuyQOyunXwORUgmR1H2OOTTZgTt33DestW7jOkzs4B2Sx2C880N6MljhN5yXwAa_NIPkxixvU_KqjpvjlbGtz51OFrmfoKzusTdvK5LHmRxpxjXW2nfDnhsA84_WS0?></g></svg>