<svg xmlns="http://www.w3.org/2000/svg" xmlns:xlink="http://www.w3.org/1999/xlink" contentStyleType="text/css" data-diagram-type="SEQUENCE" height="1137px" preserveAspectRatio="none" style="width:1270px;height:1137px;background:#FFFFFF;" version="1.1" viewBox="0 0 1270 1137" width="1270px" zoomAndPan="magnify"><?plantuml 1.2026.6?><defs/><g><rect fill="#FEFCFF" height="1111.3906" style="stroke:#181818;stroke-width:0.5;" width="87.1543" x="16" y="11"/><text fill="#000000" font-family="Helvetica" font-size="10" font-weight="700" x="28" y="20.2822">Mobile App</text><rect fill="#EDFDEC" height="1111.3906" style="stroke:#181818;stroke-width:0.5;" width="147.7842" x="403.8218" y="11"/><text fill="#000000" font-family="Helvetica" font-size="10" font-weight="700" x="415.8218" y="20.2822">Anbieter TI 2.0 Dienst</text><rect fill="#FFF3E5" height="1094.75" style="stroke:#181818;stroke-width:0.5;" width="147.7842" x="403.8218" y="27.6406"/><text fill="#000000" font-family="Helvetica" font-size="10" font-weight="700" x="444.5693" y="36.9229">ZETA Guard</text><rect fill="#EAF2FF" height="1111.3906" style="stroke:#181818;stroke-width:0.5;" width="386.5356" x="867.1577" y="11"/><text fill="#000000" font-family="Helvetica" font-size="10" font-weight="700" x="1022.3201" y="20.2822">TI-F&#246;deration</text><g><title>ZETA Client</title><rect fill="#000000" fill-opacity="0.00000" height="973.2656" width="8" x="56.0771" y="93.2031"/><line style="stroke:#000000;stroke-width:0.5;stroke-dasharray:5,5;" x1="59.5771" x2="59.5771" y1="93.2031" y2="1066.4688"/></g><g><title/><rect fill="#FFFFFF" height="965.2656" style="stroke:#181818;stroke-width:1;" width="10" x="54.5771" y="101.2031"/></g><g><title>PDP</title><rect fill="#000000" fill-opacity="0.00000" height="973.2656" width="8" x="474.2139" y="93.2031"/><line style="stroke:#000000;stroke-width:0.5;stroke-dasharray:5,5;" x1="477.7139" x2="477.7139" y1="93.2031" y2="1066.4688"/></g><g><title/><rect fill="#FFFFFF" height="781.1406" style="stroke:#181818;stroke-width:1;" width="10" x="472.7139" y="235.6875"/></g><g><title>Sektoraler IDP</title><rect fill="#000000" fill-opacity="0.00000" height="973.2656" width="8" x="914.1426" y="93.2031"/><line style="stroke:#000000;stroke-width:0.5;stroke-dasharray:5,5;" x1="917.6426" x2="917.6426" y1="93.2031" y2="1066.4688"/></g><g><title/><rect fill="#FFFFFF" height="25.6406" style="stroke:#181818;stroke-width:1;" width="10" x="912.6426" y="440.8125"/></g><g><title/><rect fill="#FFFFFF" height="282.0469" style="stroke:#181818;stroke-width:1;" width="10" x="912.6426" y="685.8594"/></g><g><title>Federation</title><rect fill="#000000" fill-opacity="0.00000" height="973.2656" width="8" x="1212.2939" y="93.2031"/><line style="stroke:#000000;stroke-width:0.5;stroke-dasharray:5,5;" x1="1215.7939" x2="1215.7939" y1="93.2031" y2="1066.4688"/></g><g><title/><rect fill="#FFFFFF" height="25.6406" style="stroke:#181818;stroke-width:1;" width="10" x="1210.7939" y="492.0938"/></g><g><title/><rect fill="#FFFFFF" height="25.6406" style="stroke:#181818;stroke-width:1;" width="10" x="1210.7939" y="790.4219"/></g><rect fill="#FFE6CC" height="25.6406" rx="2.5" ry="2.5" style="stroke:#D79B00;stroke-width:0.5;" width="72.2471" x="23.4536" y="66.5625"/><text fill="#000000" font-family="Helvetica" font-size="10" x="30.4536" y="82.8447">ZETA Client</text><rect fill="#FFE6CC" height="48.9219" rx="2.5" ry="2.5" style="stroke:#D79B00;stroke-width:0.5;" width="117.0322" x="419.1978" y="43.2813"/><text fill="#000000" font-family="Helvetica" font-size="10" x="467.8335" y="59.5635">PDP</text><text fill="#000000" font-family="Helvetica" font-size="10" x="426.2393" y="71.2041">Authorization Server</text><text fill="#000000" font-family="Helvetica" font-size="10" x="426.1978" y="82.8447">(OIDC Relying Party)</text><rect fill="#E2E2F0" height="37.2813" rx="2.5" ry="2.5" style="stroke:#181818;stroke-width:0.5;" width="92.9697" x="871.1577" y="54.9219"/><text fill="#000000" font-family="Helvetica" font-size="10" x="881.9077" y="71.2041">Sektoraler IDP</text><text fill="#000000" font-family="Helvetica" font-size="10" x="878.1577" y="82.8447">(PAR-Endpunkt)</text><rect fill="#E2E2F0" height="37.2813" rx="2.5" ry="2.5" style="stroke:#181818;stroke-width:0.5;" width="67.7988" x="1181.8945" y="54.9219"/><text fill="#000000" font-family="Helvetica" font-size="10" x="1188.8945" y="71.2041">Federation</text><text fill="#000000" font-family="Helvetica" font-size="10" x="1198.7188" y="82.8447">Master</text><rect fill="#FFE6CC" height="25.6406" rx="2.5" ry="2.5" style="stroke:#D79B00;stroke-width:0.5;" width="72.2471" x="23.4536" y="1066.4688"/><text fill="#000000" font-family="Helvetica" font-size="10" x="30.4536" y="1082.751">ZETA Client</text><rect fill="#FFE6CC" height="48.9219" rx="2.5" ry="2.5" style="stroke:#D79B00;stroke-width:0.5;" width="117.0322" x="419.1978" y="1066.4688"/><text fill="#000000" font-family="Helvetica" font-size="10" x="467.8335" y="1082.751">PDP</text><text fill="#000000" font-family="Helvetica" font-size="10" x="426.2393" y="1094.3916">Authorization Server</text><text fill="#000000" font-family="Helvetica" font-size="10" x="426.1978" y="1106.0322">(OIDC Relying Party)</text><rect fill="#E2E2F0" height="37.2813" rx="2.5" ry="2.5" style="stroke:#181818;stroke-width:0.5;" width="92.9697" x="871.1577" y="1066.4688"/><text fill="#000000" font-family="Helvetica" font-size="10" x="881.9077" y="1082.751">Sektoraler IDP</text><text fill="#000000" font-family="Helvetica" font-size="10" x="878.1577" y="1094.3916">(PAR-Endpunkt)</text><rect fill="#E2E2F0" height="37.2813" rx="2.5" ry="2.5" style="stroke:#181818;stroke-width:0.5;" width="67.7988" x="1181.8945" y="1066.4688"/><text fill="#000000" font-family="Helvetica" font-size="10" x="1188.8945" y="1082.751">Federation</text><text fill="#000000" font-family="Helvetica" font-size="10" x="1198.7188" y="1094.3916">Master</text><path d="M17.2573,106.2031 L17.2573,127.2031 L519.2573,127.2031 L519.2573,116.2031 L509.2573,106.2031 L17.2573,106.2031" fill="#FEFFDD" style="stroke:#181818;stroke-width:0.5;"/><path d="M509.2573,106.2031 L509.2573,116.2031 L519.2573,116.2031 L509.2573,106.2031" fill="#FEFFDD" style="stroke:#181818;stroke-width:0.5;"/><text fill="#000000" font-family="Helvetica" font-size="10" x="57.4731" y="120.4854">Der ZETA Client hat vom Fach-Client den fachlichen Request inkl. idp_iss erhalten.</text><line style="stroke:#181818;stroke-width:1;" x1="64.5771" x2="106.5771" y1="173.7656" y2="173.7656"/><line style="stroke:#181818;stroke-width:1;" x1="106.5771" x2="106.5771" y1="173.7656" y2="186.7656"/><line style="stroke:#181818;stroke-width:1;" x1="65.5771" x2="106.5771" y1="186.7656" y2="186.7656"/><polygon fill="#181818" points="75.5771,182.7656,65.5771,186.7656,75.5771,190.7656,71.5771,186.7656" style="stroke:#181818;stroke-width:1;stroke-linejoin:miter;stroke-miterlimit:10;"/><text fill="#000000" font-family="Helvetica" font-size="10" x="71.5771" y="157.7666">(01)</text><text fill="#000000" font-family="Helvetica" font-size="10" x="96.1045" y="146.126">Erzeuge PKCE (code_verifier_app),</text><text fill="#000000" font-family="Helvetica" font-size="10" x="96.1045" y="157.7666">code_challenge_app = S256(code_verifier_app),</text><text fill="#000000" font-family="Helvetica" font-size="10" x="96.1045" y="169.4072">state_app</text><polygon fill="#181818" points="460.7139,231.6875,470.7139,235.6875,460.7139,239.6875,464.7139,235.6875" style="stroke:#181818;stroke-width:1;stroke-linejoin:miter;stroke-miterlimit:10;"/><line style="stroke:#181818;stroke-width:1;" x1="64.5771" x2="466.7139" y1="235.6875" y2="235.6875"/><text fill="#000000" font-family="Helvetica" font-size="10" x="71.5771" y="219.6885">(02)</text><text fill="#000000" font-family="Helvetica" font-size="10" x="96.1045" y="208.0479">POST /par (private_key_jwt, client_assertion)</text><text fill="#000000" font-family="Helvetica" font-size="10" x="102.4619" y="219.6885">{response_type=code, client_id, redirect_uri_app, code_challenge_app,</text><text fill="#000000" font-family="Helvetica" font-size="10" x="102.4619" y="231.3291">code_challenge_method=S256, scope, state_app, idp_iss}</text><line style="stroke:#181818;stroke-width:1;" x1="482.7139" x2="524.7139" y1="261.3281" y2="261.3281"/><line style="stroke:#181818;stroke-width:1;" x1="524.7139" x2="524.7139" y1="261.3281" y2="274.3281"/><line style="stroke:#181818;stroke-width:1;" x1="483.7139" x2="524.7139" y1="274.3281" y2="274.3281"/><polygon fill="#181818" points="493.7139,270.3281,483.7139,274.3281,493.7139,278.3281,489.7139,274.3281" style="stroke:#181818;stroke-width:1;stroke-linejoin:miter;stroke-miterlimit:10;"/><text fill="#000000" font-family="Helvetica" font-size="10" x="489.7139" y="256.9697">(03)</text><text fill="#000000" font-family="Helvetica" font-size="10" x="514.2412" y="256.9697">Validiere &amp; speichere Request-Parameter, erzeuge request_uri_app</text><polygon fill="#181818" points="75.5771,295.9688,65.5771,299.9688,75.5771,303.9688,71.5771,299.9688" style="stroke:#181818;stroke-width:1;stroke-linejoin:miter;stroke-miterlimit:10;"/><line style="stroke:#181818;stroke-width:1;stroke-dasharray:2,2;" x1="69.5771" x2="471.7139" y1="299.9688" y2="299.9688"/><text fill="#000000" font-family="Helvetica" font-size="10" x="81.5771" y="295.6104">(04)</text><text fill="#000000" font-family="Helvetica" font-size="10" x="106.1045" y="295.6104">201 Created {request_uri_app, expires_in (5s)}</text><polygon fill="#181818" points="460.7139,321.6094,470.7139,325.6094,460.7139,329.6094,464.7139,325.6094" style="stroke:#181818;stroke-width:1;stroke-linejoin:miter;stroke-miterlimit:10;"/><line style="stroke:#181818;stroke-width:1;" x1="64.5771" x2="466.7139" y1="325.6094" y2="325.6094"/><text fill="#000000" font-family="Helvetica" font-size="10" x="71.5771" y="321.251">(05)</text><text fill="#000000" font-family="Helvetica" font-size="10" x="96.1045" y="321.251">GET /authorize?client_id=...&amp;request_uri=request_uri_app</text><line style="stroke:#181818;stroke-width:1;" x1="482.7139" x2="524.7139" y1="374.5313" y2="374.5313"/><line style="stroke:#181818;stroke-width:1;" x1="524.7139" x2="524.7139" y1="374.5313" y2="387.5313"/><line style="stroke:#181818;stroke-width:1;" x1="483.7139" x2="524.7139" y1="387.5313" y2="387.5313"/><polygon fill="#181818" points="493.7139,383.5313,483.7139,387.5313,493.7139,391.5313,489.7139,387.5313" style="stroke:#181818;stroke-width:1;stroke-linejoin:miter;stroke-miterlimit:10;"/><text fill="#000000" font-family="Helvetica" font-size="10" x="489.7139" y="358.5322">(06)</text><text fill="#000000" font-family="Helvetica" font-size="10" x="514.2412" y="346.8916">Erzeuge PKCE (code_verifier_as),</text><text fill="#000000" font-family="Helvetica" font-size="10" x="514.2412" y="358.5322">code_challenge_as = S256(code_verifier_as),</text><text fill="#000000" font-family="Helvetica" font-size="10" x="514.2412" y="370.1729">state_as, nonce</text><path d="M461.7139,399.5313 L525.5225,399.5313 L525.5225,403.1719 L515.5225,413.1719 L461.7139,413.1719 L461.7139,399.5313" fill="#EEEEEE" style="stroke:#000000;stroke-width:1.5;"/><rect fill="none" height="176.4844" style="stroke:#000000;stroke-width:1.5;" width="775.0801" x="461.7139" y="399.5313"/><text fill="#000000" font-family="Helvetica" font-size="10" font-weight="700" x="476.7139" y="409.8135">opt</text><text fill="#000000" font-family="Helvetica" font-size="10" font-weight="700" x="540.5225" y="410.8135">[Entity Statement des IDP unbekannt]</text><polygon fill="#181818" points="900.6426,436.8125,910.6426,440.8125,900.6426,444.8125,904.6426,440.8125" style="stroke:#181818;stroke-width:1;stroke-linejoin:miter;stroke-miterlimit:10;"/><line style="stroke:#181818;stroke-width:1;" x1="482.7139" x2="906.6426" y1="440.8125" y2="440.8125"/><text fill="#000000" font-family="Helvetica" font-size="10" x="489.7139" y="436.4541">(07)</text><text fill="#000000" font-family="Helvetica" font-size="10" x="514.2412" y="436.4541">GET /.well-known/openid-federation</text><polygon fill="#181818" points="493.7139,462.4531,483.7139,466.4531,493.7139,470.4531,489.7139,466.4531" style="stroke:#181818;stroke-width:1;stroke-linejoin:miter;stroke-miterlimit:10;"/><line style="stroke:#181818;stroke-width:1;stroke-dasharray:2,2;" x1="487.7139" x2="911.6426" y1="466.4531" y2="466.4531"/><text fill="#000000" font-family="Helvetica" font-size="10" x="499.7139" y="462.0947">(08)</text><text fill="#000000" font-family="Helvetica" font-size="10" x="524.2412" y="462.0947">Entity Statement (signiert)</text><polygon fill="#181818" points="1198.7939,488.0938,1208.7939,492.0938,1198.7939,496.0938,1202.7939,492.0938" style="stroke:#181818;stroke-width:1;stroke-linejoin:miter;stroke-miterlimit:10;"/><line style="stroke:#181818;stroke-width:1;" x1="482.7139" x2="1204.7939" y1="492.0938" y2="492.0938"/><text fill="#000000" font-family="Helvetica" font-size="10" x="489.7139" y="487.7354">(09)</text><text fill="#000000" font-family="Helvetica" font-size="10" x="514.2412" y="487.7354">GET federation_fetch_endpoint?sub=&lt;idp_iss&gt;</text><polygon fill="#181818" points="493.7139,513.7344,483.7139,517.7344,493.7139,521.7344,489.7139,517.7344" style="stroke:#181818;stroke-width:1;stroke-linejoin:miter;stroke-miterlimit:10;"/><line style="stroke:#181818;stroke-width:1;stroke-dasharray:2,2;" x1="487.7139" x2="1209.7939" y1="517.7344" y2="517.7344"/><text fill="#000000" font-family="Helvetica" font-size="10" x="499.7139" y="513.376">(10)</text><text fill="#000000" font-family="Helvetica" font-size="10" x="524.2412" y="513.376">Entity Statement des IDP (signiert, Federation Master)</text><line style="stroke:#181818;stroke-width:1;" x1="482.7139" x2="524.7139" y1="555.0156" y2="555.0156"/><line style="stroke:#181818;stroke-width:1;" x1="524.7139" x2="524.7139" y1="555.0156" y2="568.0156"/><line style="stroke:#181818;stroke-width:1;" x1="483.7139" x2="524.7139" y1="568.0156" y2="568.0156"/><polygon fill="#181818" points="493.7139,564.0156,483.7139,568.0156,493.7139,572.0156,489.7139,568.0156" style="stroke:#181818;stroke-width:1;stroke-linejoin:miter;stroke-miterlimit:10;"/><text fill="#000000" font-family="Helvetica" font-size="10" x="489.7139" y="544.8369">(11)</text><text fill="#000000" font-family="Helvetica" font-size="10" x="514.2412" y="539.0166">Validiere Trust Chain, importiere Signaturschl&#252;ssel</text><text fill="#000000" font-family="Helvetica" font-size="10" x="514.2412" y="550.6572">und OP-Metadaten (PAR-, Authorization-, Token-Endpunkt) des IDP</text><path d="M416.6558,595.0156 L416.6558,639.0156 L978.6558,639.0156 L978.6558,605.0156 L968.6558,595.0156 L416.6558,595.0156" fill="#FEFFDD" style="stroke:#181818;stroke-width:0.5;"/><path d="M968.6558,595.0156 L968.6558,605.0156 L978.6558,605.0156 L968.6558,595.0156" fill="#FEFFDD" style="stroke:#181818;stroke-width:0.5;"/><text fill="#000000" font-family="Helvetica" font-size="10" x="422.6558" y="609.2979">redirect_uri_as ist der Redirection-Endpunkt der OIDC Relying Party (AuthS) f&#252;r den SekIDP Auth Code Flow.</text><text fill="#000000" font-family="Helvetica" font-size="10" x="422.6558" y="620.9385">Sie wird im Entity Statement des AS (Fachdienst) gef&#252;hrt; der SekIDP pr&#252;ft beim PAR, ob redirect_uri_as</text><text fill="#000000" font-family="Helvetica" font-size="10" x="422.6558" y="632.5791">eine bekannte redirect_uri aus diesem AS-Entity-Statement ist.</text><polygon fill="#181818" points="900.6426,681.8594,910.6426,685.8594,900.6426,689.8594,904.6426,685.8594" style="stroke:#181818;stroke-width:1;stroke-linejoin:miter;stroke-miterlimit:10;"/><line style="stroke:#181818;stroke-width:1;" x1="482.7139" x2="906.6426" y1="685.8594" y2="685.8594"/><text fill="#000000" font-family="Helvetica" font-size="10" x="489.7139" y="669.8604">(12)</text><text fill="#000000" font-family="Helvetica" font-size="10" x="514.2412" y="658.2197">POST /PAR (mTLS, self_signed_tls_client_auth)</text><text fill="#000000" font-family="Helvetica" font-size="10" x="520.5986" y="669.8604">{client_id, redirect_uri_as, response_type=code, code_challenge_as,</text><text fill="#000000" font-family="Helvetica" font-size="10" x="520.5986" y="681.501">code_challenge_method=S256, scope, claims, acr_values, nonce, state_as}</text><path d="M461.7139,697.8594 L525.5225,697.8594 L525.5225,701.5 L515.5225,711.5 L461.7139,711.5 L461.7139,697.8594" fill="#EEEEEE" style="stroke:#000000;stroke-width:1.5;"/><rect fill="none" height="176.4844" style="stroke:#000000;stroke-width:1.5;" width="775.0801" x="461.7139" y="697.8594"/><text fill="#000000" font-family="Helvetica" font-size="10" font-weight="700" x="476.7139" y="708.1416">opt</text><text fill="#000000" font-family="Helvetica" font-size="10" font-weight="700" x="540.5225" y="709.1416">[Entity Statement des Fachdienstes unbekannt]</text><polygon fill="#181818" points="493.7139,735.1406,483.7139,739.1406,493.7139,743.1406,489.7139,739.1406" style="stroke:#181818;stroke-width:1;stroke-linejoin:miter;stroke-miterlimit:10;"/><line style="stroke:#181818;stroke-width:1;" x1="487.7139" x2="911.6426" y1="739.1406" y2="739.1406"/><text fill="#000000" font-family="Helvetica" font-size="10" x="499.7139" y="734.7822">(13)</text><text fill="#000000" font-family="Helvetica" font-size="10" x="524.2412" y="734.7822">GET /.well-known/openid-federation</text><polygon fill="#181818" points="900.6426,760.7813,910.6426,764.7813,900.6426,768.7813,904.6426,764.7813" style="stroke:#181818;stroke-width:1;stroke-linejoin:miter;stroke-miterlimit:10;"/><line style="stroke:#181818;stroke-width:1;stroke-dasharray:2,2;" x1="482.7139" x2="906.6426" y1="764.7813" y2="764.7813"/><text fill="#000000" font-family="Helvetica" font-size="10" x="489.7139" y="760.4229">(14)</text><text fill="#000000" font-family="Helvetica" font-size="10" x="514.2412" y="760.4229">Entity Statement des Fachdienstes (signiert)</text><polygon fill="#181818" points="1198.7939,786.4219,1208.7939,790.4219,1198.7939,794.4219,1202.7939,790.4219" style="stroke:#181818;stroke-width:1;stroke-linejoin:miter;stroke-miterlimit:10;"/><line style="stroke:#181818;stroke-width:1;" x1="922.6426" x2="1204.7939" y1="790.4219" y2="790.4219"/><text fill="#000000" font-family="Helvetica" font-size="10" x="929.6426" y="786.0635">(15)</text><text fill="#000000" font-family="Helvetica" font-size="10" x="954.1699" y="786.0635">GET federation_fetch_endpoint?sub=&lt;client_id&gt;</text><polygon fill="#181818" points="933.6426,812.0625,923.6426,816.0625,933.6426,820.0625,929.6426,816.0625" style="stroke:#181818;stroke-width:1;stroke-linejoin:miter;stroke-miterlimit:10;"/><line style="stroke:#181818;stroke-width:1;stroke-dasharray:2,2;" x1="927.6426" x2="1209.7939" y1="816.0625" y2="816.0625"/><text fill="#000000" font-family="Helvetica" font-size="10" x="939.6426" y="811.7041">(16)</text><text fill="#000000" font-family="Helvetica" font-size="10" x="964.1699" y="811.7041">Entity Statement des Fachdienstes (signiert)</text><line style="stroke:#181818;stroke-width:1;" x1="922.6426" x2="964.6426" y1="853.3438" y2="853.3438"/><line style="stroke:#181818;stroke-width:1;" x1="964.6426" x2="964.6426" y1="853.3438" y2="866.3438"/><line style="stroke:#181818;stroke-width:1;" x1="923.6426" x2="964.6426" y1="866.3438" y2="866.3438"/><polygon fill="#181818" points="933.6426,862.3438,923.6426,866.3438,933.6426,870.3438,929.6426,866.3438" style="stroke:#181818;stroke-width:1;stroke-linejoin:miter;stroke-miterlimit:10;"/><text fill="#000000" font-family="Helvetica" font-size="10" x="929.6426" y="843.165">(17)</text><text fill="#000000" font-family="Helvetica" font-size="10" x="954.1699" y="837.3447">Validiere Trust Chain, Automatic Registration,</text><text fill="#000000" font-family="Helvetica" font-size="10" x="954.1699" y="848.9854">importiere Schl&#252;ssel (sig/enc) des Fachdienstes</text><line style="stroke:#181818;stroke-width:1;" x1="922.6426" x2="964.6426" y1="929.2656" y2="929.2656"/><line style="stroke:#181818;stroke-width:1;" x1="964.6426" x2="964.6426" y1="929.2656" y2="942.2656"/><line style="stroke:#181818;stroke-width:1;" x1="923.6426" x2="964.6426" y1="942.2656" y2="942.2656"/><polygon fill="#181818" points="933.6426,938.2656,923.6426,942.2656,933.6426,946.2656,929.6426,942.2656" style="stroke:#181818;stroke-width:1;stroke-linejoin:miter;stroke-miterlimit:10;"/><text fill="#000000" font-family="Helvetica" font-size="10" x="929.6426" y="913.2666">(18)</text><text fill="#000000" font-family="Helvetica" font-size="10" x="954.1699" y="901.626">Validiere PAR: redirect_uri_as gegen redirect_uris</text><text fill="#000000" font-family="Helvetica" font-size="10" x="954.1699" y="913.2666">im AS-Entity-Statement, scope, claims,</text><text fill="#000000" font-family="Helvetica" font-size="10" x="954.1699" y="924.9072">TLS-Clientzertifikat; erzeuge request_uri</text><polygon fill="#181818" points="493.7139,963.9063,483.7139,967.9063,493.7139,971.9063,489.7139,967.9063" style="stroke:#181818;stroke-width:1;stroke-linejoin:miter;stroke-miterlimit:10;"/><line style="stroke:#181818;stroke-width:1;stroke-dasharray:2,2;" x1="487.7139" x2="911.6426" y1="967.9063" y2="967.9063"/><text fill="#000000" font-family="Helvetica" font-size="10" x="499.7139" y="963.5479">(19)</text><text fill="#000000" font-family="Helvetica" font-size="10" x="524.2412" y="963.5479">201 Created {request_uri, expires_in (max. 90s)}</text><polygon fill="#181818" points="75.5771,1012.8281,65.5771,1016.8281,75.5771,1020.8281,71.5771,1016.8281" style="stroke:#181818;stroke-width:1;stroke-linejoin:miter;stroke-miterlimit:10;"/><line style="stroke:#181818;stroke-width:1;stroke-dasharray:2,2;" x1="69.5771" x2="471.7139" y1="1016.8281" y2="1016.8281"/><text fill="#000000" font-family="Helvetica" font-size="10" x="81.5771" y="1000.8291">(20)</text><text fill="#000000" font-family="Helvetica" font-size="10" x="106.1045" y="989.1885">302 Found Location:</text><text fill="#000000" font-family="Helvetica" font-size="10" x="106.1045" y="1000.8291">&lt;SekIDP Entity Statement authorization_endpoint&gt;</text><text fill="#000000" font-family="Helvetica" font-size="10" x="106.1045" y="1012.4697">?client_id&amp;request_uri</text><path d="M23.2729,1029.8281 L23.2729,1050.8281 L953.2729,1050.8281 L953.2729,1039.8281 L943.2729,1029.8281 L23.2729,1029.8281" fill="#FEFFDD" style="stroke:#181818;stroke-width:0.5;"/><path d="M943.2729,1029.8281 L943.2729,1039.8281 L953.2729,1039.8281 L943.2729,1029.8281" fill="#FEFFDD" style="stroke:#181818;stroke-width:0.5;"/><text fill="#000000" font-family="Helvetica" font-size="10" x="312.3276" y="1044.1104">Weiter mit Teildiagramm (B) Abb-ZETA-OIDC-Nutzerauthentisierung.</text><?plantuml-src ZLRRRkCs47tNLqnTO6iZbfAcs09raonSNmAZIMF4xXOe30YqDBPPIvHAKhaL-rjzobj-h4FgOlcspPjDaNDc3kUSuJTS154M8dZUQPh5aHknvoJJddxIZkDy1rFaKSZPKh8uXcQtrO5kfbU9v2zCyqJ0FVwTeT8Gee8_1zCkz2AEGaFCDOmpjSBmo87ck7lVAW3WWJvqvtFNH73lHlsUQmvH7BxWBnnb9fPkdCnvXDBD0PJZp9CdQDpQLUYcQGFwWy-Zti3ltTtStJi0APEQ1pnbb4wH5LFGg6NPW8kB5zJiwif14G85BA9snPoZHWdJ4PnxPz2dtOgsZ-_lFe_wW_iAm-ws4Qyp9iE6vS2__hrxtw_sR6TY2flOHCRzyKniapD1-O1o9fg60w8gUkPY2MCw_jog9GjGfhkTzdJa3j_-3L7QQ0tuTj0TdW-7EroC-cEBFy6rJYGZJiqIWTADk0CHffbOwrPZvzJmrXuQOXb-9cwP8euQcoHoLazE795eX8HAAOXkvsLte4zBzJPPCKsN7yEG1QlYPgcL12peVyG3Qe6gORXOHnxmCFMvKe1onIADmYjHmRqgWdPW85ymMoACV-qDe1aa8VgK2_KIIf-bQQiz4tOne1WHYYMQLRY4oVd77mzlLvffkwiEPsiwEUd0-6uoXLDY2vgfv0zcwngV_RyUgV30RlUPKYWDRQsP0FX7eaeJeT3NpobU6iXg9m_R837a4WFjPv8RLFgubs_R1DfPZf6wARmqTRH11KbAOQlKsoLvNvoy2SiIEW2VMSH3gXVX0wWK3VFqkw3UfGPaiT53ctZFgPNvfpB1CcBj4ixFleUUH08FJRrRsodEKqeLAfyBQ7vKhI-xj7RWUa2Sia8U-AbYvzBpl0-rU9UxgUnLzzLsK8UwGHrf1bNh1TK6aOW07IT9DGp8g_GpJCotEEzYPPMMYJckcH3QEa6L6dqodMEBz1unYjorI1x5ALsPuA6xg6HcZvb0RbcGwtRsuPgABmNbg5lRECFR4cOJqb-W3bO-oJPDkD2VL3Q_l2XwuyeU9x5_7Qwihe9jmyOP83U6dKoAozXqsbHc9ElUYd51hHcd2Ud3h4ye9DEPL6G1Rw-acsWcChAOkx5xI_uNKWx2ZW-tlJrRwFyqMQFOc5YPfx4ef-PADfUs_G8xObF0xJYJrFtvkebSHhGVzisP9gE9s8B5swkq1aRcQlWnoz2Z9e9Xb3nwX3RX28zSXbJnOLgx4sWQEmpjp6d14YdeIkgVBNOHDvLlhmiDSwGen4GRalbk7MPAS85Gj1zkVGUMAI04XJ41kdaYxYOHui2plcuugocgQDlSy0WOcl7qXfYaIrhufXSmz7Ma_DBrw5nkU4VDJPc50sQugyZtsbqGCHvJK1P8_u55v0o5JYid9FyxBjaDy_HdMxjMXDlszF_AtVWY7U-y0tD7o0NeksLSyRmbP8foLCRlGBUf7n4k5PZ4b4z0YbXIs-IvqMtL5LqfsGASeWXQUzYvHWyZKgTrzdIwn2K9hRwg3EgXVjxjZfcWhYtU6ozcBY_ucf723amtPyzxZmssxQ4MioSFVZepesrlE9eeFvoTmp0nldQJ19QppanS5FBUkoXMzxdgogzcOZCNwpFHEV02ivJ-WTmyQythVFjb_qjhvm7-MsQOOSKpNEMFSC_v3m00?></g></svg>