<svg xmlns="http://www.w3.org/2000/svg" xmlns:xlink="http://www.w3.org/1999/xlink" contentStyleType="text/css" data-diagram-type="SEQUENCE" height="810px" preserveAspectRatio="none" style="width:1288px;height:810px;background:#FFFFFF;" version="1.1" viewBox="0 0 1288 810" width="1288px" zoomAndPan="magnify"><defs/><g><rect fill="#FEFCFF" height="798.5" style="stroke:#181818;stroke-width:0.5;" width="437.2642" x="11" y="6"/><text fill="#000000" font-family="Helvetica" font-size="10" font-weight="bold" x="210.7625" y="15.2822">Device</text><rect fill="#E6E6FA" height="781.8594" style="stroke:#181818;stroke-width:0.5;" width="102.1934" x="346.0708" y="22.6406"/><text fill="#000000" font-family="Helvetica" font-size="10" font-weight="bold" x="358.0708" y="31.9229">Prim&#228;rsystem</text><rect fill="#EDFDEC" height="798.5" style="stroke:#181818;stroke-width:0.5;" width="147.7842" x="768.9414" y="6"/><text fill="#000000" font-family="Helvetica" font-size="10" font-weight="bold" x="780.9414" y="15.2822">Anbieter TI 2.0 Dienst</text><rect fill="#FFF3E5" height="781.8594" style="stroke:#181818;stroke-width:0.5;" width="147.7842" x="768.9414" y="22.6406"/><text fill="#000000" font-family="Helvetica" font-size="10" font-weight="bold" x="809.689" y="31.9229">ZETA Guard</text><g><title>TPM</title><rect fill="#000000" fill-opacity="0.00000" height="683.6563" width="8" x="28.8833" y="76.5625"/><line style="stroke:#000000;stroke-width:0.5;stroke-dasharray:5.0,5.0;" x1="32.3833" x2="32.3833" y1="76.5625" y2="760.2188"/></g><g><title/><rect fill="#FFFFFF" height="25.6406" style="stroke:#000000;stroke-width:1;" width="10" x="27.3833" y="330.6094"/></g><g><title>ZAS</title><rect fill="#000000" fill-opacity="0.00000" height="683.6563" width="8" x="212.3862" y="76.5625"/><line style="stroke:#000000;stroke-width:0.5;stroke-dasharray:5.0,5.0;" x1="215.8862" x2="215.8862" y1="76.5625" y2="760.2188"/></g><g><title/><rect fill="#FFFFFF" height="88.5625" style="stroke:#000000;stroke-width:1;" width="10" x="210.8862" y="293.3281"/></g><g><title>ZETA Client</title><rect fill="#000000" fill-opacity="0.00000" height="683.6563" width="8" x="393.6675" y="76.5625"/><line style="stroke:#000000;stroke-width:0.5;stroke-dasharray:5.0,5.0;" x1="397.1675" x2="397.1675" y1="76.5625" y2="760.2188"/></g><g><title/><rect fill="#FFFFFF" height="648.0156" style="stroke:#000000;stroke-width:1;" width="10" x="392.1675" y="112.2031"/></g><g><title>PDP</title><rect fill="#000000" fill-opacity="0.00000" height="683.6563" width="8" x="839.3335" y="76.5625"/><line style="stroke:#000000;stroke-width:0.5;stroke-dasharray:5.0,5.0;" x1="842.8335" x2="842.8335" y1="76.5625" y2="760.2188"/></g><g><title/><rect fill="#FFFFFF" height="589.0938" style="stroke:#000000;stroke-width:1;" width="10" x="837.8335" y="153.125"/></g><rect fill="#E4E4F4" height="25.6406" rx="2.5" ry="2.5" style="stroke:#181818;stroke-width:0.5;" width="34.7666" x="15" y="49.9219"/><text fill="#000000" font-family="Helvetica" font-size="10" x="22" y="66.2041">TPM</text><rect fill="#FFE6CC" height="25.6406" rx="2.5" ry="2.5" style="stroke:#D79B00;stroke-width:0.5;" width="34.0391" x="198.8667" y="49.9219"/><text fill="#000000" font-family="Helvetica" font-size="10" x="205.8667" y="66.2041">ZAS</text><rect fill="#FFE6CC" height="25.6406" rx="2.5" ry="2.5" style="stroke:#D79B00;stroke-width:0.5;" width="72.2471" x="361.0439" y="49.9219"/><text fill="#000000" font-family="Helvetica" font-size="10" x="368.0439" y="66.2041">ZETA Client</text><rect fill="#FFE6CC" height="37.2813" rx="2.5" ry="2.5" style="stroke:#D79B00;stroke-width:0.5;" width="116.9492" x="784.3589" y="38.2813"/><text fill="#000000" font-family="Helvetica" font-size="10" x="832.9531" y="54.5635">PDP</text><text fill="#000000" font-family="Helvetica" font-size="10" x="791.3589" y="66.2041">Authorization Server</text><rect fill="#E4E4F4" height="25.6406" rx="2.5" ry="2.5" style="stroke:#181818;stroke-width:0.5;" width="34.7666" x="15" y="760.2188"/><text fill="#000000" font-family="Helvetica" font-size="10" x="22" y="776.501">TPM</text><rect fill="#FFE6CC" height="25.6406" rx="2.5" ry="2.5" style="stroke:#D79B00;stroke-width:0.5;" width="34.0391" x="198.8667" y="760.2188"/><text fill="#000000" font-family="Helvetica" font-size="10" x="205.8667" y="776.501">ZAS</text><rect fill="#FFE6CC" height="25.6406" rx="2.5" ry="2.5" style="stroke:#D79B00;stroke-width:0.5;" width="72.2471" x="361.0439" y="760.2188"/><text fill="#000000" font-family="Helvetica" font-size="10" x="368.0439" y="776.501">ZETA Client</text><rect fill="#FFE6CC" height="37.2813" rx="2.5" ry="2.5" style="stroke:#D79B00;stroke-width:0.5;" width="116.9492" x="784.3589" y="760.2188"/><text fill="#000000" font-family="Helvetica" font-size="10" x="832.9531" y="776.501">PDP</text><text fill="#000000" font-family="Helvetica" font-size="10" x="791.3589" y="788.1416">Authorization Server</text><path d="M11.3833,88.5625 L71.3394,88.5625 L71.3394,92.2031 L61.3394,102.2031 L11.3833,102.2031 L11.3833,88.5625" fill="#EEEEEE" style="stroke:#000000;stroke-width:1.5;"/><rect fill="none" height="533.0938" style="stroke:#000000;stroke-width:1.5;" width="1228.8633" x="11.3833" y="88.5625"/><text fill="#000000" font-family="Helvetica" font-size="10" font-weight="bold" x="26.3833" y="98.8447">alt</text><text fill="#000000" font-family="Helvetica" font-size="10" font-weight="bold" x="86.3394" y="99.8447">[Kein ZETA Guard Attestation Token vorhanden]</text><line style="stroke:#000000;stroke-width:1;stroke-dasharray:2.0,2.0;" x1="11.3833" x2="1240.2466" y1="465.1719" y2="465.1719"/><text fill="#000000" font-family="Helvetica" font-size="10" font-weight="bold" x="16.3833" y="476.4541">[ZETA Attestation Token vorhanden]</text><polygon fill="#181818" points="825.8335,149.125,835.8335,153.125,825.8335,157.125,829.8335,153.125" style="stroke:#181818;stroke-width:1;"/><line style="stroke:#181818;stroke-width:1;" x1="402.1675" x2="831.8335" y1="153.125" y2="153.125"/><text fill="#000000" font-family="Helvetica" font-size="10" x="409.1675" y="137.126">(01)</text><text fill="#000000" font-family="Helvetica" font-size="10" x="433.6948" y="125.4854">POST /register</text><text fill="#000000" font-family="Helvetica" font-size="10" x="433.6948" y="137.126">{attestation_type="tpm", PuK.EK.Enc, C.EK.Enc,</text><text fill="#000000" font-family="Helvetica" font-size="10" x="433.6948" y="148.7666">PuK.AK.Sig, PuK.Client.Sig, signed_Hash_PuK.Client.Sig}</text><line style="stroke:#181818;stroke-width:1;" x1="847.8335" x2="889.8335" y1="178.7656" y2="178.7656"/><line style="stroke:#181818;stroke-width:1;" x1="889.8335" x2="889.8335" y1="178.7656" y2="191.7656"/><line style="stroke:#181818;stroke-width:1;" x1="848.8335" x2="889.8335" y1="191.7656" y2="191.7656"/><polygon fill="#181818" points="858.8335,187.7656,848.8335,191.7656,858.8335,195.7656,854.8335,191.7656" style="stroke:#181818;stroke-width:1;"/><text fill="#000000" font-family="Helvetica" font-size="10" x="854.8335" y="174.4072">(02)</text><text fill="#000000" font-family="Helvetica" font-size="10" x="879.3608" y="174.4072">Validiere C.EK.Enc-Chain &amp; signed_Hash_PuK.Client.Sig</text><line style="stroke:#181818;stroke-width:1;" x1="847.8335" x2="889.8335" y1="229.0469" y2="229.0469"/><line style="stroke:#181818;stroke-width:1;" x1="889.8335" x2="889.8335" y1="229.0469" y2="242.0469"/><line style="stroke:#181818;stroke-width:1;" x1="848.8335" x2="889.8335" y1="242.0469" y2="242.0469"/><polygon fill="#181818" points="858.8335,238.0469,848.8335,242.0469,858.8335,246.0469,854.8335,242.0469" style="stroke:#181818;stroke-width:1;"/><text fill="#000000" font-family="Helvetica" font-size="10" x="854.8335" y="218.8682">(03)</text><text fill="#000000" font-family="Helvetica" font-size="10" x="879.3608" y="213.0479">CredentialBlob = MakeCredential(...);</text><text fill="#000000" font-family="Helvetica" font-size="10" x="879.3608" y="224.6885">(TPM 2.0 Commands, Section 12.5)</text><polygon fill="#181818" points="413.1675,263.6875,403.1675,267.6875,413.1675,271.6875,409.1675,267.6875" style="stroke:#181818;stroke-width:1;"/><line style="stroke:#181818;stroke-width:1;stroke-dasharray:2.0,2.0;" x1="407.1675" x2="836.8335" y1="267.6875" y2="267.6875"/><text fill="#000000" font-family="Helvetica" font-size="10" x="419.1675" y="263.3291">(04)</text><text fill="#000000" font-family="Helvetica" font-size="10" x="443.6948" y="263.3291">202 Accepted {challenge_type, tpm_credential_blob, tpm_encrypted_secret}</text><polygon fill="#181818" points="231.8862,289.3281,221.8862,293.3281,231.8862,297.3281,227.8862,293.3281" style="stroke:#181818;stroke-width:1;"/><line style="stroke:#181818;stroke-width:1;" x1="225.8862" x2="391.1675" y1="293.3281" y2="293.3281"/><text fill="#000000" font-family="Helvetica" font-size="10" x="237.8862" y="288.9697">(05)</text><text fill="#000000" font-family="Helvetica" font-size="10" x="262.4136" y="288.9697">Activate(CredentialBlob)</text><polygon fill="#181818" points="48.3833,326.6094,38.3833,330.6094,48.3833,334.6094,44.3833,330.6094" style="stroke:#181818;stroke-width:1;"/><line style="stroke:#181818;stroke-width:1;" x1="42.3833" x2="209.8862" y1="330.6094" y2="330.6094"/><text fill="#000000" font-family="Helvetica" font-size="10" x="54.3833" y="320.4307">(06)</text><text fill="#000000" font-family="Helvetica" font-size="10" x="78.9106" y="314.6104">TPM2_ActivateCredential</text><text fill="#000000" font-family="Helvetica" font-size="10" x="78.9106" y="326.251">(CredentialBlob)</text><polygon fill="#181818" points="198.8862,352.25,208.8862,356.25,198.8862,360.25,202.8862,356.25" style="stroke:#181818;stroke-width:1;"/><line style="stroke:#181818;stroke-width:1;stroke-dasharray:2.0,2.0;" x1="37.3833" x2="204.8862" y1="356.25" y2="356.25"/><text fill="#000000" font-family="Helvetica" font-size="10" x="44.3833" y="351.8916">(07)</text><text fill="#000000" font-family="Helvetica" font-size="10" x="68.9106" y="351.8916">Secret</text><polygon fill="#181818" points="380.1675,377.8906,390.1675,381.8906,380.1675,385.8906,384.1675,381.8906" style="stroke:#181818;stroke-width:1;"/><line style="stroke:#181818;stroke-width:1;stroke-dasharray:2.0,2.0;" x1="220.8862" x2="386.1675" y1="381.8906" y2="381.8906"/><text fill="#000000" font-family="Helvetica" font-size="10" x="227.8862" y="377.5322">(08)</text><text fill="#000000" font-family="Helvetica" font-size="10" x="252.4136" y="377.5322">Secret</text><polygon fill="#181818" points="825.8335,403.5313,835.8335,407.5313,825.8335,411.5313,829.8335,407.5313" style="stroke:#181818;stroke-width:1;"/><line style="stroke:#181818;stroke-width:1;" x1="402.1675" x2="831.8335" y1="407.5313" y2="407.5313"/><text fill="#000000" font-family="Helvetica" font-size="10" x="409.1675" y="403.1729">(09)</text><text fill="#000000" font-family="Helvetica" font-size="10" x="433.6948" y="403.1729">POST /register/verify {Secret}</text><line style="stroke:#181818;stroke-width:1;" x1="847.8335" x2="889.8335" y1="433.1719" y2="433.1719"/><line style="stroke:#181818;stroke-width:1;" x1="889.8335" x2="889.8335" y1="433.1719" y2="446.1719"/><line style="stroke:#181818;stroke-width:1;" x1="848.8335" x2="889.8335" y1="446.1719" y2="446.1719"/><polygon fill="#181818" points="858.8335,442.1719,848.8335,446.1719,858.8335,450.1719,854.8335,446.1719" style="stroke:#181818;stroke-width:1;"/><text fill="#000000" font-family="Helvetica" font-size="10" x="854.8335" y="428.8135">(10)</text><text fill="#000000" font-family="Helvetica" font-size="10" x="879.3608" y="428.8135">Secret korrekt? &#8594; PuK.Client.Sig hardware-gebunden &#10003;</text><polygon fill="#181818" points="825.8335,532.375,835.8335,536.375,825.8335,540.375,829.8335,536.375" style="stroke:#181818;stroke-width:1;"/><line style="stroke:#181818;stroke-width:1;" x1="402.1675" x2="831.8335" y1="536.375" y2="536.375"/><text fill="#000000" font-family="Helvetica" font-size="10" x="409.1675" y="514.5557">(11)</text><text fill="#000000" font-family="Helvetica" font-size="10" x="433.6948" y="497.0947">POST /register</text><text fill="#000000" font-family="Helvetica" font-size="10" x="433.6948" y="508.7354">{attestation_type="zeta_attestation_token",</text><text fill="#000000" font-family="Helvetica" font-size="10" x="433.6948" y="520.376">zeta_attestation_token, PuK.Client.Sig,</text><text fill="#000000" font-family="Helvetica" font-size="10" x="433.6948" y="532.0166">signed_Hash_PuK.Client.Sig}</text><line style="stroke:#181818;stroke-width:1;" x1="847.8335" x2="889.8335" y1="562.0156" y2="562.0156"/><line style="stroke:#181818;stroke-width:1;" x1="889.8335" x2="889.8335" y1="562.0156" y2="575.0156"/><line style="stroke:#181818;stroke-width:1;" x1="848.8335" x2="889.8335" y1="575.0156" y2="575.0156"/><polygon fill="#181818" points="858.8335,571.0156,848.8335,575.0156,858.8335,579.0156,854.8335,575.0156" style="stroke:#181818;stroke-width:1;"/><text fill="#000000" font-family="Helvetica" font-size="10" x="854.8335" y="557.6572">(12)</text><text fill="#000000" font-family="Helvetica" font-size="10" x="879.3608" y="557.6572">Pr&#252;fe Token-Signatur &amp; Vertrauensstellung</text><line style="stroke:#181818;stroke-width:1;" x1="847.8335" x2="889.8335" y1="600.6563" y2="600.6563"/><line style="stroke:#181818;stroke-width:1;" x1="889.8335" x2="889.8335" y1="600.6563" y2="613.6563"/><line style="stroke:#181818;stroke-width:1;" x1="848.8335" x2="889.8335" y1="613.6563" y2="613.6563"/><polygon fill="#181818" points="858.8335,609.6563,848.8335,613.6563,858.8335,617.6563,854.8335,613.6563" style="stroke:#181818;stroke-width:1;"/><text fill="#000000" font-family="Helvetica" font-size="10" x="854.8335" y="596.2979">(13)</text><text fill="#000000" font-family="Helvetica" font-size="10" x="879.3608" y="596.2979">Extrahiere PuK.AK.Sig aus Token, pr&#252;fe signed_Hash_PuK.Client.Sig</text><line style="stroke:#181818;stroke-width:1;" x1="847.8335" x2="889.8335" y1="664.9375" y2="664.9375"/><line style="stroke:#181818;stroke-width:1;" x1="889.8335" x2="889.8335" y1="664.9375" y2="677.9375"/><line style="stroke:#181818;stroke-width:1;" x1="848.8335" x2="889.8335" y1="677.9375" y2="677.9375"/><polygon fill="#181818" points="858.8335,673.9375,848.8335,677.9375,858.8335,681.9375,854.8335,677.9375" style="stroke:#181818;stroke-width:1;"/><text fill="#000000" font-family="Helvetica" font-size="10" x="854.8335" y="654.7588">(14)</text><text fill="#000000" font-family="Helvetica" font-size="10" x="879.3608" y="648.9385">Pinne attestation_type, platform, product_id und ak_jkt (Thumbprint PuK.AK.Sig)</text><text fill="#000000" font-family="Helvetica" font-size="10" x="879.3608" y="660.5791">im Registrierungsdatensatz (binding_status: pinned)</text><line style="stroke:#181818;stroke-width:1;" x1="847.8335" x2="889.8335" y1="703.5781" y2="703.5781"/><line style="stroke:#181818;stroke-width:1;" x1="889.8335" x2="889.8335" y1="703.5781" y2="716.5781"/><line style="stroke:#181818;stroke-width:1;" x1="848.8335" x2="889.8335" y1="716.5781" y2="716.5781"/><polygon fill="#181818" points="858.8335,712.5781,848.8335,716.5781,858.8335,720.5781,854.8335,716.5781" style="stroke:#181818;stroke-width:1;"/><text fill="#000000" font-family="Helvetica" font-size="10" x="854.8335" y="699.2197">(15)</text><text fill="#000000" font-family="Helvetica" font-size="10" x="879.3608" y="699.2197">Store Client Placeholder</text><polygon fill="#181818" points="413.1675,738.2188,403.1675,742.2188,413.1675,746.2188,409.1675,742.2188" style="stroke:#181818;stroke-width:1;"/><line style="stroke:#181818;stroke-width:1;stroke-dasharray:2.0,2.0;" x1="407.1675" x2="836.8335" y1="742.2188" y2="742.2188"/><text fill="#000000" font-family="Helvetica" font-size="10" x="419.1675" y="737.8604">(16)</text><text fill="#000000" font-family="Helvetica" font-size="10" x="443.6948" y="737.8604">201 Created {client_id}</text><!--SRC=[bLJ1Jjj04BtxAwO-L44aXaRg9GKgDx5e125MaYArYcHjx27UnbvRwtLAG5px0Usrntv6R_m9Nz9PBoGa1DHAbjQx-_pcpSmRl-8YJCe8mN7syZ9D6WbRPALorAMoB6kINOBTmJaFqOQETzvjUq6xVzeVM00vaug7F6T2WJtoUpQm0cY5KwzBe9xVF_FEHblXNzoX1jkqsd1mS8MA7HqHfWhdIvxU_fR5eb2Osk0FkZtN6mm_3qTURycspjTEED9IKNeZztw_HeqYqlJMmsfISyM4eq89eouqdNteq7U5qa7xvzsEDrZ6gz0Lzt79P6I3VW-EFxc3pZEQt5B59ak_uu-5tcQINp75Cm53b7EKBmjaYO8Jv09MOS5L2WjbE4RP30NCCnap4Q6e19Z4TtSVRQ1nPBJixhR0xmz7i2TnogcuSYoksOemK8iS3ssLftOT_FB4yUWHOHtQ3szZeO_T4sV8fmPYGfXzmQS2e-0ZA-9W_UwcacCAyg2c1USiuH57YSi0ZNRCAD_NBr1jPMfBf08epf8FIJQ1G-Yn6QuEQuxZxBmRYvesf-voEqjJgbbHfpw4LItVD9stEu-vYTm4RK5plmbk66AkC8BhC6P9WcAALRdgGEKAmcMeO482p26AK2xqDq61150traPJoFow9Iufc3E5jVKiZ1ezA0GbuHfAIpDumA_WbDcsRtMs3HEdqMZfL4d5YdMPuQFBRRRPDCqU6PTVBE1wU9_MjewOEvXbKk9ClOUxxpys_08n-VaRazYOugJK1eQxNpyj2vC2ZUF_pUlFwjngRZrjmTgn9hR9sTjldhXyBFxNvhwy_NE19eC6eGHJfIIFdwDKafNqlo6rILAAxTxsBWaLLsEo6ZvWPM4Owv0R_XT6XlueblL45XS2ORD2H9SmTP79L1DdKHcgW4T0_G4s2xxE5DH6SPbESicfz2j1EsF1KnXKfPSabh8f8ZAfA9YwWjg4YuYBQQ13bKKBSXqysdaYQgWo_JimZVKJ5cAS9H5AQtCgjMUR-s_qv3CpbjKnQRsn_W80]--></g></svg>