<svg xmlns="http://www.w3.org/2000/svg" xmlns:xlink="http://www.w3.org/1999/xlink" contentStyleType="text/css" data-diagram-type="SEQUENCE" height="1102px" preserveAspectRatio="none" style="width:873px;height:1102px;background:#FFFFFF;" version="1.1" viewBox="0 0 873 1102" width="873px" zoomAndPan="magnify"><?plantuml 1.2026.6?><defs/><g><rect fill="#FEFCFF" height="1076.9063" style="stroke:#181818;stroke-width:0.5;" width="633.166" x="77.4668" y="11"/><text fill="#000000" font-family="Helvetica" font-size="10" font-weight="700" x="375.1802" y="20.2822">Device</text><rect fill="#E6E6FA" height="1060.2656" style="stroke:#181818;stroke-width:0.5;" width="80.2471" x="630.3857" y="27.6406"/><text fill="#000000" font-family="Helvetica" font-size="10" font-weight="700" x="659.4814" y="36.9229">App</text><g><title>Apple</title><rect fill="#000000" fill-opacity="0.00000" height="985.3438" width="8" x="46.7334" y="69.9219"/><line style="stroke:#000000;stroke-width:0.5;stroke-dasharray:5,5;" x1="50.2334" x2="50.2334" y1="69.9219" y2="1055.2656"/></g><g><title/><rect fill="#FFFFFF" height="25.6406" style="stroke:#181818;stroke-width:1;" width="10" x="45.2334" y="694.9375"/></g><g><title>Secure Enclave</title><rect fill="#000000" fill-opacity="0.00000" height="985.3438" width="8" x="123.4214" y="69.9219"/><line style="stroke:#000000;stroke-width:0.5;stroke-dasharray:5,5;" x1="126.9214" x2="126.9214" y1="69.9219" y2="1055.2656"/></g><g><title/><rect fill="#FFFFFF" height="25.6406" style="stroke:#181818;stroke-width:1;" width="10" x="121.9214" y="282.0469"/></g><g><title/><rect fill="#FFFFFF" height="25.6406" style="stroke:#181818;stroke-width:1;" width="10" x="121.9214" y="467.5313"/></g><g><title/><rect fill="#FFFFFF" height="25.6406" style="stroke:#181818;stroke-width:1;" width="10" x="121.9214" y="632.0156"/></g><g><title/><rect fill="#FFFFFF" height="25.6406" style="stroke:#181818;stroke-width:1;" width="10" x="121.9214" y="892.0625"/></g><g><title>AppleOS .macOS. iOS. iPadOS.</title><rect fill="#000000" fill-opacity="0.00000" height="985.3438" width="8" x="394.9614" y="69.9219"/><line style="stroke:#000000;stroke-width:0.5;stroke-dasharray:5,5;" x1="398.4614" x2="398.4614" y1="69.9219" y2="1055.2656"/></g><g><title/><rect fill="#FFFFFF" height="977.3438" style="stroke:#181818;stroke-width:1;" width="10" x="393.4614" y="77.9219"/></g><g><title>ZETA Client</title><rect fill="#000000" fill-opacity="0.00000" height="985.3438" width="8" x="667.0093" y="69.9219"/><line style="stroke:#000000;stroke-width:0.5;stroke-dasharray:5,5;" x1="670.5093" x2="670.5093" y1="69.9219" y2="1055.2656"/></g><g><title/><rect fill="#FFFFFF" height="977.3438" style="stroke:#181818;stroke-width:1;" width="10" x="665.5093" y="77.9219"/></g><rect fill="#E2E2F0" height="25.6406" rx="2.5" ry="2.5" style="stroke:#181818;stroke-width:0.5;" width="42.4668" x="29" y="43.2813"/><text fill="#000000" font-family="Helvetica" font-size="10" x="36" y="59.5635">Apple</text><rect fill="#E4E4F4" height="25.6406" rx="2.5" ry="2.5" style="stroke:#181818;stroke-width:0.5;" width="90.9092" x="81.4668" y="43.2813"/><text fill="#000000" font-family="Helvetica" font-size="10" x="88.4668" y="59.5635">Secure Enclave</text><rect fill="#E4E4F4" height="25.6406" rx="2.5" ry="2.5" style="stroke:#181818;stroke-width:0.5;" width="168.4678" x="314.2275" y="43.2813"/><text fill="#000000" font-family="Helvetica" font-size="10" x="321.2275" y="59.5635">AppleOS (macOS, iOS, iPadOS)</text><rect fill="#FFE6CC" height="25.6406" rx="2.5" ry="2.5" style="stroke:#D79B00;stroke-width:0.5;" width="72.2471" x="634.3857" y="43.2813"/><text fill="#000000" font-family="Helvetica" font-size="10" x="641.3857" y="59.5635">ZETA Client</text><rect fill="#E2E2F0" height="25.6406" rx="2.5" ry="2.5" style="stroke:#181818;stroke-width:0.5;" width="42.4668" x="29" y="1055.2656"/><text fill="#000000" font-family="Helvetica" font-size="10" x="36" y="1071.5479">Apple</text><rect fill="#E4E4F4" height="25.6406" rx="2.5" ry="2.5" style="stroke:#181818;stroke-width:0.5;" width="90.9092" x="81.4668" y="1055.2656"/><text fill="#000000" font-family="Helvetica" font-size="10" x="88.4668" y="1071.5479">Secure Enclave</text><rect fill="#E4E4F4" height="25.6406" rx="2.5" ry="2.5" style="stroke:#181818;stroke-width:0.5;" width="168.4678" x="314.2275" y="1055.2656"/><text fill="#000000" font-family="Helvetica" font-size="10" x="321.2275" y="1071.5479">AppleOS (macOS, iOS, iPadOS)</text><rect fill="#FFE6CC" height="25.6406" rx="2.5" ry="2.5" style="stroke:#D79B00;stroke-width:0.5;" width="72.2471" x="634.3857" y="1055.2656"/><text fill="#000000" font-family="Helvetica" font-size="10" x="641.3857" y="1071.5479">ZETA Client</text><line style="stroke:#181818;stroke-width:1;stroke-dasharray:2,2;" x1="675.5093" x2="717.5093" y1="95.5625" y2="95.5625"/><line style="stroke:#181818;stroke-width:1;stroke-dasharray:2,2;" x1="717.5093" x2="717.5093" y1="95.5625" y2="108.5625"/><line style="stroke:#181818;stroke-width:1;stroke-dasharray:2,2;" x1="676.5093" x2="717.5093" y1="108.5625" y2="108.5625"/><polygon fill="#181818" points="686.5093,104.5625,676.5093,108.5625,686.5093,112.5625,682.5093,108.5625" style="stroke:#181818;stroke-width:1;stroke-linejoin:miter;stroke-miterlimit:10;"/><text fill="#000000" font-family="Helvetica" font-size="10" x="682.5093" y="91.2041">(01)</text><text fill="#000000" font-family="Helvetica" font-size="10" x="707.0366" y="91.2041">Installation (User Space)</text><path d="M13,120.5625 L72.9561,120.5625 L72.9561,124.2031 L62.9561,134.2031 L13,134.2031 L13,120.5625" fill="#EEEEEE" style="stroke:#000000;stroke-width:1.5;"/><rect fill="none" height="910.7031" style="stroke:#000000;stroke-width:1.5;" width="840.5718" x="13" y="120.5625"/><text fill="#000000" font-family="Helvetica" font-size="10" font-weight="700" x="28" y="130.8447">alt</text><text fill="#000000" font-family="Helvetica" font-size="10" font-weight="700" x="87.9561" y="131.8447">[Secure Enclave]</text><line style="stroke:#000000;stroke-width:1;stroke-dasharray:2,2;" x1="13" x2="853.5718" y1="962.3438" y2="962.3438"/><text fill="#000000" font-family="Helvetica" font-size="10" font-weight="700" x="18" y="973.626">[Fallback]</text><rect fill="#EEEEEE" height="3" style="stroke:#EEEEEE;stroke-width:1;" width="852.5718" x="10" y="163.0234"/><line style="stroke:#000000;stroke-width:1;" x1="10" x2="862.5718" y1="163.0234" y2="163.0234"/><line style="stroke:#000000;stroke-width:1;" x1="10" x2="862.5718" y1="166.0234" y2="166.0234"/><rect fill="#EEEEEE" height="19.6406" style="stroke:#000000;stroke-width:2;" width="331.2705" x="270.6506" y="154.2031"/><text fill="#000000" font-family="Helvetica" font-size="10" font-weight="700" x="276.6506" y="167.4854">Client Instance Key Pair (PrK.Client.Sig; PuK.Client.Sig)</text><polygon fill="#181818" points="414.4614,209.125,404.4614,213.125,414.4614,217.125,410.4614,213.125" style="stroke:#181818;stroke-width:1;stroke-linejoin:miter;stroke-miterlimit:10;"/><line style="stroke:#181818;stroke-width:1;" x1="408.4614" x2="664.5093" y1="213.125" y2="213.125"/><text fill="#000000" font-family="Helvetica" font-size="10" x="420.4614" y="202.9463">(02)</text><text fill="#000000" font-family="Helvetica" font-size="10" x="444.9888" y="197.126">SecKeyCreateRandomKey</text><text fill="#000000" font-family="Helvetica" font-size="10" x="444.9888" y="208.7666">(f&#252;r PrK.Client.Sig, PuK.Client.Sig in SE)</text><path d="M457.1265,226.125 L457.1265,259.125 L665.1265,259.125 L665.1265,236.125 L655.1265,226.125 L457.1265,226.125" fill="#FEFFDD" style="stroke:#181818;stroke-width:0.5;"/><path d="M655.1265,226.125 L655.1265,236.125 L665.1265,236.125 L655.1265,226.125" fill="#FEFFDD" style="stroke:#181818;stroke-width:0.5;"/><text fill="#000000" font-family="Helvetica" font-size="10" x="463.1265" y="240.4072">Generierung des prim&#228;ren Schl&#252;ssels</text><text fill="#000000" font-family="Helvetica" font-size="10" x="463.1265" y="252.0479">f&#252;r Client Assertions.</text><polygon fill="#181818" points="142.9214,278.0469,132.9214,282.0469,142.9214,286.0469,138.9214,282.0469" style="stroke:#181818;stroke-width:1;stroke-linejoin:miter;stroke-miterlimit:10;"/><line style="stroke:#181818;stroke-width:1;" x1="136.9214" x2="392.4614" y1="282.0469" y2="282.0469"/><text fill="#000000" font-family="Helvetica" font-size="10" x="148.9214" y="277.6885">(03)</text><text fill="#000000" font-family="Helvetica" font-size="10" x="173.4487" y="277.6885">Generiere Schl&#252;ssel (Client.Sig)</text><polygon fill="#181818" points="381.4614,303.6875,391.4614,307.6875,381.4614,311.6875,385.4614,307.6875" style="stroke:#181818;stroke-width:1;stroke-linejoin:miter;stroke-miterlimit:10;"/><line style="stroke:#181818;stroke-width:1;stroke-dasharray:2,2;" x1="131.9214" x2="387.4614" y1="307.6875" y2="307.6875"/><text fill="#000000" font-family="Helvetica" font-size="10" x="138.9214" y="303.3291">(04)</text><text fill="#000000" font-family="Helvetica" font-size="10" x="163.4487" y="303.3291">keyId (Referenz f&#252;r PrK.Client.Sig)</text><polygon fill="#181818" points="653.5093,329.3281,663.5093,333.3281,653.5093,337.3281,657.5093,333.3281" style="stroke:#181818;stroke-width:1;stroke-linejoin:miter;stroke-miterlimit:10;"/><line style="stroke:#181818;stroke-width:1;stroke-dasharray:2,2;" x1="403.4614" x2="659.5093" y1="333.3281" y2="333.3281"/><text fill="#000000" font-family="Helvetica" font-size="10" x="410.4614" y="328.9697">(05)</text><text fill="#000000" font-family="Helvetica" font-size="10" x="434.9888" y="328.9697">keyId (Referenz f&#252;r PrK.Client.Sig)</text><rect fill="#EEEEEE" height="3" style="stroke:#EEEEEE;stroke-width:1;" width="852.5718" x="10" y="360.1484"/><line style="stroke:#000000;stroke-width:1;" x1="10" x2="862.5718" y1="360.1484" y2="360.1484"/><line style="stroke:#000000;stroke-width:1;" x1="10" x2="862.5718" y1="363.1484" y2="363.1484"/><rect fill="#EEEEEE" height="19.6406" style="stroke:#000000;stroke-width:2;" width="316.4365" x="278.0676" y="351.3281"/><text fill="#000000" font-family="Helvetica" font-size="10" font-weight="700" x="284.0676" y="364.6104">Hardware-Attestierung (Attestation Key, App Attest)</text><path d="M416.1011,385.9688 L416.1011,418.9688 L665.1011,418.9688 L665.1011,395.9688 L655.1011,385.9688 L416.1011,385.9688" fill="#FEFFDD" style="stroke:#181818;stroke-width:0.5;"/><path d="M655.1011,385.9688 L655.1011,395.9688 L665.1011,395.9688 L655.1011,385.9688" fill="#FEFFDD" style="stroke:#181818;stroke-width:0.5;"/><text fill="#000000" font-family="Helvetica" font-size="10" x="422.1011" y="400.251">Generierung des dedizierten Attestation Keys</text><text fill="#000000" font-family="Helvetica" font-size="10" x="422.1011" y="411.8916">und einmalige Attestierung gegen Apple CA.</text><polygon fill="#181818" points="414.4614,437.8906,404.4614,441.8906,414.4614,445.8906,410.4614,441.8906" style="stroke:#181818;stroke-width:1;stroke-linejoin:miter;stroke-miterlimit:10;"/><line style="stroke:#181818;stroke-width:1;" x1="408.4614" x2="664.5093" y1="441.8906" y2="441.8906"/><text fill="#000000" font-family="Helvetica" font-size="10" x="420.4614" y="437.5322">(06)</text><text fill="#000000" font-family="Helvetica" font-size="10" x="444.9888" y="437.5322">DCAppAttestService.shared.generateKey()</text><polygon fill="#181818" points="142.9214,463.5313,132.9214,467.5313,142.9214,471.5313,138.9214,467.5313" style="stroke:#181818;stroke-width:1;stroke-linejoin:miter;stroke-miterlimit:10;"/><line style="stroke:#181818;stroke-width:1;" x1="136.9214" x2="392.4614" y1="467.5313" y2="467.5313"/><text fill="#000000" font-family="Helvetica" font-size="10" x="148.9214" y="463.1729">(07)</text><text fill="#000000" font-family="Helvetica" font-size="10" x="173.4487" y="463.1729">Generiere AK-Schl&#252;sselpaar in SE</text><polygon fill="#181818" points="381.4614,489.1719,391.4614,493.1719,381.4614,497.1719,385.4614,493.1719" style="stroke:#181818;stroke-width:1;stroke-linejoin:miter;stroke-miterlimit:10;"/><line style="stroke:#181818;stroke-width:1;stroke-dasharray:2,2;" x1="131.9214" x2="387.4614" y1="493.1719" y2="493.1719"/><text fill="#000000" font-family="Helvetica" font-size="10" x="138.9214" y="488.8135">(08)</text><text fill="#000000" font-family="Helvetica" font-size="10" x="163.4487" y="488.8135">keyId_AK (Handle f&#252;r PrK.AK.Sig)</text><polygon fill="#181818" points="653.5093,514.8125,663.5093,518.8125,653.5093,522.8125,657.5093,518.8125" style="stroke:#181818;stroke-width:1;stroke-linejoin:miter;stroke-miterlimit:10;"/><line style="stroke:#181818;stroke-width:1;stroke-dasharray:2,2;" x1="403.4614" x2="659.5093" y1="518.8125" y2="518.8125"/><text fill="#000000" font-family="Helvetica" font-size="10" x="410.4614" y="514.4541">(09)</text><text fill="#000000" font-family="Helvetica" font-size="10" x="434.9888" y="514.4541">keyId_AK</text><line style="stroke:#181818;stroke-width:1;" x1="675.5093" x2="717.5093" y1="556.0938" y2="556.0938"/><line style="stroke:#181818;stroke-width:1;" x1="717.5093" x2="717.5093" y1="556.0938" y2="569.0938"/><line style="stroke:#181818;stroke-width:1;" x1="676.5093" x2="717.5093" y1="569.0938" y2="569.0938"/><polygon fill="#181818" points="686.5093,565.0938,676.5093,569.0938,686.5093,573.0938,682.5093,569.0938" style="stroke:#181818;stroke-width:1;stroke-linejoin:miter;stroke-miterlimit:10;"/><text fill="#000000" font-family="Helvetica" font-size="10" x="682.5093" y="545.915">(10)</text><text fill="#000000" font-family="Helvetica" font-size="10" x="707.0366" y="540.0947">Berechne challenge =</text><text fill="#000000" font-family="Helvetica" font-size="10" x="707.0366" y="551.7354">SHA-256(PuK.Client.Sig)</text><polygon fill="#181818" points="414.4614,602.375,404.4614,606.375,414.4614,610.375,410.4614,606.375" style="stroke:#181818;stroke-width:1;stroke-linejoin:miter;stroke-miterlimit:10;"/><line style="stroke:#181818;stroke-width:1;" x1="408.4614" x2="664.5093" y1="606.375" y2="606.375"/><text fill="#000000" font-family="Helvetica" font-size="10" x="420.4614" y="596.1963">(11)</text><text fill="#000000" font-family="Helvetica" font-size="10" x="444.9888" y="590.376">DCAppAttestService.shared.attestKey(</text><text fill="#000000" font-family="Helvetica" font-size="10" x="451.3462" y="602.0166">keyId_AK, clientDataHash = challenge)</text><polygon fill="#181818" points="142.9214,628.0156,132.9214,632.0156,142.9214,636.0156,138.9214,632.0156" style="stroke:#181818;stroke-width:1;stroke-linejoin:miter;stroke-miterlimit:10;"/><line style="stroke:#181818;stroke-width:1;" x1="136.9214" x2="392.4614" y1="632.0156" y2="632.0156"/><text fill="#000000" font-family="Helvetica" font-size="10" x="148.9214" y="627.6572">(12)</text><text fill="#000000" font-family="Helvetica" font-size="10" x="173.4487" y="627.6572">Erstelle Hardware-Signatur &#252;ber challenge</text><polygon fill="#181818" points="381.4614,653.6563,391.4614,657.6563,381.4614,661.6563,385.4614,657.6563" style="stroke:#181818;stroke-width:1;stroke-linejoin:miter;stroke-miterlimit:10;"/><line style="stroke:#181818;stroke-width:1;stroke-dasharray:2,2;" x1="131.9214" x2="387.4614" y1="657.6563" y2="657.6563"/><text fill="#000000" font-family="Helvetica" font-size="10" x="138.9214" y="653.2979">(13)</text><text fill="#000000" font-family="Helvetica" font-size="10" x="163.4487" y="653.2979">Hardware-Signatur</text><polygon fill="#181818" points="66.2334,690.9375,56.2334,694.9375,66.2334,698.9375,62.2334,694.9375" style="stroke:#181818;stroke-width:1;stroke-linejoin:miter;stroke-miterlimit:10;"/><line style="stroke:#181818;stroke-width:1;" x1="60.2334" x2="392.4614" y1="694.9375" y2="694.9375"/><text fill="#000000" font-family="Helvetica" font-size="10" x="72.2334" y="684.7588">(14)</text><text fill="#000000" font-family="Helvetica" font-size="10" x="96.7607" y="678.9385">Verifiziere Signatur &amp; erstelle CBOR</text><text fill="#000000" font-family="Helvetica" font-size="10" x="96.7607" y="690.5791">(X.509-Kette + Receipt)</text><polygon fill="#181818" points="381.4614,716.5781,391.4614,720.5781,381.4614,724.5781,385.4614,720.5781" style="stroke:#181818;stroke-width:1;stroke-linejoin:miter;stroke-miterlimit:10;"/><line style="stroke:#181818;stroke-width:1;stroke-dasharray:2,2;" x1="55.2334" x2="387.4614" y1="720.5781" y2="720.5781"/><text fill="#000000" font-family="Helvetica" font-size="10" x="62.2334" y="716.2197">(15)</text><text fill="#000000" font-family="Helvetica" font-size="10" x="86.7607" y="716.2197">apple_attestation_object</text><polygon fill="#181818" points="653.5093,742.2188,663.5093,746.2188,653.5093,750.2188,657.5093,746.2188" style="stroke:#181818;stroke-width:1;stroke-linejoin:miter;stroke-miterlimit:10;"/><line style="stroke:#181818;stroke-width:1;stroke-dasharray:2,2;" x1="403.4614" x2="659.5093" y1="746.2188" y2="746.2188"/><text fill="#000000" font-family="Helvetica" font-size="10" x="410.4614" y="741.8604">(16)</text><text fill="#000000" font-family="Helvetica" font-size="10" x="434.9888" y="741.8604">apple_attestation_object</text><rect fill="#EEEEEE" height="3" style="stroke:#EEEEEE;stroke-width:1;" width="852.5718" x="10" y="773.0391"/><line style="stroke:#000000;stroke-width:1;" x1="10" x2="862.5718" y1="773.0391" y2="773.0391"/><line style="stroke:#000000;stroke-width:1;" x1="10" x2="862.5718" y1="776.0391" y2="776.0391"/><rect fill="#EEEEEE" height="19.6406" style="stroke:#000000;stroke-width:2;" width="284.0635" x="294.2542" y="764.2188"/><text fill="#000000" font-family="Helvetica" font-size="10" font-weight="700" x="300.2542" y="777.501">Expliziter Besitznachweis (Proof of Possession)</text><path d="M161.0034,798.8594 L161.0034,831.8594 L665.0034,831.8594 L665.0034,808.8594 L655.0034,798.8594 L161.0034,798.8594" fill="#FEFFDD" style="stroke:#181818;stroke-width:0.5;"/><path d="M655.0034,798.8594 L655.0034,808.8594 L665.0034,808.8594 L655.0034,798.8594" fill="#FEFFDD" style="stroke:#181818;stroke-width:0.5;"/><text fill="#000000" font-family="Helvetica" font-size="10" x="167.0034" y="813.1416">Besitznachweis des Client Instance Keys. Das apple_attestation_object beweist die HW-Bindung;</text><text fill="#000000" font-family="Helvetica" font-size="10" x="167.0034" y="824.7822">diese Signatur beweist den physischen Besitz von PrK.Client.Sig.</text><polygon fill="#181818" points="414.4614,862.4219,404.4614,866.4219,414.4614,870.4219,410.4614,866.4219" style="stroke:#181818;stroke-width:1;stroke-linejoin:miter;stroke-miterlimit:10;"/><line style="stroke:#181818;stroke-width:1;" x1="408.4614" x2="664.5093" y1="866.4219" y2="866.4219"/><text fill="#000000" font-family="Helvetica" font-size="10" x="420.4614" y="856.2432">(17)</text><text fill="#000000" font-family="Helvetica" font-size="10" x="444.9888" y="850.4229">SecKeyCreateSignature(</text><text fill="#000000" font-family="Helvetica" font-size="10" x="451.3462" y="862.0635">PrK.Client.Sig, SHA-256(PuK.Client.Sig))</text><polygon fill="#181818" points="142.9214,888.0625,132.9214,892.0625,142.9214,896.0625,138.9214,892.0625" style="stroke:#181818;stroke-width:1;stroke-linejoin:miter;stroke-miterlimit:10;"/><line style="stroke:#181818;stroke-width:1;" x1="136.9214" x2="392.4614" y1="892.0625" y2="892.0625"/><text fill="#000000" font-family="Helvetica" font-size="10" x="148.9214" y="887.7041">(18)</text><text fill="#000000" font-family="Helvetica" font-size="10" x="173.4487" y="887.7041">Signiere Hash mit PrK.Client.Sig</text><polygon fill="#181818" points="381.4614,913.7031,391.4614,917.7031,381.4614,921.7031,385.4614,917.7031" style="stroke:#181818;stroke-width:1;stroke-linejoin:miter;stroke-miterlimit:10;"/><line style="stroke:#181818;stroke-width:1;stroke-dasharray:2,2;" x1="131.9214" x2="387.4614" y1="917.7031" y2="917.7031"/><text fill="#000000" font-family="Helvetica" font-size="10" x="138.9214" y="913.3447">(19)</text><text fill="#000000" font-family="Helvetica" font-size="10" x="163.4487" y="913.3447">ECDSA Signatur</text><polygon fill="#181818" points="653.5093,939.3438,663.5093,943.3438,653.5093,947.3438,657.5093,943.3438" style="stroke:#181818;stroke-width:1;stroke-linejoin:miter;stroke-miterlimit:10;"/><line style="stroke:#181818;stroke-width:1;stroke-dasharray:2,2;" x1="403.4614" x2="659.5093" y1="943.3438" y2="943.3438"/><text fill="#000000" font-family="Helvetica" font-size="10" x="410.4614" y="938.9854">(20)</text><text fill="#000000" font-family="Helvetica" font-size="10" x="434.9888" y="938.9854">signed_hash_puk_client_sig</text><line style="stroke:#181818;stroke-width:1;" x1="675.5093" x2="717.5093" y1="1010.2656" y2="1010.2656"/><line style="stroke:#181818;stroke-width:1;" x1="717.5093" x2="717.5093" y1="1010.2656" y2="1023.2656"/><line style="stroke:#181818;stroke-width:1;" x1="676.5093" x2="717.5093" y1="1023.2656" y2="1023.2656"/><polygon fill="#181818" points="686.5093,1019.2656,676.5093,1023.2656,686.5093,1027.2656,682.5093,1023.2656" style="stroke:#181818;stroke-width:1;stroke-linejoin:miter;stroke-miterlimit:10;"/><text fill="#000000" font-family="Helvetica" font-size="10" x="682.5093" y="1000.0869">(21)</text><text fill="#000000" font-family="Helvetica" font-size="10" x="707.0366" y="994.2666">Generiere PrK.Client.Sig,</text><text fill="#000000" font-family="Helvetica" font-size="10" x="707.0366" y="1005.9072">PuK.Client.Sig</text><?plantuml-src bLNRRkD637sVhs3pKCXmf1O5Te5crm4KMsqCRzQ6bTrUOC0OIxGrZJmIPaRP9D_JpyXRVcmvklYYMa4A1CveH1uUaeVK3q96QH4ZUDvFUR5DtPG_PeNnp8DXBEVAY4ZaN1hmypn5jieUu6o4zoB2CnW5NyV3O3cSVfhE6S2XzLc8KQ4G0aBdzsJBDOG1V0h6P7upctuEFj-UTYpZJ4DmjZoQXkSWofyPZwTXhuHf34vZbGJ9v0ncy_6D7yp3lyBRu6RtlXNjx-3MXs4gK9eIl3h2nuzFQFZb9JcWZ2qeQ_wpogJVPpKHEjLUhdjP0rp0M6h3qvGRaKbmlcXK4EOymXvZF3LmN1us63IHIpyP8Kpm4MPSA71cQk9LRxrGR3x0h3Xyxi5WKEO53GIngAbTs3W4D5J83SwvZBCjFIwaitvvLd0CVDu21Y6fPRqIMsO68SMrWMozI_5tbAW4ga9k84ODkHBRbtyLabkKf2_FMcEg5x8CLLFpwKxPacYlvjnqaqY7GR-_HyK3570EygqTIKtkFbFNlO0xV1p7uCnnJTxo2Kxas6j7FUZOcznBV-hMDLVnDwxGzOr1RUegEDLJrNGgzBaD1DNbhazlgcMCiNYYPqFLR85IIGlI8WgvvQdO81nHsE36kjZyOEXNLJwXYz6GZfLZYCgEiwSJoYVsDfO9gOKYELMvNccHFt7tNSevLvLes2iDMleJSAv9YaHmLs9_ikzEPs_8ivLEy_gAk4I9H8WIcZcKL9J1GeRNlllBk_TEQrxO_wy9BozjHHOITcJE8If1HjpmQwuJ6EpZTrGkKDeWMUprGumaDuM2b-SLxOWTG4S9_-FNZbCURQYlrA9rgI6Qf2R8Zu0DW-7LT4wBu4_ltS-_kXEa3A4FSunGvEQ0VPi0jySbtqjocQt-mSXqjgxJmIwzu25FYQEXpAzG2_CaUPHyGw7jrijeFkXlbf6uj2RFrqQe7kmMYXsb4ujLUp2YPTz53LPelGt4WZhrXtibP4opzQ6EGRVweAOxOvgxF7dKGaS97IicS4z3Uxn4gfcqdnER1dl3ucv2OIc_zjRka7c70YrMgObIiLjXMdWTkWk6ez27qw8xQBOc0uoN2M4ly-9kMGt8aguPeuy1mcyaxnMFxjYfCTxlbLQE2tcSdFqOi-y0?></g></svg>