<svg xmlns="http://www.w3.org/2000/svg" xmlns:xlink="http://www.w3.org/1999/xlink" contentStyleType="text/css" data-diagram-type="SEQUENCE" height="1070px" preserveAspectRatio="none" style="width:1129px;height:1070px;background:#FFFFFF;" version="1.1" viewBox="0 0 1129 1070" width="1129px" zoomAndPan="magnify"><?plantuml 1.2026.6?><defs/><g><rect fill="#FEFCFF" height="1044.75" style="stroke:#181818;stroke-width:0.5;" width="87.1543" x="28.8091" y="11"/><text fill="#000000" font-family="Helvetica" font-size="10" font-weight="700" x="40.8091" y="20.2822">Mobile App</text><rect fill="#EDFDEC" height="1044.75" style="stroke:#181818;stroke-width:0.5;" width="147.7842" x="318.0664" y="11"/><text fill="#000000" font-family="Helvetica" font-size="10" font-weight="700" x="330.0664" y="20.2822">Anbieter TI 2.0 Dienst</text><rect fill="#FFF3E5" height="1028.1094" style="stroke:#181818;stroke-width:0.5;" width="147.7842" x="318.0664" y="27.6406"/><text fill="#000000" font-family="Helvetica" font-size="10" font-weight="700" x="358.814" y="36.9229">ZETA Guard</text><rect fill="#EAF2FF" height="1044.75" style="stroke:#181818;stroke-width:0.5;" width="388.772" x="723.7412" y="11"/><text fill="#000000" font-family="Helvetica" font-size="10" font-weight="700" x="880.0217" y="20.2822">TI-F&#246;deration</text><g><title>ZETA Client</title><rect fill="#000000" fill-opacity="0.00000" height="906.625" width="8" x="68.8862" y="93.2031"/><line style="stroke:#000000;stroke-width:0.5;stroke-dasharray:5,5;" x1="72.3862" x2="72.3862" y1="93.2031" y2="999.8281"/></g><g><title/><rect fill="#FFFFFF" height="898.625" style="stroke:#181818;stroke-width:1;" width="10" x="67.3862" y="101.2031"/></g><g><title>PDP</title><rect fill="#000000" fill-opacity="0.00000" height="906.625" width="8" x="388.4585" y="93.2031"/><line style="stroke:#000000;stroke-width:0.5;stroke-dasharray:5,5;" x1="391.9585" x2="391.9585" y1="93.2031" y2="999.8281"/></g><g><title/><rect fill="#FFFFFF" height="702.8594" style="stroke:#181818;stroke-width:1;" width="10" x="386.9585" y="247.3281"/></g><g><title/><rect fill="#FFFFFF" height="25.6406" style="stroke:#181818;stroke-width:1;" width="10" x="391.9585" y="672.5"/></g><g><title>Sektoraler IDP</title><rect fill="#000000" fill-opacity="0.00000" height="906.625" width="8" x="770.7261" y="93.2031"/><line style="stroke:#000000;stroke-width:0.5;stroke-dasharray:5,5;" x1="774.2261" x2="774.2261" y1="93.2031" y2="999.8281"/></g><g><title/><rect fill="#FFFFFF" height="25.6406" style="stroke:#181818;stroke-width:1;" width="10" x="769.2261" y="362.5313"/></g><g><title/><rect fill="#FFFFFF" height="282.0469" style="stroke:#181818;stroke-width:1;" width="10" x="769.2261" y="619.2188"/></g><g><title>Federation</title><rect fill="#000000" fill-opacity="0.00000" height="906.625" width="8" x="1071.1138" y="93.2031"/><line style="stroke:#000000;stroke-width:0.5;stroke-dasharray:5,5;" x1="1074.6138" x2="1074.6138" y1="93.2031" y2="999.8281"/></g><g><title/><rect fill="#FFFFFF" height="25.6406" style="stroke:#181818;stroke-width:1;" width="10" x="1069.6138" y="413.8125"/></g><g><title/><rect fill="#FFFFFF" height="25.6406" style="stroke:#181818;stroke-width:1;" width="10" x="1069.6138" y="723.7813"/></g><rect fill="#FFE6CC" height="25.6406" rx="2.5" ry="2.5" style="stroke:#D79B00;stroke-width:0.5;" width="72.2471" x="36.2627" y="66.5625"/><text fill="#000000" font-family="Helvetica" font-size="10" x="43.2627" y="82.8447">ZETA Client</text><rect fill="#FFE6CC" height="48.9219" rx="2.5" ry="2.5" style="stroke:#D79B00;stroke-width:0.5;" width="117.0322" x="333.4424" y="43.2813"/><text fill="#000000" font-family="Helvetica" font-size="10" x="382.0781" y="59.5635">PDP</text><text fill="#000000" font-family="Helvetica" font-size="10" x="340.4839" y="71.2041">Authorization Server</text><text fill="#000000" font-family="Helvetica" font-size="10" x="340.4424" y="82.8447">(OIDC Relying Party)</text><rect fill="#E2E2F0" height="37.2813" rx="2.5" ry="2.5" style="stroke:#181818;stroke-width:0.5;" width="92.9697" x="727.7412" y="54.9219"/><text fill="#000000" font-family="Helvetica" font-size="10" x="738.4912" y="71.2041">Sektoraler IDP</text><text fill="#000000" font-family="Helvetica" font-size="10" x="734.7412" y="82.8447">(PAR-Endpunkt)</text><rect fill="#E2E2F0" height="37.2813" rx="2.5" ry="2.5" style="stroke:#181818;stroke-width:0.5;" width="67.7988" x="1040.7144" y="54.9219"/><text fill="#000000" font-family="Helvetica" font-size="10" x="1047.7144" y="71.2041">Federation</text><text fill="#000000" font-family="Helvetica" font-size="10" x="1057.5386" y="82.8447">Master</text><rect fill="#FFE6CC" height="25.6406" rx="2.5" ry="2.5" style="stroke:#D79B00;stroke-width:0.5;" width="72.2471" x="36.2627" y="999.8281"/><text fill="#000000" font-family="Helvetica" font-size="10" x="43.2627" y="1016.1104">ZETA Client</text><rect fill="#FFE6CC" height="48.9219" rx="2.5" ry="2.5" style="stroke:#D79B00;stroke-width:0.5;" width="117.0322" x="333.4424" y="999.8281"/><text fill="#000000" font-family="Helvetica" font-size="10" x="382.0781" y="1016.1104">PDP</text><text fill="#000000" font-family="Helvetica" font-size="10" x="340.4839" y="1027.751">Authorization Server</text><text fill="#000000" font-family="Helvetica" font-size="10" x="340.4424" y="1039.3916">(OIDC Relying Party)</text><rect fill="#E2E2F0" height="37.2813" rx="2.5" ry="2.5" style="stroke:#181818;stroke-width:0.5;" width="92.9697" x="727.7412" y="999.8281"/><text fill="#000000" font-family="Helvetica" font-size="10" x="738.4912" y="1016.1104">Sektoraler IDP</text><text fill="#000000" font-family="Helvetica" font-size="10" x="734.7412" y="1027.751">(PAR-Endpunkt)</text><rect fill="#E2E2F0" height="37.2813" rx="2.5" ry="2.5" style="stroke:#181818;stroke-width:0.5;" width="67.7988" x="1040.7144" y="999.8281"/><text fill="#000000" font-family="Helvetica" font-size="10" x="1047.7144" y="1016.1104">Federation</text><text fill="#000000" font-family="Helvetica" font-size="10" x="1057.5386" y="1027.751">Master</text><path d="M15,106.2031 L15,127.2031 L449,127.2031 L449,116.2031 L439,106.2031 L15,106.2031" fill="#FEFFDD" style="stroke:#181818;stroke-width:0.5;"/><path d="M439,106.2031 L439,116.2031 L449,116.2031 L439,106.2031" fill="#FEFFDD" style="stroke:#181818;stroke-width:0.5;"/><text fill="#000000" font-family="Helvetica" font-size="10" x="21" y="120.4854">Der ZETA Client hat vom Fach-Client den fachlichen Request inkl. idp_iss erhalten.</text><line style="stroke:#181818;stroke-width:1;" x1="77.3862" x2="119.3862" y1="173.7656" y2="173.7656"/><line style="stroke:#181818;stroke-width:1;" x1="119.3862" x2="119.3862" y1="173.7656" y2="186.7656"/><line style="stroke:#181818;stroke-width:1;" x1="78.3862" x2="119.3862" y1="186.7656" y2="186.7656"/><polygon fill="#181818" points="88.3862,182.7656,78.3862,186.7656,88.3862,190.7656,84.3862,186.7656" style="stroke:#181818;stroke-width:1;stroke-linejoin:miter;stroke-miterlimit:10;"/><text fill="#000000" font-family="Helvetica" font-size="10" x="84.3862" y="157.7666">(01)</text><text fill="#000000" font-family="Helvetica" font-size="10" x="108.9136" y="146.126">Erzeuge PKCE (code_verifier_app),</text><text fill="#000000" font-family="Helvetica" font-size="10" x="108.9136" y="157.7666">code_challenge_app = S256(code_verifier_app),</text><text fill="#000000" font-family="Helvetica" font-size="10" x="108.9136" y="169.4072">state_app</text><polygon fill="#181818" points="374.9585,243.3281,384.9585,247.3281,374.9585,251.3281,378.9585,247.3281" style="stroke:#181818;stroke-width:1;stroke-linejoin:miter;stroke-miterlimit:10;"/><line style="stroke:#181818;stroke-width:1;" x1="77.3862" x2="380.9585" y1="247.3281" y2="247.3281"/><text fill="#000000" font-family="Helvetica" font-size="10" x="84.3862" y="225.5088">(02)</text><text fill="#000000" font-family="Helvetica" font-size="10" x="108.9136" y="208.0479">GET Authorization Request</text><text fill="#000000" font-family="Helvetica" font-size="10" x="108.9136" y="219.6885">{response_type=code, client_id, redirect_uri_app,</text><text fill="#000000" font-family="Helvetica" font-size="10" x="108.9136" y="231.3291">code_challenge_app, code_challenge_method=S256,</text><text fill="#000000" font-family="Helvetica" font-size="10" x="108.9136" y="242.9697">scope, state_app, idp_iss}</text><line style="stroke:#181818;stroke-width:1;" x1="396.9585" x2="438.9585" y1="296.25" y2="296.25"/><line style="stroke:#181818;stroke-width:1;" x1="438.9585" x2="438.9585" y1="296.25" y2="309.25"/><line style="stroke:#181818;stroke-width:1;" x1="397.9585" x2="438.9585" y1="309.25" y2="309.25"/><polygon fill="#181818" points="407.9585,305.25,397.9585,309.25,407.9585,313.25,403.9585,309.25" style="stroke:#181818;stroke-width:1;stroke-linejoin:miter;stroke-miterlimit:10;"/><text fill="#000000" font-family="Helvetica" font-size="10" x="403.9585" y="280.251">(03)</text><text fill="#000000" font-family="Helvetica" font-size="10" x="428.4858" y="268.6104">Erzeuge PKCE (code_verifier_as),</text><text fill="#000000" font-family="Helvetica" font-size="10" x="428.4858" y="280.251">code_challenge_as = S256(code_verifier_as),</text><text fill="#000000" font-family="Helvetica" font-size="10" x="428.4858" y="291.8916">state_as, nonce</text><path d="M375.9585,321.25 L439.7671,321.25 L439.7671,324.8906 L429.7671,334.8906 L375.9585,334.8906 L375.9585,321.25" fill="#EEEEEE" style="stroke:#000000;stroke-width:1.5;"/><rect fill="none" height="176.4844" style="stroke:#000000;stroke-width:1.5;" width="719.6553" x="375.9585" y="321.25"/><text fill="#000000" font-family="Helvetica" font-size="10" font-weight="700" x="390.9585" y="331.5322">opt</text><text fill="#000000" font-family="Helvetica" font-size="10" font-weight="700" x="454.7671" y="332.5322">[Entity Statement des IDP unbekannt]</text><polygon fill="#181818" points="757.2261,358.5313,767.2261,362.5313,757.2261,366.5313,761.2261,362.5313" style="stroke:#181818;stroke-width:1;stroke-linejoin:miter;stroke-miterlimit:10;"/><line style="stroke:#181818;stroke-width:1;" x1="396.9585" x2="763.2261" y1="362.5313" y2="362.5313"/><text fill="#000000" font-family="Helvetica" font-size="10" x="403.9585" y="358.1729">(04)</text><text fill="#000000" font-family="Helvetica" font-size="10" x="428.4858" y="358.1729">GET /.well-known/openid-federation</text><polygon fill="#181818" points="407.9585,384.1719,397.9585,388.1719,407.9585,392.1719,403.9585,388.1719" style="stroke:#181818;stroke-width:1;stroke-linejoin:miter;stroke-miterlimit:10;"/><line style="stroke:#181818;stroke-width:1;stroke-dasharray:2,2;" x1="401.9585" x2="768.2261" y1="388.1719" y2="388.1719"/><text fill="#000000" font-family="Helvetica" font-size="10" x="413.9585" y="383.8135">(05)</text><text fill="#000000" font-family="Helvetica" font-size="10" x="438.4858" y="383.8135">Entity Statement (signiert)</text><polygon fill="#181818" points="1057.6138,409.8125,1067.6138,413.8125,1057.6138,417.8125,1061.6138,413.8125" style="stroke:#181818;stroke-width:1;stroke-linejoin:miter;stroke-miterlimit:10;"/><line style="stroke:#181818;stroke-width:1;" x1="396.9585" x2="1063.6138" y1="413.8125" y2="413.8125"/><text fill="#000000" font-family="Helvetica" font-size="10" x="403.9585" y="409.4541">(06)</text><text fill="#000000" font-family="Helvetica" font-size="10" x="428.4858" y="409.4541">GET federation_fetch_endpoint?sub=&lt;idp_iss&gt;</text><polygon fill="#181818" points="407.9585,435.4531,397.9585,439.4531,407.9585,443.4531,403.9585,439.4531" style="stroke:#181818;stroke-width:1;stroke-linejoin:miter;stroke-miterlimit:10;"/><line style="stroke:#181818;stroke-width:1;stroke-dasharray:2,2;" x1="401.9585" x2="1068.6138" y1="439.4531" y2="439.4531"/><text fill="#000000" font-family="Helvetica" font-size="10" x="413.9585" y="435.0947">(07)</text><text fill="#000000" font-family="Helvetica" font-size="10" x="438.4858" y="435.0947">Entity Statement des IDP (signiert, Federation Master)</text><line style="stroke:#181818;stroke-width:1;" x1="396.9585" x2="438.9585" y1="476.7344" y2="476.7344"/><line style="stroke:#181818;stroke-width:1;" x1="438.9585" x2="438.9585" y1="476.7344" y2="489.7344"/><line style="stroke:#181818;stroke-width:1;" x1="397.9585" x2="438.9585" y1="489.7344" y2="489.7344"/><polygon fill="#181818" points="407.9585,485.7344,397.9585,489.7344,407.9585,493.7344,403.9585,489.7344" style="stroke:#181818;stroke-width:1;stroke-linejoin:miter;stroke-miterlimit:10;"/><text fill="#000000" font-family="Helvetica" font-size="10" x="403.9585" y="466.5557">(08)</text><text fill="#000000" font-family="Helvetica" font-size="10" x="428.4858" y="460.7354">Validiere Trust Chain, importiere Signaturschl&#252;ssel</text><text fill="#000000" font-family="Helvetica" font-size="10" x="428.4858" y="472.376">und OP-Metadaten (PAR-, Authorization-, Token-Endpunkt) des IDP</text><path d="M297.3677,516.7344 L297.3677,560.7344 L868.3677,560.7344 L868.3677,526.7344 L858.3677,516.7344 L297.3677,516.7344" fill="#FEFFDD" style="stroke:#181818;stroke-width:0.5;"/><path d="M858.3677,516.7344 L858.3677,526.7344 L868.3677,526.7344 L858.3677,516.7344" fill="#FEFFDD" style="stroke:#181818;stroke-width:0.5;"/><text fill="#000000" font-family="Helvetica" font-size="10" x="303.3677" y="531.0166">oidc_redirect_uri ist der Redirection-Endpunkt der OIDC Relying Party (AuthS) f&#252;r den SekIDP Auth Code Flow.</text><text fill="#000000" font-family="Helvetica" font-size="10" x="303.3677" y="542.6572">Sie wird im Entity Statement des AS (Fachdienst) gef&#252;hrt; der SekIDP pr&#252;ft beim PAR, ob oidc_redirect_uri</text><text fill="#000000" font-family="Helvetica" font-size="10" x="303.3677" y="554.2979">eine bekannte redirect_uri aus diesem AS-Entity-Statement ist.</text><polygon fill="#181818" points="757.2261,615.2188,767.2261,619.2188,757.2261,623.2188,761.2261,619.2188" style="stroke:#181818;stroke-width:1;stroke-linejoin:miter;stroke-miterlimit:10;"/><line style="stroke:#181818;stroke-width:1;" x1="396.9585" x2="763.2261" y1="619.2188" y2="619.2188"/><text fill="#000000" font-family="Helvetica" font-size="10" x="403.9585" y="597.3994">(09)</text><text fill="#000000" font-family="Helvetica" font-size="10" x="428.4858" y="579.9385">POST /PAR (mTLS, self_signed_tls_client_auth)</text><text fill="#000000" font-family="Helvetica" font-size="10" x="428.4858" y="591.5791">{client_id, oidc_redirect_uri, response_type=code,</text><text fill="#000000" font-family="Helvetica" font-size="10" x="428.4858" y="603.2197">code_challenge_as, code_challenge_method=S256,</text><text fill="#000000" font-family="Helvetica" font-size="10" x="428.4858" y="614.8604">scope, claims, acr_values, nonce, state_as}</text><path d="M370.9585,631.2188 L434.7671,631.2188 L434.7671,634.8594 L424.7671,644.8594 L370.9585,644.8594 L370.9585,631.2188" fill="#EEEEEE" style="stroke:#000000;stroke-width:1.5;"/><rect fill="none" height="176.4844" style="stroke:#000000;stroke-width:1.5;" width="724.6553" x="370.9585" y="631.2188"/><text fill="#000000" font-family="Helvetica" font-size="10" font-weight="700" x="385.9585" y="641.501">opt</text><text fill="#000000" font-family="Helvetica" font-size="10" font-weight="700" x="449.7671" y="642.501">[Entity Statement des Fachdienstes unbekannt]</text><polygon fill="#181818" points="412.9585,668.5,402.9585,672.5,412.9585,676.5,408.9585,672.5" style="stroke:#181818;stroke-width:1;stroke-linejoin:miter;stroke-miterlimit:10;"/><line style="stroke:#181818;stroke-width:1;" x1="406.9585" x2="768.2261" y1="672.5" y2="672.5"/><text fill="#000000" font-family="Helvetica" font-size="10" x="418.9585" y="668.1416">(10)</text><text fill="#000000" font-family="Helvetica" font-size="10" x="443.4858" y="668.1416">GET /.well-known/openid-federation</text><polygon fill="#181818" points="757.2261,694.1406,767.2261,698.1406,757.2261,702.1406,761.2261,698.1406" style="stroke:#181818;stroke-width:1;stroke-linejoin:miter;stroke-miterlimit:10;"/><line style="stroke:#181818;stroke-width:1;stroke-dasharray:2,2;" x1="401.9585" x2="763.2261" y1="698.1406" y2="698.1406"/><text fill="#000000" font-family="Helvetica" font-size="10" x="408.9585" y="693.7822">(11)</text><text fill="#000000" font-family="Helvetica" font-size="10" x="433.4858" y="693.7822">Entity Statement des Fachdienstes (signiert)</text><polygon fill="#181818" points="1057.6138,719.7813,1067.6138,723.7813,1057.6138,727.7813,1061.6138,723.7813" style="stroke:#181818;stroke-width:1;stroke-linejoin:miter;stroke-miterlimit:10;"/><line style="stroke:#181818;stroke-width:1;" x1="779.2261" x2="1063.6138" y1="723.7813" y2="723.7813"/><text fill="#000000" font-family="Helvetica" font-size="10" x="786.2261" y="719.4229">(12)</text><text fill="#000000" font-family="Helvetica" font-size="10" x="810.7534" y="719.4229">GET federation_fetch_endpoint?sub=&lt;client_id&gt;</text><polygon fill="#181818" points="790.2261,745.4219,780.2261,749.4219,790.2261,753.4219,786.2261,749.4219" style="stroke:#181818;stroke-width:1;stroke-linejoin:miter;stroke-miterlimit:10;"/><line style="stroke:#181818;stroke-width:1;stroke-dasharray:2,2;" x1="784.2261" x2="1068.6138" y1="749.4219" y2="749.4219"/><text fill="#000000" font-family="Helvetica" font-size="10" x="796.2261" y="745.0635">(13)</text><text fill="#000000" font-family="Helvetica" font-size="10" x="820.7534" y="745.0635">Entity Statement des Fachdienstes (signiert)</text><line style="stroke:#181818;stroke-width:1;" x1="779.2261" x2="821.2261" y1="786.7031" y2="786.7031"/><line style="stroke:#181818;stroke-width:1;" x1="821.2261" x2="821.2261" y1="786.7031" y2="799.7031"/><line style="stroke:#181818;stroke-width:1;" x1="780.2261" x2="821.2261" y1="799.7031" y2="799.7031"/><polygon fill="#181818" points="790.2261,795.7031,780.2261,799.7031,790.2261,803.7031,786.2261,799.7031" style="stroke:#181818;stroke-width:1;stroke-linejoin:miter;stroke-miterlimit:10;"/><text fill="#000000" font-family="Helvetica" font-size="10" x="786.2261" y="776.5244">(14)</text><text fill="#000000" font-family="Helvetica" font-size="10" x="810.7534" y="770.7041">Validiere Trust Chain, Automatic Registration,</text><text fill="#000000" font-family="Helvetica" font-size="10" x="810.7534" y="782.3447">importiere Schl&#252;ssel (sig/enc) des Fachdienstes</text><line style="stroke:#181818;stroke-width:1;" x1="779.2261" x2="821.2261" y1="862.625" y2="862.625"/><line style="stroke:#181818;stroke-width:1;" x1="821.2261" x2="821.2261" y1="862.625" y2="875.625"/><line style="stroke:#181818;stroke-width:1;" x1="780.2261" x2="821.2261" y1="875.625" y2="875.625"/><polygon fill="#181818" points="790.2261,871.625,780.2261,875.625,790.2261,879.625,786.2261,875.625" style="stroke:#181818;stroke-width:1;stroke-linejoin:miter;stroke-miterlimit:10;"/><text fill="#000000" font-family="Helvetica" font-size="10" x="786.2261" y="846.626">(15)</text><text fill="#000000" font-family="Helvetica" font-size="10" x="810.7534" y="834.9854">Validiere PAR: oidc_redirect_uri gegen redirect_uris</text><text fill="#000000" font-family="Helvetica" font-size="10" x="810.7534" y="846.626">im AS-Entity-Statement, scope, claims,</text><text fill="#000000" font-family="Helvetica" font-size="10" x="810.7534" y="858.2666">TLS-Clientzertifikat; erzeuge request_uri</text><polygon fill="#181818" points="407.9585,897.2656,397.9585,901.2656,407.9585,905.2656,403.9585,901.2656" style="stroke:#181818;stroke-width:1;stroke-linejoin:miter;stroke-miterlimit:10;"/><line style="stroke:#181818;stroke-width:1;stroke-dasharray:2,2;" x1="401.9585" x2="768.2261" y1="901.2656" y2="901.2656"/><text fill="#000000" font-family="Helvetica" font-size="10" x="413.9585" y="896.9072">(16)</text><text fill="#000000" font-family="Helvetica" font-size="10" x="438.4858" y="896.9072">201 Created {request_uri, expires_in (max. 90s)}</text><polygon fill="#181818" points="88.3862,946.1875,78.3862,950.1875,88.3862,954.1875,84.3862,950.1875" style="stroke:#181818;stroke-width:1;stroke-linejoin:miter;stroke-miterlimit:10;"/><line style="stroke:#181818;stroke-width:1;stroke-dasharray:2,2;" x1="82.3862" x2="385.9585" y1="950.1875" y2="950.1875"/><text fill="#000000" font-family="Helvetica" font-size="10" x="94.3862" y="934.1885">(17)</text><text fill="#000000" font-family="Helvetica" font-size="10" x="118.9136" y="922.5479">302 Found Location:</text><text fill="#000000" font-family="Helvetica" font-size="10" x="118.9136" y="934.1885">&lt;SekIDP Entity Statement authorization_endpoint&gt;</text><text fill="#000000" font-family="Helvetica" font-size="10" x="118.9136" y="945.8291">?client_id&amp;request_uri</text><path d="M36.082,963.1875 L36.082,984.1875 L810.082,984.1875 L810.082,973.1875 L800.082,963.1875 L36.082,963.1875" fill="#FEFFDD" style="stroke:#181818;stroke-width:0.5;"/><path d="M800.082,963.1875 L800.082,973.1875 L810.082,973.1875 L800.082,963.1875" fill="#FEFFDD" style="stroke:#181818;stroke-width:0.5;"/><text fill="#000000" font-family="Helvetica" font-size="10" x="247.0239" y="977.4697">Weiter mit Teildiagramm (B) Abb-ZETA-OIDC-Nutzerauthentisierung.</text><?plantuml-src fLPjR_8s5FsUNt77f8seX7QTDccixIF6IuNM3WIiaoQao2GNi4YSFBRJjqVxM_lKR_rZktP2I0hTAkqJmh7lEJu-vzfVSH54MOZGRf-cMHnv4NjACjtMZzfnd6zXZZmAELjB5iVGxBeTw6PwaqZ-p3HF14pnSuPAGuWA_XpCkz2BE0eDCTSmoTG6mtSMD2VTgLi0m3rzw2wNdgdWZKVzdcSMKHs-uiySPIRMNfmiUOJIom6KuooJHsZSsb7efca3-eExKM_WzyOtuwa3a3AfUS1JHdGALan1eyAo0HSNpwZPrPM38WGgM5JjYYL7ZHBc8pXldq6VPYkQFfcExqRzmRJ4iBDjnUkCoR1XDV2lV-zE--MSEXEpiPabCkbF5g8kpWpbFSg5Q1eDIAheYOirJ6ZvariX2x2ZMwSz7td3rxz3bBPQ0xuUT8Vdm-4RBKRzYSMVuLOdaf6cPeX0wKIyWGZJJ6orstYpQdXh5mrnLtuXRfaYZHfx4hcg9oUEI3H2GbifX6xbs-v0duQgDjamJOSVmv05c-9aoKe2LlG_uW5Pe3GC5zke3JnCVQuKeDomIADexr31kogATc0Wdp5R8qn-xGsW6IGX-iI5l8JIPsdgjXR23WPK8qAnHZCAbp0x_-77uzELPjhEgiBPFPsSTE1wC3_kyeNu8b6bYL3ewwSKBqtn5WIsXC_35aWCkSH0-vdaflvHQhIYFXOZWOMNXgyX5oGfLIqvjdOg_UKukTrsPFz36dLC6VMECAgYYsg1I4I0ZfEa6WQKM_q4C_CjpazKMTTbOebR9eIsgIYfqQUTYgVj1umYRokI1t5Akn8yz5QbvUmoKyZRRSZpEeTmJSNNWZXgjuuplDt1x4lwAzJ1nYSBfmaN-fFAbfSNXNnNTZaP_z_XThihOLkmJmda8Nd3f3YCEnRna5OWp6L65kzj61TqUd6QKF3C-8nACfr9HN5uVL4AeuN8A6xZYNTBlI0a3iAsKgzLTo3zdoTR5Fj0xtYQk3gLX5ekBVi58E5Xu5Sz2TmsTqcEpWTDxLrD--6mLT4zOMgwi7fzaJREr6gCGcOOUcGZ64R9GvlmPXpXWSkGzdnSsEuCcgOvXBO3kx16AhgH-cUBNTHDvUlBIiCIgGffqO9aURWJqpMvG2WiYBNe0SiK48R2c22zd8gtfq8gj6sVCxfLKbLOTpAUaNS96fhn_8RKf8DQ-SOF6FewKdwHU4RhN6eAbGPmmDFqX8EMSIIM7siAGSHuJ7DP8Frx5b5JAg9QzWlJ9TvDxLvw-bEFhytXcoRuWVWMqkNQlPkd6kwRF1V07qvpANOjp_yJdNxUpIzjCOc9Jq2nM9DpScvq9jLWbu6s0ASe0lS0Eu_gSKGoM-T8NDUufhnLXvJ1FMPgSa3D8mj1rYqkuMVQB_NvBQEWON5boFnEirawQCBdPzz1JoAL3k5BPMOBy34bBihdrAXYzjY6dywKkx-PoclRLFd-x1o6YMbmDqbWLUiin4MHyeEZOjM6LnxwrK9yAe_ycohf8yyIA-eVoCrRppnPwy_TNzmthzBVCgCCAzwcAd-Pjfr_0000?></g></svg>