<svg xmlns="http://www.w3.org/2000/svg" xmlns:xlink="http://www.w3.org/1999/xlink" contentStyleType="text/css" data-diagram-type="SEQUENCE" height="1082px" preserveAspectRatio="none" style="width:1127px;height:1082px;background:#FFFFFF;" version="1.1" viewBox="0 0 1127 1082" width="1127px" zoomAndPan="magnify"><?plantuml 1.2026.6?><defs/><g><rect fill="#FEFCFF" height="1056.3906" style="stroke:#181818;stroke-width:0.5;" width="87.1543" x="28.8091" y="11"/><text fill="#000000" font-family="Helvetica" font-size="10" font-weight="700" x="40.8091" y="20.2822">Mobile App</text><rect fill="#EDFDEC" height="1056.3906" style="stroke:#181818;stroke-width:0.5;" width="147.7842" x="318.0664" y="11"/><text fill="#000000" font-family="Helvetica" font-size="10" font-weight="700" x="330.0664" y="20.2822">Anbieter TI 2.0 Dienst</text><rect fill="#FFF3E5" height="1039.75" style="stroke:#181818;stroke-width:0.5;" width="147.7842" x="318.0664" y="27.6406"/><text fill="#000000" font-family="Helvetica" font-size="10" font-weight="700" x="358.814" y="36.9229">ZETA Guard</text><rect fill="#EAF2FF" height="1056.3906" style="stroke:#181818;stroke-width:0.5;" width="386.5356" x="723.7412" y="11"/><text fill="#000000" font-family="Helvetica" font-size="10" font-weight="700" x="878.9036" y="20.2822">TI-F&#246;deration</text><g><title>ZETA Client</title><rect fill="#000000" fill-opacity="0.00000" height="918.2656" width="8" x="68.8862" y="93.2031"/><line style="stroke:#000000;stroke-width:0.5;stroke-dasharray:5,5;" x1="72.3862" x2="72.3862" y1="93.2031" y2="1011.4688"/></g><g><title/><rect fill="#FFFFFF" height="910.2656" style="stroke:#181818;stroke-width:1;" width="10" x="67.3862" y="101.2031"/></g><g><title>PDP</title><rect fill="#000000" fill-opacity="0.00000" height="918.2656" width="8" x="388.4585" y="93.2031"/><line style="stroke:#000000;stroke-width:0.5;stroke-dasharray:5,5;" x1="391.9585" x2="391.9585" y1="93.2031" y2="1011.4688"/></g><g><title/><rect fill="#FFFFFF" height="714.5" style="stroke:#181818;stroke-width:1;" width="10" x="386.9585" y="247.3281"/></g><g><title/><rect fill="#FFFFFF" height="25.6406" style="stroke:#181818;stroke-width:1;" width="10" x="391.9585" y="684.1406"/></g><g><title>Sektoraler IDP</title><rect fill="#000000" fill-opacity="0.00000" height="918.2656" width="8" x="770.7261" y="93.2031"/><line style="stroke:#000000;stroke-width:0.5;stroke-dasharray:5,5;" x1="774.2261" x2="774.2261" y1="93.2031" y2="1011.4688"/></g><g><title/><rect fill="#FFFFFF" height="25.6406" style="stroke:#181818;stroke-width:1;" width="10" x="769.2261" y="362.5313"/></g><g><title/><rect fill="#FFFFFF" height="282.0469" style="stroke:#181818;stroke-width:1;" width="10" x="769.2261" y="630.8594"/></g><g><title>Federation</title><rect fill="#000000" fill-opacity="0.00000" height="918.2656" width="8" x="1068.8774" y="93.2031"/><line style="stroke:#000000;stroke-width:0.5;stroke-dasharray:5,5;" x1="1072.3774" x2="1072.3774" y1="93.2031" y2="1011.4688"/></g><g><title/><rect fill="#FFFFFF" height="25.6406" style="stroke:#181818;stroke-width:1;" width="10" x="1067.3774" y="413.8125"/></g><g><title/><rect fill="#FFFFFF" height="25.6406" style="stroke:#181818;stroke-width:1;" width="10" x="1067.3774" y="735.4219"/></g><rect fill="#FFE6CC" height="25.6406" rx="2.5" ry="2.5" style="stroke:#D79B00;stroke-width:0.5;" width="72.2471" x="36.2627" y="66.5625"/><text fill="#000000" font-family="Helvetica" font-size="10" x="43.2627" y="82.8447">ZETA Client</text><rect fill="#FFE6CC" height="48.9219" rx="2.5" ry="2.5" style="stroke:#D79B00;stroke-width:0.5;" width="117.0322" x="333.4424" y="43.2813"/><text fill="#000000" font-family="Helvetica" font-size="10" x="382.0781" y="59.5635">PDP</text><text fill="#000000" font-family="Helvetica" font-size="10" x="340.4839" y="71.2041">Authorization Server</text><text fill="#000000" font-family="Helvetica" font-size="10" x="340.4424" y="82.8447">(OIDC Relying Party)</text><rect fill="#E2E2F0" height="37.2813" rx="2.5" ry="2.5" style="stroke:#181818;stroke-width:0.5;" width="92.9697" x="727.7412" y="54.9219"/><text fill="#000000" font-family="Helvetica" font-size="10" x="738.4912" y="71.2041">Sektoraler IDP</text><text fill="#000000" font-family="Helvetica" font-size="10" x="734.7412" y="82.8447">(PAR-Endpunkt)</text><rect fill="#E2E2F0" height="37.2813" rx="2.5" ry="2.5" style="stroke:#181818;stroke-width:0.5;" width="67.7988" x="1038.478" y="54.9219"/><text fill="#000000" font-family="Helvetica" font-size="10" x="1045.478" y="71.2041">Federation</text><text fill="#000000" font-family="Helvetica" font-size="10" x="1055.3022" y="82.8447">Master</text><rect fill="#FFE6CC" height="25.6406" rx="2.5" ry="2.5" style="stroke:#D79B00;stroke-width:0.5;" width="72.2471" x="36.2627" y="1011.4688"/><text fill="#000000" font-family="Helvetica" font-size="10" x="43.2627" y="1027.751">ZETA Client</text><rect fill="#FFE6CC" height="48.9219" rx="2.5" ry="2.5" style="stroke:#D79B00;stroke-width:0.5;" width="117.0322" x="333.4424" y="1011.4688"/><text fill="#000000" font-family="Helvetica" font-size="10" x="382.0781" y="1027.751">PDP</text><text fill="#000000" font-family="Helvetica" font-size="10" x="340.4839" y="1039.3916">Authorization Server</text><text fill="#000000" font-family="Helvetica" font-size="10" x="340.4424" y="1051.0322">(OIDC Relying Party)</text><rect fill="#E2E2F0" height="37.2813" rx="2.5" ry="2.5" style="stroke:#181818;stroke-width:0.5;" width="92.9697" x="727.7412" y="1011.4688"/><text fill="#000000" font-family="Helvetica" font-size="10" x="738.4912" y="1027.751">Sektoraler IDP</text><text fill="#000000" font-family="Helvetica" font-size="10" x="734.7412" y="1039.3916">(PAR-Endpunkt)</text><rect fill="#E2E2F0" height="37.2813" rx="2.5" ry="2.5" style="stroke:#181818;stroke-width:0.5;" width="67.7988" x="1038.478" y="1011.4688"/><text fill="#000000" font-family="Helvetica" font-size="10" x="1045.478" y="1027.751">Federation</text><text fill="#000000" font-family="Helvetica" font-size="10" x="1055.3022" y="1039.3916">Master</text><path d="M15,106.2031 L15,127.2031 L449,127.2031 L449,116.2031 L439,106.2031 L15,106.2031" fill="#FEFFDD" style="stroke:#181818;stroke-width:0.5;"/><path d="M439,106.2031 L439,116.2031 L449,116.2031 L439,106.2031" fill="#FEFFDD" style="stroke:#181818;stroke-width:0.5;"/><text fill="#000000" font-family="Helvetica" font-size="10" x="21" y="120.4854">Der ZETA Client hat vom Fach-Client den fachlichen Request inkl. idp_iss erhalten.</text><line style="stroke:#181818;stroke-width:1;" x1="77.3862" x2="119.3862" y1="173.7656" y2="173.7656"/><line style="stroke:#181818;stroke-width:1;" x1="119.3862" x2="119.3862" y1="173.7656" y2="186.7656"/><line style="stroke:#181818;stroke-width:1;" x1="78.3862" x2="119.3862" y1="186.7656" y2="186.7656"/><polygon fill="#181818" points="88.3862,182.7656,78.3862,186.7656,88.3862,190.7656,84.3862,186.7656" style="stroke:#181818;stroke-width:1;stroke-linejoin:miter;stroke-miterlimit:10;"/><text fill="#000000" font-family="Helvetica" font-size="10" x="84.3862" y="157.7666">(01)</text><text fill="#000000" font-family="Helvetica" font-size="10" x="108.9136" y="146.126">Erzeuge PKCE (code_verifier_app),</text><text fill="#000000" font-family="Helvetica" font-size="10" x="108.9136" y="157.7666">code_challenge_app = S256(code_verifier_app),</text><text fill="#000000" font-family="Helvetica" font-size="10" x="108.9136" y="169.4072">state_app</text><polygon fill="#181818" points="374.9585,243.3281,384.9585,247.3281,374.9585,251.3281,378.9585,247.3281" style="stroke:#181818;stroke-width:1;stroke-linejoin:miter;stroke-miterlimit:10;"/><line style="stroke:#181818;stroke-width:1;" x1="77.3862" x2="380.9585" y1="247.3281" y2="247.3281"/><text fill="#000000" font-family="Helvetica" font-size="10" x="84.3862" y="225.5088">(02)</text><text fill="#000000" font-family="Helvetica" font-size="10" x="108.9136" y="208.0479">GET Authorization Request</text><text fill="#000000" font-family="Helvetica" font-size="10" x="108.9136" y="219.6885">{response_type=code, client_id, redirect_uri_app,</text><text fill="#000000" font-family="Helvetica" font-size="10" x="108.9136" y="231.3291">code_challenge_app, code_challenge_method=S256,</text><text fill="#000000" font-family="Helvetica" font-size="10" x="108.9136" y="242.9697">scope, state_app, idp_iss}</text><line style="stroke:#181818;stroke-width:1;" x1="396.9585" x2="438.9585" y1="296.25" y2="296.25"/><line style="stroke:#181818;stroke-width:1;" x1="438.9585" x2="438.9585" y1="296.25" y2="309.25"/><line style="stroke:#181818;stroke-width:1;" x1="397.9585" x2="438.9585" y1="309.25" y2="309.25"/><polygon fill="#181818" points="407.9585,305.25,397.9585,309.25,407.9585,313.25,403.9585,309.25" style="stroke:#181818;stroke-width:1;stroke-linejoin:miter;stroke-miterlimit:10;"/><text fill="#000000" font-family="Helvetica" font-size="10" x="403.9585" y="280.251">(03)</text><text fill="#000000" font-family="Helvetica" font-size="10" x="428.4858" y="268.6104">Erzeuge PKCE (code_verifier_as),</text><text fill="#000000" font-family="Helvetica" font-size="10" x="428.4858" y="280.251">code_challenge_as = S256(code_verifier_as),</text><text fill="#000000" font-family="Helvetica" font-size="10" x="428.4858" y="291.8916">state_as, nonce</text><path d="M375.9585,321.25 L439.7671,321.25 L439.7671,324.8906 L429.7671,334.8906 L375.9585,334.8906 L375.9585,321.25" fill="#EEEEEE" style="stroke:#000000;stroke-width:1.5;"/><rect fill="none" height="176.4844" style="stroke:#000000;stroke-width:1.5;" width="717.4189" x="375.9585" y="321.25"/><text fill="#000000" font-family="Helvetica" font-size="10" font-weight="700" x="390.9585" y="331.5322">opt</text><text fill="#000000" font-family="Helvetica" font-size="10" font-weight="700" x="454.7671" y="332.5322">[Entity Statement des IDP unbekannt]</text><polygon fill="#181818" points="757.2261,358.5313,767.2261,362.5313,757.2261,366.5313,761.2261,362.5313" style="stroke:#181818;stroke-width:1;stroke-linejoin:miter;stroke-miterlimit:10;"/><line style="stroke:#181818;stroke-width:1;" x1="396.9585" x2="763.2261" y1="362.5313" y2="362.5313"/><text fill="#000000" font-family="Helvetica" font-size="10" x="403.9585" y="358.1729">(04)</text><text fill="#000000" font-family="Helvetica" font-size="10" x="428.4858" y="358.1729">GET /.well-known/openid-federation</text><polygon fill="#181818" points="407.9585,384.1719,397.9585,388.1719,407.9585,392.1719,403.9585,388.1719" style="stroke:#181818;stroke-width:1;stroke-linejoin:miter;stroke-miterlimit:10;"/><line style="stroke:#181818;stroke-width:1;stroke-dasharray:2,2;" x1="401.9585" x2="768.2261" y1="388.1719" y2="388.1719"/><text fill="#000000" font-family="Helvetica" font-size="10" x="413.9585" y="383.8135">(05)</text><text fill="#000000" font-family="Helvetica" font-size="10" x="438.4858" y="383.8135">Entity Statement (signiert)</text><polygon fill="#181818" points="1055.3774,409.8125,1065.3774,413.8125,1055.3774,417.8125,1059.3774,413.8125" style="stroke:#181818;stroke-width:1;stroke-linejoin:miter;stroke-miterlimit:10;"/><line style="stroke:#181818;stroke-width:1;" x1="396.9585" x2="1061.3774" y1="413.8125" y2="413.8125"/><text fill="#000000" font-family="Helvetica" font-size="10" x="403.9585" y="409.4541">(06)</text><text fill="#000000" font-family="Helvetica" font-size="10" x="428.4858" y="409.4541">GET federation_fetch_endpoint?sub=&lt;idp_iss&gt;</text><polygon fill="#181818" points="407.9585,435.4531,397.9585,439.4531,407.9585,443.4531,403.9585,439.4531" style="stroke:#181818;stroke-width:1;stroke-linejoin:miter;stroke-miterlimit:10;"/><line style="stroke:#181818;stroke-width:1;stroke-dasharray:2,2;" x1="401.9585" x2="1066.3774" y1="439.4531" y2="439.4531"/><text fill="#000000" font-family="Helvetica" font-size="10" x="413.9585" y="435.0947">(07)</text><text fill="#000000" font-family="Helvetica" font-size="10" x="438.4858" y="435.0947">Entity Statement des IDP (signiert, Federation Master)</text><line style="stroke:#181818;stroke-width:1;" x1="396.9585" x2="438.9585" y1="476.7344" y2="476.7344"/><line style="stroke:#181818;stroke-width:1;" x1="438.9585" x2="438.9585" y1="476.7344" y2="489.7344"/><line style="stroke:#181818;stroke-width:1;" x1="397.9585" x2="438.9585" y1="489.7344" y2="489.7344"/><polygon fill="#181818" points="407.9585,485.7344,397.9585,489.7344,407.9585,493.7344,403.9585,489.7344" style="stroke:#181818;stroke-width:1;stroke-linejoin:miter;stroke-miterlimit:10;"/><text fill="#000000" font-family="Helvetica" font-size="10" x="403.9585" y="466.5557">(08)</text><text fill="#000000" font-family="Helvetica" font-size="10" x="428.4858" y="460.7354">Validiere Trust Chain, importiere Signaturschl&#252;ssel</text><text fill="#000000" font-family="Helvetica" font-size="10" x="428.4858" y="472.376">und OP-Metadaten (PAR-, Authorization-, Token-Endpunkt) des IDP</text><path d="M344.458,516.7344 L344.458,572.7344 L821.458,572.7344 L821.458,526.7344 L811.458,516.7344 L344.458,516.7344" fill="#FEFFDD" style="stroke:#181818;stroke-width:0.5;"/><path d="M811.458,516.7344 L811.458,526.7344 L821.458,526.7344 L811.458,516.7344" fill="#FEFFDD" style="stroke:#181818;stroke-width:0.5;"/><text fill="#000000" font-family="Helvetica" font-size="10" x="362.4717" y="531.0166">redirect_uri_as ist der Redirection-Endpunkt der OIDC Relying Party (AuthS) f&#252;r den</text><text fill="#000000" font-family="Helvetica" font-size="10" x="362.4717" y="542.6572">SekIDP Auth Code Flow. Sie wird im Entity Statement des AS (Fachdienst) gef&#252;hrt; der</text><text fill="#000000" font-family="Helvetica" font-size="10" x="362.4717" y="554.2979">SekIDP pr&#252;ft beim PAR, ob redirect_uri_as eine bekannte redirect_uri aus diesem</text><text fill="#000000" font-family="Helvetica" font-size="10" x="362.4717" y="565.9385">AS-Entity-Statement ist.</text><polygon fill="#181818" points="757.2261,626.8594,767.2261,630.8594,757.2261,634.8594,761.2261,630.8594" style="stroke:#181818;stroke-width:1;stroke-linejoin:miter;stroke-miterlimit:10;"/><line style="stroke:#181818;stroke-width:1;" x1="396.9585" x2="763.2261" y1="630.8594" y2="630.8594"/><text fill="#000000" font-family="Helvetica" font-size="10" x="403.9585" y="609.04">(09)</text><text fill="#000000" font-family="Helvetica" font-size="10" x="428.4858" y="591.5791">POST /PAR (mTLS, self_signed_tls_client_auth)</text><text fill="#000000" font-family="Helvetica" font-size="10" x="428.4858" y="603.2197">{client_id, redirect_uri_as, response_type=code,</text><text fill="#000000" font-family="Helvetica" font-size="10" x="428.4858" y="614.8604">code_challenge_as, code_challenge_method=S256,</text><text fill="#000000" font-family="Helvetica" font-size="10" x="428.4858" y="626.501">scope, claims, acr_values, nonce, state_as}</text><path d="M370.9585,642.8594 L434.7671,642.8594 L434.7671,646.5 L424.7671,656.5 L370.9585,656.5 L370.9585,642.8594" fill="#EEEEEE" style="stroke:#000000;stroke-width:1.5;"/><rect fill="none" height="176.4844" style="stroke:#000000;stroke-width:1.5;" width="722.4189" x="370.9585" y="642.8594"/><text fill="#000000" font-family="Helvetica" font-size="10" font-weight="700" x="385.9585" y="653.1416">opt</text><text fill="#000000" font-family="Helvetica" font-size="10" font-weight="700" x="449.7671" y="654.1416">[Entity Statement des Fachdienstes unbekannt]</text><polygon fill="#181818" points="412.9585,680.1406,402.9585,684.1406,412.9585,688.1406,408.9585,684.1406" style="stroke:#181818;stroke-width:1;stroke-linejoin:miter;stroke-miterlimit:10;"/><line style="stroke:#181818;stroke-width:1;" x1="406.9585" x2="768.2261" y1="684.1406" y2="684.1406"/><text fill="#000000" font-family="Helvetica" font-size="10" x="418.9585" y="679.7822">(10)</text><text fill="#000000" font-family="Helvetica" font-size="10" x="443.4858" y="679.7822">GET /.well-known/openid-federation</text><polygon fill="#181818" points="757.2261,705.7813,767.2261,709.7813,757.2261,713.7813,761.2261,709.7813" style="stroke:#181818;stroke-width:1;stroke-linejoin:miter;stroke-miterlimit:10;"/><line style="stroke:#181818;stroke-width:1;stroke-dasharray:2,2;" x1="401.9585" x2="763.2261" y1="709.7813" y2="709.7813"/><text fill="#000000" font-family="Helvetica" font-size="10" x="408.9585" y="705.4229">(11)</text><text fill="#000000" font-family="Helvetica" font-size="10" x="433.4858" y="705.4229">Entity Statement des Fachdienstes (signiert)</text><polygon fill="#181818" points="1055.3774,731.4219,1065.3774,735.4219,1055.3774,739.4219,1059.3774,735.4219" style="stroke:#181818;stroke-width:1;stroke-linejoin:miter;stroke-miterlimit:10;"/><line style="stroke:#181818;stroke-width:1;" x1="779.2261" x2="1061.3774" y1="735.4219" y2="735.4219"/><text fill="#000000" font-family="Helvetica" font-size="10" x="786.2261" y="731.0635">(12)</text><text fill="#000000" font-family="Helvetica" font-size="10" x="810.7534" y="731.0635">GET federation_fetch_endpoint?sub=&lt;client_id&gt;</text><polygon fill="#181818" points="790.2261,757.0625,780.2261,761.0625,790.2261,765.0625,786.2261,761.0625" style="stroke:#181818;stroke-width:1;stroke-linejoin:miter;stroke-miterlimit:10;"/><line style="stroke:#181818;stroke-width:1;stroke-dasharray:2,2;" x1="784.2261" x2="1066.3774" y1="761.0625" y2="761.0625"/><text fill="#000000" font-family="Helvetica" font-size="10" x="796.2261" y="756.7041">(13)</text><text fill="#000000" font-family="Helvetica" font-size="10" x="820.7534" y="756.7041">Entity Statement des Fachdienstes (signiert)</text><line style="stroke:#181818;stroke-width:1;" x1="779.2261" x2="821.2261" y1="798.3438" y2="798.3438"/><line style="stroke:#181818;stroke-width:1;" x1="821.2261" x2="821.2261" y1="798.3438" y2="811.3438"/><line style="stroke:#181818;stroke-width:1;" x1="780.2261" x2="821.2261" y1="811.3438" y2="811.3438"/><polygon fill="#181818" points="790.2261,807.3438,780.2261,811.3438,790.2261,815.3438,786.2261,811.3438" style="stroke:#181818;stroke-width:1;stroke-linejoin:miter;stroke-miterlimit:10;"/><text fill="#000000" font-family="Helvetica" font-size="10" x="786.2261" y="788.165">(14)</text><text fill="#000000" font-family="Helvetica" font-size="10" x="810.7534" y="782.3447">Validiere Trust Chain, Automatic Registration,</text><text fill="#000000" font-family="Helvetica" font-size="10" x="810.7534" y="793.9854">importiere Schl&#252;ssel (sig/enc) des Fachdienstes</text><line style="stroke:#181818;stroke-width:1;" x1="779.2261" x2="821.2261" y1="874.2656" y2="874.2656"/><line style="stroke:#181818;stroke-width:1;" x1="821.2261" x2="821.2261" y1="874.2656" y2="887.2656"/><line style="stroke:#181818;stroke-width:1;" x1="780.2261" x2="821.2261" y1="887.2656" y2="887.2656"/><polygon fill="#181818" points="790.2261,883.2656,780.2261,887.2656,790.2261,891.2656,786.2261,887.2656" style="stroke:#181818;stroke-width:1;stroke-linejoin:miter;stroke-miterlimit:10;"/><text fill="#000000" font-family="Helvetica" font-size="10" x="786.2261" y="858.2666">(15)</text><text fill="#000000" font-family="Helvetica" font-size="10" x="810.7534" y="846.626">Validiere PAR: redirect_uri_as gegen redirect_uris</text><text fill="#000000" font-family="Helvetica" font-size="10" x="810.7534" y="858.2666">im AS-Entity-Statement, scope, claims,</text><text fill="#000000" font-family="Helvetica" font-size="10" x="810.7534" y="869.9072">TLS-Clientzertifikat; erzeuge request_uri</text><polygon fill="#181818" points="407.9585,908.9063,397.9585,912.9063,407.9585,916.9063,403.9585,912.9063" style="stroke:#181818;stroke-width:1;stroke-linejoin:miter;stroke-miterlimit:10;"/><line style="stroke:#181818;stroke-width:1;stroke-dasharray:2,2;" x1="401.9585" x2="768.2261" y1="912.9063" y2="912.9063"/><text fill="#000000" font-family="Helvetica" font-size="10" x="413.9585" y="908.5479">(16)</text><text fill="#000000" font-family="Helvetica" font-size="10" x="438.4858" y="908.5479">201 Created {request_uri, expires_in (max. 90s)}</text><polygon fill="#181818" points="88.3862,957.8281,78.3862,961.8281,88.3862,965.8281,84.3862,961.8281" style="stroke:#181818;stroke-width:1;stroke-linejoin:miter;stroke-miterlimit:10;"/><line style="stroke:#181818;stroke-width:1;stroke-dasharray:2,2;" x1="82.3862" x2="385.9585" y1="961.8281" y2="961.8281"/><text fill="#000000" font-family="Helvetica" font-size="10" x="94.3862" y="945.8291">(17)</text><text fill="#000000" font-family="Helvetica" font-size="10" x="118.9136" y="934.1885">302 Found Location:</text><text fill="#000000" font-family="Helvetica" font-size="10" x="118.9136" y="945.8291">&lt;SekIDP Entity Statement authorization_endpoint&gt;</text><text fill="#000000" font-family="Helvetica" font-size="10" x="118.9136" y="957.4697">?client_id&amp;request_uri</text><path d="M36.082,974.8281 L36.082,995.8281 L810.082,995.8281 L810.082,984.8281 L800.082,974.8281 L36.082,974.8281" fill="#FEFFDD" style="stroke:#181818;stroke-width:0.5;"/><path d="M800.082,974.8281 L800.082,984.8281 L810.082,984.8281 L800.082,974.8281" fill="#FEFFDD" style="stroke:#181818;stroke-width:0.5;"/><text fill="#000000" font-family="Helvetica" font-size="10" x="247.0239" y="989.1104">Weiter mit Teildiagramm (B) Abb-ZETA-OIDC-Nutzerauthentisierung.</text><?plantuml-src fLRRRkf657ttL-nIgGK5apHLAvKcEQ9S8jIa8A2fL25PWxs14VROPsQSsr5_gqzvouzrpzWOcqiRgK-8kQozPirQs_CL5twO1WYjrdcIHg4RifSurItzh1t7-HPcoCE0ivLaKGJrJgCDdLIlOybVcUQnW0b-Jb5f2531d_rP1xeXHw4XuXh6gLfZS693VToPDF82y4WJdSN2DGZkQDZhkcOJuV0bV-KeKx5oetZ1GvHkLa0vpY9-Xjgz7OLEajIWrtyOTljUTtGtcZW02PEQ-pnXH2TdnHJKIYnhS7NrYfhTt3We0Y307BKZ5XmrIfWDuR9r0JrQhMZvU39w6FRwawA6NMqHRrCcWvhLmBlzlJFf5MkgJCp1ffR8k3UUYweuKvIFAEUYRZGWgS8NBbOmfkqlZH9PW2tTAktPq1sy_nsWj6Wr-BhV6LmE1djQ37jZMt-A6nrBHfgQ8IfAD-BsHP2aOgCRjRrTWtkxQO1R-BcuPueqgkr8PAgUdJaYrWWn7IKNkfaTkmqz6YhRPCqqNNu40-QlyvibAmbOql-G-sI1mZ1SRC8My23nk5A0Sir2ZQArhGhkJGxQXhvynNI5CFwrsuUw7mVe4HVo4agF9KcZEHTsq2UC4CKApIXSm_JoXn-FBrUQQRkgNCwUwUoi3RVzsN6NpyKNYIg9XK9FloHuRS2Ru5i8ZmTDa1XmYRxsKiaD_b5gjACw5Y4L2wuDNqFEZnD2BJWsjohzvJYPtRPa_qCQTKmPTK8OLT95DK74maV7YHCDVSgjVe6fcOko6rNMTQbOu8O9eMqg2ceqjLNnlFM4OUXkHFmapkbKWWVkih2StMQ0tEs1NBTzMAwk-4eGHzserXdSRyli8BqbQd_jaOMJc0lzIQMBwwjSlXkxdOp_x-MsfolADc6N4iX2iiSalum75lA0TY3CP4eMxwuP5tHxKH9JyCpub22PJgMYEBo_AONXNAGKjz7OlQTU4107OLkfswmwaFxFuWsANQ2tF4rSdL92BPUcdO4zEohWjhLBydCsRf2tY7RYi57HLy8WDc3v_YPDc0cMMerHo4n0bsm4Wp1-Qj7f49wu3EZ4nsNjJA5kMaDW-sy3LaYWQwb_DhLtk8byVrjgM23Xa1PDY1S79q4k47BxOMKMMAg0AYYC2B8pTJCgxeuAgT2oNSweLifKRjpnQ4hEfS9GZsPtf2LTqz8pRi30qw7oyhmpsjUWbd0o_ieC7BIB8v7yM4FmGyOZMijywJsoa1fI7jEYLvWESJAnE-7fJpMwDeDx3V03qSs5ovGxcQLAtRqivuK_dEH2wagM_sTr-ZcPNJfY714VdqAn8jzatEXEog4kmcmBdAFm6mUrivWUhqXMQnyOV8KhwWNbKMMg7ZCqtN_58ND1jiq_lwzqMkhm6qOXm_nZ8RElcS5q3jhlvSLtq9L8q05yAQri0Zudn4Lvd5fKn9vRyDE5Qko-ISK7sw1yVt49WzYqjhlOjvgrv-8gp_V1HR5ogokk_6OkFXKN_asPz947YPNq3-JcbMSUgzM7xY-DlVVeRwbHXkMlKfMzILlEFm00?></g></svg>