<svg xmlns="http://www.w3.org/2000/svg" xmlns:xlink="http://www.w3.org/1999/xlink" contentStyleType="text/css" data-diagram-type="SEQUENCE" height="966px" preserveAspectRatio="none" style="width:1094px;height:966px;background:#FFFFFF;" version="1.1" viewBox="0 0 1094 966" width="1094px" zoomAndPan="magnify"><defs/><g><rect fill="#FEFCFF" height="954.9063" style="stroke:#181818;stroke-width:0.5;" width="87.1543" x="11" y="6"/><text fill="#000000" font-family="Helvetica" font-size="10" font-weight="bold" x="23" y="15.2822">Mobile App</text><rect fill="#EDFDEC" height="954.9063" style="stroke:#181818;stroke-width:0.5;" width="147.7842" x="326.7515" y="6"/><text fill="#000000" font-family="Helvetica" font-size="10" font-weight="bold" x="338.7515" y="15.2822">Anbieter TI 2.0 Dienst</text><rect fill="#FFF3E5" height="938.2656" style="stroke:#181818;stroke-width:0.5;" width="147.7842" x="326.7515" y="22.6406"/><text fill="#000000" font-family="Helvetica" font-size="10" font-weight="bold" x="367.499" y="31.9229">ZETA Guard</text><rect fill="#EAF2FF" height="954.9063" style="stroke:#181818;stroke-width:0.5;" width="386.5356" x="701.479" y="6"/><text fill="#000000" font-family="Helvetica" font-size="10" font-weight="bold" x="856.6414" y="15.2822">TI-F&#246;deration</text><g><title>ZETA Client</title><rect fill="#000000" fill-opacity="0.00000" height="816.7813" width="8" x="51.0771" y="88.2031"/><line style="stroke:#000000;stroke-width:0.5;stroke-dasharray:5.0,5.0;" x1="54.5771" x2="54.5771" y1="88.2031" y2="904.9844"/></g><g><title>PDP</title><rect fill="#000000" fill-opacity="0.00000" height="816.7813" width="8" x="397.1436" y="88.2031"/><line style="stroke:#000000;stroke-width:0.5;stroke-dasharray:5.0,5.0;" x1="400.6436" x2="400.6436" y1="88.2031" y2="904.9844"/></g><g><title/><rect fill="#FFFFFF" height="613.0156" style="stroke:#000000;stroke-width:1;" width="10" x="395.6436" y="242.3281"/></g><g><title/><rect fill="#FFFFFF" height="25.6406" style="stroke:#000000;stroke-width:1;" width="10" x="400.6436" y="600.9375"/></g><g><title>Sektoraler IDP</title><rect fill="#000000" fill-opacity="0.00000" height="816.7813" width="8" x="748.4639" y="88.2031"/><line style="stroke:#000000;stroke-width:0.5;stroke-dasharray:5.0,5.0;" x1="751.9639" x2="751.9639" y1="88.2031" y2="904.9844"/></g><g><title/><rect fill="#FFFFFF" height="25.6406" style="stroke:#000000;stroke-width:1;" width="10" x="746.9639" y="357.5313"/></g><g><title/><rect fill="#FFFFFF" height="270.4063" style="stroke:#000000;stroke-width:1;" width="10" x="746.9639" y="547.6563"/></g><g><title>Federation</title><rect fill="#000000" fill-opacity="0.00000" height="816.7813" width="8" x="1046.6152" y="88.2031"/><line style="stroke:#000000;stroke-width:0.5;stroke-dasharray:5.0,5.0;" x1="1050.1152" x2="1050.1152" y1="88.2031" y2="904.9844"/></g><g><title/><rect fill="#FFFFFF" height="25.6406" style="stroke:#000000;stroke-width:1;" width="10" x="1045.1152" y="408.8125"/></g><g><title/><rect fill="#FFFFFF" height="25.6406" style="stroke:#000000;stroke-width:1;" width="10" x="1045.1152" y="652.2188"/></g><rect fill="#FFE6CC" height="25.6406" rx="2.5" ry="2.5" style="stroke:#D79B00;stroke-width:0.5;" width="72.2471" x="18.4536" y="61.5625"/><text fill="#000000" font-family="Helvetica" font-size="10" x="25.4536" y="77.8447">ZETA Client</text><rect fill="#FFE6CC" height="48.9219" rx="2.5" ry="2.5" style="stroke:#D79B00;stroke-width:0.5;" width="117.0322" x="342.1274" y="38.2813"/><text fill="#000000" font-family="Helvetica" font-size="10" x="390.7632" y="54.5635">PDP</text><text fill="#000000" font-family="Helvetica" font-size="10" x="349.1689" y="66.2041">Authorization Server</text><text fill="#000000" font-family="Helvetica" font-size="10" x="349.1274" y="77.8447">(OIDC Relying Party)</text><rect fill="#E2E2F0" height="37.2813" rx="2.5" ry="2.5" style="stroke:#181818;stroke-width:0.5;" width="92.9697" x="705.479" y="49.9219"/><text fill="#000000" font-family="Helvetica" font-size="10" x="716.229" y="66.2041">Sektoraler IDP</text><text fill="#000000" font-family="Helvetica" font-size="10" x="712.479" y="77.8447">(PAR-Endpunkt)</text><rect fill="#E2E2F0" height="37.2813" rx="2.5" ry="2.5" style="stroke:#181818;stroke-width:0.5;" width="67.7988" x="1016.2158" y="49.9219"/><text fill="#000000" font-family="Helvetica" font-size="10" x="1023.2158" y="66.2041">Federation</text><text fill="#000000" font-family="Helvetica" font-size="10" x="1033.04" y="77.8447">Master</text><rect fill="#FFE6CC" height="25.6406" rx="2.5" ry="2.5" style="stroke:#D79B00;stroke-width:0.5;" width="72.2471" x="18.4536" y="904.9844"/><text fill="#000000" font-family="Helvetica" font-size="10" x="25.4536" y="921.2666">ZETA Client</text><rect fill="#FFE6CC" height="48.9219" rx="2.5" ry="2.5" style="stroke:#D79B00;stroke-width:0.5;" width="117.0322" x="342.1274" y="904.9844"/><text fill="#000000" font-family="Helvetica" font-size="10" x="390.7632" y="921.2666">PDP</text><text fill="#000000" font-family="Helvetica" font-size="10" x="349.1689" y="932.9072">Authorization Server</text><text fill="#000000" font-family="Helvetica" font-size="10" x="349.1274" y="944.5479">(OIDC Relying Party)</text><rect fill="#E2E2F0" height="37.2813" rx="2.5" ry="2.5" style="stroke:#181818;stroke-width:0.5;" width="92.9697" x="705.479" y="904.9844"/><text fill="#000000" font-family="Helvetica" font-size="10" x="716.229" y="921.2666">Sektoraler IDP</text><text fill="#000000" font-family="Helvetica" font-size="10" x="712.479" y="932.9072">(PAR-Endpunkt)</text><rect fill="#E2E2F0" height="37.2813" rx="2.5" ry="2.5" style="stroke:#181818;stroke-width:0.5;" width="67.7988" x="1016.2158" y="904.9844"/><text fill="#000000" font-family="Helvetica" font-size="10" x="1023.2158" y="921.2666">Federation</text><text fill="#000000" font-family="Helvetica" font-size="10" x="1033.04" y="932.9072">Master</text><path d="M10.438,101.2031 L10.438,122.2031 L444.438,122.2031 L444.438,111.2031 L434.438,101.2031 L10.438,101.2031" fill="#FEFFDD" style="stroke:#181818;stroke-width:0.5;"/><path d="M434.438,101.2031 L434.438,111.2031 L444.438,111.2031 L434.438,101.2031" fill="#FEFFDD" style="stroke:#181818;stroke-width:0.5;"/><text fill="#000000" font-family="Helvetica" font-size="10" x="16.438" y="115.4854">Der ZETA Client hat vom Fach-Client den fachlichen Request inkl. idp_iss erhalten.</text><line style="stroke:#181818;stroke-width:1;" x1="54.5771" x2="96.5771" y1="168.7656" y2="168.7656"/><line style="stroke:#181818;stroke-width:1;" x1="96.5771" x2="96.5771" y1="168.7656" y2="181.7656"/><line style="stroke:#181818;stroke-width:1;" x1="55.5771" x2="96.5771" y1="181.7656" y2="181.7656"/><polygon fill="#181818" points="65.5771,177.7656,55.5771,181.7656,65.5771,185.7656,61.5771,181.7656" style="stroke:#181818;stroke-width:1;"/><text fill="#000000" font-family="Helvetica" font-size="10" x="61.5771" y="152.7666">(01)</text><text fill="#000000" font-family="Helvetica" font-size="10" x="86.1045" y="141.126">Erzeuge PKCE (code_verifier_app),</text><text fill="#000000" font-family="Helvetica" font-size="10" x="86.1045" y="152.7666">code_challenge_app = S256(code_verifier_app),</text><text fill="#000000" font-family="Helvetica" font-size="10" x="86.1045" y="164.4072">state_app</text><polygon fill="#181818" points="383.6436,238.3281,393.6436,242.3281,383.6436,246.3281,387.6436,242.3281" style="stroke:#181818;stroke-width:1;"/><line style="stroke:#181818;stroke-width:1;" x1="54.5771" x2="389.6436" y1="242.3281" y2="242.3281"/><text fill="#000000" font-family="Helvetica" font-size="10" x="61.5771" y="220.5088">(02)</text><text fill="#000000" font-family="Helvetica" font-size="10" x="86.1045" y="203.0479">Authorization Request</text><text fill="#000000" font-family="Helvetica" font-size="10" x="86.1045" y="214.6885">{response_type=code, client_id, redirect_uri,</text><text fill="#000000" font-family="Helvetica" font-size="10" x="86.1045" y="226.3291">code_challenge_app, code_challenge_method=S256,</text><text fill="#000000" font-family="Helvetica" font-size="10" x="86.1045" y="237.9697">scope, state_app, idp_iss}</text><line style="stroke:#181818;stroke-width:1;" x1="405.6436" x2="447.6436" y1="291.25" y2="291.25"/><line style="stroke:#181818;stroke-width:1;" x1="447.6436" x2="447.6436" y1="291.25" y2="304.25"/><line style="stroke:#181818;stroke-width:1;" x1="406.6436" x2="447.6436" y1="304.25" y2="304.25"/><polygon fill="#181818" points="416.6436,300.25,406.6436,304.25,416.6436,308.25,412.6436,304.25" style="stroke:#181818;stroke-width:1;"/><text fill="#000000" font-family="Helvetica" font-size="10" x="412.6436" y="275.251">(03)</text><text fill="#000000" font-family="Helvetica" font-size="10" x="437.1709" y="263.6104">Erzeuge PKCE (code_verifier_as),</text><text fill="#000000" font-family="Helvetica" font-size="10" x="437.1709" y="275.251">code_challenge_as = S256(code_verifier_as),</text><text fill="#000000" font-family="Helvetica" font-size="10" x="437.1709" y="286.8916">state_as, nonce</text><path d="M384.6436,316.25 L448.4521,316.25 L448.4521,319.8906 L438.4521,329.8906 L384.6436,329.8906 L384.6436,316.25" fill="#EEEEEE" style="stroke:#000000;stroke-width:1.5;"/><rect fill="none" height="164.8438" style="stroke:#000000;stroke-width:1.5;" width="686.4717" x="384.6436" y="316.25"/><text fill="#000000" font-family="Helvetica" font-size="10" font-weight="bold" x="399.6436" y="326.5322">opt</text><text fill="#000000" font-family="Helvetica" font-size="10" font-weight="bold" x="463.4521" y="327.5322">[Entity Statement des IDP unbekannt]</text><polygon fill="#181818" points="734.9639,353.5313,744.9639,357.5313,734.9639,361.5313,738.9639,357.5313" style="stroke:#181818;stroke-width:1;"/><line style="stroke:#181818;stroke-width:1;" x1="405.6436" x2="740.9639" y1="357.5313" y2="357.5313"/><text fill="#000000" font-family="Helvetica" font-size="10" x="412.6436" y="353.1729">(04)</text><text fill="#000000" font-family="Helvetica" font-size="10" x="437.1709" y="353.1729">GET /.well-known/openid-federation</text><polygon fill="#181818" points="416.6436,379.1719,406.6436,383.1719,416.6436,387.1719,412.6436,383.1719" style="stroke:#181818;stroke-width:1;"/><line style="stroke:#181818;stroke-width:1;stroke-dasharray:2.0,2.0;" x1="410.6436" x2="745.9639" y1="383.1719" y2="383.1719"/><text fill="#000000" font-family="Helvetica" font-size="10" x="422.6436" y="378.8135">(05)</text><text fill="#000000" font-family="Helvetica" font-size="10" x="447.1709" y="378.8135">Entity Statement (signiert)</text><polygon fill="#181818" points="1033.1152,404.8125,1043.1152,408.8125,1033.1152,412.8125,1037.1152,408.8125" style="stroke:#181818;stroke-width:1;"/><line style="stroke:#181818;stroke-width:1;" x1="405.6436" x2="1039.1152" y1="408.8125" y2="408.8125"/><text fill="#000000" font-family="Helvetica" font-size="10" x="412.6436" y="404.4541">(06)</text><text fill="#000000" font-family="Helvetica" font-size="10" x="437.1709" y="404.4541">GET federation_fetch_endpoint?sub=&lt;idp_iss&gt;</text><polygon fill="#181818" points="416.6436,430.4531,406.6436,434.4531,416.6436,438.4531,412.6436,434.4531" style="stroke:#181818;stroke-width:1;"/><line style="stroke:#181818;stroke-width:1;stroke-dasharray:2.0,2.0;" x1="410.6436" x2="1044.1152" y1="434.4531" y2="434.4531"/><text fill="#000000" font-family="Helvetica" font-size="10" x="422.6436" y="430.0947">(07)</text><text fill="#000000" font-family="Helvetica" font-size="10" x="447.1709" y="430.0947">Entity Statement des IDP (signiert, Federation Master)</text><line style="stroke:#181818;stroke-width:1;" x1="405.6436" x2="447.6436" y1="460.0938" y2="460.0938"/><line style="stroke:#181818;stroke-width:1;" x1="447.6436" x2="447.6436" y1="460.0938" y2="473.0938"/><line style="stroke:#181818;stroke-width:1;" x1="406.6436" x2="447.6436" y1="473.0938" y2="473.0938"/><polygon fill="#181818" points="416.6436,469.0938,406.6436,473.0938,416.6436,477.0938,412.6436,473.0938" style="stroke:#181818;stroke-width:1;"/><text fill="#000000" font-family="Helvetica" font-size="10" x="412.6436" y="455.7354">(08)</text><text fill="#000000" font-family="Helvetica" font-size="10" x="437.1709" y="455.7354">Validiere Trust Chain &amp; importiere Signaturschl&#252;ssel des IDP</text><polygon fill="#181818" points="734.9639,543.6563,744.9639,547.6563,734.9639,551.6563,738.9639,547.6563" style="stroke:#181818;stroke-width:1;"/><line style="stroke:#181818;stroke-width:1;" x1="405.6436" x2="740.9639" y1="547.6563" y2="547.6563"/><text fill="#000000" font-family="Helvetica" font-size="10" x="412.6436" y="525.8369">(09)</text><text fill="#000000" font-family="Helvetica" font-size="10" x="437.1709" y="508.376">POST /PAR (mTLS, self_signed_tls_client_auth)</text><text fill="#000000" font-family="Helvetica" font-size="10" x="437.1709" y="520.0166">{client_id, redirect_uri, response_type=code,</text><text fill="#000000" font-family="Helvetica" font-size="10" x="437.1709" y="531.6572">code_challenge_as, code_challenge_method=S256,</text><text fill="#000000" font-family="Helvetica" font-size="10" x="437.1709" y="543.2979">scope, claims, acr_values, nonce, state_as}</text><path d="M379.6436,559.6563 L443.4521,559.6563 L443.4521,563.2969 L433.4521,573.2969 L379.6436,573.2969 L379.6436,559.6563" fill="#EEEEEE" style="stroke:#000000;stroke-width:1.5;"/><rect fill="none" height="176.4844" style="stroke:#000000;stroke-width:1.5;" width="691.4717" x="379.6436" y="559.6563"/><text fill="#000000" font-family="Helvetica" font-size="10" font-weight="bold" x="394.6436" y="569.9385">opt</text><text fill="#000000" font-family="Helvetica" font-size="10" font-weight="bold" x="458.4521" y="570.9385">[Entity Statement des Fachdienstes unbekannt]</text><polygon fill="#181818" points="421.6436,596.9375,411.6436,600.9375,421.6436,604.9375,417.6436,600.9375" style="stroke:#181818;stroke-width:1;"/><line style="stroke:#181818;stroke-width:1;" x1="415.6436" x2="745.9639" y1="600.9375" y2="600.9375"/><text fill="#000000" font-family="Helvetica" font-size="10" x="427.6436" y="596.5791">(10)</text><text fill="#000000" font-family="Helvetica" font-size="10" x="452.1709" y="596.5791">GET /.well-known/openid-federation</text><polygon fill="#181818" points="734.9639,622.5781,744.9639,626.5781,734.9639,630.5781,738.9639,626.5781" style="stroke:#181818;stroke-width:1;"/><line style="stroke:#181818;stroke-width:1;stroke-dasharray:2.0,2.0;" x1="410.6436" x2="740.9639" y1="626.5781" y2="626.5781"/><text fill="#000000" font-family="Helvetica" font-size="10" x="417.6436" y="622.2197">(11)</text><text fill="#000000" font-family="Helvetica" font-size="10" x="442.1709" y="622.2197">Entity Statement des Fachdienstes (signiert)</text><polygon fill="#181818" points="1033.1152,648.2188,1043.1152,652.2188,1033.1152,656.2188,1037.1152,652.2188" style="stroke:#181818;stroke-width:1;"/><line style="stroke:#181818;stroke-width:1;" x1="756.9639" x2="1039.1152" y1="652.2188" y2="652.2188"/><text fill="#000000" font-family="Helvetica" font-size="10" x="763.9639" y="647.8604">(12)</text><text fill="#000000" font-family="Helvetica" font-size="10" x="788.4912" y="647.8604">GET federation_fetch_endpoint?sub=&lt;client_id&gt;</text><polygon fill="#181818" points="767.9639,673.8594,757.9639,677.8594,767.9639,681.8594,763.9639,677.8594" style="stroke:#181818;stroke-width:1;"/><line style="stroke:#181818;stroke-width:1;stroke-dasharray:2.0,2.0;" x1="761.9639" x2="1044.1152" y1="677.8594" y2="677.8594"/><text fill="#000000" font-family="Helvetica" font-size="10" x="773.9639" y="673.501">(13)</text><text fill="#000000" font-family="Helvetica" font-size="10" x="798.4912" y="673.501">Entity Statement des Fachdienstes (signiert)</text><line style="stroke:#181818;stroke-width:1;" x1="756.9639" x2="798.9639" y1="715.1406" y2="715.1406"/><line style="stroke:#181818;stroke-width:1;" x1="798.9639" x2="798.9639" y1="715.1406" y2="728.1406"/><line style="stroke:#181818;stroke-width:1;" x1="757.9639" x2="798.9639" y1="728.1406" y2="728.1406"/><polygon fill="#181818" points="767.9639,724.1406,757.9639,728.1406,767.9639,732.1406,763.9639,728.1406" style="stroke:#181818;stroke-width:1;"/><text fill="#000000" font-family="Helvetica" font-size="10" x="763.9639" y="704.9619">(14)</text><text fill="#000000" font-family="Helvetica" font-size="10" x="788.4912" y="699.1416">Validiere Trust Chain, Automatic Registration,</text><text fill="#000000" font-family="Helvetica" font-size="10" x="788.4912" y="710.7822">importiere Schl&#252;ssel (sig/enc) des Fachdienstes</text><line style="stroke:#181818;stroke-width:1;" x1="756.9639" x2="798.9639" y1="779.4219" y2="779.4219"/><line style="stroke:#181818;stroke-width:1;" x1="798.9639" x2="798.9639" y1="779.4219" y2="792.4219"/><line style="stroke:#181818;stroke-width:1;" x1="757.9639" x2="798.9639" y1="792.4219" y2="792.4219"/><polygon fill="#181818" points="767.9639,788.4219,757.9639,792.4219,767.9639,796.4219,763.9639,792.4219" style="stroke:#181818;stroke-width:1;"/><text fill="#000000" font-family="Helvetica" font-size="10" x="763.9639" y="769.2432">(15)</text><text fill="#000000" font-family="Helvetica" font-size="10" x="788.4912" y="763.4229">Validiere PAR (redirect_uri, scope, claims,</text><text fill="#000000" font-family="Helvetica" font-size="10" x="788.4912" y="775.0635">TLS-Clientzertifikat), erzeuge request_uri</text><polygon fill="#181818" points="416.6436,814.0625,406.6436,818.0625,416.6436,822.0625,412.6436,818.0625" style="stroke:#181818;stroke-width:1;"/><line style="stroke:#181818;stroke-width:1;stroke-dasharray:2.0,2.0;" x1="410.6436" x2="745.9639" y1="818.0625" y2="818.0625"/><text fill="#000000" font-family="Helvetica" font-size="10" x="422.6436" y="813.7041">(16)</text><text fill="#000000" font-family="Helvetica" font-size="10" x="447.1709" y="813.7041">201 Created {request_uri, expires_in (max. 90s)}</text><polygon fill="#181818" points="65.5771,851.3438,55.5771,855.3438,65.5771,859.3438,61.5771,855.3438" style="stroke:#181818;stroke-width:1;"/><line style="stroke:#181818;stroke-width:1;stroke-dasharray:2.0,2.0;" x1="59.5771" x2="394.6436" y1="855.3438" y2="855.3438"/><text fill="#000000" font-family="Helvetica" font-size="10" x="71.5771" y="845.165">(17)</text><text fill="#000000" font-family="Helvetica" font-size="10" x="96.1045" y="839.3447">302 Found</text><text fill="#000000" font-family="Helvetica" font-size="10" x="96.1045" y="850.9854">Location: &lt;authorization_endpoint&gt;?client_id&amp;request_uri</text><path d="M18.2729,868.3438 L18.2729,889.3438 L787.2729,889.3438 L787.2729,878.3438 L777.2729,868.3438 L18.2729,868.3438" fill="#FEFFDD" style="stroke:#181818;stroke-width:0.5;"/><path d="M777.2729,868.3438 L777.2729,878.3438 L787.2729,878.3438 L777.2729,868.3438" fill="#FEFFDD" style="stroke:#181818;stroke-width:0.5;"/><text fill="#000000" font-family="Helvetica" font-size="10" x="226.9883" y="882.626">Weiter mit Teildiagramm (B) Abb-ZETA-OIDC-Nutzerauthentisierung.</text><!--SRC=[fLPHR-9647xthvXIwOfrcAHKhTGeoOc2YL2JWe2cKeLaBVO4LjXhTtUT2vpkRzrJt-wFTNPj73k1DbAV4BixyttxpJVZ_OQBCCuZX6xtBCkJs8lPBirrLpzfnt6-WmNoEE9iBLcIGBllNa0_rvjKyZtJF1KmmxzoL1eYLF2dl-Z38EOeD2HSmpHN6unE1BId_PbR0i0ZRVHNAyzay2RZuS0pGPI7F_0zHvcBjPUaAnwZz0e0vJYhz0bQTtOL-bdMWg5_FnxumM1oEvav01cJceSyOqIdPCKKj6eiMt1vkKVDhgyT515GmZ9hNwmuQfIm64ElUmv3Egte-7GskHyF_Lc5OK_RZ3Svar7BQX3S_DwV3QipJIRcOdDBP3gSBaLJd3dAHvHBqJOQa5JnZeirJ2byvzR80XpeDcalnjxewvS8fStMWc_z_gWt6htGOZoSMlmvRdKg6MbgbWYKAkBv8ifoiTLkwqNKwCu6ZV2GVYdkc2ADMiyaHAeHKhf1gM-dkEq536cfxeuDqrJp14Oit9G59GS9UA3_CG-fyfLFkDZ6NU1H5d2b0EM6nHf5rt7ACE-wJ7e1ljnZlaQO_ZhmeHsc4GR4XIo4Cc1PvdQMmYw6b2D6iKQp2bSmx_tuq_7ZIZDjJzNXx9tUlp_H2KlnIQBAKg4mqBiChqpY3eGsFE1H1oH6N6AeWrpoevJeT7CjGGAAhWnFGofCCyfOSUiSrFdiE8Mx3YJ_Gn9rJ15rGX1LqqDrGAGYHCT9Cmq-jQdUmTpi9KKbbJLPBbQuPK9esmGLDTeowjtu2pZhViGuzhOY_IZEw5Q2Hzv3vJ0RPX9vXmjvtiLhkBRYQq4SjTl46TqTO9vJ1W-emqr0ZirIBlG7bQ-kBalvhcqu-VpVuGwtgs0xyDmKKFJ42oPbCUvPp2EAG5Z8dAmzs30ku1tm94kfqSp6d78odKj5VV3rRwKmFk2PBglLjnHnEfcJYjIuq4uMjtDo1SOFWM66KQ1Z5PI-OnJdaZLFsH2EUFQ8Dzxcp31cFA6pB9J18ukfAqg_LAOrLZrf7JCK8ZjmwK_JGzOCjGvyeuTArGhPJXQrWVl2L2NmcorLwTmmrVz4fvyJ9hA3Das8JqXpQCsLBhXHJUhcUZQL0JX34Rgli0kV7KUqFclwfbdofI0JbWDzJ_HfTcoPTZiqjuiv98iXQMATLvtTE_yU1X99bGW-rKvI-5D6c2gWTcadxAaBFvyhztdSLTy0a-M7ynwCqbn4It6RXbQ62xXazLbT5UlwGrMeTtLgHxvaLee_a9jNWNdSD1z6lxWltY-_vKO0LhvYLF66wJh_0000]--></g></svg>