<svg xmlns="http://www.w3.org/2000/svg" xmlns:xlink="http://www.w3.org/1999/xlink" contentStyleType="text/css" data-diagram-type="SEQUENCE" height="1074px" preserveAspectRatio="none" style="width:804px;height:1074px;background:#FFFFFF;" version="1.1" viewBox="0 0 804 1074" width="804px" zoomAndPan="magnify"><?plantuml 1.2026.6?><defs/><g><rect fill="#FEFCFF" height="1048.9063" style="stroke:#181818;stroke-width:0.5;" width="606.5352" x="35" y="11"/><text fill="#000000" font-family="Helvetica" font-size="10" font-weight="700" x="319.3979" y="20.2822">Device</text><rect fill="#E6E6FA" height="1032.2656" style="stroke:#181818;stroke-width:0.5;" width="80.2471" x="561.2881" y="27.6406"/><text fill="#000000" font-family="Helvetica" font-size="10" font-weight="700" x="590.3838" y="36.9229">App</text><g><title>Secure Enclave</title><rect fill="#000000" fill-opacity="0.00000" height="957.3438" width="8" x="80.9546" y="69.9219"/><line style="stroke:#000000;stroke-width:0.5;stroke-dasharray:5,5;" x1="84.4546" x2="84.4546" y1="69.9219" y2="1027.2656"/></g><g><title/><rect fill="#FFFFFF" height="25.6406" style="stroke:#181818;stroke-width:1;" width="10" x="79.4546" y="282.0469"/></g><g><title/><rect fill="#FFFFFF" height="25.6406" style="stroke:#181818;stroke-width:1;" width="10" x="79.4546" y="467.5313"/></g><g><title/><rect fill="#FFFFFF" height="25.6406" style="stroke:#181818;stroke-width:1;" width="10" x="79.4546" y="632.0156"/></g><g><title/><rect fill="#FFFFFF" height="25.6406" style="stroke:#181818;stroke-width:1;" width="10" x="79.4546" y="852.4219"/></g><g><title>AppleOS .macOS. iOS. iPadOS.</title><rect fill="#000000" fill-opacity="0.00000" height="957.3438" width="8" x="306.9038" y="69.9219"/><line style="stroke:#000000;stroke-width:0.5;stroke-dasharray:5,5;" x1="310.4038" x2="310.4038" y1="69.9219" y2="1027.2656"/></g><g><title/><rect fill="#FFFFFF" height="949.3438" style="stroke:#181818;stroke-width:1;" width="10" x="305.4038" y="77.9219"/></g><g><title>ZETA Client</title><rect fill="#000000" fill-opacity="0.00000" height="957.3438" width="8" x="597.9116" y="69.9219"/><line style="stroke:#000000;stroke-width:0.5;stroke-dasharray:5,5;" x1="601.4116" x2="601.4116" y1="69.9219" y2="1027.2656"/></g><g><title/><rect fill="#FFFFFF" height="949.3438" style="stroke:#181818;stroke-width:1;" width="10" x="596.4116" y="77.9219"/></g><rect fill="#E4E4F4" height="25.6406" rx="2.5" ry="2.5" style="stroke:#181818;stroke-width:0.5;" width="90.9092" x="39" y="43.2813"/><text fill="#000000" font-family="Helvetica" font-size="10" x="46" y="59.5635">Secure Enclave</text><rect fill="#E4E4F4" height="25.6406" rx="2.5" ry="2.5" style="stroke:#181818;stroke-width:0.5;" width="168.4678" x="226.1699" y="43.2813"/><text fill="#000000" font-family="Helvetica" font-size="10" x="233.1699" y="59.5635">AppleOS (macOS, iOS, iPadOS)</text><rect fill="#FFE6CC" height="25.6406" rx="2.5" ry="2.5" style="stroke:#D79B00;stroke-width:0.5;" width="72.2471" x="565.2881" y="43.2813"/><text fill="#000000" font-family="Helvetica" font-size="10" x="572.2881" y="59.5635">ZETA Client</text><rect fill="#E4E4F4" height="25.6406" rx="2.5" ry="2.5" style="stroke:#181818;stroke-width:0.5;" width="90.9092" x="39" y="1027.2656"/><text fill="#000000" font-family="Helvetica" font-size="10" x="46" y="1043.5479">Secure Enclave</text><rect fill="#E4E4F4" height="25.6406" rx="2.5" ry="2.5" style="stroke:#181818;stroke-width:0.5;" width="168.4678" x="226.1699" y="1027.2656"/><text fill="#000000" font-family="Helvetica" font-size="10" x="233.1699" y="1043.5479">AppleOS (macOS, iOS, iPadOS)</text><rect fill="#FFE6CC" height="25.6406" rx="2.5" ry="2.5" style="stroke:#D79B00;stroke-width:0.5;" width="72.2471" x="565.2881" y="1027.2656"/><text fill="#000000" font-family="Helvetica" font-size="10" x="572.2881" y="1043.5479">ZETA Client</text><line style="stroke:#181818;stroke-width:1;stroke-dasharray:2,2;" x1="606.4116" x2="648.4116" y1="95.5625" y2="95.5625"/><line style="stroke:#181818;stroke-width:1;stroke-dasharray:2,2;" x1="648.4116" x2="648.4116" y1="95.5625" y2="108.5625"/><line style="stroke:#181818;stroke-width:1;stroke-dasharray:2,2;" x1="607.4116" x2="648.4116" y1="108.5625" y2="108.5625"/><polygon fill="#181818" points="617.4116,104.5625,607.4116,108.5625,617.4116,112.5625,613.4116,108.5625" style="stroke:#181818;stroke-width:1;stroke-linejoin:miter;stroke-miterlimit:10;"/><text fill="#000000" font-family="Helvetica" font-size="10" x="613.4116" y="91.2041">(01)</text><text fill="#000000" font-family="Helvetica" font-size="10" x="637.939" y="91.2041">Installation (User Space)</text><path d="M13,120.5625 L72.9561,120.5625 L72.9561,124.2031 L62.9561,134.2031 L13,134.2031 L13,120.5625" fill="#EEEEEE" style="stroke:#000000;stroke-width:1.5;"/><rect fill="none" height="882.7031" style="stroke:#000000;stroke-width:1.5;" width="771.4741" x="13" y="120.5625"/><text fill="#000000" font-family="Helvetica" font-size="10" font-weight="700" x="28" y="130.8447">alt</text><text fill="#000000" font-family="Helvetica" font-size="10" font-weight="700" x="87.9561" y="131.8447">[Secure Enclave]</text><line style="stroke:#000000;stroke-width:1;stroke-dasharray:2,2;" x1="13" x2="784.4741" y1="934.3438" y2="934.3438"/><text fill="#000000" font-family="Helvetica" font-size="10" font-weight="700" x="18" y="945.626">[Fallback]</text><rect fill="#EEEEEE" height="3" style="stroke:#EEEEEE;stroke-width:1;" width="783.4741" x="10" y="163.0234"/><line style="stroke:#000000;stroke-width:1;" x1="10" x2="793.4741" y1="163.0234" y2="163.0234"/><line style="stroke:#000000;stroke-width:1;" x1="10" x2="793.4741" y1="166.0234" y2="166.0234"/><rect fill="#EEEEEE" height="19.6406" style="stroke:#000000;stroke-width:2;" width="331.2705" x="236.1018" y="154.2031"/><text fill="#000000" font-family="Helvetica" font-size="10" font-weight="700" x="242.1018" y="167.4854">Client Instance Key Pair (PrK.Client.Sig; PuK.Client.Sig)</text><polygon fill="#181818" points="326.4038,209.125,316.4038,213.125,326.4038,217.125,322.4038,213.125" style="stroke:#181818;stroke-width:1;stroke-linejoin:miter;stroke-miterlimit:10;"/><line style="stroke:#181818;stroke-width:1;" x1="320.4038" x2="595.4116" y1="213.125" y2="213.125"/><text fill="#000000" font-family="Helvetica" font-size="10" x="332.4038" y="202.9463">(02)</text><text fill="#000000" font-family="Helvetica" font-size="10" x="356.9312" y="197.126">SecKeyCreateRandomKey</text><text fill="#000000" font-family="Helvetica" font-size="10" x="356.9312" y="208.7666">(f&#252;r PrK.Client.Sig, PuK.Client.Sig in SE)</text><path d="M388.0288,226.125 L388.0288,259.125 L596.0288,259.125 L596.0288,236.125 L586.0288,226.125 L388.0288,226.125" fill="#FEFFDD" style="stroke:#181818;stroke-width:0.5;"/><path d="M586.0288,226.125 L586.0288,236.125 L596.0288,236.125 L586.0288,226.125" fill="#FEFFDD" style="stroke:#181818;stroke-width:0.5;"/><text fill="#000000" font-family="Helvetica" font-size="10" x="394.0288" y="240.4072">Generierung des prim&#228;ren Schl&#252;ssels</text><text fill="#000000" font-family="Helvetica" font-size="10" x="394.0288" y="252.0479">f&#252;r Client Assertions.</text><polygon fill="#181818" points="100.4546,278.0469,90.4546,282.0469,100.4546,286.0469,96.4546,282.0469" style="stroke:#181818;stroke-width:1;stroke-linejoin:miter;stroke-miterlimit:10;"/><line style="stroke:#181818;stroke-width:1;" x1="94.4546" x2="304.4038" y1="282.0469" y2="282.0469"/><text fill="#000000" font-family="Helvetica" font-size="10" x="106.4546" y="277.6885">(03)</text><text fill="#000000" font-family="Helvetica" font-size="10" x="130.9819" y="277.6885">Generiere Schl&#252;ssel (Client.Sig)</text><polygon fill="#181818" points="293.4038,303.6875,303.4038,307.6875,293.4038,311.6875,297.4038,307.6875" style="stroke:#181818;stroke-width:1;stroke-linejoin:miter;stroke-miterlimit:10;"/><line style="stroke:#181818;stroke-width:1;stroke-dasharray:2,2;" x1="89.4546" x2="299.4038" y1="307.6875" y2="307.6875"/><text fill="#000000" font-family="Helvetica" font-size="10" x="96.4546" y="303.3291">(04)</text><text fill="#000000" font-family="Helvetica" font-size="10" x="120.9819" y="303.3291">keyId (Referenz f&#252;r PrK.Client.Sig)</text><polygon fill="#181818" points="584.4116,329.3281,594.4116,333.3281,584.4116,337.3281,588.4116,333.3281" style="stroke:#181818;stroke-width:1;stroke-linejoin:miter;stroke-miterlimit:10;"/><line style="stroke:#181818;stroke-width:1;stroke-dasharray:2,2;" x1="315.4038" x2="590.4116" y1="333.3281" y2="333.3281"/><text fill="#000000" font-family="Helvetica" font-size="10" x="322.4038" y="328.9697">(05)</text><text fill="#000000" font-family="Helvetica" font-size="10" x="346.9312" y="328.9697">keyId (Referenz f&#252;r PrK.Client.Sig)</text><rect fill="#EEEEEE" height="3" style="stroke:#EEEEEE;stroke-width:1;" width="783.4741" x="10" y="360.1484"/><line style="stroke:#000000;stroke-width:1;" x1="10" x2="793.4741" y1="360.1484" y2="360.1484"/><line style="stroke:#000000;stroke-width:1;" x1="10" x2="793.4741" y1="363.1484" y2="363.1484"/><rect fill="#EEEEEE" height="19.6406" style="stroke:#000000;stroke-width:2;" width="316.4365" x="243.5188" y="351.3281"/><text fill="#000000" font-family="Helvetica" font-size="10" font-weight="700" x="249.5188" y="364.6104">Hardware-Attestierung (Attestation Key, App Attest)</text><path d="M347.0034,385.9688 L347.0034,418.9688 L596.0034,418.9688 L596.0034,395.9688 L586.0034,385.9688 L347.0034,385.9688" fill="#FEFFDD" style="stroke:#181818;stroke-width:0.5;"/><path d="M586.0034,385.9688 L586.0034,395.9688 L596.0034,395.9688 L586.0034,385.9688" fill="#FEFFDD" style="stroke:#181818;stroke-width:0.5;"/><text fill="#000000" font-family="Helvetica" font-size="10" x="353.0034" y="400.251">Generierung des dedizierten Attestation Keys</text><text fill="#000000" font-family="Helvetica" font-size="10" x="353.0034" y="411.8916">und einmalige Attestierung gegen Apple CA.</text><polygon fill="#181818" points="326.4038,437.8906,316.4038,441.8906,326.4038,445.8906,322.4038,441.8906" style="stroke:#181818;stroke-width:1;stroke-linejoin:miter;stroke-miterlimit:10;"/><line style="stroke:#181818;stroke-width:1;" x1="320.4038" x2="595.4116" y1="441.8906" y2="441.8906"/><text fill="#000000" font-family="Helvetica" font-size="10" x="332.4038" y="437.5322">(06)</text><text fill="#000000" font-family="Helvetica" font-size="10" x="356.9312" y="437.5322">DCAppAttest.shared.generateKey()</text><polygon fill="#181818" points="100.4546,463.5313,90.4546,467.5313,100.4546,471.5313,96.4546,467.5313" style="stroke:#181818;stroke-width:1;stroke-linejoin:miter;stroke-miterlimit:10;"/><line style="stroke:#181818;stroke-width:1;" x1="94.4546" x2="304.4038" y1="467.5313" y2="467.5313"/><text fill="#000000" font-family="Helvetica" font-size="10" x="106.4546" y="463.1729">(07)</text><text fill="#000000" font-family="Helvetica" font-size="10" x="130.9819" y="463.1729">Generiere AK-Schl&#252;sselpaar in SE</text><polygon fill="#181818" points="293.4038,489.1719,303.4038,493.1719,293.4038,497.1719,297.4038,493.1719" style="stroke:#181818;stroke-width:1;stroke-linejoin:miter;stroke-miterlimit:10;"/><line style="stroke:#181818;stroke-width:1;stroke-dasharray:2,2;" x1="89.4546" x2="299.4038" y1="493.1719" y2="493.1719"/><text fill="#000000" font-family="Helvetica" font-size="10" x="96.4546" y="488.8135">(08)</text><text fill="#000000" font-family="Helvetica" font-size="10" x="120.9819" y="488.8135">keyId_AK (Handle f&#252;r PrK.AK.Sig)</text><polygon fill="#181818" points="584.4116,514.8125,594.4116,518.8125,584.4116,522.8125,588.4116,518.8125" style="stroke:#181818;stroke-width:1;stroke-linejoin:miter;stroke-miterlimit:10;"/><line style="stroke:#181818;stroke-width:1;stroke-dasharray:2,2;" x1="315.4038" x2="590.4116" y1="518.8125" y2="518.8125"/><text fill="#000000" font-family="Helvetica" font-size="10" x="322.4038" y="514.4541">(09)</text><text fill="#000000" font-family="Helvetica" font-size="10" x="346.9312" y="514.4541">keyId_AK</text><line style="stroke:#181818;stroke-width:1;" x1="606.4116" x2="648.4116" y1="556.0938" y2="556.0938"/><line style="stroke:#181818;stroke-width:1;" x1="648.4116" x2="648.4116" y1="556.0938" y2="569.0938"/><line style="stroke:#181818;stroke-width:1;" x1="607.4116" x2="648.4116" y1="569.0938" y2="569.0938"/><polygon fill="#181818" points="617.4116,565.0938,607.4116,569.0938,617.4116,573.0938,613.4116,569.0938" style="stroke:#181818;stroke-width:1;stroke-linejoin:miter;stroke-miterlimit:10;"/><text fill="#000000" font-family="Helvetica" font-size="10" x="613.4116" y="545.915">(10)</text><text fill="#000000" font-family="Helvetica" font-size="10" x="637.939" y="540.0947">Berechne challenge =</text><text fill="#000000" font-family="Helvetica" font-size="10" x="637.939" y="551.7354">SHA-256(PuK.Client.Sig)</text><polygon fill="#181818" points="326.4038,602.375,316.4038,606.375,326.4038,610.375,322.4038,606.375" style="stroke:#181818;stroke-width:1;stroke-linejoin:miter;stroke-miterlimit:10;"/><line style="stroke:#181818;stroke-width:1;" x1="320.4038" x2="595.4116" y1="606.375" y2="606.375"/><text fill="#000000" font-family="Helvetica" font-size="10" x="332.4038" y="596.1963">(11)</text><text fill="#000000" font-family="Helvetica" font-size="10" x="356.9312" y="590.376">DCAppAttest.shared.attestKey(</text><text fill="#000000" font-family="Helvetica" font-size="10" x="363.2886" y="602.0166">keyId_AK, clientDataHash = challenge)</text><polygon fill="#181818" points="100.4546,628.0156,90.4546,632.0156,100.4546,636.0156,96.4546,632.0156" style="stroke:#181818;stroke-width:1;stroke-linejoin:miter;stroke-miterlimit:10;"/><line style="stroke:#181818;stroke-width:1;" x1="94.4546" x2="304.4038" y1="632.0156" y2="632.0156"/><text fill="#000000" font-family="Helvetica" font-size="10" x="106.4546" y="627.6572">(12)</text><text fill="#000000" font-family="Helvetica" font-size="10" x="130.9819" y="627.6572">Signiere challenge mit PrK.AK.Sig</text><polygon fill="#181818" points="293.4038,653.6563,303.4038,657.6563,293.4038,661.6563,297.4038,657.6563" style="stroke:#181818;stroke-width:1;stroke-linejoin:miter;stroke-miterlimit:10;"/><line style="stroke:#181818;stroke-width:1;stroke-dasharray:2,2;" x1="89.4546" x2="299.4038" y1="657.6563" y2="657.6563"/><text fill="#000000" font-family="Helvetica" font-size="10" x="96.4546" y="653.2979">(13)</text><text fill="#000000" font-family="Helvetica" font-size="10" x="120.9819" y="653.2979">Attestation-Objekt (CBOR)</text><polygon fill="#181818" points="584.4116,690.9375,594.4116,694.9375,584.4116,698.9375,588.4116,694.9375" style="stroke:#181818;stroke-width:1;stroke-linejoin:miter;stroke-miterlimit:10;"/><line style="stroke:#181818;stroke-width:1;stroke-dasharray:2,2;" x1="315.4038" x2="590.4116" y1="694.9375" y2="694.9375"/><text fill="#000000" font-family="Helvetica" font-size="10" x="322.4038" y="684.7588">(14)</text><text fill="#000000" font-family="Helvetica" font-size="10" x="346.9312" y="678.9385">apple_attestation_object</text><text fill="#000000" font-family="Helvetica" font-size="10" x="346.9312" y="690.5791">(X.509-Kette + Receipt, Challenge eingebettet)</text><rect fill="#EEEEEE" height="3" style="stroke:#EEEEEE;stroke-width:1;" width="783.4741" x="10" y="721.7578"/><line style="stroke:#000000;stroke-width:1;" x1="10" x2="793.4741" y1="721.7578" y2="721.7578"/><line style="stroke:#000000;stroke-width:1;" x1="10" x2="793.4741" y1="724.7578" y2="724.7578"/><rect fill="#EEEEEE" height="19.6406" style="stroke:#000000;stroke-width:2;" width="284.0635" x="259.7053" y="712.9375"/><text fill="#000000" font-family="Helvetica" font-size="10" font-weight="700" x="265.7053" y="726.2197">Expliziter Besitznachweis (Proof of Possession)</text><path d="M319.2593,747.5781 L319.2593,791.5781 L596.2593,791.5781 L596.2593,757.5781 L586.2593,747.5781 L319.2593,747.5781" fill="#FEFFDD" style="stroke:#181818;stroke-width:0.5;"/><path d="M586.2593,747.5781 L586.2593,757.5781 L596.2593,757.5781 L586.2593,747.5781" fill="#FEFFDD" style="stroke:#181818;stroke-width:0.5;"/><text fill="#000000" font-family="Helvetica" font-size="10" x="325.2593" y="761.8604">Besitznachweis des Client Instance Keys.</text><text fill="#000000" font-family="Helvetica" font-size="10" x="325.2593" y="773.501">Das apple_attestation_object beweist HW-Bindung;</text><text fill="#000000" font-family="Helvetica" font-size="10" x="325.2593" y="785.1416">diese Assertion beweist Besitz von PrK.Client.Sig.</text><polygon fill="#181818" points="326.4038,822.7813,316.4038,826.7813,326.4038,830.7813,322.4038,826.7813" style="stroke:#181818;stroke-width:1;stroke-linejoin:miter;stroke-miterlimit:10;"/><line style="stroke:#181818;stroke-width:1;" x1="320.4038" x2="595.4116" y1="826.7813" y2="826.7813"/><text fill="#000000" font-family="Helvetica" font-size="10" x="332.4038" y="816.6025">(15)</text><text fill="#000000" font-family="Helvetica" font-size="10" x="356.9312" y="810.7822">DCAppAttest.shared.generateAssertion(</text><text fill="#000000" font-family="Helvetica" font-size="10" x="363.2886" y="822.4229">keyId_AK, SHA-256(PuK.Client.Sig))</text><polygon fill="#181818" points="100.4546,848.4219,90.4546,852.4219,100.4546,856.4219,96.4546,852.4219" style="stroke:#181818;stroke-width:1;stroke-linejoin:miter;stroke-miterlimit:10;"/><line style="stroke:#181818;stroke-width:1;" x1="94.4546" x2="304.4038" y1="852.4219" y2="852.4219"/><text fill="#000000" font-family="Helvetica" font-size="10" x="106.4546" y="848.0635">(16)</text><text fill="#000000" font-family="Helvetica" font-size="10" x="130.9819" y="848.0635">Signiere Hash mit PrK.AK.Sig</text><polygon fill="#181818" points="293.4038,874.0625,303.4038,878.0625,293.4038,882.0625,297.4038,878.0625" style="stroke:#181818;stroke-width:1;stroke-linejoin:miter;stroke-miterlimit:10;"/><line style="stroke:#181818;stroke-width:1;stroke-dasharray:2,2;" x1="89.4546" x2="299.4038" y1="878.0625" y2="878.0625"/><text fill="#000000" font-family="Helvetica" font-size="10" x="96.4546" y="873.7041">(17)</text><text fill="#000000" font-family="Helvetica" font-size="10" x="120.9819" y="873.7041">CBOR Assertion</text><polygon fill="#181818" points="584.4116,911.3438,594.4116,915.3438,584.4116,919.3438,588.4116,915.3438" style="stroke:#181818;stroke-width:1;stroke-linejoin:miter;stroke-miterlimit:10;"/><line style="stroke:#181818;stroke-width:1;stroke-dasharray:2,2;" x1="315.4038" x2="590.4116" y1="915.3438" y2="915.3438"/><text fill="#000000" font-family="Helvetica" font-size="10" x="322.4038" y="905.165">(18)</text><text fill="#000000" font-family="Helvetica" font-size="10" x="346.9312" y="899.3447">signed_hash_puk_client_sig</text><text fill="#000000" font-family="Helvetica" font-size="10" x="346.9312" y="910.9854">(dc_assertion: Signatur + authenticatorData)</text><line style="stroke:#181818;stroke-width:1;" x1="606.4116" x2="648.4116" y1="982.2656" y2="982.2656"/><line style="stroke:#181818;stroke-width:1;" x1="648.4116" x2="648.4116" y1="982.2656" y2="995.2656"/><line style="stroke:#181818;stroke-width:1;" x1="607.4116" x2="648.4116" y1="995.2656" y2="995.2656"/><polygon fill="#181818" points="617.4116,991.2656,607.4116,995.2656,617.4116,999.2656,613.4116,995.2656" style="stroke:#181818;stroke-width:1;stroke-linejoin:miter;stroke-miterlimit:10;"/><text fill="#000000" font-family="Helvetica" font-size="10" x="613.4116" y="972.0869">(19)</text><text fill="#000000" font-family="Helvetica" font-size="10" x="637.939" y="966.2666">Generiere PrK.Client.Sig,</text><text fill="#000000" font-family="Helvetica" font-size="10" x="637.939" y="977.9072">PuK.Client.Sig</text><?plantuml-src dLLjR-964FxkNp7D9oEmMrMwIiqTaHnm2-9o89phcv2iPJs1RSpQsbtdaloU_epxbZzsixQnmO8qhOICzsMUcNdccV5tGlAqI11y__kysALUofwomlZcqJYEiyuUuMAC3uBZ1Op3twQZC1xDFywN3a3Eb15Sv4mQk8YG5meX933sG7UPXYY4Z-6Khjyivf_2JxUd3OCyJt4UWRjZV1uDG9IF1KlcKQ-4sLyuZLK6I5SkOB6StWJXClepkWrlclEEjx_2sm16gK1fIl3g5JvyU4R3hgx806LYGPtzlrDTwVUTEX1wgwqyxwe6k8Ifr8QbAJCYa-1-rgWWoXd7dkEmrC0nFSvmkFTSsacECCCdM32Xm5secL-T-f7Ol8T5SRZkmN1OvWLx28gY3ktI-Y6WaK9cSCbaakrekPBktSjN1SV0Wmum24abwvNOCZC8ATuPoEwQ57z5YKgWAkG64jIGAx5x-KSXcV5j-l9LQqprIfQkwj02sbEM4ktNCU-hIK57OR_Vek812hW7-TQ6f2QlpTJpBk4UdwO9k4ky8slv32Tox7Mz7bJiJUQbFLLhmbJoXIdq0cDGcve5jrfLHIUY1zOHL9jDdTx4POA9UAQr8JOxe4HfGLf48NSi5Hk4en0skB4cDZyO1HNB9tGn7j5hPUZhBIMI-1iR0ic4NBWLJw_K9fXvRNbonbIb5kULoiJ13Dm9QP0YQxWDPcrPpXQ5B3jvx8-lAHQ-bGXyIys6ajWOhcGq2RmVt_taTXhbFt31ofLbOYMX2M80lBGUCyCcJ6zXsFezmnZvbILXRO0xOGvIFyFOGSsz-Vfll3VK0zVpvNcccDsBMMiNPsJ73JNx7_wx7txsPaXdq8SbSXIv6S2e2OcqjC6rFJUjnCF7F2KD6ffSrwY5UPQCRx-Wq7OYPQHT-Yqogh_MvEqrUTTDrq6nCZynz9h9CAPnV2ufMAF5C33vtRiMCY7blw_D4e4Qsq7JtAoymmDj7JTrvS-ETnlw_sYOnbT7B6Ta-6zAAPNr9f5OGRIPdbM69cHCuYtXndbn7rSYZccRj97mcEqHgY2OAHJ9X1LcIzS4PoPJLl6a39hd2B-GQjQCtpkd6hAT49sFoqeUqs2_fyut?></g></svg>