<svg xmlns="http://www.w3.org/2000/svg" xmlns:xlink="http://www.w3.org/1999/xlink" contentStyleType="text/css" data-diagram-type="SEQUENCE" height="1293px" preserveAspectRatio="none" style="width:1383px;height:1293px;background:#FFFFFF;" version="1.1" viewBox="0 0 1383 1293" width="1383px" zoomAndPan="magnify"><?plantuml 1.2026.6?><defs/><g><rect fill="#FEFCFF" height="1267.5156" style="stroke:#181818;stroke-width:0.5;" width="87.1543" x="22.4639" y="11"/><text fill="#000000" font-family="Helvetica" font-size="10" font-weight="700" x="34.4639" y="20.2822">Mobile App</text><rect fill="#EDFDEC" height="1267.5156" style="stroke:#181818;stroke-width:0.5;" width="471.3354" x="484.8843" y="11"/><text fill="#000000" font-family="Helvetica" font-size="10" font-weight="700" x="658.6599" y="20.2822">Anbieter TI 2.0 Dienst</text><rect fill="#FFF3E5" height="1250.875" style="stroke:#181818;stroke-width:0.5;" width="471.3354" x="484.8843" y="27.6406"/><text fill="#000000" font-family="Helvetica" font-size="10" font-weight="700" x="687.4075" y="36.9229">ZETA Guard</text><rect fill="#EAF2FF" height="1267.5156" style="stroke:#181818;stroke-width:0.5;" width="111.6582" x="968.2197" y="11"/><text fill="#000000" font-family="Helvetica" font-size="10" font-weight="700" x="985.9434" y="20.2822">TI-F&#246;deration</text><g><title>ZETA Client</title><rect fill="#000000" fill-opacity="0.00000" height="1129.3906" width="8" x="62.541" y="93.2031"/><line style="stroke:#000000;stroke-width:0.5;stroke-dasharray:5,5;" x1="66.041" x2="66.041" y1="93.2031" y2="1222.5938"/></g><g><title/><rect fill="#FFFFFF" height="1121.3906" style="stroke:#181818;stroke-width:1;" width="10" x="61.041" y="101.2031"/></g><g><title>PDP</title><rect fill="#000000" fill-opacity="0.00000" height="1129.3906" width="8" x="543.9004" y="93.2031"/><line style="stroke:#000000;stroke-width:0.5;stroke-dasharray:5,5;" x1="547.4004" x2="547.4004" y1="93.2031" y2="1222.5938"/></g><g><title/><rect fill="#FFFFFF" height="919.3438" style="stroke:#181818;stroke-width:1;" width="10" x="542.4004" y="303.25"/></g><g><title>PDP</title><rect fill="#000000" fill-opacity="0.00000" height="1129.3906" width="8" x="908.4336" y="93.2031"/><line style="stroke:#000000;stroke-width:0.5;stroke-dasharray:5,5;" x1="911.9336" x2="911.9336" y1="93.2031" y2="1222.5938"/></g><g><title/><rect fill="#FFFFFF" height="25.6406" style="stroke:#181818;stroke-width:1;" width="10" x="906.9336" y="628.8594"/></g><g><title>Sektoraler IDP</title><rect fill="#000000" fill-opacity="0.00000" height="1129.3906" width="8" x="1020.5488" y="93.2031"/><line style="stroke:#000000;stroke-width:0.5;stroke-dasharray:5,5;" x1="1024.0488" x2="1024.0488" y1="93.2031" y2="1222.5938"/></g><g><title/><rect fill="#FFFFFF" height="110.8438" style="stroke:#181818;stroke-width:1;" width="10" x="1019.0488" y="352.1719"/></g><rect fill="#FFE6CC" height="25.6406" rx="2.5" ry="2.5" style="stroke:#D79B00;stroke-width:0.5;" width="72.2471" x="29.9175" y="66.5625"/><text fill="#000000" font-family="Helvetica" font-size="10" x="36.9175" y="82.8447">ZETA Client</text><rect fill="#FFE6CC" height="48.9219" rx="2.5" ry="2.5" style="stroke:#D79B00;stroke-width:0.5;" width="117.0322" x="488.8843" y="43.2813"/><text fill="#000000" font-family="Helvetica" font-size="10" x="537.52" y="59.5635">PDP</text><text fill="#000000" font-family="Helvetica" font-size="10" x="495.9258" y="71.2041">Authorization Server</text><text fill="#000000" font-family="Helvetica" font-size="10" x="495.8843" y="82.8447">(OIDC Relying Party)</text><rect fill="#FFE6CC" height="37.2813" rx="2.5" ry="2.5" style="stroke:#D79B00;stroke-width:0.5;" width="80.5723" x="871.6475" y="54.9219"/><text fill="#000000" font-family="Helvetica" font-size="10" x="902.0532" y="71.2041">PDP</text><text fill="#000000" font-family="Helvetica" font-size="10" x="878.6475" y="82.8447">Policy Engine</text><rect fill="#E2E2F0" height="37.2813" rx="2.5" ry="2.5" style="stroke:#181818;stroke-width:0.5;" width="103.6582" x="972.2197" y="54.9219"/><text fill="#000000" font-family="Helvetica" font-size="10" x="988.314" y="71.2041">Sektoraler IDP</text><text fill="#000000" font-family="Helvetica" font-size="10" x="979.2197" y="82.8447">(Token-Endpunkt)</text><rect fill="#FFE6CC" height="25.6406" rx="2.5" ry="2.5" style="stroke:#D79B00;stroke-width:0.5;" width="72.2471" x="29.9175" y="1222.5938"/><text fill="#000000" font-family="Helvetica" font-size="10" x="36.9175" y="1238.876">ZETA Client</text><rect fill="#FFE6CC" height="48.9219" rx="2.5" ry="2.5" style="stroke:#D79B00;stroke-width:0.5;" width="117.0322" x="488.8843" y="1222.5938"/><text fill="#000000" font-family="Helvetica" font-size="10" x="537.52" y="1238.876">PDP</text><text fill="#000000" font-family="Helvetica" font-size="10" x="495.9258" y="1250.5166">Authorization Server</text><text fill="#000000" font-family="Helvetica" font-size="10" x="495.8843" y="1262.1572">(OIDC Relying Party)</text><rect fill="#FFE6CC" height="37.2813" rx="2.5" ry="2.5" style="stroke:#D79B00;stroke-width:0.5;" width="80.5723" x="871.6475" y="1222.5938"/><text fill="#000000" font-family="Helvetica" font-size="10" x="902.0532" y="1238.876">PDP</text><text fill="#000000" font-family="Helvetica" font-size="10" x="878.6475" y="1250.5166">Policy Engine</text><rect fill="#E2E2F0" height="37.2813" rx="2.5" ry="2.5" style="stroke:#181818;stroke-width:0.5;" width="103.6582" x="972.2197" y="1222.5938"/><text fill="#000000" font-family="Helvetica" font-size="10" x="988.314" y="1238.876">Sektoraler IDP</text><text fill="#000000" font-family="Helvetica" font-size="10" x="979.2197" y="1250.5166">(Token-Endpunkt)</text><path d="M27.0647,106.2031 L27.0647,127.2031 L1062.0647,127.2031 L1062.0647,116.2031 L1052.0647,106.2031 L27.0647,106.2031" fill="#FEFFDD" style="stroke:#181818;stroke-width:0.5;"/><path d="M1052.0647,106.2031 L1052.0647,116.2031 L1062.0647,116.2031 L1052.0647,106.2031" fill="#FEFFDD" style="stroke:#181818;stroke-width:0.5;"/><text fill="#000000" font-family="Helvetica" font-size="10" x="326.2285" y="120.4854">Der ZETA Client hat aus Teildiagramm (B) den AUTHORIZATION_CODE (IDP) erhalten.</text><rect fill="#EEEEEE" height="3" style="stroke:#EEEEEE;stroke-width:1;" width="1362.6885" x="10" y="151.6641"/><line style="stroke:#000000;stroke-width:1;" x1="10" x2="1372.6885" y1="151.6641" y2="151.6641"/><line style="stroke:#000000;stroke-width:1;" x1="10" x2="1372.6885" y1="154.6641" y2="154.6641"/><rect fill="#EEEEEE" height="19.6406" style="stroke:#000000;stroke-width:2;" width="286.7197" x="547.9844" y="142.8438"/><text fill="#000000" font-family="Helvetica" font-size="10" font-weight="700" x="553.9844" y="156.126">Innerer Flow: Token-Bezug beim sektoralen IDP</text><path d="M15,177.4844 L15,245.4844 L598,245.4844 L598,187.4844 L588,177.4844 L15,177.4844" fill="#FEFFDD" style="stroke:#181818;stroke-width:0.5;"/><path d="M588,177.4844 L588,187.4844 L598,187.4844 L588,177.4844" fill="#FEFFDD" style="stroke:#181818;stroke-width:0.5;"/><text fill="#000000" font-family="Helvetica" font-size="10" x="21" y="191.7666">Beide Auth Code Flows enden &#252;ber denselben App-Link/Universal-Link in der App. Der ZETA</text><text fill="#000000" font-family="Helvetica" font-size="10" x="21" y="203.4072">Client erkennt anhand des Pfads der redirect_uri, welcher AuthS-Endpunkt zu verwenden ist:</text><text fill="#000000" font-family="Helvetica" font-size="10" x="21" y="215.0479">- oidc_redirect_uri (/cb/&lt;app&gt;/oidc) &#8594; redirection_endpoint des AuthS (aus as-well-known),</text><text fill="#000000" font-family="Helvetica" font-size="10" x="27.3574" y="226.6885">nicht der /token-Endpunkt &#8594; SekIDP Auth Code Flow (innerer Flow).</text><text fill="#000000" font-family="Helvetica" font-size="10" x="21" y="238.3291">- app_redirect_uri (/cb/&lt;app&gt;/app) &#8594; /token-Endpunkt des AuthS &#8594; ZETA Guard Auth Code Flow (&#228;u&#223;erer Flow).</text><polygon fill="#181818" points="530.4004,299.25,540.4004,303.25,530.4004,307.25,534.4004,303.25" style="stroke:#181818;stroke-width:1;stroke-linejoin:miter;stroke-miterlimit:10;"/><line style="stroke:#181818;stroke-width:1;" x1="71.041" x2="536.4004" y1="303.25" y2="303.25"/><text fill="#000000" font-family="Helvetica" font-size="10" x="78.041" y="281.4307">(01)</text><text fill="#000000" font-family="Helvetica" font-size="10" x="102.5684" y="263.9697">GET &lt;redirection_endpoint der OIDC Relying Party&gt;</text><text fill="#000000" font-family="Helvetica" font-size="10" x="102.5684" y="275.6104">Folgt der 302-Redirection aus Teildiagramm (B)</text><text fill="#000000" font-family="Helvetica" font-size="10" x="102.5684" y="287.251">Ruft redirection_endpoint aus as-well-known auf</text><text fill="#000000" font-family="Helvetica" font-size="10" x="102.5684" y="298.8916">{code=AUTH_CODE_IDP, state=state_as}</text><polygon fill="#181818" points="1007.0488,348.1719,1017.0488,352.1719,1007.0488,356.1719,1011.0488,352.1719" style="stroke:#181818;stroke-width:1;stroke-linejoin:miter;stroke-miterlimit:10;"/><line style="stroke:#181818;stroke-width:1;" x1="552.4004" x2="1013.0488" y1="352.1719" y2="352.1719"/><text fill="#000000" font-family="Helvetica" font-size="10" x="559.4004" y="336.1729">(02)</text><text fill="#000000" font-family="Helvetica" font-size="10" x="583.9277" y="324.5322">POST /token (mTLS, self_signed_tls_client_auth)</text><text fill="#000000" font-family="Helvetica" font-size="10" x="583.9277" y="336.1729">{grant_type=authorization_code, code=AUTH_CODE_IDP,</text><text fill="#000000" font-family="Helvetica" font-size="10" x="583.9277" y="347.8135">code_verifier=code_verifier_as, client_id, oidc_redirect_uri}</text><line style="stroke:#181818;stroke-width:1;" x1="1029.0488" x2="1071.0488" y1="401.0938" y2="401.0938"/><line style="stroke:#181818;stroke-width:1;" x1="1071.0488" x2="1071.0488" y1="401.0938" y2="414.0938"/><line style="stroke:#181818;stroke-width:1;" x1="1030.0488" x2="1071.0488" y1="414.0938" y2="414.0938"/><polygon fill="#181818" points="1040.0488,410.0938,1030.0488,414.0938,1040.0488,418.0938,1036.0488,414.0938" style="stroke:#181818;stroke-width:1;stroke-linejoin:miter;stroke-miterlimit:10;"/><text fill="#000000" font-family="Helvetica" font-size="10" x="1036.0488" y="385.0947">(03)</text><text fill="#000000" font-family="Helvetica" font-size="10" x="1060.5762" y="373.4541">Pr&#252;fe TLS-Clientzertifikat,</text><text fill="#000000" font-family="Helvetica" font-size="10" x="1060.5762" y="385.0947">verifiziere code_verifier_as gegen code_challenge_as (S256),</text><text fill="#000000" font-family="Helvetica" font-size="10" x="1060.5762" y="396.7354">invalidiere AUTHORIZATION_CODE</text><polygon fill="#181818" points="563.4004,459.0156,553.4004,463.0156,563.4004,467.0156,559.4004,463.0156" style="stroke:#181818;stroke-width:1;stroke-linejoin:miter;stroke-miterlimit:10;"/><line style="stroke:#181818;stroke-width:1;stroke-dasharray:2,2;" x1="557.4004" x2="1018.0488" y1="463.0156" y2="463.0156"/><text fill="#000000" font-family="Helvetica" font-size="10" x="569.4004" y="447.0166">(04)</text><text fill="#000000" font-family="Helvetica" font-size="10" x="593.9277" y="435.376">200 OK</text><text fill="#000000" font-family="Helvetica" font-size="10" x="593.9277" y="447.0166">{id_token (JWE: ECDH-ES/A256GCM, signiert ES256),</text><text fill="#000000" font-family="Helvetica" font-size="10" x="593.9277" y="458.6572">access_token, token_type=Bearer, expires_in}</text><line style="stroke:#181818;stroke-width:1;" x1="552.4004" x2="594.4004" y1="500.2969" y2="500.2969"/><line style="stroke:#181818;stroke-width:1;" x1="594.4004" x2="594.4004" y1="500.2969" y2="513.2969"/><line style="stroke:#181818;stroke-width:1;" x1="553.4004" x2="594.4004" y1="513.2969" y2="513.2969"/><polygon fill="#181818" points="563.4004,509.2969,553.4004,513.2969,563.4004,517.2969,559.4004,513.2969" style="stroke:#181818;stroke-width:1;stroke-linejoin:miter;stroke-miterlimit:10;"/><text fill="#000000" font-family="Helvetica" font-size="10" x="559.4004" y="490.1182">(05)</text><text fill="#000000" font-family="Helvetica" font-size="10" x="583.9277" y="484.2979">Entschl&#252;ssele ID Token, verifiziere Signatur (kid/x5c),</text><text fill="#000000" font-family="Helvetica" font-size="10" x="583.9277" y="495.9385">pr&#252;fe iss/aud/nonce/exp, extrahiere Claims (KVNR, acr, amr, ...)</text><rect fill="#EEEEEE" height="3" style="stroke:#EEEEEE;stroke-width:1;" width="1362.6885" x="10" y="540.1172"/><line style="stroke:#000000;stroke-width:1;" x1="10" x2="1372.6885" y1="540.1172" y2="540.1172"/><line style="stroke:#000000;stroke-width:1;" x1="10" x2="1372.6885" y1="543.1172" y2="543.1172"/><rect fill="#EEEEEE" height="19.6406" style="stroke:#000000;stroke-width:2;" width="388.8975" x="496.8955" y="531.2969"/><text fill="#000000" font-family="Helvetica" font-size="10" font-weight="700" x="502.8955" y="544.5791">&#196;u&#223;erer Flow: Policy-Entscheidung &amp; Ausstellung der ZETA Token</text><line style="stroke:#181818;stroke-width:1;" x1="552.4004" x2="594.4004" y1="590.2188" y2="590.2188"/><line style="stroke:#181818;stroke-width:1;" x1="594.4004" x2="594.4004" y1="590.2188" y2="603.2188"/><line style="stroke:#181818;stroke-width:1;" x1="553.4004" x2="594.4004" y1="603.2188" y2="603.2188"/><polygon fill="#181818" points="563.4004,599.2188,553.4004,603.2188,563.4004,607.2188,559.4004,603.2188" style="stroke:#181818;stroke-width:1;stroke-linejoin:miter;stroke-miterlimit:10;"/><text fill="#000000" font-family="Helvetica" font-size="10" x="559.4004" y="580.04">(06)</text><text fill="#000000" font-family="Helvetica" font-size="10" x="583.9277" y="574.2197">Erzeuge Policy Engine Input</text><text fill="#000000" font-family="Helvetica" font-size="10" x="583.9277" y="585.8604">(Identit&#228;ts-Claims, Posture, Kontext)</text><polygon fill="#181818" points="894.9336,624.8594,904.9336,628.8594,894.9336,632.8594,898.9336,628.8594" style="stroke:#181818;stroke-width:1;stroke-linejoin:miter;stroke-miterlimit:10;"/><line style="stroke:#181818;stroke-width:1;" x1="552.4004" x2="900.9336" y1="628.8594" y2="628.8594"/><text fill="#000000" font-family="Helvetica" font-size="10" x="559.4004" y="624.501">(07)</text><text fill="#000000" font-family="Helvetica" font-size="10" x="583.9277" y="624.501">POST /v1/data/authz {Policy Engine Input}</text><polygon fill="#181818" points="563.4004,650.5,553.4004,654.5,563.4004,658.5,559.4004,654.5" style="stroke:#181818;stroke-width:1;stroke-linejoin:miter;stroke-miterlimit:10;"/><line style="stroke:#181818;stroke-width:1;stroke-dasharray:2,2;" x1="557.4004" x2="905.9336" y1="654.5" y2="654.5"/><text fill="#000000" font-family="Helvetica" font-size="10" x="569.4004" y="650.1416">(08)</text><text fill="#000000" font-family="Helvetica" font-size="10" x="593.9277" y="650.1416">Policy Decision</text><path d="M31.041,666.5 L90.9971,666.5 L90.9971,670.1406 L80.9971,680.1406 L31.041,680.1406 L31.041,666.5" fill="#EEEEEE" style="stroke:#000000;stroke-width:1.5;"/><rect fill="none" height="477.1719" style="stroke:#000000;stroke-width:1.5;" width="896.8926" x="31.041" y="666.5"/><text fill="#000000" font-family="Helvetica" font-size="10" font-weight="700" x="46.041" y="676.7822">alt</text><text fill="#000000" font-family="Helvetica" font-size="10" font-weight="700" x="105.9971" y="677.7822">[Policy Decision allow]</text><line style="stroke:#000000;stroke-width:1;stroke-dasharray:2,2;" x1="31.041" x2="927.9336" y1="1099.3906" y2="1099.3906"/><text fill="#000000" font-family="Helvetica" font-size="10" font-weight="700" x="36.041" y="1110.6729">[Policy Decision deny]</text><line style="stroke:#181818;stroke-width:1;" x1="552.4004" x2="594.4004" y1="707.7813" y2="707.7813"/><line style="stroke:#181818;stroke-width:1;" x1="594.4004" x2="594.4004" y1="707.7813" y2="720.7813"/><line style="stroke:#181818;stroke-width:1;" x1="553.4004" x2="594.4004" y1="720.7813" y2="720.7813"/><polygon fill="#181818" points="563.4004,716.7813,553.4004,720.7813,563.4004,724.7813,559.4004,720.7813" style="stroke:#181818;stroke-width:1;stroke-linejoin:miter;stroke-miterlimit:10;"/><text fill="#000000" font-family="Helvetica" font-size="10" x="559.4004" y="703.4229">(09)</text><text fill="#000000" font-family="Helvetica" font-size="10" x="583.9277" y="703.4229">Erzeuge AUTHORIZATION_CODE (AS)</text><polygon fill="#181818" points="82.041,754.0625,72.041,758.0625,82.041,762.0625,78.041,758.0625" style="stroke:#181818;stroke-width:1;stroke-linejoin:miter;stroke-miterlimit:10;"/><line style="stroke:#181818;stroke-width:1;stroke-dasharray:2,2;" x1="76.041" x2="541.4004" y1="758.0625" y2="758.0625"/><text fill="#000000" font-family="Helvetica" font-size="10" x="88.041" y="747.8838">(10)</text><text fill="#000000" font-family="Helvetica" font-size="10" x="112.5684" y="742.0635">302 Found</text><text fill="#000000" font-family="Helvetica" font-size="10" x="112.5684" y="753.7041">Location: &lt;app_redirect_uri&gt;?code=AUTH_CODE_AS&amp;state=state_app</text><line style="stroke:#181818;stroke-width:1;" x1="71.041" x2="113.041" y1="795.3438" y2="795.3438"/><line style="stroke:#181818;stroke-width:1;" x1="113.041" x2="113.041" y1="795.3438" y2="808.3438"/><line style="stroke:#181818;stroke-width:1;" x1="72.041" x2="113.041" y1="808.3438" y2="808.3438"/><polygon fill="#181818" points="82.041,804.3438,72.041,808.3438,82.041,812.3438,78.041,808.3438" style="stroke:#181818;stroke-width:1;stroke-linejoin:miter;stroke-miterlimit:10;"/><text fill="#000000" font-family="Helvetica" font-size="10" x="78.041" y="785.165">(11)</text><text fill="#000000" font-family="Helvetica" font-size="10" x="102.5684" y="779.3447">Erzeuge DPoP Key Pair (PrK.DPoP.Sig, PuK.DPoP.Sig)</text><text fill="#000000" font-family="Helvetica" font-size="10" x="102.5684" y="790.9854">und DPoP Proof</text><polygon fill="#181818" points="530.4004,864.9063,540.4004,868.9063,530.4004,872.9063,534.4004,868.9063" style="stroke:#181818;stroke-width:1;stroke-linejoin:miter;stroke-miterlimit:10;"/><line style="stroke:#181818;stroke-width:1;" x1="71.041" x2="536.4004" y1="868.9063" y2="868.9063"/><text fill="#000000" font-family="Helvetica" font-size="10" x="78.041" y="847.0869">(12)</text><text fill="#000000" font-family="Helvetica" font-size="10" x="102.5684" y="829.626">POST /token  dpop: &lt;dpop_proof&gt;</text><text fill="#000000" font-family="Helvetica" font-size="10" x="102.5684" y="841.2666">{grant_type=authorization_code, code=AUTH_CODE_AS,</text><text fill="#000000" font-family="Helvetica" font-size="10" x="102.5684" y="852.9072">code_verifier=code_verifier_app, client_id, app_redirect_uri,</text><text fill="#000000" font-family="Helvetica" font-size="10" x="102.5684" y="864.5479">client_assertion (JWT, PrK.Client.Sig signiert)}</text><line style="stroke:#181818;stroke-width:1;" x1="552.4004" x2="594.4004" y1="906.1875" y2="906.1875"/><line style="stroke:#181818;stroke-width:1;" x1="594.4004" x2="594.4004" y1="906.1875" y2="919.1875"/><line style="stroke:#181818;stroke-width:1;" x1="553.4004" x2="594.4004" y1="919.1875" y2="919.1875"/><polygon fill="#181818" points="563.4004,915.1875,553.4004,919.1875,563.4004,923.1875,559.4004,919.1875" style="stroke:#181818;stroke-width:1;stroke-linejoin:miter;stroke-miterlimit:10;"/><text fill="#000000" font-family="Helvetica" font-size="10" x="559.4004" y="896.0088">(13)</text><text fill="#000000" font-family="Helvetica" font-size="10" x="583.9277" y="890.1885">Verifiziere code_verifier_app gegen code_challenge_app (S256),</text><text fill="#000000" font-family="Helvetica" font-size="10" x="583.9277" y="901.8291">DPoP Proof und Client Assertion (Key Binding aus DCR)</text><path d="M50.041,931.1875 L109.9971,931.1875 L109.9971,934.8281 L99.9971,944.8281 L50.041,944.8281 L50.041,931.1875" fill="#EEEEEE" style="stroke:#000000;stroke-width:1.5;"/><rect fill="none" height="143.2031" style="stroke:#000000;stroke-width:1.5;" width="820.4658" x="50.041" y="931.1875"/><text fill="#000000" font-family="Helvetica" font-size="10" font-weight="700" x="65.041" y="941.4697">alt</text><text fill="#000000" font-family="Helvetica" font-size="10" font-weight="700" x="124.9971" y="942.4697">[Hardware Attestation  (Android TEE oder StrongBox / SE)]</text><line style="stroke:#000000;stroke-width:1;stroke-dasharray:2,2;" x1="50.041" x2="870.5068" y1="1030.1094" y2="1030.1094"/><text fill="#000000" font-family="Helvetica" font-size="10" font-weight="700" x="55.041" y="1041.3916">[Software Attestation (Fallback)]</text><line style="stroke:#181818;stroke-width:1;" x1="552.4004" x2="594.4004" y1="972.4688" y2="972.4688"/><line style="stroke:#181818;stroke-width:1;" x1="594.4004" x2="594.4004" y1="972.4688" y2="985.4688"/><line style="stroke:#181818;stroke-width:1;" x1="553.4004" x2="594.4004" y1="985.4688" y2="985.4688"/><polygon fill="#181818" points="563.4004,981.4688,553.4004,985.4688,563.4004,989.4688,559.4004,985.4688" style="stroke:#181818;stroke-width:1;stroke-linejoin:miter;stroke-miterlimit:10;"/><text fill="#000000" font-family="Helvetica" font-size="10" x="559.4004" y="968.1104">(14)</text><text fill="#000000" font-family="Helvetica" font-size="10" x="583.9277" y="968.1104">Create ZETA Guard Attestation Token (zg_att_token)</text><polygon fill="#181818" points="82.041,1007.1094,72.041,1011.1094,82.041,1015.1094,78.041,1011.1094" style="stroke:#181818;stroke-width:1;stroke-linejoin:miter;stroke-miterlimit:10;"/><line style="stroke:#181818;stroke-width:1;stroke-dasharray:2,2;" x1="76.041" x2="541.4004" y1="1011.1094" y2="1011.1094"/><text fill="#000000" font-family="Helvetica" font-size="10" x="88.041" y="1006.751">(15)</text><text fill="#000000" font-family="Helvetica" font-size="10" x="112.5684" y="1006.751">200 OK {Access Token, Refresh Token, zg_att_token, token_type=DPoP, expires_in}</text><polygon fill="#181818" points="82.041,1062.3906,72.041,1066.3906,82.041,1070.3906,78.041,1066.3906" style="stroke:#181818;stroke-width:1;stroke-linejoin:miter;stroke-miterlimit:10;"/><line style="stroke:#181818;stroke-width:1;stroke-dasharray:2,2;" x1="76.041" x2="541.4004" y1="1066.3906" y2="1066.3906"/><text fill="#000000" font-family="Helvetica" font-size="10" x="88.041" y="1062.0322">(16)</text><text fill="#000000" font-family="Helvetica" font-size="10" x="112.5684" y="1062.0322">200 OK {Access Token, Refresh Token, token_type=DPoP, expires_in}</text><polygon fill="#181818" points="82.041,1131.6719,72.041,1135.6719,82.041,1139.6719,78.041,1135.6719" style="stroke:#181818;stroke-width:1;stroke-linejoin:miter;stroke-miterlimit:10;"/><line style="stroke:#181818;stroke-width:1;stroke-dasharray:2,2;" x1="76.041" x2="541.4004" y1="1135.6719" y2="1135.6719"/><text fill="#000000" font-family="Helvetica" font-size="10" x="88.041" y="1131.3135">(17)</text><text fill="#000000" font-family="Helvetica" font-size="10" x="112.5684" y="1131.3135">403 Forbidden {"reasons": ["..."]}</text><path d="M21.4941,1162.6719 L21.4941,1206.6719 L591.4941,1206.6719 L591.4941,1172.6719 L581.4941,1162.6719 L21.4941,1162.6719" fill="#FEFFDD" style="stroke:#181818;stroke-width:0.5;"/><path d="M581.4941,1162.6719 L581.4941,1172.6719 L591.4941,1172.6719 L581.4941,1162.6719" fill="#FEFFDD" style="stroke:#181818;stroke-width:0.5;"/><text fill="#000000" font-family="Helvetica" font-size="10" x="27.4941" y="1176.9541">Der ZETA Client besitzt nun ein DPoP-gebundenes Access Token und kann auf den Resource Server zugreifen</text><text fill="#000000" font-family="Helvetica" font-size="10" x="27.4941" y="1188.5947">(siehe Abb-ZETA-Zugriff-auf-RS-mit-ASL bzw. Abb-ZETA-Zugriff-auf-RS-ohne-ASL).</text><text fill="#000000" font-family="Helvetica" font-size="10" x="27.4941" y="1200.2354">Die Session-Erneuerung erfolgt &#252;ber Abb-ZETA-Token-Exchange-mit-Refresh-Token.</text><?plantuml-src fLVDRY974BxFKrI8b83CWEFDve2Cep4CNcBlWe3TI1j7esQcW1P3pwYxnpzOlaLvWBn0BliCEUsDDycJfBg7Vt1MKIxOFJrLzLNrLr_NVCL566SHGgLIJRDPxCRiCSbqHJzent6-XG7oEE9iBDbi1iL6gGQ3P8h2lSHvDeOXyXaedEf4iXW5j9lTCdIJc8UFhY-q2YV8eqoC8HCHU9bI6kFOh2EKyD4VUBctPHouImHumw5hTjnEkzbmlKnFK6W-udEEaYpTMJBaCKgt4NFQK8upJ1wWyDO-1IzD2z3qFxGRVj3et7Hw3a3AfEOXJvdGa1i1Kr2mqVDr0SxFvwZPnOM3X9CSBhrwOiXH4zH16yugfz2ajnMztkrrFhIRVcyTmxvjFLvbJ4O5crjmzTxhDTVlx28nYVKja6wpUolCCf5ypZId6lHHtg6y5KLJ0-XX_CYfPbqoVonjWTttsUbw6u_vAO0lnbpWZj4gnzrS1sstjVYBpiL2AC3NljSwQxNs2aW7R4FqLsSkpID2chF25r6QYQak5JRUyngVd3WYqGW99ROiUzcOrg2veiBoS2QC3YXJUyoxB15dY1tl1sywlVP7Rz3klAFIDdqeafSIe9omMAEeE4wz3cqXK9BVLfpSVv6nKAyxHy3P4wBqBud2Q5VGIEW_urEP8fBrulEGBEW_XV7Gm4jJzuQBQVMzuEHBiTWkWGlBUDgkhFCbrykCKH8-GqinOLIr21LqHonIraPYn2M6EiWaByCznjHJCWUtBZVCCw1mzpaehdIDdBkGy2WCjksXM0s7rNEMfXTLirc2lt__Ons1ZZqW3sd22Oi1aNEqQ0w3APT2n-vK9FUYLBRK4poSQ8kngdTEttebXfZQxjODYdphP4eL2vFWl8YIVdAG-o4s-CpkflKE0Yu-POi_jqCQOfhJNZ4Jt8lSqyb93Qxy0Po_K109X-ruSIjQIJpEjr-TdhczZUrH5j-ANZRInsj-K6XwCheLJo5bKpVCjuGFhCWgpJJMxM_0rBEJru9IeLsJIBVJ7ooB1iNPuAPF9XYF0iN70gD0noe8RVe18qk2zKGGQQKVKwopRJKAJFWo705nAyp3W9X7-eoolhCYL6IKX-1H-P2CpuxXHuwOyCh5vn420Lqg-nobaVqfqnGdTsgk08JzA336CILf7uSa0jJLOrCJAFRFNlzG8cikxbZC8sjzA20vZ1K9NBS6PwUdqBccad0gL5x1dtxsQ-0tcczSlr_roEzLuorLb8f9NZNugr0i356ftAeCzazUqajanC4ou4DA5L015rjdPlyX__R6Z1UV5HqLKbrovIh3TlfzYibq9g4uvL7ruNLemgPvzRXILPP5LP684AiKoiJJaasiPIDcV4PbkVxmhbS65X8QDgEVIgLIiggv-6sxLMf7B_9l_kKQjq9wa9ISOpP6sBcFIA3JJDErqOxCxQuNdxHoStncVb2K7r7kEX6Qy9SsFkc6sv3xxhjgn3Ih6hREuUb8W6V7N8axPxjyguaXLqHknw5RO_yX48cIUwjnBsLpx1xo-gLj6pBAcLmpmW2jX6QWMt6JXBQhQd2-htiNF-xrcDV_PgVDqzJwtyZMolyALRERTE4Q7qcRE16aAwyhvb65E4DbpJOhwdSpaTdtkp99HdkEbzbkYmYGIAM4slm9KcDpyPz5m-j_IJFIT4Sqzajap9UgHJqYhSfIRmueEyerns_oMtTcwVdeCNvuMK_Iz0L1eOsrecmAPoVRPU6y3IPp29TSHEQYCBBURFIenmmKmxStT57TCwD6MgCvN6D311AH99c4WUz3ObghhsKYnfSqdbMXx-ViEfPEGo8HPESMt7ASzsPnFWwOrhaq7RZQ8bEkVl3aMIbRIL0FHoHRazLoszcEpfdAxAgSYOAn8kLAHleWwsAB2ZnauVH_G_eo214vZaMot-yaGeyljExtfw-eTUMGHsQqUYfGfLKYLA46lnH8E0k_FZlMxylpu_vyEqJ5zLm3TI0W3OO6h3l6OMQ6DpFLR2LfsJLbmau2TW3keKeo6UBo6u4clx54Fg9lA2AGuZZ1pHVKHzhZev5BjcwlxywuTht-3GpdzvKNNqec0irRTZQZxnsAeqoDN5yApEmd6Csh8plpvDFlsjFo4-21UeOQnePR7b6-jJLw_GC0?></g></svg>