<svg xmlns="http://www.w3.org/2000/svg" xmlns:xlink="http://www.w3.org/1999/xlink" contentStyleType="text/css" data-diagram-type="SEQUENCE" height="1341px" preserveAspectRatio="none" style="width:1200px;height:1341px;background:#FFFFFF;" version="1.1" viewBox="0 0 1200 1341" width="1200px" zoomAndPan="magnify"><?plantuml 1.2026.6?><defs/><g><rect fill="#FEFCFF" height="1315.1094" style="stroke:#181818;stroke-width:0.5;" width="102.1934" x="159.083" y="11"/><text fill="#000000" font-family="Helvetica" font-size="10" font-weight="700" x="191.3101" y="20.2822">Device</text><rect fill="#E6E6FA" height="1298.4688" style="stroke:#181818;stroke-width:0.5;" width="102.1934" x="159.083" y="27.6406"/><text fill="#000000" font-family="Helvetica" font-size="10" font-weight="700" x="171.083" y="36.9229">Prim&#228;rsystem</text><rect fill="#EDFDEC" height="1315.1094" style="stroke:#181818;stroke-width:0.5;" width="524.4873" x="659.1035" y="11"/><text fill="#000000" font-family="Helvetica" font-size="10" font-weight="700" x="859.4551" y="20.2822">Anbieter TI 2.0 Dienst</text><rect fill="#FFF3E5" height="1298.4688" style="stroke:#181818;stroke-width:0.5;" width="524.4873" x="659.1035" y="27.6406"/><text fill="#000000" font-family="Helvetica" font-size="10" font-weight="700" x="888.2026" y="36.9229">ZETA Guard</text><g><title>Konnektor or</title><rect fill="#000000" fill-opacity="0.00000" height="1200.2656" width="8" x="45.9268" y="81.5625"/><line style="stroke:#000000;stroke-width:0.5;stroke-dasharray:5,5;" x1="49.4268" x2="49.4268" y1="81.5625" y2="1281.8281"/></g><g><title/><rect fill="#FFFFFF" height="25.6406" style="stroke:#181818;stroke-width:1;" width="10" x="44.4268" y="173.4844"/></g><g><title>SM.C.-B</title><rect fill="#000000" fill-opacity="0.00000" height="1200.2656" width="8" x="122.4683" y="81.5625"/><line style="stroke:#000000;stroke-width:0.5;stroke-dasharray:5,5;" x1="125.9683" x2="125.9683" y1="81.5625" y2="1281.8281"/></g><g><title>ZETA Client</title><rect fill="#000000" fill-opacity="0.00000" height="1200.2656" width="8" x="206.6797" y="81.5625"/><line style="stroke:#000000;stroke-width:0.5;stroke-dasharray:5,5;" x1="210.1797" x2="210.1797" y1="81.5625" y2="1281.8281"/></g><g><title/><rect fill="#FFFFFF" height="1192.2656" style="stroke:#181818;stroke-width:1;" width="10" x="205.1797" y="89.5625"/></g><g><title>PDP</title><rect fill="#000000" fill-opacity="0.00000" height="1200.2656" width="8" x="718.0781" y="81.5625"/><line style="stroke:#000000;stroke-width:0.5;stroke-dasharray:5,5;" x1="721.5781" x2="721.5781" y1="81.5625" y2="1281.8281"/></g><g><title/><rect fill="#FFFFFF" height="622.4531" style="stroke:#181818;stroke-width:1;" width="10" x="716.5781" y="327.6875"/></g><g><title>PDP</title><rect fill="#000000" fill-opacity="0.00000" height="1200.2656" width="8" x="1135.8047" y="81.5625"/><line style="stroke:#000000;stroke-width:0.5;stroke-dasharray:5,5;" x1="1139.3047" x2="1139.3047" y1="81.5625" y2="1281.8281"/></g><g><title/><rect fill="#FFFFFF" height="25.6406" style="stroke:#181818;stroke-width:1;" width="10" x="1134.3047" y="641.7344"/></g><rect fill="#E4E4F4" height="37.2813" rx="2.5" ry="2.5" style="stroke:#181818;stroke-width:0.5;" width="78.8535" x="10" y="43.2813"/><text fill="#000000" font-family="Helvetica" font-size="10" x="17" y="59.5635">Konnektor or</text><text fill="#000000" font-family="Helvetica" font-size="10" x="21.0063" y="71.2041">TI-Gateway</text><rect fill="#E4E4F4" height="25.6406" rx="2.5" ry="2.5" style="stroke:#181818;stroke-width:0.5;" width="54.2295" x="98.8535" y="54.9219"/><text fill="#000000" font-family="Helvetica" font-size="10" x="105.8535" y="71.2041">SM(C)-B</text><rect fill="#FFE6CC" height="25.6406" rx="2.5" ry="2.5" style="stroke:#D79B00;stroke-width:0.5;" width="72.2471" x="174.0562" y="54.9219"/><text fill="#000000" font-family="Helvetica" font-size="10" x="181.0562" y="71.2041">ZETA Client</text><rect fill="#FFE6CC" height="37.2813" rx="2.5" ry="2.5" style="stroke:#D79B00;stroke-width:0.5;" width="116.9492" x="663.1035" y="43.2813"/><text fill="#000000" font-family="Helvetica" font-size="10" x="711.6978" y="59.5635">PDP</text><text fill="#000000" font-family="Helvetica" font-size="10" x="670.1035" y="71.2041">Authorization Server</text><rect fill="#FFE6CC" height="37.2813" rx="2.5" ry="2.5" style="stroke:#D79B00;stroke-width:0.5;" width="80.5723" x="1099.0186" y="43.2813"/><text fill="#000000" font-family="Helvetica" font-size="10" x="1129.4243" y="59.5635">PDP</text><text fill="#000000" font-family="Helvetica" font-size="10" x="1106.0186" y="71.2041">Policy Engine</text><rect fill="#E4E4F4" height="37.2813" rx="2.5" ry="2.5" style="stroke:#181818;stroke-width:0.5;" width="78.8535" x="10" y="1281.8281"/><text fill="#000000" font-family="Helvetica" font-size="10" x="17" y="1298.1104">Konnektor or</text><text fill="#000000" font-family="Helvetica" font-size="10" x="21.0063" y="1309.751">TI-Gateway</text><rect fill="#E4E4F4" height="25.6406" rx="2.5" ry="2.5" style="stroke:#181818;stroke-width:0.5;" width="54.2295" x="98.8535" y="1281.8281"/><text fill="#000000" font-family="Helvetica" font-size="10" x="105.8535" y="1298.1104">SM(C)-B</text><rect fill="#FFE6CC" height="25.6406" rx="2.5" ry="2.5" style="stroke:#D79B00;stroke-width:0.5;" width="72.2471" x="174.0562" y="1281.8281"/><text fill="#000000" font-family="Helvetica" font-size="10" x="181.0562" y="1298.1104">ZETA Client</text><rect fill="#FFE6CC" height="37.2813" rx="2.5" ry="2.5" style="stroke:#D79B00;stroke-width:0.5;" width="116.9492" x="663.1035" y="1281.8281"/><text fill="#000000" font-family="Helvetica" font-size="10" x="711.6978" y="1298.1104">PDP</text><text fill="#000000" font-family="Helvetica" font-size="10" x="670.1035" y="1309.751">Authorization Server</text><rect fill="#FFE6CC" height="37.2813" rx="2.5" ry="2.5" style="stroke:#D79B00;stroke-width:0.5;" width="80.5723" x="1099.0186" y="1281.8281"/><text fill="#000000" font-family="Helvetica" font-size="10" x="1129.4243" y="1298.1104">PDP</text><text fill="#000000" font-family="Helvetica" font-size="10" x="1106.0186" y="1309.751">Policy Engine</text><line style="stroke:#181818;stroke-width:1;" x1="215.1797" x2="257.1797" y1="107.2031" y2="107.2031"/><line style="stroke:#181818;stroke-width:1;" x1="257.1797" x2="257.1797" y1="107.2031" y2="120.2031"/><line style="stroke:#181818;stroke-width:1;" x1="216.1797" x2="257.1797" y1="120.2031" y2="120.2031"/><polygon fill="#181818" points="226.1797,116.2031,216.1797,120.2031,226.1797,124.2031,222.1797,120.2031" style="stroke:#181818;stroke-width:1;stroke-linejoin:miter;stroke-miterlimit:10;"/><text fill="#000000" font-family="Helvetica" font-size="10" x="222.1797" y="102.8447">(01)</text><text fill="#000000" font-family="Helvetica" font-size="10" x="246.707" y="102.8447">Generiere subject_token</text><path d="M28.4268,132.2031 L258.8711,132.2031 L258.8711,135.8438 L248.8711,145.8438 L28.4268,145.8438 L28.4268,132.2031" fill="#EEEEEE" style="stroke:#000000;stroke-width:1.5;"/><rect fill="none" height="74.9219" style="stroke:#000000;stroke-width:1.5;" width="246.4443" x="28.4268" y="132.2031"/><text fill="#000000" font-family="Helvetica" font-size="10" font-weight="700" x="43.4268" y="142.4854">Sign Subject Token with SM(C)-B</text><polygon fill="#181818" points="65.4268,169.4844,55.4268,173.4844,65.4268,177.4844,61.4268,173.4844" style="stroke:#181818;stroke-width:1;stroke-linejoin:miter;stroke-miterlimit:10;"/><line style="stroke:#181818;stroke-width:1;" x1="59.4268" x2="204.1797" y1="173.4844" y2="173.4844"/><text fill="#000000" font-family="Helvetica" font-size="10" x="71.4268" y="169.126">(02)</text><text fill="#000000" font-family="Helvetica" font-size="10" x="95.9541" y="169.126">&#160;</text><polygon fill="#181818" points="193.1797,195.125,203.1797,199.125,193.1797,203.125,197.1797,199.125" style="stroke:#181818;stroke-width:1;stroke-linejoin:miter;stroke-miterlimit:10;"/><line style="stroke:#181818;stroke-width:1;stroke-dasharray:2,2;" x1="54.4268" x2="199.1797" y1="199.125" y2="199.125"/><text fill="#000000" font-family="Helvetica" font-size="10" x="61.4268" y="194.7666">(03)</text><text fill="#000000" font-family="Helvetica" font-size="10" x="85.9541" y="194.7666">&#160;</text><line style="stroke:#181818;stroke-width:1;" x1="215.1797" x2="257.1797" y1="238.7656" y2="238.7656"/><line style="stroke:#181818;stroke-width:1;" x1="257.1797" x2="257.1797" y1="238.7656" y2="251.7656"/><line style="stroke:#181818;stroke-width:1;" x1="216.1797" x2="257.1797" y1="251.7656" y2="251.7656"/><polygon fill="#181818" points="226.1797,247.7656,216.1797,251.7656,226.1797,255.7656,222.1797,251.7656" style="stroke:#181818;stroke-width:1;stroke-linejoin:miter;stroke-miterlimit:10;"/><text fill="#000000" font-family="Helvetica" font-size="10" x="222.1797" y="234.4072">(04)</text><text fill="#000000" font-family="Helvetica" font-size="10" x="246.707" y="234.4072">Create DPoP Key Pair (PrK.DPoP.Sig, PuK.DPoP.Sig)</text><path d="M513.6289,226.125 L513.6289,247.125 L739.6289,247.125 L739.6289,236.125 L729.6289,226.125 L513.6289,226.125" fill="#FEFFDD" style="stroke:#181818;stroke-width:0.5;"/><path d="M729.6289,226.125 L729.6289,236.125 L739.6289,236.125 L729.6289,226.125" fill="#FEFFDD" style="stroke:#181818;stroke-width:0.5;"/><text fill="#000000" font-family="Helvetica" font-size="10" x="519.6289" y="240.4072">Session-based Key Pair for DPoP binding.</text><line style="stroke:#181818;stroke-width:1;" x1="215.1797" x2="257.1797" y1="277.4063" y2="277.4063"/><line style="stroke:#181818;stroke-width:1;" x1="257.1797" x2="257.1797" y1="277.4063" y2="290.4063"/><line style="stroke:#181818;stroke-width:1;" x1="216.1797" x2="257.1797" y1="290.4063" y2="290.4063"/><polygon fill="#181818" points="226.1797,286.4063,216.1797,290.4063,226.1797,294.4063,222.1797,290.4063" style="stroke:#181818;stroke-width:1;stroke-linejoin:miter;stroke-miterlimit:10;"/><text fill="#000000" font-family="Helvetica" font-size="10" x="222.1797" y="273.0479">(05)</text><text fill="#000000" font-family="Helvetica" font-size="10" x="246.707" y="273.0479">Create DPoP Proof (with Nonce from AuthS)</text><polygon fill="#181818" points="704.5781,323.6875,714.5781,327.6875,704.5781,331.6875,708.5781,327.6875" style="stroke:#181818;stroke-width:1;stroke-linejoin:miter;stroke-miterlimit:10;"/><line style="stroke:#181818;stroke-width:1;" x1="215.1797" x2="710.5781" y1="327.6875" y2="327.6875"/><text fill="#000000" font-family="Helvetica" font-size="10" x="222.1797" y="317.5088">(06)</text><text fill="#000000" font-family="Helvetica" font-size="10" x="246.707" y="311.6885">POST /token dpop: dpop_proof</text><text fill="#000000" font-family="Helvetica" font-size="10" x="246.707" y="323.3291">{client_assertion (JWT, PrK.Client.Sig signiert), subject_token (SMC-B signiert, inkl. Nonce)}</text><line style="stroke:#181818;stroke-width:1;" x1="726.5781" x2="768.5781" y1="376.6094" y2="376.6094"/><line style="stroke:#181818;stroke-width:1;" x1="768.5781" x2="768.5781" y1="376.6094" y2="389.6094"/><line style="stroke:#181818;stroke-width:1;" x1="727.5781" x2="768.5781" y1="389.6094" y2="389.6094"/><polygon fill="#181818" points="737.5781,385.6094,727.5781,389.6094,737.5781,393.6094,733.5781,389.6094" style="stroke:#181818;stroke-width:1;stroke-linejoin:miter;stroke-miterlimit:10;"/><text fill="#000000" font-family="Helvetica" font-size="10" x="733.5781" y="360.6104">(07)</text><text fill="#000000" font-family="Helvetica" font-size="10" x="758.1055" y="348.9697">Validate Request (Client Assertion, DPoP Proof,</text><text fill="#000000" font-family="Helvetica" font-size="10" x="758.1055" y="360.6104">Subject Token, Nonce, verify key bindings (client_key with DCR Client Key,</text><text fill="#000000" font-family="Helvetica" font-size="10" x="758.1055" y="372.251">dpop_key with DPoP Proof), Sperrstatus (OCSP) der SM(C)-B)</text><path d="M705.5781,401.6094 L765.5342,401.6094 L765.5342,405.25 L755.5342,415.25 L705.5781,415.25 L705.5781,401.6094" fill="#EEEEEE" style="stroke:#000000;stroke-width:1.5;"/><rect fill="none" height="142.2031" style="stroke:#000000;stroke-width:1.5;" width="393.4521" x="705.5781" y="401.6094"/><text fill="#000000" font-family="Helvetica" font-size="10" font-weight="700" x="720.5781" y="411.8916">alt</text><text fill="#000000" font-family="Helvetica" font-size="10" font-weight="700" x="780.5342" y="412.8916">[TPM Attestation (Windows / Linux)]</text><line style="stroke:#000000;stroke-width:1;stroke-dasharray:2,2;" x1="705.5781" x2="1099.0303" y1="486.5313" y2="486.5313"/><text fill="#000000" font-family="Helvetica" font-size="10" font-weight="700" x="710.5781" y="497.8135">[macOS Attestation (Secure Enclave)]</text><line style="stroke:#181818;stroke-width:1;" x1="726.5781" x2="768.5781" y1="454.5313" y2="454.5313"/><line style="stroke:#181818;stroke-width:1;" x1="768.5781" x2="768.5781" y1="454.5313" y2="467.5313"/><line style="stroke:#181818;stroke-width:1;" x1="727.5781" x2="768.5781" y1="467.5313" y2="467.5313"/><polygon fill="#181818" points="737.5781,463.5313,727.5781,467.5313,737.5781,471.5313,733.5781,467.5313" style="stroke:#181818;stroke-width:1;stroke-linejoin:miter;stroke-miterlimit:10;"/><text fill="#000000" font-family="Helvetica" font-size="10" x="733.5781" y="444.3525">(08)</text><text fill="#000000" font-family="Helvetica" font-size="10" x="758.1055" y="438.5322">Verifiziere Hardware-Signatur (Quote) gegen extrahierte Nonce</text><text fill="#000000" font-family="Helvetica" font-size="10" x="758.1055" y="450.1729">PCR-Replay via Event Log</text><line style="stroke:#181818;stroke-width:1;" x1="726.5781" x2="768.5781" y1="522.8125" y2="522.8125"/><line style="stroke:#181818;stroke-width:1;" x1="768.5781" x2="768.5781" y1="522.8125" y2="535.8125"/><line style="stroke:#181818;stroke-width:1;" x1="727.5781" x2="768.5781" y1="535.8125" y2="535.8125"/><polygon fill="#181818" points="737.5781,531.8125,727.5781,535.8125,737.5781,539.8125,733.5781,535.8125" style="stroke:#181818;stroke-width:1;stroke-linejoin:miter;stroke-miterlimit:10;"/><text fill="#000000" font-family="Helvetica" font-size="10" x="733.5781" y="518.4541">(09)</text><text fill="#000000" font-family="Helvetica" font-size="10" x="758.1055" y="518.4541">Pr&#252;fe Signaturen und counter (Replay-Schutz)</text><path d="M156.1797,561.8125 L216.1357,561.8125 L216.1357,565.4531 L206.1357,575.4531 L156.1797,575.4531 L156.1797,561.8125" fill="#EEEEEE" style="stroke:#000000;stroke-width:1.5;"/><rect fill="none" height="617.8125" style="stroke:#000000;stroke-width:1.5;" width="1004.125" x="156.1797" y="561.8125"/><text fill="#000000" font-family="Helvetica" font-size="10" font-weight="700" x="171.1797" y="572.0947">alt</text><text fill="#000000" font-family="Helvetica" font-size="10" font-weight="700" x="231.1357" y="573.0947">[Validation successful]</text><line style="stroke:#000000;stroke-width:1;stroke-dasharray:2,2;" x1="156.1797" x2="1160.3047" y1="983.1406" y2="983.1406"/><text fill="#000000" font-family="Helvetica" font-size="10" font-weight="700" x="161.1797" y="994.4229">[Validation fehlerhaft]</text><line style="stroke:#181818;stroke-width:1;" x1="726.5781" x2="768.5781" y1="603.0938" y2="603.0938"/><line style="stroke:#181818;stroke-width:1;" x1="768.5781" x2="768.5781" y1="603.0938" y2="616.0938"/><line style="stroke:#181818;stroke-width:1;" x1="727.5781" x2="768.5781" y1="616.0938" y2="616.0938"/><polygon fill="#181818" points="737.5781,612.0938,727.5781,616.0938,737.5781,620.0938,733.5781,616.0938" style="stroke:#181818;stroke-width:1;stroke-linejoin:miter;stroke-miterlimit:10;"/><text fill="#000000" font-family="Helvetica" font-size="10" x="733.5781" y="598.7354">(10)</text><text fill="#000000" font-family="Helvetica" font-size="10" x="758.1055" y="598.7354">Policy Engine Input erstellen</text><polygon fill="#181818" points="1122.3047,637.7344,1132.3047,641.7344,1122.3047,645.7344,1126.3047,641.7344" style="stroke:#181818;stroke-width:1;stroke-linejoin:miter;stroke-miterlimit:10;"/><line style="stroke:#181818;stroke-width:1;" x1="726.5781" x2="1128.3047" y1="641.7344" y2="641.7344"/><text fill="#000000" font-family="Helvetica" font-size="10" x="733.5781" y="637.376">(11)</text><text fill="#000000" font-family="Helvetica" font-size="10" x="758.1055" y="637.376">POST /v1/data/authz {Policy Engine Input}</text><polygon fill="#181818" points="737.5781,663.375,727.5781,667.375,737.5781,671.375,733.5781,667.375" style="stroke:#181818;stroke-width:1;stroke-linejoin:miter;stroke-miterlimit:10;"/><line style="stroke:#181818;stroke-width:1;stroke-dasharray:2,2;" x1="731.5781" x2="1133.3047" y1="667.375" y2="667.375"/><text fill="#000000" font-family="Helvetica" font-size="10" x="743.5781" y="663.0166">(12)</text><text fill="#000000" font-family="Helvetica" font-size="10" x="768.1055" y="663.0166">Policy Decision</text><path d="M175.1797,679.375 L235.1357,679.375 L235.1357,683.0156 L225.1357,693.0156 L175.1797,693.0156 L175.1797,679.375" fill="#EEEEEE" style="stroke:#000000;stroke-width:1.5;"/><rect fill="none" height="278.7656" style="stroke:#000000;stroke-width:1.5;" width="911.0723" x="175.1797" y="679.375"/><text fill="#000000" font-family="Helvetica" font-size="10" font-weight="700" x="190.1797" y="689.6572">alt</text><text fill="#000000" font-family="Helvetica" font-size="10" font-weight="700" x="250.1357" y="690.6572">[Policy Decision allow]</text><line style="stroke:#000000;stroke-width:1;stroke-dasharray:2,2;" x1="175.1797" x2="1086.252" y1="913.8594" y2="913.8594"/><text fill="#000000" font-family="Helvetica" font-size="10" font-weight="700" x="180.1797" y="925.1416">[Policy Decision deny]</text><line style="stroke:#181818;stroke-width:1;" x1="726.5781" x2="768.5781" y1="720.6563" y2="720.6563"/><line style="stroke:#181818;stroke-width:1;" x1="768.5781" x2="768.5781" y1="720.6563" y2="733.6563"/><line style="stroke:#181818;stroke-width:1;" x1="727.5781" x2="768.5781" y1="733.6563" y2="733.6563"/><polygon fill="#181818" points="737.5781,729.6563,727.5781,733.6563,737.5781,737.6563,733.5781,733.6563" style="stroke:#181818;stroke-width:1;stroke-linejoin:miter;stroke-miterlimit:10;"/><text fill="#000000" font-family="Helvetica" font-size="10" x="733.5781" y="716.2979">(13)</text><text fill="#000000" font-family="Helvetica" font-size="10" x="758.1055" y="716.2979">Create Token (Access Token, Refresh Token)</text><path d="M194.1797,745.6563 L254.1357,745.6563 L254.1357,749.2969 L244.1357,759.2969 L194.1797,759.2969 L194.1797,745.6563" fill="#EEEEEE" style="stroke:#000000;stroke-width:1.5;"/><rect fill="none" height="143.2031" style="stroke:#000000;stroke-width:1.5;" width="867.0723" x="194.1797" y="745.6563"/><text fill="#000000" font-family="Helvetica" font-size="10" font-weight="700" x="209.1797" y="755.9385">alt</text><text fill="#000000" font-family="Helvetica" font-size="10" font-weight="700" x="269.1357" y="756.9385">[Hardware Attestation  (TPM / SE)]</text><line style="stroke:#000000;stroke-width:1;stroke-dasharray:2,2;" x1="194.1797" x2="1061.252" y1="844.5781" y2="844.5781"/><text fill="#000000" font-family="Helvetica" font-size="10" font-weight="700" x="199.1797" y="855.8604">[Software Attestation (Fallback)]</text><line style="stroke:#181818;stroke-width:1;" x1="726.5781" x2="768.5781" y1="786.9375" y2="786.9375"/><line style="stroke:#181818;stroke-width:1;" x1="768.5781" x2="768.5781" y1="786.9375" y2="799.9375"/><line style="stroke:#181818;stroke-width:1;" x1="727.5781" x2="768.5781" y1="799.9375" y2="799.9375"/><polygon fill="#181818" points="737.5781,795.9375,727.5781,799.9375,737.5781,803.9375,733.5781,799.9375" style="stroke:#181818;stroke-width:1;stroke-linejoin:miter;stroke-miterlimit:10;"/><text fill="#000000" font-family="Helvetica" font-size="10" x="733.5781" y="782.5791">(14)</text><text fill="#000000" font-family="Helvetica" font-size="10" x="758.1055" y="782.5791">Create ZETA Attestation Token (zeta_attestation_token)</text><polygon fill="#181818" points="226.1797,821.5781,216.1797,825.5781,226.1797,829.5781,222.1797,825.5781" style="stroke:#181818;stroke-width:1;stroke-linejoin:miter;stroke-miterlimit:10;"/><line style="stroke:#181818;stroke-width:1;stroke-dasharray:2,2;" x1="220.1797" x2="715.5781" y1="825.5781" y2="825.5781"/><text fill="#000000" font-family="Helvetica" font-size="10" x="232.1797" y="821.2197">(15)</text><text fill="#000000" font-family="Helvetica" font-size="10" x="256.707" y="821.2197">200 OK {Access Token, Refresh Token, zeta_attestation_token}</text><polygon fill="#181818" points="226.1797,876.8594,216.1797,880.8594,226.1797,884.8594,222.1797,880.8594" style="stroke:#181818;stroke-width:1;stroke-linejoin:miter;stroke-miterlimit:10;"/><line style="stroke:#181818;stroke-width:1;stroke-dasharray:2,2;" x1="220.1797" x2="715.5781" y1="880.8594" y2="880.8594"/><text fill="#000000" font-family="Helvetica" font-size="10" x="232.1797" y="876.501">(16)</text><text fill="#000000" font-family="Helvetica" font-size="10" x="256.707" y="876.501">200 OK {Access Token, Refresh Token}</text><polygon fill="#181818" points="226.1797,946.1406,216.1797,950.1406,226.1797,954.1406,222.1797,950.1406" style="stroke:#181818;stroke-width:1;stroke-linejoin:miter;stroke-miterlimit:10;"/><line style="stroke:#181818;stroke-width:1;stroke-dasharray:2,2;" x1="220.1797" x2="715.5781" y1="950.1406" y2="950.1406"/><text fill="#000000" font-family="Helvetica" font-size="10" x="232.1797" y="945.7822">(17)</text><text fill="#000000" font-family="Helvetica" font-size="10" x="256.707" y="945.7822">403 Forbidden {"error": "access_denied", "reasons": [...]}</text><path d="M194.1797,1005.7813 L254.1357,1005.7813 L254.1357,1009.4219 L244.1357,1019.4219 L194.1797,1019.4219 L194.1797,1005.7813" fill="#EEEEEE" style="stroke:#000000;stroke-width:1.5;"/><rect fill="none" height="159.8438" style="stroke:#000000;stroke-width:1.5;" width="543.3984" x="194.1797" y="1005.7813"/><text fill="#000000" font-family="Helvetica" font-size="10" font-weight="700" x="209.1797" y="1016.0635">alt</text><text fill="#000000" font-family="Helvetica" font-size="10" font-weight="700" x="269.1357" y="1017.0635">[Client-Authentifizierung fehlgeschlagen (Client Assertion)]</text><line style="stroke:#000000;stroke-width:1;stroke-dasharray:2,2;" x1="194.1797" x2="737.5781" y1="1066.0625" y2="1066.0625"/><text fill="#000000" font-family="Helvetica" font-size="10" font-weight="700" x="199.1797" y="1077.3447">[DPoP-Proof ung&#252;ltig]</text><line style="stroke:#000000;stroke-width:1;stroke-dasharray:2,2;" x1="194.1797" x2="737.5781" y1="1121.3438" y2="1121.3438"/><text fill="#000000" font-family="Helvetica" font-size="10" font-weight="700" x="199.1797" y="1132.626">[Subject-Token/SM(C)-B ung&#252;ltig oder gesperrt, Nonce/Grant ung&#252;ltig]</text><polygon fill="#181818" points="226.1797,1043.0625,216.1797,1047.0625,226.1797,1051.0625,222.1797,1047.0625" style="stroke:#181818;stroke-width:1;stroke-linejoin:miter;stroke-miterlimit:10;"/><line style="stroke:#181818;stroke-width:1;stroke-dasharray:2,2;" x1="220.1797" x2="720.5781" y1="1047.0625" y2="1047.0625"/><text fill="#000000" font-family="Helvetica" font-size="10" x="232.1797" y="1042.7041">(18)</text><text fill="#000000" font-family="Helvetica" font-size="10" x="256.707" y="1042.7041">401 Unauthorized {"error": "invalid_client"}</text><polygon fill="#181818" points="226.1797,1098.3438,216.1797,1102.3438,226.1797,1106.3438,222.1797,1102.3438" style="stroke:#181818;stroke-width:1;stroke-linejoin:miter;stroke-miterlimit:10;"/><line style="stroke:#181818;stroke-width:1;stroke-dasharray:2,2;" x1="220.1797" x2="720.5781" y1="1102.3438" y2="1102.3438"/><text fill="#000000" font-family="Helvetica" font-size="10" x="232.1797" y="1097.9854">(19)</text><text fill="#000000" font-family="Helvetica" font-size="10" x="256.707" y="1097.9854">400 Bad Request {"error": "invalid_dpop_proof"}</text><polygon fill="#181818" points="226.1797,1153.625,216.1797,1157.625,226.1797,1161.625,222.1797,1157.625" style="stroke:#181818;stroke-width:1;stroke-linejoin:miter;stroke-miterlimit:10;"/><line style="stroke:#181818;stroke-width:1;stroke-dasharray:2,2;" x1="220.1797" x2="720.5781" y1="1157.625" y2="1157.625"/><text fill="#000000" font-family="Helvetica" font-size="10" x="232.1797" y="1153.2666">(20)</text><text fill="#000000" font-family="Helvetica" font-size="10" x="256.707" y="1153.2666">400 Bad Request {"error": "invalid_grant"}</text><path d="M113.5454,1198.625 L113.5454,1266.625 L817.5454,1266.625 L817.5454,1208.625 L807.5454,1198.625 L113.5454,1198.625" fill="#FEFFDD" style="stroke:#181818;stroke-width:0.5;"/><path d="M807.5454,1198.625 L807.5454,1208.625 L817.5454,1208.625 L807.5454,1198.625" fill="#FEFFDD" style="stroke:#181818;stroke-width:0.5;"/><text fill="#000000" font-family="Helvetica" font-size="10" x="119.5454" y="1212.9072">Fehlercodes gem&#228;&#223; [RFC6749]#section-5.2 (Token Exchange [RFC8693]):</text><text fill="#000000" font-family="Helvetica" font-size="10" x="119.5454" y="1224.5479">400 = technischer Grant-/Request-Fehler (invalid_grant, invalid_request invalid_dpop_proof/use_dpop_nonce [RFC9449], invalid_target),</text><text fill="#000000" font-family="Helvetica" font-size="10" x="119.5454" y="1236.1885">401 = Client-Authentifizierung fehlgeschlagen (invalid_client) bzw. Step-up (insufficient_user_authentication [RFC9470]),</text><text fill="#000000" font-family="Helvetica" font-size="10" x="119.5454" y="1247.8291">403 = Policy-Ablehnung bei g&#252;ltigen Credentials (access_denied).</text><text fill="#000000" font-family="Helvetica" font-size="10" x="119.5454" y="1259.4697">Response-Body gem&#228;&#223; [zeta-error.yaml].</text><?plantuml-src hLPHSzf647xNhzYg3qLZ94ZY9WsJPWO3TgbDK159feqzp24juchvH4ydREpnR-bBVqRU_CUwTn88OkBqeI-Wqztjz-tkjxlwZeimoIC4psiiygl4JTWgpPMdRfHbMJ-0uYf16AUNAA1t4ywPY16kkPf3ModC55Cy5PQrO5Bna2-OK72Q2e6NAfN0Ch2hLIhFnRZldZ25rsnbmrclF-aC1_xmNU_Tc9xEXgCTEy7Wo5W81hMEunxjlp1DRy3kufA7Q4Etzw7VwPKx06RFb_pguH-PhJA5LpRue_wWtHi5lmVZtc1p4c0Rk9Dmf3-D_KTlt2xNDhnvSukAlNrB5r14shor_YzujCMKeq89upuyzvhGfNkPqg333_rkRxJBpDW-oPcCRD3FavFtxL7tAvpQkPe7XfBVzS-5NgQItvhmGu1oYNA7uExjeT-kxlffmiCLz4JC1JxjLU7vmK7v0ExRCXWjE461agD4oFBfdnYgYT8YiQnOfla20XuJhsAdb8zHJPbCmx0oMec4iFHMzSBTOD8Zj42JinxneOsEH58MTFtKXrDSWS-uX9elJptzoYD2TV3pQkLO8gNpaiTpSYV0BADGkbEMOLJTdn43Ot7AHSH5x7qJsfTfEeEQSVPTAaA4cKolYlmvMvVDYuE35lZ3O0mD4po85kcYPNud2stdNDo5viQ4PHbAa-pQhn_7v0dvLHZJla16uQPaAAU-cmwe1OEEUxJPhmCNbubNC7FkBQlGrPfF2pwmX4VQcH7-bLDzGwsat5uJg6_vMJyNEpck5uRhG7BainLSKXpBo6LGArtHBqrukftHEeOKSB9b7A-sDp3aLR10ANMxoSdGi1Fu3aHKQAMS78ibHC4VR7Sbg7qawFGwWmQSSP7VE4PQZppMLFcjaV8lL8pNJAAhvKjO9A3VSbA90p7654syKPBDTI2ny9IggJDoHxYWjWbBpg2trEwSfR65IOPmnS9Xi4igm30dg1xrNRR4_Pny-V1vXh1cGSWvbMIOva9tbrg1vmRXF5UtZga8xN-PEusIvM58YfxboNxxsoq0-cAHAq0ABoO9bV3E3MeTbKgNpne4m1gCTc_XRe-PUtDRznjt3UUw6y0kXZmp0qEVqfo_sA1tINfjTlVnBWkjw2Urjl5nhRmHpYHcysBfR4nea7LQTn81DQsN1WIzwl0JcAPRRzylIUZcEM7L-wBkzfhSwfxFcqqOdiBT4oxKOR_f-urfex0WdQb7ljMEAOvJ5bx-3posy4Xd6zml4nUXM5bV0z8IE6o-WEDKJdb4H-7EfdfEfTq2cndi2Rtb6Dbri2dWMIeosllaUTv5GK236-0jbSzmdg2SivdQwAd4qmJelopiNCJcR8nPE4-OhkH7RSsnlXwbm-OpU2zOENDfFconvsAf2KsAvcRVLn7I_SijnW4HUFYSA1u_2TA48nPj6kyUZ6emREEK7TWrsMgK7R62X5GtId9TTr1LTkZ6YTJV1T_cLMJkcynYRSxUofGUqcQ-fZGA2glrqYGTEZQ92ubPHipe--pXR_WqEkwyV7Nu-kBxZBpHi_X7xpaLwUwdfpxrqylNBowS5jdHp7u6XU5SS4ej8Hc_t4P9rIs0eBR3Km_1OYbBZnu7k95dM2o56U8Qz_KXiQikAoPZf8bhU3mZ7lzPUxkQSM1wU-r1e73XqfSJxMRvR4QVRdfO4WqvOQN5i91zmULLywB4Va7OHJcwxMc2Sw4nfyYXJ2v1KXEBj0MMqFZSAJZ78niZKWTL7Bf7QRIgCg8Ra6joxQtOLNBXcIz3dLRhNm00?></g></svg>