<svg xmlns="http://www.w3.org/2000/svg" xmlns:xlink="http://www.w3.org/1999/xlink" contentStyleType="text/css" data-diagram-type="SEQUENCE" height="1004px" preserveAspectRatio="none" style="width:1127px;height:1004px;background:#FFFFFF;" version="1.1" viewBox="0 0 1127 1004" width="1127px" zoomAndPan="magnify"><?plantuml 1.2026.6?><defs/><g><rect fill="#FEFCFF" height="978.1875" style="stroke:#181818;stroke-width:0.5;" width="87.1543" x="28.8091" y="11"/><text fill="#000000" font-family="Helvetica" font-size="10" font-weight="700" x="40.8091" y="20.2822">Mobile App</text><rect fill="#EDFDEC" height="978.1875" style="stroke:#181818;stroke-width:0.5;" width="147.7842" x="318.0664" y="11"/><text fill="#000000" font-family="Helvetica" font-size="10" font-weight="700" x="330.0664" y="20.2822">Anbieter TI 2.0 Dienst</text><rect fill="#FFF3E5" height="961.5469" style="stroke:#181818;stroke-width:0.5;" width="147.7842" x="318.0664" y="27.6406"/><text fill="#000000" font-family="Helvetica" font-size="10" font-weight="700" x="358.814" y="36.9229">ZETA Guard</text><rect fill="#EAF2FF" height="978.1875" style="stroke:#181818;stroke-width:0.5;" width="386.5356" x="723.7412" y="11"/><text fill="#000000" font-family="Helvetica" font-size="10" font-weight="700" x="878.9036" y="20.2822">TI-F&#246;deration</text><g><title>ZETA Client</title><rect fill="#000000" fill-opacity="0.00000" height="840.0625" width="8" x="68.8862" y="93.2031"/><line style="stroke:#000000;stroke-width:0.5;stroke-dasharray:5,5;" x1="72.3862" x2="72.3862" y1="93.2031" y2="933.2656"/></g><g><title/><rect fill="#FFFFFF" height="832.0625" style="stroke:#181818;stroke-width:1;" width="10" x="67.3862" y="101.2031"/></g><g><title>PDP</title><rect fill="#000000" fill-opacity="0.00000" height="840.0625" width="8" x="388.4585" y="93.2031"/><line style="stroke:#000000;stroke-width:0.5;stroke-dasharray:5,5;" x1="391.9585" x2="391.9585" y1="93.2031" y2="933.2656"/></g><g><title/><rect fill="#FFFFFF" height="636.2969" style="stroke:#181818;stroke-width:1;" width="10" x="386.9585" y="247.3281"/></g><g><title/><rect fill="#FFFFFF" height="25.6406" style="stroke:#181818;stroke-width:1;" width="10" x="391.9585" y="617.5781"/></g><g><title>Sektoraler IDP</title><rect fill="#000000" fill-opacity="0.00000" height="840.0625" width="8" x="770.7261" y="93.2031"/><line style="stroke:#000000;stroke-width:0.5;stroke-dasharray:5,5;" x1="774.2261" x2="774.2261" y1="93.2031" y2="933.2656"/></g><g><title/><rect fill="#FFFFFF" height="25.6406" style="stroke:#181818;stroke-width:1;" width="10" x="769.2261" y="362.5313"/></g><g><title/><rect fill="#FFFFFF" height="270.4063" style="stroke:#181818;stroke-width:1;" width="10" x="769.2261" y="564.2969"/></g><g><title>Federation</title><rect fill="#000000" fill-opacity="0.00000" height="840.0625" width="8" x="1068.8774" y="93.2031"/><line style="stroke:#000000;stroke-width:0.5;stroke-dasharray:5,5;" x1="1072.3774" x2="1072.3774" y1="93.2031" y2="933.2656"/></g><g><title/><rect fill="#FFFFFF" height="25.6406" style="stroke:#181818;stroke-width:1;" width="10" x="1067.3774" y="413.8125"/></g><g><title/><rect fill="#FFFFFF" height="25.6406" style="stroke:#181818;stroke-width:1;" width="10" x="1067.3774" y="668.8594"/></g><rect fill="#FFE6CC" height="25.6406" rx="2.5" ry="2.5" style="stroke:#D79B00;stroke-width:0.5;" width="72.2471" x="36.2627" y="66.5625"/><text fill="#000000" font-family="Helvetica" font-size="10" x="43.2627" y="82.8447">ZETA Client</text><rect fill="#FFE6CC" height="48.9219" rx="2.5" ry="2.5" style="stroke:#D79B00;stroke-width:0.5;" width="117.0322" x="333.4424" y="43.2813"/><text fill="#000000" font-family="Helvetica" font-size="10" x="382.0781" y="59.5635">PDP</text><text fill="#000000" font-family="Helvetica" font-size="10" x="340.4839" y="71.2041">Authorization Server</text><text fill="#000000" font-family="Helvetica" font-size="10" x="340.4424" y="82.8447">(OIDC Relying Party)</text><rect fill="#E2E2F0" height="37.2813" rx="2.5" ry="2.5" style="stroke:#181818;stroke-width:0.5;" width="92.9697" x="727.7412" y="54.9219"/><text fill="#000000" font-family="Helvetica" font-size="10" x="738.4912" y="71.2041">Sektoraler IDP</text><text fill="#000000" font-family="Helvetica" font-size="10" x="734.7412" y="82.8447">(PAR-Endpunkt)</text><rect fill="#E2E2F0" height="37.2813" rx="2.5" ry="2.5" style="stroke:#181818;stroke-width:0.5;" width="67.7988" x="1038.478" y="54.9219"/><text fill="#000000" font-family="Helvetica" font-size="10" x="1045.478" y="71.2041">Federation</text><text fill="#000000" font-family="Helvetica" font-size="10" x="1055.3022" y="82.8447">Master</text><rect fill="#FFE6CC" height="25.6406" rx="2.5" ry="2.5" style="stroke:#D79B00;stroke-width:0.5;" width="72.2471" x="36.2627" y="933.2656"/><text fill="#000000" font-family="Helvetica" font-size="10" x="43.2627" y="949.5479">ZETA Client</text><rect fill="#FFE6CC" height="48.9219" rx="2.5" ry="2.5" style="stroke:#D79B00;stroke-width:0.5;" width="117.0322" x="333.4424" y="933.2656"/><text fill="#000000" font-family="Helvetica" font-size="10" x="382.0781" y="949.5479">PDP</text><text fill="#000000" font-family="Helvetica" font-size="10" x="340.4839" y="961.1885">Authorization Server</text><text fill="#000000" font-family="Helvetica" font-size="10" x="340.4424" y="972.8291">(OIDC Relying Party)</text><rect fill="#E2E2F0" height="37.2813" rx="2.5" ry="2.5" style="stroke:#181818;stroke-width:0.5;" width="92.9697" x="727.7412" y="933.2656"/><text fill="#000000" font-family="Helvetica" font-size="10" x="738.4912" y="949.5479">Sektoraler IDP</text><text fill="#000000" font-family="Helvetica" font-size="10" x="734.7412" y="961.1885">(PAR-Endpunkt)</text><rect fill="#E2E2F0" height="37.2813" rx="2.5" ry="2.5" style="stroke:#181818;stroke-width:0.5;" width="67.7988" x="1038.478" y="933.2656"/><text fill="#000000" font-family="Helvetica" font-size="10" x="1045.478" y="949.5479">Federation</text><text fill="#000000" font-family="Helvetica" font-size="10" x="1055.3022" y="961.1885">Master</text><path d="M15,106.2031 L15,127.2031 L449,127.2031 L449,116.2031 L439,106.2031 L15,106.2031" fill="#FEFFDD" style="stroke:#181818;stroke-width:0.5;"/><path d="M439,106.2031 L439,116.2031 L449,116.2031 L439,106.2031" fill="#FEFFDD" style="stroke:#181818;stroke-width:0.5;"/><text fill="#000000" font-family="Helvetica" font-size="10" x="21" y="120.4854">Der ZETA Client hat vom Fach-Client den fachlichen Request inkl. idp_iss erhalten.</text><line style="stroke:#181818;stroke-width:1;" x1="77.3862" x2="119.3862" y1="173.7656" y2="173.7656"/><line style="stroke:#181818;stroke-width:1;" x1="119.3862" x2="119.3862" y1="173.7656" y2="186.7656"/><line style="stroke:#181818;stroke-width:1;" x1="78.3862" x2="119.3862" y1="186.7656" y2="186.7656"/><polygon fill="#181818" points="88.3862,182.7656,78.3862,186.7656,88.3862,190.7656,84.3862,186.7656" style="stroke:#181818;stroke-width:1;stroke-linejoin:miter;stroke-miterlimit:10;"/><text fill="#000000" font-family="Helvetica" font-size="10" x="84.3862" y="157.7666">(01)</text><text fill="#000000" font-family="Helvetica" font-size="10" x="108.9136" y="146.126">Erzeuge PKCE (code_verifier_app),</text><text fill="#000000" font-family="Helvetica" font-size="10" x="108.9136" y="157.7666">code_challenge_app = S256(code_verifier_app),</text><text fill="#000000" font-family="Helvetica" font-size="10" x="108.9136" y="169.4072">state_app</text><polygon fill="#181818" points="374.9585,243.3281,384.9585,247.3281,374.9585,251.3281,378.9585,247.3281" style="stroke:#181818;stroke-width:1;stroke-linejoin:miter;stroke-miterlimit:10;"/><line style="stroke:#181818;stroke-width:1;" x1="77.3862" x2="380.9585" y1="247.3281" y2="247.3281"/><text fill="#000000" font-family="Helvetica" font-size="10" x="84.3862" y="225.5088">(02)</text><text fill="#000000" font-family="Helvetica" font-size="10" x="108.9136" y="208.0479">Authorization Request</text><text fill="#000000" font-family="Helvetica" font-size="10" x="108.9136" y="219.6885">{response_type=code, client_id, redirect_uri,</text><text fill="#000000" font-family="Helvetica" font-size="10" x="108.9136" y="231.3291">code_challenge_app, code_challenge_method=S256,</text><text fill="#000000" font-family="Helvetica" font-size="10" x="108.9136" y="242.9697">scope, state_app, idp_iss}</text><line style="stroke:#181818;stroke-width:1;" x1="396.9585" x2="438.9585" y1="296.25" y2="296.25"/><line style="stroke:#181818;stroke-width:1;" x1="438.9585" x2="438.9585" y1="296.25" y2="309.25"/><line style="stroke:#181818;stroke-width:1;" x1="397.9585" x2="438.9585" y1="309.25" y2="309.25"/><polygon fill="#181818" points="407.9585,305.25,397.9585,309.25,407.9585,313.25,403.9585,309.25" style="stroke:#181818;stroke-width:1;stroke-linejoin:miter;stroke-miterlimit:10;"/><text fill="#000000" font-family="Helvetica" font-size="10" x="403.9585" y="280.251">(03)</text><text fill="#000000" font-family="Helvetica" font-size="10" x="428.4858" y="268.6104">Erzeuge PKCE (code_verifier_as),</text><text fill="#000000" font-family="Helvetica" font-size="10" x="428.4858" y="280.251">code_challenge_as = S256(code_verifier_as),</text><text fill="#000000" font-family="Helvetica" font-size="10" x="428.4858" y="291.8916">state_as, nonce</text><path d="M375.9585,321.25 L439.7671,321.25 L439.7671,324.8906 L429.7671,334.8906 L375.9585,334.8906 L375.9585,321.25" fill="#EEEEEE" style="stroke:#000000;stroke-width:1.5;"/><rect fill="none" height="176.4844" style="stroke:#000000;stroke-width:1.5;" width="717.4189" x="375.9585" y="321.25"/><text fill="#000000" font-family="Helvetica" font-size="10" font-weight="700" x="390.9585" y="331.5322">opt</text><text fill="#000000" font-family="Helvetica" font-size="10" font-weight="700" x="454.7671" y="332.5322">[Entity Statement des IDP unbekannt]</text><polygon fill="#181818" points="757.2261,358.5313,767.2261,362.5313,757.2261,366.5313,761.2261,362.5313" style="stroke:#181818;stroke-width:1;stroke-linejoin:miter;stroke-miterlimit:10;"/><line style="stroke:#181818;stroke-width:1;" x1="396.9585" x2="763.2261" y1="362.5313" y2="362.5313"/><text fill="#000000" font-family="Helvetica" font-size="10" x="403.9585" y="358.1729">(04)</text><text fill="#000000" font-family="Helvetica" font-size="10" x="428.4858" y="358.1729">GET /.well-known/openid-federation</text><polygon fill="#181818" points="407.9585,384.1719,397.9585,388.1719,407.9585,392.1719,403.9585,388.1719" style="stroke:#181818;stroke-width:1;stroke-linejoin:miter;stroke-miterlimit:10;"/><line style="stroke:#181818;stroke-width:1;stroke-dasharray:2,2;" x1="401.9585" x2="768.2261" y1="388.1719" y2="388.1719"/><text fill="#000000" font-family="Helvetica" font-size="10" x="413.9585" y="383.8135">(05)</text><text fill="#000000" font-family="Helvetica" font-size="10" x="438.4858" y="383.8135">Entity Statement (signiert)</text><polygon fill="#181818" points="1055.3774,409.8125,1065.3774,413.8125,1055.3774,417.8125,1059.3774,413.8125" style="stroke:#181818;stroke-width:1;stroke-linejoin:miter;stroke-miterlimit:10;"/><line style="stroke:#181818;stroke-width:1;" x1="396.9585" x2="1061.3774" y1="413.8125" y2="413.8125"/><text fill="#000000" font-family="Helvetica" font-size="10" x="403.9585" y="409.4541">(06)</text><text fill="#000000" font-family="Helvetica" font-size="10" x="428.4858" y="409.4541">GET federation_fetch_endpoint?sub=&lt;idp_iss&gt;</text><polygon fill="#181818" points="407.9585,435.4531,397.9585,439.4531,407.9585,443.4531,403.9585,439.4531" style="stroke:#181818;stroke-width:1;stroke-linejoin:miter;stroke-miterlimit:10;"/><line style="stroke:#181818;stroke-width:1;stroke-dasharray:2,2;" x1="401.9585" x2="1066.3774" y1="439.4531" y2="439.4531"/><text fill="#000000" font-family="Helvetica" font-size="10" x="413.9585" y="435.0947">(07)</text><text fill="#000000" font-family="Helvetica" font-size="10" x="438.4858" y="435.0947">Entity Statement des IDP (signiert, Federation Master)</text><line style="stroke:#181818;stroke-width:1;" x1="396.9585" x2="438.9585" y1="476.7344" y2="476.7344"/><line style="stroke:#181818;stroke-width:1;" x1="438.9585" x2="438.9585" y1="476.7344" y2="489.7344"/><line style="stroke:#181818;stroke-width:1;" x1="397.9585" x2="438.9585" y1="489.7344" y2="489.7344"/><polygon fill="#181818" points="407.9585,485.7344,397.9585,489.7344,407.9585,493.7344,403.9585,489.7344" style="stroke:#181818;stroke-width:1;stroke-linejoin:miter;stroke-miterlimit:10;"/><text fill="#000000" font-family="Helvetica" font-size="10" x="403.9585" y="466.5557">(08)</text><text fill="#000000" font-family="Helvetica" font-size="10" x="428.4858" y="460.7354">Validiere Trust Chain, importiere Signaturschl&#252;ssel</text><text fill="#000000" font-family="Helvetica" font-size="10" x="428.4858" y="472.376">und OP-Metadaten (PAR-, Authorization-, Token-Endpunkt) des IDP</text><polygon fill="#181818" points="757.2261,560.2969,767.2261,564.2969,757.2261,568.2969,761.2261,564.2969" style="stroke:#181818;stroke-width:1;stroke-linejoin:miter;stroke-miterlimit:10;"/><line style="stroke:#181818;stroke-width:1;" x1="396.9585" x2="763.2261" y1="564.2969" y2="564.2969"/><text fill="#000000" font-family="Helvetica" font-size="10" x="403.9585" y="542.4775">(09)</text><text fill="#000000" font-family="Helvetica" font-size="10" x="428.4858" y="525.0166">POST /PAR (mTLS, self_signed_tls_client_auth)</text><text fill="#000000" font-family="Helvetica" font-size="10" x="428.4858" y="536.6572">{client_id, redirect_uri, response_type=code,</text><text fill="#000000" font-family="Helvetica" font-size="10" x="428.4858" y="548.2979">code_challenge_as, code_challenge_method=S256,</text><text fill="#000000" font-family="Helvetica" font-size="10" x="428.4858" y="559.9385">scope, claims, acr_values, nonce, state_as}</text><path d="M370.9585,576.2969 L434.7671,576.2969 L434.7671,579.9375 L424.7671,589.9375 L370.9585,589.9375 L370.9585,576.2969" fill="#EEEEEE" style="stroke:#000000;stroke-width:1.5;"/><rect fill="none" height="176.4844" style="stroke:#000000;stroke-width:1.5;" width="722.4189" x="370.9585" y="576.2969"/><text fill="#000000" font-family="Helvetica" font-size="10" font-weight="700" x="385.9585" y="586.5791">opt</text><text fill="#000000" font-family="Helvetica" font-size="10" font-weight="700" x="449.7671" y="587.5791">[Entity Statement des Fachdienstes unbekannt]</text><polygon fill="#181818" points="412.9585,613.5781,402.9585,617.5781,412.9585,621.5781,408.9585,617.5781" style="stroke:#181818;stroke-width:1;stroke-linejoin:miter;stroke-miterlimit:10;"/><line style="stroke:#181818;stroke-width:1;" x1="406.9585" x2="768.2261" y1="617.5781" y2="617.5781"/><text fill="#000000" font-family="Helvetica" font-size="10" x="418.9585" y="613.2197">(10)</text><text fill="#000000" font-family="Helvetica" font-size="10" x="443.4858" y="613.2197">GET /.well-known/openid-federation</text><polygon fill="#181818" points="757.2261,639.2188,767.2261,643.2188,757.2261,647.2188,761.2261,643.2188" style="stroke:#181818;stroke-width:1;stroke-linejoin:miter;stroke-miterlimit:10;"/><line style="stroke:#181818;stroke-width:1;stroke-dasharray:2,2;" x1="401.9585" x2="763.2261" y1="643.2188" y2="643.2188"/><text fill="#000000" font-family="Helvetica" font-size="10" x="408.9585" y="638.8604">(11)</text><text fill="#000000" font-family="Helvetica" font-size="10" x="433.4858" y="638.8604">Entity Statement des Fachdienstes (signiert)</text><polygon fill="#181818" points="1055.3774,664.8594,1065.3774,668.8594,1055.3774,672.8594,1059.3774,668.8594" style="stroke:#181818;stroke-width:1;stroke-linejoin:miter;stroke-miterlimit:10;"/><line style="stroke:#181818;stroke-width:1;" x1="779.2261" x2="1061.3774" y1="668.8594" y2="668.8594"/><text fill="#000000" font-family="Helvetica" font-size="10" x="786.2261" y="664.501">(12)</text><text fill="#000000" font-family="Helvetica" font-size="10" x="810.7534" y="664.501">GET federation_fetch_endpoint?sub=&lt;client_id&gt;</text><polygon fill="#181818" points="790.2261,690.5,780.2261,694.5,790.2261,698.5,786.2261,694.5" style="stroke:#181818;stroke-width:1;stroke-linejoin:miter;stroke-miterlimit:10;"/><line style="stroke:#181818;stroke-width:1;stroke-dasharray:2,2;" x1="784.2261" x2="1066.3774" y1="694.5" y2="694.5"/><text fill="#000000" font-family="Helvetica" font-size="10" x="796.2261" y="690.1416">(13)</text><text fill="#000000" font-family="Helvetica" font-size="10" x="820.7534" y="690.1416">Entity Statement des Fachdienstes (signiert)</text><line style="stroke:#181818;stroke-width:1;" x1="779.2261" x2="821.2261" y1="731.7813" y2="731.7813"/><line style="stroke:#181818;stroke-width:1;" x1="821.2261" x2="821.2261" y1="731.7813" y2="744.7813"/><line style="stroke:#181818;stroke-width:1;" x1="780.2261" x2="821.2261" y1="744.7813" y2="744.7813"/><polygon fill="#181818" points="790.2261,740.7813,780.2261,744.7813,790.2261,748.7813,786.2261,744.7813" style="stroke:#181818;stroke-width:1;stroke-linejoin:miter;stroke-miterlimit:10;"/><text fill="#000000" font-family="Helvetica" font-size="10" x="786.2261" y="721.6025">(14)</text><text fill="#000000" font-family="Helvetica" font-size="10" x="810.7534" y="715.7822">Validiere Trust Chain, Automatic Registration,</text><text fill="#000000" font-family="Helvetica" font-size="10" x="810.7534" y="727.4229">importiere Schl&#252;ssel (sig/enc) des Fachdienstes</text><line style="stroke:#181818;stroke-width:1;" x1="779.2261" x2="821.2261" y1="796.0625" y2="796.0625"/><line style="stroke:#181818;stroke-width:1;" x1="821.2261" x2="821.2261" y1="796.0625" y2="809.0625"/><line style="stroke:#181818;stroke-width:1;" x1="780.2261" x2="821.2261" y1="809.0625" y2="809.0625"/><polygon fill="#181818" points="790.2261,805.0625,780.2261,809.0625,790.2261,813.0625,786.2261,809.0625" style="stroke:#181818;stroke-width:1;stroke-linejoin:miter;stroke-miterlimit:10;"/><text fill="#000000" font-family="Helvetica" font-size="10" x="786.2261" y="785.8838">(15)</text><text fill="#000000" font-family="Helvetica" font-size="10" x="810.7534" y="780.0635">Validiere PAR (redirect_uri, scope, claims,</text><text fill="#000000" font-family="Helvetica" font-size="10" x="810.7534" y="791.7041">TLS-Clientzertifikat), erzeuge request_uri</text><polygon fill="#181818" points="407.9585,830.7031,397.9585,834.7031,407.9585,838.7031,403.9585,834.7031" style="stroke:#181818;stroke-width:1;stroke-linejoin:miter;stroke-miterlimit:10;"/><line style="stroke:#181818;stroke-width:1;stroke-dasharray:2,2;" x1="401.9585" x2="768.2261" y1="834.7031" y2="834.7031"/><text fill="#000000" font-family="Helvetica" font-size="10" x="413.9585" y="830.3447">(16)</text><text fill="#000000" font-family="Helvetica" font-size="10" x="438.4858" y="830.3447">201 Created {request_uri, expires_in (max. 90s)}</text><polygon fill="#181818" points="88.3862,879.625,78.3862,883.625,88.3862,887.625,84.3862,883.625" style="stroke:#181818;stroke-width:1;stroke-linejoin:miter;stroke-miterlimit:10;"/><line style="stroke:#181818;stroke-width:1;stroke-dasharray:2,2;" x1="82.3862" x2="385.9585" y1="883.625" y2="883.625"/><text fill="#000000" font-family="Helvetica" font-size="10" x="94.3862" y="867.626">(17)</text><text fill="#000000" font-family="Helvetica" font-size="10" x="118.9136" y="855.9854">302 Found Location:</text><text fill="#000000" font-family="Helvetica" font-size="10" x="118.9136" y="867.626">&lt;SekIDP Entity Statement authorization_endpoint&gt;</text><text fill="#000000" font-family="Helvetica" font-size="10" x="118.9136" y="879.2666">?client_id&amp;request_uri</text><path d="M36.082,896.625 L36.082,917.625 L810.082,917.625 L810.082,906.625 L800.082,896.625 L36.082,896.625" fill="#FEFFDD" style="stroke:#181818;stroke-width:0.5;"/><path d="M800.082,896.625 L800.082,906.625 L810.082,906.625 L800.082,896.625" fill="#FEFFDD" style="stroke:#181818;stroke-width:0.5;"/><text fill="#000000" font-family="Helvetica" font-size="10" x="247.0239" y="910.9072">Weiter mit Teildiagramm (B) Abb-ZETA-OIDC-Nutzerauthentisierung.</text><?plantuml-src fLPTR-f647tthvXIgSKA9YbLApLAkA9yHAX9GK1JgKAo5dk05VRQTtUT6tBLlzMdljq_rjcrCNO2RQG-MLxlp3bxvinul-8YYB8GeTs-JBCuyYAsJpBTri_QSPnlOO4y2ZdRI1R7qEovrz3Bz3QH_8LfdWYOuSSCbOOG5VmnNFIW7t4K6cAkOPgfBOPd0fhJtimj0E29FlHMAyzay2RZGTypGPI7h_aBHvc9ZHSdAnwXz780vJYhv1aQ3tOLUcdQWC7mSTmV-lt9_MJc0AHCQXxmb16TWXLJqAYmRC3DpGjgrkqwA4AWX4NMdbXnr2XXCOPE-me6j5lHzkbiyZWU36SbXjrjCzvbJ8ODgu5_zrjlDYZtr9cOWyqjaUbWkXHrSUOedr0kHTDeG595UousCANmlLiX2t2WMwUz67kZBt-5A6ss1dmzx8qwez4hBSQ3gSMVuqudaf6cPeb0gIBUK8Hf9dRQRRoA6ZtOe14UqY_50rEaKUD88bVrui8HYKP8w2Y5qAtysDSmeAMgJRPCK_5Z6B5WMrIMh2HWJUyH3yW2fM6us4Lju67gSwK0vPP56aNxW0fUjqXw3KFvWja6OVfBVmZD80dH9oxa9PG-IrEtjHHsCQ0S4OeDcbMuXNddXnzFRrUQQRkh2cVFT75nfYMMuhD4bIP2eQ_tATwQn2q8RBZFmnP83Bd4GFkPv2SfqUxwMem45DuQdePKaAIKiUJMEgZpf-FaDZkG_0z9r2b5r1b1L4KFrGAHY00T9qar3AbVzHxcvbkSLr9PjsLYXJicXBRTK5AZJqQzk-42BjkVC8gydKW-YKiwbU2XjowjPiDC8kzm8C-xVWlNL7mZYADswpYZXmFCCQM_HXriVR9kcd2XFwXiTNjJoDUruMJuVuSxdAw4RS6nEo1lZbTCYc8yieY7586ma1bPkxzbN53ruZIXXZFhSqh9T2OLjS6NlvN2Q2aoQhF9r7kW6H0I1s57gDUgku_U5yaEnR6H3pnDcrPyKOW_dSn9VKe4pNXnFoStORJspOamz7Ma_CAlZE9SilGv-y89hv_mrFiS7KICnxIN1T9_OX5rK-6pqkp6ucSjPuP9Q2SslTIzPqrKwTntUgzGBPVjh1bgkA_CM02_sugbpZKp_azqUfmr7nqnYObFGFDhmvNEkL5DgguitMW1Bb44xXlit6Ud4QtFwhwfbtmfo8J5Z-25wDFCsJ7jjcZUv_DBviFLn3fl9aBdwZleIoHLGlXSsKdXpobXAfzJryJikGq_NIdtE2RBVuV9ylrL1qQ9wRRx9B0gN2_53Vqj3TuRwLcr-yeYTfVYGrd2RwgaJ_mRhKY_8pSN3dDlgj-vVdPVNOr-pOmqhBWWgVnwr7R-0G00?></g></svg>