<svg xmlns="http://www.w3.org/2000/svg" xmlns:xlink="http://www.w3.org/1999/xlink" contentStyleType="text/css" data-diagram-type="SEQUENCE" height="683px" preserveAspectRatio="none" style="width:906px;height:683px;background:#FFFFFF;" version="1.1" viewBox="0 0 906 683" width="906px" zoomAndPan="magnify"><?plantuml 1.2026.3?><defs/><g><rect fill="#F8F8FF" height="657.0156" style="stroke:#181818;stroke-width:0.5;" width="227.3682" x="136.9214" y="11"/><text fill="#000000" font-family="Helvetica" font-size="10" font-weight="700" x="242.1436" y="20.2822">LEI</text><rect fill="#E6E6FA" height="640.375" style="stroke:#181818;stroke-width:0.5;" width="227.3682" x="136.9214" y="27.6406"/><text fill="#000000" font-family="Helvetica" font-size="10" font-weight="700" x="211.5088" y="36.9229">Prim&#228;rsystem</text><rect fill="#EDFDEC" height="657.0156" style="stroke:#181818;stroke-width:0.5;" width="302.7358" x="539.4824" y="11"/><text fill="#000000" font-family="Helvetica" font-size="10" font-weight="700" x="666.49" y="20.2822">Anbieter</text><rect fill="#FFF3E5" height="640.375" style="stroke:#181818;stroke-width:0.5;" width="90.2891" x="539.4824" y="27.6406"/><text fill="#000000" font-family="Helvetica" font-size="10" font-weight="700" x="551.4824" y="36.9229">ZETA Guard</text><g><title>User</title><rect fill="#000000" fill-opacity="0.00000" height="475.4531" width="8" x="20.8965" y="114.9219"/><line style="stroke:#000000;stroke-width:0.5;stroke-dasharray:5,5;" x1="24.3965" x2="24.3965" y1="114.9219" y2="590.375"/></g><g><title>Fach-Client</title><rect fill="#000000" fill-opacity="0.00000" height="475.4531" width="8" x="172.5586" y="114.9219"/><line style="stroke:#000000;stroke-width:0.5;stroke-dasharray:5,5;" x1="176.0586" x2="176.0586" y1="114.9219" y2="590.375"/></g><g><title/><rect fill="#FFFFFF" height="408.5313" style="stroke:#181818;stroke-width:1;" width="10" x="171.0586" y="163.8438"/></g><g><title>ZETA Client</title><rect fill="#000000" fill-opacity="0.00000" height="475.4531" width="8" x="320.666" y="114.9219"/><line style="stroke:#000000;stroke-width:0.5;stroke-dasharray:5,5;" x1="324.166" x2="324.166" y1="114.9219" y2="590.375"/></g><g><title/><rect fill="#FFFFFF" height="357.25" style="stroke:#181818;stroke-width:1;" width="10" x="319.166" y="189.4844"/></g><g><title>PEP</title><rect fill="#000000" fill-opacity="0.00000" height="475.4531" width="8" x="581.127" y="114.9219"/><line style="stroke:#000000;stroke-width:0.5;stroke-dasharray:5,5;" x1="584.627" x2="584.627" y1="114.9219" y2="590.375"/></g><g><title/><rect fill="#FFFFFF" height="200.7656" style="stroke:#181818;stroke-width:1;" width="10" x="579.627" y="320.3281"/></g><g><title>Resource</title><rect fill="#000000" fill-opacity="0.00000" height="475.4531" width="8" x="804.4541" y="114.9219"/><line style="stroke:#000000;stroke-width:0.5;stroke-dasharray:5,5;" x1="807.9541" x2="807.9541" y1="114.9219" y2="590.375"/></g><g><title/><rect fill="#FFFFFF" height="87.5625" style="stroke:#181818;stroke-width:1;" width="10" x="802.9541" y="407.8906"/></g><text fill="#000000" font-family="Helvetica" font-size="10" x="10" y="112.5635">User</text><ellipse cx="24.3965" cy="51.7813" fill="#E2E2F0" rx="8" ry="8" style="stroke:#181818;stroke-width:0.5;"/><path d="M24.3965,59.7813 L24.3965,86.7813 M11.3965,67.7813 L37.3965,67.7813 M24.3965,86.7813 L11.3965,101.7813 M24.3965,86.7813 L37.3965,101.7813" fill="none" style="stroke:#181818;stroke-width:0.5;"/><rect fill="#D5E8D4" height="25.6406" rx="2.5" ry="2.5" style="stroke:#82B366;stroke-width:0.5;" width="70.2744" x="140.9214" y="88.2813"/><text fill="#000000" font-family="Helvetica" font-size="10" x="147.9214" y="104.5635">Fach-Client</text><rect fill="#FFE6CC" height="25.6406" rx="2.5" ry="2.5" style="stroke:#D79B00;stroke-width:0.5;" width="72.2471" x="288.0425" y="88.2813"/><text fill="#000000" font-family="Helvetica" font-size="10" x="295.0425" y="104.5635">ZETA Client</text><rect fill="#FFE6CC" height="37.2813" rx="2.5" ry="2.5" style="stroke:#D79B00;stroke-width:0.5;" width="71.041" x="549.1064" y="76.6406"/><text fill="#000000" font-family="Helvetica" font-size="10" x="575.4375" y="92.9229">PEP</text><text fill="#000000" font-family="Helvetica" font-size="10" x="556.1064" y="104.5635">HTTP Proxy</text><rect fill="#D5E8D4" height="37.2813" rx="2.5" ry="2.5" style="stroke:#82B366;stroke-width:0.5;" width="60.5283" x="777.6899" y="76.6406"/><text fill="#000000" font-family="Helvetica" font-size="10" x="784.6899" y="92.9229">Resource</text><text fill="#000000" font-family="Helvetica" font-size="10" x="791.5576" y="104.5635">Server</text><text fill="#000000" font-family="Helvetica" font-size="10" x="10" y="659.6572">User</text><ellipse cx="24.3965" cy="598.875" fill="#E2E2F0" rx="8" ry="8" style="stroke:#181818;stroke-width:0.5;"/><path d="M24.3965,606.875 L24.3965,633.875 M11.3965,614.875 L37.3965,614.875 M24.3965,633.875 L11.3965,648.875 M24.3965,633.875 L37.3965,648.875" fill="none" style="stroke:#181818;stroke-width:0.5;"/><rect fill="#D5E8D4" height="25.6406" rx="2.5" ry="2.5" style="stroke:#82B366;stroke-width:0.5;" width="70.2744" x="140.9214" y="590.375"/><text fill="#000000" font-family="Helvetica" font-size="10" x="147.9214" y="606.6572">Fach-Client</text><rect fill="#FFE6CC" height="25.6406" rx="2.5" ry="2.5" style="stroke:#D79B00;stroke-width:0.5;" width="72.2471" x="288.0425" y="590.375"/><text fill="#000000" font-family="Helvetica" font-size="10" x="295.0425" y="606.6572">ZETA Client</text><rect fill="#FFE6CC" height="37.2813" rx="2.5" ry="2.5" style="stroke:#D79B00;stroke-width:0.5;" width="71.041" x="549.1064" y="590.375"/><text fill="#000000" font-family="Helvetica" font-size="10" x="575.4375" y="606.6572">PEP</text><text fill="#000000" font-family="Helvetica" font-size="10" x="556.1064" y="618.2979">HTTP Proxy</text><rect fill="#D5E8D4" height="37.2813" rx="2.5" ry="2.5" style="stroke:#82B366;stroke-width:0.5;" width="60.5283" x="777.6899" y="590.375"/><text fill="#000000" font-family="Helvetica" font-size="10" x="784.6899" y="606.6572">Resource</text><text fill="#000000" font-family="Helvetica" font-size="10" x="791.5576" y="618.2979">Server</text><polygon fill="#181818" points="159.0586,159.8438,169.0586,163.8438,159.0586,167.8438,163.0586,163.8438" style="stroke:#181818;stroke-width:1;"/><line style="stroke:#181818;stroke-width:1;" x1="24.3965" x2="165.0586" y1="163.8438" y2="163.8438"/><text fill="#000000" font-family="Helvetica" font-size="10" x="31.3965" y="147.8447">(01)</text><text fill="#000000" font-family="Helvetica" font-size="10" x="55.9238" y="136.2041">User wants to</text><text fill="#000000" font-family="Helvetica" font-size="10" x="55.9238" y="147.8447">access resource</text><text fill="#000000" font-family="Helvetica" font-size="10" x="55.9238" y="159.4854">on Resource Server</text><polygon fill="#181818" points="307.166,185.4844,317.166,189.4844,307.166,193.4844,311.166,189.4844" style="stroke:#181818;stroke-width:1;"/><line style="stroke:#181818;stroke-width:1;" x1="181.0586" x2="313.166" y1="189.4844" y2="189.4844"/><text fill="#000000" font-family="Helvetica" font-size="10" x="188.0586" y="185.126">(02)</text><text fill="#000000" font-family="Helvetica" font-size="10" x="212.5859" y="185.126">GET /resource</text><path d="M225.1074,202.4844 L225.1074,235.4844 L683.1074,235.4844 L683.1074,212.4844 L673.1074,202.4844 L225.1074,202.4844" fill="#FEFFDD" style="stroke:#181818;stroke-width:0.5;"/><path d="M673.1074,202.4844 L673.1074,212.4844 L683.1074,212.4844 L673.1074,202.4844" fill="#FEFFDD" style="stroke:#181818;stroke-width:0.5;"/><text fill="#000000" font-family="Helvetica" font-size="10" font-weight="700" x="231.1074" y="216.7666">Vorbedingung:</text><text fill="#000000" font-family="Helvetica" font-size="10" x="231.1074" y="228.4072">Der ZETA Client hat ein g&#252;ltiges Access Token f&#252;r den Zugriff auf den Resource Server.</text><line style="stroke:#181818;stroke-width:1;" x1="329.166" x2="371.166" y1="258.4063" y2="258.4063"/><line style="stroke:#181818;stroke-width:1;" x1="371.166" x2="371.166" y1="258.4063" y2="271.4063"/><line style="stroke:#181818;stroke-width:1;" x1="330.166" x2="371.166" y1="271.4063" y2="271.4063"/><polygon fill="#181818" points="340.166,267.4063,330.166,271.4063,340.166,275.4063,336.166,271.4063" style="stroke:#181818;stroke-width:1;"/><text fill="#000000" font-family="Helvetica" font-size="10" x="336.166" y="254.0479">(03)</text><text fill="#000000" font-family="Helvetica" font-size="10" x="360.6934" y="254.0479">Create DPoP Proof for RS</text><polygon fill="#181818" points="567.627,316.3281,577.627,320.3281,567.627,324.3281,571.627,320.3281" style="stroke:#181818;stroke-width:1;"/><line style="stroke:#181818;stroke-width:1;" x1="329.166" x2="573.627" y1="320.3281" y2="320.3281"/><text fill="#000000" font-family="Helvetica" font-size="10" x="336.166" y="304.3291">(04)</text><text fill="#000000" font-family="Helvetica" font-size="10" x="360.6934" y="292.6885">GET /resource</text><text fill="#000000" font-family="Helvetica" font-size="10" x="373.4082" y="304.3291">Authorization: DPoP ... (Accesss token)</text><text fill="#000000" font-family="Helvetica" font-size="10" x="373.4082" y="315.9697">DPoP: ... (DPoP token)</text><line style="stroke:#181818;stroke-width:1;" x1="589.627" x2="631.627" y1="345.9688" y2="345.9688"/><line style="stroke:#181818;stroke-width:1;" x1="631.627" x2="631.627" y1="345.9688" y2="358.9688"/><line style="stroke:#181818;stroke-width:1;" x1="590.627" x2="631.627" y1="358.9688" y2="358.9688"/><polygon fill="#181818" points="600.627,354.9688,590.627,358.9688,600.627,362.9688,596.627,358.9688" style="stroke:#181818;stroke-width:1;"/><text fill="#000000" font-family="Helvetica" font-size="10" x="596.627" y="341.6104">(05)</text><text fill="#000000" font-family="Helvetica" font-size="10" x="621.1543" y="341.6104">verify Access Token and DPoP Proof</text><polygon fill="#181818" points="790.9541,403.8906,800.9541,407.8906,790.9541,411.8906,794.9541,407.8906" style="stroke:#181818;stroke-width:1;"/><line style="stroke:#181818;stroke-width:1;" x1="589.627" x2="796.9541" y1="407.8906" y2="407.8906"/><text fill="#000000" font-family="Helvetica" font-size="10" x="596.627" y="391.8916">(06)</text><text fill="#000000" font-family="Helvetica" font-size="10" x="621.1543" y="380.251">forward GET /resource</text><text fill="#000000" font-family="Helvetica" font-size="10" x="621.1543" y="391.8916">with header and</text><text fill="#000000" font-family="Helvetica" font-size="10" x="621.1543" y="403.5322">PEP header as JSON</text><line style="stroke:#181818;stroke-width:1;" x1="812.9541" x2="854.9541" y1="456.8125" y2="456.8125"/><line style="stroke:#181818;stroke-width:1;" x1="854.9541" x2="854.9541" y1="456.8125" y2="469.8125"/><line style="stroke:#181818;stroke-width:1;" x1="813.9541" x2="854.9541" y1="469.8125" y2="469.8125"/><polygon fill="#181818" points="823.9541,465.8125,813.9541,469.8125,823.9541,473.8125,819.9541,469.8125" style="stroke:#181818;stroke-width:1;"/><text fill="#000000" font-family="Helvetica" font-size="10" x="819.9541" y="440.8135">(07)</text><text fill="#000000" font-family="Helvetica" font-size="10" x="844.4814" y="429.1729">provide</text><text fill="#000000" font-family="Helvetica" font-size="10" x="844.4814" y="440.8135">resource</text><text fill="#000000" font-family="Helvetica" font-size="10" x="844.4814" y="452.4541">access</text><polygon fill="#181818" points="600.627,491.4531,590.627,495.4531,600.627,499.4531,596.627,495.4531" style="stroke:#181818;stroke-width:1;"/><line style="stroke:#181818;stroke-width:1;stroke-dasharray:2,2;" x1="594.627" x2="801.9541" y1="495.4531" y2="495.4531"/><text fill="#000000" font-family="Helvetica" font-size="10" x="606.627" y="491.0947">(08)</text><text fill="#000000" font-family="Helvetica" font-size="10" x="631.1543" y="491.0947">200 OK, Resource</text><polygon fill="#181818" points="340.166,517.0938,330.166,521.0938,340.166,525.0938,336.166,521.0938" style="stroke:#181818;stroke-width:1;"/><line style="stroke:#181818;stroke-width:1;stroke-dasharray:2,2;" x1="334.166" x2="578.627" y1="521.0938" y2="521.0938"/><text fill="#000000" font-family="Helvetica" font-size="10" x="346.166" y="516.7354">(09)</text><text fill="#000000" font-family="Helvetica" font-size="10" x="370.6934" y="516.7354">200 OK, Resource</text><polygon fill="#181818" points="192.0586,542.7344,182.0586,546.7344,192.0586,550.7344,188.0586,546.7344" style="stroke:#181818;stroke-width:1;"/><line style="stroke:#181818;stroke-width:1;stroke-dasharray:2,2;" x1="186.0586" x2="318.166" y1="546.7344" y2="546.7344"/><text fill="#000000" font-family="Helvetica" font-size="10" x="198.0586" y="542.376">(10)</text><text fill="#000000" font-family="Helvetica" font-size="10" x="222.5859" y="542.376">200 OK, Resource</text><polygon fill="#181818" points="35.3965,568.375,25.3965,572.375,35.3965,576.375,31.3965,572.375" style="stroke:#181818;stroke-width:1;"/><line style="stroke:#181818;stroke-width:1;stroke-dasharray:2,2;" x1="29.3965" x2="170.0586" y1="572.375" y2="572.375"/><text fill="#000000" font-family="Helvetica" font-size="10" x="41.3965" y="568.0166">(11)</text><text fill="#000000" font-family="Helvetica" font-size="10" x="65.9238" y="568.0166">Resource</text><?plantuml-src TLJRSjD847tNLpJQ1qW2neIG1LVALR8a9s7ZM2KRjg1SHKtabZH4dZ6ZKOApnT_iP_2M7zlMwE9Bl0ykNVhqcTFdjCmABKMnk445zejkzy2sybikbaon1SmnPaMcXrBe2Nz0UDFTNxnc2uGBpEvGyuXjOBmACv92vaiMuRn5kx9G7DK6DaEHwDIPVozo3K8AtAZb-AD04M68CQhoPi2YsqJ9GinTcKa5VwTSRpPCTXlMCnpluHrXdhC4dOmdWeJ4sahv727Nr2prQecMzHm6yYT4vMcvzOo6vmBXgpzrlfr_SaBlcpk-6eVmnt0uVEk_Qm5N_cLJEKzbhYkTszLHCBxshwSDpZ_nJuOdBIO8BqUE7qw-JAR-gC5SiJiKSx9lZHf_llJyi2NnXfxlbge3fYWKlcH2D-hFShtAi6yrqtkS9QKR_rW0omru-GpGUK3Dwdk0NUDfOF_KTUlg5Mcfttj_VXXqk-RzhufdgUGTkQh-dyjxvx_tJfvolJyUl3qzRRdANyPZpCh9AxBz-x1DCyW8PDf_MMUlQm-iPql5aWK3ZV81j2eeQYVI1F-KaxytbBbDCTdh98d1l0qKNpp-g_8LRSd2tfUJEN_JqA4BB0TxoABqbPjn5Dg6ixF6btx_IKC5Catbgi6wgGp5DD0Ub7givbf9TiGDHzfUUsSp6l66xRnWQcu_MU8dAYu2eo3mWvcuc4u329JykTghOhind9Z647FwsYESYGcgkrBKrj2jyj9nUDKlRJewWfv90Ew9A0SjPu954Nsce5esAQ2XXehPebOYg6qp9EV-55utFPObf4QG1Ar1Bscw7XmUVfRg1kTS98L8UeU7C-4HPCDpI9a6v0AInz-PvWdcu5Hwfl8M1SIFlnNz9GhuMYIAnp6m8ZRFEmexbbKJjZfxu2fa9CiBfF5MnX3J0eQJJUn5S7IqCyrCb4avXKwbuWzCSobw5Kcdqu4NbRxIEn9uK87BQgyg6s1LioXXSqGFI2AFLzkpCGfehQq6KxR6Nr9wJskqg-oUwnHIPENtJlqpGTlJFkVmSJA-jeZ24FMWteQPM1DKQHkCaKONEksusuNnNozRLusOTUBxCQsBrMxj1vb2lzevWsWh_m40?></g></svg>