<svg xmlns="http://www.w3.org/2000/svg" xmlns:xlink="http://www.w3.org/1999/xlink" contentStyleType="text/css" data-diagram-type="SEQUENCE" height="1301px" preserveAspectRatio="none" style="width:1174px;height:1301px;background:#FFFFFF;" version="1.1" viewBox="0 0 1174 1301" width="1174px" zoomAndPan="magnify"><?plantuml 1.2026.3?><defs/><g><rect fill="#F8F8FF" height="1275.1094" style="stroke:#181818;stroke-width:0.5;" width="227.3682" x="136.9214" y="11"/><text fill="#000000" font-family="Helvetica" font-size="10" font-weight="700" x="242.1436" y="20.2822">LEI</text><rect fill="#E6E6FA" height="1258.4688" style="stroke:#181818;stroke-width:0.5;" width="227.3682" x="136.9214" y="27.6406"/><text fill="#000000" font-family="Helvetica" font-size="10" font-weight="700" x="211.5088" y="36.9229">Prim&#228;rsystem</text><rect fill="#EDFDEC" height="1275.1094" style="stroke:#181818;stroke-width:0.5;" width="371.0903" x="601.4844" y="11"/><text fill="#000000" font-family="Helvetica" font-size="10" font-weight="700" x="762.6692" y="20.2822">Anbieter</text><rect fill="#FFF3E5" height="1258.4688" style="stroke:#181818;stroke-width:0.5;" width="90.2891" x="601.4844" y="27.6406"/><text fill="#000000" font-family="Helvetica" font-size="10" font-weight="700" x="613.4844" y="36.9229">ZETA Guard</text><g><title>User</title><rect fill="#000000" fill-opacity="0.00000" height="1093.5469" width="8" x="20.8965" y="114.9219"/><line style="stroke:#000000;stroke-width:0.5;stroke-dasharray:5,5;" x1="24.3965" x2="24.3965" y1="114.9219" y2="1208.4688"/></g><g><title>Fach-Client</title><rect fill="#000000" fill-opacity="0.00000" height="1093.5469" width="8" x="172.5586" y="114.9219"/><line style="stroke:#000000;stroke-width:0.5;stroke-dasharray:5,5;" x1="176.0586" x2="176.0586" y1="114.9219" y2="1208.4688"/></g><g><title/><rect fill="#FFFFFF" height="1026.625" style="stroke:#181818;stroke-width:1;" width="10" x="171.0586" y="163.8438"/></g><g><title>ZETA Client</title><rect fill="#000000" fill-opacity="0.00000" height="1093.5469" width="8" x="320.666" y="114.9219"/><line style="stroke:#000000;stroke-width:0.5;stroke-dasharray:5,5;" x1="324.166" x2="324.166" y1="114.9219" y2="1208.4688"/></g><g><title/><rect fill="#FFFFFF" height="975.3438" style="stroke:#181818;stroke-width:1;" width="10" x="319.166" y="189.4844"/></g><g><title>PEP</title><rect fill="#000000" fill-opacity="0.00000" height="1093.5469" width="8" x="643.1289" y="114.9219"/><line style="stroke:#000000;stroke-width:0.5;stroke-dasharray:5,5;" x1="646.6289" x2="646.6289" y1="114.9219" y2="1208.4688"/></g><g><title/><rect fill="#FFFFFF" height="775.8594" style="stroke:#181818;stroke-width:1;" width="10" x="641.6289" y="324.6875"/></g><g><title>Resource</title><rect fill="#000000" fill-opacity="0.00000" height="1093.5469" width="8" x="934.8105" y="114.9219"/><line style="stroke:#000000;stroke-width:0.5;stroke-dasharray:5,5;" x1="938.3105" x2="938.3105" y1="114.9219" y2="1208.4688"/></g><g><title/><rect fill="#FFFFFF" height="75.9219" style="stroke:#181818;stroke-width:1;" width="10" x="933.3105" y="513.8125"/></g><g><title/><rect fill="#FFFFFF" height="164.8438" style="stroke:#181818;stroke-width:1;" width="10" x="933.3105" y="896.0625"/></g><text fill="#000000" font-family="Helvetica" font-size="10" x="10" y="112.5635">User</text><ellipse cx="24.3965" cy="51.7813" fill="#E2E2F0" rx="8" ry="8" style="stroke:#181818;stroke-width:0.5;"/><path d="M24.3965,59.7813 L24.3965,86.7813 M11.3965,67.7813 L37.3965,67.7813 M24.3965,86.7813 L11.3965,101.7813 M24.3965,86.7813 L37.3965,101.7813" fill="none" style="stroke:#181818;stroke-width:0.5;"/><rect fill="#D5E8D4" height="25.6406" rx="2.5" ry="2.5" style="stroke:#82B366;stroke-width:0.5;" width="70.2744" x="140.9214" y="88.2813"/><text fill="#000000" font-family="Helvetica" font-size="10" x="147.9214" y="104.5635">Fach-Client</text><rect fill="#FFE6CC" height="25.6406" rx="2.5" ry="2.5" style="stroke:#D79B00;stroke-width:0.5;" width="72.2471" x="288.0425" y="88.2813"/><text fill="#000000" font-family="Helvetica" font-size="10" x="295.0425" y="104.5635">ZETA Client</text><rect fill="#FFE6CC" height="37.2813" rx="2.5" ry="2.5" style="stroke:#D79B00;stroke-width:0.5;" width="71.041" x="611.1084" y="76.6406"/><text fill="#000000" font-family="Helvetica" font-size="10" x="637.4395" y="92.9229">PEP</text><text fill="#000000" font-family="Helvetica" font-size="10" x="618.1084" y="104.5635">HTTP Proxy</text><rect fill="#D5E8D4" height="37.2813" rx="2.5" ry="2.5" style="stroke:#82B366;stroke-width:0.5;" width="60.5283" x="908.0464" y="76.6406"/><text fill="#000000" font-family="Helvetica" font-size="10" x="915.0464" y="92.9229">Resource</text><text fill="#000000" font-family="Helvetica" font-size="10" x="921.9141" y="104.5635">Server</text><text fill="#000000" font-family="Helvetica" font-size="10" x="10" y="1277.751">User</text><ellipse cx="24.3965" cy="1216.9688" fill="#E2E2F0" rx="8" ry="8" style="stroke:#181818;stroke-width:0.5;"/><path d="M24.3965,1224.9688 L24.3965,1251.9688 M11.3965,1232.9688 L37.3965,1232.9688 M24.3965,1251.9688 L11.3965,1266.9688 M24.3965,1251.9688 L37.3965,1266.9688" fill="none" style="stroke:#181818;stroke-width:0.5;"/><rect fill="#D5E8D4" height="25.6406" rx="2.5" ry="2.5" style="stroke:#82B366;stroke-width:0.5;" width="70.2744" x="140.9214" y="1208.4688"/><text fill="#000000" font-family="Helvetica" font-size="10" x="147.9214" y="1224.751">Fach-Client</text><rect fill="#FFE6CC" height="25.6406" rx="2.5" ry="2.5" style="stroke:#D79B00;stroke-width:0.5;" width="72.2471" x="288.0425" y="1208.4688"/><text fill="#000000" font-family="Helvetica" font-size="10" x="295.0425" y="1224.751">ZETA Client</text><rect fill="#FFE6CC" height="37.2813" rx="2.5" ry="2.5" style="stroke:#D79B00;stroke-width:0.5;" width="71.041" x="611.1084" y="1208.4688"/><text fill="#000000" font-family="Helvetica" font-size="10" x="637.4395" y="1224.751">PEP</text><text fill="#000000" font-family="Helvetica" font-size="10" x="618.1084" y="1236.3916">HTTP Proxy</text><rect fill="#D5E8D4" height="37.2813" rx="2.5" ry="2.5" style="stroke:#82B366;stroke-width:0.5;" width="60.5283" x="908.0464" y="1208.4688"/><text fill="#000000" font-family="Helvetica" font-size="10" x="915.0464" y="1224.751">Resource</text><text fill="#000000" font-family="Helvetica" font-size="10" x="921.9141" y="1236.3916">Server</text><polygon fill="#181818" points="159.0586,159.8438,169.0586,163.8438,159.0586,167.8438,163.0586,163.8438" style="stroke:#181818;stroke-width:1;"/><line style="stroke:#181818;stroke-width:1;" x1="24.3965" x2="165.0586" y1="163.8438" y2="163.8438"/><text fill="#000000" font-family="Helvetica" font-size="10" x="31.3965" y="147.8447">(01)</text><text fill="#000000" font-family="Helvetica" font-size="10" x="55.9238" y="136.2041">User wants to</text><text fill="#000000" font-family="Helvetica" font-size="10" x="55.9238" y="147.8447">access resource</text><text fill="#000000" font-family="Helvetica" font-size="10" x="55.9238" y="159.4854">on Resource Server</text><polygon fill="#181818" points="307.166,185.4844,317.166,189.4844,307.166,193.4844,311.166,189.4844" style="stroke:#181818;stroke-width:1;"/><line style="stroke:#181818;stroke-width:1;" x1="181.0586" x2="313.166" y1="189.4844" y2="189.4844"/><text fill="#000000" font-family="Helvetica" font-size="10" x="188.0586" y="185.126">(02)</text><text fill="#000000" font-family="Helvetica" font-size="10" x="212.5859" y="185.126">GET /resource</text><path d="M256.1084,202.4844 L256.1084,235.4844 L714.1084,235.4844 L714.1084,212.4844 L704.1084,202.4844 L256.1084,202.4844" fill="#FEFFDD" style="stroke:#181818;stroke-width:0.5;"/><path d="M704.1084,202.4844 L704.1084,212.4844 L714.1084,212.4844 L704.1084,202.4844" fill="#FEFFDD" style="stroke:#181818;stroke-width:0.5;"/><text fill="#000000" font-family="Helvetica" font-size="10" font-weight="700" x="262.1084" y="216.7666">Vorbedingung:</text><text fill="#000000" font-family="Helvetica" font-size="10" x="262.1084" y="228.4072">Der ZETA Client hat ein g&#252;ltiges Access Token f&#252;r den Zugriff auf den Resource Server.</text><line style="stroke:#181818;stroke-width:1;" x1="329.166" x2="371.166" y1="258.4063" y2="258.4063"/><line style="stroke:#181818;stroke-width:1;" x1="371.166" x2="371.166" y1="258.4063" y2="271.4063"/><line style="stroke:#181818;stroke-width:1;" x1="330.166" x2="371.166" y1="271.4063" y2="271.4063"/><polygon fill="#181818" points="340.166,267.4063,330.166,271.4063,340.166,275.4063,336.166,271.4063" style="stroke:#181818;stroke-width:1;"/><text fill="#000000" font-family="Helvetica" font-size="10" x="336.166" y="254.0479">(03)</text><text fill="#000000" font-family="Helvetica" font-size="10" x="360.6934" y="254.0479">Create DPoP Proof for RS</text><path d="M308.166,283.4063 L368.1221,283.4063 L368.1221,287.0469 L358.1221,297.0469 L308.166,297.0469 L308.166,283.4063" fill="#EEEEEE" style="stroke:#000000;stroke-width:1.5;"/><rect fill="none" height="785.5" style="stroke:#000000;stroke-width:1.5;" width="846.708" x="308.166" y="283.4063"/><text fill="#000000" font-family="Helvetica" font-size="10" font-weight="700" x="323.166" y="293.6885">alt</text><text fill="#000000" font-family="Helvetica" font-size="10" font-weight="700" x="383.1221" y="294.6885">[ZETA/ASL terminates at PEP]</text><line style="stroke:#000000;stroke-width:1;stroke-dasharray:2,2;" x1="308.166" x2="1154.874" y1="647.375" y2="647.375"/><text fill="#000000" font-family="Helvetica" font-size="10" font-weight="700" x="313.166" y="658.6572">[ZETA/ASL terminates at Resource Server]</text><polygon fill="#181818" points="629.6289,320.6875,639.6289,324.6875,629.6289,328.6875,633.6289,324.6875" style="stroke:#181818;stroke-width:1;"/><line style="stroke:#181818;stroke-width:1;" x1="329.166" x2="635.6289" y1="324.6875" y2="324.6875"/><text fill="#000000" font-family="Helvetica" font-size="10" x="336.166" y="320.3291">(04)</text><text fill="#000000" font-family="Helvetica" font-size="10" x="360.6934" y="320.3291">ZETA/ASL Verbindungsaufbau</text><polygon fill="#181818" points="340.166,346.3281,330.166,350.3281,340.166,354.3281,336.166,350.3281" style="stroke:#181818;stroke-width:1;"/><line style="stroke:#181818;stroke-width:1;stroke-dasharray:2,2;" x1="334.166" x2="640.6289" y1="350.3281" y2="350.3281"/><text fill="#000000" font-family="Helvetica" font-size="10" x="346.166" y="345.9697">(05)</text><text fill="#000000" font-family="Helvetica" font-size="10" x="370.6934" y="345.9697">&#160;</text><polygon fill="#181818" points="629.6289,406.8906,639.6289,410.8906,629.6289,414.8906,633.6289,410.8906" style="stroke:#181818;stroke-width:1;"/><line style="stroke:#181818;stroke-width:1;" x1="329.166" x2="635.6289" y1="410.8906" y2="410.8906"/><text fill="#000000" font-family="Helvetica" font-size="10" x="336.166" y="389.0713">(06)</text><text fill="#000000" font-family="Helvetica" font-size="10" x="360.6934" y="371.6104">POST /ASL (outer request)</text><text fill="#000000" font-family="Helvetica" font-size="10" x="373.4082" y="383.251">Body (inner request): GET /resource</text><text fill="#000000" font-family="Helvetica" font-size="10" x="379.7656" y="394.8916">Authorization: DPoP ... (Accesss token)</text><text fill="#000000" font-family="Helvetica" font-size="10" x="379.7656" y="406.5322">DPoP: ... (DPoP token)</text><line style="stroke:#181818;stroke-width:1;" x1="651.6289" x2="693.6289" y1="436.5313" y2="436.5313"/><line style="stroke:#181818;stroke-width:1;" x1="693.6289" x2="693.6289" y1="436.5313" y2="449.5313"/><line style="stroke:#181818;stroke-width:1;" x1="652.6289" x2="693.6289" y1="449.5313" y2="449.5313"/><polygon fill="#181818" points="662.6289,445.5313,652.6289,449.5313,662.6289,453.5313,658.6289,449.5313" style="stroke:#181818;stroke-width:1;"/><text fill="#000000" font-family="Helvetica" font-size="10" x="658.6289" y="432.1729">(07)</text><text fill="#000000" font-family="Helvetica" font-size="10" x="683.1563" y="432.1729">Terminate ZETA/ASL</text><line style="stroke:#181818;stroke-width:1;" x1="651.6289" x2="693.6289" y1="475.1719" y2="475.1719"/><line style="stroke:#181818;stroke-width:1;" x1="693.6289" x2="693.6289" y1="475.1719" y2="488.1719"/><line style="stroke:#181818;stroke-width:1;" x1="652.6289" x2="693.6289" y1="488.1719" y2="488.1719"/><polygon fill="#181818" points="662.6289,484.1719,652.6289,488.1719,662.6289,492.1719,658.6289,488.1719" style="stroke:#181818;stroke-width:1;"/><text fill="#000000" font-family="Helvetica" font-size="10" x="658.6289" y="470.8135">(08)</text><text fill="#000000" font-family="Helvetica" font-size="10" x="683.1563" y="470.8135">Verify Access Token and DPoP Proof for RS</text><polygon fill="#181818" points="921.3105,509.8125,931.3105,513.8125,921.3105,517.8125,925.3105,513.8125" style="stroke:#181818;stroke-width:1;"/><line style="stroke:#181818;stroke-width:1;" x1="651.6289" x2="927.3105" y1="513.8125" y2="513.8125"/><text fill="#000000" font-family="Helvetica" font-size="10" x="658.6289" y="509.4541">(09)</text><text fill="#000000" font-family="Helvetica" font-size="10" x="683.1563" y="509.4541">forward GET /resource</text><line style="stroke:#181818;stroke-width:1;" x1="943.3105" x2="985.3105" y1="551.0938" y2="551.0938"/><line style="stroke:#181818;stroke-width:1;" x1="985.3105" x2="985.3105" y1="551.0938" y2="564.0938"/><line style="stroke:#181818;stroke-width:1;" x1="944.3105" x2="985.3105" y1="564.0938" y2="564.0938"/><polygon fill="#181818" points="954.3105,560.0938,944.3105,564.0938,954.3105,568.0938,950.3105,564.0938" style="stroke:#181818;stroke-width:1;"/><text fill="#000000" font-family="Helvetica" font-size="10" x="950.3105" y="540.915">(10)</text><text fill="#000000" font-family="Helvetica" font-size="10" x="974.8379" y="535.0947">provide resource access</text><text fill="#000000" font-family="Helvetica" font-size="10" x="974.8379" y="546.7354">and create Response</text><polygon fill="#181818" points="662.6289,585.7344,652.6289,589.7344,662.6289,593.7344,658.6289,589.7344" style="stroke:#181818;stroke-width:1;"/><line style="stroke:#181818;stroke-width:1;stroke-dasharray:2,2;" x1="656.6289" x2="932.3105" y1="589.7344" y2="589.7344"/><text fill="#000000" font-family="Helvetica" font-size="10" x="668.6289" y="585.376">(11)</text><text fill="#000000" font-family="Helvetica" font-size="10" x="693.1563" y="585.376">200 OK, Response</text><line style="stroke:#181818;stroke-width:1;" x1="651.6289" x2="693.6289" y1="615.375" y2="615.375"/><line style="stroke:#181818;stroke-width:1;" x1="693.6289" x2="693.6289" y1="615.375" y2="628.375"/><line style="stroke:#181818;stroke-width:1;" x1="652.6289" x2="693.6289" y1="628.375" y2="628.375"/><polygon fill="#181818" points="662.6289,624.375,652.6289,628.375,662.6289,632.375,658.6289,628.375" style="stroke:#181818;stroke-width:1;"/><text fill="#000000" font-family="Helvetica" font-size="10" x="658.6289" y="611.0166">(12)</text><text fill="#000000" font-family="Helvetica" font-size="10" x="683.1563" y="611.0166">create ZETA/ASL encrypted Response</text><line style="stroke:#181818;stroke-width:1;" x1="329.166" x2="371.166" y1="683.6563" y2="683.6563"/><line style="stroke:#181818;stroke-width:1;" x1="371.166" x2="371.166" y1="683.6563" y2="696.6563"/><line style="stroke:#181818;stroke-width:1;" x1="330.166" x2="371.166" y1="696.6563" y2="696.6563"/><polygon fill="#181818" points="340.166,692.6563,330.166,696.6563,340.166,700.6563,336.166,696.6563" style="stroke:#181818;stroke-width:1;"/><text fill="#000000" font-family="Helvetica" font-size="10" x="336.166" y="679.2979">(13)</text><text fill="#000000" font-family="Helvetica" font-size="10" x="360.6934" y="679.2979">Create DPoP Proof for ZETA/ASL</text><polygon fill="#181818" points="629.6289,718.2969,639.6289,722.2969,629.6289,726.2969,633.6289,722.2969" style="stroke:#181818;stroke-width:1;"/><line style="stroke:#181818;stroke-width:1;" x1="329.166" x2="635.6289" y1="722.2969" y2="722.2969"/><text fill="#000000" font-family="Helvetica" font-size="10" x="336.166" y="717.9385">(14)</text><text fill="#000000" font-family="Helvetica" font-size="10" x="360.6934" y="717.9385">ZETA/ASL Verbindungsaufbau</text><polygon fill="#181818" points="340.166,743.9375,330.166,747.9375,340.166,751.9375,336.166,747.9375" style="stroke:#181818;stroke-width:1;"/><line style="stroke:#181818;stroke-width:1;stroke-dasharray:2,2;" x1="334.166" x2="640.6289" y1="747.9375" y2="747.9375"/><text fill="#000000" font-family="Helvetica" font-size="10" x="346.166" y="743.5791">(15)</text><text fill="#000000" font-family="Helvetica" font-size="10" x="370.6934" y="743.5791">&#160;</text><polygon fill="#181818" points="629.6289,827.7813,639.6289,831.7813,629.6289,835.7813,633.6289,831.7813" style="stroke:#181818;stroke-width:1;"/><line style="stroke:#181818;stroke-width:1;" x1="329.166" x2="635.6289" y1="831.7813" y2="831.7813"/><text fill="#000000" font-family="Helvetica" font-size="10" x="336.166" y="798.3213">(16)</text><text fill="#000000" font-family="Helvetica" font-size="10" x="360.6934" y="769.2197">POST /ASL (outer request)</text><text fill="#000000" font-family="Helvetica" font-size="10" x="373.4082" y="780.8604">Authorization: DPoP &lt;Access token for ZETA/ASL&gt;</text><text fill="#000000" font-family="Helvetica" font-size="10" x="373.4082" y="792.501">DPoP: &lt;DPoP token for ZETA/ASL&gt;</text><text fill="#000000" font-family="Helvetica" font-size="10" x="373.4082" y="804.1416">Body (ASL encrypted inner request): GET /resource</text><text fill="#000000" font-family="Helvetica" font-size="10" x="379.7656" y="815.7822">Authorization: DPoP &lt;Access token for RS&gt;</text><text fill="#000000" font-family="Helvetica" font-size="10" x="379.7656" y="827.4229">DPoP: &lt;DPoP token for RS&gt;</text><line style="stroke:#181818;stroke-width:1;" x1="651.6289" x2="693.6289" y1="857.4219" y2="857.4219"/><line style="stroke:#181818;stroke-width:1;" x1="693.6289" x2="693.6289" y1="857.4219" y2="870.4219"/><line style="stroke:#181818;stroke-width:1;" x1="652.6289" x2="693.6289" y1="870.4219" y2="870.4219"/><polygon fill="#181818" points="662.6289,866.4219,652.6289,870.4219,662.6289,874.4219,658.6289,870.4219" style="stroke:#181818;stroke-width:1;"/><text fill="#000000" font-family="Helvetica" font-size="10" x="658.6289" y="853.0635">(17)</text><text fill="#000000" font-family="Helvetica" font-size="10" x="683.1563" y="853.0635">verify Access Token and DPoP Proof for ZETA/ASL</text><polygon fill="#181818" points="921.3105,892.0625,931.3105,896.0625,921.3105,900.0625,925.3105,896.0625" style="stroke:#181818;stroke-width:1;"/><line style="stroke:#181818;stroke-width:1;" x1="651.6289" x2="927.3105" y1="896.0625" y2="896.0625"/><text fill="#000000" font-family="Helvetica" font-size="10" x="658.6289" y="891.7041">(18)</text><text fill="#000000" font-family="Helvetica" font-size="10" x="683.1563" y="891.7041">forward POST /ASL</text><line style="stroke:#181818;stroke-width:1;" x1="943.3105" x2="985.3105" y1="921.7031" y2="921.7031"/><line style="stroke:#181818;stroke-width:1;" x1="985.3105" x2="985.3105" y1="921.7031" y2="934.7031"/><line style="stroke:#181818;stroke-width:1;" x1="944.3105" x2="985.3105" y1="934.7031" y2="934.7031"/><polygon fill="#181818" points="954.3105,930.7031,944.3105,934.7031,954.3105,938.7031,950.3105,934.7031" style="stroke:#181818;stroke-width:1;"/><text fill="#000000" font-family="Helvetica" font-size="10" x="950.3105" y="917.3447">(19)</text><text fill="#000000" font-family="Helvetica" font-size="10" x="974.8379" y="917.3447">Terminate ZETA/ASL</text><line style="stroke:#181818;stroke-width:1;" x1="943.3105" x2="985.3105" y1="971.9844" y2="971.9844"/><line style="stroke:#181818;stroke-width:1;" x1="985.3105" x2="985.3105" y1="971.9844" y2="984.9844"/><line style="stroke:#181818;stroke-width:1;" x1="944.3105" x2="985.3105" y1="984.9844" y2="984.9844"/><polygon fill="#181818" points="954.3105,980.9844,944.3105,984.9844,954.3105,988.9844,950.3105,984.9844" style="stroke:#181818;stroke-width:1;"/><text fill="#000000" font-family="Helvetica" font-size="10" x="950.3105" y="961.8057">(20)</text><text fill="#000000" font-family="Helvetica" font-size="10" x="974.8379" y="955.9854">Verify Access Token and</text><text fill="#000000" font-family="Helvetica" font-size="10" x="974.8379" y="967.626">DPoP Proof for RS</text><line style="stroke:#181818;stroke-width:1;" x1="943.3105" x2="985.3105" y1="1022.2656" y2="1022.2656"/><line style="stroke:#181818;stroke-width:1;" x1="985.3105" x2="985.3105" y1="1022.2656" y2="1035.2656"/><line style="stroke:#181818;stroke-width:1;" x1="944.3105" x2="985.3105" y1="1035.2656" y2="1035.2656"/><polygon fill="#181818" points="954.3105,1031.2656,944.3105,1035.2656,954.3105,1039.2656,950.3105,1035.2656" style="stroke:#181818;stroke-width:1;"/><text fill="#000000" font-family="Helvetica" font-size="10" x="950.3105" y="1012.0869">(21)</text><text fill="#000000" font-family="Helvetica" font-size="10" x="974.8379" y="1006.2666">provide resource access</text><text fill="#000000" font-family="Helvetica" font-size="10" x="974.8379" y="1017.9072">and create ZETA/ASL Response</text><polygon fill="#181818" points="662.6289,1056.9063,652.6289,1060.9063,662.6289,1064.9063,658.6289,1060.9063" style="stroke:#181818;stroke-width:1;"/><line style="stroke:#181818;stroke-width:1;stroke-dasharray:2,2;" x1="656.6289" x2="932.3105" y1="1060.9063" y2="1060.9063"/><text fill="#000000" font-family="Helvetica" font-size="10" x="668.6289" y="1056.5479">(22)</text><text fill="#000000" font-family="Helvetica" font-size="10" x="693.1563" y="1056.5479">200 OK, ZETA/ASL encrypted Response</text><polygon fill="#181818" points="340.166,1096.5469,330.166,1100.5469,340.166,1104.5469,336.166,1100.5469" style="stroke:#181818;stroke-width:1;"/><line style="stroke:#181818;stroke-width:1;stroke-dasharray:2,2;" x1="334.166" x2="640.6289" y1="1100.5469" y2="1100.5469"/><text fill="#000000" font-family="Helvetica" font-size="10" x="346.166" y="1096.1885">(23)</text><text fill="#000000" font-family="Helvetica" font-size="10" x="370.6934" y="1096.1885">200 OK, ZETA/ASL encrypted Response</text><line style="stroke:#181818;stroke-width:1;" x1="329.166" x2="371.166" y1="1126.1875" y2="1126.1875"/><line style="stroke:#181818;stroke-width:1;" x1="371.166" x2="371.166" y1="1126.1875" y2="1139.1875"/><line style="stroke:#181818;stroke-width:1;" x1="330.166" x2="371.166" y1="1139.1875" y2="1139.1875"/><polygon fill="#181818" points="340.166,1135.1875,330.166,1139.1875,340.166,1143.1875,336.166,1139.1875" style="stroke:#181818;stroke-width:1;"/><text fill="#000000" font-family="Helvetica" font-size="10" x="336.166" y="1121.8291">(24)</text><text fill="#000000" font-family="Helvetica" font-size="10" x="360.6934" y="1121.8291">decrypt Response</text><polygon fill="#181818" points="192.0586,1160.8281,182.0586,1164.8281,192.0586,1168.8281,188.0586,1164.8281" style="stroke:#181818;stroke-width:1;"/><line style="stroke:#181818;stroke-width:1;stroke-dasharray:2,2;" x1="186.0586" x2="318.166" y1="1164.8281" y2="1164.8281"/><text fill="#000000" font-family="Helvetica" font-size="10" x="198.0586" y="1160.4697">(25)</text><text fill="#000000" font-family="Helvetica" font-size="10" x="222.5859" y="1160.4697">200 OK, Resource</text><polygon fill="#181818" points="35.3965,1186.4688,25.3965,1190.4688,35.3965,1194.4688,31.3965,1190.4688" style="stroke:#181818;stroke-width:1;"/><line style="stroke:#181818;stroke-width:1;stroke-dasharray:2,2;" x1="29.3965" x2="170.0586" y1="1190.4688" y2="1190.4688"/><text fill="#000000" font-family="Helvetica" font-size="10" x="41.3965" y="1186.1104">(26)</text><text fill="#000000" font-family="Helvetica" font-size="10" x="65.9238" y="1186.1104">Resource</text><?plantuml-src jLNRRjj647tdLqpKX_eIsuhZkAaW2915oZPgMuIak6XW85YHIsfhQbVTNJgHW_nDFYDl_h4ETtcLv3Gjq0U18kVCx9apPqYIQi7JnOnAQEsqsxijHzqplYIIB22a4KaJFHHSJzWZXLVjxS4Rig1mGPC7gbb0QXZNOgu55sf90XgMw8589QEoXaqeZ_My7_wPAWrSS5gBAVfNIdb0npIYCljpHeBxM8gKXmEH20c_pvck9qpM4weUZhVKlQPAaPZs4nPp919fPyv22afZij2h9NMSd-5CV88WEqqvBx1vnYcyzwRz3-Vl-cFtms1qDHh3JyFXyBNtfWHSUPT5v7mkbBOycz5hVtJZtKmBd7VYdGnFIem_lhpkU-F97vEfTrrWhiW3vI7ALw56jvUkDowBk4FN6sIiVI9nA6n9k2xOTvLU9RJd5DsxZCIP6fyTW6KDdjq373vIJVB_0El2OyFUwM2GHw-GI_xS_UNNitRRFFzYwoobU41LvVErt3VUM_TaizRRuxFNfwTbhUoNi8WcMUUss7O_DCkS9GWowL-Sxb6kWVDYAKcy8A2fU0GjKnnrFz08VwTGtndEl8LZQbMJn0hcgI_PukchL2jqoQArRKxc_BgWmm4G1QqX2UO7WuHHhblGxHQwz7eR2HPaaZAhGPMK3SKae0yoFavnjPJxVCOekhUrveo2lAbsdX8PjZPClC7YmZSCVC-_unVJgG--59zMMraq4ySJapYc2hSze7TyGkL3HghHTCayKnmEUfbC-_lGCHE0ZrX8WHPtd0G1hYd8ifhWK9G6Mzd1L2oGosQAd7jJE2fo78SBJK4WD0UznEuwiBTtA-ICXep7AOyxUtjtt4L8JNEO4msKSOYVlYMQnLH1t_APYdlA8Nhw9l6LoE5z6aiMHK3IoDolCJnqdBnWoRC30qa9qd9zORGL4KHemF74SKYY3OkZ_kGABIeNZ2DI0PB1SQ3SLR4BVt-_Ku5lgPmn7c8x2gdCI8fW7EH1UUnQSWVyqGIbod9tH8fdeTBuVb1wzuwR5HFX2dOOvxN8chmM2D1FzLn8zaWq4xnZ-peyF8GTArasJjHiju1dyOu56AYDvdmjjsdHUjbW8upDicZLd0X1MsqgMcIXDOqzyF57t88rcq0MDwWEv4ujVGVMX-X7F22mayCXBmLNHQ9XXHUiVznkm-YtbtL4HJlFBcU6BsEvMceQLd2QAFgS0zRDNn_ezwrL4x7k0VW__RFD5DryOjhkK8rPpoPPQtGhMsm3MMSs1VpFFjsaD9xqcavTfuE0nbWVVioD6qusdgmiMUhPiEFMJQZ2psm2li-shCA_CtbfZNzs-tSTpKEdOQGVJzsqTqWDQ1DYFoFhAsYtsmHwzlDY46NaRm00?></g></svg>