<svg xmlns="http://www.w3.org/2000/svg" xmlns:xlink="http://www.w3.org/1999/xlink" contentStyleType="text/css" data-diagram-type="SEQUENCE" height="367px" preserveAspectRatio="none" style="width:632px;height:367px;background:#FFFFFF;" version="1.1" viewBox="0 0 632 367" width="632px" zoomAndPan="magnify"><?plantuml 1.2026.3?><defs/><g><rect fill="#FEFCFF" height="341.6875" style="stroke:#181818;stroke-width:0.5;" width="599.665" x="16" y="11"/><text fill="#000000" font-family="Helvetica" font-size="10" font-weight="700" x="216.3501" y="20.2822">Apple Device (macOS, iOS, iPadOS)</text><g><title>Secure Enclave</title><rect fill="#000000" fill-opacity="0.00000" height="266.7656" width="8" x="61.9546" y="53.2813"/><line style="stroke:#000000;stroke-width:0.5;stroke-dasharray:5,5;" x1="65.4546" x2="65.4546" y1="53.2813" y2="320.0469"/></g><g><title/><rect fill="#FFFFFF" height="25.6406" style="stroke:#181818;stroke-width:1;" width="10" x="60.4546" y="163.8438"/></g><g><title>OS .iOS . iPadOS.</title><rect fill="#000000" fill-opacity="0.00000" height="266.7656" width="8" x="195.1597" y="53.2813"/><line style="stroke:#000000;stroke-width:0.5;stroke-dasharray:5,5;" x1="198.6597" x2="198.6597" y1="53.2813" y2="320.0469"/></g><g><title/><rect fill="#FFFFFF" height="76.9219" style="stroke:#181818;stroke-width:1;" width="10" x="193.6597" y="138.2031"/></g><g><title>ZETA Client</title><rect fill="#000000" fill-opacity="0.00000" height="266.7656" width="8" x="572.0415" y="53.2813"/><line style="stroke:#000000;stroke-width:0.5;stroke-dasharray:5,5;" x1="575.5415" x2="575.5415" y1="53.2813" y2="320.0469"/></g><g><title/><rect fill="#FFFFFF" height="126.2031" style="stroke:#181818;stroke-width:1;" width="10" x="570.5415" y="88.9219"/></g><rect fill="#E4E4F4" height="25.6406" rx="2.5" ry="2.5" style="stroke:#181818;stroke-width:0.5;" width="90.9092" x="20" y="26.6406"/><text fill="#000000" font-family="Helvetica" font-size="10" x="27" y="42.9229">Secure Enclave</text><rect fill="#E4E4F4" height="25.6406" rx="2.5" ry="2.5" style="stroke:#181818;stroke-width:0.5;" width="101.4268" x="147.9463" y="26.6406"/><text fill="#000000" font-family="Helvetica" font-size="10" x="154.9463" y="42.9229">OS (iOS / iPadOS)</text><rect fill="#FFE6CC" height="25.6406" rx="2.5" ry="2.5" style="stroke:#D79B00;stroke-width:0.5;" width="72.2471" x="539.418" y="26.6406"/><text fill="#000000" font-family="Helvetica" font-size="10" x="546.418" y="42.9229">ZETA Client</text><rect fill="#E4E4F4" height="25.6406" rx="2.5" ry="2.5" style="stroke:#181818;stroke-width:0.5;" width="90.9092" x="20" y="320.0469"/><text fill="#000000" font-family="Helvetica" font-size="10" x="27" y="336.3291">Secure Enclave</text><rect fill="#E4E4F4" height="25.6406" rx="2.5" ry="2.5" style="stroke:#181818;stroke-width:0.5;" width="101.4268" x="147.9463" y="320.0469"/><text fill="#000000" font-family="Helvetica" font-size="10" x="154.9463" y="336.3291">OS (iOS / iPadOS)</text><rect fill="#FFE6CC" height="25.6406" rx="2.5" ry="2.5" style="stroke:#D79B00;stroke-width:0.5;" width="72.2471" x="539.418" y="320.0469"/><text fill="#000000" font-family="Helvetica" font-size="10" x="546.418" y="336.3291">ZETA Client</text><path d="M44.4546,65.2813 L104.4106,65.2813 L104.4106,68.9219 L94.4106,78.9219 L44.4546,78.9219 L44.4546,65.2813" fill="#EEEEEE" style="stroke:#000000;stroke-width:1.5;"/><rect fill="none" height="230.7656" style="stroke:#000000;stroke-width:1.5;" width="552.0869" x="44.4546" y="65.2813"/><text fill="#000000" font-family="Helvetica" font-size="10" font-weight="700" x="59.4546" y="75.5635">alt</text><text fill="#000000" font-family="Helvetica" font-size="10" font-weight="700" x="119.4106" y="76.5635">[macOS, iOS, iPadOS]</text><line style="stroke:#000000;stroke-width:1;stroke-dasharray:2,2;" x1="44.4546" x2="596.5415" y1="234.125" y2="234.125"/><text fill="#000000" font-family="Helvetica" font-size="10" font-weight="700" x="49.4546" y="245.4072">[Software Attestation (Fallback)]</text><path d="M366.9194,93.9219 L366.9194,114.9219 L569.9194,114.9219 L569.9194,103.9219 L559.9194,93.9219 L366.9194,93.9219" fill="#FEFFDD" style="stroke:#181818;stroke-width:0.5;"/><path d="M559.9194,93.9219 L559.9194,103.9219 L569.9194,103.9219 L559.9194,93.9219" fill="#FEFFDD" style="stroke:#181818;stroke-width:0.5;"/><text fill="#000000" font-family="Helvetica" font-size="10" x="372.9194" y="108.2041">App nutzt native Apple-Frameworks.</text><polygon fill="#181818" points="214.6597,134.2031,204.6597,138.2031,214.6597,142.2031,210.6597,138.2031" style="stroke:#181818;stroke-width:1;"/><line style="stroke:#181818;stroke-width:1;" x1="208.6597" x2="569.5415" y1="138.2031" y2="138.2031"/><text fill="#000000" font-family="Helvetica" font-size="10" x="220.6597" y="133.8447">(01)</text><text fill="#000000" font-family="Helvetica" font-size="10" x="245.187" y="133.8447">DCAppAttest.generateAssertion(keyId_AK, hash_puk_client_sig)</text><polygon fill="#181818" points="81.4546,159.8438,71.4546,163.8438,81.4546,167.8438,77.4546,163.8438" style="stroke:#181818;stroke-width:1;"/><line style="stroke:#181818;stroke-width:1;" x1="75.4546" x2="192.6597" y1="163.8438" y2="163.8438"/><text fill="#000000" font-family="Helvetica" font-size="10" x="87.4546" y="159.4854">(02)</text><text fill="#000000" font-family="Helvetica" font-size="10" x="111.9819" y="159.4854">Signiere Hash</text><polygon fill="#181818" points="181.6597,185.4844,191.6597,189.4844,181.6597,193.4844,185.6597,189.4844" style="stroke:#181818;stroke-width:1;"/><line style="stroke:#181818;stroke-width:1;stroke-dasharray:2,2;" x1="70.4546" x2="187.6597" y1="189.4844" y2="189.4844"/><text fill="#000000" font-family="Helvetica" font-size="10" x="77.4546" y="185.126">(03)</text><text fill="#000000" font-family="Helvetica" font-size="10" x="101.9819" y="185.126">ECDSA Signatur</text><polygon fill="#181818" points="558.5415,211.125,568.5415,215.125,558.5415,219.125,562.5415,215.125" style="stroke:#181818;stroke-width:1;"/><line style="stroke:#181818;stroke-width:1;stroke-dasharray:2,2;" x1="203.6597" x2="564.5415" y1="215.125" y2="215.125"/><text fill="#000000" font-family="Helvetica" font-size="10" x="210.6597" y="210.7666">(04)</text><text fill="#000000" font-family="Helvetica" font-size="10" x="235.187" y="210.7666">apple_assertion_object</text><path d="M326.5581,257.7656 L326.5581,290.7656 L569.5581,290.7656 L569.5581,267.7656 L559.5581,257.7656 L326.5581,257.7656" fill="#FEFFDD" style="stroke:#181818;stroke-width:0.5;"/><path d="M559.5581,257.7656 L559.5581,267.7656 L569.5581,267.7656 L559.5581,257.7656" fill="#FEFFDD" style="stroke:#181818;stroke-width:0.5;"/><text fill="#000000" font-family="Helvetica" font-size="10" x="332.5581" y="272.0479">Keine Hardware-Bindung.</text><text fill="#000000" font-family="Helvetica" font-size="10" x="332.5581" y="283.6885">App oder Client erstellt prk_client_sig selbst.</text><?plantuml-src ZLHXJzim4FtkNt6K3oigWMv2cuOGKfgc0z7Iga6QDasgtEIIchfsPZimcFZlkoGDj5qdxKCYs_VU-TqxsxnmMXMhEHfejRlTenQpIw5oRlWA4anv8Tr0AnU9PuJttVt1Mxv2k4BvW4x4V0FJhp4ZhRJDUOp9AphGXH5eDh0ILUOMVd9VM0TAAzo8MVnPe8fnYYcQSj3ZyJ8pkb19eAKsy7KXt2OXsYMyrV1XJzuHMiipzAN850b97Lk81C4w8cltb2DZxw2dVq5SxcRP0HKl5C8ml9u5u-5u2eTV5jgwMiPsT3GPtuQtTmqkF0lF1cUlcCdqUkI7q-XRT1UE6ioGFw1Ao9q6DHhtheTX4qunZTEqb3JXXXmNELUkaNPXtPF4IzQKrXSyAqlzpG3o3NWv1pXvHiVNOu1TLmy7W_1Z4AoZGrAoNkz_-jphTglr5rP_KgGeIwrrilqDsaxJamIgw2_iudIjcntaXcSh3WxrCpXJaFTpShxbvxb4Eb4F8aPehtWyZev1LBy9JyRHKMlBffroMn76XK48LIp9tHPm2r6uhqMxn744RTe6Jj_s8MwbXbR_8y7tyCw7G0fKhgBMGxYuABs_l6JKQg0A6MDSElYxC5RPLhCwdMgYjCFgd89Erv7pKXAemZtJxU5EF62jqHjGz_5HcwKzgRWRsS2xR0hfTCwX7z34TmwjEybGeU4EVMkHQj6glSIdwsJctnp3Wjl5B2-MixZAChCYEwgoDgPGsYWiCqPqd-YMq-D0b0f2ddjlkthUEOH1F_8h97U5sSv3o5ff2UJbwemtWcPwVe-nsoZ7ynX3QH4YdRf7JjlMnV0I3kq1bt9E9-xetnRUO7c2hxX9IhhN4oefL7RoGvNUQhgHZN5ew6sGrAxSRDf03ugSatjbJzaV?></g></svg>