<svg xmlns="http://www.w3.org/2000/svg" xmlns:xlink="http://www.w3.org/1999/xlink" contentStyleType="text/css" data-diagram-type="SEQUENCE" height="342px" preserveAspectRatio="none" style="width:586px;height:342px;background:#FFFFFF;" version="1.1" viewBox="0 0 586 342" width="586px" zoomAndPan="magnify"><?plantuml 1.2026.3?><defs/><g><rect fill="#FEFCFF" height="316.0469" style="stroke:#181818;stroke-width:0.5;" width="499.4419" x="16" y="11"/><text fill="#000000" font-family="Helvetica" font-size="10" font-weight="700" x="246.8513" y="20.2822">Device</text><rect fill="#E6E6FA" height="299.4063" style="stroke:#181818;stroke-width:0.5;" width="102.1934" x="413.2485" y="27.6406"/><text fill="#000000" font-family="Helvetica" font-size="10" font-weight="700" x="425.2485" y="36.9229">Prim&#228;rsystem</text><g><title>TPM . SE</title><rect fill="#000000" fill-opacity="0.00000" height="224.4844" width="8" x="45.0796" y="69.9219"/><line style="stroke:#000000;stroke-width:0.5;stroke-dasharray:5,5;" x1="48.5796" x2="48.5796" y1="69.9219" y2="294.4063"/></g><g><title>ZAS</title><rect fill="#000000" fill-opacity="0.00000" height="224.4844" width="8" x="271.2925" y="69.9219"/><line style="stroke:#000000;stroke-width:0.5;stroke-dasharray:5,5;" x1="274.7925" x2="274.7925" y1="69.9219" y2="294.4063"/></g><g><title/><rect fill="#FFFFFF" height="106.5625" style="stroke:#181818;stroke-width:1;" width="10" x="269.7925" y="105.5625"/></g><g><title>ZETA Client</title><rect fill="#000000" fill-opacity="0.00000" height="224.4844" width="8" x="460.8452" y="69.9219"/><line style="stroke:#000000;stroke-width:0.5;stroke-dasharray:5,5;" x1="464.3452" x2="464.3452" y1="69.9219" y2="294.4063"/></g><g><title/><rect fill="#FFFFFF" height="60.2813" style="stroke:#181818;stroke-width:1;" width="10" x="459.3452" y="234.125"/></g><rect fill="#E4E4F4" height="25.6406" rx="2.5" ry="2.5" style="stroke:#181818;stroke-width:0.5;" width="57.1592" x="20" y="43.2813"/><text fill="#000000" font-family="Helvetica" font-size="10" x="27" y="59.5635">TPM / SE</text><rect fill="#FFE6CC" height="25.6406" rx="2.5" ry="2.5" style="stroke:#D79B00;stroke-width:0.5;" width="34.0391" x="257.7729" y="43.2813"/><text fill="#000000" font-family="Helvetica" font-size="10" x="264.7729" y="59.5635">ZAS</text><rect fill="#FFE6CC" height="25.6406" rx="2.5" ry="2.5" style="stroke:#D79B00;stroke-width:0.5;" width="72.2471" x="428.2217" y="43.2813"/><text fill="#000000" font-family="Helvetica" font-size="10" x="435.2217" y="59.5635">ZETA Client</text><rect fill="#E4E4F4" height="25.6406" rx="2.5" ry="2.5" style="stroke:#181818;stroke-width:0.5;" width="57.1592" x="20" y="294.4063"/><text fill="#000000" font-family="Helvetica" font-size="10" x="27" y="310.6885">TPM / SE</text><rect fill="#FFE6CC" height="25.6406" rx="2.5" ry="2.5" style="stroke:#D79B00;stroke-width:0.5;" width="34.0391" x="257.7729" y="294.4063"/><text fill="#000000" font-family="Helvetica" font-size="10" x="264.7729" y="310.6885">ZAS</text><rect fill="#FFE6CC" height="25.6406" rx="2.5" ry="2.5" style="stroke:#D79B00;stroke-width:0.5;" width="72.2471" x="428.2217" y="294.4063"/><text fill="#000000" font-family="Helvetica" font-size="10" x="435.2217" y="310.6885">ZETA Client</text><path d="M32.5796,81.9219 L92.5356,81.9219 L92.5356,85.5625 L82.5356,95.5625 L32.5796,95.5625 L32.5796,81.9219" fill="#EEEEEE" style="stroke:#000000;stroke-width:1.5;"/><rect fill="none" height="138.2031" style="stroke:#000000;stroke-width:1.5;" width="447.7656" x="32.5796" y="81.9219"/><text fill="#000000" font-family="Helvetica" font-size="10" font-weight="700" x="47.5796" y="92.2041">alt</text><text fill="#000000" font-family="Helvetica" font-size="10" font-weight="700" x="107.5356" y="93.2041">[Windows / Linux (TPM)]</text><line style="stroke:#181818;stroke-width:1;" x1="279.7925" x2="321.7925" y1="134.8438" y2="134.8438"/><line style="stroke:#181818;stroke-width:1;" x1="321.7925" x2="321.7925" y1="134.8438" y2="147.8438"/><line style="stroke:#181818;stroke-width:1;" x1="280.7925" x2="321.7925" y1="147.8438" y2="147.8438"/><polygon fill="#181818" points="290.7925,143.8438,280.7925,147.8438,290.7925,151.8438,286.7925,147.8438" style="stroke:#181818;stroke-width:1;"/><text fill="#000000" font-family="Helvetica" font-size="10" x="286.7925" y="124.665">(01)</text><text fill="#000000" font-family="Helvetica" font-size="10" x="311.3198" y="118.8447">Startet als Hintergrunddienst</text><text fill="#000000" font-family="Helvetica" font-size="10" x="314.4985" y="130.4854">(Root/Admin)</text><line style="stroke:#181818;stroke-width:1;" x1="279.7925" x2="321.7925" y1="173.4844" y2="173.4844"/><line style="stroke:#181818;stroke-width:1;" x1="321.7925" x2="321.7925" y1="173.4844" y2="186.4844"/><line style="stroke:#181818;stroke-width:1;" x1="280.7925" x2="321.7925" y1="186.4844" y2="186.4844"/><polygon fill="#181818" points="290.7925,182.4844,280.7925,186.4844,290.7925,190.4844,286.7925,186.4844" style="stroke:#181818;stroke-width:1;"/><text fill="#000000" font-family="Helvetica" font-size="10" x="286.7925" y="169.126">(02)</text><text fill="#000000" font-family="Helvetica" font-size="10" x="311.3198" y="169.126">Messung des PS</text><polygon fill="#181818" points="59.5796,208.125,49.5796,212.125,59.5796,216.125,55.5796,212.125" style="stroke:#181818;stroke-width:1;"/><line style="stroke:#181818;stroke-width:1;" x1="53.5796" x2="268.7925" y1="212.125" y2="212.125"/><text fill="#000000" font-family="Helvetica" font-size="10" x="65.5796" y="207.7666">(03)</text><text fill="#000000" font-family="Helvetica" font-size="10" x="90.1069" y="207.7666">TPM2_PCR_Extend(23, Messwerte)</text><line style="stroke:#181818;stroke-width:1;" x1="469.3452" x2="511.3452" y1="263.4063" y2="263.4063"/><line style="stroke:#181818;stroke-width:1;" x1="511.3452" x2="511.3452" y1="263.4063" y2="276.4063"/><line style="stroke:#181818;stroke-width:1;" x1="470.3452" x2="511.3452" y1="276.4063" y2="276.4063"/><polygon fill="#181818" points="480.3452,272.4063,470.3452,276.4063,480.3452,280.4063,476.3452,276.4063" style="stroke:#181818;stroke-width:1;"/><text fill="#000000" font-family="Helvetica" font-size="10" x="476.3452" y="253.2275">(04)</text><text fill="#000000" font-family="Helvetica" font-size="10" x="500.8726" y="247.4072">Start</text><text fill="#000000" font-family="Helvetica" font-size="10" x="504.0513" y="259.0479">(User Space)</text><?plantuml-src TLJjRjem5FtlfxZBf0tKTMMKTbs5a20nBH8KbD1MgoOXbpZ1Qx1PxD2FgM-pDzcBxPea55hs8xATU-wvznwVX6L6oMn-orDmAhLQrI7wJiW5IzaSGXwnB35T9KqWdZXygUqENh0vXtEUBBaHKxQ1yNBCG4cb5spAmpNQLLagUBg1JRYCpQmT_ioq0QaatuXf_YlZSifz7l7KRZfiUXUdAfEXgnALmlLCcCs4u7N2ompr7Rm3hZMBUJiHiSH68aDc8kIW3IOhyxZWX7o4Zdg0gQscoJiSNaWEDtJSdfnTjdrluWxxGn_UTxlTGtgq1lHfhuoSpPGsUP_RqS5eU44lnYMEDcYZsrXZHdvlqAP-y3qOqq69wRCbbo7Azu8QNlKywgz9lAv7tNNOerSzbvR1Y4VJAB8ZZLYADoOMJ9fojAOsZmblaL8QJx3OIlMR02msuFOCyFc96rRi0LxV2gf1ZrstYFQna-Azz_LRfrPRlN_EUHQfMgBawV-vl2DwuZNUSftKEuV7nsik-oGYuecTEoVRRPPjcaw2e5NwCsaU51gWGaQO1DsQ28up1mO5W0_Gay88bWYD3ivaJCYxHShYEGF3rHEOD4E_tA9R78ylnPGxM_g_qj4PZmPm005rW6cmXnskU9LpqmuisC7LWMRJta6hXPXLpL4gvd__fFeHtJjtTlbdDVecNp7UYX8TNPotgD5kbfwKAs69WMiXGtMliNqKCdk02hPVNR5ZPtjxvGxsMtOvpVNZM2ZHS2uaVbqnwXU6M4sR7n8glbBce1tEXSnftZ3O3nKLnv-FXb6m6SRI-_kdTgbFHgu_eGy6UwtK3p-jakuvLgxQzWd9nyF-YhanEzyL7O9jvLAZ6GFxqwgIVm00?></g></svg>