<svg xmlns="http://www.w3.org/2000/svg" xmlns:xlink="http://www.w3.org/1999/xlink" contentStyleType="text/css" data-diagram-type="SEQUENCE" height="416px" preserveAspectRatio="none" style="width:808px;height:416px;background:#FFFFFF;" version="1.1" viewBox="0 0 808 416" width="808px" zoomAndPan="magnify"><?plantuml 1.2026.3?><defs/><g><rect fill="#E6E6FA" height="390.6094" style="stroke:#181818;stroke-width:0.5;" width="578.6895" x="72.168" y="11"/><text fill="#000000" font-family="Helvetica" font-size="10" font-weight="700" x="232.2964" y="20.2822">Prim&#228;rsystem oder App (macOS, iOS, iPadOS)</text><g><title>Apple</title><rect fill="#000000" fill-opacity="0.00000" height="292.4063" width="8" x="34.584" y="64.9219"/><line style="stroke:#000000;stroke-width:0.5;stroke-dasharray:5,5;" x1="38.084" x2="38.084" y1="64.9219" y2="357.3281"/></g><g><title>Secure Enclave</title><rect fill="#000000" fill-opacity="0.00000" height="292.4063" width="8" x="123.0474" y="64.9219"/><line style="stroke:#000000;stroke-width:0.5;stroke-dasharray:5,5;" x1="126.5474" x2="126.5474" y1="64.9219" y2="357.3281"/></g><g><title/><rect fill="#FFFFFF" height="25.6406" style="stroke:#181818;stroke-width:1;" width="10" x="121.5474" y="194.125"/></g><g><title>OS .iOS . iPadOS.</title><rect fill="#000000" fill-opacity="0.00000" height="292.4063" width="8" x="347.146" y="64.9219"/><line style="stroke:#000000;stroke-width:0.5;stroke-dasharray:5,5;" x1="350.646" x2="350.646" y1="64.9219" y2="357.3281"/></g><g><title/><rect fill="#FFFFFF" height="188.8438" style="stroke:#181818;stroke-width:1;" width="10" x="345.646" y="168.4844"/></g><g><title>ZETA Client</title><rect fill="#000000" fill-opacity="0.00000" height="292.4063" width="8" x="602.3091" y="64.9219"/><line style="stroke:#000000;stroke-width:0.5;stroke-dasharray:5,5;" x1="605.8091" x2="605.8091" y1="64.9219" y2="357.3281"/></g><g><title/><rect fill="#FFFFFF" height="284.4063" style="stroke:#181818;stroke-width:1;" width="10" x="600.8091" y="72.9219"/></g><rect fill="#E2E2F0" height="37.2813" rx="2.5" ry="2.5" style="stroke:#181818;stroke-width:0.5;" width="56.168" x="10" y="26.6406"/><text fill="#000000" font-family="Helvetica" font-size="10" x="23.8506" y="42.9229">Apple</text><text fill="#000000" font-family="Helvetica" font-size="10" x="17" y="54.5635">Services</text><rect fill="#E4E4F4" height="25.6406" rx="2.5" ry="2.5" style="stroke:#181818;stroke-width:0.5;" width="90.9092" x="81.0928" y="38.2813"/><text fill="#000000" font-family="Helvetica" font-size="10" x="88.0928" y="54.5635">Secure Enclave</text><rect fill="#E4E4F4" height="25.6406" rx="2.5" ry="2.5" style="stroke:#181818;stroke-width:0.5;" width="101.4268" x="299.9326" y="38.2813"/><text fill="#000000" font-family="Helvetica" font-size="10" x="306.9326" y="54.5635">OS (iOS / iPadOS)</text><rect fill="#FFE6CC" height="25.6406" rx="2.5" ry="2.5" style="stroke:#D79B00;stroke-width:0.5;" width="72.2471" x="569.6855" y="38.2813"/><text fill="#000000" font-family="Helvetica" font-size="10" x="576.6855" y="54.5635">ZETA Client</text><rect fill="#E2E2F0" height="37.2813" rx="2.5" ry="2.5" style="stroke:#181818;stroke-width:0.5;" width="56.168" x="10" y="357.3281"/><text fill="#000000" font-family="Helvetica" font-size="10" x="23.8506" y="373.6104">Apple</text><text fill="#000000" font-family="Helvetica" font-size="10" x="17" y="385.251">Services</text><rect fill="#E4E4F4" height="25.6406" rx="2.5" ry="2.5" style="stroke:#181818;stroke-width:0.5;" width="90.9092" x="81.0928" y="357.3281"/><text fill="#000000" font-family="Helvetica" font-size="10" x="88.0928" y="373.6104">Secure Enclave</text><rect fill="#E4E4F4" height="25.6406" rx="2.5" ry="2.5" style="stroke:#181818;stroke-width:0.5;" width="101.4268" x="299.9326" y="357.3281"/><text fill="#000000" font-family="Helvetica" font-size="10" x="306.9326" y="373.6104">OS (iOS / iPadOS)</text><rect fill="#FFE6CC" height="25.6406" rx="2.5" ry="2.5" style="stroke:#D79B00;stroke-width:0.5;" width="72.2471" x="569.6855" y="357.3281"/><text fill="#000000" font-family="Helvetica" font-size="10" x="576.6855" y="373.6104">ZETA Client</text><line style="stroke:#181818;stroke-width:1;stroke-dasharray:2,2;" x1="610.8091" x2="652.8091" y1="90.5625" y2="90.5625"/><line style="stroke:#181818;stroke-width:1;stroke-dasharray:2,2;" x1="652.8091" x2="652.8091" y1="90.5625" y2="103.5625"/><line style="stroke:#181818;stroke-width:1;stroke-dasharray:2,2;" x1="611.8091" x2="652.8091" y1="103.5625" y2="103.5625"/><polygon fill="#181818" points="621.8091,99.5625,611.8091,103.5625,621.8091,107.5625,617.8091,103.5625" style="stroke:#181818;stroke-width:1;"/><text fill="#000000" font-family="Helvetica" font-size="10" x="617.8091" y="86.2041">(01)</text><text fill="#000000" font-family="Helvetica" font-size="10" x="642.3364" y="86.2041">Installation (User Space)</text><path d="M105.5474,115.5625 L165.5034,115.5625 L165.5034,119.2031 L155.5034,129.2031 L105.5474,129.2031 L105.5474,115.5625" fill="#EEEEEE" style="stroke:#000000;stroke-width:1.5;"/><rect fill="none" height="217.7656" style="stroke:#000000;stroke-width:1.5;" width="683.3242" x="105.5474" y="115.5625"/><text fill="#000000" font-family="Helvetica" font-size="10" font-weight="700" x="120.5474" y="125.8447">alt</text><text fill="#000000" font-family="Helvetica" font-size="10" font-weight="700" x="180.5034" y="126.8447">[Hardware Attestation (Secure Enclave)]</text><line style="stroke:#000000;stroke-width:1;stroke-dasharray:2,2;" x1="105.5474" x2="788.8716" y1="264.4063" y2="264.4063"/><text fill="#000000" font-family="Helvetica" font-size="10" font-weight="700" x="110.5474" y="275.6885">[Software Attestation (Fallback)]</text><polygon fill="#181818" points="366.646,164.4844,356.646,168.4844,366.646,172.4844,362.646,168.4844" style="stroke:#181818;stroke-width:1;"/><line style="stroke:#181818;stroke-width:1;" x1="360.646" x2="599.8091" y1="168.4844" y2="168.4844"/><text fill="#000000" font-family="Helvetica" font-size="10" x="372.646" y="158.3057">(02)</text><text fill="#000000" font-family="Helvetica" font-size="10" x="397.1733" y="152.4854">SecKeyCreateRandomKey</text><text fill="#000000" font-family="Helvetica" font-size="10" x="397.1733" y="164.126">(f&#252;r PrK.Client.Sig, PuK.Client.Sig in SE)</text><polygon fill="#181818" points="142.5474,190.125,132.5474,194.125,142.5474,198.125,138.5474,194.125" style="stroke:#181818;stroke-width:1;"/><line style="stroke:#181818;stroke-width:1;" x1="136.5474" x2="344.646" y1="194.125" y2="194.125"/><text fill="#000000" font-family="Helvetica" font-size="10" x="148.5474" y="189.7666">(03)</text><text fill="#000000" font-family="Helvetica" font-size="10" x="173.0747" y="189.7666">Generiere Schl&#252;ssel (Client.Sig)</text><polygon fill="#181818" points="333.646,215.7656,343.646,219.7656,333.646,223.7656,337.646,219.7656" style="stroke:#181818;stroke-width:1;"/><line style="stroke:#181818;stroke-width:1;stroke-dasharray:2,2;" x1="131.5474" x2="339.646" y1="219.7656" y2="219.7656"/><text fill="#000000" font-family="Helvetica" font-size="10" x="138.5474" y="215.4072">(04)</text><text fill="#000000" font-family="Helvetica" font-size="10" x="163.0747" y="215.4072">keyId (Referenz f&#252;r PrK.Client.Sig)</text><polygon fill="#181818" points="588.8091,241.4063,598.8091,245.4063,588.8091,249.4063,592.8091,245.4063" style="stroke:#181818;stroke-width:1;"/><line style="stroke:#181818;stroke-width:1;stroke-dasharray:2,2;" x1="355.646" x2="594.8091" y1="245.4063" y2="245.4063"/><text fill="#000000" font-family="Helvetica" font-size="10" x="362.646" y="241.0479">(05)</text><text fill="#000000" font-family="Helvetica" font-size="10" x="387.1733" y="241.0479">keyId (Referenz f&#252;r PrK.Client.Sig)</text><line style="stroke:#181818;stroke-width:1;" x1="610.8091" x2="652.8091" y1="312.3281" y2="312.3281"/><line style="stroke:#181818;stroke-width:1;" x1="652.8091" x2="652.8091" y1="312.3281" y2="325.3281"/><line style="stroke:#181818;stroke-width:1;" x1="611.8091" x2="652.8091" y1="325.3281" y2="325.3281"/><polygon fill="#181818" points="621.8091,321.3281,611.8091,325.3281,621.8091,329.3281,617.8091,325.3281" style="stroke:#181818;stroke-width:1;"/><text fill="#000000" font-family="Helvetica" font-size="10" x="617.8091" y="302.1494">(06)</text><text fill="#000000" font-family="Helvetica" font-size="10" x="642.3364" y="296.3291">Generiere PrK.Client.Sig,</text><text fill="#000000" font-family="Helvetica" font-size="10" x="642.3364" y="307.9697">PuK.Client.Sig</text><?plantuml-src ZLNRRXit47tdLqmsG2F1aQCaZfCQXW19kxA5I9QWTHAqC11GkoE9DPVSabotSf6_wMVapJ_MsPjkKT4-I20vPyxCd1boUUQqof8v6l0QxNRJO_PUg9GRda2C2vv9Dz3AXU8HuNNxkF669mZNA1_GYOZlOFmICzPAsvH766_GVPqPWMO7Ar4jtQeR_vPP1qehtB5P_3r35U4C5sZoHOz7zqkZCnNtjTG6lgo4stK83nssDRmvmZj6Q_aIkr8i5IMoS6mbOWJho5cxTOgClO2U_XEYF9fbpwXueH1-3MwxNwy-TMV-r_vaD9d1yy5Wy3Pujm6CWc5jkLffwyeyzwtZwUGckBcjSS5PS3Ouss2ci-6u6yp2NyBRO5nZHlm1LKpoRL6JpqC_c6r8_84VzFEifznGKqJAbQkplxHkBR73wkfzmPUv6dynW7G7dky1JX_HyMeDS2Wy5HoSz_kLTKIvLEV--vzxxNPn_gtaIOr-85NDltFvxu8F_jcFN1_UzDwUds-uyfyK2vHvvINPyNdOf-b90XNktzZbgqe3KiW99saWfK2gUQYiur9o9xI2duZN5c5QWUDpGfXCBHbxbXg-J3Wur8_WJ4RZiQkRrqrJYNSgHFCW8hGUS0l56PlJ37bJ8vAdlurTqtmbe7D9o0gDX4UJy2M8uc_AuqdOz8xr_w1DNeXHPX025KcQYo9Q61mRhaF7IGWDYWQljk7gJEdqlmagpSZ7osz2jVVWyZAVcKw7qP02bSnOQJavgHRGQdKgzCM-v8rFbkG8yyUYoHYN3gwvYV_WL5_NEIHa2TklkLcqkkRkr2MSd5pGIn1zn7NV87SuuohM2MtlL6FnzDt0r7myBRrEGx5y2TDiTmz2aP0bToqAaOT1pdk52lCN326CLlBfkwL1WSRMkNIZFhIs-RHQ5t2Fws4CZUfXUeGZUHn4t97gVpcZj9IKNhWVLHkGpdEw1OTwrVpReWwKkLFxqXJ-B-18DqVwdjDrobzKkYlqbR0mfJ7pINwnudP5UpI9eAoaQXxGR5d254MqoXFPtC1hSWQPizEzj8KL-3mVCVOF?></g></svg>