<svg xmlns="http://www.w3.org/2000/svg" xmlns:xlink="http://www.w3.org/1999/xlink" contentStyleType="text/css" data-diagram-type="SEQUENCE" height="673px" preserveAspectRatio="none" style="width:886px;height:673px;background:#FFFFFF;" version="1.1" viewBox="0 0 886 673" width="886px" zoomAndPan="magnify"><?plantuml 1.2026.3?><defs/><g><rect fill="#E6E6FA" height="647.0156" style="stroke:#181818;stroke-width:0.5;" width="656.3066" x="72.168" y="11"/><text fill="#000000" font-family="Helvetica" font-size="10" font-weight="700" x="271.105" y="20.2822">Prim&#228;rsystem oder App (macOS, iOS, iPadOS)</text><g><title>Apple</title><rect fill="#000000" fill-opacity="0.00000" height="548.8125" width="8" x="34.584" y="64.9219"/><line style="stroke:#000000;stroke-width:0.5;stroke-dasharray:5,5;" x1="38.084" x2="38.084" y1="64.9219" y2="613.7344"/></g><g><title/><rect fill="#FFFFFF" height="25.6406" style="stroke:#181818;stroke-width:1;" width="10" x="33.084" y="411.8906"/></g><g><title>Secure Enclave</title><rect fill="#000000" fill-opacity="0.00000" height="548.8125" width="8" x="123.0474" y="64.9219"/><line style="stroke:#000000;stroke-width:0.5;stroke-dasharray:5,5;" x1="126.5474" x2="126.5474" y1="64.9219" y2="613.7344"/></g><g><title/><rect fill="#FFFFFF" height="25.6406" style="stroke:#181818;stroke-width:1;" width="10" x="121.5474" y="155.4844"/></g><g><title/><rect fill="#FFFFFF" height="25.6406" style="stroke:#181818;stroke-width:1;" width="10" x="121.5474" y="258.0469"/></g><g><title/><rect fill="#FFFFFF" height="25.6406" style="stroke:#181818;stroke-width:1;" width="10" x="121.5474" y="360.6094"/></g><g><title>OS .iOS . iPadOS.</title><rect fill="#000000" fill-opacity="0.00000" height="548.8125" width="8" x="347.146" y="64.9219"/><line style="stroke:#000000;stroke-width:0.5;stroke-dasharray:5,5;" x1="350.646" x2="350.646" y1="64.9219" y2="613.7344"/></g><g><title/><rect fill="#FFFFFF" height="333.3281" style="stroke:#181818;stroke-width:1;" width="10" x="345.646" y="129.8438"/></g><g><title>ZETA Client</title><rect fill="#000000" fill-opacity="0.00000" height="548.8125" width="8" x="679.9263" y="64.9219"/><line style="stroke:#000000;stroke-width:0.5;stroke-dasharray:5,5;" x1="683.4263" x2="683.4263" y1="64.9219" y2="613.7344"/></g><g><title/><rect fill="#FFFFFF" height="513.1719" style="stroke:#181818;stroke-width:1;" width="10" x="678.4263" y="100.5625"/></g><rect fill="#E2E2F0" height="37.2813" rx="2.5" ry="2.5" style="stroke:#181818;stroke-width:0.5;" width="56.168" x="10" y="26.6406"/><text fill="#000000" font-family="Helvetica" font-size="10" x="23.8506" y="42.9229">Apple</text><text fill="#000000" font-family="Helvetica" font-size="10" x="17" y="54.5635">Services</text><rect fill="#E4E4F4" height="25.6406" rx="2.5" ry="2.5" style="stroke:#181818;stroke-width:0.5;" width="90.9092" x="81.0928" y="38.2813"/><text fill="#000000" font-family="Helvetica" font-size="10" x="88.0928" y="54.5635">Secure Enclave</text><rect fill="#E4E4F4" height="25.6406" rx="2.5" ry="2.5" style="stroke:#181818;stroke-width:0.5;" width="101.4268" x="299.9326" y="38.2813"/><text fill="#000000" font-family="Helvetica" font-size="10" x="306.9326" y="54.5635">OS (iOS / iPadOS)</text><rect fill="#FFE6CC" height="25.6406" rx="2.5" ry="2.5" style="stroke:#D79B00;stroke-width:0.5;" width="72.2471" x="647.3027" y="38.2813"/><text fill="#000000" font-family="Helvetica" font-size="10" x="654.3027" y="54.5635">ZETA Client</text><rect fill="#E2E2F0" height="37.2813" rx="2.5" ry="2.5" style="stroke:#181818;stroke-width:0.5;" width="56.168" x="10" y="613.7344"/><text fill="#000000" font-family="Helvetica" font-size="10" x="23.8506" y="630.0166">Apple</text><text fill="#000000" font-family="Helvetica" font-size="10" x="17" y="641.6572">Services</text><rect fill="#E4E4F4" height="25.6406" rx="2.5" ry="2.5" style="stroke:#181818;stroke-width:0.5;" width="90.9092" x="81.0928" y="613.7344"/><text fill="#000000" font-family="Helvetica" font-size="10" x="88.0928" y="630.0166">Secure Enclave</text><rect fill="#E4E4F4" height="25.6406" rx="2.5" ry="2.5" style="stroke:#181818;stroke-width:0.5;" width="101.4268" x="299.9326" y="613.7344"/><text fill="#000000" font-family="Helvetica" font-size="10" x="306.9326" y="630.0166">OS (iOS / iPadOS)</text><rect fill="#FFE6CC" height="25.6406" rx="2.5" ry="2.5" style="stroke:#D79B00;stroke-width:0.5;" width="72.2471" x="647.3027" y="613.7344"/><text fill="#000000" font-family="Helvetica" font-size="10" x="654.3027" y="630.0166">ZETA Client</text><path d="M17.084,76.9219 L77.04,76.9219 L77.04,80.5625 L67.04,90.5625 L17.084,90.5625 L17.084,76.9219" fill="#EEEEEE" style="stroke:#000000;stroke-width:1.5;"/><rect fill="none" height="512.8125" style="stroke:#000000;stroke-width:1.5;" width="849.4048" x="17.084" y="76.9219"/><text fill="#000000" font-family="Helvetica" font-size="10" font-weight="700" x="32.084" y="87.2041">alt</text><text fill="#000000" font-family="Helvetica" font-size="10" font-weight="700" x="92.04" y="88.2041">[Hardware Attestation (Secure Enclave)]</text><line style="stroke:#000000;stroke-width:1;stroke-dasharray:2,2;" x1="17.084" x2="866.4888" y1="482.1719" y2="482.1719"/><text fill="#000000" font-family="Helvetica" font-size="10" font-weight="700" x="22.084" y="493.4541">[Software Attestation (Fallback)]</text><polygon fill="#181818" points="366.646,125.8438,356.646,129.8438,366.646,133.8438,362.646,129.8438" style="stroke:#181818;stroke-width:1;"/><line style="stroke:#181818;stroke-width:1;" x1="360.646" x2="677.4263" y1="129.8438" y2="129.8438"/><text fill="#000000" font-family="Helvetica" font-size="10" x="372.646" y="119.665">(01)</text><text fill="#000000" font-family="Helvetica" font-size="10" x="397.1733" y="113.8447">SecKeyCreateRandomKey</text><text fill="#000000" font-family="Helvetica" font-size="10" x="397.1733" y="125.4854">(f&#252;r PrK.Client.Sig, PuK.Client.Sig in SE)</text><polygon fill="#181818" points="142.5474,151.4844,132.5474,155.4844,142.5474,159.4844,138.5474,155.4844" style="stroke:#181818;stroke-width:1;"/><line style="stroke:#181818;stroke-width:1;" x1="136.5474" x2="344.646" y1="155.4844" y2="155.4844"/><text fill="#000000" font-family="Helvetica" font-size="10" x="148.5474" y="151.126">(02)</text><text fill="#000000" font-family="Helvetica" font-size="10" x="173.0747" y="151.126">Generiere Schl&#252;ssel (Client.Sig)</text><polygon fill="#181818" points="333.646,177.125,343.646,181.125,333.646,185.125,337.646,181.125" style="stroke:#181818;stroke-width:1;"/><line style="stroke:#181818;stroke-width:1;stroke-dasharray:2,2;" x1="131.5474" x2="339.646" y1="181.125" y2="181.125"/><text fill="#000000" font-family="Helvetica" font-size="10" x="138.5474" y="176.7666">(03)</text><text fill="#000000" font-family="Helvetica" font-size="10" x="163.0747" y="176.7666">keyId (Referenz f&#252;r PrK.Client.Sig)</text><polygon fill="#181818" points="666.4263,202.7656,676.4263,206.7656,666.4263,210.7656,670.4263,206.7656" style="stroke:#181818;stroke-width:1;"/><line style="stroke:#181818;stroke-width:1;stroke-dasharray:2,2;" x1="355.646" x2="672.4263" y1="206.7656" y2="206.7656"/><text fill="#000000" font-family="Helvetica" font-size="10" x="362.646" y="202.4072">(04)</text><text fill="#000000" font-family="Helvetica" font-size="10" x="387.1733" y="202.4072">keyId (Referenz f&#252;r PrK.Client.Sig)</text><polygon fill="#181818" points="366.646,228.4063,356.646,232.4063,366.646,236.4063,362.646,232.4063" style="stroke:#181818;stroke-width:1;"/><line style="stroke:#181818;stroke-width:1;" x1="360.646" x2="677.4263" y1="232.4063" y2="232.4063"/><text fill="#000000" font-family="Helvetica" font-size="10" x="372.646" y="228.0479">(05)</text><text fill="#000000" font-family="Helvetica" font-size="10" x="397.1733" y="228.0479">DCAppAttestService.shared.generateKey()</text><polygon fill="#181818" points="142.5474,254.0469,132.5474,258.0469,142.5474,262.0469,138.5474,258.0469" style="stroke:#181818;stroke-width:1;"/><line style="stroke:#181818;stroke-width:1;" x1="136.5474" x2="344.646" y1="258.0469" y2="258.0469"/><text fill="#000000" font-family="Helvetica" font-size="10" x="148.5474" y="253.6885">(06)</text><text fill="#000000" font-family="Helvetica" font-size="10" x="173.0747" y="253.6885">Generiere Schl&#252;ssel (AK)</text><polygon fill="#181818" points="333.646,279.6875,343.646,283.6875,333.646,287.6875,337.646,283.6875" style="stroke:#181818;stroke-width:1;"/><line style="stroke:#181818;stroke-width:1;stroke-dasharray:2,2;" x1="131.5474" x2="339.646" y1="283.6875" y2="283.6875"/><text fill="#000000" font-family="Helvetica" font-size="10" x="138.5474" y="279.3291">(07)</text><text fill="#000000" font-family="Helvetica" font-size="10" x="163.0747" y="279.3291">keyId (Referenz f&#252;r PrK.AK.Sig)</text><polygon fill="#181818" points="666.4263,305.3281,676.4263,309.3281,666.4263,313.3281,670.4263,309.3281" style="stroke:#181818;stroke-width:1;"/><line style="stroke:#181818;stroke-width:1;stroke-dasharray:2,2;" x1="355.646" x2="672.4263" y1="309.3281" y2="309.3281"/><text fill="#000000" font-family="Helvetica" font-size="10" x="362.646" y="304.9697">(08)</text><text fill="#000000" font-family="Helvetica" font-size="10" x="387.1733" y="304.9697">keyId (Referenz f&#252;r PrK.AK.Sig)</text><polygon fill="#181818" points="366.646,330.9688,356.646,334.9688,366.646,338.9688,362.646,334.9688" style="stroke:#181818;stroke-width:1;"/><line style="stroke:#181818;stroke-width:1;" x1="360.646" x2="677.4263" y1="334.9688" y2="334.9688"/><text fill="#000000" font-family="Helvetica" font-size="10" x="372.646" y="330.6104">(09)</text><text fill="#000000" font-family="Helvetica" font-size="10" x="397.1733" y="330.6104">DCAppAttest.attestKey(keyId_AK, hash_puk_client_sig)</text><polygon fill="#181818" points="142.5474,356.6094,132.5474,360.6094,142.5474,364.6094,138.5474,360.6094" style="stroke:#181818;stroke-width:1;"/><line style="stroke:#181818;stroke-width:1;" x1="136.5474" x2="344.646" y1="360.6094" y2="360.6094"/><text fill="#000000" font-family="Helvetica" font-size="10" x="148.5474" y="356.251">(10)</text><text fill="#000000" font-family="Helvetica" font-size="10" x="173.0747" y="356.251">Attestiere Schl&#252;ssel</text><polygon fill="#181818" points="333.646,382.25,343.646,386.25,333.646,390.25,337.646,386.25" style="stroke:#181818;stroke-width:1;"/><line style="stroke:#181818;stroke-width:1;stroke-dasharray:2,2;" x1="131.5474" x2="339.646" y1="386.25" y2="386.25"/><text fill="#000000" font-family="Helvetica" font-size="10" x="138.5474" y="381.8916">(11)</text><text fill="#000000" font-family="Helvetica" font-size="10" x="163.0747" y="381.8916">Hardware-Signatur</text><polygon fill="#181818" points="54.084,407.8906,44.084,411.8906,54.084,415.8906,50.084,411.8906" style="stroke:#181818;stroke-width:1;"/><line style="stroke:#181818;stroke-width:1;" x1="48.084" x2="344.646" y1="411.8906" y2="411.8906"/><text fill="#000000" font-family="Helvetica" font-size="10" x="60.084" y="407.5322">(12)</text><text fill="#000000" font-family="Helvetica" font-size="10" x="84.6113" y="407.5322">Verifiziere &amp; erstelle CBOR</text><polygon fill="#181818" points="333.646,433.5313,343.646,437.5313,333.646,441.5313,337.646,437.5313" style="stroke:#181818;stroke-width:1;"/><line style="stroke:#181818;stroke-width:1;stroke-dasharray:2,2;" x1="43.084" x2="339.646" y1="437.5313" y2="437.5313"/><text fill="#000000" font-family="Helvetica" font-size="10" x="50.084" y="433.1729">(13)</text><text fill="#000000" font-family="Helvetica" font-size="10" x="74.6113" y="433.1729">apple_attestation_object</text><polygon fill="#181818" points="666.4263,459.1719,676.4263,463.1719,666.4263,467.1719,670.4263,463.1719" style="stroke:#181818;stroke-width:1;"/><line style="stroke:#181818;stroke-width:1;stroke-dasharray:2,2;" x1="355.646" x2="672.4263" y1="463.1719" y2="463.1719"/><text fill="#000000" font-family="Helvetica" font-size="10" x="362.646" y="458.8135">(14)</text><text fill="#000000" font-family="Helvetica" font-size="10" x="387.1733" y="458.8135">apple_attestation_object</text><line style="stroke:#181818;stroke-width:1;stroke-dasharray:2,2;" x1="688.4263" x2="730.4263" y1="518.4531" y2="518.4531"/><line style="stroke:#181818;stroke-width:1;stroke-dasharray:2,2;" x1="730.4263" x2="730.4263" y1="518.4531" y2="531.4531"/><line style="stroke:#181818;stroke-width:1;stroke-dasharray:2,2;" x1="689.4263" x2="730.4263" y1="531.4531" y2="531.4531"/><polygon fill="#181818" points="699.4263,527.4531,689.4263,531.4531,699.4263,535.4531,695.4263,531.4531" style="stroke:#181818;stroke-width:1;"/><text fill="#000000" font-family="Helvetica" font-size="10" x="695.4263" y="514.0947">(15)</text><text fill="#000000" font-family="Helvetica" font-size="10" x="719.9536" y="514.0947">Installation (User Space)</text><line style="stroke:#181818;stroke-width:1;" x1="688.4263" x2="730.4263" y1="568.7344" y2="568.7344"/><line style="stroke:#181818;stroke-width:1;" x1="730.4263" x2="730.4263" y1="568.7344" y2="581.7344"/><line style="stroke:#181818;stroke-width:1;" x1="689.4263" x2="730.4263" y1="581.7344" y2="581.7344"/><polygon fill="#181818" points="699.4263,577.7344,689.4263,581.7344,699.4263,585.7344,695.4263,581.7344" style="stroke:#181818;stroke-width:1;"/><text fill="#000000" font-family="Helvetica" font-size="10" x="695.4263" y="558.5557">(16)</text><text fill="#000000" font-family="Helvetica" font-size="10" x="719.9536" y="552.7354">Generiere PrK.Client.Sig,</text><text fill="#000000" font-family="Helvetica" font-size="10" x="719.9536" y="564.376">PuK.Client.Sig</text><?plantuml-src dLRjRjf85FtlfxXbfHQKGDaspNQZA19Wao0W89nsjQj8QB0lC6KOUsV6sOMgRzF7wB-ysDwnCHyEsMtt1p3ZkUVCFMVkNCCI4ybaEK45fNAzNYavUi5bp1HRGeXJbWZJZgJn-HhXv_hnnLksHBX1yO261smlnirY-f6CTCm23BVHhIXH7DLUh40vC_D6-2dH1cGaSMzDuvy9oW17E4Lb1qqMB6OgIcJOYaIauBSvD_i0lmZOQNXpXBUFMhCPDWIVIKfaQfmv3n6q8N1aLZ4wpYjeHdz3O7VJpWiIpoN27zvTOtpzeJ5onwr1Rp22dzhjzblltJQWvtNobUjvf4sMv-5gVpYuzMxlyZZlp3jhdsrZXgDEl-6D_D_zEw-Vn_JO0ygGxDj53JvsN6-q9N7RhjUoMG-PeaFXCPCcp_vIcvN0AoTNxt8sisvyTW3YlN0x1wYjqR3D6A1eF0dspbkjpMgFSjayTt_vjLclfy-_P3onYXx8LVKyb_lEU--UFULw_wRvzlnyosK_WazHMEKPsV5wEAHf2WfAuL-SozSR3yWXmusWWXGSIND7QiE4O8P74buIhqwtgNg6JIX29NBcE2zYnMPB1WQZDHYLK7di-rPgnB70U-cZUk01wX8m3UapPq8rL1egldpyglIAwci9aRM4Lg6yPC70FmMUVWrPEF0hfMFdNpYcaez1eX0y6GYgYtGttpjMN4NWm8SoxGQlTzlbcTBJ_oROU4QOahq9cta9BYzjpLnTELIaG98TXma3Dqo5Vp5Aj64CaikfnUN3v2lfcMKy9oUEipU5wbMUsid91Ttme8khba9cSCHa62rfUY_BqyTl2eQgMyjGDP_FJc6OxC-1Ip8esoeNI-I-PtclKQBjJ0X-C1UFtpGL09Htu0n6_bPt-LIh5x30LIU4ygRXhE587eKT2P-jVIVuk1SNuBPec7cwgRYQdfFFOMrcjP0_v4pvX-GskZyiiz7zdn9pu7V8gx7qnyf9wSQDxYdCcPwFusGn3bBiM3_98jUQaHJ4FgCpBzOgvIQPILIHCXrQre_atvIlKzgNW8ekjR3zf9bUbmscIC_iSCns5s4SJJvXO9wnxryXZeD2awHeQfvUhpOrimdrlSg1lNldSj3moXyqDIFVlgehXVF8utS5KxXaz_BmbgNuLyUsx4KBHfRObowrK_eZeM58dSYbIkNsD6cEQib9Xf2L0isEnO-H1tERoBP9tn0OX6Mdaz3fAh29xKBEFm00?></g></svg>