<svg xmlns="http://www.w3.org/2000/svg" xmlns:xlink="http://www.w3.org/1999/xlink" contentStyleType="text/css" data-diagram-type="SEQUENCE" height="673px" preserveAspectRatio="none" style="width:942px;height:673px;background:#FFFFFF;" version="1.1" viewBox="0 0 942 673" width="942px" zoomAndPan="magnify"><?plantuml 1.2026.3?><defs/><g><rect fill="#E6E6FA" height="647.0156" style="stroke:#181818;stroke-width:0.5;" width="712.2881" x="72.168" y="11"/><text fill="#000000" font-family="Helvetica" font-size="10" font-weight="700" x="299.0957" y="20.2822">Prim&#228;rsystem oder App (macOS, iOS, iPadOS)</text><g><title>Apple</title><rect fill="#000000" fill-opacity="0.00000" height="548.8125" width="8" x="34.584" y="64.9219"/><line style="stroke:#000000;stroke-width:0.5;stroke-dasharray:5,5;" x1="38.084" x2="38.084" y1="64.9219" y2="613.7344"/></g><g><title/><rect fill="#FFFFFF" height="25.6406" style="stroke:#181818;stroke-width:1;" width="10" x="33.084" y="411.8906"/></g><g><title>Secure Enclave</title><rect fill="#000000" fill-opacity="0.00000" height="548.8125" width="8" x="123.0474" y="64.9219"/><line style="stroke:#000000;stroke-width:0.5;stroke-dasharray:5,5;" x1="126.5474" x2="126.5474" y1="64.9219" y2="613.7344"/></g><g><title/><rect fill="#FFFFFF" height="25.6406" style="stroke:#181818;stroke-width:1;" width="10" x="121.5474" y="155.4844"/></g><g><title/><rect fill="#FFFFFF" height="25.6406" style="stroke:#181818;stroke-width:1;" width="10" x="121.5474" y="258.0469"/></g><g><title/><rect fill="#FFFFFF" height="25.6406" style="stroke:#181818;stroke-width:1;" width="10" x="121.5474" y="360.6094"/></g><g><title>OS .iOS . iPadOS.</title><rect fill="#000000" fill-opacity="0.00000" height="548.8125" width="8" x="403.1274" y="64.9219"/><line style="stroke:#000000;stroke-width:0.5;stroke-dasharray:5,5;" x1="406.6274" x2="406.6274" y1="64.9219" y2="613.7344"/></g><g><title/><rect fill="#FFFFFF" height="333.3281" style="stroke:#181818;stroke-width:1;" width="10" x="401.6274" y="129.8438"/></g><g><title>ZETA Client</title><rect fill="#000000" fill-opacity="0.00000" height="548.8125" width="8" x="735.9077" y="64.9219"/><line style="stroke:#000000;stroke-width:0.5;stroke-dasharray:5,5;" x1="739.4077" x2="739.4077" y1="64.9219" y2="613.7344"/></g><g><title/><rect fill="#FFFFFF" height="513.1719" style="stroke:#181818;stroke-width:1;" width="10" x="734.4077" y="100.5625"/></g><rect fill="#E2E2F0" height="37.2813" rx="2.5" ry="2.5" style="stroke:#181818;stroke-width:0.5;" width="56.168" x="10" y="26.6406"/><text fill="#000000" font-family="Helvetica" font-size="10" x="23.8506" y="42.9229">Apple</text><text fill="#000000" font-family="Helvetica" font-size="10" x="17" y="54.5635">Services</text><rect fill="#E4E4F4" height="25.6406" rx="2.5" ry="2.5" style="stroke:#181818;stroke-width:0.5;" width="90.9092" x="81.0928" y="38.2813"/><text fill="#000000" font-family="Helvetica" font-size="10" x="88.0928" y="54.5635">Secure Enclave</text><rect fill="#E4E4F4" height="25.6406" rx="2.5" ry="2.5" style="stroke:#181818;stroke-width:0.5;" width="101.4268" x="355.9141" y="38.2813"/><text fill="#000000" font-family="Helvetica" font-size="10" x="362.9141" y="54.5635">OS (iOS / iPadOS)</text><rect fill="#FFE6CC" height="25.6406" rx="2.5" ry="2.5" style="stroke:#D79B00;stroke-width:0.5;" width="72.2471" x="703.2842" y="38.2813"/><text fill="#000000" font-family="Helvetica" font-size="10" x="710.2842" y="54.5635">ZETA Client</text><rect fill="#E2E2F0" height="37.2813" rx="2.5" ry="2.5" style="stroke:#181818;stroke-width:0.5;" width="56.168" x="10" y="613.7344"/><text fill="#000000" font-family="Helvetica" font-size="10" x="23.8506" y="630.0166">Apple</text><text fill="#000000" font-family="Helvetica" font-size="10" x="17" y="641.6572">Services</text><rect fill="#E4E4F4" height="25.6406" rx="2.5" ry="2.5" style="stroke:#181818;stroke-width:0.5;" width="90.9092" x="81.0928" y="613.7344"/><text fill="#000000" font-family="Helvetica" font-size="10" x="88.0928" y="630.0166">Secure Enclave</text><rect fill="#E4E4F4" height="25.6406" rx="2.5" ry="2.5" style="stroke:#181818;stroke-width:0.5;" width="101.4268" x="355.9141" y="613.7344"/><text fill="#000000" font-family="Helvetica" font-size="10" x="362.9141" y="630.0166">OS (iOS / iPadOS)</text><rect fill="#FFE6CC" height="25.6406" rx="2.5" ry="2.5" style="stroke:#D79B00;stroke-width:0.5;" width="72.2471" x="703.2842" y="613.7344"/><text fill="#000000" font-family="Helvetica" font-size="10" x="710.2842" y="630.0166">ZETA Client</text><path d="M17.084,76.9219 L77.04,76.9219 L77.04,80.5625 L67.04,90.5625 L17.084,90.5625 L17.084,76.9219" fill="#EEEEEE" style="stroke:#000000;stroke-width:1.5;"/><rect fill="none" height="512.8125" style="stroke:#000000;stroke-width:1.5;" width="905.3862" x="17.084" y="76.9219"/><text fill="#000000" font-family="Helvetica" font-size="10" font-weight="700" x="32.084" y="87.2041">alt</text><text fill="#000000" font-family="Helvetica" font-size="10" font-weight="700" x="92.04" y="88.2041">[Hardware Attestation (Secure Enclave)]</text><line style="stroke:#000000;stroke-width:1;stroke-dasharray:2,2;" x1="17.084" x2="922.4702" y1="482.1719" y2="482.1719"/><text fill="#000000" font-family="Helvetica" font-size="10" font-weight="700" x="22.084" y="493.4541">[Software Attestation (Fallback)]</text><polygon fill="#181818" points="422.6274,125.8438,412.6274,129.8438,422.6274,133.8438,418.6274,129.8438" style="stroke:#181818;stroke-width:1;"/><line style="stroke:#181818;stroke-width:1;" x1="416.6274" x2="733.4077" y1="129.8438" y2="129.8438"/><text fill="#000000" font-family="Helvetica" font-size="10" x="428.6274" y="119.665">(01)</text><text fill="#000000" font-family="Helvetica" font-size="10" x="453.1548" y="113.8447">SecKeyCreateRandomKey</text><text fill="#000000" font-family="Helvetica" font-size="10" x="453.1548" y="125.4854">(f&#252;r PrK.Client.Sig, PuK.Client.Sig in SE)</text><polygon fill="#181818" points="142.5474,151.4844,132.5474,155.4844,142.5474,159.4844,138.5474,155.4844" style="stroke:#181818;stroke-width:1;"/><line style="stroke:#181818;stroke-width:1;" x1="136.5474" x2="400.6274" y1="155.4844" y2="155.4844"/><text fill="#000000" font-family="Helvetica" font-size="10" x="148.5474" y="151.126">(02)</text><text fill="#000000" font-family="Helvetica" font-size="10" x="173.0747" y="151.126">Generiere Schl&#252;ssel (Client.Sig)</text><polygon fill="#181818" points="389.6274,177.125,399.6274,181.125,389.6274,185.125,393.6274,181.125" style="stroke:#181818;stroke-width:1;"/><line style="stroke:#181818;stroke-width:1;stroke-dasharray:2,2;" x1="131.5474" x2="395.6274" y1="181.125" y2="181.125"/><text fill="#000000" font-family="Helvetica" font-size="10" x="138.5474" y="176.7666">(03)</text><text fill="#000000" font-family="Helvetica" font-size="10" x="163.0747" y="176.7666">keyId (Referenz f&#252;r PrK.Client.Sig)</text><polygon fill="#181818" points="722.4077,202.7656,732.4077,206.7656,722.4077,210.7656,726.4077,206.7656" style="stroke:#181818;stroke-width:1;"/><line style="stroke:#181818;stroke-width:1;stroke-dasharray:2,2;" x1="411.6274" x2="728.4077" y1="206.7656" y2="206.7656"/><text fill="#000000" font-family="Helvetica" font-size="10" x="418.6274" y="202.4072">(04)</text><text fill="#000000" font-family="Helvetica" font-size="10" x="443.1548" y="202.4072">keyId (Referenz f&#252;r PrK.Client.Sig)</text><polygon fill="#181818" points="422.6274,228.4063,412.6274,232.4063,422.6274,236.4063,418.6274,232.4063" style="stroke:#181818;stroke-width:1;"/><line style="stroke:#181818;stroke-width:1;" x1="416.6274" x2="733.4077" y1="232.4063" y2="232.4063"/><text fill="#000000" font-family="Helvetica" font-size="10" x="428.6274" y="228.0479">(05)</text><text fill="#000000" font-family="Helvetica" font-size="10" x="453.1548" y="228.0479">DCAppAttestService.shared.generateKey()</text><polygon fill="#181818" points="142.5474,254.0469,132.5474,258.0469,142.5474,262.0469,138.5474,258.0469" style="stroke:#181818;stroke-width:1;"/><line style="stroke:#181818;stroke-width:1;" x1="136.5474" x2="400.6274" y1="258.0469" y2="258.0469"/><text fill="#000000" font-family="Helvetica" font-size="10" x="148.5474" y="253.6885">(06)</text><text fill="#000000" font-family="Helvetica" font-size="10" x="173.0747" y="253.6885">Generiere Schl&#252;ssel (AK)</text><polygon fill="#181818" points="389.6274,279.6875,399.6274,283.6875,389.6274,287.6875,393.6274,283.6875" style="stroke:#181818;stroke-width:1;"/><line style="stroke:#181818;stroke-width:1;stroke-dasharray:2,2;" x1="131.5474" x2="395.6274" y1="283.6875" y2="283.6875"/><text fill="#000000" font-family="Helvetica" font-size="10" x="138.5474" y="279.3291">(07)</text><text fill="#000000" font-family="Helvetica" font-size="10" x="163.0747" y="279.3291">keyId (Referenz f&#252;r PrK.AK.Sig)</text><polygon fill="#181818" points="722.4077,305.3281,732.4077,309.3281,722.4077,313.3281,726.4077,309.3281" style="stroke:#181818;stroke-width:1;"/><line style="stroke:#181818;stroke-width:1;stroke-dasharray:2,2;" x1="411.6274" x2="728.4077" y1="309.3281" y2="309.3281"/><text fill="#000000" font-family="Helvetica" font-size="10" x="418.6274" y="304.9697">(08)</text><text fill="#000000" font-family="Helvetica" font-size="10" x="443.1548" y="304.9697">keyId (Referenz f&#252;r PrK.AK.Sig)</text><polygon fill="#181818" points="422.6274,330.9688,412.6274,334.9688,422.6274,338.9688,418.6274,334.9688" style="stroke:#181818;stroke-width:1;"/><line style="stroke:#181818;stroke-width:1;" x1="416.6274" x2="733.4077" y1="334.9688" y2="334.9688"/><text fill="#000000" font-family="Helvetica" font-size="10" x="428.6274" y="330.6104">(09)</text><text fill="#000000" font-family="Helvetica" font-size="10" x="453.1548" y="330.6104">DCAppAttest.attestKey(keyId_AK, hash_puk_client_sig)</text><polygon fill="#181818" points="142.5474,356.6094,132.5474,360.6094,142.5474,364.6094,138.5474,360.6094" style="stroke:#181818;stroke-width:1;"/><line style="stroke:#181818;stroke-width:1;" x1="136.5474" x2="400.6274" y1="360.6094" y2="360.6094"/><text fill="#000000" font-family="Helvetica" font-size="10" x="148.5474" y="356.251">(10)</text><text fill="#000000" font-family="Helvetica" font-size="10" x="173.0747" y="356.251">Attestiere AK und binde hash_puk_client_sig</text><polygon fill="#181818" points="389.6274,382.25,399.6274,386.25,389.6274,390.25,393.6274,386.25" style="stroke:#181818;stroke-width:1;"/><line style="stroke:#181818;stroke-width:1;stroke-dasharray:2,2;" x1="131.5474" x2="395.6274" y1="386.25" y2="386.25"/><text fill="#000000" font-family="Helvetica" font-size="10" x="138.5474" y="381.8916">(11)</text><text fill="#000000" font-family="Helvetica" font-size="10" x="163.0747" y="381.8916">Hardware-Signatur</text><polygon fill="#181818" points="54.084,407.8906,44.084,411.8906,54.084,415.8906,50.084,411.8906" style="stroke:#181818;stroke-width:1;"/><line style="stroke:#181818;stroke-width:1;" x1="48.084" x2="400.6274" y1="411.8906" y2="411.8906"/><text fill="#000000" font-family="Helvetica" font-size="10" x="60.084" y="407.5322">(12)</text><text fill="#000000" font-family="Helvetica" font-size="10" x="84.6113" y="407.5322">Verifiziere &amp; erstelle CBOR</text><polygon fill="#181818" points="389.6274,433.5313,399.6274,437.5313,389.6274,441.5313,393.6274,437.5313" style="stroke:#181818;stroke-width:1;"/><line style="stroke:#181818;stroke-width:1;stroke-dasharray:2,2;" x1="43.084" x2="395.6274" y1="437.5313" y2="437.5313"/><text fill="#000000" font-family="Helvetica" font-size="10" x="50.084" y="433.1729">(13)</text><text fill="#000000" font-family="Helvetica" font-size="10" x="74.6113" y="433.1729">apple_attestation_object</text><polygon fill="#181818" points="722.4077,459.1719,732.4077,463.1719,722.4077,467.1719,726.4077,463.1719" style="stroke:#181818;stroke-width:1;"/><line style="stroke:#181818;stroke-width:1;stroke-dasharray:2,2;" x1="411.6274" x2="728.4077" y1="463.1719" y2="463.1719"/><text fill="#000000" font-family="Helvetica" font-size="10" x="418.6274" y="458.8135">(14)</text><text fill="#000000" font-family="Helvetica" font-size="10" x="443.1548" y="458.8135">apple_attestation_object</text><line style="stroke:#181818;stroke-width:1;stroke-dasharray:2,2;" x1="744.4077" x2="786.4077" y1="518.4531" y2="518.4531"/><line style="stroke:#181818;stroke-width:1;stroke-dasharray:2,2;" x1="786.4077" x2="786.4077" y1="518.4531" y2="531.4531"/><line style="stroke:#181818;stroke-width:1;stroke-dasharray:2,2;" x1="745.4077" x2="786.4077" y1="531.4531" y2="531.4531"/><polygon fill="#181818" points="755.4077,527.4531,745.4077,531.4531,755.4077,535.4531,751.4077,531.4531" style="stroke:#181818;stroke-width:1;"/><text fill="#000000" font-family="Helvetica" font-size="10" x="751.4077" y="514.0947">(15)</text><text fill="#000000" font-family="Helvetica" font-size="10" x="775.9351" y="514.0947">Installation (User Space)</text><line style="stroke:#181818;stroke-width:1;" x1="744.4077" x2="786.4077" y1="568.7344" y2="568.7344"/><line style="stroke:#181818;stroke-width:1;" x1="786.4077" x2="786.4077" y1="568.7344" y2="581.7344"/><line style="stroke:#181818;stroke-width:1;" x1="745.4077" x2="786.4077" y1="581.7344" y2="581.7344"/><polygon fill="#181818" points="755.4077,577.7344,745.4077,581.7344,755.4077,585.7344,751.4077,581.7344" style="stroke:#181818;stroke-width:1;"/><text fill="#000000" font-family="Helvetica" font-size="10" x="751.4077" y="558.5557">(16)</text><text fill="#000000" font-family="Helvetica" font-size="10" x="775.9351" y="552.7354">Generiere PrK.Client.Sig,</text><text fill="#000000" font-family="Helvetica" font-size="10" x="775.9351" y="564.376">PuK.Client.Sig</text><?plantuml-src dLPjRzf84FxkNp7bf1QKGBaspVMYA9B19a50G3ZjwKwHq68Fi6LP-tRNkOEg_wO_ez_onsxMnho5tBNt0TZrpZmpppEpOrXgOfakngYWLAxNAoL7pxbCc68BY732Kc5QiJG1No7yN3z-UCiM23Se7j3maEtOUBbDBvQnJbY8qSQw6QUAezgn5IYdPkP6dr9jGCOITyuq_fcY37684rHsqM3XVAhYL4RDMCGAVfjni-iG73fiERmvWjj3hTaKNS6daXAP66V68mHjo3asomGTvnKquhyXjD6qyuB8SudmXt_dZgu_k4DlrEnt-qFugTLglVNVRGowVhiukPx5skHvxf_s1lrR__QkiFFF_BFMsSPcC6ptN7yO_1xS-Rt2fiiUK4OatzQg_x7j-SCDYDVo_ARDUi0K5OKdJ9eY-qjjbWAld8AznzdKgl7P0KXspEqUeBP2mzPhW4FXYR1_tcokJxkKo_gvzyklZNezU_ubnqbK_42ggkUnl7V-U-_iATRxDustv-SRBFiHV8B2Ci_1ZlV3Fan3a57c_iMvVBtMW1Got0XgIC6HEBUbDam8PdWiuINXwYnCrJTiJ1OgbLF7UP4eDbqmC1YlmAYKscDNjvAR90BlPO3gWOUeIy0qPC-SCVLGQQ3uul6hqalghmN4LX8wXVA2XVtW57ZsDM1HFwYKZjN_e4ob0CDK8VWo5DGNMRJ0FzPSXuxz0CeK3LvlmnMPqjF_1bXhHZubUnFM-n9SNjgUkRfog4c1A3iE4mPkc8h-OfIeQmoIofd4vVtaArdDSfoJ4yVPsKBrgaZjvEI2RdZOmMLJ8JCuP3AA5xIzb-N9upS50zMfvLwrW4zFOP3kxe5B4YWFLP0byC2tkDSeqKucX22SYSTlcXe0obldt8tqhMxpgLOlO8xBTWJbzS1PmP4y3YAIVtxsdSx7jRW0hqdBNDDrnzNqZ7IEQbFBXVGXPSe_HDVj_31Dj_C_AHQEtq6lnh8VIoU36xcTKvWnFHibwNmKPhuZ_IIBWciEaf5rEv3QtkGqHOyXFCE-QE4gPIoPITLXe6nfOtqaLITybGLx2QZegWixPHhP9Lhx7C8pknonxVKOnUDF69fdHFrN5yT1eQcgySGylNGj6d5ZceQLFT5tghKt1iiVD8semBx0AmTLAkotRNHmzUxb_jtB_5yT2zcDvumaiQzY6hBqzqB3WEQJH_tBROLeZsh1YOQGbGEOBKgG80zdDf7DwBuXPn0MdIgXirDWOpkRd7y0?></g></svg>