<svg xmlns="http://www.w3.org/2000/svg" xmlns:xlink="http://www.w3.org/1999/xlink" contentStyleType="text/css" data-diagram-type="SEQUENCE" height="901px" preserveAspectRatio="none" style="width:856px;height:901px;background:#FFFFFF;" version="1.1" viewBox="0 0 856 901" width="856px" zoomAndPan="magnify"><?plantuml 1.2026.3?><defs/><g><rect fill="#F8F8FF" height="875.2188" style="stroke:#181818;stroke-width:0.5;" width="673.5322" x="20.4204" y="11"/><text fill="#000000" font-family="Helvetica" font-size="10" font-weight="700" x="348.7246" y="20.2822">LEI</text><rect fill="#E6E6FA" height="858.5781" style="stroke:#181818;stroke-width:0.5;" width="345.8569" x="348.0957" y="27.6406"/><text fill="#000000" font-family="Helvetica" font-size="10" font-weight="700" x="481.9275" y="36.9229">Prim&#228;rsystem</text><g><title>TPM . SE</title><rect fill="#000000" fill-opacity="0.00000" height="783.6563" width="8" x="49.5" y="69.9219"/><line style="stroke:#000000;stroke-width:0.5;stroke-dasharray:5,5;" x1="53" x2="53" y1="69.9219" y2="853.5781"/></g><g><title/><rect fill="#FFFFFF" height="218.125" style="stroke:#181818;stroke-width:1;" width="10" x="48" y="332.6875"/></g><g><title/><rect fill="#FFFFFF" height="76.9219" style="stroke:#181818;stroke-width:1;" width="10" x="48" y="612.0938"/></g><g><title>ZAS</title><rect fill="#000000" fill-opacity="0.00000" height="783.6563" width="8" x="365.6152" y="69.9219"/><line style="stroke:#000000;stroke-width:0.5;stroke-dasharray:5,5;" x1="369.1152" x2="369.1152" y1="69.9219" y2="853.5781"/></g><g><title/><rect fill="#FFFFFF" height="748.0156" style="stroke:#181818;stroke-width:1;" width="10" x="364.1152" y="105.5625"/></g><g><title>ZETA Client</title><rect fill="#000000" fill-opacity="0.00000" height="783.6563" width="8" x="650.3291" y="69.9219"/><line style="stroke:#000000;stroke-width:0.5;stroke-dasharray:5,5;" x1="653.8291" x2="653.8291" y1="69.9219" y2="853.5781"/></g><g><title/><rect fill="#FFFFFF" height="709.375" style="stroke:#181818;stroke-width:1;" width="10" x="648.8291" y="144.2031"/></g><rect fill="#E4E4F4" height="25.6406" rx="2.5" ry="2.5" style="stroke:#181818;stroke-width:0.5;" width="57.1592" x="24.4204" y="43.2813"/><text fill="#000000" font-family="Helvetica" font-size="10" x="31.4204" y="59.5635">TPM / SE</text><rect fill="#FFE6CC" height="25.6406" rx="2.5" ry="2.5" style="stroke:#D79B00;stroke-width:0.5;" width="34.0391" x="352.0957" y="43.2813"/><text fill="#000000" font-family="Helvetica" font-size="10" x="359.0957" y="59.5635">ZAS</text><rect fill="#FFE6CC" height="25.6406" rx="2.5" ry="2.5" style="stroke:#D79B00;stroke-width:0.5;" width="72.2471" x="617.7056" y="43.2813"/><text fill="#000000" font-family="Helvetica" font-size="10" x="624.7056" y="59.5635">ZETA Client</text><rect fill="#E4E4F4" height="25.6406" rx="2.5" ry="2.5" style="stroke:#181818;stroke-width:0.5;" width="57.1592" x="24.4204" y="853.5781"/><text fill="#000000" font-family="Helvetica" font-size="10" x="31.4204" y="869.8604">TPM / SE</text><rect fill="#FFE6CC" height="25.6406" rx="2.5" ry="2.5" style="stroke:#D79B00;stroke-width:0.5;" width="34.0391" x="352.0957" y="853.5781"/><text fill="#000000" font-family="Helvetica" font-size="10" x="359.0957" y="869.8604">ZAS</text><rect fill="#FFE6CC" height="25.6406" rx="2.5" ry="2.5" style="stroke:#D79B00;stroke-width:0.5;" width="72.2471" x="617.7056" y="853.5781"/><text fill="#000000" font-family="Helvetica" font-size="10" x="624.7056" y="869.8604">ZETA Client</text><path d="M13,81.9219 L72.9561,81.9219 L72.9561,85.5625 L62.9561,95.5625 L13,95.5625 L13,81.9219" fill="#EEEEEE" style="stroke:#000000;stroke-width:1.5;"/><rect fill="none" height="747.6563" style="stroke:#000000;stroke-width:1.5;" width="823.8916" x="13" y="81.9219"/><text fill="#000000" font-family="Helvetica" font-size="10" font-weight="700" x="28" y="92.2041">alt</text><text fill="#000000" font-family="Helvetica" font-size="10" font-weight="700" x="87.9561" y="93.2041">[Hardware Attestation (TPM / SE)]</text><line style="stroke:#000000;stroke-width:1;stroke-dasharray:2,2;" x1="13" x2="836.8916" y1="722.0156" y2="722.0156"/><text fill="#000000" font-family="Helvetica" font-size="10" font-weight="700" x="18" y="733.2979">[Software Attestation (Fallback)]</text><line style="stroke:#181818;stroke-width:1;stroke-dasharray:2,2;" x1="374.1152" x2="416.1152" y1="123.2031" y2="123.2031"/><line style="stroke:#181818;stroke-width:1;stroke-dasharray:2,2;" x1="416.1152" x2="416.1152" y1="123.2031" y2="136.2031"/><line style="stroke:#181818;stroke-width:1;stroke-dasharray:2,2;" x1="375.1152" x2="416.1152" y1="136.2031" y2="136.2031"/><polygon fill="#181818" points="385.1152,132.2031,375.1152,136.2031,385.1152,140.2031,381.1152,136.2031" style="stroke:#181818;stroke-width:1;"/><text fill="#000000" font-family="Helvetica" font-size="10" x="381.1152" y="118.8447">(01)</text><text fill="#000000" font-family="Helvetica" font-size="10" x="405.6426" y="118.8447">Installation (Root/Admin rights)</text><line style="stroke:#181818;stroke-width:1;stroke-dasharray:2,2;" x1="658.8291" x2="700.8291" y1="161.8438" y2="161.8438"/><line style="stroke:#181818;stroke-width:1;stroke-dasharray:2,2;" x1="700.8291" x2="700.8291" y1="161.8438" y2="174.8438"/><line style="stroke:#181818;stroke-width:1;stroke-dasharray:2,2;" x1="659.8291" x2="700.8291" y1="174.8438" y2="174.8438"/><polygon fill="#181818" points="669.8291,170.8438,659.8291,174.8438,669.8291,178.8438,665.8291,174.8438" style="stroke:#181818;stroke-width:1;"/><text fill="#000000" font-family="Helvetica" font-size="10" x="665.8291" y="157.4854">(02)</text><text fill="#000000" font-family="Helvetica" font-size="10" x="690.3564" y="157.4854">Installation (User Space)</text><path d="M353.1152,186.8438 L750.9473,186.8438 L750.9473,190.4844 L740.9473,200.4844 L353.1152,200.4844 L353.1152,186.8438" fill="#EEEEEE" style="stroke:#000000;stroke-width:1.5;"/><rect fill="none" height="74.9219" style="stroke:#000000;stroke-width:1.5;" width="413.832" x="353.1152" y="186.8438"/><text fill="#000000" font-family="Helvetica" font-size="10" font-weight="700" x="368.1152" y="197.126">Vertrauensbeziehung zwischen ZAS und Client wird aufgebaut</text><polygon fill="#181818" points="636.8291,224.125,646.8291,228.125,636.8291,232.125,640.8291,228.125" style="stroke:#181818;stroke-width:1;"/><line style="stroke:#181818;stroke-width:1;" x1="374.1152" x2="642.8291" y1="228.125" y2="228.125"/><text fill="#000000" font-family="Helvetica" font-size="10" x="381.1152" y="223.7666">(03)</text><text fill="#000000" font-family="Helvetica" font-size="10" x="405.6426" y="223.7666">&#160;</text><polygon fill="#181818" points="385.1152,249.7656,375.1152,253.7656,385.1152,257.7656,381.1152,253.7656" style="stroke:#181818;stroke-width:1;"/><line style="stroke:#181818;stroke-width:1;stroke-dasharray:2,2;" x1="379.1152" x2="647.8291" y1="253.7656" y2="253.7656"/><text fill="#000000" font-family="Helvetica" font-size="10" x="391.1152" y="249.4072">(04)</text><text fill="#000000" font-family="Helvetica" font-size="10" x="415.6426" y="249.4072">&#160;</text><path d="M32,279.7656 L91.9561,279.7656 L91.9561,283.4063 L81.9561,293.4063 L32,293.4063 L32,279.7656" fill="#EEEEEE" style="stroke:#000000;stroke-width:1.5;"/><rect fill="none" height="417.25" style="stroke:#000000;stroke-width:1.5;" width="673.29" x="32" y="279.7656"/><text fill="#000000" font-family="Helvetica" font-size="10" font-weight="700" x="47" y="290.0479">alt</text><text fill="#000000" font-family="Helvetica" font-size="10" font-weight="700" x="106.9561" y="291.0479">[Windows / Linux (TPM)]</text><line style="stroke:#000000;stroke-width:1;stroke-dasharray:2,2;" x1="32" x2="705.29" y1="575.8125" y2="575.8125"/><text fill="#000000" font-family="Helvetica" font-size="10" font-weight="700" x="37" y="587.0947">[macOS (Secure Enclave)]</text><polygon fill="#181818" points="69,328.6875,59,332.6875,69,336.6875,65,332.6875" style="stroke:#181818;stroke-width:1;"/><line style="stroke:#181818;stroke-width:1;" x1="63" x2="647.8291" y1="332.6875" y2="332.6875"/><text fill="#000000" font-family="Helvetica" font-size="10" x="75" y="322.5088">(05)</text><text fill="#000000" font-family="Helvetica" font-size="10" x="99.5273" y="316.6885">Generiere PrK.Client.Sig, PuK.Client.Sig</text><text fill="#000000" font-family="Helvetica" font-size="10" x="99.5273" y="328.3291">via OS-Provider (z.B. MS CNG)</text><polygon fill="#181818" points="636.8291,354.3281,646.8291,358.3281,636.8291,362.3281,640.8291,358.3281" style="stroke:#181818;stroke-width:1;"/><line style="stroke:#181818;stroke-width:1;stroke-dasharray:2,2;" x1="58" x2="642.8291" y1="358.3281" y2="358.3281"/><text fill="#000000" font-family="Helvetica" font-size="10" x="65" y="353.9697">(06)</text><text fill="#000000" font-family="Helvetica" font-size="10" x="89.5273" y="353.9697">PuK.Client.Sig, Handle_PrK.Client.Sig</text><line style="stroke:#181818;stroke-width:1;stroke-dasharray:2,2;" x1="374.1152" x2="416.1152" y1="383.9688" y2="383.9688"/><line style="stroke:#181818;stroke-width:1;stroke-dasharray:2,2;" x1="416.1152" x2="416.1152" y1="383.9688" y2="396.9688"/><line style="stroke:#181818;stroke-width:1;stroke-dasharray:2,2;" x1="375.1152" x2="416.1152" y1="396.9688" y2="396.9688"/><polygon fill="#181818" points="385.1152,392.9688,375.1152,396.9688,385.1152,400.9688,381.1152,396.9688" style="stroke:#181818;stroke-width:1;"/><text fill="#000000" font-family="Helvetica" font-size="10" x="381.1152" y="379.6104">(07)</text><text fill="#000000" font-family="Helvetica" font-size="10" x="405.6426" y="379.6104">Messung des PS &amp; Vergleich mit Hersteller-Wert</text><polygon fill="#181818" points="69,418.6094,59,422.6094,69,426.6094,65,422.6094" style="stroke:#181818;stroke-width:1;"/><line style="stroke:#181818;stroke-width:1;" x1="63" x2="363.1152" y1="422.6094" y2="422.6094"/><text fill="#000000" font-family="Helvetica" font-size="10" x="75" y="418.251">(08)</text><text fill="#000000" font-family="Helvetica" font-size="10" x="99.5273" y="418.251">TPM2_CreatePrimary() &#8594; Storage Root Key (SRK)</text><polygon fill="#181818" points="69,444.25,59,448.25,69,452.25,65,448.25" style="stroke:#181818;stroke-width:1;"/><line style="stroke:#181818;stroke-width:1;" x1="63" x2="363.1152" y1="448.25" y2="448.25"/><text fill="#000000" font-family="Helvetica" font-size="10" x="75" y="443.8916">(09)</text><text fill="#000000" font-family="Helvetica" font-size="10" x="99.5273" y="443.8916">TPM2_Create(SRK, restricted=sign, fixedTPM=true)</text><polygon fill="#181818" points="352.1152,469.8906,362.1152,473.8906,352.1152,477.8906,356.1152,473.8906" style="stroke:#181818;stroke-width:1;"/><line style="stroke:#181818;stroke-width:1;stroke-dasharray:2,2;" x1="58" x2="358.1152" y1="473.8906" y2="473.8906"/><text fill="#000000" font-family="Helvetica" font-size="10" x="65" y="469.5322">(10)</text><text fill="#000000" font-family="Helvetica" font-size="10" x="89.5273" y="469.5322">PuK.AK.Sig, PrK.AK.Sig (blob)</text><polygon fill="#181818" points="69,495.5313,59,499.5313,69,503.5313,65,499.5313" style="stroke:#181818;stroke-width:1;"/><line style="stroke:#181818;stroke-width:1;" x1="63" x2="363.1152" y1="499.5313" y2="499.5313"/><text fill="#000000" font-family="Helvetica" font-size="10" x="75" y="495.1729">(11)</text><text fill="#000000" font-family="Helvetica" font-size="10" x="99.5273" y="495.1729">TPM2_Load(SRK, PrK.AK.Sig, PuK.AK.Sig)</text><polygon fill="#181818" points="352.1152,521.1719,362.1152,525.1719,352.1152,529.1719,356.1152,525.1719" style="stroke:#181818;stroke-width:1;"/><line style="stroke:#181818;stroke-width:1;stroke-dasharray:2,2;" x1="58" x2="358.1152" y1="525.1719" y2="525.1719"/><text fill="#000000" font-family="Helvetica" font-size="10" x="65" y="520.8135">(12)</text><text fill="#000000" font-family="Helvetica" font-size="10" x="89.5273" y="520.8135">Handle_PrK.AK.Sig</text><polygon fill="#181818" points="69,546.8125,59,550.8125,69,554.8125,65,550.8125" style="stroke:#181818;stroke-width:1;"/><line style="stroke:#181818;stroke-width:1;" x1="63" x2="363.1152" y1="550.8125" y2="550.8125"/><text fill="#000000" font-family="Helvetica" font-size="10" x="75" y="546.4541">(13)</text><text fill="#000000" font-family="Helvetica" font-size="10" x="99.5273" y="546.4541">TPM2_PCR_Extend(23, Messwerte)</text><path d="M379.1152,538.1719 L379.1152,559.1719 L684.1152,559.1719 L684.1152,548.1719 L674.1152,538.1719 L379.1152,538.1719" fill="#FEFFDD" style="stroke:#181818;stroke-width:0.5;"/><path d="M674.1152,538.1719 L674.1152,548.1719 L684.1152,548.1719 L674.1152,538.1719" fill="#FEFFDD" style="stroke:#181818;stroke-width:0.5;"/><text fill="#000000" font-family="Helvetica" font-size="10" x="385.1152" y="552.4541">PCR_23 K&#246;nnte belegt sein; muss vorher gepr&#252;ft werden</text><polygon fill="#181818" points="69,608.0938,59,612.0938,69,616.0938,65,612.0938" style="stroke:#181818;stroke-width:1;"/><line style="stroke:#181818;stroke-width:1;" x1="63" x2="647.8291" y1="612.0938" y2="612.0938"/><text fill="#000000" font-family="Helvetica" font-size="10" x="75" y="607.7354">(14)</text><text fill="#000000" font-family="Helvetica" font-size="10" x="99.5273" y="607.7354">SecKeyCreateRandomKey (f&#252;r PrK.Client.Sig, PuK.Client.Sig in SE)</text><polygon fill="#181818" points="636.8291,633.7344,646.8291,637.7344,636.8291,641.7344,640.8291,637.7344" style="stroke:#181818;stroke-width:1;"/><line style="stroke:#181818;stroke-width:1;stroke-dasharray:2,2;" x1="58" x2="642.8291" y1="637.7344" y2="637.7344"/><text fill="#000000" font-family="Helvetica" font-size="10" x="65" y="633.376">(15)</text><text fill="#000000" font-family="Helvetica" font-size="10" x="89.5273" y="633.376">PuK.Client.Sig, Handle_PrK.Client.Sig</text><polygon fill="#181818" points="69,659.375,59,663.375,69,667.375,65,663.375" style="stroke:#181818;stroke-width:1;"/><line style="stroke:#181818;stroke-width:1;" x1="63" x2="363.1152" y1="663.375" y2="663.375"/><text fill="#000000" font-family="Helvetica" font-size="10" x="75" y="659.0166">(16)</text><text fill="#000000" font-family="Helvetica" font-size="10" x="99.5273" y="659.0166">DCAppAttestService.shared.generateKey()</text><polygon fill="#181818" points="352.1152,685.0156,362.1152,689.0156,352.1152,693.0156,356.1152,689.0156" style="stroke:#181818;stroke-width:1;"/><line style="stroke:#181818;stroke-width:1;stroke-dasharray:2,2;" x1="58" x2="358.1152" y1="689.0156" y2="689.0156"/><text fill="#000000" font-family="Helvetica" font-size="10" x="65" y="684.6572">(17)</text><text fill="#000000" font-family="Helvetica" font-size="10" x="89.5273" y="684.6572">keyId (Referenz f&#252;r PrK.AK.Sig)</text><line style="stroke:#181818;stroke-width:1;stroke-dasharray:2,2;" x1="658.8291" x2="700.8291" y1="758.2969" y2="758.2969"/><line style="stroke:#181818;stroke-width:1;stroke-dasharray:2,2;" x1="700.8291" x2="700.8291" y1="758.2969" y2="771.2969"/><line style="stroke:#181818;stroke-width:1;stroke-dasharray:2,2;" x1="659.8291" x2="700.8291" y1="771.2969" y2="771.2969"/><polygon fill="#181818" points="669.8291,767.2969,659.8291,771.2969,669.8291,775.2969,665.8291,771.2969" style="stroke:#181818;stroke-width:1;"/><text fill="#000000" font-family="Helvetica" font-size="10" x="665.8291" y="753.9385">(18)</text><text fill="#000000" font-family="Helvetica" font-size="10" x="690.3564" y="753.9385">Installation (User Space)</text><line style="stroke:#181818;stroke-width:1;" x1="658.8291" x2="700.8291" y1="808.5781" y2="808.5781"/><line style="stroke:#181818;stroke-width:1;" x1="700.8291" x2="700.8291" y1="808.5781" y2="821.5781"/><line style="stroke:#181818;stroke-width:1;" x1="659.8291" x2="700.8291" y1="821.5781" y2="821.5781"/><polygon fill="#181818" points="669.8291,817.5781,659.8291,821.5781,669.8291,825.5781,665.8291,821.5781" style="stroke:#181818;stroke-width:1;"/><text fill="#000000" font-family="Helvetica" font-size="10" x="665.8291" y="798.3994">(19)</text><text fill="#000000" font-family="Helvetica" font-size="10" x="690.3564" y="792.5791">Generiere PrK.Client.Sig,</text><text fill="#000000" font-family="Helvetica" font-size="10" x="690.3564" y="804.2197">PuK.Client.Sig</text><?plantuml-src hLRRRjj647tdLqnKe96WYrtRSLFNCQ0BPHkMB45qOZG8OAp44RKrjSlkBcLBHLxx0Vs6VaEVykO_wPTqbXGbIfOJeEY3pRtCzSoPMR7OI15FXwYWKDpVBnKSVSz5n1IRWezZ5eUcBONn-0BXX_tTbzTiYd21uGmD7x6SJ2kLwKeXTSH6wA-acp9M75LEDaGHc4dT_pNM1eGKcBlJ-5kCOeG37AEoYmORtGTAni9lob0gk9rmarVmjXNMEHpiiDj5hLc0zP07WW8P6sV2VGHjI5cQUOIEyneQyX56rfjsNb7oN21yT6_gT-VlwuFMNRFNwGtWktQxVUY-MGbqtClivdmYjKdZtBpjzdlNxlLD9kSUkKVjevLCVt3PhRi3xnVlnkrcCXqsG-4JV6kfteVBbZjO6McrMsxJHjrdYeh28oPC5lsfDlCGpvmi-nPdWKNZTmSWoedRFK1jWOOjrm3Rm5F2xd6pkRpjK2pByzQFFpNszvFppwcTICaPeQfUjjLwuxvj7JstzVQWSNXylB9b_q8-nj1cdXhRpOTDCusGX1BrpyxftX83GiXm4n8XGuwKywNGXeKXCrmA-9xiwiHDrJLiI18g5e7Zl8eK2wOC3Ce561KJFOP4ZWBLix0k-HQQXPj-5_R0Sml0DDZDZlAJJcAfh_ZqwI-bvqJ1QM4N2POevJryh7lMT86-1JWzjNKxEziXjqmr4IK2B_Tv5IANZSF9lWuB3LmmvJymXL0t1Wcb1A9YbbN9IJoHxtBPBh8TLAjdzdko2Mrn8ANPg_jJBa3nO69qAT58OocNSvl4GhhSDl9U4vqyErbIRKk123wWCeeHjVKG5nmdL3DOF70zcg18GYAQPBOVkFA1nUC0XomsIx2MWMTULwUvU4WWEIQ4qiGjGhTS-F914nx4klWn0QVqJFlC5hzSFe5p56Y78BMlkggbrpMF1nNen_dz9p7Z37fUjPzrK75HQzIWwq7p-dpjm9OYZzMcbGeLKFWXtcqwsqmvgvKTY1Os7pNqFMe4mZG8aOycCEL41LH4p314LRqbiBTXeq1ExB-3kwP2Pj2ocQbviGJ__F4dU4PI-o1O1i0Lpg7e3QvAtx9XXIgWY7YAZmpwxpJDwWgC-IFw9FREjk5pA99aB0xrgoMoAbj3SHZAuLVyTYJpKwzhfKhEs0lUSYYdSYzxw3S7T-wZ8GuL3muh2UWF16Sk3o4Dflr1QP3qmI5SFVqj19qECSJ0q1F6nSymZRM6cLGJ8aU0aNhwCYPke_A9yVamgzMKjQ56cB9HpoFmSHGJ1Lqn2kbL-GfTIP2gbLPZG4dAQLAyyTCNzGq20pMvdH3_8r6NCBQQzIXAvv67QiP7MDCJcb5-BR3DHP5IZCMTbQfMJ-0UvvS-pQBqLy82LhdaAvoqU8AO9yVc-GHiqpmQqjDI-cypQurp9l_YNFWaDf5Az5_lSjcHzumUjQqsBhO843vXUa9xLDJ9rCIYj6LcRSMBRCVRG5Rlu0KfGsYjqr3GoIsmeNqed7y1?></g></svg>