<svg xmlns="http://www.w3.org/2000/svg" xmlns:xlink="http://www.w3.org/1999/xlink" contentStyleType="text/css" data-diagram-type="SEQUENCE" height="486px" preserveAspectRatio="none" style="width:586px;height:486px;background:#FFFFFF;" version="1.1" viewBox="0 0 586 486" width="586px" zoomAndPan="magnify"><?plantuml 1.2026.3?><defs/><g><rect fill="#F8F8FF" height="460.8906" style="stroke:#181818;stroke-width:0.5;" width="488.4688" x="16" y="11"/><text fill="#000000" font-family="Helvetica" font-size="10" font-weight="700" x="251.7725" y="20.2822">LEI</text><rect fill="#E6E6FA" height="444.25" style="stroke:#181818;stroke-width:0.5;" width="250.6958" x="253.7729" y="27.6406"/><text fill="#000000" font-family="Helvetica" font-size="10" font-weight="700" x="340.0242" y="36.9229">Prim&#228;rsystem</text><g><title>TPM . SE</title><rect fill="#000000" fill-opacity="0.00000" height="369.3281" width="8" x="45.0796" y="69.9219"/><line style="stroke:#000000;stroke-width:0.5;stroke-dasharray:5,5;" x1="48.5796" x2="48.5796" y1="69.9219" y2="439.25"/></g><g><title>ZAS</title><rect fill="#000000" fill-opacity="0.00000" height="369.3281" width="8" x="271.2925" y="69.9219"/><line style="stroke:#000000;stroke-width:0.5;stroke-dasharray:5,5;" x1="274.7925" x2="274.7925" y1="69.9219" y2="439.25"/></g><g><title/><rect fill="#FFFFFF" height="333.6875" style="stroke:#181818;stroke-width:1;" width="10" x="269.7925" y="105.5625"/></g><g><title>ZETA Client</title><rect fill="#000000" fill-opacity="0.00000" height="369.3281" width="8" x="460.8452" y="69.9219"/><line style="stroke:#000000;stroke-width:0.5;stroke-dasharray:5,5;" x1="464.3452" x2="464.3452" y1="69.9219" y2="439.25"/></g><g><title/><rect fill="#FFFFFF" height="60.2813" style="stroke:#181818;stroke-width:1;" width="10" x="459.3452" y="378.9688"/></g><rect fill="#E4E4F4" height="25.6406" rx="2.5" ry="2.5" style="stroke:#181818;stroke-width:0.5;" width="57.1592" x="20" y="43.2813"/><text fill="#000000" font-family="Helvetica" font-size="10" x="27" y="59.5635">TPM / SE</text><rect fill="#FFE6CC" height="25.6406" rx="2.5" ry="2.5" style="stroke:#D79B00;stroke-width:0.5;" width="34.0391" x="257.7729" y="43.2813"/><text fill="#000000" font-family="Helvetica" font-size="10" x="264.7729" y="59.5635">ZAS</text><rect fill="#FFE6CC" height="25.6406" rx="2.5" ry="2.5" style="stroke:#D79B00;stroke-width:0.5;" width="72.2471" x="428.2217" y="43.2813"/><text fill="#000000" font-family="Helvetica" font-size="10" x="435.2217" y="59.5635">ZETA Client</text><rect fill="#E4E4F4" height="25.6406" rx="2.5" ry="2.5" style="stroke:#181818;stroke-width:0.5;" width="57.1592" x="20" y="439.25"/><text fill="#000000" font-family="Helvetica" font-size="10" x="27" y="455.5322">TPM / SE</text><rect fill="#FFE6CC" height="25.6406" rx="2.5" ry="2.5" style="stroke:#D79B00;stroke-width:0.5;" width="34.0391" x="257.7729" y="439.25"/><text fill="#000000" font-family="Helvetica" font-size="10" x="264.7729" y="455.5322">ZAS</text><rect fill="#FFE6CC" height="25.6406" rx="2.5" ry="2.5" style="stroke:#D79B00;stroke-width:0.5;" width="72.2471" x="428.2217" y="439.25"/><text fill="#000000" font-family="Helvetica" font-size="10" x="435.2217" y="455.5322">ZETA Client</text><path d="M13.5796,81.9219 L73.5356,81.9219 L73.5356,85.5625 L63.5356,95.5625 L13.5796,95.5625 L13.5796,81.9219" fill="#EEEEEE" style="stroke:#000000;stroke-width:1.5;"/><rect fill="none" height="283.0469" style="stroke:#000000;stroke-width:1.5;" width="472.4883" x="13.5796" y="81.9219"/><text fill="#000000" font-family="Helvetica" font-size="10" font-weight="700" x="28.5796" y="92.2041">alt</text><text fill="#000000" font-family="Helvetica" font-size="10" font-weight="700" x="88.5356" y="93.2041">[Hardware Attestation (TPM / SE)]</text><line style="stroke:#181818;stroke-width:1;" x1="279.7925" x2="321.7925" y1="134.8438" y2="134.8438"/><line style="stroke:#181818;stroke-width:1;" x1="321.7925" x2="321.7925" y1="134.8438" y2="147.8438"/><line style="stroke:#181818;stroke-width:1;" x1="280.7925" x2="321.7925" y1="147.8438" y2="147.8438"/><polygon fill="#181818" points="290.7925,143.8438,280.7925,147.8438,290.7925,151.8438,286.7925,147.8438" style="stroke:#181818;stroke-width:1;"/><text fill="#000000" font-family="Helvetica" font-size="10" x="286.7925" y="124.665">(01)</text><text fill="#000000" font-family="Helvetica" font-size="10" x="311.3198" y="118.8447">Startet als Hintergrunddienst</text><text fill="#000000" font-family="Helvetica" font-size="10" x="314.4985" y="130.4854">(Root/Admin)</text><path d="M32.5796,159.8438 L92.5356,159.8438 L92.5356,163.4844 L82.5356,173.4844 L32.5796,173.4844 L32.5796,159.8438" fill="#EEEEEE" style="stroke:#000000;stroke-width:1.5;"/><rect fill="none" height="191.125" style="stroke:#000000;stroke-width:1.5;" width="428.4883" x="32.5796" y="159.8438"/><text fill="#000000" font-family="Helvetica" font-size="10" font-weight="700" x="47.5796" y="170.126">alt</text><text fill="#000000" font-family="Helvetica" font-size="10" font-weight="700" x="107.5356" y="171.126">[Windows / Linux (TPM)]</text><line style="stroke:#000000;stroke-width:1;stroke-dasharray:2,2;" x1="32.5796" x2="461.0679" y1="258.7656" y2="258.7656"/><text fill="#000000" font-family="Helvetica" font-size="10" font-weight="700" x="37.5796" y="270.0479">[macOS (Secure Enclave)]</text><line style="stroke:#181818;stroke-width:1;" x1="279.7925" x2="321.7925" y1="201.125" y2="201.125"/><line style="stroke:#181818;stroke-width:1;" x1="321.7925" x2="321.7925" y1="201.125" y2="214.125"/><line style="stroke:#181818;stroke-width:1;" x1="280.7925" x2="321.7925" y1="214.125" y2="214.125"/><polygon fill="#181818" points="290.7925,210.125,280.7925,214.125,290.7925,218.125,286.7925,214.125" style="stroke:#181818;stroke-width:1;"/><text fill="#000000" font-family="Helvetica" font-size="10" x="286.7925" y="196.7666">(02)</text><text fill="#000000" font-family="Helvetica" font-size="10" x="311.3198" y="196.7666">Messung des PS</text><polygon fill="#181818" points="59.5796,235.7656,49.5796,239.7656,59.5796,243.7656,55.5796,239.7656" style="stroke:#181818;stroke-width:1;"/><line style="stroke:#181818;stroke-width:1;" x1="53.5796" x2="268.7925" y1="239.7656" y2="239.7656"/><text fill="#000000" font-family="Helvetica" font-size="10" x="65.5796" y="235.4072">(03)</text><text fill="#000000" font-family="Helvetica" font-size="10" x="90.1069" y="235.4072">TPM2_PCR_Extend(23, Messwerte)</text><line style="stroke:#181818;stroke-width:1;" x1="279.7925" x2="321.7925" y1="329.9688" y2="329.9688"/><line style="stroke:#181818;stroke-width:1;" x1="321.7925" x2="321.7925" y1="329.9688" y2="342.9688"/><line style="stroke:#181818;stroke-width:1;" x1="280.7925" x2="321.7925" y1="342.9688" y2="342.9688"/><polygon fill="#181818" points="290.7925,338.9688,280.7925,342.9688,290.7925,346.9688,286.7925,342.9688" style="stroke:#181818;stroke-width:1;"/><text fill="#000000" font-family="Helvetica" font-size="10" x="286.7925" y="308.1494">(04)</text><text fill="#000000" font-family="Helvetica" font-size="10" x="311.3198" y="290.6885">Initiale Ermittlung</text><text fill="#000000" font-family="Helvetica" font-size="10" x="314.4985" y="302.3291">der Posture (SIP-Status,</text><text fill="#000000" font-family="Helvetica" font-size="10" x="314.4985" y="313.9697">Gatekeeper, OS-Version,</text><text fill="#000000" font-family="Helvetica" font-size="10" x="314.4985" y="325.6104">Secure Boot Policy)</text><line style="stroke:#181818;stroke-width:1;" x1="469.3452" x2="511.3452" y1="408.25" y2="408.25"/><line style="stroke:#181818;stroke-width:1;" x1="511.3452" x2="511.3452" y1="408.25" y2="421.25"/><line style="stroke:#181818;stroke-width:1;" x1="470.3452" x2="511.3452" y1="421.25" y2="421.25"/><polygon fill="#181818" points="480.3452,417.25,470.3452,421.25,480.3452,425.25,476.3452,421.25" style="stroke:#181818;stroke-width:1;"/><text fill="#000000" font-family="Helvetica" font-size="10" x="476.3452" y="398.0713">(05)</text><text fill="#000000" font-family="Helvetica" font-size="10" x="500.8726" y="392.251">Start</text><text fill="#000000" font-family="Helvetica" font-size="10" x="504.0513" y="403.8916">(User Space)</text><?plantuml-src TLHjJzim4FwUNt5aqbO4ZAwyZ25KgMrIg4HfrF2YeKd89DVMmx4xs-5juj_id-oFxPoafPJkGs8xzznpTy-TmtAhP9xTeWQ_Lg-l-vwvutBADCiWnH7BXUqgQMF-ZF2bljfunZA44nJtQ7d25Z11YUahgSoK9PZEqHsLQuvw0IjGZksabVxCZGMf92xO3FxAKIOun15gjscpv6wiLIxJZX9AmzM4sqM7UDdXjOR62ju-6iF6s19yB2cHaVKcF4KmbfoLVPgYvts2jdg4n4KptXeLpoN2TNZUkZc-Q0s3cyxWT3243zrkToVScmDEmzxCSZnHnfPvlhNsey5PU7O-muMxuMvtTuw9Xhr-Anp6t-Fpi3_3dB9xb2d9zueQNFQ2S3Wd2Rf1s75PHqnJK_YKIJlB_iZO9u5DRrPzmDdOgV7R0vWkmDqPuFCpMbRj0PQ5fuB3_KwdifvIBjNtuEktThrUV7yfUQPQtPEg-lzSmLvu4Eo-vpfej7Vsz-TSxX5yXC9LNfAjdeUtD6r1eCBznJlQhZGWXIotWWPISAIQOqi2m4VeIMuv4zpGaEPox7bhKyt66GEBwXcipcaaRcaWVEgX_zhc9GNzywWFsn27FZ03xh2YvUHJC4MQPt__QFD4OvVvgnfV5BJ8VzsA7R5Fgmz7HwvJpUOxL5LQ0QI1hSvl76YQN1BURFMOi732TFh0D4BBMZIMMQuar6ObhHTnAFB6ncm7Mqst79Og8eKK1awuf6iq9XNJbE8Q-uD8XahPxLQQSLdI52yNyuhBL3qOYa2Don-BSElLHBoDuUuiTOR-GmQYU1b2ReVkrRY9EiERyD5IPRN6pcRXze2KNScAmY1aB1d4K8inoQdQK2Q2xjVggDLS44fdt5f16L0zRgeZkjxElHRteYqImEPcaqp7pE8TuXJr9WpYhKlKXcHqbYfScwGWPy6JfoebcRe-U6MRIDsgVvH2kQlq1IVaXQ7GiVkthdl_0000?></g></svg>