<svg xmlns="http://www.w3.org/2000/svg" xmlns:xlink="http://www.w3.org/1999/xlink" contentStyleType="text/css" data-diagram-type="SEQUENCE" height="483px" preserveAspectRatio="none" style="width:641px;height:483px;background:#FFFFFF;" version="1.1" viewBox="0 0 641 483" width="641px" zoomAndPan="magnify"><?plantuml 1.2026.3?><defs/><g><rect fill="#FEFCFF" height="457.6094" style="stroke:#181818;stroke-width:0.5;" width="554.4126" x="16" y="11"/><text fill="#000000" font-family="Helvetica" font-size="10" font-weight="700" x="274.3367" y="20.2822">Device</text><rect fill="#E6E6FA" height="440.9688" style="stroke:#181818;stroke-width:0.5;" width="102.1934" x="468.2192" y="27.6406"/><text fill="#000000" font-family="Helvetica" font-size="10" font-weight="700" x="480.2192" y="36.9229">Prim&#228;rsystem</text><g><title>TPM . SE</title><rect fill="#000000" fill-opacity="0.00000" height="366.0469" width="8" x="45.0796" y="69.9219"/><line style="stroke:#000000;stroke-width:0.5;stroke-dasharray:5,5;" x1="48.5796" x2="48.5796" y1="69.9219" y2="435.9688"/></g><g><title>ZAS</title><rect fill="#000000" fill-opacity="0.00000" height="366.0469" width="8" x="271.2925" y="69.9219"/><line style="stroke:#000000;stroke-width:0.5;stroke-dasharray:5,5;" x1="274.7925" x2="274.7925" y1="69.9219" y2="435.9688"/></g><g><title/><rect fill="#FFFFFF" height="330.4063" style="stroke:#181818;stroke-width:1;" width="10" x="269.7925" y="105.5625"/></g><g><title>ZETA Client</title><rect fill="#000000" fill-opacity="0.00000" height="366.0469" width="8" x="515.8159" y="69.9219"/><line style="stroke:#000000;stroke-width:0.5;stroke-dasharray:5,5;" x1="519.3159" x2="519.3159" y1="69.9219" y2="435.9688"/></g><g><title/><rect fill="#FFFFFF" height="163.2031" style="stroke:#181818;stroke-width:1;" width="10" x="514.3159" y="272.7656"/></g><rect fill="#E4E4F4" height="25.6406" rx="2.5" ry="2.5" style="stroke:#181818;stroke-width:0.5;" width="57.1592" x="20" y="43.2813"/><text fill="#000000" font-family="Helvetica" font-size="10" x="27" y="59.5635">TPM / SE</text><rect fill="#FFE6CC" height="25.6406" rx="2.5" ry="2.5" style="stroke:#D79B00;stroke-width:0.5;" width="34.0391" x="257.7729" y="43.2813"/><text fill="#000000" font-family="Helvetica" font-size="10" x="264.7729" y="59.5635">ZAS</text><rect fill="#FFE6CC" height="25.6406" rx="2.5" ry="2.5" style="stroke:#D79B00;stroke-width:0.5;" width="72.2471" x="483.1924" y="43.2813"/><text fill="#000000" font-family="Helvetica" font-size="10" x="490.1924" y="59.5635">ZETA Client</text><rect fill="#E4E4F4" height="25.6406" rx="2.5" ry="2.5" style="stroke:#181818;stroke-width:0.5;" width="57.1592" x="20" y="435.9688"/><text fill="#000000" font-family="Helvetica" font-size="10" x="27" y="452.251">TPM / SE</text><rect fill="#FFE6CC" height="25.6406" rx="2.5" ry="2.5" style="stroke:#D79B00;stroke-width:0.5;" width="34.0391" x="257.7729" y="435.9688"/><text fill="#000000" font-family="Helvetica" font-size="10" x="264.7729" y="452.251">ZAS</text><rect fill="#FFE6CC" height="25.6406" rx="2.5" ry="2.5" style="stroke:#D79B00;stroke-width:0.5;" width="72.2471" x="483.1924" y="435.9688"/><text fill="#000000" font-family="Helvetica" font-size="10" x="490.1924" y="452.251">ZETA Client</text><path d="M32.5796,81.9219 L92.5356,81.9219 L92.5356,85.5625 L82.5356,95.5625 L32.5796,95.5625 L32.5796,81.9219" fill="#EEEEEE" style="stroke:#000000;stroke-width:1.5;"/><rect fill="none" height="176.8438" style="stroke:#000000;stroke-width:1.5;" width="502.7363" x="32.5796" y="81.9219"/><text fill="#000000" font-family="Helvetica" font-size="10" font-weight="700" x="47.5796" y="92.2041">alt</text><text fill="#000000" font-family="Helvetica" font-size="10" font-weight="700" x="107.5356" y="93.2041">[Windows / Linux (TPM)]</text><line style="stroke:#181818;stroke-width:1;" x1="279.7925" x2="321.7925" y1="134.8438" y2="134.8438"/><line style="stroke:#181818;stroke-width:1;" x1="321.7925" x2="321.7925" y1="134.8438" y2="147.8438"/><line style="stroke:#181818;stroke-width:1;" x1="280.7925" x2="321.7925" y1="147.8438" y2="147.8438"/><polygon fill="#181818" points="290.7925,143.8438,280.7925,147.8438,290.7925,151.8438,286.7925,147.8438" style="stroke:#181818;stroke-width:1;"/><text fill="#000000" font-family="Helvetica" font-size="10" x="286.7925" y="124.665">(01)</text><text fill="#000000" font-family="Helvetica" font-size="10" x="311.3198" y="118.8447">Startet als Hintergrunddienst</text><text fill="#000000" font-family="Helvetica" font-size="10" x="314.4985" y="130.4854">(Root/Admin)</text><line style="stroke:#181818;stroke-width:1;" x1="279.7925" x2="321.7925" y1="173.4844" y2="173.4844"/><line style="stroke:#181818;stroke-width:1;" x1="321.7925" x2="321.7925" y1="173.4844" y2="186.4844"/><line style="stroke:#181818;stroke-width:1;" x1="280.7925" x2="321.7925" y1="186.4844" y2="186.4844"/><polygon fill="#181818" points="290.7925,182.4844,280.7925,186.4844,290.7925,190.4844,286.7925,186.4844" style="stroke:#181818;stroke-width:1;"/><text fill="#000000" font-family="Helvetica" font-size="10" x="286.7925" y="169.126">(02)</text><text fill="#000000" font-family="Helvetica" font-size="10" x="311.3198" y="169.126">Messung des PS</text><polygon fill="#181818" points="59.5796,208.125,49.5796,212.125,59.5796,216.125,55.5796,212.125" style="stroke:#181818;stroke-width:1;"/><line style="stroke:#181818;stroke-width:1;" x1="53.5796" x2="268.7925" y1="212.125" y2="212.125"/><text fill="#000000" font-family="Helvetica" font-size="10" x="65.5796" y="207.7666">(03)</text><text fill="#000000" font-family="Helvetica" font-size="10" x="90.1069" y="207.7666">TPM2_PCR_Extend(23, Messwerte)</text><line style="stroke:#181818;stroke-width:1;" x1="279.7925" x2="321.7925" y1="237.7656" y2="237.7656"/><line style="stroke:#181818;stroke-width:1;" x1="321.7925" x2="321.7925" y1="237.7656" y2="250.7656"/><line style="stroke:#181818;stroke-width:1;" x1="280.7925" x2="321.7925" y1="250.7656" y2="250.7656"/><polygon fill="#181818" points="290.7925,246.7656,280.7925,250.7656,290.7925,254.7656,286.7925,250.7656" style="stroke:#181818;stroke-width:1;"/><text fill="#000000" font-family="Helvetica" font-size="10" x="286.7925" y="233.4072">(04)</text><text fill="#000000" font-family="Helvetica" font-size="10" x="311.3198" y="233.4072">Monitoring des PS Prozesses fortlaufend</text><line style="stroke:#181818;stroke-width:1;" x1="524.3159" x2="566.3159" y1="302.0469" y2="302.0469"/><line style="stroke:#181818;stroke-width:1;" x1="566.3159" x2="566.3159" y1="302.0469" y2="315.0469"/><line style="stroke:#181818;stroke-width:1;" x1="525.3159" x2="566.3159" y1="315.0469" y2="315.0469"/><polygon fill="#181818" points="535.3159,311.0469,525.3159,315.0469,535.3159,319.0469,531.3159,315.0469" style="stroke:#181818;stroke-width:1;"/><text fill="#000000" font-family="Helvetica" font-size="10" x="531.3159" y="291.8682">(05)</text><text fill="#000000" font-family="Helvetica" font-size="10" x="555.8433" y="286.0479">Start</text><text fill="#000000" font-family="Helvetica" font-size="10" x="559.022" y="297.6885">(User Space)</text><line style="stroke:#181818;stroke-width:1;" x1="279.7925" x2="321.7925" y1="340.6875" y2="340.6875"/><line style="stroke:#181818;stroke-width:1;" x1="321.7925" x2="321.7925" y1="340.6875" y2="353.6875"/><line style="stroke:#181818;stroke-width:1;" x1="280.7925" x2="321.7925" y1="353.6875" y2="353.6875"/><polygon fill="#181818" points="290.7925,349.6875,280.7925,353.6875,290.7925,357.6875,286.7925,353.6875" style="stroke:#181818;stroke-width:1;"/><text fill="#000000" font-family="Helvetica" font-size="10" x="286.7925" y="336.3291">(06)</text><text fill="#000000" font-family="Helvetica" font-size="10" x="311.3198" y="336.3291">PS Start erkannt</text><line style="stroke:#181818;stroke-width:1;" x1="279.7925" x2="321.7925" y1="379.3281" y2="379.3281"/><line style="stroke:#181818;stroke-width:1;" x1="321.7925" x2="321.7925" y1="379.3281" y2="392.3281"/><line style="stroke:#181818;stroke-width:1;" x1="280.7925" x2="321.7925" y1="392.3281" y2="392.3281"/><polygon fill="#181818" points="290.7925,388.3281,280.7925,392.3281,290.7925,396.3281,286.7925,392.3281" style="stroke:#181818;stroke-width:1;"/><text fill="#000000" font-family="Helvetica" font-size="10" x="286.7925" y="374.9697">(07)</text><text fill="#000000" font-family="Helvetica" font-size="10" x="311.3198" y="374.9697">Messung des PS</text><polygon fill="#181818" points="59.5796,413.9688,49.5796,417.9688,59.5796,421.9688,55.5796,417.9688" style="stroke:#181818;stroke-width:1;"/><line style="stroke:#181818;stroke-width:1;" x1="53.5796" x2="268.7925" y1="417.9688" y2="417.9688"/><text fill="#000000" font-family="Helvetica" font-size="10" x="65.5796" y="413.6104">(08)</text><text fill="#000000" font-family="Helvetica" font-size="10" x="90.1069" y="413.6104">TPM2_PCR_Extend(23, Messwerte)</text><?plantuml-src bLHXRzem4FtkNt7Df0tKRMMKTbs5a8245WbAbD1MgoOXbpYfrs0psw4jK__D_id-sCuaKA1iqZw0xToxT_UUBw6PaIARt385JgbIAJj4ttCnfOfE868npLBJaSA4VCxWKsLty89E69opTCOC7zCrZ9jZ-b98FQLZ5gtGRPafpjGQDcKYCNVDw7kc3GWfs5fCinyP4sCMi9WfksdHyNsYP2QYjaobWkixRjOJmks45mtL7RnzfZLDM3FbYS16OaFkUCH06qoMvcdA27a7BVa8OrjDapqKpmM36s_O79rTDWDtr1xq1W6ywNGwXzxH2j3pkil8sPtK9kzpCzht1nVUnN29ysfUhLDROVoWsszwGVWr77hz9QP7Pqn4QDyBQd3LTRrWHU9sNA-z2hlULRVjBOCnYyTnR2NvLE6DyIaLPYcjhirJoXfaQOtBQMAj-aa0fcjmUmRuE6U65dk0xLj1DxpZThk8zh2Juhdx-KkhKbayVyvvfahEq7BrToxto3jnQw-vJggjm-FZ5PVzfJncgTMTa-qUbasQLegWHVepgHyK7g13XfiKfpNb33M71Ws0jz0Lt72QSeqJd8c4aBsfeic4Wc5o3aPbE2-tE2sEosPyp9mD_xTyT8P-7muWz1oW6knXnrHivTmqGmjsS7MWNhTtq6WWPb7JLtpo-vVIJpYz4sVN_2oah_CLyXQKED75UOCQnytIa-LAQ6hWcej8FcXi7utC7g64xPSHZ7tjx-ShV6ZOvJJtZc6HLCCv5_Xc9UXT564bRRu9A0LIceDcDE6Yl9Lgtqwq6Ryu6lpm9OZLJkrVTUItWv7tQB2vKlNm_IBXWM6vLqmIRquglY83Nyavel4GIsLIciL8ObKIahk0GWfxa2JV5MB0TdsfSMP3-sqha_LAI9s3cBgdGXZo3q7_8USF?></g></svg>