<svg xmlns="http://www.w3.org/2000/svg" xmlns:xlink="http://www.w3.org/1999/xlink" contentStyleType="text/css" data-diagram-type="SEQUENCE" height="1101px" preserveAspectRatio="none" style="width:1419px;height:1101px;background:#FFFFFF;" version="1.1" viewBox="0 0 1419 1101" width="1419px" zoomAndPan="magnify"><?plantuml 1.2026.3?><defs/><g><rect fill="#F8F8FF" height="1075.4688" style="stroke:#181818;stroke-width:0.5;" width="519.084" x="20.4204" y="11"/><text fill="#000000" font-family="Helvetica" font-size="10" font-weight="700" x="271.5005" y="20.2822">LEI</text><rect fill="#E6E6FA" height="1058.8281" style="stroke:#181818;stroke-width:0.5;" width="242.4243" x="297.0801" y="27.6406"/><text fill="#000000" font-family="Helvetica" font-size="10" font-weight="700" x="379.1956" y="36.9229">Prim&#228;rsystem</text><rect fill="#EDFDEC" height="1075.4688" style="stroke:#181818;stroke-width:0.5;" width="147.7842" x="915.2759" y="11"/><text fill="#000000" font-family="Helvetica" font-size="10" font-weight="700" x="927.2759" y="20.2822">Anbieter TI 2.0 Dienst</text><rect fill="#FFF3E5" height="1058.8281" style="stroke:#181818;stroke-width:0.5;" width="147.7842" x="915.2759" y="27.6406"/><text fill="#000000" font-family="Helvetica" font-size="10" font-weight="700" x="956.0234" y="36.9229">ZETA Guard</text><g><title>TPM . SE</title><rect fill="#000000" fill-opacity="0.00000" height="960.625" width="8" x="49.5" y="81.5625"/><line style="stroke:#000000;stroke-width:0.5;stroke-dasharray:5,5;" x1="53" x2="53" y1="81.5625" y2="1042.1875"/></g><g><title/><rect fill="#FFFFFF" height="25.6406" style="stroke:#181818;stroke-width:1;" width="10" x="48" y="351.6094"/></g><g><title>ZAS</title><rect fill="#000000" fill-opacity="0.00000" height="960.625" width="8" x="314.5996" y="81.5625"/><line style="stroke:#000000;stroke-width:0.5;stroke-dasharray:5,5;" x1="318.0996" x2="318.0996" y1="81.5625" y2="1042.1875"/></g><g><title/><rect fill="#FFFFFF" height="76.9219" style="stroke:#181818;stroke-width:1;" width="10" x="313.0996" y="325.9688"/></g><g><title>ZETA Client</title><rect fill="#000000" fill-opacity="0.00000" height="960.625" width="8" x="495.8809" y="81.5625"/><line style="stroke:#000000;stroke-width:0.5;stroke-dasharray:5,5;" x1="499.3809" x2="499.3809" y1="81.5625" y2="1042.1875"/></g><g><title/><rect fill="#FFFFFF" height="897.3438" style="stroke:#181818;stroke-width:1;" width="10" x="494.3809" y="144.8438"/></g><g><title>PDP</title><rect fill="#000000" fill-opacity="0.00000" height="960.625" width="8" x="985.668" y="81.5625"/><line style="stroke:#000000;stroke-width:0.5;stroke-dasharray:5,5;" x1="989.168" x2="989.168" y1="81.5625" y2="1042.1875"/></g><g><title/><rect fill="#FFFFFF" height="838.4219" style="stroke:#181818;stroke-width:1;" width="10" x="984.168" y="185.7656"/></g><rect fill="#E4E4F4" height="25.6406" rx="2.5" ry="2.5" style="stroke:#181818;stroke-width:0.5;" width="57.1592" x="24.4204" y="54.9219"/><text fill="#000000" font-family="Helvetica" font-size="10" x="31.4204" y="71.2041">TPM / SE</text><rect fill="#FFE6CC" height="25.6406" rx="2.5" ry="2.5" style="stroke:#D79B00;stroke-width:0.5;" width="34.0391" x="301.0801" y="54.9219"/><text fill="#000000" font-family="Helvetica" font-size="10" x="308.0801" y="71.2041">ZAS</text><rect fill="#FFE6CC" height="25.6406" rx="2.5" ry="2.5" style="stroke:#D79B00;stroke-width:0.5;" width="72.2471" x="463.2573" y="54.9219"/><text fill="#000000" font-family="Helvetica" font-size="10" x="470.2573" y="71.2041">ZETA Client</text><rect fill="#FFE6CC" height="37.2813" rx="2.5" ry="2.5" style="stroke:#D79B00;stroke-width:0.5;" width="116.9492" x="930.6934" y="43.2813"/><text fill="#000000" font-family="Helvetica" font-size="10" x="979.2876" y="59.5635">PDP</text><text fill="#000000" font-family="Helvetica" font-size="10" x="937.6934" y="71.2041">Authorization Server</text><rect fill="#E4E4F4" height="25.6406" rx="2.5" ry="2.5" style="stroke:#181818;stroke-width:0.5;" width="57.1592" x="24.4204" y="1042.1875"/><text fill="#000000" font-family="Helvetica" font-size="10" x="31.4204" y="1058.4697">TPM / SE</text><rect fill="#FFE6CC" height="25.6406" rx="2.5" ry="2.5" style="stroke:#D79B00;stroke-width:0.5;" width="34.0391" x="301.0801" y="1042.1875"/><text fill="#000000" font-family="Helvetica" font-size="10" x="308.0801" y="1058.4697">ZAS</text><rect fill="#FFE6CC" height="25.6406" rx="2.5" ry="2.5" style="stroke:#D79B00;stroke-width:0.5;" width="72.2471" x="463.2573" y="1042.1875"/><text fill="#000000" font-family="Helvetica" font-size="10" x="470.2573" y="1058.4697">ZETA Client</text><rect fill="#FFE6CC" height="37.2813" rx="2.5" ry="2.5" style="stroke:#D79B00;stroke-width:0.5;" width="116.9492" x="930.6934" y="1042.1875"/><text fill="#000000" font-family="Helvetica" font-size="10" x="979.2876" y="1058.4697">PDP</text><text fill="#000000" font-family="Helvetica" font-size="10" x="937.6934" y="1070.1104">Authorization Server</text><path d="M13,93.5625 L72.9561,93.5625 L72.9561,97.2031 L62.9561,107.2031 L13,107.2031 L13,93.5625" fill="#EEEEEE" style="stroke:#000000;stroke-width:1.5;"/><rect fill="none" height="898.9844" style="stroke:#000000;stroke-width:1.5;" width="1386.457" x="13" y="93.5625"/><text fill="#000000" font-family="Helvetica" font-size="10" font-weight="700" x="28" y="103.8447">alt</text><text fill="#000000" font-family="Helvetica" font-size="10" font-weight="700" x="87.9561" y="104.8447">[Kein ZETA Guard Attestation Token]</text><line style="stroke:#000000;stroke-width:1;stroke-dasharray:2,2;" x1="13" x2="1399.457" y1="836.0625" y2="836.0625"/><text fill="#000000" font-family="Helvetica" font-size="10" font-weight="700" x="18" y="847.3447">[ZETA Guard Attestation Token vorhanden (Fast-Path)]</text><path d="M32,121.2031 L91.9561,121.2031 L91.9561,124.8438 L81.9561,134.8438 L32,134.8438 L32,121.2031" fill="#EEEEEE" style="stroke:#000000;stroke-width:1.5;"/><rect fill="none" height="689.8594" style="stroke:#000000;stroke-width:1.5;" width="1342.457" x="32" y="121.2031"/><text fill="#000000" font-family="Helvetica" font-size="10" font-weight="700" x="47" y="131.4854">alt</text><text fill="#000000" font-family="Helvetica" font-size="10" font-weight="700" x="106.9561" y="132.4854">[Hardware Attestation: Windows / Linux (TPM)]</text><line style="stroke:#000000;stroke-width:1;stroke-dasharray:2,2;" x1="32" x2="1374.457" y1="486.1719" y2="486.1719"/><text fill="#000000" font-family="Helvetica" font-size="10" font-weight="700" x="37" y="497.4541">[Hardware Attestation: macOS (Secure Enclave)]</text><line style="stroke:#000000;stroke-width:1;stroke-dasharray:2,2;" x1="32" x2="1374.457" y1="646.6563" y2="646.6563"/><text fill="#000000" font-family="Helvetica" font-size="10" font-weight="700" x="37" y="657.9385">[Software Attestation (Legacy OIDC DCR)]</text><polygon fill="#181818" points="972.168,181.7656,982.168,185.7656,972.168,189.7656,976.168,185.7656" style="stroke:#181818;stroke-width:1;"/><line style="stroke:#181818;stroke-width:1;" x1="504.3809" x2="978.168" y1="185.7656" y2="185.7656"/><text fill="#000000" font-family="Helvetica" font-size="10" x="511.3809" y="169.7666">(01)</text><text fill="#000000" font-family="Helvetica" font-size="10" x="535.9082" y="158.126">POST /register</text><text fill="#000000" font-family="Helvetica" font-size="10" x="535.9082" y="169.7666">{attestation_type="tpm", PuK.EK.Enc, C.EK.Enc,</text><text fill="#000000" font-family="Helvetica" font-size="10" x="535.9082" y="181.4072">PuK.AK.Sig, PuK.Client.Sig, signed_Hash_PuK.Client.Sig}</text><line style="stroke:#181818;stroke-width:1;" x1="994.168" x2="1036.168" y1="211.4063" y2="211.4063"/><line style="stroke:#181818;stroke-width:1;" x1="1036.168" x2="1036.168" y1="211.4063" y2="224.4063"/><line style="stroke:#181818;stroke-width:1;" x1="995.168" x2="1036.168" y1="224.4063" y2="224.4063"/><polygon fill="#181818" points="1005.168,220.4063,995.168,224.4063,1005.168,228.4063,1001.168,224.4063" style="stroke:#181818;stroke-width:1;"/><text fill="#000000" font-family="Helvetica" font-size="10" x="1001.168" y="207.0479">(02)</text><text fill="#000000" font-family="Helvetica" font-size="10" x="1025.6953" y="207.0479">Validiere C.EK.Enc-Chain &amp; signed_Hash_PuK.Client.Sig</text><line style="stroke:#181818;stroke-width:1;" x1="994.168" x2="1036.168" y1="261.6875" y2="261.6875"/><line style="stroke:#181818;stroke-width:1;" x1="1036.168" x2="1036.168" y1="261.6875" y2="274.6875"/><line style="stroke:#181818;stroke-width:1;" x1="995.168" x2="1036.168" y1="274.6875" y2="274.6875"/><polygon fill="#181818" points="1005.168,270.6875,995.168,274.6875,1005.168,278.6875,1001.168,274.6875" style="stroke:#181818;stroke-width:1;"/><text fill="#000000" font-family="Helvetica" font-size="10" x="1001.168" y="251.5088">(03)</text><text fill="#000000" font-family="Helvetica" font-size="10" x="1025.6953" y="245.6885">CredentialBlob = MakeCredential(...);</text><text fill="#000000" font-family="Helvetica" font-size="10" x="1025.6953" y="257.3291">(TPM 2.0 Commands, Section 12.5)</text><polygon fill="#181818" points="515.3809,296.3281,505.3809,300.3281,515.3809,304.3281,511.3809,300.3281" style="stroke:#181818;stroke-width:1;"/><line style="stroke:#181818;stroke-width:1;stroke-dasharray:2,2;" x1="509.3809" x2="983.168" y1="300.3281" y2="300.3281"/><text fill="#000000" font-family="Helvetica" font-size="10" x="521.3809" y="295.9697">(04)</text><text fill="#000000" font-family="Helvetica" font-size="10" x="545.9082" y="295.9697">202 Accepted {CredentialBlob}</text><polygon fill="#181818" points="334.0996,321.9688,324.0996,325.9688,334.0996,329.9688,330.0996,325.9688" style="stroke:#181818;stroke-width:1;"/><line style="stroke:#181818;stroke-width:1;" x1="328.0996" x2="493.3809" y1="325.9688" y2="325.9688"/><text fill="#000000" font-family="Helvetica" font-size="10" x="340.0996" y="321.6104">(05)</text><text fill="#000000" font-family="Helvetica" font-size="10" x="364.627" y="321.6104">Activate(CredentialBlob)</text><polygon fill="#181818" points="69,347.6094,59,351.6094,69,355.6094,65,351.6094" style="stroke:#181818;stroke-width:1;"/><line style="stroke:#181818;stroke-width:1;" x1="63" x2="312.0996" y1="351.6094" y2="351.6094"/><text fill="#000000" font-family="Helvetica" font-size="10" x="75" y="347.251">(06)</text><text fill="#000000" font-family="Helvetica" font-size="10" x="99.5273" y="347.251">TPM2_ActivateCredential(CredentialBlob)</text><polygon fill="#181818" points="301.0996,373.25,311.0996,377.25,301.0996,381.25,305.0996,377.25" style="stroke:#181818;stroke-width:1;"/><line style="stroke:#181818;stroke-width:1;stroke-dasharray:2,2;" x1="58" x2="307.0996" y1="377.25" y2="377.25"/><text fill="#000000" font-family="Helvetica" font-size="10" x="65" y="372.8916">(07)</text><text fill="#000000" font-family="Helvetica" font-size="10" x="89.5273" y="372.8916">Secret</text><polygon fill="#181818" points="482.3809,398.8906,492.3809,402.8906,482.3809,406.8906,486.3809,402.8906" style="stroke:#181818;stroke-width:1;"/><line style="stroke:#181818;stroke-width:1;stroke-dasharray:2,2;" x1="323.0996" x2="488.3809" y1="402.8906" y2="402.8906"/><text fill="#000000" font-family="Helvetica" font-size="10" x="330.0996" y="398.5322">(08)</text><text fill="#000000" font-family="Helvetica" font-size="10" x="354.627" y="398.5322">Secret</text><polygon fill="#181818" points="972.168,424.5313,982.168,428.5313,972.168,432.5313,976.168,428.5313" style="stroke:#181818;stroke-width:1;"/><line style="stroke:#181818;stroke-width:1;" x1="504.3809" x2="978.168" y1="428.5313" y2="428.5313"/><text fill="#000000" font-family="Helvetica" font-size="10" x="511.3809" y="424.1729">(09)</text><text fill="#000000" font-family="Helvetica" font-size="10" x="535.9082" y="424.1729">POST /register/verify {Secret}</text><line style="stroke:#181818;stroke-width:1;" x1="994.168" x2="1036.168" y1="454.1719" y2="454.1719"/><line style="stroke:#181818;stroke-width:1;" x1="1036.168" x2="1036.168" y1="454.1719" y2="467.1719"/><line style="stroke:#181818;stroke-width:1;" x1="995.168" x2="1036.168" y1="467.1719" y2="467.1719"/><polygon fill="#181818" points="1005.168,463.1719,995.168,467.1719,1005.168,471.1719,1001.168,467.1719" style="stroke:#181818;stroke-width:1;"/><text fill="#000000" font-family="Helvetica" font-size="10" x="1001.168" y="449.8135">(10)</text><text fill="#000000" font-family="Helvetica" font-size="10" x="1025.6953" y="449.8135">Secret korrekt? &#8594; PuK.Client.Sig hardware-gebunden &#10003;</text><polygon fill="#181818" points="972.168,541.7344,982.168,545.7344,972.168,549.7344,976.168,545.7344" style="stroke:#181818;stroke-width:1;"/><line style="stroke:#181818;stroke-width:1;" x1="504.3809" x2="978.168" y1="545.7344" y2="545.7344"/><text fill="#000000" font-family="Helvetica" font-size="10" x="511.3809" y="529.7354">(11)</text><text fill="#000000" font-family="Helvetica" font-size="10" x="535.9082" y="518.0947">POST /register</text><text fill="#000000" font-family="Helvetica" font-size="10" x="535.9082" y="529.7354">{attestation_type="macos", PuK.AK.Sig, Apple_Attestation_Object,</text><text fill="#000000" font-family="Helvetica" font-size="10" x="535.9082" y="541.376">PuK.Client.Sig, signed_Hash_PuK.Client.Sig}</text><line style="stroke:#181818;stroke-width:1;" x1="994.168" x2="1036.168" y1="571.375" y2="571.375"/><line style="stroke:#181818;stroke-width:1;" x1="1036.168" x2="1036.168" y1="571.375" y2="584.375"/><line style="stroke:#181818;stroke-width:1;" x1="995.168" x2="1036.168" y1="584.375" y2="584.375"/><polygon fill="#181818" points="1005.168,580.375,995.168,584.375,1005.168,588.375,1001.168,584.375" style="stroke:#181818;stroke-width:1;"/><text fill="#000000" font-family="Helvetica" font-size="10" x="1001.168" y="567.0166">(12)</text><text fill="#000000" font-family="Helvetica" font-size="10" x="1025.6953" y="567.0166">Validiere Apple_Attestation_Object &amp; signed_Hash_PuK.Client.Sig</text><path d="M999.168,597.375 L999.168,630.375 L1273.168,630.375 L1273.168,607.375 L1263.168,597.375 L999.168,597.375" fill="#FEFFDD" style="stroke:#181818;stroke-width:0.5;"/><path d="M1263.168,597.375 L1263.168,607.375 L1273.168,607.375 L1263.168,597.375" fill="#FEFFDD" style="stroke:#181818;stroke-width:0.5;"/><text fill="#000000" font-family="Helvetica" font-size="10" x="1005.168" y="611.6572">AuthS verifiziert Apple Root CA und stellt sicher,</text><text fill="#000000" font-family="Helvetica" font-size="10" x="1005.168" y="623.2979">dass PuK.AK.Sig identisch mit x5c[0] im Objekt ist.</text><polygon fill="#181818" points="972.168,748.7813,982.168,752.7813,972.168,756.7813,976.168,752.7813" style="stroke:#181818;stroke-width:1;"/><line style="stroke:#181818;stroke-width:1;" x1="504.3809" x2="978.168" y1="752.7813" y2="752.7813"/><text fill="#000000" font-family="Helvetica" font-size="10" x="511.3809" y="713.501">(13)</text><text fill="#000000" font-family="Helvetica" font-size="10" x="535.9082" y="678.5791">POST /register</text><text fill="#000000" font-family="Helvetica" font-size="10" x="535.9082" y="690.2197">{</text><text fill="#000000" font-family="Helvetica" font-size="10" x="542.2656" y="701.8604">"client_name": "myClient",</text><text fill="#000000" font-family="Helvetica" font-size="10" x="542.2656" y="713.501">"grant_types": ["urn:ietf:params:oauth:grant-type:token-exchange", "refresh_token"],</text><text fill="#000000" font-family="Helvetica" font-size="10" x="542.2656" y="725.1416">"jwks": { "keys": [ PuK.Client.Sig ] },</text><text fill="#000000" font-family="Helvetica" font-size="10" x="542.2656" y="736.7822">"token_endpoint_auth_method": "private_key_jwt"</text><text fill="#000000" font-family="Helvetica" font-size="10" x="535.9082" y="748.4229">}</text><line style="stroke:#181818;stroke-width:1;" x1="994.168" x2="1036.168" y1="790.0625" y2="790.0625"/><line style="stroke:#181818;stroke-width:1;" x1="1036.168" x2="1036.168" y1="790.0625" y2="803.0625"/><line style="stroke:#181818;stroke-width:1;" x1="995.168" x2="1036.168" y1="803.0625" y2="803.0625"/><polygon fill="#181818" points="1005.168,799.0625,995.168,803.0625,1005.168,807.0625,1001.168,803.0625" style="stroke:#181818;stroke-width:1;"/><text fill="#000000" font-family="Helvetica" font-size="10" x="1001.168" y="779.8838">(14)</text><text fill="#000000" font-family="Helvetica" font-size="10" x="1025.6953" y="774.0635">Store Client Placeholder</text><text fill="#000000" font-family="Helvetica" font-size="10" x="1025.6953" y="785.7041">(state: pending_attestation)</text><polygon fill="#181818" points="972.168,891.625,982.168,895.625,972.168,899.625,976.168,895.625" style="stroke:#181818;stroke-width:1;"/><line style="stroke:#181818;stroke-width:1;" x1="504.3809" x2="978.168" y1="895.625" y2="895.625"/><text fill="#000000" font-family="Helvetica" font-size="10" x="511.3809" y="879.626">(15)</text><text fill="#000000" font-family="Helvetica" font-size="10" x="535.9082" y="867.9854">POST /register</text><text fill="#000000" font-family="Helvetica" font-size="10" x="535.9082" y="879.626">{attestation_type="fast_path", ZETA Guard Attestation Token,</text><text fill="#000000" font-family="Helvetica" font-size="10" x="535.9082" y="891.2666">PuK.Client.Sig, signed_Hash_PuK.Client.Sig}</text><line style="stroke:#181818;stroke-width:1;" x1="994.168" x2="1036.168" y1="921.2656" y2="921.2656"/><line style="stroke:#181818;stroke-width:1;" x1="1036.168" x2="1036.168" y1="921.2656" y2="934.2656"/><line style="stroke:#181818;stroke-width:1;" x1="995.168" x2="1036.168" y1="934.2656" y2="934.2656"/><polygon fill="#181818" points="1005.168,930.2656,995.168,934.2656,1005.168,938.2656,1001.168,934.2656" style="stroke:#181818;stroke-width:1;"/><text fill="#000000" font-family="Helvetica" font-size="10" x="1001.168" y="916.9072">(16)</text><text fill="#000000" font-family="Helvetica" font-size="10" x="1025.6953" y="916.9072">Pr&#252;fe Token-Signatur &amp; Vertrauensstellung</text><line style="stroke:#181818;stroke-width:1;" x1="994.168" x2="1036.168" y1="971.5469" y2="971.5469"/><line style="stroke:#181818;stroke-width:1;" x1="1036.168" x2="1036.168" y1="971.5469" y2="984.5469"/><line style="stroke:#181818;stroke-width:1;" x1="995.168" x2="1036.168" y1="984.5469" y2="984.5469"/><polygon fill="#181818" points="1005.168,980.5469,995.168,984.5469,1005.168,988.5469,1001.168,984.5469" style="stroke:#181818;stroke-width:1;"/><text fill="#000000" font-family="Helvetica" font-size="10" x="1001.168" y="961.3682">(17)</text><text fill="#000000" font-family="Helvetica" font-size="10" x="1025.6953" y="955.5479">Pr&#252;fe signed_Hash_PuK.Client.Sig mit dem</text><text fill="#000000" font-family="Helvetica" font-size="10" x="1025.6953" y="967.1885">PuK.AK.Sig aus dem Token</text><polygon fill="#181818" points="515.3809,1020.1875,505.3809,1024.1875,515.3809,1028.1875,511.3809,1024.1875" style="stroke:#181818;stroke-width:1;"/><line style="stroke:#181818;stroke-width:1;stroke-dasharray:2,2;" x1="509.3809" x2="983.168" y1="1024.1875" y2="1024.1875"/><text fill="#000000" font-family="Helvetica" font-size="10" x="521.3809" y="1019.8291">(18)</text><text fill="#000000" font-family="Helvetica" font-size="10" x="545.9082" y="1019.8291">201 Created {client_id}</text><?plantuml-src hLRDRjj64BxpAQOiqCgm9IkAdQQguqA_YH4h4YGrGHC7n9eSYMkHk-pkqhPi-De7QAyzzZ5wovlaIJfBIh8aIqOQ5B11SMVccxzlPyXI8qKQdwC2jr0kxxYEdd2HCCLY2734qiYqfJ03VeFmfBnP-8R52AymkaJ3VRQaqynrEb98dJ0VWuLsGwQAerhIZL2CJLWBBb9jG4Y1IpADlwKeVEpZ29NzKMV-PAnaAeA6ZAI2To4tomQ3TOFx72eRS3keDHjZBU9ZGO6CZ1Fo044RCfPccg3ZV0zrUGs-zQQTRoXvBX3UjuOrx-KljNxJQtHFkttujjrkFsqTBXHEMoTpoSjGQfF7kIhjzBflMc-6SxtMGUkWVR3GwVLFEhLMV_3hODZgp7LEsIMAWCfthzLzUz9izHSWpNQprR1HzvYYfl242JEF_aYRQOJ7pZpx9cTZMurR1o1PKhVl0AKRD6ps6s2zy9HmwrcZCPEUKYopy-OFFzRBvUpyBiT9bBoagghjMCt3rlFcmKEivvNwqsVF5bZsF-8ZZ6pcETXcFgp2r2DIoipldAFzMGseGeQR2A7PwCCLDo6ynYdKkGYu63lEDubYuvY1GNa3HgL4X7EYWKkTSrTQkbevTzZhm3uCMYum3VPbGwl99iFgAHv_-blfAT4jTZSrF4ja6VzzRM21NNgwS7HaEtHy_42h4N6aHwP8H9szhnWGYsmGploPPrSJvno9-p0yWKgf34soqyPTOzay_WpxPSfKu3wu40zYggKcp6FlDNjdmhvAnM-OuLBGhLMNg1uFa4M6MiG5tBk5cZ6eJOunb1CKcLkh-Oh4LqpXiaeLtb5xvPMc3X4xqcieK8TsPhI3MPbsTzSEe7YSHx-xMuLUTp24VOLZRcV4cRXbz_YU7HWlN9F4xXxqqjUb5lq9VmyQyrzdmXxNNfS6V9ohv2xoTqr320Fl5TEXjogxMuIKbt4UKHNUieW7D4znuQJO21bLwRj7uBQYDHG6fCDPL8_aERo03flW_M6XL2hj_7GcRDaoVZHa73CHw3tge9zruKcbTBYpZayESkTLg9GhKFDzJ0m6SBlgxyxPK7bYkgrxZU0lcS72giczAtipI9qYi-hqg7XpcwK4jbdRX8gvjsAnQhDHQ5Qn5qaiAMnZoZfFzedTV3I5sznkUpjpEKoaKZWnFyFdt_zOemc4CsONntXEOmy5VFxhppmIZ3HkONxC_Eu02eIVaeXe4j4csVdI-3Vod22bdZ5zJkbQaaJeBNdskkSNH8qPy_y_jczpz6My5z8WA3uE3SZH73ntbdMAtv0Japk1lfGqKcj0nROV1X5D5ytz41Kb5J2jbme0F6ENzaE8kO7hG_z3-IFm66nm4mDKpD9IgmPoPDPR1OLJ73D_2jsJPiCkf__If3C1uFgPcYVeQykjWXjFP-D_BvFImYUXxQ0cwGStLQ9ACtzKpJwCT5KomgvcMaMhLJLshXRnsW-P62FrsrKuKaZ5pIJknnptucfY0M_1dU0qWrudxaUuorKpEuy6Uo8vnM8TUZ7IFWXil8dABgr7CDx5bN7Fn2FNnKWx-VAwz6ZDOoYZm9QYOCk9LKWmM-ZU4dtpWjAvusHTU6oVmALKbBUzPOKsqwROOoRC0Rxcoem8mai8WihucDklk2xhfUcfJ_-CC8ShafPW9bLqEzuIiHMZpp-TSJaLuyVCjtlD21vWlBpIWANQdirsSLRYzHLWfsUb_CIk6fRjW1bTUN3d_0i0?></g></svg>