<?plantuml 1.2026.2?><svg xmlns="http://www.w3.org/2000/svg" xmlns:xlink="http://www.w3.org/1999/xlink" contentStyleType="text/css" data-diagram-type="SEQUENCE" height="1087px" preserveAspectRatio="none" style="width:1401px;height:1087px;background:#FFFFFF;" version="1.1" viewBox="0 0 1401 1087" width="1401px" zoomAndPan="magnify"><defs/><g><rect fill="#F8F8FF" height="1075.4688" style="stroke:#181818;stroke-width:0.5;" width="519.084" x="15.4204" y="6"/><text fill="#000000" font-family="Helvetica" font-size="10" font-weight="bold" x="266.5005" y="15.2822">LEI</text><rect fill="#E6E6FA" height="1058.8281" style="stroke:#181818;stroke-width:0.5;" width="242.4243" x="292.0801" y="22.6406"/><text fill="#000000" font-family="Helvetica" font-size="10" font-weight="bold" x="374.1956" y="31.9229">Prim&#228;rsystem</text><rect fill="#EDFDEC" height="1075.4688" style="stroke:#181818;stroke-width:0.5;" width="147.7842" x="910.2759" y="6"/><text fill="#000000" font-family="Helvetica" font-size="10" font-weight="bold" x="922.2759" y="15.2822">Anbieter TI 2.0 Dienst</text><rect fill="#FFF3E5" height="1058.8281" style="stroke:#181818;stroke-width:0.5;" width="147.7842" x="910.2759" y="22.6406"/><text fill="#000000" font-family="Helvetica" font-size="10" font-weight="bold" x="951.0234" y="31.9229">ZETA Guard</text><g><title>TPM . SE</title><rect fill="#000000" fill-opacity="0.00000" height="960.625" width="8" x="44.5" y="76.5625"/><line style="stroke:#000000;stroke-width:0.5;stroke-dasharray:5,5;" x1="48" x2="48" y1="76.5625" y2="1037.1875"/></g><g><title/><rect fill="#FFFFFF" height="25.6406" style="stroke:#181818;stroke-width:1;" width="10" x="43" y="346.6094"/></g><g><title>ZAS</title><rect fill="#000000" fill-opacity="0.00000" height="960.625" width="8" x="309.5996" y="76.5625"/><line style="stroke:#000000;stroke-width:0.5;stroke-dasharray:5,5;" x1="313.0996" x2="313.0996" y1="76.5625" y2="1037.1875"/></g><g><title/><rect fill="#FFFFFF" height="76.9219" style="stroke:#181818;stroke-width:1;" width="10" x="308.0996" y="320.9688"/></g><g><title>ZETA Client</title><rect fill="#000000" fill-opacity="0.00000" height="960.625" width="8" x="490.8809" y="76.5625"/><line style="stroke:#000000;stroke-width:0.5;stroke-dasharray:5,5;" x1="494.3809" x2="494.3809" y1="76.5625" y2="1037.1875"/></g><g><title/><rect fill="#FFFFFF" height="897.3438" style="stroke:#181818;stroke-width:1;" width="10" x="489.3809" y="139.8438"/></g><g><title>PDP</title><rect fill="#000000" fill-opacity="0.00000" height="960.625" width="8" x="980.668" y="76.5625"/><line style="stroke:#000000;stroke-width:0.5;stroke-dasharray:5,5;" x1="984.168" x2="984.168" y1="76.5625" y2="1037.1875"/></g><g><title/><rect fill="#FFFFFF" height="838.4219" style="stroke:#181818;stroke-width:1;" width="10" x="979.168" y="180.7656"/></g><rect fill="#E4E4F4" height="25.6406" rx="2.5" ry="2.5" style="stroke:#181818;stroke-width:0.5;" width="57.1592" x="19.4204" y="49.9219"/><text fill="#000000" font-family="Helvetica" font-size="10" x="26.4204" y="66.2041">TPM / SE</text><rect fill="#FFE6CC" height="25.6406" rx="2.5" ry="2.5" style="stroke:#D79B00;stroke-width:0.5;" width="34.0391" x="296.0801" y="49.9219"/><text fill="#000000" font-family="Helvetica" font-size="10" x="303.0801" y="66.2041">ZAS</text><rect fill="#FFE6CC" height="25.6406" rx="2.5" ry="2.5" style="stroke:#D79B00;stroke-width:0.5;" width="72.2471" x="458.2573" y="49.9219"/><text fill="#000000" font-family="Helvetica" font-size="10" x="465.2573" y="66.2041">ZETA Client</text><rect fill="#FFE6CC" height="37.2813" rx="2.5" ry="2.5" style="stroke:#D79B00;stroke-width:0.5;" width="116.9492" x="925.6934" y="38.2813"/><text fill="#000000" font-family="Helvetica" font-size="10" x="974.2876" y="54.5635">PDP</text><text fill="#000000" font-family="Helvetica" font-size="10" x="932.6934" y="66.2041">Authorization Server</text><rect fill="#E4E4F4" height="25.6406" rx="2.5" ry="2.5" style="stroke:#181818;stroke-width:0.5;" width="57.1592" x="19.4204" y="1037.1875"/><text fill="#000000" font-family="Helvetica" font-size="10" x="26.4204" y="1053.4697">TPM / SE</text><rect fill="#FFE6CC" height="25.6406" rx="2.5" ry="2.5" style="stroke:#D79B00;stroke-width:0.5;" width="34.0391" x="296.0801" y="1037.1875"/><text fill="#000000" font-family="Helvetica" font-size="10" x="303.0801" y="1053.4697">ZAS</text><rect fill="#FFE6CC" height="25.6406" rx="2.5" ry="2.5" style="stroke:#D79B00;stroke-width:0.5;" width="72.2471" x="458.2573" y="1037.1875"/><text fill="#000000" font-family="Helvetica" font-size="10" x="465.2573" y="1053.4697">ZETA Client</text><rect fill="#FFE6CC" height="37.2813" rx="2.5" ry="2.5" style="stroke:#D79B00;stroke-width:0.5;" width="116.9492" x="925.6934" y="1037.1875"/><text fill="#000000" font-family="Helvetica" font-size="10" x="974.2876" y="1053.4697">PDP</text><text fill="#000000" font-family="Helvetica" font-size="10" x="932.6934" y="1065.1104">Authorization Server</text><path d="M8,88.5625 L67.9561,88.5625 L67.9561,92.2031 L57.9561,102.2031 L8,102.2031 L8,88.5625" fill="#EEEEEE" style="stroke:#000000;stroke-width:1.5;"/><rect fill="none" height="898.9844" style="stroke:#000000;stroke-width:1.5;" width="1386.457" x="8" y="88.5625"/><text fill="#000000" font-family="Helvetica" font-size="10" font-weight="bold" x="23" y="98.8447">alt</text><text fill="#000000" font-family="Helvetica" font-size="10" font-weight="bold" x="82.9561" y="99.8447">[Kein ZETA Guard Attestation Token]</text><line style="stroke:#000000;stroke-width:1;stroke-dasharray:2,2;" x1="8" x2="1394.457" y1="831.0625" y2="831.0625"/><text fill="#000000" font-family="Helvetica" font-size="10" font-weight="bold" x="13" y="842.3447">[ZETA Guard Attestation Token vorhanden (Fast-Path)]</text><path d="M27,116.2031 L86.9561,116.2031 L86.9561,119.8438 L76.9561,129.8438 L27,129.8438 L27,116.2031" fill="#EEEEEE" style="stroke:#000000;stroke-width:1.5;"/><rect fill="none" height="689.8594" style="stroke:#000000;stroke-width:1.5;" width="1342.457" x="27" y="116.2031"/><text fill="#000000" font-family="Helvetica" font-size="10" font-weight="bold" x="42" y="126.4854">alt</text><text fill="#000000" font-family="Helvetica" font-size="10" font-weight="bold" x="101.9561" y="127.4854">[Hardware Attestation: Windows / Linux (TPM)]</text><line style="stroke:#000000;stroke-width:1;stroke-dasharray:2,2;" x1="27" x2="1369.457" y1="481.1719" y2="481.1719"/><text fill="#000000" font-family="Helvetica" font-size="10" font-weight="bold" x="32" y="492.4541">[Hardware Attestation: macOS (Secure Enclave)]</text><line style="stroke:#000000;stroke-width:1;stroke-dasharray:2,2;" x1="27" x2="1369.457" y1="641.6563" y2="641.6563"/><text fill="#000000" font-family="Helvetica" font-size="10" font-weight="bold" x="32" y="652.9385">[Software Attestation (Legacy OIDC DCR)]</text><polygon fill="#181818" points="967.168,176.7656,977.168,180.7656,967.168,184.7656,971.168,180.7656" style="stroke:#181818;stroke-width:1;"/><line style="stroke:#181818;stroke-width:1;" x1="499.3809" x2="973.168" y1="180.7656" y2="180.7656"/><text fill="#000000" font-family="Helvetica" font-size="10" x="506.3809" y="164.7666">(01)</text><text fill="#000000" font-family="Helvetica" font-size="10" x="530.9082" y="153.126">POST /register</text><text fill="#000000" font-family="Helvetica" font-size="10" x="530.9082" y="164.7666">{attestation_type="tpm", PuK.EK.Enc, C.EK.Enc,</text><text fill="#000000" font-family="Helvetica" font-size="10" x="530.9082" y="176.4072">PuK.AK.Sig, PuK.Client.Sig, signed_Hash_PuK.Client.Sig}</text><line style="stroke:#181818;stroke-width:1;" x1="989.168" x2="1031.168" y1="206.4063" y2="206.4063"/><line style="stroke:#181818;stroke-width:1;" x1="1031.168" x2="1031.168" y1="206.4063" y2="219.4063"/><line style="stroke:#181818;stroke-width:1;" x1="990.168" x2="1031.168" y1="219.4063" y2="219.4063"/><polygon fill="#181818" points="1000.168,215.4063,990.168,219.4063,1000.168,223.4063,996.168,219.4063" style="stroke:#181818;stroke-width:1;"/><text fill="#000000" font-family="Helvetica" font-size="10" x="996.168" y="202.0479">(02)</text><text fill="#000000" font-family="Helvetica" font-size="10" x="1020.6953" y="202.0479">Validiere C.EK.Enc-Chain &amp; signed_Hash_PuK.Client.Sig</text><line style="stroke:#181818;stroke-width:1;" x1="989.168" x2="1031.168" y1="256.6875" y2="256.6875"/><line style="stroke:#181818;stroke-width:1;" x1="1031.168" x2="1031.168" y1="256.6875" y2="269.6875"/><line style="stroke:#181818;stroke-width:1;" x1="990.168" x2="1031.168" y1="269.6875" y2="269.6875"/><polygon fill="#181818" points="1000.168,265.6875,990.168,269.6875,1000.168,273.6875,996.168,269.6875" style="stroke:#181818;stroke-width:1;"/><text fill="#000000" font-family="Helvetica" font-size="10" x="996.168" y="246.5088">(03)</text><text fill="#000000" font-family="Helvetica" font-size="10" x="1020.6953" y="240.6885">CredentialBlob = MakeCredential(...);</text><text fill="#000000" font-family="Helvetica" font-size="10" x="1020.6953" y="252.3291">(TPM 2.0 Commands, Section 12.5)</text><polygon fill="#181818" points="510.3809,291.3281,500.3809,295.3281,510.3809,299.3281,506.3809,295.3281" style="stroke:#181818;stroke-width:1;"/><line style="stroke:#181818;stroke-width:1;stroke-dasharray:2,2;" x1="504.3809" x2="978.168" y1="295.3281" y2="295.3281"/><text fill="#000000" font-family="Helvetica" font-size="10" x="516.3809" y="290.9697">(04)</text><text fill="#000000" font-family="Helvetica" font-size="10" x="540.9082" y="290.9697">202 Accepted {CredentialBlob}</text><polygon fill="#181818" points="329.0996,316.9688,319.0996,320.9688,329.0996,324.9688,325.0996,320.9688" style="stroke:#181818;stroke-width:1;"/><line style="stroke:#181818;stroke-width:1;" x1="323.0996" x2="488.3809" y1="320.9688" y2="320.9688"/><text fill="#000000" font-family="Helvetica" font-size="10" x="335.0996" y="316.6104">(05)</text><text fill="#000000" font-family="Helvetica" font-size="10" x="359.627" y="316.6104">Activate(CredentialBlob)</text><polygon fill="#181818" points="64,342.6094,54,346.6094,64,350.6094,60,346.6094" style="stroke:#181818;stroke-width:1;"/><line style="stroke:#181818;stroke-width:1;" x1="58" x2="307.0996" y1="346.6094" y2="346.6094"/><text fill="#000000" font-family="Helvetica" font-size="10" x="70" y="342.251">(06)</text><text fill="#000000" font-family="Helvetica" font-size="10" x="94.5273" y="342.251">TPM2_ActivateCredential(CredentialBlob)</text><polygon fill="#181818" points="296.0996,368.25,306.0996,372.25,296.0996,376.25,300.0996,372.25" style="stroke:#181818;stroke-width:1;"/><line style="stroke:#181818;stroke-width:1;stroke-dasharray:2,2;" x1="53" x2="302.0996" y1="372.25" y2="372.25"/><text fill="#000000" font-family="Helvetica" font-size="10" x="60" y="367.8916">(07)</text><text fill="#000000" font-family="Helvetica" font-size="10" x="84.5273" y="367.8916">Secret</text><polygon fill="#181818" points="477.3809,393.8906,487.3809,397.8906,477.3809,401.8906,481.3809,397.8906" style="stroke:#181818;stroke-width:1;"/><line style="stroke:#181818;stroke-width:1;stroke-dasharray:2,2;" x1="318.0996" x2="483.3809" y1="397.8906" y2="397.8906"/><text fill="#000000" font-family="Helvetica" font-size="10" x="325.0996" y="393.5322">(08)</text><text fill="#000000" font-family="Helvetica" font-size="10" x="349.627" y="393.5322">Secret</text><polygon fill="#181818" points="967.168,419.5313,977.168,423.5313,967.168,427.5313,971.168,423.5313" style="stroke:#181818;stroke-width:1;"/><line style="stroke:#181818;stroke-width:1;" x1="499.3809" x2="973.168" y1="423.5313" y2="423.5313"/><text fill="#000000" font-family="Helvetica" font-size="10" x="506.3809" y="419.1729">(09)</text><text fill="#000000" font-family="Helvetica" font-size="10" x="530.9082" y="419.1729">POST /register/verify {Secret}</text><line style="stroke:#181818;stroke-width:1;" x1="989.168" x2="1031.168" y1="449.1719" y2="449.1719"/><line style="stroke:#181818;stroke-width:1;" x1="1031.168" x2="1031.168" y1="449.1719" y2="462.1719"/><line style="stroke:#181818;stroke-width:1;" x1="990.168" x2="1031.168" y1="462.1719" y2="462.1719"/><polygon fill="#181818" points="1000.168,458.1719,990.168,462.1719,1000.168,466.1719,996.168,462.1719" style="stroke:#181818;stroke-width:1;"/><text fill="#000000" font-family="Helvetica" font-size="10" x="996.168" y="444.8135">(10)</text><text fill="#000000" font-family="Helvetica" font-size="10" x="1020.6953" y="444.8135">Secret korrekt? &#8594; PuK.Client.Sig hardware-gebunden &#10003;</text><polygon fill="#181818" points="967.168,536.7344,977.168,540.7344,967.168,544.7344,971.168,540.7344" style="stroke:#181818;stroke-width:1;"/><line style="stroke:#181818;stroke-width:1;" x1="499.3809" x2="973.168" y1="540.7344" y2="540.7344"/><text fill="#000000" font-family="Helvetica" font-size="10" x="506.3809" y="524.7354">(11)</text><text fill="#000000" font-family="Helvetica" font-size="10" x="530.9082" y="513.0947">POST /register</text><text fill="#000000" font-family="Helvetica" font-size="10" x="530.9082" y="524.7354">{attestation_type="macos", PuK.AK.Sig, Apple_Attestation_Object,</text><text fill="#000000" font-family="Helvetica" font-size="10" x="530.9082" y="536.376">PuK.Client.Sig, signed_Hash_PuK.Client.Sig}</text><line style="stroke:#181818;stroke-width:1;" x1="989.168" x2="1031.168" y1="566.375" y2="566.375"/><line style="stroke:#181818;stroke-width:1;" x1="1031.168" x2="1031.168" y1="566.375" y2="579.375"/><line style="stroke:#181818;stroke-width:1;" x1="990.168" x2="1031.168" y1="579.375" y2="579.375"/><polygon fill="#181818" points="1000.168,575.375,990.168,579.375,1000.168,583.375,996.168,579.375" style="stroke:#181818;stroke-width:1;"/><text fill="#000000" font-family="Helvetica" font-size="10" x="996.168" y="562.0166">(12)</text><text fill="#000000" font-family="Helvetica" font-size="10" x="1020.6953" y="562.0166">Validiere Apple_Attestation_Object &amp; signed_Hash_PuK.Client.Sig</text><path d="M994.168,592.375 L994.168,625.375 L1268.168,625.375 L1268.168,602.375 L1258.168,592.375 L994.168,592.375" fill="#FEFFDD" style="stroke:#181818;stroke-width:0.5;"/><path d="M1258.168,592.375 L1258.168,602.375 L1268.168,602.375 L1258.168,592.375" fill="#FEFFDD" style="stroke:#181818;stroke-width:0.5;"/><text fill="#000000" font-family="Helvetica" font-size="10" x="1000.168" y="606.6572">AuthS verifiziert Apple Root CA und stellt sicher,</text><text fill="#000000" font-family="Helvetica" font-size="10" x="1000.168" y="618.2979">dass PuK.AK.Sig identisch mit x5c[0] im Objekt ist.</text><polygon fill="#181818" points="967.168,743.7813,977.168,747.7813,967.168,751.7813,971.168,747.7813" style="stroke:#181818;stroke-width:1;"/><line style="stroke:#181818;stroke-width:1;" x1="499.3809" x2="973.168" y1="747.7813" y2="747.7813"/><text fill="#000000" font-family="Helvetica" font-size="10" x="506.3809" y="708.501">(13)</text><text fill="#000000" font-family="Helvetica" font-size="10" x="530.9082" y="673.5791">POST /register</text><text fill="#000000" font-family="Helvetica" font-size="10" x="530.9082" y="685.2197">{</text><text fill="#000000" font-family="Helvetica" font-size="10" x="537.2656" y="696.8604">"client_name": "myClient",</text><text fill="#000000" font-family="Helvetica" font-size="10" x="537.2656" y="708.501">"grant_types": ["urn:ietf:params:oauth:grant-type:token-exchange", "refresh_token"],</text><text fill="#000000" font-family="Helvetica" font-size="10" x="537.2656" y="720.1416">"jwks": { "keys": [ PuK.Client.Sig ] },</text><text fill="#000000" font-family="Helvetica" font-size="10" x="537.2656" y="731.7822">"token_endpoint_auth_method": "private_key_jwt"</text><text fill="#000000" font-family="Helvetica" font-size="10" x="530.9082" y="743.4229">}</text><line style="stroke:#181818;stroke-width:1;" x1="989.168" x2="1031.168" y1="785.0625" y2="785.0625"/><line style="stroke:#181818;stroke-width:1;" x1="1031.168" x2="1031.168" y1="785.0625" y2="798.0625"/><line style="stroke:#181818;stroke-width:1;" x1="990.168" x2="1031.168" y1="798.0625" y2="798.0625"/><polygon fill="#181818" points="1000.168,794.0625,990.168,798.0625,1000.168,802.0625,996.168,798.0625" style="stroke:#181818;stroke-width:1;"/><text fill="#000000" font-family="Helvetica" font-size="10" x="996.168" y="774.8838">(14)</text><text fill="#000000" font-family="Helvetica" font-size="10" x="1020.6953" y="769.0635">Store Client Placeholder</text><text fill="#000000" font-family="Helvetica" font-size="10" x="1020.6953" y="780.7041">(state: pending_attestation)</text><polygon fill="#181818" points="967.168,886.625,977.168,890.625,967.168,894.625,971.168,890.625" style="stroke:#181818;stroke-width:1;"/><line style="stroke:#181818;stroke-width:1;" x1="499.3809" x2="973.168" y1="890.625" y2="890.625"/><text fill="#000000" font-family="Helvetica" font-size="10" x="506.3809" y="874.626">(15)</text><text fill="#000000" font-family="Helvetica" font-size="10" x="530.9082" y="862.9854">POST /register</text><text fill="#000000" font-family="Helvetica" font-size="10" x="530.9082" y="874.626">{attestation_type="fast_path", ZETA Guard Attestation Token,</text><text fill="#000000" font-family="Helvetica" font-size="10" x="530.9082" y="886.2666">PuK.Client.Sig, signed_Hash_PuK.Client.Sig}</text><line style="stroke:#181818;stroke-width:1;" x1="989.168" x2="1031.168" y1="916.2656" y2="916.2656"/><line style="stroke:#181818;stroke-width:1;" x1="1031.168" x2="1031.168" y1="916.2656" y2="929.2656"/><line style="stroke:#181818;stroke-width:1;" x1="990.168" x2="1031.168" y1="929.2656" y2="929.2656"/><polygon fill="#181818" points="1000.168,925.2656,990.168,929.2656,1000.168,933.2656,996.168,929.2656" style="stroke:#181818;stroke-width:1;"/><text fill="#000000" font-family="Helvetica" font-size="10" x="996.168" y="911.9072">(16)</text><text fill="#000000" font-family="Helvetica" font-size="10" x="1020.6953" y="911.9072">Pr&#252;fe Token-Signatur &amp; Vertrauensstellung</text><line style="stroke:#181818;stroke-width:1;" x1="989.168" x2="1031.168" y1="966.5469" y2="966.5469"/><line style="stroke:#181818;stroke-width:1;" x1="1031.168" x2="1031.168" y1="966.5469" y2="979.5469"/><line style="stroke:#181818;stroke-width:1;" x1="990.168" x2="1031.168" y1="979.5469" y2="979.5469"/><polygon fill="#181818" points="1000.168,975.5469,990.168,979.5469,1000.168,983.5469,996.168,979.5469" style="stroke:#181818;stroke-width:1;"/><text fill="#000000" font-family="Helvetica" font-size="10" x="996.168" y="956.3682">(17)</text><text fill="#000000" font-family="Helvetica" font-size="10" x="1020.6953" y="950.5479">Pr&#252;fe signed_Hash_PuK.Client.Sig mit dem</text><text fill="#000000" font-family="Helvetica" font-size="10" x="1020.6953" y="962.1885">PuK.AK.Sig aus dem Token</text><polygon fill="#181818" points="510.3809,1015.1875,500.3809,1019.1875,510.3809,1023.1875,506.3809,1019.1875" style="stroke:#181818;stroke-width:1;"/><line style="stroke:#181818;stroke-width:1;stroke-dasharray:2,2;" x1="504.3809" x2="978.168" y1="1019.1875" y2="1019.1875"/><text fill="#000000" font-family="Helvetica" font-size="10" x="516.3809" y="1014.8291">(18)</text><text fill="#000000" font-family="Helvetica" font-size="10" x="540.9082" y="1014.8291">201 Created {client_id}</text><?plantuml-src hLRDRjj64BxpAQOiqCgm9IkAdQQguqA_YH4h4YGrGHC7n9eSYMkHk-pkqhPi-De7QAyzzZ5wovlaIJfBIh8aIqOQ5B11SMVccxzlPyXI8qKQdwC2jr0kxxYEdd2HCCLY2734qiYqfJ03VeFmfBnP-8R52AymkaJ3VRQaqynrEb98dJ0VWuLsGwQAerhIZL2CJLWBBb9jG4Y1IpADlwKeVEpZ29NzKMV-PAnaAeA6ZAI2To4tomQ3TOFx72eRS3keDHjZBU9ZGO6CZ1Fo044RCfPccg3ZV0zrUGs-zQQTRoXvBX3UjuOrx-KljNxJQtHFkttujjrkFsqTBXHEMoTpoSjGQfF7kIhjzBflMc-6SxtMGUkWVR3GwVLFEhLMV_3hODZgp7LEsIMAWCfthzLzUz9izHSWpNQprR1HzvYYfl242JEF_aYRQOJ7pZpx9cTZMurR1o1PKhVl0AKRD6ps6s2zy9HmwrcZCPEUKYopy-OFFzRBvUpyBiT9bBoagghjMCt3rlFcmKEivvNwqsVF5bZsF-8ZZ6pcETXcFgp2r2DIoipldAFzMGseGeQR2A7PwCCLDo6ynYdKkGYu63lEDubYuvY1GNa3HgL4X7EYWKkTSrTQkbevTzZhm3uCMYum3VPbGwl99iFgAHv_-blfAT4jTZSrF4ja6VzzRM21NNgwS7HaEtHy_42h4N6aHwP8H9szhnWGYsmGploPPrSJvno9-p0yWKgf34soqyPTOzay_WpxPSfKu3wu40zYggKcp6FlDNjdmhvAnM-OuLBGhLMNg1uFa4M6MiG5tBk5cZ6eJOunb1CKcLkh-Oh4LqpXiaeLtb5xvPMc3X4xqcieK8TsPhI3MPbsTzSEe7YSHx-xMuLUTp24VOLZRcV4cRXbz_YU7HWlN9F4xXxqqjUb5lq9VmyQyrzdmXxNNfS6V9ohv2xoTqr320Fl5TEXjogxMuIKbt4UKHNUieW7D4znuQJO21bLwRj7uBQYDHG6fCDPL8_aERo03flW_M6XL2hj_7GcRDaoVZHa73CHw3tge9zruKcbTBYpZayESkTLg9GhKFDzJ0m6SBlgxyxPK7bYkgrxZU0lcS72giczAtipI9qYi-hqg7XpcwK4jbdRX8gvjsAnQhDHQ5Qn5qaiAMnZoZfFzedTV3I5sznkUpjpEKoaKZWnFyFdt_zOemc4CsONntXEOmy5VFxhppmIZ3HkONxC_Eu02eIVaeXe4j4csVdI-3Vod22bdZ5zJkbQaaJeBNdskkSNH8qPy_y_jczpz6My5z8WA3uE3SZH73ntbdMAtv0Japk1lfGqKcj0nROV1X5D5ytz41Kb5J2jbme0F6ENzaE8kO7hG_z3-IFm66nm4mDKpD9IgmPoPDPR1OLJ73D_2jsJPiCkf__If3C1uFgPcYVeQykjWXjFP-D_BvFImYUXxQ0cwGStLQ9ACtzKpJwCT5KomgvcMaMhLJLshXRnsW-P62FrsrKuKaZ5pIJknnptucfY0M_1dU0qWrudxaUuorKpEuy6Uo8vnM8TUZ7IFWXil8dABgr7CDx5bN7Fn2FNnKWx-VAwz6ZDOoYZm9QYOCk9LKWmM-ZU4dtpWjAvusHTU6oVmALKbBUzPOKsqwROOoRC0Rxcoem8mai8WihucDklk2xhfUcfJ_-CC8ShafPW9bLqEzuIiHMZpp-TSJaLuyVCjtlD21vWlBpIWANQdirsSLRYzHLWfsUb_CIk6fRjW1bTUN3d_0i0?></g></svg>