<svg xmlns="http://www.w3.org/2000/svg" xmlns:xlink="http://www.w3.org/1999/xlink" contentStyleType="text/css" data-diagram-type="SEQUENCE" height="963px" preserveAspectRatio="none" style="width:976px;height:963px;background:#FFFFFF;" version="1.1" viewBox="0 0 976 963" width="976px" zoomAndPan="magnify"><?plantuml 1.2026.3?><defs/><g><rect fill="#FEFCFF" height="937.9063" style="stroke:#181818;stroke-width:0.5;" width="80.2471" x="16" y="11"/><text fill="#000000" font-family="Helvetica" font-size="10" font-weight="700" x="37.2539" y="20.2822">Device</text><rect fill="#E6E6FA" height="921.2656" style="stroke:#181818;stroke-width:0.5;" width="80.2471" x="16" y="27.6406"/><text fill="#000000" font-family="Helvetica" font-size="10" font-weight="700" x="45.0957" y="36.9229">App</text><rect fill="#EDFDEC" height="937.9063" style="stroke:#181818;stroke-width:0.5;" width="147.7842" x="472.0186" y="11"/><text fill="#000000" font-family="Helvetica" font-size="10" font-weight="700" x="484.0186" y="20.2822">Anbieter TI 2.0 Dienst</text><rect fill="#FFF3E5" height="921.2656" style="stroke:#181818;stroke-width:0.5;" width="147.7842" x="472.0186" y="27.6406"/><text fill="#000000" font-family="Helvetica" font-size="10" font-weight="700" x="512.7661" y="36.9229">ZETA Guard</text><g><title>ZETA Client</title><rect fill="#000000" fill-opacity="0.00000" height="823.0625" width="8" x="52.6235" y="81.5625"/><line style="stroke:#000000;stroke-width:0.5;stroke-dasharray:5,5;" x1="56.1235" x2="56.1235" y1="81.5625" y2="904.625"/></g><g><title/><rect fill="#FFFFFF" height="815.0625" style="stroke:#181818;stroke-width:1;" width="10" x="51.1235" y="89.5625"/></g><g><title>PDP</title><rect fill="#000000" fill-opacity="0.00000" height="823.0625" width="8" x="542.4106" y="81.5625"/><line style="stroke:#000000;stroke-width:0.5;stroke-dasharray:5,5;" x1="545.9106" x2="545.9106" y1="81.5625" y2="904.625"/></g><g><title/><rect fill="#FFFFFF" height="700.8594" style="stroke:#181818;stroke-width:1;" width="10" x="540.9106" y="185.7656"/></g><rect fill="#FFE6CC" height="25.6406" rx="2.5" ry="2.5" style="stroke:#D79B00;stroke-width:0.5;" width="72.2471" x="20" y="54.9219"/><text fill="#000000" font-family="Helvetica" font-size="10" x="27" y="71.2041">ZETA Client</text><rect fill="#FFE6CC" height="37.2813" rx="2.5" ry="2.5" style="stroke:#D79B00;stroke-width:0.5;" width="116.9492" x="487.436" y="43.2813"/><text fill="#000000" font-family="Helvetica" font-size="10" x="536.0303" y="59.5635">PDP</text><text fill="#000000" font-family="Helvetica" font-size="10" x="494.436" y="71.2041">Authorization Server</text><rect fill="#FFE6CC" height="25.6406" rx="2.5" ry="2.5" style="stroke:#D79B00;stroke-width:0.5;" width="72.2471" x="20" y="904.625"/><text fill="#000000" font-family="Helvetica" font-size="10" x="27" y="920.9072">ZETA Client</text><rect fill="#FFE6CC" height="37.2813" rx="2.5" ry="2.5" style="stroke:#D79B00;stroke-width:0.5;" width="116.9492" x="487.436" y="904.625"/><text fill="#000000" font-family="Helvetica" font-size="10" x="536.0303" y="920.9072">PDP</text><text fill="#000000" font-family="Helvetica" font-size="10" x="494.436" y="932.5479">Authorization Server</text><path d="M21.1235,93.5625 L81.0796,93.5625 L81.0796,97.2031 L71.0796,107.2031 L21.1235,107.2031 L21.1235,93.5625" fill="#EEEEEE" style="stroke:#000000;stroke-width:1.5;"/><rect fill="none" height="761.4219" style="stroke:#000000;stroke-width:1.5;" width="935.0762" x="21.1235" y="93.5625"/><text fill="#000000" font-family="Helvetica" font-size="10" font-weight="700" x="36.1235" y="103.8447">alt</text><text fill="#000000" font-family="Helvetica" font-size="10" font-weight="700" x="96.0796" y="104.8447">[Kein ZETA Guard Attestation Token]</text><line style="stroke:#000000;stroke-width:1;stroke-dasharray:2,2;" x1="21.1235" x2="956.1997" y1="698.5" y2="698.5"/><text fill="#000000" font-family="Helvetica" font-size="10" font-weight="700" x="26.1235" y="709.7822">[ZETA Attestation Token vorhanden]</text><path d="M40.1235,121.2031 L100.0796,121.2031 L100.0796,124.8438 L90.0796,134.8438 L40.1235,134.8438 L40.1235,121.2031" fill="#EEEEEE" style="stroke:#000000;stroke-width:1.5;"/><rect fill="none" height="552.2969" style="stroke:#000000;stroke-width:1.5;" width="891.0762" x="40.1235" y="121.2031"/><text fill="#000000" font-family="Helvetica" font-size="10" font-weight="700" x="55.1235" y="131.4854">alt</text><text fill="#000000" font-family="Helvetica" font-size="10" font-weight="700" x="115.0796" y="132.4854">[Hardware Attestation: iOS, iPadOS, macOS (Apple App Attest)]</text><line style="stroke:#000000;stroke-width:1;stroke-dasharray:2,2;" x1="40.1235" x2="931.1997" y1="286.6875" y2="286.6875"/><text fill="#000000" font-family="Helvetica" font-size="10" font-weight="700" x="45.1235" y="297.9697">[Hardware Attestation: Android (Keystore, TEE, StrongBox)]</text><line style="stroke:#000000;stroke-width:1;stroke-dasharray:2,2;" x1="40.1235" x2="931.1997" y1="520.7344" y2="520.7344"/><text fill="#000000" font-family="Helvetica" font-size="10" font-weight="700" x="45.1235" y="532.0166">[Software Attestation (Legacy OIDC DCR)]</text><polygon fill="#181818" points="528.9106,181.7656,538.9106,185.7656,528.9106,189.7656,532.9106,185.7656" style="stroke:#181818;stroke-width:1;"/><line style="stroke:#181818;stroke-width:1;" x1="61.1235" x2="534.9106" y1="185.7656" y2="185.7656"/><text fill="#000000" font-family="Helvetica" font-size="10" x="68.1235" y="169.7666">(01)</text><text fill="#000000" font-family="Helvetica" font-size="10" x="92.6509" y="158.126">POST /register</text><text fill="#000000" font-family="Helvetica" font-size="10" x="92.6509" y="169.7666">{attestation_type="apple", PuK.AK.Sig, Apple_Attestation_Object,</text><text fill="#000000" font-family="Helvetica" font-size="10" x="92.6509" y="181.4072">PuK.Client.Sig, signed_Hash_PuK.Client.Sig}</text><line style="stroke:#181818;stroke-width:1;" x1="550.9106" x2="592.9106" y1="211.4063" y2="211.4063"/><line style="stroke:#181818;stroke-width:1;" x1="592.9106" x2="592.9106" y1="211.4063" y2="224.4063"/><line style="stroke:#181818;stroke-width:1;" x1="551.9106" x2="592.9106" y1="224.4063" y2="224.4063"/><polygon fill="#181818" points="561.9106,220.4063,551.9106,224.4063,561.9106,228.4063,557.9106,224.4063" style="stroke:#181818;stroke-width:1;"/><text fill="#000000" font-family="Helvetica" font-size="10" x="557.9106" y="207.0479">(02)</text><text fill="#000000" font-family="Helvetica" font-size="10" x="582.438" y="207.0479">Validiere Apple_Attestation_Object &amp; signed_Hash_PuK.Client.Sig</text><path d="M555.9106,237.4063 L555.9106,270.4063 L852.9106,270.4063 L852.9106,247.4063 L842.9106,237.4063 L555.9106,237.4063" fill="#FEFFDD" style="stroke:#181818;stroke-width:0.5;"/><path d="M842.9106,237.4063 L842.9106,247.4063 L852.9106,247.4063 L842.9106,237.4063" fill="#FEFFDD" style="stroke:#181818;stroke-width:0.5;"/><text fill="#000000" font-family="Helvetica" font-size="10" x="561.9106" y="251.6885">AuthS verifiziert Apple App Attest Root CA und pr&#252;ft,</text><text fill="#000000" font-family="Helvetica" font-size="10" x="561.9106" y="263.3291">dass PuK.AK.Sig mit x5c[0] des Objekts &#252;bereinstimmt.</text><polygon fill="#181818" points="528.9106,365.5313,538.9106,369.5313,528.9106,373.5313,532.9106,369.5313" style="stroke:#181818;stroke-width:1;"/><line style="stroke:#181818;stroke-width:1;" x1="61.1235" x2="534.9106" y1="369.5313" y2="369.5313"/><text fill="#000000" font-family="Helvetica" font-size="10" x="68.1235" y="341.8916">(03)</text><text fill="#000000" font-family="Helvetica" font-size="10" x="92.6509" y="318.6104">POST /register</text><text fill="#000000" font-family="Helvetica" font-size="10" x="92.6509" y="330.251">{attestation_type="android", PuK.AK.Sig,</text><text fill="#000000" font-family="Helvetica" font-size="10" x="92.6509" y="341.8916">Android_Key_Attestation_Certificate_Chain,</text><text fill="#000000" font-family="Helvetica" font-size="10" x="92.6509" y="353.5322">PuK.Client.Sig, signed_Hash_PuK.Client.Sig</text><text fill="#000000" font-family="Helvetica" font-size="10" x="92.6509" y="365.1729">[, play_integrity_token]}</text><line style="stroke:#181818;stroke-width:1;" x1="550.9106" x2="592.9106" y1="395.1719" y2="395.1719"/><line style="stroke:#181818;stroke-width:1;" x1="592.9106" x2="592.9106" y1="395.1719" y2="408.1719"/><line style="stroke:#181818;stroke-width:1;" x1="551.9106" x2="592.9106" y1="408.1719" y2="408.1719"/><polygon fill="#181818" points="561.9106,404.1719,551.9106,408.1719,561.9106,412.1719,557.9106,408.1719" style="stroke:#181818;stroke-width:1;"/><text fill="#000000" font-family="Helvetica" font-size="10" x="557.9106" y="390.8135">(04)</text><text fill="#000000" font-family="Helvetica" font-size="10" x="582.438" y="390.8135">Validiere Zertifikatskette gegen Google Root CA</text><line style="stroke:#181818;stroke-width:1;" x1="550.9106" x2="592.9106" y1="433.8125" y2="433.8125"/><line style="stroke:#181818;stroke-width:1;" x1="592.9106" x2="592.9106" y1="433.8125" y2="446.8125"/><line style="stroke:#181818;stroke-width:1;" x1="551.9106" x2="592.9106" y1="446.8125" y2="446.8125"/><polygon fill="#181818" points="561.9106,442.8125,551.9106,446.8125,561.9106,450.8125,557.9106,446.8125" style="stroke:#181818;stroke-width:1;"/><text fill="#000000" font-family="Helvetica" font-size="10" x="557.9106" y="429.4541">(05)</text><text fill="#000000" font-family="Helvetica" font-size="10" x="582.438" y="429.4541">Pr&#252;fe signed_Hash_PuK.Client.Sig &amp; (optional) Play Integrity</text><path d="M555.9106,459.8125 L555.9106,503.8125 L858.9106,503.8125 L858.9106,469.8125 L848.9106,459.8125 L555.9106,459.8125" fill="#FEFFDD" style="stroke:#181818;stroke-width:0.5;"/><path d="M848.9106,459.8125 L848.9106,469.8125 L858.9106,469.8125 L848.9106,459.8125" fill="#FEFFDD" style="stroke:#181818;stroke-width:0.5;"/><text fill="#000000" font-family="Helvetica" font-size="10" x="561.9106" y="474.0947">PuK.AK.Sig muss mit dem Blatt-Zertifikat</text><text fill="#000000" font-family="Helvetica" font-size="10" x="561.9106" y="485.7354">der Certificate Chain &#252;bereinstimmen.</text><text fill="#000000" font-family="Helvetica" font-size="10" x="561.9106" y="497.376">Sicherheitsniveau: TrustedEnvironment oder StrongBox.</text><polygon fill="#181818" points="528.9106,622.8594,538.9106,626.8594,528.9106,630.8594,532.9106,626.8594" style="stroke:#181818;stroke-width:1;"/><line style="stroke:#181818;stroke-width:1;" x1="61.1235" x2="534.9106" y1="626.8594" y2="626.8594"/><text fill="#000000" font-family="Helvetica" font-size="10" x="68.1235" y="587.5791">(06)</text><text fill="#000000" font-family="Helvetica" font-size="10" x="92.6509" y="552.6572">POST /register</text><text fill="#000000" font-family="Helvetica" font-size="10" x="92.6509" y="564.2979">{</text><text fill="#000000" font-family="Helvetica" font-size="10" x="99.0083" y="575.9385">"client_name": "myClient",</text><text fill="#000000" font-family="Helvetica" font-size="10" x="99.0083" y="587.5791">"grant_types": ["urn:ietf:params:oauth:grant-type:token-exchange", "refresh_token"],</text><text fill="#000000" font-family="Helvetica" font-size="10" x="99.0083" y="599.2197">"jwks": { "keys": [ PuK.Client.Sig ] },</text><text fill="#000000" font-family="Helvetica" font-size="10" x="99.0083" y="610.8604">"token_endpoint_auth_method": "private_key_jwt"</text><text fill="#000000" font-family="Helvetica" font-size="10" x="92.6509" y="622.501">}</text><line style="stroke:#181818;stroke-width:1;" x1="550.9106" x2="592.9106" y1="652.5" y2="652.5"/><line style="stroke:#181818;stroke-width:1;" x1="592.9106" x2="592.9106" y1="652.5" y2="665.5"/><line style="stroke:#181818;stroke-width:1;" x1="551.9106" x2="592.9106" y1="665.5" y2="665.5"/><polygon fill="#181818" points="561.9106,661.5,551.9106,665.5,561.9106,669.5,557.9106,665.5" style="stroke:#181818;stroke-width:1;"/><text fill="#000000" font-family="Helvetica" font-size="10" x="557.9106" y="648.1416">(07)</text><text fill="#000000" font-family="Helvetica" font-size="10" x="582.438" y="648.1416">Store Client Placeholder (state: pending_attestation)</text><polygon fill="#181818" points="528.9106,765.7031,538.9106,769.7031,528.9106,773.7031,532.9106,769.7031" style="stroke:#181818;stroke-width:1;"/><line style="stroke:#181818;stroke-width:1;" x1="61.1235" x2="534.9106" y1="769.7031" y2="769.7031"/><text fill="#000000" font-family="Helvetica" font-size="10" x="68.1235" y="747.8838">(08)</text><text fill="#000000" font-family="Helvetica" font-size="10" x="92.6509" y="730.4229">POST /register</text><text fill="#000000" font-family="Helvetica" font-size="10" x="92.6509" y="742.0635">{attestation_type="zeta_attestation_token",</text><text fill="#000000" font-family="Helvetica" font-size="10" x="92.6509" y="753.7041">zeta_guard_attestation_token, PuK.Client.Sig,</text><text fill="#000000" font-family="Helvetica" font-size="10" x="92.6509" y="765.3447">signed_Hash_PuK.Client.Sig}</text><line style="stroke:#181818;stroke-width:1;" x1="550.9106" x2="592.9106" y1="795.3438" y2="795.3438"/><line style="stroke:#181818;stroke-width:1;" x1="592.9106" x2="592.9106" y1="795.3438" y2="808.3438"/><line style="stroke:#181818;stroke-width:1;" x1="551.9106" x2="592.9106" y1="808.3438" y2="808.3438"/><polygon fill="#181818" points="561.9106,804.3438,551.9106,808.3438,561.9106,812.3438,557.9106,808.3438" style="stroke:#181818;stroke-width:1;"/><text fill="#000000" font-family="Helvetica" font-size="10" x="557.9106" y="790.9854">(09)</text><text fill="#000000" font-family="Helvetica" font-size="10" x="582.438" y="790.9854">Pr&#252;fe Token-Signatur &amp; Vertrauensstellung</text><line style="stroke:#181818;stroke-width:1;" x1="550.9106" x2="592.9106" y1="833.9844" y2="833.9844"/><line style="stroke:#181818;stroke-width:1;" x1="592.9106" x2="592.9106" y1="833.9844" y2="846.9844"/><line style="stroke:#181818;stroke-width:1;" x1="551.9106" x2="592.9106" y1="846.9844" y2="846.9844"/><polygon fill="#181818" points="561.9106,842.9844,551.9106,846.9844,561.9106,850.9844,557.9106,846.9844" style="stroke:#181818;stroke-width:1;"/><text fill="#000000" font-family="Helvetica" font-size="10" x="557.9106" y="829.626">(10)</text><text fill="#000000" font-family="Helvetica" font-size="10" x="582.438" y="829.626">Extrahiere PuK.AK.Sig aus Token, pr&#252;fe signed_Hash_PuK.Client.Sig</text><polygon fill="#181818" points="72.1235,882.625,62.1235,886.625,72.1235,890.625,68.1235,886.625" style="stroke:#181818;stroke-width:1;"/><line style="stroke:#181818;stroke-width:1;stroke-dasharray:2,2;" x1="66.1235" x2="539.9106" y1="886.625" y2="886.625"/><text fill="#000000" font-family="Helvetica" font-size="10" x="78.1235" y="882.2666">(11)</text><text fill="#000000" font-family="Helvetica" font-size="10" x="102.6509" y="882.2666">201 Created {client_id}</text><?plantuml-src dLPXKziu4FtkNx7rpTpH8Q4ffRrUXcCcn8Pc2aqcoN5pRHYFiDUEY2EvaXm83F-it_h7RcKdmG72jVS1adXNJwlttgxCSYD5Fhr01UvMe_7ITVI4YumfDeK8OvQdvaWAC-0t2AyRJmS_iId21qndQ7Z8AZbUcNCgXTGP2p5QPRTbhZYgIcwA8Z7ZLdIPQmD22gp4D7xDKOJOnnYL_NB8macYP2wYjaobWh_7t5GN31ukk3_3xXEufwWrIx2LyaHG8R5nnZn2q8OMIpFFq75-WqDv3Q7TJJilwF1S87psXwtW-AzMtmlQtPDk7tuvEZfwuxzT9PpudMNaU2orAUjSZvxskf_yJyDbdh_dxntjhN9w_Svfo-yF_XaC_TDbpWcReOY8llkixbd7y_ih4E_8yzkhiEUVTTh-CXXZ7CQnFLAFALACPqoOvT7sjPcdUE0igV4uIonLjmv0Lactlm5sRj2mnNU0XweG6_wxTdiHFQ5A5i-zt_yuR3IAvtSbJgRaZ2XNcx6yj_vxR-ynrllTmpVltgsmx5_AOqpjkKkmfyso3dEOKbAn_CxPVxNWW1WotAJ4NxiFLzoCuIFEuP2BY8l4SLvaYYLJ1WRb3HYLaqiko2EkXpCUehl6Ea4NiLQMkKzfMfHJvRUTSgGFfi6rBblyTc5_tr9-S40Bo08Mr5b-bhktn0L7CYuCEx2xqm2FrcdZFh38ifu2-pXdAd8VkVbHJQtSZ0T5IJslDnBsfrJyXXak1RMScg5wli3o4DlR3aiDSSa5tEyFBMDGcn9iA2SeYlrjvWSANp65rPGcyEwW1hp78livPM5t05j4Byb5_nUfBnT-WIMVzOFo5DlRJUXr1qDufJ3Xjj57ufRTmmUsw_zqcSLpQz3BF-wqFkuCU5A3Oe-WKahGlRZ4qDH6mgQL6vMfckO9Hi47fiV1UknkLLX9whAk9fonb4Sq6d7ZHl3hCy0hN24DWkB9s82Cb-3bPgGJZ_aDRMBW8MFGbvBSrm9g5yZKzs-nFLZ4jAwG05DkuFfj-ALnJlU01blNn6Zu_etk4P9L6pwTcXsdA0PJZHiaR8b8IHx15lMLDb9X3OQ-NuE1KL8aD70twlTZwfNmw_gHRyl70MswncwR-21UGcOmQ8yP5p-bw4XygK6Midd0XS54SJCFZBNn-Oze_RdSUyACdY3L10acAE1OoeJaMMYo4QTdTS9dYYFBRCdCdfAbBw57LK9dMUNpZgcAdfC9hF8HJkt0DAP-N_R8taTGeH0A2jSjWM9d90Oy7ACQ8pTQy1col0b3HPS-HhwOSH9-QeMM5cxbWwgL1Z8s3wq4MoUOi70EtOxNjkFwPump4W1kMAG5WbvEt2Quq_bYuDQAA5s15BIkqXJzukPAD6dAnitYFK8t9IFiPf5LjrdDGlawNeTZ9X8xGLo5iK8IfeYuvoNkvTN40jw2Ew4EiD3mGBXpk2jJYtK1ZT9Cai42ks4mHPh0aQqtKtncVKimmUMLSKTYi-i6jjEMl90NGXpBrDAzPTd49cHOt711fQDAFkcvunGY57FxqSI6cLHqu6Wnk_zFpzhB8rXxNF1571IHn5uLZ-Er1xHH-d_DtWqzL9oZJbc2cLnHtvoHfHMZTo5DDQTfBf8db_lNb3KkUhdICYpN9MAjdANFzQXJiBl09U0oKgytORVn6jeAIPi8RXT6vT6Tyoy0?></g></svg>