<svg xmlns="http://www.w3.org/2000/svg" xmlns:xlink="http://www.w3.org/1999/xlink" contentStyleType="text/css" data-diagram-type="SEQUENCE" height="1358px" preserveAspectRatio="none" style="width:1419px;height:1358px;background:#FFFFFF;" version="1.1" viewBox="0 0 1419 1358" width="1419px" zoomAndPan="magnify"><?plantuml 1.2026.3?><defs/><g><rect fill="#F8F8FF" height="1332.7969" style="stroke:#181818;stroke-width:0.5;" width="519.084" x="20.4204" y="11"/><text fill="#000000" font-family="Helvetica" font-size="10" font-weight="700" x="271.5005" y="20.2822">LEI</text><rect fill="#E6E6FA" height="1316.1563" style="stroke:#181818;stroke-width:0.5;" width="242.4243" x="297.0801" y="27.6406"/><text fill="#000000" font-family="Helvetica" font-size="10" font-weight="700" x="379.1956" y="36.9229">Prim&#228;rsystem</text><rect fill="#EDFDEC" height="1332.7969" style="stroke:#181818;stroke-width:0.5;" width="147.7842" x="915.2759" y="11"/><text fill="#000000" font-family="Helvetica" font-size="10" font-weight="700" x="927.2759" y="20.2822">Anbieter TI 2.0 Dienst</text><rect fill="#FFF3E5" height="1316.1563" style="stroke:#181818;stroke-width:0.5;" width="147.7842" x="915.2759" y="27.6406"/><text fill="#000000" font-family="Helvetica" font-size="10" font-weight="700" x="956.0234" y="36.9229">ZETA Guard</text><g><title>TPM . SE</title><rect fill="#000000" fill-opacity="0.00000" height="1217.9531" width="8" x="49.5" y="81.5625"/><line style="stroke:#000000;stroke-width:0.5;stroke-dasharray:5,5;" x1="53" x2="53" y1="81.5625" y2="1299.5156"/></g><g><title/><rect fill="#FFFFFF" height="25.6406" style="stroke:#181818;stroke-width:1;" width="10" x="48" y="351.6094"/></g><g><title>ZAS</title><rect fill="#000000" fill-opacity="0.00000" height="1217.9531" width="8" x="314.5996" y="81.5625"/><line style="stroke:#000000;stroke-width:0.5;stroke-dasharray:5,5;" x1="318.0996" x2="318.0996" y1="81.5625" y2="1299.5156"/></g><g><title/><rect fill="#FFFFFF" height="76.9219" style="stroke:#181818;stroke-width:1;" width="10" x="313.0996" y="325.9688"/></g><g><title>ZETA Client</title><rect fill="#000000" fill-opacity="0.00000" height="1217.9531" width="8" x="495.8809" y="81.5625"/><line style="stroke:#000000;stroke-width:0.5;stroke-dasharray:5,5;" x1="499.3809" x2="499.3809" y1="81.5625" y2="1299.5156"/></g><g><title/><rect fill="#FFFFFF" height="1154.6719" style="stroke:#181818;stroke-width:1;" width="10" x="494.3809" y="144.8438"/></g><g><title>PDP</title><rect fill="#000000" fill-opacity="0.00000" height="1217.9531" width="8" x="985.668" y="81.5625"/><line style="stroke:#000000;stroke-width:0.5;stroke-dasharray:5,5;" x1="989.168" x2="989.168" y1="81.5625" y2="1299.5156"/></g><g><title/><rect fill="#FFFFFF" height="1095.75" style="stroke:#181818;stroke-width:1;" width="10" x="984.168" y="185.7656"/></g><rect fill="#E4E4F4" height="25.6406" rx="2.5" ry="2.5" style="stroke:#181818;stroke-width:0.5;" width="57.1592" x="24.4204" y="54.9219"/><text fill="#000000" font-family="Helvetica" font-size="10" x="31.4204" y="71.2041">TPM / SE</text><rect fill="#FFE6CC" height="25.6406" rx="2.5" ry="2.5" style="stroke:#D79B00;stroke-width:0.5;" width="34.0391" x="301.0801" y="54.9219"/><text fill="#000000" font-family="Helvetica" font-size="10" x="308.0801" y="71.2041">ZAS</text><rect fill="#FFE6CC" height="25.6406" rx="2.5" ry="2.5" style="stroke:#D79B00;stroke-width:0.5;" width="72.2471" x="463.2573" y="54.9219"/><text fill="#000000" font-family="Helvetica" font-size="10" x="470.2573" y="71.2041">ZETA Client</text><rect fill="#FFE6CC" height="37.2813" rx="2.5" ry="2.5" style="stroke:#D79B00;stroke-width:0.5;" width="116.9492" x="930.6934" y="43.2813"/><text fill="#000000" font-family="Helvetica" font-size="10" x="979.2876" y="59.5635">PDP</text><text fill="#000000" font-family="Helvetica" font-size="10" x="937.6934" y="71.2041">Authorization Server</text><rect fill="#E4E4F4" height="25.6406" rx="2.5" ry="2.5" style="stroke:#181818;stroke-width:0.5;" width="57.1592" x="24.4204" y="1299.5156"/><text fill="#000000" font-family="Helvetica" font-size="10" x="31.4204" y="1315.7979">TPM / SE</text><rect fill="#FFE6CC" height="25.6406" rx="2.5" ry="2.5" style="stroke:#D79B00;stroke-width:0.5;" width="34.0391" x="301.0801" y="1299.5156"/><text fill="#000000" font-family="Helvetica" font-size="10" x="308.0801" y="1315.7979">ZAS</text><rect fill="#FFE6CC" height="25.6406" rx="2.5" ry="2.5" style="stroke:#D79B00;stroke-width:0.5;" width="72.2471" x="463.2573" y="1299.5156"/><text fill="#000000" font-family="Helvetica" font-size="10" x="470.2573" y="1315.7979">ZETA Client</text><rect fill="#FFE6CC" height="37.2813" rx="2.5" ry="2.5" style="stroke:#D79B00;stroke-width:0.5;" width="116.9492" x="930.6934" y="1299.5156"/><text fill="#000000" font-family="Helvetica" font-size="10" x="979.2876" y="1315.7979">PDP</text><text fill="#000000" font-family="Helvetica" font-size="10" x="937.6934" y="1327.4385">Authorization Server</text><path d="M13,93.5625 L72.9561,93.5625 L72.9561,97.2031 L62.9561,107.2031 L13,107.2031 L13,93.5625" fill="#EEEEEE" style="stroke:#000000;stroke-width:1.5;"/><rect fill="none" height="1156.3125" style="stroke:#000000;stroke-width:1.5;" width="1386.457" x="13" y="93.5625"/><text fill="#000000" font-family="Helvetica" font-size="10" font-weight="700" x="28" y="103.8447">alt</text><text fill="#000000" font-family="Helvetica" font-size="10" font-weight="700" x="87.9561" y="104.8447">[Kein ZETA Guard Attestation Token]</text><line style="stroke:#000000;stroke-width:1;stroke-dasharray:2,2;" x1="13" x2="1399.457" y1="1081.75" y2="1081.75"/><text fill="#000000" font-family="Helvetica" font-size="10" font-weight="700" x="18" y="1093.0322">[ZETA Attestation Token vorhanden]</text><path d="M32,121.2031 L91.9561,121.2031 L91.9561,124.8438 L81.9561,134.8438 L32,134.8438 L32,121.2031" fill="#EEEEEE" style="stroke:#000000;stroke-width:1.5;"/><rect fill="none" height="935.5469" style="stroke:#000000;stroke-width:1.5;" width="1342.457" x="32" y="121.2031"/><text fill="#000000" font-family="Helvetica" font-size="10" font-weight="700" x="47" y="131.4854">alt</text><text fill="#000000" font-family="Helvetica" font-size="10" font-weight="700" x="106.9561" y="132.4854">[Hardware Attestation: Windows / Linux (TPM)]</text><line style="stroke:#000000;stroke-width:1;stroke-dasharray:2,2;" x1="32" x2="1374.457" y1="486.1719" y2="486.1719"/><text fill="#000000" font-family="Helvetica" font-size="10" font-weight="700" x="37" y="497.4541">[Hardware Attestation: iOS / iPadOS / macOS (Apple App Attest)]</text><line style="stroke:#000000;stroke-width:1;stroke-dasharray:2,2;" x1="32" x2="1374.457" y1="658.2969" y2="658.2969"/><text fill="#000000" font-family="Helvetica" font-size="10" font-weight="700" x="37" y="669.5791">[Hardware Attestation: Android (Keystore / TEE / StrongBox)]</text><line style="stroke:#000000;stroke-width:1;stroke-dasharray:2,2;" x1="32" x2="1374.457" y1="892.3438" y2="892.3438"/><text fill="#000000" font-family="Helvetica" font-size="10" font-weight="700" x="37" y="903.626">[Software Attestation (Legacy OIDC DCR)]</text><polygon fill="#181818" points="972.168,181.7656,982.168,185.7656,972.168,189.7656,976.168,185.7656" style="stroke:#181818;stroke-width:1;"/><line style="stroke:#181818;stroke-width:1;" x1="504.3809" x2="978.168" y1="185.7656" y2="185.7656"/><text fill="#000000" font-family="Helvetica" font-size="10" x="511.3809" y="169.7666">(01)</text><text fill="#000000" font-family="Helvetica" font-size="10" x="535.9082" y="158.126">POST /register</text><text fill="#000000" font-family="Helvetica" font-size="10" x="535.9082" y="169.7666">{attestation_type="tpm", PuK.EK.Enc, C.EK.Enc,</text><text fill="#000000" font-family="Helvetica" font-size="10" x="535.9082" y="181.4072">PuK.AK.Sig, PuK.Client.Sig, signed_Hash_PuK.Client.Sig}</text><line style="stroke:#181818;stroke-width:1;" x1="994.168" x2="1036.168" y1="211.4063" y2="211.4063"/><line style="stroke:#181818;stroke-width:1;" x1="1036.168" x2="1036.168" y1="211.4063" y2="224.4063"/><line style="stroke:#181818;stroke-width:1;" x1="995.168" x2="1036.168" y1="224.4063" y2="224.4063"/><polygon fill="#181818" points="1005.168,220.4063,995.168,224.4063,1005.168,228.4063,1001.168,224.4063" style="stroke:#181818;stroke-width:1;"/><text fill="#000000" font-family="Helvetica" font-size="10" x="1001.168" y="207.0479">(02)</text><text fill="#000000" font-family="Helvetica" font-size="10" x="1025.6953" y="207.0479">Validiere C.EK.Enc-Chain &amp; signed_Hash_PuK.Client.Sig</text><line style="stroke:#181818;stroke-width:1;" x1="994.168" x2="1036.168" y1="261.6875" y2="261.6875"/><line style="stroke:#181818;stroke-width:1;" x1="1036.168" x2="1036.168" y1="261.6875" y2="274.6875"/><line style="stroke:#181818;stroke-width:1;" x1="995.168" x2="1036.168" y1="274.6875" y2="274.6875"/><polygon fill="#181818" points="1005.168,270.6875,995.168,274.6875,1005.168,278.6875,1001.168,274.6875" style="stroke:#181818;stroke-width:1;"/><text fill="#000000" font-family="Helvetica" font-size="10" x="1001.168" y="251.5088">(03)</text><text fill="#000000" font-family="Helvetica" font-size="10" x="1025.6953" y="245.6885">CredentialBlob = MakeCredential(...);</text><text fill="#000000" font-family="Helvetica" font-size="10" x="1025.6953" y="257.3291">(TPM 2.0 Commands, Section 12.5)</text><polygon fill="#181818" points="515.3809,296.3281,505.3809,300.3281,515.3809,304.3281,511.3809,300.3281" style="stroke:#181818;stroke-width:1;"/><line style="stroke:#181818;stroke-width:1;stroke-dasharray:2,2;" x1="509.3809" x2="983.168" y1="300.3281" y2="300.3281"/><text fill="#000000" font-family="Helvetica" font-size="10" x="521.3809" y="295.9697">(04)</text><text fill="#000000" font-family="Helvetica" font-size="10" x="545.9082" y="295.9697">202 Accepted {CredentialBlob}</text><polygon fill="#181818" points="334.0996,321.9688,324.0996,325.9688,334.0996,329.9688,330.0996,325.9688" style="stroke:#181818;stroke-width:1;"/><line style="stroke:#181818;stroke-width:1;" x1="328.0996" x2="493.3809" y1="325.9688" y2="325.9688"/><text fill="#000000" font-family="Helvetica" font-size="10" x="340.0996" y="321.6104">(05)</text><text fill="#000000" font-family="Helvetica" font-size="10" x="364.627" y="321.6104">Activate(CredentialBlob)</text><polygon fill="#181818" points="69,347.6094,59,351.6094,69,355.6094,65,351.6094" style="stroke:#181818;stroke-width:1;"/><line style="stroke:#181818;stroke-width:1;" x1="63" x2="312.0996" y1="351.6094" y2="351.6094"/><text fill="#000000" font-family="Helvetica" font-size="10" x="75" y="347.251">(06)</text><text fill="#000000" font-family="Helvetica" font-size="10" x="99.5273" y="347.251">TPM2_ActivateCredential(CredentialBlob)</text><polygon fill="#181818" points="301.0996,373.25,311.0996,377.25,301.0996,381.25,305.0996,377.25" style="stroke:#181818;stroke-width:1;"/><line style="stroke:#181818;stroke-width:1;stroke-dasharray:2,2;" x1="58" x2="307.0996" y1="377.25" y2="377.25"/><text fill="#000000" font-family="Helvetica" font-size="10" x="65" y="372.8916">(07)</text><text fill="#000000" font-family="Helvetica" font-size="10" x="89.5273" y="372.8916">Secret</text><polygon fill="#181818" points="482.3809,398.8906,492.3809,402.8906,482.3809,406.8906,486.3809,402.8906" style="stroke:#181818;stroke-width:1;"/><line style="stroke:#181818;stroke-width:1;stroke-dasharray:2,2;" x1="323.0996" x2="488.3809" y1="402.8906" y2="402.8906"/><text fill="#000000" font-family="Helvetica" font-size="10" x="330.0996" y="398.5322">(08)</text><text fill="#000000" font-family="Helvetica" font-size="10" x="354.627" y="398.5322">Secret</text><polygon fill="#181818" points="972.168,424.5313,982.168,428.5313,972.168,432.5313,976.168,428.5313" style="stroke:#181818;stroke-width:1;"/><line style="stroke:#181818;stroke-width:1;" x1="504.3809" x2="978.168" y1="428.5313" y2="428.5313"/><text fill="#000000" font-family="Helvetica" font-size="10" x="511.3809" y="424.1729">(09)</text><text fill="#000000" font-family="Helvetica" font-size="10" x="535.9082" y="424.1729">POST /register/verify {Secret}</text><line style="stroke:#181818;stroke-width:1;" x1="994.168" x2="1036.168" y1="454.1719" y2="454.1719"/><line style="stroke:#181818;stroke-width:1;" x1="1036.168" x2="1036.168" y1="454.1719" y2="467.1719"/><line style="stroke:#181818;stroke-width:1;" x1="995.168" x2="1036.168" y1="467.1719" y2="467.1719"/><polygon fill="#181818" points="1005.168,463.1719,995.168,467.1719,1005.168,471.1719,1001.168,467.1719" style="stroke:#181818;stroke-width:1;"/><text fill="#000000" font-family="Helvetica" font-size="10" x="1001.168" y="449.8135">(10)</text><text fill="#000000" font-family="Helvetica" font-size="10" x="1025.6953" y="449.8135">Secret korrekt? &#8594; PuK.Client.Sig hardware-gebunden &#10003;</text><polygon fill="#181818" points="972.168,541.7344,982.168,545.7344,972.168,549.7344,976.168,545.7344" style="stroke:#181818;stroke-width:1;"/><line style="stroke:#181818;stroke-width:1;" x1="504.3809" x2="978.168" y1="545.7344" y2="545.7344"/><text fill="#000000" font-family="Helvetica" font-size="10" x="511.3809" y="529.7354">(11)</text><text fill="#000000" font-family="Helvetica" font-size="10" x="535.9082" y="518.0947">POST /register</text><text fill="#000000" font-family="Helvetica" font-size="10" x="535.9082" y="529.7354">{attestation_type="apple", PuK.AK.Sig, Apple_Attestation_Object,</text><text fill="#000000" font-family="Helvetica" font-size="10" x="535.9082" y="541.376">PuK.Client.Sig, signed_Hash_PuK.Client.Sig}</text><line style="stroke:#181818;stroke-width:1;" x1="994.168" x2="1036.168" y1="571.375" y2="571.375"/><line style="stroke:#181818;stroke-width:1;" x1="1036.168" x2="1036.168" y1="571.375" y2="584.375"/><line style="stroke:#181818;stroke-width:1;" x1="995.168" x2="1036.168" y1="584.375" y2="584.375"/><polygon fill="#181818" points="1005.168,580.375,995.168,584.375,1005.168,588.375,1001.168,584.375" style="stroke:#181818;stroke-width:1;"/><text fill="#000000" font-family="Helvetica" font-size="10" x="1001.168" y="567.0166">(12)</text><text fill="#000000" font-family="Helvetica" font-size="10" x="1025.6953" y="567.0166">Validiere Apple_Attestation_Object &amp; signed_Hash_PuK.Client.Sig</text><path d="M999.168,597.375 L999.168,641.375 L1296.168,641.375 L1296.168,607.375 L1286.168,597.375 L999.168,597.375" fill="#FEFFDD" style="stroke:#181818;stroke-width:0.5;"/><path d="M1286.168,597.375 L1286.168,607.375 L1296.168,607.375 L1286.168,597.375" fill="#FEFFDD" style="stroke:#181818;stroke-width:0.5;"/><text fill="#000000" font-family="Helvetica" font-size="10" x="1005.168" y="611.6572">AuthS verifiziert Apple App Attest Root CA und pr&#252;ft,</text><text fill="#000000" font-family="Helvetica" font-size="10" x="1005.168" y="623.2979">dass PuK.AK.Sig mit x5c[0] des Objekts &#252;bereinstimmt.</text><text fill="#000000" font-family="Helvetica" font-size="10" x="1005.168" y="634.9385">Format identisch auf iOS, iPadOS und macOS.</text><polygon fill="#181818" points="972.168,737.1406,982.168,741.1406,972.168,745.1406,976.168,741.1406" style="stroke:#181818;stroke-width:1;"/><line style="stroke:#181818;stroke-width:1;" x1="504.3809" x2="978.168" y1="741.1406" y2="741.1406"/><text fill="#000000" font-family="Helvetica" font-size="10" x="511.3809" y="713.501">(13)</text><text fill="#000000" font-family="Helvetica" font-size="10" x="535.9082" y="690.2197">POST /register</text><text fill="#000000" font-family="Helvetica" font-size="10" x="535.9082" y="701.8604">{attestation_type="android", PuK.AK.Sig,</text><text fill="#000000" font-family="Helvetica" font-size="10" x="535.9082" y="713.501">Android_Key_Attestation_Certificate_Chain,</text><text fill="#000000" font-family="Helvetica" font-size="10" x="535.9082" y="725.1416">PuK.Client.Sig, signed_Hash_PuK.Client.Sig</text><text fill="#000000" font-family="Helvetica" font-size="10" x="535.9082" y="736.7822">[, play_integrity_token]}</text><line style="stroke:#181818;stroke-width:1;" x1="994.168" x2="1036.168" y1="766.7813" y2="766.7813"/><line style="stroke:#181818;stroke-width:1;" x1="1036.168" x2="1036.168" y1="766.7813" y2="779.7813"/><line style="stroke:#181818;stroke-width:1;" x1="995.168" x2="1036.168" y1="779.7813" y2="779.7813"/><polygon fill="#181818" points="1005.168,775.7813,995.168,779.7813,1005.168,783.7813,1001.168,779.7813" style="stroke:#181818;stroke-width:1;"/><text fill="#000000" font-family="Helvetica" font-size="10" x="1001.168" y="762.4229">(14)</text><text fill="#000000" font-family="Helvetica" font-size="10" x="1025.6953" y="762.4229">Validiere Zertifikatskette gegen Google Root CA</text><line style="stroke:#181818;stroke-width:1;" x1="994.168" x2="1036.168" y1="805.4219" y2="805.4219"/><line style="stroke:#181818;stroke-width:1;" x1="1036.168" x2="1036.168" y1="805.4219" y2="818.4219"/><line style="stroke:#181818;stroke-width:1;" x1="995.168" x2="1036.168" y1="818.4219" y2="818.4219"/><polygon fill="#181818" points="1005.168,814.4219,995.168,818.4219,1005.168,822.4219,1001.168,818.4219" style="stroke:#181818;stroke-width:1;"/><text fill="#000000" font-family="Helvetica" font-size="10" x="1001.168" y="801.0635">(15)</text><text fill="#000000" font-family="Helvetica" font-size="10" x="1025.6953" y="801.0635">Pr&#252;fe signed_Hash_PuK.Client.Sig &amp; (optional) Play Integrity</text><path d="M999.168,831.4219 L999.168,875.4219 L1302.168,875.4219 L1302.168,841.4219 L1292.168,831.4219 L999.168,831.4219" fill="#FEFFDD" style="stroke:#181818;stroke-width:0.5;"/><path d="M1292.168,831.4219 L1292.168,841.4219 L1302.168,841.4219 L1292.168,831.4219" fill="#FEFFDD" style="stroke:#181818;stroke-width:0.5;"/><text fill="#000000" font-family="Helvetica" font-size="10" x="1005.168" y="845.7041">PuK.AK.Sig muss mit dem Blatt-Zertifikat</text><text fill="#000000" font-family="Helvetica" font-size="10" x="1005.168" y="857.3447">der Certificate Chain &#252;bereinstimmen.</text><text fill="#000000" font-family="Helvetica" font-size="10" x="1005.168" y="868.9854">Sicherheitsniveau: TrustedEnvironment oder StrongBox.</text><polygon fill="#181818" points="972.168,994.4688,982.168,998.4688,972.168,1002.4688,976.168,998.4688" style="stroke:#181818;stroke-width:1;"/><line style="stroke:#181818;stroke-width:1;" x1="504.3809" x2="978.168" y1="998.4688" y2="998.4688"/><text fill="#000000" font-family="Helvetica" font-size="10" x="511.3809" y="959.1885">(16)</text><text fill="#000000" font-family="Helvetica" font-size="10" x="535.9082" y="924.2666">POST /register</text><text fill="#000000" font-family="Helvetica" font-size="10" x="535.9082" y="935.9072">{</text><text fill="#000000" font-family="Helvetica" font-size="10" x="542.2656" y="947.5479">"client_name": "myClient",</text><text fill="#000000" font-family="Helvetica" font-size="10" x="542.2656" y="959.1885">"grant_types": ["urn:ietf:params:oauth:grant-type:token-exchange", "refresh_token"],</text><text fill="#000000" font-family="Helvetica" font-size="10" x="542.2656" y="970.8291">"jwks": { "keys": [ PuK.Client.Sig ] },</text><text fill="#000000" font-family="Helvetica" font-size="10" x="542.2656" y="982.4697">"token_endpoint_auth_method": "private_key_jwt"</text><text fill="#000000" font-family="Helvetica" font-size="10" x="535.9082" y="994.1104">}</text><line style="stroke:#181818;stroke-width:1;" x1="994.168" x2="1036.168" y1="1035.75" y2="1035.75"/><line style="stroke:#181818;stroke-width:1;" x1="1036.168" x2="1036.168" y1="1035.75" y2="1048.75"/><line style="stroke:#181818;stroke-width:1;" x1="995.168" x2="1036.168" y1="1048.75" y2="1048.75"/><polygon fill="#181818" points="1005.168,1044.75,995.168,1048.75,1005.168,1052.75,1001.168,1048.75" style="stroke:#181818;stroke-width:1;"/><text fill="#000000" font-family="Helvetica" font-size="10" x="1001.168" y="1025.5713">(17)</text><text fill="#000000" font-family="Helvetica" font-size="10" x="1025.6953" y="1019.751">Store Client Placeholder</text><text fill="#000000" font-family="Helvetica" font-size="10" x="1025.6953" y="1031.3916">(state: pending_attestation)</text><polygon fill="#181818" points="972.168,1148.9531,982.168,1152.9531,972.168,1156.9531,976.168,1152.9531" style="stroke:#181818;stroke-width:1;"/><line style="stroke:#181818;stroke-width:1;" x1="504.3809" x2="978.168" y1="1152.9531" y2="1152.9531"/><text fill="#000000" font-family="Helvetica" font-size="10" x="511.3809" y="1131.1338">(18)</text><text fill="#000000" font-family="Helvetica" font-size="10" x="535.9082" y="1113.6729">POST /register</text><text fill="#000000" font-family="Helvetica" font-size="10" x="535.9082" y="1125.3135">{attestation_type="zeta_attestation_token",</text><text fill="#000000" font-family="Helvetica" font-size="10" x="535.9082" y="1136.9541">zeta_guard_attestation_token, PuK.Client.Sig,</text><text fill="#000000" font-family="Helvetica" font-size="10" x="535.9082" y="1148.5947">signed_Hash_PuK.Client.Sig}</text><line style="stroke:#181818;stroke-width:1;" x1="994.168" x2="1036.168" y1="1178.5938" y2="1178.5938"/><line style="stroke:#181818;stroke-width:1;" x1="1036.168" x2="1036.168" y1="1178.5938" y2="1191.5938"/><line style="stroke:#181818;stroke-width:1;" x1="995.168" x2="1036.168" y1="1191.5938" y2="1191.5938"/><polygon fill="#181818" points="1005.168,1187.5938,995.168,1191.5938,1005.168,1195.5938,1001.168,1191.5938" style="stroke:#181818;stroke-width:1;"/><text fill="#000000" font-family="Helvetica" font-size="10" x="1001.168" y="1174.2354">(19)</text><text fill="#000000" font-family="Helvetica" font-size="10" x="1025.6953" y="1174.2354">Pr&#252;fe Token-Signatur &amp; Vertrauensstellung</text><line style="stroke:#181818;stroke-width:1;" x1="994.168" x2="1036.168" y1="1228.875" y2="1228.875"/><line style="stroke:#181818;stroke-width:1;" x1="1036.168" x2="1036.168" y1="1228.875" y2="1241.875"/><line style="stroke:#181818;stroke-width:1;" x1="995.168" x2="1036.168" y1="1241.875" y2="1241.875"/><polygon fill="#181818" points="1005.168,1237.875,995.168,1241.875,1005.168,1245.875,1001.168,1241.875" style="stroke:#181818;stroke-width:1;"/><text fill="#000000" font-family="Helvetica" font-size="10" x="1001.168" y="1218.6963">(20)</text><text fill="#000000" font-family="Helvetica" font-size="10" x="1025.6953" y="1212.876">Extrahiere PuK.AK.Sig aus Token,</text><text fill="#000000" font-family="Helvetica" font-size="10" x="1025.6953" y="1224.5166">pr&#252;fe signed_Hash_PuK.Client.Sig</text><polygon fill="#181818" points="515.3809,1277.5156,505.3809,1281.5156,515.3809,1285.5156,511.3809,1281.5156" style="stroke:#181818;stroke-width:1;"/><line style="stroke:#181818;stroke-width:1;stroke-dasharray:2,2;" x1="509.3809" x2="983.168" y1="1281.5156" y2="1281.5156"/><text fill="#000000" font-family="Helvetica" font-size="10" x="521.3809" y="1277.1572">(21)</text><text fill="#000000" font-family="Helvetica" font-size="10" x="545.9082" y="1277.1572">201 Created {client_id}</text><?plantuml-src hLVDKXj74BxhAJgRgaGKICWoE8w2IGbfmPJ1Kad4hjYYjeRTrchGxincTbOWAAvvWEIQOnx3Dx-9doGzivAGX8Jj95N0_dHF_trVzpOiqr9ayGKgS8gLoePJI8TS94on60BiiopIXrBeBhz1U59PBNpDOeIN68rGSv_DwJHpdLCfP9em7uEPTaDcYgEQqurGX7fG3owpL8EG0kTaAVwMeV2nWtrKvkQ0-SDGoKm43Hb91My7NCyVw2uVkC-XkiBkAQOf2x4UyL1G87rT6F008TLqMEfnWeN2zt0Why4ttjB2DvGy5mZltBEwT_HBlTFq6gsJLWU-FJmyVEhkpXHEtEEfv6WWKvt7kIWzRRTUkw_FfdhkZhjpk3FJQNUEJ-jkf_jhzymzdUgSi16AWCfthzLwSznqEpCZpSEcsp1HjvaYK7Z2X9v6lvVgSOJxXMdsJSv2KutR0a0ofswU0SetgDda7c2vy9Im-wpHc4XFA9R9--OFFnvKAlRzNMudKN94LLNhRJLttUVDdOUsdbSFdZvxDhDbVYFUnyXadXjRpOT5CmSHATdZTuMzxKaDg4AQwmYXsUZ05TS3U8LZEE0Yu28i5Bv950jZ1Xhb3MYL4H4kY0OE8USiGBfOEUUiVGhRq7KTO2cOXnLGqnbhgwru_F5lbOw9Rh6p2d2RoBpzT_MkCUpGrO6zFOFG_lu3hKR4aIvMaOWwULuuG2moGHIcrpoxkhZWIDo7isEebYlGf7EfTfPODetVsZxAc0gS1mtn8APwfWTvxErckoVCerJyXcak1NMj6g5wF40MQOA82xXt2tMjCTMvZJCvH67T6isN9BvY2kTLQl2Mu9LNAI54xCYkeKW8RKne1vCoRMuklO3IVXxzvcODsgtk6Mmh3BcP4Jrno-xjUsPWl71q4ZjRqCvUbLtw4VuMDAPtFM5Urr-LkppCLN8N-NDAGmW3xoLB1zwYx6uMKbx6QKGrUCCY7j0ynPcJKcF0g4hVFM9khRM6me1qE8iE8da1B-2K3V7-PR5SBc_yr1EcR9OV3Hd7J0Jf5Y7eMnIULCkx6ylsoK7kl0RLIXNgle-9nW1k5_tT5LPKdfXkwbudyoEciRXuvDwLwGnIfyYCEbsgtlJCN0BhJfk4IhctKgbcib6e5stFafXJMCUKPPvi4xjvVmot-RdrSEPo64gbSAX_Xa-__x544nXCc5qAyOB67WhuzDUVUIGOfRY6-RpL9TRpDWliJSnykXRhIK8JaFvEb3U-DA6Ln6V6seJwKuvR3zvSA5xhufAuCcc5_u_-wnnzMIC8gH4K3mSQP7zgF7TceUCtv4J3ShsW8oMDspeG492eZn_w9h60fUbS4I3c6gvt_VULSzgTKZ1n3NKA7p_GxaK3BTKyZdMv9mwbYfa6RXcQ-WDWMTy0jpN5pNYno9K_YtTT14ho08hqLKkr9F4sdBck-JPf9KL8Eyr_13jti0WtpVNyjKTk5y1eKFceZ3wresS7r5SHe2VURq4IiR77XSPGSJtsj9dtvrz2ZNUvxo7JwH0f9WWnfBOvaZ8aD2SGhhNJDh3Y8y4HmueoCLcoQ0FQ52KSJwDyd63p7Cc8CuOe0SPcOT6wT1zspwnyC5T2o6Vy0eDG48Mwt1-W6Y3NgU0ZP1cDGaLxDGQk6742FZP0IsDkneDvCdLbNo-J2Oed639_3AtZPiEiIrz3d9u0S7ohvWdQ_vqQEF5uif1iMIcje2Gqh4f9-jx9bAZH5jAlsLKzhKb6jcjMgsIqQXRv4bxx0oP2Ct0SXNs518oLEEUvtSkheJ5u2ywGUi2ONXwbvt2Ngzfp7gqQYII2USQX5oDjA869Dr7sC-AH6U_oIZizySW0jxqsgGjnmSU1Z09JYg8f9zOWGRjYUdCjbHUKtXSA5WMxuJpORM0a5MKSJBQSVzEqPhlo5bxRWb4Hh2GqIzL3-ODDfIS-DwlND97DeqHQWkbCKUEy8KuhHl-Cf1Hp56KYN7dSlIQjWMtckPvXMPfRf82IptLfmPPtUI4nt_9gvObPV9ZTI2PKvS5TuHy0?></g></svg>