<svg xmlns="http://www.w3.org/2000/svg" xmlns:xlink="http://www.w3.org/1999/xlink" contentStyleType="text/css" data-diagram-type="SEQUENCE" height="409px" preserveAspectRatio="none" style="width:747px;height:409px;background:#FFFFFF;" version="1.1" viewBox="0 0 747 409" width="747px" zoomAndPan="magnify"><?plantuml 1.2026.3?><defs/><g><rect fill="#FEFCFF" height="383.9688" style="stroke:#181818;stroke-width:0.5;" width="568.8398" x="16" y="11"/><text fill="#000000" font-family="Helvetica" font-size="10" font-weight="700" x="281.5503" y="20.2822">Device</text><rect fill="#E6E6FA" height="367.3281" style="stroke:#181818;stroke-width:0.5;" width="80.2471" x="504.5928" y="27.6406"/><text fill="#000000" font-family="Helvetica" font-size="10" font-weight="700" x="533.6885" y="36.9229">App</text><g><title>Secure Enclave</title><rect fill="#000000" fill-opacity="0.00000" height="292.4063" width="8" x="61.9546" y="69.9219"/><line style="stroke:#000000;stroke-width:0.5;stroke-dasharray:5,5;" x1="65.4546" x2="65.4546" y1="69.9219" y2="362.3281"/></g><g><title/><rect fill="#FFFFFF" height="25.6406" style="stroke:#181818;stroke-width:1;" width="10" x="60.4546" y="199.125"/></g><g><title>OS .macOS. iOS. iPadOS.</title><rect fill="#000000" fill-opacity="0.00000" height="292.4063" width="8" x="286.0532" y="69.9219"/><line style="stroke:#000000;stroke-width:0.5;stroke-dasharray:5,5;" x1="289.5532" x2="289.5532" y1="69.9219" y2="362.3281"/></g><g><title/><rect fill="#FFFFFF" height="284.4063" style="stroke:#181818;stroke-width:1;" width="10" x="284.5532" y="77.9219"/></g><g><title>ZETA Client</title><rect fill="#000000" fill-opacity="0.00000" height="292.4063" width="8" x="541.2163" y="69.9219"/><line style="stroke:#000000;stroke-width:0.5;stroke-dasharray:5,5;" x1="544.7163" x2="544.7163" y1="69.9219" y2="362.3281"/></g><g><title/><rect fill="#FFFFFF" height="284.4063" style="stroke:#181818;stroke-width:1;" width="10" x="539.7163" y="77.9219"/></g><rect fill="#E4E4F4" height="25.6406" rx="2.5" ry="2.5" style="stroke:#181818;stroke-width:0.5;" width="90.9092" x="20" y="43.2813"/><text fill="#000000" font-family="Helvetica" font-size="10" x="27" y="59.5635">Secure Enclave</text><rect fill="#E4E4F4" height="25.6406" rx="2.5" ry="2.5" style="stroke:#181818;stroke-width:0.5;" width="140.001" x="219.5527" y="43.2813"/><text fill="#000000" font-family="Helvetica" font-size="10" x="226.5527" y="59.5635">OS (macOS, iOS, iPadOS)</text><rect fill="#FFE6CC" height="25.6406" rx="2.5" ry="2.5" style="stroke:#D79B00;stroke-width:0.5;" width="72.2471" x="508.5928" y="43.2813"/><text fill="#000000" font-family="Helvetica" font-size="10" x="515.5928" y="59.5635">ZETA Client</text><rect fill="#E4E4F4" height="25.6406" rx="2.5" ry="2.5" style="stroke:#181818;stroke-width:0.5;" width="90.9092" x="20" y="362.3281"/><text fill="#000000" font-family="Helvetica" font-size="10" x="27" y="378.6104">Secure Enclave</text><rect fill="#E4E4F4" height="25.6406" rx="2.5" ry="2.5" style="stroke:#181818;stroke-width:0.5;" width="140.001" x="219.5527" y="362.3281"/><text fill="#000000" font-family="Helvetica" font-size="10" x="226.5527" y="378.6104">OS (macOS, iOS, iPadOS)</text><rect fill="#FFE6CC" height="25.6406" rx="2.5" ry="2.5" style="stroke:#D79B00;stroke-width:0.5;" width="72.2471" x="508.5928" y="362.3281"/><text fill="#000000" font-family="Helvetica" font-size="10" x="515.5928" y="378.6104">ZETA Client</text><line style="stroke:#181818;stroke-width:1;stroke-dasharray:2,2;" x1="549.7163" x2="591.7163" y1="95.5625" y2="95.5625"/><line style="stroke:#181818;stroke-width:1;stroke-dasharray:2,2;" x1="591.7163" x2="591.7163" y1="95.5625" y2="108.5625"/><line style="stroke:#181818;stroke-width:1;stroke-dasharray:2,2;" x1="550.7163" x2="591.7163" y1="108.5625" y2="108.5625"/><polygon fill="#181818" points="560.7163,104.5625,550.7163,108.5625,560.7163,112.5625,556.7163,108.5625" style="stroke:#181818;stroke-width:1;"/><text fill="#000000" font-family="Helvetica" font-size="10" x="556.7163" y="91.2041">(01)</text><text fill="#000000" font-family="Helvetica" font-size="10" x="581.2437" y="91.2041">Installation (User Space)</text><path d="M44.4546,120.5625 L104.4106,120.5625 L104.4106,124.2031 L94.4106,134.2031 L44.4546,134.2031 L44.4546,120.5625" fill="#EEEEEE" style="stroke:#000000;stroke-width:1.5;"/><rect fill="none" height="217.7656" style="stroke:#000000;stroke-width:1.5;" width="683.3242" x="44.4546" y="120.5625"/><text fill="#000000" font-family="Helvetica" font-size="10" font-weight="700" x="59.4546" y="130.8447">alt</text><text fill="#000000" font-family="Helvetica" font-size="10" font-weight="700" x="119.4106" y="131.8447">[Secure Enclave]</text><line style="stroke:#000000;stroke-width:1;stroke-dasharray:2,2;" x1="44.4546" x2="727.7788" y1="269.4063" y2="269.4063"/><text fill="#000000" font-family="Helvetica" font-size="10" font-weight="700" x="49.4546" y="280.6885">[Fallback]</text><polygon fill="#181818" points="305.5532,169.4844,295.5532,173.4844,305.5532,177.4844,301.5532,173.4844" style="stroke:#181818;stroke-width:1;"/><line style="stroke:#181818;stroke-width:1;" x1="299.5532" x2="538.7163" y1="173.4844" y2="173.4844"/><text fill="#000000" font-family="Helvetica" font-size="10" x="311.5532" y="163.3057">(02)</text><text fill="#000000" font-family="Helvetica" font-size="10" x="336.0806" y="157.4854">SecKeyCreateRandomKey</text><text fill="#000000" font-family="Helvetica" font-size="10" x="336.0806" y="169.126">(f&#252;r PrK.Client.Sig, PuK.Client.Sig in SE)</text><polygon fill="#181818" points="81.4546,195.125,71.4546,199.125,81.4546,203.125,77.4546,199.125" style="stroke:#181818;stroke-width:1;"/><line style="stroke:#181818;stroke-width:1;" x1="75.4546" x2="283.5532" y1="199.125" y2="199.125"/><text fill="#000000" font-family="Helvetica" font-size="10" x="87.4546" y="194.7666">(03)</text><text fill="#000000" font-family="Helvetica" font-size="10" x="111.9819" y="194.7666">Generiere Schl&#252;ssel (Client.Sig)</text><polygon fill="#181818" points="272.5532,220.7656,282.5532,224.7656,272.5532,228.7656,276.5532,224.7656" style="stroke:#181818;stroke-width:1;"/><line style="stroke:#181818;stroke-width:1;stroke-dasharray:2,2;" x1="70.4546" x2="278.5532" y1="224.7656" y2="224.7656"/><text fill="#000000" font-family="Helvetica" font-size="10" x="77.4546" y="220.4072">(04)</text><text fill="#000000" font-family="Helvetica" font-size="10" x="101.9819" y="220.4072">keyId (Referenz f&#252;r PrK.Client.Sig)</text><polygon fill="#181818" points="527.7163,246.4063,537.7163,250.4063,527.7163,254.4063,531.7163,250.4063" style="stroke:#181818;stroke-width:1;"/><line style="stroke:#181818;stroke-width:1;stroke-dasharray:2,2;" x1="294.5532" x2="533.7163" y1="250.4063" y2="250.4063"/><text fill="#000000" font-family="Helvetica" font-size="10" x="301.5532" y="246.0479">(05)</text><text fill="#000000" font-family="Helvetica" font-size="10" x="326.0806" y="246.0479">keyId (Referenz f&#252;r PrK.Client.Sig)</text><line style="stroke:#181818;stroke-width:1;" x1="549.7163" x2="591.7163" y1="317.3281" y2="317.3281"/><line style="stroke:#181818;stroke-width:1;" x1="591.7163" x2="591.7163" y1="317.3281" y2="330.3281"/><line style="stroke:#181818;stroke-width:1;" x1="550.7163" x2="591.7163" y1="330.3281" y2="330.3281"/><polygon fill="#181818" points="560.7163,326.3281,550.7163,330.3281,560.7163,334.3281,556.7163,330.3281" style="stroke:#181818;stroke-width:1;"/><text fill="#000000" font-family="Helvetica" font-size="10" x="556.7163" y="307.1494">(06)</text><text fill="#000000" font-family="Helvetica" font-size="10" x="581.2437" y="301.3291">Generiere PrK.Client.Sig,</text><text fill="#000000" font-family="Helvetica" font-size="10" x="581.2437" y="312.9697">PuK.Client.Sig</text><?plantuml-src ZLHTRzem57tFhxXbqWQYTAobNOSG4X3JeKA3IBjfKwNA93V1gt4onq4hK_zPt_h7vdn1O4pQGn8xzzpZUyyzCerL8EBb72LKgirchM94Zqo4LD8bkEZHcAjX89JDrWWVceU3DtI9y1dv2XLpQ0bZPfX9888ef0ww6_GWY2L3MS9o5BvQzDmVSQH0109BiGX_nYWSdA67CbdqgVFeoo0MxY3WWOIl2wRA2VP-mhQ7qmEy4umYwcEFCr_eGZnbB9YB42cT7AYd40tZ7VI3N-0afqN6aMwU2OJlvBRtS7NNcvaF0sjipU3DS3Wy8-SRm9YCYiZL8eXKLkTkT3ArRiZDRO4ZBT8QjZQOwMmqwP6P_Ss-9PC2CwOh5AwMRukolenCCjkGc4EJ33RXYTKVZKaHzD1pF2zfQKgbdXWBgL15Qvr8FN7i6eKq9gD-8jLl0o0imPCzmCaQ5StN0FjJqMgGYy4WZuvr9Vb_y-EdVhEP_d_EU48PhBJayjzSvZcvD5j_SrsUziykBZPSoSEPXppfEoCxR9PTcZxNe3JzsUYyppNG2Ycck7OhPwXx7eb8KSwfOe60jvetIezf44Nd6Y5ZuHl6KIYflwIWC5Y3ah7spbmxfsBYYZbOsPd5dgOL6vrO8X3XS3tX2j08R7B89lk9bWtL9NKi-nXO-ffIrx9hAKCl33bgm66Qj3ODgHnoMYhIpa69utCvKl9ScKudCKAtgnEqCHDIe_WQ6QHUD_92z2hFQZIwEK5xLzlgNQIjO2TNHiqmA5UmgqnQLq7IBJfi9wXhV1f8f0fdLBZ1Kc_lHTLxVP4mbTSdMSw9pVnZcCRbFJ2XjQwbp8LYcjeczNeRhb1WSbqXsCw2lxv4Ul1GtIPdQNfKZMqrZKOR7l5fv48rluNMSA2ElHDBYlnNCl88OQY5csV-BSjI46shtvFWNkngaCpC-0C0?></g></svg>