<svg xmlns="http://www.w3.org/2000/svg" xmlns:xlink="http://www.w3.org/1999/xlink" contentStyleType="text/css" data-diagram-type="SEQUENCE" height="446px" preserveAspectRatio="none" style="width:791px;height:446px;background:#FFFFFF;" version="1.1" viewBox="0 0 791 446" width="791px" zoomAndPan="magnify"><?plantuml 1.2026.3?><defs/><g><rect fill="#FEFCFF" height="420.8906" style="stroke:#181818;stroke-width:0.5;" width="702.4385" x="72.168" y="11"/><text fill="#000000" font-family="Helvetica" font-size="10" font-weight="700" x="404.5176" y="20.2822">Device</text><rect fill="#E6E6FA" height="404.25" style="stroke:#181818;stroke-width:0.5;" width="80.2471" x="694.3594" y="27.6406"/><text fill="#000000" font-family="Helvetica" font-size="10" font-weight="700" x="723.4551" y="36.9229">App</text><g><title>Apple</title><rect fill="#000000" fill-opacity="0.00000" height="306.0469" width="8" x="34.584" y="81.5625"/><line style="stroke:#000000;stroke-width:0.5;stroke-dasharray:5,5;" x1="38.084" x2="38.084" y1="81.5625" y2="387.6094"/></g><g><title/><rect fill="#FFFFFF" height="25.6406" style="stroke:#181818;stroke-width:1;" width="10" x="33.084" y="318.3281"/></g><g><title>Secure Enclave</title><rect fill="#000000" fill-opacity="0.00000" height="306.0469" width="8" x="118.1226" y="81.5625"/><line style="stroke:#000000;stroke-width:0.5;stroke-dasharray:5,5;" x1="121.6226" x2="121.6226" y1="81.5625" y2="387.6094"/></g><g><title/><rect fill="#FFFFFF" height="25.6406" style="stroke:#181818;stroke-width:1;" width="10" x="116.6226" y="164.4844"/></g><g><title/><rect fill="#FFFFFF" height="25.6406" style="stroke:#181818;stroke-width:1;" width="10" x="116.6226" y="267.0469"/></g><g><title>OS .macOS. iOS. iPadOS.</title><rect fill="#000000" fill-opacity="0.00000" height="306.0469" width="8" x="398.2026" y="81.5625"/><line style="stroke:#000000;stroke-width:0.5;stroke-dasharray:5,5;" x1="401.7026" x2="401.7026" y1="81.5625" y2="387.6094"/></g><g><title/><rect fill="#FFFFFF" height="298.0469" style="stroke:#181818;stroke-width:1;" width="10" x="396.7026" y="89.5625"/></g><g><title>ZETA Client</title><rect fill="#000000" fill-opacity="0.00000" height="306.0469" width="8" x="730.9829" y="81.5625"/><line style="stroke:#000000;stroke-width:0.5;stroke-dasharray:5,5;" x1="734.4829" x2="734.4829" y1="81.5625" y2="387.6094"/></g><g><title/><rect fill="#FFFFFF" height="298.0469" style="stroke:#181818;stroke-width:1;" width="10" x="729.4829" y="89.5625"/></g><rect fill="#E2E2F0" height="37.2813" rx="2.5" ry="2.5" style="stroke:#181818;stroke-width:0.5;" width="56.168" x="10" y="43.2813"/><text fill="#000000" font-family="Helvetica" font-size="10" x="23.8506" y="59.5635">Apple</text><text fill="#000000" font-family="Helvetica" font-size="10" x="17" y="71.2041">Services</text><rect fill="#E4E4F4" height="25.6406" rx="2.5" ry="2.5" style="stroke:#181818;stroke-width:0.5;" width="90.9092" x="76.168" y="54.9219"/><text fill="#000000" font-family="Helvetica" font-size="10" x="83.168" y="71.2041">Secure Enclave</text><rect fill="#E4E4F4" height="25.6406" rx="2.5" ry="2.5" style="stroke:#181818;stroke-width:0.5;" width="140.001" x="331.7021" y="54.9219"/><text fill="#000000" font-family="Helvetica" font-size="10" x="338.7021" y="71.2041">OS (macOS, iOS, iPadOS)</text><rect fill="#FFE6CC" height="25.6406" rx="2.5" ry="2.5" style="stroke:#D79B00;stroke-width:0.5;" width="72.2471" x="698.3594" y="54.9219"/><text fill="#000000" font-family="Helvetica" font-size="10" x="705.3594" y="71.2041">ZETA Client</text><rect fill="#E2E2F0" height="37.2813" rx="2.5" ry="2.5" style="stroke:#181818;stroke-width:0.5;" width="56.168" x="10" y="387.6094"/><text fill="#000000" font-family="Helvetica" font-size="10" x="23.8506" y="403.8916">Apple</text><text fill="#000000" font-family="Helvetica" font-size="10" x="17" y="415.5322">Services</text><rect fill="#E4E4F4" height="25.6406" rx="2.5" ry="2.5" style="stroke:#181818;stroke-width:0.5;" width="90.9092" x="76.168" y="387.6094"/><text fill="#000000" font-family="Helvetica" font-size="10" x="83.168" y="403.8916">Secure Enclave</text><rect fill="#E4E4F4" height="25.6406" rx="2.5" ry="2.5" style="stroke:#181818;stroke-width:0.5;" width="140.001" x="331.7021" y="387.6094"/><text fill="#000000" font-family="Helvetica" font-size="10" x="338.7021" y="403.8916">OS (macOS, iOS, iPadOS)</text><rect fill="#FFE6CC" height="25.6406" rx="2.5" ry="2.5" style="stroke:#D79B00;stroke-width:0.5;" width="72.2471" x="698.3594" y="387.6094"/><text fill="#000000" font-family="Helvetica" font-size="10" x="705.3594" y="403.8916">ZETA Client</text><path d="M525.8608,94.5625 L525.8608,115.5625 L728.8608,115.5625 L728.8608,104.5625 L718.8608,94.5625 L525.8608,94.5625" fill="#FEFFDD" style="stroke:#181818;stroke-width:0.5;"/><path d="M718.8608,94.5625 L718.8608,104.5625 L728.8608,104.5625 L718.8608,94.5625" fill="#FEFFDD" style="stroke:#181818;stroke-width:0.5;"/><text fill="#000000" font-family="Helvetica" font-size="10" x="531.8608" y="108.8447">App nutzt native Apple-Frameworks.</text><polygon fill="#181818" points="417.7026,134.8438,407.7026,138.8438,417.7026,142.8438,413.7026,138.8438" style="stroke:#181818;stroke-width:1;"/><line style="stroke:#181818;stroke-width:1;" x1="411.7026" x2="728.4829" y1="138.8438" y2="138.8438"/><text fill="#000000" font-family="Helvetica" font-size="10" x="423.7026" y="134.4854">(01)</text><text fill="#000000" font-family="Helvetica" font-size="10" x="448.23" y="134.4854">DCAppAttestService.shared.generateKey()</text><polygon fill="#181818" points="137.6226,160.4844,127.6226,164.4844,137.6226,168.4844,133.6226,164.4844" style="stroke:#181818;stroke-width:1;"/><line style="stroke:#181818;stroke-width:1;" x1="131.6226" x2="395.7026" y1="164.4844" y2="164.4844"/><text fill="#000000" font-family="Helvetica" font-size="10" x="143.6226" y="160.126">(02)</text><text fill="#000000" font-family="Helvetica" font-size="10" x="168.1499" y="160.126">Generiere Schl&#252;ssel (AK)</text><polygon fill="#181818" points="384.7026,186.125,394.7026,190.125,384.7026,194.125,388.7026,190.125" style="stroke:#181818;stroke-width:1;"/><line style="stroke:#181818;stroke-width:1;stroke-dasharray:2,2;" x1="126.6226" x2="390.7026" y1="190.125" y2="190.125"/><text fill="#000000" font-family="Helvetica" font-size="10" x="133.6226" y="185.7666">(03)</text><text fill="#000000" font-family="Helvetica" font-size="10" x="158.1499" y="185.7666">keyId (Referenz f&#252;r PrK.AK.Sig)</text><polygon fill="#181818" points="717.4829,211.7656,727.4829,215.7656,717.4829,219.7656,721.4829,215.7656" style="stroke:#181818;stroke-width:1;"/><line style="stroke:#181818;stroke-width:1;stroke-dasharray:2,2;" x1="406.7026" x2="723.4829" y1="215.7656" y2="215.7656"/><text fill="#000000" font-family="Helvetica" font-size="10" x="413.7026" y="211.4072">(04)</text><text fill="#000000" font-family="Helvetica" font-size="10" x="438.23" y="211.4072">keyId (Referenz f&#252;r PrK.AK.Sig)</text><polygon fill="#181818" points="417.7026,237.4063,407.7026,241.4063,417.7026,245.4063,413.7026,241.4063" style="stroke:#181818;stroke-width:1;"/><line style="stroke:#181818;stroke-width:1;" x1="411.7026" x2="728.4829" y1="241.4063" y2="241.4063"/><text fill="#000000" font-family="Helvetica" font-size="10" x="423.7026" y="237.0479">(05)</text><text fill="#000000" font-family="Helvetica" font-size="10" x="448.23" y="237.0479">DCAppAttest.attestKey(keyId_AK, hash_puk_client_sig)</text><polygon fill="#181818" points="137.6226,263.0469,127.6226,267.0469,137.6226,271.0469,133.6226,267.0469" style="stroke:#181818;stroke-width:1;"/><line style="stroke:#181818;stroke-width:1;" x1="131.6226" x2="395.7026" y1="267.0469" y2="267.0469"/><text fill="#000000" font-family="Helvetica" font-size="10" x="143.6226" y="262.6885">(06)</text><text fill="#000000" font-family="Helvetica" font-size="10" x="168.1499" y="262.6885">Attestiere AK und binde hash_puk_client_sig</text><polygon fill="#181818" points="384.7026,288.6875,394.7026,292.6875,384.7026,296.6875,388.7026,292.6875" style="stroke:#181818;stroke-width:1;"/><line style="stroke:#181818;stroke-width:1;stroke-dasharray:2,2;" x1="126.6226" x2="390.7026" y1="292.6875" y2="292.6875"/><text fill="#000000" font-family="Helvetica" font-size="10" x="133.6226" y="288.3291">(07)</text><text fill="#000000" font-family="Helvetica" font-size="10" x="158.1499" y="288.3291">Hardware-Signatur</text><polygon fill="#181818" points="54.084,314.3281,44.084,318.3281,54.084,322.3281,50.084,318.3281" style="stroke:#181818;stroke-width:1;"/><line style="stroke:#181818;stroke-width:1;" x1="48.084" x2="395.7026" y1="318.3281" y2="318.3281"/><text fill="#000000" font-family="Helvetica" font-size="10" x="60.084" y="313.9697">(08)</text><text fill="#000000" font-family="Helvetica" font-size="10" x="84.6113" y="313.9697">Verifiziere &amp; erstelle CBOR</text><polygon fill="#181818" points="384.7026,339.9688,394.7026,343.9688,384.7026,347.9688,388.7026,343.9688" style="stroke:#181818;stroke-width:1;"/><line style="stroke:#181818;stroke-width:1;stroke-dasharray:2,2;" x1="43.084" x2="390.7026" y1="343.9688" y2="343.9688"/><text fill="#000000" font-family="Helvetica" font-size="10" x="50.084" y="339.6104">(09)</text><text fill="#000000" font-family="Helvetica" font-size="10" x="74.6113" y="339.6104">apple_attestation_object</text><polygon fill="#181818" points="717.4829,365.6094,727.4829,369.6094,717.4829,373.6094,721.4829,369.6094" style="stroke:#181818;stroke-width:1;"/><line style="stroke:#181818;stroke-width:1;stroke-dasharray:2,2;" x1="406.7026" x2="723.4829" y1="369.6094" y2="369.6094"/><text fill="#000000" font-family="Helvetica" font-size="10" x="413.7026" y="365.251">(10)</text><text fill="#000000" font-family="Helvetica" font-size="10" x="438.23" y="365.251">apple_attestation_object</text><?plantuml-src XLHTRzem57tFhxYbqWQYC3PLcuOGKWXXHK11fEgqQH9oavl49TYPxT31r7_Mj_wnELyje4nzWDpOvvvxxhbsIA8uIpPtAA1MxtGQDKEkAOk981lmq2T9f4QSAOVk4JvsgZUloGRX2gCjAkgI0ymmnymuup8cBdelQ8idWg8um4R80XMQtdqY5J3Ey61Fuky4cOjBz56amO2uwq3mX7aMZxY0xo5LXmdEQS9h3vygU6Se9GdGZ6Z0j11V6I7r4AJIoLpjOZICzp3WVy1DgqdZJ3TF6SBK7g-i-NI-XFDl8PSgbt6yErlCh-thcn9dNzgNeyiNp68vdfdsqldXtDYp4ZCbMsIUTgT43UtRiMMNspxwhk-daXP4QCTfJ9WgfVMasaNODyhMXfG4QQj_3O3u09w-0xJtg4WH0vowUZuQsPyjgzYTQYN5-l3Brq6dawq_6laleZv6gTQSh7f0npI3I8Eoz4UZzw7GRPp5WWGR0Whv7fH8jFU7kcjc74VuYpaejjH5MGCY8LipxlI0QaDCbsj7bfsqNdFGJGI2pTn8EvqnE7RLk4uJvmxKDyITEnT0ixy5yUPEurM31bJJPDeqf5OrySoNeq8_xHiJh8WYKnbv7aAlbywhtzS9-e2af4RvD798isaKGdJ4kCBiE0Ft2ufkgXDOelRwaX55jvWBRutq8S47BjQoNN91grzsrOMXfKDJAPIgiBujGoBGQmV8K1254zpL6sNrDDUncyqkV4ktzLL7SDmmUdwI4YEecvE6eJrllPPejRgmnjtOWtfnQ_VWFpy9M8X9svoq7HeSiEkyig4tazvefqsoHoe_ergPami8YGnNSR9UkLdkIXvLBtlB2RBcp0aawIYelhXLsHNTNX7XFMWBMrgbdaKY3WjaOLhZLhldqtrMv1sWq1-bAD8Vq84-Dndeb9QauIflIa-OinM_kqTNLPhtN_0_?></g></svg>