<svg xmlns="http://www.w3.org/2000/svg" xmlns:xlink="http://www.w3.org/1999/xlink" contentStyleType="text/css" data-diagram-type="SEQUENCE" height="707px" preserveAspectRatio="none" style="width:931px;height:707px;background:#FFFFFF;" version="1.1" viewBox="0 0 931 707" width="931px" zoomAndPan="magnify"><?plantuml 1.2026.3?><defs/><g><rect fill="#FEFCFF" height="681.2969" style="stroke:#181818;stroke-width:0.5;" width="909.271" x="16" y="11"/><text fill="#000000" font-family="Helvetica" font-size="10" font-weight="700" x="451.7659" y="20.2822">Device</text><rect fill="#E6E6FA" height="664.6563" style="stroke:#181818;stroke-width:0.5;" width="102.1934" x="823.0776" y="27.6406"/><text fill="#000000" font-family="Helvetica" font-size="10" font-weight="700" x="835.0776" y="36.9229">Prim&#228;rsystem</text><g><title>TPM</title><rect fill="#000000" fill-opacity="0.00000" height="589.7344" width="8" x="33.8833" y="69.9219"/><line style="stroke:#000000;stroke-width:0.5;stroke-dasharray:5,5;" x1="37.3833" x2="37.3833" y1="69.9219" y2="659.6563"/></g><g><title/><rect fill="#FFFFFF" height="171.4844" style="stroke:#181818;stroke-width:1;" width="10" x="32.3833" y="203.7656"/></g><g><title/><rect fill="#FFFFFF" height="76.9219" style="stroke:#181818;stroke-width:1;" width="10" x="32.3833" y="452.1719"/></g><g><title>ZAS</title><rect fill="#000000" fill-opacity="0.00000" height="589.7344" width="8" x="478.8169" y="69.9219"/><line style="stroke:#000000;stroke-width:0.5;stroke-dasharray:5,5;" x1="482.3169" x2="482.3169" y1="69.9219" y2="659.6563"/></g><g><title/><rect fill="#FFFFFF" height="449.1719" style="stroke:#181818;stroke-width:1;" width="10" x="477.3169" y="105.5625"/></g><g><title>ZETA Client</title><rect fill="#000000" fill-opacity="0.00000" height="589.7344" width="8" x="870.6743" y="69.9219"/><line style="stroke:#000000;stroke-width:0.5;stroke-dasharray:5,5;" x1="874.1743" x2="874.1743" y1="69.9219" y2="659.6563"/></g><g><title/><rect fill="#FFFFFF" height="449.1719" style="stroke:#181818;stroke-width:1;" width="10" x="869.1743" y="105.5625"/></g><rect fill="#E4E4F4" height="25.6406" rx="2.5" ry="2.5" style="stroke:#181818;stroke-width:0.5;" width="34.7666" x="20" y="43.2813"/><text fill="#000000" font-family="Helvetica" font-size="10" x="27" y="59.5635">TPM</text><rect fill="#FFE6CC" height="25.6406" rx="2.5" ry="2.5" style="stroke:#D79B00;stroke-width:0.5;" width="34.0391" x="465.2974" y="43.2813"/><text fill="#000000" font-family="Helvetica" font-size="10" x="472.2974" y="59.5635">ZAS</text><rect fill="#FFE6CC" height="25.6406" rx="2.5" ry="2.5" style="stroke:#D79B00;stroke-width:0.5;" width="72.2471" x="838.0508" y="43.2813"/><text fill="#000000" font-family="Helvetica" font-size="10" x="845.0508" y="59.5635">ZETA Client</text><rect fill="#E4E4F4" height="25.6406" rx="2.5" ry="2.5" style="stroke:#181818;stroke-width:0.5;" width="34.7666" x="20" y="659.6563"/><text fill="#000000" font-family="Helvetica" font-size="10" x="27" y="675.9385">TPM</text><rect fill="#FFE6CC" height="25.6406" rx="2.5" ry="2.5" style="stroke:#D79B00;stroke-width:0.5;" width="34.0391" x="465.2974" y="659.6563"/><text fill="#000000" font-family="Helvetica" font-size="10" x="472.2974" y="675.9385">ZAS</text><rect fill="#FFE6CC" height="25.6406" rx="2.5" ry="2.5" style="stroke:#D79B00;stroke-width:0.5;" width="72.2471" x="838.0508" y="659.6563"/><text fill="#000000" font-family="Helvetica" font-size="10" x="845.0508" y="675.9385">ZETA Client</text><path d="M16.3833,81.9219 L76.3394,81.9219 L76.3394,85.5625 L66.3394,95.5625 L16.3833,95.5625 L16.3833,81.9219" fill="#EEEEEE" style="stroke:#000000;stroke-width:1.5;"/><rect fill="none" height="553.7344" style="stroke:#000000;stroke-width:1.5;" width="878.791" x="16.3833" y="81.9219"/><text fill="#000000" font-family="Helvetica" font-size="10" font-weight="700" x="31.3833" y="92.2041">alt</text><text fill="#000000" font-family="Helvetica" font-size="10" font-weight="700" x="91.3394" y="93.2041">[Windows / Linux (lokaler ZAS n&#246;tig)]</text><line style="stroke:#000000;stroke-width:1;stroke-dasharray:2,2;" x1="16.3833" x2="895.1743" y1="573.7344" y2="573.7344"/><text fill="#000000" font-family="Helvetica" font-size="10" font-weight="700" x="21.3833" y="585.0166">[Software Attestation (Fallback)]</text><path d="M579.2144,110.5625 L579.2144,154.5625 L868.2144,154.5625 L868.2144,120.5625 L858.2144,110.5625 L579.2144,110.5625" fill="#FEFFDD" style="stroke:#181818;stroke-width:0.5;"/><path d="M858.2144,110.5625 L858.2144,120.5625 L868.2144,120.5625 L858.2144,110.5625" fill="#FEFFDD" style="stroke:#181818;stroke-width:0.5;"/><text fill="#000000" font-family="Helvetica" font-size="10" x="585.2144" y="124.8447">Client &#252;bergibt Opaque Blob an den ZAS</text><text fill="#000000" font-family="Helvetica" font-size="10" x="585.2144" y="136.4854">(enth&#228;lt prk_client_sig, puk_client_sig;</text><text fill="#000000" font-family="Helvetica" font-size="10" x="585.2144" y="148.126">die Schl&#252;ssel k&#246;nnen nur im TPM verwendet werden).</text><polygon fill="#181818" points="498.3169,174.125,488.3169,178.125,498.3169,182.125,494.3169,178.125" style="stroke:#181818;stroke-width:1;"/><line style="stroke:#181818;stroke-width:1;" x1="492.3169" x2="868.1743" y1="178.125" y2="178.125"/><text fill="#000000" font-family="Helvetica" font-size="10" x="504.3169" y="173.7666">(01)</text><text fill="#000000" font-family="Helvetica" font-size="10" x="528.8442" y="173.7666">PCP_KEY_BLOB(prk_client_sig, puk_client_sig), hash_puk_client_sig</text><polygon fill="#181818" points="53.3833,199.7656,43.3833,203.7656,53.3833,207.7656,49.3833,203.7656" style="stroke:#181818;stroke-width:1;"/><line style="stroke:#181818;stroke-width:1;" x1="47.3833" x2="476.3169" y1="203.7656" y2="203.7656"/><text fill="#000000" font-family="Helvetica" font-size="10" x="59.3833" y="199.4072">(02)</text><text fill="#000000" font-family="Helvetica" font-size="10" x="83.9106" y="199.4072">TPM2_Load(PCP_KEY_BLOB)</text><polygon fill="#181818" points="465.3169,225.4063,475.3169,229.4063,465.3169,233.4063,469.3169,229.4063" style="stroke:#181818;stroke-width:1;"/><line style="stroke:#181818;stroke-width:1;stroke-dasharray:2,2;" x1="42.3833" x2="471.3169" y1="229.4063" y2="229.4063"/><text fill="#000000" font-family="Helvetica" font-size="10" x="49.3833" y="225.0479">(03)</text><text fill="#000000" font-family="Helvetica" font-size="10" x="73.9106" y="225.0479">Handle_prk_client_sig</text><path d="M185.4624,242.4063 L185.4624,275.4063 L476.4624,275.4063 L476.4624,252.4063 L466.4624,242.4063 L185.4624,242.4063" fill="#FEFFDD" style="stroke:#181818;stroke-width:0.5;"/><path d="M466.4624,242.4063 L466.4624,252.4063 L476.4624,252.4063 L466.4624,242.4063" fill="#FEFFDD" style="stroke:#181818;stroke-width:0.5;"/><text fill="#000000" font-family="Helvetica" font-size="10" x="191.4624" y="256.6885">ZAS &#252;bergibt hash_puk_client_sig als "qualifyingData"</text><text fill="#000000" font-family="Helvetica" font-size="10" x="191.4624" y="268.3291">an TPM2_Certify zur Bindung an den Session-Kontext.</text><polygon fill="#181818" points="53.3833,294.3281,43.3833,298.3281,53.3833,302.3281,49.3833,298.3281" style="stroke:#181818;stroke-width:1;"/><line style="stroke:#181818;stroke-width:1;" x1="47.3833" x2="476.3169" y1="298.3281" y2="298.3281"/><text fill="#000000" font-family="Helvetica" font-size="10" x="59.3833" y="293.9697">(04)</text><text fill="#000000" font-family="Helvetica" font-size="10" x="83.9106" y="293.9697">TPM2_Certify(Handle_prk_ak_sig, Handle_prk_client_sig, hash_puk_client_sig)</text><polygon fill="#181818" points="465.3169,319.9688,475.3169,323.9688,465.3169,327.9688,469.3169,323.9688" style="stroke:#181818;stroke-width:1;"/><line style="stroke:#181818;stroke-width:1;stroke-dasharray:2,2;" x1="42.3833" x2="471.3169" y1="323.9688" y2="323.9688"/><text fill="#000000" font-family="Helvetica" font-size="10" x="49.3833" y="319.6104">(05)</text><text fill="#000000" font-family="Helvetica" font-size="10" x="73.9106" y="319.6104">tpm2b_attest, tpmt_signature</text><polygon fill="#181818" points="53.3833,345.6094,43.3833,349.6094,53.3833,353.6094,49.3833,349.6094" style="stroke:#181818;stroke-width:1;"/><line style="stroke:#181818;stroke-width:1;" x1="47.3833" x2="476.3169" y1="349.6094" y2="349.6094"/><text fill="#000000" font-family="Helvetica" font-size="10" x="59.3833" y="345.251">(06)</text><text fill="#000000" font-family="Helvetica" font-size="10" x="83.9106" y="345.251">TPM2_ReadPublic(AttestationKey)</text><polygon fill="#181818" points="465.3169,371.25,475.3169,375.25,465.3169,379.25,469.3169,375.25" style="stroke:#181818;stroke-width:1;"/><line style="stroke:#181818;stroke-width:1;stroke-dasharray:2,2;" x1="42.3833" x2="471.3169" y1="375.25" y2="375.25"/><text fill="#000000" font-family="Helvetica" font-size="10" x="49.3833" y="370.8916">(07)</text><text fill="#000000" font-family="Helvetica" font-size="10" x="73.9106" y="370.8916">puk_ak_sig</text><polygon fill="#181818" points="857.1743,396.8906,867.1743,400.8906,857.1743,404.8906,861.1743,400.8906" style="stroke:#181818;stroke-width:1;"/><line style="stroke:#181818;stroke-width:1;stroke-dasharray:2,2;" x1="487.3169" x2="863.1743" y1="400.8906" y2="400.8906"/><text fill="#000000" font-family="Helvetica" font-size="10" x="494.3169" y="396.5322">(08)</text><text fill="#000000" font-family="Helvetica" font-size="10" x="518.8442" y="396.5322">puk_ak_sig, tpm2b_attest, tpmt_signature</text><polygon fill="#181818" points="498.3169,422.5313,488.3169,426.5313,498.3169,430.5313,494.3169,426.5313" style="stroke:#181818;stroke-width:1;"/><line style="stroke:#181818;stroke-width:1;" x1="492.3169" x2="868.1743" y1="426.5313" y2="426.5313"/><text fill="#000000" font-family="Helvetica" font-size="10" x="504.3169" y="422.1729">(09)</text><text fill="#000000" font-family="Helvetica" font-size="10" x="528.8442" y="422.1729">Request puk_ek_enc, c_ek_enc</text><polygon fill="#181818" points="53.3833,448.1719,43.3833,452.1719,53.3833,456.1719,49.3833,452.1719" style="stroke:#181818;stroke-width:1;"/><line style="stroke:#181818;stroke-width:1;" x1="47.3833" x2="476.3169" y1="452.1719" y2="452.1719"/><text fill="#000000" font-family="Helvetica" font-size="10" x="59.3833" y="447.8135">(10)</text><text fill="#000000" font-family="Helvetica" font-size="10" x="83.9106" y="447.8135">TPM2_ReadPublic(EndorsementKey)</text><polygon fill="#181818" points="465.3169,473.8125,475.3169,477.8125,465.3169,481.8125,469.3169,477.8125" style="stroke:#181818;stroke-width:1;"/><line style="stroke:#181818;stroke-width:1;stroke-dasharray:2,2;" x1="42.3833" x2="471.3169" y1="477.8125" y2="477.8125"/><text fill="#000000" font-family="Helvetica" font-size="10" x="49.3833" y="473.4541">(11)</text><text fill="#000000" font-family="Helvetica" font-size="10" x="73.9106" y="473.4541">puk_ek_enc</text><polygon fill="#181818" points="53.3833,499.4531,43.3833,503.4531,53.3833,507.4531,49.3833,503.4531" style="stroke:#181818;stroke-width:1;"/><line style="stroke:#181818;stroke-width:1;" x1="47.3833" x2="476.3169" y1="503.4531" y2="503.4531"/><text fill="#000000" font-family="Helvetica" font-size="10" x="59.3833" y="499.0947">(12)</text><text fill="#000000" font-family="Helvetica" font-size="10" x="83.9106" y="499.0947">TPM2_NV_Read(EndorsementKey_Cert)</text><polygon fill="#181818" points="465.3169,525.0938,475.3169,529.0938,465.3169,533.0938,469.3169,529.0938" style="stroke:#181818;stroke-width:1;"/><line style="stroke:#181818;stroke-width:1;stroke-dasharray:2,2;" x1="42.3833" x2="471.3169" y1="529.0938" y2="529.0938"/><text fill="#000000" font-family="Helvetica" font-size="10" x="49.3833" y="524.7354">(13)</text><text fill="#000000" font-family="Helvetica" font-size="10" x="73.9106" y="524.7354">c_ek_enc</text><polygon fill="#181818" points="857.1743,550.7344,867.1743,554.7344,857.1743,558.7344,861.1743,554.7344" style="stroke:#181818;stroke-width:1;"/><line style="stroke:#181818;stroke-width:1;stroke-dasharray:2,2;" x1="487.3169" x2="863.1743" y1="554.7344" y2="554.7344"/><text fill="#000000" font-family="Helvetica" font-size="10" x="494.3169" y="550.376">(14)</text><text fill="#000000" font-family="Helvetica" font-size="10" x="518.8442" y="550.376">puk_ek_enc, c_ek_enc</text><path d="M625.1909,597.375 L625.1909,630.375 L868.1909,630.375 L868.1909,607.375 L858.1909,597.375 L625.1909,597.375" fill="#FEFFDD" style="stroke:#181818;stroke-width:0.5;"/><path d="M858.1909,597.375 L858.1909,607.375 L868.1909,607.375 L858.1909,597.375" fill="#FEFFDD" style="stroke:#181818;stroke-width:0.5;"/><text fill="#000000" font-family="Helvetica" font-size="10" x="631.1909" y="611.6572">Keine Hardware-Bindung.</text><text fill="#000000" font-family="Helvetica" font-size="10" x="631.1909" y="623.2979">App oder Client erstellt prk_client_sig selbst.</text><?plantuml-src XLLTR-8u57tFhxYJULXGeSDMrQwMhIhnaMwhGa5GpMXMbP19Re8NOsTifoqTpR-Ptp1FyyOVs-j0sa3JNQdKSNnyxhddNZiiiqfcgpbgy6kjLjttp9BBb6csWWXZbWbxeQITyYU4NrlLYpTiXN29uXuj3ra9qzzYXaegax8GesTqJsMQeovX1Sh4BZhHFvcn89N4qfh1BndA42SOetOFNHOk4wqo6VMKK1e-BRWjRvWURdZ9uQI2TuZ6i0GxWYUIXCJMM_08mLZQhEmwHS_x1Rhg4K8NpNZlA7ak4GR1rQmt6emcyFwlXJ9sAsD_TJWUtGGtjmKkE0rEBqwVCUF9rR0JJAQVfxV1iC0Cs3tAYDmfKFtWurKlA9PZZCCuTfB6J9FZF6NI5jBEZ5qBFFUArFgS9IxLhnv0MeAxES3n4rgsUmOuTFNznKNmMw-tMnsGajtx_kz_T5kj_FqtR_iJF4RXj6x9gWkqJzCL1CgtV_FEFknqU-zIpP8L0ulg2QpEoFivEU_tyPw7wEzvSP2JVpiU-i0Cq5Zb_W7yxyxKWNqQVJWxSrQSdnCc3pVMVBNvhisQcc3bLzKfpwRCrnCSQSWfWzlERhv7JMLrz5unUanO-CHbf1uCV73UP8zG4sh911r89r1kVbYUrBqysfRnw2YVqEhkAVydbSMyTq75Es2xaBJvIUSxuNCBevHHNv3rQWvCqY6MZkTErWYss7mdDQbUpi9ysypmf05fLfx_UISZZZ0D5sBpqnWKiDpya99ePAQ1htBhxr4_k0Qsy82QGjIFI-gXUUv2jc7S6y-kWy-pxc3KhVrtr7e35imiPljlNt9tHX4jnJuwQhlXP3PGBAgLGzHpf9FNB1HSCXa9dEt7ViFHV8EBy-9bXIHWWgh_9MDq7DPS9drccNydoUbSL0-fM-8rF95NNQfw9fEY2bEwWhYIpMkwgF3H7X_arTuZg9MKi-NMiSfaAdshSCAcgvFvZ5cBnZRSB0TAPZEDrKecoA9nDXSyh7NoRSoI_6jSls9lDjjvERT23uf6aA9NNp2D_zTJrL0JT-NHnyCH8Vt9i07XxkcjDYcb4T0fr0PNH5cLHhl4Mst9pSUSxe0ehrcbAQ-rFRjHU5QPHW7nF1I6pgAAxGFJ2AKwGEs22J6d-xN-zkLmZUw-lcGwSjkRkuOylfETD0L5tv_2ODHq2OfNTmDzFiNSKAlIMVV-1G00?></g></svg>