<svg xmlns="http://www.w3.org/2000/svg" xmlns:xlink="http://www.w3.org/1999/xlink" contentStyleType="text/css" data-diagram-type="SEQUENCE" height="430px" preserveAspectRatio="none" style="width:796px;height:430px;background:#FFFFFF;" version="1.1" viewBox="0 0 796 430" width="796px" zoomAndPan="magnify"><?plantuml 1.2026.3?><defs/><g><rect fill="#E6E6FA" height="404.25" style="stroke:#181818;stroke-width:0.5;" width="712.2881" x="72.168" y="11"/><text fill="#000000" font-family="Helvetica" font-size="10" font-weight="700" x="299.0957" y="20.2822">Prim&#228;rsystem oder App (macOS, iOS, iPadOS)</text><g><title>Apple</title><rect fill="#000000" fill-opacity="0.00000" height="306.0469" width="8" x="34.584" y="64.9219"/><line style="stroke:#000000;stroke-width:0.5;stroke-dasharray:5,5;" x1="38.084" x2="38.084" y1="64.9219" y2="370.9688"/></g><g><title/><rect fill="#FFFFFF" height="25.6406" style="stroke:#181818;stroke-width:1;" width="10" x="33.084" y="301.6875"/></g><g><title>Secure Enclave</title><rect fill="#000000" fill-opacity="0.00000" height="306.0469" width="8" x="123.0474" y="64.9219"/><line style="stroke:#000000;stroke-width:0.5;stroke-dasharray:5,5;" x1="126.5474" x2="126.5474" y1="64.9219" y2="370.9688"/></g><g><title/><rect fill="#FFFFFF" height="25.6406" style="stroke:#181818;stroke-width:1;" width="10" x="121.5474" y="147.8438"/></g><g><title/><rect fill="#FFFFFF" height="25.6406" style="stroke:#181818;stroke-width:1;" width="10" x="121.5474" y="250.4063"/></g><g><title>OS .iOS . iPadOS.</title><rect fill="#000000" fill-opacity="0.00000" height="306.0469" width="8" x="403.1274" y="64.9219"/><line style="stroke:#000000;stroke-width:0.5;stroke-dasharray:5,5;" x1="406.6274" x2="406.6274" y1="64.9219" y2="370.9688"/></g><g><title/><rect fill="#FFFFFF" height="298.0469" style="stroke:#181818;stroke-width:1;" width="10" x="401.6274" y="72.9219"/></g><g><title>ZETA Client</title><rect fill="#000000" fill-opacity="0.00000" height="306.0469" width="8" x="735.9077" y="64.9219"/><line style="stroke:#000000;stroke-width:0.5;stroke-dasharray:5,5;" x1="739.4077" x2="739.4077" y1="64.9219" y2="370.9688"/></g><g><title/><rect fill="#FFFFFF" height="298.0469" style="stroke:#181818;stroke-width:1;" width="10" x="734.4077" y="72.9219"/></g><rect fill="#E2E2F0" height="37.2813" rx="2.5" ry="2.5" style="stroke:#181818;stroke-width:0.5;" width="56.168" x="10" y="26.6406"/><text fill="#000000" font-family="Helvetica" font-size="10" x="23.8506" y="42.9229">Apple</text><text fill="#000000" font-family="Helvetica" font-size="10" x="17" y="54.5635">Services</text><rect fill="#E4E4F4" height="25.6406" rx="2.5" ry="2.5" style="stroke:#181818;stroke-width:0.5;" width="90.9092" x="81.0928" y="38.2813"/><text fill="#000000" font-family="Helvetica" font-size="10" x="88.0928" y="54.5635">Secure Enclave</text><rect fill="#E4E4F4" height="25.6406" rx="2.5" ry="2.5" style="stroke:#181818;stroke-width:0.5;" width="101.4268" x="355.9141" y="38.2813"/><text fill="#000000" font-family="Helvetica" font-size="10" x="362.9141" y="54.5635">OS (iOS / iPadOS)</text><rect fill="#FFE6CC" height="25.6406" rx="2.5" ry="2.5" style="stroke:#D79B00;stroke-width:0.5;" width="72.2471" x="703.2842" y="38.2813"/><text fill="#000000" font-family="Helvetica" font-size="10" x="710.2842" y="54.5635">ZETA Client</text><rect fill="#E2E2F0" height="37.2813" rx="2.5" ry="2.5" style="stroke:#181818;stroke-width:0.5;" width="56.168" x="10" y="370.9688"/><text fill="#000000" font-family="Helvetica" font-size="10" x="23.8506" y="387.251">Apple</text><text fill="#000000" font-family="Helvetica" font-size="10" x="17" y="398.8916">Services</text><rect fill="#E4E4F4" height="25.6406" rx="2.5" ry="2.5" style="stroke:#181818;stroke-width:0.5;" width="90.9092" x="81.0928" y="370.9688"/><text fill="#000000" font-family="Helvetica" font-size="10" x="88.0928" y="387.251">Secure Enclave</text><rect fill="#E4E4F4" height="25.6406" rx="2.5" ry="2.5" style="stroke:#181818;stroke-width:0.5;" width="101.4268" x="355.9141" y="370.9688"/><text fill="#000000" font-family="Helvetica" font-size="10" x="362.9141" y="387.251">OS (iOS / iPadOS)</text><rect fill="#FFE6CC" height="25.6406" rx="2.5" ry="2.5" style="stroke:#D79B00;stroke-width:0.5;" width="72.2471" x="703.2842" y="370.9688"/><text fill="#000000" font-family="Helvetica" font-size="10" x="710.2842" y="387.251">ZETA Client</text><path d="M530.7856,77.9219 L530.7856,98.9219 L733.7856,98.9219 L733.7856,87.9219 L723.7856,77.9219 L530.7856,77.9219" fill="#FEFFDD" style="stroke:#181818;stroke-width:0.5;"/><path d="M723.7856,77.9219 L723.7856,87.9219 L733.7856,87.9219 L723.7856,77.9219" fill="#FEFFDD" style="stroke:#181818;stroke-width:0.5;"/><text fill="#000000" font-family="Helvetica" font-size="10" x="536.7856" y="92.2041">App nutzt native Apple-Frameworks.</text><polygon fill="#181818" points="422.6274,118.2031,412.6274,122.2031,422.6274,126.2031,418.6274,122.2031" style="stroke:#181818;stroke-width:1;"/><line style="stroke:#181818;stroke-width:1;" x1="416.6274" x2="733.4077" y1="122.2031" y2="122.2031"/><text fill="#000000" font-family="Helvetica" font-size="10" x="428.6274" y="117.8447">(01)</text><text fill="#000000" font-family="Helvetica" font-size="10" x="453.1548" y="117.8447">DCAppAttestService.shared.generateKey()</text><polygon fill="#181818" points="142.5474,143.8438,132.5474,147.8438,142.5474,151.8438,138.5474,147.8438" style="stroke:#181818;stroke-width:1;"/><line style="stroke:#181818;stroke-width:1;" x1="136.5474" x2="400.6274" y1="147.8438" y2="147.8438"/><text fill="#000000" font-family="Helvetica" font-size="10" x="148.5474" y="143.4854">(02)</text><text fill="#000000" font-family="Helvetica" font-size="10" x="173.0747" y="143.4854">Generiere Schl&#252;ssel (AK)</text><polygon fill="#181818" points="389.6274,169.4844,399.6274,173.4844,389.6274,177.4844,393.6274,173.4844" style="stroke:#181818;stroke-width:1;"/><line style="stroke:#181818;stroke-width:1;stroke-dasharray:2,2;" x1="131.5474" x2="395.6274" y1="173.4844" y2="173.4844"/><text fill="#000000" font-family="Helvetica" font-size="10" x="138.5474" y="169.126">(03)</text><text fill="#000000" font-family="Helvetica" font-size="10" x="163.0747" y="169.126">keyId (Referenz f&#252;r PrK.AK.Sig)</text><polygon fill="#181818" points="722.4077,195.125,732.4077,199.125,722.4077,203.125,726.4077,199.125" style="stroke:#181818;stroke-width:1;"/><line style="stroke:#181818;stroke-width:1;stroke-dasharray:2,2;" x1="411.6274" x2="728.4077" y1="199.125" y2="199.125"/><text fill="#000000" font-family="Helvetica" font-size="10" x="418.6274" y="194.7666">(04)</text><text fill="#000000" font-family="Helvetica" font-size="10" x="443.1548" y="194.7666">keyId (Referenz f&#252;r PrK.AK.Sig)</text><polygon fill="#181818" points="422.6274,220.7656,412.6274,224.7656,422.6274,228.7656,418.6274,224.7656" style="stroke:#181818;stroke-width:1;"/><line style="stroke:#181818;stroke-width:1;" x1="416.6274" x2="733.4077" y1="224.7656" y2="224.7656"/><text fill="#000000" font-family="Helvetica" font-size="10" x="428.6274" y="220.4072">(05)</text><text fill="#000000" font-family="Helvetica" font-size="10" x="453.1548" y="220.4072">DCAppAttest.attestKey(keyId_AK, hash_puk_client_sig)</text><polygon fill="#181818" points="142.5474,246.4063,132.5474,250.4063,142.5474,254.4063,138.5474,250.4063" style="stroke:#181818;stroke-width:1;"/><line style="stroke:#181818;stroke-width:1;" x1="136.5474" x2="400.6274" y1="250.4063" y2="250.4063"/><text fill="#000000" font-family="Helvetica" font-size="10" x="148.5474" y="246.0479">(06)</text><text fill="#000000" font-family="Helvetica" font-size="10" x="173.0747" y="246.0479">Attestiere AK und binde hash_puk_client_sig</text><polygon fill="#181818" points="389.6274,272.0469,399.6274,276.0469,389.6274,280.0469,393.6274,276.0469" style="stroke:#181818;stroke-width:1;"/><line style="stroke:#181818;stroke-width:1;stroke-dasharray:2,2;" x1="131.5474" x2="395.6274" y1="276.0469" y2="276.0469"/><text fill="#000000" font-family="Helvetica" font-size="10" x="138.5474" y="271.6885">(07)</text><text fill="#000000" font-family="Helvetica" font-size="10" x="163.0747" y="271.6885">Hardware-Signatur</text><polygon fill="#181818" points="54.084,297.6875,44.084,301.6875,54.084,305.6875,50.084,301.6875" style="stroke:#181818;stroke-width:1;"/><line style="stroke:#181818;stroke-width:1;" x1="48.084" x2="400.6274" y1="301.6875" y2="301.6875"/><text fill="#000000" font-family="Helvetica" font-size="10" x="60.084" y="297.3291">(08)</text><text fill="#000000" font-family="Helvetica" font-size="10" x="84.6113" y="297.3291">Verifiziere &amp; erstelle CBOR</text><polygon fill="#181818" points="389.6274,323.3281,399.6274,327.3281,389.6274,331.3281,393.6274,327.3281" style="stroke:#181818;stroke-width:1;"/><line style="stroke:#181818;stroke-width:1;stroke-dasharray:2,2;" x1="43.084" x2="395.6274" y1="327.3281" y2="327.3281"/><text fill="#000000" font-family="Helvetica" font-size="10" x="50.084" y="322.9697">(09)</text><text fill="#000000" font-family="Helvetica" font-size="10" x="74.6113" y="322.9697">apple_attestation_object</text><polygon fill="#181818" points="722.4077,348.9688,732.4077,352.9688,722.4077,356.9688,726.4077,352.9688" style="stroke:#181818;stroke-width:1;"/><line style="stroke:#181818;stroke-width:1;stroke-dasharray:2,2;" x1="411.6274" x2="728.4077" y1="352.9688" y2="352.9688"/><text fill="#000000" font-family="Helvetica" font-size="10" x="418.6274" y="348.6104">(10)</text><text fill="#000000" font-family="Helvetica" font-size="10" x="443.1548" y="348.6104">apple_attestation_object</text><?plantuml-src ZLJRRjf047ttLqo9r888X5PHgoA4PC0a20W8HwrQLK8RUsnlCBlkxfeKglnDFoDl-R6kRuc3NAKFXCdEEJDdpkn2OiLPlBr10RLwfzEe6N93MKG4sOAB7eb3DUPCsVI0yBvJdRmYMuHB37Ueg4DAc566cNF6PKGST9_GGnuBYgA43P7vAZ3TsrWgO9nXAIVnPupCmHLwA99WG9oDBtZCt24FkO2l0LLbWdrCU9xXGqNTEKf9V3H3wZCjn5D6G5q4gJIPgts4Xl4E1lmNE4atQRpHmrE6CBCcw-5YjbZ1oKN0fSfalCpEbuihw-gwm5ddrldu_0cpN4tcfhMolzdNrhp0pCWEcQlTAL3pnM0oiugqXvxZUOca9H7QSHeHfWffFQds8VQDOhGH9Nuowcy382h1a_y1sWTK98y1Zbqz6O-jZyDXdfrf9VdvwDFdGQUJdjyRsIUa7eQ9rgnOzO9UbXc46fJIxutUMQxRU1C9ucy9AEG7K2BMtfTrryme2l47ir7ig8Eo1aH2UcRSw0NLbe9k7_y8kTVBsmBNBYPPg6-9ix1FWQP_biHTs8rQbVj7DjLiT6A1O34dr5j9kzbMrMgFYGiRwheRd3stAvJgq_yeyDswDc4OKcGgfMOXz7h9plfzGryHq2CRHfPeDesyk8uOLvXUPE1UJkocFh1O7VJp8ehkC1FJ6klhWNTSR6Ixg0MjVg6q2wEX3asbKAhSzBOCY42txID3GHHESLzl5DqJhcqrcrsuIDBwaIFOJX0-FaY98TJDQSFG3hQUMxHQNTZWVk92FN-l1_0U7mGinRHjJjiszKlLDQyOw5NIA-EqIVgLo4zBhStfAGH41kietgoTbBkMBxeNisK5qk7CASJ9AgX-ibNiYcalYN3lj8KjhLBl8XRb1ccOzFYYtVFe8Mto5b3e6ns6-gTpeEzA2ZekIv9mdGsbDypPcj_SegCgpVid-2y0?></g></svg>