<svg xmlns="http://www.w3.org/2000/svg" xmlns:xlink="http://www.w3.org/1999/xlink" contentStyleType="text/css" data-diagram-type="SEQUENCE" height="727px" preserveAspectRatio="none" style="width:841px;height:727px;background:#FFFFFF;" version="1.1" viewBox="0 0 841 727" width="841px" zoomAndPan="magnify"><?plantuml 1.2026.3?><defs/><g><rect fill="#FEFCFF" height="701.375" style="stroke:#181818;stroke-width:0.5;" width="673.3091" x="16" y="11"/><text fill="#000000" font-family="Helvetica" font-size="10" font-weight="700" x="333.7849" y="20.2822">Device</text><rect fill="#E6E6FA" height="684.7344" style="stroke:#181818;stroke-width:0.5;" width="102.1934" x="587.1157" y="27.6406"/><text fill="#000000" font-family="Helvetica" font-size="10" font-weight="700" x="599.1157" y="36.9229">Prim&#228;rsystem</text><g><title>TPM</title><rect fill="#000000" fill-opacity="0.00000" height="609.8125" width="8" x="33.8833" y="69.9219"/><line style="stroke:#000000;stroke-width:0.5;stroke-dasharray:5,5;" x1="37.3833" x2="37.3833" y1="69.9219" y2="679.7344"/></g><g><title/><rect fill="#FFFFFF" height="218.125" style="stroke:#181818;stroke-width:1;" width="10" x="32.3833" y="305.0469"/></g><g><title>ZAS</title><rect fill="#000000" fill-opacity="0.00000" height="609.8125" width="8" x="349.9985" y="69.9219"/><line style="stroke:#000000;stroke-width:0.5;stroke-dasharray:5,5;" x1="353.4985" x2="353.4985" y1="69.9219" y2="679.7344"/></g><g><title/><rect fill="#FFFFFF" height="574.1719" style="stroke:#181818;stroke-width:1;" width="10" x="348.4985" y="105.5625"/></g><g><title>ZETA Client</title><rect fill="#000000" fill-opacity="0.00000" height="609.8125" width="8" x="634.7124" y="69.9219"/><line style="stroke:#000000;stroke-width:0.5;stroke-dasharray:5,5;" x1="638.2124" x2="638.2124" y1="69.9219" y2="679.7344"/></g><g><title/><rect fill="#FFFFFF" height="535.5313" style="stroke:#181818;stroke-width:1;" width="10" x="633.2124" y="144.2031"/></g><rect fill="#E4E4F4" height="25.6406" rx="2.5" ry="2.5" style="stroke:#181818;stroke-width:0.5;" width="34.7666" x="20" y="43.2813"/><text fill="#000000" font-family="Helvetica" font-size="10" x="27" y="59.5635">TPM</text><rect fill="#FFE6CC" height="25.6406" rx="2.5" ry="2.5" style="stroke:#D79B00;stroke-width:0.5;" width="34.0391" x="336.479" y="43.2813"/><text fill="#000000" font-family="Helvetica" font-size="10" x="343.479" y="59.5635">ZAS</text><rect fill="#FFE6CC" height="25.6406" rx="2.5" ry="2.5" style="stroke:#D79B00;stroke-width:0.5;" width="72.2471" x="602.0889" y="43.2813"/><text fill="#000000" font-family="Helvetica" font-size="10" x="609.0889" y="59.5635">ZETA Client</text><rect fill="#E4E4F4" height="25.6406" rx="2.5" ry="2.5" style="stroke:#181818;stroke-width:0.5;" width="34.7666" x="20" y="679.7344"/><text fill="#000000" font-family="Helvetica" font-size="10" x="27" y="696.0166">TPM</text><rect fill="#FFE6CC" height="25.6406" rx="2.5" ry="2.5" style="stroke:#D79B00;stroke-width:0.5;" width="34.0391" x="336.479" y="679.7344"/><text fill="#000000" font-family="Helvetica" font-size="10" x="343.479" y="696.0166">ZAS</text><rect fill="#FFE6CC" height="25.6406" rx="2.5" ry="2.5" style="stroke:#D79B00;stroke-width:0.5;" width="72.2471" x="602.0889" y="679.7344"/><text fill="#000000" font-family="Helvetica" font-size="10" x="609.0889" y="696.0166">ZETA Client</text><path d="M16.3833,81.9219 L76.3394,81.9219 L76.3394,85.5625 L66.3394,95.5625 L16.3833,95.5625 L16.3833,81.9219" fill="#EEEEEE" style="stroke:#000000;stroke-width:1.5;"/><rect fill="none" height="573.8125" style="stroke:#000000;stroke-width:1.5;" width="804.8916" x="16.3833" y="81.9219"/><text fill="#000000" font-family="Helvetica" font-size="10" font-weight="700" x="31.3833" y="92.2041">alt</text><text fill="#000000" font-family="Helvetica" font-size="10" font-weight="700" x="91.3394" y="93.2041">[TPM and ZAS available]</text><line style="stroke:#000000;stroke-width:1;stroke-dasharray:2,2;" x1="16.3833" x2="821.2749" y1="548.1719" y2="548.1719"/><text fill="#000000" font-family="Helvetica" font-size="10" font-weight="700" x="21.3833" y="559.4541">[Fallback]</text><line style="stroke:#181818;stroke-width:1;stroke-dasharray:2,2;" x1="358.4985" x2="400.4985" y1="123.2031" y2="123.2031"/><line style="stroke:#181818;stroke-width:1;stroke-dasharray:2,2;" x1="400.4985" x2="400.4985" y1="123.2031" y2="136.2031"/><line style="stroke:#181818;stroke-width:1;stroke-dasharray:2,2;" x1="359.4985" x2="400.4985" y1="136.2031" y2="136.2031"/><polygon fill="#181818" points="369.4985,132.2031,359.4985,136.2031,369.4985,140.2031,365.4985,136.2031" style="stroke:#181818;stroke-width:1;"/><text fill="#000000" font-family="Helvetica" font-size="10" x="365.4985" y="118.8447">(01)</text><text fill="#000000" font-family="Helvetica" font-size="10" x="390.0259" y="118.8447">Installation (Root/Admin rights)</text><line style="stroke:#181818;stroke-width:1;stroke-dasharray:2,2;" x1="643.2124" x2="685.2124" y1="161.8438" y2="161.8438"/><line style="stroke:#181818;stroke-width:1;stroke-dasharray:2,2;" x1="685.2124" x2="685.2124" y1="161.8438" y2="174.8438"/><line style="stroke:#181818;stroke-width:1;stroke-dasharray:2,2;" x1="644.2124" x2="685.2124" y1="174.8438" y2="174.8438"/><polygon fill="#181818" points="654.2124,170.8438,644.2124,174.8438,654.2124,178.8438,650.2124,174.8438" style="stroke:#181818;stroke-width:1;"/><text fill="#000000" font-family="Helvetica" font-size="10" x="650.2124" y="157.4854">(02)</text><text fill="#000000" font-family="Helvetica" font-size="10" x="674.7397" y="157.4854">Installation (User Space)</text><path d="M337.4985,186.8438 L735.3306,186.8438 L735.3306,190.4844 L725.3306,200.4844 L337.4985,200.4844 L337.4985,186.8438" fill="#EEEEEE" style="stroke:#000000;stroke-width:1.5;"/><rect fill="none" height="74.9219" style="stroke:#000000;stroke-width:1.5;" width="413.832" x="337.4985" y="186.8438"/><text fill="#000000" font-family="Helvetica" font-size="10" font-weight="700" x="352.4985" y="197.126">Vertrauensbeziehung zwischen ZAS und Client wird aufgebaut</text><polygon fill="#181818" points="621.2124,224.125,631.2124,228.125,621.2124,232.125,625.2124,228.125" style="stroke:#181818;stroke-width:1;"/><line style="stroke:#181818;stroke-width:1;" x1="358.4985" x2="627.2124" y1="228.125" y2="228.125"/><text fill="#000000" font-family="Helvetica" font-size="10" x="365.4985" y="223.7666">(03)</text><text fill="#000000" font-family="Helvetica" font-size="10" x="390.0259" y="223.7666">&#160;</text><polygon fill="#181818" points="369.4985,249.7656,359.4985,253.7656,369.4985,257.7656,365.4985,253.7656" style="stroke:#181818;stroke-width:1;"/><line style="stroke:#181818;stroke-width:1;stroke-dasharray:2,2;" x1="363.4985" x2="632.2124" y1="253.7656" y2="253.7656"/><text fill="#000000" font-family="Helvetica" font-size="10" x="375.4985" y="249.4072">(04)</text><text fill="#000000" font-family="Helvetica" font-size="10" x="400.0259" y="249.4072">&#160;</text><polygon fill="#181818" points="53.3833,301.0469,43.3833,305.0469,53.3833,309.0469,49.3833,305.0469" style="stroke:#181818;stroke-width:1;"/><line style="stroke:#181818;stroke-width:1;" x1="47.3833" x2="632.2124" y1="305.0469" y2="305.0469"/><text fill="#000000" font-family="Helvetica" font-size="10" x="59.3833" y="294.8682">(05)</text><text fill="#000000" font-family="Helvetica" font-size="10" x="83.9106" y="289.0479">Generiere PrK.Client.Sig, PuK.Client.Sig</text><text fill="#000000" font-family="Helvetica" font-size="10" x="83.9106" y="300.6885">via OS-Provider (z.B. MS CNG)</text><polygon fill="#181818" points="621.2124,326.6875,631.2124,330.6875,621.2124,334.6875,625.2124,330.6875" style="stroke:#181818;stroke-width:1;"/><line style="stroke:#181818;stroke-width:1;stroke-dasharray:2,2;" x1="42.3833" x2="627.2124" y1="330.6875" y2="330.6875"/><text fill="#000000" font-family="Helvetica" font-size="10" x="49.3833" y="326.3291">(06)</text><text fill="#000000" font-family="Helvetica" font-size="10" x="73.9106" y="326.3291">PuK.Client.Sig, Handle_PrK.Client.Sig</text><line style="stroke:#181818;stroke-width:1;stroke-dasharray:2,2;" x1="358.4985" x2="400.4985" y1="356.3281" y2="356.3281"/><line style="stroke:#181818;stroke-width:1;stroke-dasharray:2,2;" x1="400.4985" x2="400.4985" y1="356.3281" y2="369.3281"/><line style="stroke:#181818;stroke-width:1;stroke-dasharray:2,2;" x1="359.4985" x2="400.4985" y1="369.3281" y2="369.3281"/><polygon fill="#181818" points="369.4985,365.3281,359.4985,369.3281,369.4985,373.3281,365.4985,369.3281" style="stroke:#181818;stroke-width:1;"/><text fill="#000000" font-family="Helvetica" font-size="10" x="365.4985" y="351.9697">(07)</text><text fill="#000000" font-family="Helvetica" font-size="10" x="390.0259" y="351.9697">Messung des PS &amp; Vergleich mit Hersteller-Wert</text><polygon fill="#181818" points="53.3833,390.9688,43.3833,394.9688,53.3833,398.9688,49.3833,394.9688" style="stroke:#181818;stroke-width:1;"/><line style="stroke:#181818;stroke-width:1;" x1="47.3833" x2="347.4985" y1="394.9688" y2="394.9688"/><text fill="#000000" font-family="Helvetica" font-size="10" x="59.3833" y="390.6104">(08)</text><text fill="#000000" font-family="Helvetica" font-size="10" x="83.9106" y="390.6104">TPM2_CreatePrimary() &#8594; Storage Root Key (SRK)</text><polygon fill="#181818" points="53.3833,416.6094,43.3833,420.6094,53.3833,424.6094,49.3833,420.6094" style="stroke:#181818;stroke-width:1;"/><line style="stroke:#181818;stroke-width:1;" x1="47.3833" x2="347.4985" y1="420.6094" y2="420.6094"/><text fill="#000000" font-family="Helvetica" font-size="10" x="59.3833" y="416.251">(09)</text><text fill="#000000" font-family="Helvetica" font-size="10" x="83.9106" y="416.251">TPM2_Create(SRK, restricted=sign, fixedTPM=true)</text><polygon fill="#181818" points="336.4985,442.25,346.4985,446.25,336.4985,450.25,340.4985,446.25" style="stroke:#181818;stroke-width:1;"/><line style="stroke:#181818;stroke-width:1;stroke-dasharray:2,2;" x1="42.3833" x2="342.4985" y1="446.25" y2="446.25"/><text fill="#000000" font-family="Helvetica" font-size="10" x="49.3833" y="441.8916">(10)</text><text fill="#000000" font-family="Helvetica" font-size="10" x="73.9106" y="441.8916">PuK.AK.Sig, PrK.AK.Sig (blob)</text><polygon fill="#181818" points="53.3833,467.8906,43.3833,471.8906,53.3833,475.8906,49.3833,471.8906" style="stroke:#181818;stroke-width:1;"/><line style="stroke:#181818;stroke-width:1;" x1="47.3833" x2="347.4985" y1="471.8906" y2="471.8906"/><text fill="#000000" font-family="Helvetica" font-size="10" x="59.3833" y="467.5322">(11)</text><text fill="#000000" font-family="Helvetica" font-size="10" x="83.9106" y="467.5322">TPM2_Load(SRK, PrK.AK.Sig, PuK.AK.Sig)</text><polygon fill="#181818" points="336.4985,493.5313,346.4985,497.5313,336.4985,501.5313,340.4985,497.5313" style="stroke:#181818;stroke-width:1;"/><line style="stroke:#181818;stroke-width:1;stroke-dasharray:2,2;" x1="42.3833" x2="342.4985" y1="497.5313" y2="497.5313"/><text fill="#000000" font-family="Helvetica" font-size="10" x="49.3833" y="493.1729">(12)</text><text fill="#000000" font-family="Helvetica" font-size="10" x="73.9106" y="493.1729">Handle_PrK.AK.Sig</text><polygon fill="#181818" points="53.3833,519.1719,43.3833,523.1719,53.3833,527.1719,49.3833,523.1719" style="stroke:#181818;stroke-width:1;"/><line style="stroke:#181818;stroke-width:1;" x1="47.3833" x2="347.4985" y1="523.1719" y2="523.1719"/><text fill="#000000" font-family="Helvetica" font-size="10" x="59.3833" y="518.8135">(13)</text><text fill="#000000" font-family="Helvetica" font-size="10" x="83.9106" y="518.8135">TPM2_PCR_Extend(23, Messwerte)</text><path d="M363.4985,510.5313 L363.4985,531.5313 L668.4985,531.5313 L668.4985,520.5313 L658.4985,510.5313 L363.4985,510.5313" fill="#FEFFDD" style="stroke:#181818;stroke-width:0.5;"/><path d="M658.4985,510.5313 L658.4985,520.5313 L668.4985,520.5313 L658.4985,510.5313" fill="#FEFFDD" style="stroke:#181818;stroke-width:0.5;"/><text fill="#000000" font-family="Helvetica" font-size="10" x="369.4985" y="524.8135">PCR_23 K&#246;nnte belegt sein; muss vorher gepr&#252;ft werden</text><line style="stroke:#181818;stroke-width:1;stroke-dasharray:2,2;" x1="643.2124" x2="685.2124" y1="584.4531" y2="584.4531"/><line style="stroke:#181818;stroke-width:1;stroke-dasharray:2,2;" x1="685.2124" x2="685.2124" y1="584.4531" y2="597.4531"/><line style="stroke:#181818;stroke-width:1;stroke-dasharray:2,2;" x1="644.2124" x2="685.2124" y1="597.4531" y2="597.4531"/><polygon fill="#181818" points="654.2124,593.4531,644.2124,597.4531,654.2124,601.4531,650.2124,597.4531" style="stroke:#181818;stroke-width:1;"/><text fill="#000000" font-family="Helvetica" font-size="10" x="650.2124" y="580.0947">(14)</text><text fill="#000000" font-family="Helvetica" font-size="10" x="674.7397" y="580.0947">Installation (User Space)</text><line style="stroke:#181818;stroke-width:1;" x1="643.2124" x2="685.2124" y1="634.7344" y2="634.7344"/><line style="stroke:#181818;stroke-width:1;" x1="685.2124" x2="685.2124" y1="634.7344" y2="647.7344"/><line style="stroke:#181818;stroke-width:1;" x1="644.2124" x2="685.2124" y1="647.7344" y2="647.7344"/><polygon fill="#181818" points="654.2124,643.7344,644.2124,647.7344,654.2124,651.7344,650.2124,647.7344" style="stroke:#181818;stroke-width:1;"/><text fill="#000000" font-family="Helvetica" font-size="10" x="650.2124" y="624.5557">(15)</text><text fill="#000000" font-family="Helvetica" font-size="10" x="674.7397" y="618.7354">Generiere PrK.Client.Sig,</text><text fill="#000000" font-family="Helvetica" font-size="10" x="674.7397" y="630.376">PuK.Client.Sig</text><?plantuml-src dLDBRjim4Dth55Cj2WUs523PvMF0TTJ4S1mBbfkYHG23aYOoKPeoXfHZ-m0zGC_GCtJLNMxIavIKx4HgaowwCSdnuvitZqzlk4n4aIBu_k6oM0XFi4rUQ5-ljUCuSRu6zm9NF44NBeBRGJ-OzSVNuua3i6IaUSANJ6fmf-781QR0h70T30ne58vlWflfY_3FlSY2NREwS7QsHSswNOCfsuN45u_VIMsKneKBuMGmwWMJw5Cq3KPFR4s-lk1ebf8ocFPsvmOrojJIE_lLOKANQfafb7fMZ0iM2tHAUbDgj-rcVmBFwzhr10PIQIO4qpoNq9hakJxifGikWNWsr-gWl559QBThXvAXslv9ya4XGRHa2LQtCygB9TmYQM85IXNZbkEya1bi7xXAvYXBIONHlkD-u9G2A-upZ5cXIv8duVkkJzMQ7WCeoyONfw6rQzrfjq_W4YKIHq88QUXNV_iHppeG5lNpdLnn1kF82obVyTGCrDhwxtmOHT2_kQpcieRNNMWoTE3Al8R0MRFHtoymGgMi6Iag22DuQvtA1F9a3WkkuGh9P4S89E-ZiT2f6M44dDYVercVa6cqOMEqQHt0hw_V8D8viGp1lYaCSGEjQ38y-DTz2-W0eTB44utfkUAPxC0zNsDgOEUQ2coENWvWv-uDToxIVW-jMEJnA_skSvPMtPulT6f4BtIfkLbXNcOE-vDPiDOc0QsZuqvfxeEnRQTRvXghP1lP1dbq3CF77rAQQem2CmqAkJo5HQ4Kh7AQcuVFS4cFF-zDAf5IazMzDCzp71GAuRs9VioIB__tTJn7T8z_DQDtiXan-_qxlm40?></g></svg>