<svg xmlns="http://www.w3.org/2000/svg" xmlns:xlink="http://www.w3.org/1999/xlink" contentStyleType="text/css" data-diagram-type="SEQUENCE" height="544px" preserveAspectRatio="none" style="width:786px;height:544px;background:#FFFFFF;" version="1.1" viewBox="0 0 786 544" width="786px" zoomAndPan="magnify"><?plantuml 1.2026.3?><defs/><g><rect fill="#E6E6FA" height="518.8125" style="stroke:#181818;stroke-width:0.5;" width="702.2881" x="72.168" y="11"/><text fill="#000000" font-family="Helvetica" font-size="10" font-weight="700" x="294.0957" y="20.2822">Prim&#228;rsystem oder App (macOS, iOS, iPadOS)</text><g><title>Apple</title><rect fill="#000000" fill-opacity="0.00000" height="420.6094" width="8" x="34.584" y="64.9219"/><line style="stroke:#000000;stroke-width:0.5;stroke-dasharray:5,5;" x1="38.084" x2="38.084" y1="64.9219" y2="485.5313"/></g><g><title/><rect fill="#FFFFFF" height="25.6406" style="stroke:#181818;stroke-width:1;" width="10" x="33.084" y="329.3281"/></g><g><title>Secure Enclave</title><rect fill="#000000" fill-opacity="0.00000" height="420.6094" width="8" x="123.0474" y="64.9219"/><line style="stroke:#000000;stroke-width:0.5;stroke-dasharray:5,5;" x1="126.5474" x2="126.5474" y1="64.9219" y2="485.5313"/></g><g><title/><rect fill="#FFFFFF" height="25.6406" style="stroke:#181818;stroke-width:1;" width="10" x="121.5474" y="175.4844"/></g><g><title/><rect fill="#FFFFFF" height="25.6406" style="stroke:#181818;stroke-width:1;" width="10" x="121.5474" y="278.0469"/></g><g><title>OS .iOS . iPadOS.</title><rect fill="#000000" fill-opacity="0.00000" height="420.6094" width="8" x="398.1274" y="64.9219"/><line style="stroke:#000000;stroke-width:0.5;stroke-dasharray:5,5;" x1="401.6274" x2="401.6274" y1="64.9219" y2="485.5313"/></g><g><title>ZETA Client</title><rect fill="#000000" fill-opacity="0.00000" height="420.6094" width="8" x="725.9077" y="64.9219"/><line style="stroke:#000000;stroke-width:0.5;stroke-dasharray:5,5;" x1="729.4077" x2="729.4077" y1="64.9219" y2="485.5313"/></g><g><title/><rect fill="#FFFFFF" height="384.9688" style="stroke:#181818;stroke-width:1;" width="10" x="724.4077" y="100.5625"/></g><rect fill="#E2E2F0" height="37.2813" rx="2.5" ry="2.5" style="stroke:#181818;stroke-width:0.5;" width="56.168" x="10" y="26.6406"/><text fill="#000000" font-family="Helvetica" font-size="10" x="23.8506" y="42.9229">Apple</text><text fill="#000000" font-family="Helvetica" font-size="10" x="17" y="54.5635">Services</text><rect fill="#E4E4F4" height="25.6406" rx="2.5" ry="2.5" style="stroke:#181818;stroke-width:0.5;" width="90.9092" x="81.0928" y="38.2813"/><text fill="#000000" font-family="Helvetica" font-size="10" x="88.0928" y="54.5635">Secure Enclave</text><rect fill="#E4E4F4" height="25.6406" rx="2.5" ry="2.5" style="stroke:#181818;stroke-width:0.5;" width="101.4268" x="350.9141" y="38.2813"/><text fill="#000000" font-family="Helvetica" font-size="10" x="357.9141" y="54.5635">OS (iOS / iPadOS)</text><rect fill="#FFE6CC" height="25.6406" rx="2.5" ry="2.5" style="stroke:#D79B00;stroke-width:0.5;" width="72.2471" x="693.2842" y="38.2813"/><text fill="#000000" font-family="Helvetica" font-size="10" x="700.2842" y="54.5635">ZETA Client</text><rect fill="#E2E2F0" height="37.2813" rx="2.5" ry="2.5" style="stroke:#181818;stroke-width:0.5;" width="56.168" x="10" y="485.5313"/><text fill="#000000" font-family="Helvetica" font-size="10" x="23.8506" y="501.8135">Apple</text><text fill="#000000" font-family="Helvetica" font-size="10" x="17" y="513.4541">Services</text><rect fill="#E4E4F4" height="25.6406" rx="2.5" ry="2.5" style="stroke:#181818;stroke-width:0.5;" width="90.9092" x="81.0928" y="485.5313"/><text fill="#000000" font-family="Helvetica" font-size="10" x="88.0928" y="501.8135">Secure Enclave</text><rect fill="#E4E4F4" height="25.6406" rx="2.5" ry="2.5" style="stroke:#181818;stroke-width:0.5;" width="101.4268" x="350.9141" y="485.5313"/><text fill="#000000" font-family="Helvetica" font-size="10" x="357.9141" y="501.8135">OS (iOS / iPadOS)</text><rect fill="#FFE6CC" height="25.6406" rx="2.5" ry="2.5" style="stroke:#D79B00;stroke-width:0.5;" width="72.2471" x="693.2842" y="485.5313"/><text fill="#000000" font-family="Helvetica" font-size="10" x="700.2842" y="501.8135">ZETA Client</text><path d="M17.084,76.9219 L77.04,76.9219 L77.04,80.5625 L67.04,90.5625 L17.084,90.5625 L17.084,76.9219" fill="#EEEEEE" style="stroke:#000000;stroke-width:1.5;"/><rect fill="none" height="384.6094" style="stroke:#000000;stroke-width:1.5;" width="733.3237" x="17.084" y="76.9219"/><text fill="#000000" font-family="Helvetica" font-size="10" font-weight="700" x="32.084" y="87.2041">alt</text><text fill="#000000" font-family="Helvetica" font-size="10" font-weight="700" x="92.04" y="88.2041">[macOS, iOS, iPadOS]</text><line style="stroke:#000000;stroke-width:1;stroke-dasharray:2,2;" x1="17.084" x2="750.4077" y1="399.6094" y2="399.6094"/><text fill="#000000" font-family="Helvetica" font-size="10" font-weight="700" x="22.084" y="410.8916">[Software Attestation (Fallback)]</text><path d="M520.7856,105.5625 L520.7856,126.5625 L723.7856,126.5625 L723.7856,115.5625 L713.7856,105.5625 L520.7856,105.5625" fill="#FEFFDD" style="stroke:#181818;stroke-width:0.5;"/><path d="M713.7856,105.5625 L713.7856,115.5625 L723.7856,115.5625 L713.7856,105.5625" fill="#FEFFDD" style="stroke:#181818;stroke-width:0.5;"/><text fill="#000000" font-family="Helvetica" font-size="10" x="526.7856" y="119.8447">App nutzt native Apple-Frameworks.</text><polygon fill="#181818" points="412.6274,145.8438,402.6274,149.8438,412.6274,153.8438,408.6274,149.8438" style="stroke:#181818;stroke-width:1;"/><line style="stroke:#181818;stroke-width:1;" x1="406.6274" x2="723.4077" y1="149.8438" y2="149.8438"/><text fill="#000000" font-family="Helvetica" font-size="10" x="418.6274" y="145.4854">(01)</text><text fill="#000000" font-family="Helvetica" font-size="10" x="443.1548" y="145.4854">DCAppAttestService.shared.generateKey()</text><polygon fill="#181818" points="142.5474,171.4844,132.5474,175.4844,142.5474,179.4844,138.5474,175.4844" style="stroke:#181818;stroke-width:1;"/><line style="stroke:#181818;stroke-width:1;" x1="136.5474" x2="400.6274" y1="175.4844" y2="175.4844"/><text fill="#000000" font-family="Helvetica" font-size="10" x="148.5474" y="171.126">(02)</text><text fill="#000000" font-family="Helvetica" font-size="10" x="173.0747" y="171.126">Generiere Schl&#252;ssel (AK)</text><polygon fill="#181818" points="389.6274,197.125,399.6274,201.125,389.6274,205.125,393.6274,201.125" style="stroke:#181818;stroke-width:1;"/><line style="stroke:#181818;stroke-width:1;stroke-dasharray:2,2;" x1="131.5474" x2="395.6274" y1="201.125" y2="201.125"/><text fill="#000000" font-family="Helvetica" font-size="10" x="138.5474" y="196.7666">(03)</text><text fill="#000000" font-family="Helvetica" font-size="10" x="163.0747" y="196.7666">keyId (Referenz f&#252;r PrK.AK.Sig)</text><polygon fill="#181818" points="712.4077,222.7656,722.4077,226.7656,712.4077,230.7656,716.4077,226.7656" style="stroke:#181818;stroke-width:1;"/><line style="stroke:#181818;stroke-width:1;stroke-dasharray:2,2;" x1="401.6274" x2="718.4077" y1="226.7656" y2="226.7656"/><text fill="#000000" font-family="Helvetica" font-size="10" x="408.6274" y="222.4072">(04)</text><text fill="#000000" font-family="Helvetica" font-size="10" x="433.1548" y="222.4072">keyId (Referenz f&#252;r PrK.AK.Sig)</text><polygon fill="#181818" points="412.6274,248.4063,402.6274,252.4063,412.6274,256.4063,408.6274,252.4063" style="stroke:#181818;stroke-width:1;"/><line style="stroke:#181818;stroke-width:1;" x1="406.6274" x2="723.4077" y1="252.4063" y2="252.4063"/><text fill="#000000" font-family="Helvetica" font-size="10" x="418.6274" y="248.0479">(05)</text><text fill="#000000" font-family="Helvetica" font-size="10" x="443.1548" y="248.0479">DCAppAttest.attestKey(keyId_AK, hash_puk_client_sig)</text><polygon fill="#181818" points="142.5474,274.0469,132.5474,278.0469,142.5474,282.0469,138.5474,278.0469" style="stroke:#181818;stroke-width:1;"/><line style="stroke:#181818;stroke-width:1;" x1="136.5474" x2="400.6274" y1="278.0469" y2="278.0469"/><text fill="#000000" font-family="Helvetica" font-size="10" x="148.5474" y="273.6885">(06)</text><text fill="#000000" font-family="Helvetica" font-size="10" x="173.0747" y="273.6885">Attestiere AK und binde hash_puk_client_sig</text><polygon fill="#181818" points="389.6274,299.6875,399.6274,303.6875,389.6274,307.6875,393.6274,303.6875" style="stroke:#181818;stroke-width:1;"/><line style="stroke:#181818;stroke-width:1;stroke-dasharray:2,2;" x1="131.5474" x2="395.6274" y1="303.6875" y2="303.6875"/><text fill="#000000" font-family="Helvetica" font-size="10" x="138.5474" y="299.3291">(07)</text><text fill="#000000" font-family="Helvetica" font-size="10" x="163.0747" y="299.3291">Hardware-Signatur</text><polygon fill="#181818" points="54.084,325.3281,44.084,329.3281,54.084,333.3281,50.084,329.3281" style="stroke:#181818;stroke-width:1;"/><line style="stroke:#181818;stroke-width:1;" x1="48.084" x2="400.6274" y1="329.3281" y2="329.3281"/><text fill="#000000" font-family="Helvetica" font-size="10" x="60.084" y="324.9697">(08)</text><text fill="#000000" font-family="Helvetica" font-size="10" x="84.6113" y="324.9697">Verifiziere &amp; erstelle CBOR</text><polygon fill="#181818" points="389.6274,350.9688,399.6274,354.9688,389.6274,358.9688,393.6274,354.9688" style="stroke:#181818;stroke-width:1;"/><line style="stroke:#181818;stroke-width:1;stroke-dasharray:2,2;" x1="43.084" x2="395.6274" y1="354.9688" y2="354.9688"/><text fill="#000000" font-family="Helvetica" font-size="10" x="50.084" y="350.6104">(09)</text><text fill="#000000" font-family="Helvetica" font-size="10" x="74.6113" y="350.6104">apple_attestation_object</text><polygon fill="#181818" points="712.4077,376.6094,722.4077,380.6094,712.4077,384.6094,716.4077,380.6094" style="stroke:#181818;stroke-width:1;"/><line style="stroke:#181818;stroke-width:1;stroke-dasharray:2,2;" x1="401.6274" x2="718.4077" y1="380.6094" y2="380.6094"/><text fill="#000000" font-family="Helvetica" font-size="10" x="408.6274" y="376.251">(10)</text><text fill="#000000" font-family="Helvetica" font-size="10" x="433.1548" y="376.251">apple_attestation_object</text><path d="M480.4243,423.25 L480.4243,456.25 L723.4243,456.25 L723.4243,433.25 L713.4243,423.25 L480.4243,423.25" fill="#FEFFDD" style="stroke:#181818;stroke-width:0.5;"/><path d="M713.4243,423.25 L713.4243,433.25 L723.4243,433.25 L713.4243,423.25" fill="#FEFFDD" style="stroke:#181818;stroke-width:0.5;"/><text fill="#000000" font-family="Helvetica" font-size="10" x="486.4243" y="437.5322">Keine Hardware-Bindung.</text><text fill="#000000" font-family="Helvetica" font-size="10" x="486.4243" y="449.1729">App oder Client erstellt prk_client_sig selbst.</text><?plantuml-src ZLJXRXev4FxlfvXIgILAeVGKjReeYhIGfOs0WB9HJtUgXCpkxE9YxAtjJG-glaqVe__oOftrxYQKahl-08ndlfdvlfanBvnMnNg11bhjNk-enUnAg9mRleO4Krv8DzJAHMAByAfts7Z5rmZlKDwY4p7VyRceV2PQQPlp69Dxxu4kZ42puojHPMuP91yBwq1fXJisYvyAL35UOugcFFHvlCgCBbGoq58R-6ift2uWsWSySFZZGDm9Miip3AJ851MIEhOK2O9r1DPkaoDZpw6l_uMup6RP4o8l5C8ul9mFfkFfDJnzkzJMLMNyR9tCfbVXrKtZ5vw49yEJUv_PzUKa2A-ZlwERSDBuZFajgeJKQRmcq_xbE6pCAQPncfObpRWXnKNEbMjAExDk8_6SDTGk1CzAgbyOGBxZNlu7w6xHyVeCiA_gq-4mV3qOrDOnLLBVNxpviz_h-VklhFf8aQ8iQws27MxGps7wafmy_2ixUrdNpPxaXcTh3Wxr5fmfIFlTkbj1dalye28qjo96sm9kmT-n1JMeDJDYVVVDs0qrRmsQL2ojq5xpU1gz0E6_PZoPHaUjG-hloTIAC2uCGgXYILtnsQBmK6ltWTC8sfGDNZwaQogbszy8y4zu4y102bJEGwiZd9sLFJi_PpGYG9GPOrmw-9KVyt9NgEDZ_qTfXtw-GQUrvTJBemgtfQtZJjnYLMDdI5E3dxLPsQx7xaI3pdb3v1Gk1dGCd4FhwfvqxP8RJBePAZJSuGWtxICFRzWJFWgFZq_XRUb2xm1252_btNThKK8x65Nk97Jd8LMdSmeht5mcqAxNUWlftNS3CpFg1gDk9BAzB8HjIFuly3VeTRd_AUduSFDWz0AMt2xdUR6QnnuxjxzKqN2jWdYomGYAidk2jlnGX4VOl-Cc-KpITgXYwbLXzXFvOvdhFQcQYgrFzWpGq398IQzktuzPZTaFpylZl299aw3LN2y-OkmU4VK_8GobfQRgr9K5rzoz1xI7NCe5hVxHupCvml8fkUVR9w4AbNK_g79O_LBNhQgfESZDhe3qiii5TQnS4lO3?></g></svg>