<svg xmlns="http://www.w3.org/2000/svg" xmlns:xlink="http://www.w3.org/1999/xlink" contentStyleType="text/css" data-diagram-type="SEQUENCE" height="752px" preserveAspectRatio="none" style="width:750px;height:752px;background:#FFFFFF;" version="1.1" viewBox="0 0 750 752" width="750px" zoomAndPan="magnify"><?plantuml 1.2026.3?><defs/><g><rect fill="#F8F8FF" height="726.5781" style="stroke:#181818;stroke-width:0.5;" width="603.3809" x="20.4204" y="11"/><text fill="#000000" font-family="Helvetica" font-size="10" font-weight="700" x="313.6489" y="20.2822">LEI</text><rect fill="#E6E6FA" height="709.9375" style="stroke:#181818;stroke-width:0.5;" width="316.438" x="307.3633" y="27.6406"/><text fill="#000000" font-family="Helvetica" font-size="10" font-weight="700" x="426.4856" y="36.9229">Prim&#228;rsystem</text><g><title>TPM . SE</title><rect fill="#000000" fill-opacity="0.00000" height="611.7344" width="8" x="49.5" y="81.5625"/><line style="stroke:#000000;stroke-width:0.5;stroke-dasharray:5,5;" x1="53" x2="53" y1="81.5625" y2="693.2969"/></g><g><title/><rect fill="#FFFFFF" height="179.4844" style="stroke:#181818;stroke-width:1;" width="10" x="48" y="188.125"/></g><g><title/><rect fill="#FFFFFF" height="25.6406" style="stroke:#181818;stroke-width:1;" width="10" x="48" y="448.5313"/></g><g><title>ZAS</title><rect fill="#000000" fill-opacity="0.00000" height="611.7344" width="8" x="324.8828" y="81.5625"/><line style="stroke:#000000;stroke-width:0.5;stroke-dasharray:5,5;" x1="328.3828" x2="328.3828" y1="81.5625" y2="693.2969"/></g><g><title/><rect fill="#FFFFFF" height="576.0938" style="stroke:#181818;stroke-width:1;" width="10" x="323.3828" y="117.2031"/></g><g><title>ZETA Client</title><rect fill="#000000" fill-opacity="0.00000" height="611.7344" width="8" x="580.1777" y="81.5625"/><line style="stroke:#000000;stroke-width:0.5;stroke-dasharray:5,5;" x1="583.6777" x2="583.6777" y1="81.5625" y2="693.2969"/></g><g><title/><rect fill="#FFFFFF" height="576.0938" style="stroke:#181818;stroke-width:1;" width="10" x="578.6777" y="117.2031"/></g><g><title>Apple</title><rect fill="#000000" fill-opacity="0.00000" height="611.7344" width="8" x="681.2813" y="81.5625"/><line style="stroke:#000000;stroke-width:0.5;stroke-dasharray:5,5;" x1="684.7813" x2="684.7813" y1="81.5625" y2="693.2969"/></g><g><title/><rect fill="#FFFFFF" height="37.2813" style="stroke:#181818;stroke-width:1;" width="10" x="679.7813" y="499.8125"/></g><rect fill="#E4E4F4" height="25.6406" rx="2.5" ry="2.5" style="stroke:#181818;stroke-width:0.5;" width="57.1592" x="24.4204" y="54.9219"/><text fill="#000000" font-family="Helvetica" font-size="10" x="31.4204" y="71.2041">TPM / SE</text><rect fill="#FFE6CC" height="25.6406" rx="2.5" ry="2.5" style="stroke:#D79B00;stroke-width:0.5;" width="34.0391" x="311.3633" y="54.9219"/><text fill="#000000" font-family="Helvetica" font-size="10" x="318.3633" y="71.2041">ZAS</text><rect fill="#FFE6CC" height="25.6406" rx="2.5" ry="2.5" style="stroke:#D79B00;stroke-width:0.5;" width="72.2471" x="547.5542" y="54.9219"/><text fill="#000000" font-family="Helvetica" font-size="10" x="554.5542" y="71.2041">ZETA Client</text><rect fill="#E2E2F0" height="37.2813" rx="2.5" ry="2.5" style="stroke:#181818;stroke-width:0.5;" width="56.168" x="656.6973" y="43.2813"/><text fill="#000000" font-family="Helvetica" font-size="10" x="670.5479" y="59.5635">Apple</text><text fill="#000000" font-family="Helvetica" font-size="10" x="663.6973" y="71.2041">Services</text><rect fill="#E4E4F4" height="25.6406" rx="2.5" ry="2.5" style="stroke:#181818;stroke-width:0.5;" width="57.1592" x="24.4204" y="693.2969"/><text fill="#000000" font-family="Helvetica" font-size="10" x="31.4204" y="709.5791">TPM / SE</text><rect fill="#FFE6CC" height="25.6406" rx="2.5" ry="2.5" style="stroke:#D79B00;stroke-width:0.5;" width="34.0391" x="311.3633" y="693.2969"/><text fill="#000000" font-family="Helvetica" font-size="10" x="318.3633" y="709.5791">ZAS</text><rect fill="#FFE6CC" height="25.6406" rx="2.5" ry="2.5" style="stroke:#D79B00;stroke-width:0.5;" width="72.2471" x="547.5542" y="693.2969"/><text fill="#000000" font-family="Helvetica" font-size="10" x="554.5542" y="709.5791">ZETA Client</text><rect fill="#E2E2F0" height="37.2813" rx="2.5" ry="2.5" style="stroke:#181818;stroke-width:0.5;" width="56.168" x="656.6973" y="693.2969"/><text fill="#000000" font-family="Helvetica" font-size="10" x="670.5479" y="709.5791">Apple</text><text fill="#000000" font-family="Helvetica" font-size="10" x="663.6973" y="721.2197">Services</text><path d="M13,93.5625 L72.9561,93.5625 L72.9561,97.2031 L62.9561,107.2031 L13,107.2031 L13,93.5625" fill="#EEEEEE" style="stroke:#000000;stroke-width:1.5;"/><rect fill="none" height="575.7344" style="stroke:#000000;stroke-width:1.5;" width="717.7813" x="13" y="93.5625"/><text fill="#000000" font-family="Helvetica" font-size="10" font-weight="700" x="28" y="103.8447">alt</text><text fill="#000000" font-family="Helvetica" font-size="10" font-weight="700" x="87.9561" y="104.8447">[Hardware Attestation (TPM / SE)]</text><line style="stroke:#000000;stroke-width:1;stroke-dasharray:2,2;" x1="13" x2="730.7813" y1="607.375" y2="607.375"/><text fill="#000000" font-family="Helvetica" font-size="10" font-weight="700" x="18" y="618.6572">[Software Attestation (Fallback)]</text><polygon fill="#181818" points="344.3828,130.8438,334.3828,134.8438,344.3828,138.8438,340.3828,134.8438" style="stroke:#181818;stroke-width:1;"/><line style="stroke:#181818;stroke-width:1;" x1="338.3828" x2="577.6777" y1="134.8438" y2="134.8438"/><text fill="#000000" font-family="Helvetica" font-size="10" x="350.3828" y="130.4854">(01)</text><text fill="#000000" font-family="Helvetica" font-size="10" x="374.9102" y="130.4854">dataToSign = Hash_PuK.Client.Sig</text><path d="M32,146.8438 L91.9561,146.8438 L91.9561,150.4844 L81.9561,160.4844 L32,160.4844 L32,146.8438" fill="#EEEEEE" style="stroke:#000000;stroke-width:1.5;"/><rect fill="none" height="435.5313" style="stroke:#000000;stroke-width:1.5;" width="673.7813" x="32" y="146.8438"/><text fill="#000000" font-family="Helvetica" font-size="10" font-weight="700" x="47" y="157.126">alt</text><text fill="#000000" font-family="Helvetica" font-size="10" font-weight="700" x="106.9561" y="158.126">[Windows / Linux (TPM)]</text><line style="stroke:#000000;stroke-width:1;stroke-dasharray:2,2;" x1="32" x2="705.7813" y1="412.25" y2="412.25"/><text fill="#000000" font-family="Helvetica" font-size="10" font-weight="700" x="37" y="423.5322">[macOS (Secure Enclave)]</text><polygon fill="#181818" points="69,184.125,59,188.125,69,192.125,65,188.125" style="stroke:#181818;stroke-width:1;"/><line style="stroke:#181818;stroke-width:1;" x1="63" x2="322.3828" y1="188.125" y2="188.125"/><text fill="#000000" font-family="Helvetica" font-size="10" x="75" y="183.7666">(02)</text><text fill="#000000" font-family="Helvetica" font-size="10" x="99.5273" y="183.7666">TPM2_Sign(Handle_PrK.AK.Sig, dataToSign)</text><polygon fill="#181818" points="311.3828,209.7656,321.3828,213.7656,311.3828,217.7656,315.3828,213.7656" style="stroke:#181818;stroke-width:1;"/><line style="stroke:#181818;stroke-width:1;stroke-dasharray:2,2;" x1="58" x2="317.3828" y1="213.7656" y2="213.7656"/><text fill="#000000" font-family="Helvetica" font-size="10" x="65" y="209.4072">(03)</text><text fill="#000000" font-family="Helvetica" font-size="10" x="89.5273" y="209.4072">signed_Hash_PuK.Client.Sig</text><polygon fill="#181818" points="566.6777,235.4063,576.6777,239.4063,566.6777,243.4063,570.6777,239.4063" style="stroke:#181818;stroke-width:1;"/><line style="stroke:#181818;stroke-width:1;stroke-dasharray:2,2;" x1="333.3828" x2="572.6777" y1="239.4063" y2="239.4063"/><text fill="#000000" font-family="Helvetica" font-size="10" x="340.3828" y="235.0479">(04)</text><text fill="#000000" font-family="Helvetica" font-size="10" x="364.9102" y="235.0479">PuK.AK.Sig, signed_Hash_PuK.Client.Sig</text><polygon fill="#181818" points="344.3828,261.0469,334.3828,265.0469,344.3828,269.0469,340.3828,265.0469" style="stroke:#181818;stroke-width:1;"/><line style="stroke:#181818;stroke-width:1;" x1="338.3828" x2="577.6777" y1="265.0469" y2="265.0469"/><text fill="#000000" font-family="Helvetica" font-size="10" x="350.3828" y="260.6885">(05)</text><text fill="#000000" font-family="Helvetica" font-size="10" x="374.9102" y="260.6885">Request PuK.EK.Enc, C.EK.Enc</text><polygon fill="#181818" points="69,286.6875,59,290.6875,69,294.6875,65,290.6875" style="stroke:#181818;stroke-width:1;"/><line style="stroke:#181818;stroke-width:1;" x1="63" x2="322.3828" y1="290.6875" y2="290.6875"/><text fill="#000000" font-family="Helvetica" font-size="10" x="75" y="286.3291">(06)</text><text fill="#000000" font-family="Helvetica" font-size="10" x="99.5273" y="286.3291">TPM2_ReadPublic(EndorsementKey)</text><polygon fill="#181818" points="311.3828,312.3281,321.3828,316.3281,311.3828,320.3281,315.3828,316.3281" style="stroke:#181818;stroke-width:1;"/><line style="stroke:#181818;stroke-width:1;stroke-dasharray:2,2;" x1="58" x2="317.3828" y1="316.3281" y2="316.3281"/><text fill="#000000" font-family="Helvetica" font-size="10" x="65" y="311.9697">(07)</text><text fill="#000000" font-family="Helvetica" font-size="10" x="89.5273" y="311.9697">PuK.EK.Enc</text><polygon fill="#181818" points="69,337.9688,59,341.9688,69,345.9688,65,341.9688" style="stroke:#181818;stroke-width:1;"/><line style="stroke:#181818;stroke-width:1;" x1="63" x2="322.3828" y1="341.9688" y2="341.9688"/><text fill="#000000" font-family="Helvetica" font-size="10" x="75" y="337.6104">(08)</text><text fill="#000000" font-family="Helvetica" font-size="10" x="99.5273" y="337.6104">TPM2_NV_Read(EndorsementKey)</text><polygon fill="#181818" points="311.3828,363.6094,321.3828,367.6094,311.3828,371.6094,315.3828,367.6094" style="stroke:#181818;stroke-width:1;"/><line style="stroke:#181818;stroke-width:1;stroke-dasharray:2,2;" x1="58" x2="317.3828" y1="367.6094" y2="367.6094"/><text fill="#000000" font-family="Helvetica" font-size="10" x="65" y="363.251">(09)</text><text fill="#000000" font-family="Helvetica" font-size="10" x="89.5273" y="363.251">C.EK.Enc</text><polygon fill="#181818" points="566.6777,389.25,576.6777,393.25,566.6777,397.25,570.6777,393.25" style="stroke:#181818;stroke-width:1;"/><line style="stroke:#181818;stroke-width:1;stroke-dasharray:2,2;" x1="333.3828" x2="572.6777" y1="393.25" y2="393.25"/><text fill="#000000" font-family="Helvetica" font-size="10" x="340.3828" y="388.8916">(10)</text><text fill="#000000" font-family="Helvetica" font-size="10" x="364.9102" y="388.8916">PuK.EK.Enc, C.EK.Enc</text><polygon fill="#181818" points="69,444.5313,59,448.5313,69,452.5313,65,448.5313" style="stroke:#181818;stroke-width:1;"/><line style="stroke:#181818;stroke-width:1;" x1="63" x2="322.3828" y1="448.5313" y2="448.5313"/><text fill="#000000" font-family="Helvetica" font-size="10" x="75" y="444.1729">(11)</text><text fill="#000000" font-family="Helvetica" font-size="10" x="99.5273" y="444.1729">SE_Sign(Handle_PrK.AK.Sig, dataToSign)</text><polygon fill="#181818" points="311.3828,470.1719,321.3828,474.1719,311.3828,478.1719,315.3828,474.1719" style="stroke:#181818;stroke-width:1;"/><line style="stroke:#181818;stroke-width:1;stroke-dasharray:2,2;" x1="58" x2="317.3828" y1="474.1719" y2="474.1719"/><text fill="#000000" font-family="Helvetica" font-size="10" x="65" y="469.8135">(12)</text><text fill="#000000" font-family="Helvetica" font-size="10" x="89.5273" y="469.8135">signed_Hash_PuK.Client.Sig</text><polygon fill="#181818" points="667.7813,495.8125,677.7813,499.8125,667.7813,503.8125,671.7813,499.8125" style="stroke:#181818;stroke-width:1;"/><line style="stroke:#181818;stroke-width:1;" x1="333.3828" x2="673.7813" y1="499.8125" y2="499.8125"/><text fill="#000000" font-family="Helvetica" font-size="10" x="340.3828" y="495.4541">(13)</text><text fill="#000000" font-family="Helvetica" font-size="10" x="364.9102" y="495.4541">DCAppAttest.attest(Handle_PrK.AK.Sig, Hash_PuK.Client.Sig)</text><polygon fill="#181818" points="344.3828,533.0938,334.3828,537.0938,344.3828,541.0938,340.3828,537.0938" style="stroke:#181818;stroke-width:1;"/><line style="stroke:#181818;stroke-width:1;stroke-dasharray:2,2;" x1="338.3828" x2="678.7813" y1="537.0938" y2="537.0938"/><text fill="#000000" font-family="Helvetica" font-size="10" x="350.3828" y="526.915">(14)</text><text fill="#000000" font-family="Helvetica" font-size="10" x="374.9102" y="521.0947">Apple_Attestation_Object</text><text fill="#000000" font-family="Helvetica" font-size="10" x="374.9102" y="532.7354">(inkl. x5c-Zertifikatskette)</text><polygon fill="#181818" points="566.6777,570.375,576.6777,574.375,566.6777,578.375,570.6777,574.375" style="stroke:#181818;stroke-width:1;"/><line style="stroke:#181818;stroke-width:1;stroke-dasharray:2,2;" x1="333.3828" x2="572.6777" y1="574.375" y2="574.375"/><text fill="#000000" font-family="Helvetica" font-size="10" x="340.3828" y="564.1963">(15)</text><text fill="#000000" font-family="Helvetica" font-size="10" x="364.9102" y="558.376">PuK.AK.Sig, signed_Hash_PuK.Client.Sig,</text><text fill="#000000" font-family="Helvetica" font-size="10" x="364.9102" y="570.0166">Apple_Attestation_Object</text><path d="M283.2783,631.0156 L283.2783,664.0156 L578.2783,664.0156 L578.2783,641.0156 L568.2783,631.0156 L283.2783,631.0156" fill="#FEFFDD" style="stroke:#181818;stroke-width:0.5;"/><path d="M568.2783,631.0156 L568.2783,641.0156 L578.2783,641.0156 L568.2783,631.0156" fill="#FEFFDD" style="stroke:#181818;stroke-width:0.5;"/><text fill="#000000" font-family="Helvetica" font-size="10" x="289.2783" y="645.2979">Keine Hardware-Bindung.</text><text fill="#000000" font-family="Helvetica" font-size="10" x="289.2783" y="656.9385">Identit&#228;t besteht nur aus PrK.Client.Sig, PuK.Client.Sig.</text><?plantuml-src fLN_RXev4Fv_dsBA_L6Y1CgbITgBSaZ0Bar428ZbMbqK2PdT0TmOcxEzQP9JtwPlqXVhU9U5XO0KtKc9xFLyyyqtFsnOOfLCvcFKK2hNQWSbpznpkM2QpI762Kk4RIjfG_wCy7jjj_66pH4kKJoWvH4hOFmCqrLIcGMBC5wXMohH77K1Ar1ExQmHVqsC1Qaa5cm6_qbGHZZ02MgtQRBeVgfL8kEM4ah3bnctHOTmss6Tm_4EtYuQmwRO47mgISZ4UZCU8nXBpie-BT3pta9JFKBaeXdl3INF9S9jC6oCFltL6FYZLk-wDu3Vskts--1q1RWEhdBBfvaoDjEvQUtsUpV1pJ371IV1IVjaXUaFhhgDO13-7Gw3RewvPWyeOohV6jNxVEK7WnM9t_Q3bbFTPvgQmXTCsbpzXR5F0kjUdhtFsTHLuryFO560ks-0wZDQjjm3R1UU4WxEMgsbzPgqBC_z3tyqQxNq_7l6iz3gWQggztFvfy57_-GbryVZvlkpinMN-nTyWi9bdf7jdeTDcgOWKEh-tRjujwo1zzPoAn0w-0HzZMuiB5VIyzuiD9lE6LXKps1rGYCmfW4eKSzAwxPkLQmqx7VX7OH12PW1zx6ZnUIJClKrd__yeSqJZTcyjAlHQG95_jj6w8XBj9RWui9rfbv_WMe9ZhIaG1hGvVU60qsF4-7bgxUHHMEn47WdGzGFF4AJ9fEUUHuJ5YwPZhynZT2m5erD2mRbFFM3L4yMy_0m_I2vozrIMgNkpiuXPfODLUXktPz4QsQZVjAfPg0g7QS-BkGNBcFrpL00wcVoc4OxM0vAokyewUpmyDmjnoF7MRvaCXOuwkjEjT5nV4U5Y6jtfxoIIp9amdYqJymg7E4pqpauMCx_2lUj6WpSBQGdpw43-fFH4RIMknqPBlCR88lxoLZmg1nGQRJ1EP7I5Ez9Qys-d_FcSqhx6i9AvNoFoAswxCm8XK6OiwWNGZd4AA5H8fEWHsrVJyFWltRKANrjJ-lPbBk0VekssNnNMRhiYhs3SIqYvIhAI0z6XKipwes_OcJlP9dBUr65nzEeSejq4IVydbbpZmGz-9zZTtGdzyNDUY5ZB-r7g2RsvQrkCo76z6vcCgIocFu-WfgiT7JGlSFver1fqbLDvBHw9wzYidFxyuU5CJ7YZ7xN4mqiCU2AMD08cvghxbtoVW40?></g></svg>