<svg xmlns="http://www.w3.org/2000/svg" xmlns:xlink="http://www.w3.org/1999/xlink" contentStyleType="text/css" data-diagram-type="SEQUENCE" height="544px" preserveAspectRatio="none" style="width:713px;height:544px;background:#FFFFFF;" version="1.1" viewBox="0 0 713 544" width="713px" zoomAndPan="magnify"><?plantuml 1.2026.3?><defs/><g><rect fill="#FEFCFF" height="518.8125" style="stroke:#181818;stroke-width:0.5;" width="623.9766" x="72.168" y="11"/><text fill="#000000" font-family="Helvetica" font-size="10" font-weight="700" x="284.6738" y="20.2822">Apple Device (macOS, iOS, iPadOS)</text><g><title>Apple</title><rect fill="#000000" fill-opacity="0.00000" height="420.6094" width="8" x="34.584" y="64.9219"/><line style="stroke:#000000;stroke-width:0.5;stroke-dasharray:5,5;" x1="38.084" x2="38.084" y1="64.9219" y2="485.5313"/></g><g><title/><rect fill="#FFFFFF" height="25.6406" style="stroke:#181818;stroke-width:1;" width="10" x="33.084" y="226.7656"/></g><g><title>Secure Enclave</title><rect fill="#000000" fill-opacity="0.00000" height="420.6094" width="8" x="118.1226" y="64.9219"/><line style="stroke:#000000;stroke-width:0.5;stroke-dasharray:5,5;" x1="121.6226" x2="121.6226" y1="64.9219" y2="485.5313"/></g><g><title/><rect fill="#FFFFFF" height="25.6406" style="stroke:#181818;stroke-width:1;" width="10" x="116.6226" y="175.4844"/></g><g><title/><rect fill="#FFFFFF" height="25.6406" style="stroke:#181818;stroke-width:1;" width="10" x="116.6226" y="329.3281"/></g><g><title>OS .iOS . iPadOS.</title><rect fill="#000000" fill-opacity="0.00000" height="420.6094" width="8" x="275.6392" y="64.9219"/><line style="stroke:#000000;stroke-width:0.5;stroke-dasharray:5,5;" x1="279.1392" x2="279.1392" y1="64.9219" y2="485.5313"/></g><g><title/><rect fill="#FFFFFF" height="128.2031" style="stroke:#181818;stroke-width:1;" width="10" x="274.1392" y="149.8438"/></g><g><title/><rect fill="#FFFFFF" height="76.9219" style="stroke:#181818;stroke-width:1;" width="10" x="274.1392" y="303.6875"/></g><g><title>ZETA Client</title><rect fill="#000000" fill-opacity="0.00000" height="420.6094" width="8" x="652.521" y="64.9219"/><line style="stroke:#000000;stroke-width:0.5;stroke-dasharray:5,5;" x1="656.021" x2="656.021" y1="64.9219" y2="485.5313"/></g><g><title/><rect fill="#FFFFFF" height="280.0469" style="stroke:#181818;stroke-width:1;" width="10" x="651.021" y="100.5625"/></g><rect fill="#E2E2F0" height="37.2813" rx="2.5" ry="2.5" style="stroke:#181818;stroke-width:0.5;" width="56.168" x="10" y="26.6406"/><text fill="#000000" font-family="Helvetica" font-size="10" x="23.8506" y="42.9229">Apple</text><text fill="#000000" font-family="Helvetica" font-size="10" x="17" y="54.5635">Services</text><rect fill="#E4E4F4" height="25.6406" rx="2.5" ry="2.5" style="stroke:#181818;stroke-width:0.5;" width="90.9092" x="76.168" y="38.2813"/><text fill="#000000" font-family="Helvetica" font-size="10" x="83.168" y="54.5635">Secure Enclave</text><rect fill="#E4E4F4" height="25.6406" rx="2.5" ry="2.5" style="stroke:#181818;stroke-width:0.5;" width="101.4268" x="228.4258" y="38.2813"/><text fill="#000000" font-family="Helvetica" font-size="10" x="235.4258" y="54.5635">OS (iOS / iPadOS)</text><rect fill="#FFE6CC" height="25.6406" rx="2.5" ry="2.5" style="stroke:#D79B00;stroke-width:0.5;" width="72.2471" x="619.8975" y="38.2813"/><text fill="#000000" font-family="Helvetica" font-size="10" x="626.8975" y="54.5635">ZETA Client</text><rect fill="#E2E2F0" height="37.2813" rx="2.5" ry="2.5" style="stroke:#181818;stroke-width:0.5;" width="56.168" x="10" y="485.5313"/><text fill="#000000" font-family="Helvetica" font-size="10" x="23.8506" y="501.8135">Apple</text><text fill="#000000" font-family="Helvetica" font-size="10" x="17" y="513.4541">Services</text><rect fill="#E4E4F4" height="25.6406" rx="2.5" ry="2.5" style="stroke:#181818;stroke-width:0.5;" width="90.9092" x="76.168" y="485.5313"/><text fill="#000000" font-family="Helvetica" font-size="10" x="83.168" y="501.8135">Secure Enclave</text><rect fill="#E4E4F4" height="25.6406" rx="2.5" ry="2.5" style="stroke:#181818;stroke-width:0.5;" width="101.4268" x="228.4258" y="485.5313"/><text fill="#000000" font-family="Helvetica" font-size="10" x="235.4258" y="501.8135">OS (iOS / iPadOS)</text><rect fill="#FFE6CC" height="25.6406" rx="2.5" ry="2.5" style="stroke:#D79B00;stroke-width:0.5;" width="72.2471" x="619.8975" y="485.5313"/><text fill="#000000" font-family="Helvetica" font-size="10" x="626.8975" y="501.8135">ZETA Client</text><path d="M17.084,76.9219 L77.04,76.9219 L77.04,80.5625 L67.04,90.5625 L17.084,90.5625 L17.084,76.9219" fill="#EEEEEE" style="stroke:#000000;stroke-width:1.5;"/><rect fill="none" height="384.6094" style="stroke:#000000;stroke-width:1.5;" width="659.937" x="17.084" y="76.9219"/><text fill="#000000" font-family="Helvetica" font-size="10" font-weight="700" x="32.084" y="87.2041">alt</text><text fill="#000000" font-family="Helvetica" font-size="10" font-weight="700" x="92.04" y="88.2041">[macOS, iOS, iPadOS]</text><line style="stroke:#000000;stroke-width:1;stroke-dasharray:2,2;" x1="17.084" x2="677.021" y1="399.6094" y2="399.6094"/><text fill="#000000" font-family="Helvetica" font-size="10" font-weight="700" x="22.084" y="410.8916">[Software Attestation (Fallback)]</text><path d="M447.3989,105.5625 L447.3989,126.5625 L650.3989,126.5625 L650.3989,115.5625 L640.3989,105.5625 L447.3989,105.5625" fill="#FEFFDD" style="stroke:#181818;stroke-width:0.5;"/><path d="M640.3989,105.5625 L640.3989,115.5625 L650.3989,115.5625 L640.3989,105.5625" fill="#FEFFDD" style="stroke:#181818;stroke-width:0.5;"/><text fill="#000000" font-family="Helvetica" font-size="10" x="453.3989" y="119.8447">App nutzt native Apple-Frameworks.</text><polygon fill="#181818" points="295.1392,145.8438,285.1392,149.8438,295.1392,153.8438,291.1392,149.8438" style="stroke:#181818;stroke-width:1;"/><line style="stroke:#181818;stroke-width:1;" x1="289.1392" x2="650.021" y1="149.8438" y2="149.8438"/><text fill="#000000" font-family="Helvetica" font-size="10" x="301.1392" y="145.4854">(01)</text><text fill="#000000" font-family="Helvetica" font-size="10" x="325.6665" y="145.4854">DCAppAttest.attestKey(keyId_AK, hash_puk_client_sig)</text><polygon fill="#181818" points="137.6226,171.4844,127.6226,175.4844,137.6226,179.4844,133.6226,175.4844" style="stroke:#181818;stroke-width:1;"/><line style="stroke:#181818;stroke-width:1;" x1="131.6226" x2="273.1392" y1="175.4844" y2="175.4844"/><text fill="#000000" font-family="Helvetica" font-size="10" x="143.6226" y="171.126">(02)</text><text fill="#000000" font-family="Helvetica" font-size="10" x="168.1499" y="171.126">Attestiere Schl&#252;ssel</text><polygon fill="#181818" points="262.1392,197.125,272.1392,201.125,262.1392,205.125,266.1392,201.125" style="stroke:#181818;stroke-width:1;"/><line style="stroke:#181818;stroke-width:1;stroke-dasharray:2,2;" x1="126.6226" x2="268.1392" y1="201.125" y2="201.125"/><text fill="#000000" font-family="Helvetica" font-size="10" x="133.6226" y="196.7666">(03)</text><text fill="#000000" font-family="Helvetica" font-size="10" x="158.1499" y="196.7666">Hardware-Signatur</text><polygon fill="#181818" points="54.084,222.7656,44.084,226.7656,54.084,230.7656,50.084,226.7656" style="stroke:#181818;stroke-width:1;"/><line style="stroke:#181818;stroke-width:1;" x1="48.084" x2="273.1392" y1="226.7656" y2="226.7656"/><text fill="#000000" font-family="Helvetica" font-size="10" x="60.084" y="222.4072">(04)</text><text fill="#000000" font-family="Helvetica" font-size="10" x="84.6113" y="222.4072">Verifiziere &amp; erstelle CBOR</text><polygon fill="#181818" points="262.1392,248.4063,272.1392,252.4063,262.1392,256.4063,266.1392,252.4063" style="stroke:#181818;stroke-width:1;"/><line style="stroke:#181818;stroke-width:1;stroke-dasharray:2,2;" x1="43.084" x2="268.1392" y1="252.4063" y2="252.4063"/><text fill="#000000" font-family="Helvetica" font-size="10" x="50.084" y="248.0479">(05)</text><text fill="#000000" font-family="Helvetica" font-size="10" x="74.6113" y="248.0479">apple_attestation_object</text><polygon fill="#181818" points="639.021,274.0469,649.021,278.0469,639.021,282.0469,643.021,278.0469" style="stroke:#181818;stroke-width:1;"/><line style="stroke:#181818;stroke-width:1;stroke-dasharray:2,2;" x1="284.1392" x2="645.021" y1="278.0469" y2="278.0469"/><text fill="#000000" font-family="Helvetica" font-size="10" x="291.1392" y="273.6885">(06)</text><text fill="#000000" font-family="Helvetica" font-size="10" x="315.6665" y="273.6885">apple_attestation_object</text><polygon fill="#181818" points="295.1392,299.6875,285.1392,303.6875,295.1392,307.6875,291.1392,303.6875" style="stroke:#181818;stroke-width:1;"/><line style="stroke:#181818;stroke-width:1;" x1="289.1392" x2="650.021" y1="303.6875" y2="303.6875"/><text fill="#000000" font-family="Helvetica" font-size="10" x="301.1392" y="299.3291">(07)</text><text fill="#000000" font-family="Helvetica" font-size="10" x="325.6665" y="299.3291">DCAppAttest.generateAssertion(keyId_AK, hash_puk_client_sig)</text><polygon fill="#181818" points="137.6226,325.3281,127.6226,329.3281,137.6226,333.3281,133.6226,329.3281" style="stroke:#181818;stroke-width:1;"/><line style="stroke:#181818;stroke-width:1;" x1="131.6226" x2="273.1392" y1="329.3281" y2="329.3281"/><text fill="#000000" font-family="Helvetica" font-size="10" x="143.6226" y="324.9697">(08)</text><text fill="#000000" font-family="Helvetica" font-size="10" x="168.1499" y="324.9697">Signiere Hash</text><polygon fill="#181818" points="262.1392,350.9688,272.1392,354.9688,262.1392,358.9688,266.1392,354.9688" style="stroke:#181818;stroke-width:1;"/><line style="stroke:#181818;stroke-width:1;stroke-dasharray:2,2;" x1="126.6226" x2="268.1392" y1="354.9688" y2="354.9688"/><text fill="#000000" font-family="Helvetica" font-size="10" x="133.6226" y="350.6104">(09)</text><text fill="#000000" font-family="Helvetica" font-size="10" x="158.1499" y="350.6104">ECDSA Signatur</text><polygon fill="#181818" points="639.021,376.6094,649.021,380.6094,639.021,384.6094,643.021,380.6094" style="stroke:#181818;stroke-width:1;"/><line style="stroke:#181818;stroke-width:1;stroke-dasharray:2,2;" x1="284.1392" x2="645.021" y1="380.6094" y2="380.6094"/><text fill="#000000" font-family="Helvetica" font-size="10" x="291.1392" y="376.251">(10)</text><text fill="#000000" font-family="Helvetica" font-size="10" x="315.6665" y="376.251">apple_assertion_object</text><path d="M407.0376,423.25 L407.0376,456.25 L650.0376,456.25 L650.0376,433.25 L640.0376,423.25 L407.0376,423.25" fill="#FEFFDD" style="stroke:#181818;stroke-width:0.5;"/><path d="M640.0376,423.25 L640.0376,433.25 L650.0376,433.25 L640.0376,423.25" fill="#FEFFDD" style="stroke:#181818;stroke-width:0.5;"/><text fill="#000000" font-family="Helvetica" font-size="10" x="413.0376" y="437.5322">Keine Hardware-Bindung.</text><text fill="#000000" font-family="Helvetica" font-size="10" x="413.0376" y="449.1729">App oder Client erstellt prk_client_sig selbst.</text><?plantuml-src dLHXRzis4FtENt5rWSr1wjGRWWqBWW2oB2z1x3Y8WWqR2XYqT99PqwHAKkdYeV-it_h7TgIiHF5ShDY7E1JllSUxTqVoscbLRvPeeDSV3ezwpAw5ghZX6yYnuBLq4wrSAhO8FmmF1s_u1k4IvGCwaV4EPjnWPbffM_4CyoTqh6iZq7Im4bNfLb7-lhOEb5ROYLdyKAFAy0uBD7unujcwDBfMUQobDl3xIhWk8TqdFDVmum7T6LhBIuoaA1KbKZYs4Zc2TKJMxh52nhw7aVuBCd-QPQ-eUA4GfidL8fvFvtVm-jULjgv9usLqTZk_IMxkMrnocfnEJfymjtTNioYvI_z8xvDPYvdo1rGvkTEYPlFHrJHfmmKMML7ub6wv8ST5nPLhKpktxb7Y1MjB6mjU-bB_PW1L1-w_0KwswFXk3R3lwkl99FafZdVHAMMosn___CjeE0pxdrZp9qM1qkVQY1rkq4kPaIHGe7zYvsztURDNbU7bXeD3lGLdQlA-ctSlgYg9xrIAva5aQ7l0BOGzjgG6DM4QF1-4_ePdy_GDYF1po_DvUjHxuUQUAxqKizeW92gJr8GWdYQ7EhbFdAVGfsFWxVCvRMAq-mq2VoRt4SHIe7A1sYpX_DotwEA2qKG0LSWOuzB1lmjZmTs6TNmSFfHs6COPTB6BdFcKGDLkIvUCE_60JOw32Gq9VjHcRKy2jwC6WuksaEFZCnZ7z14vXzQTyF3l6X_xQtoyoXVHzHjOSRjQLFLwaGNsmehoAAYrPf1ScdYbHeIU0OGqMyaldwr56Q3a-U3vrC7W32wvoJzoWuEKxYXtjTcN34kl-XiQKOXjaFqEqD0jbZGIyIXulkFiotE_N3Jba2rQBVJoFMRkvId4QIpvJygtsLUYGiCTHbIuyHB_oqRlIAZsaYXViI-9nsa4XxqxL5MRKBUc5iGOIaijquNp7TcrCLW0_GcNSadt-kZh4tYD_fruQkX8gBnMvSaxvKTJqxlN6hVhdOFAT6sWPrikoJr_9TW_?></g></svg>