<svg xmlns="http://www.w3.org/2000/svg" xmlns:xlink="http://www.w3.org/1999/xlink" contentStyleType="text/css" data-diagram-type="SEQUENCE" height="383px" preserveAspectRatio="none" style="width:665px;height:383px;background:#FFFFFF;" version="1.1" viewBox="0 0 665 383" width="665px" zoomAndPan="magnify"><?plantuml 1.2026.3?><defs/><g><rect fill="#FEFCFF" height="357.9688" style="stroke:#181818;stroke-width:0.5;" width="632.8584" x="16" y="11"/><text fill="#000000" font-family="Helvetica" font-size="10" font-weight="700" x="313.5596" y="20.2822">Device</text><rect fill="#E6E6FA" height="341.3281" style="stroke:#181818;stroke-width:0.5;" width="80.2471" x="568.6113" y="27.6406"/><text fill="#000000" font-family="Helvetica" font-size="10" font-weight="700" x="597.707" y="36.9229">App</text><g><title>TEE . StrongBox</title><rect fill="#000000" fill-opacity="0.00000" height="266.4063" width="8" x="63.7759" y="69.9219"/><line style="stroke:#000000;stroke-width:0.5;stroke-dasharray:5,5;" x1="67.2759" x2="67.2759" y1="69.9219" y2="336.3281"/></g><g><title/><rect fill="#FFFFFF" height="25.6406" style="stroke:#181818;stroke-width:1;" width="10" x="62.2759" y="164.4844"/></g><g><title/><rect fill="#FFFFFF" height="25.6406" style="stroke:#181818;stroke-width:1;" width="10" x="62.2759" y="267.0469"/></g><g><title>Android OS</title><rect fill="#000000" fill-opacity="0.00000" height="266.4063" width="8" x="227.4985" y="69.9219"/><line style="stroke:#000000;stroke-width:0.5;stroke-dasharray:5,5;" x1="230.9985" x2="230.9985" y1="69.9219" y2="336.3281"/></g><g><title/><rect fill="#FFFFFF" height="240.4063" style="stroke:#181818;stroke-width:1;" width="10" x="225.9985" y="77.9219"/></g><g><title>ZETA Client</title><rect fill="#000000" fill-opacity="0.00000" height="266.4063" width="8" x="605.2349" y="69.9219"/><line style="stroke:#000000;stroke-width:0.5;stroke-dasharray:5,5;" x1="608.7349" x2="608.7349" y1="69.9219" y2="336.3281"/></g><g><title/><rect fill="#FFFFFF" height="240.4063" style="stroke:#181818;stroke-width:1;" width="10" x="603.7349" y="77.9219"/></g><rect fill="#E2E2F0" height="25.6406" rx="2.5" ry="2.5" style="stroke:#181818;stroke-width:0.5;" width="94.5518" x="20" y="43.2813"/><text fill="#000000" font-family="Helvetica" font-size="10" x="27" y="59.5635">TEE / StrongBox</text><rect fill="#E2E2F0" height="25.6406" rx="2.5" ry="2.5" style="stroke:#181818;stroke-width:0.5;" width="70.2793" x="195.8589" y="43.2813"/><text fill="#000000" font-family="Helvetica" font-size="10" x="202.8589" y="59.5635">Android OS</text><rect fill="#FFE6CC" height="25.6406" rx="2.5" ry="2.5" style="stroke:#D79B00;stroke-width:0.5;" width="72.2471" x="572.6113" y="43.2813"/><text fill="#000000" font-family="Helvetica" font-size="10" x="579.6113" y="59.5635">ZETA Client</text><rect fill="#E2E2F0" height="25.6406" rx="2.5" ry="2.5" style="stroke:#181818;stroke-width:0.5;" width="94.5518" x="20" y="336.3281"/><text fill="#000000" font-family="Helvetica" font-size="10" x="27" y="352.6104">TEE / StrongBox</text><rect fill="#E2E2F0" height="25.6406" rx="2.5" ry="2.5" style="stroke:#181818;stroke-width:0.5;" width="70.2793" x="195.8589" y="336.3281"/><text fill="#000000" font-family="Helvetica" font-size="10" x="202.8589" y="352.6104">Android OS</text><rect fill="#FFE6CC" height="25.6406" rx="2.5" ry="2.5" style="stroke:#D79B00;stroke-width:0.5;" width="72.2471" x="572.6113" y="336.3281"/><text fill="#000000" font-family="Helvetica" font-size="10" x="579.6113" y="352.6104">ZETA Client</text><path d="M399.8052,82.9219 L399.8052,103.9219 L602.8052,103.9219 L602.8052,92.9219 L592.8052,82.9219 L399.8052,82.9219" fill="#FEFFDD" style="stroke:#181818;stroke-width:0.5;"/><path d="M592.8052,82.9219 L592.8052,92.9219 L602.8052,92.9219 L592.8052,82.9219" fill="#FEFFDD" style="stroke:#181818;stroke-width:0.5;"/><text fill="#000000" font-family="Helvetica" font-size="10" x="405.8052" y="97.2041">App nutzt nativen Android KeyStore.</text><polygon fill="#181818" points="246.9985,134.8438,236.9985,138.8438,246.9985,142.8438,242.9985,138.8438" style="stroke:#181818;stroke-width:1;"/><line style="stroke:#181818;stroke-width:1;" x1="240.9985" x2="602.7349" y1="138.8438" y2="138.8438"/><text fill="#000000" font-family="Helvetica" font-size="10" x="252.9985" y="128.665">(01)</text><text fill="#000000" font-family="Helvetica" font-size="10" x="277.5259" y="122.8447">KeyStore.generateKey(</text><text fill="#000000" font-family="Helvetica" font-size="10" x="277.5259" y="134.4854">AttestationChallenge = hash_puk_client_sig)</text><polygon fill="#181818" points="83.2759,160.4844,73.2759,164.4844,83.2759,168.4844,79.2759,164.4844" style="stroke:#181818;stroke-width:1;"/><line style="stroke:#181818;stroke-width:1;" x1="77.2759" x2="224.9985" y1="164.4844" y2="164.4844"/><text fill="#000000" font-family="Helvetica" font-size="10" x="89.2759" y="160.126">(02)</text><text fill="#000000" font-family="Helvetica" font-size="10" x="113.8032" y="160.126">Erzeuge Key &amp; Chain</text><polygon fill="#181818" points="213.9985,186.125,223.9985,190.125,213.9985,194.125,217.9985,190.125" style="stroke:#181818;stroke-width:1;"/><line style="stroke:#181818;stroke-width:1;stroke-dasharray:2,2;" x1="72.2759" x2="219.9985" y1="190.125" y2="190.125"/><text fill="#000000" font-family="Helvetica" font-size="10" x="79.2759" y="185.7666">(03)</text><text fill="#000000" font-family="Helvetica" font-size="10" x="103.8032" y="185.7666">Zertifikatskette</text><polygon fill="#181818" points="591.7349,211.7656,601.7349,215.7656,591.7349,219.7656,595.7349,215.7656" style="stroke:#181818;stroke-width:1;"/><line style="stroke:#181818;stroke-width:1;stroke-dasharray:2,2;" x1="235.9985" x2="597.7349" y1="215.7656" y2="215.7656"/><text fill="#000000" font-family="Helvetica" font-size="10" x="242.9985" y="211.4072">(04)</text><text fill="#000000" font-family="Helvetica" font-size="10" x="267.5259" y="211.4072">android_key_attestation_certificate_chain</text><polygon fill="#181818" points="246.9985,237.4063,236.9985,241.4063,246.9985,245.4063,242.9985,241.4063" style="stroke:#181818;stroke-width:1;"/><line style="stroke:#181818;stroke-width:1;" x1="240.9985" x2="602.7349" y1="241.4063" y2="241.4063"/><text fill="#000000" font-family="Helvetica" font-size="10" x="252.9985" y="237.0479">(05)</text><text fill="#000000" font-family="Helvetica" font-size="10" x="277.5259" y="237.0479">Signature.sign(KeyStore.getKey(Alias_AK), hash_puk_client_sig)</text><polygon fill="#181818" points="83.2759,263.0469,73.2759,267.0469,83.2759,271.0469,79.2759,267.0469" style="stroke:#181818;stroke-width:1;"/><line style="stroke:#181818;stroke-width:1;" x1="77.2759" x2="224.9985" y1="267.0469" y2="267.0469"/><text fill="#000000" font-family="Helvetica" font-size="10" x="89.2759" y="262.6885">(06)</text><text fill="#000000" font-family="Helvetica" font-size="10" x="113.8032" y="262.6885">Signiere Hash</text><polygon fill="#181818" points="213.9985,288.6875,223.9985,292.6875,213.9985,296.6875,217.9985,292.6875" style="stroke:#181818;stroke-width:1;"/><line style="stroke:#181818;stroke-width:1;stroke-dasharray:2,2;" x1="72.2759" x2="219.9985" y1="292.6875" y2="292.6875"/><text fill="#000000" font-family="Helvetica" font-size="10" x="79.2759" y="288.3291">(07)</text><text fill="#000000" font-family="Helvetica" font-size="10" x="103.8032" y="288.3291">ECDSA Signatur</text><polygon fill="#181818" points="591.7349,314.3281,601.7349,318.3281,591.7349,322.3281,595.7349,318.3281" style="stroke:#181818;stroke-width:1;"/><line style="stroke:#181818;stroke-width:1;stroke-dasharray:2,2;" x1="235.9985" x2="597.7349" y1="318.3281" y2="318.3281"/><text fill="#000000" font-family="Helvetica" font-size="10" x="242.9985" y="313.9697">(08)</text><text fill="#000000" font-family="Helvetica" font-size="10" x="267.5259" y="313.9697">signed_hash_puk_client_sig</text><?plantuml-src dLHTQzim57tthxXDOMl9qcQZR2na0STnjjAaAN5Wh0oCQbyxMXp9jQxBaj7_FiaVYLDI1dimw4hd79rx98lb94M-Vi0CMcVTxddBKYikKfQnDOGOiJoXiHJayIt2--xnnLksHlY6oHCI3rW3CoenKocaIbc0uGxjo3pZc3Mm2OgObdRuArS4GWfih2byp544ECS8CpCOic0LPp8NeICJcS7t9QScmNj9sFVmuOZk59LYCTe9ZuKs4f6rv2628asMj4dHijx2KFw6mEoch1FTF1S84_VQTsQJsHnElowbejB6uUhqRdRhtYvgd7lbNeslTfYx-VNKTkVU3s_XJclCX3sX27KwDMew6rvFt7evmYY88cFfZcKwSPuoGRMrlg9DWWEhRct4MMnQ_MC1f0sugG4kjaYi6WEyJFLqF7O_EawrEj5EgldHfy_3RhUOVxRAB-4H9iPhANRyW0vbXea65VHdgtzP-RPEqep5QmQ4SWkKvJfxGtlGwRT6-CG3R1taKRbhzjPQk2vSWaUP5B4-jXOmjQ-E4MmHPfA7CFCAR5NEl0fRR6wdQUlOULMO5uhtxi869-4eg90iXz3lcyG7WugaZzc8MyrnKPJmThieTdQgMaZ2ufg2Z2fa3xGz43bjzS_3YEiBLDFW1ZSUoGml2d937Zg3lNPlZujHOCO8zSJPJs4JeIAjAOMpP8dvJn6-m9AffP_cApyej7p5u_D3jqP-btgxtGCtssAkoLeNte0Muw9Wx43GQJhgT7fmZphJYAyOgHLITOKQEsXy7G0hP_qLRdosz-m7fKIW6_A3tPwln-3fHu1HhdFGBOcpHYfa0j6F15E-VNF-xdyYCEBwtTFFfUR-gtdN6Ndspi-hhHkeiOgXVyHHez5En_eB?></g></svg>