<svg xmlns="http://www.w3.org/2000/svg" xmlns:xlink="http://www.w3.org/1999/xlink" contentStyleType="text/css" data-diagram-type="SEQUENCE" height="481px" preserveAspectRatio="none" style="width:665px;height:481px;background:#FFFFFF;" version="1.1" viewBox="0 0 665 481" width="665px" zoomAndPan="magnify"><?plantuml 1.2026.3?><defs/><g><rect fill="#FEFCFF" height="455.8906" style="stroke:#181818;stroke-width:0.5;" width="632.8584" x="16" y="11"/><text fill="#000000" font-family="Helvetica" font-size="10" font-weight="700" x="264.4971" y="20.2822">Mobile Device (Android)</text><g><title>TEE . StrongBox</title><rect fill="#000000" fill-opacity="0.00000" height="380.9688" width="8" x="63.7759" y="53.2813"/><line style="stroke:#000000;stroke-width:0.5;stroke-dasharray:5,5;" x1="67.2759" x2="67.2759" y1="53.2813" y2="434.25"/></g><g><title/><rect fill="#FFFFFF" height="25.6406" style="stroke:#181818;stroke-width:1;" width="10" x="62.2759" y="175.4844"/></g><g><title/><rect fill="#FFFFFF" height="25.6406" style="stroke:#181818;stroke-width:1;" width="10" x="62.2759" y="278.0469"/></g><g><title>Android OS</title><rect fill="#000000" fill-opacity="0.00000" height="380.9688" width="8" x="227.4985" y="53.2813"/><line style="stroke:#000000;stroke-width:0.5;stroke-dasharray:5,5;" x1="230.9985" x2="230.9985" y1="53.2813" y2="434.25"/></g><g><title/><rect fill="#FFFFFF" height="76.9219" style="stroke:#181818;stroke-width:1;" width="10" x="225.9985" y="149.8438"/></g><g><title/><rect fill="#FFFFFF" height="76.9219" style="stroke:#181818;stroke-width:1;" width="10" x="225.9985" y="252.4063"/></g><g><title>ZETA Client</title><rect fill="#000000" fill-opacity="0.00000" height="380.9688" width="8" x="605.2349" y="53.2813"/><line style="stroke:#000000;stroke-width:0.5;stroke-dasharray:5,5;" x1="608.7349" x2="608.7349" y1="53.2813" y2="434.25"/></g><g><title/><rect fill="#FFFFFF" height="240.4063" style="stroke:#181818;stroke-width:1;" width="10" x="603.7349" y="88.9219"/></g><rect fill="#E4E4F4" height="25.6406" rx="2.5" ry="2.5" style="stroke:#181818;stroke-width:0.5;" width="94.5518" x="20" y="26.6406"/><text fill="#000000" font-family="Helvetica" font-size="10" x="27" y="42.9229">TEE / StrongBox</text><rect fill="#E4E4F4" height="25.6406" rx="2.5" ry="2.5" style="stroke:#181818;stroke-width:0.5;" width="70.2793" x="195.8589" y="26.6406"/><text fill="#000000" font-family="Helvetica" font-size="10" x="202.8589" y="42.9229">Android OS</text><rect fill="#FFE6CC" height="25.6406" rx="2.5" ry="2.5" style="stroke:#D79B00;stroke-width:0.5;" width="72.2471" x="572.6113" y="26.6406"/><text fill="#000000" font-family="Helvetica" font-size="10" x="579.6113" y="42.9229">ZETA Client</text><rect fill="#E4E4F4" height="25.6406" rx="2.5" ry="2.5" style="stroke:#181818;stroke-width:0.5;" width="94.5518" x="20" y="434.25"/><text fill="#000000" font-family="Helvetica" font-size="10" x="27" y="450.5322">TEE / StrongBox</text><rect fill="#E4E4F4" height="25.6406" rx="2.5" ry="2.5" style="stroke:#181818;stroke-width:0.5;" width="70.2793" x="195.8589" y="434.25"/><text fill="#000000" font-family="Helvetica" font-size="10" x="202.8589" y="450.5322">Android OS</text><rect fill="#FFE6CC" height="25.6406" rx="2.5" ry="2.5" style="stroke:#D79B00;stroke-width:0.5;" width="72.2471" x="572.6113" y="434.25"/><text fill="#000000" font-family="Helvetica" font-size="10" x="579.6113" y="450.5322">ZETA Client</text><path d="M46.2759,65.2813 L106.2319,65.2813 L106.2319,68.9219 L96.2319,78.9219 L46.2759,78.9219 L46.2759,65.2813" fill="#EEEEEE" style="stroke:#000000;stroke-width:1.5;"/><rect fill="none" height="344.9688" style="stroke:#000000;stroke-width:1.5;" width="583.459" x="46.2759" y="65.2813"/><text fill="#000000" font-family="Helvetica" font-size="10" font-weight="700" x="61.2759" y="75.5635">alt</text><text fill="#000000" font-family="Helvetica" font-size="10" font-weight="700" x="121.2319" y="76.5635">[Android]</text><line style="stroke:#000000;stroke-width:1;stroke-dasharray:2,2;" x1="46.2759" x2="629.7349" y1="348.3281" y2="348.3281"/><text fill="#000000" font-family="Helvetica" font-size="10" font-weight="700" x="51.2759" y="359.6104">[Software Attestation (Fallback)]</text><path d="M399.8052,93.9219 L399.8052,114.9219 L602.8052,114.9219 L602.8052,103.9219 L592.8052,93.9219 L399.8052,93.9219" fill="#FEFFDD" style="stroke:#181818;stroke-width:0.5;"/><path d="M592.8052,93.9219 L592.8052,103.9219 L602.8052,103.9219 L592.8052,93.9219" fill="#FEFFDD" style="stroke:#181818;stroke-width:0.5;"/><text fill="#000000" font-family="Helvetica" font-size="10" x="405.8052" y="108.2041">App nutzt nativen Android KeyStore.</text><polygon fill="#181818" points="246.9985,145.8438,236.9985,149.8438,246.9985,153.8438,242.9985,149.8438" style="stroke:#181818;stroke-width:1;"/><line style="stroke:#181818;stroke-width:1;" x1="240.9985" x2="602.7349" y1="149.8438" y2="149.8438"/><text fill="#000000" font-family="Helvetica" font-size="10" x="252.9985" y="139.665">(01)</text><text fill="#000000" font-family="Helvetica" font-size="10" x="277.5259" y="133.8447">KeyStore.generateKey(</text><text fill="#000000" font-family="Helvetica" font-size="10" x="277.5259" y="145.4854">AttestationChallenge = hash_puk_client_sig)</text><polygon fill="#181818" points="83.2759,171.4844,73.2759,175.4844,83.2759,179.4844,79.2759,175.4844" style="stroke:#181818;stroke-width:1;"/><line style="stroke:#181818;stroke-width:1;" x1="77.2759" x2="224.9985" y1="175.4844" y2="175.4844"/><text fill="#000000" font-family="Helvetica" font-size="10" x="89.2759" y="171.126">(02)</text><text fill="#000000" font-family="Helvetica" font-size="10" x="113.8032" y="171.126">Erzeuge Key &amp; Chain</text><polygon fill="#181818" points="213.9985,197.125,223.9985,201.125,213.9985,205.125,217.9985,201.125" style="stroke:#181818;stroke-width:1;"/><line style="stroke:#181818;stroke-width:1;stroke-dasharray:2,2;" x1="72.2759" x2="219.9985" y1="201.125" y2="201.125"/><text fill="#000000" font-family="Helvetica" font-size="10" x="79.2759" y="196.7666">(03)</text><text fill="#000000" font-family="Helvetica" font-size="10" x="103.8032" y="196.7666">Zertifikatskette</text><polygon fill="#181818" points="591.7349,222.7656,601.7349,226.7656,591.7349,230.7656,595.7349,226.7656" style="stroke:#181818;stroke-width:1;"/><line style="stroke:#181818;stroke-width:1;stroke-dasharray:2,2;" x1="235.9985" x2="597.7349" y1="226.7656" y2="226.7656"/><text fill="#000000" font-family="Helvetica" font-size="10" x="242.9985" y="222.4072">(04)</text><text fill="#000000" font-family="Helvetica" font-size="10" x="267.5259" y="222.4072">android_key_attestation_certificate_chain</text><polygon fill="#181818" points="246.9985,248.4063,236.9985,252.4063,246.9985,256.4063,242.9985,252.4063" style="stroke:#181818;stroke-width:1;"/><line style="stroke:#181818;stroke-width:1;" x1="240.9985" x2="602.7349" y1="252.4063" y2="252.4063"/><text fill="#000000" font-family="Helvetica" font-size="10" x="252.9985" y="248.0479">(05)</text><text fill="#000000" font-family="Helvetica" font-size="10" x="277.5259" y="248.0479">Signature.sign(KeyStore.getKey(Alias_AK), hash_puk_client_sig)</text><polygon fill="#181818" points="83.2759,274.0469,73.2759,278.0469,83.2759,282.0469,79.2759,278.0469" style="stroke:#181818;stroke-width:1;"/><line style="stroke:#181818;stroke-width:1;" x1="77.2759" x2="224.9985" y1="278.0469" y2="278.0469"/><text fill="#000000" font-family="Helvetica" font-size="10" x="89.2759" y="273.6885">(06)</text><text fill="#000000" font-family="Helvetica" font-size="10" x="113.8032" y="273.6885">Signiere Hash</text><polygon fill="#181818" points="213.9985,299.6875,223.9985,303.6875,213.9985,307.6875,217.9985,303.6875" style="stroke:#181818;stroke-width:1;"/><line style="stroke:#181818;stroke-width:1;stroke-dasharray:2,2;" x1="72.2759" x2="219.9985" y1="303.6875" y2="303.6875"/><text fill="#000000" font-family="Helvetica" font-size="10" x="79.2759" y="299.3291">(07)</text><text fill="#000000" font-family="Helvetica" font-size="10" x="103.8032" y="299.3291">ECDSA Signatur</text><polygon fill="#181818" points="591.7349,325.3281,601.7349,329.3281,591.7349,333.3281,595.7349,329.3281" style="stroke:#181818;stroke-width:1;"/><line style="stroke:#181818;stroke-width:1;stroke-dasharray:2,2;" x1="235.9985" x2="597.7349" y1="329.3281" y2="329.3281"/><text fill="#000000" font-family="Helvetica" font-size="10" x="242.9985" y="324.9697">(08)</text><text fill="#000000" font-family="Helvetica" font-size="10" x="267.5259" y="324.9697">signed_hash_puk_client_sig</text><path d="M359.7515,371.9688 L359.7515,404.9688 L602.7515,404.9688 L602.7515,381.9688 L592.7515,371.9688 L359.7515,371.9688" fill="#FEFFDD" style="stroke:#181818;stroke-width:0.5;"/><path d="M592.7515,371.9688 L592.7515,381.9688 L602.7515,381.9688 L592.7515,371.9688" fill="#FEFFDD" style="stroke:#181818;stroke-width:0.5;"/><text fill="#000000" font-family="Helvetica" font-size="10" x="365.7515" y="386.251">Keine Hardware-Bindung.</text><text fill="#000000" font-family="Helvetica" font-size="10" x="365.7515" y="397.8916">App oder Client erstellt prk_client_sig selbst.</text><?plantuml-src dLLjQzj03FxkNw6ci2LqIRDHDbQwWfCuQsdIbBemA0DpiMNd5lVEkvExDQF_VV9B4hTatTY7WEyaFNhqIBg8dBJAx-PeeDNkzpijnowboeGHTn1XBFAKnbgHBrS8R_kxZPVY3k4Cqtia6Og6pwZocMgbRIP2Z3RUGvqRYQRXcw9AQE56tt9BeBJ2XitYznnLYDSOeoa-1Y9S9aRdAXhgL1luif3K3F2V1snhUBS3TuhMYWJTL2QAYSJaB6I4O8c3DJraw3YlOQ1_GbXaiyuU5oyLmiGx3uQpoUmQzZyljAMAnbFhz6fswLtUhFsy8-zeVBJncSu6vnDlROmn3kEuI7Ob36ifCw5edVJ4qaEAfywQz4YAf2ZYbmEGDToBCq1lXIJgRu3dUksFnzxxuR2sJfX9VJ_wy77GxvVtZqxrIsMCQS6r0jij_LEOGSfEPVYZSt9OytRsCYEIEm64UWLaSbPLf0IkYeoMKGanPurRKpsNAVBmtCiGeLtREwqdOjNKcuMtRZmF3i4derN2tMg1iDlJhdRi0gdJmSmlu-lZpF_N-5llneLXAb5H2L1zmib9qP3Jqp84LLIKwfI7ok7We3meJLXE8EYujXo3csMWSbhnNWYIzwZMhE027tpI1djbS0CEkgTRwWS7nrlF11KQGSWNxQ_A9K9BZAhLS27IOWaHFi52s4MGvSiWBD42AvDEYRwLWnDij2qIU6Q5EGSpBhm21fEgZDWseDlarEqUmosoRh5S2h9Bf7gA6XdOlwgcS1RLVR34Xq1iMGTX1H9oIK6uoVgI53vlkQ2SjU2oLBkX31MYy2iWRE1UTDxyZmm5E3zi_1voxDy4y8OZtztmUR7yWYf6mGv6ZLAxNSV1r2BuEgOVWbaq-WljCJTupflP-VEeNM2nwMV2H4LuTo1LbAkanuF2CwWZ_fUeHKN3hsFAwvkP9Xb-KjEvfPx38-xy1W00?></g></svg>