<svg xmlns="http://www.w3.org/2000/svg" xmlns:xlink="http://www.w3.org/1999/xlink" contentStyleType="text/css" data-diagram-type="SEQUENCE" height="695px" preserveAspectRatio="none" style="width:948px;height:695px;background:#FFFFFF;" version="1.1" viewBox="0 0 948 695" width="948px" zoomAndPan="magnify"><?plantuml 1.2026.3?><defs/><g><rect fill="#F8F8FF" height="669.6563" style="stroke:#181818;stroke-width:0.5;" width="915.1851" x="16" y="11"/><text fill="#000000" font-family="Helvetica" font-size="10" font-weight="700" x="411.6907" y="20.2822">LEI (Desktop / Server)</text><rect fill="#E6E6FA" height="653.0156" style="stroke:#181818;stroke-width:0.5;" width="491.4014" x="439.7837" y="27.6406"/><text fill="#000000" font-family="Helvetica" font-size="10" font-weight="700" x="646.3877" y="36.9229">Prim&#228;rsystem</text><g><title>TPM</title><rect fill="#000000" fill-opacity="0.00000" height="578.0938" width="8" x="33.8833" y="69.9219"/><line style="stroke:#000000;stroke-width:0.5;stroke-dasharray:5,5;" x1="37.3833" x2="37.3833" y1="69.9219" y2="648.0156"/></g><g><title/><rect fill="#FFFFFF" height="171.4844" style="stroke:#181818;stroke-width:1;" width="10" x="32.3833" y="192.125"/></g><g><title/><rect fill="#FFFFFF" height="76.9219" style="stroke:#181818;stroke-width:1;" width="10" x="32.3833" y="440.5313"/></g><g><title>ZAS .Admin.</title><rect fill="#000000" fill-opacity="0.00000" height="578.0938" width="8" x="478.8169" y="69.9219"/><line style="stroke:#000000;stroke-width:0.5;stroke-dasharray:5,5;" x1="482.3169" x2="482.3169" y1="69.9219" y2="648.0156"/></g><g><title/><rect fill="#FFFFFF" height="437.5313" style="stroke:#181818;stroke-width:1;" width="10" x="477.3169" y="105.5625"/></g><g><title>ZETA Client .User.</title><rect fill="#000000" fill-opacity="0.00000" height="578.0938" width="8" x="870.6743" y="69.9219"/><line style="stroke:#000000;stroke-width:0.5;stroke-dasharray:5,5;" x1="874.1743" x2="874.1743" y1="69.9219" y2="648.0156"/></g><g><title/><rect fill="#FFFFFF" height="437.5313" style="stroke:#181818;stroke-width:1;" width="10" x="869.1743" y="105.5625"/></g><rect fill="#E4E4F4" height="25.6406" rx="2.5" ry="2.5" style="stroke:#181818;stroke-width:0.5;" width="34.7666" x="20" y="43.2813"/><text fill="#000000" font-family="Helvetica" font-size="10" x="27" y="59.5635">TPM</text><rect fill="#FFE6CC" height="25.6406" rx="2.5" ry="2.5" style="stroke:#D79B00;stroke-width:0.5;" width="77.0664" x="443.7837" y="43.2813"/><text fill="#000000" font-family="Helvetica" font-size="10" x="450.7837" y="59.5635">ZAS (Admin)</text><rect fill="#FFE6CC" height="25.6406" rx="2.5" ry="2.5" style="stroke:#D79B00;stroke-width:0.5;" width="106.0215" x="821.1636" y="43.2813"/><text fill="#000000" font-family="Helvetica" font-size="10" x="828.1636" y="59.5635">ZETA Client (User)</text><rect fill="#E4E4F4" height="25.6406" rx="2.5" ry="2.5" style="stroke:#181818;stroke-width:0.5;" width="34.7666" x="20" y="648.0156"/><text fill="#000000" font-family="Helvetica" font-size="10" x="27" y="664.2979">TPM</text><rect fill="#FFE6CC" height="25.6406" rx="2.5" ry="2.5" style="stroke:#D79B00;stroke-width:0.5;" width="77.0664" x="443.7837" y="648.0156"/><text fill="#000000" font-family="Helvetica" font-size="10" x="450.7837" y="664.2979">ZAS (Admin)</text><rect fill="#FFE6CC" height="25.6406" rx="2.5" ry="2.5" style="stroke:#D79B00;stroke-width:0.5;" width="106.0215" x="821.1636" y="648.0156"/><text fill="#000000" font-family="Helvetica" font-size="10" x="828.1636" y="664.2979">ZETA Client (User)</text><path d="M16.3833,81.9219 L76.3394,81.9219 L76.3394,85.5625 L66.3394,95.5625 L16.3833,95.5625 L16.3833,81.9219" fill="#EEEEEE" style="stroke:#000000;stroke-width:1.5;"/><rect fill="none" height="542.0938" style="stroke:#000000;stroke-width:1.5;" width="878.791" x="16.3833" y="81.9219"/><text fill="#000000" font-family="Helvetica" font-size="10" font-weight="700" x="31.3833" y="92.2041">alt</text><text fill="#000000" font-family="Helvetica" font-size="10" font-weight="700" x="91.3394" y="93.2041">[Windows / Linux (lokaler ZAS n&#246;tig)]</text><line style="stroke:#000000;stroke-width:1;stroke-dasharray:2,2;" x1="16.3833" x2="895.1743" y1="562.0938" y2="562.0938"/><text fill="#000000" font-family="Helvetica" font-size="10" font-weight="700" x="21.3833" y="573.376">[Software Attestation (Fallback)]</text><path d="M577.6763,110.5625 L577.6763,143.5625 L868.6763,143.5625 L868.6763,120.5625 L858.6763,110.5625 L577.6763,110.5625" fill="#FEFFDD" style="stroke:#181818;stroke-width:0.5;"/><path d="M858.6763,110.5625 L858.6763,120.5625 L868.6763,120.5625 L858.6763,110.5625" fill="#FEFFDD" style="stroke:#181818;stroke-width:0.5;"/><text fill="#000000" font-family="Helvetica" font-size="10" x="583.6763" y="124.8447">Client generiert TPM Key prk_client_sig im User Space</text><text fill="#000000" font-family="Helvetica" font-size="10" x="583.6763" y="136.4854">und &#252;bergibt Opaque Blob an den ZAS.</text><polygon fill="#181818" points="498.3169,162.4844,488.3169,166.4844,498.3169,170.4844,494.3169,166.4844" style="stroke:#181818;stroke-width:1;"/><line style="stroke:#181818;stroke-width:1;" x1="492.3169" x2="868.1743" y1="166.4844" y2="166.4844"/><text fill="#000000" font-family="Helvetica" font-size="10" x="504.3169" y="162.126">(01)</text><text fill="#000000" font-family="Helvetica" font-size="10" x="528.8442" y="162.126">PCP_KEY_BLOB(prk_client_sig, puk_client_sig), hash_puk_client_sig</text><polygon fill="#181818" points="53.3833,188.125,43.3833,192.125,53.3833,196.125,49.3833,192.125" style="stroke:#181818;stroke-width:1;"/><line style="stroke:#181818;stroke-width:1;" x1="47.3833" x2="476.3169" y1="192.125" y2="192.125"/><text fill="#000000" font-family="Helvetica" font-size="10" x="59.3833" y="187.7666">(02)</text><text fill="#000000" font-family="Helvetica" font-size="10" x="83.9106" y="187.7666">TPM2_Load(PCP_KEY_BLOB)</text><polygon fill="#181818" points="465.3169,213.7656,475.3169,217.7656,465.3169,221.7656,469.3169,217.7656" style="stroke:#181818;stroke-width:1;"/><line style="stroke:#181818;stroke-width:1;stroke-dasharray:2,2;" x1="42.3833" x2="471.3169" y1="217.7656" y2="217.7656"/><text fill="#000000" font-family="Helvetica" font-size="10" x="49.3833" y="213.4072">(03)</text><text fill="#000000" font-family="Helvetica" font-size="10" x="73.9106" y="213.4072">Handle_prk_client_sig</text><path d="M185.4624,230.7656 L185.4624,263.7656 L476.4624,263.7656 L476.4624,240.7656 L466.4624,230.7656 L185.4624,230.7656" fill="#FEFFDD" style="stroke:#181818;stroke-width:0.5;"/><path d="M466.4624,230.7656 L466.4624,240.7656 L476.4624,240.7656 L466.4624,230.7656" fill="#FEFFDD" style="stroke:#181818;stroke-width:0.5;"/><text fill="#000000" font-family="Helvetica" font-size="10" x="191.4624" y="245.0479">ZAS &#252;bergibt hash_puk_client_sig als "qualifyingData"</text><text fill="#000000" font-family="Helvetica" font-size="10" x="191.4624" y="256.6885">an TPM2_Certify zur Bindung an den Session-Kontext.</text><polygon fill="#181818" points="53.3833,282.6875,43.3833,286.6875,53.3833,290.6875,49.3833,286.6875" style="stroke:#181818;stroke-width:1;"/><line style="stroke:#181818;stroke-width:1;" x1="47.3833" x2="476.3169" y1="286.6875" y2="286.6875"/><text fill="#000000" font-family="Helvetica" font-size="10" x="59.3833" y="282.3291">(04)</text><text fill="#000000" font-family="Helvetica" font-size="10" x="83.9106" y="282.3291">TPM2_Certify(Handle_prk_ak_sig, Handle_prk_client_sig, hash_puk_client_sig)</text><polygon fill="#181818" points="465.3169,308.3281,475.3169,312.3281,465.3169,316.3281,469.3169,312.3281" style="stroke:#181818;stroke-width:1;"/><line style="stroke:#181818;stroke-width:1;stroke-dasharray:2,2;" x1="42.3833" x2="471.3169" y1="312.3281" y2="312.3281"/><text fill="#000000" font-family="Helvetica" font-size="10" x="49.3833" y="307.9697">(05)</text><text fill="#000000" font-family="Helvetica" font-size="10" x="73.9106" y="307.9697">tpm2b_attest, tpmt_signature</text><polygon fill="#181818" points="53.3833,333.9688,43.3833,337.9688,53.3833,341.9688,49.3833,337.9688" style="stroke:#181818;stroke-width:1;"/><line style="stroke:#181818;stroke-width:1;" x1="47.3833" x2="476.3169" y1="337.9688" y2="337.9688"/><text fill="#000000" font-family="Helvetica" font-size="10" x="59.3833" y="333.6104">(06)</text><text fill="#000000" font-family="Helvetica" font-size="10" x="83.9106" y="333.6104">TPM2_ReadPublic(AttestationKey)</text><polygon fill="#181818" points="465.3169,359.6094,475.3169,363.6094,465.3169,367.6094,469.3169,363.6094" style="stroke:#181818;stroke-width:1;"/><line style="stroke:#181818;stroke-width:1;stroke-dasharray:2,2;" x1="42.3833" x2="471.3169" y1="363.6094" y2="363.6094"/><text fill="#000000" font-family="Helvetica" font-size="10" x="49.3833" y="359.251">(07)</text><text fill="#000000" font-family="Helvetica" font-size="10" x="73.9106" y="359.251">puk_ak_sig</text><polygon fill="#181818" points="857.1743,385.25,867.1743,389.25,857.1743,393.25,861.1743,389.25" style="stroke:#181818;stroke-width:1;"/><line style="stroke:#181818;stroke-width:1;stroke-dasharray:2,2;" x1="487.3169" x2="863.1743" y1="389.25" y2="389.25"/><text fill="#000000" font-family="Helvetica" font-size="10" x="494.3169" y="384.8916">(08)</text><text fill="#000000" font-family="Helvetica" font-size="10" x="518.8442" y="384.8916">puk_ak_sig, tpm2b_attest, tpmt_signature</text><polygon fill="#181818" points="498.3169,410.8906,488.3169,414.8906,498.3169,418.8906,494.3169,414.8906" style="stroke:#181818;stroke-width:1;"/><line style="stroke:#181818;stroke-width:1;" x1="492.3169" x2="868.1743" y1="414.8906" y2="414.8906"/><text fill="#000000" font-family="Helvetica" font-size="10" x="504.3169" y="410.5322">(09)</text><text fill="#000000" font-family="Helvetica" font-size="10" x="528.8442" y="410.5322">Request puk_ek_enc, c_ek_enc</text><polygon fill="#181818" points="53.3833,436.5313,43.3833,440.5313,53.3833,444.5313,49.3833,440.5313" style="stroke:#181818;stroke-width:1;"/><line style="stroke:#181818;stroke-width:1;" x1="47.3833" x2="476.3169" y1="440.5313" y2="440.5313"/><text fill="#000000" font-family="Helvetica" font-size="10" x="59.3833" y="436.1729">(10)</text><text fill="#000000" font-family="Helvetica" font-size="10" x="83.9106" y="436.1729">TPM2_ReadPublic(EndorsementKey)</text><polygon fill="#181818" points="465.3169,462.1719,475.3169,466.1719,465.3169,470.1719,469.3169,466.1719" style="stroke:#181818;stroke-width:1;"/><line style="stroke:#181818;stroke-width:1;stroke-dasharray:2,2;" x1="42.3833" x2="471.3169" y1="466.1719" y2="466.1719"/><text fill="#000000" font-family="Helvetica" font-size="10" x="49.3833" y="461.8135">(11)</text><text fill="#000000" font-family="Helvetica" font-size="10" x="73.9106" y="461.8135">puk_ek_enc</text><polygon fill="#181818" points="53.3833,487.8125,43.3833,491.8125,53.3833,495.8125,49.3833,491.8125" style="stroke:#181818;stroke-width:1;"/><line style="stroke:#181818;stroke-width:1;" x1="47.3833" x2="476.3169" y1="491.8125" y2="491.8125"/><text fill="#000000" font-family="Helvetica" font-size="10" x="59.3833" y="487.4541">(12)</text><text fill="#000000" font-family="Helvetica" font-size="10" x="83.9106" y="487.4541">TPM2_NV_Read(EndorsementKey_Cert)</text><polygon fill="#181818" points="465.3169,513.4531,475.3169,517.4531,465.3169,521.4531,469.3169,517.4531" style="stroke:#181818;stroke-width:1;"/><line style="stroke:#181818;stroke-width:1;stroke-dasharray:2,2;" x1="42.3833" x2="471.3169" y1="517.4531" y2="517.4531"/><text fill="#000000" font-family="Helvetica" font-size="10" x="49.3833" y="513.0947">(13)</text><text fill="#000000" font-family="Helvetica" font-size="10" x="73.9106" y="513.0947">c_ek_enc</text><polygon fill="#181818" points="857.1743,539.0938,867.1743,543.0938,857.1743,547.0938,861.1743,543.0938" style="stroke:#181818;stroke-width:1;"/><line style="stroke:#181818;stroke-width:1;stroke-dasharray:2,2;" x1="487.3169" x2="863.1743" y1="543.0938" y2="543.0938"/><text fill="#000000" font-family="Helvetica" font-size="10" x="494.3169" y="538.7354">(14)</text><text fill="#000000" font-family="Helvetica" font-size="10" x="518.8442" y="538.7354">puk_ek_enc, c_ek_enc</text><path d="M625.1909,585.7344 L625.1909,618.7344 L868.1909,618.7344 L868.1909,595.7344 L858.1909,585.7344 L625.1909,585.7344" fill="#FEFFDD" style="stroke:#181818;stroke-width:0.5;"/><path d="M858.1909,585.7344 L858.1909,595.7344 L868.1909,595.7344 L858.1909,585.7344" fill="#FEFFDD" style="stroke:#181818;stroke-width:0.5;"/><text fill="#000000" font-family="Helvetica" font-size="10" x="631.1909" y="600.0166">Keine Hardware-Bindung.</text><text fill="#000000" font-family="Helvetica" font-size="10" x="631.1909" y="611.6572">App oder Client erstellt prk_client_sig selbst.</text><?plantuml-src XLLjRzf84FxkNp6b7yuea79HrEfG58aNSua20K7QgbKajE31xB7UTNVNQSYf_-P-mtswR_bZDsliOAYZIe1tlS_CFFFCxC1IgsGQBr13pM-rwZNFRBXCc6OnXBXYgR039UsCFo7ytge-l6KnmXMA1xHyoKgO_WupKbAPX2qnV47tLAevwX9Me8pikXF-bHeBKaaidHdybg9SuXHNgDsYovQRIAjKXZqbb8RFQsxB1hDZWtqEPnL-HsWCYx0ZU2I9oCfwQnuY64l6ocuJzBpVeAiUOUcY6UyD9SybmZ2udlV6m_4KtlwvLiRkQ1oUZYRZs-3shi05vy7vuFm5CvbUZph1TFPbTXUC2ioGFQ0CIPq2DHfthuV1YultWm-3WQCqOPeKvmcJjg1sOUnMuALNfDRdB7Af_kq192MusmESFg5b-HhWMDMtWq7mljVBJuV497_V__17jzNAtl_mTb_1LoWSrvspwW8TkkaA0cNcFxoBTpblxqsYMHGpiAYUmEgKj6V2mcSkG_NTm3ld87q4NwWD4zIrNpipaC__MXxLC_yBAbEDf0U_ZsPZLK8cCzGFgEkrVS7odCgArEucenem0_IigbrkalcVQ1u__wFDbbeahbLLCKSVXd1SAK3DFVrE67D9d2ukN14kBoijUe8ZFJAZuAvJxFsF9ildo9Qwnl7pokjiipCxESas53rVPJzIMSoQ7jGg1xQBE15ATFVKPgBSu1OIlPaliyEvuH7m61mLcBdhVI-ftl3y7msJY2yiZ1D6JKXrLWjWaYQ6TB5FIuoWUUbUjM7IcynlWY_pxd3SzGzZD219o_jw0zRChEU7R_VvE779BH4-EMcxnzbyg5ZebqFiMiNbr2mON34P2fmVndv5fSp0nTddMa49cA2oVKiPtOqjbr6VMLQxbwH4Hgf7ij81FALq5QYxKnaLAire7d4bcpSqjV3HdXxbrJvmu9UOiyrEiSfaAdMhKC8cyTbYpgn5Onjkbm4biwd6QYPJPE4aNGY-z3kP6RD4dzhb9-_DPZihvuxeKT48KlJV7jFuDP-gXfgw-KV_9CuHqaSk6x3CLw-rIIcDWAQDDXYJoweqsYM_rPBSVihS7JdAQbOfoi_SNjGeDAjCeu1u7Wg3C5Ch-vrfX58Tm1ym8HOqREklN_WRTCFxYkdGcJVpXZozbvqa0KL_HeN0g6dc2Ph8HvF0e5WOQbMQEzx_?></g></svg>