<svg xmlns="http://www.w3.org/2000/svg" xmlns:xlink="http://www.w3.org/1999/xlink" contentStyleType="text/css" data-diagram-type="SEQUENCE" height="710px" preserveAspectRatio="none" style="width:841px;height:710px;background:#FFFFFF;" version="1.1" viewBox="0 0 841 710" width="841px" zoomAndPan="magnify"><?plantuml 1.2026.3?><defs/><g><rect fill="#E6E6FA" height="684.7344" style="stroke:#181818;stroke-width:0.5;" width="662.3359" x="16" y="11"/><text fill="#000000" font-family="Helvetica" font-size="10" font-weight="700" x="308.0713" y="20.2822">Prim&#228;rsystem</text><g><title>TPM</title><rect fill="#000000" fill-opacity="0.00000" height="609.8125" width="8" x="33.8833" y="53.2813"/><line style="stroke:#000000;stroke-width:0.5;stroke-dasharray:5,5;" x1="37.3833" x2="37.3833" y1="53.2813" y2="663.0938"/></g><g><title/><rect fill="#FFFFFF" height="218.125" style="stroke:#181818;stroke-width:1;" width="10" x="32.3833" y="288.4063"/></g><g><title>ZAS</title><rect fill="#000000" fill-opacity="0.00000" height="609.8125" width="8" x="349.9985" y="53.2813"/><line style="stroke:#000000;stroke-width:0.5;stroke-dasharray:5,5;" x1="353.4985" x2="353.4985" y1="53.2813" y2="663.0938"/></g><g><title/><rect fill="#FFFFFF" height="574.1719" style="stroke:#181818;stroke-width:1;" width="10" x="348.4985" y="88.9219"/></g><g><title>ZETA Client</title><rect fill="#000000" fill-opacity="0.00000" height="609.8125" width="8" x="634.7124" y="53.2813"/><line style="stroke:#000000;stroke-width:0.5;stroke-dasharray:5,5;" x1="638.2124" x2="638.2124" y1="53.2813" y2="663.0938"/></g><g><title/><rect fill="#FFFFFF" height="535.5313" style="stroke:#181818;stroke-width:1;" width="10" x="633.2124" y="127.5625"/></g><rect fill="#E4E4F4" height="25.6406" rx="2.5" ry="2.5" style="stroke:#181818;stroke-width:0.5;" width="34.7666" x="20" y="26.6406"/><text fill="#000000" font-family="Helvetica" font-size="10" x="27" y="42.9229">TPM</text><rect fill="#FFE6CC" height="25.6406" rx="2.5" ry="2.5" style="stroke:#D79B00;stroke-width:0.5;" width="34.0391" x="336.479" y="26.6406"/><text fill="#000000" font-family="Helvetica" font-size="10" x="343.479" y="42.9229">ZAS</text><rect fill="#FFE6CC" height="25.6406" rx="2.5" ry="2.5" style="stroke:#D79B00;stroke-width:0.5;" width="72.2471" x="602.0889" y="26.6406"/><text fill="#000000" font-family="Helvetica" font-size="10" x="609.0889" y="42.9229">ZETA Client</text><rect fill="#E4E4F4" height="25.6406" rx="2.5" ry="2.5" style="stroke:#181818;stroke-width:0.5;" width="34.7666" x="20" y="663.0938"/><text fill="#000000" font-family="Helvetica" font-size="10" x="27" y="679.376">TPM</text><rect fill="#FFE6CC" height="25.6406" rx="2.5" ry="2.5" style="stroke:#D79B00;stroke-width:0.5;" width="34.0391" x="336.479" y="663.0938"/><text fill="#000000" font-family="Helvetica" font-size="10" x="343.479" y="679.376">ZAS</text><rect fill="#FFE6CC" height="25.6406" rx="2.5" ry="2.5" style="stroke:#D79B00;stroke-width:0.5;" width="72.2471" x="602.0889" y="663.0938"/><text fill="#000000" font-family="Helvetica" font-size="10" x="609.0889" y="679.376">ZETA Client</text><path d="M16.3833,65.2813 L76.3394,65.2813 L76.3394,68.9219 L66.3394,78.9219 L16.3833,78.9219 L16.3833,65.2813" fill="#EEEEEE" style="stroke:#000000;stroke-width:1.5;"/><rect fill="none" height="573.8125" style="stroke:#000000;stroke-width:1.5;" width="804.8916" x="16.3833" y="65.2813"/><text fill="#000000" font-family="Helvetica" font-size="10" font-weight="700" x="31.3833" y="75.5635">alt</text><text fill="#000000" font-family="Helvetica" font-size="10" font-weight="700" x="91.3394" y="76.5635">[TPM and ZAS available]</text><line style="stroke:#000000;stroke-width:1;stroke-dasharray:2,2;" x1="16.3833" x2="821.2749" y1="531.5313" y2="531.5313"/><text fill="#000000" font-family="Helvetica" font-size="10" font-weight="700" x="21.3833" y="542.8135">[Fallback]</text><line style="stroke:#181818;stroke-width:1;stroke-dasharray:2,2;" x1="358.4985" x2="400.4985" y1="106.5625" y2="106.5625"/><line style="stroke:#181818;stroke-width:1;stroke-dasharray:2,2;" x1="400.4985" x2="400.4985" y1="106.5625" y2="119.5625"/><line style="stroke:#181818;stroke-width:1;stroke-dasharray:2,2;" x1="359.4985" x2="400.4985" y1="119.5625" y2="119.5625"/><polygon fill="#181818" points="369.4985,115.5625,359.4985,119.5625,369.4985,123.5625,365.4985,119.5625" style="stroke:#181818;stroke-width:1;"/><text fill="#000000" font-family="Helvetica" font-size="10" x="365.4985" y="102.2041">(01)</text><text fill="#000000" font-family="Helvetica" font-size="10" x="390.0259" y="102.2041">Installation (Root/Admin rights)</text><line style="stroke:#181818;stroke-width:1;stroke-dasharray:2,2;" x1="643.2124" x2="685.2124" y1="145.2031" y2="145.2031"/><line style="stroke:#181818;stroke-width:1;stroke-dasharray:2,2;" x1="685.2124" x2="685.2124" y1="145.2031" y2="158.2031"/><line style="stroke:#181818;stroke-width:1;stroke-dasharray:2,2;" x1="644.2124" x2="685.2124" y1="158.2031" y2="158.2031"/><polygon fill="#181818" points="654.2124,154.2031,644.2124,158.2031,654.2124,162.2031,650.2124,158.2031" style="stroke:#181818;stroke-width:1;"/><text fill="#000000" font-family="Helvetica" font-size="10" x="650.2124" y="140.8447">(02)</text><text fill="#000000" font-family="Helvetica" font-size="10" x="674.7397" y="140.8447">Installation (User Space)</text><path d="M337.4985,170.2031 L735.3306,170.2031 L735.3306,173.8438 L725.3306,183.8438 L337.4985,183.8438 L337.4985,170.2031" fill="#EEEEEE" style="stroke:#000000;stroke-width:1.5;"/><rect fill="none" height="74.9219" style="stroke:#000000;stroke-width:1.5;" width="413.832" x="337.4985" y="170.2031"/><text fill="#000000" font-family="Helvetica" font-size="10" font-weight="700" x="352.4985" y="180.4854">Vertrauensbeziehung zwischen ZAS und Client wird aufgebaut</text><polygon fill="#181818" points="621.2124,207.4844,631.2124,211.4844,621.2124,215.4844,625.2124,211.4844" style="stroke:#181818;stroke-width:1;"/><line style="stroke:#181818;stroke-width:1;" x1="358.4985" x2="627.2124" y1="211.4844" y2="211.4844"/><text fill="#000000" font-family="Helvetica" font-size="10" x="365.4985" y="207.126">(03)</text><text fill="#000000" font-family="Helvetica" font-size="10" x="390.0259" y="207.126">&#160;</text><polygon fill="#181818" points="369.4985,233.125,359.4985,237.125,369.4985,241.125,365.4985,237.125" style="stroke:#181818;stroke-width:1;"/><line style="stroke:#181818;stroke-width:1;stroke-dasharray:2,2;" x1="363.4985" x2="632.2124" y1="237.125" y2="237.125"/><text fill="#000000" font-family="Helvetica" font-size="10" x="375.4985" y="232.7666">(04)</text><text fill="#000000" font-family="Helvetica" font-size="10" x="400.0259" y="232.7666">&#160;</text><polygon fill="#181818" points="53.3833,284.4063,43.3833,288.4063,53.3833,292.4063,49.3833,288.4063" style="stroke:#181818;stroke-width:1;"/><line style="stroke:#181818;stroke-width:1;" x1="47.3833" x2="632.2124" y1="288.4063" y2="288.4063"/><text fill="#000000" font-family="Helvetica" font-size="10" x="59.3833" y="278.2275">(05)</text><text fill="#000000" font-family="Helvetica" font-size="10" x="83.9106" y="272.4072">Generiere PrK.Client.Sig, PuK.Client.Sig</text><text fill="#000000" font-family="Helvetica" font-size="10" x="83.9106" y="284.0479">via OS-Provider (z.B. MS CNG)</text><polygon fill="#181818" points="621.2124,310.0469,631.2124,314.0469,621.2124,318.0469,625.2124,314.0469" style="stroke:#181818;stroke-width:1;"/><line style="stroke:#181818;stroke-width:1;stroke-dasharray:2,2;" x1="42.3833" x2="627.2124" y1="314.0469" y2="314.0469"/><text fill="#000000" font-family="Helvetica" font-size="10" x="49.3833" y="309.6885">(06)</text><text fill="#000000" font-family="Helvetica" font-size="10" x="73.9106" y="309.6885">PuK.Client.Sig, Handle_PrK.Client.Sig</text><line style="stroke:#181818;stroke-width:1;stroke-dasharray:2,2;" x1="358.4985" x2="400.4985" y1="339.6875" y2="339.6875"/><line style="stroke:#181818;stroke-width:1;stroke-dasharray:2,2;" x1="400.4985" x2="400.4985" y1="339.6875" y2="352.6875"/><line style="stroke:#181818;stroke-width:1;stroke-dasharray:2,2;" x1="359.4985" x2="400.4985" y1="352.6875" y2="352.6875"/><polygon fill="#181818" points="369.4985,348.6875,359.4985,352.6875,369.4985,356.6875,365.4985,352.6875" style="stroke:#181818;stroke-width:1;"/><text fill="#000000" font-family="Helvetica" font-size="10" x="365.4985" y="335.3291">(07)</text><text fill="#000000" font-family="Helvetica" font-size="10" x="390.0259" y="335.3291">Messung des PS &amp; Vergleich mit Hersteller-Wert</text><polygon fill="#181818" points="53.3833,374.3281,43.3833,378.3281,53.3833,382.3281,49.3833,378.3281" style="stroke:#181818;stroke-width:1;"/><line style="stroke:#181818;stroke-width:1;" x1="47.3833" x2="347.4985" y1="378.3281" y2="378.3281"/><text fill="#000000" font-family="Helvetica" font-size="10" x="59.3833" y="373.9697">(08)</text><text fill="#000000" font-family="Helvetica" font-size="10" x="83.9106" y="373.9697">TPM2_CreatePrimary() &#8594; Storage Root Key (SRK)</text><polygon fill="#181818" points="53.3833,399.9688,43.3833,403.9688,53.3833,407.9688,49.3833,403.9688" style="stroke:#181818;stroke-width:1;"/><line style="stroke:#181818;stroke-width:1;" x1="47.3833" x2="347.4985" y1="403.9688" y2="403.9688"/><text fill="#000000" font-family="Helvetica" font-size="10" x="59.3833" y="399.6104">(09)</text><text fill="#000000" font-family="Helvetica" font-size="10" x="83.9106" y="399.6104">TPM2_Create(SRK, restricted=sign, fixedTPM=true)</text><polygon fill="#181818" points="336.4985,425.6094,346.4985,429.6094,336.4985,433.6094,340.4985,429.6094" style="stroke:#181818;stroke-width:1;"/><line style="stroke:#181818;stroke-width:1;stroke-dasharray:2,2;" x1="42.3833" x2="342.4985" y1="429.6094" y2="429.6094"/><text fill="#000000" font-family="Helvetica" font-size="10" x="49.3833" y="425.251">(10)</text><text fill="#000000" font-family="Helvetica" font-size="10" x="73.9106" y="425.251">PuK.AK.Sig, PrK.AK.Sig (blob)</text><polygon fill="#181818" points="53.3833,451.25,43.3833,455.25,53.3833,459.25,49.3833,455.25" style="stroke:#181818;stroke-width:1;"/><line style="stroke:#181818;stroke-width:1;" x1="47.3833" x2="347.4985" y1="455.25" y2="455.25"/><text fill="#000000" font-family="Helvetica" font-size="10" x="59.3833" y="450.8916">(11)</text><text fill="#000000" font-family="Helvetica" font-size="10" x="83.9106" y="450.8916">TPM2_Load(SRK, PrK.AK.Sig, PuK.AK.Sig)</text><polygon fill="#181818" points="336.4985,476.8906,346.4985,480.8906,336.4985,484.8906,340.4985,480.8906" style="stroke:#181818;stroke-width:1;"/><line style="stroke:#181818;stroke-width:1;stroke-dasharray:2,2;" x1="42.3833" x2="342.4985" y1="480.8906" y2="480.8906"/><text fill="#000000" font-family="Helvetica" font-size="10" x="49.3833" y="476.5322">(12)</text><text fill="#000000" font-family="Helvetica" font-size="10" x="73.9106" y="476.5322">Handle_PrK.AK.Sig</text><polygon fill="#181818" points="53.3833,502.5313,43.3833,506.5313,53.3833,510.5313,49.3833,506.5313" style="stroke:#181818;stroke-width:1;"/><line style="stroke:#181818;stroke-width:1;" x1="47.3833" x2="347.4985" y1="506.5313" y2="506.5313"/><text fill="#000000" font-family="Helvetica" font-size="10" x="59.3833" y="502.1729">(13)</text><text fill="#000000" font-family="Helvetica" font-size="10" x="83.9106" y="502.1729">TPM2_PCR_Extend(23, Messwerte)</text><path d="M363.4985,493.8906 L363.4985,514.8906 L668.4985,514.8906 L668.4985,503.8906 L658.4985,493.8906 L363.4985,493.8906" fill="#FEFFDD" style="stroke:#181818;stroke-width:0.5;"/><path d="M658.4985,493.8906 L658.4985,503.8906 L668.4985,503.8906 L658.4985,493.8906" fill="#FEFFDD" style="stroke:#181818;stroke-width:0.5;"/><text fill="#000000" font-family="Helvetica" font-size="10" x="369.4985" y="508.1729">PCR_23 K&#246;nnte belegt sein; muss vorher gepr&#252;ft werden</text><line style="stroke:#181818;stroke-width:1;stroke-dasharray:2,2;" x1="643.2124" x2="685.2124" y1="567.8125" y2="567.8125"/><line style="stroke:#181818;stroke-width:1;stroke-dasharray:2,2;" x1="685.2124" x2="685.2124" y1="567.8125" y2="580.8125"/><line style="stroke:#181818;stroke-width:1;stroke-dasharray:2,2;" x1="644.2124" x2="685.2124" y1="580.8125" y2="580.8125"/><polygon fill="#181818" points="654.2124,576.8125,644.2124,580.8125,654.2124,584.8125,650.2124,580.8125" style="stroke:#181818;stroke-width:1;"/><text fill="#000000" font-family="Helvetica" font-size="10" x="650.2124" y="563.4541">(14)</text><text fill="#000000" font-family="Helvetica" font-size="10" x="674.7397" y="563.4541">Installation (User Space)</text><line style="stroke:#181818;stroke-width:1;" x1="643.2124" x2="685.2124" y1="618.0938" y2="618.0938"/><line style="stroke:#181818;stroke-width:1;" x1="685.2124" x2="685.2124" y1="618.0938" y2="631.0938"/><line style="stroke:#181818;stroke-width:1;" x1="644.2124" x2="685.2124" y1="631.0938" y2="631.0938"/><polygon fill="#181818" points="654.2124,627.0938,644.2124,631.0938,654.2124,635.0938,650.2124,631.0938" style="stroke:#181818;stroke-width:1;"/><text fill="#000000" font-family="Helvetica" font-size="10" x="650.2124" y="607.915">(15)</text><text fill="#000000" font-family="Helvetica" font-size="10" x="674.7397" y="602.0947">Generiere PrK.Client.Sig,</text><text fill="#000000" font-family="Helvetica" font-size="10" x="674.7397" y="613.7354">PuK.Client.Sig</text><?plantuml-src dLNRSXf747tVhsYJgWGL5oj8LXn5fehB8gi0GR6oNN6vYXhOPfbuc24piqYGyci-8D-GRyXJtlGd-PBqxB9emIWFUP1sBcTETvy-Cx3OAXal9gYXK3mzFIbuvZENIwRP0aASiLZOZf8su1k4xq-FRzwo1S9R52kqVCfoc7QAwIkfp99DCToXMohM77KEAr16Tju8VucD1QaavlOC_XgZdE88PwZTeCccdoEjOXcsb50QFiovpHy83WyyrL0xmjj7OrY43S4ZIOdCh3Vd8OAnT5ZPzH8zxpjegWUOkcZ6Uq75SudmqRzhZA_VDKRjSMlG6upWcqwdS-Q_sW5w_assSprNngPvxk_sXuDR__Okm_dd_dddV8SPZcxw3NyK_1pS-VqCqsChb279zuGQlBzf-wCTIRlJzbikwo7Jr1I-PD9csLyPknPOzxBgsvn5JetVF81b3kxc0DKDMhOT0nmAJmNx5wtMThT7kMpNsp_ys3mzJTQ_f3nBhLQagdwUg_tAVzq-_vhhTQrvTd6nut9_WizGkCfJikD-sATf2W8bnxzuLo-t6f12bbj1XXGSgUORQImJWbck97nBl2O9K_4jcn12npBol1TBpQ850ujg0rR7P8y9cQCmr7pn-ASsQpBEed2iTGSA5-w6_G8m0_GzveO3-CT6uC05-XRWwierfbu_m6phI63apkqy1oVZ06NhUKpO92wZXOHvnRYWAgaQ9nmjbKfkaCsWKgcxx-M-ICMHKlPb8rnm2Pf7SsjEaXDfu58fDqaOqk4XoJj3nWZS6v6UTirSmdlKLZCogPdWXkESr8VDFJVJESea9MfundtFTGWidaKuOR7TccYRU1PrjvhBXm39CkdYxULQT-gKIfTmZHBTOqNNJ7UhwNOru54PXd5-_ackE8D1K1bcJYzkgiqgz0DetLwdTJd1yohiCvJXBNL3u7W_qDSTS0-M4oD40yE0Z4fAHGBvT0uBRkajrcH18L1NFf24Nau8Ik3I_QkDMngPHUTPfjV54_ZdzpyWi8giZU1w2brSGp4OTK_-wxm3b46ZiPfFBOPl3BsXPPZn1mm9ziPTZ_tIam9StOtkLaMTZQ4u4MhoJBoUOc4QxUb0EKTq94fEpHHpd7dO6etz1qiEADREoecuzoJRDc-fBAREfhG9MJk3xkDVKjBg10L6bdv6kFm95h4ni59wJesFSAaV_vwHAr67vDKijKh5yr0OX0vPVvA-H__ZTZnPDCC_wz5FSjzYxlvx_m80?></g></svg>