<svg xmlns="http://www.w3.org/2000/svg" xmlns:xlink="http://www.w3.org/1999/xlink" contentStyleType="text/css" data-diagram-type="SEQUENCE" height="644px" preserveAspectRatio="none" style="width:948px;height:644px;background:#FFFFFF;" version="1.1" viewBox="0 0 948 644" width="948px" zoomAndPan="magnify"><?plantuml 1.2026.3?><defs/><g><rect fill="#F8F8FF" height="618.375" style="stroke:#181818;stroke-width:0.5;" width="915.1851" x="16" y="11"/><text fill="#000000" font-family="Helvetica" font-size="10" font-weight="700" x="411.6907" y="20.2822">LEI (Desktop / Server)</text><rect fill="#E6E6FA" height="601.7344" style="stroke:#181818;stroke-width:0.5;" width="491.4014" x="439.7837" y="27.6406"/><text fill="#000000" font-family="Helvetica" font-size="10" font-weight="700" x="646.3877" y="36.9229">Prim&#228;rsystem</text><g><title>TPM</title><rect fill="#000000" fill-opacity="0.00000" height="526.8125" width="8" x="33.8833" y="69.9219"/><line style="stroke:#000000;stroke-width:0.5;stroke-dasharray:5,5;" x1="37.3833" x2="37.3833" y1="69.9219" y2="596.7344"/></g><g><title/><rect fill="#FFFFFF" height="120.2031" style="stroke:#181818;stroke-width:1;" width="10" x="32.3833" y="192.125"/></g><g><title/><rect fill="#FFFFFF" height="76.9219" style="stroke:#181818;stroke-width:1;" width="10" x="32.3833" y="389.25"/></g><g><title>ZAS .Admin.</title><rect fill="#000000" fill-opacity="0.00000" height="526.8125" width="8" x="478.8169" y="69.9219"/><line style="stroke:#000000;stroke-width:0.5;stroke-dasharray:5,5;" x1="482.3169" x2="482.3169" y1="69.9219" y2="596.7344"/></g><g><title/><rect fill="#FFFFFF" height="386.25" style="stroke:#181818;stroke-width:1;" width="10" x="477.3169" y="105.5625"/></g><g><title>ZETA Client .User.</title><rect fill="#000000" fill-opacity="0.00000" height="526.8125" width="8" x="870.6743" y="69.9219"/><line style="stroke:#000000;stroke-width:0.5;stroke-dasharray:5,5;" x1="874.1743" x2="874.1743" y1="69.9219" y2="596.7344"/></g><g><title/><rect fill="#FFFFFF" height="386.25" style="stroke:#181818;stroke-width:1;" width="10" x="869.1743" y="105.5625"/></g><rect fill="#E4E4F4" height="25.6406" rx="2.5" ry="2.5" style="stroke:#181818;stroke-width:0.5;" width="34.7666" x="20" y="43.2813"/><text fill="#000000" font-family="Helvetica" font-size="10" x="27" y="59.5635">TPM</text><rect fill="#FFE6CC" height="25.6406" rx="2.5" ry="2.5" style="stroke:#D79B00;stroke-width:0.5;" width="77.0664" x="443.7837" y="43.2813"/><text fill="#000000" font-family="Helvetica" font-size="10" x="450.7837" y="59.5635">ZAS (Admin)</text><rect fill="#FFE6CC" height="25.6406" rx="2.5" ry="2.5" style="stroke:#D79B00;stroke-width:0.5;" width="106.0215" x="821.1636" y="43.2813"/><text fill="#000000" font-family="Helvetica" font-size="10" x="828.1636" y="59.5635">ZETA Client (User)</text><rect fill="#E4E4F4" height="25.6406" rx="2.5" ry="2.5" style="stroke:#181818;stroke-width:0.5;" width="34.7666" x="20" y="596.7344"/><text fill="#000000" font-family="Helvetica" font-size="10" x="27" y="613.0166">TPM</text><rect fill="#FFE6CC" height="25.6406" rx="2.5" ry="2.5" style="stroke:#D79B00;stroke-width:0.5;" width="77.0664" x="443.7837" y="596.7344"/><text fill="#000000" font-family="Helvetica" font-size="10" x="450.7837" y="613.0166">ZAS (Admin)</text><rect fill="#FFE6CC" height="25.6406" rx="2.5" ry="2.5" style="stroke:#D79B00;stroke-width:0.5;" width="106.0215" x="821.1636" y="596.7344"/><text fill="#000000" font-family="Helvetica" font-size="10" x="828.1636" y="613.0166">ZETA Client (User)</text><path d="M16.3833,81.9219 L76.3394,81.9219 L76.3394,85.5625 L66.3394,95.5625 L16.3833,95.5625 L16.3833,81.9219" fill="#EEEEEE" style="stroke:#000000;stroke-width:1.5;"/><rect fill="none" height="490.8125" style="stroke:#000000;stroke-width:1.5;" width="878.791" x="16.3833" y="81.9219"/><text fill="#000000" font-family="Helvetica" font-size="10" font-weight="700" x="31.3833" y="92.2041">alt</text><text fill="#000000" font-family="Helvetica" font-size="10" font-weight="700" x="91.3394" y="93.2041">[Windows / Linux (lokaler ZAS n&#246;tig)]</text><line style="stroke:#000000;stroke-width:1;stroke-dasharray:2,2;" x1="16.3833" x2="895.1743" y1="510.8125" y2="510.8125"/><text fill="#000000" font-family="Helvetica" font-size="10" font-weight="700" x="21.3833" y="522.0947">[Software Attestation (Fallback)]</text><path d="M577.6763,110.5625 L577.6763,143.5625 L868.6763,143.5625 L868.6763,120.5625 L858.6763,110.5625 L577.6763,110.5625" fill="#FEFFDD" style="stroke:#181818;stroke-width:0.5;"/><path d="M858.6763,110.5625 L858.6763,120.5625 L868.6763,120.5625 L858.6763,110.5625" fill="#FEFFDD" style="stroke:#181818;stroke-width:0.5;"/><text fill="#000000" font-family="Helvetica" font-size="10" x="583.6763" y="124.8447">Client generiert TPM Key prk_client_sig im User Space</text><text fill="#000000" font-family="Helvetica" font-size="10" x="583.6763" y="136.4854">und &#252;bergibt Opaque Blob an den ZAS.</text><polygon fill="#181818" points="498.3169,162.4844,488.3169,166.4844,498.3169,170.4844,494.3169,166.4844" style="stroke:#181818;stroke-width:1;"/><line style="stroke:#181818;stroke-width:1;" x1="492.3169" x2="868.1743" y1="166.4844" y2="166.4844"/><text fill="#000000" font-family="Helvetica" font-size="10" x="504.3169" y="162.126">(01)</text><text fill="#000000" font-family="Helvetica" font-size="10" x="528.8442" y="162.126">PCP_KEY_BLOB(prk_client_sig, puk_client_sig), hash_puk_client_sig</text><polygon fill="#181818" points="53.3833,188.125,43.3833,192.125,53.3833,196.125,49.3833,192.125" style="stroke:#181818;stroke-width:1;"/><line style="stroke:#181818;stroke-width:1;" x1="47.3833" x2="476.3169" y1="192.125" y2="192.125"/><text fill="#000000" font-family="Helvetica" font-size="10" x="59.3833" y="187.7666">(02)</text><text fill="#000000" font-family="Helvetica" font-size="10" x="83.9106" y="187.7666">TPM2_Load(PCP_KEY_BLOB)</text><polygon fill="#181818" points="465.3169,213.7656,475.3169,217.7656,465.3169,221.7656,469.3169,217.7656" style="stroke:#181818;stroke-width:1;"/><line style="stroke:#181818;stroke-width:1;stroke-dasharray:2,2;" x1="42.3833" x2="471.3169" y1="217.7656" y2="217.7656"/><text fill="#000000" font-family="Helvetica" font-size="10" x="49.3833" y="213.4072">(03)</text><text fill="#000000" font-family="Helvetica" font-size="10" x="73.9106" y="213.4072">Handle_prk_client_sig</text><path d="M185.4624,230.7656 L185.4624,263.7656 L476.4624,263.7656 L476.4624,240.7656 L466.4624,230.7656 L185.4624,230.7656" fill="#FEFFDD" style="stroke:#181818;stroke-width:0.5;"/><path d="M466.4624,230.7656 L466.4624,240.7656 L476.4624,240.7656 L466.4624,230.7656" fill="#FEFFDD" style="stroke:#181818;stroke-width:0.5;"/><text fill="#000000" font-family="Helvetica" font-size="10" x="191.4624" y="245.0479">ZAS &#252;bergibt hash_puk_client_sig als "qualifyingData"</text><text fill="#000000" font-family="Helvetica" font-size="10" x="191.4624" y="256.6885">an TPM2_Certify zur Bindung an den Session-Kontext.</text><polygon fill="#181818" points="53.3833,282.6875,43.3833,286.6875,53.3833,290.6875,49.3833,286.6875" style="stroke:#181818;stroke-width:1;"/><line style="stroke:#181818;stroke-width:1;" x1="47.3833" x2="476.3169" y1="286.6875" y2="286.6875"/><text fill="#000000" font-family="Helvetica" font-size="10" x="59.3833" y="282.3291">(04)</text><text fill="#000000" font-family="Helvetica" font-size="10" x="83.9106" y="282.3291">TPM2_Certify(Handle_prk_ak_sig, Handle_prk_client_sig, hash_puk_client_sig)</text><polygon fill="#181818" points="465.3169,308.3281,475.3169,312.3281,465.3169,316.3281,469.3169,312.3281" style="stroke:#181818;stroke-width:1;"/><line style="stroke:#181818;stroke-width:1;stroke-dasharray:2,2;" x1="42.3833" x2="471.3169" y1="312.3281" y2="312.3281"/><text fill="#000000" font-family="Helvetica" font-size="10" x="49.3833" y="307.9697">(05)</text><text fill="#000000" font-family="Helvetica" font-size="10" x="73.9106" y="307.9697">tpm2b_attest, tpmt_signature</text><polygon fill="#181818" points="857.1743,333.9688,867.1743,337.9688,857.1743,341.9688,861.1743,337.9688" style="stroke:#181818;stroke-width:1;"/><line style="stroke:#181818;stroke-width:1;stroke-dasharray:2,2;" x1="487.3169" x2="863.1743" y1="337.9688" y2="337.9688"/><text fill="#000000" font-family="Helvetica" font-size="10" x="494.3169" y="333.6104">(06)</text><text fill="#000000" font-family="Helvetica" font-size="10" x="518.8442" y="333.6104">puk_ak_sig, tpm2b_attest, tpmt_signature</text><polygon fill="#181818" points="498.3169,359.6094,488.3169,363.6094,498.3169,367.6094,494.3169,363.6094" style="stroke:#181818;stroke-width:1;"/><line style="stroke:#181818;stroke-width:1;" x1="492.3169" x2="868.1743" y1="363.6094" y2="363.6094"/><text fill="#000000" font-family="Helvetica" font-size="10" x="504.3169" y="359.251">(07)</text><text fill="#000000" font-family="Helvetica" font-size="10" x="528.8442" y="359.251">Request puk_ek_enc, c_ek_enc</text><polygon fill="#181818" points="53.3833,385.25,43.3833,389.25,53.3833,393.25,49.3833,389.25" style="stroke:#181818;stroke-width:1;"/><line style="stroke:#181818;stroke-width:1;" x1="47.3833" x2="476.3169" y1="389.25" y2="389.25"/><text fill="#000000" font-family="Helvetica" font-size="10" x="59.3833" y="384.8916">(08)</text><text fill="#000000" font-family="Helvetica" font-size="10" x="83.9106" y="384.8916">TPM2_ReadPublic(EndorsementKey)</text><polygon fill="#181818" points="465.3169,410.8906,475.3169,414.8906,465.3169,418.8906,469.3169,414.8906" style="stroke:#181818;stroke-width:1;"/><line style="stroke:#181818;stroke-width:1;stroke-dasharray:2,2;" x1="42.3833" x2="471.3169" y1="414.8906" y2="414.8906"/><text fill="#000000" font-family="Helvetica" font-size="10" x="49.3833" y="410.5322">(09)</text><text fill="#000000" font-family="Helvetica" font-size="10" x="73.9106" y="410.5322">puk_ek_enc</text><polygon fill="#181818" points="53.3833,436.5313,43.3833,440.5313,53.3833,444.5313,49.3833,440.5313" style="stroke:#181818;stroke-width:1;"/><line style="stroke:#181818;stroke-width:1;" x1="47.3833" x2="476.3169" y1="440.5313" y2="440.5313"/><text fill="#000000" font-family="Helvetica" font-size="10" x="59.3833" y="436.1729">(10)</text><text fill="#000000" font-family="Helvetica" font-size="10" x="83.9106" y="436.1729">TPM2_NV_Read(EndorsementKey_Cert)</text><polygon fill="#181818" points="465.3169,462.1719,475.3169,466.1719,465.3169,470.1719,469.3169,466.1719" style="stroke:#181818;stroke-width:1;"/><line style="stroke:#181818;stroke-width:1;stroke-dasharray:2,2;" x1="42.3833" x2="471.3169" y1="466.1719" y2="466.1719"/><text fill="#000000" font-family="Helvetica" font-size="10" x="49.3833" y="461.8135">(11)</text><text fill="#000000" font-family="Helvetica" font-size="10" x="73.9106" y="461.8135">c_ek_enc</text><polygon fill="#181818" points="857.1743,487.8125,867.1743,491.8125,857.1743,495.8125,861.1743,491.8125" style="stroke:#181818;stroke-width:1;"/><line style="stroke:#181818;stroke-width:1;stroke-dasharray:2,2;" x1="487.3169" x2="863.1743" y1="491.8125" y2="491.8125"/><text fill="#000000" font-family="Helvetica" font-size="10" x="494.3169" y="487.4541">(12)</text><text fill="#000000" font-family="Helvetica" font-size="10" x="518.8442" y="487.4541">puk_ek_enc, c_ek_enc</text><path d="M625.1909,534.4531 L625.1909,567.4531 L868.1909,567.4531 L868.1909,544.4531 L858.1909,534.4531 L625.1909,534.4531" fill="#FEFFDD" style="stroke:#181818;stroke-width:0.5;"/><path d="M858.1909,534.4531 L858.1909,544.4531 L868.1909,544.4531 L858.1909,534.4531" fill="#FEFFDD" style="stroke:#181818;stroke-width:0.5;"/><text fill="#000000" font-family="Helvetica" font-size="10" x="631.1909" y="548.7354">Keine Hardware-Bindung.</text><text fill="#000000" font-family="Helvetica" font-size="10" x="631.1909" y="560.376">App oder Client erstellt prk_client_sig selbst.</text><?plantuml-src ZLLjR-964FxkNp77VQXHGev6qPsAeaYyc2OA18JJdgwAX1Oyc2thNT_kEXTItR_fR-YdViiVwwonW-4SgHBWNU_CCyyyCpkmp2gP9GlKqF3RxMR3CnikKwPP0X6kM2RiK4aRycU4dzlrXtSiGRX6yOYMBrd5Ph2p6IkfJCgM6BrQzrMcEUgAhK0PstKt-ZCp5gIIM3ap-3L3kSGPhb2xHOyjDx5McOpwIYWDdzVSLXt2OuTz3kSrk6CqXiNO5JoMH6HblJMF48mbPsMtANhUJz1JJx1qqOptZfBd4c4KtCpxaz5a1kz_NIjZTpGEJyVJoLrmTr_Q1HV1nV3YrMOwknbtWrdu9RmFngNDY3sYZ4YTqceywTsCWbU8ZyDFmw6ZD6MQ5ESfaxQaTcdiLk2LLwOsu2nsgVxb0QGLSxS7E7j6ouermB6gxuV3u6E_NvoEY4dnVl3fbrwxdR__xks-WgzGEAuxiFe27SBq11dbxj-zomy5R-zTgbcSCB2edi7gZBHdmi9dBYFrpS071v0zWI_KXWdgsZ-w8SYNVooFcpd-WihK8Ed17w3PM9MIIuZw4NMpiIzOaLDLaSRzTDm0Pe2UTRKhN7BygUR9oz_QRAb5aaPT5Glhmn2EAmLekAVVZH8kYTFbfIl2rLMjHrzmf4Vk5Dntoxt_cydpEVAbhd7ylEewt-pSJaxo3KKlLlcFL1RpfWUrAWmxPPmO9RfxQdDHRd4BgTxCb_dXtF0OU0AE2eJkUZz8gZUy_4l39EOB2vEKKHDIdTK2cAI98LtiimeZQ5svLnsOzgVps-3Bl3UQzFp36AUGPjLzynJMpApdXs_t-JXn2PO8dvnqtEDyFb8iygiXTgtYScgL3AwPZ0JE3sE_eLBkuEBiSwsX14nGsRvcZEx6bijum2nhF4XI8YVL9rdf09upkWhKtPcCIvL2caTSoTOjJIryicT7UNKE0FmASxRPALQRJArkFoZHQdN0fidvOiwiHMDFtIutbSnc6e-49gUoPnnmIU3_8HmrmSpDB9h-3WZf8vUdi2nMRvLsXYoQPWl1btv04q8RJ0YIEhMcn7lSUa7lVi_XZe1odMjb-f7Rgnhk-CqqIXFFGs4GGhMotvX6wEPoCKkb1t_8X5ZGW6o-VKblqGtSQwOZvzugckZiGNRJ51JzWPG2ewOv9MYA7jrUWs9XgBreLdZ_0G00?></g></svg>