<svg xmlns="http://www.w3.org/2000/svg" xmlns:xlink="http://www.w3.org/1999/xlink" contentStyleType="text/css" data-diagram-type="SEQUENCE" height="792px" preserveAspectRatio="none" style="width:832px;height:792px;background:#FFFFFF;" version="1.1" viewBox="0 0 832 792" width="832px" zoomAndPan="magnify"><?plantuml 1.2026.3?><defs/><g><rect fill="#FEFCFF" height="766.5" style="stroke:#181818;stroke-width:0.5;" width="595.4087" x="20.4204" y="11"/><text fill="#000000" font-family="Helvetica" font-size="10" font-weight="700" x="299.2551" y="20.2822">Device</text><rect fill="#E6E6FA" height="749.8594" style="stroke:#181818;stroke-width:0.5;" width="102.1934" x="513.6357" y="27.6406"/><text fill="#000000" font-family="Helvetica" font-size="10" font-weight="700" x="525.6357" y="36.9229">Prim&#228;rsystem</text><rect fill="#EDFDEC" height="766.5" style="stroke:#181818;stroke-width:0.5;" width="147.7842" x="679.4263" y="11"/><text fill="#000000" font-family="Helvetica" font-size="10" font-weight="700" x="691.4263" y="20.2822">Anbieter TI 2.0 Dienst</text><rect fill="#FFF3E5" height="749.8594" style="stroke:#181818;stroke-width:0.5;" width="147.7842" x="679.4263" y="27.6406"/><text fill="#000000" font-family="Helvetica" font-size="10" font-weight="700" x="720.1738" y="36.9229">ZETA Guard</text><g><title>TPM . SE</title><rect fill="#000000" fill-opacity="0.00000" height="651.6563" width="8" x="49.5" y="81.5625"/><line style="stroke:#000000;stroke-width:0.5;stroke-dasharray:5,5;" x1="53" x2="53" y1="81.5625" y2="733.2188"/></g><g><title/><rect fill="#FFFFFF" height="25.6406" style="stroke:#181818;stroke-width:1;" width="10" x="48" y="251.0469"/></g><g><title/><rect fill="#FFFFFF" height="25.6406" style="stroke:#181818;stroke-width:1;" width="10" x="48" y="302.3281"/></g><g><title/><rect fill="#FFFFFF" height="37.2813" style="stroke:#181818;stroke-width:1;" width="10" x="48" y="494.0938"/></g><g><title>ZAS</title><rect fill="#000000" fill-opacity="0.00000" height="651.6563" width="8" x="294.0967" y="81.5625"/><line style="stroke:#000000;stroke-width:0.5;stroke-dasharray:5,5;" x1="297.5967" x2="297.5967" y1="81.5625" y2="733.2188"/></g><g><title/><rect fill="#FFFFFF" height="643.6563" style="stroke:#181818;stroke-width:1;" width="10" x="292.5967" y="89.5625"/></g><g><title>ZETA Client</title><rect fill="#000000" fill-opacity="0.00000" height="651.6563" width="8" x="561.2324" y="81.5625"/><line style="stroke:#000000;stroke-width:0.5;stroke-dasharray:5,5;" x1="564.7324" x2="564.7324" y1="81.5625" y2="733.2188"/></g><g><title/><rect fill="#FFFFFF" height="643.6563" style="stroke:#181818;stroke-width:1;" width="10" x="559.7324" y="89.5625"/></g><g><title>PDP</title><rect fill="#000000" fill-opacity="0.00000" height="651.6563" width="8" x="749.8184" y="81.5625"/><line style="stroke:#000000;stroke-width:0.5;stroke-dasharray:5,5;" x1="753.3184" x2="753.3184" y1="81.5625" y2="733.2188"/></g><g><title/><rect fill="#FFFFFF" height="25.6406" style="stroke:#181818;stroke-width:1;" width="10" x="748.3184" y="107.2031"/></g><rect fill="#E4E4F4" height="25.6406" rx="2.5" ry="2.5" style="stroke:#181818;stroke-width:0.5;" width="57.1592" x="24.4204" y="54.9219"/><text fill="#000000" font-family="Helvetica" font-size="10" x="31.4204" y="71.2041">TPM / SE</text><rect fill="#FFE6CC" height="25.6406" rx="2.5" ry="2.5" style="stroke:#D79B00;stroke-width:0.5;" width="34.0391" x="280.5771" y="54.9219"/><text fill="#000000" font-family="Helvetica" font-size="10" x="287.5771" y="71.2041">ZAS</text><rect fill="#FFE6CC" height="25.6406" rx="2.5" ry="2.5" style="stroke:#D79B00;stroke-width:0.5;" width="72.2471" x="528.6089" y="54.9219"/><text fill="#000000" font-family="Helvetica" font-size="10" x="535.6089" y="71.2041">ZETA Client</text><rect fill="#FFE6CC" height="37.2813" rx="2.5" ry="2.5" style="stroke:#D79B00;stroke-width:0.5;" width="116.9492" x="694.8438" y="43.2813"/><text fill="#000000" font-family="Helvetica" font-size="10" x="743.438" y="59.5635">PDP</text><text fill="#000000" font-family="Helvetica" font-size="10" x="701.8438" y="71.2041">Authorization Server</text><rect fill="#E4E4F4" height="25.6406" rx="2.5" ry="2.5" style="stroke:#181818;stroke-width:0.5;" width="57.1592" x="24.4204" y="733.2188"/><text fill="#000000" font-family="Helvetica" font-size="10" x="31.4204" y="749.501">TPM / SE</text><rect fill="#FFE6CC" height="25.6406" rx="2.5" ry="2.5" style="stroke:#D79B00;stroke-width:0.5;" width="34.0391" x="280.5771" y="733.2188"/><text fill="#000000" font-family="Helvetica" font-size="10" x="287.5771" y="749.501">ZAS</text><rect fill="#FFE6CC" height="25.6406" rx="2.5" ry="2.5" style="stroke:#D79B00;stroke-width:0.5;" width="72.2471" x="528.6089" y="733.2188"/><text fill="#000000" font-family="Helvetica" font-size="10" x="535.6089" y="749.501">ZETA Client</text><rect fill="#FFE6CC" height="37.2813" rx="2.5" ry="2.5" style="stroke:#D79B00;stroke-width:0.5;" width="116.9492" x="694.8438" y="733.2188"/><text fill="#000000" font-family="Helvetica" font-size="10" x="743.438" y="749.501">PDP</text><text fill="#000000" font-family="Helvetica" font-size="10" x="701.8438" y="761.1416">Authorization Server</text><polygon fill="#181818" points="736.3184,103.2031,746.3184,107.2031,736.3184,111.2031,740.3184,107.2031" style="stroke:#181818;stroke-width:1;"/><line style="stroke:#181818;stroke-width:1;" x1="569.7324" x2="742.3184" y1="107.2031" y2="107.2031"/><text fill="#000000" font-family="Helvetica" font-size="10" x="576.7324" y="102.8447">(01)</text><text fill="#000000" font-family="Helvetica" font-size="10" x="601.2598" y="102.8447">GET /nonce</text><polygon fill="#181818" points="580.7324,128.8438,570.7324,132.8438,580.7324,136.8438,576.7324,132.8438" style="stroke:#181818;stroke-width:1;"/><line style="stroke:#181818;stroke-width:1;stroke-dasharray:2,2;" x1="574.7324" x2="747.3184" y1="132.8438" y2="132.8438"/><text fill="#000000" font-family="Helvetica" font-size="10" x="586.7324" y="128.4854">(02)</text><text fill="#000000" font-family="Helvetica" font-size="10" x="611.2598" y="128.4854">Nonce</text><path d="M13,144.8438 L72.9561,144.8438 L72.9561,148.4844 L62.9561,158.4844 L13,158.4844 L13,144.8438" fill="#EEEEEE" style="stroke:#000000;stroke-width:1.5;"/><rect fill="none" height="564.375" style="stroke:#000000;stroke-width:1.5;" width="756.3184" x="13" y="144.8438"/><text fill="#000000" font-family="Helvetica" font-size="10" font-weight="700" x="28" y="155.126">alt</text><text fill="#000000" font-family="Helvetica" font-size="10" font-weight="700" x="87.9561" y="156.126">[Hardware Attestation (TPM / SE)]</text><line style="stroke:#000000;stroke-width:1;stroke-dasharray:2,2;" x1="13" x2="769.3184" y1="640.2969" y2="640.2969"/><text fill="#000000" font-family="Helvetica" font-size="10" font-weight="700" x="18" y="651.5791">[Software Attestation (Fallback)]</text><polygon fill="#181818" points="313.5967,182.125,303.5967,186.125,313.5967,190.125,309.5967,186.125" style="stroke:#181818;stroke-width:1;"/><line style="stroke:#181818;stroke-width:1;" x1="307.5967" x2="558.7324" y1="186.125" y2="186.125"/><text fill="#000000" font-family="Helvetica" font-size="10" x="319.5967" y="181.7666">(03)</text><text fill="#000000" font-family="Helvetica" font-size="10" x="344.124" y="181.7666">GetEvidence(Nonce)</text><path d="M32,198.125 L91.9561,198.125 L91.9561,201.7656 L81.9561,211.7656 L32,211.7656 L32,198.125" fill="#EEEEEE" style="stroke:#000000;stroke-width:1.5;"/><rect fill="none" height="366.8906" style="stroke:#000000;stroke-width:1.5;" width="548.7324" x="32" y="198.125"/><text fill="#000000" font-family="Helvetica" font-size="10" font-weight="700" x="47" y="208.4072">alt</text><text fill="#000000" font-family="Helvetica" font-size="10" font-weight="700" x="106.9561" y="209.4072">[Windows / Linux (TPM)]</text><line style="stroke:#000000;stroke-width:1;stroke-dasharray:2,2;" x1="32" x2="580.7324" y1="372.6094" y2="372.6094"/><text fill="#000000" font-family="Helvetica" font-size="10" font-weight="700" x="37" y="383.8916">[macOS (Secure Enclave)]</text><polygon fill="#181818" points="69,247.0469,59,251.0469,69,255.0469,65,251.0469" style="stroke:#181818;stroke-width:1;"/><line style="stroke:#181818;stroke-width:1;" x1="63" x2="291.5967" y1="251.0469" y2="251.0469"/><text fill="#000000" font-family="Helvetica" font-size="10" x="75" y="240.8682">(04)</text><text fill="#000000" font-family="Helvetica" font-size="10" x="99.5273" y="235.0479">TPM2_Quote(PCR=[7,23],</text><text fill="#000000" font-family="Helvetica" font-size="10" x="99.5273" y="246.6885">Nonce, Handle_PrK.AK.Sig)</text><polygon fill="#181818" points="280.5967,272.6875,290.5967,276.6875,280.5967,280.6875,284.5967,276.6875" style="stroke:#181818;stroke-width:1;"/><line style="stroke:#181818;stroke-width:1;stroke-dasharray:2,2;" x1="58" x2="286.5967" y1="276.6875" y2="276.6875"/><text fill="#000000" font-family="Helvetica" font-size="10" x="65" y="272.3291">(05)</text><text fill="#000000" font-family="Helvetica" font-size="10" x="89.5273" y="272.3291">tpm_quote (signiert mit PrK.AK.Sig)</text><polygon fill="#181818" points="69,298.3281,59,302.3281,69,306.3281,65,302.3281" style="stroke:#181818;stroke-width:1;"/><line style="stroke:#181818;stroke-width:1;" x1="63" x2="291.5967" y1="302.3281" y2="302.3281"/><text fill="#000000" font-family="Helvetica" font-size="10" x="75" y="297.9697">(06)</text><text fill="#000000" font-family="Helvetica" font-size="10" x="99.5273" y="297.9697">TPM2_GetEventLog()</text><polygon fill="#181818" points="280.5967,323.9688,290.5967,327.9688,280.5967,331.9688,284.5967,327.9688" style="stroke:#181818;stroke-width:1;"/><line style="stroke:#181818;stroke-width:1;stroke-dasharray:2,2;" x1="58" x2="286.5967" y1="327.9688" y2="327.9688"/><text fill="#000000" font-family="Helvetica" font-size="10" x="65" y="323.6104">(07)</text><text fill="#000000" font-family="Helvetica" font-size="10" x="89.5273" y="323.6104">tpm_event_log</text><polygon fill="#181818" points="547.7324,349.6094,557.7324,353.6094,547.7324,357.6094,551.7324,353.6094" style="stroke:#181818;stroke-width:1;"/><line style="stroke:#181818;stroke-width:1;stroke-dasharray:2,2;" x1="302.5967" x2="553.7324" y1="353.6094" y2="353.6094"/><text fill="#000000" font-family="Helvetica" font-size="10" x="309.5967" y="349.251">(08)</text><text fill="#000000" font-family="Helvetica" font-size="10" x="334.124" y="349.251">Evidence {tpm_quote, tpm_event_log}</text><line style="stroke:#181818;stroke-width:1;" x1="302.5967" x2="344.5967" y1="420.5313" y2="420.5313"/><line style="stroke:#181818;stroke-width:1;" x1="344.5967" x2="344.5967" y1="420.5313" y2="433.5313"/><line style="stroke:#181818;stroke-width:1;" x1="303.5967" x2="344.5967" y1="433.5313" y2="433.5313"/><polygon fill="#181818" points="313.5967,429.5313,303.5967,433.5313,313.5967,437.5313,309.5967,433.5313" style="stroke:#181818;stroke-width:1;"/><text fill="#000000" font-family="Helvetica" font-size="10" x="309.5967" y="410.3525">(09)</text><text fill="#000000" font-family="Helvetica" font-size="10" x="334.124" y="404.5322">Ermittle Posture</text><text fill="#000000" font-family="Helvetica" font-size="10" x="334.124" y="416.1729">(SIP, Gatekeeper, OS-Version, Secure Boot)</text><polygon fill="#181818" points="69,490.0938,59,494.0938,69,498.0938,65,494.0938" style="stroke:#181818;stroke-width:1;"/><line style="stroke:#181818;stroke-width:1;" x1="63" x2="291.5967" y1="494.0938" y2="494.0938"/><text fill="#000000" font-family="Helvetica" font-size="10" x="75" y="472.2744">(10)</text><text fill="#000000" font-family="Helvetica" font-size="10" x="99.5273" y="454.8135">DCAppAttest.generateAssertion(</text><text fill="#000000" font-family="Helvetica" font-size="10" x="105.8848" y="466.4541">Handle_PrK.AK.Sig,</text><text fill="#000000" font-family="Helvetica" font-size="10" x="105.8848" y="478.0947">Hash(Nonce + Posture)</text><text fill="#000000" font-family="Helvetica" font-size="10" x="99.5273" y="489.7354">)</text><polygon fill="#181818" points="280.5967,527.375,290.5967,531.375,280.5967,535.375,284.5967,531.375" style="stroke:#181818;stroke-width:1;"/><line style="stroke:#181818;stroke-width:1;stroke-dasharray:2,2;" x1="58" x2="286.5967" y1="531.375" y2="531.375"/><text fill="#000000" font-family="Helvetica" font-size="10" x="65" y="521.1963">(11)</text><text fill="#000000" font-family="Helvetica" font-size="10" x="89.5273" y="515.376">dc_assertion</text><text fill="#000000" font-family="Helvetica" font-size="10" x="89.5273" y="527.0166">(CBOR: Signatur + Receipt + counter)</text><polygon fill="#181818" points="547.7324,553.0156,557.7324,557.0156,547.7324,561.0156,551.7324,557.0156" style="stroke:#181818;stroke-width:1;"/><line style="stroke:#181818;stroke-width:1;stroke-dasharray:2,2;" x1="302.5967" x2="553.7324" y1="557.0156" y2="557.0156"/><text fill="#000000" font-family="Helvetica" font-size="10" x="309.5967" y="552.6572">(12)</text><text fill="#000000" font-family="Helvetica" font-size="10" x="334.124" y="552.6572">Evidence {dc_assertion, posture, counter}</text><line style="stroke:#181818;stroke-width:1;" x1="569.7324" x2="611.7324" y1="608.2969" y2="608.2969"/><line style="stroke:#181818;stroke-width:1;" x1="611.7324" x2="611.7324" y1="608.2969" y2="621.2969"/><line style="stroke:#181818;stroke-width:1;" x1="570.7324" x2="611.7324" y1="621.2969" y2="621.2969"/><polygon fill="#181818" points="580.7324,617.2969,570.7324,621.2969,580.7324,625.2969,576.7324,621.2969" style="stroke:#181818;stroke-width:1;"/><text fill="#000000" font-family="Helvetica" font-size="10" x="576.7324" y="598.1182">(13)</text><text fill="#000000" font-family="Helvetica" font-size="10" x="601.2598" y="592.2979">Generiere client-statement</text><text fill="#000000" font-family="Helvetica" font-size="10" x="601.2598" y="603.9385">(OS und PS Daten, Evidence)</text><line style="stroke:#181818;stroke-width:1;" x1="569.7324" x2="611.7324" y1="688.2188" y2="688.2188"/><line style="stroke:#181818;stroke-width:1;" x1="611.7324" x2="611.7324" y1="688.2188" y2="701.2188"/><line style="stroke:#181818;stroke-width:1;" x1="570.7324" x2="611.7324" y1="701.2188" y2="701.2188"/><polygon fill="#181818" points="580.7324,697.2188,570.7324,701.2188,580.7324,705.2188,576.7324,701.2188" style="stroke:#181818;stroke-width:1;"/><text fill="#000000" font-family="Helvetica" font-size="10" x="576.7324" y="678.04">(14)</text><text fill="#000000" font-family="Helvetica" font-size="10" x="601.2598" y="672.2197">Generiere client-statement</text><text fill="#000000" font-family="Helvetica" font-size="10" x="601.2598" y="683.8604">(OS und PS Daten)</text><?plantuml-src hLJRSjis47tdLspOXqfZoLPbnqazhcSead8qiInML9rfweu69bSIQWfWGD29dSdVz4_oOrdm8kkMjWzza01YTm_EdbqioxKK-V8E5TYDJgTfMzaz5obJR0anpbYUwBuKEkHF23zrzXklsHBX3IOFg7d4rdoyqcSeXSnI5c6yydPbhZYgDTy4nLmldFYlFDCWfC0rMuOVSXGHZd66ocnwBBgVAvcBs9M9LF1kmVLwGBWTy9n3Tm_k4BECpT59-5mGaPcs5Zn6o3G5I_sOecNz23tv2I9pMsQzeEIvG7ZlJvpfvM_Es9kwewlH67xez_l7_ikLmvK_g2sN2vdfakUcTHYChlthIUtdd_Wd_PELJp0U31r_7FuUJlnXxNF57b349D-pr-XcuFdZ5OZNztntPVRycu7hryOPpgBPpAGKC4KLuoaJkaxjFDEF2LvOjJGUPtCZrMSB85rpDzy0Xq-eMRK7sAuAgU6VkcvblI8crRdtwkTUfrESVobnKYKVI7BrVIplfV_QEzd5Ujtj7P-Uhh3CB-4pJ4pU9TZ-Pjc4wINaL8H_iSwFAWsCH9hh165qfnaNu6YDcMQQIm6-uKi2MTQBLB7vae56-GHQvNHqHxrYU_Z08xGtrDzIqPu4GpY2qBU1PM0-zlJ4Linx9pJEDgqsd9-R2bnSa4znPw3uyklVAdkatbtQ-xgdI7mTpqquqb90KZzNtnlGr6m6tghNCZz7t76a9mAJ0NGFE-1HNARjhMQicHNObpbJiRtpRdOuERbUb5a6Nd0hpATK_AbKFaJrWEgV2Lfb5WS75ib4_rMIxOiA-k00pk3Idy0HZHegOddQ9dljsIQ7wy9ciKJ36oB-aIdSw856NRvcaS7p9QP6X8-wxf960LMw6RXtNCJoOqR1r8FvfmAfMJKt5E64GcS5JrgxqrzpgR4HkEDV_dZLwXx_sReL1MQBg8aumMcWtXuwRmz3Fdy6ClpQ5PyY8vqkfnyC4ZGo6dOqWZKikOPzmVjO52bHabTotlYNQz3uJHCvtmHyblXizORWyufNQpEs70-OP0XB5er2Q8GOvLG6NqG9JS4TjhGGhgASpBiDQEQIzwreX8EW1PTCuprYYge5ex1zWogZChQWmkn9gR-RlkSwQLeM_t2E0XLXELb60X94urR0RXrQvMcsAAiF1pMVvgtOArwXNHnDMOrBnDtUQ7m6X2OOXHB662FagQPTH3EDtb_plmYyZjg2jEJHgY4gcKMyrSVbpdGo9KpDWX0L9stp0d19Es98LQ7P2a487XqIUdrhqoeA5ygPtdqwVPOaTpHqc__3bKtpyArl?></g></svg>