<svg xmlns="http://www.w3.org/2000/svg" xmlns:xlink="http://www.w3.org/1999/xlink" contentStyleType="text/css" data-diagram-type="SEQUENCE" height="632px" preserveAspectRatio="none" style="width:1039px;height:632px;background:#FFFFFF;" version="1.1" viewBox="0 0 1039 632" width="1039px" zoomAndPan="magnify"><?plantuml 1.2026.3?><defs/><g><rect fill="#FEFCFF" height="606.6563" style="stroke:#181818;stroke-width:0.5;" width="675.6772" x="16" y="11"/><text fill="#000000" font-family="Helvetica" font-size="10" font-weight="700" x="334.969" y="20.2822">Device</text><rect fill="#E6E6FA" height="590.0156" style="stroke:#181818;stroke-width:0.5;" width="102.1934" x="589.4839" y="27.6406"/><text fill="#000000" font-family="Helvetica" font-size="10" font-weight="700" x="601.4839" y="36.9229">Prim&#228;rsystem</text><rect fill="#EDFDEC" height="606.6563" style="stroke:#181818;stroke-width:0.5;" width="147.7842" x="885.8994" y="11"/><text fill="#000000" font-family="Helvetica" font-size="10" font-weight="700" x="897.8994" y="20.2822">Anbieter TI 2.0 Dienst</text><rect fill="#FFF3E5" height="590.0156" style="stroke:#181818;stroke-width:0.5;" width="147.7842" x="885.8994" y="27.6406"/><text fill="#000000" font-family="Helvetica" font-size="10" font-weight="700" x="926.647" y="36.9229">ZETA Guard</text><g><title>Secure Enclave</title><rect fill="#000000" fill-opacity="0.00000" height="491.8125" width="8" x="61.9546" y="81.5625"/><line style="stroke:#000000;stroke-width:0.5;stroke-dasharray:5,5;" x1="65.4546" x2="65.4546" y1="81.5625" y2="573.375"/></g><g><title/><rect fill="#FFFFFF" height="483.8125" style="stroke:#181818;stroke-width:1;" width="10" x="60.4546" y="89.5625"/></g><g><title>OS .macOS.</title><rect fill="#000000" fill-opacity="0.00000" height="491.8125" width="8" x="361.522" y="81.5625"/><line style="stroke:#000000;stroke-width:0.5;stroke-dasharray:5,5;" x1="365.022" x2="365.022" y1="81.5625" y2="573.375"/></g><g><title/><rect fill="#FFFFFF" height="483.8125" style="stroke:#181818;stroke-width:1;" width="10" x="360.022" y="89.5625"/></g><g><title>ZETA Client</title><rect fill="#000000" fill-opacity="0.00000" height="491.8125" width="8" x="637.0806" y="81.5625"/><line style="stroke:#000000;stroke-width:0.5;stroke-dasharray:5,5;" x1="640.5806" x2="640.5806" y1="81.5625" y2="573.375"/></g><g><title/><rect fill="#FFFFFF" height="483.8125" style="stroke:#181818;stroke-width:1;" width="10" x="635.5806" y="89.5625"/></g><g><title>PDP</title><rect fill="#000000" fill-opacity="0.00000" height="491.8125" width="8" x="956.2915" y="81.5625"/><line style="stroke:#000000;stroke-width:0.5;stroke-dasharray:5,5;" x1="959.7915" x2="959.7915" y1="81.5625" y2="573.375"/></g><g><title/><rect fill="#FFFFFF" height="25.6406" style="stroke:#181818;stroke-width:1;" width="10" x="954.7915" y="107.2031"/></g><rect fill="#E4E4F4" height="25.6406" rx="2.5" ry="2.5" style="stroke:#181818;stroke-width:0.5;" width="90.9092" x="20" y="54.9219"/><text fill="#000000" font-family="Helvetica" font-size="10" x="27" y="71.2041">Secure Enclave</text><rect fill="#FFE6CC" height="25.6406" rx="2.5" ry="2.5" style="stroke:#D79B00;stroke-width:0.5;" width="74.7861" x="327.6289" y="54.9219"/><text fill="#000000" font-family="Helvetica" font-size="10" x="334.6289" y="71.2041">OS (macOS)</text><rect fill="#FFE6CC" height="25.6406" rx="2.5" ry="2.5" style="stroke:#D79B00;stroke-width:0.5;" width="72.2471" x="604.457" y="54.9219"/><text fill="#000000" font-family="Helvetica" font-size="10" x="611.457" y="71.2041">ZETA Client</text><rect fill="#FFE6CC" height="37.2813" rx="2.5" ry="2.5" style="stroke:#D79B00;stroke-width:0.5;" width="116.9492" x="901.3169" y="43.2813"/><text fill="#000000" font-family="Helvetica" font-size="10" x="949.9111" y="59.5635">PDP</text><text fill="#000000" font-family="Helvetica" font-size="10" x="908.3169" y="71.2041">Authorization Server</text><rect fill="#E4E4F4" height="25.6406" rx="2.5" ry="2.5" style="stroke:#181818;stroke-width:0.5;" width="90.9092" x="20" y="573.375"/><text fill="#000000" font-family="Helvetica" font-size="10" x="27" y="589.6572">Secure Enclave</text><rect fill="#FFE6CC" height="25.6406" rx="2.5" ry="2.5" style="stroke:#D79B00;stroke-width:0.5;" width="74.7861" x="327.6289" y="573.375"/><text fill="#000000" font-family="Helvetica" font-size="10" x="334.6289" y="589.6572">OS (macOS)</text><rect fill="#FFE6CC" height="25.6406" rx="2.5" ry="2.5" style="stroke:#D79B00;stroke-width:0.5;" width="72.2471" x="604.457" y="573.375"/><text fill="#000000" font-family="Helvetica" font-size="10" x="611.457" y="589.6572">ZETA Client</text><rect fill="#FFE6CC" height="37.2813" rx="2.5" ry="2.5" style="stroke:#D79B00;stroke-width:0.5;" width="116.9492" x="901.3169" y="573.375"/><text fill="#000000" font-family="Helvetica" font-size="10" x="949.9111" y="589.6572">PDP</text><text fill="#000000" font-family="Helvetica" font-size="10" x="908.3169" y="601.2979">Authorization Server</text><polygon fill="#181818" points="942.7915,103.2031,952.7915,107.2031,942.7915,111.2031,946.7915,107.2031" style="stroke:#181818;stroke-width:1;"/><line style="stroke:#181818;stroke-width:1;" x1="645.5806" x2="948.7915" y1="107.2031" y2="107.2031"/><text fill="#000000" font-family="Helvetica" font-size="10" x="652.5806" y="102.8447">(01)</text><text fill="#000000" font-family="Helvetica" font-size="10" x="677.1079" y="102.8447">GET /nonce</text><polygon fill="#181818" points="656.5806,128.8438,646.5806,132.8438,656.5806,136.8438,652.5806,132.8438" style="stroke:#181818;stroke-width:1;"/><line style="stroke:#181818;stroke-width:1;stroke-dasharray:2,2;" x1="650.5806" x2="953.7915" y1="132.8438" y2="132.8438"/><text fill="#000000" font-family="Helvetica" font-size="10" x="662.5806" y="128.4854">(02)</text><text fill="#000000" font-family="Helvetica" font-size="10" x="687.1079" y="128.4854">Nonce</text><path d="M49.4546,144.8438 L109.4106,144.8438 L109.4106,148.4844 L99.4106,158.4844 L49.4546,158.4844 L49.4546,144.8438" fill="#EEEEEE" style="stroke:#000000;stroke-width:1.5;"/><rect fill="none" height="404.5313" style="stroke:#000000;stroke-width:1.5;" width="926.3369" x="49.4546" y="144.8438"/><text fill="#000000" font-family="Helvetica" font-size="10" font-weight="700" x="64.4546" y="155.126">alt</text><text fill="#000000" font-family="Helvetica" font-size="10" font-weight="700" x="124.4106" y="156.126">[Apple AppAttest Attestation]</text><line style="stroke:#000000;stroke-width:1;stroke-dasharray:2,2;" x1="49.4546" x2="975.7915" y1="480.4531" y2="480.4531"/><text fill="#000000" font-family="Helvetica" font-size="10" font-weight="700" x="54.4546" y="491.7354">[Software Attestation (Fallback)]</text><polygon fill="#181818" points="381.022,193.7656,371.022,197.7656,381.022,201.7656,377.022,197.7656" style="stroke:#181818;stroke-width:1;"/><line style="stroke:#181818;stroke-width:1;" x1="375.022" x2="634.5806" y1="197.7656" y2="197.7656"/><text fill="#000000" font-family="Helvetica" font-size="10" x="387.022" y="187.5869">(03)</text><text fill="#000000" font-family="Helvetica" font-size="10" x="411.5493" y="181.7666">Ermittle Posture</text><text fill="#000000" font-family="Helvetica" font-size="10" x="411.5493" y="193.4072">(SIP, Gatekeeper, OS-Version, Secure Boot)</text><polygon fill="#181818" points="623.5806,219.4063,633.5806,223.4063,623.5806,227.4063,627.5806,223.4063" style="stroke:#181818;stroke-width:1;"/><line style="stroke:#181818;stroke-width:1;stroke-dasharray:2,2;" x1="370.022" x2="629.5806" y1="223.4063" y2="223.4063"/><text fill="#000000" font-family="Helvetica" font-size="10" x="377.022" y="219.0479">(04)</text><text fill="#000000" font-family="Helvetica" font-size="10" x="401.5493" y="219.0479">Posture-Daten (Klartext)</text><line style="stroke:#181818;stroke-width:1;" x1="645.5806" x2="687.5806" y1="249.0469" y2="249.0469"/><line style="stroke:#181818;stroke-width:1;" x1="687.5806" x2="687.5806" y1="249.0469" y2="262.0469"/><line style="stroke:#181818;stroke-width:1;" x1="646.5806" x2="687.5806" y1="262.0469" y2="262.0469"/><polygon fill="#181818" points="656.5806,258.0469,646.5806,262.0469,656.5806,266.0469,652.5806,262.0469" style="stroke:#181818;stroke-width:1;"/><text fill="#000000" font-family="Helvetica" font-size="10" x="652.5806" y="244.6885">(05)</text><text fill="#000000" font-family="Helvetica" font-size="10" x="677.1079" y="244.6885">clientDataHash = Hash(Nonce + Posture-Daten)</text><polygon fill="#181818" points="381.022,318.6094,371.022,322.6094,381.022,326.6094,377.022,322.6094" style="stroke:#181818;stroke-width:1;"/><line style="stroke:#181818;stroke-width:1;" x1="375.022" x2="634.5806" y1="322.6094" y2="322.6094"/><text fill="#000000" font-family="Helvetica" font-size="10" x="387.022" y="300.79">(06)</text><text fill="#000000" font-family="Helvetica" font-size="10" x="411.5493" y="283.3291">DCAppAttest.generateAssertion(</text><text fill="#000000" font-family="Helvetica" font-size="10" x="417.9067" y="294.9697">keyId: Handle_PrK.AK.Sig,</text><text fill="#000000" font-family="Helvetica" font-size="10" x="417.9067" y="306.6104">clientDataHash</text><text fill="#000000" font-family="Helvetica" font-size="10" x="411.5493" y="318.251">)</text><polygon fill="#181818" points="81.4546,344.25,71.4546,348.25,81.4546,352.25,77.4546,348.25" style="stroke:#181818;stroke-width:1;"/><line style="stroke:#181818;stroke-width:1;" x1="75.4546" x2="359.022" y1="348.25" y2="348.25"/><text fill="#000000" font-family="Helvetica" font-size="10" x="87.4546" y="343.8916">(07)</text><text fill="#000000" font-family="Helvetica" font-size="10" x="111.9819" y="343.8916">Erstelle Hardware-Signatur &#252;ber clientDataHash</text><polygon fill="#181818" points="348.022,369.8906,358.022,373.8906,348.022,377.8906,352.022,373.8906" style="stroke:#181818;stroke-width:1;"/><line style="stroke:#181818;stroke-width:1;stroke-dasharray:2,2;" x1="70.4546" x2="354.022" y1="373.8906" y2="373.8906"/><text fill="#000000" font-family="Helvetica" font-size="10" x="77.4546" y="369.5322">(08)</text><text fill="#000000" font-family="Helvetica" font-size="10" x="101.9819" y="369.5322">Signatur + Authenticator Data (Counter)</text><polygon fill="#181818" points="623.5806,407.1719,633.5806,411.1719,623.5806,415.1719,627.5806,411.1719" style="stroke:#181818;stroke-width:1;"/><line style="stroke:#181818;stroke-width:1;stroke-dasharray:2,2;" x1="370.022" x2="629.5806" y1="411.1719" y2="411.1719"/><text fill="#000000" font-family="Helvetica" font-size="10" x="377.022" y="400.9932">(09)</text><text fill="#000000" font-family="Helvetica" font-size="10" x="401.5493" y="395.1729">dc_assertion</text><text fill="#000000" font-family="Helvetica" font-size="10" x="401.5493" y="406.8135">(CBOR: Signatur + authenticatorData)</text><line style="stroke:#181818;stroke-width:1;" x1="645.5806" x2="687.5806" y1="448.4531" y2="448.4531"/><line style="stroke:#181818;stroke-width:1;" x1="687.5806" x2="687.5806" y1="448.4531" y2="461.4531"/><line style="stroke:#181818;stroke-width:1;" x1="646.5806" x2="687.5806" y1="461.4531" y2="461.4531"/><polygon fill="#181818" points="656.5806,457.4531,646.5806,461.4531,656.5806,465.4531,652.5806,461.4531" style="stroke:#181818;stroke-width:1;"/><text fill="#000000" font-family="Helvetica" font-size="10" x="652.5806" y="438.2744">(10)</text><text fill="#000000" font-family="Helvetica" font-size="10" x="677.1079" y="432.4541">Generiere client-statement</text><text fill="#000000" font-family="Helvetica" font-size="10" x="677.1079" y="444.0947">(Evidence = dc_assertion + Posture-Daten im Klartext)</text><line style="stroke:#181818;stroke-width:1;" x1="645.5806" x2="687.5806" y1="528.375" y2="528.375"/><line style="stroke:#181818;stroke-width:1;" x1="687.5806" x2="687.5806" y1="528.375" y2="541.375"/><line style="stroke:#181818;stroke-width:1;" x1="646.5806" x2="687.5806" y1="541.375" y2="541.375"/><polygon fill="#181818" points="656.5806,537.375,646.5806,541.375,656.5806,545.375,652.5806,541.375" style="stroke:#181818;stroke-width:1;"/><text fill="#000000" font-family="Helvetica" font-size="10" x="652.5806" y="518.1963">(11)</text><text fill="#000000" font-family="Helvetica" font-size="10" x="677.1079" y="512.376">Generiere client-statement</text><text fill="#000000" font-family="Helvetica" font-size="10" x="677.1079" y="524.0166">(OS und PS Daten ungesichert)</text><?plantuml-src dLHDRvj04BtpAoPSYcL3gXwjr18nr47v07dTIAqiMMkOEgl0WfR5TV9x-ZDwon_hB1Z7RjCUUja5zisRDpDlEHCopPiCmVFEgwR8tPm_bOtsz4vRblKEjD0vGhpMN4ZmjSPQSorA2U5MP2XJjAopIl5DmK5Z-GnQDVHfNUx03d0hKhGX2E-ZQRYQnZVnt0AekD8Y5HMN6co6QQCGGXB1juJbDR0GRiA8uBT9V1VUBTuCZ9c1shGv1KzZDh3Xuk8PDPzC2DccJvGeNdwe-gdMMDYGpADRFvopBsmHtXuuJrcdkK3Q3FFNSE7ltq-eKMQ6tkhthbHVhWLgLB28u8Ft7WAAgxL96jz7GJW_v6lHBVUiuIgpmJolPf_zUV0NJNwZ7xfYao1PIlDQAl7S3O6XsgBwjq2hgs8uj6962mjfsHVgJlRqmo6COHOku5oMPgRTLvVEUwHBWBlspE8vgQegiWMjdIMEdK4QNkbZDePG5K8R5oLbhMdQI-cmA1d1Z6jyHAnGZGZdtgEgANm4UqzSbgKU45byB6JSaxW1HKjmhdFg5UvQv6lQ7fosEq7v5QyVu2EOpMdhWE4frU0FtS7qK9-tGOcAO7vTep9LEai9y8XFKJOcKfdbk4hKjUTVUqniHkRmDFTIzhLCoE6cAMJBd9foHJRupaa5nKbEUk3bvvgST1fEiNGltBso0tJOpezm8kMwL63Wu4pBHf8PtsXUbgvuNm6DONePpq_O-36R8NkxhJFJ3O4qf4wbQqQF1JqHQVzZe6uVf_kzto0AU1qUvZK2AxzfqugJ_uppYUVvcgUF_o65gc_e6YGCkfIDt60jqWTID30NnFe5?></g></svg>