<svg xmlns="http://www.w3.org/2000/svg" xmlns:xlink="http://www.w3.org/1999/xlink" contentStyleType="text/css" data-diagram-type="SEQUENCE" height="547px" preserveAspectRatio="none" style="width:796px;height:547px;background:#FFFFFF;" version="1.1" viewBox="0 0 796 547" width="796px" zoomAndPan="magnify"><?plantuml 1.2026.3?><defs/><g><rect fill="#FEFCFF" height="521.4531" style="stroke:#181818;stroke-width:0.5;" width="563.3481" x="16" y="11"/><text fill="#000000" font-family="Helvetica" font-size="10" font-weight="700" x="278.8044" y="20.2822">Device</text><rect fill="#E6E6FA" height="504.8125" style="stroke:#181818;stroke-width:0.5;" width="102.1934" x="477.1548" y="27.6406"/><text fill="#000000" font-family="Helvetica" font-size="10" font-weight="700" x="489.1548" y="36.9229">Prim&#228;rsystem</text><rect fill="#EDFDEC" height="521.4531" style="stroke:#181818;stroke-width:0.5;" width="147.7842" x="642.9453" y="11"/><text fill="#000000" font-family="Helvetica" font-size="10" font-weight="700" x="654.9453" y="20.2822">Anbieter TI 2.0 Dienst</text><rect fill="#FFF3E5" height="504.8125" style="stroke:#181818;stroke-width:0.5;" width="147.7842" x="642.9453" y="27.6406"/><text fill="#000000" font-family="Helvetica" font-size="10" font-weight="700" x="683.6929" y="36.9229">ZETA Guard</text><g><title>TPM . SE</title><rect fill="#000000" fill-opacity="0.00000" height="406.6094" width="8" x="45.0796" y="81.5625"/><line style="stroke:#000000;stroke-width:0.5;stroke-dasharray:5,5;" x1="48.5796" x2="48.5796" y1="81.5625" y2="488.1719"/></g><g><title/><rect fill="#FFFFFF" height="25.6406" style="stroke:#181818;stroke-width:1;" width="10" x="43.5796" y="223.4063"/></g><g><title/><rect fill="#FFFFFF" height="25.6406" style="stroke:#181818;stroke-width:1;" width="10" x="43.5796" y="274.6875"/></g><g><title>ZAS</title><rect fill="#000000" fill-opacity="0.00000" height="406.6094" width="8" x="275.8384" y="81.5625"/><line style="stroke:#000000;stroke-width:0.5;stroke-dasharray:5,5;" x1="279.3384" x2="279.3384" y1="81.5625" y2="488.1719"/></g><g><title/><rect fill="#FFFFFF" height="398.6094" style="stroke:#181818;stroke-width:1;" width="10" x="274.3384" y="89.5625"/></g><g><title>ZETA Client</title><rect fill="#000000" fill-opacity="0.00000" height="406.6094" width="8" x="524.7515" y="81.5625"/><line style="stroke:#000000;stroke-width:0.5;stroke-dasharray:5,5;" x1="528.2515" x2="528.2515" y1="81.5625" y2="488.1719"/></g><g><title/><rect fill="#FFFFFF" height="398.6094" style="stroke:#181818;stroke-width:1;" width="10" x="523.2515" y="89.5625"/></g><g><title>PDP</title><rect fill="#000000" fill-opacity="0.00000" height="406.6094" width="8" x="713.3374" y="81.5625"/><line style="stroke:#000000;stroke-width:0.5;stroke-dasharray:5,5;" x1="716.8374" x2="716.8374" y1="81.5625" y2="488.1719"/></g><g><title/><rect fill="#FFFFFF" height="25.6406" style="stroke:#181818;stroke-width:1;" width="10" x="711.8374" y="107.2031"/></g><rect fill="#E4E4F4" height="25.6406" rx="2.5" ry="2.5" style="stroke:#181818;stroke-width:0.5;" width="57.1592" x="20" y="54.9219"/><text fill="#000000" font-family="Helvetica" font-size="10" x="27" y="71.2041">TPM / SE</text><rect fill="#FFE6CC" height="25.6406" rx="2.5" ry="2.5" style="stroke:#D79B00;stroke-width:0.5;" width="34.0391" x="262.3188" y="54.9219"/><text fill="#000000" font-family="Helvetica" font-size="10" x="269.3188" y="71.2041">ZAS</text><rect fill="#FFE6CC" height="25.6406" rx="2.5" ry="2.5" style="stroke:#D79B00;stroke-width:0.5;" width="72.2471" x="492.1279" y="54.9219"/><text fill="#000000" font-family="Helvetica" font-size="10" x="499.1279" y="71.2041">ZETA Client</text><rect fill="#FFE6CC" height="37.2813" rx="2.5" ry="2.5" style="stroke:#D79B00;stroke-width:0.5;" width="116.9492" x="658.3628" y="43.2813"/><text fill="#000000" font-family="Helvetica" font-size="10" x="706.957" y="59.5635">PDP</text><text fill="#000000" font-family="Helvetica" font-size="10" x="665.3628" y="71.2041">Authorization Server</text><rect fill="#E4E4F4" height="25.6406" rx="2.5" ry="2.5" style="stroke:#181818;stroke-width:0.5;" width="57.1592" x="20" y="488.1719"/><text fill="#000000" font-family="Helvetica" font-size="10" x="27" y="504.4541">TPM / SE</text><rect fill="#FFE6CC" height="25.6406" rx="2.5" ry="2.5" style="stroke:#D79B00;stroke-width:0.5;" width="34.0391" x="262.3188" y="488.1719"/><text fill="#000000" font-family="Helvetica" font-size="10" x="269.3188" y="504.4541">ZAS</text><rect fill="#FFE6CC" height="25.6406" rx="2.5" ry="2.5" style="stroke:#D79B00;stroke-width:0.5;" width="72.2471" x="492.1279" y="488.1719"/><text fill="#000000" font-family="Helvetica" font-size="10" x="499.1279" y="504.4541">ZETA Client</text><rect fill="#FFE6CC" height="37.2813" rx="2.5" ry="2.5" style="stroke:#D79B00;stroke-width:0.5;" width="116.9492" x="658.3628" y="488.1719"/><text fill="#000000" font-family="Helvetica" font-size="10" x="706.957" y="504.4541">PDP</text><text fill="#000000" font-family="Helvetica" font-size="10" x="665.3628" y="516.0947">Authorization Server</text><polygon fill="#181818" points="699.8374,103.2031,709.8374,107.2031,699.8374,111.2031,703.8374,107.2031" style="stroke:#181818;stroke-width:1;"/><line style="stroke:#181818;stroke-width:1;" x1="533.2515" x2="705.8374" y1="107.2031" y2="107.2031"/><text fill="#000000" font-family="Helvetica" font-size="10" x="540.2515" y="102.8447">(01)</text><text fill="#000000" font-family="Helvetica" font-size="10" x="564.7788" y="102.8447">GET /nonce</text><polygon fill="#181818" points="544.2515,128.8438,534.2515,132.8438,544.2515,136.8438,540.2515,132.8438" style="stroke:#181818;stroke-width:1;"/><line style="stroke:#181818;stroke-width:1;stroke-dasharray:2,2;" x1="538.2515" x2="710.8374" y1="132.8438" y2="132.8438"/><text fill="#000000" font-family="Helvetica" font-size="10" x="550.2515" y="128.4854">(02)</text><text fill="#000000" font-family="Helvetica" font-size="10" x="574.7788" y="128.4854">Nonce</text><path d="M27.5796,144.8438 L87.5356,144.8438 L87.5356,148.4844 L77.5356,158.4844 L27.5796,158.4844 L27.5796,144.8438" fill="#EEEEEE" style="stroke:#000000;stroke-width:1.5;"/><rect fill="none" height="319.3281" style="stroke:#000000;stroke-width:1.5;" width="705.2578" x="27.5796" y="144.8438"/><text fill="#000000" font-family="Helvetica" font-size="10" font-weight="700" x="42.5796" y="155.126">alt</text><text fill="#000000" font-family="Helvetica" font-size="10" font-weight="700" x="102.5356" y="156.126">[TPM Attestation]</text><line style="stroke:#000000;stroke-width:1;stroke-dasharray:2,2;" x1="27.5796" x2="732.8374" y1="395.25" y2="395.25"/><text fill="#000000" font-family="Helvetica" font-size="10" font-weight="700" x="32.5796" y="406.5322">[Software Attestation (Fallback)]</text><polygon fill="#181818" points="295.3384,182.125,285.3384,186.125,295.3384,190.125,291.3384,186.125" style="stroke:#181818;stroke-width:1;"/><line style="stroke:#181818;stroke-width:1;" x1="289.3384" x2="522.2515" y1="186.125" y2="186.125"/><text fill="#000000" font-family="Helvetica" font-size="10" x="301.3384" y="181.7666">(03)</text><text fill="#000000" font-family="Helvetica" font-size="10" x="325.8657" y="181.7666">GetEvidence(Nonce)</text><polygon fill="#181818" points="64.5796,219.4063,54.5796,223.4063,64.5796,227.4063,60.5796,223.4063" style="stroke:#181818;stroke-width:1;"/><line style="stroke:#181818;stroke-width:1;" x1="58.5796" x2="273.3384" y1="223.4063" y2="223.4063"/><text fill="#000000" font-family="Helvetica" font-size="10" x="70.5796" y="213.2275">(04)</text><text fill="#000000" font-family="Helvetica" font-size="10" x="95.1069" y="207.4072">TPM2_Quote(PCR=[7,23],</text><text fill="#000000" font-family="Helvetica" font-size="10" x="95.1069" y="219.0479">Nonce, Handle_PrK.AK.Sig)</text><polygon fill="#181818" points="262.3384,245.0469,272.3384,249.0469,262.3384,253.0469,266.3384,249.0469" style="stroke:#181818;stroke-width:1;"/><line style="stroke:#181818;stroke-width:1;stroke-dasharray:2,2;" x1="53.5796" x2="268.3384" y1="249.0469" y2="249.0469"/><text fill="#000000" font-family="Helvetica" font-size="10" x="60.5796" y="244.6885">(05)</text><text fill="#000000" font-family="Helvetica" font-size="10" x="85.1069" y="244.6885">tpm_quote (signiert mit PrK.AK.Sig)</text><polygon fill="#181818" points="64.5796,270.6875,54.5796,274.6875,64.5796,278.6875,60.5796,274.6875" style="stroke:#181818;stroke-width:1;"/><line style="stroke:#181818;stroke-width:1;" x1="58.5796" x2="273.3384" y1="274.6875" y2="274.6875"/><text fill="#000000" font-family="Helvetica" font-size="10" x="70.5796" y="270.3291">(06)</text><text fill="#000000" font-family="Helvetica" font-size="10" x="95.1069" y="270.3291">TPM2_GetEventLog()</text><polygon fill="#181818" points="262.3384,296.3281,272.3384,300.3281,262.3384,304.3281,266.3384,300.3281" style="stroke:#181818;stroke-width:1;"/><line style="stroke:#181818;stroke-width:1;stroke-dasharray:2,2;" x1="53.5796" x2="268.3384" y1="300.3281" y2="300.3281"/><text fill="#000000" font-family="Helvetica" font-size="10" x="60.5796" y="295.9697">(07)</text><text fill="#000000" font-family="Helvetica" font-size="10" x="85.1069" y="295.9697">tpm_event_log</text><polygon fill="#181818" points="511.2515,321.9688,521.2515,325.9688,511.2515,329.9688,515.2515,325.9688" style="stroke:#181818;stroke-width:1;"/><line style="stroke:#181818;stroke-width:1;stroke-dasharray:2,2;" x1="284.3384" x2="517.2515" y1="325.9688" y2="325.9688"/><text fill="#000000" font-family="Helvetica" font-size="10" x="291.3384" y="321.6104">(08)</text><text fill="#000000" font-family="Helvetica" font-size="10" x="315.8657" y="321.6104">Evidence {tpm_quote, tpm_event_log}</text><line style="stroke:#181818;stroke-width:1;" x1="533.2515" x2="575.2515" y1="363.25" y2="363.25"/><line style="stroke:#181818;stroke-width:1;" x1="575.2515" x2="575.2515" y1="363.25" y2="376.25"/><line style="stroke:#181818;stroke-width:1;" x1="534.2515" x2="575.2515" y1="376.25" y2="376.25"/><polygon fill="#181818" points="544.2515,372.25,534.2515,376.25,544.2515,380.25,540.2515,376.25" style="stroke:#181818;stroke-width:1;"/><text fill="#000000" font-family="Helvetica" font-size="10" x="540.2515" y="353.0713">(09)</text><text fill="#000000" font-family="Helvetica" font-size="10" x="564.7788" y="347.251">Generiere client-statement</text><text fill="#000000" font-family="Helvetica" font-size="10" x="564.7788" y="358.8916">(OS und PS Daten, Evidence)</text><line style="stroke:#181818;stroke-width:1;" x1="533.2515" x2="575.2515" y1="443.1719" y2="443.1719"/><line style="stroke:#181818;stroke-width:1;" x1="575.2515" x2="575.2515" y1="443.1719" y2="456.1719"/><line style="stroke:#181818;stroke-width:1;" x1="534.2515" x2="575.2515" y1="456.1719" y2="456.1719"/><polygon fill="#181818" points="544.2515,452.1719,534.2515,456.1719,544.2515,460.1719,540.2515,456.1719" style="stroke:#181818;stroke-width:1;"/><text fill="#000000" font-family="Helvetica" font-size="10" x="540.2515" y="432.9932">(10)</text><text fill="#000000" font-family="Helvetica" font-size="10" x="564.7788" y="427.1729">Generiere client-statement</text><text fill="#000000" font-family="Helvetica" font-size="10" x="564.7788" y="438.8135">(OS und PS Daten)</text><?plantuml-src fLFDRjD04BxlKqnzmL7Y18L3fQf4ic8JeYQniKqb8CZQE4DOOQ_3UXpQ8Dw6D-75sBMJj95QBbmyExFVVD_yh2-4pF9wZT3l3xPraJivlozhwjCTCSPU00dA4O8LSI719SAAE8bIWhyJQvGPCdQnLNnJS20izq2grg5LUGUMXpkHeGMUVpiT--auc0KH0zXoHI8JMou9h2ISmm1Ytm9UWN5c_bGZvs6my1V9apaVtTY0BMqjkBxU8_7HI6CQpL29uizlLTrNX8K5OJITktuKVuWJVtvYE-SRvmArQIZzn3tuPzGeruQU7MtRdojN0WaL95COzb-2f_CgCgB1xTJpevDUWswu9pLNQmlCEPsyToFlcPhSchwsNOPUk9J6BPNOjvEFKUrG_Rj0rdRHxJ8z9lqzDEcC3jJTBbp1n4zW84kpn3RgwFiZqj60HNF7U4xDRXwjNsi-K9gDQ3QauvkmcyIE1fahZT3PZQAsm_HTNHBQuJXw_UcoDtprkRUK3Ru7RxbSvvY6wgRltlHZiJ4KHjavg3HLqRP8lniEi2knaG8LGI48pjEUKcvAr4NFoetzB3KQH9gNcoF9mr2kJgyUVfwgw9rd_JeRJNiomv6eTAK8MHDnp1onqAUbj8COQhsuC0PF1sNlfD9Xc5S8SVc5Vd2T-_Z_iz_mF5_nx5ldlmKxvjsmlm00?></g></svg>