<?plantuml 1.2026.2?><svg xmlns="http://www.w3.org/2000/svg" xmlns:xlink="http://www.w3.org/1999/xlink" contentStyleType="text/css" data-diagram-type="SEQUENCE" height="719px" preserveAspectRatio="none" style="width:667px;height:719px;background:#FFFFFF;" version="1.1" viewBox="0 0 667 719" width="667px" zoomAndPan="magnify"><defs/><g><rect fill="#F8F8FF" height="707.6563" style="stroke:#181818;stroke-width:0.5;" width="102.1934" x="11" y="6"/><text fill="#000000" font-family="Helvetica" font-size="10" font-weight="bold" x="53.6348" y="15.2822">LEI</text><rect fill="#E6E6FA" height="691.0156" style="stroke:#181818;stroke-width:0.5;" width="102.1934" x="11" y="22.6406"/><text fill="#000000" font-family="Helvetica" font-size="10" font-weight="bold" x="23" y="31.9229">Prim&#228;rsystem</text><rect fill="#EDFDEC" height="707.6563" style="stroke:#181818;stroke-width:0.5;" width="374.2578" x="287.71" y="6"/><text fill="#000000" font-family="Helvetica" font-size="10" font-weight="bold" x="412.9468" y="15.2822">Anbieter TI 2.0 Dienst</text><rect fill="#FFF3E5" height="691.0156" style="stroke:#181818;stroke-width:0.5;" width="374.2578" x="287.71" y="22.6406"/><text fill="#000000" font-family="Helvetica" font-size="10" font-weight="bold" x="441.6943" y="31.9229">ZETA Guard</text><g><title>ZETA Client</title><rect fill="#000000" fill-opacity="0.00000" height="592.8125" width="8" x="58.5967" y="76.5625"/><line style="stroke:#000000;stroke-width:0.5;stroke-dasharray:5,5;" x1="62.0967" x2="62.0967" y1="76.5625" y2="669.375"/></g><g><title/><rect fill="#FFFFFF" height="584.8125" style="stroke:#181818;stroke-width:1;" width="10" x="57.0967" y="84.5625"/></g><g><title>PDP</title><rect fill="#000000" fill-opacity="0.00000" height="592.8125" width="8" x="346.6846" y="76.5625"/><line style="stroke:#000000;stroke-width:0.5;stroke-dasharray:5,5;" x1="350.1846" x2="350.1846" y1="76.5625" y2="669.375"/></g><g><title/><rect fill="#FFFFFF" height="365.3281" style="stroke:#181818;stroke-width:1;" width="10" x="345.1846" y="202.7656"/></g><g><title>PDP</title><rect fill="#000000" fill-opacity="0.00000" height="592.8125" width="8" x="614.1816" y="76.5625"/><line style="stroke:#000000;stroke-width:0.5;stroke-dasharray:5,5;" x1="617.6816" x2="617.6816" y1="76.5625" y2="669.375"/></g><g><title/><rect fill="#FFFFFF" height="25.6406" style="stroke:#181818;stroke-width:1;" width="10" x="612.6816" y="422.25"/></g><rect fill="#FFE6CC" height="25.6406" rx="2.5" ry="2.5" style="stroke:#D79B00;stroke-width:0.5;" width="72.2471" x="25.9731" y="49.9219"/><text fill="#000000" font-family="Helvetica" font-size="10" x="32.9731" y="66.2041">ZETA Client</text><rect fill="#FFE6CC" height="37.2813" rx="2.5" ry="2.5" style="stroke:#D79B00;stroke-width:0.5;" width="116.9492" x="291.71" y="38.2813"/><text fill="#000000" font-family="Helvetica" font-size="10" x="340.3042" y="54.5635">PDP</text><text fill="#000000" font-family="Helvetica" font-size="10" x="298.71" y="66.2041">Authorization Server</text><rect fill="#FFE6CC" height="37.2813" rx="2.5" ry="2.5" style="stroke:#D79B00;stroke-width:0.5;" width="80.5723" x="577.3955" y="38.2813"/><text fill="#000000" font-family="Helvetica" font-size="10" x="607.8013" y="54.5635">PDP</text><text fill="#000000" font-family="Helvetica" font-size="10" x="584.3955" y="66.2041">Policy Engine</text><rect fill="#FFE6CC" height="25.6406" rx="2.5" ry="2.5" style="stroke:#D79B00;stroke-width:0.5;" width="72.2471" x="25.9731" y="669.375"/><text fill="#000000" font-family="Helvetica" font-size="10" x="32.9731" y="685.6572">ZETA Client</text><rect fill="#FFE6CC" height="37.2813" rx="2.5" ry="2.5" style="stroke:#D79B00;stroke-width:0.5;" width="116.9492" x="291.71" y="669.375"/><text fill="#000000" font-family="Helvetica" font-size="10" x="340.3042" y="685.6572">PDP</text><text fill="#000000" font-family="Helvetica" font-size="10" x="298.71" y="697.2979">Authorization Server</text><rect fill="#FFE6CC" height="37.2813" rx="2.5" ry="2.5" style="stroke:#D79B00;stroke-width:0.5;" width="80.5723" x="577.3955" y="669.375"/><text fill="#000000" font-family="Helvetica" font-size="10" x="607.8013" y="685.6572">PDP</text><text fill="#000000" font-family="Helvetica" font-size="10" x="584.3955" y="697.2979">Policy Engine</text><line style="stroke:#181818;stroke-width:1;" x1="67.0967" x2="109.0967" y1="102.2031" y2="102.2031"/><line style="stroke:#181818;stroke-width:1;" x1="109.0967" x2="109.0967" y1="102.2031" y2="115.2031"/><line style="stroke:#181818;stroke-width:1;" x1="68.0967" x2="109.0967" y1="115.2031" y2="115.2031"/><polygon fill="#181818" points="78.0967,111.2031,68.0967,115.2031,78.0967,119.2031,74.0967,115.2031" style="stroke:#181818;stroke-width:1;"/><text fill="#000000" font-family="Helvetica" font-size="10" x="74.0967" y="97.8447">(01)</text><text fill="#000000" font-family="Helvetica" font-size="10" x="98.624" y="97.8447">Create DPoP Proof (without Nonce)</text><line style="stroke:#181818;stroke-width:1;" x1="67.0967" x2="109.0967" y1="140.8438" y2="140.8438"/><line style="stroke:#181818;stroke-width:1;" x1="109.0967" x2="109.0967" y1="140.8438" y2="153.8438"/><line style="stroke:#181818;stroke-width:1;" x1="68.0967" x2="109.0967" y1="153.8438" y2="153.8438"/><polygon fill="#181818" points="78.0967,149.8438,68.0967,153.8438,78.0967,157.8438,74.0967,153.8438" style="stroke:#181818;stroke-width:1;"/><text fill="#000000" font-family="Helvetica" font-size="10" x="74.0967" y="136.4854">(02)</text><text fill="#000000" font-family="Helvetica" font-size="10" x="98.624" y="136.4854">Create Client Assertion JWT (without Attestation)</text><polygon fill="#181818" points="333.1846,198.7656,343.1846,202.7656,333.1846,206.7656,337.1846,202.7656" style="stroke:#181818;stroke-width:1;"/><line style="stroke:#181818;stroke-width:1;" x1="67.0967" x2="339.1846" y1="202.7656" y2="202.7656"/><text fill="#000000" font-family="Helvetica" font-size="10" x="74.0967" y="186.7666">(03)</text><text fill="#000000" font-family="Helvetica" font-size="10" x="98.624" y="175.126">POST /token dpop: dpop_proof</text><text fill="#000000" font-family="Helvetica" font-size="10" x="98.624" y="186.7666">{client_assertion (JWT, PrK.Client.Sig signiert),</text><text fill="#000000" font-family="Helvetica" font-size="10" x="98.624" y="198.4072">refresh_token}</text><line style="stroke:#181818;stroke-width:1;" x1="355.1846" x2="397.1846" y1="240.0469" y2="240.0469"/><line style="stroke:#181818;stroke-width:1;" x1="397.1846" x2="397.1846" y1="240.0469" y2="253.0469"/><line style="stroke:#181818;stroke-width:1;" x1="356.1846" x2="397.1846" y1="253.0469" y2="253.0469"/><polygon fill="#181818" points="366.1846,249.0469,356.1846,253.0469,366.1846,257.0469,362.1846,253.0469" style="stroke:#181818;stroke-width:1;"/><text fill="#000000" font-family="Helvetica" font-size="10" x="362.1846" y="229.8682">(04)</text><text fill="#000000" font-family="Helvetica" font-size="10" x="386.7119" y="224.0479">Validate Request (Client Assertion,</text><text fill="#000000" font-family="Helvetica" font-size="10" x="386.7119" y="235.6885">DPoP Proof, Refresh Token)</text><line style="stroke:#181818;stroke-width:1;" x1="355.1846" x2="397.1846" y1="278.6875" y2="278.6875"/><line style="stroke:#181818;stroke-width:1;" x1="397.1846" x2="397.1846" y1="278.6875" y2="291.6875"/><line style="stroke:#181818;stroke-width:1;" x1="356.1846" x2="397.1846" y1="291.6875" y2="291.6875"/><polygon fill="#181818" points="366.1846,287.6875,356.1846,291.6875,366.1846,295.6875,362.1846,291.6875" style="stroke:#181818;stroke-width:1;"/><text fill="#000000" font-family="Helvetica" font-size="10" x="362.1846" y="274.3291">(05)</text><text fill="#000000" font-family="Helvetica" font-size="10" x="386.7119" y="274.3291">Pr&#252;fe Sperrstatus (OCSP/CRL) der SM(C)-B</text><line style="stroke:#181818;stroke-width:1;" x1="355.1846" x2="397.1846" y1="317.3281" y2="317.3281"/><line style="stroke:#181818;stroke-width:1;" x1="397.1846" x2="397.1846" y1="317.3281" y2="330.3281"/><line style="stroke:#181818;stroke-width:1;" x1="356.1846" x2="397.1846" y1="330.3281" y2="330.3281"/><polygon fill="#181818" points="366.1846,326.3281,356.1846,330.3281,366.1846,334.3281,362.1846,330.3281" style="stroke:#181818;stroke-width:1;"/><text fill="#000000" font-family="Helvetica" font-size="10" x="362.1846" y="312.9697">(06)</text><text fill="#000000" font-family="Helvetica" font-size="10" x="386.7119" y="312.9697">Invalidate Refresh token</text><path d="M27.0967,342.3281 L87.0527,342.3281 L87.0527,345.9688 L77.0527,355.9688 L27.0967,355.9688 L27.0967,342.3281" fill="#EEEEEE" style="stroke:#000000;stroke-width:1.5;"/><rect fill="none" height="303.0469" style="stroke:#000000;stroke-width:1.5;" width="611.585" x="27.0967" y="342.3281"/><text fill="#000000" font-family="Helvetica" font-size="10" font-weight="bold" x="42.0967" y="352.6104">alt</text><text fill="#000000" font-family="Helvetica" font-size="10" font-weight="bold" x="102.0527" y="353.6104">[Validation successful]</text><line style="stroke:#000000;stroke-width:1;stroke-dasharray:2,2;" x1="27.0967" x2="638.6816" y1="601.0938" y2="601.0938"/><text fill="#000000" font-family="Helvetica" font-size="10" font-weight="bold" x="32.0967" y="612.376">[Validation fehlerhaft]</text><line style="stroke:#181818;stroke-width:1;" x1="355.1846" x2="397.1846" y1="383.6094" y2="383.6094"/><line style="stroke:#181818;stroke-width:1;" x1="397.1846" x2="397.1846" y1="383.6094" y2="396.6094"/><line style="stroke:#181818;stroke-width:1;" x1="356.1846" x2="397.1846" y1="396.6094" y2="396.6094"/><polygon fill="#181818" points="366.1846,392.6094,356.1846,396.6094,366.1846,400.6094,362.1846,396.6094" style="stroke:#181818;stroke-width:1;"/><text fill="#000000" font-family="Helvetica" font-size="10" x="362.1846" y="379.251">(07)</text><text fill="#000000" font-family="Helvetica" font-size="10" x="386.7119" y="379.251">Policy Engine Input erstellen</text><polygon fill="#181818" points="600.6816,418.25,610.6816,422.25,600.6816,426.25,604.6816,422.25" style="stroke:#181818;stroke-width:1;"/><line style="stroke:#181818;stroke-width:1;" x1="355.1846" x2="606.6816" y1="422.25" y2="422.25"/><text fill="#000000" font-family="Helvetica" font-size="10" x="362.1846" y="417.8916">(08)</text><text fill="#000000" font-family="Helvetica" font-size="10" x="386.7119" y="417.8916">POST /v1/data/authz {Policy Engine Input}</text><polygon fill="#181818" points="366.1846,443.8906,356.1846,447.8906,366.1846,451.8906,362.1846,447.8906" style="stroke:#181818;stroke-width:1;"/><line style="stroke:#181818;stroke-width:1;stroke-dasharray:2,2;" x1="360.1846" x2="611.6816" y1="447.8906" y2="447.8906"/><text fill="#000000" font-family="Helvetica" font-size="10" x="372.1846" y="443.5322">(09)</text><text fill="#000000" font-family="Helvetica" font-size="10" x="396.7119" y="443.5322">Policy Decision</text><path d="M46.0967,459.8906 L106.0527,459.8906 L106.0527,463.5313 L96.0527,473.5313 L46.0967,473.5313 L46.0967,459.8906" fill="#EEEEEE" style="stroke:#000000;stroke-width:1.5;"/><rect fill="none" height="116.2031" style="stroke:#000000;stroke-width:1.5;" width="320.0879" x="46.0967" y="459.8906"/><text fill="#000000" font-family="Helvetica" font-size="10" font-weight="bold" x="61.0967" y="470.1729">alt</text><text fill="#000000" font-family="Helvetica" font-size="10" font-weight="bold" x="121.0527" y="471.1729">[Policy Decision allow]</text><line style="stroke:#000000;stroke-width:1;stroke-dasharray:2,2;" x1="46.0967" x2="366.1846" y1="531.8125" y2="531.8125"/><text fill="#000000" font-family="Helvetica" font-size="10" font-weight="bold" x="51.0967" y="543.0947">[Policy Decision deny]</text><polygon fill="#181818" points="78.0967,508.8125,68.0967,512.8125,78.0967,516.8125,74.0967,512.8125" style="stroke:#181818;stroke-width:1;"/><line style="stroke:#181818;stroke-width:1;stroke-dasharray:2,2;" x1="72.0967" x2="344.1846" y1="512.8125" y2="512.8125"/><text fill="#000000" font-family="Helvetica" font-size="10" x="84.0967" y="502.6338">(10)</text><text fill="#000000" font-family="Helvetica" font-size="10" x="108.624" y="496.8135">200 OK</text><text fill="#000000" font-family="Helvetica" font-size="10" x="108.624" y="508.4541">{Access Token, Refresh Token}</text><polygon fill="#181818" points="78.0967,564.0938,68.0967,568.0938,78.0967,572.0938,74.0967,568.0938" style="stroke:#181818;stroke-width:1;"/><line style="stroke:#181818;stroke-width:1;stroke-dasharray:2,2;" x1="72.0967" x2="344.1846" y1="568.0938" y2="568.0938"/><text fill="#000000" font-family="Helvetica" font-size="10" x="84.0967" y="563.7354">(11)</text><text fill="#000000" font-family="Helvetica" font-size="10" x="108.624" y="563.7354">403 Forbidden</text><polygon fill="#181818" points="78.0967,633.375,68.0967,637.375,78.0967,641.375,74.0967,637.375" style="stroke:#181818;stroke-width:1;"/><line style="stroke:#181818;stroke-width:1;stroke-dasharray:2,2;" x1="72.0967" x2="349.1846" y1="637.375" y2="637.375"/><text fill="#000000" font-family="Helvetica" font-size="10" x="84.0967" y="633.0166">(12)</text><text fill="#000000" font-family="Helvetica" font-size="10" x="108.624" y="633.0166">403 Forbidden</text><?plantuml-src VLNRSjf847tNLtJOXuNoZTYEDqkvN2KauMK3HeNOf7RBLTHOQc3MOaQP6P4Ob_ycdv6t_DZsI8YRsJm0cfdkqwTF7mqiDrBaymTKKAitcusQen-vo9XYSqXmmlBKTAGm4LyYl6qUFhnZSuG_C5sWuJ7RYl7BcBuKKcSincGTxSbSSLHRiIcAgPcvoR-vDY2amAqpZPzp534ESOBAFhHP_3XLCXU99rEfuDECc-s4Q3zXqyFv0Tm-QiscwAPyAeZ8n3WpdY1eGydIF6NeEBz2Mtw5s5RJpXjgdWk4VuAHExxzontwOs_G6mpXbqwdSn6yMmVqWcvrSZkJsfGyTq_xuU0kk1jLSS5bSDcvNCU4msxV3ORHtz4ew5SnFRP0aP1ycwZ1nwuV3DSWViSFFCiwP8g6mZCcJCN-Mfkd56-SgdkViwbLuza1oBR2xHhWT8c6hPu1zeMdXeChprkTzeZBQj__xVTsirdilvGucP8BKbNzFvR_BdZlNxx6Ud_UlhYwMcFPJyedcDhEIx33VjY5QQSKLAI_EDTdAmr88SDDYZ2IZoWW-1hFc9WYVE5c1kGUXNfMdZdEcqonwPo1GRa4et9onGDveaPZh6qcJHMAtL3n-OzlIZ-HY-QrGtCi-6qBxgKSwOTfg5bdhTOrkBwsCxYveGGQkuLtgj-IWIiUE99POTI5yzCc-9IdJMtF5XMp0lisPogflNBmAqvkRcPHGIdqmtjXbrBn9JDS2dhDr0BL3i7Tx47eRd93cVBu2G8nfPdylAkoywEZwWbERYfrMk0fP0R13sK8eP9o0dKxBfaRk9FavyPFabPhLsjKHGj_VXfjqbrZK9kYjssGGeEZenQ4WsW4PwQmIfB9h5LyZpDBubuynqN6cAt1wuH-J1m_d9PWfn6VWgPBXgu-qpY-5wfqsBY0V75AiQkAnFeZItbYUG_jkqeNOts_0GBP276yQzd6Qy1G_VW-GOWoLCfsccke3xmeFFE6lGROjpFgrxt6INiljGLTiTYGAOiKh1sMcegdxLddSKpNwIHFQR3x83iM8CYCH4SYWYbT_zlnP9oDu8ktPmJEpXYTBk7v08Yz4gpNJgfI9oVhOZx6N1Cp2h5KztPfBvLV2kEkYgzTquBpPXC67sYoRj5JgUgUoBOqfXfV0ISedWxYMcwNpGleIFN0awHet3gVs3a5qfQQ4vobg6QC_f8E4To5gK3-0m00?></g></svg>