<?plantuml 1.2026.2?><svg xmlns="http://www.w3.org/2000/svg" xmlns:xlink="http://www.w3.org/1999/xlink" contentStyleType="text/css" data-diagram-type="SEQUENCE" height="1108px" preserveAspectRatio="none" style="width:954px;height:1108px;background:#FFFFFF;" version="1.1" viewBox="0 0 954 1108" width="954px" zoomAndPan="magnify"><defs/><g><rect fill="#F8F8FF" height="1096.3438" style="stroke:#181818;stroke-width:0.5;" width="255.2764" x="11" y="6"/><text fill="#000000" font-family="Helvetica" font-size="10" font-weight="bold" x="130.1763" y="15.2822">LEI</text><rect fill="#E6E6FA" height="1079.7031" style="stroke:#181818;stroke-width:0.5;" width="102.1934" x="164.083" y="22.6406"/><text fill="#000000" font-family="Helvetica" font-size="10" font-weight="bold" x="176.083" y="31.9229">Prim&#228;rsystem</text><rect fill="#EDFDEC" height="1096.3438" style="stroke:#181818;stroke-width:0.5;" width="468.2129" x="480.6465" y="6"/><text fill="#000000" font-family="Helvetica" font-size="10" font-weight="bold" x="652.8608" y="15.2822">Anbieter TI 2.0 Dienst</text><rect fill="#FFF3E5" height="1079.7031" style="stroke:#181818;stroke-width:0.5;" width="468.2129" x="480.6465" y="22.6406"/><text fill="#000000" font-family="Helvetica" font-size="10" font-weight="bold" x="681.6084" y="31.9229">ZETA Guard</text><g><title>Konnektor or</title><rect fill="#000000" fill-opacity="0.00000" height="981.5" width="8" x="50.9268" y="76.5625"/><line style="stroke:#000000;stroke-width:0.5;stroke-dasharray:5,5;" x1="54.4268" x2="54.4268" y1="76.5625" y2="1058.0625"/></g><g><title/><rect fill="#FFFFFF" height="25.6406" style="stroke:#181818;stroke-width:1;" width="10" x="49.4268" y="168.4844"/></g><g><title>SM.C.-B</title><rect fill="#000000" fill-opacity="0.00000" height="981.5" width="8" x="127.4683" y="76.5625"/><line style="stroke:#000000;stroke-width:0.5;stroke-dasharray:5,5;" x1="130.9683" x2="130.9683" y1="76.5625" y2="1058.0625"/></g><g><title>ZETA Client</title><rect fill="#000000" fill-opacity="0.00000" height="981.5" width="8" x="211.6797" y="76.5625"/><line style="stroke:#000000;stroke-width:0.5;stroke-dasharray:5,5;" x1="215.1797" x2="215.1797" y1="76.5625" y2="1058.0625"/></g><g><title/><rect fill="#FFFFFF" height="973.5" style="stroke:#181818;stroke-width:1;" width="10" x="210.1797" y="84.5625"/></g><g><title>PDP</title><rect fill="#000000" fill-opacity="0.00000" height="981.5" width="8" x="539.6211" y="76.5625"/><line style="stroke:#000000;stroke-width:0.5;stroke-dasharray:5,5;" x1="543.1211" x2="543.1211" y1="76.5625" y2="1058.0625"/></g><g><title/><rect fill="#FFFFFF" height="610.8125" style="stroke:#181818;stroke-width:1;" width="10" x="538.1211" y="345.9688"/></g><g><title>PDP</title><rect fill="#000000" fill-opacity="0.00000" height="981.5" width="8" x="901.0732" y="76.5625"/><line style="stroke:#000000;stroke-width:0.5;stroke-dasharray:5,5;" x1="904.5732" x2="904.5732" y1="76.5625" y2="1058.0625"/></g><g><title/><rect fill="#FFFFFF" height="25.6406" style="stroke:#181818;stroke-width:1;" width="10" x="899.5732" y="648.375"/></g><rect fill="#E4E4F4" height="37.2813" rx="2.5" ry="2.5" style="stroke:#181818;stroke-width:0.5;" width="78.8535" x="15" y="38.2813"/><text fill="#000000" font-family="Helvetica" font-size="10" x="22" y="54.5635">Konnektor or</text><text fill="#000000" font-family="Helvetica" font-size="10" x="26.0063" y="66.2041">TI-Gateway</text><rect fill="#E4E4F4" height="25.6406" rx="2.5" ry="2.5" style="stroke:#181818;stroke-width:0.5;" width="54.2295" x="103.8535" y="49.9219"/><text fill="#000000" font-family="Helvetica" font-size="10" x="110.8535" y="66.2041">SM(C)-B</text><rect fill="#FFE6CC" height="25.6406" rx="2.5" ry="2.5" style="stroke:#D79B00;stroke-width:0.5;" width="72.2471" x="179.0562" y="49.9219"/><text fill="#000000" font-family="Helvetica" font-size="10" x="186.0562" y="66.2041">ZETA Client</text><rect fill="#FFE6CC" height="37.2813" rx="2.5" ry="2.5" style="stroke:#D79B00;stroke-width:0.5;" width="116.9492" x="484.6465" y="38.2813"/><text fill="#000000" font-family="Helvetica" font-size="10" x="533.2407" y="54.5635">PDP</text><text fill="#000000" font-family="Helvetica" font-size="10" x="491.6465" y="66.2041">Authorization Server</text><rect fill="#FFE6CC" height="37.2813" rx="2.5" ry="2.5" style="stroke:#D79B00;stroke-width:0.5;" width="80.5723" x="864.2871" y="38.2813"/><text fill="#000000" font-family="Helvetica" font-size="10" x="894.6929" y="54.5635">PDP</text><text fill="#000000" font-family="Helvetica" font-size="10" x="871.2871" y="66.2041">Policy Engine</text><rect fill="#E4E4F4" height="37.2813" rx="2.5" ry="2.5" style="stroke:#181818;stroke-width:0.5;" width="78.8535" x="15" y="1058.0625"/><text fill="#000000" font-family="Helvetica" font-size="10" x="22" y="1074.3447">Konnektor or</text><text fill="#000000" font-family="Helvetica" font-size="10" x="26.0063" y="1085.9854">TI-Gateway</text><rect fill="#E4E4F4" height="25.6406" rx="2.5" ry="2.5" style="stroke:#181818;stroke-width:0.5;" width="54.2295" x="103.8535" y="1058.0625"/><text fill="#000000" font-family="Helvetica" font-size="10" x="110.8535" y="1074.3447">SM(C)-B</text><rect fill="#FFE6CC" height="25.6406" rx="2.5" ry="2.5" style="stroke:#D79B00;stroke-width:0.5;" width="72.2471" x="179.0562" y="1058.0625"/><text fill="#000000" font-family="Helvetica" font-size="10" x="186.0562" y="1074.3447">ZETA Client</text><rect fill="#FFE6CC" height="37.2813" rx="2.5" ry="2.5" style="stroke:#D79B00;stroke-width:0.5;" width="116.9492" x="484.6465" y="1058.0625"/><text fill="#000000" font-family="Helvetica" font-size="10" x="533.2407" y="1074.3447">PDP</text><text fill="#000000" font-family="Helvetica" font-size="10" x="491.6465" y="1085.9854">Authorization Server</text><rect fill="#FFE6CC" height="37.2813" rx="2.5" ry="2.5" style="stroke:#D79B00;stroke-width:0.5;" width="80.5723" x="864.2871" y="1058.0625"/><text fill="#000000" font-family="Helvetica" font-size="10" x="894.6929" y="1074.3447">PDP</text><text fill="#000000" font-family="Helvetica" font-size="10" x="871.2871" y="1085.9854">Policy Engine</text><line style="stroke:#181818;stroke-width:1;" x1="220.1797" x2="262.1797" y1="102.2031" y2="102.2031"/><line style="stroke:#181818;stroke-width:1;" x1="262.1797" x2="262.1797" y1="102.2031" y2="115.2031"/><line style="stroke:#181818;stroke-width:1;" x1="221.1797" x2="262.1797" y1="115.2031" y2="115.2031"/><polygon fill="#181818" points="231.1797,111.2031,221.1797,115.2031,231.1797,119.2031,227.1797,115.2031" style="stroke:#181818;stroke-width:1;"/><text fill="#000000" font-family="Helvetica" font-size="10" x="227.1797" y="97.8447">(01)</text><text fill="#000000" font-family="Helvetica" font-size="10" x="251.707" y="97.8447">Generiere subject_token</text><path d="M33.4268,127.2031 L263.8711,127.2031 L263.8711,130.8438 L253.8711,140.8438 L33.4268,140.8438 L33.4268,127.2031" fill="#EEEEEE" style="stroke:#000000;stroke-width:1.5;"/><rect fill="none" height="74.9219" style="stroke:#000000;stroke-width:1.5;" width="246.4443" x="33.4268" y="127.2031"/><text fill="#000000" font-family="Helvetica" font-size="10" font-weight="bold" x="48.4268" y="137.4854">Sign Subject Token with SM(C)-B</text><polygon fill="#181818" points="70.4268,164.4844,60.4268,168.4844,70.4268,172.4844,66.4268,168.4844" style="stroke:#181818;stroke-width:1;"/><line style="stroke:#181818;stroke-width:1;" x1="64.4268" x2="209.1797" y1="168.4844" y2="168.4844"/><text fill="#000000" font-family="Helvetica" font-size="10" x="76.4268" y="164.126">(02)</text><text fill="#000000" font-family="Helvetica" font-size="10" x="100.9541" y="164.126">&#160;</text><polygon fill="#181818" points="198.1797,190.125,208.1797,194.125,198.1797,198.125,202.1797,194.125" style="stroke:#181818;stroke-width:1;"/><line style="stroke:#181818;stroke-width:1;stroke-dasharray:2,2;" x1="59.4268" x2="204.1797" y1="194.125" y2="194.125"/><text fill="#000000" font-family="Helvetica" font-size="10" x="66.4268" y="189.7666">(03)</text><text fill="#000000" font-family="Helvetica" font-size="10" x="90.9541" y="189.7666">&#160;</text><line style="stroke:#181818;stroke-width:1;" x1="220.1797" x2="262.1797" y1="233.7656" y2="233.7656"/><line style="stroke:#181818;stroke-width:1;" x1="262.1797" x2="262.1797" y1="233.7656" y2="246.7656"/><line style="stroke:#181818;stroke-width:1;" x1="221.1797" x2="262.1797" y1="246.7656" y2="246.7656"/><polygon fill="#181818" points="231.1797,242.7656,221.1797,246.7656,231.1797,250.7656,227.1797,246.7656" style="stroke:#181818;stroke-width:1;"/><text fill="#000000" font-family="Helvetica" font-size="10" x="227.1797" y="229.4072">(04)</text><text fill="#000000" font-family="Helvetica" font-size="10" x="251.707" y="229.4072">Create DPoP Key Pair (PrK.DPoP.Sig, PuK.DPoP.Sig)</text><path d="M518.6289,221.125 L518.6289,242.125 L744.6289,242.125 L744.6289,231.125 L734.6289,221.125 L518.6289,221.125" fill="#FEFFDD" style="stroke:#181818;stroke-width:0.5;"/><path d="M734.6289,221.125 L734.6289,231.125 L744.6289,231.125 L734.6289,221.125" fill="#FEFFDD" style="stroke:#181818;stroke-width:0.5;"/><text fill="#000000" font-family="Helvetica" font-size="10" x="524.6289" y="235.4072">Session-based Key Pair for DPoP binding.</text><line style="stroke:#181818;stroke-width:1;" x1="220.1797" x2="262.1797" y1="272.4063" y2="272.4063"/><line style="stroke:#181818;stroke-width:1;" x1="262.1797" x2="262.1797" y1="272.4063" y2="285.4063"/><line style="stroke:#181818;stroke-width:1;" x1="221.1797" x2="262.1797" y1="285.4063" y2="285.4063"/><polygon fill="#181818" points="231.1797,281.4063,221.1797,285.4063,231.1797,289.4063,227.1797,285.4063" style="stroke:#181818;stroke-width:1;"/><text fill="#000000" font-family="Helvetica" font-size="10" x="227.1797" y="268.0479">(05)</text><text fill="#000000" font-family="Helvetica" font-size="10" x="251.707" y="268.0479">Create DPoP Proof (with Nonce from AuthS)</text><polygon fill="#181818" points="526.1211,341.9688,536.1211,345.9688,526.1211,349.9688,530.1211,345.9688" style="stroke:#181818;stroke-width:1;"/><line style="stroke:#181818;stroke-width:1;" x1="220.1797" x2="532.1211" y1="345.9688" y2="345.9688"/><text fill="#000000" font-family="Helvetica" font-size="10" x="227.1797" y="324.1494">(06)</text><text fill="#000000" font-family="Helvetica" font-size="10" x="251.707" y="306.6885">POST /token dpop: dpop_proof</text><text fill="#000000" font-family="Helvetica" font-size="10" x="251.707" y="318.3291">{client_assertion (JWT, PrK.Client.Sig signiert),</text><text fill="#000000" font-family="Helvetica" font-size="10" x="251.707" y="329.9697">subject_token (SMC-B signiert, inkl. Nonce),</text><text fill="#000000" font-family="Helvetica" font-size="10" x="251.707" y="341.6104">[Evidence]}</text><line style="stroke:#181818;stroke-width:1;" x1="548.1211" x2="590.1211" y1="383.25" y2="383.25"/><line style="stroke:#181818;stroke-width:1;" x1="590.1211" x2="590.1211" y1="383.25" y2="396.25"/><line style="stroke:#181818;stroke-width:1;" x1="549.1211" x2="590.1211" y1="396.25" y2="396.25"/><polygon fill="#181818" points="559.1211,392.25,549.1211,396.25,559.1211,400.25,555.1211,396.25" style="stroke:#181818;stroke-width:1;"/><text fill="#000000" font-family="Helvetica" font-size="10" x="555.1211" y="373.0713">(07)</text><text fill="#000000" font-family="Helvetica" font-size="10" x="579.6484" y="367.251">Validate Request (Client Assertion, DPoP Proof,</text><text fill="#000000" font-family="Helvetica" font-size="10" x="579.6484" y="378.8916">Subject Token, Nonce and Key bindings from DCR)</text><path d="M527.1211,408.25 L587.0771,408.25 L587.0771,411.8906 L577.0771,421.8906 L527.1211,421.8906 L527.1211,408.25" fill="#EEEEEE" style="stroke:#000000;stroke-width:1.5;"/><rect fill="none" height="142.2031" style="stroke:#000000;stroke-width:1.5;" width="393.4521" x="527.1211" y="408.25"/><text fill="#000000" font-family="Helvetica" font-size="10" font-weight="bold" x="542.1211" y="418.5322">alt</text><text fill="#000000" font-family="Helvetica" font-size="10" font-weight="bold" x="602.0771" y="419.5322">[TPM Attestation (Windows / Linux)]</text><line style="stroke:#000000;stroke-width:1;stroke-dasharray:2,2;" x1="527.1211" x2="920.5732" y1="493.1719" y2="493.1719"/><text fill="#000000" font-family="Helvetica" font-size="10" font-weight="bold" x="532.1211" y="504.4541">[macOS Attestation (Secure Enclave)]</text><line style="stroke:#181818;stroke-width:1;" x1="548.1211" x2="590.1211" y1="461.1719" y2="461.1719"/><line style="stroke:#181818;stroke-width:1;" x1="590.1211" x2="590.1211" y1="461.1719" y2="474.1719"/><line style="stroke:#181818;stroke-width:1;" x1="549.1211" x2="590.1211" y1="474.1719" y2="474.1719"/><polygon fill="#181818" points="559.1211,470.1719,549.1211,474.1719,559.1211,478.1719,555.1211,474.1719" style="stroke:#181818;stroke-width:1;"/><text fill="#000000" font-family="Helvetica" font-size="10" x="555.1211" y="450.9932">(08)</text><text fill="#000000" font-family="Helvetica" font-size="10" x="579.6484" y="445.1729">Verifiziere Hardware-Signatur (Quote) gegen extrahierte Nonce</text><text fill="#000000" font-family="Helvetica" font-size="10" x="579.6484" y="456.8135">PCR-Replay via Event Log</text><line style="stroke:#181818;stroke-width:1;" x1="548.1211" x2="590.1211" y1="529.4531" y2="529.4531"/><line style="stroke:#181818;stroke-width:1;" x1="590.1211" x2="590.1211" y1="529.4531" y2="542.4531"/><line style="stroke:#181818;stroke-width:1;" x1="549.1211" x2="590.1211" y1="542.4531" y2="542.4531"/><polygon fill="#181818" points="559.1211,538.4531,549.1211,542.4531,559.1211,546.4531,555.1211,542.4531" style="stroke:#181818;stroke-width:1;"/><text fill="#000000" font-family="Helvetica" font-size="10" x="555.1211" y="525.0947">(09)</text><text fill="#000000" font-family="Helvetica" font-size="10" x="579.6484" y="525.0947">Pr&#252;fe Signaturen und counter (Replay-Schutz)</text><path d="M161.1797,568.4531 L221.1357,568.4531 L221.1357,572.0938 L211.1357,582.0938 L161.1797,582.0938 L161.1797,568.4531" fill="#EEEEEE" style="stroke:#000000;stroke-width:1.5;"/><rect fill="none" height="465.6094" style="stroke:#000000;stroke-width:1.5;" width="764.3936" x="161.1797" y="568.4531"/><text fill="#000000" font-family="Helvetica" font-size="10" font-weight="bold" x="176.1797" y="578.7354">alt</text><text fill="#000000" font-family="Helvetica" font-size="10" font-weight="bold" x="236.1357" y="579.7354">[Validation successful]</text><line style="stroke:#000000;stroke-width:1;stroke-dasharray:2,2;" x1="161.1797" x2="925.5732" y1="989.7813" y2="989.7813"/><text fill="#000000" font-family="Helvetica" font-size="10" font-weight="bold" x="166.1797" y="1001.0635">[Validation fehlerhaft]</text><line style="stroke:#181818;stroke-width:1;" x1="548.1211" x2="590.1211" y1="609.7344" y2="609.7344"/><line style="stroke:#181818;stroke-width:1;" x1="590.1211" x2="590.1211" y1="609.7344" y2="622.7344"/><line style="stroke:#181818;stroke-width:1;" x1="549.1211" x2="590.1211" y1="622.7344" y2="622.7344"/><polygon fill="#181818" points="559.1211,618.7344,549.1211,622.7344,559.1211,626.7344,555.1211,622.7344" style="stroke:#181818;stroke-width:1;"/><text fill="#000000" font-family="Helvetica" font-size="10" x="555.1211" y="605.376">(10)</text><text fill="#000000" font-family="Helvetica" font-size="10" x="579.6484" y="605.376">Policy Engine Input erstellen</text><polygon fill="#181818" points="887.5732,644.375,897.5732,648.375,887.5732,652.375,891.5732,648.375" style="stroke:#181818;stroke-width:1;"/><line style="stroke:#181818;stroke-width:1;" x1="548.1211" x2="893.5732" y1="648.375" y2="648.375"/><text fill="#000000" font-family="Helvetica" font-size="10" x="555.1211" y="644.0166">(11)</text><text fill="#000000" font-family="Helvetica" font-size="10" x="579.6484" y="644.0166">POST /v1/data/authz {Policy Engine Input}</text><polygon fill="#181818" points="559.1211,670.0156,549.1211,674.0156,559.1211,678.0156,555.1211,674.0156" style="stroke:#181818;stroke-width:1;"/><line style="stroke:#181818;stroke-width:1;stroke-dasharray:2,2;" x1="553.1211" x2="898.5732" y1="674.0156" y2="674.0156"/><text fill="#000000" font-family="Helvetica" font-size="10" x="565.1211" y="669.6572">(12)</text><text fill="#000000" font-family="Helvetica" font-size="10" x="589.6484" y="669.6572">Policy Decision</text><path d="M180.1797,686.0156 L240.1357,686.0156 L240.1357,689.6563 L230.1357,699.6563 L180.1797,699.6563 L180.1797,686.0156" fill="#EEEEEE" style="stroke:#000000;stroke-width:1.5;"/><rect fill="none" height="278.7656" style="stroke:#000000;stroke-width:1.5;" width="711.0479" x="180.1797" y="686.0156"/><text fill="#000000" font-family="Helvetica" font-size="10" font-weight="bold" x="195.1797" y="696.2979">alt</text><text fill="#000000" font-family="Helvetica" font-size="10" font-weight="bold" x="255.1357" y="697.2979">[Policy Decision allow]</text><line style="stroke:#000000;stroke-width:1;stroke-dasharray:2,2;" x1="180.1797" x2="891.2275" y1="920.5" y2="920.5"/><text fill="#000000" font-family="Helvetica" font-size="10" font-weight="bold" x="185.1797" y="931.7822">[Policy Decision deny]</text><line style="stroke:#181818;stroke-width:1;" x1="548.1211" x2="590.1211" y1="727.2969" y2="727.2969"/><line style="stroke:#181818;stroke-width:1;" x1="590.1211" x2="590.1211" y1="727.2969" y2="740.2969"/><line style="stroke:#181818;stroke-width:1;" x1="549.1211" x2="590.1211" y1="740.2969" y2="740.2969"/><polygon fill="#181818" points="559.1211,736.2969,549.1211,740.2969,559.1211,744.2969,555.1211,740.2969" style="stroke:#181818;stroke-width:1;"/><text fill="#000000" font-family="Helvetica" font-size="10" x="555.1211" y="722.9385">(13)</text><text fill="#000000" font-family="Helvetica" font-size="10" x="579.6484" y="722.9385">Create Token (Access Token, Refresh Token)</text><path d="M199.1797,752.2969 L259.1357,752.2969 L259.1357,755.9375 L249.1357,765.9375 L199.1797,765.9375 L199.1797,752.2969" fill="#EEEEEE" style="stroke:#000000;stroke-width:1.5;"/><rect fill="none" height="143.2031" style="stroke:#000000;stroke-width:1.5;" width="667.0479" x="199.1797" y="752.2969"/><text fill="#000000" font-family="Helvetica" font-size="10" font-weight="bold" x="214.1797" y="762.5791">alt</text><text fill="#000000" font-family="Helvetica" font-size="10" font-weight="bold" x="274.1357" y="763.5791">[Hardware Attestation  (TPM / SE)]</text><line style="stroke:#000000;stroke-width:1;stroke-dasharray:2,2;" x1="199.1797" x2="866.2275" y1="851.2188" y2="851.2188"/><text fill="#000000" font-family="Helvetica" font-size="10" font-weight="bold" x="204.1797" y="862.501">[Software Attestation (Fallback)]</text><line style="stroke:#181818;stroke-width:1;" x1="548.1211" x2="590.1211" y1="793.5781" y2="793.5781"/><line style="stroke:#181818;stroke-width:1;" x1="590.1211" x2="590.1211" y1="793.5781" y2="806.5781"/><line style="stroke:#181818;stroke-width:1;" x1="549.1211" x2="590.1211" y1="806.5781" y2="806.5781"/><polygon fill="#181818" points="559.1211,802.5781,549.1211,806.5781,559.1211,810.5781,555.1211,806.5781" style="stroke:#181818;stroke-width:1;"/><text fill="#000000" font-family="Helvetica" font-size="10" x="555.1211" y="789.2197">(14)</text><text fill="#000000" font-family="Helvetica" font-size="10" x="579.6484" y="789.2197">Create ZETA Guard Attestation Token (zg_att_token)</text><polygon fill="#181818" points="231.1797,828.2188,221.1797,832.2188,231.1797,836.2188,227.1797,832.2188" style="stroke:#181818;stroke-width:1;"/><line style="stroke:#181818;stroke-width:1;stroke-dasharray:2,2;" x1="225.1797" x2="537.1211" y1="832.2188" y2="832.2188"/><text fill="#000000" font-family="Helvetica" font-size="10" x="237.1797" y="827.8604">(15)</text><text fill="#000000" font-family="Helvetica" font-size="10" x="261.707" y="827.8604">200 OK {Access Token, Refresh Token, zg_att_token}</text><polygon fill="#181818" points="231.1797,883.5,221.1797,887.5,231.1797,891.5,227.1797,887.5" style="stroke:#181818;stroke-width:1;"/><line style="stroke:#181818;stroke-width:1;stroke-dasharray:2,2;" x1="225.1797" x2="537.1211" y1="887.5" y2="887.5"/><text fill="#000000" font-family="Helvetica" font-size="10" x="237.1797" y="883.1416">(16)</text><text fill="#000000" font-family="Helvetica" font-size="10" x="261.707" y="883.1416">200 OK {Access Token, Refresh Token}</text><polygon fill="#181818" points="231.1797,952.7813,221.1797,956.7813,231.1797,960.7813,227.1797,956.7813" style="stroke:#181818;stroke-width:1;"/><line style="stroke:#181818;stroke-width:1;stroke-dasharray:2,2;" x1="225.1797" x2="537.1211" y1="956.7813" y2="956.7813"/><text fill="#000000" font-family="Helvetica" font-size="10" x="237.1797" y="952.4229">(17)</text><text fill="#000000" font-family="Helvetica" font-size="10" x="261.707" y="952.4229">403 Forbidden</text><polygon fill="#181818" points="231.1797,1022.0625,221.1797,1026.0625,231.1797,1030.0625,227.1797,1026.0625" style="stroke:#181818;stroke-width:1;"/><line style="stroke:#181818;stroke-width:1;stroke-dasharray:2,2;" x1="225.1797" x2="542.1211" y1="1026.0625" y2="1026.0625"/><text fill="#000000" font-family="Helvetica" font-size="10" x="237.1797" y="1021.7041">(18)</text><text fill="#000000" font-family="Helvetica" font-size="10" x="261.707" y="1021.7041">403 Forbidden</text><?plantuml-src hLRRSk9647tNL_IIXq3PsApNkzcuNAu29BoEZL4GMLSIfro3r4Yp5ZDaDC86b_ycdv6t_R7qw082uqqUuYgCHjDz-dJtcHvOggL8fsDKKAktMesQbTnpCMEAJI702KjZtPD2Uto9yBQrU_EQJH4-OJn7pNrMiR5pcxuKCfan7uELTLUcYgEgsCOeGXsrWozfea58WPMz1FzCKVWun0agyz1X_dseP2g2heobWfk8wwg3j-smpk5e1suVauI5s8vvA8Z8H5iH3n0IJSvIBsPeMTz3Hpw2Rw8brXjAdWk4tvnH--xyb_RGlkiEhWP3-AxNwxrptgyChfoBSkSyaedEUMxkzjt1jNCzAksSO-UuTxooSOSN_ROpz7xrHaw_jBbYSnG1bMzjDVXyOJl35OZTivskOUqoHKtXCoPqoVuqqOiOpwmoUvkpq5JZoGAOLSpD6k1WYPeLpm3RXQU4dG_TRh5xHLoAz_OFFtPQhUpzSuupKt9ELLMlOzdldO_syKkiZqUTTny-hB3C9-OJZ4tcETXkFMp2T68oojoVhTF3eWPK8SrrZ32IzoZ0UVGZ9aA41wuZQ6kDYMQQIs5PRsQAXLC66kKIj4f94sDIH8sQM5ltUQk4br88lDSKdILGMw-akXMZY-Ovq_Z05hLTIjX2ylgT3CFhrxkDPkSrbuoIg_ZqwrygMP20fxLT4ifAKuNlnXpfoqGmeYxMDJWzDUq_EoC7Kfo1jyhlFFss67EaSmAZ2pWwQ85DVeckRIcoP9PXdwTC1RKNX-S5ftQg8o-ZvDhkhJ1BgVWowmUTS3L7jK5mqtlWjjU-heovlm17X2I7RsULPxwtLpn0ywmenWcSeq0pjMWofEClwEixRLHZMKPwC_3CzF3odK9FcOoAbcKCrw1hCL0iixL-qLp5f4Su0KFEUi67DheAIK5WkzA5IrpGOUSAwgwwF32l3eZGFhZfUjMmX2HxnSE8ql5ewb4fcsEMOB3sdn23377CHS15UF2leLqbvGJgMRBNaYOAJ9ISvlrhL9op5tjx9-0El14SPiM3O2Pd9zd_kvd1kHLFVkPnnv84LTRi-ayt8yg4yih1J2wGKBcf6RgnVois-W5rhzzjTbO6-y35VNoGKpFMlpjc4D7YZsVBobLMiZk1popcWKbjQCOZtKNr8e5sIMU_aZMXRNHyloW04tb5YnecUKNixh01nP_5Ol9n-zKf0_KRifSF2HoQmPK-DZ9blA18AfpmPQR4JtIM7fZ2fb4Vqodr_-UKcjo044Eg1JvgnI9J1iofqM7e3fj3dCLi0NFEm9cRxAvaQ66S84oPF_0sINdefnJA4NvC5yzkJgxw-lS4eMH1aMaOqusJ2ZCSwdcyfkT7gLusCa6R_8jYcoX9wliao4aQxyQldc2u4BDK0oeQS37zSDZqe9E_5jdyxI45O8UCTfVmj0CclvxCk6YMuPhDLK0RVPva5u2nCfotDkXTB1-iigtRl8jpae-3UZlBiPGA_JfHc4Jvih62C47Ajcuq0kf6BuVWEMlZRyHS3ziDb8BAChnZkZWnE-4gW--erOB19JnzW_u-L06VLu2PfZmvqI-ogVUeScEwa_-7w9LufAnLtErMqQ5VMAy5Caq_Rhs3dbHZ7WI5gWnUXbMHwWIZ65N4w7VYVmCo8Fy0?></g></svg>