<svg xmlns="http://www.w3.org/2000/svg" xmlns:xlink="http://www.w3.org/1999/xlink" contentStyleType="text/css" data-diagram-type="SEQUENCE" height="1122px" preserveAspectRatio="none" style="width:970px;height:1122px;background:#FFFFFF;" version="1.1" viewBox="0 0 970 1122" width="970px" zoomAndPan="magnify"><?plantuml 1.2026.3?><defs/><g><rect fill="#F8F8FF" height="1096.3438" style="stroke:#181818;stroke-width:0.5;" width="255.2764" x="16" y="11"/><text fill="#000000" font-family="Helvetica" font-size="10" font-weight="700" x="135.1763" y="20.2822">LEI</text><rect fill="#E6E6FA" height="1079.7031" style="stroke:#181818;stroke-width:0.5;" width="102.1934" x="169.083" y="27.6406"/><text fill="#000000" font-family="Helvetica" font-size="10" font-weight="700" x="181.083" y="36.9229">Prim&#228;rsystem</text><rect fill="#EDFDEC" height="1096.3438" style="stroke:#181818;stroke-width:0.5;" width="468.2129" x="485.6465" y="11"/><text fill="#000000" font-family="Helvetica" font-size="10" font-weight="700" x="657.8608" y="20.2822">Anbieter TI 2.0 Dienst</text><rect fill="#FFF3E5" height="1079.7031" style="stroke:#181818;stroke-width:0.5;" width="468.2129" x="485.6465" y="27.6406"/><text fill="#000000" font-family="Helvetica" font-size="10" font-weight="700" x="686.6084" y="36.9229">ZETA Guard</text><g><title>Konnektor or</title><rect fill="#000000" fill-opacity="0.00000" height="981.5" width="8" x="55.9268" y="81.5625"/><line style="stroke:#000000;stroke-width:0.5;stroke-dasharray:5,5;" x1="59.4268" x2="59.4268" y1="81.5625" y2="1063.0625"/></g><g><title/><rect fill="#FFFFFF" height="25.6406" style="stroke:#181818;stroke-width:1;" width="10" x="54.4268" y="173.4844"/></g><g><title>SM.C.-B</title><rect fill="#000000" fill-opacity="0.00000" height="981.5" width="8" x="132.4683" y="81.5625"/><line style="stroke:#000000;stroke-width:0.5;stroke-dasharray:5,5;" x1="135.9683" x2="135.9683" y1="81.5625" y2="1063.0625"/></g><g><title>ZETA Client</title><rect fill="#000000" fill-opacity="0.00000" height="981.5" width="8" x="216.6797" y="81.5625"/><line style="stroke:#000000;stroke-width:0.5;stroke-dasharray:5,5;" x1="220.1797" x2="220.1797" y1="81.5625" y2="1063.0625"/></g><g><title/><rect fill="#FFFFFF" height="973.5" style="stroke:#181818;stroke-width:1;" width="10" x="215.1797" y="89.5625"/></g><g><title>PDP</title><rect fill="#000000" fill-opacity="0.00000" height="981.5" width="8" x="544.6211" y="81.5625"/><line style="stroke:#000000;stroke-width:0.5;stroke-dasharray:5,5;" x1="548.1211" x2="548.1211" y1="81.5625" y2="1063.0625"/></g><g><title/><rect fill="#FFFFFF" height="610.8125" style="stroke:#181818;stroke-width:1;" width="10" x="543.1211" y="350.9688"/></g><g><title>PDP</title><rect fill="#000000" fill-opacity="0.00000" height="981.5" width="8" x="906.0732" y="81.5625"/><line style="stroke:#000000;stroke-width:0.5;stroke-dasharray:5,5;" x1="909.5732" x2="909.5732" y1="81.5625" y2="1063.0625"/></g><g><title/><rect fill="#FFFFFF" height="25.6406" style="stroke:#181818;stroke-width:1;" width="10" x="904.5732" y="653.375"/></g><rect fill="#E4E4F4" height="37.2813" rx="2.5" ry="2.5" style="stroke:#181818;stroke-width:0.5;" width="78.8535" x="20" y="43.2813"/><text fill="#000000" font-family="Helvetica" font-size="10" x="27" y="59.5635">Konnektor or</text><text fill="#000000" font-family="Helvetica" font-size="10" x="31.0063" y="71.2041">TI-Gateway</text><rect fill="#E4E4F4" height="25.6406" rx="2.5" ry="2.5" style="stroke:#181818;stroke-width:0.5;" width="54.2295" x="108.8535" y="54.9219"/><text fill="#000000" font-family="Helvetica" font-size="10" x="115.8535" y="71.2041">SM(C)-B</text><rect fill="#FFE6CC" height="25.6406" rx="2.5" ry="2.5" style="stroke:#D79B00;stroke-width:0.5;" width="72.2471" x="184.0562" y="54.9219"/><text fill="#000000" font-family="Helvetica" font-size="10" x="191.0562" y="71.2041">ZETA Client</text><rect fill="#FFE6CC" height="37.2813" rx="2.5" ry="2.5" style="stroke:#D79B00;stroke-width:0.5;" width="116.9492" x="489.6465" y="43.2813"/><text fill="#000000" font-family="Helvetica" font-size="10" x="538.2407" y="59.5635">PDP</text><text fill="#000000" font-family="Helvetica" font-size="10" x="496.6465" y="71.2041">Authorization Server</text><rect fill="#FFE6CC" height="37.2813" rx="2.5" ry="2.5" style="stroke:#D79B00;stroke-width:0.5;" width="80.5723" x="869.2871" y="43.2813"/><text fill="#000000" font-family="Helvetica" font-size="10" x="899.6929" y="59.5635">PDP</text><text fill="#000000" font-family="Helvetica" font-size="10" x="876.2871" y="71.2041">Policy Engine</text><rect fill="#E4E4F4" height="37.2813" rx="2.5" ry="2.5" style="stroke:#181818;stroke-width:0.5;" width="78.8535" x="20" y="1063.0625"/><text fill="#000000" font-family="Helvetica" font-size="10" x="27" y="1079.3447">Konnektor or</text><text fill="#000000" font-family="Helvetica" font-size="10" x="31.0063" y="1090.9854">TI-Gateway</text><rect fill="#E4E4F4" height="25.6406" rx="2.5" ry="2.5" style="stroke:#181818;stroke-width:0.5;" width="54.2295" x="108.8535" y="1063.0625"/><text fill="#000000" font-family="Helvetica" font-size="10" x="115.8535" y="1079.3447">SM(C)-B</text><rect fill="#FFE6CC" height="25.6406" rx="2.5" ry="2.5" style="stroke:#D79B00;stroke-width:0.5;" width="72.2471" x="184.0562" y="1063.0625"/><text fill="#000000" font-family="Helvetica" font-size="10" x="191.0562" y="1079.3447">ZETA Client</text><rect fill="#FFE6CC" height="37.2813" rx="2.5" ry="2.5" style="stroke:#D79B00;stroke-width:0.5;" width="116.9492" x="489.6465" y="1063.0625"/><text fill="#000000" font-family="Helvetica" font-size="10" x="538.2407" y="1079.3447">PDP</text><text fill="#000000" font-family="Helvetica" font-size="10" x="496.6465" y="1090.9854">Authorization Server</text><rect fill="#FFE6CC" height="37.2813" rx="2.5" ry="2.5" style="stroke:#D79B00;stroke-width:0.5;" width="80.5723" x="869.2871" y="1063.0625"/><text fill="#000000" font-family="Helvetica" font-size="10" x="899.6929" y="1079.3447">PDP</text><text fill="#000000" font-family="Helvetica" font-size="10" x="876.2871" y="1090.9854">Policy Engine</text><line style="stroke:#181818;stroke-width:1;" x1="225.1797" x2="267.1797" y1="107.2031" y2="107.2031"/><line style="stroke:#181818;stroke-width:1;" x1="267.1797" x2="267.1797" y1="107.2031" y2="120.2031"/><line style="stroke:#181818;stroke-width:1;" x1="226.1797" x2="267.1797" y1="120.2031" y2="120.2031"/><polygon fill="#181818" points="236.1797,116.2031,226.1797,120.2031,236.1797,124.2031,232.1797,120.2031" style="stroke:#181818;stroke-width:1;"/><text fill="#000000" font-family="Helvetica" font-size="10" x="232.1797" y="102.8447">(01)</text><text fill="#000000" font-family="Helvetica" font-size="10" x="256.707" y="102.8447">Generiere subject_token</text><path d="M38.4268,132.2031 L268.8711,132.2031 L268.8711,135.8438 L258.8711,145.8438 L38.4268,145.8438 L38.4268,132.2031" fill="#EEEEEE" style="stroke:#000000;stroke-width:1.5;"/><rect fill="none" height="74.9219" style="stroke:#000000;stroke-width:1.5;" width="246.4443" x="38.4268" y="132.2031"/><text fill="#000000" font-family="Helvetica" font-size="10" font-weight="700" x="53.4268" y="142.4854">Sign Subject Token with SM(C)-B</text><polygon fill="#181818" points="75.4268,169.4844,65.4268,173.4844,75.4268,177.4844,71.4268,173.4844" style="stroke:#181818;stroke-width:1;"/><line style="stroke:#181818;stroke-width:1;" x1="69.4268" x2="214.1797" y1="173.4844" y2="173.4844"/><text fill="#000000" font-family="Helvetica" font-size="10" x="81.4268" y="169.126">(02)</text><text fill="#000000" font-family="Helvetica" font-size="10" x="105.9541" y="169.126">&#160;</text><polygon fill="#181818" points="203.1797,195.125,213.1797,199.125,203.1797,203.125,207.1797,199.125" style="stroke:#181818;stroke-width:1;"/><line style="stroke:#181818;stroke-width:1;stroke-dasharray:2,2;" x1="64.4268" x2="209.1797" y1="199.125" y2="199.125"/><text fill="#000000" font-family="Helvetica" font-size="10" x="71.4268" y="194.7666">(03)</text><text fill="#000000" font-family="Helvetica" font-size="10" x="95.9541" y="194.7666">&#160;</text><line style="stroke:#181818;stroke-width:1;" x1="225.1797" x2="267.1797" y1="238.7656" y2="238.7656"/><line style="stroke:#181818;stroke-width:1;" x1="267.1797" x2="267.1797" y1="238.7656" y2="251.7656"/><line style="stroke:#181818;stroke-width:1;" x1="226.1797" x2="267.1797" y1="251.7656" y2="251.7656"/><polygon fill="#181818" points="236.1797,247.7656,226.1797,251.7656,236.1797,255.7656,232.1797,251.7656" style="stroke:#181818;stroke-width:1;"/><text fill="#000000" font-family="Helvetica" font-size="10" x="232.1797" y="234.4072">(04)</text><text fill="#000000" font-family="Helvetica" font-size="10" x="256.707" y="234.4072">Create DPoP Key Pair (PrK.DPoP.Sig, PuK.DPoP.Sig)</text><path d="M523.6289,226.125 L523.6289,247.125 L749.6289,247.125 L749.6289,236.125 L739.6289,226.125 L523.6289,226.125" fill="#FEFFDD" style="stroke:#181818;stroke-width:0.5;"/><path d="M739.6289,226.125 L739.6289,236.125 L749.6289,236.125 L739.6289,226.125" fill="#FEFFDD" style="stroke:#181818;stroke-width:0.5;"/><text fill="#000000" font-family="Helvetica" font-size="10" x="529.6289" y="240.4072">Session-based Key Pair for DPoP binding.</text><line style="stroke:#181818;stroke-width:1;" x1="225.1797" x2="267.1797" y1="277.4063" y2="277.4063"/><line style="stroke:#181818;stroke-width:1;" x1="267.1797" x2="267.1797" y1="277.4063" y2="290.4063"/><line style="stroke:#181818;stroke-width:1;" x1="226.1797" x2="267.1797" y1="290.4063" y2="290.4063"/><polygon fill="#181818" points="236.1797,286.4063,226.1797,290.4063,236.1797,294.4063,232.1797,290.4063" style="stroke:#181818;stroke-width:1;"/><text fill="#000000" font-family="Helvetica" font-size="10" x="232.1797" y="273.0479">(05)</text><text fill="#000000" font-family="Helvetica" font-size="10" x="256.707" y="273.0479">Create DPoP Proof (with Nonce from AuthS)</text><polygon fill="#181818" points="531.1211,346.9688,541.1211,350.9688,531.1211,354.9688,535.1211,350.9688" style="stroke:#181818;stroke-width:1;"/><line style="stroke:#181818;stroke-width:1;" x1="225.1797" x2="537.1211" y1="350.9688" y2="350.9688"/><text fill="#000000" font-family="Helvetica" font-size="10" x="232.1797" y="329.1494">(06)</text><text fill="#000000" font-family="Helvetica" font-size="10" x="256.707" y="311.6885">POST /token dpop: dpop_proof</text><text fill="#000000" font-family="Helvetica" font-size="10" x="256.707" y="323.3291">{client_assertion (JWT, PrK.Client.Sig signiert),</text><text fill="#000000" font-family="Helvetica" font-size="10" x="256.707" y="334.9697">subject_token (SMC-B signiert, inkl. Nonce),</text><text fill="#000000" font-family="Helvetica" font-size="10" x="256.707" y="346.6104">[Evidence]}</text><line style="stroke:#181818;stroke-width:1;" x1="553.1211" x2="595.1211" y1="388.25" y2="388.25"/><line style="stroke:#181818;stroke-width:1;" x1="595.1211" x2="595.1211" y1="388.25" y2="401.25"/><line style="stroke:#181818;stroke-width:1;" x1="554.1211" x2="595.1211" y1="401.25" y2="401.25"/><polygon fill="#181818" points="564.1211,397.25,554.1211,401.25,564.1211,405.25,560.1211,401.25" style="stroke:#181818;stroke-width:1;"/><text fill="#000000" font-family="Helvetica" font-size="10" x="560.1211" y="378.0713">(07)</text><text fill="#000000" font-family="Helvetica" font-size="10" x="584.6484" y="372.251">Validate Request (Client Assertion, DPoP Proof,</text><text fill="#000000" font-family="Helvetica" font-size="10" x="584.6484" y="383.8916">Subject Token, Nonce and Key bindings from DCR)</text><path d="M532.1211,413.25 L592.0771,413.25 L592.0771,416.8906 L582.0771,426.8906 L532.1211,426.8906 L532.1211,413.25" fill="#EEEEEE" style="stroke:#000000;stroke-width:1.5;"/><rect fill="none" height="142.2031" style="stroke:#000000;stroke-width:1.5;" width="393.4521" x="532.1211" y="413.25"/><text fill="#000000" font-family="Helvetica" font-size="10" font-weight="700" x="547.1211" y="423.5322">alt</text><text fill="#000000" font-family="Helvetica" font-size="10" font-weight="700" x="607.0771" y="424.5322">[TPM Attestation (Windows / Linux)]</text><line style="stroke:#000000;stroke-width:1;stroke-dasharray:2,2;" x1="532.1211" x2="925.5732" y1="498.1719" y2="498.1719"/><text fill="#000000" font-family="Helvetica" font-size="10" font-weight="700" x="537.1211" y="509.4541">[macOS Attestation (Secure Enclave)]</text><line style="stroke:#181818;stroke-width:1;" x1="553.1211" x2="595.1211" y1="466.1719" y2="466.1719"/><line style="stroke:#181818;stroke-width:1;" x1="595.1211" x2="595.1211" y1="466.1719" y2="479.1719"/><line style="stroke:#181818;stroke-width:1;" x1="554.1211" x2="595.1211" y1="479.1719" y2="479.1719"/><polygon fill="#181818" points="564.1211,475.1719,554.1211,479.1719,564.1211,483.1719,560.1211,479.1719" style="stroke:#181818;stroke-width:1;"/><text fill="#000000" font-family="Helvetica" font-size="10" x="560.1211" y="455.9932">(08)</text><text fill="#000000" font-family="Helvetica" font-size="10" x="584.6484" y="450.1729">Verifiziere Hardware-Signatur (Quote) gegen extrahierte Nonce</text><text fill="#000000" font-family="Helvetica" font-size="10" x="584.6484" y="461.8135">PCR-Replay via Event Log</text><line style="stroke:#181818;stroke-width:1;" x1="553.1211" x2="595.1211" y1="534.4531" y2="534.4531"/><line style="stroke:#181818;stroke-width:1;" x1="595.1211" x2="595.1211" y1="534.4531" y2="547.4531"/><line style="stroke:#181818;stroke-width:1;" x1="554.1211" x2="595.1211" y1="547.4531" y2="547.4531"/><polygon fill="#181818" points="564.1211,543.4531,554.1211,547.4531,564.1211,551.4531,560.1211,547.4531" style="stroke:#181818;stroke-width:1;"/><text fill="#000000" font-family="Helvetica" font-size="10" x="560.1211" y="530.0947">(09)</text><text fill="#000000" font-family="Helvetica" font-size="10" x="584.6484" y="530.0947">Pr&#252;fe Signaturen und counter (Replay-Schutz)</text><path d="M166.1797,573.4531 L226.1357,573.4531 L226.1357,577.0938 L216.1357,587.0938 L166.1797,587.0938 L166.1797,573.4531" fill="#EEEEEE" style="stroke:#000000;stroke-width:1.5;"/><rect fill="none" height="465.6094" style="stroke:#000000;stroke-width:1.5;" width="764.3936" x="166.1797" y="573.4531"/><text fill="#000000" font-family="Helvetica" font-size="10" font-weight="700" x="181.1797" y="583.7354">alt</text><text fill="#000000" font-family="Helvetica" font-size="10" font-weight="700" x="241.1357" y="584.7354">[Validation successful]</text><line style="stroke:#000000;stroke-width:1;stroke-dasharray:2,2;" x1="166.1797" x2="930.5732" y1="994.7813" y2="994.7813"/><text fill="#000000" font-family="Helvetica" font-size="10" font-weight="700" x="171.1797" y="1006.0635">[Validation fehlerhaft]</text><line style="stroke:#181818;stroke-width:1;" x1="553.1211" x2="595.1211" y1="614.7344" y2="614.7344"/><line style="stroke:#181818;stroke-width:1;" x1="595.1211" x2="595.1211" y1="614.7344" y2="627.7344"/><line style="stroke:#181818;stroke-width:1;" x1="554.1211" x2="595.1211" y1="627.7344" y2="627.7344"/><polygon fill="#181818" points="564.1211,623.7344,554.1211,627.7344,564.1211,631.7344,560.1211,627.7344" style="stroke:#181818;stroke-width:1;"/><text fill="#000000" font-family="Helvetica" font-size="10" x="560.1211" y="610.376">(10)</text><text fill="#000000" font-family="Helvetica" font-size="10" x="584.6484" y="610.376">Policy Engine Input erstellen</text><polygon fill="#181818" points="892.5732,649.375,902.5732,653.375,892.5732,657.375,896.5732,653.375" style="stroke:#181818;stroke-width:1;"/><line style="stroke:#181818;stroke-width:1;" x1="553.1211" x2="898.5732" y1="653.375" y2="653.375"/><text fill="#000000" font-family="Helvetica" font-size="10" x="560.1211" y="649.0166">(11)</text><text fill="#000000" font-family="Helvetica" font-size="10" x="584.6484" y="649.0166">POST /v1/data/authz {Policy Engine Input}</text><polygon fill="#181818" points="564.1211,675.0156,554.1211,679.0156,564.1211,683.0156,560.1211,679.0156" style="stroke:#181818;stroke-width:1;"/><line style="stroke:#181818;stroke-width:1;stroke-dasharray:2,2;" x1="558.1211" x2="903.5732" y1="679.0156" y2="679.0156"/><text fill="#000000" font-family="Helvetica" font-size="10" x="570.1211" y="674.6572">(12)</text><text fill="#000000" font-family="Helvetica" font-size="10" x="594.6484" y="674.6572">Policy Decision</text><path d="M185.1797,691.0156 L245.1357,691.0156 L245.1357,694.6563 L235.1357,704.6563 L185.1797,704.6563 L185.1797,691.0156" fill="#EEEEEE" style="stroke:#000000;stroke-width:1.5;"/><rect fill="none" height="278.7656" style="stroke:#000000;stroke-width:1.5;" width="711.0479" x="185.1797" y="691.0156"/><text fill="#000000" font-family="Helvetica" font-size="10" font-weight="700" x="200.1797" y="701.2979">alt</text><text fill="#000000" font-family="Helvetica" font-size="10" font-weight="700" x="260.1357" y="702.2979">[Policy Decision allow]</text><line style="stroke:#000000;stroke-width:1;stroke-dasharray:2,2;" x1="185.1797" x2="896.2275" y1="925.5" y2="925.5"/><text fill="#000000" font-family="Helvetica" font-size="10" font-weight="700" x="190.1797" y="936.7822">[Policy Decision deny]</text><line style="stroke:#181818;stroke-width:1;" x1="553.1211" x2="595.1211" y1="732.2969" y2="732.2969"/><line style="stroke:#181818;stroke-width:1;" x1="595.1211" x2="595.1211" y1="732.2969" y2="745.2969"/><line style="stroke:#181818;stroke-width:1;" x1="554.1211" x2="595.1211" y1="745.2969" y2="745.2969"/><polygon fill="#181818" points="564.1211,741.2969,554.1211,745.2969,564.1211,749.2969,560.1211,745.2969" style="stroke:#181818;stroke-width:1;"/><text fill="#000000" font-family="Helvetica" font-size="10" x="560.1211" y="727.9385">(13)</text><text fill="#000000" font-family="Helvetica" font-size="10" x="584.6484" y="727.9385">Create Token (Access Token, Refresh Token)</text><path d="M204.1797,757.2969 L264.1357,757.2969 L264.1357,760.9375 L254.1357,770.9375 L204.1797,770.9375 L204.1797,757.2969" fill="#EEEEEE" style="stroke:#000000;stroke-width:1.5;"/><rect fill="none" height="143.2031" style="stroke:#000000;stroke-width:1.5;" width="667.0479" x="204.1797" y="757.2969"/><text fill="#000000" font-family="Helvetica" font-size="10" font-weight="700" x="219.1797" y="767.5791">alt</text><text fill="#000000" font-family="Helvetica" font-size="10" font-weight="700" x="279.1357" y="768.5791">[Hardware Attestation  (TPM / SE)]</text><line style="stroke:#000000;stroke-width:1;stroke-dasharray:2,2;" x1="204.1797" x2="871.2275" y1="856.2188" y2="856.2188"/><text fill="#000000" font-family="Helvetica" font-size="10" font-weight="700" x="209.1797" y="867.501">[Software Attestation (Fallback)]</text><line style="stroke:#181818;stroke-width:1;" x1="553.1211" x2="595.1211" y1="798.5781" y2="798.5781"/><line style="stroke:#181818;stroke-width:1;" x1="595.1211" x2="595.1211" y1="798.5781" y2="811.5781"/><line style="stroke:#181818;stroke-width:1;" x1="554.1211" x2="595.1211" y1="811.5781" y2="811.5781"/><polygon fill="#181818" points="564.1211,807.5781,554.1211,811.5781,564.1211,815.5781,560.1211,811.5781" style="stroke:#181818;stroke-width:1;"/><text fill="#000000" font-family="Helvetica" font-size="10" x="560.1211" y="794.2197">(14)</text><text fill="#000000" font-family="Helvetica" font-size="10" x="584.6484" y="794.2197">Create ZETA Guard Attestation Token (zg_att_token)</text><polygon fill="#181818" points="236.1797,833.2188,226.1797,837.2188,236.1797,841.2188,232.1797,837.2188" style="stroke:#181818;stroke-width:1;"/><line style="stroke:#181818;stroke-width:1;stroke-dasharray:2,2;" x1="230.1797" x2="542.1211" y1="837.2188" y2="837.2188"/><text fill="#000000" font-family="Helvetica" font-size="10" x="242.1797" y="832.8604">(15)</text><text fill="#000000" font-family="Helvetica" font-size="10" x="266.707" y="832.8604">200 OK {Access Token, Refresh Token, zg_att_token}</text><polygon fill="#181818" points="236.1797,888.5,226.1797,892.5,236.1797,896.5,232.1797,892.5" style="stroke:#181818;stroke-width:1;"/><line style="stroke:#181818;stroke-width:1;stroke-dasharray:2,2;" x1="230.1797" x2="542.1211" y1="892.5" y2="892.5"/><text fill="#000000" font-family="Helvetica" font-size="10" x="242.1797" y="888.1416">(16)</text><text fill="#000000" font-family="Helvetica" font-size="10" x="266.707" y="888.1416">200 OK {Access Token, Refresh Token}</text><polygon fill="#181818" points="236.1797,957.7813,226.1797,961.7813,236.1797,965.7813,232.1797,961.7813" style="stroke:#181818;stroke-width:1;"/><line style="stroke:#181818;stroke-width:1;stroke-dasharray:2,2;" x1="230.1797" x2="542.1211" y1="961.7813" y2="961.7813"/><text fill="#000000" font-family="Helvetica" font-size="10" x="242.1797" y="957.4229">(17)</text><text fill="#000000" font-family="Helvetica" font-size="10" x="266.707" y="957.4229">403 Forbidden</text><polygon fill="#181818" points="236.1797,1027.0625,226.1797,1031.0625,236.1797,1035.0625,232.1797,1031.0625" style="stroke:#181818;stroke-width:1;"/><line style="stroke:#181818;stroke-width:1;stroke-dasharray:2,2;" x1="230.1797" x2="547.1211" y1="1031.0625" y2="1031.0625"/><text fill="#000000" font-family="Helvetica" font-size="10" x="242.1797" y="1026.7041">(18)</text><text fill="#000000" font-family="Helvetica" font-size="10" x="266.707" y="1026.7041">403 Forbidden</text><?plantuml-src hLRRSk9647tNL_IIXq3PsApNkzcuNAu29BoEZL4GMLSIfro3r4Yp5ZDaDC86b_ycdv6t_R7qw082uqqUuYgCHjDz-dJtcHvOggL8fsDKKAktMesQbTnpCMEAJI702KjZtPD2Uto9yBQrU_EQJH4-OJn7pNrMiR5pcxuKCfan7uELTLUcYgEgsCOeGXsrWozfea58WPMz1FzCKVWun0agyz1X_dseP2g2heobWfk8wwg3j-smpk5e1suVauI5s8vvA8Z8H5iH3n0IJSvIBsPeMTz3Hpw2Rw8brXjAdWk4tvnH--xyb_RGlkiEhWP3-AxNwxrptgyChfoBSkSyaedEUMxkzjt1jNCzAksSO-UuTxooSOSN_ROpz7xrHaw_jBbYSnG1bMzjDVXyOJl35OZTivskOUqoHKtXCoPqoVuqqOiOpwmoUvkpq5JZoGAOLSpD6k1WYPeLpm3RXQU4dG_TRh5xHLoAz_OFFtPQhUpzSuupKt9ELLMlOzdldO_syKkiZqUTTny-hB3C9-OJZ4tcETXkFMp2T68oojoVhTF3eWPK8SrrZ32IzoZ0UVGZ9aA41wuZQ6kDYMQQIs5PRsQAXLC66kKIj4f94sDIH8sQM5ltUQk4br88lDSKdILGMw-akXMZY-Ovq_Z05hLTIjX2ylgT3CFhrxkDPkSrbuoIg_ZqwrygMP20fxLT4ifAKuNlnXpfoqGmeYxMDJWzDUq_EoC7Kfo1jyhlFFss67EaSmAZ2pWwQ85DVeckRIcoP9PXdwTC1RKNX-S5ftQg8o-ZvDhkhJ1BgVWowmUTS3L7jK5mqtlWjjU-heovlm17X2I7RsULPxwtLpn0ywmenWcSeq0pjMWofEClwEixRLHZMKPwC_3CzF3odK9FcOoAbcKCrw1hCL0iixL-qLp5f4Su0KFEUi67DheAIK5WkzA5IrpGOUSAwgwwF32l3eZGFhZfUjMmX2HxnSE8ql5ewb4fcsEMOB3sdn23377CHS15UF2leLqbvGJgMRBNaYOAJ9ISvlrhL9op5tjx9-0El14SPiM3O2Pd9zd_kvd1kHLFVkPnnv84LTRi-ayt8yg4yih1J2wGKBcf6RgnVois-W5rhzzjTbO6-y35VNoGKpFMlpjc4D7YZsVBobLMiZk1popcWKbjQCOZtKNr8e5sIMU_aZMXRNHyloW04tb5YnecUKNixh01nP_5Ol9n-zKf0_KRifSF2HoQmPK-DZ9blA18AfpmPQR4JtIM7fZ2fb4Vqodr_-UKcjo044Eg1JvgnI9J1iofqM7e3fj3dCLi0NFEm9cRxAvaQ66S84oPF_0sINdefnJA4NvC5yzkJgxw-lS4eMH1aMaOqusJ2ZCSwdcyfkT7gLusCa6R_8jYcoX9wliao4aQxyQldc2u4BDK0oeQS37zSDZqe9E_5jdyxI45O8UCTfVmj0CclvxCk6YMuPhDLK0RVPva5u2nCfotDkXTB1-iigtRl8jpae-3UZlBiPGA_JfHc4Jvih62C47Ajcuq0kf6BuVWEMlZRyHS3ziDb8BAChnZkZWnE-4gW--erOB19JnzW_u-L06VLu2PfZmvqI-ogVUeScEwa_-7w9LufAnLtErMqQ5VMAy5Caq_Rhs3dbHZ7WI5gWnUXbMHwWIZ65N4w7VYVmCo8Fy0?></g></svg>