<svg xmlns="http://www.w3.org/2000/svg" xmlns:xlink="http://www.w3.org/1999/xlink" contentStyleType="text/css" data-diagram-type="SEQUENCE" height="733px" preserveAspectRatio="none" style="width:683px;height:733px;background:#FFFFFF;" version="1.1" viewBox="0 0 683 733" width="683px" zoomAndPan="magnify"><?plantuml 1.2026.3?><defs/><g><rect fill="#FEFCFF" height="707.6563" style="stroke:#181818;stroke-width:0.5;" width="102.1934" x="16" y="11"/><text fill="#000000" font-family="Helvetica" font-size="10" font-weight="700" x="48.2271" y="20.2822">Device</text><rect fill="#E6E6FA" height="691.0156" style="stroke:#181818;stroke-width:0.5;" width="102.1934" x="16" y="27.6406"/><text fill="#000000" font-family="Helvetica" font-size="10" font-weight="700" x="28" y="36.9229">Prim&#228;rsystem</text><rect fill="#EDFDEC" height="707.6563" style="stroke:#181818;stroke-width:0.5;" width="374.2578" x="292.71" y="11"/><text fill="#000000" font-family="Helvetica" font-size="10" font-weight="700" x="417.9468" y="20.2822">Anbieter TI 2.0 Dienst</text><rect fill="#FFF3E5" height="691.0156" style="stroke:#181818;stroke-width:0.5;" width="374.2578" x="292.71" y="27.6406"/><text fill="#000000" font-family="Helvetica" font-size="10" font-weight="700" x="446.6943" y="36.9229">ZETA Guard</text><g><title>ZETA Client</title><rect fill="#000000" fill-opacity="0.00000" height="592.8125" width="8" x="63.5967" y="81.5625"/><line style="stroke:#000000;stroke-width:0.5;stroke-dasharray:5,5;" x1="67.0967" x2="67.0967" y1="81.5625" y2="674.375"/></g><g><title/><rect fill="#FFFFFF" height="584.8125" style="stroke:#181818;stroke-width:1;" width="10" x="62.0967" y="89.5625"/></g><g><title>PDP</title><rect fill="#000000" fill-opacity="0.00000" height="592.8125" width="8" x="351.6846" y="81.5625"/><line style="stroke:#000000;stroke-width:0.5;stroke-dasharray:5,5;" x1="355.1846" x2="355.1846" y1="81.5625" y2="674.375"/></g><g><title/><rect fill="#FFFFFF" height="365.3281" style="stroke:#181818;stroke-width:1;" width="10" x="350.1846" y="207.7656"/></g><g><title>PDP</title><rect fill="#000000" fill-opacity="0.00000" height="592.8125" width="8" x="619.1816" y="81.5625"/><line style="stroke:#000000;stroke-width:0.5;stroke-dasharray:5,5;" x1="622.6816" x2="622.6816" y1="81.5625" y2="674.375"/></g><g><title/><rect fill="#FFFFFF" height="25.6406" style="stroke:#181818;stroke-width:1;" width="10" x="617.6816" y="427.25"/></g><rect fill="#FFE6CC" height="25.6406" rx="2.5" ry="2.5" style="stroke:#D79B00;stroke-width:0.5;" width="72.2471" x="30.9731" y="54.9219"/><text fill="#000000" font-family="Helvetica" font-size="10" x="37.9731" y="71.2041">ZETA Client</text><rect fill="#FFE6CC" height="37.2813" rx="2.5" ry="2.5" style="stroke:#D79B00;stroke-width:0.5;" width="116.9492" x="296.71" y="43.2813"/><text fill="#000000" font-family="Helvetica" font-size="10" x="345.3042" y="59.5635">PDP</text><text fill="#000000" font-family="Helvetica" font-size="10" x="303.71" y="71.2041">Authorization Server</text><rect fill="#FFE6CC" height="37.2813" rx="2.5" ry="2.5" style="stroke:#D79B00;stroke-width:0.5;" width="80.5723" x="582.3955" y="43.2813"/><text fill="#000000" font-family="Helvetica" font-size="10" x="612.8013" y="59.5635">PDP</text><text fill="#000000" font-family="Helvetica" font-size="10" x="589.3955" y="71.2041">Policy Engine</text><rect fill="#FFE6CC" height="25.6406" rx="2.5" ry="2.5" style="stroke:#D79B00;stroke-width:0.5;" width="72.2471" x="30.9731" y="674.375"/><text fill="#000000" font-family="Helvetica" font-size="10" x="37.9731" y="690.6572">ZETA Client</text><rect fill="#FFE6CC" height="37.2813" rx="2.5" ry="2.5" style="stroke:#D79B00;stroke-width:0.5;" width="116.9492" x="296.71" y="674.375"/><text fill="#000000" font-family="Helvetica" font-size="10" x="345.3042" y="690.6572">PDP</text><text fill="#000000" font-family="Helvetica" font-size="10" x="303.71" y="702.2979">Authorization Server</text><rect fill="#FFE6CC" height="37.2813" rx="2.5" ry="2.5" style="stroke:#D79B00;stroke-width:0.5;" width="80.5723" x="582.3955" y="674.375"/><text fill="#000000" font-family="Helvetica" font-size="10" x="612.8013" y="690.6572">PDP</text><text fill="#000000" font-family="Helvetica" font-size="10" x="589.3955" y="702.2979">Policy Engine</text><line style="stroke:#181818;stroke-width:1;" x1="72.0967" x2="114.0967" y1="107.2031" y2="107.2031"/><line style="stroke:#181818;stroke-width:1;" x1="114.0967" x2="114.0967" y1="107.2031" y2="120.2031"/><line style="stroke:#181818;stroke-width:1;" x1="73.0967" x2="114.0967" y1="120.2031" y2="120.2031"/><polygon fill="#181818" points="83.0967,116.2031,73.0967,120.2031,83.0967,124.2031,79.0967,120.2031" style="stroke:#181818;stroke-width:1;"/><text fill="#000000" font-family="Helvetica" font-size="10" x="79.0967" y="102.8447">(01)</text><text fill="#000000" font-family="Helvetica" font-size="10" x="103.624" y="102.8447">Create DPoP Proof (without Nonce)</text><line style="stroke:#181818;stroke-width:1;" x1="72.0967" x2="114.0967" y1="145.8438" y2="145.8438"/><line style="stroke:#181818;stroke-width:1;" x1="114.0967" x2="114.0967" y1="145.8438" y2="158.8438"/><line style="stroke:#181818;stroke-width:1;" x1="73.0967" x2="114.0967" y1="158.8438" y2="158.8438"/><polygon fill="#181818" points="83.0967,154.8438,73.0967,158.8438,83.0967,162.8438,79.0967,158.8438" style="stroke:#181818;stroke-width:1;"/><text fill="#000000" font-family="Helvetica" font-size="10" x="79.0967" y="141.4854">(02)</text><text fill="#000000" font-family="Helvetica" font-size="10" x="103.624" y="141.4854">Create Client Assertion JWT (without Attestation)</text><polygon fill="#181818" points="338.1846,203.7656,348.1846,207.7656,338.1846,211.7656,342.1846,207.7656" style="stroke:#181818;stroke-width:1;"/><line style="stroke:#181818;stroke-width:1;" x1="72.0967" x2="344.1846" y1="207.7656" y2="207.7656"/><text fill="#000000" font-family="Helvetica" font-size="10" x="79.0967" y="191.7666">(03)</text><text fill="#000000" font-family="Helvetica" font-size="10" x="103.624" y="180.126">POST /token dpop: dpop_proof</text><text fill="#000000" font-family="Helvetica" font-size="10" x="103.624" y="191.7666">{client_assertion (JWT, PrK.Client.Sig signiert),</text><text fill="#000000" font-family="Helvetica" font-size="10" x="103.624" y="203.4072">refresh_token}</text><line style="stroke:#181818;stroke-width:1;" x1="360.1846" x2="402.1846" y1="245.0469" y2="245.0469"/><line style="stroke:#181818;stroke-width:1;" x1="402.1846" x2="402.1846" y1="245.0469" y2="258.0469"/><line style="stroke:#181818;stroke-width:1;" x1="361.1846" x2="402.1846" y1="258.0469" y2="258.0469"/><polygon fill="#181818" points="371.1846,254.0469,361.1846,258.0469,371.1846,262.0469,367.1846,258.0469" style="stroke:#181818;stroke-width:1;"/><text fill="#000000" font-family="Helvetica" font-size="10" x="367.1846" y="234.8682">(04)</text><text fill="#000000" font-family="Helvetica" font-size="10" x="391.7119" y="229.0479">Validate Request (Client Assertion,</text><text fill="#000000" font-family="Helvetica" font-size="10" x="391.7119" y="240.6885">DPoP Proof, Refresh Token)</text><line style="stroke:#181818;stroke-width:1;" x1="360.1846" x2="402.1846" y1="283.6875" y2="283.6875"/><line style="stroke:#181818;stroke-width:1;" x1="402.1846" x2="402.1846" y1="283.6875" y2="296.6875"/><line style="stroke:#181818;stroke-width:1;" x1="361.1846" x2="402.1846" y1="296.6875" y2="296.6875"/><polygon fill="#181818" points="371.1846,292.6875,361.1846,296.6875,371.1846,300.6875,367.1846,296.6875" style="stroke:#181818;stroke-width:1;"/><text fill="#000000" font-family="Helvetica" font-size="10" x="367.1846" y="279.3291">(05)</text><text fill="#000000" font-family="Helvetica" font-size="10" x="391.7119" y="279.3291">Pr&#252;fe Sperrstatus (OCSP/CRL) der SM(C)-B</text><line style="stroke:#181818;stroke-width:1;" x1="360.1846" x2="402.1846" y1="322.3281" y2="322.3281"/><line style="stroke:#181818;stroke-width:1;" x1="402.1846" x2="402.1846" y1="322.3281" y2="335.3281"/><line style="stroke:#181818;stroke-width:1;" x1="361.1846" x2="402.1846" y1="335.3281" y2="335.3281"/><polygon fill="#181818" points="371.1846,331.3281,361.1846,335.3281,371.1846,339.3281,367.1846,335.3281" style="stroke:#181818;stroke-width:1;"/><text fill="#000000" font-family="Helvetica" font-size="10" x="367.1846" y="317.9697">(06)</text><text fill="#000000" font-family="Helvetica" font-size="10" x="391.7119" y="317.9697">Invalidate Refresh token</text><path d="M32.0967,347.3281 L92.0527,347.3281 L92.0527,350.9688 L82.0527,360.9688 L32.0967,360.9688 L32.0967,347.3281" fill="#EEEEEE" style="stroke:#000000;stroke-width:1.5;"/><rect fill="none" height="303.0469" style="stroke:#000000;stroke-width:1.5;" width="611.585" x="32.0967" y="347.3281"/><text fill="#000000" font-family="Helvetica" font-size="10" font-weight="700" x="47.0967" y="357.6104">alt</text><text fill="#000000" font-family="Helvetica" font-size="10" font-weight="700" x="107.0527" y="358.6104">[Validation successful]</text><line style="stroke:#000000;stroke-width:1;stroke-dasharray:2,2;" x1="32.0967" x2="643.6816" y1="606.0938" y2="606.0938"/><text fill="#000000" font-family="Helvetica" font-size="10" font-weight="700" x="37.0967" y="617.376">[Validation fehlerhaft]</text><line style="stroke:#181818;stroke-width:1;" x1="360.1846" x2="402.1846" y1="388.6094" y2="388.6094"/><line style="stroke:#181818;stroke-width:1;" x1="402.1846" x2="402.1846" y1="388.6094" y2="401.6094"/><line style="stroke:#181818;stroke-width:1;" x1="361.1846" x2="402.1846" y1="401.6094" y2="401.6094"/><polygon fill="#181818" points="371.1846,397.6094,361.1846,401.6094,371.1846,405.6094,367.1846,401.6094" style="stroke:#181818;stroke-width:1;"/><text fill="#000000" font-family="Helvetica" font-size="10" x="367.1846" y="384.251">(07)</text><text fill="#000000" font-family="Helvetica" font-size="10" x="391.7119" y="384.251">Policy Engine Input erstellen</text><polygon fill="#181818" points="605.6816,423.25,615.6816,427.25,605.6816,431.25,609.6816,427.25" style="stroke:#181818;stroke-width:1;"/><line style="stroke:#181818;stroke-width:1;" x1="360.1846" x2="611.6816" y1="427.25" y2="427.25"/><text fill="#000000" font-family="Helvetica" font-size="10" x="367.1846" y="422.8916">(08)</text><text fill="#000000" font-family="Helvetica" font-size="10" x="391.7119" y="422.8916">POST /v1/data/authz {Policy Engine Input}</text><polygon fill="#181818" points="371.1846,448.8906,361.1846,452.8906,371.1846,456.8906,367.1846,452.8906" style="stroke:#181818;stroke-width:1;"/><line style="stroke:#181818;stroke-width:1;stroke-dasharray:2,2;" x1="365.1846" x2="616.6816" y1="452.8906" y2="452.8906"/><text fill="#000000" font-family="Helvetica" font-size="10" x="377.1846" y="448.5322">(09)</text><text fill="#000000" font-family="Helvetica" font-size="10" x="401.7119" y="448.5322">Policy Decision</text><path d="M51.0967,464.8906 L111.0527,464.8906 L111.0527,468.5313 L101.0527,478.5313 L51.0967,478.5313 L51.0967,464.8906" fill="#EEEEEE" style="stroke:#000000;stroke-width:1.5;"/><rect fill="none" height="116.2031" style="stroke:#000000;stroke-width:1.5;" width="320.0879" x="51.0967" y="464.8906"/><text fill="#000000" font-family="Helvetica" font-size="10" font-weight="700" x="66.0967" y="475.1729">alt</text><text fill="#000000" font-family="Helvetica" font-size="10" font-weight="700" x="126.0527" y="476.1729">[Policy Decision allow]</text><line style="stroke:#000000;stroke-width:1;stroke-dasharray:2,2;" x1="51.0967" x2="371.1846" y1="536.8125" y2="536.8125"/><text fill="#000000" font-family="Helvetica" font-size="10" font-weight="700" x="56.0967" y="548.0947">[Policy Decision deny]</text><polygon fill="#181818" points="83.0967,513.8125,73.0967,517.8125,83.0967,521.8125,79.0967,517.8125" style="stroke:#181818;stroke-width:1;"/><line style="stroke:#181818;stroke-width:1;stroke-dasharray:2,2;" x1="77.0967" x2="349.1846" y1="517.8125" y2="517.8125"/><text fill="#000000" font-family="Helvetica" font-size="10" x="89.0967" y="507.6338">(10)</text><text fill="#000000" font-family="Helvetica" font-size="10" x="113.624" y="501.8135">200 OK</text><text fill="#000000" font-family="Helvetica" font-size="10" x="113.624" y="513.4541">{Access Token, Refresh Token}</text><polygon fill="#181818" points="83.0967,569.0938,73.0967,573.0938,83.0967,577.0938,79.0967,573.0938" style="stroke:#181818;stroke-width:1;"/><line style="stroke:#181818;stroke-width:1;stroke-dasharray:2,2;" x1="77.0967" x2="349.1846" y1="573.0938" y2="573.0938"/><text fill="#000000" font-family="Helvetica" font-size="10" x="89.0967" y="568.7354">(11)</text><text fill="#000000" font-family="Helvetica" font-size="10" x="113.624" y="568.7354">403 Forbidden</text><polygon fill="#181818" points="83.0967,638.375,73.0967,642.375,83.0967,646.375,79.0967,642.375" style="stroke:#181818;stroke-width:1;"/><line style="stroke:#181818;stroke-width:1;stroke-dasharray:2,2;" x1="77.0967" x2="354.1846" y1="642.375" y2="642.375"/><text fill="#000000" font-family="Helvetica" font-size="10" x="89.0967" y="638.0166">(12)</text><text fill="#000000" font-family="Helvetica" font-size="10" x="113.624" y="638.0166">403 Forbidden</text><?plantuml-src VPBVRjem5CRlynIdt0n4-RDkLwYgb2LPnLgMA66TDbL2Rd80QyRER8SMghxD7cDtVR7PJe52kzuaSUplExzp_1rHdhEgGEXsUsMrO1r6LgBINNsdFSzx1vfgXZ0Mlv13T9VF2PyXt58zXnId4jMytlEyerAIsOA0Hh46BIlql1jn1uqGbpJ71eJHrJ289a5y6QSUWDjB95qy_f5gfJGk6f2amv4VfTcFR1oDjYS1IY8rpMb9k8Q0KJGleg3nCnhxJ-i6d9wkKPEpCoD0NbXxR_EkENn-Gr6ZXF4GJhfz28rEQLiqlXg6KRfFvhpFAoAB1jZloVatFmt_m-HNUfuvf2HChhbT2adNH5F18KEvHBa7kA-E4t-dJGIZ-GeYFgCSt-wgxhpTtdn1vsmpdG444eb621EHG2A5c4BJNfgvMVWgU8wjDqHFQryfbAw5Bz_7ExclDIhjUdjkucRGRWyWYRCnzBGBJ56ASk2Uaz92NFFxt2acP6lUDEx7Xl6YMvjrCpe3HMUScWEjusikwvnDdEM3LmzxKz5GNn562ykTuk_Ae47pi05ZiXl4yNvmMoyD4_duTugGbIYbxRHIq8o3BEa5wMKB2XEXRDGCMfrF1z813Fbo1rCNSTGUONh3QNjMLPwZKjEAcOizDDcBWB4ipT3HW21ZnkdPUHEStS2Nxtl6dFI8sLt3_Iic3qPhizRPbEfqjiL2pAaoPEQ8HJtuQ_unSUk2-rHycve1dFJx45-Oc_LTJ_LK3uPiIoDJ-CAuGBvwrTUoVUn_WCz2tj2YS8tRv1iwppazc-OKvmpbd4orznhWlit6v1y0?></g></svg>