<svg xmlns="http://www.w3.org/2000/svg" xmlns:xlink="http://www.w3.org/1999/xlink" contentStyleType="text/css" data-diagram-type="SEQUENCE" height="1580px" preserveAspectRatio="none" style="width:694px;height:1580px;background:#FFFFFF;" version="1.1" viewBox="0 0 694 1580" width="694px" zoomAndPan="magnify"><?plantuml 1.2026.3?><defs/><g><g class="title" data-source-line="5"><text fill="#000000" font-family="Helvetica" font-size="14" font-weight="700" x="137.5537" y="27.9951">&#220;berblick Attestierungsabl&#228;ufe nach Betriebssystem</text></g><rect fill="#FEFCFF" height="1516.75" style="stroke:#181818;stroke-width:0.5;" width="301.9985" x="16" y="48.2969"/><text fill="#000000" font-family="Helvetica" font-size="10" font-weight="700" x="148.1296" y="57.5791">Device</text><rect fill="#E6E6FA" height="1500.1094" style="stroke:#181818;stroke-width:0.5;" width="102.1934" x="16" y="64.9375"/><text fill="#000000" font-family="Helvetica" font-size="10" font-weight="700" x="28" y="74.2197">Prim&#228;rsystem</text><rect fill="#FFF3E5" height="1516.75" style="stroke:#181818;stroke-width:0.5;" width="124.9492" x="344.6553" y="48.2969"/><text fill="#000000" font-family="Helvetica" font-size="10" font-weight="700" x="373.9854" y="57.5791">ZETA Guard</text><g><title>ZETA Client</title><rect fill="#000000" fill-opacity="0.00000" height="1425.1875" width="8" x="63.5967" y="107.2188"/><line style="stroke:#000000;stroke-width:0.5;stroke-dasharray:5,5;" x1="67.0967" x2="67.0967" y1="107.2188" y2="1532.4063"/></g><g><title>ZETA Attestation Service</title><rect fill="#000000" fill-opacity="0.00000" height="1425.1875" width="8" x="241.1572" y="107.2188"/><line style="stroke:#000000;stroke-width:0.5;stroke-dasharray:5,5;" x1="244.6572" x2="244.6572" y1="107.2188" y2="1532.4063"/></g><g><title/><rect fill="#FFFFFF" height="75.9219" style="stroke:#181818;stroke-width:1;" width="10" x="239.6572" y="345.3438"/></g><g><title/><rect fill="#FFFFFF" height="64.2813" style="stroke:#181818;stroke-width:1;" width="10" x="239.6572" y="446.9063"/></g><g><title>Authorization Server</title><rect fill="#000000" fill-opacity="0.00000" height="1425.1875" width="8" x="403.6299" y="107.2188"/><line style="stroke:#000000;stroke-width:0.5;stroke-dasharray:5,5;" x1="407.1299" x2="407.1299" y1="107.2188" y2="1532.4063"/></g><g><title/><rect fill="#FFFFFF" height="995.5781" style="stroke:#181818;stroke-width:1;" width="10" x="402.1299" y="536.8281"/></g><g><title/><rect fill="#FFFFFF" height="824.375" style="stroke:#181818;stroke-width:1;" width="10" x="407.1299" y="708.0313"/></g><g><title/><rect fill="#FFFFFF" height="558.25" style="stroke:#181818;stroke-width:1;" width="10" x="412.1299" y="974.1563"/></g><g><title/><rect fill="#FFFFFF" height="355.0469" style="stroke:#181818;stroke-width:1;" width="10" x="417.1299" y="1145.3594"/></g><g><title/><rect fill="#FFFFFF" height="103.5625" style="stroke:#181818;stroke-width:1;" width="10" x="422.1299" y="1302.9219"/></g><rect fill="#FFE6CC" height="25.6406" rx="2.5" ry="2.5" style="stroke:#D79B00;stroke-width:0.5;" width="72.2471" x="30.9731" y="80.5781"/><text fill="#000000" font-family="Helvetica" font-size="10" x="37.9731" y="96.8604">ZETA Client</text><rect fill="#FFE6CC" height="25.6406" rx="2.5" ry="2.5" style="stroke:#D79B00;stroke-width:0.5;" width="138.6826" x="175.3159" y="80.5781"/><text fill="#000000" font-family="Helvetica" font-size="10" x="182.3159" y="96.8604">ZETA Attestation Service</text><rect fill="#FFE6CC" height="25.6406" rx="2.5" ry="2.5" style="stroke:#D79B00;stroke-width:0.5;" width="116.9492" x="348.6553" y="80.5781"/><text fill="#000000" font-family="Helvetica" font-size="10" x="355.6553" y="96.8604">Authorization Server</text><rect fill="#FFE6CC" height="25.6406" rx="2.5" ry="2.5" style="stroke:#D79B00;stroke-width:0.5;" width="72.2471" x="30.9731" y="1532.4063"/><text fill="#000000" font-family="Helvetica" font-size="10" x="37.9731" y="1548.6885">ZETA Client</text><rect fill="#FFE6CC" height="25.6406" rx="2.5" ry="2.5" style="stroke:#D79B00;stroke-width:0.5;" width="138.6826" x="175.3159" y="1532.4063"/><text fill="#000000" font-family="Helvetica" font-size="10" x="182.3159" y="1548.6885">ZETA Attestation Service</text><rect fill="#FFE6CC" height="25.6406" rx="2.5" ry="2.5" style="stroke:#D79B00;stroke-width:0.5;" width="116.9492" x="348.6553" y="1532.4063"/><text fill="#000000" font-family="Helvetica" font-size="10" x="355.6553" y="1548.6885">Authorization Server</text><rect fill="#EEEEEE" height="3" style="stroke:#EEEEEE;stroke-width:1;" width="673.8994" x="10" y="134.0391"/><line style="stroke:#000000;stroke-width:1;" x1="10" x2="683.8994" y1="134.0391" y2="134.0391"/><line style="stroke:#000000;stroke-width:1;" x1="10" x2="683.8994" y1="137.0391" y2="137.0391"/><rect fill="#EEEEEE" height="19.6406" style="stroke:#000000;stroke-width:2;" width="62.96" x="315.4697" y="125.2188"/><text fill="#000000" font-family="Helvetica" font-size="10" font-weight="700" x="321.4697" y="138.501">Einstieg</text><line style="stroke:#181818;stroke-width:1;" x1="67.0967" x2="109.0967" y1="184.1406" y2="184.1406"/><line style="stroke:#181818;stroke-width:1;" x1="109.0967" x2="109.0967" y1="184.1406" y2="197.1406"/><line style="stroke:#181818;stroke-width:1;" x1="68.0967" x2="109.0967" y1="197.1406" y2="197.1406"/><polygon fill="#181818" points="78.0967,193.1406,68.0967,197.1406,78.0967,201.1406,74.0967,197.1406" style="stroke:#181818;stroke-width:1;"/><text fill="#000000" font-family="Helvetica" font-size="10" x="74.0967" y="173.9619">(01)</text><text fill="#000000" font-family="Helvetica" font-size="10" x="98.624" y="168.1416">Installation &amp; Start</text><text fill="#000000" font-family="Helvetica" font-size="10" x="98.624" y="179.7822">Schl&#252;sselgenerierung</text><rect fill="#EEEEEE" height="3" style="stroke:#EEEEEE;stroke-width:1;" width="673.8994" x="10" y="223.9609"/><line style="stroke:#000000;stroke-width:1;" x1="10" x2="683.8994" y1="223.9609" y2="223.9609"/><line style="stroke:#000000;stroke-width:1;" x1="10" x2="683.8994" y1="226.9609" y2="226.9609"/><rect fill="#EEEEEE" height="19.6406" style="stroke:#000000;stroke-width:2;" width="166.4561" x="263.7217" y="215.1406"/><text fill="#000000" font-family="Helvetica" font-size="10" font-weight="700" x="269.7217" y="228.4229">Wahl des Betriebssystems</text><path d="M13.0967,248.7813 L73.0527,248.7813 L73.0527,252.4219 L63.0527,262.4219 L13.0967,262.4219 L13.0967,248.7813" fill="#EEEEEE" style="stroke:#000000;stroke-width:1.5;"/><rect fill="none" height="971.2188" style="stroke:#000000;stroke-width:1.5;" width="661.8027" x="13.0967" y="248.7813"/><text fill="#000000" font-family="Helvetica" font-size="10" font-weight="700" x="28.0967" y="259.0635">alt</text><text fill="#000000" font-family="Helvetica" font-size="10" font-weight="700" x="88.0527" y="260.0635">[Windows / Linux]</text><line style="stroke:#000000;stroke-width:1;stroke-dasharray:2,2;" x1="13.0967" x2="674.8994" y1="793.6719" y2="793.6719"/><text fill="#000000" font-family="Helvetica" font-size="10" font-weight="700" x="18.0967" y="804.9541">[macOS]</text><path d="M32.0967,276.4219 L198.0635,276.4219 L198.0635,280.0625 L188.0635,290.0625 L32.0967,290.0625 L32.0967,276.4219" fill="#EEEEEE" style="stroke:#000000;stroke-width:1.5;"/><rect fill="none" height="492.25" style="stroke:#000000;stroke-width:1.5;" width="605.0732" x="32.0967" y="276.4219"/><text fill="#000000" font-family="Helvetica" font-size="10" font-weight="700" x="47.0967" y="286.7041">Windows / Linux Pfad</text><path d="M51.0967,304.0625 L111.0527,304.0625 L111.0527,307.7031 L101.0527,317.7031 L51.0967,317.7031 L51.0967,304.0625" fill="#EEEEEE" style="stroke:#000000;stroke-width:1.5;"/><rect fill="none" height="450.6094" style="stroke:#000000;stroke-width:1.5;" width="561.0732" x="51.0967" y="304.0625"/><text fill="#000000" font-family="Helvetica" font-size="10" font-weight="700" x="66.0967" y="314.3447">alt</text><text fill="#000000" font-family="Helvetica" font-size="10" font-weight="700" x="126.0527" y="315.3447">[TPM + ZAS verf&#252;gbar]</text><line style="stroke:#000000;stroke-width:1;stroke-dasharray:2,2;" x1="51.0967" x2="612.1699" y1="594.4688" y2="594.4688"/><text fill="#000000" font-family="Helvetica" font-size="10" font-weight="700" x="56.0967" y="605.751">[Software Fallback]</text><polygon fill="#181818" points="227.6572,341.3438,237.6572,345.3438,227.6572,349.3438,231.6572,345.3438" style="stroke:#181818;stroke-width:1;"/><line style="stroke:#181818;stroke-width:1;" x1="67.0967" x2="233.6572" y1="345.3438" y2="345.3438"/><text fill="#000000" font-family="Helvetica" font-size="10" x="74.0967" y="340.9854">(02)</text><text fill="#000000" font-family="Helvetica" font-size="10" x="98.624" y="340.9854">Initialisierung</text><line style="stroke:#181818;stroke-width:1;" x1="249.6572" x2="291.6572" y1="382.625" y2="382.625"/><line style="stroke:#181818;stroke-width:1;" x1="291.6572" x2="291.6572" y1="382.625" y2="395.625"/><line style="stroke:#181818;stroke-width:1;" x1="250.6572" x2="291.6572" y1="395.625" y2="395.625"/><polygon fill="#181818" points="260.6572,391.625,250.6572,395.625,260.6572,399.625,256.6572,395.625" style="stroke:#181818;stroke-width:1;"/><text fill="#000000" font-family="Helvetica" font-size="10" x="256.6572" y="372.4463">(03)</text><text fill="#000000" font-family="Helvetica" font-size="10" x="281.1846" y="366.626">TPM Setup</text><text fill="#000000" font-family="Helvetica" font-size="10" x="281.1846" y="378.2666">(SRK, AK, PCR)</text><line style="stroke:#181818;stroke-width:1;" x1="68.0967" x2="78.0967" y1="421.2656" y2="417.2656"/><line style="stroke:#181818;stroke-width:1;" x1="68.0967" x2="78.0967" y1="421.2656" y2="425.2656"/><line style="stroke:#181818;stroke-width:1;stroke-dasharray:2,2;" x1="67.0967" x2="238.6572" y1="421.2656" y2="421.2656"/><text fill="#000000" font-family="Helvetica" font-size="10" x="84.0967" y="416.9072">(04)</text><text fill="#000000" font-family="Helvetica" font-size="10" x="108.624" y="416.9072">Schl&#252;ssel + Handles</text><polygon fill="#181818" points="227.6572,442.9063,237.6572,446.9063,227.6572,450.9063,231.6572,446.9063" style="stroke:#181818;stroke-width:1;"/><line style="stroke:#181818;stroke-width:1;" x1="67.0967" x2="233.6572" y1="446.9063" y2="446.9063"/><text fill="#000000" font-family="Helvetica" font-size="10" x="74.0967" y="442.5479">(05)</text><text fill="#000000" font-family="Helvetica" font-size="10" x="98.624" y="442.5479">GetEvidence (Nonce)</text><line style="stroke:#181818;stroke-width:1;" x1="249.6572" x2="291.6572" y1="472.5469" y2="472.5469"/><line style="stroke:#181818;stroke-width:1;" x1="291.6572" x2="291.6572" y1="472.5469" y2="485.5469"/><line style="stroke:#181818;stroke-width:1;" x1="250.6572" x2="291.6572" y1="485.5469" y2="485.5469"/><polygon fill="#181818" points="260.6572,481.5469,250.6572,485.5469,260.6572,489.5469,256.6572,485.5469" style="stroke:#181818;stroke-width:1;"/><text fill="#000000" font-family="Helvetica" font-size="10" x="256.6572" y="468.1885">(06)</text><text fill="#000000" font-family="Helvetica" font-size="10" x="281.1846" y="468.1885">TPM Quote + Event Log</text><line style="stroke:#181818;stroke-width:1;" x1="68.0967" x2="78.0967" y1="511.1875" y2="507.1875"/><line style="stroke:#181818;stroke-width:1;" x1="68.0967" x2="78.0967" y1="511.1875" y2="515.1875"/><line style="stroke:#181818;stroke-width:1;stroke-dasharray:2,2;" x1="67.0967" x2="238.6572" y1="511.1875" y2="511.1875"/><text fill="#000000" font-family="Helvetica" font-size="10" x="84.0967" y="506.8291">(07)</text><text fill="#000000" font-family="Helvetica" font-size="10" x="108.624" y="506.8291">Evidence</text><polygon fill="#181818" points="390.1299,532.8281,400.1299,536.8281,390.1299,540.8281,394.1299,536.8281" style="stroke:#181818;stroke-width:1;"/><line style="stroke:#181818;stroke-width:1;" x1="67.0967" x2="396.1299" y1="536.8281" y2="536.8281"/><text fill="#000000" font-family="Helvetica" font-size="10" x="74.0967" y="532.4697">(08)</text><text fill="#000000" font-family="Helvetica" font-size="10" x="98.624" y="532.4697">Registrierung (TPM Attestation)</text><line style="stroke:#181818;stroke-width:1;" x1="412.1299" x2="454.1299" y1="562.4688" y2="562.4688"/><line style="stroke:#181818;stroke-width:1;" x1="454.1299" x2="454.1299" y1="562.4688" y2="575.4688"/><line style="stroke:#181818;stroke-width:1;" x1="413.1299" x2="454.1299" y1="575.4688" y2="575.4688"/><polygon fill="#181818" points="423.1299,571.4688,413.1299,575.4688,423.1299,579.4688,419.1299,575.4688" style="stroke:#181818;stroke-width:1;"/><text fill="#000000" font-family="Helvetica" font-size="10" x="419.1299" y="558.1104">(09)</text><text fill="#000000" font-family="Helvetica" font-size="10" x="443.6572" y="558.1104">Verifiziere TPM Nachweis</text><line style="stroke:#181818;stroke-width:1;" x1="67.0967" x2="109.0967" y1="630.75" y2="630.75"/><line style="stroke:#181818;stroke-width:1;" x1="109.0967" x2="109.0967" y1="630.75" y2="643.75"/><line style="stroke:#181818;stroke-width:1;" x1="68.0967" x2="109.0967" y1="643.75" y2="643.75"/><polygon fill="#181818" points="78.0967,639.75,68.0967,643.75,78.0967,647.75,74.0967,643.75" style="stroke:#181818;stroke-width:1;"/><text fill="#000000" font-family="Helvetica" font-size="10" x="74.0967" y="626.3916">(10)</text><text fill="#000000" font-family="Helvetica" font-size="10" x="98.624" y="626.3916">Software-Schl&#252;sselpaar</text><line style="stroke:#181818;stroke-width:1;" x1="67.0967" x2="109.0967" y1="669.3906" y2="669.3906"/><line style="stroke:#181818;stroke-width:1;" x1="109.0967" x2="109.0967" y1="669.3906" y2="682.3906"/><line style="stroke:#181818;stroke-width:1;" x1="68.0967" x2="109.0967" y1="682.3906" y2="682.3906"/><polygon fill="#181818" points="78.0967,678.3906,68.0967,682.3906,78.0967,686.3906,74.0967,682.3906" style="stroke:#181818;stroke-width:1;"/><text fill="#000000" font-family="Helvetica" font-size="10" x="74.0967" y="665.0322">(11)</text><text fill="#000000" font-family="Helvetica" font-size="10" x="98.624" y="665.0322">Posture-Erhebung</text><polygon fill="#181818" points="395.1299,704.0313,405.1299,708.0313,395.1299,712.0313,399.1299,708.0313" style="stroke:#181818;stroke-width:1;"/><line style="stroke:#181818;stroke-width:1;" x1="67.0967" x2="401.1299" y1="708.0313" y2="708.0313"/><text fill="#000000" font-family="Helvetica" font-size="10" x="74.0967" y="703.6729">(12)</text><text fill="#000000" font-family="Helvetica" font-size="10" x="98.624" y="703.6729">Registrierung (Software)</text><line style="stroke:#181818;stroke-width:1;" x1="417.1299" x2="459.1299" y1="733.6719" y2="733.6719"/><line style="stroke:#181818;stroke-width:1;" x1="459.1299" x2="459.1299" y1="733.6719" y2="746.6719"/><line style="stroke:#181818;stroke-width:1;" x1="418.1299" x2="459.1299" y1="746.6719" y2="746.6719"/><polygon fill="#181818" points="428.1299,742.6719,418.1299,746.6719,428.1299,750.6719,424.1299,746.6719" style="stroke:#181818;stroke-width:1;"/><text fill="#000000" font-family="Helvetica" font-size="10" x="424.1299" y="729.3135">(13)</text><text fill="#000000" font-family="Helvetica" font-size="10" x="448.6572" y="729.3135">Basisvalidierung</text><path d="M32.0967,816.3125 L144.9629,816.3125 L144.9629,819.9531 L134.9629,829.9531 L32.0967,829.9531 L32.0967,816.3125" fill="#EEEEEE" style="stroke:#000000;stroke-width:1.5;"/><rect fill="none" height="389.6875" style="stroke:#000000;stroke-width:1.5;" width="617.8027" x="32.0967" y="816.3125"/><text fill="#000000" font-family="Helvetica" font-size="10" font-weight="700" x="47.0967" y="826.5947">macOS Pfad</text><path d="M51.0967,843.9531 L111.0527,843.9531 L111.0527,847.5938 L101.0527,857.5938 L51.0967,857.5938 L51.0967,843.9531" fill="#EEEEEE" style="stroke:#000000;stroke-width:1.5;"/><rect fill="none" height="348.0469" style="stroke:#000000;stroke-width:1.5;" width="573.8027" x="51.0967" y="843.9531"/><text fill="#000000" font-family="Helvetica" font-size="10" font-weight="700" x="66.0967" y="854.2354">alt</text><text fill="#000000" font-family="Helvetica" font-size="10" font-weight="700" x="126.0527" y="855.2354">[Secure Enclave verf&#252;gbar]</text><line style="stroke:#000000;stroke-width:1;stroke-dasharray:2,2;" x1="51.0967" x2="624.8994" y1="1031.7969" y2="1031.7969"/><text fill="#000000" font-family="Helvetica" font-size="10" font-weight="700" x="56.0967" y="1043.0791">[Software Fallback]</text><line style="stroke:#181818;stroke-width:1;" x1="67.0967" x2="109.0967" y1="885.2344" y2="885.2344"/><line style="stroke:#181818;stroke-width:1;" x1="109.0967" x2="109.0967" y1="885.2344" y2="898.2344"/><line style="stroke:#181818;stroke-width:1;" x1="68.0967" x2="109.0967" y1="898.2344" y2="898.2344"/><polygon fill="#181818" points="78.0967,894.2344,68.0967,898.2344,78.0967,902.2344,74.0967,898.2344" style="stroke:#181818;stroke-width:1;"/><text fill="#000000" font-family="Helvetica" font-size="10" x="74.0967" y="880.876">(14)</text><text fill="#000000" font-family="Helvetica" font-size="10" x="98.624" y="880.876">Schl&#252;ssel in Secure Enclave</text><line style="stroke:#181818;stroke-width:1;" x1="67.0967" x2="109.0967" y1="935.5156" y2="935.5156"/><line style="stroke:#181818;stroke-width:1;" x1="109.0967" x2="109.0967" y1="935.5156" y2="948.5156"/><line style="stroke:#181818;stroke-width:1;" x1="68.0967" x2="109.0967" y1="948.5156" y2="948.5156"/><polygon fill="#181818" points="78.0967,944.5156,68.0967,948.5156,78.0967,952.5156,74.0967,948.5156" style="stroke:#181818;stroke-width:1;"/><text fill="#000000" font-family="Helvetica" font-size="10" x="74.0967" y="925.3369">(15)</text><text fill="#000000" font-family="Helvetica" font-size="10" x="98.624" y="919.5166">App Attest Assertion</text><text fill="#000000" font-family="Helvetica" font-size="10" x="98.624" y="931.1572">(Nonce + Posture)</text><polygon fill="#181818" points="400.1299,970.1563,410.1299,974.1563,400.1299,978.1563,404.1299,974.1563" style="stroke:#181818;stroke-width:1;"/><line style="stroke:#181818;stroke-width:1;" x1="67.0967" x2="406.1299" y1="974.1563" y2="974.1563"/><text fill="#000000" font-family="Helvetica" font-size="10" x="74.0967" y="969.7979">(16)</text><text fill="#000000" font-family="Helvetica" font-size="10" x="98.624" y="969.7979">Registrierung (Apple Attestation)</text><line style="stroke:#181818;stroke-width:1;" x1="422.1299" x2="464.1299" y1="999.7969" y2="999.7969"/><line style="stroke:#181818;stroke-width:1;" x1="464.1299" x2="464.1299" y1="999.7969" y2="1012.7969"/><line style="stroke:#181818;stroke-width:1;" x1="423.1299" x2="464.1299" y1="1012.7969" y2="1012.7969"/><polygon fill="#181818" points="433.1299,1008.7969,423.1299,1012.7969,433.1299,1016.7969,429.1299,1012.7969" style="stroke:#181818;stroke-width:1;"/><text fill="#000000" font-family="Helvetica" font-size="10" x="429.1299" y="995.4385">(17)</text><text fill="#000000" font-family="Helvetica" font-size="10" x="453.6572" y="995.4385">Validiere Attestation Object</text><line style="stroke:#181818;stroke-width:1;" x1="67.0967" x2="109.0967" y1="1068.0781" y2="1068.0781"/><line style="stroke:#181818;stroke-width:1;" x1="109.0967" x2="109.0967" y1="1068.0781" y2="1081.0781"/><line style="stroke:#181818;stroke-width:1;" x1="68.0967" x2="109.0967" y1="1081.0781" y2="1081.0781"/><polygon fill="#181818" points="78.0967,1077.0781,68.0967,1081.0781,78.0967,1085.0781,74.0967,1081.0781" style="stroke:#181818;stroke-width:1;"/><text fill="#000000" font-family="Helvetica" font-size="10" x="74.0967" y="1063.7197">(18)</text><text fill="#000000" font-family="Helvetica" font-size="10" x="98.624" y="1063.7197">Software-Schl&#252;sselpaar</text><line style="stroke:#181818;stroke-width:1;" x1="67.0967" x2="109.0967" y1="1106.7188" y2="1106.7188"/><line style="stroke:#181818;stroke-width:1;" x1="109.0967" x2="109.0967" y1="1106.7188" y2="1119.7188"/><line style="stroke:#181818;stroke-width:1;" x1="68.0967" x2="109.0967" y1="1119.7188" y2="1119.7188"/><polygon fill="#181818" points="78.0967,1115.7188,68.0967,1119.7188,78.0967,1123.7188,74.0967,1119.7188" style="stroke:#181818;stroke-width:1;"/><text fill="#000000" font-family="Helvetica" font-size="10" x="74.0967" y="1102.3604">(19)</text><text fill="#000000" font-family="Helvetica" font-size="10" x="98.624" y="1102.3604">Posture-Erhebung</text><polygon fill="#181818" points="405.1299,1141.3594,415.1299,1145.3594,405.1299,1149.3594,409.1299,1145.3594" style="stroke:#181818;stroke-width:1;"/><line style="stroke:#181818;stroke-width:1;" x1="67.0967" x2="411.1299" y1="1145.3594" y2="1145.3594"/><text fill="#000000" font-family="Helvetica" font-size="10" x="74.0967" y="1141.001">(20)</text><text fill="#000000" font-family="Helvetica" font-size="10" x="98.624" y="1141.001">Registrierung (Software)</text><line style="stroke:#181818;stroke-width:1;" x1="427.1299" x2="469.1299" y1="1171" y2="1171"/><line style="stroke:#181818;stroke-width:1;" x1="469.1299" x2="469.1299" y1="1171" y2="1184"/><line style="stroke:#181818;stroke-width:1;" x1="428.1299" x2="469.1299" y1="1184" y2="1184"/><polygon fill="#181818" points="438.1299,1180,428.1299,1184,438.1299,1188,434.1299,1184" style="stroke:#181818;stroke-width:1;"/><text fill="#000000" font-family="Helvetica" font-size="10" x="434.1299" y="1166.6416">(21)</text><text fill="#000000" font-family="Helvetica" font-size="10" x="458.6572" y="1166.6416">Basisvalidierung</text><rect fill="#EEEEEE" height="3" style="stroke:#EEEEEE;stroke-width:1;" width="673.8994" x="10" y="1252.8203"/><line style="stroke:#000000;stroke-width:1;" x1="10" x2="683.8994" y1="1252.8203" y2="1252.8203"/><line style="stroke:#000000;stroke-width:1;" x1="10" x2="683.8994" y1="1255.8203" y2="1255.8203"/><rect fill="#EEEEEE" height="19.6406" style="stroke:#000000;stroke-width:2;" width="138.5557" x="277.6719" y="1244"/><text fill="#000000" font-family="Helvetica" font-size="10" font-weight="700" x="283.6719" y="1257.2822">Gemeinsame Schritte</text><polygon fill="#181818" points="410.1299,1298.9219,420.1299,1302.9219,410.1299,1306.9219,414.1299,1302.9219" style="stroke:#181818;stroke-width:1;"/><line style="stroke:#181818;stroke-width:1;" x1="67.0967" x2="416.1299" y1="1302.9219" y2="1302.9219"/><text fill="#000000" font-family="Helvetica" font-size="10" x="74.0967" y="1292.7432">(22)</text><text fill="#000000" font-family="Helvetica" font-size="10" x="98.624" y="1286.9229">Token Exchange</text><text fill="#000000" font-family="Helvetica" font-size="10" x="98.624" y="1298.5635">(client_assertion + Evidence)</text><path d="M51.0967,1314.9219 L111.0527,1314.9219 L111.0527,1318.5625 L101.0527,1328.5625 L51.0967,1328.5625 L51.0967,1314.9219" fill="#EEEEEE" style="stroke:#000000;stroke-width:1.5;"/><rect fill="none" height="193.4844" style="stroke:#000000;stroke-width:1.5;" width="529.5596" x="51.0967" y="1314.9219"/><text fill="#000000" font-family="Helvetica" font-size="10" font-weight="700" x="66.0967" y="1325.2041">alt</text><text fill="#000000" font-family="Helvetica" font-size="10" font-weight="700" x="126.0527" y="1326.2041">[Hardware Attestation]</text><line style="stroke:#000000;stroke-width:1;stroke-dasharray:2,2;" x1="51.0967" x2="580.6563" y1="1425.4844" y2="1425.4844"/><text fill="#000000" font-family="Helvetica" font-size="10" font-weight="700" x="56.0967" y="1436.7666">[Software Attestation]</text><line style="stroke:#181818;stroke-width:1;" x1="432.1299" x2="474.1299" y1="1367.8438" y2="1367.8438"/><line style="stroke:#181818;stroke-width:1;" x1="474.1299" x2="474.1299" y1="1367.8438" y2="1380.8438"/><line style="stroke:#181818;stroke-width:1;" x1="433.1299" x2="474.1299" y1="1380.8438" y2="1380.8438"/><polygon fill="#181818" points="443.1299,1376.8438,433.1299,1380.8438,443.1299,1384.8438,439.1299,1380.8438" style="stroke:#181818;stroke-width:1;"/><text fill="#000000" font-family="Helvetica" font-size="10" x="439.1299" y="1357.665">(23)</text><text fill="#000000" font-family="Helvetica" font-size="10" x="463.6572" y="1351.8447">Erweiterte Pr&#252;fung</text><text fill="#000000" font-family="Helvetica" font-size="10" x="463.6572" y="1363.4854">(TPM / SE)</text><line style="stroke:#181818;stroke-width:1;" x1="68.0967" x2="78.0967" y1="1406.4844" y2="1402.4844"/><line style="stroke:#181818;stroke-width:1;" x1="68.0967" x2="78.0967" y1="1406.4844" y2="1410.4844"/><line style="stroke:#181818;stroke-width:1;stroke-dasharray:2,2;" x1="67.0967" x2="421.1299" y1="1406.4844" y2="1406.4844"/><text fill="#000000" font-family="Helvetica" font-size="10" x="84.0967" y="1402.126">(24)</text><text fill="#000000" font-family="Helvetica" font-size="10" x="108.624" y="1402.126">Access Token + zg_att_token</text><line style="stroke:#181818;stroke-width:1;" x1="427.1299" x2="469.1299" y1="1461.7656" y2="1461.7656"/><line style="stroke:#181818;stroke-width:1;" x1="469.1299" x2="469.1299" y1="1461.7656" y2="1474.7656"/><line style="stroke:#181818;stroke-width:1;" x1="428.1299" x2="469.1299" y1="1474.7656" y2="1474.7656"/><polygon fill="#181818" points="438.1299,1470.7656,428.1299,1474.7656,438.1299,1478.7656,434.1299,1474.7656" style="stroke:#181818;stroke-width:1;"/><text fill="#000000" font-family="Helvetica" font-size="10" x="434.1299" y="1457.4072">(25)</text><text fill="#000000" font-family="Helvetica" font-size="10" x="458.6572" y="1457.4072">Basispr&#252;fung</text><line style="stroke:#181818;stroke-width:1;" x1="68.0967" x2="78.0967" y1="1500.4063" y2="1496.4063"/><line style="stroke:#181818;stroke-width:1;" x1="68.0967" x2="78.0967" y1="1500.4063" y2="1504.4063"/><line style="stroke:#181818;stroke-width:1;stroke-dasharray:2,2;" x1="67.0967" x2="416.1299" y1="1500.4063" y2="1500.4063"/><text fill="#000000" font-family="Helvetica" font-size="10" x="84.0967" y="1496.0479">(26)</text><text fill="#000000" font-family="Helvetica" font-size="10" x="108.624" y="1496.0479">Access Token</text><?plantuml-src xLNRJjj047ttLmnvg8ZIm7i4aKnm0ogGD4v1HKZHsfuuMvorjRiEa6_f8v_1MtwiisixjmA1zrgAVDcTCsVEd9tiSH4cUOHmS72OvTEacR2dDDS7-b4xpbucMJnbe36TWvOvEexcEa5O_0bG1WaFxy7L6fNcA7CHAnOaY-TyZ21OE84Jr99ZeDIJqZXrd21zXDefpdY8DJZrhiyxtgZJk-WD702xrfTykdYMnVuQz0Vdbwuty7_vG-zokHCWOrBpa6TCQEWa7Ed65DHklQ5RljVWw6YEchNR580YCl3EPk2jww-YYYAOvga07sN1S0bH0HG5s81kpcHK0_Cywlvq1wTBUkivt5nFYYpcAPLylag1yhKCnyVWSM7qZE7us77Ayfhjih0MdDCgIv82w0luclBT2J-S98iNfJ29KQ0isc7XRjWaWGZLLZUKXMU9XXikelH1mI5SS94J1oDnBDCysrw2_fX5nRgvJF2mVmaDgoKLD5wyn06JomtcMXL0cneDmvzhpXAkIexhcmrEiRDbaNtKUNOdzlt1zw_Wqg_V6TJ_ZMYsAtcQpHQif21cPqn42IhdVKvTrDwCHoX2XFshb6xrTtdzo5EDXExD3Cv56k_YLA6_nSCQnJ0POCoLBli7-oRPcZStMHNkgg9RS4rz7_CvnQ9bUKLdy07vMl6OA0G_7Ui7Hdk-aOq25jw_HQfoN1NGN2cRiJVRN4NrKwLp2lBa10Dhni-LNcLzl-OJfhYQaPsYolBBMaLfLNEsh9qTnzO_PM7FNtUv_V2AjtqCgG3mQ42o6QuRV9TWAmToiGMp8zJDihBXu1A0D5sd0s0zIOOhHQr_Lao2fQdzSIULWcw4G2_uZQ7-xwQbcymtch1Td2BDR3P5qtd9IRAjsRraDKplKO3t64wOY94Q6zez8rRrsWwLObRKY_5yHdyqLk2rLZYlaVSa7NPDC0XzkNWP4tzAO0R18VXUVJrcSpYvOOXAbTmQC8z7JEkHDg_EPeztKR3wPMNoZoMqAlu5?></g></svg>