<?plantuml 1.2026.2?><svg xmlns="http://www.w3.org/2000/svg" xmlns:xlink="http://www.w3.org/1999/xlink" contentStyleType="text/css" data-diagram-type="SEQUENCE" height="941px" preserveAspectRatio="none" style="width:838px;height:941px;background:#FFFFFF;" version="1.1" viewBox="0 0 838 941" width="838px" zoomAndPan="magnify"><title>Client Installation &amp; Baseline-Etablierung</title><defs/><g><rect fill="#F8F8FF" height="891.8594" style="stroke:#181818;stroke-width:0.5;" width="677.9087" x="15.4204" y="43.2969"/><text fill="#000000" font-family="Helvetica" font-size="10" font-weight="bold" x="345.9128" y="52.5791">LEI</text><rect fill="#E6E6FA" height="875.2188" style="stroke:#181818;stroke-width:0.5;" width="411.6826" x="281.6465" y="59.9375"/><text fill="#000000" font-family="Helvetica" font-size="10" font-weight="bold" x="448.3911" y="69.2197">Prim&#228;rsystem</text><rect fill="#F4A460" height="858.5781" style="stroke:#181818;stroke-width:0.5;" width="164.9375" x="281.6465" y="76.5781"/><text fill="#000000" font-family="Helvetica" font-size="10" font-weight="bold" x="293.6465" y="85.8604">ZETA Attestation Service</text><rect fill="#F4A460" height="858.5781" style="stroke:#181818;stroke-width:0.5;" width="89" x="604.3291" y="76.5781"/><text fill="#000000" font-family="Helvetica" font-size="10" font-weight="bold" x="616.3291" y="85.8604">ZETA Client</text><text fill="#000000" font-family="Helvetica" font-size="14" font-weight="bold" x="263.3062" y="27.9951">Client Installation &amp; Baseline-Etablierung</text><g><title>TPM . SE</title><rect fill="#000000" fill-opacity="0.00000" height="783.6563" width="8" x="44.5" y="118.8594"/><line style="stroke:#181818;stroke-width:0.5;stroke-dasharray:5,5;" x1="48" x2="48" y1="118.8594" y2="902.5156"/></g><g><title/><rect fill="#FFFFFF" height="218.125" style="stroke:#181818;stroke-width:1;" width="10" x="43" y="381.625"/></g><g><title/><rect fill="#FFFFFF" height="76.9219" style="stroke:#181818;stroke-width:1;" width="10" x="43" y="661.0313"/></g><g><title>ZAS</title><rect fill="#000000" fill-opacity="0.00000" height="783.6563" width="8" x="360.6152" y="118.8594"/><line style="stroke:#181818;stroke-width:0.5;stroke-dasharray:5,5;" x1="364.1152" x2="364.1152" y1="118.8594" y2="902.5156"/></g><g><title/><rect fill="#FFFFFF" height="748.0156" style="stroke:#181818;stroke-width:1;" width="10" x="359.1152" y="154.5"/></g><g><title>ZETA Client</title><rect fill="#000000" fill-opacity="0.00000" height="783.6563" width="8" x="645.3291" y="118.8594"/><line style="stroke:#181818;stroke-width:0.5;stroke-dasharray:5,5;" x1="648.8291" x2="648.8291" y1="118.8594" y2="902.5156"/></g><g><title/><rect fill="#FFFFFF" height="709.375" style="stroke:#181818;stroke-width:1;" width="10" x="643.8291" y="193.1406"/></g><rect fill="#E2E2F0" height="25.6406" rx="2.5" ry="2.5" style="stroke:#181818;stroke-width:0.5;" width="57.1592" x="19.4204" y="92.2188"/><text fill="#000000" font-family="Helvetica" font-size="10" x="26.4204" y="108.501">TPM / SE</text><rect fill="#E2E2F0" height="25.6406" rx="2.5" ry="2.5" style="stroke:#181818;stroke-width:0.5;" width="34.0391" x="347.0957" y="92.2188"/><text fill="#000000" font-family="Helvetica" font-size="10" x="354.0957" y="108.501">ZAS</text><rect fill="#E2E2F0" height="25.6406" rx="2.5" ry="2.5" style="stroke:#181818;stroke-width:0.5;" width="72.2471" x="612.7056" y="92.2188"/><text fill="#000000" font-family="Helvetica" font-size="10" x="619.7056" y="108.501">ZETA Client</text><rect fill="#E2E2F0" height="25.6406" rx="2.5" ry="2.5" style="stroke:#181818;stroke-width:0.5;" width="57.1592" x="19.4204" y="902.5156"/><text fill="#000000" font-family="Helvetica" font-size="10" x="26.4204" y="918.7979">TPM / SE</text><rect fill="#E2E2F0" height="25.6406" rx="2.5" ry="2.5" style="stroke:#181818;stroke-width:0.5;" width="34.0391" x="347.0957" y="902.5156"/><text fill="#000000" font-family="Helvetica" font-size="10" x="354.0957" y="918.7979">ZAS</text><rect fill="#E2E2F0" height="25.6406" rx="2.5" ry="2.5" style="stroke:#181818;stroke-width:0.5;" width="72.2471" x="612.7056" y="902.5156"/><text fill="#000000" font-family="Helvetica" font-size="10" x="619.7056" y="918.7979">ZETA Client</text><path d="M8,130.8594 L67.9561,130.8594 L67.9561,134.5 L57.9561,144.5 L8,144.5 L8,130.8594" fill="#EEEEEE" style="stroke:#000000;stroke-width:1.5;"/><rect fill="none" height="747.6563" style="stroke:#000000;stroke-width:1.5;" width="823.8916" x="8" y="130.8594"/><text fill="#000000" font-family="Helvetica" font-size="10" font-weight="bold" x="23" y="141.1416">alt</text><text fill="#000000" font-family="Helvetica" font-size="10" font-weight="bold" x="82.9561" y="142.1416">[Hardware Attestation (TPM / SE)]</text><line style="stroke:#000000;stroke-width:1;stroke-dasharray:2,2;" x1="8" x2="831.8916" y1="770.9531" y2="770.9531"/><text fill="#000000" font-family="Helvetica" font-size="10" font-weight="bold" x="13" y="782.2354">[Software Attestation (Fallback)]</text><line style="stroke:#181818;stroke-width:1;stroke-dasharray:2,2;" x1="369.1152" x2="411.1152" y1="172.1406" y2="172.1406"/><line style="stroke:#181818;stroke-width:1;stroke-dasharray:2,2;" x1="411.1152" x2="411.1152" y1="172.1406" y2="185.1406"/><line style="stroke:#181818;stroke-width:1;stroke-dasharray:2,2;" x1="370.1152" x2="411.1152" y1="185.1406" y2="185.1406"/><polygon fill="#181818" points="380.1152,181.1406,370.1152,185.1406,380.1152,189.1406,376.1152,185.1406" style="stroke:#181818;stroke-width:1;"/><text fill="#000000" font-family="Helvetica" font-size="10" x="376.1152" y="167.7822">(01)</text><text fill="#000000" font-family="Helvetica" font-size="10" x="400.6426" y="167.7822">Installation (Root/Admin rights)</text><line style="stroke:#181818;stroke-width:1;stroke-dasharray:2,2;" x1="653.8291" x2="695.8291" y1="210.7813" y2="210.7813"/><line style="stroke:#181818;stroke-width:1;stroke-dasharray:2,2;" x1="695.8291" x2="695.8291" y1="210.7813" y2="223.7813"/><line style="stroke:#181818;stroke-width:1;stroke-dasharray:2,2;" x1="654.8291" x2="695.8291" y1="223.7813" y2="223.7813"/><polygon fill="#181818" points="664.8291,219.7813,654.8291,223.7813,664.8291,227.7813,660.8291,223.7813" style="stroke:#181818;stroke-width:1;"/><text fill="#000000" font-family="Helvetica" font-size="10" x="660.8291" y="206.4229">(02)</text><text fill="#000000" font-family="Helvetica" font-size="10" x="685.3564" y="206.4229">Installation (User Space)</text><path d="M348.1152,235.7813 L745.9473,235.7813 L745.9473,239.4219 L735.9473,249.4219 L348.1152,249.4219 L348.1152,235.7813" fill="#EEEEEE" style="stroke:#000000;stroke-width:1.5;"/><rect fill="none" height="74.9219" style="stroke:#000000;stroke-width:1.5;" width="413.832" x="348.1152" y="235.7813"/><text fill="#000000" font-family="Helvetica" font-size="10" font-weight="bold" x="363.1152" y="246.0635">Vertrauensbeziehung zwischen ZAS und Client wird aufgebaut</text><polygon fill="#181818" points="631.8291,273.0625,641.8291,277.0625,631.8291,281.0625,635.8291,277.0625" style="stroke:#181818;stroke-width:1;"/><line style="stroke:#181818;stroke-width:1;" x1="369.1152" x2="637.8291" y1="277.0625" y2="277.0625"/><text fill="#000000" font-family="Helvetica" font-size="10" x="376.1152" y="272.7041">(03)</text><text fill="#000000" font-family="Helvetica" font-size="10" x="400.6426" y="272.7041">&#160;</text><polygon fill="#181818" points="380.1152,298.7031,370.1152,302.7031,380.1152,306.7031,376.1152,302.7031" style="stroke:#181818;stroke-width:1;"/><line style="stroke:#181818;stroke-width:1;stroke-dasharray:2,2;" x1="374.1152" x2="642.8291" y1="302.7031" y2="302.7031"/><text fill="#000000" font-family="Helvetica" font-size="10" x="386.1152" y="298.3447">(04)</text><text fill="#000000" font-family="Helvetica" font-size="10" x="410.6426" y="298.3447">&#160;</text><path d="M27,328.7031 L86.9561,328.7031 L86.9561,332.3438 L76.9561,342.3438 L27,342.3438 L27,328.7031" fill="#EEEEEE" style="stroke:#000000;stroke-width:1.5;"/><rect fill="none" height="417.25" style="stroke:#000000;stroke-width:1.5;" width="673.29" x="27" y="328.7031"/><text fill="#000000" font-family="Helvetica" font-size="10" font-weight="bold" x="42" y="338.9854">alt</text><text fill="#000000" font-family="Helvetica" font-size="10" font-weight="bold" x="101.9561" y="339.9854">[Windows / Linux (TPM)]</text><line style="stroke:#000000;stroke-width:1;stroke-dasharray:2,2;" x1="27" x2="700.29" y1="624.75" y2="624.75"/><text fill="#000000" font-family="Helvetica" font-size="10" font-weight="bold" x="32" y="636.0322">[macOS (Secure Enclave)]</text><polygon fill="#181818" points="64,377.625,54,381.625,64,385.625,60,381.625" style="stroke:#181818;stroke-width:1;"/><line style="stroke:#181818;stroke-width:1;" x1="58" x2="642.8291" y1="381.625" y2="381.625"/><text fill="#000000" font-family="Helvetica" font-size="10" x="70" y="371.4463">(05)</text><text fill="#000000" font-family="Helvetica" font-size="10" x="94.5273" y="365.626">Generiere PrK.Client.Sig, PuK.Client.Sig</text><text fill="#000000" font-family="Helvetica" font-size="10" x="94.5273" y="377.2666">via OS-Provider (z.B. MS CNG)</text><polygon fill="#181818" points="631.8291,403.2656,641.8291,407.2656,631.8291,411.2656,635.8291,407.2656" style="stroke:#181818;stroke-width:1;"/><line style="stroke:#181818;stroke-width:1;stroke-dasharray:2,2;" x1="53" x2="637.8291" y1="407.2656" y2="407.2656"/><text fill="#000000" font-family="Helvetica" font-size="10" x="60" y="402.9072">(06)</text><text fill="#000000" font-family="Helvetica" font-size="10" x="84.5273" y="402.9072">PuK.Client.Sig, Handle_PrK.Client.Sig</text><line style="stroke:#181818;stroke-width:1;stroke-dasharray:2,2;" x1="369.1152" x2="411.1152" y1="432.9063" y2="432.9063"/><line style="stroke:#181818;stroke-width:1;stroke-dasharray:2,2;" x1="411.1152" x2="411.1152" y1="432.9063" y2="445.9063"/><line style="stroke:#181818;stroke-width:1;stroke-dasharray:2,2;" x1="370.1152" x2="411.1152" y1="445.9063" y2="445.9063"/><polygon fill="#181818" points="380.1152,441.9063,370.1152,445.9063,380.1152,449.9063,376.1152,445.9063" style="stroke:#181818;stroke-width:1;"/><text fill="#000000" font-family="Helvetica" font-size="10" x="376.1152" y="428.5479">(07)</text><text fill="#000000" font-family="Helvetica" font-size="10" x="400.6426" y="428.5479">Messung des PS &amp; Vergleich mit Hersteller-Wert</text><polygon fill="#181818" points="64,467.5469,54,471.5469,64,475.5469,60,471.5469" style="stroke:#181818;stroke-width:1;"/><line style="stroke:#181818;stroke-width:1;" x1="58" x2="358.1152" y1="471.5469" y2="471.5469"/><text fill="#000000" font-family="Helvetica" font-size="10" x="70" y="467.1885">(08)</text><text fill="#000000" font-family="Helvetica" font-size="10" x="94.5273" y="467.1885">TPM2_CreatePrimary() &#8594; Storage Root Key (SRK)</text><polygon fill="#181818" points="64,493.1875,54,497.1875,64,501.1875,60,497.1875" style="stroke:#181818;stroke-width:1;"/><line style="stroke:#181818;stroke-width:1;" x1="58" x2="358.1152" y1="497.1875" y2="497.1875"/><text fill="#000000" font-family="Helvetica" font-size="10" x="70" y="492.8291">(09)</text><text fill="#000000" font-family="Helvetica" font-size="10" x="94.5273" y="492.8291">TPM2_Create(SRK, restricted=sign, fixedTPM=true)</text><polygon fill="#181818" points="347.1152,518.8281,357.1152,522.8281,347.1152,526.8281,351.1152,522.8281" style="stroke:#181818;stroke-width:1;"/><line style="stroke:#181818;stroke-width:1;stroke-dasharray:2,2;" x1="53" x2="353.1152" y1="522.8281" y2="522.8281"/><text fill="#000000" font-family="Helvetica" font-size="10" x="60" y="518.4697">(10)</text><text fill="#000000" font-family="Helvetica" font-size="10" x="84.5273" y="518.4697">PuK.AK.Sig, PrK.AK.Sig (blob)</text><polygon fill="#181818" points="64,544.4688,54,548.4688,64,552.4688,60,548.4688" style="stroke:#181818;stroke-width:1;"/><line style="stroke:#181818;stroke-width:1;" x1="58" x2="358.1152" y1="548.4688" y2="548.4688"/><text fill="#000000" font-family="Helvetica" font-size="10" x="70" y="544.1104">(11)</text><text fill="#000000" font-family="Helvetica" font-size="10" x="94.5273" y="544.1104">TPM2_Load(SRK, PrK.AK.Sig, PuK.AK.Sig)</text><polygon fill="#181818" points="347.1152,570.1094,357.1152,574.1094,347.1152,578.1094,351.1152,574.1094" style="stroke:#181818;stroke-width:1;"/><line style="stroke:#181818;stroke-width:1;stroke-dasharray:2,2;" x1="53" x2="353.1152" y1="574.1094" y2="574.1094"/><text fill="#000000" font-family="Helvetica" font-size="10" x="60" y="569.751">(12)</text><text fill="#000000" font-family="Helvetica" font-size="10" x="84.5273" y="569.751">Handle_PrK.AK.Sig</text><polygon fill="#181818" points="64,595.75,54,599.75,64,603.75,60,599.75" style="stroke:#181818;stroke-width:1;"/><line style="stroke:#181818;stroke-width:1;" x1="58" x2="358.1152" y1="599.75" y2="599.75"/><text fill="#000000" font-family="Helvetica" font-size="10" x="70" y="595.3916">(13)</text><text fill="#000000" font-family="Helvetica" font-size="10" x="94.5273" y="595.3916">TPM2_PCR_Extend(23, Messwerte)</text><path d="M374.1152,587.1094 L374.1152,608.1094 L679.1152,608.1094 L679.1152,597.1094 L669.1152,587.1094 L374.1152,587.1094" fill="#FEFFDD" style="stroke:#181818;stroke-width:0.5;"/><path d="M669.1152,587.1094 L669.1152,597.1094 L679.1152,597.1094 L669.1152,587.1094" fill="#FEFFDD" style="stroke:#181818;stroke-width:0.5;"/><text fill="#000000" font-family="Helvetica" font-size="10" x="380.1152" y="601.3916">PCR_23 K&#246;nnte belegt sein; muss vorher gepr&#252;ft werden</text><polygon fill="#181818" points="64,657.0313,54,661.0313,64,665.0313,60,661.0313" style="stroke:#181818;stroke-width:1;"/><line style="stroke:#181818;stroke-width:1;" x1="58" x2="642.8291" y1="661.0313" y2="661.0313"/><text fill="#000000" font-family="Helvetica" font-size="10" x="70" y="656.6729">(14)</text><text fill="#000000" font-family="Helvetica" font-size="10" x="94.5273" y="656.6729">SecKeyCreateRandomKey (f&#252;r PrK.Client.Sig, PuK.Client.Sig in SE)</text><polygon fill="#181818" points="631.8291,682.6719,641.8291,686.6719,631.8291,690.6719,635.8291,686.6719" style="stroke:#181818;stroke-width:1;"/><line style="stroke:#181818;stroke-width:1;stroke-dasharray:2,2;" x1="53" x2="637.8291" y1="686.6719" y2="686.6719"/><text fill="#000000" font-family="Helvetica" font-size="10" x="60" y="682.3135">(15)</text><text fill="#000000" font-family="Helvetica" font-size="10" x="84.5273" y="682.3135">PuK.Client.Sig, Handle_PrK.Client.Sig</text><polygon fill="#181818" points="64,708.3125,54,712.3125,64,716.3125,60,712.3125" style="stroke:#181818;stroke-width:1;"/><line style="stroke:#181818;stroke-width:1;" x1="58" x2="358.1152" y1="712.3125" y2="712.3125"/><text fill="#000000" font-family="Helvetica" font-size="10" x="70" y="707.9541">(16)</text><text fill="#000000" font-family="Helvetica" font-size="10" x="94.5273" y="707.9541">DCAppAttestService.shared.generateKey()</text><polygon fill="#181818" points="347.1152,733.9531,357.1152,737.9531,347.1152,741.9531,351.1152,737.9531" style="stroke:#181818;stroke-width:1;"/><line style="stroke:#181818;stroke-width:1;stroke-dasharray:2,2;" x1="53" x2="353.1152" y1="737.9531" y2="737.9531"/><text fill="#000000" font-family="Helvetica" font-size="10" x="60" y="733.5947">(17)</text><text fill="#000000" font-family="Helvetica" font-size="10" x="84.5273" y="733.5947">keyId (Referenz f&#252;r PrK.AK.Sig)</text><line style="stroke:#181818;stroke-width:1;stroke-dasharray:2,2;" x1="653.8291" x2="695.8291" y1="807.2344" y2="807.2344"/><line style="stroke:#181818;stroke-width:1;stroke-dasharray:2,2;" x1="695.8291" x2="695.8291" y1="807.2344" y2="820.2344"/><line style="stroke:#181818;stroke-width:1;stroke-dasharray:2,2;" x1="654.8291" x2="695.8291" y1="820.2344" y2="820.2344"/><polygon fill="#181818" points="664.8291,816.2344,654.8291,820.2344,664.8291,824.2344,660.8291,820.2344" style="stroke:#181818;stroke-width:1;"/><text fill="#000000" font-family="Helvetica" font-size="10" x="660.8291" y="802.876">(18)</text><text fill="#000000" font-family="Helvetica" font-size="10" x="685.3564" y="802.876">Installation (User Space)</text><line style="stroke:#181818;stroke-width:1;" x1="653.8291" x2="695.8291" y1="857.5156" y2="857.5156"/><line style="stroke:#181818;stroke-width:1;" x1="695.8291" x2="695.8291" y1="857.5156" y2="870.5156"/><line style="stroke:#181818;stroke-width:1;" x1="654.8291" x2="695.8291" y1="870.5156" y2="870.5156"/><polygon fill="#181818" points="664.8291,866.5156,654.8291,870.5156,664.8291,874.5156,660.8291,870.5156" style="stroke:#181818;stroke-width:1;"/><text fill="#000000" font-family="Helvetica" font-size="10" x="660.8291" y="847.3369">(19)</text><text fill="#000000" font-family="Helvetica" font-size="10" x="685.3564" y="841.5166">Generiere PrK.Client.Sig,</text><text fill="#000000" font-family="Helvetica" font-size="10" x="685.3564" y="853.1572">PuK.Client.Sig</text><?plantuml-src hLLTRjj647xdAQOgq5BGJrpdpK42oB9Y6v8JGKnZ80XWBCaHkV5oLzbTIfOEq0Fq33r3d_Bcc_GadLtgXvBb12Zw8fBQcMzcllbcbfLMoRA8KKCZF3bfDW9pp-MCQLP0YbDM2ljMIHln5S9l9ySFtx42uGh572rFMCtcehAvKLAP6KimtLhtLQavwfgjG9dPl9T-AOq5gIJMpWn-BL4cEC4fQlTopfBxJAjIfdqbb8RRdDkwGtJeiAlXz0Zk3Hh3Ckm9dabAP6g3m78hA4t1KLgubiOo8PZbIi8lSCuC2YwnCx0i9WjToYm8VfffbXKCBAeLM5rY4CJg0HgZmNK3VhxCbR5LcW0KdPZYCqROZG_Z6tW1qQ01p01zqBdt6sjUFFwbpT9OB0XXnEOeK-8CO6tnQV2X1prhaRBpgKMevpn1CewOJ9VdMYsaDzyF-QaNkLWDUZRyCU4wn0FaglXZOFjmQv8yOislZknUWrsSpJDWmi8Lq-c2QToh9DomqWmy3gNQQgrH_1TqEc_Syso_EU54AVkYbnPSWkPPRatJUrGvjLgr3uzGlHw2_6ve72AdsChRIMq67r5RpKWm9iOLnvow3gi5DqcEqgT4SjnWBxXEWPNJ36DMsYrjFl5DrEs_jNp8OCDRLRXZw9RBL2qCyJ7Yidpmv3IVUBznuccrpk0I9RhXGXZhORSwxaOyQyEuh7z_bdFEu7tK6MirvwGi25VTyoxSHD1_TxaBu5fHvseVfKqDbAd0k_rW-oLlUkK6pT6Mee5nHAD4d6O2UP93mKaAg4diGg3kt1BPXxHH8cVkv_Ikhv5PT1F2z39imZz__0cHLJI024u1CCGbXD5asFmHXZDgWoRXQPvOJ5yRsW5jcF87JCdijHlafrJuOXmFlU6QMRrvXp0MAlvEt95YQHLrvzIkWJqJhSPoPVTyX75_SZTuiAIXyFHbsvE-83fhTKXbiPeFAeEiJr_2yF5lAUdV60LcbbOZbw-WA8s1kT8vYIF3cNxyDYLjeqv9yVKqEvrAjS8W52nv7n7vc9GamO5C12skxyYL3AbRLJScLAGgVFEcZz_q3mGCDEHkG_oFGbtJUD7lpMRLFbhlrAx9QKUbtSmD5sLAEOP7EzNfdC4zBgzJsaNLxRE2RItr3liHzun5QcgVRi2tj8zYkkUQ_srdxNZUs3-x5pxBVQQy_w_7GexKFQDhyM2CmmiYXEVCvFIDcYQPXbWs3s1sAD7CJRnBP7kJNf4p28TEIy7uKs2nkoY2Vm40?></g></svg>