<?plantuml 1.2026.2?><svg xmlns="http://www.w3.org/2000/svg" xmlns:xlink="http://www.w3.org/1999/xlink" contentStyleType="text/css" data-diagram-type="SEQUENCE" height="933px" preserveAspectRatio="none" style="width:1262px;height:933px;background:#FFFFFF;" version="1.1" viewBox="0 0 1262 933" width="1262px" zoomAndPan="magnify"><title>Client Installation &amp; Baseline-Etablierung</title><defs/><g><text fill="#000000" font-family="sans-serif" font-size="14" font-weight="bold" lengthAdjust="spacing" textLength="327.1201" x="468.8379" y="27.9951">Client Installation &amp; Baseline-Etablierung</text><g><title>TPM . SE</title><rect fill="#FFFFFF" height="354.2656" style="stroke:#181818;stroke-width:1;" width="10" x="71.5356" y="312.6875"/></g><g><title>ZAS</title><rect fill="#FFFFFF" height="582.0625" style="stroke:#181818;stroke-width:1;" width="10" x="508.1167" y="99.8906"/></g><rect fill="none" height="758.3984" style="stroke:#000000;stroke-width:1.5;" width="1245.7959" x="10" y="106.8906"/><rect fill="none" height="45.1328" style="stroke:#000000;stroke-width:1.5;" width="508.6816" x="462.4941" y="215.2891"/><rect fill="none" height="400.5313" style="stroke:#000000;stroke-width:1.5;" width="902.373" x="20" y="274.4219"/><g class="participant-lifeline" data-entity-uid="part1" data-qualified-name="TPM" id="part1-lifeline"><g><title>TPM . SE</title><rect fill="#000000" fill-opacity="0.00000" height="792.3984" width="8" x="72.5356" y="89.8906"/><line style="stroke:#181818;stroke-width:0.5;stroke-dasharray:5,5;" x1="76" x2="76" y1="89.8906" y2="882.2891"/></g></g><g class="participant-lifeline" data-entity-uid="part2" data-qualified-name="ZAS" id="part2-lifeline"><g><title>ZAS</title><rect fill="#000000" fill-opacity="0.00000" height="792.3984" width="8" x="509.1167" y="89.8906"/><line style="stroke:#181818;stroke-width:0.5;stroke-dasharray:5,5;" x1="512.4941" x2="512.4941" y1="89.8906" y2="882.2891"/></g></g><g class="participant-lifeline" data-entity-uid="part3" data-qualified-name="Client" id="part3-lifeline"><g><title>PS und ZETA</title><rect fill="#000000" fill-opacity="0.00000" height="792.3984" width="8" x="856.6592" y="89.8906"/><line style="stroke:#181818;stroke-width:0.5;stroke-dasharray:5,5;" x1="859.9453" x2="859.9453" y1="89.8906" y2="882.2891"/></g></g><g class="participant participant-head" data-entity-uid="part1" data-qualified-name="TPM" id="part1-head"><rect fill="#E2E2F0" height="46.5938" rx="2.5" ry="2.5" style="stroke:#181818;stroke-width:0.5;" width="93.0713" x="30" y="42.2969"/><text fill="#000000" font-family="sans-serif" font-size="14" lengthAdjust="spacing" textLength="60.4229" x="46.3242" y="62.292">TPM / SE</text><text fill="#000000" font-family="sans-serif" font-size="14" lengthAdjust="spacing" textLength="79.0713" x="37" y="78.5889">(Hardware)</text></g><g class="participant participant-tail" data-entity-uid="part1" data-qualified-name="TPM" id="part1-tail"><rect fill="#E2E2F0" height="46.5938" rx="2.5" ry="2.5" style="stroke:#181818;stroke-width:0.5;" width="93.0713" x="30" y="881.2891"/><text fill="#000000" font-family="sans-serif" font-size="14" lengthAdjust="spacing" textLength="60.4229" x="46.3242" y="901.2842">TPM / SE</text><text fill="#000000" font-family="sans-serif" font-size="14" lengthAdjust="spacing" textLength="79.0713" x="37" y="917.5811">(Hardware)</text></g><g class="participant participant-head" data-entity-uid="part2" data-qualified-name="ZAS" id="part2-head"><rect fill="#E2E2F0" height="46.5938" rx="2.5" ry="2.5" style="stroke:#181818;stroke-width:0.5;" width="81.2451" x="472.4941" y="42.2969"/><text fill="#000000" font-family="sans-serif" font-size="14" lengthAdjust="spacing" textLength="28.0547" x="499.0894" y="62.292">ZAS</text><text fill="#000000" font-family="sans-serif" font-size="14" lengthAdjust="spacing" textLength="67.2451" x="479.4941" y="78.5889">(Attester)</text></g><g class="participant participant-tail" data-entity-uid="part2" data-qualified-name="ZAS" id="part2-tail"><rect fill="#E2E2F0" height="46.5938" rx="2.5" ry="2.5" style="stroke:#181818;stroke-width:0.5;" width="81.2451" x="472.4941" y="881.2891"/><text fill="#000000" font-family="sans-serif" font-size="14" lengthAdjust="spacing" textLength="28.0547" x="499.0894" y="901.2842">ZAS</text><text fill="#000000" font-family="sans-serif" font-size="14" lengthAdjust="spacing" textLength="67.2451" x="479.4941" y="917.5811">(Attester)</text></g><g class="participant participant-head" data-entity-uid="part3" data-qualified-name="Client" id="part3-head"><rect fill="#E2E2F0" height="46.5938" rx="2.5" ry="2.5" style="stroke:#181818;stroke-width:0.5;" width="103.4277" x="808.9453" y="42.2969"/><text fill="#000000" font-family="sans-serif" font-size="14" lengthAdjust="spacing" textLength="89.4277" x="815.9453" y="62.292">PS und ZETA</text><text fill="#000000" font-family="sans-serif" font-size="14" lengthAdjust="spacing" textLength="40.5303" x="840.394" y="78.5889">Client</text></g><g class="participant participant-tail" data-entity-uid="part3" data-qualified-name="Client" id="part3-tail"><rect fill="#E2E2F0" height="46.5938" rx="2.5" ry="2.5" style="stroke:#181818;stroke-width:0.5;" width="103.4277" x="808.9453" y="881.2891"/><text fill="#000000" font-family="sans-serif" font-size="14" lengthAdjust="spacing" textLength="89.4277" x="815.9453" y="901.2842">PS und ZETA</text><text fill="#000000" font-family="sans-serif" font-size="14" lengthAdjust="spacing" textLength="40.5303" x="840.394" y="917.5811">Client</text></g><g><title>TPM . SE</title><rect fill="#FFFFFF" height="354.2656" style="stroke:#181818;stroke-width:1;" width="10" x="71.5356" y="312.6875"/></g><g><title>ZAS</title><rect fill="#FFFFFF" height="582.0625" style="stroke:#181818;stroke-width:1;" width="10" x="508.1167" y="99.8906"/></g><path d="M10,106.8906 L74.4429,106.8906 L74.4429,114.0234 L64.4429,124.0234 L10,124.0234 L10,106.8906" fill="#EEEEEE" style="stroke:#000000;stroke-width:1.5;"/><rect fill="none" height="758.3984" style="stroke:#000000;stroke-width:1.5;" width="1245.7959" x="10" y="106.8906"/><text fill="#000000" font-family="sans-serif" font-size="13" font-weight="bold" lengthAdjust="spacing" textLength="19.4429" x="25" y="119.9575">alt</text><text fill="#000000" font-family="sans-serif" font-size="11" font-weight="bold" lengthAdjust="spacing" textLength="211.9272" x="89.4429" y="119.1011">[Hardware Attestation (TPM / SE)]</text><g class="message" data-entity-1="part2" data-entity-2="part2" id="msg1"><line style="stroke:#181818;stroke-width:1;stroke-dasharray:2,2;" x1="518.1167" x2="560.1167" y1="145.1563" y2="145.1563"/><line style="stroke:#181818;stroke-width:1;stroke-dasharray:2,2;" x1="560.1167" x2="560.1167" y1="145.1563" y2="158.1563"/><line style="stroke:#181818;stroke-width:1;stroke-dasharray:2,2;" x1="519.1167" x2="560.1167" y1="158.1563" y2="158.1563"/><polygon fill="#181818" points="529.1167,154.1563,519.1167,158.1563,529.1167,162.1563,525.1167,158.1563" style="stroke:#181818;stroke-width:1;"/><text fill="#000000" font-family="sans-serif" font-size="13" lengthAdjust="spacing" textLength="184.8374" x="525.1167" y="140.0903">Installation (als Root/Admin)</text></g><g class="message" data-entity-1="part3" data-entity-2="part3" id="msg2"><line style="stroke:#181818;stroke-width:1;stroke-dasharray:2,2;" x1="860.6592" x2="902.6592" y1="187.2891" y2="187.2891"/><line style="stroke:#181818;stroke-width:1;stroke-dasharray:2,2;" x1="902.6592" x2="902.6592" y1="187.2891" y2="200.2891"/><line style="stroke:#181818;stroke-width:1;stroke-dasharray:2,2;" x1="861.6592" x2="902.6592" y1="200.2891" y2="200.2891"/><polygon fill="#181818" points="871.6592,196.2891,861.6592,200.2891,871.6592,204.2891,867.6592,200.2891" style="stroke:#181818;stroke-width:1;"/><text fill="#000000" font-family="sans-serif" font-size="13" lengthAdjust="spacing" textLength="159.6563" x="867.6592" y="182.2231">Installation (User Space)</text></g><path d="M462.4941,215.2891 L966.1758,215.2891 L966.1758,222.4219 L956.1758,232.4219 L462.4941,232.4219 L462.4941,215.2891" fill="#EEEEEE" style="stroke:#000000;stroke-width:1.5;"/><rect fill="none" height="45.1328" style="stroke:#000000;stroke-width:1.5;" width="508.6816" x="462.4941" y="215.2891"/><text fill="#000000" font-family="sans-serif" font-size="13" font-weight="bold" lengthAdjust="spacing" textLength="458.6816" x="477.4941" y="228.356">Vertrauensbeziehung zwischen ZAS und Client wird aufgebaut</text><g class="message" data-entity-1="part2" data-entity-2="part3" id="msg3"><polygon fill="#181818" points="848.6592,234.4219,858.6592,238.4219,848.6592,242.4219,852.6592,238.4219" style="stroke:#181818;stroke-width:1;"/><line style="stroke:#181818;stroke-width:1;" x1="518.1167" x2="854.6592" y1="238.4219" y2="238.4219"/></g><g class="message" data-entity-1="part3" data-entity-2="part2" id="msg4"><polygon fill="#181818" points="529.1167,248.4219,519.1167,252.4219,529.1167,256.4219,525.1167,252.4219" style="stroke:#181818;stroke-width:1;"/><line style="stroke:#181818;stroke-width:1;stroke-dasharray:2,2;" x1="523.1167" x2="859.6592" y1="252.4219" y2="252.4219"/></g><path d="M20,274.4219 L84.4429,274.4219 L84.4429,281.5547 L74.4429,291.5547 L20,291.5547 L20,274.4219" fill="#EEEEEE" style="stroke:#000000;stroke-width:1.5;"/><rect fill="none" height="400.5313" style="stroke:#000000;stroke-width:1.5;" width="902.373" x="20" y="274.4219"/><text fill="#000000" font-family="sans-serif" font-size="13" font-weight="bold" lengthAdjust="spacing" textLength="19.4429" x="35" y="287.4888">alt</text><text fill="#000000" font-family="sans-serif" font-size="11" font-weight="bold" lengthAdjust="spacing" textLength="151.54" x="99.4429" y="286.6323">[Windows / Linux (TPM)]</text><g class="message" data-entity-1="part3" data-entity-2="part1" id="msg5"><polygon fill="#181818" points="92.5356,308.6875,82.5356,312.6875,92.5356,316.6875,88.5356,312.6875" style="stroke:#181818;stroke-width:1;"/><line style="stroke:#181818;stroke-width:1;" x1="86.5356" x2="859.6592" y1="312.6875" y2="312.6875"/><text fill="#000000" font-family="sans-serif" font-size="13" lengthAdjust="spacing" textLength="454.9873" x="243.6038" y="307.6216">Generiere PrK.Client.Sig, PuK.Client.Sig via OS-Provider (z.B. MS CNG)</text></g><g class="message" data-entity-1="part1" data-entity-2="part3" id="msg6"><polygon fill="#181818" points="848.6592,337.8203,858.6592,341.8203,848.6592,345.8203,852.6592,341.8203" style="stroke:#181818;stroke-width:1;"/><line style="stroke:#181818;stroke-width:1;stroke-dasharray:2,2;" x1="81.5356" x2="854.6592" y1="341.8203" y2="341.8203"/><text fill="#000000" font-family="sans-serif" font-size="13" lengthAdjust="spacing" textLength="238.9512" x="351.6218" y="336.7544">PuK.Client.Sig, Handle_PrK.Client.Sig</text></g><g class="message" data-entity-1="part2" data-entity-2="part2" id="msg7"><line style="stroke:#181818;stroke-width:1;stroke-dasharray:2,2;" x1="518.1167" x2="560.1167" y1="370.9531" y2="370.9531"/><line style="stroke:#181818;stroke-width:1;stroke-dasharray:2,2;" x1="560.1167" x2="560.1167" y1="370.9531" y2="383.9531"/><line style="stroke:#181818;stroke-width:1;stroke-dasharray:2,2;" x1="519.1167" x2="560.1167" y1="383.9531" y2="383.9531"/><polygon fill="#181818" points="529.1167,379.9531,519.1167,383.9531,529.1167,387.9531,525.1167,383.9531" style="stroke:#181818;stroke-width:1;"/><text fill="#000000" font-family="sans-serif" font-size="13" lengthAdjust="spacing" textLength="313.5425" x="525.1167" y="365.8872">Messung des PS &amp; Vergleich mit Hersteller-Wert</text></g><g class="message" data-entity-1="part2" data-entity-2="part1" id="msg8"><polygon fill="#181818" points="92.5356,409.0859,82.5356,413.0859,92.5356,417.0859,88.5356,413.0859" style="stroke:#181818;stroke-width:1;"/><line style="stroke:#181818;stroke-width:1;" x1="86.5356" x2="507.1167" y1="413.0859" y2="413.0859"/><text fill="#000000" font-family="sans-serif" font-size="13" lengthAdjust="spacing" textLength="318.481" x="135.5857" y="408.02">TPM2_CreatePrimary() &#8594; Storage Root Key (SRK)</text></g><g class="message" data-entity-1="part2" data-entity-2="part1" id="msg9"><polygon fill="#181818" points="92.5356,438.2188,82.5356,442.2188,92.5356,446.2188,88.5356,442.2188" style="stroke:#181818;stroke-width:1;"/><line style="stroke:#181818;stroke-width:1;" x1="86.5356" x2="507.1167" y1="442.2188" y2="442.2188"/><text fill="#000000" font-family="sans-serif" font-size="13" lengthAdjust="spacing" textLength="334.8643" x="127.394" y="437.1528">TPM2_Create(SRK, restricted=sign, fixedTPM=true)</text></g><g class="message" data-entity-1="part1" data-entity-2="part2" id="msg10"><polygon fill="#181818" points="496.1167,467.3516,506.1167,471.3516,496.1167,475.3516,500.1167,471.3516" style="stroke:#181818;stroke-width:1;"/><line style="stroke:#181818;stroke-width:1;stroke-dasharray:2,2;" x1="81.5356" x2="502.1167" y1="471.3516" y2="471.3516"/><text fill="#000000" font-family="sans-serif" font-size="13" lengthAdjust="spacing" textLength="188.519" x="200.5667" y="466.2856">PuK.AK.Sig, PrK.AK.Sig (blob)</text></g><g class="message" data-entity-1="part2" data-entity-2="part1" id="msg11"><polygon fill="#181818" points="92.5356,496.4844,82.5356,500.4844,92.5356,504.4844,88.5356,500.4844" style="stroke:#181818;stroke-width:1;"/><line style="stroke:#181818;stroke-width:1;" x1="86.5356" x2="507.1167" y1="500.4844" y2="500.4844"/><text fill="#000000" font-family="sans-serif" font-size="13" lengthAdjust="spacing" textLength="402.5811" x="93.5356" y="495.4185">TPM2_Load(SRK, PrK.AK.Sig, PuK.AK.Sig) &#8594; Handle_PrK.AK.Sig</text></g><g class="message" data-entity-1="part2" data-entity-2="part1" id="msg12"><polygon fill="#181818" points="92.5356,528.6172,82.5356,532.6172,92.5356,536.6172,88.5356,532.6172" style="stroke:#181818;stroke-width:1;"/><line style="stroke:#181818;stroke-width:1;" x1="86.5356" x2="507.1167" y1="532.6172" y2="532.6172"/><text fill="#000000" font-family="sans-serif" font-size="13" lengthAdjust="spacing" textLength="224.4912" x="182.5806" y="527.5513">TPM2_PCR_Extend(23, Messwerte)</text></g><path d="M523,513.4844 L523,538.4844 L882,538.4844 L882,523.4844 L872,513.4844 L523,513.4844" fill="#FEFFDD" style="stroke:#181818;stroke-width:0.5;"/><path d="M872,513.4844 L872,523.4844 L882,523.4844 L872,513.4844" fill="#FEFFDD" style="stroke:#181818;stroke-width:0.5;"/><text fill="#000000" font-family="sans-serif" font-size="13" lengthAdjust="spacing" textLength="338.6729" x="529" y="530.5513">PCR_23 K&#246;nnte belegt; muss vorher gepr&#252;ft werden</text><line style="stroke:#000000;stroke-width:1;stroke-dasharray:2,2;" x1="20" x2="922.373" y1="544.6172" y2="544.6172"/><text fill="#000000" font-family="sans-serif" font-size="11" font-weight="bold" lengthAdjust="spacing" textLength="160.7568" x="25" y="554.8276">[macOS (Secure Enclave)]</text><g class="message" data-entity-1="part3" data-entity-2="part1" id="msg14"><polygon fill="#181818" points="92.5356,575.5547,82.5356,579.5547,92.5356,583.5547,88.5356,579.5547" style="stroke:#181818;stroke-width:1;"/><line style="stroke:#181818;stroke-width:1;" x1="86.5356" x2="859.6592" y1="579.5547" y2="579.5547"/><text fill="#000000" font-family="sans-serif" font-size="13" lengthAdjust="spacing" textLength="429.1777" x="256.5085" y="574.4888">SecKeyCreateRandomKey (f&#252;r PrK.Client.Sig, PuK.Client.Sig in SE)</text></g><g class="message" data-entity-1="part1" data-entity-2="part3" id="msg15"><polygon fill="#181818" points="848.6592,604.6875,858.6592,608.6875,848.6592,612.6875,852.6592,608.6875" style="stroke:#181818;stroke-width:1;"/><line style="stroke:#181818;stroke-width:1;stroke-dasharray:2,2;" x1="81.5356" x2="854.6592" y1="608.6875" y2="608.6875"/><text fill="#000000" font-family="sans-serif" font-size="13" lengthAdjust="spacing" textLength="238.9512" x="351.6218" y="603.6216">PuK.Client.Sig, Handle_PrK.Client.Sig</text></g><g class="message" data-entity-1="part2" data-entity-2="part1" id="msg16"><polygon fill="#181818" points="92.5356,633.8203,82.5356,637.8203,92.5356,641.8203,88.5356,637.8203" style="stroke:#181818;stroke-width:1;"/><line style="stroke:#181818;stroke-width:1;" x1="86.5356" x2="507.1167" y1="637.8203" y2="637.8203"/><text fill="#000000" font-family="sans-serif" font-size="13" lengthAdjust="spacing" textLength="342.7417" x="123.4553" y="632.7544">SecKeyCreateRandomKey (f&#252;r Attestation Key in SE)</text></g><g class="message" data-entity-1="part1" data-entity-2="part2" id="msg17"><polygon fill="#181818" points="496.1167,662.9531,506.1167,666.9531,496.1167,670.9531,500.1167,666.9531" style="stroke:#181818;stroke-width:1;"/><line style="stroke:#181818;stroke-width:1;stroke-dasharray:2,2;" x1="76.5356" x2="502.1167" y1="666.9531" y2="666.9531"/><text fill="#000000" font-family="sans-serif" font-size="13" lengthAdjust="spacing" textLength="198.5166" x="193.0679" y="661.8872">PuK.AK.Sig, Handle_PrK.AK.Sig</text></g><line style="stroke:#000000;stroke-width:1;stroke-dasharray:2,2;" x1="10" x2="1255.7959" y1="682.9531" y2="682.9531"/><text fill="#000000" font-family="sans-serif" font-size="11" font-weight="bold" lengthAdjust="spacing" textLength="205.5088" x="15" y="693.1636">[Software Attestation (Fallback)]</text><g class="message" data-entity-1="part3" data-entity-2="part3" id="msg18"><line style="stroke:#181818;stroke-width:1;stroke-dasharray:2,2;" x1="860.6592" x2="902.6592" y1="717.8906" y2="717.8906"/><line style="stroke:#181818;stroke-width:1;stroke-dasharray:2,2;" x1="902.6592" x2="902.6592" y1="717.8906" y2="730.8906"/><line style="stroke:#181818;stroke-width:1;stroke-dasharray:2,2;" x1="861.6592" x2="902.6592" y1="730.8906" y2="730.8906"/><polygon fill="#181818" points="871.6592,726.8906,861.6592,730.8906,871.6592,734.8906,867.6592,730.8906" style="stroke:#181818;stroke-width:1;"/><text fill="#000000" font-family="sans-serif" font-size="13" lengthAdjust="spacing" textLength="159.6563" x="867.6592" y="712.8247">Installation (User Space)</text></g><g class="message" data-entity-1="part3" data-entity-2="part3" id="msg19"><line style="stroke:#181818;stroke-width:1;" x1="860.6592" x2="902.6592" y1="760.0234" y2="760.0234"/><line style="stroke:#181818;stroke-width:1;" x1="902.6592" x2="902.6592" y1="760.0234" y2="773.0234"/><line style="stroke:#181818;stroke-width:1;" x1="861.6592" x2="902.6592" y1="773.0234" y2="773.0234"/><polygon fill="#181818" points="871.6592,769.0234,861.6592,773.0234,871.6592,777.0234,867.6592,773.0234" style="stroke:#181818;stroke-width:1;"/><text fill="#000000" font-family="sans-serif" font-size="13" lengthAdjust="spacing" textLength="376.1367" x="867.6592" y="754.9575">Generiere PrK.Client.Sig, PuK.Client.Sig lokal im RAM/Disk</text></g><g class="message" data-entity-1="part3" data-entity-2="part3" id="msg20"><line style="stroke:#181818;stroke-width:1;stroke-dasharray:2,2;" x1="860.6592" x2="902.6592" y1="802.1563" y2="802.1563"/><line style="stroke:#181818;stroke-width:1;stroke-dasharray:2,2;" x1="902.6592" x2="902.6592" y1="802.1563" y2="815.1563"/><line style="stroke:#181818;stroke-width:1;stroke-dasharray:2,2;" x1="861.6592" x2="902.6592" y1="815.1563" y2="815.1563"/><polygon fill="#181818" points="871.6592,811.1563,861.6592,815.1563,871.6592,819.1563,867.6592,815.1563" style="stroke:#181818;stroke-width:1;"/><text fill="#000000" font-family="sans-serif" font-size="13" lengthAdjust="spacing" textLength="310.0449" x="867.6592" y="797.0903">Lokale Messung des PS (Dateihashes ermitteln)</text></g><g class="message" data-entity-1="part3" data-entity-2="part3" id="msg21"><line style="stroke:#181818;stroke-width:1;" x1="860.6592" x2="902.6592" y1="844.2891" y2="844.2891"/><line style="stroke:#181818;stroke-width:1;" x1="902.6592" x2="902.6592" y1="844.2891" y2="857.2891"/><line style="stroke:#181818;stroke-width:1;" x1="861.6592" x2="902.6592" y1="857.2891" y2="857.2891"/><polygon fill="#181818" points="871.6592,853.2891,861.6592,857.2891,871.6592,861.2891,867.6592,857.2891" style="stroke:#181818;stroke-width:1;"/><text fill="#000000" font-family="sans-serif" font-size="13" lengthAdjust="spacing" textLength="274.2061" x="867.6592" y="839.2231">Speichere Baseline-Hash lokal &amp; sicher ab</text></g><?plantuml-src hLNTJXf15BxVfpZnmYo1nKJlQ3H1fDeWbR2s9iR4pEuUbWcpi_JCBAWFq0Vem_JAEz-aJz8pku2WfPgcNC3yd9_lVESxWvb8FHKaCZ3uhK0TOn-D4IcsbKmrnAWjacUbLGWT9NaBdxInGYbXPQvX5uw5GIKr1bqh8hQWGgUUnp6jZELKiCFEvQ0FUn1sRxH_9YYP2yBQ3WW3VB5fUTqEsQXjBHhEMndnsQRH88H29t3TlMpVw0fKQLWjFKye2yiyKCMgmFfB83KF-CE1w_Nb2eBWoFssDklpXJ8mp7ExrquogIl71H7Eerg-TFfYa22SYXWhXvJoOWfVaIm99jb4-21np4J1mroQU8owXE2gMiIUIqf05ACK8r7OCiWAw3BhwdGDZoFB7Q5El7BXoBYIEiddXai_bxguAtcelV8-SkserrjmYXg96uame5wpkcw6Cct0e5ZVmqmAk0Y30UKpcN35_aFpk0dz43gVJv_ZEzBNgTeCqk1MwKJXxMQkbVTcwSiUEP4w-X8qm7BOTToc2cKyXanozv5OFqeX1LTC-alw657BVUtVTWY5nG79JD2zNuDVttz0Q7FY0IYx3Zsy1pySzcflnN163I3M6idOOd9eU7uQC99tcB3PeQK2NtDI5kC8QVSM3DDo3NwaykWlUSzpaLHPdvqQQy6gQjROhOwt1nnqXhVTEylIyVSF6YN7SsPl3RREBGB9TEpQoDRx1z1x-gdvZO085QRs0sI5CJ3BQSnwI75AJuyZLZDImXgl58dA86GYlWYPMOmBrbbNnqhCS8icMy1ct8YAw24Nb6TbNqPFZ_IMHgLUpVl_5kCxmAs_Fkvq2neE5mIRGlXptznOB_87WUULL8RvoBv-wZxoQnI9UFAFBzPp0vRsxtuLL3uH2cG6mtP_xqIQoJO4vyuGNywoVy8yoh4mOzuZyJZp9EjjgCAf6tg7QlK_TCQk2n2xOCfR497dgFiD?></g></svg>