<?plantuml 1.2026.2?><svg xmlns="http://www.w3.org/2000/svg" xmlns:xlink="http://www.w3.org/1999/xlink" contentStyleType="text/css" data-diagram-type="SEQUENCE" height="941px" preserveAspectRatio="none" style="width:844px;height:941px;background:#FFFFFF;" version="1.1" viewBox="0 0 844 941" width="844px" zoomAndPan="magnify"><title>Client Installation &amp; Baseline-Etablierung</title><defs/><g><rect fill="#F8F8FF" height="891.8594" style="stroke:#181818;stroke-width:0.5;" width="683.9683" x="15.4204" y="43.2969"/><text fill="#000000" font-family="Helvetica" font-size="10" font-weight="bold" x="348.9426" y="52.5791">LEI</text><rect fill="#E6E6FA" height="875.2188" style="stroke:#181818;stroke-width:0.5;" width="411.6826" x="287.7061" y="59.9375"/><text fill="#000000" font-family="Helvetica" font-size="10" font-weight="bold" x="454.4507" y="69.2197">Prim&#228;rsystem</text><rect fill="#F4A460" height="858.5781" style="stroke:#181818;stroke-width:0.5;" width="164.9375" x="287.7061" y="76.5781"/><text fill="#000000" font-family="Helvetica" font-size="10" font-weight="bold" x="299.7061" y="85.8604">ZETA Attestation Service</text><rect fill="#F4A460" height="858.5781" style="stroke:#181818;stroke-width:0.5;" width="89" x="610.3887" y="76.5781"/><text fill="#000000" font-family="Helvetica" font-size="10" font-weight="bold" x="622.3887" y="85.8604">ZETA Client</text><text fill="#000000" font-family="Helvetica" font-size="14" font-weight="bold" x="266.3359" y="27.9951">Client Installation &amp; Baseline-Etablierung</text><g><title>TPM . SE</title><rect fill="#000000" fill-opacity="0.00000" height="783.6563" width="8" x="44.5" y="118.8594"/><line style="stroke:#181818;stroke-width:0.5;stroke-dasharray:5,5;" x1="48" x2="48" y1="118.8594" y2="902.5156"/></g><g><title/><rect fill="#FFFFFF" height="218.125" style="stroke:#181818;stroke-width:1;" width="10" x="43" y="381.625"/></g><g><title/><rect fill="#FFFFFF" height="76.9219" style="stroke:#181818;stroke-width:1;" width="10" x="43" y="661.0313"/></g><g><title>ZAS</title><rect fill="#000000" fill-opacity="0.00000" height="783.6563" width="8" x="366.6748" y="118.8594"/><line style="stroke:#181818;stroke-width:0.5;stroke-dasharray:5,5;" x1="370.1748" x2="370.1748" y1="118.8594" y2="902.5156"/></g><g><title/><rect fill="#FFFFFF" height="748.0156" style="stroke:#181818;stroke-width:1;" width="10" x="365.1748" y="154.5"/></g><g><title>ZETA Client</title><rect fill="#000000" fill-opacity="0.00000" height="783.6563" width="8" x="651.3887" y="118.8594"/><line style="stroke:#181818;stroke-width:0.5;stroke-dasharray:5,5;" x1="654.8887" x2="654.8887" y1="118.8594" y2="902.5156"/></g><g><title/><rect fill="#FFFFFF" height="709.375" style="stroke:#181818;stroke-width:1;" width="10" x="649.8887" y="193.1406"/></g><rect fill="#E2E2F0" height="25.6406" rx="2.5" ry="2.5" style="stroke:#181818;stroke-width:0.5;" width="57.1592" x="19.4204" y="92.2188"/><text fill="#000000" font-family="Helvetica" font-size="10" x="26.4204" y="108.501">TPM / SE</text><rect fill="#E2E2F0" height="25.6406" rx="2.5" ry="2.5" style="stroke:#181818;stroke-width:0.5;" width="34.0391" x="353.1553" y="92.2188"/><text fill="#000000" font-family="Helvetica" font-size="10" x="360.1553" y="108.501">ZAS</text><rect fill="#E2E2F0" height="25.6406" rx="2.5" ry="2.5" style="stroke:#181818;stroke-width:0.5;" width="72.2471" x="618.7651" y="92.2188"/><text fill="#000000" font-family="Helvetica" font-size="10" x="625.7651" y="108.501">ZETA Client</text><rect fill="#E2E2F0" height="25.6406" rx="2.5" ry="2.5" style="stroke:#181818;stroke-width:0.5;" width="57.1592" x="19.4204" y="902.5156"/><text fill="#000000" font-family="Helvetica" font-size="10" x="26.4204" y="918.7979">TPM / SE</text><rect fill="#E2E2F0" height="25.6406" rx="2.5" ry="2.5" style="stroke:#181818;stroke-width:0.5;" width="34.0391" x="353.1553" y="902.5156"/><text fill="#000000" font-family="Helvetica" font-size="10" x="360.1553" y="918.7979">ZAS</text><rect fill="#E2E2F0" height="25.6406" rx="2.5" ry="2.5" style="stroke:#181818;stroke-width:0.5;" width="72.2471" x="618.7651" y="902.5156"/><text fill="#000000" font-family="Helvetica" font-size="10" x="625.7651" y="918.7979">ZETA Client</text><path d="M8,130.8594 L67.9561,130.8594 L67.9561,134.5 L57.9561,144.5 L8,144.5 L8,130.8594" fill="#EEEEEE" style="stroke:#000000;stroke-width:1.5;"/><rect fill="none" height="747.6563" style="stroke:#000000;stroke-width:1.5;" width="829.9512" x="8" y="130.8594"/><text fill="#000000" font-family="Helvetica" font-size="10" font-weight="bold" x="23" y="141.1416">alt</text><text fill="#000000" font-family="Helvetica" font-size="10" font-weight="bold" x="82.9561" y="142.1416">[Hardware Attestation (TPM / SE)]</text><line style="stroke:#000000;stroke-width:1;stroke-dasharray:2,2;" x1="8" x2="837.9512" y1="770.9531" y2="770.9531"/><text fill="#000000" font-family="Helvetica" font-size="10" font-weight="bold" x="13" y="782.2354">[Software Attestation (Fallback)]</text><line style="stroke:#181818;stroke-width:1;stroke-dasharray:2,2;" x1="375.1748" x2="417.1748" y1="172.1406" y2="172.1406"/><line style="stroke:#181818;stroke-width:1;stroke-dasharray:2,2;" x1="417.1748" x2="417.1748" y1="172.1406" y2="185.1406"/><line style="stroke:#181818;stroke-width:1;stroke-dasharray:2,2;" x1="376.1748" x2="417.1748" y1="185.1406" y2="185.1406"/><polygon fill="#181818" points="386.1748,181.1406,376.1748,185.1406,386.1748,189.1406,382.1748,185.1406" style="stroke:#181818;stroke-width:1;"/><text fill="#000000" font-family="Helvetica" font-size="10" x="382.1748" y="167.7822">(01)</text><text fill="#000000" font-family="Helvetica" font-size="10" x="406.7021" y="167.7822">Installation (Root/Admin rights)</text><line style="stroke:#181818;stroke-width:1;stroke-dasharray:2,2;" x1="659.8887" x2="701.8887" y1="210.7813" y2="210.7813"/><line style="stroke:#181818;stroke-width:1;stroke-dasharray:2,2;" x1="701.8887" x2="701.8887" y1="210.7813" y2="223.7813"/><line style="stroke:#181818;stroke-width:1;stroke-dasharray:2,2;" x1="660.8887" x2="701.8887" y1="223.7813" y2="223.7813"/><polygon fill="#181818" points="670.8887,219.7813,660.8887,223.7813,670.8887,227.7813,666.8887,223.7813" style="stroke:#181818;stroke-width:1;"/><text fill="#000000" font-family="Helvetica" font-size="10" x="666.8887" y="206.4229">(02)</text><text fill="#000000" font-family="Helvetica" font-size="10" x="691.416" y="206.4229">Installation (User Space)</text><path d="M354.1748,235.7813 L752.0068,235.7813 L752.0068,239.4219 L742.0068,249.4219 L354.1748,249.4219 L354.1748,235.7813" fill="#EEEEEE" style="stroke:#000000;stroke-width:1.5;"/><rect fill="none" height="74.9219" style="stroke:#000000;stroke-width:1.5;" width="413.832" x="354.1748" y="235.7813"/><text fill="#000000" font-family="Helvetica" font-size="10" font-weight="bold" x="369.1748" y="246.0635">Vertrauensbeziehung zwischen ZAS und Client wird aufgebaut</text><polygon fill="#181818" points="637.8887,273.0625,647.8887,277.0625,637.8887,281.0625,641.8887,277.0625" style="stroke:#181818;stroke-width:1;"/><line style="stroke:#181818;stroke-width:1;" x1="375.1748" x2="643.8887" y1="277.0625" y2="277.0625"/><text fill="#000000" font-family="Helvetica" font-size="10" x="382.1748" y="272.7041">(03)</text><text fill="#000000" font-family="Helvetica" font-size="10" x="406.7021" y="272.7041">&#160;</text><polygon fill="#181818" points="386.1748,298.7031,376.1748,302.7031,386.1748,306.7031,382.1748,302.7031" style="stroke:#181818;stroke-width:1;"/><line style="stroke:#181818;stroke-width:1;stroke-dasharray:2,2;" x1="380.1748" x2="648.8887" y1="302.7031" y2="302.7031"/><text fill="#000000" font-family="Helvetica" font-size="10" x="392.1748" y="298.3447">(04)</text><text fill="#000000" font-family="Helvetica" font-size="10" x="416.7021" y="298.3447">&#160;</text><path d="M27,328.7031 L86.9561,328.7031 L86.9561,332.3438 L76.9561,342.3438 L27,342.3438 L27,328.7031" fill="#EEEEEE" style="stroke:#000000;stroke-width:1.5;"/><rect fill="none" height="417.25" style="stroke:#000000;stroke-width:1.5;" width="679.3496" x="27" y="328.7031"/><text fill="#000000" font-family="Helvetica" font-size="10" font-weight="bold" x="42" y="338.9854">alt</text><text fill="#000000" font-family="Helvetica" font-size="10" font-weight="bold" x="101.9561" y="339.9854">[Windows / Linux (TPM)]</text><line style="stroke:#000000;stroke-width:1;stroke-dasharray:2,2;" x1="27" x2="706.3496" y1="624.75" y2="624.75"/><text fill="#000000" font-family="Helvetica" font-size="10" font-weight="bold" x="32" y="636.0322">[macOS (Secure Enclave)]</text><polygon fill="#181818" points="64,377.625,54,381.625,64,385.625,60,381.625" style="stroke:#181818;stroke-width:1;"/><line style="stroke:#181818;stroke-width:1;" x1="58" x2="648.8887" y1="381.625" y2="381.625"/><text fill="#000000" font-family="Helvetica" font-size="10" x="70" y="371.4463">(05)</text><text fill="#000000" font-family="Helvetica" font-size="10" x="94.5273" y="365.626">Generiere PrK.Client.Sig, PuK.Client.Sig</text><text fill="#000000" font-family="Helvetica" font-size="10" x="94.5273" y="377.2666">via OS-Provider (z.B. MS CNG)</text><polygon fill="#181818" points="637.8887,403.2656,647.8887,407.2656,637.8887,411.2656,641.8887,407.2656" style="stroke:#181818;stroke-width:1;"/><line style="stroke:#181818;stroke-width:1;stroke-dasharray:2,2;" x1="53" x2="643.8887" y1="407.2656" y2="407.2656"/><text fill="#000000" font-family="Helvetica" font-size="10" x="60" y="402.9072">(06)</text><text fill="#000000" font-family="Helvetica" font-size="10" x="84.5273" y="402.9072">PuK.Client.Sig, Handle_PrK.Client.Sig</text><line style="stroke:#181818;stroke-width:1;stroke-dasharray:2,2;" x1="375.1748" x2="417.1748" y1="432.9063" y2="432.9063"/><line style="stroke:#181818;stroke-width:1;stroke-dasharray:2,2;" x1="417.1748" x2="417.1748" y1="432.9063" y2="445.9063"/><line style="stroke:#181818;stroke-width:1;stroke-dasharray:2,2;" x1="376.1748" x2="417.1748" y1="445.9063" y2="445.9063"/><polygon fill="#181818" points="386.1748,441.9063,376.1748,445.9063,386.1748,449.9063,382.1748,445.9063" style="stroke:#181818;stroke-width:1;"/><text fill="#000000" font-family="Helvetica" font-size="10" x="382.1748" y="428.5479">(07)</text><text fill="#000000" font-family="Helvetica" font-size="10" x="406.7021" y="428.5479">Messung des PS &amp; Vergleich mit Hersteller-Wert</text><polygon fill="#181818" points="64,467.5469,54,471.5469,64,475.5469,60,471.5469" style="stroke:#181818;stroke-width:1;"/><line style="stroke:#181818;stroke-width:1;" x1="58" x2="364.1748" y1="471.5469" y2="471.5469"/><text fill="#000000" font-family="Helvetica" font-size="10" x="70" y="467.1885">(08)</text><text fill="#000000" font-family="Helvetica" font-size="10" x="94.5273" y="467.1885">TPM2_CreatePrimary() &#8594; Storage Root Key (SRK)</text><polygon fill="#181818" points="64,493.1875,54,497.1875,64,501.1875,60,497.1875" style="stroke:#181818;stroke-width:1;"/><line style="stroke:#181818;stroke-width:1;" x1="58" x2="364.1748" y1="497.1875" y2="497.1875"/><text fill="#000000" font-family="Helvetica" font-size="10" x="70" y="492.8291">(09)</text><text fill="#000000" font-family="Helvetica" font-size="10" x="94.5273" y="492.8291">TPM2_Create(SRK, restricted=sign, fixedTPM=true)</text><polygon fill="#181818" points="353.1748,518.8281,363.1748,522.8281,353.1748,526.8281,357.1748,522.8281" style="stroke:#181818;stroke-width:1;"/><line style="stroke:#181818;stroke-width:1;stroke-dasharray:2,2;" x1="53" x2="359.1748" y1="522.8281" y2="522.8281"/><text fill="#000000" font-family="Helvetica" font-size="10" x="60" y="518.4697">(10)</text><text fill="#000000" font-family="Helvetica" font-size="10" x="84.5273" y="518.4697">PuK.AK.Sig, PrK.AK.Sig (blob)</text><polygon fill="#181818" points="64,544.4688,54,548.4688,64,552.4688,60,548.4688" style="stroke:#181818;stroke-width:1;"/><line style="stroke:#181818;stroke-width:1;" x1="58" x2="364.1748" y1="548.4688" y2="548.4688"/><text fill="#000000" font-family="Helvetica" font-size="10" x="70" y="544.1104">(11)</text><text fill="#000000" font-family="Helvetica" font-size="10" x="94.5273" y="544.1104">TPM2_Load(SRK, PrK.AK.Sig, PuK.AK.Sig)</text><polygon fill="#181818" points="353.1748,570.1094,363.1748,574.1094,353.1748,578.1094,357.1748,574.1094" style="stroke:#181818;stroke-width:1;"/><line style="stroke:#181818;stroke-width:1;stroke-dasharray:2,2;" x1="53" x2="359.1748" y1="574.1094" y2="574.1094"/><text fill="#000000" font-family="Helvetica" font-size="10" x="60" y="569.751">(12)</text><text fill="#000000" font-family="Helvetica" font-size="10" x="84.5273" y="569.751">Handle_PrK.AK.Sig</text><polygon fill="#181818" points="64,595.75,54,599.75,64,603.75,60,599.75" style="stroke:#181818;stroke-width:1;"/><line style="stroke:#181818;stroke-width:1;" x1="58" x2="364.1748" y1="599.75" y2="599.75"/><text fill="#000000" font-family="Helvetica" font-size="10" x="70" y="595.3916">(13)</text><text fill="#000000" font-family="Helvetica" font-size="10" x="94.5273" y="595.3916">TPM2_PCR_Extend(23, Messwerte)</text><path d="M380.1748,587.1094 L380.1748,608.1094 L685.1748,608.1094 L685.1748,597.1094 L675.1748,587.1094 L380.1748,587.1094" fill="#FEFFDD" style="stroke:#181818;stroke-width:0.5;"/><path d="M675.1748,587.1094 L675.1748,597.1094 L685.1748,597.1094 L675.1748,587.1094" fill="#FEFFDD" style="stroke:#181818;stroke-width:0.5;"/><text fill="#000000" font-family="Helvetica" font-size="10" x="386.1748" y="601.3916">PCR_23 K&#246;nnte belegt sein; muss vorher gepr&#252;ft werden</text><polygon fill="#181818" points="64,657.0313,54,661.0313,64,665.0313,60,661.0313" style="stroke:#181818;stroke-width:1;"/><line style="stroke:#181818;stroke-width:1;" x1="58" x2="648.8887" y1="661.0313" y2="661.0313"/><text fill="#000000" font-family="Helvetica" font-size="10" x="70" y="656.6729">(14)</text><text fill="#000000" font-family="Helvetica" font-size="10" x="94.5273" y="656.6729">SecKeyCreateRandomKey (f&#252;r PrK.Client.Sig, PuK.Client.Sig in SE)</text><polygon fill="#181818" points="637.8887,682.6719,647.8887,686.6719,637.8887,690.6719,641.8887,686.6719" style="stroke:#181818;stroke-width:1;"/><line style="stroke:#181818;stroke-width:1;stroke-dasharray:2,2;" x1="53" x2="643.8887" y1="686.6719" y2="686.6719"/><text fill="#000000" font-family="Helvetica" font-size="10" x="60" y="682.3135">(15)</text><text fill="#000000" font-family="Helvetica" font-size="10" x="84.5273" y="682.3135">PuK.Client.Sig, Handle_PrK.Client.Sig</text><polygon fill="#181818" points="64,708.3125,54,712.3125,64,716.3125,60,712.3125" style="stroke:#181818;stroke-width:1;"/><line style="stroke:#181818;stroke-width:1;" x1="58" x2="364.1748" y1="712.3125" y2="712.3125"/><text fill="#000000" font-family="Helvetica" font-size="10" x="70" y="707.9541">(16)</text><text fill="#000000" font-family="Helvetica" font-size="10" x="94.5273" y="707.9541">SecKeyCreateRandomKey (f&#252;r Attestation Key in SE)</text><polygon fill="#181818" points="353.1748,733.9531,363.1748,737.9531,353.1748,741.9531,357.1748,737.9531" style="stroke:#181818;stroke-width:1;"/><line style="stroke:#181818;stroke-width:1;stroke-dasharray:2,2;" x1="53" x2="359.1748" y1="737.9531" y2="737.9531"/><text fill="#000000" font-family="Helvetica" font-size="10" x="60" y="733.5947">(17)</text><text fill="#000000" font-family="Helvetica" font-size="10" x="84.5273" y="733.5947">PuK.AK.Sig, Handle_PrK.AK.Sig</text><line style="stroke:#181818;stroke-width:1;stroke-dasharray:2,2;" x1="659.8887" x2="701.8887" y1="807.2344" y2="807.2344"/><line style="stroke:#181818;stroke-width:1;stroke-dasharray:2,2;" x1="701.8887" x2="701.8887" y1="807.2344" y2="820.2344"/><line style="stroke:#181818;stroke-width:1;stroke-dasharray:2,2;" x1="660.8887" x2="701.8887" y1="820.2344" y2="820.2344"/><polygon fill="#181818" points="670.8887,816.2344,660.8887,820.2344,670.8887,824.2344,666.8887,820.2344" style="stroke:#181818;stroke-width:1;"/><text fill="#000000" font-family="Helvetica" font-size="10" x="666.8887" y="802.876">(18)</text><text fill="#000000" font-family="Helvetica" font-size="10" x="691.416" y="802.876">Installation (User Space)</text><line style="stroke:#181818;stroke-width:1;" x1="659.8887" x2="701.8887" y1="857.5156" y2="857.5156"/><line style="stroke:#181818;stroke-width:1;" x1="701.8887" x2="701.8887" y1="857.5156" y2="870.5156"/><line style="stroke:#181818;stroke-width:1;" x1="660.8887" x2="701.8887" y1="870.5156" y2="870.5156"/><polygon fill="#181818" points="670.8887,866.5156,660.8887,870.5156,670.8887,874.5156,666.8887,870.5156" style="stroke:#181818;stroke-width:1;"/><text fill="#000000" font-family="Helvetica" font-size="10" x="666.8887" y="847.3369">(19)</text><text fill="#000000" font-family="Helvetica" font-size="10" x="691.416" y="841.5166">Generiere PrK.Client.Sig,</text><text fill="#000000" font-family="Helvetica" font-size="10" x="691.416" y="853.1572">PuK.Client.Sig</text><?plantuml-src hLLHRjj64FtdAQOgq5AGwBZEdui4a1N53YGdWfZKG130M98ZSklbhhgxb6mTe0Ve6Ng6VkNFD-b9ChkKB5AM7Q3eZyJbphoPUVDco2ghP5KcgA4J7XztEu6vuNB1D2iXmpchX7shf8tv6k6NuyENxrc9S85YYPQdh67pfhQvL5AP1KinUx0Ugafpr0rRWJAtnI3xlJ8Mf9BOk3FuHuKonHdEKRk7CvRUv5fLCXigeJHS5Tms7U9zXrqD9mTmBz4ObkD0y5nI8dCR19PRGMaAZjB2Esai4u9PhYJy16VCeE0Iev5b2LdeIkP1yCD2ixnaO56jmUeAWo1Hjz2PZDvruCVpGXbRfmb0qOaflc24tVaulOGN48ywm0pGWUwztrJpylvlRUwCnP8G9co9CYFE03OMdqSV1p2m5YaxdrgCUibJ9EEOoUpkJAkLzERja9y7iOlLeV-EloPSXxY7N1T_2AmDjo798pRyciZkCTZ5sVu7J5YuO3fRCOsjIi8jAzt0ur2glTu6nPyWYbwx_zDsSyAPKlR582kv1CtpmfgkzwXpwlKQ1uzGF-w3V38q3h5JREtjfBQ0tr1RpKWm9i4rnuAw3kiLDsc1qgT4SjnYhxZEW5Np71DMsGVQVEBRg0zl6_cGmPQtkd37q1MNcLePucF2PNNhoUa-ydxjnDFhdS8vIdJ3XJ3LuwFw-YZcUH-cLVFyHIuvWmznDDLgoKbP4AwFpexWCeRX-_DT0DUA9bTjb3urK6O2hzl1sYLlU-K6pT6MeO5fJAD4dEO2ULf0oKaAg4diGg2EheZiVTeeaLFtSt8zrCWikWbX-Yximhz__WMnLJI024u1CCOx2EFPkFiz36VK1qt2qporcBqoj0FwCEUtc97PApV8ZwdmnJWU1kCDithx364YLF9Ct8bYMHrrvzHlW3qHhS5oRVTqXEbmTZswjQIXyEHbtvE-8ZeRTKXbiPuFAeEiJrx2-FuVAUbjWW9pIwkHor-Xh8o1fT85YIF7XRx_EYTjeyv8ySqqewXMhJ089Ki_n4G-fXL9S2HJGOlh6RcI8NMhxiQCYbIbRzxy_gl-Ze21XjnjYFzHg1iQdykfkQRSsoUI8BWeQelaS0lzg7lcOZMtZpVXMzfB2NtlklzjT-tutje_kH--o3PZtl_dGo4dweRHvt5ldCCtH1Slc2deZ9eccePPTlTWTYZnmas-I-JXYtf1pY0SEYq7us-19Uw34Nm3?></g></svg>