<?plantuml 1.2026.2?><svg xmlns="http://www.w3.org/2000/svg" xmlns:xlink="http://www.w3.org/1999/xlink" contentStyleType="text/css" data-diagram-type="SEQUENCE" height="703px" preserveAspectRatio="none" style="width:587px;height:703px;background:#FFFFFF;" version="1.1" viewBox="0 0 587 703" width="587px" zoomAndPan="magnify"><title>Client Start &amp; Initialisierung</title><defs/><g><rect fill="#F8F8FF" height="654.2969" style="stroke:#181818;stroke-width:0.5;" width="470.228" x="11" y="43.2969"/><text fill="#000000" font-family="Helvetica" font-size="10" font-weight="bold" x="237.6521" y="52.5791">LEI</text><rect fill="#E6E6FA" height="637.6563" style="stroke:#181818;stroke-width:0.5;" width="257.8765" x="223.3516" y="59.9375"/><text fill="#000000" font-family="Helvetica" font-size="10" font-weight="bold" x="313.1931" y="69.2197">Prim&#228;rsystem</text><rect fill="#F4A460" height="621.0156" style="stroke:#181818;stroke-width:0.5;" width="96.2021" x="223.3516" y="76.5781"/><text fill="#000000" font-family="Helvetica" font-size="10" font-weight="bold" x="235.3516" y="85.8604">ZAS Attester</text><rect fill="#F4A460" height="621.0156" style="stroke:#181818;stroke-width:0.5;" width="89" x="392.228" y="76.5781"/><text fill="#000000" font-family="Helvetica" font-size="10" font-weight="bold" x="404.228" y="85.8604">ZETA Client</text><text fill="#000000" font-family="Helvetica" font-size="14" font-weight="bold" x="185.4001" y="27.9951">Client Start &amp; Initialisierung</text><g><title>TPM . SE</title><rect fill="#000000" fill-opacity="0.00000" height="522.8125" width="8" x="46.7397" y="130.5"/><line style="stroke:#181818;stroke-width:0.5;stroke-dasharray:5,5;" x1="50.2397" x2="50.2397" y1="130.5" y2="653.3125"/></g><g><title>ZAS</title><rect fill="#000000" fill-opacity="0.00000" height="522.8125" width="8" x="267.9526" y="130.5"/><line style="stroke:#181818;stroke-width:0.5;stroke-dasharray:5,5;" x1="271.4526" x2="271.4526" y1="130.5" y2="653.3125"/></g><g><title>PS und ZETA</title><rect fill="#000000" fill-opacity="0.00000" height="522.8125" width="8" x="433.228" y="130.5"/><line style="stroke:#181818;stroke-width:0.5;stroke-dasharray:5,5;" x1="436.728" x2="436.728" y1="130.5" y2="653.3125"/></g><rect fill="#E2E2F0" height="37.2813" rx="2.5" ry="2.5" style="stroke:#181818;stroke-width:0.5;" width="70.4795" x="15" y="92.2188"/><text fill="#000000" font-family="Helvetica" font-size="10" x="28.6602" y="108.501">TPM / SE</text><text fill="#000000" font-family="Helvetica" font-size="10" x="22" y="120.1416">(Hardware)</text><rect fill="#E2E2F0" height="37.2813" rx="2.5" ry="2.5" style="stroke:#181818;stroke-width:0.5;" width="62.0322" x="240.4365" y="92.2188"/><text fill="#000000" font-family="Helvetica" font-size="10" x="261.4331" y="108.501">ZAS</text><text fill="#000000" font-family="Helvetica" font-size="10" x="247.4365" y="120.1416">(Attester)</text><rect fill="#E2E2F0" height="37.2813" rx="2.5" ry="2.5" style="stroke:#181818;stroke-width:0.5;" width="77.877" x="397.7896" y="92.2188"/><text fill="#000000" font-family="Helvetica" font-size="10" x="404.7896" y="108.501">PS und ZETA</text><text fill="#000000" font-family="Helvetica" font-size="10" x="422.2529" y="120.1416">Client</text><rect fill="#E2E2F0" height="37.2813" rx="2.5" ry="2.5" style="stroke:#181818;stroke-width:0.5;" width="70.4795" x="15" y="653.3125"/><text fill="#000000" font-family="Helvetica" font-size="10" x="28.6602" y="669.5947">TPM / SE</text><text fill="#000000" font-family="Helvetica" font-size="10" x="22" y="681.2354">(Hardware)</text><rect fill="#E2E2F0" height="37.2813" rx="2.5" ry="2.5" style="stroke:#181818;stroke-width:0.5;" width="62.0322" x="240.4365" y="653.3125"/><text fill="#000000" font-family="Helvetica" font-size="10" x="261.4331" y="669.5947">ZAS</text><text fill="#000000" font-family="Helvetica" font-size="10" x="247.4365" y="681.2354">(Attester)</text><rect fill="#E2E2F0" height="37.2813" rx="2.5" ry="2.5" style="stroke:#181818;stroke-width:0.5;" width="77.877" x="397.7896" y="653.3125"/><text fill="#000000" font-family="Helvetica" font-size="10" x="404.7896" y="669.5947">PS und ZETA</text><text fill="#000000" font-family="Helvetica" font-size="10" x="422.2529" y="681.2354">Client</text><path d="M15.2397,142.5 L75.1958,142.5 L75.1958,146.1406 L65.1958,156.1406 L15.2397,156.1406 L15.2397,142.5" fill="#EEEEEE" style="stroke:#000000;stroke-width:1.5;"/><rect fill="none" height="486.8125" style="stroke:#000000;stroke-width:1.5;" width="565.2344" x="15.2397" y="142.5"/><text fill="#000000" font-family="Helvetica" font-size="10" font-weight="bold" x="30.2397" y="152.7822">alt</text><text fill="#000000" font-family="Helvetica" font-size="10" font-weight="bold" x="90.1958" y="153.7822">[Hardware Attestation (TPM / SE)]</text><line style="stroke:#000000;stroke-width:1;stroke-dasharray:2,2;" x1="15.2397" x2="580.4741" y1="498.4688" y2="498.4688"/><text fill="#000000" font-family="Helvetica" font-size="10" font-weight="bold" x="20.2397" y="509.751">[Software Attestation (Fallback)]</text><line style="stroke:#181818;stroke-width:1;" x1="271.4526" x2="313.4526" y1="207.0625" y2="207.0625"/><line style="stroke:#181818;stroke-width:1;" x1="313.4526" x2="313.4526" y1="207.0625" y2="220.0625"/><line style="stroke:#181818;stroke-width:1;" x1="272.4526" x2="313.4526" y1="220.0625" y2="220.0625"/><polygon fill="#181818" points="282.4526,216.0625,272.4526,220.0625,282.4526,224.0625,278.4526,220.0625" style="stroke:#181818;stroke-width:1;"/><text fill="#000000" font-family="Helvetica" font-size="10" x="278.4526" y="191.0635">(01)</text><text fill="#000000" font-family="Helvetica" font-size="10" x="302.98" y="179.4229">Startet als</text><text fill="#000000" font-family="Helvetica" font-size="10" x="306.1587" y="191.0635">Hintergrunddienst</text><text fill="#000000" font-family="Helvetica" font-size="10" x="306.1587" y="202.7041">(Root/Admin)</text><path d="M34.2397,232.0625 L94.1958,232.0625 L94.1958,235.7031 L84.1958,245.7031 L34.2397,245.7031 L34.2397,232.0625" fill="#EEEEEE" style="stroke:#000000;stroke-width:1.5;"/><rect fill="none" height="191.125" style="stroke:#000000;stroke-width:1.5;" width="418.4883" x="34.2397" y="232.0625"/><text fill="#000000" font-family="Helvetica" font-size="10" font-weight="bold" x="49.2397" y="242.3447">alt</text><text fill="#000000" font-family="Helvetica" font-size="10" font-weight="bold" x="109.1958" y="243.3447">[Windows / Linux (TPM)]</text><line style="stroke:#000000;stroke-width:1;stroke-dasharray:2,2;" x1="34.2397" x2="452.728" y1="330.9844" y2="330.9844"/><text fill="#000000" font-family="Helvetica" font-size="10" font-weight="bold" x="39.2397" y="342.2666">[macOS (Secure Enclave)]</text><line style="stroke:#181818;stroke-width:1;stroke-dasharray:2,2;" x1="271.4526" x2="313.4526" y1="273.3438" y2="273.3438"/><line style="stroke:#181818;stroke-width:1;stroke-dasharray:2,2;" x1="313.4526" x2="313.4526" y1="273.3438" y2="286.3438"/><line style="stroke:#181818;stroke-width:1;stroke-dasharray:2,2;" x1="272.4526" x2="313.4526" y1="286.3438" y2="286.3438"/><polygon fill="#181818" points="282.4526,282.3438,272.4526,286.3438,282.4526,290.3438,278.4526,286.3438" style="stroke:#181818;stroke-width:1;"/><text fill="#000000" font-family="Helvetica" font-size="10" x="278.4526" y="268.9854">(02)</text><text fill="#000000" font-family="Helvetica" font-size="10" x="302.98" y="268.9854">Messung des PS</text><polygon fill="#181818" points="61.2397,307.9844,51.2397,311.9844,61.2397,315.9844,57.2397,311.9844" style="stroke:#181818;stroke-width:1;"/><line style="stroke:#181818;stroke-width:1;" x1="55.2397" x2="270.4526" y1="311.9844" y2="311.9844"/><text fill="#000000" font-family="Helvetica" font-size="10" x="67.2397" y="307.626">(03)</text><text fill="#000000" font-family="Helvetica" font-size="10" x="91.7671" y="307.626">TPM2_PCR_Extend(23, Messwerte)</text><line style="stroke:#181818;stroke-width:1;stroke-dasharray:2,2;" x1="271.4526" x2="313.4526" y1="402.1875" y2="402.1875"/><line style="stroke:#181818;stroke-width:1;stroke-dasharray:2,2;" x1="313.4526" x2="313.4526" y1="402.1875" y2="415.1875"/><line style="stroke:#181818;stroke-width:1;stroke-dasharray:2,2;" x1="272.4526" x2="313.4526" y1="415.1875" y2="415.1875"/><polygon fill="#181818" points="282.4526,411.1875,272.4526,415.1875,282.4526,419.1875,278.4526,415.1875" style="stroke:#181818;stroke-width:1;"/><text fill="#000000" font-family="Helvetica" font-size="10" x="278.4526" y="380.3682">(04)</text><text fill="#000000" font-family="Helvetica" font-size="10" x="302.98" y="362.9072">Initiale Ermittlung</text><text fill="#000000" font-family="Helvetica" font-size="10" x="306.1587" y="374.5479">der Posture (SIP-Status,</text><text fill="#000000" font-family="Helvetica" font-size="10" x="306.1587" y="386.1885">Gatekeeper, OS-Version,</text><text fill="#000000" font-family="Helvetica" font-size="10" x="306.1587" y="397.8291">Secure Boot Policy)</text><line style="stroke:#181818;stroke-width:1;stroke-dasharray:2,2;" x1="436.728" x2="478.728" y1="466.4688" y2="466.4688"/><line style="stroke:#181818;stroke-width:1;stroke-dasharray:2,2;" x1="478.728" x2="478.728" y1="466.4688" y2="479.4688"/><line style="stroke:#181818;stroke-width:1;stroke-dasharray:2,2;" x1="437.728" x2="478.728" y1="479.4688" y2="479.4688"/><polygon fill="#181818" points="447.728,475.4688,437.728,479.4688,447.728,483.4688,443.728,479.4688" style="stroke:#181818;stroke-width:1;"/><text fill="#000000" font-family="Helvetica" font-size="10" x="443.728" y="456.29">(05)</text><text fill="#000000" font-family="Helvetica" font-size="10" x="468.2554" y="450.4697">Start</text><text fill="#000000" font-family="Helvetica" font-size="10" x="471.4341" y="462.1104">(User Space)</text><line style="stroke:#181818;stroke-width:1;" x1="436.728" x2="478.728" y1="546.3906" y2="546.3906"/><line style="stroke:#181818;stroke-width:1;" x1="478.728" x2="478.728" y1="546.3906" y2="559.3906"/><line style="stroke:#181818;stroke-width:1;" x1="437.728" x2="478.728" y1="559.3906" y2="559.3906"/><polygon fill="#181818" points="447.728,555.3906,437.728,559.3906,447.728,563.3906,443.728,559.3906" style="stroke:#181818;stroke-width:1;"/><text fill="#000000" font-family="Helvetica" font-size="10" x="443.728" y="536.2119">(06)</text><text fill="#000000" font-family="Helvetica" font-size="10" x="468.2554" y="530.3916">Start</text><text fill="#000000" font-family="Helvetica" font-size="10" x="471.4341" y="542.0322">(User Space)</text><line style="stroke:#181818;stroke-width:1;stroke-dasharray:2,2;" x1="436.728" x2="478.728" y1="608.3125" y2="608.3125"/><line style="stroke:#181818;stroke-width:1;stroke-dasharray:2,2;" x1="478.728" x2="478.728" y1="608.3125" y2="621.3125"/><line style="stroke:#181818;stroke-width:1;stroke-dasharray:2,2;" x1="437.728" x2="478.728" y1="621.3125" y2="621.3125"/><polygon fill="#181818" points="447.728,617.3125,437.728,621.3125,447.728,625.3125,443.728,621.3125" style="stroke:#181818;stroke-width:1;"/><text fill="#000000" font-family="Helvetica" font-size="10" x="443.728" y="592.3135">(07)</text><text fill="#000000" font-family="Helvetica" font-size="10" x="468.2554" y="580.6729">Lokale</text><text fill="#000000" font-family="Helvetica" font-size="10" x="471.4341" y="592.3135">Datensammlung</text><text fill="#000000" font-family="Helvetica" font-size="10" x="471.4341" y="603.9541">(PS-Messung)</text><?plantuml-src ZLFRJXin47ttLqnJgTgL4a7f6mz80S952cM5QP6gICZiJXOtNZkrPmdXU_ed_R6Ezq922shpiB7MPywPSsPMrUHiNTsXXq6okviEH5XekrHULL3WNDM6JfmbgPyGFkw-VlbPLGXdQ1wGTAwsCCSjvi9P5vOgn-8PVUHghz5lOGtQakx7nVSw45XdSUiku8yQROvNE4SV3uSgNvJUrROuSiPvkBdNj5qW_opOUDXxXVS2Gr0bZeqkBJSo9o58a-4sZKPB84bvWWzmRZLfPNJWrcjR2l5kwLLPAI1qJq2-HY7kt2CCffFp0Rm_lNU1sjO0M97JqKl5V8Fhx09sG4vcDZbJlbWfZ-a0L02-O6p3aNbT_VhfmpeGLimsLGze2yuCkb-3-ZQMC2P21da6IMMBzQ5tA_iCUo7CSDRi2rfDVjU0cJroYWttv7hSHV0Vr9a4dWV4efdjgvY-FMuhnAFOwFN_GXc2FexEb2BjB2HzNcb34psF3kBVVZiQ950cp2oSQSksIXvEKR1g87wNN3b7E-EYqhOjRnvHwqRRmgq2Cq-rhHyRcVJPNAFIoyGDuOdprWV8v4lCGPpQVdpitMP7LxUJHs9BoTwdOLEsGcwmfKKJ42gLNqf89EOrsvpOtF1Wtv3j5evXlj94XbjWHxm4aF5gnVf4dcSZ3e7gCEIhKqMuG5oY7yAb77r57pZ0UDFf7N8ON6nqlaxxcMnIwVOzwhV7Bc28ENu9h2lZTvmAqLYHRav_3-j46NF77sZwWl9VZ6_8JzqY-cVqCLkpGLLLJA4fp-IecqiQbqZy1W00?></g></svg>