<?plantuml 1.2026.2?><svg xmlns="http://www.w3.org/2000/svg" xmlns:xlink="http://www.w3.org/1999/xlink" contentStyleType="text/css" data-diagram-type="SEQUENCE" height="526px" preserveAspectRatio="none" style="width:570px;height:526px;background:#FFFFFF;" version="1.1" viewBox="0 0 570 526" width="570px" zoomAndPan="magnify"><title>Client Start &amp; Initialisierung</title><defs/><g><rect fill="#F8F8FF" height="477.5313" style="stroke:#181818;stroke-width:0.5;" width="492.8452" x="11" y="43.2969"/><text fill="#000000" font-family="Helvetica" font-size="10" font-weight="bold" x="248.9607" y="52.5791">LEI</text><rect fill="#E6E6FA" height="460.8906" style="stroke:#181818;stroke-width:0.5;" width="316.5215" x="187.3237" y="59.9375"/><text fill="#000000" font-family="Helvetica" font-size="10" font-weight="bold" x="306.4878" y="69.2197">Prim&#228;rsystem</text><rect fill="#F4A460" height="444.25" style="stroke:#181818;stroke-width:0.5;" width="164.9375" x="187.3237" y="76.5781"/><text fill="#000000" font-family="Helvetica" font-size="10" font-weight="bold" x="199.3237" y="85.8604">ZETA Attestation Service</text><rect fill="#F4A460" height="444.25" style="stroke:#181818;stroke-width:0.5;" width="89" x="414.8452" y="76.5781"/><text fill="#000000" font-family="Helvetica" font-size="10" font-weight="bold" x="426.8452" y="85.8604">ZETA Client</text><text fill="#000000" font-family="Helvetica" font-size="14" font-weight="bold" x="175.8127" y="27.9951">Client Start &amp; Initialisierung</text><g><title>TPM . SE</title><rect fill="#000000" fill-opacity="0.00000" height="369.3281" width="8" x="40.0796" y="118.8594"/><line style="stroke:#181818;stroke-width:0.5;stroke-dasharray:5,5;" x1="43.5796" x2="43.5796" y1="118.8594" y2="488.1875"/></g><g><title>ZAS</title><rect fill="#000000" fill-opacity="0.00000" height="369.3281" width="8" x="266.2925" y="118.8594"/><line style="stroke:#181818;stroke-width:0.5;stroke-dasharray:5,5;" x1="269.7925" x2="269.7925" y1="118.8594" y2="488.1875"/></g><g><title/><rect fill="#FFFFFF" height="333.6875" style="stroke:#181818;stroke-width:1;" width="10" x="264.7925" y="154.5"/></g><g><title>ZETA Client</title><rect fill="#000000" fill-opacity="0.00000" height="369.3281" width="8" x="455.8452" y="118.8594"/><line style="stroke:#181818;stroke-width:0.5;stroke-dasharray:5,5;" x1="459.3452" x2="459.3452" y1="118.8594" y2="488.1875"/></g><g><title/><rect fill="#FFFFFF" height="60.2813" style="stroke:#181818;stroke-width:1;" width="10" x="454.3452" y="427.9063"/></g><rect fill="#E2E2F0" height="25.6406" rx="2.5" ry="2.5" style="stroke:#181818;stroke-width:0.5;" width="57.1592" x="15" y="92.2188"/><text fill="#000000" font-family="Helvetica" font-size="10" x="22" y="108.501">TPM / SE</text><rect fill="#E2E2F0" height="25.6406" rx="2.5" ry="2.5" style="stroke:#181818;stroke-width:0.5;" width="34.0391" x="252.7729" y="92.2188"/><text fill="#000000" font-family="Helvetica" font-size="10" x="259.7729" y="108.501">ZAS</text><rect fill="#E2E2F0" height="25.6406" rx="2.5" ry="2.5" style="stroke:#181818;stroke-width:0.5;" width="72.2471" x="423.2217" y="92.2188"/><text fill="#000000" font-family="Helvetica" font-size="10" x="430.2217" y="108.501">ZETA Client</text><rect fill="#E2E2F0" height="25.6406" rx="2.5" ry="2.5" style="stroke:#181818;stroke-width:0.5;" width="57.1592" x="15" y="488.1875"/><text fill="#000000" font-family="Helvetica" font-size="10" x="22" y="504.4697">TPM / SE</text><rect fill="#E2E2F0" height="25.6406" rx="2.5" ry="2.5" style="stroke:#181818;stroke-width:0.5;" width="34.0391" x="252.7729" y="488.1875"/><text fill="#000000" font-family="Helvetica" font-size="10" x="259.7729" y="504.4697">ZAS</text><rect fill="#E2E2F0" height="25.6406" rx="2.5" ry="2.5" style="stroke:#181818;stroke-width:0.5;" width="72.2471" x="423.2217" y="488.1875"/><text fill="#000000" font-family="Helvetica" font-size="10" x="430.2217" y="504.4697">ZETA Client</text><path d="M8.5796,130.8594 L68.5356,130.8594 L68.5356,134.5 L58.5356,144.5 L8.5796,144.5 L8.5796,130.8594" fill="#EEEEEE" style="stroke:#000000;stroke-width:1.5;"/><rect fill="none" height="283.0469" style="stroke:#000000;stroke-width:1.5;" width="472.4883" x="8.5796" y="130.8594"/><text fill="#000000" font-family="Helvetica" font-size="10" font-weight="bold" x="23.5796" y="141.1416">alt</text><text fill="#000000" font-family="Helvetica" font-size="10" font-weight="bold" x="83.5356" y="142.1416">[Hardware Attestation (TPM / SE)]</text><line style="stroke:#181818;stroke-width:1;" x1="274.7925" x2="316.7925" y1="183.7813" y2="183.7813"/><line style="stroke:#181818;stroke-width:1;" x1="316.7925" x2="316.7925" y1="183.7813" y2="196.7813"/><line style="stroke:#181818;stroke-width:1;" x1="275.7925" x2="316.7925" y1="196.7813" y2="196.7813"/><polygon fill="#181818" points="285.7925,192.7813,275.7925,196.7813,285.7925,200.7813,281.7925,196.7813" style="stroke:#181818;stroke-width:1;"/><text fill="#000000" font-family="Helvetica" font-size="10" x="281.7925" y="173.6025">(01)</text><text fill="#000000" font-family="Helvetica" font-size="10" x="306.3198" y="167.7822">Startet als Hintergrunddienst</text><text fill="#000000" font-family="Helvetica" font-size="10" x="309.4985" y="179.4229">(Root/Admin)</text><path d="M27.5796,208.7813 L87.5356,208.7813 L87.5356,212.4219 L77.5356,222.4219 L27.5796,222.4219 L27.5796,208.7813" fill="#EEEEEE" style="stroke:#000000;stroke-width:1.5;"/><rect fill="none" height="191.125" style="stroke:#000000;stroke-width:1.5;" width="428.4883" x="27.5796" y="208.7813"/><text fill="#000000" font-family="Helvetica" font-size="10" font-weight="bold" x="42.5796" y="219.0635">alt</text><text fill="#000000" font-family="Helvetica" font-size="10" font-weight="bold" x="102.5356" y="220.0635">[Windows / Linux (TPM)]</text><line style="stroke:#000000;stroke-width:1;stroke-dasharray:2,2;" x1="27.5796" x2="456.0679" y1="307.7031" y2="307.7031"/><text fill="#000000" font-family="Helvetica" font-size="10" font-weight="bold" x="32.5796" y="318.9854">[macOS (Secure Enclave)]</text><line style="stroke:#181818;stroke-width:1;stroke-dasharray:2,2;" x1="274.7925" x2="316.7925" y1="250.0625" y2="250.0625"/><line style="stroke:#181818;stroke-width:1;stroke-dasharray:2,2;" x1="316.7925" x2="316.7925" y1="250.0625" y2="263.0625"/><line style="stroke:#181818;stroke-width:1;stroke-dasharray:2,2;" x1="275.7925" x2="316.7925" y1="263.0625" y2="263.0625"/><polygon fill="#181818" points="285.7925,259.0625,275.7925,263.0625,285.7925,267.0625,281.7925,263.0625" style="stroke:#181818;stroke-width:1;"/><text fill="#000000" font-family="Helvetica" font-size="10" x="281.7925" y="245.7041">(02)</text><text fill="#000000" font-family="Helvetica" font-size="10" x="306.3198" y="245.7041">Messung des PS</text><polygon fill="#181818" points="54.5796,284.7031,44.5796,288.7031,54.5796,292.7031,50.5796,288.7031" style="stroke:#181818;stroke-width:1;"/><line style="stroke:#181818;stroke-width:1;" x1="48.5796" x2="263.7925" y1="288.7031" y2="288.7031"/><text fill="#000000" font-family="Helvetica" font-size="10" x="60.5796" y="284.3447">(03)</text><text fill="#000000" font-family="Helvetica" font-size="10" x="85.1069" y="284.3447">TPM2_PCR_Extend(23, Messwerte)</text><line style="stroke:#181818;stroke-width:1;stroke-dasharray:2,2;" x1="274.7925" x2="316.7925" y1="378.9063" y2="378.9063"/><line style="stroke:#181818;stroke-width:1;stroke-dasharray:2,2;" x1="316.7925" x2="316.7925" y1="378.9063" y2="391.9063"/><line style="stroke:#181818;stroke-width:1;stroke-dasharray:2,2;" x1="275.7925" x2="316.7925" y1="391.9063" y2="391.9063"/><polygon fill="#181818" points="285.7925,387.9063,275.7925,391.9063,285.7925,395.9063,281.7925,391.9063" style="stroke:#181818;stroke-width:1;"/><text fill="#000000" font-family="Helvetica" font-size="10" x="281.7925" y="357.0869">(04)</text><text fill="#000000" font-family="Helvetica" font-size="10" x="306.3198" y="339.626">Initiale Ermittlung</text><text fill="#000000" font-family="Helvetica" font-size="10" x="309.4985" y="351.2666">der Posture (SIP-Status,</text><text fill="#000000" font-family="Helvetica" font-size="10" x="309.4985" y="362.9072">Gatekeeper, OS-Version,</text><text fill="#000000" font-family="Helvetica" font-size="10" x="309.4985" y="374.5479">Secure Boot Policy)</text><line style="stroke:#181818;stroke-width:1;" x1="464.3452" x2="506.3452" y1="457.1875" y2="457.1875"/><line style="stroke:#181818;stroke-width:1;" x1="506.3452" x2="506.3452" y1="457.1875" y2="470.1875"/><line style="stroke:#181818;stroke-width:1;" x1="465.3452" x2="506.3452" y1="470.1875" y2="470.1875"/><polygon fill="#181818" points="475.3452,466.1875,465.3452,470.1875,475.3452,474.1875,471.3452,470.1875" style="stroke:#181818;stroke-width:1;"/><text fill="#000000" font-family="Helvetica" font-size="10" x="471.3452" y="447.0088">(05)</text><text fill="#000000" font-family="Helvetica" font-size="10" x="495.8726" y="441.1885">Start</text><text fill="#000000" font-family="Helvetica" font-size="10" x="499.0513" y="452.8291">(User Space)</text><?plantuml-src TLFRRjf047ttLqnTgG8554hUyX09A0r8q5WuRQIeKhIn1xDblKjtnrpoFVsJ_bXdRPEOYBvu5ysPSsREMKH1HXVvCre8MxrUEmpSMkgDi2A759UYKFJLQ8hb2yBdtldYDv4ZJ51jaMGY6fWl5MPkj74RaM3wYXwPmagq3Qn2dT5gaFug784s6XirXxyBr0akS8dMNuOYMMVM53eT6MKiFAmaDHlYzmrlE_JFyCxHEP7XGCbCyo1B2WAIf7XC9L4Jn2GimIUOQabIAEbuz49dGV1XOqMM2o0qBq2sm21uDdi8P-Df21zlLyPHDHe0Ax8xSYEOBxoFvd09yJW4uO1_SBtiYwpC__wnxk08SsQOYItgb7q2g16Fu_i138ZGaI1fDAzgjp911iT2fuUXDJjTmayb7mUnrmhv3Cioyth6TypLmkV8JkbgOqh6Hb-JsL-3DvtZ6GX5C14stGcB9vkqZgwqIngUzEBYU8FkZJ-kgoYGbPM3YTI4DkCeqfJb7VraaeKnT3b8SwahclBZDH-aJitEiS9Cwc9VohLVboirZYB-FN2-_COTHF4fviRdTUq__QTej7WQxubNQ_MlEcNR3dcyYXQLGyX5SXT3AyQau7N7Eb4SwNzaw-V5C9jB8iKZy4OSFqJya7n_Avv6NRQ02jVXqgqWN2Dkq7RWBkx-GElOI5-fzOPi1ZShcHpQnsny4a6L5_jR1yaZLBVQOV1MVdSi7Vi_RZlu1m00?></g></svg>