<?plantuml 1.2026.2?><svg xmlns="http://www.w3.org/2000/svg" xmlns:xlink="http://www.w3.org/1999/xlink" contentStyleType="text/css" data-diagram-type="SEQUENCE" height="927px" preserveAspectRatio="none" style="width:1166px;height:927px;background:#FFFFFF;" version="1.1" viewBox="0 0 1166 927" width="1166px" zoomAndPan="magnify"><title>Client Installation &amp; Baseline-Etablierung</title><defs/><g><text fill="#000000" font-family="sans-serif" font-size="14" font-weight="bold" lengthAdjust="spacing" textLength="327.1201" x="420.792" y="27.9951">Client Installation &amp; Baseline-Etablierung</text><rect fill="none" height="752.3984" style="stroke:#000000;stroke-width:1.5;" width="1149.7041" x="10" y="106.8906"/><rect fill="none" height="45.1328" style="stroke:#000000;stroke-width:1.5;" width="508.6816" x="452.4941" y="215.2891"/><rect fill="none" height="394.5313" style="stroke:#000000;stroke-width:1.5;" width="872.373" x="20" y="274.4219"/><g class="participant-lifeline" data-entity-uid="part1" data-qualified-name="TPM" id="part1-lifeline"><g><title>TPM . SE</title><rect fill="#000000" fill-opacity="0.00000" height="786.3984" width="8" x="72.5356" y="89.8906"/><line style="stroke:#181818;stroke-width:0.5;stroke-dasharray:5,5;" x1="76" x2="76" y1="89.8906" y2="876.2891"/></g></g><g class="participant-lifeline" data-entity-uid="part2" data-qualified-name="ZAS" id="part2-lifeline"><g><title>ZAS</title><rect fill="#000000" fill-opacity="0.00000" height="786.3984" width="8" x="499.1167" y="89.8906"/><line style="stroke:#181818;stroke-width:0.5;stroke-dasharray:5,5;" x1="502.4941" x2="502.4941" y1="89.8906" y2="876.2891"/></g></g><g class="participant-lifeline" data-entity-uid="part3" data-qualified-name="Client" id="part3-lifeline"><g><title>PS und ZETA</title><rect fill="#000000" fill-opacity="0.00000" height="786.3984" width="8" x="826.6592" y="89.8906"/><line style="stroke:#181818;stroke-width:0.5;stroke-dasharray:5,5;" x1="829.9453" x2="829.9453" y1="89.8906" y2="876.2891"/></g></g><g class="participant participant-head" data-entity-uid="part1" data-qualified-name="TPM" id="part1-head"><rect fill="#E2E2F0" height="46.5938" rx="2.5" ry="2.5" style="stroke:#181818;stroke-width:0.5;" width="93.0713" x="30" y="42.2969"/><text fill="#000000" font-family="sans-serif" font-size="14" lengthAdjust="spacing" textLength="60.4229" x="46.3242" y="62.292">TPM / SE</text><text fill="#000000" font-family="sans-serif" font-size="14" lengthAdjust="spacing" textLength="79.0713" x="37" y="78.5889">(Hardware)</text></g><g class="participant participant-tail" data-entity-uid="part1" data-qualified-name="TPM" id="part1-tail"><rect fill="#E2E2F0" height="46.5938" rx="2.5" ry="2.5" style="stroke:#181818;stroke-width:0.5;" width="93.0713" x="30" y="875.2891"/><text fill="#000000" font-family="sans-serif" font-size="14" lengthAdjust="spacing" textLength="60.4229" x="46.3242" y="895.2842">TPM / SE</text><text fill="#000000" font-family="sans-serif" font-size="14" lengthAdjust="spacing" textLength="79.0713" x="37" y="911.5811">(Hardware)</text></g><g class="participant participant-head" data-entity-uid="part2" data-qualified-name="ZAS" id="part2-head"><rect fill="#E2E2F0" height="46.5938" rx="2.5" ry="2.5" style="stroke:#181818;stroke-width:0.5;" width="81.2451" x="462.4941" y="42.2969"/><text fill="#000000" font-family="sans-serif" font-size="14" lengthAdjust="spacing" textLength="28.0547" x="489.0894" y="62.292">ZAS</text><text fill="#000000" font-family="sans-serif" font-size="14" lengthAdjust="spacing" textLength="67.2451" x="469.4941" y="78.5889">(Attester)</text></g><g class="participant participant-tail" data-entity-uid="part2" data-qualified-name="ZAS" id="part2-tail"><rect fill="#E2E2F0" height="46.5938" rx="2.5" ry="2.5" style="stroke:#181818;stroke-width:0.5;" width="81.2451" x="462.4941" y="875.2891"/><text fill="#000000" font-family="sans-serif" font-size="14" lengthAdjust="spacing" textLength="28.0547" x="489.0894" y="895.2842">ZAS</text><text fill="#000000" font-family="sans-serif" font-size="14" lengthAdjust="spacing" textLength="67.2451" x="469.4941" y="911.5811">(Attester)</text></g><g class="participant participant-head" data-entity-uid="part3" data-qualified-name="Client" id="part3-head"><rect fill="#E2E2F0" height="46.5938" rx="2.5" ry="2.5" style="stroke:#181818;stroke-width:0.5;" width="103.4277" x="778.9453" y="42.2969"/><text fill="#000000" font-family="sans-serif" font-size="14" lengthAdjust="spacing" textLength="89.4277" x="785.9453" y="62.292">PS und ZETA</text><text fill="#000000" font-family="sans-serif" font-size="14" lengthAdjust="spacing" textLength="40.5303" x="810.394" y="78.5889">Client</text></g><g class="participant participant-tail" data-entity-uid="part3" data-qualified-name="Client" id="part3-tail"><rect fill="#E2E2F0" height="46.5938" rx="2.5" ry="2.5" style="stroke:#181818;stroke-width:0.5;" width="103.4277" x="778.9453" y="875.2891"/><text fill="#000000" font-family="sans-serif" font-size="14" lengthAdjust="spacing" textLength="89.4277" x="785.9453" y="895.2842">PS und ZETA</text><text fill="#000000" font-family="sans-serif" font-size="14" lengthAdjust="spacing" textLength="40.5303" x="810.394" y="911.5811">Client</text></g><path d="M10,106.8906 L74.4429,106.8906 L74.4429,114.0234 L64.4429,124.0234 L10,124.0234 L10,106.8906" fill="#EEEEEE" style="stroke:#000000;stroke-width:1.5;"/><rect fill="none" height="752.3984" style="stroke:#000000;stroke-width:1.5;" width="1149.7041" x="10" y="106.8906"/><text fill="#000000" font-family="sans-serif" font-size="13" font-weight="bold" lengthAdjust="spacing" textLength="19.4429" x="25" y="119.9575">alt</text><text fill="#000000" font-family="sans-serif" font-size="11" font-weight="bold" lengthAdjust="spacing" textLength="211.9272" x="89.4429" y="119.1011">[Hardware Attestation (TPM / SE)]</text><g class="message" data-entity-1="part2" data-entity-2="part2" id="msg1"><line style="stroke:#181818;stroke-width:1;stroke-dasharray:2,2;" x1="503.1167" x2="545.1167" y1="145.1563" y2="145.1563"/><line style="stroke:#181818;stroke-width:1;stroke-dasharray:2,2;" x1="545.1167" x2="545.1167" y1="145.1563" y2="158.1563"/><line style="stroke:#181818;stroke-width:1;stroke-dasharray:2,2;" x1="504.1167" x2="545.1167" y1="158.1563" y2="158.1563"/><polygon fill="#181818" points="514.1167,154.1563,504.1167,158.1563,514.1167,162.1563,510.1167,158.1563" style="stroke:#181818;stroke-width:1;"/><text fill="#000000" font-family="sans-serif" font-size="13" lengthAdjust="spacing" textLength="184.8374" x="510.1167" y="140.0903">Installation (als Root/Admin)</text></g><g class="message" data-entity-1="part3" data-entity-2="part3" id="msg2"><line style="stroke:#181818;stroke-width:1;stroke-dasharray:2,2;" x1="830.6592" x2="872.6592" y1="187.2891" y2="187.2891"/><line style="stroke:#181818;stroke-width:1;stroke-dasharray:2,2;" x1="872.6592" x2="872.6592" y1="187.2891" y2="200.2891"/><line style="stroke:#181818;stroke-width:1;stroke-dasharray:2,2;" x1="831.6592" x2="872.6592" y1="200.2891" y2="200.2891"/><polygon fill="#181818" points="841.6592,196.2891,831.6592,200.2891,841.6592,204.2891,837.6592,200.2891" style="stroke:#181818;stroke-width:1;"/><text fill="#000000" font-family="sans-serif" font-size="13" lengthAdjust="spacing" textLength="159.6563" x="837.6592" y="182.2231">Installation (User Space)</text></g><path d="M452.4941,215.2891 L956.1758,215.2891 L956.1758,222.4219 L946.1758,232.4219 L452.4941,232.4219 L452.4941,215.2891" fill="#EEEEEE" style="stroke:#000000;stroke-width:1.5;"/><rect fill="none" height="45.1328" style="stroke:#000000;stroke-width:1.5;" width="508.6816" x="452.4941" y="215.2891"/><text fill="#000000" font-family="sans-serif" font-size="13" font-weight="bold" lengthAdjust="spacing" textLength="458.6816" x="467.4941" y="228.356">Vertrauensbeziehung zwischen ZAS und Client wird aufgebaut</text><g class="message" data-entity-1="part2" data-entity-2="part3" id="msg3"><polygon fill="#181818" points="818.6592,234.4219,828.6592,238.4219,818.6592,242.4219,822.6592,238.4219" style="stroke:#181818;stroke-width:1;"/><line style="stroke:#181818;stroke-width:1;" x1="503.1167" x2="824.6592" y1="238.4219" y2="238.4219"/></g><g class="message" data-entity-1="part3" data-entity-2="part2" id="msg4"><polygon fill="#181818" points="514.1167,248.4219,504.1167,252.4219,514.1167,256.4219,510.1167,252.4219" style="stroke:#181818;stroke-width:1;"/><line style="stroke:#181818;stroke-width:1;stroke-dasharray:2,2;" x1="508.1167" x2="829.6592" y1="252.4219" y2="252.4219"/></g><path d="M20,274.4219 L84.4429,274.4219 L84.4429,281.5547 L74.4429,291.5547 L20,291.5547 L20,274.4219" fill="#EEEEEE" style="stroke:#000000;stroke-width:1.5;"/><rect fill="none" height="394.5313" style="stroke:#000000;stroke-width:1.5;" width="872.373" x="20" y="274.4219"/><text fill="#000000" font-family="sans-serif" font-size="13" font-weight="bold" lengthAdjust="spacing" textLength="19.4429" x="35" y="287.4888">alt</text><text fill="#000000" font-family="sans-serif" font-size="11" font-weight="bold" lengthAdjust="spacing" textLength="151.54" x="99.4429" y="286.6323">[Windows / Linux (TPM)]</text><g class="message" data-entity-1="part3" data-entity-2="part1" id="msg5"><polygon fill="#181818" points="87.5356,308.6875,77.5356,312.6875,87.5356,316.6875,83.5356,312.6875" style="stroke:#181818;stroke-width:1;"/><line style="stroke:#181818;stroke-width:1;" x1="81.5356" x2="829.6592" y1="312.6875" y2="312.6875"/><text fill="#000000" font-family="sans-serif" font-size="13" lengthAdjust="spacing" textLength="336.7686" x="285.2131" y="307.6216">Generiere CI_KeyPair via OS-Provider (z.B. MS CNG)</text></g><g class="message" data-entity-1="part1" data-entity-2="part3" id="msg6"><polygon fill="#181818" points="818.6592,337.8203,828.6592,341.8203,818.6592,345.8203,822.6592,341.8203" style="stroke:#181818;stroke-width:1;"/><line style="stroke:#181818;stroke-width:1;stroke-dasharray:2,2;" x1="76.5356" x2="824.6592" y1="341.8203" y2="341.8203"/><text fill="#000000" font-family="sans-serif" font-size="13" lengthAdjust="spacing" textLength="238.9512" x="334.1218" y="336.7544">PuK.Client.Sig, Handle_PrK.Client.Sig</text></g><g class="message" data-entity-1="part2" data-entity-2="part2" id="msg7"><line style="stroke:#181818;stroke-width:1;stroke-dasharray:2,2;" x1="503.1167" x2="545.1167" y1="370.9531" y2="370.9531"/><line style="stroke:#181818;stroke-width:1;stroke-dasharray:2,2;" x1="545.1167" x2="545.1167" y1="370.9531" y2="383.9531"/><line style="stroke:#181818;stroke-width:1;stroke-dasharray:2,2;" x1="504.1167" x2="545.1167" y1="383.9531" y2="383.9531"/><polygon fill="#181818" points="514.1167,379.9531,504.1167,383.9531,514.1167,387.9531,510.1167,383.9531" style="stroke:#181818;stroke-width:1;"/><text fill="#000000" font-family="sans-serif" font-size="13" lengthAdjust="spacing" textLength="313.5425" x="510.1167" y="365.8872">Messung des PS &amp; Vergleich mit Hersteller-Wert</text></g><g class="message" data-entity-1="part2" data-entity-2="part1" id="msg8"><polygon fill="#181818" points="87.5356,409.0859,77.5356,413.0859,87.5356,417.0859,83.5356,413.0859" style="stroke:#181818;stroke-width:1;"/><line style="stroke:#181818;stroke-width:1;" x1="81.5356" x2="502.1167" y1="413.0859" y2="413.0859"/><text fill="#000000" font-family="sans-serif" font-size="13" lengthAdjust="spacing" textLength="318.481" x="130.5857" y="408.02">TPM2_CreatePrimary() &#8594; Storage Root Key (SRK)</text></g><g class="message" data-entity-1="part2" data-entity-2="part1" id="msg9"><polygon fill="#181818" points="87.5356,438.2188,77.5356,442.2188,87.5356,446.2188,83.5356,442.2188" style="stroke:#181818;stroke-width:1;"/><line style="stroke:#181818;stroke-width:1;" x1="81.5356" x2="502.1167" y1="442.2188" y2="442.2188"/><text fill="#000000" font-family="sans-serif" font-size="13" lengthAdjust="spacing" textLength="334.8643" x="122.394" y="437.1528">TPM2_Create(SRK, restricted=sign, fixedTPM=true)</text></g><g class="message" data-entity-1="part1" data-entity-2="part2" id="msg10"><polygon fill="#181818" points="491.1167,467.3516,501.1167,471.3516,491.1167,475.3516,495.1167,471.3516" style="stroke:#181818;stroke-width:1;"/><line style="stroke:#181818;stroke-width:1;stroke-dasharray:2,2;" x1="76.5356" x2="497.1167" y1="471.3516" y2="471.3516"/><text fill="#000000" font-family="sans-serif" font-size="13" lengthAdjust="spacing" textLength="188.519" x="195.5667" y="466.2856">PuK.AK.Sig, PrK.AK.Sig (blob)</text></g><g class="message" data-entity-1="part2" data-entity-2="part1" id="msg11"><polygon fill="#181818" points="87.5356,496.4844,77.5356,500.4844,87.5356,504.4844,83.5356,500.4844" style="stroke:#181818;stroke-width:1;"/><line style="stroke:#181818;stroke-width:1;" x1="81.5356" x2="502.1167" y1="500.4844" y2="500.4844"/><text fill="#000000" font-family="sans-serif" font-size="13" lengthAdjust="spacing" textLength="402.5811" x="88.5356" y="495.4185">TPM2_Load(SRK, PrK.AK.Sig, PuK.AK.Sig) &#8594; Handle_PrK.AK.Sig</text></g><g class="message" data-entity-1="part2" data-entity-2="part1" id="msg12"><polygon fill="#181818" points="87.5356,525.6172,77.5356,529.6172,87.5356,533.6172,83.5356,529.6172" style="stroke:#181818;stroke-width:1;"/><line style="stroke:#181818;stroke-width:1;" x1="81.5356" x2="502.1167" y1="529.6172" y2="529.6172"/><text fill="#000000" font-family="sans-serif" font-size="13" lengthAdjust="spacing" textLength="224.4912" x="177.5806" y="524.5513">TPM2_PCR_Extend(23, Messwerte)</text></g><line style="stroke:#000000;stroke-width:1;stroke-dasharray:2,2;" x1="20" x2="892.373" y1="538.6172" y2="538.6172"/><text fill="#000000" font-family="sans-serif" font-size="11" font-weight="bold" lengthAdjust="spacing" textLength="160.7568" x="25" y="548.8276">[macOS (Secure Enclave)]</text><g class="message" data-entity-1="part3" data-entity-2="part1" id="msg13"><polygon fill="#181818" points="87.5356,569.5547,77.5356,573.5547,87.5356,577.5547,83.5356,573.5547" style="stroke:#181818;stroke-width:1;"/><line style="stroke:#181818;stroke-width:1;" x1="81.5356" x2="829.6592" y1="573.5547" y2="573.5547"/><text fill="#000000" font-family="sans-serif" font-size="13" lengthAdjust="spacing" textLength="310.959" x="298.1179" y="568.4888">SecKeyCreateRandomKey (f&#252;r CI_KeyPair in SE)</text></g><g class="message" data-entity-1="part1" data-entity-2="part3" id="msg14"><polygon fill="#181818" points="818.6592,598.6875,828.6592,602.6875,818.6592,606.6875,822.6592,602.6875" style="stroke:#181818;stroke-width:1;"/><line style="stroke:#181818;stroke-width:1;stroke-dasharray:2,2;" x1="76.5356" x2="824.6592" y1="602.6875" y2="602.6875"/><text fill="#000000" font-family="sans-serif" font-size="13" lengthAdjust="spacing" textLength="238.9512" x="334.1218" y="597.6216">PuK.Client.Sig, Handle_PrK.Client.Sig</text></g><g class="message" data-entity-1="part2" data-entity-2="part1" id="msg15"><polygon fill="#181818" points="87.5356,627.8203,77.5356,631.8203,87.5356,635.8203,83.5356,631.8203" style="stroke:#181818;stroke-width:1;"/><line style="stroke:#181818;stroke-width:1;" x1="81.5356" x2="502.1167" y1="631.8203" y2="631.8203"/><text fill="#000000" font-family="sans-serif" font-size="13" lengthAdjust="spacing" textLength="342.7417" x="118.4553" y="626.7544">SecKeyCreateRandomKey (f&#252;r Attestation Key in SE)</text></g><g class="message" data-entity-1="part1" data-entity-2="part2" id="msg16"><polygon fill="#181818" points="491.1167,656.9531,501.1167,660.9531,491.1167,664.9531,495.1167,660.9531" style="stroke:#181818;stroke-width:1;"/><line style="stroke:#181818;stroke-width:1;stroke-dasharray:2,2;" x1="76.5356" x2="497.1167" y1="660.9531" y2="660.9531"/><text fill="#000000" font-family="sans-serif" font-size="13" lengthAdjust="spacing" textLength="198.5166" x="190.5679" y="655.8872">PuK.AK.Sig, Handle_PrK.AK.Sig</text></g><line style="stroke:#000000;stroke-width:1;stroke-dasharray:2,2;" x1="10" x2="1159.7041" y1="676.9531" y2="676.9531"/><text fill="#000000" font-family="sans-serif" font-size="11" font-weight="bold" lengthAdjust="spacing" textLength="205.5088" x="15" y="687.1636">[Software Attestation (Fallback)]</text><g class="message" data-entity-1="part3" data-entity-2="part3" id="msg17"><line style="stroke:#181818;stroke-width:1;stroke-dasharray:2,2;" x1="830.6592" x2="872.6592" y1="711.8906" y2="711.8906"/><line style="stroke:#181818;stroke-width:1;stroke-dasharray:2,2;" x1="872.6592" x2="872.6592" y1="711.8906" y2="724.8906"/><line style="stroke:#181818;stroke-width:1;stroke-dasharray:2,2;" x1="831.6592" x2="872.6592" y1="724.8906" y2="724.8906"/><polygon fill="#181818" points="841.6592,720.8906,831.6592,724.8906,841.6592,728.8906,837.6592,724.8906" style="stroke:#181818;stroke-width:1;"/><text fill="#000000" font-family="sans-serif" font-size="13" lengthAdjust="spacing" textLength="159.6563" x="837.6592" y="706.8247">Installation (User Space)</text></g><g class="message" data-entity-1="part3" data-entity-2="part3" id="msg18"><line style="stroke:#181818;stroke-width:1;" x1="830.6592" x2="872.6592" y1="754.0234" y2="754.0234"/><line style="stroke:#181818;stroke-width:1;" x1="872.6592" x2="872.6592" y1="754.0234" y2="767.0234"/><line style="stroke:#181818;stroke-width:1;" x1="831.6592" x2="872.6592" y1="767.0234" y2="767.0234"/><polygon fill="#181818" points="841.6592,763.0234,831.6592,767.0234,841.6592,771.0234,837.6592,767.0234" style="stroke:#181818;stroke-width:1;"/><text fill="#000000" font-family="sans-serif" font-size="13" lengthAdjust="spacing" textLength="257.918" x="837.6592" y="748.9575">Generiere CI_KeyPair lokal im RAM/Disk</text></g><g class="message" data-entity-1="part3" data-entity-2="part3" id="msg19"><line style="stroke:#181818;stroke-width:1;stroke-dasharray:2,2;" x1="830.6592" x2="872.6592" y1="796.1563" y2="796.1563"/><line style="stroke:#181818;stroke-width:1;stroke-dasharray:2,2;" x1="872.6592" x2="872.6592" y1="796.1563" y2="809.1563"/><line style="stroke:#181818;stroke-width:1;stroke-dasharray:2,2;" x1="831.6592" x2="872.6592" y1="809.1563" y2="809.1563"/><polygon fill="#181818" points="841.6592,805.1563,831.6592,809.1563,841.6592,813.1563,837.6592,809.1563" style="stroke:#181818;stroke-width:1;"/><text fill="#000000" font-family="sans-serif" font-size="13" lengthAdjust="spacing" textLength="310.0449" x="837.6592" y="791.0903">Lokale Messung des PS (Dateihashes ermitteln)</text></g><g class="message" data-entity-1="part3" data-entity-2="part3" id="msg20"><line style="stroke:#181818;stroke-width:1;" x1="830.6592" x2="872.6592" y1="838.2891" y2="838.2891"/><line style="stroke:#181818;stroke-width:1;" x1="872.6592" x2="872.6592" y1="838.2891" y2="851.2891"/><line style="stroke:#181818;stroke-width:1;" x1="831.6592" x2="872.6592" y1="851.2891" y2="851.2891"/><polygon fill="#181818" points="841.6592,847.2891,831.6592,851.2891,841.6592,855.2891,837.6592,851.2891" style="stroke:#181818;stroke-width:1;"/><text fill="#000000" font-family="sans-serif" font-size="13" lengthAdjust="spacing" textLength="274.2061" x="837.6592" y="833.2231">Speichere Baseline-Hash lokal &amp; sicher ab</text></g><?plantuml-src hPHHJjj048RVVOfH7v0Z9K6YRqWWcP022YbMJ8k4aAAnFN5MsQpJtJK13j03z3nzwqrwaivwIN08QQkgUN3MwvdPVxwPMJCJQe4Qvs3eIqKgeo4PWmL5KXGACbAMT625bGGzAVWLBfInA2LQKIhOWnCq98MYJjzYoXQwKaKGS4mhCh50TdXt7GzX7vB-dGhFKUTBrDHw1sY0FsnQtaO96qNMak5plH7lRHh52LGgXzl-TNIdlAZQq2-30AM5rJdWOtcnuKf8Am3-SM3eT8xT_-5cLY5A0wEojFjHFXVAcp-dxppyyhNJ9qCQaWLcv1qANLOB-4pQQcIq9gKdGLF60qzBOR8fgLg2o-KvzbBe7B2Q59HYPUiWQw6hKzUx3JqEaTiYbGVrmY6u4IelbuOJlXIgUgYpRsrv7xiY7C8PAT9SFAxonNX0Zp4A3VS2uIhfnBgy5pdd5ZvrJxemJA3tyUmbaeFQX19NWwvVTnDHjBaKAfSqZdLpU-szcUIg6gu97QYS372vznp5GfB8fZ0NN5tIt1zIakxSCDxNeEgC-74mxcb2Ix4MSzIFOGj-Vlq6YIqrDtXTN-1K8Kn6WzQVOZYZDcZk9IqoI_cHuVbemqGyKCvcHrPNjCsaJiO1YGOUXgFWrn2cian_S-vbYRa_zSMftGZcisdGzTkx0yQzqRZ_OBb9meFtxPhnakarPFicaePWZjbLmcGegxWd-YgJU4yxkuVD6AG7DM91vRpcEldnNJVxIQZrxFtlnlaB8SsRmEtkKBDLihS9rwDMeqhAYTs-QZxmlP1YDll7k-C5yCh-pGcLvGmbY3cCek7-gJ2pNQTTEaDwFLVXANCIKpHJVYVDeyLJfNOfI1Pk09s2zPr_pgxF8lR0r5y1qy31-GK0?></g></svg>