<?plantuml 1.2026.2?><svg xmlns="http://www.w3.org/2000/svg" xmlns:xlink="http://www.w3.org/1999/xlink" contentStyleType="text/css" data-diagram-type="SEQUENCE" height="924px" preserveAspectRatio="none" style="width:838px;height:924px;background:#FFFFFF;" version="1.1" viewBox="0 0 838 924" width="838px" zoomAndPan="magnify"><title>Client Installation &amp; Baseline-Etablierung</title><defs/><g><rect fill="#F8F8FF" height="875.2188" style="stroke:#181818;stroke-width:0.5;" width="673.5322" x="15.4204" y="43.2969"/><text fill="#000000" font-family="Helvetica" font-size="10" font-weight="bold" x="343.7246" y="52.5791">LEI</text><rect fill="#E6E6FA" height="858.5781" style="stroke:#181818;stroke-width:0.5;" width="345.8569" x="343.0957" y="59.9375"/><text fill="#000000" font-family="Helvetica" font-size="10" font-weight="bold" x="476.9275" y="69.2197">Prim&#228;rsystem</text><text fill="#000000" font-family="Helvetica" font-size="14" font-weight="bold" x="263.3062" y="27.9951">Client Installation &amp; Baseline-Etablierung</text><g><title>TPM . SE</title><rect fill="#000000" fill-opacity="0.00000" height="783.6563" width="8" x="44.5" y="102.2188"/><line style="stroke:#000000;stroke-width:0.5;stroke-dasharray:5,5;" x1="48" x2="48" y1="102.2188" y2="885.875"/></g><g><title/><rect fill="#FFFFFF" height="218.125" style="stroke:#181818;stroke-width:1;" width="10" x="43" y="364.9844"/></g><g><title/><rect fill="#FFFFFF" height="76.9219" style="stroke:#181818;stroke-width:1;" width="10" x="43" y="644.3906"/></g><g><title>ZAS</title><rect fill="#000000" fill-opacity="0.00000" height="783.6563" width="8" x="360.6152" y="102.2188"/><line style="stroke:#000000;stroke-width:0.5;stroke-dasharray:5,5;" x1="364.1152" x2="364.1152" y1="102.2188" y2="885.875"/></g><g><title/><rect fill="#FFFFFF" height="748.0156" style="stroke:#181818;stroke-width:1;" width="10" x="359.1152" y="137.8594"/></g><g><title>ZETA Client</title><rect fill="#000000" fill-opacity="0.00000" height="783.6563" width="8" x="645.3291" y="102.2188"/><line style="stroke:#000000;stroke-width:0.5;stroke-dasharray:5,5;" x1="648.8291" x2="648.8291" y1="102.2188" y2="885.875"/></g><g><title/><rect fill="#FFFFFF" height="709.375" style="stroke:#181818;stroke-width:1;" width="10" x="643.8291" y="176.5"/></g><rect fill="#E4E4F4" height="25.6406" rx="2.5" ry="2.5" style="stroke:#181818;stroke-width:0.5;" width="57.1592" x="19.4204" y="75.5781"/><text fill="#000000" font-family="Helvetica" font-size="10" x="26.4204" y="91.8604">TPM / SE</text><rect fill="#FFE6CC" height="25.6406" rx="2.5" ry="2.5" style="stroke:#D79B00;stroke-width:0.5;" width="34.0391" x="347.0957" y="75.5781"/><text fill="#000000" font-family="Helvetica" font-size="10" x="354.0957" y="91.8604">ZAS</text><rect fill="#FFE6CC" height="25.6406" rx="2.5" ry="2.5" style="stroke:#D79B00;stroke-width:0.5;" width="72.2471" x="612.7056" y="75.5781"/><text fill="#000000" font-family="Helvetica" font-size="10" x="619.7056" y="91.8604">ZETA Client</text><rect fill="#E4E4F4" height="25.6406" rx="2.5" ry="2.5" style="stroke:#181818;stroke-width:0.5;" width="57.1592" x="19.4204" y="885.875"/><text fill="#000000" font-family="Helvetica" font-size="10" x="26.4204" y="902.1572">TPM / SE</text><rect fill="#FFE6CC" height="25.6406" rx="2.5" ry="2.5" style="stroke:#D79B00;stroke-width:0.5;" width="34.0391" x="347.0957" y="885.875"/><text fill="#000000" font-family="Helvetica" font-size="10" x="354.0957" y="902.1572">ZAS</text><rect fill="#FFE6CC" height="25.6406" rx="2.5" ry="2.5" style="stroke:#D79B00;stroke-width:0.5;" width="72.2471" x="612.7056" y="885.875"/><text fill="#000000" font-family="Helvetica" font-size="10" x="619.7056" y="902.1572">ZETA Client</text><path d="M8,114.2188 L67.9561,114.2188 L67.9561,117.8594 L57.9561,127.8594 L8,127.8594 L8,114.2188" fill="#EEEEEE" style="stroke:#000000;stroke-width:1.5;"/><rect fill="none" height="747.6563" style="stroke:#000000;stroke-width:1.5;" width="823.8916" x="8" y="114.2188"/><text fill="#000000" font-family="Helvetica" font-size="10" font-weight="bold" x="23" y="124.501">alt</text><text fill="#000000" font-family="Helvetica" font-size="10" font-weight="bold" x="82.9561" y="125.501">[Hardware Attestation (TPM / SE)]</text><line style="stroke:#000000;stroke-width:1;stroke-dasharray:2,2;" x1="8" x2="831.8916" y1="754.3125" y2="754.3125"/><text fill="#000000" font-family="Helvetica" font-size="10" font-weight="bold" x="13" y="765.5947">[Software Attestation (Fallback)]</text><line style="stroke:#181818;stroke-width:1;stroke-dasharray:2,2;" x1="369.1152" x2="411.1152" y1="155.5" y2="155.5"/><line style="stroke:#181818;stroke-width:1;stroke-dasharray:2,2;" x1="411.1152" x2="411.1152" y1="155.5" y2="168.5"/><line style="stroke:#181818;stroke-width:1;stroke-dasharray:2,2;" x1="370.1152" x2="411.1152" y1="168.5" y2="168.5"/><polygon fill="#181818" points="380.1152,164.5,370.1152,168.5,380.1152,172.5,376.1152,168.5" style="stroke:#181818;stroke-width:1;"/><text fill="#000000" font-family="Helvetica" font-size="10" x="376.1152" y="151.1416">(01)</text><text fill="#000000" font-family="Helvetica" font-size="10" x="400.6426" y="151.1416">Installation (Root/Admin rights)</text><line style="stroke:#181818;stroke-width:1;stroke-dasharray:2,2;" x1="653.8291" x2="695.8291" y1="194.1406" y2="194.1406"/><line style="stroke:#181818;stroke-width:1;stroke-dasharray:2,2;" x1="695.8291" x2="695.8291" y1="194.1406" y2="207.1406"/><line style="stroke:#181818;stroke-width:1;stroke-dasharray:2,2;" x1="654.8291" x2="695.8291" y1="207.1406" y2="207.1406"/><polygon fill="#181818" points="664.8291,203.1406,654.8291,207.1406,664.8291,211.1406,660.8291,207.1406" style="stroke:#181818;stroke-width:1;"/><text fill="#000000" font-family="Helvetica" font-size="10" x="660.8291" y="189.7822">(02)</text><text fill="#000000" font-family="Helvetica" font-size="10" x="685.3564" y="189.7822">Installation (User Space)</text><path d="M348.1152,219.1406 L745.9473,219.1406 L745.9473,222.7813 L735.9473,232.7813 L348.1152,232.7813 L348.1152,219.1406" fill="#EEEEEE" style="stroke:#000000;stroke-width:1.5;"/><rect fill="none" height="74.9219" style="stroke:#000000;stroke-width:1.5;" width="413.832" x="348.1152" y="219.1406"/><text fill="#000000" font-family="Helvetica" font-size="10" font-weight="bold" x="363.1152" y="229.4229">Vertrauensbeziehung zwischen ZAS und Client wird aufgebaut</text><polygon fill="#181818" points="631.8291,256.4219,641.8291,260.4219,631.8291,264.4219,635.8291,260.4219" style="stroke:#181818;stroke-width:1;"/><line style="stroke:#181818;stroke-width:1;" x1="369.1152" x2="637.8291" y1="260.4219" y2="260.4219"/><text fill="#000000" font-family="Helvetica" font-size="10" x="376.1152" y="256.0635">(03)</text><text fill="#000000" font-family="Helvetica" font-size="10" x="400.6426" y="256.0635">&#160;</text><polygon fill="#181818" points="380.1152,282.0625,370.1152,286.0625,380.1152,290.0625,376.1152,286.0625" style="stroke:#181818;stroke-width:1;"/><line style="stroke:#181818;stroke-width:1;stroke-dasharray:2,2;" x1="374.1152" x2="642.8291" y1="286.0625" y2="286.0625"/><text fill="#000000" font-family="Helvetica" font-size="10" x="386.1152" y="281.7041">(04)</text><text fill="#000000" font-family="Helvetica" font-size="10" x="410.6426" y="281.7041">&#160;</text><path d="M27,312.0625 L86.9561,312.0625 L86.9561,315.7031 L76.9561,325.7031 L27,325.7031 L27,312.0625" fill="#EEEEEE" style="stroke:#000000;stroke-width:1.5;"/><rect fill="none" height="417.25" style="stroke:#000000;stroke-width:1.5;" width="673.29" x="27" y="312.0625"/><text fill="#000000" font-family="Helvetica" font-size="10" font-weight="bold" x="42" y="322.3447">alt</text><text fill="#000000" font-family="Helvetica" font-size="10" font-weight="bold" x="101.9561" y="323.3447">[Windows / Linux (TPM)]</text><line style="stroke:#000000;stroke-width:1;stroke-dasharray:2,2;" x1="27" x2="700.29" y1="608.1094" y2="608.1094"/><text fill="#000000" font-family="Helvetica" font-size="10" font-weight="bold" x="32" y="619.3916">[macOS (Secure Enclave)]</text><polygon fill="#181818" points="64,360.9844,54,364.9844,64,368.9844,60,364.9844" style="stroke:#181818;stroke-width:1;"/><line style="stroke:#181818;stroke-width:1;" x1="58" x2="642.8291" y1="364.9844" y2="364.9844"/><text fill="#000000" font-family="Helvetica" font-size="10" x="70" y="354.8057">(05)</text><text fill="#000000" font-family="Helvetica" font-size="10" x="94.5273" y="348.9854">Generiere PrK.Client.Sig, PuK.Client.Sig</text><text fill="#000000" font-family="Helvetica" font-size="10" x="94.5273" y="360.626">via OS-Provider (z.B. MS CNG)</text><polygon fill="#181818" points="631.8291,386.625,641.8291,390.625,631.8291,394.625,635.8291,390.625" style="stroke:#181818;stroke-width:1;"/><line style="stroke:#181818;stroke-width:1;stroke-dasharray:2,2;" x1="53" x2="637.8291" y1="390.625" y2="390.625"/><text fill="#000000" font-family="Helvetica" font-size="10" x="60" y="386.2666">(06)</text><text fill="#000000" font-family="Helvetica" font-size="10" x="84.5273" y="386.2666">PuK.Client.Sig, Handle_PrK.Client.Sig</text><line style="stroke:#181818;stroke-width:1;stroke-dasharray:2,2;" x1="369.1152" x2="411.1152" y1="416.2656" y2="416.2656"/><line style="stroke:#181818;stroke-width:1;stroke-dasharray:2,2;" x1="411.1152" x2="411.1152" y1="416.2656" y2="429.2656"/><line style="stroke:#181818;stroke-width:1;stroke-dasharray:2,2;" x1="370.1152" x2="411.1152" y1="429.2656" y2="429.2656"/><polygon fill="#181818" points="380.1152,425.2656,370.1152,429.2656,380.1152,433.2656,376.1152,429.2656" style="stroke:#181818;stroke-width:1;"/><text fill="#000000" font-family="Helvetica" font-size="10" x="376.1152" y="411.9072">(07)</text><text fill="#000000" font-family="Helvetica" font-size="10" x="400.6426" y="411.9072">Messung des PS &amp; Vergleich mit Hersteller-Wert</text><polygon fill="#181818" points="64,450.9063,54,454.9063,64,458.9063,60,454.9063" style="stroke:#181818;stroke-width:1;"/><line style="stroke:#181818;stroke-width:1;" x1="58" x2="358.1152" y1="454.9063" y2="454.9063"/><text fill="#000000" font-family="Helvetica" font-size="10" x="70" y="450.5479">(08)</text><text fill="#000000" font-family="Helvetica" font-size="10" x="94.5273" y="450.5479">TPM2_CreatePrimary() &#8594; Storage Root Key (SRK)</text><polygon fill="#181818" points="64,476.5469,54,480.5469,64,484.5469,60,480.5469" style="stroke:#181818;stroke-width:1;"/><line style="stroke:#181818;stroke-width:1;" x1="58" x2="358.1152" y1="480.5469" y2="480.5469"/><text fill="#000000" font-family="Helvetica" font-size="10" x="70" y="476.1885">(09)</text><text fill="#000000" font-family="Helvetica" font-size="10" x="94.5273" y="476.1885">TPM2_Create(SRK, restricted=sign, fixedTPM=true)</text><polygon fill="#181818" points="347.1152,502.1875,357.1152,506.1875,347.1152,510.1875,351.1152,506.1875" style="stroke:#181818;stroke-width:1;"/><line style="stroke:#181818;stroke-width:1;stroke-dasharray:2,2;" x1="53" x2="353.1152" y1="506.1875" y2="506.1875"/><text fill="#000000" font-family="Helvetica" font-size="10" x="60" y="501.8291">(10)</text><text fill="#000000" font-family="Helvetica" font-size="10" x="84.5273" y="501.8291">PuK.AK.Sig, PrK.AK.Sig (blob)</text><polygon fill="#181818" points="64,527.8281,54,531.8281,64,535.8281,60,531.8281" style="stroke:#181818;stroke-width:1;"/><line style="stroke:#181818;stroke-width:1;" x1="58" x2="358.1152" y1="531.8281" y2="531.8281"/><text fill="#000000" font-family="Helvetica" font-size="10" x="70" y="527.4697">(11)</text><text fill="#000000" font-family="Helvetica" font-size="10" x="94.5273" y="527.4697">TPM2_Load(SRK, PrK.AK.Sig, PuK.AK.Sig)</text><polygon fill="#181818" points="347.1152,553.4688,357.1152,557.4688,347.1152,561.4688,351.1152,557.4688" style="stroke:#181818;stroke-width:1;"/><line style="stroke:#181818;stroke-width:1;stroke-dasharray:2,2;" x1="53" x2="353.1152" y1="557.4688" y2="557.4688"/><text fill="#000000" font-family="Helvetica" font-size="10" x="60" y="553.1104">(12)</text><text fill="#000000" font-family="Helvetica" font-size="10" x="84.5273" y="553.1104">Handle_PrK.AK.Sig</text><polygon fill="#181818" points="64,579.1094,54,583.1094,64,587.1094,60,583.1094" style="stroke:#181818;stroke-width:1;"/><line style="stroke:#181818;stroke-width:1;" x1="58" x2="358.1152" y1="583.1094" y2="583.1094"/><text fill="#000000" font-family="Helvetica" font-size="10" x="70" y="578.751">(13)</text><text fill="#000000" font-family="Helvetica" font-size="10" x="94.5273" y="578.751">TPM2_PCR_Extend(23, Messwerte)</text><path d="M374.1152,570.4688 L374.1152,591.4688 L679.1152,591.4688 L679.1152,580.4688 L669.1152,570.4688 L374.1152,570.4688" fill="#FEFFDD" style="stroke:#181818;stroke-width:0.5;"/><path d="M669.1152,570.4688 L669.1152,580.4688 L679.1152,580.4688 L669.1152,570.4688" fill="#FEFFDD" style="stroke:#181818;stroke-width:0.5;"/><text fill="#000000" font-family="Helvetica" font-size="10" x="380.1152" y="584.751">PCR_23 K&#246;nnte belegt sein; muss vorher gepr&#252;ft werden</text><polygon fill="#181818" points="64,640.3906,54,644.3906,64,648.3906,60,644.3906" style="stroke:#181818;stroke-width:1;"/><line style="stroke:#181818;stroke-width:1;" x1="58" x2="642.8291" y1="644.3906" y2="644.3906"/><text fill="#000000" font-family="Helvetica" font-size="10" x="70" y="640.0322">(14)</text><text fill="#000000" font-family="Helvetica" font-size="10" x="94.5273" y="640.0322">SecKeyCreateRandomKey (f&#252;r PrK.Client.Sig, PuK.Client.Sig in SE)</text><polygon fill="#181818" points="631.8291,666.0313,641.8291,670.0313,631.8291,674.0313,635.8291,670.0313" style="stroke:#181818;stroke-width:1;"/><line style="stroke:#181818;stroke-width:1;stroke-dasharray:2,2;" x1="53" x2="637.8291" y1="670.0313" y2="670.0313"/><text fill="#000000" font-family="Helvetica" font-size="10" x="60" y="665.6729">(15)</text><text fill="#000000" font-family="Helvetica" font-size="10" x="84.5273" y="665.6729">PuK.Client.Sig, Handle_PrK.Client.Sig</text><polygon fill="#181818" points="64,691.6719,54,695.6719,64,699.6719,60,695.6719" style="stroke:#181818;stroke-width:1;"/><line style="stroke:#181818;stroke-width:1;" x1="58" x2="358.1152" y1="695.6719" y2="695.6719"/><text fill="#000000" font-family="Helvetica" font-size="10" x="70" y="691.3135">(16)</text><text fill="#000000" font-family="Helvetica" font-size="10" x="94.5273" y="691.3135">DCAppAttestService.shared.generateKey()</text><polygon fill="#181818" points="347.1152,717.3125,357.1152,721.3125,347.1152,725.3125,351.1152,721.3125" style="stroke:#181818;stroke-width:1;"/><line style="stroke:#181818;stroke-width:1;stroke-dasharray:2,2;" x1="53" x2="353.1152" y1="721.3125" y2="721.3125"/><text fill="#000000" font-family="Helvetica" font-size="10" x="60" y="716.9541">(17)</text><text fill="#000000" font-family="Helvetica" font-size="10" x="84.5273" y="716.9541">keyId (Referenz f&#252;r PrK.AK.Sig)</text><line style="stroke:#181818;stroke-width:1;stroke-dasharray:2,2;" x1="653.8291" x2="695.8291" y1="790.5938" y2="790.5938"/><line style="stroke:#181818;stroke-width:1;stroke-dasharray:2,2;" x1="695.8291" x2="695.8291" y1="790.5938" y2="803.5938"/><line style="stroke:#181818;stroke-width:1;stroke-dasharray:2,2;" x1="654.8291" x2="695.8291" y1="803.5938" y2="803.5938"/><polygon fill="#181818" points="664.8291,799.5938,654.8291,803.5938,664.8291,807.5938,660.8291,803.5938" style="stroke:#181818;stroke-width:1;"/><text fill="#000000" font-family="Helvetica" font-size="10" x="660.8291" y="786.2354">(18)</text><text fill="#000000" font-family="Helvetica" font-size="10" x="685.3564" y="786.2354">Installation (User Space)</text><line style="stroke:#181818;stroke-width:1;" x1="653.8291" x2="695.8291" y1="840.875" y2="840.875"/><line style="stroke:#181818;stroke-width:1;" x1="695.8291" x2="695.8291" y1="840.875" y2="853.875"/><line style="stroke:#181818;stroke-width:1;" x1="654.8291" x2="695.8291" y1="853.875" y2="853.875"/><polygon fill="#181818" points="664.8291,849.875,654.8291,853.875,664.8291,857.875,660.8291,853.875" style="stroke:#181818;stroke-width:1;"/><text fill="#000000" font-family="Helvetica" font-size="10" x="660.8291" y="830.6963">(19)</text><text fill="#000000" font-family="Helvetica" font-size="10" x="685.3564" y="824.876">Generiere PrK.Client.Sig,</text><text fill="#000000" font-family="Helvetica" font-size="10" x="685.3564" y="836.5166">PuK.Client.Sig</text><?plantuml-src hLRRRjj647tdLqnKe96WYrtRSLFNCQ0BPHkMB45qOZG8OAp44RKrjSlkBcLBHLxx0Vs6VaEVykO_wPTqbXGbIfOJeEY3pRtCzSoPMR7OI15FXwYWKDpVBnKSVSz5n1IRWezZ5eUcBONn-0BXX_tTbzTiYd21uGmD7x6SJ2kLwKeXTSH6wA-acp9M75LEDaGHc4dT_pNM1eGKcBlJ-5kCOeG37AEoYmORtGTAni9lob0gk9rmarVmjXNMEHpiiDj5hLc0zP07WW8P6sV2VGHjI5cQUOIEyneQyX56rfjsNb7oN21yT6_gT-VlwuFMNRFNwGtWktQxVUY-MGbqtClivdmYjKdZtBpjzdlNxlLD9kSUkKVjevLCVt3PhRi3xnVlnkrcCXqsG-4JV6kfteVBbZjO6McrMsxJHjrdYeh28oPC5lsfDlCGpvmi-nPdWKNZTmSWoedRFK1jWOOjrm3Rm5F2xd6pkRpjK2pByzQFFpNszvFppwcTICaPeQfUjjLwuxvj7JstzVQWSNXylB9b_q8-nj1cdXhRpOTDCusGX1BrpyxftX83nt0J4Xr3ZfJnfT26XI4pN0hudgpgn4dLDMn84YeMWUEyYXGBfWmCoWKO5HCvXaID0bMpi2xu5fQ5ctuNzi1p2y0qsCsEufDEOgcl-FJfBwNdHC1fOHS5bXZbFNoiUzPqWRu5E3srLJixso6tJ3KH9VekztaLefQDmyc-3WiDN33bFp25K3S62QK4ecAMLSb9F97lSjakiXrKgsVsUx89RN4WfTch-rCkGF5WOdGfqKXZAPTpcyH2kjmsybuJcJmxLr9jIu08Fg0oYX6nzH0N72TKCrWyS3sQe4X28f9ajX-uye75um27B3PBi9Q1PrvNfxbuI20v9eJIn2r2jrpuya4J7iIv-341f_HC-ymMlrm-WNCKQ4SWDQ-wggNNDOy75UZ7-VqdCUCCUbwrd_LFSL5hrA3hGVFwVEt0bYAFrQQL2XLG-27URJhRJ3chbHs75ZOVDVGzQWJ2D0YHZoOmvKG5L4JCC4HLlIMmjs6ZG4xiluExfa9cqBAPgNcn1F_yyITuHbBx85W6m1NEeUWDhahVic65Ag28U8gF3FhlD4tg2epv8_eaziwsuNCeacGi3lMh9R8gMqDn6ChXL_ns9FDJhskbIixO2zvoAAToBtleDmTtxgCX3XKF3Yi9w0y4PouF8Gsc_K5faFJ18Lmz_Iq4dGunnC3G0yR5pp2DjOQPL1CYHu2HUleo9cwZyedn-J2hrPIreKQOib7F8_1n51C5NJ4AwKtv2br9aAgLLcD0ISffKhpnqnVr3G83DRcT4FyZKPSmjfhrA4hdaOTgnaTOqnEQKNujiCr5aLACnPsLgbPFu1xdbpxDelGtmW9MkUGhdBHuWfWdn-Rv16pJF1hImrBwRpDhZNCc_-9S-2GsaKhqN-zosP7tZ1wrhJOkjWWGFc5wGdjKrCdKnAAqPMPjnOjinzj0Lk_W1Ib3QAtJKD39BR2XVIYSVm40?></g></svg>