<?plantuml 1.2026.2?><svg xmlns="http://www.w3.org/2000/svg" xmlns:xlink="http://www.w3.org/1999/xlink" contentStyleType="text/css" data-diagram-type="SEQUENCE" height="978px" preserveAspectRatio="none" style="width:1217px;height:978px;background:#FFFFFF;" version="1.1" viewBox="0 0 1217 978" width="1217px" zoomAndPan="magnify"><title>Client Installation &amp; Baseline-Etablierung</title><defs/><g><text fill="#000000" font-family="sans-serif" font-size="14" font-weight="bold" lengthAdjust="spacing" textLength="327.1201" x="446.4182" y="27.9951">Client Installation &amp; Baseline-Etablierung</text><g><title>TPM . SE</title><rect fill="#FFFFFF" height="249.0625" style="stroke:#181818;stroke-width:1;" width="10" x="71.5356" y="327.8203"/></g><g><title>TPM . SE</title><rect fill="#FFFFFF" height="87.3984" style="stroke:#181818;stroke-width:1;" width="10" x="71.5356" y="623.8203"/></g><g><title>ZAS</title><rect fill="#FFFFFF" height="817.6641" style="stroke:#181818;stroke-width:1;" width="10" x="448.2773" y="99.8906"/></g><g><title>PS und ZETA</title><rect fill="#FFFFFF" height="764.3984" style="stroke:#181818;stroke-width:1;" width="10" x="795.8198" y="153.1563"/></g><rect fill="none" height="802.6641" style="stroke:#000000;stroke-width:1.5;" width="1200.9565" x="10" y="106.8906"/><rect fill="none" height="45.1328" style="stroke:#000000;stroke-width:1.5;" width="508.6816" x="402.6548" y="215.2891"/><rect fill="none" height="444.7969" style="stroke:#000000;stroke-width:1.5;" width="843.7046" x="20" y="274.4219"/><g class="participant-lifeline" data-entity-uid="part1" data-qualified-name="TPM" id="part1-lifeline"><g><title>TPM . SE</title><rect fill="#000000" fill-opacity="0.00000" height="836.6641" width="8" x="72.5356" y="89.8906"/><line style="stroke:#181818;stroke-width:0.5;stroke-dasharray:5,5;" x1="76" x2="76" y1="89.8906" y2="926.5547"/></g></g><g class="participant-lifeline" data-entity-uid="part2" data-qualified-name="ZAS" id="part2-lifeline"><g><title>ZAS</title><rect fill="#000000" fill-opacity="0.00000" height="836.6641" width="8" x="449.2773" y="89.8906"/><line style="stroke:#181818;stroke-width:0.5;stroke-dasharray:5,5;" x1="452.6548" x2="452.6548" y1="89.8906" y2="926.5547"/></g></g><g class="participant-lifeline" data-entity-uid="part3" data-qualified-name="Client" id="part3-lifeline"><g><title>PS und ZETA</title><rect fill="#000000" fill-opacity="0.00000" height="836.6641" width="8" x="796.8198" y="89.8906"/><line style="stroke:#181818;stroke-width:0.5;stroke-dasharray:5,5;" x1="800.106" x2="800.106" y1="89.8906" y2="926.5547"/></g></g><g class="participant participant-head" data-entity-uid="part1" data-qualified-name="TPM" id="part1-head"><rect fill="#E2E2F0" height="46.5938" rx="2.5" ry="2.5" style="stroke:#181818;stroke-width:0.5;" width="93.0713" x="30" y="42.2969"/><text fill="#000000" font-family="sans-serif" font-size="14" lengthAdjust="spacing" textLength="60.4229" x="46.3242" y="62.292">TPM / SE</text><text fill="#000000" font-family="sans-serif" font-size="14" lengthAdjust="spacing" textLength="79.0713" x="37" y="78.5889">(Hardware)</text></g><g class="participant participant-tail" data-entity-uid="part1" data-qualified-name="TPM" id="part1-tail"><rect fill="#E2E2F0" height="46.5938" rx="2.5" ry="2.5" style="stroke:#181818;stroke-width:0.5;" width="93.0713" x="30" y="925.5547"/><text fill="#000000" font-family="sans-serif" font-size="14" lengthAdjust="spacing" textLength="60.4229" x="46.3242" y="945.5498">TPM / SE</text><text fill="#000000" font-family="sans-serif" font-size="14" lengthAdjust="spacing" textLength="79.0713" x="37" y="961.8467">(Hardware)</text></g><g class="participant participant-head" data-entity-uid="part2" data-qualified-name="ZAS" id="part2-head"><rect fill="#E2E2F0" height="46.5938" rx="2.5" ry="2.5" style="stroke:#181818;stroke-width:0.5;" width="81.2451" x="412.6548" y="42.2969"/><text fill="#000000" font-family="sans-serif" font-size="14" lengthAdjust="spacing" textLength="28.0547" x="439.25" y="62.292">ZAS</text><text fill="#000000" font-family="sans-serif" font-size="14" lengthAdjust="spacing" textLength="67.2451" x="419.6548" y="78.5889">(Attester)</text></g><g class="participant participant-tail" data-entity-uid="part2" data-qualified-name="ZAS" id="part2-tail"><rect fill="#E2E2F0" height="46.5938" rx="2.5" ry="2.5" style="stroke:#181818;stroke-width:0.5;" width="81.2451" x="412.6548" y="925.5547"/><text fill="#000000" font-family="sans-serif" font-size="14" lengthAdjust="spacing" textLength="28.0547" x="439.25" y="945.5498">ZAS</text><text fill="#000000" font-family="sans-serif" font-size="14" lengthAdjust="spacing" textLength="67.2451" x="419.6548" y="961.8467">(Attester)</text></g><g class="participant participant-head" data-entity-uid="part3" data-qualified-name="Client" id="part3-head"><rect fill="#E2E2F0" height="46.5938" rx="2.5" ry="2.5" style="stroke:#181818;stroke-width:0.5;" width="103.4277" x="749.106" y="42.2969"/><text fill="#000000" font-family="sans-serif" font-size="14" lengthAdjust="spacing" textLength="89.4277" x="756.106" y="62.292">PS und ZETA</text><text fill="#000000" font-family="sans-serif" font-size="14" lengthAdjust="spacing" textLength="40.5303" x="780.5547" y="78.5889">Client</text></g><g class="participant participant-tail" data-entity-uid="part3" data-qualified-name="Client" id="part3-tail"><rect fill="#E2E2F0" height="46.5938" rx="2.5" ry="2.5" style="stroke:#181818;stroke-width:0.5;" width="103.4277" x="749.106" y="925.5547"/><text fill="#000000" font-family="sans-serif" font-size="14" lengthAdjust="spacing" textLength="89.4277" x="756.106" y="945.5498">PS und ZETA</text><text fill="#000000" font-family="sans-serif" font-size="14" lengthAdjust="spacing" textLength="40.5303" x="780.5547" y="961.8467">Client</text></g><g><title>TPM . SE</title><rect fill="#FFFFFF" height="249.0625" style="stroke:#181818;stroke-width:1;" width="10" x="71.5356" y="327.8203"/></g><g><title>TPM . SE</title><rect fill="#FFFFFF" height="87.3984" style="stroke:#181818;stroke-width:1;" width="10" x="71.5356" y="623.8203"/></g><g><title>ZAS</title><rect fill="#FFFFFF" height="817.6641" style="stroke:#181818;stroke-width:1;" width="10" x="448.2773" y="99.8906"/></g><g><title>PS und ZETA</title><rect fill="#FFFFFF" height="764.3984" style="stroke:#181818;stroke-width:1;" width="10" x="795.8198" y="153.1563"/></g><path d="M10,106.8906 L74.4429,106.8906 L74.4429,114.0234 L64.4429,124.0234 L10,124.0234 L10,106.8906" fill="#EEEEEE" style="stroke:#000000;stroke-width:1.5;"/><rect fill="none" height="802.6641" style="stroke:#000000;stroke-width:1.5;" width="1200.9565" x="10" y="106.8906"/><text fill="#000000" font-family="sans-serif" font-size="13" font-weight="bold" lengthAdjust="spacing" textLength="19.4429" x="25" y="119.9575">alt</text><text fill="#000000" font-family="sans-serif" font-size="11" font-weight="bold" lengthAdjust="spacing" textLength="211.9272" x="89.4429" y="119.1011">[Hardware Attestation (TPM / SE)]</text><g class="message" data-entity-1="part2" data-entity-2="part2" id="msg1"><line style="stroke:#181818;stroke-width:1;stroke-dasharray:2,2;" x1="458.2773" x2="500.2773" y1="145.1563" y2="145.1563"/><line style="stroke:#181818;stroke-width:1;stroke-dasharray:2,2;" x1="500.2773" x2="500.2773" y1="145.1563" y2="158.1563"/><line style="stroke:#181818;stroke-width:1;stroke-dasharray:2,2;" x1="459.2773" x2="500.2773" y1="158.1563" y2="158.1563"/><polygon fill="#181818" points="469.2773,154.1563,459.2773,158.1563,469.2773,162.1563,465.2773,158.1563" style="stroke:#181818;stroke-width:1;"/><text fill="#000000" font-family="sans-serif" font-size="13" lengthAdjust="spacing" textLength="184.8374" x="465.2773" y="140.0903">Installation (als Root/Admin)</text></g><g class="message" data-entity-1="part3" data-entity-2="part3" id="msg2"><line style="stroke:#181818;stroke-width:1;stroke-dasharray:2,2;" x1="805.8198" x2="847.8198" y1="187.2891" y2="187.2891"/><line style="stroke:#181818;stroke-width:1;stroke-dasharray:2,2;" x1="847.8198" x2="847.8198" y1="187.2891" y2="200.2891"/><line style="stroke:#181818;stroke-width:1;stroke-dasharray:2,2;" x1="806.8198" x2="847.8198" y1="200.2891" y2="200.2891"/><polygon fill="#181818" points="816.8198,196.2891,806.8198,200.2891,816.8198,204.2891,812.8198,200.2891" style="stroke:#181818;stroke-width:1;"/><text fill="#000000" font-family="sans-serif" font-size="13" lengthAdjust="spacing" textLength="159.6563" x="812.8198" y="182.2231">Installation (User Space)</text></g><path d="M402.6548,215.2891 L906.3364,215.2891 L906.3364,222.4219 L896.3364,232.4219 L402.6548,232.4219 L402.6548,215.2891" fill="#EEEEEE" style="stroke:#000000;stroke-width:1.5;"/><rect fill="none" height="45.1328" style="stroke:#000000;stroke-width:1.5;" width="508.6816" x="402.6548" y="215.2891"/><text fill="#000000" font-family="sans-serif" font-size="13" font-weight="bold" lengthAdjust="spacing" textLength="458.6816" x="417.6548" y="228.356">Vertrauensbeziehung zwischen ZAS und Client wird aufgebaut</text><g class="message" data-entity-1="part2" data-entity-2="part3" id="msg3"><polygon fill="#181818" points="783.8198,234.4219,793.8198,238.4219,783.8198,242.4219,787.8198,238.4219" style="stroke:#181818;stroke-width:1;"/><line style="stroke:#181818;stroke-width:1;" x1="458.2773" x2="789.8198" y1="238.4219" y2="238.4219"/></g><g class="message" data-entity-1="part3" data-entity-2="part2" id="msg4"><polygon fill="#181818" points="469.2773,248.4219,459.2773,252.4219,469.2773,256.4219,465.2773,252.4219" style="stroke:#181818;stroke-width:1;"/><line style="stroke:#181818;stroke-width:1;stroke-dasharray:2,2;" x1="463.2773" x2="794.8198" y1="252.4219" y2="252.4219"/></g><path d="M20,274.4219 L84.4429,274.4219 L84.4429,281.5547 L74.4429,291.5547 L20,291.5547 L20,274.4219" fill="#EEEEEE" style="stroke:#000000;stroke-width:1.5;"/><rect fill="none" height="444.7969" style="stroke:#000000;stroke-width:1.5;" width="843.7046" x="20" y="274.4219"/><text fill="#000000" font-family="sans-serif" font-size="13" font-weight="bold" lengthAdjust="spacing" textLength="19.4429" x="35" y="287.4888">alt</text><text fill="#000000" font-family="sans-serif" font-size="11" font-weight="bold" lengthAdjust="spacing" textLength="151.54" x="99.4429" y="286.6323">[Windows / Linux (TPM)]</text><g class="message" data-entity-1="part3" data-entity-2="part1" id="msg5"><polygon fill="#181818" points="92.5356,323.8203,82.5356,327.8203,92.5356,331.8203,88.5356,327.8203" style="stroke:#181818;stroke-width:1;"/><line style="stroke:#181818;stroke-width:1;" x1="86.5356" x2="794.8198" y1="327.8203" y2="327.8203"/><text fill="#000000" font-family="sans-serif" font-size="13" lengthAdjust="spacing" textLength="255.3472" x="98.5356" y="307.6216">Generiere PrK.Client.Sig, PuK.Client.Sig</text><text fill="#000000" font-family="sans-serif" font-size="13" lengthAdjust="spacing" textLength="195.5078" x="98.5356" y="322.7544">via OS-Provider (z.B. MS CNG)</text></g><g class="message" data-entity-1="part1" data-entity-2="part3" id="msg6"><polygon fill="#181818" points="783.8198,352.9531,793.8198,356.9531,783.8198,360.9531,787.8198,356.9531" style="stroke:#181818;stroke-width:1;"/><line style="stroke:#181818;stroke-width:1;stroke-dasharray:2,2;" x1="81.5356" x2="789.8198" y1="356.9531" y2="356.9531"/><text fill="#000000" font-family="sans-serif" font-size="13" lengthAdjust="spacing" textLength="238.9512" x="88.5356" y="351.8872">PuK.Client.Sig, Handle_PrK.Client.Sig</text></g><g class="message" data-entity-1="part2" data-entity-2="part2" id="msg7"><line style="stroke:#181818;stroke-width:1;stroke-dasharray:2,2;" x1="458.2773" x2="500.2773" y1="386.0859" y2="386.0859"/><line style="stroke:#181818;stroke-width:1;stroke-dasharray:2,2;" x1="500.2773" x2="500.2773" y1="386.0859" y2="399.0859"/><line style="stroke:#181818;stroke-width:1;stroke-dasharray:2,2;" x1="459.2773" x2="500.2773" y1="399.0859" y2="399.0859"/><polygon fill="#181818" points="469.2773,395.0859,459.2773,399.0859,469.2773,403.0859,465.2773,399.0859" style="stroke:#181818;stroke-width:1;"/><text fill="#000000" font-family="sans-serif" font-size="13" lengthAdjust="spacing" textLength="313.5425" x="465.2773" y="381.02">Messung des PS &amp; Vergleich mit Hersteller-Wert</text></g><g class="message" data-entity-1="part2" data-entity-2="part1" id="msg8"><polygon fill="#181818" points="92.5356,424.2188,82.5356,428.2188,92.5356,432.2188,88.5356,428.2188" style="stroke:#181818;stroke-width:1;"/><line style="stroke:#181818;stroke-width:1;" x1="86.5356" x2="447.2773" y1="428.2188" y2="428.2188"/><text fill="#000000" font-family="sans-serif" font-size="13" lengthAdjust="spacing" textLength="318.481" x="98.5356" y="423.1528">TPM2_CreatePrimary() &#8594; Storage Root Key (SRK)</text></g><g class="message" data-entity-1="part2" data-entity-2="part1" id="msg9"><polygon fill="#181818" points="92.5356,453.3516,82.5356,457.3516,92.5356,461.3516,88.5356,457.3516" style="stroke:#181818;stroke-width:1;"/><line style="stroke:#181818;stroke-width:1;" x1="86.5356" x2="447.2773" y1="457.3516" y2="457.3516"/><text fill="#000000" font-family="sans-serif" font-size="13" lengthAdjust="spacing" textLength="334.8643" x="98.5356" y="452.2856">TPM2_Create(SRK, restricted=sign, fixedTPM=true)</text></g><g class="message" data-entity-1="part1" data-entity-2="part2" id="msg10"><polygon fill="#181818" points="436.2773,482.4844,446.2773,486.4844,436.2773,490.4844,440.2773,486.4844" style="stroke:#181818;stroke-width:1;"/><line style="stroke:#181818;stroke-width:1;stroke-dasharray:2,2;" x1="81.5356" x2="442.2773" y1="486.4844" y2="486.4844"/><text fill="#000000" font-family="sans-serif" font-size="13" lengthAdjust="spacing" textLength="188.519" x="88.5356" y="481.4185">PuK.AK.Sig, PrK.AK.Sig (blob)</text></g><g class="message" data-entity-1="part2" data-entity-2="part1" id="msg11"><polygon fill="#181818" points="92.5356,511.6172,82.5356,515.6172,92.5356,519.6172,88.5356,515.6172" style="stroke:#181818;stroke-width:1;"/><line style="stroke:#181818;stroke-width:1;" x1="86.5356" x2="447.2773" y1="515.6172" y2="515.6172"/><text fill="#000000" font-family="sans-serif" font-size="13" lengthAdjust="spacing" textLength="263.5737" x="98.5356" y="510.5513">TPM2_Load(SRK, PrK.AK.Sig, PuK.AK.Sig)</text></g><g class="message" data-entity-1="part1" data-entity-2="part2" id="msg12"><polygon fill="#181818" points="436.2773,540.75,446.2773,544.75,436.2773,548.75,440.2773,544.75" style="stroke:#181818;stroke-width:1;"/><line style="stroke:#181818;stroke-width:1;stroke-dasharray:2,2;" x1="81.5356" x2="442.2773" y1="544.75" y2="544.75"/><text fill="#000000" font-family="sans-serif" font-size="13" lengthAdjust="spacing" textLength="119.8501" x="88.5356" y="539.6841">Handle_PrK.AK.Sig</text></g><g class="message" data-entity-1="part2" data-entity-2="part1" id="msg13"><polygon fill="#181818" points="87.5356,572.8828,77.5356,576.8828,87.5356,580.8828,83.5356,576.8828" style="stroke:#181818;stroke-width:1;"/><line style="stroke:#181818;stroke-width:1;" x1="81.5356" x2="447.2773" y1="576.8828" y2="576.8828"/><text fill="#000000" font-family="sans-serif" font-size="13" lengthAdjust="spacing" textLength="224.4912" x="93.5356" y="571.8169">TPM2_PCR_Extend(23, Messwerte)</text></g><path d="M463,557.75 L463,582.75 L853,582.75 L853,567.75 L843,557.75 L463,557.75" fill="#FEFFDD" style="stroke:#181818;stroke-width:0.5;"/><path d="M843,557.75 L843,567.75 L853,567.75 L843,557.75" fill="#FEFFDD" style="stroke:#181818;stroke-width:0.5;"/><text fill="#000000" font-family="sans-serif" font-size="13" lengthAdjust="spacing" textLength="369.4272" x="469" y="574.8169">PCR_23 K&#246;nnte belegt sein; muss vorher gepr&#252;ft werden</text><line style="stroke:#000000;stroke-width:1;stroke-dasharray:2,2;" x1="20" x2="863.7046" y1="588.8828" y2="588.8828"/><text fill="#000000" font-family="sans-serif" font-size="11" font-weight="bold" lengthAdjust="spacing" textLength="160.7568" x="25" y="599.0933">[macOS (Secure Enclave)]</text><g class="message" data-entity-1="part3" data-entity-2="part1" id="msg15"><polygon fill="#181818" points="92.5356,619.8203,82.5356,623.8203,92.5356,627.8203,88.5356,623.8203" style="stroke:#181818;stroke-width:1;"/><line style="stroke:#181818;stroke-width:1;" x1="86.5356" x2="794.8198" y1="623.8203" y2="623.8203"/><text fill="#000000" font-family="sans-serif" font-size="13" lengthAdjust="spacing" textLength="429.1777" x="98.5356" y="618.7544">SecKeyCreateRandomKey (f&#252;r PrK.Client.Sig, PuK.Client.Sig in SE)</text></g><g class="message" data-entity-1="part1" data-entity-2="part3" id="msg16"><polygon fill="#181818" points="783.8198,648.9531,793.8198,652.9531,783.8198,656.9531,787.8198,652.9531" style="stroke:#181818;stroke-width:1;"/><line style="stroke:#181818;stroke-width:1;stroke-dasharray:2,2;" x1="81.5356" x2="789.8198" y1="652.9531" y2="652.9531"/><text fill="#000000" font-family="sans-serif" font-size="13" lengthAdjust="spacing" textLength="238.9512" x="88.5356" y="647.8872">PuK.Client.Sig, Handle_PrK.Client.Sig</text></g><g class="message" data-entity-1="part2" data-entity-2="part1" id="msg17"><polygon fill="#181818" points="92.5356,678.0859,82.5356,682.0859,92.5356,686.0859,88.5356,682.0859" style="stroke:#181818;stroke-width:1;"/><line style="stroke:#181818;stroke-width:1;" x1="86.5356" x2="447.2773" y1="682.0859" y2="682.0859"/><text fill="#000000" font-family="sans-serif" font-size="13" lengthAdjust="spacing" textLength="342.7417" x="98.5356" y="677.02">SecKeyCreateRandomKey (f&#252;r Attestation Key in SE)</text></g><g class="message" data-entity-1="part1" data-entity-2="part2" id="msg18"><polygon fill="#181818" points="436.2773,707.2188,446.2773,711.2188,436.2773,715.2188,440.2773,711.2188" style="stroke:#181818;stroke-width:1;"/><line style="stroke:#181818;stroke-width:1;stroke-dasharray:2,2;" x1="76.5356" x2="442.2773" y1="711.2188" y2="711.2188"/><text fill="#000000" font-family="sans-serif" font-size="13" lengthAdjust="spacing" textLength="198.5166" x="83.5356" y="706.1528">PuK.AK.Sig, Handle_PrK.AK.Sig</text></g><line style="stroke:#000000;stroke-width:1;stroke-dasharray:2,2;" x1="10" x2="1210.9565" y1="727.2188" y2="727.2188"/><text fill="#000000" font-family="sans-serif" font-size="11" font-weight="bold" lengthAdjust="spacing" textLength="205.5088" x="15" y="737.4292">[Software Attestation (Fallback)]</text><g class="message" data-entity-1="part3" data-entity-2="part3" id="msg19"><line style="stroke:#181818;stroke-width:1;stroke-dasharray:2,2;" x1="805.8198" x2="847.8198" y1="762.1563" y2="762.1563"/><line style="stroke:#181818;stroke-width:1;stroke-dasharray:2,2;" x1="847.8198" x2="847.8198" y1="762.1563" y2="775.1563"/><line style="stroke:#181818;stroke-width:1;stroke-dasharray:2,2;" x1="806.8198" x2="847.8198" y1="775.1563" y2="775.1563"/><polygon fill="#181818" points="816.8198,771.1563,806.8198,775.1563,816.8198,779.1563,812.8198,775.1563" style="stroke:#181818;stroke-width:1;"/><text fill="#000000" font-family="sans-serif" font-size="13" lengthAdjust="spacing" textLength="159.6563" x="812.8198" y="757.0903">Installation (User Space)</text></g><g class="message" data-entity-1="part3" data-entity-2="part3" id="msg20"><line style="stroke:#181818;stroke-width:1;" x1="805.8198" x2="847.8198" y1="804.2891" y2="804.2891"/><line style="stroke:#181818;stroke-width:1;" x1="847.8198" x2="847.8198" y1="804.2891" y2="817.2891"/><line style="stroke:#181818;stroke-width:1;" x1="806.8198" x2="847.8198" y1="817.2891" y2="817.2891"/><polygon fill="#181818" points="816.8198,813.2891,806.8198,817.2891,816.8198,821.2891,812.8198,817.2891" style="stroke:#181818;stroke-width:1;"/><text fill="#000000" font-family="sans-serif" font-size="13" lengthAdjust="spacing" textLength="376.1367" x="812.8198" y="799.2231">Generiere PrK.Client.Sig, PuK.Client.Sig lokal im RAM/Disk</text></g><g class="message" data-entity-1="part3" data-entity-2="part3" id="msg21"><line style="stroke:#181818;stroke-width:1;stroke-dasharray:2,2;" x1="805.8198" x2="847.8198" y1="846.4219" y2="846.4219"/><line style="stroke:#181818;stroke-width:1;stroke-dasharray:2,2;" x1="847.8198" x2="847.8198" y1="846.4219" y2="859.4219"/><line style="stroke:#181818;stroke-width:1;stroke-dasharray:2,2;" x1="806.8198" x2="847.8198" y1="859.4219" y2="859.4219"/><polygon fill="#181818" points="816.8198,855.4219,806.8198,859.4219,816.8198,863.4219,812.8198,859.4219" style="stroke:#181818;stroke-width:1;"/><text fill="#000000" font-family="sans-serif" font-size="13" lengthAdjust="spacing" textLength="310.0449" x="812.8198" y="841.356">Lokale Messung des PS (Dateihashes ermitteln)</text></g><g class="message" data-entity-1="part3" data-entity-2="part3" id="msg22"><line style="stroke:#181818;stroke-width:1;" x1="805.8198" x2="847.8198" y1="888.5547" y2="888.5547"/><line style="stroke:#181818;stroke-width:1;" x1="847.8198" x2="847.8198" y1="888.5547" y2="901.5547"/><line style="stroke:#181818;stroke-width:1;" x1="806.8198" x2="847.8198" y1="901.5547" y2="901.5547"/><polygon fill="#181818" points="816.8198,897.5547,806.8198,901.5547,816.8198,905.5547,812.8198,901.5547" style="stroke:#181818;stroke-width:1;"/><text fill="#000000" font-family="sans-serif" font-size="13" lengthAdjust="spacing" textLength="274.2061" x="812.8198" y="883.4888">Speichere Baseline-Hash lokal &amp; sicher ab</text></g><?plantuml-src hLNDJjj04BxxAKOSaAF4GO8R5KWXf525b2YcHK98Q6rFd5NMwtHsJO07w0FqONhYnflqIJfh9y611gggEIJhzVnyyyqt4pELUYP8P63mMu4wnW4Q8rBiA9bgK3YsdfLM8NILH6tXapPMA2Mip3Limv4mgAJ6e6T5n1PKwDJpEAALiPm9TjYw60vW1yBUjVPF1ILpGTZO0c60NwnRNdL2DkfOYyOYLKPyjsuq3A7G2LprBZhNkW9L6bP7pnFAmZ8FLB4giFuIICC3_d3WPdDvWY0uTB_xw_NvGXaOvRdTwIIPr9LZbMZXks35kLV7bn6-62G8PoB6oZkbl9Z1LoHBWlas4Jv8d31hy32N9fwWBl6u4XUnvv8I4CKunKWKjWooGhtCkhgjuN7CkIlKYLSU73ENKYVvt30FPr8NToKfZLVUXwutpUO-dA16uguY3AdVhbwtGvcsO5ZKdw_rhHHm7WP3oczbmYNx3-sZDWn2w7u-UKxWMb3dQZrAYnkd4uKtwydMIrusokdKqPQW0TR4jkCqLIZZ2MII9O348b8AARXaib_Ina3stTVkJPTGM1oIp0JT-mtuzVq7X3Odde6ozT37U_33KR_nNWndr09YmP6CBIO7XaUe1MDvXmcR7LWgy3KLPJ6EXqv_mImjp-17Ae_Uo7kMYwJA-kpKgWNRaAt6ScMtESEmExhftLdMaB-xrof9dpETjJfqRX58fXFNJhRUtOF-qq-j-JP2XQdbpIBr1yWAO-0sfmcB8yKPFJsEMTj82Ik-3ZC8AjKgWv29-3nayZ4kM88z7IjnYs_8bGsvMrKtHbnadfND6pyzqZi21gbNc-4_2NL1urkOwkl9tMu0mU62O5qaVsvXEUebSs4-jgytu4VUIv68fur_srtFV2_j_tO_WCgdGe7CODGPx1nBCzs4uCmPuilfze-PFJaHPiBFI3pWFDjw4wfmvjQ0GxNwUpfbrmM8RJ3bMn2HvmZx3G00?></g></svg>