<?plantuml 1.2026.2?><svg xmlns="http://www.w3.org/2000/svg" xmlns:xlink="http://www.w3.org/1999/xlink" contentStyleType="text/css" data-diagram-type="SEQUENCE" height="1030px" preserveAspectRatio="none" style="width:1012px;height:1030px;background:#FFFFFF;" version="1.1" viewBox="0 0 1012 1030" width="1012px" zoomAndPan="magnify"><title>Client Installation &amp; Baseline-Etablierung</title><defs/><g><rect fill="#F8F8FF" height="980.7813" style="stroke:#181818;stroke-width:0.5;" width="690.6284" x="11" y="43.2969"/><text fill="#000000" font-family="Helvetica" font-size="10" font-weight="bold" x="347.8523" y="52.5791">LEI</text><rect fill="#E6E6FA" height="964.1406" style="stroke:#181818;stroke-width:0.5;" width="377.3149" x="324.3135" y="59.9375"/><text fill="#000000" font-family="Helvetica" font-size="10" font-weight="bold" x="473.8743" y="69.2197">Prim&#228;rsystem</text><rect fill="#F4A460" height="947.5" style="stroke:#181818;stroke-width:0.5;" width="96.2021" x="324.3135" y="76.5781"/><text fill="#000000" font-family="Helvetica" font-size="10" font-weight="bold" x="336.3135" y="85.8604">ZAS Attester</text><rect fill="#F4A460" height="947.5" style="stroke:#181818;stroke-width:0.5;" width="89" x="612.6284" y="76.5781"/><text fill="#000000" font-family="Helvetica" font-size="10" font-weight="bold" x="624.6284" y="85.8604">ZETA Client</text><text fill="#000000" font-family="Helvetica" font-size="14" font-weight="bold" x="345.9358" y="27.9951">Client Installation &amp; Baseline-Etablierung</text><g><title>TPM . SE</title><rect fill="#000000" fill-opacity="0.00000" height="849.2969" width="8" x="46.7397" y="130.5"/><line style="stroke:#181818;stroke-width:0.5;stroke-dasharray:5,5;" x1="50.2397" x2="50.2397" y1="130.5" y2="979.7969"/></g><g><title/><rect fill="#FFFFFF" height="218.125" style="stroke:#181818;stroke-width:1;" width="10" x="45.2397" y="393.2656"/></g><g><title/><rect fill="#FFFFFF" height="76.9219" style="stroke:#181818;stroke-width:1;" width="10" x="45.2397" y="672.6719"/></g><g><title>ZAS</title><rect fill="#000000" fill-opacity="0.00000" height="849.2969" width="8" x="368.9146" y="130.5"/><line style="stroke:#181818;stroke-width:0.5;stroke-dasharray:5,5;" x1="372.4146" x2="372.4146" y1="130.5" y2="979.7969"/></g><g><title/><rect fill="#FFFFFF" height="813.6563" style="stroke:#181818;stroke-width:1;" width="10" x="367.4146" y="166.1406"/></g><g><title>PS und ZETA</title><rect fill="#000000" fill-opacity="0.00000" height="849.2969" width="8" x="653.6284" y="130.5"/><line style="stroke:#181818;stroke-width:0.5;stroke-dasharray:5,5;" x1="657.1284" x2="657.1284" y1="130.5" y2="979.7969"/></g><g><title/><rect fill="#FFFFFF" height="775.0156" style="stroke:#181818;stroke-width:1;" width="10" x="652.1284" y="204.7813"/></g><rect fill="#E2E2F0" height="37.2813" rx="2.5" ry="2.5" style="stroke:#181818;stroke-width:0.5;" width="70.4795" x="15" y="92.2188"/><text fill="#000000" font-family="Helvetica" font-size="10" x="28.6602" y="108.501">TPM / SE</text><text fill="#000000" font-family="Helvetica" font-size="10" x="22" y="120.1416">(Hardware)</text><rect fill="#E2E2F0" height="37.2813" rx="2.5" ry="2.5" style="stroke:#181818;stroke-width:0.5;" width="62.0322" x="341.3984" y="92.2188"/><text fill="#000000" font-family="Helvetica" font-size="10" x="362.395" y="108.501">ZAS</text><text fill="#000000" font-family="Helvetica" font-size="10" x="348.3984" y="120.1416">(Attester)</text><rect fill="#E2E2F0" height="37.2813" rx="2.5" ry="2.5" style="stroke:#181818;stroke-width:0.5;" width="77.877" x="618.1899" y="92.2188"/><text fill="#000000" font-family="Helvetica" font-size="10" x="625.1899" y="108.501">PS und ZETA</text><text fill="#000000" font-family="Helvetica" font-size="10" x="642.6533" y="120.1416">Client</text><rect fill="#E2E2F0" height="37.2813" rx="2.5" ry="2.5" style="stroke:#181818;stroke-width:0.5;" width="70.4795" x="15" y="979.7969"/><text fill="#000000" font-family="Helvetica" font-size="10" x="28.6602" y="996.0791">TPM / SE</text><text fill="#000000" font-family="Helvetica" font-size="10" x="22" y="1007.7197">(Hardware)</text><rect fill="#E2E2F0" height="37.2813" rx="2.5" ry="2.5" style="stroke:#181818;stroke-width:0.5;" width="62.0322" x="341.3984" y="979.7969"/><text fill="#000000" font-family="Helvetica" font-size="10" x="362.395" y="996.0791">ZAS</text><text fill="#000000" font-family="Helvetica" font-size="10" x="348.3984" y="1007.7197">(Attester)</text><rect fill="#E2E2F0" height="37.2813" rx="2.5" ry="2.5" style="stroke:#181818;stroke-width:0.5;" width="77.877" x="618.1899" y="979.7969"/><text fill="#000000" font-family="Helvetica" font-size="10" x="625.1899" y="996.0791">PS und ZETA</text><text fill="#000000" font-family="Helvetica" font-size="10" x="642.6533" y="1007.7197">Client</text><path d="M10.2397,142.5 L70.1958,142.5 L70.1958,146.1406 L60.1958,156.1406 L10.2397,156.1406 L10.2397,142.5" fill="#EEEEEE" style="stroke:#000000;stroke-width:1.5;"/><rect fill="none" height="813.2969" style="stroke:#000000;stroke-width:1.5;" width="995.752" x="10.2397" y="142.5"/><text fill="#000000" font-family="Helvetica" font-size="10" font-weight="bold" x="25.2397" y="152.7822">alt</text><text fill="#000000" font-family="Helvetica" font-size="10" font-weight="bold" x="85.1958" y="153.7822">[Hardware Attestation (TPM / SE)]</text><line style="stroke:#000000;stroke-width:1;stroke-dasharray:2,2;" x1="10.2397" x2="1005.9917" y1="782.5938" y2="782.5938"/><text fill="#000000" font-family="Helvetica" font-size="10" font-weight="bold" x="15.2397" y="793.876">[Software Attestation (Fallback)]</text><line style="stroke:#181818;stroke-width:1;stroke-dasharray:2,2;" x1="377.4146" x2="419.4146" y1="183.7813" y2="183.7813"/><line style="stroke:#181818;stroke-width:1;stroke-dasharray:2,2;" x1="419.4146" x2="419.4146" y1="183.7813" y2="196.7813"/><line style="stroke:#181818;stroke-width:1;stroke-dasharray:2,2;" x1="378.4146" x2="419.4146" y1="196.7813" y2="196.7813"/><polygon fill="#181818" points="388.4146,192.7813,378.4146,196.7813,388.4146,200.7813,384.4146,196.7813" style="stroke:#181818;stroke-width:1;"/><text fill="#000000" font-family="Helvetica" font-size="10" x="384.4146" y="179.4229">(01)</text><text fill="#000000" font-family="Helvetica" font-size="10" x="408.9419" y="179.4229">Installation (als Root/Admin)</text><line style="stroke:#181818;stroke-width:1;stroke-dasharray:2,2;" x1="662.1284" x2="704.1284" y1="222.4219" y2="222.4219"/><line style="stroke:#181818;stroke-width:1;stroke-dasharray:2,2;" x1="704.1284" x2="704.1284" y1="222.4219" y2="235.4219"/><line style="stroke:#181818;stroke-width:1;stroke-dasharray:2,2;" x1="663.1284" x2="704.1284" y1="235.4219" y2="235.4219"/><polygon fill="#181818" points="673.1284,231.4219,663.1284,235.4219,673.1284,239.4219,669.1284,235.4219" style="stroke:#181818;stroke-width:1;"/><text fill="#000000" font-family="Helvetica" font-size="10" x="669.1284" y="218.0635">(02)</text><text fill="#000000" font-family="Helvetica" font-size="10" x="693.6558" y="218.0635">Installation (User Space)</text><path d="M356.4146,247.4219 L754.2466,247.4219 L754.2466,251.0625 L744.2466,261.0625 L356.4146,261.0625 L356.4146,247.4219" fill="#EEEEEE" style="stroke:#000000;stroke-width:1.5;"/><rect fill="none" height="74.9219" style="stroke:#000000;stroke-width:1.5;" width="413.832" x="356.4146" y="247.4219"/><text fill="#000000" font-family="Helvetica" font-size="10" font-weight="bold" x="371.4146" y="257.7041">Vertrauensbeziehung zwischen ZAS und Client wird aufgebaut</text><polygon fill="#181818" points="640.1284,284.7031,650.1284,288.7031,640.1284,292.7031,644.1284,288.7031" style="stroke:#181818;stroke-width:1;"/><line style="stroke:#181818;stroke-width:1;" x1="377.4146" x2="646.1284" y1="288.7031" y2="288.7031"/><text fill="#000000" font-family="Helvetica" font-size="10" x="384.4146" y="284.3447">(03)</text><text fill="#000000" font-family="Helvetica" font-size="10" x="408.9419" y="284.3447">&#160;</text><polygon fill="#181818" points="388.4146,310.3438,378.4146,314.3438,388.4146,318.3438,384.4146,314.3438" style="stroke:#181818;stroke-width:1;"/><line style="stroke:#181818;stroke-width:1;stroke-dasharray:2,2;" x1="382.4146" x2="651.1284" y1="314.3438" y2="314.3438"/><text fill="#000000" font-family="Helvetica" font-size="10" x="394.4146" y="309.9854">(04)</text><text fill="#000000" font-family="Helvetica" font-size="10" x="418.9419" y="309.9854">&#160;</text><path d="M29.2397,340.3438 L89.1958,340.3438 L89.1958,343.9844 L79.1958,353.9844 L29.2397,353.9844 L29.2397,340.3438" fill="#EEEEEE" style="stroke:#000000;stroke-width:1.5;"/><rect fill="none" height="417.25" style="stroke:#000000;stroke-width:1.5;" width="679.3496" x="29.2397" y="340.3438"/><text fill="#000000" font-family="Helvetica" font-size="10" font-weight="bold" x="44.2397" y="350.626">alt</text><text fill="#000000" font-family="Helvetica" font-size="10" font-weight="bold" x="104.1958" y="351.626">[Windows / Linux (TPM)]</text><line style="stroke:#000000;stroke-width:1;stroke-dasharray:2,2;" x1="29.2397" x2="708.5894" y1="636.3906" y2="636.3906"/><text fill="#000000" font-family="Helvetica" font-size="10" font-weight="bold" x="34.2397" y="647.6729">[macOS (Secure Enclave)]</text><polygon fill="#181818" points="66.2397,389.2656,56.2397,393.2656,66.2397,397.2656,62.2397,393.2656" style="stroke:#181818;stroke-width:1;"/><line style="stroke:#181818;stroke-width:1;" x1="60.2397" x2="651.1284" y1="393.2656" y2="393.2656"/><text fill="#000000" font-family="Helvetica" font-size="10" x="72.2397" y="383.0869">(05)</text><text fill="#000000" font-family="Helvetica" font-size="10" x="96.7671" y="377.2666">Generiere PrK.Client.Sig, PuK.Client.Sig</text><text fill="#000000" font-family="Helvetica" font-size="10" x="96.7671" y="388.9072">via OS-Provider (z.B. MS CNG)</text><polygon fill="#181818" points="640.1284,414.9063,650.1284,418.9063,640.1284,422.9063,644.1284,418.9063" style="stroke:#181818;stroke-width:1;"/><line style="stroke:#181818;stroke-width:1;stroke-dasharray:2,2;" x1="55.2397" x2="646.1284" y1="418.9063" y2="418.9063"/><text fill="#000000" font-family="Helvetica" font-size="10" x="62.2397" y="414.5479">(06)</text><text fill="#000000" font-family="Helvetica" font-size="10" x="86.7671" y="414.5479">PuK.Client.Sig, Handle_PrK.Client.Sig</text><line style="stroke:#181818;stroke-width:1;stroke-dasharray:2,2;" x1="377.4146" x2="419.4146" y1="444.5469" y2="444.5469"/><line style="stroke:#181818;stroke-width:1;stroke-dasharray:2,2;" x1="419.4146" x2="419.4146" y1="444.5469" y2="457.5469"/><line style="stroke:#181818;stroke-width:1;stroke-dasharray:2,2;" x1="378.4146" x2="419.4146" y1="457.5469" y2="457.5469"/><polygon fill="#181818" points="388.4146,453.5469,378.4146,457.5469,388.4146,461.5469,384.4146,457.5469" style="stroke:#181818;stroke-width:1;"/><text fill="#000000" font-family="Helvetica" font-size="10" x="384.4146" y="440.1885">(07)</text><text fill="#000000" font-family="Helvetica" font-size="10" x="408.9419" y="440.1885">Messung des PS &amp; Vergleich mit Hersteller-Wert</text><polygon fill="#181818" points="66.2397,479.1875,56.2397,483.1875,66.2397,487.1875,62.2397,483.1875" style="stroke:#181818;stroke-width:1;"/><line style="stroke:#181818;stroke-width:1;" x1="60.2397" x2="366.4146" y1="483.1875" y2="483.1875"/><text fill="#000000" font-family="Helvetica" font-size="10" x="72.2397" y="478.8291">(08)</text><text fill="#000000" font-family="Helvetica" font-size="10" x="96.7671" y="478.8291">TPM2_CreatePrimary() &#8594; Storage Root Key (SRK)</text><polygon fill="#181818" points="66.2397,504.8281,56.2397,508.8281,66.2397,512.8281,62.2397,508.8281" style="stroke:#181818;stroke-width:1;"/><line style="stroke:#181818;stroke-width:1;" x1="60.2397" x2="366.4146" y1="508.8281" y2="508.8281"/><text fill="#000000" font-family="Helvetica" font-size="10" x="72.2397" y="504.4697">(09)</text><text fill="#000000" font-family="Helvetica" font-size="10" x="96.7671" y="504.4697">TPM2_Create(SRK, restricted=sign, fixedTPM=true)</text><polygon fill="#181818" points="355.4146,530.4688,365.4146,534.4688,355.4146,538.4688,359.4146,534.4688" style="stroke:#181818;stroke-width:1;"/><line style="stroke:#181818;stroke-width:1;stroke-dasharray:2,2;" x1="55.2397" x2="361.4146" y1="534.4688" y2="534.4688"/><text fill="#000000" font-family="Helvetica" font-size="10" x="62.2397" y="530.1104">(10)</text><text fill="#000000" font-family="Helvetica" font-size="10" x="86.7671" y="530.1104">PuK.AK.Sig, PrK.AK.Sig (blob)</text><polygon fill="#181818" points="66.2397,556.1094,56.2397,560.1094,66.2397,564.1094,62.2397,560.1094" style="stroke:#181818;stroke-width:1;"/><line style="stroke:#181818;stroke-width:1;" x1="60.2397" x2="366.4146" y1="560.1094" y2="560.1094"/><text fill="#000000" font-family="Helvetica" font-size="10" x="72.2397" y="555.751">(11)</text><text fill="#000000" font-family="Helvetica" font-size="10" x="96.7671" y="555.751">TPM2_Load(SRK, PrK.AK.Sig, PuK.AK.Sig)</text><polygon fill="#181818" points="355.4146,581.75,365.4146,585.75,355.4146,589.75,359.4146,585.75" style="stroke:#181818;stroke-width:1;"/><line style="stroke:#181818;stroke-width:1;stroke-dasharray:2,2;" x1="55.2397" x2="361.4146" y1="585.75" y2="585.75"/><text fill="#000000" font-family="Helvetica" font-size="10" x="62.2397" y="581.3916">(12)</text><text fill="#000000" font-family="Helvetica" font-size="10" x="86.7671" y="581.3916">Handle_PrK.AK.Sig</text><polygon fill="#181818" points="66.2397,607.3906,56.2397,611.3906,66.2397,615.3906,62.2397,611.3906" style="stroke:#181818;stroke-width:1;"/><line style="stroke:#181818;stroke-width:1;" x1="60.2397" x2="366.4146" y1="611.3906" y2="611.3906"/><text fill="#000000" font-family="Helvetica" font-size="10" x="72.2397" y="607.0322">(13)</text><text fill="#000000" font-family="Helvetica" font-size="10" x="96.7671" y="607.0322">TPM2_PCR_Extend(23, Messwerte)</text><path d="M382.4146,598.75 L382.4146,619.75 L687.4146,619.75 L687.4146,608.75 L677.4146,598.75 L382.4146,598.75" fill="#FEFFDD" style="stroke:#181818;stroke-width:0.5;"/><path d="M677.4146,598.75 L677.4146,608.75 L687.4146,608.75 L677.4146,598.75" fill="#FEFFDD" style="stroke:#181818;stroke-width:0.5;"/><text fill="#000000" font-family="Helvetica" font-size="10" x="388.4146" y="613.0322">PCR_23 K&#246;nnte belegt sein; muss vorher gepr&#252;ft werden</text><polygon fill="#181818" points="66.2397,668.6719,56.2397,672.6719,66.2397,676.6719,62.2397,672.6719" style="stroke:#181818;stroke-width:1;"/><line style="stroke:#181818;stroke-width:1;" x1="60.2397" x2="651.1284" y1="672.6719" y2="672.6719"/><text fill="#000000" font-family="Helvetica" font-size="10" x="72.2397" y="668.3135">(14)</text><text fill="#000000" font-family="Helvetica" font-size="10" x="96.7671" y="668.3135">SecKeyCreateRandomKey (f&#252;r PrK.Client.Sig, PuK.Client.Sig in SE)</text><polygon fill="#181818" points="640.1284,694.3125,650.1284,698.3125,640.1284,702.3125,644.1284,698.3125" style="stroke:#181818;stroke-width:1;"/><line style="stroke:#181818;stroke-width:1;stroke-dasharray:2,2;" x1="55.2397" x2="646.1284" y1="698.3125" y2="698.3125"/><text fill="#000000" font-family="Helvetica" font-size="10" x="62.2397" y="693.9541">(15)</text><text fill="#000000" font-family="Helvetica" font-size="10" x="86.7671" y="693.9541">PuK.Client.Sig, Handle_PrK.Client.Sig</text><polygon fill="#181818" points="66.2397,719.9531,56.2397,723.9531,66.2397,727.9531,62.2397,723.9531" style="stroke:#181818;stroke-width:1;"/><line style="stroke:#181818;stroke-width:1;" x1="60.2397" x2="366.4146" y1="723.9531" y2="723.9531"/><text fill="#000000" font-family="Helvetica" font-size="10" x="72.2397" y="719.5947">(16)</text><text fill="#000000" font-family="Helvetica" font-size="10" x="96.7671" y="719.5947">SecKeyCreateRandomKey (f&#252;r Attestation Key in SE)</text><polygon fill="#181818" points="355.4146,745.5938,365.4146,749.5938,355.4146,753.5938,359.4146,749.5938" style="stroke:#181818;stroke-width:1;"/><line style="stroke:#181818;stroke-width:1;stroke-dasharray:2,2;" x1="55.2397" x2="361.4146" y1="749.5938" y2="749.5938"/><text fill="#000000" font-family="Helvetica" font-size="10" x="62.2397" y="745.2354">(17)</text><text fill="#000000" font-family="Helvetica" font-size="10" x="86.7671" y="745.2354">PuK.AK.Sig, Handle_PrK.AK.Sig</text><line style="stroke:#181818;stroke-width:1;stroke-dasharray:2,2;" x1="662.1284" x2="704.1284" y1="818.875" y2="818.875"/><line style="stroke:#181818;stroke-width:1;stroke-dasharray:2,2;" x1="704.1284" x2="704.1284" y1="818.875" y2="831.875"/><line style="stroke:#181818;stroke-width:1;stroke-dasharray:2,2;" x1="663.1284" x2="704.1284" y1="831.875" y2="831.875"/><polygon fill="#181818" points="673.1284,827.875,663.1284,831.875,673.1284,835.875,669.1284,831.875" style="stroke:#181818;stroke-width:1;"/><text fill="#000000" font-family="Helvetica" font-size="10" x="669.1284" y="814.5166">(18)</text><text fill="#000000" font-family="Helvetica" font-size="10" x="693.6558" y="814.5166">Installation (User Space)</text><line style="stroke:#181818;stroke-width:1;" x1="662.1284" x2="704.1284" y1="857.5156" y2="857.5156"/><line style="stroke:#181818;stroke-width:1;" x1="704.1284" x2="704.1284" y1="857.5156" y2="870.5156"/><line style="stroke:#181818;stroke-width:1;" x1="663.1284" x2="704.1284" y1="870.5156" y2="870.5156"/><polygon fill="#181818" points="673.1284,866.5156,663.1284,870.5156,673.1284,874.5156,669.1284,870.5156" style="stroke:#181818;stroke-width:1;"/><text fill="#000000" font-family="Helvetica" font-size="10" x="669.1284" y="853.1572">(19)</text><text fill="#000000" font-family="Helvetica" font-size="10" x="693.6558" y="853.1572">Generiere PrK.Client.Sig, PuK.Client.Sig lokal im RAM/Disk</text><line style="stroke:#181818;stroke-width:1;stroke-dasharray:2,2;" x1="662.1284" x2="704.1284" y1="896.1563" y2="896.1563"/><line style="stroke:#181818;stroke-width:1;stroke-dasharray:2,2;" x1="704.1284" x2="704.1284" y1="896.1563" y2="909.1563"/><line style="stroke:#181818;stroke-width:1;stroke-dasharray:2,2;" x1="663.1284" x2="704.1284" y1="909.1563" y2="909.1563"/><polygon fill="#181818" points="673.1284,905.1563,663.1284,909.1563,673.1284,913.1563,669.1284,909.1563" style="stroke:#181818;stroke-width:1;"/><text fill="#000000" font-family="Helvetica" font-size="10" x="669.1284" y="891.7979">(20)</text><text fill="#000000" font-family="Helvetica" font-size="10" x="693.6558" y="891.7979">Lokale Messung des PS (Dateihashes ermitteln)</text><line style="stroke:#181818;stroke-width:1;" x1="662.1284" x2="704.1284" y1="934.7969" y2="934.7969"/><line style="stroke:#181818;stroke-width:1;" x1="704.1284" x2="704.1284" y1="934.7969" y2="947.7969"/><line style="stroke:#181818;stroke-width:1;" x1="663.1284" x2="704.1284" y1="947.7969" y2="947.7969"/><polygon fill="#181818" points="673.1284,943.7969,663.1284,947.7969,673.1284,951.7969,669.1284,947.7969" style="stroke:#181818;stroke-width:1;"/><text fill="#000000" font-family="Helvetica" font-size="10" x="669.1284" y="930.4385">(21)</text><text fill="#000000" font-family="Helvetica" font-size="10" x="693.6558" y="930.4385">Speichere Baseline-Hash lokal &amp; sicher ab</text><?plantuml-src hLLTRkCs47xNAQOk4CYmdQJPjomsWEDuauNjNSFQDa0H8A2aiSI68bsIiXCVO0_GC_GCVTgttAGdsI5bnx8JPnT5_M2HuZS__EQR4IkjacKHeuP6U7pSR0JcZiiPqwo05AUi5FQzaZRYIuHVZby-_CWAX2iKSxGyOJNCHOKPAQdCZ2MOFg5xgjGSTGqhK6OsxwP_bCQ2L19hPmR_B54cEC4fQhSuPybTfbKfqvuIIiDrpctT8DersDpXv0M_8pI6PTWLF9EKoDG6WULMK9g2exJmGHhBX62MAma7SCuC2YwnqxSi9eGkPHO4Fyqqome65jKIh2un269r3urX_qC3VhxCbR5LcW0KdPZYCqQ-6v_78pY2g7yZmokcqmNJs6m0Cq07XFK-nfeNZtzhys0i5kHjoEOeK-8FLZ-F-hqRGTTQ990cKCHa-d2krK8-mRO24vnYhWsgcFJEWycxynbiVFS_TrTq_83hSGHK6t16Dt9jHUwhPJs2MmQRUEjdm8I5DHshIrNqXsk-ce7tGnctMYilVWUTpfbxdcwNBMJ2m4GfUzHD2owR7bxbqshLDjwyMkvw-DLGbqHEo9MrK-0CVaDjDICTcHYN77CI0omNt2GvIf-FOsBbUy5r2goSPXYpqZvnvxC-gxEpaq-jBDMj7JtNNAPgOOYC8PVblMUc-SpwpEcerJg5IvJeUWvXh0U7rV5XnBCsZClw_aREEODFKMUirPoJo21S7fuVmYY2tiVBJG1NXpfNsrxQL3sP2hpT3hPzvNMXNFyvsb8qGD8vS9nc0dcIGy591wX9eKAWxbmJsRkqKIAdxk_ajgUHMNJDmlH3s8H_l_m5aLNKb-XB3mDyW32Q39hVy-50RT2aEiqJY-axGwEX3LD-Zod1thd-Vaw5lupZeJjOCQlNQmXZeU9NuWuLIwke6wDspTcUQ3MMAzp-2EFUvBP_Rqb3uScRjYTzGNJMxY6LHT0yorqv2Nto1WQF_qX9RsCKc5cQc5o-XQ8q1kPAvoIE36VwyUkKj8qw9SNNq-nqAjKAWr2mv5D4v6DIaWJxCX4qmrwHAm6fMbKr9dH9LVZYJH-_wky86BZqu-5_5EgAnjTogiyeztPF4kIkqzaMoSibzAtkcOlKr3uVW-zfBiNq6Mp-jzcruNkD_z7v04BTCG6yW4btT7J1pTs-38OEYBlT7LuGUpnd9gSzQcfmwcsvBwjeviQ0o-hfgtj5fgia3i3uKs2n-tG4tm00?></g></svg>