<?plantuml 1.2026.2?><svg xmlns="http://www.w3.org/2000/svg" xmlns:xlink="http://www.w3.org/1999/xlink" contentStyleType="text/css" data-diagram-type="SEQUENCE" height="510px" preserveAspectRatio="none" style="width:570px;height:510px;background:#FFFFFF;" version="1.1" viewBox="0 0 570 510" width="570px" zoomAndPan="magnify"><title>Client Start &amp; Initialisierung</title><defs/><g><rect fill="#F8F8FF" height="460.8906" style="stroke:#181818;stroke-width:0.5;" width="488.4688" x="11" y="43.2969"/><text fill="#000000" font-family="Helvetica" font-size="10" font-weight="bold" x="246.7725" y="52.5791">LEI</text><rect fill="#E6E6FA" height="444.25" style="stroke:#181818;stroke-width:0.5;" width="250.6958" x="248.7729" y="59.9375"/><text fill="#000000" font-family="Helvetica" font-size="10" font-weight="bold" x="335.0242" y="69.2197">Prim&#228;rsystem</text><text fill="#000000" font-family="Helvetica" font-size="14" font-weight="bold" x="175.8127" y="27.9951">Client Start &amp; Initialisierung</text><g><title>TPM . SE</title><rect fill="#000000" fill-opacity="0.00000" height="369.3281" width="8" x="40.0796" y="102.2188"/><line style="stroke:#000000;stroke-width:0.5;stroke-dasharray:5,5;" x1="43.5796" x2="43.5796" y1="102.2188" y2="471.5469"/></g><g><title>ZAS</title><rect fill="#000000" fill-opacity="0.00000" height="369.3281" width="8" x="266.2925" y="102.2188"/><line style="stroke:#000000;stroke-width:0.5;stroke-dasharray:5,5;" x1="269.7925" x2="269.7925" y1="102.2188" y2="471.5469"/></g><g><title/><rect fill="#FFFFFF" height="333.6875" style="stroke:#181818;stroke-width:1;" width="10" x="264.7925" y="137.8594"/></g><g><title>ZETA Client</title><rect fill="#000000" fill-opacity="0.00000" height="369.3281" width="8" x="455.8452" y="102.2188"/><line style="stroke:#000000;stroke-width:0.5;stroke-dasharray:5,5;" x1="459.3452" x2="459.3452" y1="102.2188" y2="471.5469"/></g><g><title/><rect fill="#FFFFFF" height="60.2813" style="stroke:#181818;stroke-width:1;" width="10" x="454.3452" y="411.2656"/></g><rect fill="#E4E4F4" height="25.6406" rx="2.5" ry="2.5" style="stroke:#181818;stroke-width:0.5;" width="57.1592" x="15" y="75.5781"/><text fill="#000000" font-family="Helvetica" font-size="10" x="22" y="91.8604">TPM / SE</text><rect fill="#FFE6CC" height="25.6406" rx="2.5" ry="2.5" style="stroke:#D79B00;stroke-width:0.5;" width="34.0391" x="252.7729" y="75.5781"/><text fill="#000000" font-family="Helvetica" font-size="10" x="259.7729" y="91.8604">ZAS</text><rect fill="#FFE6CC" height="25.6406" rx="2.5" ry="2.5" style="stroke:#D79B00;stroke-width:0.5;" width="72.2471" x="423.2217" y="75.5781"/><text fill="#000000" font-family="Helvetica" font-size="10" x="430.2217" y="91.8604">ZETA Client</text><rect fill="#E4E4F4" height="25.6406" rx="2.5" ry="2.5" style="stroke:#181818;stroke-width:0.5;" width="57.1592" x="15" y="471.5469"/><text fill="#000000" font-family="Helvetica" font-size="10" x="22" y="487.8291">TPM / SE</text><rect fill="#FFE6CC" height="25.6406" rx="2.5" ry="2.5" style="stroke:#D79B00;stroke-width:0.5;" width="34.0391" x="252.7729" y="471.5469"/><text fill="#000000" font-family="Helvetica" font-size="10" x="259.7729" y="487.8291">ZAS</text><rect fill="#FFE6CC" height="25.6406" rx="2.5" ry="2.5" style="stroke:#D79B00;stroke-width:0.5;" width="72.2471" x="423.2217" y="471.5469"/><text fill="#000000" font-family="Helvetica" font-size="10" x="430.2217" y="487.8291">ZETA Client</text><path d="M8.5796,114.2188 L68.5356,114.2188 L68.5356,117.8594 L58.5356,127.8594 L8.5796,127.8594 L8.5796,114.2188" fill="#EEEEEE" style="stroke:#000000;stroke-width:1.5;"/><rect fill="none" height="283.0469" style="stroke:#000000;stroke-width:1.5;" width="472.4883" x="8.5796" y="114.2188"/><text fill="#000000" font-family="Helvetica" font-size="10" font-weight="bold" x="23.5796" y="124.501">alt</text><text fill="#000000" font-family="Helvetica" font-size="10" font-weight="bold" x="83.5356" y="125.501">[Hardware Attestation (TPM / SE)]</text><line style="stroke:#181818;stroke-width:1;" x1="274.7925" x2="316.7925" y1="167.1406" y2="167.1406"/><line style="stroke:#181818;stroke-width:1;" x1="316.7925" x2="316.7925" y1="167.1406" y2="180.1406"/><line style="stroke:#181818;stroke-width:1;" x1="275.7925" x2="316.7925" y1="180.1406" y2="180.1406"/><polygon fill="#181818" points="285.7925,176.1406,275.7925,180.1406,285.7925,184.1406,281.7925,180.1406" style="stroke:#181818;stroke-width:1;"/><text fill="#000000" font-family="Helvetica" font-size="10" x="281.7925" y="156.9619">(01)</text><text fill="#000000" font-family="Helvetica" font-size="10" x="306.3198" y="151.1416">Startet als Hintergrunddienst</text><text fill="#000000" font-family="Helvetica" font-size="10" x="309.4985" y="162.7822">(Root/Admin)</text><path d="M27.5796,192.1406 L87.5356,192.1406 L87.5356,195.7813 L77.5356,205.7813 L27.5796,205.7813 L27.5796,192.1406" fill="#EEEEEE" style="stroke:#000000;stroke-width:1.5;"/><rect fill="none" height="191.125" style="stroke:#000000;stroke-width:1.5;" width="428.4883" x="27.5796" y="192.1406"/><text fill="#000000" font-family="Helvetica" font-size="10" font-weight="bold" x="42.5796" y="202.4229">alt</text><text fill="#000000" font-family="Helvetica" font-size="10" font-weight="bold" x="102.5356" y="203.4229">[Windows / Linux (TPM)]</text><line style="stroke:#000000;stroke-width:1;stroke-dasharray:2,2;" x1="27.5796" x2="456.0679" y1="291.0625" y2="291.0625"/><text fill="#000000" font-family="Helvetica" font-size="10" font-weight="bold" x="32.5796" y="302.3447">[macOS (Secure Enclave)]</text><line style="stroke:#181818;stroke-width:1;stroke-dasharray:2,2;" x1="274.7925" x2="316.7925" y1="233.4219" y2="233.4219"/><line style="stroke:#181818;stroke-width:1;stroke-dasharray:2,2;" x1="316.7925" x2="316.7925" y1="233.4219" y2="246.4219"/><line style="stroke:#181818;stroke-width:1;stroke-dasharray:2,2;" x1="275.7925" x2="316.7925" y1="246.4219" y2="246.4219"/><polygon fill="#181818" points="285.7925,242.4219,275.7925,246.4219,285.7925,250.4219,281.7925,246.4219" style="stroke:#181818;stroke-width:1;"/><text fill="#000000" font-family="Helvetica" font-size="10" x="281.7925" y="229.0635">(02)</text><text fill="#000000" font-family="Helvetica" font-size="10" x="306.3198" y="229.0635">Messung des PS</text><polygon fill="#181818" points="54.5796,268.0625,44.5796,272.0625,54.5796,276.0625,50.5796,272.0625" style="stroke:#181818;stroke-width:1;"/><line style="stroke:#181818;stroke-width:1;" x1="48.5796" x2="263.7925" y1="272.0625" y2="272.0625"/><text fill="#000000" font-family="Helvetica" font-size="10" x="60.5796" y="267.7041">(03)</text><text fill="#000000" font-family="Helvetica" font-size="10" x="85.1069" y="267.7041">TPM2_PCR_Extend(23, Messwerte)</text><line style="stroke:#181818;stroke-width:1;stroke-dasharray:2,2;" x1="274.7925" x2="316.7925" y1="362.2656" y2="362.2656"/><line style="stroke:#181818;stroke-width:1;stroke-dasharray:2,2;" x1="316.7925" x2="316.7925" y1="362.2656" y2="375.2656"/><line style="stroke:#181818;stroke-width:1;stroke-dasharray:2,2;" x1="275.7925" x2="316.7925" y1="375.2656" y2="375.2656"/><polygon fill="#181818" points="285.7925,371.2656,275.7925,375.2656,285.7925,379.2656,281.7925,375.2656" style="stroke:#181818;stroke-width:1;"/><text fill="#000000" font-family="Helvetica" font-size="10" x="281.7925" y="340.4463">(04)</text><text fill="#000000" font-family="Helvetica" font-size="10" x="306.3198" y="322.9854">Initiale Ermittlung</text><text fill="#000000" font-family="Helvetica" font-size="10" x="309.4985" y="334.626">der Posture (SIP-Status,</text><text fill="#000000" font-family="Helvetica" font-size="10" x="309.4985" y="346.2666">Gatekeeper, OS-Version,</text><text fill="#000000" font-family="Helvetica" font-size="10" x="309.4985" y="357.9072">Secure Boot Policy)</text><line style="stroke:#181818;stroke-width:1;" x1="464.3452" x2="506.3452" y1="440.5469" y2="440.5469"/><line style="stroke:#181818;stroke-width:1;" x1="506.3452" x2="506.3452" y1="440.5469" y2="453.5469"/><line style="stroke:#181818;stroke-width:1;" x1="465.3452" x2="506.3452" y1="453.5469" y2="453.5469"/><polygon fill="#181818" points="475.3452,449.5469,465.3452,453.5469,475.3452,457.5469,471.3452,453.5469" style="stroke:#181818;stroke-width:1;"/><text fill="#000000" font-family="Helvetica" font-size="10" x="471.3452" y="430.3682">(05)</text><text fill="#000000" font-family="Helvetica" font-size="10" x="495.8726" y="424.5479">Start</text><text fill="#000000" font-family="Helvetica" font-size="10" x="499.0513" y="436.1885">(User Space)</text><?plantuml-src TLHjJzim4FwUNt7BfAq861rlOmXLQfiKAb4QDGKqD0cPv2WUZjtP3cyJ_sR_P7zivxoK5ig7n7RkkUVkdZk7vLR9FBj23NwZsLpnFNFBvPHfba6AromNjgUaZVaJmjVcSkC9on2EKDoXvGcRmmGbPg2aCbEMO3f3TrMkEUevh40viJVjz5TkB4WbSSvcy7UECi4HNgDscmvBRYTQvJBjAg4qdDzmE-yGltPugM5p2Uy0ZM4JR0i-aPJ8jVLkU8fWB3ah-pX5p_iC7VK0YOjcl0zKF9S85-6uVNbusXu5bztXyN047tkztbQuCmCSX_tQSdYZZ2tpNBGEek59U3AkSU5skDtRdc6YKN_G3aVnZtWS3chCCRj3cP9yBwZXMJy8HpEIe1U4NPTrn3GrXK-Pj7Ns1yO-2cnvTVK1PnEdnXyFO3e7TsU0BqzeMRK7U2qy5HpkThkLzPXogRu7txvtcitY-tF9CzNgZbJLxtC5E-5UiFsMQs-pixMxE-DoZ-3NA5pb9TdoULYawGW25UxFti56fO5dkHKqZe8ZLHnRAXy-GLzoovdWXaOqbnFF-p3LR98niAYUmEgS1kAAni6d3lelJNwbdp-E1h01SUW3C-0EInfEFWLJf7dsxwysZpHqcR-ixKKvy_mNxTWH-xJwS73W-jHglK5LfHL06jVglE10i-IIyEhLOyB24TFfFTC8RMlHM6Qvaj2eIrefub3arTLw1-ijj-oNAYA550QEkAHBD24LqvJY6lkJI4PAsOrscd5PqXGl5_ESorJT6uf0RSiVYd0hrJnKCUeWxifIQ-WtP22A5p4j9_Q-UsrUHjtHPVXWgRJ6vjPQuNQFb5v9Yy8WP2mPnj28CScft50cWgxNEs6hoI2OphYrWbAWYjnKHtIzdNyZxaVh987DpHgP3fd5MyGfwZKOnkjdg0q9wInLl0w9GSw29uzLJZ9rdV3AHf6-LGSfXN9NAGnEobD3eMFtRrtn_WC0?></g></svg>