<?plantuml 1.2026.2?><svg xmlns="http://www.w3.org/2000/svg" xmlns:xlink="http://www.w3.org/1999/xlink" contentStyleType="text/css" data-diagram-type="SEQUENCE" height="1141px" preserveAspectRatio="none" style="width:1401px;height:1141px;background:#FFFFFF;" version="1.1" viewBox="0 0 1401 1141" width="1401px" zoomAndPan="magnify"><title>DCR with Key Binding</title><defs/><g><rect fill="#F8F8FF" height="1092.1094" style="stroke:#181818;stroke-width:0.5;" width="523.4604" x="15.4204" y="43.2969"/><text fill="#000000" font-family="Helvetica" font-size="10" font-weight="bold" x="268.6887" y="52.5791">LEI</text><rect fill="#E6E6FA" height="1075.4688" style="stroke:#181818;stroke-width:0.5;" width="308.25" x="230.6309" y="59.9375"/><text fill="#000000" font-family="Helvetica" font-size="10" font-weight="bold" x="345.6592" y="69.2197">Prim&#228;rsystem</text><rect fill="#F4A460" height="1058.8281" style="stroke:#181818;stroke-width:0.5;" width="164.9375" x="230.6309" y="76.5781"/><text fill="#000000" font-family="Helvetica" font-size="10" font-weight="bold" x="242.6309" y="85.8604">ZETA Attestation Service</text><rect fill="#F4A460" height="1058.8281" style="stroke:#181818;stroke-width:0.5;" width="89" x="449.8809" y="76.5781"/><text fill="#000000" font-family="Helvetica" font-size="10" font-weight="bold" x="461.8809" y="85.8604">ZETA Client</text><rect fill="#C9FFC9" height="1092.1094" style="stroke:#181818;stroke-width:0.5;" width="147.7842" x="910.2759" y="43.2969"/><text fill="#000000" font-family="Helvetica" font-size="10" font-weight="bold" x="922.2759" y="52.5791">Anbieter TI 2.0 Dienst</text><rect fill="#F4A460" height="1075.4688" style="stroke:#181818;stroke-width:0.5;" width="147.7842" x="910.2759" y="59.9375"/><text fill="#000000" font-family="Helvetica" font-size="10" font-weight="bold" x="951.0234" y="69.2197">ZETA Guard</text><text fill="#000000" font-family="Helvetica" font-size="14" font-weight="bold" x="622.4468" y="27.9951">DCR with Key Binding</text><g><title>TPM . SE</title><rect fill="#000000" fill-opacity="0.00000" height="960.625" width="8" x="44.5" y="130.5"/><line style="stroke:#181818;stroke-width:0.5;stroke-dasharray:5,5;" x1="48" x2="48" y1="130.5" y2="1091.125"/></g><g><title/><rect fill="#FFFFFF" height="25.6406" style="stroke:#181818;stroke-width:1;" width="10" x="43" y="400.5469"/></g><g><title>ZAS</title><rect fill="#000000" fill-opacity="0.00000" height="960.625" width="8" x="309.5996" y="130.5"/><line style="stroke:#181818;stroke-width:0.5;stroke-dasharray:5,5;" x1="313.0996" x2="313.0996" y1="130.5" y2="1091.125"/></g><g><title/><rect fill="#FFFFFF" height="76.9219" style="stroke:#181818;stroke-width:1;" width="10" x="308.0996" y="374.9063"/></g><g><title>ZETA Client</title><rect fill="#000000" fill-opacity="0.00000" height="960.625" width="8" x="490.8809" y="130.5"/><line style="stroke:#181818;stroke-width:0.5;stroke-dasharray:5,5;" x1="494.3809" x2="494.3809" y1="130.5" y2="1091.125"/></g><g><title/><rect fill="#FFFFFF" height="897.3438" style="stroke:#181818;stroke-width:1;" width="10" x="489.3809" y="193.7813"/></g><g><title>PDP</title><rect fill="#000000" fill-opacity="0.00000" height="960.625" width="8" x="980.668" y="130.5"/><line style="stroke:#181818;stroke-width:0.5;stroke-dasharray:5,5;" x1="984.168" x2="984.168" y1="130.5" y2="1091.125"/></g><g><title/><rect fill="#FFFFFF" height="838.4219" style="stroke:#181818;stroke-width:1;" width="10" x="979.168" y="234.7031"/></g><rect fill="#E2E2F0" height="25.6406" rx="2.5" ry="2.5" style="stroke:#181818;stroke-width:0.5;" width="57.1592" x="19.4204" y="103.8594"/><text fill="#000000" font-family="Helvetica" font-size="10" x="26.4204" y="120.1416">TPM / SE</text><rect fill="#E2E2F0" height="25.6406" rx="2.5" ry="2.5" style="stroke:#181818;stroke-width:0.5;" width="34.0391" x="296.0801" y="103.8594"/><text fill="#000000" font-family="Helvetica" font-size="10" x="303.0801" y="120.1416">ZAS</text><rect fill="#E2E2F0" height="25.6406" rx="2.5" ry="2.5" style="stroke:#181818;stroke-width:0.5;" width="72.2471" x="458.2573" y="103.8594"/><text fill="#000000" font-family="Helvetica" font-size="10" x="465.2573" y="120.1416">ZETA Client</text><rect fill="#E2E2F0" height="37.2813" rx="2.5" ry="2.5" style="stroke:#181818;stroke-width:0.5;" width="116.9492" x="925.6934" y="92.2188"/><text fill="#000000" font-family="Helvetica" font-size="10" x="974.2876" y="108.501">PDP</text><text fill="#000000" font-family="Helvetica" font-size="10" x="932.6934" y="120.1416">Authorization Server</text><rect fill="#E2E2F0" height="25.6406" rx="2.5" ry="2.5" style="stroke:#181818;stroke-width:0.5;" width="57.1592" x="19.4204" y="1091.125"/><text fill="#000000" font-family="Helvetica" font-size="10" x="26.4204" y="1107.4072">TPM / SE</text><rect fill="#E2E2F0" height="25.6406" rx="2.5" ry="2.5" style="stroke:#181818;stroke-width:0.5;" width="34.0391" x="296.0801" y="1091.125"/><text fill="#000000" font-family="Helvetica" font-size="10" x="303.0801" y="1107.4072">ZAS</text><rect fill="#E2E2F0" height="25.6406" rx="2.5" ry="2.5" style="stroke:#181818;stroke-width:0.5;" width="72.2471" x="458.2573" y="1091.125"/><text fill="#000000" font-family="Helvetica" font-size="10" x="465.2573" y="1107.4072">ZETA Client</text><rect fill="#E2E2F0" height="37.2813" rx="2.5" ry="2.5" style="stroke:#181818;stroke-width:0.5;" width="116.9492" x="925.6934" y="1091.125"/><text fill="#000000" font-family="Helvetica" font-size="10" x="974.2876" y="1107.4072">PDP</text><text fill="#000000" font-family="Helvetica" font-size="10" x="932.6934" y="1119.0479">Authorization Server</text><path d="M8,142.5 L67.9561,142.5 L67.9561,146.1406 L57.9561,156.1406 L8,156.1406 L8,142.5" fill="#EEEEEE" style="stroke:#000000;stroke-width:1.5;"/><rect fill="none" height="898.9844" style="stroke:#000000;stroke-width:1.5;" width="1386.457" x="8" y="142.5"/><text fill="#000000" font-family="Helvetica" font-size="10" font-weight="bold" x="23" y="152.7822">alt</text><text fill="#000000" font-family="Helvetica" font-size="10" font-weight="bold" x="82.9561" y="153.7822">[Kein ZETA Guard Attestation Token]</text><line style="stroke:#000000;stroke-width:1;stroke-dasharray:2,2;" x1="8" x2="1394.457" y1="885" y2="885"/><text fill="#000000" font-family="Helvetica" font-size="10" font-weight="bold" x="13" y="896.2822">[ZETA Guard Attestation Token vorhanden (Fast-Path)]</text><path d="M27,170.1406 L86.9561,170.1406 L86.9561,173.7813 L76.9561,183.7813 L27,183.7813 L27,170.1406" fill="#EEEEEE" style="stroke:#000000;stroke-width:1.5;"/><rect fill="none" height="689.8594" style="stroke:#000000;stroke-width:1.5;" width="1342.457" x="27" y="170.1406"/><text fill="#000000" font-family="Helvetica" font-size="10" font-weight="bold" x="42" y="180.4229">alt</text><text fill="#000000" font-family="Helvetica" font-size="10" font-weight="bold" x="101.9561" y="181.4229">[Hardware Attestation: Windows / Linux (TPM)]</text><line style="stroke:#000000;stroke-width:1;stroke-dasharray:2,2;" x1="27" x2="1369.457" y1="535.1094" y2="535.1094"/><text fill="#000000" font-family="Helvetica" font-size="10" font-weight="bold" x="32" y="546.3916">[Hardware Attestation: macOS (Secure Enclave)]</text><line style="stroke:#000000;stroke-width:1;stroke-dasharray:2,2;" x1="27" x2="1369.457" y1="695.5938" y2="695.5938"/><text fill="#000000" font-family="Helvetica" font-size="10" font-weight="bold" x="32" y="706.876">[Software Attestation (Legacy OIDC DCR)]</text><polygon fill="#181818" points="967.168,230.7031,977.168,234.7031,967.168,238.7031,971.168,234.7031" style="stroke:#181818;stroke-width:1;"/><line style="stroke:#181818;stroke-width:1;" x1="499.3809" x2="973.168" y1="234.7031" y2="234.7031"/><text fill="#000000" font-family="Helvetica" font-size="10" x="506.3809" y="218.7041">(01)</text><text fill="#000000" font-family="Helvetica" font-size="10" x="530.9082" y="207.0635">POST /register</text><text fill="#000000" font-family="Helvetica" font-size="10" x="530.9082" y="218.7041">{attestation_type="tpm", PuK.EK.Enc, C.EK.Enc,</text><text fill="#000000" font-family="Helvetica" font-size="10" x="530.9082" y="230.3447">PuK.AK.Sig, PuK.Client.Sig, signed_Hash_PuK.Client.Sig}</text><line style="stroke:#181818;stroke-width:1;" x1="989.168" x2="1031.168" y1="260.3438" y2="260.3438"/><line style="stroke:#181818;stroke-width:1;" x1="1031.168" x2="1031.168" y1="260.3438" y2="273.3438"/><line style="stroke:#181818;stroke-width:1;" x1="990.168" x2="1031.168" y1="273.3438" y2="273.3438"/><polygon fill="#181818" points="1000.168,269.3438,990.168,273.3438,1000.168,277.3438,996.168,273.3438" style="stroke:#181818;stroke-width:1;"/><text fill="#000000" font-family="Helvetica" font-size="10" x="996.168" y="255.9854">(02)</text><text fill="#000000" font-family="Helvetica" font-size="10" x="1020.6953" y="255.9854">Validiere C.EK.Enc-Chain &amp; signed_Hash_PuK.Client.Sig</text><line style="stroke:#181818;stroke-width:1;" x1="989.168" x2="1031.168" y1="310.625" y2="310.625"/><line style="stroke:#181818;stroke-width:1;" x1="1031.168" x2="1031.168" y1="310.625" y2="323.625"/><line style="stroke:#181818;stroke-width:1;" x1="990.168" x2="1031.168" y1="323.625" y2="323.625"/><polygon fill="#181818" points="1000.168,319.625,990.168,323.625,1000.168,327.625,996.168,323.625" style="stroke:#181818;stroke-width:1;"/><text fill="#000000" font-family="Helvetica" font-size="10" x="996.168" y="300.4463">(03)</text><text fill="#000000" font-family="Helvetica" font-size="10" x="1020.6953" y="294.626">CredentialBlob = MakeCredential(...);</text><text fill="#000000" font-family="Helvetica" font-size="10" x="1020.6953" y="306.2666">(TPM 2.0 Commands, Section 12.5)</text><polygon fill="#181818" points="510.3809,345.2656,500.3809,349.2656,510.3809,353.2656,506.3809,349.2656" style="stroke:#181818;stroke-width:1;"/><line style="stroke:#181818;stroke-width:1;stroke-dasharray:2,2;" x1="504.3809" x2="978.168" y1="349.2656" y2="349.2656"/><text fill="#000000" font-family="Helvetica" font-size="10" x="516.3809" y="344.9072">(04)</text><text fill="#000000" font-family="Helvetica" font-size="10" x="540.9082" y="344.9072">202 Accepted {CredentialBlob}</text><polygon fill="#181818" points="329.0996,370.9063,319.0996,374.9063,329.0996,378.9063,325.0996,374.9063" style="stroke:#181818;stroke-width:1;"/><line style="stroke:#181818;stroke-width:1;" x1="323.0996" x2="488.3809" y1="374.9063" y2="374.9063"/><text fill="#000000" font-family="Helvetica" font-size="10" x="335.0996" y="370.5479">(05)</text><text fill="#000000" font-family="Helvetica" font-size="10" x="359.627" y="370.5479">Activate(CredentialBlob)</text><polygon fill="#181818" points="64,396.5469,54,400.5469,64,404.5469,60,400.5469" style="stroke:#181818;stroke-width:1;"/><line style="stroke:#181818;stroke-width:1;" x1="58" x2="307.0996" y1="400.5469" y2="400.5469"/><text fill="#000000" font-family="Helvetica" font-size="10" x="70" y="396.1885">(06)</text><text fill="#000000" font-family="Helvetica" font-size="10" x="94.5273" y="396.1885">TPM2_ActivateCredential(CredentialBlob)</text><polygon fill="#181818" points="296.0996,422.1875,306.0996,426.1875,296.0996,430.1875,300.0996,426.1875" style="stroke:#181818;stroke-width:1;"/><line style="stroke:#181818;stroke-width:1;stroke-dasharray:2,2;" x1="53" x2="302.0996" y1="426.1875" y2="426.1875"/><text fill="#000000" font-family="Helvetica" font-size="10" x="60" y="421.8291">(07)</text><text fill="#000000" font-family="Helvetica" font-size="10" x="84.5273" y="421.8291">Secret</text><polygon fill="#181818" points="477.3809,447.8281,487.3809,451.8281,477.3809,455.8281,481.3809,451.8281" style="stroke:#181818;stroke-width:1;"/><line style="stroke:#181818;stroke-width:1;stroke-dasharray:2,2;" x1="318.0996" x2="483.3809" y1="451.8281" y2="451.8281"/><text fill="#000000" font-family="Helvetica" font-size="10" x="325.0996" y="447.4697">(08)</text><text fill="#000000" font-family="Helvetica" font-size="10" x="349.627" y="447.4697">Secret</text><polygon fill="#181818" points="967.168,473.4688,977.168,477.4688,967.168,481.4688,971.168,477.4688" style="stroke:#181818;stroke-width:1;"/><line style="stroke:#181818;stroke-width:1;" x1="499.3809" x2="973.168" y1="477.4688" y2="477.4688"/><text fill="#000000" font-family="Helvetica" font-size="10" x="506.3809" y="473.1104">(09)</text><text fill="#000000" font-family="Helvetica" font-size="10" x="530.9082" y="473.1104">POST /register/verify {Secret}</text><line style="stroke:#181818;stroke-width:1;" x1="989.168" x2="1031.168" y1="503.1094" y2="503.1094"/><line style="stroke:#181818;stroke-width:1;" x1="1031.168" x2="1031.168" y1="503.1094" y2="516.1094"/><line style="stroke:#181818;stroke-width:1;" x1="990.168" x2="1031.168" y1="516.1094" y2="516.1094"/><polygon fill="#181818" points="1000.168,512.1094,990.168,516.1094,1000.168,520.1094,996.168,516.1094" style="stroke:#181818;stroke-width:1;"/><text fill="#000000" font-family="Helvetica" font-size="10" x="996.168" y="498.751">(10)</text><text fill="#000000" font-family="Helvetica" font-size="10" x="1020.6953" y="498.751">Secret korrekt? &#8594; PuK.Client.Sig hardware-gebunden &#10003;</text><polygon fill="#181818" points="967.168,590.6719,977.168,594.6719,967.168,598.6719,971.168,594.6719" style="stroke:#181818;stroke-width:1;"/><line style="stroke:#181818;stroke-width:1;" x1="499.3809" x2="973.168" y1="594.6719" y2="594.6719"/><text fill="#000000" font-family="Helvetica" font-size="10" x="506.3809" y="578.6729">(11)</text><text fill="#000000" font-family="Helvetica" font-size="10" x="530.9082" y="567.0322">POST /register</text><text fill="#000000" font-family="Helvetica" font-size="10" x="530.9082" y="578.6729">{attestation_type="macos", PuK.AK.Sig, Apple_Attestation_Object,</text><text fill="#000000" font-family="Helvetica" font-size="10" x="530.9082" y="590.3135">PuK.Client.Sig, signed_Hash_PuK.Client.Sig}</text><line style="stroke:#181818;stroke-width:1;" x1="989.168" x2="1031.168" y1="620.3125" y2="620.3125"/><line style="stroke:#181818;stroke-width:1;" x1="1031.168" x2="1031.168" y1="620.3125" y2="633.3125"/><line style="stroke:#181818;stroke-width:1;" x1="990.168" x2="1031.168" y1="633.3125" y2="633.3125"/><polygon fill="#181818" points="1000.168,629.3125,990.168,633.3125,1000.168,637.3125,996.168,633.3125" style="stroke:#181818;stroke-width:1;"/><text fill="#000000" font-family="Helvetica" font-size="10" x="996.168" y="615.9541">(12)</text><text fill="#000000" font-family="Helvetica" font-size="10" x="1020.6953" y="615.9541">Validiere Apple_Attestation_Object &amp; signed_Hash_PuK.Client.Sig</text><path d="M994.168,646.3125 L994.168,679.3125 L1268.168,679.3125 L1268.168,656.3125 L1258.168,646.3125 L994.168,646.3125" fill="#FEFFDD" style="stroke:#181818;stroke-width:0.5;"/><path d="M1258.168,646.3125 L1258.168,656.3125 L1268.168,656.3125 L1258.168,646.3125" fill="#FEFFDD" style="stroke:#181818;stroke-width:0.5;"/><text fill="#000000" font-family="Helvetica" font-size="10" x="1000.168" y="660.5947">AuthS verifiziert Apple Root CA und stellt sicher,</text><text fill="#000000" font-family="Helvetica" font-size="10" x="1000.168" y="672.2354">dass PuK.AK.Sig identisch mit x5c[0] im Objekt ist.</text><polygon fill="#181818" points="967.168,797.7188,977.168,801.7188,967.168,805.7188,971.168,801.7188" style="stroke:#181818;stroke-width:1;"/><line style="stroke:#181818;stroke-width:1;" x1="499.3809" x2="973.168" y1="801.7188" y2="801.7188"/><text fill="#000000" font-family="Helvetica" font-size="10" x="506.3809" y="762.4385">(13)</text><text fill="#000000" font-family="Helvetica" font-size="10" x="530.9082" y="727.5166">POST /register</text><text fill="#000000" font-family="Helvetica" font-size="10" x="530.9082" y="739.1572">{</text><text fill="#000000" font-family="Helvetica" font-size="10" x="537.2656" y="750.7979">"client_name": "myClient",</text><text fill="#000000" font-family="Helvetica" font-size="10" x="537.2656" y="762.4385">"grant_types": ["urn:ietf:params:oauth:grant-type:token-exchange", "refresh_token"],</text><text fill="#000000" font-family="Helvetica" font-size="10" x="537.2656" y="774.0791">"jwks": { "keys": [ PuK.Client.Sig ] },</text><text fill="#000000" font-family="Helvetica" font-size="10" x="537.2656" y="785.7197">"token_endpoint_auth_method": "private_key_jwt"</text><text fill="#000000" font-family="Helvetica" font-size="10" x="530.9082" y="797.3604">}</text><line style="stroke:#181818;stroke-width:1;" x1="989.168" x2="1031.168" y1="839" y2="839"/><line style="stroke:#181818;stroke-width:1;" x1="1031.168" x2="1031.168" y1="839" y2="852"/><line style="stroke:#181818;stroke-width:1;" x1="990.168" x2="1031.168" y1="852" y2="852"/><polygon fill="#181818" points="1000.168,848,990.168,852,1000.168,856,996.168,852" style="stroke:#181818;stroke-width:1;"/><text fill="#000000" font-family="Helvetica" font-size="10" x="996.168" y="828.8213">(14)</text><text fill="#000000" font-family="Helvetica" font-size="10" x="1020.6953" y="823.001">Store Client Placeholder</text><text fill="#000000" font-family="Helvetica" font-size="10" x="1020.6953" y="834.6416">(state: pending_attestation)</text><polygon fill="#181818" points="967.168,940.5625,977.168,944.5625,967.168,948.5625,971.168,944.5625" style="stroke:#181818;stroke-width:1;"/><line style="stroke:#181818;stroke-width:1;" x1="499.3809" x2="973.168" y1="944.5625" y2="944.5625"/><text fill="#000000" font-family="Helvetica" font-size="10" x="506.3809" y="928.5635">(15)</text><text fill="#000000" font-family="Helvetica" font-size="10" x="530.9082" y="916.9229">POST /register</text><text fill="#000000" font-family="Helvetica" font-size="10" x="530.9082" y="928.5635">{attestation_type="fast_path", ZETA Guard Attestation Token,</text><text fill="#000000" font-family="Helvetica" font-size="10" x="530.9082" y="940.2041">PuK.Client.Sig, signed_Hash_PuK.Client.Sig}</text><line style="stroke:#181818;stroke-width:1;" x1="989.168" x2="1031.168" y1="970.2031" y2="970.2031"/><line style="stroke:#181818;stroke-width:1;" x1="1031.168" x2="1031.168" y1="970.2031" y2="983.2031"/><line style="stroke:#181818;stroke-width:1;" x1="990.168" x2="1031.168" y1="983.2031" y2="983.2031"/><polygon fill="#181818" points="1000.168,979.2031,990.168,983.2031,1000.168,987.2031,996.168,983.2031" style="stroke:#181818;stroke-width:1;"/><text fill="#000000" font-family="Helvetica" font-size="10" x="996.168" y="965.8447">(16)</text><text fill="#000000" font-family="Helvetica" font-size="10" x="1020.6953" y="965.8447">Pr&#252;fe Token-Signatur &amp; Vertrauensstellung</text><line style="stroke:#181818;stroke-width:1;" x1="989.168" x2="1031.168" y1="1020.4844" y2="1020.4844"/><line style="stroke:#181818;stroke-width:1;" x1="1031.168" x2="1031.168" y1="1020.4844" y2="1033.4844"/><line style="stroke:#181818;stroke-width:1;" x1="990.168" x2="1031.168" y1="1033.4844" y2="1033.4844"/><polygon fill="#181818" points="1000.168,1029.4844,990.168,1033.4844,1000.168,1037.4844,996.168,1033.4844" style="stroke:#181818;stroke-width:1;"/><text fill="#000000" font-family="Helvetica" font-size="10" x="996.168" y="1010.3057">(17)</text><text fill="#000000" font-family="Helvetica" font-size="10" x="1020.6953" y="1004.4854">Pr&#252;fe signed_Hash_PuK.Client.Sig mit dem</text><text fill="#000000" font-family="Helvetica" font-size="10" x="1020.6953" y="1016.126">PuK.AK.Sig aus dem Token</text><polygon fill="#181818" points="510.3809,1069.125,500.3809,1073.125,510.3809,1077.125,506.3809,1073.125" style="stroke:#181818;stroke-width:1;"/><line style="stroke:#181818;stroke-width:1;stroke-dasharray:2,2;" x1="504.3809" x2="978.168" y1="1073.125" y2="1073.125"/><text fill="#000000" font-family="Helvetica" font-size="10" x="516.3809" y="1068.7666">(18)</text><text fill="#000000" font-family="Helvetica" font-size="10" x="540.9082" y="1068.7666">201 Created {client_id}</text><?plantuml-src hLPHR-9647xthvYwKWLA81pIlL1TAq9oIPJaG07TgNT4rc8FzWPxrzrTXv0eh_q1xMiV-pFwTl_aVabdlH0C3T7rL0a9yCnyC_lDjpDcXP6Yo2QemA-rMdNVqpCkSgPO1X5EMP6QjrAO8Rz7UDLwtlYEPGYdcDwYuI6h-1mvdqiffCvPYD6JTqyMYgEg-AOeOfDqevj26n1IOCMcyTS2HOXNE4LbVnooS1OhMOYe9rEfu4F2JJLWk1smFaFx6TnBr9h5s4rvBAYGgV4ymqsASDIxWZat2PpZ0WwvYBY8FU-xNB4uOs1GteDH1NhUHDw1Vt5yviFt9udKnXK4G7c84vupOS0V3IxX08R7FZ0Dz8ViPTn0yUppNqeljC6C42xOBOg8s05OUdmy7dMXQmngmmoNWWweRdc8v3na8beSAZaNfVjcoe_TeStbqxTVcWdN8cuXzrAEmZm7jWdd_1nY9QwAR7zwwpohRqTGLqmu6fBQw0pQpHOSKRYsUKV7lTDt_Ol-oIzUjQwJWgdetsLLI-eM9d5d71mDniB-bOhVhrb2vJzR44iDTPKBM6VQO7WaP-ZIMSzJCi-PmgfB1pwG8kHSKrClk2Zke4PDhJynvzZPszjw08sVNDLxUnqOz8SZE50OS-gz6ei7jiOFp2B7Dxx9CtyV1iLvyvW-8jo7tkhNMDZ7tVFcaCVEnQLm_pMf6QFWbEaasBGzFfNaw5jLr87tBEKHNKnyIjBe9OnO-k45k9reFOKH-N2M7gPo0c_Wairm_R3MR3RhFuw5fQtKGqzc6RLQxrFdmh8BhzhDr_LjV4hWadUWtMf3DmmnDnZ1msQ-H-yPvkacMDwx17_B3DOsGzQfxCqXTwhCkjDNErZ5L0wmAzeUgE6oDHeTUng5PXFxwH0LXrrAsTR90QcQJnVmuE9sjzFPOIQLmfdv6RxyzlkMJ21PAhiHuuJcAGhuykSVhX9CDUvGViR2_X1gX5-GYMIIqiogVstzp-gS8ALUAdqbwMwUfnXKCWVzoGr9Owdy_q_jkn9zdUw5D0YAnua1ELs1ksHbf_Wz9J4k2Ln9IPEq2qGs41afJHVDmmGL7IfYMbS805wgIuS9PDp0tUlmK-iQU0Qsk9a18hDPQTLGJirsgw1sWJ4B5z0_E-hPVVPVcZGM07vOkWM2rhRV0JzRBAV-VccD5KtXieEQh9_yGeaEpVXffzomkYCPONTAhuRrwXWxLnju5oPCn4ZzzXLE5HAvfSM_ThWtyva5V01_XeiIUbkur_3eNCkuW0PxBZdLOXC66T8UY6ozkIelRK0mmStS-6FnmdKnqau-nyiWfJUMHAQHfQ9cwSGEv5Y-0mGL-TPNwy_poYwyj4_WLYewjxrbjRTCcyQ0cSG1VCkLcH94a1C4qVXIsc-uBjlK3DJdlwVeu1ha9PWf5DsEzoHinUWjIfTQBaJyKlZkhAN08yogAmrOeUspvIukATvU0NPwjbklxAfXvGvOofL7Zzu_?></g></svg>