<?plantuml 1.2026.2?><svg xmlns="http://www.w3.org/2000/svg" xmlns:xlink="http://www.w3.org/1999/xlink" contentStyleType="text/css" data-diagram-type="SEQUENCE" height="1124px" preserveAspectRatio="none" style="width:1401px;height:1124px;background:#FFFFFF;" version="1.1" viewBox="0 0 1401 1124" width="1401px" zoomAndPan="magnify"><title>DCR with Key Binding</title><defs/><g><rect fill="#F8F8FF" height="1075.4688" style="stroke:#181818;stroke-width:0.5;" width="519.084" x="15.4204" y="43.2969"/><text fill="#000000" font-family="Helvetica" font-size="10" font-weight="bold" x="266.5005" y="52.5791">LEI</text><rect fill="#E6E6FA" height="1058.8281" style="stroke:#181818;stroke-width:0.5;" width="242.4243" x="292.0801" y="59.9375"/><text fill="#000000" font-family="Helvetica" font-size="10" font-weight="bold" x="374.1956" y="69.2197">Prim&#228;rsystem</text><rect fill="#EDFDEC" height="1075.4688" style="stroke:#181818;stroke-width:0.5;" width="147.7842" x="910.2759" y="43.2969"/><text fill="#000000" font-family="Helvetica" font-size="10" font-weight="bold" x="922.2759" y="52.5791">Anbieter TI 2.0 Dienst</text><rect fill="#FFF3E5" height="1058.8281" style="stroke:#181818;stroke-width:0.5;" width="147.7842" x="910.2759" y="59.9375"/><text fill="#000000" font-family="Helvetica" font-size="10" font-weight="bold" x="951.0234" y="69.2197">ZETA Guard</text><text fill="#000000" font-family="Helvetica" font-size="14" font-weight="bold" x="622.4468" y="27.9951">DCR with Key Binding</text><g><title>TPM . SE</title><rect fill="#000000" fill-opacity="0.00000" height="960.625" width="8" x="44.5" y="113.8594"/><line style="stroke:#181818;stroke-width:0.5;stroke-dasharray:5,5;" x1="48" x2="48" y1="113.8594" y2="1074.4844"/></g><g><title/><rect fill="#FFFFFF" height="25.6406" style="stroke:#181818;stroke-width:1;" width="10" x="43" y="383.9063"/></g><g><title>ZAS</title><rect fill="#000000" fill-opacity="0.00000" height="960.625" width="8" x="309.5996" y="113.8594"/><line style="stroke:#181818;stroke-width:0.5;stroke-dasharray:5,5;" x1="313.0996" x2="313.0996" y1="113.8594" y2="1074.4844"/></g><g><title/><rect fill="#FFE6CC" height="76.9219" style="stroke:#D79B00;stroke-width:1;" width="10" x="308.0996" y="358.2656"/></g><g><title>ZETA Client</title><rect fill="#000000" fill-opacity="0.00000" height="960.625" width="8" x="490.8809" y="113.8594"/><line style="stroke:#181818;stroke-width:0.5;stroke-dasharray:5,5;" x1="494.3809" x2="494.3809" y1="113.8594" y2="1074.4844"/></g><g><title/><rect fill="#FFE6CC" height="897.3438" style="stroke:#D79B00;stroke-width:1;" width="10" x="489.3809" y="177.1406"/></g><g><title>PDP</title><rect fill="#000000" fill-opacity="0.00000" height="960.625" width="8" x="980.668" y="113.8594"/><line style="stroke:#181818;stroke-width:0.5;stroke-dasharray:5,5;" x1="984.168" x2="984.168" y1="113.8594" y2="1074.4844"/></g><g><title/><rect fill="#FFE6CC" height="838.4219" style="stroke:#D79B00;stroke-width:1;" width="10" x="979.168" y="218.0625"/></g><rect fill="#E4E4F4" height="25.6406" rx="2.5" ry="2.5" style="stroke:#181818;stroke-width:0.5;" width="57.1592" x="19.4204" y="87.2188"/><text fill="#000000" font-family="Helvetica" font-size="10" x="26.4204" y="103.501">TPM / SE</text><rect fill="#FFE6CC" height="25.6406" rx="2.5" ry="2.5" style="stroke:#D79B00;stroke-width:0.5;" width="34.0391" x="296.0801" y="87.2188"/><text fill="#000000" font-family="Helvetica" font-size="10" x="303.0801" y="103.501">ZAS</text><rect fill="#FFE6CC" height="25.6406" rx="2.5" ry="2.5" style="stroke:#D79B00;stroke-width:0.5;" width="72.2471" x="458.2573" y="87.2188"/><text fill="#000000" font-family="Helvetica" font-size="10" x="465.2573" y="103.501">ZETA Client</text><rect fill="#FFE6CC" height="37.2813" rx="2.5" ry="2.5" style="stroke:#D79B00;stroke-width:0.5;" width="116.9492" x="925.6934" y="75.5781"/><text fill="#000000" font-family="Helvetica" font-size="10" x="974.2876" y="91.8604">PDP</text><text fill="#000000" font-family="Helvetica" font-size="10" x="932.6934" y="103.501">Authorization Server</text><rect fill="#E4E4F4" height="25.6406" rx="2.5" ry="2.5" style="stroke:#181818;stroke-width:0.5;" width="57.1592" x="19.4204" y="1074.4844"/><text fill="#000000" font-family="Helvetica" font-size="10" x="26.4204" y="1090.7666">TPM / SE</text><rect fill="#FFE6CC" height="25.6406" rx="2.5" ry="2.5" style="stroke:#D79B00;stroke-width:0.5;" width="34.0391" x="296.0801" y="1074.4844"/><text fill="#000000" font-family="Helvetica" font-size="10" x="303.0801" y="1090.7666">ZAS</text><rect fill="#FFE6CC" height="25.6406" rx="2.5" ry="2.5" style="stroke:#D79B00;stroke-width:0.5;" width="72.2471" x="458.2573" y="1074.4844"/><text fill="#000000" font-family="Helvetica" font-size="10" x="465.2573" y="1090.7666">ZETA Client</text><rect fill="#FFE6CC" height="37.2813" rx="2.5" ry="2.5" style="stroke:#D79B00;stroke-width:0.5;" width="116.9492" x="925.6934" y="1074.4844"/><text fill="#000000" font-family="Helvetica" font-size="10" x="974.2876" y="1090.7666">PDP</text><text fill="#000000" font-family="Helvetica" font-size="10" x="932.6934" y="1102.4072">Authorization Server</text><path d="M8,125.8594 L67.9561,125.8594 L67.9561,129.5 L57.9561,139.5 L8,139.5 L8,125.8594" fill="#EEEEEE" style="stroke:#000000;stroke-width:1.5;"/><rect fill="none" height="898.9844" style="stroke:#000000;stroke-width:1.5;" width="1386.457" x="8" y="125.8594"/><text fill="#000000" font-family="Helvetica" font-size="10" font-weight="bold" x="23" y="136.1416">alt</text><text fill="#000000" font-family="Helvetica" font-size="10" font-weight="bold" x="82.9561" y="137.1416">[Kein ZETA Guard Attestation Token]</text><line style="stroke:#000000;stroke-width:1;stroke-dasharray:2,2;" x1="8" x2="1394.457" y1="868.3594" y2="868.3594"/><text fill="#000000" font-family="Helvetica" font-size="10" font-weight="bold" x="13" y="879.6416">[ZETA Guard Attestation Token vorhanden (Fast-Path)]</text><path d="M27,153.5 L86.9561,153.5 L86.9561,157.1406 L76.9561,167.1406 L27,167.1406 L27,153.5" fill="#EEEEEE" style="stroke:#000000;stroke-width:1.5;"/><rect fill="none" height="689.8594" style="stroke:#000000;stroke-width:1.5;" width="1342.457" x="27" y="153.5"/><text fill="#000000" font-family="Helvetica" font-size="10" font-weight="bold" x="42" y="163.7822">alt</text><text fill="#000000" font-family="Helvetica" font-size="10" font-weight="bold" x="101.9561" y="164.7822">[Hardware Attestation: Windows / Linux (TPM)]</text><line style="stroke:#000000;stroke-width:1;stroke-dasharray:2,2;" x1="27" x2="1369.457" y1="518.4688" y2="518.4688"/><text fill="#000000" font-family="Helvetica" font-size="10" font-weight="bold" x="32" y="529.751">[Hardware Attestation: macOS (Secure Enclave)]</text><line style="stroke:#000000;stroke-width:1;stroke-dasharray:2,2;" x1="27" x2="1369.457" y1="678.9531" y2="678.9531"/><text fill="#000000" font-family="Helvetica" font-size="10" font-weight="bold" x="32" y="690.2354">[Software Attestation (Legacy OIDC DCR)]</text><polygon fill="#181818" points="967.168,214.0625,977.168,218.0625,967.168,222.0625,971.168,218.0625" style="stroke:#181818;stroke-width:1;"/><line style="stroke:#181818;stroke-width:1;" x1="499.3809" x2="973.168" y1="218.0625" y2="218.0625"/><text fill="#000000" font-family="Helvetica" font-size="10" x="506.3809" y="202.0635">(01)</text><text fill="#000000" font-family="Helvetica" font-size="10" x="530.9082" y="190.4229">POST /register</text><text fill="#000000" font-family="Helvetica" font-size="10" x="530.9082" y="202.0635">{attestation_type="tpm", PuK.EK.Enc, C.EK.Enc,</text><text fill="#000000" font-family="Helvetica" font-size="10" x="530.9082" y="213.7041">PuK.AK.Sig, PuK.Client.Sig, signed_Hash_PuK.Client.Sig}</text><line style="stroke:#181818;stroke-width:1;" x1="989.168" x2="1031.168" y1="243.7031" y2="243.7031"/><line style="stroke:#181818;stroke-width:1;" x1="1031.168" x2="1031.168" y1="243.7031" y2="256.7031"/><line style="stroke:#181818;stroke-width:1;" x1="990.168" x2="1031.168" y1="256.7031" y2="256.7031"/><polygon fill="#181818" points="1000.168,252.7031,990.168,256.7031,1000.168,260.7031,996.168,256.7031" style="stroke:#181818;stroke-width:1;"/><text fill="#000000" font-family="Helvetica" font-size="10" x="996.168" y="239.3447">(02)</text><text fill="#000000" font-family="Helvetica" font-size="10" x="1020.6953" y="239.3447">Validiere C.EK.Enc-Chain &amp; signed_Hash_PuK.Client.Sig</text><line style="stroke:#181818;stroke-width:1;" x1="989.168" x2="1031.168" y1="293.9844" y2="293.9844"/><line style="stroke:#181818;stroke-width:1;" x1="1031.168" x2="1031.168" y1="293.9844" y2="306.9844"/><line style="stroke:#181818;stroke-width:1;" x1="990.168" x2="1031.168" y1="306.9844" y2="306.9844"/><polygon fill="#181818" points="1000.168,302.9844,990.168,306.9844,1000.168,310.9844,996.168,306.9844" style="stroke:#181818;stroke-width:1;"/><text fill="#000000" font-family="Helvetica" font-size="10" x="996.168" y="283.8057">(03)</text><text fill="#000000" font-family="Helvetica" font-size="10" x="1020.6953" y="277.9854">CredentialBlob = MakeCredential(...);</text><text fill="#000000" font-family="Helvetica" font-size="10" x="1020.6953" y="289.626">(TPM 2.0 Commands, Section 12.5)</text><polygon fill="#181818" points="510.3809,328.625,500.3809,332.625,510.3809,336.625,506.3809,332.625" style="stroke:#181818;stroke-width:1;"/><line style="stroke:#181818;stroke-width:1;stroke-dasharray:2,2;" x1="504.3809" x2="978.168" y1="332.625" y2="332.625"/><text fill="#000000" font-family="Helvetica" font-size="10" x="516.3809" y="328.2666">(04)</text><text fill="#000000" font-family="Helvetica" font-size="10" x="540.9082" y="328.2666">202 Accepted {CredentialBlob}</text><polygon fill="#181818" points="329.0996,354.2656,319.0996,358.2656,329.0996,362.2656,325.0996,358.2656" style="stroke:#181818;stroke-width:1;"/><line style="stroke:#181818;stroke-width:1;" x1="323.0996" x2="488.3809" y1="358.2656" y2="358.2656"/><text fill="#000000" font-family="Helvetica" font-size="10" x="335.0996" y="353.9072">(05)</text><text fill="#000000" font-family="Helvetica" font-size="10" x="359.627" y="353.9072">Activate(CredentialBlob)</text><polygon fill="#181818" points="64,379.9063,54,383.9063,64,387.9063,60,383.9063" style="stroke:#181818;stroke-width:1;"/><line style="stroke:#181818;stroke-width:1;" x1="58" x2="307.0996" y1="383.9063" y2="383.9063"/><text fill="#000000" font-family="Helvetica" font-size="10" x="70" y="379.5479">(06)</text><text fill="#000000" font-family="Helvetica" font-size="10" x="94.5273" y="379.5479">TPM2_ActivateCredential(CredentialBlob)</text><polygon fill="#181818" points="296.0996,405.5469,306.0996,409.5469,296.0996,413.5469,300.0996,409.5469" style="stroke:#181818;stroke-width:1;"/><line style="stroke:#181818;stroke-width:1;stroke-dasharray:2,2;" x1="53" x2="302.0996" y1="409.5469" y2="409.5469"/><text fill="#000000" font-family="Helvetica" font-size="10" x="60" y="405.1885">(07)</text><text fill="#000000" font-family="Helvetica" font-size="10" x="84.5273" y="405.1885">Secret</text><polygon fill="#181818" points="477.3809,431.1875,487.3809,435.1875,477.3809,439.1875,481.3809,435.1875" style="stroke:#181818;stroke-width:1;"/><line style="stroke:#181818;stroke-width:1;stroke-dasharray:2,2;" x1="318.0996" x2="483.3809" y1="435.1875" y2="435.1875"/><text fill="#000000" font-family="Helvetica" font-size="10" x="325.0996" y="430.8291">(08)</text><text fill="#000000" font-family="Helvetica" font-size="10" x="349.627" y="430.8291">Secret</text><polygon fill="#181818" points="967.168,456.8281,977.168,460.8281,967.168,464.8281,971.168,460.8281" style="stroke:#181818;stroke-width:1;"/><line style="stroke:#181818;stroke-width:1;" x1="499.3809" x2="973.168" y1="460.8281" y2="460.8281"/><text fill="#000000" font-family="Helvetica" font-size="10" x="506.3809" y="456.4697">(09)</text><text fill="#000000" font-family="Helvetica" font-size="10" x="530.9082" y="456.4697">POST /register/verify {Secret}</text><line style="stroke:#181818;stroke-width:1;" x1="989.168" x2="1031.168" y1="486.4688" y2="486.4688"/><line style="stroke:#181818;stroke-width:1;" x1="1031.168" x2="1031.168" y1="486.4688" y2="499.4688"/><line style="stroke:#181818;stroke-width:1;" x1="990.168" x2="1031.168" y1="499.4688" y2="499.4688"/><polygon fill="#181818" points="1000.168,495.4688,990.168,499.4688,1000.168,503.4688,996.168,499.4688" style="stroke:#181818;stroke-width:1;"/><text fill="#000000" font-family="Helvetica" font-size="10" x="996.168" y="482.1104">(10)</text><text fill="#000000" font-family="Helvetica" font-size="10" x="1020.6953" y="482.1104">Secret korrekt? &#8594; PuK.Client.Sig hardware-gebunden &#10003;</text><polygon fill="#181818" points="967.168,574.0313,977.168,578.0313,967.168,582.0313,971.168,578.0313" style="stroke:#181818;stroke-width:1;"/><line style="stroke:#181818;stroke-width:1;" x1="499.3809" x2="973.168" y1="578.0313" y2="578.0313"/><text fill="#000000" font-family="Helvetica" font-size="10" x="506.3809" y="562.0322">(11)</text><text fill="#000000" font-family="Helvetica" font-size="10" x="530.9082" y="550.3916">POST /register</text><text fill="#000000" font-family="Helvetica" font-size="10" x="530.9082" y="562.0322">{attestation_type="macos", PuK.AK.Sig, Apple_Attestation_Object,</text><text fill="#000000" font-family="Helvetica" font-size="10" x="530.9082" y="573.6729">PuK.Client.Sig, signed_Hash_PuK.Client.Sig}</text><line style="stroke:#181818;stroke-width:1;" x1="989.168" x2="1031.168" y1="603.6719" y2="603.6719"/><line style="stroke:#181818;stroke-width:1;" x1="1031.168" x2="1031.168" y1="603.6719" y2="616.6719"/><line style="stroke:#181818;stroke-width:1;" x1="990.168" x2="1031.168" y1="616.6719" y2="616.6719"/><polygon fill="#181818" points="1000.168,612.6719,990.168,616.6719,1000.168,620.6719,996.168,616.6719" style="stroke:#181818;stroke-width:1;"/><text fill="#000000" font-family="Helvetica" font-size="10" x="996.168" y="599.3135">(12)</text><text fill="#000000" font-family="Helvetica" font-size="10" x="1020.6953" y="599.3135">Validiere Apple_Attestation_Object &amp; signed_Hash_PuK.Client.Sig</text><path d="M994.168,629.6719 L994.168,662.6719 L1268.168,662.6719 L1268.168,639.6719 L1258.168,629.6719 L994.168,629.6719" fill="#FEFFDD" style="stroke:#181818;stroke-width:0.5;"/><path d="M1258.168,629.6719 L1258.168,639.6719 L1268.168,639.6719 L1258.168,629.6719" fill="#FEFFDD" style="stroke:#181818;stroke-width:0.5;"/><text fill="#000000" font-family="Helvetica" font-size="10" x="1000.168" y="643.9541">AuthS verifiziert Apple Root CA und stellt sicher,</text><text fill="#000000" font-family="Helvetica" font-size="10" x="1000.168" y="655.5947">dass PuK.AK.Sig identisch mit x5c[0] im Objekt ist.</text><polygon fill="#181818" points="967.168,781.0781,977.168,785.0781,967.168,789.0781,971.168,785.0781" style="stroke:#181818;stroke-width:1;"/><line style="stroke:#181818;stroke-width:1;" x1="499.3809" x2="973.168" y1="785.0781" y2="785.0781"/><text fill="#000000" font-family="Helvetica" font-size="10" x="506.3809" y="745.7979">(13)</text><text fill="#000000" font-family="Helvetica" font-size="10" x="530.9082" y="710.876">POST /register</text><text fill="#000000" font-family="Helvetica" font-size="10" x="530.9082" y="722.5166">{</text><text fill="#000000" font-family="Helvetica" font-size="10" x="537.2656" y="734.1572">"client_name": "myClient",</text><text fill="#000000" font-family="Helvetica" font-size="10" x="537.2656" y="745.7979">"grant_types": ["urn:ietf:params:oauth:grant-type:token-exchange", "refresh_token"],</text><text fill="#000000" font-family="Helvetica" font-size="10" x="537.2656" y="757.4385">"jwks": { "keys": [ PuK.Client.Sig ] },</text><text fill="#000000" font-family="Helvetica" font-size="10" x="537.2656" y="769.0791">"token_endpoint_auth_method": "private_key_jwt"</text><text fill="#000000" font-family="Helvetica" font-size="10" x="530.9082" y="780.7197">}</text><line style="stroke:#181818;stroke-width:1;" x1="989.168" x2="1031.168" y1="822.3594" y2="822.3594"/><line style="stroke:#181818;stroke-width:1;" x1="1031.168" x2="1031.168" y1="822.3594" y2="835.3594"/><line style="stroke:#181818;stroke-width:1;" x1="990.168" x2="1031.168" y1="835.3594" y2="835.3594"/><polygon fill="#181818" points="1000.168,831.3594,990.168,835.3594,1000.168,839.3594,996.168,835.3594" style="stroke:#181818;stroke-width:1;"/><text fill="#000000" font-family="Helvetica" font-size="10" x="996.168" y="812.1807">(14)</text><text fill="#000000" font-family="Helvetica" font-size="10" x="1020.6953" y="806.3604">Store Client Placeholder</text><text fill="#000000" font-family="Helvetica" font-size="10" x="1020.6953" y="818.001">(state: pending_attestation)</text><polygon fill="#181818" points="967.168,923.9219,977.168,927.9219,967.168,931.9219,971.168,927.9219" style="stroke:#181818;stroke-width:1;"/><line style="stroke:#181818;stroke-width:1;" x1="499.3809" x2="973.168" y1="927.9219" y2="927.9219"/><text fill="#000000" font-family="Helvetica" font-size="10" x="506.3809" y="911.9229">(15)</text><text fill="#000000" font-family="Helvetica" font-size="10" x="530.9082" y="900.2822">POST /register</text><text fill="#000000" font-family="Helvetica" font-size="10" x="530.9082" y="911.9229">{attestation_type="fast_path", ZETA Guard Attestation Token,</text><text fill="#000000" font-family="Helvetica" font-size="10" x="530.9082" y="923.5635">PuK.Client.Sig, signed_Hash_PuK.Client.Sig}</text><line style="stroke:#181818;stroke-width:1;" x1="989.168" x2="1031.168" y1="953.5625" y2="953.5625"/><line style="stroke:#181818;stroke-width:1;" x1="1031.168" x2="1031.168" y1="953.5625" y2="966.5625"/><line style="stroke:#181818;stroke-width:1;" x1="990.168" x2="1031.168" y1="966.5625" y2="966.5625"/><polygon fill="#181818" points="1000.168,962.5625,990.168,966.5625,1000.168,970.5625,996.168,966.5625" style="stroke:#181818;stroke-width:1;"/><text fill="#000000" font-family="Helvetica" font-size="10" x="996.168" y="949.2041">(16)</text><text fill="#000000" font-family="Helvetica" font-size="10" x="1020.6953" y="949.2041">Pr&#252;fe Token-Signatur &amp; Vertrauensstellung</text><line style="stroke:#181818;stroke-width:1;" x1="989.168" x2="1031.168" y1="1003.8438" y2="1003.8438"/><line style="stroke:#181818;stroke-width:1;" x1="1031.168" x2="1031.168" y1="1003.8438" y2="1016.8438"/><line style="stroke:#181818;stroke-width:1;" x1="990.168" x2="1031.168" y1="1016.8438" y2="1016.8438"/><polygon fill="#181818" points="1000.168,1012.8438,990.168,1016.8438,1000.168,1020.8438,996.168,1016.8438" style="stroke:#181818;stroke-width:1;"/><text fill="#000000" font-family="Helvetica" font-size="10" x="996.168" y="993.665">(17)</text><text fill="#000000" font-family="Helvetica" font-size="10" x="1020.6953" y="987.8447">Pr&#252;fe signed_Hash_PuK.Client.Sig mit dem</text><text fill="#000000" font-family="Helvetica" font-size="10" x="1020.6953" y="999.4854">PuK.AK.Sig aus dem Token</text><polygon fill="#181818" points="510.3809,1052.4844,500.3809,1056.4844,510.3809,1060.4844,506.3809,1056.4844" style="stroke:#181818;stroke-width:1;"/><line style="stroke:#181818;stroke-width:1;stroke-dasharray:2,2;" x1="504.3809" x2="978.168" y1="1056.4844" y2="1056.4844"/><text fill="#000000" font-family="Helvetica" font-size="10" x="516.3809" y="1052.126">(18)</text><text fill="#000000" font-family="Helvetica" font-size="10" x="540.9082" y="1052.126">201 Created {client_id}</text><?plantuml-src hLRDRjj64BxpAQOiqCgm9IkAdQQguqBMJsB4YWH9JT340R4cH-HQv2wxkxGj6xxs0TfhZtsCtl8cUPBEaf8iovQG1ZKCKDoP-MRscszto38ZHPQSeGAtLArkkOwUS94onH88SCoos7IaC4D-ZV2a-hZn3KiGNc5yWORxRCcdLVXqfP0wPJu62--cp1H7jUGRemXDr0ZECsr0I85BDes_PIXy7E0ObVrnnFn9g6GcWgQCfO9t4JVB0SFLWBizr1x1xQBMBCH6p4D1XOoD4_40GHiAbcQQekDy3qVo2doRJJlVqEQvG7ZV7ZMybxyq1YslsJlf3U3RJgVpjBs_S3Xf7yyjBoEfJL7dVMktttlJVZEQ-xNtsdkTlOLFVt3SRRG7mr-7etPtxdF2Bb04HD-TL-_jSQizM82qEgrsqrRTPugQmbCcpBpw0sscCHuwyzstE0ij6pSEGEKQ3Sj_0QoIJ9jhFsisSzi9PPsjjdxuyQXQfTLRvzOvs9s1RywIAdb13AjrcLhxxUUjlTLCpsj7JvyzUv39S1CZj9e3kEGcWjSuXICk0Yv2n_acLInC61YKrs1KHfqyepwwHBrxhoS0wH9JxgZVXLqOjbrW6kpB8xsYc1ohhtZowM-bfwINn7siO_b6bl7VDuOMsAMd2mS7blJ3mmTUpPWZFN97Kjhi_Lu0oS0MuSoVnUuQuemZYHT6nr2hLA55STguApAPrvzZlyoO2jm7YdvGKoCpKL5xlzK_5VPLAdxD39U2ZfswGBMvG1ORQX4NS9SM6iQWDWN6I4vGv6cjvoioNpA5oovrU4VjbPUQEaJgoAwWH1tQocFiNq7JzlRA0fGFY-gtj-lGxmr7iAimvFQGdueRTeVlsHF_mZLfukv0FtjTQTE_y7UWEVzrAknoutLboCF2fKXHl6kwHJ3mNZ4TUVTjjukI2Xhd5TNXBOjvG1SYBfAKcn4ZbhxR0BSMhQam81_EugDOdi4BwB89tYsMAfNAra-dmjAMwwCfauI9GEzG1_sy2qzgbVsjLNnAK2IlGwrQWuRlOsemW9lx-MwTHvWdfLlU6mH_mGoMxeVSfR8dWzofCkjEZvetZrdQmBfekw5oaQrShjlTA3JtiHURM79OfvHLdUoIklbu2ZT5tFfs5dQOIALmOdw6px__iI8JY6RABeTuHXSV2lZyrvz59HXhNAFyXFcz8PG8FoCJoIIcKR3rfVK_gdE2b7gczBca6saQexUKsUkTdPCqPih__zI-Bj6NwLv8Ww1u61cGupbuaIpl5B-c9AP80WCfwKfj095j9tjCjulcVeIADXKmhPS809whI_iH9Dp0rRx_eVeHU0Ask8a18hEorAgX79lLLa7f14FcJw5tt6hQuVHVcdGg05m_T_C4VIwvTN2JwUpwtycjD4l9Q3keoVh1pPIeqvq_hkTVDhek6M7NSw-ozQeRUw-MySgFc0YH-kqg72iaSdEB-x70FR-SMC0RS2SupQ5NXViHRWlNFCwZYpsLd6gn2Rq4QHu4jjvKvOVM8nZl_DAufsB3SJ7Itdm5B_sOlXGZ6GUMYfAb4-kGOZxGlINv5eJIkkFaNTWqJ-12AjgtFMMb3jEct6ScAW2-viYC2S9B2O9et9JsAuxBAZLzzUcVCHPmPV8Ip6IAJiTR4hPYz6MbSord8jmKlZvhBl00a-MH1YpJTcqsYtEALqU0lJrhrITsrB1y1ipaoeDRvry0?></g></svg>