<?plantuml 1.2026.2?><svg xmlns="http://www.w3.org/2000/svg" xmlns:xlink="http://www.w3.org/1999/xlink" contentStyleType="text/css" data-diagram-type="SEQUENCE" height="792px" preserveAspectRatio="none" style="width:732px;height:792px;background:#FFFFFF;" version="1.1" viewBox="0 0 732 792" width="732px" zoomAndPan="magnify"><title>Key Preparation</title><defs/><g><rect fill="#F8F8FF" height="743.2188" style="stroke:#181818;stroke-width:0.5;" width="607.7573" x="15.4204" y="43.2969"/><text fill="#000000" font-family="Helvetica" font-size="10" font-weight="bold" x="310.8372" y="52.5791">LEI</text><rect fill="#E6E6FA" height="726.5781" style="stroke:#181818;stroke-width:0.5;" width="382.2637" x="240.9141" y="59.9375"/><text fill="#000000" font-family="Helvetica" font-size="10" font-weight="bold" x="392.9492" y="69.2197">Prim&#228;rsystem</text><rect fill="#F4A460" height="709.9375" style="stroke:#181818;stroke-width:0.5;" width="164.9375" x="240.9141" y="76.5781"/><text fill="#000000" font-family="Helvetica" font-size="10" font-weight="bold" x="252.9141" y="85.8604">ZETA Attestation Service</text><rect fill="#F4A460" height="709.9375" style="stroke:#181818;stroke-width:0.5;" width="89" x="534.1777" y="76.5781"/><text fill="#000000" font-family="Helvetica" font-size="10" font-weight="bold" x="546.1777" y="85.8604">ZETA Client</text><text fill="#000000" font-family="Helvetica" font-size="14" font-weight="bold" x="309.8608" y="27.9951">Key Preparation</text><g><title>TPM . SE</title><rect fill="#000000" fill-opacity="0.00000" height="611.7344" width="8" x="44.5" y="130.5"/><line style="stroke:#181818;stroke-width:0.5;stroke-dasharray:5,5;" x1="48" x2="48" y1="130.5" y2="742.2344"/></g><g><title/><rect fill="#FFFFFF" height="179.4844" style="stroke:#181818;stroke-width:1;" width="10" x="43" y="237.0625"/></g><g><title/><rect fill="#FFFFFF" height="25.6406" style="stroke:#181818;stroke-width:1;" width="10" x="43" y="497.4688"/></g><g><title>ZAS</title><rect fill="#000000" fill-opacity="0.00000" height="611.7344" width="8" x="319.8828" y="130.5"/><line style="stroke:#181818;stroke-width:0.5;stroke-dasharray:5,5;" x1="323.3828" x2="323.3828" y1="130.5" y2="742.2344"/></g><g><title/><rect fill="#FFFFFF" height="576.0938" style="stroke:#181818;stroke-width:1;" width="10" x="318.3828" y="166.1406"/></g><g><title>ZETA Client</title><rect fill="#000000" fill-opacity="0.00000" height="611.7344" width="8" x="575.1777" y="130.5"/><line style="stroke:#181818;stroke-width:0.5;stroke-dasharray:5,5;" x1="578.6777" x2="578.6777" y1="130.5" y2="742.2344"/></g><g><title/><rect fill="#FFFFFF" height="576.0938" style="stroke:#181818;stroke-width:1;" width="10" x="573.6777" y="166.1406"/></g><g><title>Apple</title><rect fill="#000000" fill-opacity="0.00000" height="611.7344" width="8" x="676.2813" y="130.5"/><line style="stroke:#181818;stroke-width:0.5;stroke-dasharray:5,5;" x1="679.7813" x2="679.7813" y1="130.5" y2="742.2344"/></g><g><title/><rect fill="#FFFFFF" height="37.2813" style="stroke:#181818;stroke-width:1;" width="10" x="674.7813" y="548.75"/></g><rect fill="#E2E2F0" height="25.6406" rx="2.5" ry="2.5" style="stroke:#181818;stroke-width:0.5;" width="57.1592" x="19.4204" y="103.8594"/><text fill="#000000" font-family="Helvetica" font-size="10" x="26.4204" y="120.1416">TPM / SE</text><rect fill="#E2E2F0" height="25.6406" rx="2.5" ry="2.5" style="stroke:#181818;stroke-width:0.5;" width="34.0391" x="306.3633" y="103.8594"/><text fill="#000000" font-family="Helvetica" font-size="10" x="313.3633" y="120.1416">ZAS</text><rect fill="#E2E2F0" height="25.6406" rx="2.5" ry="2.5" style="stroke:#181818;stroke-width:0.5;" width="72.2471" x="542.5542" y="103.8594"/><text fill="#000000" font-family="Helvetica" font-size="10" x="549.5542" y="120.1416">ZETA Client</text><rect fill="#E2E2F0" height="37.2813" rx="2.5" ry="2.5" style="stroke:#181818;stroke-width:0.5;" width="56.168" x="651.6973" y="92.2188"/><text fill="#000000" font-family="Helvetica" font-size="10" x="665.5479" y="108.501">Apple</text><text fill="#000000" font-family="Helvetica" font-size="10" x="658.6973" y="120.1416">Services</text><rect fill="#E2E2F0" height="25.6406" rx="2.5" ry="2.5" style="stroke:#181818;stroke-width:0.5;" width="57.1592" x="19.4204" y="742.2344"/><text fill="#000000" font-family="Helvetica" font-size="10" x="26.4204" y="758.5166">TPM / SE</text><rect fill="#E2E2F0" height="25.6406" rx="2.5" ry="2.5" style="stroke:#181818;stroke-width:0.5;" width="34.0391" x="306.3633" y="742.2344"/><text fill="#000000" font-family="Helvetica" font-size="10" x="313.3633" y="758.5166">ZAS</text><rect fill="#E2E2F0" height="25.6406" rx="2.5" ry="2.5" style="stroke:#181818;stroke-width:0.5;" width="72.2471" x="542.5542" y="742.2344"/><text fill="#000000" font-family="Helvetica" font-size="10" x="549.5542" y="758.5166">ZETA Client</text><rect fill="#E2E2F0" height="37.2813" rx="2.5" ry="2.5" style="stroke:#181818;stroke-width:0.5;" width="56.168" x="651.6973" y="742.2344"/><text fill="#000000" font-family="Helvetica" font-size="10" x="665.5479" y="758.5166">Apple</text><text fill="#000000" font-family="Helvetica" font-size="10" x="658.6973" y="770.1572">Services</text><path d="M8,142.5 L67.9561,142.5 L67.9561,146.1406 L57.9561,156.1406 L8,156.1406 L8,142.5" fill="#EEEEEE" style="stroke:#000000;stroke-width:1.5;"/><rect fill="none" height="575.7344" style="stroke:#000000;stroke-width:1.5;" width="717.7813" x="8" y="142.5"/><text fill="#000000" font-family="Helvetica" font-size="10" font-weight="bold" x="23" y="152.7822">alt</text><text fill="#000000" font-family="Helvetica" font-size="10" font-weight="bold" x="82.9561" y="153.7822">[Hardware Attestation (TPM / SE)]</text><line style="stroke:#000000;stroke-width:1;stroke-dasharray:2,2;" x1="8" x2="725.7813" y1="656.3125" y2="656.3125"/><text fill="#000000" font-family="Helvetica" font-size="10" font-weight="bold" x="13" y="667.5947">[Software Attestation (Fallback)]</text><polygon fill="#181818" points="339.3828,179.7813,329.3828,183.7813,339.3828,187.7813,335.3828,183.7813" style="stroke:#181818;stroke-width:1;"/><line style="stroke:#181818;stroke-width:1;" x1="333.3828" x2="572.6777" y1="183.7813" y2="183.7813"/><text fill="#000000" font-family="Helvetica" font-size="10" x="345.3828" y="179.4229">(01)</text><text fill="#000000" font-family="Helvetica" font-size="10" x="369.9102" y="179.4229">dataToSign = Hash_PuK.Client.Sig</text><path d="M27,195.7813 L86.9561,195.7813 L86.9561,199.4219 L76.9561,209.4219 L27,209.4219 L27,195.7813" fill="#EEEEEE" style="stroke:#000000;stroke-width:1.5;"/><rect fill="none" height="435.5313" style="stroke:#000000;stroke-width:1.5;" width="673.7813" x="27" y="195.7813"/><text fill="#000000" font-family="Helvetica" font-size="10" font-weight="bold" x="42" y="206.0635">alt</text><text fill="#000000" font-family="Helvetica" font-size="10" font-weight="bold" x="101.9561" y="207.0635">[Windows / Linux (TPM)]</text><line style="stroke:#000000;stroke-width:1;stroke-dasharray:2,2;" x1="27" x2="700.7813" y1="461.1875" y2="461.1875"/><text fill="#000000" font-family="Helvetica" font-size="10" font-weight="bold" x="32" y="472.4697">[macOS (Secure Enclave)]</text><polygon fill="#181818" points="64,233.0625,54,237.0625,64,241.0625,60,237.0625" style="stroke:#181818;stroke-width:1;"/><line style="stroke:#181818;stroke-width:1;" x1="58" x2="317.3828" y1="237.0625" y2="237.0625"/><text fill="#000000" font-family="Helvetica" font-size="10" x="70" y="232.7041">(02)</text><text fill="#000000" font-family="Helvetica" font-size="10" x="94.5273" y="232.7041">TPM2_Sign(Handle_PrK.AK.Sig, dataToSign)</text><polygon fill="#181818" points="306.3828,258.7031,316.3828,262.7031,306.3828,266.7031,310.3828,262.7031" style="stroke:#181818;stroke-width:1;"/><line style="stroke:#181818;stroke-width:1;stroke-dasharray:2,2;" x1="53" x2="312.3828" y1="262.7031" y2="262.7031"/><text fill="#000000" font-family="Helvetica" font-size="10" x="60" y="258.3447">(03)</text><text fill="#000000" font-family="Helvetica" font-size="10" x="84.5273" y="258.3447">signed_Hash_PuK.Client.Sig</text><polygon fill="#181818" points="561.6777,284.3438,571.6777,288.3438,561.6777,292.3438,565.6777,288.3438" style="stroke:#181818;stroke-width:1;"/><line style="stroke:#181818;stroke-width:1;stroke-dasharray:2,2;" x1="328.3828" x2="567.6777" y1="288.3438" y2="288.3438"/><text fill="#000000" font-family="Helvetica" font-size="10" x="335.3828" y="283.9854">(04)</text><text fill="#000000" font-family="Helvetica" font-size="10" x="359.9102" y="283.9854">PuK.AK.Sig, signed_Hash_PuK.Client.Sig</text><polygon fill="#181818" points="339.3828,309.9844,329.3828,313.9844,339.3828,317.9844,335.3828,313.9844" style="stroke:#181818;stroke-width:1;"/><line style="stroke:#181818;stroke-width:1;" x1="333.3828" x2="572.6777" y1="313.9844" y2="313.9844"/><text fill="#000000" font-family="Helvetica" font-size="10" x="345.3828" y="309.626">(05)</text><text fill="#000000" font-family="Helvetica" font-size="10" x="369.9102" y="309.626">Request PuK.EK.Enc, C.EK.Enc</text><polygon fill="#181818" points="64,335.625,54,339.625,64,343.625,60,339.625" style="stroke:#181818;stroke-width:1;"/><line style="stroke:#181818;stroke-width:1;" x1="58" x2="317.3828" y1="339.625" y2="339.625"/><text fill="#000000" font-family="Helvetica" font-size="10" x="70" y="335.2666">(06)</text><text fill="#000000" font-family="Helvetica" font-size="10" x="94.5273" y="335.2666">TPM2_ReadPublic(EndorsementKey)</text><polygon fill="#181818" points="306.3828,361.2656,316.3828,365.2656,306.3828,369.2656,310.3828,365.2656" style="stroke:#181818;stroke-width:1;"/><line style="stroke:#181818;stroke-width:1;stroke-dasharray:2,2;" x1="53" x2="312.3828" y1="365.2656" y2="365.2656"/><text fill="#000000" font-family="Helvetica" font-size="10" x="60" y="360.9072">(07)</text><text fill="#000000" font-family="Helvetica" font-size="10" x="84.5273" y="360.9072">PuK.EK.Enc</text><polygon fill="#181818" points="64,386.9063,54,390.9063,64,394.9063,60,390.9063" style="stroke:#181818;stroke-width:1;"/><line style="stroke:#181818;stroke-width:1;" x1="58" x2="317.3828" y1="390.9063" y2="390.9063"/><text fill="#000000" font-family="Helvetica" font-size="10" x="70" y="386.5479">(08)</text><text fill="#000000" font-family="Helvetica" font-size="10" x="94.5273" y="386.5479">TPM2_NV_Read(EndorsementKey)</text><polygon fill="#181818" points="306.3828,412.5469,316.3828,416.5469,306.3828,420.5469,310.3828,416.5469" style="stroke:#181818;stroke-width:1;"/><line style="stroke:#181818;stroke-width:1;stroke-dasharray:2,2;" x1="53" x2="312.3828" y1="416.5469" y2="416.5469"/><text fill="#000000" font-family="Helvetica" font-size="10" x="60" y="412.1885">(09)</text><text fill="#000000" font-family="Helvetica" font-size="10" x="84.5273" y="412.1885">C.EK.Enc</text><polygon fill="#181818" points="561.6777,438.1875,571.6777,442.1875,561.6777,446.1875,565.6777,442.1875" style="stroke:#181818;stroke-width:1;"/><line style="stroke:#181818;stroke-width:1;stroke-dasharray:2,2;" x1="328.3828" x2="567.6777" y1="442.1875" y2="442.1875"/><text fill="#000000" font-family="Helvetica" font-size="10" x="335.3828" y="437.8291">(10)</text><text fill="#000000" font-family="Helvetica" font-size="10" x="359.9102" y="437.8291">PuK.EK.Enc, C.EK.Enc</text><polygon fill="#181818" points="64,493.4688,54,497.4688,64,501.4688,60,497.4688" style="stroke:#181818;stroke-width:1;"/><line style="stroke:#181818;stroke-width:1;" x1="58" x2="317.3828" y1="497.4688" y2="497.4688"/><text fill="#000000" font-family="Helvetica" font-size="10" x="70" y="493.1104">(11)</text><text fill="#000000" font-family="Helvetica" font-size="10" x="94.5273" y="493.1104">SE_Sign(Handle_PrK.AK.Sig, dataToSign)</text><polygon fill="#181818" points="306.3828,519.1094,316.3828,523.1094,306.3828,527.1094,310.3828,523.1094" style="stroke:#181818;stroke-width:1;"/><line style="stroke:#181818;stroke-width:1;stroke-dasharray:2,2;" x1="53" x2="312.3828" y1="523.1094" y2="523.1094"/><text fill="#000000" font-family="Helvetica" font-size="10" x="60" y="518.751">(12)</text><text fill="#000000" font-family="Helvetica" font-size="10" x="84.5273" y="518.751">signed_Hash_PuK.Client.Sig</text><polygon fill="#181818" points="662.7813,544.75,672.7813,548.75,662.7813,552.75,666.7813,548.75" style="stroke:#181818;stroke-width:1;"/><line style="stroke:#181818;stroke-width:1;" x1="328.3828" x2="668.7813" y1="548.75" y2="548.75"/><text fill="#000000" font-family="Helvetica" font-size="10" x="335.3828" y="544.3916">(13)</text><text fill="#000000" font-family="Helvetica" font-size="10" x="359.9102" y="544.3916">DCAppAttest.attest(Handle_PrK.AK.Sig, Hash_PuK.Client.Sig)</text><polygon fill="#181818" points="339.3828,582.0313,329.3828,586.0313,339.3828,590.0313,335.3828,586.0313" style="stroke:#181818;stroke-width:1;"/><line style="stroke:#181818;stroke-width:1;stroke-dasharray:2,2;" x1="333.3828" x2="673.7813" y1="586.0313" y2="586.0313"/><text fill="#000000" font-family="Helvetica" font-size="10" x="345.3828" y="575.8525">(14)</text><text fill="#000000" font-family="Helvetica" font-size="10" x="369.9102" y="570.0322">Apple_Attestation_Object</text><text fill="#000000" font-family="Helvetica" font-size="10" x="369.9102" y="581.6729">(inkl. x5c-Zertifikatskette)</text><polygon fill="#181818" points="561.6777,619.3125,571.6777,623.3125,561.6777,627.3125,565.6777,623.3125" style="stroke:#181818;stroke-width:1;"/><line style="stroke:#181818;stroke-width:1;stroke-dasharray:2,2;" x1="328.3828" x2="567.6777" y1="623.3125" y2="623.3125"/><text fill="#000000" font-family="Helvetica" font-size="10" x="335.3828" y="613.1338">(15)</text><text fill="#000000" font-family="Helvetica" font-size="10" x="359.9102" y="607.3135">PuK.AK.Sig, signed_Hash_PuK.Client.Sig,</text><text fill="#000000" font-family="Helvetica" font-size="10" x="359.9102" y="618.9541">Apple_Attestation_Object</text><path d="M278.2783,679.9531 L278.2783,712.9531 L573.2783,712.9531 L573.2783,689.9531 L563.2783,679.9531 L278.2783,679.9531" fill="#FEFFDD" style="stroke:#181818;stroke-width:0.5;"/><path d="M563.2783,679.9531 L563.2783,689.9531 L573.2783,689.9531 L563.2783,679.9531" fill="#FEFFDD" style="stroke:#181818;stroke-width:0.5;"/><text fill="#000000" font-family="Helvetica" font-size="10" x="284.2783" y="694.2354">Keine Hardware-Bindung.</text><text fill="#000000" font-family="Helvetica" font-size="10" x="284.2783" y="705.876">Identit&#228;t besteht nur aus PrK.Client.Sig, PuK.Client.Sig.</text><?plantuml-src fLNRRXen47tVhvXkNq04cbRg2r8Z4KAQY5nGDcga20cPtG4Sl3Rr9RVloP_anphsSbde8aMjX6IlvymvPyONcBDAkdoC6kBQuM4zZioSomNJB8SC9ym9UwgaJVWhmjV3wk0Lon7EK3oYvIahOKuApAMIoYnOYjaQtLLESzGbh40vjRDEzk2C1Qaabc86VpkKATxW1BMV7BDqFjNAoQohXD9mD-Esd93i9cng-5R1Uud6i2bs19zACZAnKMIv5GXzV861He-sNCae-hJGR9epiAXUmMg7KJHMpn1VzCvZ-Fnpfemjl01G4hM3BvYq4DyEBk4B9BqOc07we7Z86sYUlxzfys8iviHmmHvHPjGOW2NYldVRWOwrQ6pmGBNfHvuYWHCcivTZhPvaW6zBtdSIhnNJ68SmyNh67UQku2Xj5TasNO4h64jvPMO_ZJOwgp7QQaHdiH0ubCiYJEX7M8iY9YoSCPqzCOrR5TTMtQi7kKAwqGWVLDvojdJOFF9hRSYOPRSgyJlwWsZDR3Hm_LO1Qj5ooF6ITrncwicGm0MNxZcerTSzy6qaIbfhDDf--3RodBKpQfV0qK3tMvs-vpieAMxIlVFcofAX46QZVMRMSeGlGctmi1N_1z9tUd3ZppTT9u_kqK-c1z1TpYegNDPtWomRkB7WQQr7hT46SoAbgx2dh0txViwhNu7s8uJDPdkFoPs-L5Q4mY3aBBrEe9PWwkWeKKZGjTgtfqdlNtVKE_tedXuLfzmBddHfMfpl5Wj3bNO5uyP4u2hR20kZqgKPNOyVCBL3MUDoBbhm_3rjtYDTn0cVCslcID3wVnwxWw7Sfxjw5wAm7ucQsBzlzIaJOamFUM53AelXxGKrMVle8vUuVXIQntHLdPosXl8yepYtxsyMniI8C_hFS1gOC-2RMF88svvR_bsA_W00?></g></svg>