<?plantuml 1.2026.2?><svg xmlns="http://www.w3.org/2000/svg" xmlns:xlink="http://www.w3.org/1999/xlink" contentStyleType="text/css" data-diagram-type="SEQUENCE" height="775px" preserveAspectRatio="none" style="width:732px;height:775px;background:#FFFFFF;" version="1.1" viewBox="0 0 732 775" width="732px" zoomAndPan="magnify"><title>Key Preparation</title><defs/><g><rect fill="#F8F8FF" height="726.5781" style="stroke:#181818;stroke-width:0.5;" width="603.3809" x="15.4204" y="43.2969"/><text fill="#000000" font-family="Helvetica" font-size="10" font-weight="bold" x="308.6489" y="52.5791">LEI</text><rect fill="#E6E6FA" height="709.9375" style="stroke:#181818;stroke-width:0.5;" width="316.438" x="302.3633" y="59.9375"/><text fill="#000000" font-family="Helvetica" font-size="10" font-weight="bold" x="421.4856" y="69.2197">Prim&#228;rsystem</text><text fill="#000000" font-family="Helvetica" font-size="14" font-weight="bold" x="309.8608" y="27.9951">Key Preparation</text><g><title>TPM . SE</title><rect fill="#000000" fill-opacity="0.00000" height="611.7344" width="8" x="44.5" y="113.8594"/><line style="stroke:#181818;stroke-width:0.5;stroke-dasharray:5,5;" x1="48" x2="48" y1="113.8594" y2="725.5938"/></g><g><title/><rect fill="#FFFFFF" height="179.4844" style="stroke:#181818;stroke-width:1;" width="10" x="43" y="220.4219"/></g><g><title/><rect fill="#FFFFFF" height="25.6406" style="stroke:#181818;stroke-width:1;" width="10" x="43" y="480.8281"/></g><g><title>ZAS</title><rect fill="#000000" fill-opacity="0.00000" height="611.7344" width="8" x="319.8828" y="113.8594"/><line style="stroke:#181818;stroke-width:0.5;stroke-dasharray:5,5;" x1="323.3828" x2="323.3828" y1="113.8594" y2="725.5938"/></g><g><title/><rect fill="#FFE6CC" height="576.0938" style="stroke:#D79B00;stroke-width:1;" width="10" x="318.3828" y="149.5"/></g><g><title>ZETA Client</title><rect fill="#000000" fill-opacity="0.00000" height="611.7344" width="8" x="575.1777" y="113.8594"/><line style="stroke:#181818;stroke-width:0.5;stroke-dasharray:5,5;" x1="578.6777" x2="578.6777" y1="113.8594" y2="725.5938"/></g><g><title/><rect fill="#FFE6CC" height="576.0938" style="stroke:#D79B00;stroke-width:1;" width="10" x="573.6777" y="149.5"/></g><g><title>Apple</title><rect fill="#000000" fill-opacity="0.00000" height="611.7344" width="8" x="676.2813" y="113.8594"/><line style="stroke:#181818;stroke-width:0.5;stroke-dasharray:5,5;" x1="679.7813" x2="679.7813" y1="113.8594" y2="725.5938"/></g><g><title/><rect fill="#FFFFFF" height="37.2813" style="stroke:#181818;stroke-width:1;" width="10" x="674.7813" y="532.1094"/></g><rect fill="#E4E4F4" height="25.6406" rx="2.5" ry="2.5" style="stroke:#181818;stroke-width:0.5;" width="57.1592" x="19.4204" y="87.2188"/><text fill="#000000" font-family="Helvetica" font-size="10" x="26.4204" y="103.501">TPM / SE</text><rect fill="#FFE6CC" height="25.6406" rx="2.5" ry="2.5" style="stroke:#D79B00;stroke-width:0.5;" width="34.0391" x="306.3633" y="87.2188"/><text fill="#000000" font-family="Helvetica" font-size="10" x="313.3633" y="103.501">ZAS</text><rect fill="#FFE6CC" height="25.6406" rx="2.5" ry="2.5" style="stroke:#D79B00;stroke-width:0.5;" width="72.2471" x="542.5542" y="87.2188"/><text fill="#000000" font-family="Helvetica" font-size="10" x="549.5542" y="103.501">ZETA Client</text><rect fill="#E2E2F0" height="37.2813" rx="2.5" ry="2.5" style="stroke:#181818;stroke-width:0.5;" width="56.168" x="651.6973" y="75.5781"/><text fill="#000000" font-family="Helvetica" font-size="10" x="665.5479" y="91.8604">Apple</text><text fill="#000000" font-family="Helvetica" font-size="10" x="658.6973" y="103.501">Services</text><rect fill="#E4E4F4" height="25.6406" rx="2.5" ry="2.5" style="stroke:#181818;stroke-width:0.5;" width="57.1592" x="19.4204" y="725.5938"/><text fill="#000000" font-family="Helvetica" font-size="10" x="26.4204" y="741.876">TPM / SE</text><rect fill="#FFE6CC" height="25.6406" rx="2.5" ry="2.5" style="stroke:#D79B00;stroke-width:0.5;" width="34.0391" x="306.3633" y="725.5938"/><text fill="#000000" font-family="Helvetica" font-size="10" x="313.3633" y="741.876">ZAS</text><rect fill="#FFE6CC" height="25.6406" rx="2.5" ry="2.5" style="stroke:#D79B00;stroke-width:0.5;" width="72.2471" x="542.5542" y="725.5938"/><text fill="#000000" font-family="Helvetica" font-size="10" x="549.5542" y="741.876">ZETA Client</text><rect fill="#E2E2F0" height="37.2813" rx="2.5" ry="2.5" style="stroke:#181818;stroke-width:0.5;" width="56.168" x="651.6973" y="725.5938"/><text fill="#000000" font-family="Helvetica" font-size="10" x="665.5479" y="741.876">Apple</text><text fill="#000000" font-family="Helvetica" font-size="10" x="658.6973" y="753.5166">Services</text><path d="M8,125.8594 L67.9561,125.8594 L67.9561,129.5 L57.9561,139.5 L8,139.5 L8,125.8594" fill="#EEEEEE" style="stroke:#000000;stroke-width:1.5;"/><rect fill="none" height="575.7344" style="stroke:#000000;stroke-width:1.5;" width="717.7813" x="8" y="125.8594"/><text fill="#000000" font-family="Helvetica" font-size="10" font-weight="bold" x="23" y="136.1416">alt</text><text fill="#000000" font-family="Helvetica" font-size="10" font-weight="bold" x="82.9561" y="137.1416">[Hardware Attestation (TPM / SE)]</text><line style="stroke:#000000;stroke-width:1;stroke-dasharray:2,2;" x1="8" x2="725.7813" y1="639.6719" y2="639.6719"/><text fill="#000000" font-family="Helvetica" font-size="10" font-weight="bold" x="13" y="650.9541">[Software Attestation (Fallback)]</text><polygon fill="#181818" points="339.3828,163.1406,329.3828,167.1406,339.3828,171.1406,335.3828,167.1406" style="stroke:#181818;stroke-width:1;"/><line style="stroke:#181818;stroke-width:1;" x1="333.3828" x2="572.6777" y1="167.1406" y2="167.1406"/><text fill="#000000" font-family="Helvetica" font-size="10" x="345.3828" y="162.7822">(01)</text><text fill="#000000" font-family="Helvetica" font-size="10" x="369.9102" y="162.7822">dataToSign = Hash_PuK.Client.Sig</text><path d="M27,179.1406 L86.9561,179.1406 L86.9561,182.7813 L76.9561,192.7813 L27,192.7813 L27,179.1406" fill="#EEEEEE" style="stroke:#000000;stroke-width:1.5;"/><rect fill="none" height="435.5313" style="stroke:#000000;stroke-width:1.5;" width="673.7813" x="27" y="179.1406"/><text fill="#000000" font-family="Helvetica" font-size="10" font-weight="bold" x="42" y="189.4229">alt</text><text fill="#000000" font-family="Helvetica" font-size="10" font-weight="bold" x="101.9561" y="190.4229">[Windows / Linux (TPM)]</text><line style="stroke:#000000;stroke-width:1;stroke-dasharray:2,2;" x1="27" x2="700.7813" y1="444.5469" y2="444.5469"/><text fill="#000000" font-family="Helvetica" font-size="10" font-weight="bold" x="32" y="455.8291">[macOS (Secure Enclave)]</text><polygon fill="#181818" points="64,216.4219,54,220.4219,64,224.4219,60,220.4219" style="stroke:#181818;stroke-width:1;"/><line style="stroke:#181818;stroke-width:1;" x1="58" x2="317.3828" y1="220.4219" y2="220.4219"/><text fill="#000000" font-family="Helvetica" font-size="10" x="70" y="216.0635">(02)</text><text fill="#000000" font-family="Helvetica" font-size="10" x="94.5273" y="216.0635">TPM2_Sign(Handle_PrK.AK.Sig, dataToSign)</text><polygon fill="#181818" points="306.3828,242.0625,316.3828,246.0625,306.3828,250.0625,310.3828,246.0625" style="stroke:#181818;stroke-width:1;"/><line style="stroke:#181818;stroke-width:1;stroke-dasharray:2,2;" x1="53" x2="312.3828" y1="246.0625" y2="246.0625"/><text fill="#000000" font-family="Helvetica" font-size="10" x="60" y="241.7041">(03)</text><text fill="#000000" font-family="Helvetica" font-size="10" x="84.5273" y="241.7041">signed_Hash_PuK.Client.Sig</text><polygon fill="#181818" points="561.6777,267.7031,571.6777,271.7031,561.6777,275.7031,565.6777,271.7031" style="stroke:#181818;stroke-width:1;"/><line style="stroke:#181818;stroke-width:1;stroke-dasharray:2,2;" x1="328.3828" x2="567.6777" y1="271.7031" y2="271.7031"/><text fill="#000000" font-family="Helvetica" font-size="10" x="335.3828" y="267.3447">(04)</text><text fill="#000000" font-family="Helvetica" font-size="10" x="359.9102" y="267.3447">PuK.AK.Sig, signed_Hash_PuK.Client.Sig</text><polygon fill="#181818" points="339.3828,293.3438,329.3828,297.3438,339.3828,301.3438,335.3828,297.3438" style="stroke:#181818;stroke-width:1;"/><line style="stroke:#181818;stroke-width:1;" x1="333.3828" x2="572.6777" y1="297.3438" y2="297.3438"/><text fill="#000000" font-family="Helvetica" font-size="10" x="345.3828" y="292.9854">(05)</text><text fill="#000000" font-family="Helvetica" font-size="10" x="369.9102" y="292.9854">Request PuK.EK.Enc, C.EK.Enc</text><polygon fill="#181818" points="64,318.9844,54,322.9844,64,326.9844,60,322.9844" style="stroke:#181818;stroke-width:1;"/><line style="stroke:#181818;stroke-width:1;" x1="58" x2="317.3828" y1="322.9844" y2="322.9844"/><text fill="#000000" font-family="Helvetica" font-size="10" x="70" y="318.626">(06)</text><text fill="#000000" font-family="Helvetica" font-size="10" x="94.5273" y="318.626">TPM2_ReadPublic(EndorsementKey)</text><polygon fill="#181818" points="306.3828,344.625,316.3828,348.625,306.3828,352.625,310.3828,348.625" style="stroke:#181818;stroke-width:1;"/><line style="stroke:#181818;stroke-width:1;stroke-dasharray:2,2;" x1="53" x2="312.3828" y1="348.625" y2="348.625"/><text fill="#000000" font-family="Helvetica" font-size="10" x="60" y="344.2666">(07)</text><text fill="#000000" font-family="Helvetica" font-size="10" x="84.5273" y="344.2666">PuK.EK.Enc</text><polygon fill="#181818" points="64,370.2656,54,374.2656,64,378.2656,60,374.2656" style="stroke:#181818;stroke-width:1;"/><line style="stroke:#181818;stroke-width:1;" x1="58" x2="317.3828" y1="374.2656" y2="374.2656"/><text fill="#000000" font-family="Helvetica" font-size="10" x="70" y="369.9072">(08)</text><text fill="#000000" font-family="Helvetica" font-size="10" x="94.5273" y="369.9072">TPM2_NV_Read(EndorsementKey)</text><polygon fill="#181818" points="306.3828,395.9063,316.3828,399.9063,306.3828,403.9063,310.3828,399.9063" style="stroke:#181818;stroke-width:1;"/><line style="stroke:#181818;stroke-width:1;stroke-dasharray:2,2;" x1="53" x2="312.3828" y1="399.9063" y2="399.9063"/><text fill="#000000" font-family="Helvetica" font-size="10" x="60" y="395.5479">(09)</text><text fill="#000000" font-family="Helvetica" font-size="10" x="84.5273" y="395.5479">C.EK.Enc</text><polygon fill="#181818" points="561.6777,421.5469,571.6777,425.5469,561.6777,429.5469,565.6777,425.5469" style="stroke:#181818;stroke-width:1;"/><line style="stroke:#181818;stroke-width:1;stroke-dasharray:2,2;" x1="328.3828" x2="567.6777" y1="425.5469" y2="425.5469"/><text fill="#000000" font-family="Helvetica" font-size="10" x="335.3828" y="421.1885">(10)</text><text fill="#000000" font-family="Helvetica" font-size="10" x="359.9102" y="421.1885">PuK.EK.Enc, C.EK.Enc</text><polygon fill="#181818" points="64,476.8281,54,480.8281,64,484.8281,60,480.8281" style="stroke:#181818;stroke-width:1;"/><line style="stroke:#181818;stroke-width:1;" x1="58" x2="317.3828" y1="480.8281" y2="480.8281"/><text fill="#000000" font-family="Helvetica" font-size="10" x="70" y="476.4697">(11)</text><text fill="#000000" font-family="Helvetica" font-size="10" x="94.5273" y="476.4697">SE_Sign(Handle_PrK.AK.Sig, dataToSign)</text><polygon fill="#181818" points="306.3828,502.4688,316.3828,506.4688,306.3828,510.4688,310.3828,506.4688" style="stroke:#181818;stroke-width:1;"/><line style="stroke:#181818;stroke-width:1;stroke-dasharray:2,2;" x1="53" x2="312.3828" y1="506.4688" y2="506.4688"/><text fill="#000000" font-family="Helvetica" font-size="10" x="60" y="502.1104">(12)</text><text fill="#000000" font-family="Helvetica" font-size="10" x="84.5273" y="502.1104">signed_Hash_PuK.Client.Sig</text><polygon fill="#181818" points="662.7813,528.1094,672.7813,532.1094,662.7813,536.1094,666.7813,532.1094" style="stroke:#181818;stroke-width:1;"/><line style="stroke:#181818;stroke-width:1;" x1="328.3828" x2="668.7813" y1="532.1094" y2="532.1094"/><text fill="#000000" font-family="Helvetica" font-size="10" x="335.3828" y="527.751">(13)</text><text fill="#000000" font-family="Helvetica" font-size="10" x="359.9102" y="527.751">DCAppAttest.attest(Handle_PrK.AK.Sig, Hash_PuK.Client.Sig)</text><polygon fill="#181818" points="339.3828,565.3906,329.3828,569.3906,339.3828,573.3906,335.3828,569.3906" style="stroke:#181818;stroke-width:1;"/><line style="stroke:#181818;stroke-width:1;stroke-dasharray:2,2;" x1="333.3828" x2="673.7813" y1="569.3906" y2="569.3906"/><text fill="#000000" font-family="Helvetica" font-size="10" x="345.3828" y="559.2119">(14)</text><text fill="#000000" font-family="Helvetica" font-size="10" x="369.9102" y="553.3916">Apple_Attestation_Object</text><text fill="#000000" font-family="Helvetica" font-size="10" x="369.9102" y="565.0322">(inkl. x5c-Zertifikatskette)</text><polygon fill="#181818" points="561.6777,602.6719,571.6777,606.6719,561.6777,610.6719,565.6777,606.6719" style="stroke:#181818;stroke-width:1;"/><line style="stroke:#181818;stroke-width:1;stroke-dasharray:2,2;" x1="328.3828" x2="567.6777" y1="606.6719" y2="606.6719"/><text fill="#000000" font-family="Helvetica" font-size="10" x="335.3828" y="596.4932">(15)</text><text fill="#000000" font-family="Helvetica" font-size="10" x="359.9102" y="590.6729">PuK.AK.Sig, signed_Hash_PuK.Client.Sig,</text><text fill="#000000" font-family="Helvetica" font-size="10" x="359.9102" y="602.3135">Apple_Attestation_Object</text><path d="M278.2783,663.3125 L278.2783,696.3125 L573.2783,696.3125 L573.2783,673.3125 L563.2783,663.3125 L278.2783,663.3125" fill="#FEFFDD" style="stroke:#181818;stroke-width:0.5;"/><path d="M563.2783,663.3125 L563.2783,673.3125 L573.2783,673.3125 L563.2783,663.3125" fill="#FEFFDD" style="stroke:#181818;stroke-width:0.5;"/><text fill="#000000" font-family="Helvetica" font-size="10" x="284.2783" y="677.5947">Keine Hardware-Bindung.</text><text fill="#000000" font-family="Helvetica" font-size="10" x="284.2783" y="689.2354">Identit&#228;t besteht nur aus PrK.Client.Sig, PuK.Client.Sig.</text><?plantuml-src fLN_Rjf84FxVJp7b_ZYY1CgbITgBSaW6coOY18IvLXT5Geizm1QpwzjTfqbEVPk-IL-iipO6Xy0fkfEGTjdvvfjlVkoQfKQAT3b11PLget5GSVI2YuGfjeG8fooDJKSA4_0dXDyQkuqtR8bmYV4z6Xwo4iRBCJqff4vOYD4QtPQfugXAs1Z5pCpTw4kg3GWfi6JJ-7UA8iGXJb7PJOk5YvcIgOZQCfOAFi-vAJi4smwR78vtyFPGQpP3D-OpGKAcnfdp244RSfRcCK77-HLQyW526qqxRoXvBX1k_P4x_lYdE_J6xVvrVmY_T3gTT_xf6d3jNnMMZtEfJQxpkRKtwD_uDwC2vv_u9vsJDMOmlEgv_Z3uAnZvlG9ppUvHH5I-3Qh_wShpXsiIh-FvRQjwm1GrXITCc4BzXJQFCJQT8dkFivcjnZyEGFq93Sjs0Dj5fkJyitOxirrJrDMfz_xtLgD1fz-SRyx5snNvlqT9bBod2gjzaRnJ_uDtiXtfmt7htTdPYqY6cnYXYuymK6WRQxWKZlCcKMosP61GFe5HAJLnGYsiKDKhcyOGMr8gKMKqwC5R2FmAC0tspuucaK_6D51y-UExqeyqAClAhbPb6PJvRzt04bTehS35XQrsi_a2rOuvqf81QSHM_vyvKF-j2ATOdMTPk4aIuvq8KDtp47MMJ7RcE2msSCbKz9Kf1DSOr2Oh65IBr0yoFNdCmyFi3ybTxLRIQarxTWuHCsma0tjl_Y1QFHyFqcuz1zNfEFEn8Jzp4SclcW9GGzE7B5eUQCLlAUdiyF3SBiTZorczP2AASJnGtRhRjNn7fOWRTwkyLaZIPC9el4_CEXpXSzCvM5Z1_mhthHeCxOJJesNHFlr4U0JjrMv7XglyXiYYGJg9ULZrgJHAuv98QOhtfBLXtyzvyocZVGrXhNQ-H-HMNNPcXB56MBAm7q0rm32bKI9JJC_Ilfu6_d_jg5Nwsfusyoct0RqsRVFvhhDisHLx1-D6HCPLbf4TZ4kNPjoVVC7Gt8ag5uku3W-dOUqMwI9E-O8PlK227lpFiJkw4_lYvhqGaPFr8v1Jy_9MTrWSJ-XzpMK8QJ3xme6ShdLqqNv3YaUXrgAhcefP_KvSHMJdviTt0nDYn3bzcLC5BDLWYrZI2Cyrr-sxvFm4?></g></svg>