<?plantuml 1.2026.2?><svg xmlns="http://www.w3.org/2000/svg" xmlns:xlink="http://www.w3.org/1999/xlink" contentStyleType="text/css" data-diagram-type="SEQUENCE" height="765px" preserveAspectRatio="none" style="width:818px;height:765px;background:#FFFFFF;" version="1.1" viewBox="0 0 818 765" width="818px" zoomAndPan="magnify"><title>Obtain Attestation Evidence</title><defs/><g><rect fill="#F8F8FF" height="716.2188" style="stroke:#181818;stroke-width:0.5;" width="584.4355" x="15.4204" y="43.2969"/><text fill="#000000" font-family="Helvetica" font-size="10" font-weight="bold" x="299.1763" y="52.5791">LEI</text><rect fill="#E6E6FA" height="699.5781" style="stroke:#181818;stroke-width:0.5;" width="328.2788" x="271.5771" y="59.9375"/><text fill="#000000" font-family="Helvetica" font-size="10" font-weight="bold" x="396.6199" y="69.2197">Prim&#228;rsystem</text><rect fill="#EDFDEC" height="716.2188" style="stroke:#181818;stroke-width:0.5;" width="147.7842" x="664.8022" y="43.2969"/><text fill="#000000" font-family="Helvetica" font-size="10" font-weight="bold" x="676.8022" y="52.5791">Anbieter TI 2.0 Dienst</text><rect fill="#FFF3E5" height="699.5781" style="stroke:#181818;stroke-width:0.5;" width="147.7842" x="664.8022" y="59.9375"/><text fill="#000000" font-family="Helvetica" font-size="10" font-weight="bold" x="705.5498" y="69.2197">ZETA Guard</text><text fill="#000000" font-family="Helvetica" font-size="14" font-weight="bold" x="298.7021" y="27.9951">Obtain Attestation Evidence</text><g><title>TPM . SE</title><rect fill="#000000" fill-opacity="0.00000" height="601.375" width="8" x="44.5" y="113.8594"/><line style="stroke:#000000;stroke-width:0.5;stroke-dasharray:5,5;" x1="48" x2="48" y1="113.8594" y2="715.2344"/></g><g><title/><rect fill="#FFFFFF" height="25.6406" style="stroke:#181818;stroke-width:1;" width="10" x="43" y="283.3438"/></g><g><title/><rect fill="#FFFFFF" height="25.6406" style="stroke:#181818;stroke-width:1;" width="10" x="43" y="334.625"/></g><g><title/><rect fill="#FFFFFF" height="37.2813" style="stroke:#181818;stroke-width:1;" width="10" x="43" y="526.3906"/></g><g><title>ZAS</title><rect fill="#000000" fill-opacity="0.00000" height="601.375" width="8" x="289.0967" y="113.8594"/><line style="stroke:#000000;stroke-width:0.5;stroke-dasharray:5,5;" x1="292.5967" x2="292.5967" y1="113.8594" y2="715.2344"/></g><g><title/><rect fill="#FFFFFF" height="593.375" style="stroke:#181818;stroke-width:1;" width="10" x="287.5967" y="121.8594"/></g><g><title>ZETA Client</title><rect fill="#000000" fill-opacity="0.00000" height="601.375" width="8" x="556.2324" y="113.8594"/><line style="stroke:#000000;stroke-width:0.5;stroke-dasharray:5,5;" x1="559.7324" x2="559.7324" y1="113.8594" y2="715.2344"/></g><g><title/><rect fill="#FFFFFF" height="593.375" style="stroke:#181818;stroke-width:1;" width="10" x="554.7324" y="121.8594"/></g><g><title>PDP</title><rect fill="#000000" fill-opacity="0.00000" height="601.375" width="8" x="735.1943" y="113.8594"/><line style="stroke:#000000;stroke-width:0.5;stroke-dasharray:5,5;" x1="738.6943" x2="738.6943" y1="113.8594" y2="715.2344"/></g><g><title/><rect fill="#FFFFFF" height="25.6406" style="stroke:#181818;stroke-width:1;" width="10" x="733.6943" y="139.5"/></g><rect fill="#E4E4F4" height="25.6406" rx="2.5" ry="2.5" style="stroke:#181818;stroke-width:0.5;" width="57.1592" x="19.4204" y="87.2188"/><text fill="#000000" font-family="Helvetica" font-size="10" x="26.4204" y="103.501">TPM / SE</text><rect fill="#FFE6CC" height="25.6406" rx="2.5" ry="2.5" style="stroke:#D79B00;stroke-width:0.5;" width="34.0391" x="275.5771" y="87.2188"/><text fill="#000000" font-family="Helvetica" font-size="10" x="282.5771" y="103.501">ZAS</text><rect fill="#FFE6CC" height="25.6406" rx="2.5" ry="2.5" style="stroke:#D79B00;stroke-width:0.5;" width="72.2471" x="523.6089" y="87.2188"/><text fill="#000000" font-family="Helvetica" font-size="10" x="530.6089" y="103.501">ZETA Client</text><rect fill="#FFE6CC" height="37.2813" rx="2.5" ry="2.5" style="stroke:#D79B00;stroke-width:0.5;" width="116.9492" x="680.2197" y="75.5781"/><text fill="#000000" font-family="Helvetica" font-size="10" x="728.814" y="91.8604">PDP</text><text fill="#000000" font-family="Helvetica" font-size="10" x="687.2197" y="103.501">Authorization Server</text><rect fill="#E4E4F4" height="25.6406" rx="2.5" ry="2.5" style="stroke:#181818;stroke-width:0.5;" width="57.1592" x="19.4204" y="715.2344"/><text fill="#000000" font-family="Helvetica" font-size="10" x="26.4204" y="731.5166">TPM / SE</text><rect fill="#FFE6CC" height="25.6406" rx="2.5" ry="2.5" style="stroke:#D79B00;stroke-width:0.5;" width="34.0391" x="275.5771" y="715.2344"/><text fill="#000000" font-family="Helvetica" font-size="10" x="282.5771" y="731.5166">ZAS</text><rect fill="#FFE6CC" height="25.6406" rx="2.5" ry="2.5" style="stroke:#D79B00;stroke-width:0.5;" width="72.2471" x="523.6089" y="715.2344"/><text fill="#000000" font-family="Helvetica" font-size="10" x="530.6089" y="731.5166">ZETA Client</text><rect fill="#FFE6CC" height="37.2813" rx="2.5" ry="2.5" style="stroke:#D79B00;stroke-width:0.5;" width="116.9492" x="680.2197" y="715.2344"/><text fill="#000000" font-family="Helvetica" font-size="10" x="728.814" y="731.5166">PDP</text><text fill="#000000" font-family="Helvetica" font-size="10" x="687.2197" y="743.1572">Authorization Server</text><polygon fill="#181818" points="721.6943,135.5,731.6943,139.5,721.6943,143.5,725.6943,139.5" style="stroke:#181818;stroke-width:1;"/><line style="stroke:#181818;stroke-width:1;" x1="564.7324" x2="727.6943" y1="139.5" y2="139.5"/><text fill="#000000" font-family="Helvetica" font-size="10" x="571.7324" y="135.1416">(01)</text><text fill="#000000" font-family="Helvetica" font-size="10" x="596.2598" y="135.1416">GET /nonce</text><polygon fill="#181818" points="575.7324,161.1406,565.7324,165.1406,575.7324,169.1406,571.7324,165.1406" style="stroke:#181818;stroke-width:1;"/><line style="stroke:#181818;stroke-width:1;stroke-dasharray:2,2;" x1="569.7324" x2="732.6943" y1="165.1406" y2="165.1406"/><text fill="#000000" font-family="Helvetica" font-size="10" x="581.7324" y="160.7822">(02)</text><text fill="#000000" font-family="Helvetica" font-size="10" x="606.2598" y="160.7822">Nonce</text><path d="M8,177.1406 L67.9561,177.1406 L67.9561,180.7813 L57.9561,190.7813 L8,190.7813 L8,177.1406" fill="#EEEEEE" style="stroke:#000000;stroke-width:1.5;"/><rect fill="none" height="514.0938" style="stroke:#000000;stroke-width:1.5;" width="746.6943" x="8" y="177.1406"/><text fill="#000000" font-family="Helvetica" font-size="10" font-weight="bold" x="23" y="187.4229">alt</text><text fill="#000000" font-family="Helvetica" font-size="10" font-weight="bold" x="82.9561" y="188.4229">[Hardware Attestation (TPM / SE)]</text><line style="stroke:#000000;stroke-width:1;stroke-dasharray:2,2;" x1="8" x2="754.6943" y1="622.3125" y2="622.3125"/><text fill="#000000" font-family="Helvetica" font-size="10" font-weight="bold" x="13" y="633.5947">[Software Attestation (Fallback)]</text><polygon fill="#181818" points="308.5967,214.4219,298.5967,218.4219,308.5967,222.4219,304.5967,218.4219" style="stroke:#181818;stroke-width:1;"/><line style="stroke:#181818;stroke-width:1;" x1="302.5967" x2="553.7324" y1="218.4219" y2="218.4219"/><text fill="#000000" font-family="Helvetica" font-size="10" x="314.5967" y="214.0635">(03)</text><text fill="#000000" font-family="Helvetica" font-size="10" x="339.124" y="214.0635">GetEvidence(Nonce)</text><path d="M27,230.4219 L86.9561,230.4219 L86.9561,234.0625 L76.9561,244.0625 L27,244.0625 L27,230.4219" fill="#EEEEEE" style="stroke:#000000;stroke-width:1.5;"/><rect fill="none" height="366.8906" style="stroke:#000000;stroke-width:1.5;" width="548.7324" x="27" y="230.4219"/><text fill="#000000" font-family="Helvetica" font-size="10" font-weight="bold" x="42" y="240.7041">alt</text><text fill="#000000" font-family="Helvetica" font-size="10" font-weight="bold" x="101.9561" y="241.7041">[Windows / Linux (TPM)]</text><line style="stroke:#000000;stroke-width:1;stroke-dasharray:2,2;" x1="27" x2="575.7324" y1="404.9063" y2="404.9063"/><text fill="#000000" font-family="Helvetica" font-size="10" font-weight="bold" x="32" y="416.1885">[macOS (Secure Enclave)]</text><polygon fill="#181818" points="64,279.3438,54,283.3438,64,287.3438,60,283.3438" style="stroke:#181818;stroke-width:1;"/><line style="stroke:#181818;stroke-width:1;" x1="58" x2="286.5967" y1="283.3438" y2="283.3438"/><text fill="#000000" font-family="Helvetica" font-size="10" x="70" y="273.165">(04)</text><text fill="#000000" font-family="Helvetica" font-size="10" x="94.5273" y="267.3447">TPM2_Quote(PCR=[7,23],</text><text fill="#000000" font-family="Helvetica" font-size="10" x="94.5273" y="278.9854">Nonce, Handle_PrK.AK.Sig)</text><polygon fill="#181818" points="275.5967,304.9844,285.5967,308.9844,275.5967,312.9844,279.5967,308.9844" style="stroke:#181818;stroke-width:1;"/><line style="stroke:#181818;stroke-width:1;stroke-dasharray:2,2;" x1="53" x2="281.5967" y1="308.9844" y2="308.9844"/><text fill="#000000" font-family="Helvetica" font-size="10" x="60" y="304.626">(05)</text><text fill="#000000" font-family="Helvetica" font-size="10" x="84.5273" y="304.626">tpm_quote (signiert mit PrK.AK.Sig)</text><polygon fill="#181818" points="64,330.625,54,334.625,64,338.625,60,334.625" style="stroke:#181818;stroke-width:1;"/><line style="stroke:#181818;stroke-width:1;" x1="58" x2="286.5967" y1="334.625" y2="334.625"/><text fill="#000000" font-family="Helvetica" font-size="10" x="70" y="330.2666">(06)</text><text fill="#000000" font-family="Helvetica" font-size="10" x="94.5273" y="330.2666">TPM2_GetEventLog()</text><polygon fill="#181818" points="275.5967,356.2656,285.5967,360.2656,275.5967,364.2656,279.5967,360.2656" style="stroke:#181818;stroke-width:1;"/><line style="stroke:#181818;stroke-width:1;stroke-dasharray:2,2;" x1="53" x2="281.5967" y1="360.2656" y2="360.2656"/><text fill="#000000" font-family="Helvetica" font-size="10" x="60" y="355.9072">(07)</text><text fill="#000000" font-family="Helvetica" font-size="10" x="84.5273" y="355.9072">tpm_event_log</text><polygon fill="#181818" points="542.7324,381.9063,552.7324,385.9063,542.7324,389.9063,546.7324,385.9063" style="stroke:#181818;stroke-width:1;"/><line style="stroke:#181818;stroke-width:1;stroke-dasharray:2,2;" x1="297.5967" x2="548.7324" y1="385.9063" y2="385.9063"/><text fill="#000000" font-family="Helvetica" font-size="10" x="304.5967" y="381.5479">(08)</text><text fill="#000000" font-family="Helvetica" font-size="10" x="329.124" y="381.5479">Evidence {tpm_quote, tpm_event_log}</text><line style="stroke:#181818;stroke-width:1;" x1="297.5967" x2="339.5967" y1="452.8281" y2="452.8281"/><line style="stroke:#181818;stroke-width:1;" x1="339.5967" x2="339.5967" y1="452.8281" y2="465.8281"/><line style="stroke:#181818;stroke-width:1;" x1="298.5967" x2="339.5967" y1="465.8281" y2="465.8281"/><polygon fill="#181818" points="308.5967,461.8281,298.5967,465.8281,308.5967,469.8281,304.5967,465.8281" style="stroke:#181818;stroke-width:1;"/><text fill="#000000" font-family="Helvetica" font-size="10" x="304.5967" y="442.6494">(09)</text><text fill="#000000" font-family="Helvetica" font-size="10" x="329.124" y="436.8291">Ermittle Posture</text><text fill="#000000" font-family="Helvetica" font-size="10" x="329.124" y="448.4697">(SIP, Gatekeeper, OS-Version, Secure Boot)</text><polygon fill="#181818" points="64,522.3906,54,526.3906,64,530.3906,60,526.3906" style="stroke:#181818;stroke-width:1;"/><line style="stroke:#181818;stroke-width:1;" x1="58" x2="286.5967" y1="526.3906" y2="526.3906"/><text fill="#000000" font-family="Helvetica" font-size="10" x="70" y="504.5713">(10)</text><text fill="#000000" font-family="Helvetica" font-size="10" x="94.5273" y="487.1104">DCAppAttest.generateAssertion(</text><text fill="#000000" font-family="Helvetica" font-size="10" x="100.8848" y="498.751">Handle_PrK.AK.Sig,</text><text fill="#000000" font-family="Helvetica" font-size="10" x="100.8848" y="510.3916">Hash(Nonce + Posture)</text><text fill="#000000" font-family="Helvetica" font-size="10" x="94.5273" y="522.0322">)</text><polygon fill="#181818" points="275.5967,559.6719,285.5967,563.6719,275.5967,567.6719,279.5967,563.6719" style="stroke:#181818;stroke-width:1;"/><line style="stroke:#181818;stroke-width:1;stroke-dasharray:2,2;" x1="53" x2="281.5967" y1="563.6719" y2="563.6719"/><text fill="#000000" font-family="Helvetica" font-size="10" x="60" y="553.4932">(11)</text><text fill="#000000" font-family="Helvetica" font-size="10" x="84.5273" y="547.6729">dc_assertion</text><text fill="#000000" font-family="Helvetica" font-size="10" x="84.5273" y="559.3135">(CBOR: Signatur + Receipt + counter)</text><polygon fill="#181818" points="542.7324,585.3125,552.7324,589.3125,542.7324,593.3125,546.7324,589.3125" style="stroke:#181818;stroke-width:1;"/><line style="stroke:#181818;stroke-width:1;stroke-dasharray:2,2;" x1="297.5967" x2="548.7324" y1="589.3125" y2="589.3125"/><text fill="#000000" font-family="Helvetica" font-size="10" x="304.5967" y="584.9541">(12)</text><text fill="#000000" font-family="Helvetica" font-size="10" x="329.124" y="584.9541">Evidence {dc_assertion, posture, counter}</text><line style="stroke:#181818;stroke-width:1;" x1="564.7324" x2="606.7324" y1="670.2344" y2="670.2344"/><line style="stroke:#181818;stroke-width:1;" x1="606.7324" x2="606.7324" y1="670.2344" y2="683.2344"/><line style="stroke:#181818;stroke-width:1;" x1="565.7324" x2="606.7324" y1="683.2344" y2="683.2344"/><polygon fill="#181818" points="575.7324,679.2344,565.7324,683.2344,575.7324,687.2344,571.7324,683.2344" style="stroke:#181818;stroke-width:1;"/><text fill="#000000" font-family="Helvetica" font-size="10" x="571.7324" y="660.0557">(13)</text><text fill="#000000" font-family="Helvetica" font-size="10" x="596.2598" y="654.2354">Generiere client-statement</text><text fill="#000000" font-family="Helvetica" font-size="10" x="596.2598" y="665.876">(OS und PS Daten)</text><?plantuml-src ZLJRSjis47tdLspOXyeZoLPbnqazhcSeaN8yiInML9Dfweu69jSIOWfW0D29dSdVz4_wOrtmedlQFaW0WRE7v-mkb-L6YdnnXmhSHgTpu3hwWOkCARQ01EzPdfg152RYpmW_TVPVth05mXjC7z7mcArX_18pb4BgZCMOBD5zcIkEQWsRefYPkPTypBK18GMktMdybAE8SOptgEocn-A7cPAvIFeobGhUpxbP3uYs0rOUkdjuXwWrcw6NyfaW8VV6cVC4GHiAbkOfGyVv4Nho2yJsRTfvGUQvGFWGJBpfvM_Us9_sHzUZCVmm60oEWvTBm7LmLTzSpgKsfSxDss4ukWbk9ZKkE0bE1YTBJ3Y-6dh1EFezcWJ36dFD7b4abBuLQlJkoW_6In9_u0TzgpfaYeh2CoPChVvScwSKBvpQlS_Pp6RZgmEGhS7jCy3XCnfMxG6s4q-6WzD-lxgz9YtLkV_gvrwdKvn_Atao9Hyfg-hxNFxBuBL_iilrkjixFZrTSjbVokynjSvBiltzi4dJImbKX7zppe-g73YEuIP56DqPnWLung0sp70f8B1gAJsEyo9JRBPWO50-Wr4v7TrHCxXKFtTLugtikPDm24SG1Ium3VPXJxaffc0A5L_y_PVIJzHo2tTVqGipw_mVlCWIkxIwS7vkgtHniOFgfnnfAO3KhDNpHW1raXNXr6lfpHDt7Ad_ON85tSCE-1IdZRlLQRN-WlioPofnTpwA7KrURkQbzj0FRuLzb8e_brcFK3sY-dU1JkcYsNJ8FFrN9jiN5NMp2MTm6KpWYEO85R0yRTDzZMmJuAQuSrXgu0q9_ymKRjI_KHVme72mUedDFF6ZgJkaKL2LC4ltdej4VjOKJDsNVocO3ggsXYASMEYiq4bhT_fhBWqsmlxubpzUjRh7VxPkHS7P8caYIN4QghU7tjl3YCzMH5PVkz9JE3BPOlh9Ca53qoIZ-MfWmGti2zwdeh149g_bhF4Vhq6BcwPojacuIl7Pylk1hqjThStOSZ1WgX4MB1v5q8WmpgaCWOXJ6d4xQcaXNaMUx3SRqa0bzAreH5TX2owPmGV435KBHb7x7IfDPMn1nTcJqdpNlj_tigmi_k4C1IhYyhIc1195urR0RXrQvQcUbzM7Pgtdu5RiJLwHkoIUifgNXFTxe_4P49jW54eSOuoHPuPsCKqp-luE_a-2rrbRa9KwMZL5bMQHE4Mg8tblTfjzmDBqZWRaThENEzlkb1NgA8IuE6dRI5pGZcnGwMZqGXY1JuTatxxi7m00?></g></svg>