<?plantuml 1.2026.2?><svg xmlns="http://www.w3.org/2000/svg" xmlns:xlink="http://www.w3.org/1999/xlink" contentStyleType="text/css" data-diagram-type="SEQUENCE" height="782px" preserveAspectRatio="none" style="width:818px;height:782px;background:#FFFFFF;" version="1.1" viewBox="0 0 818 782" width="818px" zoomAndPan="magnify"><title>Obtain Attestation Evidence</title><defs/><g><rect fill="#F8F8FF" height="732.8594" style="stroke:#181818;stroke-width:0.5;" width="588.812" x="15.4204" y="43.2969"/><text fill="#000000" font-family="Helvetica" font-size="10" font-weight="bold" x="301.3645" y="52.5791">LEI</text><rect fill="#E6E6FA" height="716.2188" style="stroke:#181818;stroke-width:0.5;" width="394.1045" x="210.1279" y="59.9375"/><text fill="#000000" font-family="Helvetica" font-size="10" font-weight="bold" x="368.0835" y="69.2197">Prim&#228;rsystem</text><rect fill="#F4A460" height="699.5781" style="stroke:#181818;stroke-width:0.5;" width="164.9375" x="210.1279" y="76.5781"/><text fill="#000000" font-family="Helvetica" font-size="10" font-weight="bold" x="222.1279" y="85.8604">ZETA Attestation Service</text><rect fill="#F4A460" height="699.5781" style="stroke:#181818;stroke-width:0.5;" width="89" x="515.2324" y="76.5781"/><text fill="#000000" font-family="Helvetica" font-size="10" font-weight="bold" x="527.2324" y="85.8604">ZETA Client</text><rect fill="#C9FFC9" height="732.8594" style="stroke:#181818;stroke-width:0.5;" width="147.7842" x="664.8022" y="43.2969"/><text fill="#000000" font-family="Helvetica" font-size="10" font-weight="bold" x="676.8022" y="52.5791">Anbieter TI 2.0 Dienst</text><rect fill="#F4A460" height="716.2188" style="stroke:#181818;stroke-width:0.5;" width="147.7842" x="664.8022" y="59.9375"/><text fill="#000000" font-family="Helvetica" font-size="10" font-weight="bold" x="705.5498" y="69.2197">ZETA Guard</text><text fill="#000000" font-family="Helvetica" font-size="14" font-weight="bold" x="298.7021" y="27.9951">Obtain Attestation Evidence</text><g><title>TPM . SE</title><rect fill="#000000" fill-opacity="0.00000" height="601.375" width="8" x="44.5" y="130.5"/><line style="stroke:#181818;stroke-width:0.5;stroke-dasharray:5,5;" x1="48" x2="48" y1="130.5" y2="731.875"/></g><g><title/><rect fill="#FFFFFF" height="25.6406" style="stroke:#181818;stroke-width:1;" width="10" x="43" y="299.9844"/></g><g><title/><rect fill="#FFFFFF" height="25.6406" style="stroke:#181818;stroke-width:1;" width="10" x="43" y="351.2656"/></g><g><title/><rect fill="#FFFFFF" height="37.2813" style="stroke:#181818;stroke-width:1;" width="10" x="43" y="543.0313"/></g><g><title>ZAS</title><rect fill="#000000" fill-opacity="0.00000" height="601.375" width="8" x="289.0967" y="130.5"/><line style="stroke:#181818;stroke-width:0.5;stroke-dasharray:5,5;" x1="292.5967" x2="292.5967" y1="130.5" y2="731.875"/></g><g><title/><rect fill="#FFFFFF" height="593.375" style="stroke:#181818;stroke-width:1;" width="10" x="287.5967" y="138.5"/></g><g><title>ZETA Client</title><rect fill="#000000" fill-opacity="0.00000" height="601.375" width="8" x="556.2324" y="130.5"/><line style="stroke:#181818;stroke-width:0.5;stroke-dasharray:5,5;" x1="559.7324" x2="559.7324" y1="130.5" y2="731.875"/></g><g><title/><rect fill="#FFFFFF" height="593.375" style="stroke:#181818;stroke-width:1;" width="10" x="554.7324" y="138.5"/></g><g><title>PDP</title><rect fill="#000000" fill-opacity="0.00000" height="601.375" width="8" x="735.1943" y="130.5"/><line style="stroke:#181818;stroke-width:0.5;stroke-dasharray:5,5;" x1="738.6943" x2="738.6943" y1="130.5" y2="731.875"/></g><g><title/><rect fill="#FFFFFF" height="25.6406" style="stroke:#181818;stroke-width:1;" width="10" x="733.6943" y="156.1406"/></g><rect fill="#E2E2F0" height="25.6406" rx="2.5" ry="2.5" style="stroke:#181818;stroke-width:0.5;" width="57.1592" x="19.4204" y="103.8594"/><text fill="#000000" font-family="Helvetica" font-size="10" x="26.4204" y="120.1416">TPM / SE</text><rect fill="#E2E2F0" height="25.6406" rx="2.5" ry="2.5" style="stroke:#181818;stroke-width:0.5;" width="34.0391" x="275.5771" y="103.8594"/><text fill="#000000" font-family="Helvetica" font-size="10" x="282.5771" y="120.1416">ZAS</text><rect fill="#E2E2F0" height="25.6406" rx="2.5" ry="2.5" style="stroke:#181818;stroke-width:0.5;" width="72.2471" x="523.6089" y="103.8594"/><text fill="#000000" font-family="Helvetica" font-size="10" x="530.6089" y="120.1416">ZETA Client</text><rect fill="#E2E2F0" height="37.2813" rx="2.5" ry="2.5" style="stroke:#181818;stroke-width:0.5;" width="116.9492" x="680.2197" y="92.2188"/><text fill="#000000" font-family="Helvetica" font-size="10" x="728.814" y="108.501">PDP</text><text fill="#000000" font-family="Helvetica" font-size="10" x="687.2197" y="120.1416">Authorization Server</text><rect fill="#E2E2F0" height="25.6406" rx="2.5" ry="2.5" style="stroke:#181818;stroke-width:0.5;" width="57.1592" x="19.4204" y="731.875"/><text fill="#000000" font-family="Helvetica" font-size="10" x="26.4204" y="748.1572">TPM / SE</text><rect fill="#E2E2F0" height="25.6406" rx="2.5" ry="2.5" style="stroke:#181818;stroke-width:0.5;" width="34.0391" x="275.5771" y="731.875"/><text fill="#000000" font-family="Helvetica" font-size="10" x="282.5771" y="748.1572">ZAS</text><rect fill="#E2E2F0" height="25.6406" rx="2.5" ry="2.5" style="stroke:#181818;stroke-width:0.5;" width="72.2471" x="523.6089" y="731.875"/><text fill="#000000" font-family="Helvetica" font-size="10" x="530.6089" y="748.1572">ZETA Client</text><rect fill="#E2E2F0" height="37.2813" rx="2.5" ry="2.5" style="stroke:#181818;stroke-width:0.5;" width="116.9492" x="680.2197" y="731.875"/><text fill="#000000" font-family="Helvetica" font-size="10" x="728.814" y="748.1572">PDP</text><text fill="#000000" font-family="Helvetica" font-size="10" x="687.2197" y="759.7979">Authorization Server</text><polygon fill="#181818" points="721.6943,152.1406,731.6943,156.1406,721.6943,160.1406,725.6943,156.1406" style="stroke:#181818;stroke-width:1;"/><line style="stroke:#181818;stroke-width:1;" x1="564.7324" x2="727.6943" y1="156.1406" y2="156.1406"/><text fill="#000000" font-family="Helvetica" font-size="10" x="571.7324" y="151.7822">(01)</text><text fill="#000000" font-family="Helvetica" font-size="10" x="596.2598" y="151.7822">GET /nonce</text><polygon fill="#181818" points="575.7324,177.7813,565.7324,181.7813,575.7324,185.7813,571.7324,181.7813" style="stroke:#181818;stroke-width:1;"/><line style="stroke:#181818;stroke-width:1;stroke-dasharray:2,2;" x1="569.7324" x2="732.6943" y1="181.7813" y2="181.7813"/><text fill="#000000" font-family="Helvetica" font-size="10" x="581.7324" y="177.4229">(02)</text><text fill="#000000" font-family="Helvetica" font-size="10" x="606.2598" y="177.4229">Nonce</text><path d="M8,193.7813 L67.9561,193.7813 L67.9561,197.4219 L57.9561,207.4219 L8,207.4219 L8,193.7813" fill="#EEEEEE" style="stroke:#000000;stroke-width:1.5;"/><rect fill="none" height="514.0938" style="stroke:#000000;stroke-width:1.5;" width="746.6943" x="8" y="193.7813"/><text fill="#000000" font-family="Helvetica" font-size="10" font-weight="bold" x="23" y="204.0635">alt</text><text fill="#000000" font-family="Helvetica" font-size="10" font-weight="bold" x="82.9561" y="205.0635">[Hardware Attestation (TPM / SE)]</text><line style="stroke:#000000;stroke-width:1;stroke-dasharray:2,2;" x1="8" x2="754.6943" y1="638.9531" y2="638.9531"/><text fill="#000000" font-family="Helvetica" font-size="10" font-weight="bold" x="13" y="650.2354">[Software Attestation (Fallback)]</text><polygon fill="#181818" points="308.5967,231.0625,298.5967,235.0625,308.5967,239.0625,304.5967,235.0625" style="stroke:#181818;stroke-width:1;"/><line style="stroke:#181818;stroke-width:1;" x1="302.5967" x2="553.7324" y1="235.0625" y2="235.0625"/><text fill="#000000" font-family="Helvetica" font-size="10" x="314.5967" y="230.7041">(03)</text><text fill="#000000" font-family="Helvetica" font-size="10" x="339.124" y="230.7041">GetEvidence(Nonce)</text><path d="M27,247.0625 L86.9561,247.0625 L86.9561,250.7031 L76.9561,260.7031 L27,260.7031 L27,247.0625" fill="#EEEEEE" style="stroke:#000000;stroke-width:1.5;"/><rect fill="none" height="366.8906" style="stroke:#000000;stroke-width:1.5;" width="548.7324" x="27" y="247.0625"/><text fill="#000000" font-family="Helvetica" font-size="10" font-weight="bold" x="42" y="257.3447">alt</text><text fill="#000000" font-family="Helvetica" font-size="10" font-weight="bold" x="101.9561" y="258.3447">[Windows / Linux (TPM)]</text><line style="stroke:#000000;stroke-width:1;stroke-dasharray:2,2;" x1="27" x2="575.7324" y1="421.5469" y2="421.5469"/><text fill="#000000" font-family="Helvetica" font-size="10" font-weight="bold" x="32" y="432.8291">[macOS (Secure Enclave)]</text><polygon fill="#181818" points="64,295.9844,54,299.9844,64,303.9844,60,299.9844" style="stroke:#181818;stroke-width:1;"/><line style="stroke:#181818;stroke-width:1;" x1="58" x2="286.5967" y1="299.9844" y2="299.9844"/><text fill="#000000" font-family="Helvetica" font-size="10" x="70" y="289.8057">(04)</text><text fill="#000000" font-family="Helvetica" font-size="10" x="94.5273" y="283.9854">TPM2_Quote(PCR=[7,23],</text><text fill="#000000" font-family="Helvetica" font-size="10" x="94.5273" y="295.626">Nonce, Handle_PrK.AK.Sig)</text><polygon fill="#181818" points="275.5967,321.625,285.5967,325.625,275.5967,329.625,279.5967,325.625" style="stroke:#181818;stroke-width:1;"/><line style="stroke:#181818;stroke-width:1;stroke-dasharray:2,2;" x1="53" x2="281.5967" y1="325.625" y2="325.625"/><text fill="#000000" font-family="Helvetica" font-size="10" x="60" y="321.2666">(05)</text><text fill="#000000" font-family="Helvetica" font-size="10" x="84.5273" y="321.2666">tpm_quote (signiert mit PrK.AK.Sig)</text><polygon fill="#181818" points="64,347.2656,54,351.2656,64,355.2656,60,351.2656" style="stroke:#181818;stroke-width:1;"/><line style="stroke:#181818;stroke-width:1;" x1="58" x2="286.5967" y1="351.2656" y2="351.2656"/><text fill="#000000" font-family="Helvetica" font-size="10" x="70" y="346.9072">(06)</text><text fill="#000000" font-family="Helvetica" font-size="10" x="94.5273" y="346.9072">TPM2_GetEventLog()</text><polygon fill="#181818" points="275.5967,372.9063,285.5967,376.9063,275.5967,380.9063,279.5967,376.9063" style="stroke:#181818;stroke-width:1;"/><line style="stroke:#181818;stroke-width:1;stroke-dasharray:2,2;" x1="53" x2="281.5967" y1="376.9063" y2="376.9063"/><text fill="#000000" font-family="Helvetica" font-size="10" x="60" y="372.5479">(07)</text><text fill="#000000" font-family="Helvetica" font-size="10" x="84.5273" y="372.5479">tpm_event_log</text><polygon fill="#181818" points="542.7324,398.5469,552.7324,402.5469,542.7324,406.5469,546.7324,402.5469" style="stroke:#181818;stroke-width:1;"/><line style="stroke:#181818;stroke-width:1;stroke-dasharray:2,2;" x1="297.5967" x2="548.7324" y1="402.5469" y2="402.5469"/><text fill="#000000" font-family="Helvetica" font-size="10" x="304.5967" y="398.1885">(08)</text><text fill="#000000" font-family="Helvetica" font-size="10" x="329.124" y="398.1885">Evidence {tpm_quote, tpm_event_log}</text><line style="stroke:#181818;stroke-width:1;" x1="297.5967" x2="339.5967" y1="469.4688" y2="469.4688"/><line style="stroke:#181818;stroke-width:1;" x1="339.5967" x2="339.5967" y1="469.4688" y2="482.4688"/><line style="stroke:#181818;stroke-width:1;" x1="298.5967" x2="339.5967" y1="482.4688" y2="482.4688"/><polygon fill="#181818" points="308.5967,478.4688,298.5967,482.4688,308.5967,486.4688,304.5967,482.4688" style="stroke:#181818;stroke-width:1;"/><text fill="#000000" font-family="Helvetica" font-size="10" x="304.5967" y="459.29">(09)</text><text fill="#000000" font-family="Helvetica" font-size="10" x="329.124" y="453.4697">Ermittle Posture</text><text fill="#000000" font-family="Helvetica" font-size="10" x="329.124" y="465.1104">(SIP, Gatekeeper, OS-Version, Secure Boot)</text><polygon fill="#181818" points="64,539.0313,54,543.0313,64,547.0313,60,543.0313" style="stroke:#181818;stroke-width:1;"/><line style="stroke:#181818;stroke-width:1;" x1="58" x2="286.5967" y1="543.0313" y2="543.0313"/><text fill="#000000" font-family="Helvetica" font-size="10" x="70" y="521.2119">(10)</text><text fill="#000000" font-family="Helvetica" font-size="10" x="94.5273" y="503.751">DCAppAttest.generateAssertion(</text><text fill="#000000" font-family="Helvetica" font-size="10" x="100.8848" y="515.3916">Handle_PrK.AK.Sig,</text><text fill="#000000" font-family="Helvetica" font-size="10" x="100.8848" y="527.0322">Hash(Nonce + Posture)</text><text fill="#000000" font-family="Helvetica" font-size="10" x="94.5273" y="538.6729">)</text><polygon fill="#181818" points="275.5967,576.3125,285.5967,580.3125,275.5967,584.3125,279.5967,580.3125" style="stroke:#181818;stroke-width:1;"/><line style="stroke:#181818;stroke-width:1;stroke-dasharray:2,2;" x1="53" x2="281.5967" y1="580.3125" y2="580.3125"/><text fill="#000000" font-family="Helvetica" font-size="10" x="60" y="570.1338">(11)</text><text fill="#000000" font-family="Helvetica" font-size="10" x="84.5273" y="564.3135">dc_assertion</text><text fill="#000000" font-family="Helvetica" font-size="10" x="84.5273" y="575.9541">(CBOR: Signatur + Receipt + counter)</text><polygon fill="#181818" points="542.7324,601.9531,552.7324,605.9531,542.7324,609.9531,546.7324,605.9531" style="stroke:#181818;stroke-width:1;"/><line style="stroke:#181818;stroke-width:1;stroke-dasharray:2,2;" x1="297.5967" x2="548.7324" y1="605.9531" y2="605.9531"/><text fill="#000000" font-family="Helvetica" font-size="10" x="304.5967" y="601.5947">(12)</text><text fill="#000000" font-family="Helvetica" font-size="10" x="329.124" y="601.5947">Evidence {dc_assertion, posture, counter}</text><line style="stroke:#181818;stroke-width:1;" x1="564.7324" x2="606.7324" y1="686.875" y2="686.875"/><line style="stroke:#181818;stroke-width:1;" x1="606.7324" x2="606.7324" y1="686.875" y2="699.875"/><line style="stroke:#181818;stroke-width:1;" x1="565.7324" x2="606.7324" y1="699.875" y2="699.875"/><polygon fill="#181818" points="575.7324,695.875,565.7324,699.875,575.7324,703.875,571.7324,699.875" style="stroke:#181818;stroke-width:1;"/><text fill="#000000" font-family="Helvetica" font-size="10" x="571.7324" y="676.6963">(13)</text><text fill="#000000" font-family="Helvetica" font-size="10" x="596.2598" y="670.876">Generiere client-statement</text><text fill="#000000" font-family="Helvetica" font-size="10" x="596.2598" y="682.5166">(OS und PS Daten)</text><?plantuml-src ZPHHRziu3CVV_IbulXS7SRfUzp2Wm0vmaomjbZPU7Tnmkmo1OhEEhhRaINIxTTYtsJVP5njb9utJvd1xYHI9_F5FKhIeIQkwNA41FpW-xlcUlPMg4aQKaE6Dg0jwenKbyW7XZ-F3brUYH3Z7uWv9fg9ZCsfjBhNIjX8fPe_MGrqRYQPZMw3AQHrb_zQMG6c5dJkBdsfKALxZ3HgtEHFfRMvqhRAXBhI1zsj9NOVagSCkXvC3t4kqLkGO5J9NBEI6F8ya5GYp5Gcf8292IuAaLZ2-avdpyRpVAYFoKW2XVW0oDH-jz6Vmf-CB7twVhBMbLXS0X-FIo4ee0dyUNy8BICO-20lyX-yRlzZ8yiTtOxzOmf89Kt67AkCY0MmiFepdqPwO1CsTJ96D4w6oBsT6twl6V3_aXoXniNnU_UQQkOxuX3mi92ew1Dl7jNOjiUFN9RkjjukpNTi2HMebaVZ5pI_WvEWOHknkNTpvU7X-DPlE9dzxNLsJMfZikQokfAYcTPjZF8eNoltLHZxigeJ6FoZ8QyNt-nuNXtytkGt-t23xVJY5oNWEB_XDSjVRqm7VRoq7R73Lt7cY83XdhVV2u5wVWctFUutoNH3N6UOZRPzLqA1QCuTxBrMcxoqxJwMgFpUatcDNd3jJ-ApHoUl9ybsj2ODuUFtwdrVXoSkFuK8rp92bgQp0PMpU7aLlZnAPxq1Ets2Zfyc8gdBvoP4Wi3mLFAi4fIGuv7n8HPCI9pdLUV0_OT3PBGkTxmDt9Jvz73hu-gWhtFVzrhw-mYAK8fqb42IOrjo6iKeB7gHdQdbXhk6StA37FAnilL11SX67C164juWLcX1coU0lD9RR6CA6UQOr_MVwes5KLMtpZt9KQ9WLMSi5P4ImKF2y3s5xQjTjzw6_rTDRg8F5QsgNfKknvRBmuTdi-XIOfWIxCkCQKvGLyIxbBoNFM-zN2jobXb2rEi8jujjsoBscr8c-eUUF_OqeYXL_ePy-zdRddZjNXLyKGjgS39mdbhpZDBXr_5c7E84H7tBwBjXF?></g></svg>