<?plantuml 1.2026.2?><svg xmlns="http://www.w3.org/2000/svg" xmlns:xlink="http://www.w3.org/1999/xlink" contentStyleType="text/css" data-diagram-type="SEQUENCE" height="1395px" preserveAspectRatio="none" style="width:893px;height:1395px;background:#FFFFFF;" version="1.1" viewBox="0 0 893 1395" width="893px" zoomAndPan="magnify"><title>Token Exchange with Attestation</title><defs/><g><text fill="#000000" font-family="sans-serif" font-size="14" font-weight="bold" lengthAdjust="spacing" textLength="262.0078" x="316.7659" y="27.9951">Token Exchange with Attestation</text><rect fill="none" height="1162.1328" style="stroke:#000000;stroke-width:1.5;" width="876.5396" x="10" y="165.1563"/><rect fill="none" height="535.6016" style="stroke:#000000;stroke-width:1.5;" width="517.4009" x="359.1387" y="348.0859"/><rect fill="none" height="348.9375" style="stroke:#000000;stroke-width:1.5;" width="497.4009" x="369.1387" y="498.6172"/><rect fill="none" height="231.7344" style="stroke:#000000;stroke-width:1.5;" width="477.4009" x="379.1387" y="522.75"/><rect fill="none" height="120.4688" style="stroke:#000000;stroke-width:1.5;" width="455.0859" x="20" y="897.6875"/><g class="participant-lifeline" data-entity-uid="part1" data-qualified-name="Client" id="part1-lifeline"><g><title>PS und ZETA</title><rect fill="#000000" fill-opacity="0.00000" height="1254.3984" width="8" x="77.7139" y="89.8906"/><line style="stroke:#181818;stroke-width:0.5;stroke-dasharray:5,5;" x1="81" x2="81" y1="89.8906" y2="1344.2891"/></g></g><g class="participant-lifeline" data-entity-uid="part2" data-qualified-name="AuthS" id="part2-lifeline"><g><title>AuthS</title><rect fill="#000000" fill-opacity="0.00000" height="1254.3984" width="8" x="423.1123" y="89.8906"/><line style="stroke:#181818;stroke-width:0.5;stroke-dasharray:5,5;" x1="426.1387" x2="426.1387" y1="89.8906" y2="1344.2891"/></g></g><g class="participant-lifeline" data-entity-uid="part3" data-qualified-name="OPA" id="part3-lifeline"><g><title>OPA</title><rect fill="#000000" fill-opacity="0.00000" height="1254.3984" width="8" x="798.7827" y="89.8906"/><line style="stroke:#181818;stroke-width:0.5;stroke-dasharray:5,5;" x1="802.0259" x2="802.0259" y1="89.8906" y2="1344.2891"/></g></g><g class="participant participant-head" data-entity-uid="part1" data-qualified-name="Client" id="part1-head"><rect fill="#E2E2F0" height="46.5938" rx="2.5" ry="2.5" style="stroke:#181818;stroke-width:0.5;" width="103.4277" x="30" y="42.2969"/><text fill="#000000" font-family="sans-serif" font-size="14" lengthAdjust="spacing" textLength="89.4277" x="37" y="62.292">PS und ZETA</text><text fill="#000000" font-family="sans-serif" font-size="14" lengthAdjust="spacing" textLength="40.5303" x="61.4487" y="78.5889">Client</text></g><g class="participant participant-tail" data-entity-uid="part1" data-qualified-name="Client" id="part1-tail"><rect fill="#E2E2F0" height="46.5938" rx="2.5" ry="2.5" style="stroke:#181818;stroke-width:0.5;" width="103.4277" x="30" y="1343.2891"/><text fill="#000000" font-family="sans-serif" font-size="14" lengthAdjust="spacing" textLength="89.4277" x="37" y="1363.2842">PS und ZETA</text><text fill="#000000" font-family="sans-serif" font-size="14" lengthAdjust="spacing" textLength="40.5303" x="61.4487" y="1379.5811">Client</text></g><g class="participant participant-head" data-entity-uid="part2" data-qualified-name="AuthS" id="part2-head"><rect fill="#E2E2F0" height="46.5938" rx="2.5" ry="2.5" style="stroke:#181818;stroke-width:0.5;" width="75.9473" x="389.1387" y="42.2969"/><text fill="#000000" font-family="sans-serif" font-size="14" lengthAdjust="spacing" textLength="41.6992" x="406.2627" y="62.292">AuthS</text><text fill="#000000" font-family="sans-serif" font-size="14" lengthAdjust="spacing" textLength="61.9473" x="396.1387" y="78.5889">(Verifier)</text></g><g class="participant participant-tail" data-entity-uid="part2" data-qualified-name="AuthS" id="part2-tail"><rect fill="#E2E2F0" height="46.5938" rx="2.5" ry="2.5" style="stroke:#181818;stroke-width:0.5;" width="75.9473" x="389.1387" y="1343.2891"/><text fill="#000000" font-family="sans-serif" font-size="14" lengthAdjust="spacing" textLength="41.6992" x="406.2627" y="1363.2842">AuthS</text><text fill="#000000" font-family="sans-serif" font-size="14" lengthAdjust="spacing" textLength="61.9473" x="396.1387" y="1379.5811">(Verifier)</text></g><g class="participant participant-head" data-entity-uid="part3" data-qualified-name="OPA" id="part3-head"><rect fill="#E2E2F0" height="46.5938" rx="2.5" ry="2.5" style="stroke:#181818;stroke-width:0.5;" width="87.5137" x="759.0259" y="42.2969"/><text fill="#000000" font-family="sans-serif" font-size="14" lengthAdjust="spacing" textLength="29.0391" x="788.2632" y="62.292">OPA</text><text fill="#000000" font-family="sans-serif" font-size="14" lengthAdjust="spacing" textLength="73.5137" x="766.0259" y="78.5889">(Endorser)</text></g><g class="participant participant-tail" data-entity-uid="part3" data-qualified-name="OPA" id="part3-tail"><rect fill="#E2E2F0" height="46.5938" rx="2.5" ry="2.5" style="stroke:#181818;stroke-width:0.5;" width="87.5137" x="759.0259" y="1343.2891"/><text fill="#000000" font-family="sans-serif" font-size="14" lengthAdjust="spacing" textLength="29.0391" x="788.2632" y="1363.2842">OPA</text><text fill="#000000" font-family="sans-serif" font-size="14" lengthAdjust="spacing" textLength="73.5137" x="766.0259" y="1379.5811">(Endorser)</text></g><g class="message" data-entity-1="part1" data-entity-2="part2" id="msg1"><polygon fill="#181818" points="415.1123,117.0234,425.1123,121.0234,415.1123,125.0234,419.1123,121.0234" style="stroke:#181818;stroke-width:1;"/><line style="stroke:#181818;stroke-width:1;" x1="81.7139" x2="421.1123" y1="121.0234" y2="121.0234"/><text fill="#000000" font-family="sans-serif" font-size="13" lengthAdjust="spacing" textLength="74.3184" x="217.2539" y="115.9575">GET /nonce</text></g><g class="message" data-entity-1="part2" data-entity-2="part1" id="msg2"><polygon fill="#181818" points="92.7139,146.1563,82.7139,150.1563,92.7139,154.1563,88.7139,150.1563" style="stroke:#181818;stroke-width:1;"/><line style="stroke:#181818;stroke-width:1;stroke-dasharray:2,2;" x1="86.7139" x2="426.1123" y1="150.1563" y2="150.1563"/><text fill="#000000" font-family="sans-serif" font-size="13" lengthAdjust="spacing" textLength="41.063" x="233.8816" y="145.0903">Nonce</text></g><path d="M10,165.1563 L74.4429,165.1563 L74.4429,172.2891 L64.4429,182.2891 L10,182.2891 L10,165.1563" fill="#EEEEEE" style="stroke:#000000;stroke-width:1.5;"/><rect fill="none" height="1162.1328" style="stroke:#000000;stroke-width:1.5;" width="876.5396" x="10" y="165.1563"/><text fill="#000000" font-family="sans-serif" font-size="13" font-weight="bold" lengthAdjust="spacing" textLength="19.4429" x="25" y="178.2231">alt</text><text fill="#000000" font-family="sans-serif" font-size="11" font-weight="bold" lengthAdjust="spacing" textLength="150.8472" x="89.4429" y="177.3667">[Initial Token Exchange]</text><g class="message" data-entity-1="part1" data-entity-2="part1" id="msg3"><line style="stroke:#181818;stroke-width:1;" x1="81.7139" x2="123.7139" y1="203.4219" y2="203.4219"/><line style="stroke:#181818;stroke-width:1;" x1="123.7139" x2="123.7139" y1="203.4219" y2="216.4219"/><line style="stroke:#181818;stroke-width:1;" x1="82.7139" x2="123.7139" y1="216.4219" y2="216.4219"/><polygon fill="#181818" points="92.7139,212.4219,82.7139,216.4219,92.7139,220.4219,88.7139,216.4219" style="stroke:#181818;stroke-width:1;"/><text fill="#000000" font-family="sans-serif" font-size="13" lengthAdjust="spacing" textLength="331.3984" x="88.7139" y="198.356">Create DPoP Key Pair (PrK.DPoP.Sig, PuK.DPoP.Sig)</text></g><path d="M431.3984,190.7891 L431.3984,215.7891 L719.3984,215.7891 L719.3984,200.7891 L709.3984,190.7891 L431.3984,190.7891" fill="#FEFFDD" style="stroke:#181818;stroke-width:0.5;"/><path d="M709.3984,190.7891 L709.3984,200.7891 L719.3984,200.7891 L709.3984,190.7891" fill="#FEFFDD" style="stroke:#181818;stroke-width:0.5;"/><text fill="#000000" font-family="sans-serif" font-size="13" lengthAdjust="spacing" textLength="267.2808" x="437.3984" y="207.856">Session-based Key Pair for DPoP binding.</text><g class="message" data-entity-1="part1" data-entity-2="part1" id="msg5"><line style="stroke:#181818;stroke-width:1;" x1="81.7139" x2="123.7139" y1="245.5547" y2="245.5547"/><line style="stroke:#181818;stroke-width:1;" x1="123.7139" x2="123.7139" y1="245.5547" y2="258.5547"/><line style="stroke:#181818;stroke-width:1;" x1="82.7139" x2="123.7139" y1="258.5547" y2="258.5547"/><polygon fill="#181818" points="92.7139,254.5547,82.7139,258.5547,92.7139,262.5547,88.7139,258.5547" style="stroke:#181818;stroke-width:1;"/><text fill="#000000" font-family="sans-serif" font-size="13" lengthAdjust="spacing" textLength="283.6323" x="88.7139" y="240.4888">Create DPoP Proof (with Nonce from AuthS)</text></g><g class="message" data-entity-1="part1" data-entity-2="part2" id="msg6"><polygon fill="#181818" points="415.1123,329.0859,425.1123,333.0859,415.1123,337.0859,419.1123,333.0859" style="stroke:#181818;stroke-width:1;"/><line style="stroke:#181818;stroke-width:1;" x1="81.7139" x2="421.1123" y1="333.0859" y2="333.0859"/><text fill="#000000" font-family="sans-serif" font-size="13" lengthAdjust="spacing" textLength="79.5933" x="214.6165" y="282.6216">POST /token</text><text fill="#000000" font-family="sans-serif" font-size="13" lengthAdjust="spacing" textLength="302.3198" x="103.2532" y="297.7544">{client_assertion (JWT, PrK.Client.Sig signiert),</text><text fill="#000000" font-family="sans-serif" font-size="13" lengthAdjust="spacing" textLength="284.6416" x="112.0923" y="312.8872">subject_token (SMC-B signiert, inkl. Nonce),</text><text fill="#000000" font-family="sans-serif" font-size="13" lengthAdjust="spacing" textLength="77.5684" x="215.6289" y="328.02">[Evidence]}</text></g><path d="M359.1387,348.0859 L632.21,348.0859 L632.21,355.2188 L622.21,365.2188 L359.1387,365.2188 L359.1387,348.0859" fill="#EEEEEE" style="stroke:#000000;stroke-width:1.5;"/><rect fill="none" height="535.6016" style="stroke:#000000;stroke-width:1.5;" width="517.4009" x="359.1387" y="348.0859"/><text fill="#000000" font-family="sans-serif" font-size="13" font-weight="bold" lengthAdjust="spacing" textLength="228.0713" x="374.1387" y="361.1528">AuthS (Verifier &amp; Policy Check)</text><g class="message" data-entity-1="part2" data-entity-2="part2" id="msg7"><line style="stroke:#181818;stroke-width:1;" x1="427.1123" x2="469.1123" y1="386.3516" y2="386.3516"/><line style="stroke:#181818;stroke-width:1;" x1="469.1123" x2="469.1123" y1="386.3516" y2="399.3516"/><line style="stroke:#181818;stroke-width:1;" x1="428.1123" x2="469.1123" y1="399.3516" y2="399.3516"/><polygon fill="#181818" points="438.1123,395.3516,428.1123,399.3516,438.1123,403.3516,434.1123,399.3516" style="stroke:#181818;stroke-width:1;"/><text fill="#000000" font-family="sans-serif" font-size="13" lengthAdjust="spacing" textLength="361.6704" x="434.1123" y="381.2856">Verifiziere client_assertion mit PuK.Client.Sig (aus DCR)</text></g><g class="message" data-entity-1="part2" data-entity-2="part2" id="msg8"><line style="stroke:#181818;stroke-width:1;" x1="427.1123" x2="469.1123" y1="428.4844" y2="428.4844"/><line style="stroke:#181818;stroke-width:1;" x1="469.1123" x2="469.1123" y1="428.4844" y2="441.4844"/><line style="stroke:#181818;stroke-width:1;" x1="428.1123" x2="469.1123" y1="441.4844" y2="441.4844"/><polygon fill="#181818" points="438.1123,437.4844,428.1123,441.4844,438.1123,445.4844,434.1123,441.4844" style="stroke:#181818;stroke-width:1;"/><text fill="#000000" font-family="sans-serif" font-size="13" lengthAdjust="spacing" textLength="321.4771" x="434.1123" y="423.4185">Verifiziere subject_token (SMC-B Zertifikat TI-PKI)</text></g><g class="message" data-entity-1="part2" data-entity-2="part2" id="msg9"><line style="stroke:#181818;stroke-width:1;" x1="427.1123" x2="469.1123" y1="470.6172" y2="470.6172"/><line style="stroke:#181818;stroke-width:1;" x1="469.1123" x2="469.1123" y1="470.6172" y2="483.6172"/><line style="stroke:#181818;stroke-width:1;" x1="428.1123" x2="469.1123" y1="483.6172" y2="483.6172"/><polygon fill="#181818" points="438.1123,479.6172,428.1123,483.6172,438.1123,487.6172,434.1123,483.6172" style="stroke:#181818;stroke-width:1;"/><text fill="#000000" font-family="sans-serif" font-size="13" lengthAdjust="spacing" textLength="234.3809" x="434.1123" y="465.5513">Extrahiere Nonce aus subject_token</text></g><path d="M369.1387,498.6172 L433.5815,498.6172 L433.5815,505.75 L423.5815,515.75 L369.1387,515.75 L369.1387,498.6172" fill="#EEEEEE" style="stroke:#000000;stroke-width:1.5;"/><rect fill="none" height="348.9375" style="stroke:#000000;stroke-width:1.5;" width="497.4009" x="369.1387" y="498.6172"/><text fill="#000000" font-family="sans-serif" font-size="13" font-weight="bold" lengthAdjust="spacing" textLength="19.4429" x="384.1387" y="511.6841">alt</text><text fill="#000000" font-family="sans-serif" font-size="11" font-weight="bold" lengthAdjust="spacing" textLength="211.9272" x="448.5815" y="510.8276">[Hardware Attestation (TPM / SE)]</text><path d="M379.1387,522.75 L443.5815,522.75 L443.5815,529.8828 L433.5815,539.8828 L379.1387,539.8828 L379.1387,522.75" fill="#EEEEEE" style="stroke:#000000;stroke-width:1.5;"/><rect fill="none" height="231.7344" style="stroke:#000000;stroke-width:1.5;" width="477.4009" x="379.1387" y="522.75"/><text fill="#000000" font-family="sans-serif" font-size="13" font-weight="bold" lengthAdjust="spacing" textLength="19.4429" x="394.1387" y="535.8169">alt</text><text fill="#000000" font-family="sans-serif" font-size="11" font-weight="bold" lengthAdjust="spacing" textLength="151.54" x="458.5815" y="534.9604">[Windows / Linux (TPM)]</text><g class="message" data-entity-1="part2" data-entity-2="part2" id="msg10"><line style="stroke:#181818;stroke-width:1;" x1="427.1123" x2="469.1123" y1="576.1484" y2="576.1484"/><line style="stroke:#181818;stroke-width:1;" x1="469.1123" x2="469.1123" y1="576.1484" y2="589.1484"/><line style="stroke:#181818;stroke-width:1;" x1="428.1123" x2="469.1123" y1="589.1484" y2="589.1484"/><polygon fill="#181818" points="438.1123,585.1484,428.1123,589.1484,438.1123,593.1484,434.1123,589.1484" style="stroke:#181818;stroke-width:1;"/><text fill="#000000" font-family="sans-serif" font-size="13" lengthAdjust="spacing" textLength="246.7144" x="434.1123" y="555.9497">Verifiziere Hardware-Signatur (Quote)</text><text fill="#000000" font-family="sans-serif" font-size="13" lengthAdjust="spacing" textLength="162.4556" x="476.2417" y="571.0825">gegen extrahierte Nonce</text></g><g class="message" data-entity-1="part2" data-entity-2="part2" id="msg11"><line style="stroke:#181818;stroke-width:1;" x1="427.1123" x2="469.1123" y1="618.2813" y2="618.2813"/><line style="stroke:#181818;stroke-width:1;" x1="469.1123" x2="469.1123" y1="618.2813" y2="631.2813"/><line style="stroke:#181818;stroke-width:1;" x1="428.1123" x2="469.1123" y1="631.2813" y2="631.2813"/><polygon fill="#181818" points="438.1123,627.2813,428.1123,631.2813,438.1123,635.2813,434.1123,631.2813" style="stroke:#181818;stroke-width:1;"/><text fill="#000000" font-family="sans-serif" font-size="13" lengthAdjust="spacing" textLength="167.5527" x="434.1123" y="613.2153">PCR-Replay via Event Log</text></g><g class="message" data-entity-1="part2" data-entity-2="part3" id="msg12"><polygon fill="#181818" points="790.7827,656.4141,800.7827,660.4141,790.7827,664.4141,794.7827,660.4141" style="stroke:#181818;stroke-width:1;"/><line style="stroke:#181818;stroke-width:1;" x1="427.1123" x2="796.7827" y1="660.4141" y2="660.4141"/><text fill="#000000" font-family="sans-serif" font-size="13" lengthAdjust="spacing" textLength="291.5859" x="469.1545" y="655.3481">Check PCR 7 &amp; PCR 23 gegen Referenzwerte</text></g><line style="stroke:#000000;stroke-width:1;stroke-dasharray:2,2;" x1="379.1387" x2="856.5396" y1="669.4141" y2="669.4141"/><text fill="#000000" font-family="sans-serif" font-size="11" font-weight="bold" lengthAdjust="spacing" textLength="160.7568" x="384.1387" y="679.6245">[macOS (Secure Enclave)]</text><g class="message" data-entity-1="part2" data-entity-2="part2" id="msg13"><line style="stroke:#181818;stroke-width:1;" x1="427.1123" x2="469.1123" y1="704.3516" y2="704.3516"/><line style="stroke:#181818;stroke-width:1;" x1="469.1123" x2="469.1123" y1="704.3516" y2="717.3516"/><line style="stroke:#181818;stroke-width:1;" x1="428.1123" x2="469.1123" y1="717.3516" y2="717.3516"/><polygon fill="#181818" points="438.1123,713.3516,428.1123,717.3516,438.1123,721.3516,434.1123,717.3516" style="stroke:#181818;stroke-width:1;"/><text fill="#000000" font-family="sans-serif" font-size="13" lengthAdjust="spacing" textLength="310.7495" x="434.1123" y="699.2856">Pr&#252;fe counter &gt; letzter counter (Replay-Schutz)</text></g><g class="message" data-entity-1="part2" data-entity-2="part3" id="msg14"><polygon fill="#181818" points="790.7827,742.4844,800.7827,746.4844,790.7827,750.4844,794.7827,746.4844" style="stroke:#181818;stroke-width:1;"/><line style="stroke:#181818;stroke-width:1;" x1="427.1123" x2="796.7827" y1="746.4844" y2="746.4844"/><text fill="#000000" font-family="sans-serif" font-size="13" lengthAdjust="spacing" textLength="287.8472" x="471.0239" y="741.4185">Check macOS Posture gegen Referenzwerte</text></g><line style="stroke:#000000;stroke-width:1;stroke-dasharray:2,2;" x1="369.1387" x2="866.5396" y1="762.4844" y2="762.4844"/><text fill="#000000" font-family="sans-serif" font-size="11" font-weight="bold" lengthAdjust="spacing" textLength="205.5088" x="374.1387" y="772.6948">[Software Attestation (Fallback)]</text><g class="message" data-entity-1="part2" data-entity-2="part2" id="msg15"><line style="stroke:#181818;stroke-width:1;" x1="427.1123" x2="469.1123" y1="797.4219" y2="797.4219"/><line style="stroke:#181818;stroke-width:1;" x1="469.1123" x2="469.1123" y1="797.4219" y2="810.4219"/><line style="stroke:#181818;stroke-width:1;" x1="428.1123" x2="469.1123" y1="810.4219" y2="810.4219"/><polygon fill="#181818" points="438.1123,806.4219,428.1123,810.4219,438.1123,814.4219,434.1123,810.4219" style="stroke:#181818;stroke-width:1;"/><text fill="#000000" font-family="sans-serif" font-size="13" lengthAdjust="spacing" textLength="234.8379" x="434.1123" y="792.356">Extrahiere client-statement aus JWT</text></g><g class="message" data-entity-1="part2" data-entity-2="part3" id="msg16"><polygon fill="#181818" points="790.7827,835.5547,800.7827,839.5547,790.7827,843.5547,794.7827,839.5547" style="stroke:#181818;stroke-width:1;"/><line style="stroke:#181818;stroke-width:1;" x1="427.1123" x2="796.7827" y1="839.5547" y2="839.5547"/><text fill="#000000" font-family="sans-serif" font-size="13" lengthAdjust="spacing" textLength="254.8521" x="487.5215" y="834.4888">Check Selbstauskunft (Software Policy)</text></g><g class="message" data-entity-1="part3" data-entity-2="part2" id="msg17"><polygon fill="#181818" points="438.1123,871.6875,428.1123,875.6875,438.1123,879.6875,434.1123,875.6875" style="stroke:#181818;stroke-width:1;"/><line style="stroke:#181818;stroke-width:1;stroke-dasharray:2,2;" x1="432.1123" x2="801.7827" y1="875.6875" y2="875.6875"/><text fill="#000000" font-family="sans-serif" font-size="13" lengthAdjust="spacing" textLength="204.0073" x="512.9438" y="870.6216">Attestation Result (Allow/Deny)</text></g><path d="M20,897.6875 L84.4429,897.6875 L84.4429,904.8203 L74.4429,914.8203 L20,914.8203 L20,897.6875" fill="#EEEEEE" style="stroke:#000000;stroke-width:1.5;"/><rect fill="none" height="120.4688" style="stroke:#000000;stroke-width:1.5;" width="455.0859" x="20" y="897.6875"/><text fill="#000000" font-family="sans-serif" font-size="13" font-weight="bold" lengthAdjust="spacing" textLength="19.4429" x="35" y="910.7544">alt</text><text fill="#000000" font-family="sans-serif" font-size="11" font-weight="bold" lengthAdjust="spacing" textLength="182.8105" x="99.4429" y="909.8979">[Token Exchange erfolgreich]</text><g class="message" data-entity-1="part2" data-entity-2="part1" id="msg18"><polygon fill="#181818" points="92.7139,962.2188,82.7139,966.2188,92.7139,970.2188,88.7139,966.2188" style="stroke:#181818;stroke-width:1;"/><line style="stroke:#181818;stroke-width:1;stroke-dasharray:2,2;" x1="86.7139" x2="426.1123" y1="966.2188" y2="966.2188"/><text fill="#000000" font-family="sans-serif" font-size="13" lengthAdjust="spacing" textLength="47.7026" x="230.5618" y="930.8872">200 OK</text><text fill="#000000" font-family="sans-serif" font-size="13" lengthAdjust="spacing" textLength="202.9473" x="152.9395" y="946.02">{Access Token, Refresh Token,</text><text fill="#000000" font-family="sans-serif" font-size="13" lengthAdjust="spacing" textLength="205.9814" x="151.4224" y="961.1528">ZETA Guard Attestation Token}</text></g><line style="stroke:#000000;stroke-width:1;stroke-dasharray:2,2;" x1="20" x2="475.0859" y1="975.2188" y2="975.2188"/><text fill="#000000" font-family="sans-serif" font-size="11" font-weight="bold" lengthAdjust="spacing" textLength="176.9614" x="25" y="985.4292">[Token Exchange fehlerhaft]</text><g class="message" data-entity-1="part2" data-entity-2="part1" id="msg19"><polygon fill="#181818" points="92.7139,1006.1563,82.7139,1010.1563,92.7139,1014.1563,88.7139,1010.1563" style="stroke:#181818;stroke-width:1;"/><line style="stroke:#181818;stroke-width:1;stroke-dasharray:2,2;" x1="86.7139" x2="426.1123" y1="1010.1563" y2="1010.1563"/><text fill="#000000" font-family="sans-serif" font-size="13" lengthAdjust="spacing" textLength="94.3262" x="207.25" y="1005.0903">403 Forbidden</text></g><line style="stroke:#000000;stroke-width:1;stroke-dasharray:2,2;" x1="10" x2="886.5396" y1="1026.1563" y2="1026.1563"/><text fill="#000000" font-family="sans-serif" font-size="11" font-weight="bold" lengthAdjust="spacing" textLength="260.7183" x="15" y="1036.3667">[Refresh Token use (without Attestation)]</text><g class="message" data-entity-1="part1" data-entity-2="part1" id="msg20"><line style="stroke:#181818;stroke-width:1;" x1="81.7139" x2="123.7139" y1="1061.0938" y2="1061.0938"/><line style="stroke:#181818;stroke-width:1;" x1="123.7139" x2="123.7139" y1="1061.0938" y2="1074.0938"/><line style="stroke:#181818;stroke-width:1;" x1="82.7139" x2="123.7139" y1="1074.0938" y2="1074.0938"/><polygon fill="#181818" points="92.7139,1070.0938,82.7139,1074.0938,92.7139,1078.0938,88.7139,1074.0938" style="stroke:#181818;stroke-width:1;"/><text fill="#000000" font-family="sans-serif" font-size="13" lengthAdjust="spacing" textLength="227.3984" x="88.7139" y="1056.0278">Create DPoP Proof (without Nonce)</text></g><g class="message" data-entity-1="part1" data-entity-2="part1" id="msg21"><line style="stroke:#181818;stroke-width:1;" x1="81.7139" x2="123.7139" y1="1103.2266" y2="1103.2266"/><line style="stroke:#181818;stroke-width:1;" x1="123.7139" x2="123.7139" y1="1103.2266" y2="1116.2266"/><line style="stroke:#181818;stroke-width:1;" x1="82.7139" x2="123.7139" y1="1116.2266" y2="1116.2266"/><polygon fill="#181818" points="92.7139,1112.2266,82.7139,1116.2266,92.7139,1120.2266,88.7139,1116.2266" style="stroke:#181818;stroke-width:1;"/><text fill="#000000" font-family="sans-serif" font-size="13" lengthAdjust="spacing" textLength="317.9287" x="88.7139" y="1098.1606">Create Client Assertion JWT (without Attestation)</text></g><g class="message" data-entity-1="part1" data-entity-2="part2" id="msg22"><polygon fill="#181818" points="415.1123,1186.7578,425.1123,1190.7578,415.1123,1194.7578,419.1123,1190.7578" style="stroke:#181818;stroke-width:1;"/><line style="stroke:#181818;stroke-width:1;" x1="81.7139" x2="421.1123" y1="1190.7578" y2="1190.7578"/><text fill="#000000" font-family="sans-serif" font-size="13" lengthAdjust="spacing" textLength="79.5933" x="214.6165" y="1140.2935">POST /token</text><text fill="#000000" font-family="sans-serif" font-size="13" lengthAdjust="spacing" textLength="302.3198" x="103.2532" y="1155.4263">{client_assertion (JWT, PrK.Client.Sig signiert),</text><text fill="#000000" font-family="sans-serif" font-size="13" lengthAdjust="spacing" textLength="93.7231" x="207.5515" y="1170.5591">refresh_token,</text><text fill="#000000" font-family="sans-serif" font-size="13" lengthAdjust="spacing" textLength="272.6763" x="118.075" y="1185.6919">dpop_proof (JWT, DPoP Key Pair signiert)}</text></g><g class="message" data-entity-1="part2" data-entity-2="part2" id="msg23"><line style="stroke:#181818;stroke-width:1;" x1="427.1123" x2="469.1123" y1="1235.0234" y2="1235.0234"/><line style="stroke:#181818;stroke-width:1;" x1="469.1123" x2="469.1123" y1="1235.0234" y2="1248.0234"/><line style="stroke:#181818;stroke-width:1;" x1="428.1123" x2="469.1123" y1="1248.0234" y2="1248.0234"/><polygon fill="#181818" points="438.1123,1244.0234,428.1123,1248.0234,438.1123,1252.0234,434.1123,1248.0234" style="stroke:#181818;stroke-width:1;"/><text fill="#000000" font-family="sans-serif" font-size="13" lengthAdjust="spacing" textLength="226.7065" x="434.1123" y="1214.8247">Validate Request (Client Assertion,</text><text fill="#000000" font-family="sans-serif" font-size="13" lengthAdjust="spacing" textLength="178.5342" x="458.1985" y="1229.9575">DPoP Proof, Refresh Token)</text></g><g class="message" data-entity-1="part2" data-entity-2="part2" id="msg24"><line style="stroke:#181818;stroke-width:1;" x1="427.1123" x2="469.1123" y1="1277.1563" y2="1277.1563"/><line style="stroke:#181818;stroke-width:1;" x1="469.1123" x2="469.1123" y1="1277.1563" y2="1290.1563"/><line style="stroke:#181818;stroke-width:1;" x1="428.1123" x2="469.1123" y1="1290.1563" y2="1290.1563"/><polygon fill="#181818" points="438.1123,1286.1563,428.1123,1290.1563,438.1123,1294.1563,434.1123,1290.1563" style="stroke:#181818;stroke-width:1;"/><text fill="#000000" font-family="sans-serif" font-size="13" lengthAdjust="spacing" textLength="159.3135" x="434.1123" y="1272.0903">Invalidate Refresh token</text></g><g class="message" data-entity-1="part2" data-entity-2="part1" id="msg25"><polygon fill="#181818" points="92.7139,1315.2891,82.7139,1319.2891,92.7139,1323.2891,88.7139,1319.2891" style="stroke:#181818;stroke-width:1;"/><line style="stroke:#181818;stroke-width:1;stroke-dasharray:2,2;" x1="86.7139" x2="426.1123" y1="1319.2891" y2="1319.2891"/><text fill="#000000" font-family="sans-serif" font-size="13" lengthAdjust="spacing" textLength="130.5586" x="189.1338" y="1314.2231">200 OK, new tokens</text></g><?plantuml-src hLRRRjj647tdLmpoK520Q1j9WG9-2A3AJE8whXbHI81KXR4YX-HMgrrrBvBj8d_Mj_nOPhcwKOaZ1uXUp5tEd3rdvkpGPiRbWcas1uF_EfG5NgCnhCQ1uBM40gL57Lbk1S9OpL12UbSqJDO8AsuR65YBnZBBbOmY0hAyu0icBJpBSd2oX8_fU32HGy49wHam0-6n6pjmjiadCdwFcbSSTQ-DR7UxWJSPWSMfB9Kscp3QYwA02idBa7KEhzCnd4f5Wg9s1n9w5wBEuSzsFsB2mgNabZDn82u2-kqmrq_dCDJ8BC95fZAumdl86DSGP_hgn6-TvBpkG-PsgruB91NbQ5utT7HEvQLY9LDciDnXL4e7r2cN9PVrIVGK2fbMgeAuxKIh2Igjvg44lGE0TLsocvmAOxtQYVolQ5_VCaFLz3s4-8yFOv90WaAc5m66h41TiRt-H1et_GSBUziYG9nV3vFVjm5zu78cJW8N7_rNkkIbTzNVduAWMYkt25nWssxu1J8bU74FmmQBMM3kV-lERSc7X0TAGVYA-fpRjlPxn6Fc35mCHqz3_AQqZnwzuZDcONoPP5UNZsEbTrQpfeKApV2dTq2tgTi7Ry4tJ9ShHbbxbmdYSNODfv2dk_CsyH_88cfbwErRBjrT6zgDEgPqSs92HPBCElBmEqScxKt8-pM9nuqKkzPo53uRZf8HBWIxXoLda2wzxTwg-l54khVdeU4-6NxpBg2_prz0u332YhZAXvLdqO51OH3chBWX3-LOE5AKoaAm9HulGwO__r-HUvJpamrUWa3xu9ysEt5GaUH5u-n3xqdy0vTC6Ukv7AKloyuwwkZALMM_TiCh9iIKxT-D8muCroFn03ZtlV1cfCiT7TEIevXIbZCp9ojB1Txm2LTqHs1VnlQ1WDf9koQqhs64nf5xuu4GQdLwWNADvN6YZRSFlZ6eAoLgZRne3g_TtZX_VdO6DrSqpWP5GUCrWFHz1pIQPhsSIFyfWjUElD_XrRx-56qRS42XmaQWRbXblyFWrxCNy4hfAI_BzIrlLRLu7HhWQASTsChPVHgz7vptFZsCsIE9w_LWEoV914zYy9C-63h83mEGrkL2BMuNGKYRs_sORbD3HxeE9rNlcU2brpNo_wyOyjEXG3fZLwm35_IYRrsRIxdSeORetRX-p6vzaBWASIQYRdy1?></g></svg>