<?plantuml 1.2026.2?><svg xmlns="http://www.w3.org/2000/svg" xmlns:xlink="http://www.w3.org/1999/xlink" contentStyleType="text/css" data-diagram-type="SEQUENCE" height="1771px" preserveAspectRatio="none" style="width:1180px;height:1771px;background:#FFFFFF;" version="1.1" viewBox="0 0 1180 1771" width="1180px" zoomAndPan="magnify"><title>Token Exchange with Attestation</title><defs/><g><text fill="#000000" font-family="sans-serif" font-size="14" font-weight="bold" lengthAdjust="spacing" textLength="262.0078" x="460.2495" y="27.9951">Token Exchange with Attestation</text><g><title>Konnektor or</title><rect fill="#FFFFFF" height="87.3984" style="stroke:#181818;stroke-width:1;" width="10" x="52.3975" y="163.1563"/></g><g><title>SM.C.-B</title><rect fill="#FFFFFF" height="29.1328" style="stroke:#181818;stroke-width:1;" width="10" x="212.9844" y="192.2891"/></g><g><title>PS und ZETA</title><rect fill="#FFFFFF" height="1610.6641" style="stroke:#181818;stroke-width:1;" width="10" x="323.6812" y="99.8906"/></g><g><title>AuthS</title><rect fill="#FFFFFF" height="734.3359" style="stroke:#181818;stroke-width:1;" width="10" x="689.0796" y="475.6172"/></g><g><title>AuthS</title><rect fill="#FFFFFF" height="312.1328" style="stroke:#181818;stroke-width:1;" width="10" x="689.0796" y="1375.4219"/></g><g><title>OPA</title><rect fill="#FFFFFF" height="215.2734" style="stroke:#181818;stroke-width:1;" width="10" x="1084.75" y="802.9453"/></g><g><title>OPA</title><rect fill="#FFFFFF" height="29.1328" style="stroke:#181818;stroke-width:1;" width="10" x="1084.75" y="1503.9531"/></g><rect fill="none" height="1394.8672" style="stroke:#000000;stroke-width:1.5;" width="916.5396" x="256.9673" y="307.6875"/><rect fill="none" height="535.6016" style="stroke:#000000;stroke-width:1.5;" width="537.4009" x="626.106" y="490.6172"/><rect fill="none" height="348.9375" style="stroke:#000000;stroke-width:1.5;" width="517.4009" x="636.106" y="641.1484"/><rect fill="none" height="231.7344" style="stroke:#000000;stroke-width:1.5;" width="497.4009" x="646.106" y="665.2813"/><rect fill="none" height="177.7344" style="stroke:#000000;stroke-width:1.5;" width="776.9971" x="266.9673" y="1040.2188"/><rect fill="none" height="147.4688" style="stroke:#000000;stroke-width:1.5;" width="753.2061" x="266.9673" y="1548.0859"/><g class="participant-lifeline" data-entity-uid="part1" data-qualified-name="Konnektor" id="part1-lifeline"><g><title>Konnektor or</title><rect fill="#000000" fill-opacity="0.00000" height="1629.6641" width="8" x="53.3975" y="89.8906"/><line style="stroke:#181818;stroke-width:0.5;stroke-dasharray:5,5;" x1="57" x2="57" y1="89.8906" y2="1719.5547"/></g></g><g class="participant-lifeline" data-entity-uid="part2" data-qualified-name="SMB" id="part2-lifeline"><g><title>SM.C.-B</title><rect fill="#000000" fill-opacity="0.00000" height="1629.6641" width="8" x="213.9844" y="89.8906"/><line style="stroke:#181818;stroke-width:0.5;stroke-dasharray:5,5;" x1="217.8237" x2="217.8237" y1="89.8906" y2="1719.5547"/></g></g><g class="participant-lifeline" data-entity-uid="part3" data-qualified-name="Client" id="part3-lifeline"><g><title>PS und ZETA</title><rect fill="#000000" fill-opacity="0.00000" height="1629.6641" width="8" x="324.6812" y="89.8906"/><line style="stroke:#181818;stroke-width:0.5;stroke-dasharray:5,5;" x1="327.9673" x2="327.9673" y1="89.8906" y2="1719.5547"/></g></g><g class="participant-lifeline" data-entity-uid="part4" data-qualified-name="AuthS" id="part4-lifeline"><g><title>AuthS</title><rect fill="#000000" fill-opacity="0.00000" height="1629.6641" width="8" x="690.0796" y="89.8906"/><line style="stroke:#181818;stroke-width:0.5;stroke-dasharray:5,5;" x1="693.106" x2="693.106" y1="89.8906" y2="1719.5547"/></g></g><g class="participant-lifeline" data-entity-uid="part5" data-qualified-name="OPA" id="part5-lifeline"><g><title>OPA</title><rect fill="#000000" fill-opacity="0.00000" height="1629.6641" width="8" x="1085.75" y="89.8906"/><line style="stroke:#181818;stroke-width:0.5;stroke-dasharray:5,5;" x1="1088.9932" x2="1088.9932" y1="89.8906" y2="1719.5547"/></g></g><g class="participant participant-head" data-entity-uid="part1" data-qualified-name="Konnektor" id="part1-head"><rect fill="#E2E2F0" height="46.5938" rx="2.5" ry="2.5" style="stroke:#181818;stroke-width:0.5;" width="104.7949" x="5" y="42.2969"/><text fill="#000000" font-family="sans-serif" font-size="14" lengthAdjust="spacing" textLength="90.7949" x="12" y="62.292">Konnektor or</text><text fill="#000000" font-family="sans-serif" font-size="14" lengthAdjust="spacing" textLength="79.5771" x="17.6089" y="78.5889">TI-Gateway</text></g><g class="participant participant-tail" data-entity-uid="part1" data-qualified-name="Konnektor" id="part1-tail"><rect fill="#E2E2F0" height="46.5938" rx="2.5" ry="2.5" style="stroke:#181818;stroke-width:0.5;" width="104.7949" x="5" y="1718.5547"/><text fill="#000000" font-family="sans-serif" font-size="14" lengthAdjust="spacing" textLength="90.7949" x="12" y="1738.5498">Konnektor or</text><text fill="#000000" font-family="sans-serif" font-size="14" lengthAdjust="spacing" textLength="79.5771" x="17.6089" y="1754.8467">TI-Gateway</text></g><g class="participant participant-head" data-entity-uid="part2" data-qualified-name="SMB" id="part2-head"><rect fill="#E2E2F0" height="30.2969" rx="2.5" ry="2.5" style="stroke:#181818;stroke-width:0.5;" width="70.3213" x="182.8237" y="58.5938"/><text fill="#000000" font-family="sans-serif" font-size="14" lengthAdjust="spacing" textLength="56.3213" x="189.8237" y="78.5889">SM(C)-B</text></g><g class="participant participant-tail" data-entity-uid="part2" data-qualified-name="SMB" id="part2-tail"><rect fill="#E2E2F0" height="30.2969" rx="2.5" ry="2.5" style="stroke:#181818;stroke-width:0.5;" width="70.3213" x="182.8237" y="1718.5547"/><text fill="#000000" font-family="sans-serif" font-size="14" lengthAdjust="spacing" textLength="56.3213" x="189.8237" y="1738.5498">SM(C)-B</text></g><g class="participant participant-head" data-entity-uid="part3" data-qualified-name="Client" id="part3-head"><rect fill="#E2E2F0" height="46.5938" rx="2.5" ry="2.5" style="stroke:#181818;stroke-width:0.5;" width="103.4277" x="276.9673" y="42.2969"/><text fill="#000000" font-family="sans-serif" font-size="14" lengthAdjust="spacing" textLength="89.4277" x="283.9673" y="62.292">PS und ZETA</text><text fill="#000000" font-family="sans-serif" font-size="14" lengthAdjust="spacing" textLength="40.5303" x="308.416" y="78.5889">Client</text></g><g class="participant participant-tail" data-entity-uid="part3" data-qualified-name="Client" id="part3-tail"><rect fill="#E2E2F0" height="46.5938" rx="2.5" ry="2.5" style="stroke:#181818;stroke-width:0.5;" width="103.4277" x="276.9673" y="1718.5547"/><text fill="#000000" font-family="sans-serif" font-size="14" lengthAdjust="spacing" textLength="89.4277" x="283.9673" y="1738.5498">PS und ZETA</text><text fill="#000000" font-family="sans-serif" font-size="14" lengthAdjust="spacing" textLength="40.5303" x="308.416" y="1754.8467">Client</text></g><g class="participant participant-head" data-entity-uid="part4" data-qualified-name="AuthS" id="part4-head"><rect fill="#E2E2F0" height="46.5938" rx="2.5" ry="2.5" style="stroke:#181818;stroke-width:0.5;" width="75.9473" x="656.106" y="42.2969"/><text fill="#000000" font-family="sans-serif" font-size="14" lengthAdjust="spacing" textLength="41.6992" x="673.23" y="62.292">AuthS</text><text fill="#000000" font-family="sans-serif" font-size="14" lengthAdjust="spacing" textLength="61.9473" x="663.106" y="78.5889">(Verifier)</text></g><g class="participant participant-tail" data-entity-uid="part4" data-qualified-name="AuthS" id="part4-tail"><rect fill="#E2E2F0" height="46.5938" rx="2.5" ry="2.5" style="stroke:#181818;stroke-width:0.5;" width="75.9473" x="656.106" y="1718.5547"/><text fill="#000000" font-family="sans-serif" font-size="14" lengthAdjust="spacing" textLength="41.6992" x="673.23" y="1738.5498">AuthS</text><text fill="#000000" font-family="sans-serif" font-size="14" lengthAdjust="spacing" textLength="61.9473" x="663.106" y="1754.8467">(Verifier)</text></g><g class="participant participant-head" data-entity-uid="part5" data-qualified-name="OPA" id="part5-head"><rect fill="#E2E2F0" height="46.5938" rx="2.5" ry="2.5" style="stroke:#181818;stroke-width:0.5;" width="87.5137" x="1045.9932" y="42.2969"/><text fill="#000000" font-family="sans-serif" font-size="14" lengthAdjust="spacing" textLength="29.0391" x="1075.2305" y="62.292">OPA</text><text fill="#000000" font-family="sans-serif" font-size="14" lengthAdjust="spacing" textLength="73.5137" x="1052.9932" y="78.5889">(Endorser)</text></g><g class="participant participant-tail" data-entity-uid="part5" data-qualified-name="OPA" id="part5-tail"><rect fill="#E2E2F0" height="46.5938" rx="2.5" ry="2.5" style="stroke:#181818;stroke-width:0.5;" width="87.5137" x="1045.9932" y="1718.5547"/><text fill="#000000" font-family="sans-serif" font-size="14" lengthAdjust="spacing" textLength="29.0391" x="1075.2305" y="1738.5498">OPA</text><text fill="#000000" font-family="sans-serif" font-size="14" lengthAdjust="spacing" textLength="73.5137" x="1052.9932" y="1754.8467">(Endorser)</text></g><g><title>Konnektor or</title><rect fill="#FFFFFF" height="87.3984" style="stroke:#181818;stroke-width:1;" width="10" x="52.3975" y="163.1563"/></g><g><title>SM.C.-B</title><rect fill="#FFFFFF" height="29.1328" style="stroke:#181818;stroke-width:1;" width="10" x="212.9844" y="192.2891"/></g><g><title>PS und ZETA</title><rect fill="#FFFFFF" height="1610.6641" style="stroke:#181818;stroke-width:1;" width="10" x="323.6812" y="99.8906"/></g><g><title>AuthS</title><rect fill="#FFFFFF" height="734.3359" style="stroke:#181818;stroke-width:1;" width="10" x="689.0796" y="475.6172"/></g><g><title>AuthS</title><rect fill="#FFFFFF" height="312.1328" style="stroke:#181818;stroke-width:1;" width="10" x="689.0796" y="1375.4219"/></g><g><title>OPA</title><rect fill="#FFFFFF" height="215.2734" style="stroke:#181818;stroke-width:1;" width="10" x="1084.75" y="802.9453"/></g><g><title>OPA</title><rect fill="#FFFFFF" height="29.1328" style="stroke:#181818;stroke-width:1;" width="10" x="1084.75" y="1503.9531"/></g><g class="message" data-entity-1="part3" data-entity-2="part3" id="msg1"><line style="stroke:#181818;stroke-width:1;" x1="333.6812" x2="375.6812" y1="121.0234" y2="121.0234"/><line style="stroke:#181818;stroke-width:1;" x1="375.6812" x2="375.6812" y1="121.0234" y2="134.0234"/><line style="stroke:#181818;stroke-width:1;" x1="334.6812" x2="375.6812" y1="134.0234" y2="134.0234"/><polygon fill="#181818" points="344.6812,130.0234,334.6812,134.0234,344.6812,138.0234,340.6812,134.0234" style="stroke:#181818;stroke-width:1;"/><text fill="#000000" font-family="sans-serif" font-size="13" lengthAdjust="spacing" textLength="159.1738" x="340.6812" y="115.9575">Generiere subject_token</text></g><g class="message" data-entity-1="part3" data-entity-2="part1" id="msg2"><polygon fill="#181818" points="73.3975,159.1563,63.3975,163.1563,73.3975,167.1563,69.3975,163.1563" style="stroke:#181818;stroke-width:1;"/><line style="stroke:#181818;stroke-width:1;" x1="67.3975" x2="322.6812" y1="163.1563" y2="163.1563"/><text fill="#000000" font-family="sans-serif" font-size="13" lengthAdjust="spacing" textLength="242.2837" x="71.8975" y="158.0903">externalAuthenticate (subject_token)</text></g><g class="message" data-entity-1="part1" data-entity-2="part2" id="msg3"><polygon fill="#181818" points="200.9844,188.2891,210.9844,192.2891,200.9844,196.2891,204.9844,192.2891" style="stroke:#181818;stroke-width:1;"/><line style="stroke:#181818;stroke-width:1;" x1="62.3975" x2="206.9844" y1="192.2891" y2="192.2891"/><text fill="#000000" font-family="sans-serif" font-size="13" lengthAdjust="spacing" textLength="131.5869" x="71.8975" y="187.2231">sign (subject_token)</text></g><g class="message" data-entity-1="part2" data-entity-2="part1" id="msg4"><polygon fill="#181818" points="73.3975,217.4219,63.3975,221.4219,73.3975,225.4219,69.3975,221.4219" style="stroke:#181818;stroke-width:1;"/><line style="stroke:#181818;stroke-width:1;stroke-dasharray:2,2;" x1="67.3975" x2="216.9844" y1="221.4219" y2="221.4219"/><text fill="#000000" font-family="sans-serif" font-size="13" lengthAdjust="spacing" textLength="61.5215" x="109.4302" y="216.356">signature</text></g><g class="message" data-entity-1="part1" data-entity-2="part3" id="msg5"><polygon fill="#181818" points="311.6812,246.5547,321.6812,250.5547,311.6812,254.5547,315.6812,250.5547" style="stroke:#181818;stroke-width:1;"/><line style="stroke:#181818;stroke-width:1;stroke-dasharray:2,2;" x1="57.3975" x2="317.6812" y1="250.5547" y2="250.5547"/><text fill="#000000" font-family="sans-serif" font-size="13" lengthAdjust="spacing" textLength="61.5215" x="159.7786" y="245.4888">signature</text></g><g class="message" data-entity-1="part3" data-entity-2="part3" id="msg6"><line style="stroke:#181818;stroke-width:1;" x1="333.6812" x2="375.6812" y1="279.6875" y2="279.6875"/><line style="stroke:#181818;stroke-width:1;" x1="375.6812" x2="375.6812" y1="279.6875" y2="292.6875"/><line style="stroke:#181818;stroke-width:1;" x1="334.6812" x2="375.6812" y1="292.6875" y2="292.6875"/><polygon fill="#181818" points="344.6812,288.6875,334.6812,292.6875,344.6812,296.6875,340.6812,292.6875" style="stroke:#181818;stroke-width:1;"/><text fill="#000000" font-family="sans-serif" font-size="13" lengthAdjust="spacing" textLength="202.8013" x="340.6812" y="274.6216">Add signature to subject_token</text></g><path d="M256.9673,307.6875 L321.4102,307.6875 L321.4102,314.8203 L311.4102,324.8203 L256.9673,324.8203 L256.9673,307.6875" fill="#EEEEEE" style="stroke:#000000;stroke-width:1.5;"/><rect fill="none" height="1394.8672" style="stroke:#000000;stroke-width:1.5;" width="916.5396" x="256.9673" y="307.6875"/><text fill="#000000" font-family="sans-serif" font-size="13" font-weight="bold" lengthAdjust="spacing" textLength="19.4429" x="271.9673" y="320.7544">alt</text><text fill="#000000" font-family="sans-serif" font-size="11" font-weight="bold" lengthAdjust="spacing" textLength="150.8472" x="336.4102" y="319.8979">[Initial Token Exchange]</text><g class="message" data-entity-1="part3" data-entity-2="part3" id="msg7"><line style="stroke:#181818;stroke-width:1;" x1="333.6812" x2="375.6812" y1="345.9531" y2="345.9531"/><line style="stroke:#181818;stroke-width:1;" x1="375.6812" x2="375.6812" y1="345.9531" y2="358.9531"/><line style="stroke:#181818;stroke-width:1;" x1="334.6812" x2="375.6812" y1="358.9531" y2="358.9531"/><polygon fill="#181818" points="344.6812,354.9531,334.6812,358.9531,344.6812,362.9531,340.6812,358.9531" style="stroke:#181818;stroke-width:1;"/><text fill="#000000" font-family="sans-serif" font-size="13" lengthAdjust="spacing" textLength="331.3984" x="340.6812" y="340.8872">Create DPoP Key Pair (PrK.DPoP.Sig, PuK.DPoP.Sig)</text></g><path d="M693.3984,333.3203 L693.3984,358.3203 L981.3984,358.3203 L981.3984,343.3203 L971.3984,333.3203 L693.3984,333.3203" fill="#FEFFDD" style="stroke:#181818;stroke-width:0.5;"/><path d="M971.3984,333.3203 L971.3984,343.3203 L981.3984,343.3203 L971.3984,333.3203" fill="#FEFFDD" style="stroke:#181818;stroke-width:0.5;"/><text fill="#000000" font-family="sans-serif" font-size="13" lengthAdjust="spacing" textLength="267.2808" x="699.3984" y="350.3872">Session-based Key Pair for DPoP binding.</text><g class="message" data-entity-1="part3" data-entity-2="part3" id="msg9"><line style="stroke:#181818;stroke-width:1;" x1="333.6812" x2="375.6812" y1="388.0859" y2="388.0859"/><line style="stroke:#181818;stroke-width:1;" x1="375.6812" x2="375.6812" y1="388.0859" y2="401.0859"/><line style="stroke:#181818;stroke-width:1;" x1="334.6812" x2="375.6812" y1="401.0859" y2="401.0859"/><polygon fill="#181818" points="344.6812,397.0859,334.6812,401.0859,344.6812,405.0859,340.6812,401.0859" style="stroke:#181818;stroke-width:1;"/><text fill="#000000" font-family="sans-serif" font-size="13" lengthAdjust="spacing" textLength="283.6323" x="340.6812" y="383.02">Create DPoP Proof (with Nonce from AuthS)</text></g><g class="message" data-entity-1="part3" data-entity-2="part4" id="msg10"><polygon fill="#181818" points="677.0796,471.6172,687.0796,475.6172,677.0796,479.6172,681.0796,475.6172" style="stroke:#181818;stroke-width:1;"/><line style="stroke:#181818;stroke-width:1;" x1="333.6812" x2="683.0796" y1="475.6172" y2="475.6172"/><text fill="#000000" font-family="sans-serif" font-size="13" lengthAdjust="spacing" textLength="198.2373" x="412.2617" y="425.1528">POST /token dpop: dpop_proof</text><text fill="#000000" font-family="sans-serif" font-size="13" lengthAdjust="spacing" textLength="302.3198" x="360.2205" y="440.2856">{client_assertion (JWT, PrK.Client.Sig signiert),</text><text fill="#000000" font-family="sans-serif" font-size="13" lengthAdjust="spacing" textLength="284.6416" x="369.0596" y="455.4185">subject_token (SMC-B signiert, inkl. Nonce),</text><text fill="#000000" font-family="sans-serif" font-size="13" lengthAdjust="spacing" textLength="77.5684" x="472.5962" y="470.5513">[Evidence]}</text></g><path d="M626.106,490.6172 L899.1772,490.6172 L899.1772,497.75 L889.1772,507.75 L626.106,507.75 L626.106,490.6172" fill="#EEEEEE" style="stroke:#000000;stroke-width:1.5;"/><rect fill="none" height="535.6016" style="stroke:#000000;stroke-width:1.5;" width="537.4009" x="626.106" y="490.6172"/><text fill="#000000" font-family="sans-serif" font-size="13" font-weight="bold" lengthAdjust="spacing" textLength="228.0713" x="641.106" y="503.6841">AuthS (Verifier &amp; Policy Check)</text><g class="message" data-entity-1="part4" data-entity-2="part4" id="msg11"><line style="stroke:#181818;stroke-width:1;" x1="699.0796" x2="741.0796" y1="528.8828" y2="528.8828"/><line style="stroke:#181818;stroke-width:1;" x1="741.0796" x2="741.0796" y1="528.8828" y2="541.8828"/><line style="stroke:#181818;stroke-width:1;" x1="700.0796" x2="741.0796" y1="541.8828" y2="541.8828"/><polygon fill="#181818" points="710.0796,537.8828,700.0796,541.8828,710.0796,545.8828,706.0796,541.8828" style="stroke:#181818;stroke-width:1;"/><text fill="#000000" font-family="sans-serif" font-size="13" lengthAdjust="spacing" textLength="361.6704" x="706.0796" y="523.8169">Verifiziere client_assertion mit PuK.Client.Sig (aus DCR)</text></g><g class="message" data-entity-1="part4" data-entity-2="part4" id="msg12"><line style="stroke:#181818;stroke-width:1;" x1="699.0796" x2="741.0796" y1="571.0156" y2="571.0156"/><line style="stroke:#181818;stroke-width:1;" x1="741.0796" x2="741.0796" y1="571.0156" y2="584.0156"/><line style="stroke:#181818;stroke-width:1;" x1="700.0796" x2="741.0796" y1="584.0156" y2="584.0156"/><polygon fill="#181818" points="710.0796,580.0156,700.0796,584.0156,710.0796,588.0156,706.0796,584.0156" style="stroke:#181818;stroke-width:1;"/><text fill="#000000" font-family="sans-serif" font-size="13" lengthAdjust="spacing" textLength="321.4771" x="706.0796" y="565.9497">Verifiziere subject_token (SMC-B Zertifikat TI-PKI)</text></g><g class="message" data-entity-1="part4" data-entity-2="part4" id="msg13"><line style="stroke:#181818;stroke-width:1;" x1="699.0796" x2="741.0796" y1="613.1484" y2="613.1484"/><line style="stroke:#181818;stroke-width:1;" x1="741.0796" x2="741.0796" y1="613.1484" y2="626.1484"/><line style="stroke:#181818;stroke-width:1;" x1="700.0796" x2="741.0796" y1="626.1484" y2="626.1484"/><polygon fill="#181818" points="710.0796,622.1484,700.0796,626.1484,710.0796,630.1484,706.0796,626.1484" style="stroke:#181818;stroke-width:1;"/><text fill="#000000" font-family="sans-serif" font-size="13" lengthAdjust="spacing" textLength="234.3809" x="706.0796" y="608.0825">Extrahiere Nonce aus subject_token</text></g><path d="M636.106,641.1484 L700.5488,641.1484 L700.5488,648.2813 L690.5488,658.2813 L636.106,658.2813 L636.106,641.1484" fill="#EEEEEE" style="stroke:#000000;stroke-width:1.5;"/><rect fill="none" height="348.9375" style="stroke:#000000;stroke-width:1.5;" width="517.4009" x="636.106" y="641.1484"/><text fill="#000000" font-family="sans-serif" font-size="13" font-weight="bold" lengthAdjust="spacing" textLength="19.4429" x="651.106" y="654.2153">alt</text><text fill="#000000" font-family="sans-serif" font-size="11" font-weight="bold" lengthAdjust="spacing" textLength="211.9272" x="715.5488" y="653.3589">[Hardware Attestation (TPM / SE)]</text><path d="M646.106,665.2813 L710.5488,665.2813 L710.5488,672.4141 L700.5488,682.4141 L646.106,682.4141 L646.106,665.2813" fill="#EEEEEE" style="stroke:#000000;stroke-width:1.5;"/><rect fill="none" height="231.7344" style="stroke:#000000;stroke-width:1.5;" width="497.4009" x="646.106" y="665.2813"/><text fill="#000000" font-family="sans-serif" font-size="13" font-weight="bold" lengthAdjust="spacing" textLength="19.4429" x="661.106" y="678.3481">alt</text><text fill="#000000" font-family="sans-serif" font-size="11" font-weight="bold" lengthAdjust="spacing" textLength="151.54" x="725.5488" y="677.4917">[Windows / Linux (TPM)]</text><g class="message" data-entity-1="part4" data-entity-2="part4" id="msg14"><line style="stroke:#181818;stroke-width:1;" x1="699.0796" x2="741.0796" y1="718.6797" y2="718.6797"/><line style="stroke:#181818;stroke-width:1;" x1="741.0796" x2="741.0796" y1="718.6797" y2="731.6797"/><line style="stroke:#181818;stroke-width:1;" x1="700.0796" x2="741.0796" y1="731.6797" y2="731.6797"/><polygon fill="#181818" points="710.0796,727.6797,700.0796,731.6797,710.0796,735.6797,706.0796,731.6797" style="stroke:#181818;stroke-width:1;"/><text fill="#000000" font-family="sans-serif" font-size="13" lengthAdjust="spacing" textLength="246.7144" x="706.0796" y="698.481">Verifiziere Hardware-Signatur (Quote)</text><text fill="#000000" font-family="sans-serif" font-size="13" lengthAdjust="spacing" textLength="162.4556" x="748.209" y="713.6138">gegen extrahierte Nonce</text></g><g class="message" data-entity-1="part4" data-entity-2="part4" id="msg15"><line style="stroke:#181818;stroke-width:1;" x1="699.0796" x2="741.0796" y1="760.8125" y2="760.8125"/><line style="stroke:#181818;stroke-width:1;" x1="741.0796" x2="741.0796" y1="760.8125" y2="773.8125"/><line style="stroke:#181818;stroke-width:1;" x1="700.0796" x2="741.0796" y1="773.8125" y2="773.8125"/><polygon fill="#181818" points="710.0796,769.8125,700.0796,773.8125,710.0796,777.8125,706.0796,773.8125" style="stroke:#181818;stroke-width:1;"/><text fill="#000000" font-family="sans-serif" font-size="13" lengthAdjust="spacing" textLength="167.5527" x="706.0796" y="755.7466">PCR-Replay via Event Log</text></g><g class="message" data-entity-1="part4" data-entity-2="part5" id="msg16"><polygon fill="#181818" points="1072.75,798.9453,1082.75,802.9453,1072.75,806.9453,1076.75,802.9453" style="stroke:#181818;stroke-width:1;"/><line style="stroke:#181818;stroke-width:1;" x1="699.0796" x2="1078.75" y1="802.9453" y2="802.9453"/><text fill="#000000" font-family="sans-serif" font-size="13" lengthAdjust="spacing" textLength="291.5859" x="746.1218" y="797.8794">Check PCR 7 &amp; PCR 23 gegen Referenzwerte</text></g><line style="stroke:#000000;stroke-width:1;stroke-dasharray:2,2;" x1="646.106" x2="1143.5068" y1="811.9453" y2="811.9453"/><text fill="#000000" font-family="sans-serif" font-size="11" font-weight="bold" lengthAdjust="spacing" textLength="160.7568" x="651.106" y="822.1558">[macOS (Secure Enclave)]</text><g class="message" data-entity-1="part4" data-entity-2="part4" id="msg17"><line style="stroke:#181818;stroke-width:1;" x1="699.0796" x2="741.0796" y1="846.8828" y2="846.8828"/><line style="stroke:#181818;stroke-width:1;" x1="741.0796" x2="741.0796" y1="846.8828" y2="859.8828"/><line style="stroke:#181818;stroke-width:1;" x1="700.0796" x2="741.0796" y1="859.8828" y2="859.8828"/><polygon fill="#181818" points="710.0796,855.8828,700.0796,859.8828,710.0796,863.8828,706.0796,859.8828" style="stroke:#181818;stroke-width:1;"/><text fill="#000000" font-family="sans-serif" font-size="13" lengthAdjust="spacing" textLength="310.7495" x="706.0796" y="841.8169">Pr&#252;fe counter &gt; letzter counter (Replay-Schutz)</text></g><g class="message" data-entity-1="part4" data-entity-2="part5" id="msg18"><polygon fill="#181818" points="1072.75,885.0156,1082.75,889.0156,1072.75,893.0156,1076.75,889.0156" style="stroke:#181818;stroke-width:1;"/><line style="stroke:#181818;stroke-width:1;" x1="699.0796" x2="1078.75" y1="889.0156" y2="889.0156"/><text fill="#000000" font-family="sans-serif" font-size="13" lengthAdjust="spacing" textLength="287.8472" x="747.9912" y="883.9497">Check macOS Posture gegen Referenzwerte</text></g><line style="stroke:#000000;stroke-width:1;stroke-dasharray:2,2;" x1="636.106" x2="1153.5068" y1="905.0156" y2="905.0156"/><text fill="#000000" font-family="sans-serif" font-size="11" font-weight="bold" lengthAdjust="spacing" textLength="205.5088" x="641.106" y="915.2261">[Software Attestation (Fallback)]</text><g class="message" data-entity-1="part4" data-entity-2="part4" id="msg19"><line style="stroke:#181818;stroke-width:1;" x1="699.0796" x2="741.0796" y1="939.9531" y2="939.9531"/><line style="stroke:#181818;stroke-width:1;" x1="741.0796" x2="741.0796" y1="939.9531" y2="952.9531"/><line style="stroke:#181818;stroke-width:1;" x1="700.0796" x2="741.0796" y1="952.9531" y2="952.9531"/><polygon fill="#181818" points="710.0796,948.9531,700.0796,952.9531,710.0796,956.9531,706.0796,952.9531" style="stroke:#181818;stroke-width:1;"/><text fill="#000000" font-family="sans-serif" font-size="13" lengthAdjust="spacing" textLength="234.8379" x="706.0796" y="934.8872">Extrahiere client-statement aus JWT</text></g><g class="message" data-entity-1="part4" data-entity-2="part5" id="msg20"><polygon fill="#181818" points="1072.75,978.0859,1082.75,982.0859,1072.75,986.0859,1076.75,982.0859" style="stroke:#181818;stroke-width:1;"/><line style="stroke:#181818;stroke-width:1;" x1="699.0796" x2="1078.75" y1="982.0859" y2="982.0859"/><text fill="#000000" font-family="sans-serif" font-size="13" lengthAdjust="spacing" textLength="254.8521" x="764.4888" y="977.02">Check Selbstauskunft (Software Policy)</text></g><g class="message" data-entity-1="part5" data-entity-2="part4" id="msg21"><polygon fill="#181818" points="710.0796,1014.2188,700.0796,1018.2188,710.0796,1022.2188,706.0796,1018.2188" style="stroke:#181818;stroke-width:1;"/><line style="stroke:#181818;stroke-width:1;stroke-dasharray:2,2;" x1="704.0796" x2="1088.75" y1="1018.2188" y2="1018.2188"/><text fill="#000000" font-family="sans-serif" font-size="13" lengthAdjust="spacing" textLength="204.0073" x="792.4111" y="1013.1528">Attestation Result (Allow/Deny)</text></g><path d="M266.9673,1040.2188 L331.4102,1040.2188 L331.4102,1047.3516 L321.4102,1057.3516 L266.9673,1057.3516 L266.9673,1040.2188" fill="#EEEEEE" style="stroke:#000000;stroke-width:1.5;"/><rect fill="none" height="177.7344" style="stroke:#000000;stroke-width:1.5;" width="776.9971" x="266.9673" y="1040.2188"/><text fill="#000000" font-family="sans-serif" font-size="13" font-weight="bold" lengthAdjust="spacing" textLength="19.4429" x="281.9673" y="1053.2856">alt</text><text fill="#000000" font-family="sans-serif" font-size="11" font-weight="bold" lengthAdjust="spacing" textLength="182.8105" x="346.4102" y="1052.4292">[Token Exchange erfolgreich]</text><g class="message" data-entity-1="part4" data-entity-2="part4" id="msg22"><line style="stroke:#181818;stroke-width:1;" x1="699.0796" x2="741.0796" y1="1093.6172" y2="1093.6172"/><line style="stroke:#181818;stroke-width:1;" x1="741.0796" x2="741.0796" y1="1093.6172" y2="1106.6172"/><line style="stroke:#181818;stroke-width:1;" x1="700.0796" x2="741.0796" y1="1106.6172" y2="1106.6172"/><polygon fill="#181818" points="710.0796,1102.6172,700.0796,1106.6172,710.0796,1110.6172,706.0796,1106.6172" style="stroke:#181818;stroke-width:1;"/><text fill="#000000" font-family="sans-serif" font-size="13" lengthAdjust="spacing" textLength="315.8848" x="706.0796" y="1073.4185">Create Token (Access Token, Refresh Token und</text><text fill="#000000" font-family="sans-serif" font-size="13" lengthAdjust="spacing" textLength="300.1108" x="713.9666" y="1088.5513">ZETA Guard Attestation Token (zg_att_token))</text></g><g class="message" data-entity-1="part4" data-entity-2="part3" id="msg23"><polygon fill="#181818" points="344.6812,1162.0156,334.6812,1166.0156,344.6812,1170.0156,340.6812,1166.0156" style="stroke:#181818;stroke-width:1;"/><line style="stroke:#181818;stroke-width:1;stroke-dasharray:2,2;" x1="338.6812" x2="688.0796" y1="1166.0156" y2="1166.0156"/><text fill="#000000" font-family="sans-serif" font-size="13" lengthAdjust="spacing" textLength="47.7026" x="487.5291" y="1130.6841">200 OK</text><text fill="#000000" font-family="sans-serif" font-size="13" lengthAdjust="spacing" textLength="202.9473" x="409.9067" y="1145.8169">{Access Token, Refresh Token,</text><text fill="#000000" font-family="sans-serif" font-size="13" lengthAdjust="spacing" textLength="91.3237" x="465.7185" y="1160.9497">zg_att_token}</text></g><line style="stroke:#000000;stroke-width:1;stroke-dasharray:2,2;" x1="266.9673" x2="1043.9644" y1="1175.0156" y2="1175.0156"/><text fill="#000000" font-family="sans-serif" font-size="11" font-weight="bold" lengthAdjust="spacing" textLength="176.9614" x="271.9673" y="1185.2261">[Token Exchange fehlerhaft]</text><g class="message" data-entity-1="part4" data-entity-2="part3" id="msg24"><polygon fill="#181818" points="344.6812,1205.9531,334.6812,1209.9531,344.6812,1213.9531,340.6812,1209.9531" style="stroke:#181818;stroke-width:1;"/><line style="stroke:#181818;stroke-width:1;stroke-dasharray:2,2;" x1="338.6812" x2="693.0796" y1="1209.9531" y2="1209.9531"/><text fill="#000000" font-family="sans-serif" font-size="13" lengthAdjust="spacing" textLength="94.3262" x="466.7173" y="1204.8872">403 Forbidden</text></g><line style="stroke:#000000;stroke-width:1;stroke-dasharray:2,2;" x1="256.9673" x2="1173.5068" y1="1225.9531" y2="1225.9531"/><text fill="#000000" font-family="sans-serif" font-size="11" font-weight="bold" lengthAdjust="spacing" textLength="260.7183" x="261.9673" y="1236.1636">[Refresh Token use (without Attestation)]</text><g class="message" data-entity-1="part3" data-entity-2="part3" id="msg25"><line style="stroke:#181818;stroke-width:1;" x1="333.6812" x2="375.6812" y1="1260.8906" y2="1260.8906"/><line style="stroke:#181818;stroke-width:1;" x1="375.6812" x2="375.6812" y1="1260.8906" y2="1273.8906"/><line style="stroke:#181818;stroke-width:1;" x1="334.6812" x2="375.6812" y1="1273.8906" y2="1273.8906"/><polygon fill="#181818" points="344.6812,1269.8906,334.6812,1273.8906,344.6812,1277.8906,340.6812,1273.8906" style="stroke:#181818;stroke-width:1;"/><text fill="#000000" font-family="sans-serif" font-size="13" lengthAdjust="spacing" textLength="227.3984" x="340.6812" y="1255.8247">Create DPoP Proof (without Nonce)</text></g><g class="message" data-entity-1="part3" data-entity-2="part3" id="msg26"><line style="stroke:#181818;stroke-width:1;" x1="333.6812" x2="375.6812" y1="1303.0234" y2="1303.0234"/><line style="stroke:#181818;stroke-width:1;" x1="375.6812" x2="375.6812" y1="1303.0234" y2="1316.0234"/><line style="stroke:#181818;stroke-width:1;" x1="334.6812" x2="375.6812" y1="1316.0234" y2="1316.0234"/><polygon fill="#181818" points="344.6812,1312.0234,334.6812,1316.0234,344.6812,1320.0234,340.6812,1316.0234" style="stroke:#181818;stroke-width:1;"/><text fill="#000000" font-family="sans-serif" font-size="13" lengthAdjust="spacing" textLength="317.9287" x="340.6812" y="1297.9575">Create Client Assertion JWT (without Attestation)</text></g><g class="message" data-entity-1="part3" data-entity-2="part4" id="msg27"><polygon fill="#181818" points="677.0796,1371.4219,687.0796,1375.4219,677.0796,1379.4219,681.0796,1375.4219" style="stroke:#181818;stroke-width:1;"/><line style="stroke:#181818;stroke-width:1;" x1="333.6812" x2="683.0796" y1="1375.4219" y2="1375.4219"/><text fill="#000000" font-family="sans-serif" font-size="13" lengthAdjust="spacing" textLength="198.2373" x="412.2617" y="1340.0903">POST /token dpop: dpop_proof</text><text fill="#000000" font-family="sans-serif" font-size="13" lengthAdjust="spacing" textLength="302.3198" x="360.2205" y="1355.2231">{client_assertion (JWT, PrK.Client.Sig signiert),</text><text fill="#000000" font-family="sans-serif" font-size="13" lengthAdjust="spacing" textLength="97.8618" x="462.4495" y="1370.356">refresh_token}</text></g><g class="message" data-entity-1="part4" data-entity-2="part4" id="msg28"><line style="stroke:#181818;stroke-width:1;" x1="699.0796" x2="741.0796" y1="1419.6875" y2="1419.6875"/><line style="stroke:#181818;stroke-width:1;" x1="741.0796" x2="741.0796" y1="1419.6875" y2="1432.6875"/><line style="stroke:#181818;stroke-width:1;" x1="700.0796" x2="741.0796" y1="1432.6875" y2="1432.6875"/><polygon fill="#181818" points="710.0796,1428.6875,700.0796,1432.6875,710.0796,1436.6875,706.0796,1432.6875" style="stroke:#181818;stroke-width:1;"/><text fill="#000000" font-family="sans-serif" font-size="13" lengthAdjust="spacing" textLength="226.7065" x="706.0796" y="1399.4888">Validate Request (Client Assertion,</text><text fill="#000000" font-family="sans-serif" font-size="13" lengthAdjust="spacing" textLength="178.5342" x="730.1658" y="1414.6216">DPoP Proof, Refresh Token)</text></g><g class="message" data-entity-1="part4" data-entity-2="part4" id="msg29"><line style="stroke:#181818;stroke-width:1;" x1="699.0796" x2="741.0796" y1="1461.8203" y2="1461.8203"/><line style="stroke:#181818;stroke-width:1;" x1="741.0796" x2="741.0796" y1="1461.8203" y2="1474.8203"/><line style="stroke:#181818;stroke-width:1;" x1="700.0796" x2="741.0796" y1="1474.8203" y2="1474.8203"/><polygon fill="#181818" points="710.0796,1470.8203,700.0796,1474.8203,710.0796,1478.8203,706.0796,1474.8203" style="stroke:#181818;stroke-width:1;"/><text fill="#000000" font-family="sans-serif" font-size="13" lengthAdjust="spacing" textLength="159.3135" x="706.0796" y="1456.7544">Invalidate Refresh token</text></g><g class="message" data-entity-1="part4" data-entity-2="part5" id="msg30"><polygon fill="#181818" points="1072.75,1499.9531,1082.75,1503.9531,1072.75,1507.9531,1076.75,1503.9531" style="stroke:#181818;stroke-width:1;"/><line style="stroke:#181818;stroke-width:1;" x1="699.0796" x2="1078.75" y1="1503.9531" y2="1503.9531"/><text fill="#000000" font-family="sans-serif" font-size="13" lengthAdjust="spacing" textLength="254.8521" x="764.4888" y="1498.8872">Check Selbstauskunft (Software Policy)</text></g><g class="message" data-entity-1="part5" data-entity-2="part4" id="msg31"><polygon fill="#181818" points="710.0796,1529.0859,700.0796,1533.0859,710.0796,1537.0859,706.0796,1533.0859" style="stroke:#181818;stroke-width:1;"/><line style="stroke:#181818;stroke-width:1;stroke-dasharray:2,2;" x1="704.0796" x2="1088.75" y1="1533.0859" y2="1533.0859"/><text fill="#000000" font-family="sans-serif" font-size="13" lengthAdjust="spacing" textLength="204.0073" x="792.4111" y="1528.02">Attestation Result (Allow/Deny)</text></g><path d="M266.9673,1548.0859 L331.4102,1548.0859 L331.4102,1555.2188 L321.4102,1565.2188 L266.9673,1565.2188 L266.9673,1548.0859" fill="#EEEEEE" style="stroke:#000000;stroke-width:1.5;"/><rect fill="none" height="147.4688" style="stroke:#000000;stroke-width:1.5;" width="753.2061" x="266.9673" y="1548.0859"/><text fill="#000000" font-family="sans-serif" font-size="13" font-weight="bold" lengthAdjust="spacing" textLength="19.4429" x="281.9673" y="1561.1528">alt</text><text fill="#000000" font-family="sans-serif" font-size="11" font-weight="bold" lengthAdjust="spacing" textLength="182.8105" x="346.4102" y="1560.2964">[Token Exchange erfolgreich]</text><g class="message" data-entity-1="part4" data-entity-2="part4" id="msg32"><line style="stroke:#181818;stroke-width:1;" x1="699.0796" x2="741.0796" y1="1586.3516" y2="1586.3516"/><line style="stroke:#181818;stroke-width:1;" x1="741.0796" x2="741.0796" y1="1586.3516" y2="1599.3516"/><line style="stroke:#181818;stroke-width:1;" x1="700.0796" x2="741.0796" y1="1599.3516" y2="1599.3516"/><polygon fill="#181818" points="710.0796,1595.3516,700.0796,1599.3516,710.0796,1603.3516,706.0796,1599.3516" style="stroke:#181818;stroke-width:1;"/><text fill="#000000" font-family="sans-serif" font-size="13" lengthAdjust="spacing" textLength="292.0938" x="706.0796" y="1581.2856">Create Token (Access Token, Refresh Token)</text></g><g class="message" data-entity-1="part4" data-entity-2="part3" id="msg33"><polygon fill="#181818" points="344.6812,1639.6172,334.6812,1643.6172,344.6812,1647.6172,340.6812,1643.6172" style="stroke:#181818;stroke-width:1;"/><line style="stroke:#181818;stroke-width:1;stroke-dasharray:2,2;" x1="338.6812" x2="688.0796" y1="1643.6172" y2="1643.6172"/><text fill="#000000" font-family="sans-serif" font-size="13" lengthAdjust="spacing" textLength="47.7026" x="487.5291" y="1623.4185">200 OK</text><text fill="#000000" font-family="sans-serif" font-size="13" lengthAdjust="spacing" textLength="207.0859" x="407.8374" y="1638.5513">{Access Token, Refresh Token}</text></g><line style="stroke:#000000;stroke-width:1;stroke-dasharray:2,2;" x1="266.9673" x2="1020.1733" y1="1652.6172" y2="1652.6172"/><text fill="#000000" font-family="sans-serif" font-size="11" font-weight="bold" lengthAdjust="spacing" textLength="176.9614" x="271.9673" y="1662.8276">[Token Exchange fehlerhaft]</text><g class="message" data-entity-1="part4" data-entity-2="part3" id="msg34"><polygon fill="#181818" points="344.6812,1683.5547,334.6812,1687.5547,344.6812,1691.5547,340.6812,1687.5547" style="stroke:#181818;stroke-width:1;"/><line style="stroke:#181818;stroke-width:1;stroke-dasharray:2,2;" x1="338.6812" x2="693.0796" y1="1687.5547" y2="1687.5547"/><text fill="#000000" font-family="sans-serif" font-size="13" lengthAdjust="spacing" textLength="94.3262" x="466.7173" y="1682.4888">403 Forbidden</text></g><?plantuml-src jLPjRzis4FwkNt78Xq66eoHe1mpmXmAEusPPcaMpZ1ReF0IqT98uAwH7KNQIeV-it_h7TYGjorAIEjiG0tRuSlVmdkDpnvGBBfPCiLieyQyAHOnNM9Oims71Cm4n2etAqrmN25EvG07ZkpXd8aDOSvt3K6iiDTDS2iyZ8CrZlcH2mwKK0XTQAc0b73GpgMPYUX6SCurhTd_GyeckJgrrTEMFUi5fU_CWZA0I2NmUJuSpCIeuXNPWpDsmRJkiT1xDXFyH5KyvgfwrjAjjm-kGmFonIAGgQpDQypo7sk_N8mZURKuQm3aAmaM5K5RpFp7MDzgaPiUouTllmm3mZh8eM64280iU4tlmMyuzh_4X09CAwrgQQ-YQcjsWTKmGR6oPhXJkOctZxjfqUT7cC4aQ0z2omyzZXOOBmJLdHKSD7j3d2SIHGiFrB9GXNE8zX8mhy4DrUMIMZYAU7K9ODREU1HAIV1JFSafsH7eaTGLpLcBIOAJ4pQBEkKYuo8wybuGGAYbJyArqVvMaTaYLl7N2w7K0x6A_Fu3mEfh2iKq194kv7DZVcwN1cec_O-jnmqeIaAa3y7_vD2LMnD616LushIGPtJkSYLPMmO-kHi7frk0Gk5WKHouyO_txUCKJKvb_V74SCoMhfGiFjWg77o2K1O_lOPHZl71apCVPrNm6u1mUh7mVXNxBjRsEdS1zLfLmDfgy3F59QfyDUieNJ0ELVdXvyJpM-4uhbbieTp_czBOAQzVjmAZoPwQIDIEldOO4_ZIyWcE8nirvjVqdKerSbxJxWOlgpfgshVOnhKyCeat1WFzRHRhjpQWSCYAFDHMzuR8NFXnDWWak2tOFAyvWl39A_22pvnsfLHc5sYitxl2JqG7zVVCMN1GJJ2bQyR0sSRI0i2WHRbbyJIgAC3OLFnPnmLQuFn6X-lOr9Vt8ohmFy0uAr0zcLA_uZaSGnNcb7thVPL37xs89PMcxpzxmHTAQUorUaKprOpsyPqKnPxlLiKU3ha020u2tvZQC7AcylNrS8Ypcv5MLYqgacX9Sn-EAj0bWbyPsG42sSLla81YqM4omh4Z1_h0evFhu3CK6pI1vjRuxRpMgL1QPGXxdpvRUfaywJtyOnzHutUpGN8F2CjziqZCy4-OTXlEAgg0LtSRz8RjXkdwl7fNxpblwvkG4hY-fZNxdG6g2ktXVlEqrTsYcc1UeSfRgPqyqsVpnv2sybshEasJJJspkB6A7AQtOrq9MUfTcxry-DiRTDVGzZflvSDkHIMmlYk3rNYlbChAR-xPqAFgFhE29YNzY_eiiIPrT8WJK9ALplptlAJrUY5M3wgoR1-3f3lYYgljFnVNQDVL_I-ILQeA-_m00?></g></svg>