<?plantuml 1.2026.2?><svg xmlns="http://www.w3.org/2000/svg" xmlns:xlink="http://www.w3.org/1999/xlink" contentStyleType="text/css" data-diagram-type="SEQUENCE" height="1575px" preserveAspectRatio="none" style="width:1513px;height:1575px;background:#FFFFFF;" version="1.1" viewBox="0 0 1513 1575" width="1513px" zoomAndPan="magnify"><title>Token Exchange with Attestation</title><defs/><g><text fill="#000000" font-family="sans-serif" font-size="14" font-weight="bold" lengthAdjust="spacing" textLength="262.0078" x="621.6091" y="27.9951">Token Exchange with Attestation</text><rect fill="none" height="489.7344" style="stroke:#000000;stroke-width:1.5;" width="956.9834" x="10" y="300.6875"/><rect fill="none" height="307.1328" style="stroke:#000000;stroke-width:1.5;" width="762.1929" x="20" y="353.9531"/><rect fill="none" height="493.4688" style="stroke:#000000;stroke-width:1.5;" width="517.4009" x="978.8252" y="878.9531"/><rect fill="none" height="306.8047" style="stroke:#000000;stroke-width:1.5;" width="497.4009" x="988.8252" y="1029.4844"/><rect fill="none" height="132.3359" style="stroke:#000000;stroke-width:1.5;" width="477.4009" x="998.8252" y="1110.8828"/><rect fill="none" height="120.4688" style="stroke:#000000;stroke-width:1.5;" width="436.0073" x="658.7651" y="1386.4219"/><g class="participant-lifeline" data-entity-uid="part1" data-qualified-name="TPM" id="part1-lifeline"><g><title>TPM . SE</title><rect fill="#000000" fill-opacity="0.00000" height="1434" width="8" x="72.5356" y="89.8906"/><line style="stroke:#181818;stroke-width:0.5;stroke-dasharray:5,5;" x1="76" x2="76" y1="89.8906" y2="1523.8906"/></g></g><g class="participant-lifeline" data-entity-uid="part2" data-qualified-name="ZAS" id="part2-lifeline"><g><title>ZAS</title><rect fill="#000000" fill-opacity="0.00000" height="1434" width="8" x="438.4775" y="89.8906"/><line style="stroke:#181818;stroke-width:0.5;stroke-dasharray:5,5;" x1="441.855" x2="441.855" y1="89.8906" y2="1523.8906"/></g></g><g class="participant-lifeline" data-entity-uid="part3" data-qualified-name="Client" id="part3-lifeline"><g><title>PS und ZETA</title><rect fill="#000000" fill-opacity="0.00000" height="1434" width="8" x="716.479" y="89.8906"/><line style="stroke:#181818;stroke-width:0.5;stroke-dasharray:5,5;" x1="719.7651" x2="719.7651" y1="89.8906" y2="1523.8906"/></g></g><g class="participant-lifeline" data-entity-uid="part4" data-qualified-name="AuthS" id="part4-lifeline"><g><title>AuthS</title><rect fill="#000000" fill-opacity="0.00000" height="1434" width="8" x="1042.7988" y="89.8906"/><line style="stroke:#181818;stroke-width:0.5;stroke-dasharray:5,5;" x1="1045.8252" x2="1045.8252" y1="89.8906" y2="1523.8906"/></g></g><g class="participant-lifeline" data-entity-uid="part5" data-qualified-name="OPA" id="part5-lifeline"><g><title>OPA</title><rect fill="#000000" fill-opacity="0.00000" height="1434" width="8" x="1418.4692" y="89.8906"/><line style="stroke:#181818;stroke-width:0.5;stroke-dasharray:5,5;" x1="1421.7124" x2="1421.7124" y1="89.8906" y2="1523.8906"/></g></g><g class="participant participant-head" data-entity-uid="part1" data-qualified-name="TPM" id="part1-head"><rect fill="#E2E2F0" height="46.5938" rx="2.5" ry="2.5" style="stroke:#181818;stroke-width:0.5;" width="93.0713" x="30" y="42.2969"/><text fill="#000000" font-family="sans-serif" font-size="14" lengthAdjust="spacing" textLength="60.4229" x="46.3242" y="62.292">TPM / SE</text><text fill="#000000" font-family="sans-serif" font-size="14" lengthAdjust="spacing" textLength="79.0713" x="37" y="78.5889">(Hardware)</text></g><g class="participant participant-tail" data-entity-uid="part1" data-qualified-name="TPM" id="part1-tail"><rect fill="#E2E2F0" height="46.5938" rx="2.5" ry="2.5" style="stroke:#181818;stroke-width:0.5;" width="93.0713" x="30" y="1522.8906"/><text fill="#000000" font-family="sans-serif" font-size="14" lengthAdjust="spacing" textLength="60.4229" x="46.3242" y="1542.8857">TPM / SE</text><text fill="#000000" font-family="sans-serif" font-size="14" lengthAdjust="spacing" textLength="79.0713" x="37" y="1559.1826">(Hardware)</text></g><g class="participant participant-head" data-entity-uid="part2" data-qualified-name="ZAS" id="part2-head"><rect fill="#E2E2F0" height="46.5938" rx="2.5" ry="2.5" style="stroke:#181818;stroke-width:0.5;" width="81.2451" x="401.855" y="42.2969"/><text fill="#000000" font-family="sans-serif" font-size="14" lengthAdjust="spacing" textLength="28.0547" x="428.4502" y="62.292">ZAS</text><text fill="#000000" font-family="sans-serif" font-size="14" lengthAdjust="spacing" textLength="67.2451" x="408.855" y="78.5889">(Attester)</text></g><g class="participant participant-tail" data-entity-uid="part2" data-qualified-name="ZAS" id="part2-tail"><rect fill="#E2E2F0" height="46.5938" rx="2.5" ry="2.5" style="stroke:#181818;stroke-width:0.5;" width="81.2451" x="401.855" y="1522.8906"/><text fill="#000000" font-family="sans-serif" font-size="14" lengthAdjust="spacing" textLength="28.0547" x="428.4502" y="1542.8857">ZAS</text><text fill="#000000" font-family="sans-serif" font-size="14" lengthAdjust="spacing" textLength="67.2451" x="408.855" y="1559.1826">(Attester)</text></g><g class="participant participant-head" data-entity-uid="part3" data-qualified-name="Client" id="part3-head"><rect fill="#E2E2F0" height="46.5938" rx="2.5" ry="2.5" style="stroke:#181818;stroke-width:0.5;" width="103.4277" x="668.7651" y="42.2969"/><text fill="#000000" font-family="sans-serif" font-size="14" lengthAdjust="spacing" textLength="89.4277" x="675.7651" y="62.292">PS und ZETA</text><text fill="#000000" font-family="sans-serif" font-size="14" lengthAdjust="spacing" textLength="40.5303" x="700.2139" y="78.5889">Client</text></g><g class="participant participant-tail" data-entity-uid="part3" data-qualified-name="Client" id="part3-tail"><rect fill="#E2E2F0" height="46.5938" rx="2.5" ry="2.5" style="stroke:#181818;stroke-width:0.5;" width="103.4277" x="668.7651" y="1522.8906"/><text fill="#000000" font-family="sans-serif" font-size="14" lengthAdjust="spacing" textLength="89.4277" x="675.7651" y="1542.8857">PS und ZETA</text><text fill="#000000" font-family="sans-serif" font-size="14" lengthAdjust="spacing" textLength="40.5303" x="700.2139" y="1559.1826">Client</text></g><g class="participant participant-head" data-entity-uid="part4" data-qualified-name="AuthS" id="part4-head"><rect fill="#E2E2F0" height="46.5938" rx="2.5" ry="2.5" style="stroke:#181818;stroke-width:0.5;" width="75.9473" x="1008.8252" y="42.2969"/><text fill="#000000" font-family="sans-serif" font-size="14" lengthAdjust="spacing" textLength="41.6992" x="1025.9492" y="62.292">AuthS</text><text fill="#000000" font-family="sans-serif" font-size="14" lengthAdjust="spacing" textLength="61.9473" x="1015.8252" y="78.5889">(Verifier)</text></g><g class="participant participant-tail" data-entity-uid="part4" data-qualified-name="AuthS" id="part4-tail"><rect fill="#E2E2F0" height="46.5938" rx="2.5" ry="2.5" style="stroke:#181818;stroke-width:0.5;" width="75.9473" x="1008.8252" y="1522.8906"/><text fill="#000000" font-family="sans-serif" font-size="14" lengthAdjust="spacing" textLength="41.6992" x="1025.9492" y="1542.8857">AuthS</text><text fill="#000000" font-family="sans-serif" font-size="14" lengthAdjust="spacing" textLength="61.9473" x="1015.8252" y="1559.1826">(Verifier)</text></g><g class="participant participant-head" data-entity-uid="part5" data-qualified-name="OPA" id="part5-head"><rect fill="#E2E2F0" height="46.5938" rx="2.5" ry="2.5" style="stroke:#181818;stroke-width:0.5;" width="87.5137" x="1378.7124" y="42.2969"/><text fill="#000000" font-family="sans-serif" font-size="14" lengthAdjust="spacing" textLength="29.0391" x="1407.9497" y="62.292">OPA</text><text fill="#000000" font-family="sans-serif" font-size="14" lengthAdjust="spacing" textLength="73.5137" x="1385.7124" y="78.5889">(Endorser)</text></g><g class="participant participant-tail" data-entity-uid="part5" data-qualified-name="OPA" id="part5-tail"><rect fill="#E2E2F0" height="46.5938" rx="2.5" ry="2.5" style="stroke:#181818;stroke-width:0.5;" width="87.5137" x="1378.7124" y="1522.8906"/><text fill="#000000" font-family="sans-serif" font-size="14" lengthAdjust="spacing" textLength="29.0391" x="1407.9497" y="1542.8857">OPA</text><text fill="#000000" font-family="sans-serif" font-size="14" lengthAdjust="spacing" textLength="73.5137" x="1385.7124" y="1559.1826">(Endorser)</text></g><rect fill="#EEEEEE" height="3" style="stroke:#EEEEEE;stroke-width:1;" width="1506.2261" x="0" y="120.457"/><line style="stroke:#000000;stroke-width:1;" x1="0" x2="1506.2261" y1="120.457" y2="120.457"/><line style="stroke:#000000;stroke-width:1;" x1="0" x2="1506.2261" y1="123.457" y2="123.457"/><rect fill="#EEEEEE" height="23.1328" style="stroke:#000000;stroke-width:2;" width="349.5562" x="578.335" y="109.8906"/><text fill="#000000" font-family="sans-serif" font-size="13" font-weight="bold" lengthAdjust="spacing" textLength="331.0303" x="584.335" y="125.9575">5: RATS Ablauf (Evidence &amp; Token Exchange)</text><g class="message" data-entity-1="part3" data-entity-2="part4" id="msg1"><polygon fill="#181818" points="1034.7988,160.1563,1044.7988,164.1563,1034.7988,168.1563,1038.7988,164.1563" style="stroke:#181818;stroke-width:1;"/><line style="stroke:#181818;stroke-width:1;" x1="720.479" x2="1040.7988" y1="164.1563" y2="164.1563"/><text fill="#000000" font-family="sans-serif" font-size="13" lengthAdjust="spacing" textLength="74.3184" x="846.4797" y="159.0903">GET /nonce</text></g><g class="message" data-entity-1="part4" data-entity-2="part3" id="msg2"><polygon fill="#181818" points="731.479,189.2891,721.479,193.2891,731.479,197.2891,727.479,193.2891" style="stroke:#181818;stroke-width:1;"/><line style="stroke:#181818;stroke-width:1;stroke-dasharray:2,2;" x1="725.479" x2="1045.7988" y1="193.2891" y2="193.2891"/><text fill="#000000" font-family="sans-serif" font-size="13" lengthAdjust="spacing" textLength="41.063" x="863.1074" y="188.2231">Nonce</text></g><path d="M588,206.2891 L588,246.2891 L851,246.2891 L851,216.2891 L841,206.2891 L588,206.2891" fill="#FEFFDD" style="stroke:#181818;stroke-width:0.5;"/><path d="M841,206.2891 L841,216.2891 L851,216.2891 L841,206.2891" fill="#FEFFDD" style="stroke:#181818;stroke-width:0.5;"/><text fill="#000000" font-family="sans-serif" font-size="13" lengthAdjust="spacing" textLength="242.8169" x="594" y="223.356">Client l&#228;sst Subject Token von SMC-B</text><text fill="#000000" font-family="sans-serif" font-size="13" lengthAdjust="spacing" textLength="222.4854" x="594" y="238.4888">signieren (inkl. Nonce im Payload)</text><g class="message" data-entity-1="part3" data-entity-2="part3" id="msg3"><line style="stroke:#181818;stroke-width:1;" x1="720.479" x2="762.479" y1="272.6875" y2="272.6875"/><line style="stroke:#181818;stroke-width:1;" x1="762.479" x2="762.479" y1="272.6875" y2="285.6875"/><line style="stroke:#181818;stroke-width:1;" x1="721.479" x2="762.479" y1="285.6875" y2="285.6875"/><polygon fill="#181818" points="731.479,281.6875,721.479,285.6875,731.479,289.6875,727.479,285.6875" style="stroke:#181818;stroke-width:1;"/><text fill="#000000" font-family="sans-serif" font-size="13" lengthAdjust="spacing" textLength="268.6646" x="727.479" y="267.6216">Generiere subject_token (SMC-B signiert)</text></g><path d="M10,300.6875 L74.4429,300.6875 L74.4429,307.8203 L64.4429,317.8203 L10,317.8203 L10,300.6875" fill="#EEEEEE" style="stroke:#000000;stroke-width:1.5;"/><rect fill="none" height="489.7344" style="stroke:#000000;stroke-width:1.5;" width="956.9834" x="10" y="300.6875"/><text fill="#000000" font-family="sans-serif" font-size="13" font-weight="bold" lengthAdjust="spacing" textLength="19.4429" x="25" y="313.7544">alt</text><text fill="#000000" font-family="sans-serif" font-size="11" font-weight="bold" lengthAdjust="spacing" textLength="211.9272" x="89.4429" y="312.8979">[Hardware Attestation (TPM / SE)]</text><g class="message" data-entity-1="part3" data-entity-2="part2" id="msg4"><polygon fill="#181818" points="453.4775,334.9531,443.4775,338.9531,453.4775,342.9531,449.4775,338.9531" style="stroke:#181818;stroke-width:1;"/><line style="stroke:#181818;stroke-width:1;" x1="447.4775" x2="719.479" y1="338.9531" y2="338.9531"/><text fill="#000000" font-family="sans-serif" font-size="13" lengthAdjust="spacing" textLength="133.5293" x="514.7136" y="333.8872">GetEvidence(Nonce)</text></g><path d="M20,353.9531 L84.4429,353.9531 L84.4429,361.0859 L74.4429,371.0859 L20,371.0859 L20,353.9531" fill="#EEEEEE" style="stroke:#000000;stroke-width:1.5;"/><rect fill="none" height="307.1328" style="stroke:#000000;stroke-width:1.5;" width="762.1929" x="20" y="353.9531"/><text fill="#000000" font-family="sans-serif" font-size="13" font-weight="bold" lengthAdjust="spacing" textLength="19.4429" x="35" y="367.02">alt</text><text fill="#000000" font-family="sans-serif" font-size="11" font-weight="bold" lengthAdjust="spacing" textLength="151.54" x="99.4429" y="366.1636">[Windows / Linux (TPM)]</text><g class="message" data-entity-1="part2" data-entity-2="part1" id="msg5"><polygon fill="#181818" points="87.5356,388.2188,77.5356,392.2188,87.5356,396.2188,83.5356,392.2188" style="stroke:#181818;stroke-width:1;"/><line style="stroke:#181818;stroke-width:1;" x1="81.5356" x2="441.4775" y1="392.2188" y2="392.2188"/><text fill="#000000" font-family="sans-serif" font-size="13" lengthAdjust="spacing" textLength="242.3726" x="138.3203" y="387.1528">TPM2_Quote(PCR=[7,23], Nonce, AK)</text></g><g class="message" data-entity-1="part1" data-entity-2="part2" id="msg6"><polygon fill="#181818" points="430.4775,417.3516,440.4775,421.3516,430.4775,425.3516,434.4775,421.3516" style="stroke:#181818;stroke-width:1;"/><line style="stroke:#181818;stroke-width:1;stroke-dasharray:2,2;" x1="76.5356" x2="436.4775" y1="421.3516" y2="421.3516"/><text fill="#000000" font-family="sans-serif" font-size="13" lengthAdjust="spacing" textLength="180.3115" x="169.3508" y="416.2856">tpm_quote (signiert mit AK)</text></g><g class="message" data-entity-1="part2" data-entity-2="part1" id="msg7"><polygon fill="#181818" points="87.5356,446.4844,77.5356,450.4844,87.5356,454.4844,83.5356,450.4844" style="stroke:#181818;stroke-width:1;"/><line style="stroke:#181818;stroke-width:1;" x1="81.5356" x2="441.4775" y1="450.4844" y2="450.4844"/><text fill="#000000" font-family="sans-serif" font-size="13" lengthAdjust="spacing" textLength="135.77" x="191.6216" y="445.4185">TPM2_GetEventLog()</text></g><g class="message" data-entity-1="part1" data-entity-2="part2" id="msg8"><polygon fill="#181818" points="430.4775,475.6172,440.4775,479.6172,430.4775,483.6172,434.4775,479.6172" style="stroke:#181818;stroke-width:1;"/><line style="stroke:#181818;stroke-width:1;stroke-dasharray:2,2;" x1="76.5356" x2="436.4775" y1="479.6172" y2="479.6172"/><text fill="#000000" font-family="sans-serif" font-size="13" lengthAdjust="spacing" textLength="95.856" x="211.5786" y="474.5513">tpm_event_log</text></g><g class="message" data-entity-1="part2" data-entity-2="part3" id="msg9"><polygon fill="#181818" points="708.479,504.75,718.479,508.75,708.479,512.75,712.479,508.75" style="stroke:#181818;stroke-width:1;"/><line style="stroke:#181818;stroke-width:1;stroke-dasharray:2,2;" x1="442.4775" x2="714.479" y1="508.75" y2="508.75"/><text fill="#000000" font-family="sans-serif" font-size="13" lengthAdjust="spacing" textLength="254.0015" x="454.4775" y="503.6841">Evidence {tpm_quote, tpm_event_log}</text></g><line style="stroke:#000000;stroke-width:1;stroke-dasharray:2,2;" x1="20" x2="782.1929" y1="517.75" y2="517.75"/><text fill="#000000" font-family="sans-serif" font-size="11" font-weight="bold" lengthAdjust="spacing" textLength="160.7568" x="25" y="527.9604">[macOS (Secure Enclave)]</text><g class="message" data-entity-1="part2" data-entity-2="part2" id="msg10"><line style="stroke:#181818;stroke-width:1;" x1="442.4775" x2="484.4775" y1="552.6875" y2="552.6875"/><line style="stroke:#181818;stroke-width:1;" x1="484.4775" x2="484.4775" y1="552.6875" y2="565.6875"/><line style="stroke:#181818;stroke-width:1;" x1="443.4775" x2="484.4775" y1="565.6875" y2="565.6875"/><polygon fill="#181818" points="453.4775,561.6875,443.4775,565.6875,453.4775,569.6875,449.4775,565.6875" style="stroke:#181818;stroke-width:1;"/><text fill="#000000" font-family="sans-serif" font-size="13" lengthAdjust="spacing" textLength="261.7012" x="449.4775" y="547.6216">Ermittle aktuelle Posture (SIP, SSV, etc.)</text></g><g class="message" data-entity-1="part2" data-entity-2="part1" id="msg11"><polygon fill="#181818" points="87.5356,590.8203,77.5356,594.8203,87.5356,598.8203,83.5356,594.8203" style="stroke:#181818;stroke-width:1;"/><line style="stroke:#181818;stroke-width:1;" x1="81.5356" x2="441.4775" y1="594.8203" y2="594.8203"/><text fill="#000000" font-family="sans-serif" font-size="13" lengthAdjust="spacing" textLength="341.9419" x="88.5356" y="589.7544">SE_Sign(Handle_PrK.AK.Sig, Hash(Nonce + Posture))</text></g><g class="message" data-entity-1="part1" data-entity-2="part2" id="msg12"><polygon fill="#181818" points="430.4775,619.9531,440.4775,623.9531,430.4775,627.9531,434.4775,623.9531" style="stroke:#181818;stroke-width:1;"/><line style="stroke:#181818;stroke-width:1;stroke-dasharray:2,2;" x1="76.5356" x2="436.4775" y1="623.9531" y2="623.9531"/><text fill="#000000" font-family="sans-serif" font-size="13" lengthAdjust="spacing" textLength="81.0278" x="218.9927" y="618.8872">se_assertion</text></g><g class="message" data-entity-1="part2" data-entity-2="part3" id="msg13"><polygon fill="#181818" points="708.479,649.0859,718.479,653.0859,708.479,657.0859,712.479,653.0859" style="stroke:#181818;stroke-width:1;"/><line style="stroke:#181818;stroke-width:1;stroke-dasharray:2,2;" x1="442.4775" x2="714.479" y1="653.0859" y2="653.0859"/><text fill="#000000" font-family="sans-serif" font-size="13" lengthAdjust="spacing" textLength="218.7783" x="472.0891" y="648.02">Evidence {se_assertion, posture}</text></g><line style="stroke:#000000;stroke-width:1;stroke-dasharray:2,2;" x1="10" x2="966.9834" y1="669.0859" y2="669.0859"/><text fill="#000000" font-family="sans-serif" font-size="11" font-weight="bold" lengthAdjust="spacing" textLength="205.5088" x="15" y="679.2964">[Software Attestation (Fallback)]</text><g class="message" data-entity-1="part3" data-entity-2="part3" id="msg14"><line style="stroke:#181818;stroke-width:1;" x1="720.479" x2="762.479" y1="719.1563" y2="719.1563"/><line style="stroke:#181818;stroke-width:1;" x1="762.479" x2="762.479" y1="719.1563" y2="732.1563"/><line style="stroke:#181818;stroke-width:1;" x1="721.479" x2="762.479" y1="732.1563" y2="732.1563"/><polygon fill="#181818" points="731.479,728.1563,721.479,732.1563,731.479,736.1563,727.479,732.1563" style="stroke:#181818;stroke-width:1;"/><text fill="#000000" font-family="sans-serif" font-size="13" lengthAdjust="spacing" textLength="176.0649" x="745.2683" y="698.9575">Generiere client-statement</text><text fill="#000000" font-family="sans-serif" font-size="13" lengthAdjust="spacing" textLength="211.6436" x="727.479" y="714.0903">(Selbstauskunft: OS, PS-Version)</text></g><path d="M725,745.1563 L725,785.1563 L956,785.1563 L956,755.1563 L946,745.1563 L725,745.1563" fill="#FEFFDD" style="stroke:#181818;stroke-width:0.5;"/><path d="M946,745.1563 L946,755.1563 L956,755.1563 L946,745.1563" fill="#FEFFDD" style="stroke:#181818;stroke-width:0.5;"/><text fill="#000000" font-family="sans-serif" font-size="13" lengthAdjust="spacing" textLength="204.02" x="731" y="762.2231">client-statement wird direkt ins</text><text fill="#000000" font-family="sans-serif" font-size="13" lengthAdjust="spacing" textLength="210.9834" x="731" y="777.356">Client Assertion JWT eingebettet</text><g class="message" data-entity-1="part3" data-entity-2="part4" id="msg15"><polygon fill="#181818" points="1034.7988,859.9531,1044.7988,863.9531,1034.7988,867.9531,1038.7988,863.9531" style="stroke:#181818;stroke-width:1;"/><line style="stroke:#181818;stroke-width:1;" x1="720.479" x2="1040.7988" y1="863.9531" y2="863.9531"/><text fill="#000000" font-family="sans-serif" font-size="13" lengthAdjust="spacing" textLength="79.5933" x="843.8423" y="813.4888">POST /token</text><text fill="#000000" font-family="sans-serif" font-size="13" lengthAdjust="spacing" textLength="302.3198" x="732.479" y="828.6216">{client_assertion (JWT, PrK.Client.Sig signiert),</text><text fill="#000000" font-family="sans-serif" font-size="13" lengthAdjust="spacing" textLength="284.6416" x="741.3181" y="843.7544">subject_token (SMC-B signiert, inkl. Nonce),</text><text fill="#000000" font-family="sans-serif" font-size="13" lengthAdjust="spacing" textLength="77.5684" x="844.8547" y="858.8872">[Evidence]}</text></g><path d="M978.8252,878.9531 L1251.8965,878.9531 L1251.8965,886.0859 L1241.8965,896.0859 L978.8252,896.0859 L978.8252,878.9531" fill="#EEEEEE" style="stroke:#000000;stroke-width:1.5;"/><rect fill="none" height="493.4688" style="stroke:#000000;stroke-width:1.5;" width="517.4009" x="978.8252" y="878.9531"/><text fill="#000000" font-family="sans-serif" font-size="13" font-weight="bold" lengthAdjust="spacing" textLength="228.0713" x="993.8252" y="892.02">AuthS (Verifier &amp; Policy Check)</text><g class="message" data-entity-1="part4" data-entity-2="part4" id="msg16"><line style="stroke:#181818;stroke-width:1;" x1="1046.7988" x2="1088.7988" y1="917.2188" y2="917.2188"/><line style="stroke:#181818;stroke-width:1;" x1="1088.7988" x2="1088.7988" y1="917.2188" y2="930.2188"/><line style="stroke:#181818;stroke-width:1;" x1="1047.7988" x2="1088.7988" y1="930.2188" y2="930.2188"/><polygon fill="#181818" points="1057.7988,926.2188,1047.7988,930.2188,1057.7988,934.2188,1053.7988,930.2188" style="stroke:#181818;stroke-width:1;"/><text fill="#000000" font-family="sans-serif" font-size="13" lengthAdjust="spacing" textLength="361.6704" x="1053.7988" y="912.1528">Verifiziere client_assertion mit PuK.Client.Sig (aus DCR)</text></g><g class="message" data-entity-1="part4" data-entity-2="part4" id="msg17"><line style="stroke:#181818;stroke-width:1;" x1="1046.7988" x2="1088.7988" y1="959.3516" y2="959.3516"/><line style="stroke:#181818;stroke-width:1;" x1="1088.7988" x2="1088.7988" y1="959.3516" y2="972.3516"/><line style="stroke:#181818;stroke-width:1;" x1="1047.7988" x2="1088.7988" y1="972.3516" y2="972.3516"/><polygon fill="#181818" points="1057.7988,968.3516,1047.7988,972.3516,1057.7988,976.3516,1053.7988,972.3516" style="stroke:#181818;stroke-width:1;"/><text fill="#000000" font-family="sans-serif" font-size="13" lengthAdjust="spacing" textLength="321.4771" x="1053.7988" y="954.2856">Verifiziere subject_token (SMC-B Zertifikat TI-PKI)</text></g><g class="message" data-entity-1="part4" data-entity-2="part4" id="msg18"><line style="stroke:#800080;stroke-width:1;" x1="1046.7988" x2="1088.7988" y1="1001.4844" y2="1001.4844"/><line style="stroke:#800080;stroke-width:1;" x1="1088.7988" x2="1088.7988" y1="1001.4844" y2="1014.4844"/><line style="stroke:#800080;stroke-width:1;" x1="1047.7988" x2="1088.7988" y1="1014.4844" y2="1014.4844"/><polygon fill="#800080" points="1057.7988,1010.4844,1047.7988,1014.4844,1057.7988,1018.4844,1053.7988,1014.4844" style="stroke:#800080;stroke-width:1;"/><text fill="#000000" font-family="sans-serif" font-size="13" lengthAdjust="spacing" textLength="234.3809" x="1053.7988" y="996.4185">Extrahiere Nonce aus subject_token</text></g><path d="M988.8252,1029.4844 L1053.2681,1029.4844 L1053.2681,1036.6172 L1043.2681,1046.6172 L988.8252,1046.6172 L988.8252,1029.4844" fill="#EEEEEE" style="stroke:#000000;stroke-width:1.5;"/><rect fill="none" height="306.8047" style="stroke:#000000;stroke-width:1.5;" width="497.4009" x="988.8252" y="1029.4844"/><text fill="#000000" font-family="sans-serif" font-size="13" font-weight="bold" lengthAdjust="spacing" textLength="19.4429" x="1003.8252" y="1042.5513">alt</text><text fill="#000000" font-family="sans-serif" font-size="11" font-weight="bold" lengthAdjust="spacing" textLength="211.9272" x="1068.2681" y="1041.6948">[Hardware Attestation (TPM / SE)]</text><g class="message" data-entity-1="part4" data-entity-2="part4" id="msg19"><line style="stroke:#181818;stroke-width:1;" x1="1046.7988" x2="1088.7988" y1="1082.8828" y2="1082.8828"/><line style="stroke:#181818;stroke-width:1;" x1="1088.7988" x2="1088.7988" y1="1082.8828" y2="1095.8828"/><line style="stroke:#181818;stroke-width:1;" x1="1047.7988" x2="1088.7988" y1="1095.8828" y2="1095.8828"/><polygon fill="#181818" points="1057.7988,1091.8828,1047.7988,1095.8828,1057.7988,1099.8828,1053.7988,1095.8828" style="stroke:#181818;stroke-width:1;"/><text fill="#000000" font-family="sans-serif" font-size="13" lengthAdjust="spacing" textLength="267.5601" x="1054.9065" y="1062.6841">Verifiziere Hardware-Signatur (Quote/SE)</text><text fill="#000000" font-family="sans-serif" font-size="13" lengthAdjust="spacing" textLength="269.7754" x="1053.7988" y="1077.8169">gegen extrahierte Nonce (Replay-Schutz)</text></g><path d="M998.8252,1110.8828 L1063.2681,1110.8828 L1063.2681,1118.0156 L1053.2681,1128.0156 L998.8252,1128.0156 L998.8252,1110.8828" fill="#EEEEEE" style="stroke:#000000;stroke-width:1.5;"/><rect fill="none" height="132.3359" style="stroke:#000000;stroke-width:1.5;" width="477.4009" x="998.8252" y="1110.8828"/><text fill="#000000" font-family="sans-serif" font-size="13" font-weight="bold" lengthAdjust="spacing" textLength="19.4429" x="1013.8252" y="1123.9497">alt</text><text fill="#000000" font-family="sans-serif" font-size="11" font-weight="bold" lengthAdjust="spacing" textLength="151.54" x="1078.2681" y="1123.0933">[Windows / Linux (TPM)]</text><g class="message" data-entity-1="part4" data-entity-2="part4" id="msg20"><line style="stroke:#181818;stroke-width:1;" x1="1046.7988" x2="1088.7988" y1="1149.1484" y2="1149.1484"/><line style="stroke:#181818;stroke-width:1;" x1="1088.7988" x2="1088.7988" y1="1149.1484" y2="1162.1484"/><line style="stroke:#181818;stroke-width:1;" x1="1047.7988" x2="1088.7988" y1="1162.1484" y2="1162.1484"/><polygon fill="#181818" points="1057.7988,1158.1484,1047.7988,1162.1484,1057.7988,1166.1484,1053.7988,1162.1484" style="stroke:#181818;stroke-width:1;"/><text fill="#000000" font-family="sans-serif" font-size="13" lengthAdjust="spacing" textLength="167.5527" x="1053.7988" y="1144.0825">PCR-Replay via Event Log</text></g><g class="message" data-entity-1="part4" data-entity-2="part5" id="msg21"><polygon fill="#181818" points="1410.4692,1187.2813,1420.4692,1191.2813,1410.4692,1195.2813,1414.4692,1191.2813" style="stroke:#181818;stroke-width:1;"/><line style="stroke:#181818;stroke-width:1;" x1="1046.7988" x2="1416.4692" y1="1191.2813" y2="1191.2813"/><text fill="#000000" font-family="sans-serif" font-size="13" lengthAdjust="spacing" textLength="291.5859" x="1088.8411" y="1186.2153">Check PCR 7 &amp; PCR 23 gegen Referenzwerte</text></g><line style="stroke:#000000;stroke-width:1;stroke-dasharray:2,2;" x1="998.8252" x2="1476.2261" y1="1200.2813" y2="1200.2813"/><text fill="#000000" font-family="sans-serif" font-size="11" font-weight="bold" lengthAdjust="spacing" textLength="160.7568" x="1003.8252" y="1210.4917">[macOS (Secure Enclave)]</text><g class="message" data-entity-1="part4" data-entity-2="part5" id="msg22"><polygon fill="#181818" points="1410.4692,1231.2188,1420.4692,1235.2188,1410.4692,1239.2188,1414.4692,1235.2188" style="stroke:#181818;stroke-width:1;"/><line style="stroke:#181818;stroke-width:1;" x1="1046.7988" x2="1416.4692" y1="1235.2188" y2="1235.2188"/><text fill="#000000" font-family="sans-serif" font-size="13" lengthAdjust="spacing" textLength="287.8472" x="1090.7104" y="1230.1528">Check macOS Posture gegen Referenzwerte</text></g><line style="stroke:#000000;stroke-width:1;stroke-dasharray:2,2;" x1="988.8252" x2="1486.2261" y1="1251.2188" y2="1251.2188"/><text fill="#000000" font-family="sans-serif" font-size="11" font-weight="bold" lengthAdjust="spacing" textLength="205.5088" x="993.8252" y="1261.4292">[Software Attestation (Fallback)]</text><g class="message" data-entity-1="part4" data-entity-2="part4" id="msg23"><line style="stroke:#181818;stroke-width:1;" x1="1046.7988" x2="1088.7988" y1="1286.1563" y2="1286.1563"/><line style="stroke:#181818;stroke-width:1;" x1="1088.7988" x2="1088.7988" y1="1286.1563" y2="1299.1563"/><line style="stroke:#181818;stroke-width:1;" x1="1047.7988" x2="1088.7988" y1="1299.1563" y2="1299.1563"/><polygon fill="#181818" points="1057.7988,1295.1563,1047.7988,1299.1563,1057.7988,1303.1563,1053.7988,1299.1563" style="stroke:#181818;stroke-width:1;"/><text fill="#000000" font-family="sans-serif" font-size="13" lengthAdjust="spacing" textLength="234.8379" x="1053.7988" y="1281.0903">Extrahiere client-statement aus JWT</text></g><g class="message" data-entity-1="part4" data-entity-2="part5" id="msg24"><polygon fill="#181818" points="1410.4692,1324.2891,1420.4692,1328.2891,1410.4692,1332.2891,1414.4692,1328.2891" style="stroke:#181818;stroke-width:1;"/><line style="stroke:#181818;stroke-width:1;" x1="1046.7988" x2="1416.4692" y1="1328.2891" y2="1328.2891"/><text fill="#000000" font-family="sans-serif" font-size="13" lengthAdjust="spacing" textLength="254.8521" x="1107.208" y="1323.2231">Check Selbstauskunft (Software Policy)</text></g><g class="message" data-entity-1="part5" data-entity-2="part4" id="msg25"><polygon fill="#181818" points="1057.7988,1360.4219,1047.7988,1364.4219,1057.7988,1368.4219,1053.7988,1364.4219" style="stroke:#181818;stroke-width:1;"/><line style="stroke:#181818;stroke-width:1;stroke-dasharray:2,2;" x1="1051.7988" x2="1421.4692" y1="1364.4219" y2="1364.4219"/><text fill="#000000" font-family="sans-serif" font-size="13" lengthAdjust="spacing" textLength="204.0073" x="1132.6304" y="1359.356">Attestation Result (Allow/Deny)</text></g><path d="M658.7651,1386.4219 L723.208,1386.4219 L723.208,1393.5547 L713.208,1403.5547 L658.7651,1403.5547 L658.7651,1386.4219" fill="#EEEEEE" style="stroke:#000000;stroke-width:1.5;"/><rect fill="none" height="120.4688" style="stroke:#000000;stroke-width:1.5;" width="436.0073" x="658.7651" y="1386.4219"/><text fill="#000000" font-family="sans-serif" font-size="13" font-weight="bold" lengthAdjust="spacing" textLength="19.4429" x="673.7651" y="1399.4888">alt</text><text fill="#000000" font-family="sans-serif" font-size="11" font-weight="bold" lengthAdjust="spacing" textLength="151.8999" x="738.208" y="1398.6323">[Attestation erfolgreich]</text><g class="message" data-entity-1="part4" data-entity-2="part3" id="msg26"><polygon fill="#181818" points="731.479,1450.9531,721.479,1454.9531,731.479,1458.9531,727.479,1454.9531" style="stroke:#181818;stroke-width:1;"/><line style="stroke:#181818;stroke-width:1;stroke-dasharray:2,2;" x1="725.479" x2="1045.7988" y1="1454.9531" y2="1454.9531"/><text fill="#000000" font-family="sans-serif" font-size="13" lengthAdjust="spacing" textLength="47.7026" x="859.7876" y="1419.6216">200 OK</text><text fill="#000000" font-family="sans-serif" font-size="13" lengthAdjust="spacing" textLength="202.9473" x="782.1653" y="1434.7544">{Access Token, Refresh Token,</text><text fill="#000000" font-family="sans-serif" font-size="13" lengthAdjust="spacing" textLength="216.125" x="775.5764" y="1449.8872">[ZETA Guard Attestation Token]}</text></g><line style="stroke:#000000;stroke-width:1;stroke-dasharray:2,2;" x1="658.7651" x2="1094.7725" y1="1463.9531" y2="1463.9531"/><text fill="#000000" font-family="sans-serif" font-size="11" font-weight="bold" lengthAdjust="spacing" textLength="146.0508" x="663.7651" y="1474.1636">[Attestation fehlerhaft]</text><g class="message" data-entity-1="part4" data-entity-2="part3" id="msg27"><polygon fill="#181818" points="731.479,1494.8906,721.479,1498.8906,731.479,1502.8906,727.479,1498.8906" style="stroke:#181818;stroke-width:1;"/><line style="stroke:#181818;stroke-width:1;stroke-dasharray:2,2;" x1="725.479" x2="1045.7988" y1="1498.8906" y2="1498.8906"/><text fill="#000000" font-family="sans-serif" font-size="13" lengthAdjust="spacing" textLength="94.3262" x="836.4758" y="1493.8247">403 Forbidden</text></g><?plantuml-src ZLRRRk9847ttLvHcfPNHc2HAPZLIfApaPPXibcJZnMX6oaMeCGNkfMaptMr8Cfg_cJ_P7zlgRWnso8q7CDrLfqxT3kWPbmkcs1mqVYjHPdY1MhCfne9F9MGe3Qh0S2CG1iKC9NJlifp9ASAAcnnYOr0RPdWXWu203C_uWaa3xmR91Un3shsHuPzCZLTCOUiTC0rqqRIyYbCoyaYel16TDOsI54evXglk8BwH7S69c3FqZqtRk3IvXVo2Yazu1UbEcuQN2O65NJakbAxCw2m8JaxWjsFenuCKuf5WvGJ2xfAFRNtWrqU5QC79IU1fGFjt7-OOJhi3s9S5EGJk1DfqvwsEuMzt7iZ281HBL9kBDOpuxwVM1j9oz2zcPXrlMKX8BphjFswafjvGNdGOSZaJUnuG-1mITYyADcxL25NOfoYf7kG5skCEZSCD7IYiCKqh29WmKFMitc48gwQs0g3NDWQromOmLP52HyXRMRIld6gyqkHxpcLvvu3yhNsHjmMXisFxTZZyfwJAX4cdVtBzCJeykeryWX74lQsNvTAkOfl5VFZDUa5O9G9pRXeEEs4SOShWl9Y6B-2YjHcAOjf4gfLsCnlVDpoYfkiFvuj28ynPTfbIrJ4hgRnTcGcsn1sMBdfNKGvszTZCb2Ze8IcqiMvXUfP4aAPV8a2JxJsTPDeTfbGCsZyv5ZXCL6ylxktHKKJjrRbl4holG5lFr43Za6dQ3xVahvUWRXx1mcElyvVZmDKWBIPcTxe-Co56B9izdgxT2SxSITjwufoUQ8jJ52FwNkfPAITaV9b6aAHjqW1Du1xIBPpYqzn0CTd0FWOZPLDZ67E5CmDSwafl8AxIWh--3W0vBVy8AG4JsCHsDI2vJ4a4t9RToEy-pBOs418ASQIkU4_RcUqQHhJcB-rf1BNLjzRNLGjkVmJ1L1NbmlE0ZGwIT2M5uDazT7AiohnMfmrfR_nGAtEDibsff6mG3gdayAdJVntjoNIkBFA4pnZ9t5axwPqrSAv_MPHg8V1s0zYzCuhb3i-FhmtVG7R-6-LvYuwzHhp2QDjjOZJE43g5sYU06ng2AQM35IzJ4Glxk13ilfrcUMaUjf4s3wyBurF4I1NR7XcMd84JC3YlYLF3YNxDZdsthIDyj2D0duT7u6dtSM9_HnvMblW6uYqwzLmOxrRfr8jHQ6aQHNcpD3nLbzfWx2oqdH5Qjk0btatzeBmh7dvbMa6TidiZPoU1Qm9rldtK9NKtZ8KeLlkVK9A_qmZRyxeXgaaXfWfvbjVdlYPwXmS7SDaZ_OYpZFwQ-Jy3aIsfGfsllzBsstz6S5hIg3O2k7jI15VR-iK4Su4gPnFpJE0F1qVmkL0ZFYPLiUp_1m00?></g></svg>