<?plantuml 1.2026.2?><svg xmlns="http://www.w3.org/2000/svg" xmlns:xlink="http://www.w3.org/1999/xlink" contentStyleType="text/css" data-diagram-type="SEQUENCE" height="734px" preserveAspectRatio="none" style="width:667px;height:734px;background:#FFFFFF;" version="1.1" viewBox="0 0 667 734" width="667px" zoomAndPan="magnify"><title>Token Exchange with Attestation</title><defs/><g><rect fill="#F8F8FF" height="685.6563" style="stroke:#181818;stroke-width:0.5;" width="102.1934" x="11" y="43.2969"/><text fill="#000000" font-family="Helvetica" font-size="10" font-weight="bold" x="53.6348" y="52.5791">LEI</text><rect fill="#E6E6FA" height="669.0156" style="stroke:#181818;stroke-width:0.5;" width="102.1934" x="11" y="59.9375"/><text fill="#000000" font-family="Helvetica" font-size="10" font-weight="bold" x="23" y="69.2197">Prim&#228;rsystem</text><rect fill="#F4A460" height="652.375" style="stroke:#181818;stroke-width:0.5;" width="102.1934" x="11" y="76.5781"/><text fill="#000000" font-family="Helvetica" font-size="10" font-weight="bold" x="29.5967" y="85.8604">ZETA Client</text><rect fill="#C9FFC9" height="685.6563" style="stroke:#181818;stroke-width:0.5;" width="374.2578" x="287.71" y="43.2969"/><text fill="#000000" font-family="Helvetica" font-size="10" font-weight="bold" x="412.9468" y="52.5791">Anbieter TI 2.0 Dienst</text><rect fill="#F4A460" height="669.0156" style="stroke:#181818;stroke-width:0.5;" width="374.2578" x="287.71" y="59.9375"/><text fill="#000000" font-family="Helvetica" font-size="10" font-weight="bold" x="441.6943" y="69.2197">ZETA Guard</text><text fill="#000000" font-family="Helvetica" font-size="14" font-weight="bold" x="204.98" y="27.9951">Token Exchange with Attestation</text><g><title>ZETA Client</title><rect fill="#000000" fill-opacity="0.00000" height="554.1719" width="8" x="58.5967" y="130.5"/><line style="stroke:#181818;stroke-width:0.5;stroke-dasharray:5,5;" x1="62.0967" x2="62.0967" y1="130.5" y2="684.6719"/></g><g><title/><rect fill="#FFFFFF" height="546.1719" style="stroke:#181818;stroke-width:1;" width="10" x="57.0967" y="138.5"/></g><g><title>PDP</title><rect fill="#000000" fill-opacity="0.00000" height="554.1719" width="8" x="346.6846" y="130.5"/><line style="stroke:#181818;stroke-width:0.5;stroke-dasharray:5,5;" x1="350.1846" x2="350.1846" y1="130.5" y2="684.6719"/></g><g><title/><rect fill="#FFFFFF" height="326.6875" style="stroke:#181818;stroke-width:1;" width="10" x="345.1846" y="256.7031"/></g><g><title>PDP</title><rect fill="#000000" fill-opacity="0.00000" height="554.1719" width="8" x="614.1816" y="130.5"/><line style="stroke:#181818;stroke-width:0.5;stroke-dasharray:5,5;" x1="617.6816" x2="617.6816" y1="130.5" y2="684.6719"/></g><g><title/><rect fill="#FFFFFF" height="25.6406" style="stroke:#181818;stroke-width:1;" width="10" x="612.6816" y="437.5469"/></g><rect fill="#E2E2F0" height="25.6406" rx="2.5" ry="2.5" style="stroke:#181818;stroke-width:0.5;" width="72.2471" x="25.9731" y="103.8594"/><text fill="#000000" font-family="Helvetica" font-size="10" x="32.9731" y="120.1416">ZETA Client</text><rect fill="#E2E2F0" height="37.2813" rx="2.5" ry="2.5" style="stroke:#181818;stroke-width:0.5;" width="116.9492" x="291.71" y="92.2188"/><text fill="#000000" font-family="Helvetica" font-size="10" x="340.3042" y="108.501">PDP</text><text fill="#000000" font-family="Helvetica" font-size="10" x="298.71" y="120.1416">Authorization Server</text><rect fill="#E2E2F0" height="37.2813" rx="2.5" ry="2.5" style="stroke:#181818;stroke-width:0.5;" width="80.5723" x="577.3955" y="92.2188"/><text fill="#000000" font-family="Helvetica" font-size="10" x="607.8013" y="108.501">PDP</text><text fill="#000000" font-family="Helvetica" font-size="10" x="584.3955" y="120.1416">Policy Engine</text><rect fill="#E2E2F0" height="25.6406" rx="2.5" ry="2.5" style="stroke:#181818;stroke-width:0.5;" width="72.2471" x="25.9731" y="684.6719"/><text fill="#000000" font-family="Helvetica" font-size="10" x="32.9731" y="700.9541">ZETA Client</text><rect fill="#E2E2F0" height="37.2813" rx="2.5" ry="2.5" style="stroke:#181818;stroke-width:0.5;" width="116.9492" x="291.71" y="684.6719"/><text fill="#000000" font-family="Helvetica" font-size="10" x="340.3042" y="700.9541">PDP</text><text fill="#000000" font-family="Helvetica" font-size="10" x="298.71" y="712.5947">Authorization Server</text><rect fill="#E2E2F0" height="37.2813" rx="2.5" ry="2.5" style="stroke:#181818;stroke-width:0.5;" width="80.5723" x="577.3955" y="684.6719"/><text fill="#000000" font-family="Helvetica" font-size="10" x="607.8013" y="700.9541">PDP</text><text fill="#000000" font-family="Helvetica" font-size="10" x="584.3955" y="712.5947">Policy Engine</text><line style="stroke:#181818;stroke-width:1;" x1="67.0967" x2="109.0967" y1="156.1406" y2="156.1406"/><line style="stroke:#181818;stroke-width:1;" x1="109.0967" x2="109.0967" y1="156.1406" y2="169.1406"/><line style="stroke:#181818;stroke-width:1;" x1="68.0967" x2="109.0967" y1="169.1406" y2="169.1406"/><polygon fill="#181818" points="78.0967,165.1406,68.0967,169.1406,78.0967,173.1406,74.0967,169.1406" style="stroke:#181818;stroke-width:1;"/><text fill="#000000" font-family="Helvetica" font-size="10" x="74.0967" y="151.7822">(01)</text><text fill="#000000" font-family="Helvetica" font-size="10" x="98.624" y="151.7822">Create DPoP Proof (without Nonce)</text><line style="stroke:#181818;stroke-width:1;" x1="67.0967" x2="109.0967" y1="194.7813" y2="194.7813"/><line style="stroke:#181818;stroke-width:1;" x1="109.0967" x2="109.0967" y1="194.7813" y2="207.7813"/><line style="stroke:#181818;stroke-width:1;" x1="68.0967" x2="109.0967" y1="207.7813" y2="207.7813"/><polygon fill="#181818" points="78.0967,203.7813,68.0967,207.7813,78.0967,211.7813,74.0967,207.7813" style="stroke:#181818;stroke-width:1;"/><text fill="#000000" font-family="Helvetica" font-size="10" x="74.0967" y="190.4229">(02)</text><text fill="#000000" font-family="Helvetica" font-size="10" x="98.624" y="190.4229">Create Client Assertion JWT (without Attestation)</text><polygon fill="#181818" points="333.1846,252.7031,343.1846,256.7031,333.1846,260.7031,337.1846,256.7031" style="stroke:#181818;stroke-width:1;"/><line style="stroke:#181818;stroke-width:1;" x1="67.0967" x2="339.1846" y1="256.7031" y2="256.7031"/><text fill="#000000" font-family="Helvetica" font-size="10" x="74.0967" y="240.7041">(03)</text><text fill="#000000" font-family="Helvetica" font-size="10" x="98.624" y="229.0635">POST /token dpop: dpop_proof</text><text fill="#000000" font-family="Helvetica" font-size="10" x="98.624" y="240.7041">{client_assertion (JWT, PrK.Client.Sig signiert),</text><text fill="#000000" font-family="Helvetica" font-size="10" x="98.624" y="252.3447">refresh_token}</text><line style="stroke:#181818;stroke-width:1;" x1="355.1846" x2="397.1846" y1="293.9844" y2="293.9844"/><line style="stroke:#181818;stroke-width:1;" x1="397.1846" x2="397.1846" y1="293.9844" y2="306.9844"/><line style="stroke:#181818;stroke-width:1;" x1="356.1846" x2="397.1846" y1="306.9844" y2="306.9844"/><polygon fill="#181818" points="366.1846,302.9844,356.1846,306.9844,366.1846,310.9844,362.1846,306.9844" style="stroke:#181818;stroke-width:1;"/><text fill="#000000" font-family="Helvetica" font-size="10" x="362.1846" y="283.8057">(04)</text><text fill="#000000" font-family="Helvetica" font-size="10" x="386.7119" y="277.9854">Validate Request (Client Assertion,</text><text fill="#000000" font-family="Helvetica" font-size="10" x="386.7119" y="289.626">DPoP Proof, Refresh Token)</text><line style="stroke:#181818;stroke-width:1;" x1="355.1846" x2="397.1846" y1="332.625" y2="332.625"/><line style="stroke:#181818;stroke-width:1;" x1="397.1846" x2="397.1846" y1="332.625" y2="345.625"/><line style="stroke:#181818;stroke-width:1;" x1="356.1846" x2="397.1846" y1="345.625" y2="345.625"/><polygon fill="#181818" points="366.1846,341.625,356.1846,345.625,366.1846,349.625,362.1846,345.625" style="stroke:#181818;stroke-width:1;"/><text fill="#000000" font-family="Helvetica" font-size="10" x="362.1846" y="328.2666">(05)</text><text fill="#000000" font-family="Helvetica" font-size="10" x="386.7119" y="328.2666">Invalidate Refresh token</text><path d="M27.0967,357.625 L87.0527,357.625 L87.0527,361.2656 L77.0527,371.2656 L27.0967,371.2656 L27.0967,357.625" fill="#EEEEEE" style="stroke:#000000;stroke-width:1.5;"/><rect fill="none" height="303.0469" style="stroke:#000000;stroke-width:1.5;" width="611.585" x="27.0967" y="357.625"/><text fill="#000000" font-family="Helvetica" font-size="10" font-weight="bold" x="42.0967" y="367.9072">alt</text><text fill="#000000" font-family="Helvetica" font-size="10" font-weight="bold" x="102.0527" y="368.9072">[Validation successful]</text><line style="stroke:#000000;stroke-width:1;stroke-dasharray:2,2;" x1="27.0967" x2="638.6816" y1="616.3906" y2="616.3906"/><text fill="#000000" font-family="Helvetica" font-size="10" font-weight="bold" x="32.0967" y="627.6729">[Validation fehlerhaft]</text><line style="stroke:#181818;stroke-width:1;" x1="355.1846" x2="397.1846" y1="398.9063" y2="398.9063"/><line style="stroke:#181818;stroke-width:1;" x1="397.1846" x2="397.1846" y1="398.9063" y2="411.9063"/><line style="stroke:#181818;stroke-width:1;" x1="356.1846" x2="397.1846" y1="411.9063" y2="411.9063"/><polygon fill="#181818" points="366.1846,407.9063,356.1846,411.9063,366.1846,415.9063,362.1846,411.9063" style="stroke:#181818;stroke-width:1;"/><text fill="#000000" font-family="Helvetica" font-size="10" x="362.1846" y="394.5479">(06)</text><text fill="#000000" font-family="Helvetica" font-size="10" x="386.7119" y="394.5479">Policy Engine Input erstellen</text><polygon fill="#181818" points="600.6816,433.5469,610.6816,437.5469,600.6816,441.5469,604.6816,437.5469" style="stroke:#181818;stroke-width:1;"/><line style="stroke:#181818;stroke-width:1;" x1="355.1846" x2="606.6816" y1="437.5469" y2="437.5469"/><text fill="#000000" font-family="Helvetica" font-size="10" x="362.1846" y="433.1885">(07)</text><text fill="#000000" font-family="Helvetica" font-size="10" x="386.7119" y="433.1885">POST /v1/data/authz {Policy Engine Input}</text><polygon fill="#181818" points="366.1846,459.1875,356.1846,463.1875,366.1846,467.1875,362.1846,463.1875" style="stroke:#181818;stroke-width:1;"/><line style="stroke:#181818;stroke-width:1;stroke-dasharray:2,2;" x1="360.1846" x2="611.6816" y1="463.1875" y2="463.1875"/><text fill="#000000" font-family="Helvetica" font-size="10" x="372.1846" y="458.8291">(08)</text><text fill="#000000" font-family="Helvetica" font-size="10" x="396.7119" y="458.8291">Policy Decision</text><path d="M46.0967,475.1875 L106.0527,475.1875 L106.0527,478.8281 L96.0527,488.8281 L46.0967,488.8281 L46.0967,475.1875" fill="#EEEEEE" style="stroke:#000000;stroke-width:1.5;"/><rect fill="none" height="116.2031" style="stroke:#000000;stroke-width:1.5;" width="320.0879" x="46.0967" y="475.1875"/><text fill="#000000" font-family="Helvetica" font-size="10" font-weight="bold" x="61.0967" y="485.4697">alt</text><text fill="#000000" font-family="Helvetica" font-size="10" font-weight="bold" x="121.0527" y="486.4697">[Policy Decision allow]</text><line style="stroke:#000000;stroke-width:1;stroke-dasharray:2,2;" x1="46.0967" x2="366.1846" y1="547.1094" y2="547.1094"/><text fill="#000000" font-family="Helvetica" font-size="10" font-weight="bold" x="51.0967" y="558.3916">[Policy Decision deny]</text><polygon fill="#181818" points="78.0967,524.1094,68.0967,528.1094,78.0967,532.1094,74.0967,528.1094" style="stroke:#181818;stroke-width:1;"/><line style="stroke:#181818;stroke-width:1;stroke-dasharray:2,2;" x1="72.0967" x2="344.1846" y1="528.1094" y2="528.1094"/><text fill="#000000" font-family="Helvetica" font-size="10" x="84.0967" y="517.9307">(09)</text><text fill="#000000" font-family="Helvetica" font-size="10" x="108.624" y="512.1104">200 OK</text><text fill="#000000" font-family="Helvetica" font-size="10" x="108.624" y="523.751">{Access Token, Refresh Token}</text><polygon fill="#181818" points="78.0967,579.3906,68.0967,583.3906,78.0967,587.3906,74.0967,583.3906" style="stroke:#181818;stroke-width:1;"/><line style="stroke:#181818;stroke-width:1;stroke-dasharray:2,2;" x1="72.0967" x2="344.1846" y1="583.3906" y2="583.3906"/><text fill="#000000" font-family="Helvetica" font-size="10" x="84.0967" y="579.0322">(10)</text><text fill="#000000" font-family="Helvetica" font-size="10" x="108.624" y="579.0322">403 Forbidden</text><polygon fill="#181818" points="78.0967,648.6719,68.0967,652.6719,78.0967,656.6719,74.0967,652.6719" style="stroke:#181818;stroke-width:1;"/><line style="stroke:#181818;stroke-width:1;stroke-dasharray:2,2;" x1="72.0967" x2="349.1846" y1="652.6719" y2="652.6719"/><text fill="#000000" font-family="Helvetica" font-size="10" x="84.0967" y="648.3135">(11)</text><text fill="#000000" font-family="Helvetica" font-size="10" x="108.624" y="648.3135">403 Forbidden</text><?plantuml-src VLJRSjem47ttLspf2mmX8McVUEYC0-JI9i4Jc6RQoKn6s8kjHaYk99D09d_JF-cFTILZS0XJFu0bdJrxzkpAhB1A5lCfQcWqkzrM8p2FNEPCipaaE6E5i6TAsZ5V8Hntzn_Ui3d21Oe5MXwp6cPGOgwLL2PdCIORT5yLcgEkOGNAr6PXygim5gIIM3ip-Bj06UCjpb2xbrCMFwPQ5JBfAw4qt6NSrWF6km7R6axsy5wZCIp5KF1Kaf2P3GBBhK2Og4UKC7oECoPJX2TkCmYjHMEPvKe6mOTSitJEmA9QWTK51i5KFKFZQdZPW8_dcJAsr0RWzoFDvt__QBCq5kU4k68Bb0aP0R16_1nEGkWBZjBI-PZ9P7cgrPFq2FUGTBAPvqpQDGwOUHldiSJh6Ua9DgkW-YzbXdBAqLBl9vTmSjY50OKRbtSox5_SZAv6vp-2kgxpWkdalQowfB2msTWhYWRHlNHBfVdA-qLzqGlK3NWNDOh2RKoa18-NC9GfbzZO9xwiizsktg3pfVAY1tsDp28C8XL1f9MQGTCrJXKMRXHrk_MVeFKwD0QrL_prRh8DhxM-Jk9BRhTx48t64pYoVcYINEKz__kGEn7tyYNs4GziGzuazWFI-Esm93iSynGC3I5T3Tiwk9SQPnfDzk0fNuFIsoeZgVxE14-SxbitoNHnchi54CdMY0F2US9oi5ixX3sub8ijOudqgGCcR9NC2JT57DETcHM2khDBygPzH9cJSwXfu0NTyJgUchvrRN5yHEJiYD7f2bxsaBnIh9kJJfMgqzaa6s3CZRkH04xgpYxj2VNaXswTVDFw7fnqkp3wHkq9VKsbDJjEkTGe3BuZJb0kz_8wRP-xd-1CwIbF4b-u6rzI5tYccfipp0JgZD5tPv_0jpGLoJy0?></g></svg>