<?plantuml 1.2026.2?><svg xmlns="http://www.w3.org/2000/svg" xmlns:xlink="http://www.w3.org/1999/xlink" contentStyleType="text/css" data-diagram-type="SEQUENCE" height="756px" preserveAspectRatio="none" style="width:667px;height:756px;background:#FFFFFF;" version="1.1" viewBox="0 0 667 756" width="667px" zoomAndPan="magnify"><title>Token Exchange with Refresh Token</title><defs/><g><rect fill="#F8F8FF" height="707.6563" style="stroke:#181818;stroke-width:0.5;" width="102.1934" x="11" y="43.2969"/><text fill="#000000" font-family="Helvetica" font-size="10" font-weight="bold" x="53.6348" y="52.5791">LEI</text><rect fill="#E6E6FA" height="691.0156" style="stroke:#181818;stroke-width:0.5;" width="102.1934" x="11" y="59.9375"/><text fill="#000000" font-family="Helvetica" font-size="10" font-weight="bold" x="23" y="69.2197">Prim&#228;rsystem</text><rect fill="#EDFDEC" height="707.6563" style="stroke:#181818;stroke-width:0.5;" width="374.2578" x="287.71" y="43.2969"/><text fill="#000000" font-family="Helvetica" font-size="10" font-weight="bold" x="412.9468" y="52.5791">Anbieter TI 2.0 Dienst</text><rect fill="#FFF3E5" height="691.0156" style="stroke:#181818;stroke-width:0.5;" width="374.2578" x="287.71" y="59.9375"/><text fill="#000000" font-family="Helvetica" font-size="10" font-weight="bold" x="441.6943" y="69.2197">ZETA Guard</text><text fill="#000000" font-family="Helvetica" font-size="14" font-weight="bold" x="192.6719" y="27.9951">Token Exchange with Refresh Token</text><g><title>ZETA Client</title><rect fill="#000000" fill-opacity="0.00000" height="592.8125" width="8" x="58.5967" y="113.8594"/><line style="stroke:#000000;stroke-width:0.5;stroke-dasharray:5,5;" x1="62.0967" x2="62.0967" y1="113.8594" y2="706.6719"/></g><g><title/><rect fill="#FFFFFF" height="584.8125" style="stroke:#181818;stroke-width:1;" width="10" x="57.0967" y="121.8594"/></g><g><title>PDP</title><rect fill="#000000" fill-opacity="0.00000" height="592.8125" width="8" x="346.6846" y="113.8594"/><line style="stroke:#000000;stroke-width:0.5;stroke-dasharray:5,5;" x1="350.1846" x2="350.1846" y1="113.8594" y2="706.6719"/></g><g><title/><rect fill="#FFFFFF" height="365.3281" style="stroke:#181818;stroke-width:1;" width="10" x="345.1846" y="240.0625"/></g><g><title>PDP</title><rect fill="#000000" fill-opacity="0.00000" height="592.8125" width="8" x="614.1816" y="113.8594"/><line style="stroke:#000000;stroke-width:0.5;stroke-dasharray:5,5;" x1="617.6816" x2="617.6816" y1="113.8594" y2="706.6719"/></g><g><title/><rect fill="#FFFFFF" height="25.6406" style="stroke:#181818;stroke-width:1;" width="10" x="612.6816" y="459.5469"/></g><rect fill="#FFE6CC" height="25.6406" rx="2.5" ry="2.5" style="stroke:#D79B00;stroke-width:0.5;" width="72.2471" x="25.9731" y="87.2188"/><text fill="#000000" font-family="Helvetica" font-size="10" x="32.9731" y="103.501">ZETA Client</text><rect fill="#FFE6CC" height="37.2813" rx="2.5" ry="2.5" style="stroke:#D79B00;stroke-width:0.5;" width="116.9492" x="291.71" y="75.5781"/><text fill="#000000" font-family="Helvetica" font-size="10" x="340.3042" y="91.8604">PDP</text><text fill="#000000" font-family="Helvetica" font-size="10" x="298.71" y="103.501">Authorization Server</text><rect fill="#FFE6CC" height="37.2813" rx="2.5" ry="2.5" style="stroke:#D79B00;stroke-width:0.5;" width="80.5723" x="577.3955" y="75.5781"/><text fill="#000000" font-family="Helvetica" font-size="10" x="607.8013" y="91.8604">PDP</text><text fill="#000000" font-family="Helvetica" font-size="10" x="584.3955" y="103.501">Policy Engine</text><rect fill="#FFE6CC" height="25.6406" rx="2.5" ry="2.5" style="stroke:#D79B00;stroke-width:0.5;" width="72.2471" x="25.9731" y="706.6719"/><text fill="#000000" font-family="Helvetica" font-size="10" x="32.9731" y="722.9541">ZETA Client</text><rect fill="#FFE6CC" height="37.2813" rx="2.5" ry="2.5" style="stroke:#D79B00;stroke-width:0.5;" width="116.9492" x="291.71" y="706.6719"/><text fill="#000000" font-family="Helvetica" font-size="10" x="340.3042" y="722.9541">PDP</text><text fill="#000000" font-family="Helvetica" font-size="10" x="298.71" y="734.5947">Authorization Server</text><rect fill="#FFE6CC" height="37.2813" rx="2.5" ry="2.5" style="stroke:#D79B00;stroke-width:0.5;" width="80.5723" x="577.3955" y="706.6719"/><text fill="#000000" font-family="Helvetica" font-size="10" x="607.8013" y="722.9541">PDP</text><text fill="#000000" font-family="Helvetica" font-size="10" x="584.3955" y="734.5947">Policy Engine</text><line style="stroke:#181818;stroke-width:1;" x1="67.0967" x2="109.0967" y1="139.5" y2="139.5"/><line style="stroke:#181818;stroke-width:1;" x1="109.0967" x2="109.0967" y1="139.5" y2="152.5"/><line style="stroke:#181818;stroke-width:1;" x1="68.0967" x2="109.0967" y1="152.5" y2="152.5"/><polygon fill="#181818" points="78.0967,148.5,68.0967,152.5,78.0967,156.5,74.0967,152.5" style="stroke:#181818;stroke-width:1;"/><text fill="#000000" font-family="Helvetica" font-size="10" x="74.0967" y="135.1416">(01)</text><text fill="#000000" font-family="Helvetica" font-size="10" x="98.624" y="135.1416">Create DPoP Proof (without Nonce)</text><line style="stroke:#181818;stroke-width:1;" x1="67.0967" x2="109.0967" y1="178.1406" y2="178.1406"/><line style="stroke:#181818;stroke-width:1;" x1="109.0967" x2="109.0967" y1="178.1406" y2="191.1406"/><line style="stroke:#181818;stroke-width:1;" x1="68.0967" x2="109.0967" y1="191.1406" y2="191.1406"/><polygon fill="#181818" points="78.0967,187.1406,68.0967,191.1406,78.0967,195.1406,74.0967,191.1406" style="stroke:#181818;stroke-width:1;"/><text fill="#000000" font-family="Helvetica" font-size="10" x="74.0967" y="173.7822">(02)</text><text fill="#000000" font-family="Helvetica" font-size="10" x="98.624" y="173.7822">Create Client Assertion JWT (without Attestation)</text><polygon fill="#181818" points="333.1846,236.0625,343.1846,240.0625,333.1846,244.0625,337.1846,240.0625" style="stroke:#181818;stroke-width:1;"/><line style="stroke:#181818;stroke-width:1;" x1="67.0967" x2="339.1846" y1="240.0625" y2="240.0625"/><text fill="#000000" font-family="Helvetica" font-size="10" x="74.0967" y="224.0635">(03)</text><text fill="#000000" font-family="Helvetica" font-size="10" x="98.624" y="212.4229">POST /token dpop: dpop_proof</text><text fill="#000000" font-family="Helvetica" font-size="10" x="98.624" y="224.0635">{client_assertion (JWT, PrK.Client.Sig signiert),</text><text fill="#000000" font-family="Helvetica" font-size="10" x="98.624" y="235.7041">refresh_token}</text><line style="stroke:#181818;stroke-width:1;" x1="355.1846" x2="397.1846" y1="277.3438" y2="277.3438"/><line style="stroke:#181818;stroke-width:1;" x1="397.1846" x2="397.1846" y1="277.3438" y2="290.3438"/><line style="stroke:#181818;stroke-width:1;" x1="356.1846" x2="397.1846" y1="290.3438" y2="290.3438"/><polygon fill="#181818" points="366.1846,286.3438,356.1846,290.3438,366.1846,294.3438,362.1846,290.3438" style="stroke:#181818;stroke-width:1;"/><text fill="#000000" font-family="Helvetica" font-size="10" x="362.1846" y="267.165">(04)</text><text fill="#000000" font-family="Helvetica" font-size="10" x="386.7119" y="261.3447">Validate Request (Client Assertion,</text><text fill="#000000" font-family="Helvetica" font-size="10" x="386.7119" y="272.9854">DPoP Proof, Refresh Token)</text><line style="stroke:#181818;stroke-width:1;" x1="355.1846" x2="397.1846" y1="315.9844" y2="315.9844"/><line style="stroke:#181818;stroke-width:1;" x1="397.1846" x2="397.1846" y1="315.9844" y2="328.9844"/><line style="stroke:#181818;stroke-width:1;" x1="356.1846" x2="397.1846" y1="328.9844" y2="328.9844"/><polygon fill="#181818" points="366.1846,324.9844,356.1846,328.9844,366.1846,332.9844,362.1846,328.9844" style="stroke:#181818;stroke-width:1;"/><text fill="#000000" font-family="Helvetica" font-size="10" x="362.1846" y="311.626">(05)</text><text fill="#000000" font-family="Helvetica" font-size="10" x="386.7119" y="311.626">Pr&#252;fe Sperrstatus (OCSP/CRL) der SM(C)-B</text><line style="stroke:#181818;stroke-width:1;" x1="355.1846" x2="397.1846" y1="354.625" y2="354.625"/><line style="stroke:#181818;stroke-width:1;" x1="397.1846" x2="397.1846" y1="354.625" y2="367.625"/><line style="stroke:#181818;stroke-width:1;" x1="356.1846" x2="397.1846" y1="367.625" y2="367.625"/><polygon fill="#181818" points="366.1846,363.625,356.1846,367.625,366.1846,371.625,362.1846,367.625" style="stroke:#181818;stroke-width:1;"/><text fill="#000000" font-family="Helvetica" font-size="10" x="362.1846" y="350.2666">(06)</text><text fill="#000000" font-family="Helvetica" font-size="10" x="386.7119" y="350.2666">Invalidate Refresh token</text><path d="M27.0967,379.625 L87.0527,379.625 L87.0527,383.2656 L77.0527,393.2656 L27.0967,393.2656 L27.0967,379.625" fill="#EEEEEE" style="stroke:#000000;stroke-width:1.5;"/><rect fill="none" height="303.0469" style="stroke:#000000;stroke-width:1.5;" width="611.585" x="27.0967" y="379.625"/><text fill="#000000" font-family="Helvetica" font-size="10" font-weight="bold" x="42.0967" y="389.9072">alt</text><text fill="#000000" font-family="Helvetica" font-size="10" font-weight="bold" x="102.0527" y="390.9072">[Validation successful]</text><line style="stroke:#000000;stroke-width:1;stroke-dasharray:2,2;" x1="27.0967" x2="638.6816" y1="638.3906" y2="638.3906"/><text fill="#000000" font-family="Helvetica" font-size="10" font-weight="bold" x="32.0967" y="649.6729">[Validation fehlerhaft]</text><line style="stroke:#181818;stroke-width:1;" x1="355.1846" x2="397.1846" y1="420.9063" y2="420.9063"/><line style="stroke:#181818;stroke-width:1;" x1="397.1846" x2="397.1846" y1="420.9063" y2="433.9063"/><line style="stroke:#181818;stroke-width:1;" x1="356.1846" x2="397.1846" y1="433.9063" y2="433.9063"/><polygon fill="#181818" points="366.1846,429.9063,356.1846,433.9063,366.1846,437.9063,362.1846,433.9063" style="stroke:#181818;stroke-width:1;"/><text fill="#000000" font-family="Helvetica" font-size="10" x="362.1846" y="416.5479">(07)</text><text fill="#000000" font-family="Helvetica" font-size="10" x="386.7119" y="416.5479">Policy Engine Input erstellen</text><polygon fill="#181818" points="600.6816,455.5469,610.6816,459.5469,600.6816,463.5469,604.6816,459.5469" style="stroke:#181818;stroke-width:1;"/><line style="stroke:#181818;stroke-width:1;" x1="355.1846" x2="606.6816" y1="459.5469" y2="459.5469"/><text fill="#000000" font-family="Helvetica" font-size="10" x="362.1846" y="455.1885">(08)</text><text fill="#000000" font-family="Helvetica" font-size="10" x="386.7119" y="455.1885">POST /v1/data/authz {Policy Engine Input}</text><polygon fill="#181818" points="366.1846,481.1875,356.1846,485.1875,366.1846,489.1875,362.1846,485.1875" style="stroke:#181818;stroke-width:1;"/><line style="stroke:#181818;stroke-width:1;stroke-dasharray:2,2;" x1="360.1846" x2="611.6816" y1="485.1875" y2="485.1875"/><text fill="#000000" font-family="Helvetica" font-size="10" x="372.1846" y="480.8291">(09)</text><text fill="#000000" font-family="Helvetica" font-size="10" x="396.7119" y="480.8291">Policy Decision</text><path d="M46.0967,497.1875 L106.0527,497.1875 L106.0527,500.8281 L96.0527,510.8281 L46.0967,510.8281 L46.0967,497.1875" fill="#EEEEEE" style="stroke:#000000;stroke-width:1.5;"/><rect fill="none" height="116.2031" style="stroke:#000000;stroke-width:1.5;" width="320.0879" x="46.0967" y="497.1875"/><text fill="#000000" font-family="Helvetica" font-size="10" font-weight="bold" x="61.0967" y="507.4697">alt</text><text fill="#000000" font-family="Helvetica" font-size="10" font-weight="bold" x="121.0527" y="508.4697">[Policy Decision allow]</text><line style="stroke:#000000;stroke-width:1;stroke-dasharray:2,2;" x1="46.0967" x2="366.1846" y1="569.1094" y2="569.1094"/><text fill="#000000" font-family="Helvetica" font-size="10" font-weight="bold" x="51.0967" y="580.3916">[Policy Decision deny]</text><polygon fill="#181818" points="78.0967,546.1094,68.0967,550.1094,78.0967,554.1094,74.0967,550.1094" style="stroke:#181818;stroke-width:1;"/><line style="stroke:#181818;stroke-width:1;stroke-dasharray:2,2;" x1="72.0967" x2="344.1846" y1="550.1094" y2="550.1094"/><text fill="#000000" font-family="Helvetica" font-size="10" x="84.0967" y="539.9307">(10)</text><text fill="#000000" font-family="Helvetica" font-size="10" x="108.624" y="534.1104">200 OK</text><text fill="#000000" font-family="Helvetica" font-size="10" x="108.624" y="545.751">{Access Token, Refresh Token}</text><polygon fill="#181818" points="78.0967,601.3906,68.0967,605.3906,78.0967,609.3906,74.0967,605.3906" style="stroke:#181818;stroke-width:1;"/><line style="stroke:#181818;stroke-width:1;stroke-dasharray:2,2;" x1="72.0967" x2="344.1846" y1="605.3906" y2="605.3906"/><text fill="#000000" font-family="Helvetica" font-size="10" x="84.0967" y="601.0322">(11)</text><text fill="#000000" font-family="Helvetica" font-size="10" x="108.624" y="601.0322">403 Forbidden</text><polygon fill="#181818" points="78.0967,670.6719,68.0967,674.6719,78.0967,678.6719,74.0967,674.6719" style="stroke:#181818;stroke-width:1;"/><line style="stroke:#181818;stroke-width:1;stroke-dasharray:2,2;" x1="72.0967" x2="349.1846" y1="674.6719" y2="674.6719"/><text fill="#000000" font-family="Helvetica" font-size="10" x="84.0967" y="670.3135">(12)</text><text fill="#000000" font-family="Helvetica" font-size="10" x="108.624" y="670.3135">403 Forbidden</text><?plantuml-src VLNRSjf847tNLtJOXuNoZTYEDqkvN2KauMK3HeNOf7RBLTHOQc3MOaQP6P4Ob_ycdv6t_DZsI8YRsJm0cfdkqwTF7mqiDrBaymTKKAitcusQen-vo9XYSqXmmlBKTAGm4LyYl6qUFhnZSuG_C5sWuJ7RYl7BcBuKKcSincGTxSbSSLHRiIcAgPcvoR-vDY2amAqpZPzp534ESOBAFhHP_3XLCXU99rEfuDECc-s4Q3zXqyFv0Tm-QiscwAPyAeZ8n3WpdY1eGydIF6NeEBz2Mtw5s5RJpXjgdWk4VuAHExxzontwOs_G6mpXbqwdSn6yMmVqWcvrSZkJsfGyTq_xuU0kk1jLSS5bSDcvNCU4msxV3ORHtz4ew5SnFRP0aP1ycwZ1nwuV3DSWViSFFCiwP8g6mZCcJCN-Mfkd56-SgdkViwbLuza1oBR2xHhWT8c6hPu1zeMdXeChprkTzeZBQj__xVTsirdilvGucP8BKbNzFvR_BdZlNxx6Ud_UlhYwMcFPJyedcDhEIx33VjY5QQSKLAI_EDTdAmqSmqsAC9AFA23u6i-Oc29yuMO6v1s5UbQUESwRJB7fd851kGIZSlB40pcYHaEiRUPC-CLkgFZynpUbdyX3yzgXAHRijkNsKexqmpJKhAzMwnfSNzi9tDnG0WtTmZlLRyd05GySoQemwiBvQHDyojEcjcUAYbc1VPipbTHU-VSL9pStiwYW5FhXlR1BgVYI6Iu5lMHgWMg7u6xs87GtkQ5CUVm4WPZIH7xULTdvqL7r12StbJejy1GoW-27CeHGIJc1kXsNp0tSIN9puoT9gxMhDQgYXJy_ZJRfhZ6eJT7RDaYXmT5H2y91D88pKrWboMJMAhx7cILnBvxZ8cFCrk1rGZycZXzEIx3JY4z1qnL35vzf7DyBLJfiN42-EANOLKLY_P6bFB6yX_PDfMknljy0WMo4EDwrRECrOAX-V9yWH1agPJlDDTG7NXIUUSDU0-ox6VNhNkEalPVQWgvORCYKHGhM3ajDnTFshFCufijqagSqs7sG7GiGP4QY8n71b2x_xNWopaRmnTip0cTdZ4wNy7m0n5u8rcidLQcJatKn7sEkYHc5MAfxkxINoY-5SLV5rwvfmNcp2OCFD5ctwAbKTKzaMnfJZQ-04nHF1t4jjylc1NIaUk19KZHkdK_id09fIyq9pb9KCqP_I8S8xi9K8Fy1?></g></svg>