<?plantuml 1.2026.2?><svg xmlns="http://www.w3.org/2000/svg" xmlns:xlink="http://www.w3.org/1999/xlink" contentStyleType="text/css" data-diagram-type="SEQUENCE" height="1145px" preserveAspectRatio="none" style="width:954px;height:1145px;background:#FFFFFF;" version="1.1" viewBox="0 0 954 1145" width="954px" zoomAndPan="magnify"><title>Token Exchange with Attestation</title><defs/><g><rect fill="#F8F8FF" height="1096.3438" style="stroke:#181818;stroke-width:0.5;" width="255.2764" x="11" y="43.2969"/><text fill="#000000" font-family="Helvetica" font-size="10" font-weight="bold" x="130.1763" y="52.5791">LEI</text><rect fill="#E6E6FA" height="1079.7031" style="stroke:#181818;stroke-width:0.5;" width="102.1934" x="164.083" y="59.9375"/><text fill="#000000" font-family="Helvetica" font-size="10" font-weight="bold" x="176.083" y="69.2197">Prim&#228;rsystem</text><rect fill="#EDFDEC" height="1096.3438" style="stroke:#181818;stroke-width:0.5;" width="468.2129" x="480.6465" y="43.2969"/><text fill="#000000" font-family="Helvetica" font-size="10" font-weight="bold" x="652.8608" y="52.5791">Anbieter TI 2.0 Dienst</text><rect fill="#FFF3E5" height="1079.7031" style="stroke:#181818;stroke-width:0.5;" width="468.2129" x="480.6465" y="59.9375"/><text fill="#000000" font-family="Helvetica" font-size="10" font-weight="bold" x="681.6084" y="69.2197">ZETA Guard</text><text fill="#000000" font-family="Helvetica" font-size="14" font-weight="bold" x="348.4258" y="27.9951">Token Exchange with Attestation</text><g><title>Konnektor or</title><rect fill="#000000" fill-opacity="0.00000" height="981.5" width="8" x="50.9268" y="113.8594"/><line style="stroke:#000000;stroke-width:0.5;stroke-dasharray:5,5;" x1="54.4268" x2="54.4268" y1="113.8594" y2="1095.3594"/></g><g><title/><rect fill="#FFFFFF" height="25.6406" style="stroke:#181818;stroke-width:1;" width="10" x="49.4268" y="205.7813"/></g><g><title>SM.C.-B</title><rect fill="#000000" fill-opacity="0.00000" height="981.5" width="8" x="127.4683" y="113.8594"/><line style="stroke:#000000;stroke-width:0.5;stroke-dasharray:5,5;" x1="130.9683" x2="130.9683" y1="113.8594" y2="1095.3594"/></g><g><title>ZETA Client</title><rect fill="#000000" fill-opacity="0.00000" height="981.5" width="8" x="211.6797" y="113.8594"/><line style="stroke:#000000;stroke-width:0.5;stroke-dasharray:5,5;" x1="215.1797" x2="215.1797" y1="113.8594" y2="1095.3594"/></g><g><title/><rect fill="#FFFFFF" height="973.5" style="stroke:#181818;stroke-width:1;" width="10" x="210.1797" y="121.8594"/></g><g><title>PDP</title><rect fill="#000000" fill-opacity="0.00000" height="981.5" width="8" x="539.6211" y="113.8594"/><line style="stroke:#000000;stroke-width:0.5;stroke-dasharray:5,5;" x1="543.1211" x2="543.1211" y1="113.8594" y2="1095.3594"/></g><g><title/><rect fill="#FFFFFF" height="610.8125" style="stroke:#181818;stroke-width:1;" width="10" x="538.1211" y="383.2656"/></g><g><title>PDP</title><rect fill="#000000" fill-opacity="0.00000" height="981.5" width="8" x="901.0732" y="113.8594"/><line style="stroke:#000000;stroke-width:0.5;stroke-dasharray:5,5;" x1="904.5732" x2="904.5732" y1="113.8594" y2="1095.3594"/></g><g><title/><rect fill="#FFFFFF" height="25.6406" style="stroke:#181818;stroke-width:1;" width="10" x="899.5732" y="685.6719"/></g><rect fill="#E4E4F4" height="37.2813" rx="2.5" ry="2.5" style="stroke:#181818;stroke-width:0.5;" width="78.8535" x="15" y="75.5781"/><text fill="#000000" font-family="Helvetica" font-size="10" x="22" y="91.8604">Konnektor or</text><text fill="#000000" font-family="Helvetica" font-size="10" x="26.0063" y="103.501">TI-Gateway</text><rect fill="#E4E4F4" height="25.6406" rx="2.5" ry="2.5" style="stroke:#181818;stroke-width:0.5;" width="54.2295" x="103.8535" y="87.2188"/><text fill="#000000" font-family="Helvetica" font-size="10" x="110.8535" y="103.501">SM(C)-B</text><rect fill="#FFE6CC" height="25.6406" rx="2.5" ry="2.5" style="stroke:#D79B00;stroke-width:0.5;" width="72.2471" x="179.0562" y="87.2188"/><text fill="#000000" font-family="Helvetica" font-size="10" x="186.0562" y="103.501">ZETA Client</text><rect fill="#FFE6CC" height="37.2813" rx="2.5" ry="2.5" style="stroke:#D79B00;stroke-width:0.5;" width="116.9492" x="484.6465" y="75.5781"/><text fill="#000000" font-family="Helvetica" font-size="10" x="533.2407" y="91.8604">PDP</text><text fill="#000000" font-family="Helvetica" font-size="10" x="491.6465" y="103.501">Authorization Server</text><rect fill="#FFE6CC" height="37.2813" rx="2.5" ry="2.5" style="stroke:#D79B00;stroke-width:0.5;" width="80.5723" x="864.2871" y="75.5781"/><text fill="#000000" font-family="Helvetica" font-size="10" x="894.6929" y="91.8604">PDP</text><text fill="#000000" font-family="Helvetica" font-size="10" x="871.2871" y="103.501">Policy Engine</text><rect fill="#E4E4F4" height="37.2813" rx="2.5" ry="2.5" style="stroke:#181818;stroke-width:0.5;" width="78.8535" x="15" y="1095.3594"/><text fill="#000000" font-family="Helvetica" font-size="10" x="22" y="1111.6416">Konnektor or</text><text fill="#000000" font-family="Helvetica" font-size="10" x="26.0063" y="1123.2822">TI-Gateway</text><rect fill="#E4E4F4" height="25.6406" rx="2.5" ry="2.5" style="stroke:#181818;stroke-width:0.5;" width="54.2295" x="103.8535" y="1095.3594"/><text fill="#000000" font-family="Helvetica" font-size="10" x="110.8535" y="1111.6416">SM(C)-B</text><rect fill="#FFE6CC" height="25.6406" rx="2.5" ry="2.5" style="stroke:#D79B00;stroke-width:0.5;" width="72.2471" x="179.0562" y="1095.3594"/><text fill="#000000" font-family="Helvetica" font-size="10" x="186.0562" y="1111.6416">ZETA Client</text><rect fill="#FFE6CC" height="37.2813" rx="2.5" ry="2.5" style="stroke:#D79B00;stroke-width:0.5;" width="116.9492" x="484.6465" y="1095.3594"/><text fill="#000000" font-family="Helvetica" font-size="10" x="533.2407" y="1111.6416">PDP</text><text fill="#000000" font-family="Helvetica" font-size="10" x="491.6465" y="1123.2822">Authorization Server</text><rect fill="#FFE6CC" height="37.2813" rx="2.5" ry="2.5" style="stroke:#D79B00;stroke-width:0.5;" width="80.5723" x="864.2871" y="1095.3594"/><text fill="#000000" font-family="Helvetica" font-size="10" x="894.6929" y="1111.6416">PDP</text><text fill="#000000" font-family="Helvetica" font-size="10" x="871.2871" y="1123.2822">Policy Engine</text><line style="stroke:#181818;stroke-width:1;" x1="220.1797" x2="262.1797" y1="139.5" y2="139.5"/><line style="stroke:#181818;stroke-width:1;" x1="262.1797" x2="262.1797" y1="139.5" y2="152.5"/><line style="stroke:#181818;stroke-width:1;" x1="221.1797" x2="262.1797" y1="152.5" y2="152.5"/><polygon fill="#181818" points="231.1797,148.5,221.1797,152.5,231.1797,156.5,227.1797,152.5" style="stroke:#181818;stroke-width:1;"/><text fill="#000000" font-family="Helvetica" font-size="10" x="227.1797" y="135.1416">(01)</text><text fill="#000000" font-family="Helvetica" font-size="10" x="251.707" y="135.1416">Generiere subject_token</text><path d="M33.4268,164.5 L263.8711,164.5 L263.8711,168.1406 L253.8711,178.1406 L33.4268,178.1406 L33.4268,164.5" fill="#EEEEEE" style="stroke:#000000;stroke-width:1.5;"/><rect fill="none" height="74.9219" style="stroke:#000000;stroke-width:1.5;" width="246.4443" x="33.4268" y="164.5"/><text fill="#000000" font-family="Helvetica" font-size="10" font-weight="bold" x="48.4268" y="174.7822">Sign Subject Token with SM(C)-B</text><polygon fill="#181818" points="70.4268,201.7813,60.4268,205.7813,70.4268,209.7813,66.4268,205.7813" style="stroke:#181818;stroke-width:1;"/><line style="stroke:#181818;stroke-width:1;" x1="64.4268" x2="209.1797" y1="205.7813" y2="205.7813"/><text fill="#000000" font-family="Helvetica" font-size="10" x="76.4268" y="201.4229">(02)</text><text fill="#000000" font-family="Helvetica" font-size="10" x="100.9541" y="201.4229">&#160;</text><polygon fill="#181818" points="198.1797,227.4219,208.1797,231.4219,198.1797,235.4219,202.1797,231.4219" style="stroke:#181818;stroke-width:1;"/><line style="stroke:#181818;stroke-width:1;stroke-dasharray:2,2;" x1="59.4268" x2="204.1797" y1="231.4219" y2="231.4219"/><text fill="#000000" font-family="Helvetica" font-size="10" x="66.4268" y="227.0635">(03)</text><text fill="#000000" font-family="Helvetica" font-size="10" x="90.9541" y="227.0635">&#160;</text><line style="stroke:#181818;stroke-width:1;" x1="220.1797" x2="262.1797" y1="271.0625" y2="271.0625"/><line style="stroke:#181818;stroke-width:1;" x1="262.1797" x2="262.1797" y1="271.0625" y2="284.0625"/><line style="stroke:#181818;stroke-width:1;" x1="221.1797" x2="262.1797" y1="284.0625" y2="284.0625"/><polygon fill="#181818" points="231.1797,280.0625,221.1797,284.0625,231.1797,288.0625,227.1797,284.0625" style="stroke:#181818;stroke-width:1;"/><text fill="#000000" font-family="Helvetica" font-size="10" x="227.1797" y="266.7041">(04)</text><text fill="#000000" font-family="Helvetica" font-size="10" x="251.707" y="266.7041">Create DPoP Key Pair (PrK.DPoP.Sig, PuK.DPoP.Sig)</text><path d="M518.6289,258.4219 L518.6289,279.4219 L744.6289,279.4219 L744.6289,268.4219 L734.6289,258.4219 L518.6289,258.4219" fill="#FEFFDD" style="stroke:#181818;stroke-width:0.5;"/><path d="M734.6289,258.4219 L734.6289,268.4219 L744.6289,268.4219 L734.6289,258.4219" fill="#FEFFDD" style="stroke:#181818;stroke-width:0.5;"/><text fill="#000000" font-family="Helvetica" font-size="10" x="524.6289" y="272.7041">Session-based Key Pair for DPoP binding.</text><line style="stroke:#181818;stroke-width:1;" x1="220.1797" x2="262.1797" y1="309.7031" y2="309.7031"/><line style="stroke:#181818;stroke-width:1;" x1="262.1797" x2="262.1797" y1="309.7031" y2="322.7031"/><line style="stroke:#181818;stroke-width:1;" x1="221.1797" x2="262.1797" y1="322.7031" y2="322.7031"/><polygon fill="#181818" points="231.1797,318.7031,221.1797,322.7031,231.1797,326.7031,227.1797,322.7031" style="stroke:#181818;stroke-width:1;"/><text fill="#000000" font-family="Helvetica" font-size="10" x="227.1797" y="305.3447">(05)</text><text fill="#000000" font-family="Helvetica" font-size="10" x="251.707" y="305.3447">Create DPoP Proof (with Nonce from AuthS)</text><polygon fill="#181818" points="526.1211,379.2656,536.1211,383.2656,526.1211,387.2656,530.1211,383.2656" style="stroke:#181818;stroke-width:1;"/><line style="stroke:#181818;stroke-width:1;" x1="220.1797" x2="532.1211" y1="383.2656" y2="383.2656"/><text fill="#000000" font-family="Helvetica" font-size="10" x="227.1797" y="361.4463">(06)</text><text fill="#000000" font-family="Helvetica" font-size="10" x="251.707" y="343.9854">POST /token dpop: dpop_proof</text><text fill="#000000" font-family="Helvetica" font-size="10" x="251.707" y="355.626">{client_assertion (JWT, PrK.Client.Sig signiert),</text><text fill="#000000" font-family="Helvetica" font-size="10" x="251.707" y="367.2666">subject_token (SMC-B signiert, inkl. Nonce),</text><text fill="#000000" font-family="Helvetica" font-size="10" x="251.707" y="378.9072">[Evidence]}</text><line style="stroke:#181818;stroke-width:1;" x1="548.1211" x2="590.1211" y1="420.5469" y2="420.5469"/><line style="stroke:#181818;stroke-width:1;" x1="590.1211" x2="590.1211" y1="420.5469" y2="433.5469"/><line style="stroke:#181818;stroke-width:1;" x1="549.1211" x2="590.1211" y1="433.5469" y2="433.5469"/><polygon fill="#181818" points="559.1211,429.5469,549.1211,433.5469,559.1211,437.5469,555.1211,433.5469" style="stroke:#181818;stroke-width:1;"/><text fill="#000000" font-family="Helvetica" font-size="10" x="555.1211" y="410.3682">(07)</text><text fill="#000000" font-family="Helvetica" font-size="10" x="579.6484" y="404.5479">Validate Request (Client Assertion, DPoP Proof,</text><text fill="#000000" font-family="Helvetica" font-size="10" x="579.6484" y="416.1885">Subject Token, Nonce and Key bindings from DCR)</text><path d="M527.1211,445.5469 L587.0771,445.5469 L587.0771,449.1875 L577.0771,459.1875 L527.1211,459.1875 L527.1211,445.5469" fill="#EEEEEE" style="stroke:#000000;stroke-width:1.5;"/><rect fill="none" height="142.2031" style="stroke:#000000;stroke-width:1.5;" width="393.4521" x="527.1211" y="445.5469"/><text fill="#000000" font-family="Helvetica" font-size="10" font-weight="bold" x="542.1211" y="455.8291">alt</text><text fill="#000000" font-family="Helvetica" font-size="10" font-weight="bold" x="602.0771" y="456.8291">[TPM Attestation (Windows / Linux)]</text><line style="stroke:#000000;stroke-width:1;stroke-dasharray:2,2;" x1="527.1211" x2="920.5732" y1="530.4688" y2="530.4688"/><text fill="#000000" font-family="Helvetica" font-size="10" font-weight="bold" x="532.1211" y="541.751">[macOS Attestation (Secure Enclave)]</text><line style="stroke:#181818;stroke-width:1;" x1="548.1211" x2="590.1211" y1="498.4688" y2="498.4688"/><line style="stroke:#181818;stroke-width:1;" x1="590.1211" x2="590.1211" y1="498.4688" y2="511.4688"/><line style="stroke:#181818;stroke-width:1;" x1="549.1211" x2="590.1211" y1="511.4688" y2="511.4688"/><polygon fill="#181818" points="559.1211,507.4688,549.1211,511.4688,559.1211,515.4688,555.1211,511.4688" style="stroke:#181818;stroke-width:1;"/><text fill="#000000" font-family="Helvetica" font-size="10" x="555.1211" y="488.29">(08)</text><text fill="#000000" font-family="Helvetica" font-size="10" x="579.6484" y="482.4697">Verifiziere Hardware-Signatur (Quote) gegen extrahierte Nonce</text><text fill="#000000" font-family="Helvetica" font-size="10" x="579.6484" y="494.1104">PCR-Replay via Event Log</text><line style="stroke:#181818;stroke-width:1;" x1="548.1211" x2="590.1211" y1="566.75" y2="566.75"/><line style="stroke:#181818;stroke-width:1;" x1="590.1211" x2="590.1211" y1="566.75" y2="579.75"/><line style="stroke:#181818;stroke-width:1;" x1="549.1211" x2="590.1211" y1="579.75" y2="579.75"/><polygon fill="#181818" points="559.1211,575.75,549.1211,579.75,559.1211,583.75,555.1211,579.75" style="stroke:#181818;stroke-width:1;"/><text fill="#000000" font-family="Helvetica" font-size="10" x="555.1211" y="562.3916">(09)</text><text fill="#000000" font-family="Helvetica" font-size="10" x="579.6484" y="562.3916">Pr&#252;fe Signaturen und counter (Replay-Schutz)</text><path d="M161.1797,605.75 L221.1357,605.75 L221.1357,609.3906 L211.1357,619.3906 L161.1797,619.3906 L161.1797,605.75" fill="#EEEEEE" style="stroke:#000000;stroke-width:1.5;"/><rect fill="none" height="465.6094" style="stroke:#000000;stroke-width:1.5;" width="764.3936" x="161.1797" y="605.75"/><text fill="#000000" font-family="Helvetica" font-size="10" font-weight="bold" x="176.1797" y="616.0322">alt</text><text fill="#000000" font-family="Helvetica" font-size="10" font-weight="bold" x="236.1357" y="617.0322">[Validation successful]</text><line style="stroke:#000000;stroke-width:1;stroke-dasharray:2,2;" x1="161.1797" x2="925.5732" y1="1027.0781" y2="1027.0781"/><text fill="#000000" font-family="Helvetica" font-size="10" font-weight="bold" x="166.1797" y="1038.3604">[Validation fehlerhaft]</text><line style="stroke:#181818;stroke-width:1;" x1="548.1211" x2="590.1211" y1="647.0313" y2="647.0313"/><line style="stroke:#181818;stroke-width:1;" x1="590.1211" x2="590.1211" y1="647.0313" y2="660.0313"/><line style="stroke:#181818;stroke-width:1;" x1="549.1211" x2="590.1211" y1="660.0313" y2="660.0313"/><polygon fill="#181818" points="559.1211,656.0313,549.1211,660.0313,559.1211,664.0313,555.1211,660.0313" style="stroke:#181818;stroke-width:1;"/><text fill="#000000" font-family="Helvetica" font-size="10" x="555.1211" y="642.6729">(10)</text><text fill="#000000" font-family="Helvetica" font-size="10" x="579.6484" y="642.6729">Policy Engine Input erstellen</text><polygon fill="#181818" points="887.5732,681.6719,897.5732,685.6719,887.5732,689.6719,891.5732,685.6719" style="stroke:#181818;stroke-width:1;"/><line style="stroke:#181818;stroke-width:1;" x1="548.1211" x2="893.5732" y1="685.6719" y2="685.6719"/><text fill="#000000" font-family="Helvetica" font-size="10" x="555.1211" y="681.3135">(11)</text><text fill="#000000" font-family="Helvetica" font-size="10" x="579.6484" y="681.3135">POST /v1/data/authz {Policy Engine Input}</text><polygon fill="#181818" points="559.1211,707.3125,549.1211,711.3125,559.1211,715.3125,555.1211,711.3125" style="stroke:#181818;stroke-width:1;"/><line style="stroke:#181818;stroke-width:1;stroke-dasharray:2,2;" x1="553.1211" x2="898.5732" y1="711.3125" y2="711.3125"/><text fill="#000000" font-family="Helvetica" font-size="10" x="565.1211" y="706.9541">(12)</text><text fill="#000000" font-family="Helvetica" font-size="10" x="589.6484" y="706.9541">Policy Decision</text><path d="M180.1797,723.3125 L240.1357,723.3125 L240.1357,726.9531 L230.1357,736.9531 L180.1797,736.9531 L180.1797,723.3125" fill="#EEEEEE" style="stroke:#000000;stroke-width:1.5;"/><rect fill="none" height="278.7656" style="stroke:#000000;stroke-width:1.5;" width="711.0479" x="180.1797" y="723.3125"/><text fill="#000000" font-family="Helvetica" font-size="10" font-weight="bold" x="195.1797" y="733.5947">alt</text><text fill="#000000" font-family="Helvetica" font-size="10" font-weight="bold" x="255.1357" y="734.5947">[Policy Decision allow]</text><line style="stroke:#000000;stroke-width:1;stroke-dasharray:2,2;" x1="180.1797" x2="891.2275" y1="957.7969" y2="957.7969"/><text fill="#000000" font-family="Helvetica" font-size="10" font-weight="bold" x="185.1797" y="969.0791">[Policy Decision deny]</text><line style="stroke:#181818;stroke-width:1;" x1="548.1211" x2="590.1211" y1="764.5938" y2="764.5938"/><line style="stroke:#181818;stroke-width:1;" x1="590.1211" x2="590.1211" y1="764.5938" y2="777.5938"/><line style="stroke:#181818;stroke-width:1;" x1="549.1211" x2="590.1211" y1="777.5938" y2="777.5938"/><polygon fill="#181818" points="559.1211,773.5938,549.1211,777.5938,559.1211,781.5938,555.1211,777.5938" style="stroke:#181818;stroke-width:1;"/><text fill="#000000" font-family="Helvetica" font-size="10" x="555.1211" y="760.2354">(13)</text><text fill="#000000" font-family="Helvetica" font-size="10" x="579.6484" y="760.2354">Create Token (Access Token, Refresh Token)</text><path d="M199.1797,789.5938 L259.1357,789.5938 L259.1357,793.2344 L249.1357,803.2344 L199.1797,803.2344 L199.1797,789.5938" fill="#EEEEEE" style="stroke:#000000;stroke-width:1.5;"/><rect fill="none" height="143.2031" style="stroke:#000000;stroke-width:1.5;" width="667.0479" x="199.1797" y="789.5938"/><text fill="#000000" font-family="Helvetica" font-size="10" font-weight="bold" x="214.1797" y="799.876">alt</text><text fill="#000000" font-family="Helvetica" font-size="10" font-weight="bold" x="274.1357" y="800.876">[Hardware Attestation  (TPM / SE)]</text><line style="stroke:#000000;stroke-width:1;stroke-dasharray:2,2;" x1="199.1797" x2="866.2275" y1="888.5156" y2="888.5156"/><text fill="#000000" font-family="Helvetica" font-size="10" font-weight="bold" x="204.1797" y="899.7979">[Software Attestation (Fallback)]</text><line style="stroke:#181818;stroke-width:1;" x1="548.1211" x2="590.1211" y1="830.875" y2="830.875"/><line style="stroke:#181818;stroke-width:1;" x1="590.1211" x2="590.1211" y1="830.875" y2="843.875"/><line style="stroke:#181818;stroke-width:1;" x1="549.1211" x2="590.1211" y1="843.875" y2="843.875"/><polygon fill="#181818" points="559.1211,839.875,549.1211,843.875,559.1211,847.875,555.1211,843.875" style="stroke:#181818;stroke-width:1;"/><text fill="#000000" font-family="Helvetica" font-size="10" x="555.1211" y="826.5166">(14)</text><text fill="#000000" font-family="Helvetica" font-size="10" x="579.6484" y="826.5166">Create ZETA Guard Attestation Token (zg_att_token)</text><polygon fill="#181818" points="231.1797,865.5156,221.1797,869.5156,231.1797,873.5156,227.1797,869.5156" style="stroke:#181818;stroke-width:1;"/><line style="stroke:#181818;stroke-width:1;stroke-dasharray:2,2;" x1="225.1797" x2="537.1211" y1="869.5156" y2="869.5156"/><text fill="#000000" font-family="Helvetica" font-size="10" x="237.1797" y="865.1572">(15)</text><text fill="#000000" font-family="Helvetica" font-size="10" x="261.707" y="865.1572">200 OK {Access Token, Refresh Token, zg_att_token}</text><polygon fill="#181818" points="231.1797,920.7969,221.1797,924.7969,231.1797,928.7969,227.1797,924.7969" style="stroke:#181818;stroke-width:1;"/><line style="stroke:#181818;stroke-width:1;stroke-dasharray:2,2;" x1="225.1797" x2="537.1211" y1="924.7969" y2="924.7969"/><text fill="#000000" font-family="Helvetica" font-size="10" x="237.1797" y="920.4385">(16)</text><text fill="#000000" font-family="Helvetica" font-size="10" x="261.707" y="920.4385">200 OK {Access Token, Refresh Token}</text><polygon fill="#181818" points="231.1797,990.0781,221.1797,994.0781,231.1797,998.0781,227.1797,994.0781" style="stroke:#181818;stroke-width:1;"/><line style="stroke:#181818;stroke-width:1;stroke-dasharray:2,2;" x1="225.1797" x2="537.1211" y1="994.0781" y2="994.0781"/><text fill="#000000" font-family="Helvetica" font-size="10" x="237.1797" y="989.7197">(17)</text><text fill="#000000" font-family="Helvetica" font-size="10" x="261.707" y="989.7197">403 Forbidden</text><polygon fill="#181818" points="231.1797,1059.3594,221.1797,1063.3594,231.1797,1067.3594,227.1797,1063.3594" style="stroke:#181818;stroke-width:1;"/><line style="stroke:#181818;stroke-width:1;stroke-dasharray:2,2;" x1="225.1797" x2="542.1211" y1="1063.3594" y2="1063.3594"/><text fill="#000000" font-family="Helvetica" font-size="10" x="237.1797" y="1059.001">(18)</text><text fill="#000000" font-family="Helvetica" font-size="10" x="261.707" y="1059.001">403 Forbidden</text><?plantuml-src hLRRSk9647tNL_IIXq3PsApNkzcuNAu29BoEZL4GMLSIfro3r4Yp5ZDaDC86b_ycdv6t_R7qw082uqqUuYgCHjDz-dJtcHvOggL8fsDKKAktMesQbTnpCMEAJI702KjZtPD2Uto9yBQrU_EQJH4-OJn7pNrMiR5pcxuKCfan7uELTLUcYgEgsCOeGXsrWozfea58WPMz1FzCKVWun0agyz1X_dseP2g2heobWfk8wwg3j-smpk5e1suVauI5s8vvA8Z8H5iH3n0IJSvIBsPeMTz3Hpw2Rw8brXjAdWk4tvnH--xyb_RGlkiEhWP3-AxNwxrptgyChfoBSkSyaedEUMxkzjt1jNCzAksSO-UuTxooSOSN_ROpz7xrHaw_jBbYSnG1bMzjDVXyOJl35OZTivskOUqoHKtXCoPqoVuqqOiOpwmoUvkpq5JZoGAOLSpD6k1WYPeLpm3RXQU4dG_TRh5xHLoAz_OFFtPQhUpzSuupKt9ELLMlOzdldO_syKkiZqUTTny-hB3C9-OJZ4tcETXkFMp2T68oojoVhTF3eWQMvZf66Cbx5E0y-X4J8S83rn6qjSP4CysbiAmtCyN2AGEDSWbQfQI8CUcXHYsihRkyLS1BAGJUQuhD4gYjLrBTYj55yvnfV62BsYuTR25v_Kw6uVNhtKQpyvfBHibLVFhrBvKiIBxJsYu1POMfmdTZZlHb8XX95-iQd9wQvf-TaGFfpS1RvNUUVbkCET8fWT4571sqm2Q_HDUsz5Woox3FKwQ2sekZyu9JEzMHbr5oRVTMcALKV9drWywtcgFQ8BZfFN3RQrzNnjnVW2D24iEtiyeptzih7g1vLXJZ1CvHe9bPD1VIyHVqzPqsgh4i8xmPU6PsUFbEeQTCHaNBCePhqBKOA9RPMhzehcBI8vo08MUzu4CRNOMa8B1TwS8bBkYeSmLrLrqUc5S7H6WVt7IzQbX2ahtYOKJfU3Jpg9JDCKimMFjFY466EEOYu28y-DVGhf9o0lKisMj9ymGcIaxp_ZKgpjcBlRqJS0VU20wpua4maxEJxF_TpE3SYYS_yxXZIO8gQtRzfviHPK9vvM0c5qYetDGCtTY_5HlzWBhNxpOxAuDzuE8-FiYf6UlV7JE6QF77isNbAYlPdS1d5lF0f3Oqmv5kedgHGBkair_9cj0sEhvV5829lA953PEy8dPts83Yps8n-RZzwfI1-WtPouS43itOIXyRcJ9UK2GLJlWoK-8dEaiFJ67Jg8_fbFh_SqfDRa288TK27xLYaIa3vjJeC7I7pI7EOhQ0EMVWp4rsLpAqC4uGfimVU9kaFFHJ2kK8FwPhPpSdLttzUu9Gig38D8hflac56GxrF5xJywDKBnkPe4t-HR5Db2JrVHBa98rturTFC5o8MQe15Gsuc7usR7hGoL-BRFxsa0AmGqQxItZQ0PDVJcPSDCjmpUOge8q-Jx8Bm5WPpbiRz2wM3rRPrctUnJd9nq6zdULOIeL-coXCedpPM46O86LRDne1TQENG_2SjV4tOgw7xGPAGMKPtZ5Td9YTS9N1TzHgmU0Idhv1Vn-gWCyhm4nJdfpe5zdKUrIvCTt8_qFqIZnIrYhkTgleq2-irmAPfX-tta5FgZ4FWa9L1Y_3gaXrWb6CAcBqA_6_0HcGVm00?></g></svg>