<?plantuml 1.2026.2?><svg xmlns="http://www.w3.org/2000/svg" xmlns:xlink="http://www.w3.org/1999/xlink" contentStyleType="text/css" data-diagram-type="SEQUENCE" height="773px" preserveAspectRatio="none" style="width:667px;height:773px;background:#FFFFFF;" version="1.1" viewBox="0 0 667 773" width="667px" zoomAndPan="magnify"><title>Token Exchange with Refresh Token</title><defs/><g><rect fill="#F8F8FF" height="724.2969" style="stroke:#181818;stroke-width:0.5;" width="102.1934" x="11" y="43.2969"/><text fill="#000000" font-family="Helvetica" font-size="10" font-weight="bold" x="53.6348" y="52.5791">LEI</text><rect fill="#E6E6FA" height="707.6563" style="stroke:#181818;stroke-width:0.5;" width="102.1934" x="11" y="59.9375"/><text fill="#000000" font-family="Helvetica" font-size="10" font-weight="bold" x="23" y="69.2197">Prim&#228;rsystem</text><rect fill="#F4A460" height="691.0156" style="stroke:#181818;stroke-width:0.5;" width="102.1934" x="11" y="76.5781"/><text fill="#000000" font-family="Helvetica" font-size="10" font-weight="bold" x="29.5967" y="85.8604">ZETA Client</text><rect fill="#C9FFC9" height="724.2969" style="stroke:#181818;stroke-width:0.5;" width="374.2578" x="287.71" y="43.2969"/><text fill="#000000" font-family="Helvetica" font-size="10" font-weight="bold" x="412.9468" y="52.5791">Anbieter TI 2.0 Dienst</text><rect fill="#F4A460" height="707.6563" style="stroke:#181818;stroke-width:0.5;" width="374.2578" x="287.71" y="59.9375"/><text fill="#000000" font-family="Helvetica" font-size="10" font-weight="bold" x="441.6943" y="69.2197">ZETA Guard</text><text fill="#000000" font-family="Helvetica" font-size="14" font-weight="bold" x="192.6719" y="27.9951">Token Exchange with Refresh Token</text><g><title>ZETA Client</title><rect fill="#000000" fill-opacity="0.00000" height="592.8125" width="8" x="58.5967" y="130.5"/><line style="stroke:#181818;stroke-width:0.5;stroke-dasharray:5,5;" x1="62.0967" x2="62.0967" y1="130.5" y2="723.3125"/></g><g><title/><rect fill="#FFFFFF" height="584.8125" style="stroke:#181818;stroke-width:1;" width="10" x="57.0967" y="138.5"/></g><g><title>PDP</title><rect fill="#000000" fill-opacity="0.00000" height="592.8125" width="8" x="346.6846" y="130.5"/><line style="stroke:#181818;stroke-width:0.5;stroke-dasharray:5,5;" x1="350.1846" x2="350.1846" y1="130.5" y2="723.3125"/></g><g><title/><rect fill="#FFFFFF" height="365.3281" style="stroke:#181818;stroke-width:1;" width="10" x="345.1846" y="256.7031"/></g><g><title>PDP</title><rect fill="#000000" fill-opacity="0.00000" height="592.8125" width="8" x="614.1816" y="130.5"/><line style="stroke:#181818;stroke-width:0.5;stroke-dasharray:5,5;" x1="617.6816" x2="617.6816" y1="130.5" y2="723.3125"/></g><g><title/><rect fill="#FFFFFF" height="25.6406" style="stroke:#181818;stroke-width:1;" width="10" x="612.6816" y="476.1875"/></g><rect fill="#E2E2F0" height="25.6406" rx="2.5" ry="2.5" style="stroke:#181818;stroke-width:0.5;" width="72.2471" x="25.9731" y="103.8594"/><text fill="#000000" font-family="Helvetica" font-size="10" x="32.9731" y="120.1416">ZETA Client</text><rect fill="#E2E2F0" height="37.2813" rx="2.5" ry="2.5" style="stroke:#181818;stroke-width:0.5;" width="116.9492" x="291.71" y="92.2188"/><text fill="#000000" font-family="Helvetica" font-size="10" x="340.3042" y="108.501">PDP</text><text fill="#000000" font-family="Helvetica" font-size="10" x="298.71" y="120.1416">Authorization Server</text><rect fill="#E2E2F0" height="37.2813" rx="2.5" ry="2.5" style="stroke:#181818;stroke-width:0.5;" width="80.5723" x="577.3955" y="92.2188"/><text fill="#000000" font-family="Helvetica" font-size="10" x="607.8013" y="108.501">PDP</text><text fill="#000000" font-family="Helvetica" font-size="10" x="584.3955" y="120.1416">Policy Engine</text><rect fill="#E2E2F0" height="25.6406" rx="2.5" ry="2.5" style="stroke:#181818;stroke-width:0.5;" width="72.2471" x="25.9731" y="723.3125"/><text fill="#000000" font-family="Helvetica" font-size="10" x="32.9731" y="739.5947">ZETA Client</text><rect fill="#E2E2F0" height="37.2813" rx="2.5" ry="2.5" style="stroke:#181818;stroke-width:0.5;" width="116.9492" x="291.71" y="723.3125"/><text fill="#000000" font-family="Helvetica" font-size="10" x="340.3042" y="739.5947">PDP</text><text fill="#000000" font-family="Helvetica" font-size="10" x="298.71" y="751.2354">Authorization Server</text><rect fill="#E2E2F0" height="37.2813" rx="2.5" ry="2.5" style="stroke:#181818;stroke-width:0.5;" width="80.5723" x="577.3955" y="723.3125"/><text fill="#000000" font-family="Helvetica" font-size="10" x="607.8013" y="739.5947">PDP</text><text fill="#000000" font-family="Helvetica" font-size="10" x="584.3955" y="751.2354">Policy Engine</text><line style="stroke:#181818;stroke-width:1;" x1="67.0967" x2="109.0967" y1="156.1406" y2="156.1406"/><line style="stroke:#181818;stroke-width:1;" x1="109.0967" x2="109.0967" y1="156.1406" y2="169.1406"/><line style="stroke:#181818;stroke-width:1;" x1="68.0967" x2="109.0967" y1="169.1406" y2="169.1406"/><polygon fill="#181818" points="78.0967,165.1406,68.0967,169.1406,78.0967,173.1406,74.0967,169.1406" style="stroke:#181818;stroke-width:1;"/><text fill="#000000" font-family="Helvetica" font-size="10" x="74.0967" y="151.7822">(01)</text><text fill="#000000" font-family="Helvetica" font-size="10" x="98.624" y="151.7822">Create DPoP Proof (without Nonce)</text><line style="stroke:#181818;stroke-width:1;" x1="67.0967" x2="109.0967" y1="194.7813" y2="194.7813"/><line style="stroke:#181818;stroke-width:1;" x1="109.0967" x2="109.0967" y1="194.7813" y2="207.7813"/><line style="stroke:#181818;stroke-width:1;" x1="68.0967" x2="109.0967" y1="207.7813" y2="207.7813"/><polygon fill="#181818" points="78.0967,203.7813,68.0967,207.7813,78.0967,211.7813,74.0967,207.7813" style="stroke:#181818;stroke-width:1;"/><text fill="#000000" font-family="Helvetica" font-size="10" x="74.0967" y="190.4229">(02)</text><text fill="#000000" font-family="Helvetica" font-size="10" x="98.624" y="190.4229">Create Client Assertion JWT (without Attestation)</text><polygon fill="#181818" points="333.1846,252.7031,343.1846,256.7031,333.1846,260.7031,337.1846,256.7031" style="stroke:#181818;stroke-width:1;"/><line style="stroke:#181818;stroke-width:1;" x1="67.0967" x2="339.1846" y1="256.7031" y2="256.7031"/><text fill="#000000" font-family="Helvetica" font-size="10" x="74.0967" y="240.7041">(03)</text><text fill="#000000" font-family="Helvetica" font-size="10" x="98.624" y="229.0635">POST /token dpop: dpop_proof</text><text fill="#000000" font-family="Helvetica" font-size="10" x="98.624" y="240.7041">{client_assertion (JWT, PrK.Client.Sig signiert),</text><text fill="#000000" font-family="Helvetica" font-size="10" x="98.624" y="252.3447">refresh_token}</text><line style="stroke:#181818;stroke-width:1;" x1="355.1846" x2="397.1846" y1="293.9844" y2="293.9844"/><line style="stroke:#181818;stroke-width:1;" x1="397.1846" x2="397.1846" y1="293.9844" y2="306.9844"/><line style="stroke:#181818;stroke-width:1;" x1="356.1846" x2="397.1846" y1="306.9844" y2="306.9844"/><polygon fill="#181818" points="366.1846,302.9844,356.1846,306.9844,366.1846,310.9844,362.1846,306.9844" style="stroke:#181818;stroke-width:1;"/><text fill="#000000" font-family="Helvetica" font-size="10" x="362.1846" y="283.8057">(04)</text><text fill="#000000" font-family="Helvetica" font-size="10" x="386.7119" y="277.9854">Validate Request (Client Assertion,</text><text fill="#000000" font-family="Helvetica" font-size="10" x="386.7119" y="289.626">DPoP Proof, Refresh Token)</text><line style="stroke:#181818;stroke-width:1;" x1="355.1846" x2="397.1846" y1="332.625" y2="332.625"/><line style="stroke:#181818;stroke-width:1;" x1="397.1846" x2="397.1846" y1="332.625" y2="345.625"/><line style="stroke:#181818;stroke-width:1;" x1="356.1846" x2="397.1846" y1="345.625" y2="345.625"/><polygon fill="#181818" points="366.1846,341.625,356.1846,345.625,366.1846,349.625,362.1846,345.625" style="stroke:#181818;stroke-width:1;"/><text fill="#000000" font-family="Helvetica" font-size="10" x="362.1846" y="328.2666">(05)</text><text fill="#000000" font-family="Helvetica" font-size="10" x="386.7119" y="328.2666">Pr&#252;fe Sperrstatus (OCSP/CRL) der SM(C)-B</text><line style="stroke:#181818;stroke-width:1;" x1="355.1846" x2="397.1846" y1="371.2656" y2="371.2656"/><line style="stroke:#181818;stroke-width:1;" x1="397.1846" x2="397.1846" y1="371.2656" y2="384.2656"/><line style="stroke:#181818;stroke-width:1;" x1="356.1846" x2="397.1846" y1="384.2656" y2="384.2656"/><polygon fill="#181818" points="366.1846,380.2656,356.1846,384.2656,366.1846,388.2656,362.1846,384.2656" style="stroke:#181818;stroke-width:1;"/><text fill="#000000" font-family="Helvetica" font-size="10" x="362.1846" y="366.9072">(06)</text><text fill="#000000" font-family="Helvetica" font-size="10" x="386.7119" y="366.9072">Invalidate Refresh token</text><path d="M27.0967,396.2656 L87.0527,396.2656 L87.0527,399.9063 L77.0527,409.9063 L27.0967,409.9063 L27.0967,396.2656" fill="#EEEEEE" style="stroke:#000000;stroke-width:1.5;"/><rect fill="none" height="303.0469" style="stroke:#000000;stroke-width:1.5;" width="611.585" x="27.0967" y="396.2656"/><text fill="#000000" font-family="Helvetica" font-size="10" font-weight="bold" x="42.0967" y="406.5479">alt</text><text fill="#000000" font-family="Helvetica" font-size="10" font-weight="bold" x="102.0527" y="407.5479">[Validation successful]</text><line style="stroke:#000000;stroke-width:1;stroke-dasharray:2,2;" x1="27.0967" x2="638.6816" y1="655.0313" y2="655.0313"/><text fill="#000000" font-family="Helvetica" font-size="10" font-weight="bold" x="32.0967" y="666.3135">[Validation fehlerhaft]</text><line style="stroke:#181818;stroke-width:1;" x1="355.1846" x2="397.1846" y1="437.5469" y2="437.5469"/><line style="stroke:#181818;stroke-width:1;" x1="397.1846" x2="397.1846" y1="437.5469" y2="450.5469"/><line style="stroke:#181818;stroke-width:1;" x1="356.1846" x2="397.1846" y1="450.5469" y2="450.5469"/><polygon fill="#181818" points="366.1846,446.5469,356.1846,450.5469,366.1846,454.5469,362.1846,450.5469" style="stroke:#181818;stroke-width:1;"/><text fill="#000000" font-family="Helvetica" font-size="10" x="362.1846" y="433.1885">(07)</text><text fill="#000000" font-family="Helvetica" font-size="10" x="386.7119" y="433.1885">Policy Engine Input erstellen</text><polygon fill="#181818" points="600.6816,472.1875,610.6816,476.1875,600.6816,480.1875,604.6816,476.1875" style="stroke:#181818;stroke-width:1;"/><line style="stroke:#181818;stroke-width:1;" x1="355.1846" x2="606.6816" y1="476.1875" y2="476.1875"/><text fill="#000000" font-family="Helvetica" font-size="10" x="362.1846" y="471.8291">(08)</text><text fill="#000000" font-family="Helvetica" font-size="10" x="386.7119" y="471.8291">POST /v1/data/authz {Policy Engine Input}</text><polygon fill="#181818" points="366.1846,497.8281,356.1846,501.8281,366.1846,505.8281,362.1846,501.8281" style="stroke:#181818;stroke-width:1;"/><line style="stroke:#181818;stroke-width:1;stroke-dasharray:2,2;" x1="360.1846" x2="611.6816" y1="501.8281" y2="501.8281"/><text fill="#000000" font-family="Helvetica" font-size="10" x="372.1846" y="497.4697">(09)</text><text fill="#000000" font-family="Helvetica" font-size="10" x="396.7119" y="497.4697">Policy Decision</text><path d="M46.0967,513.8281 L106.0527,513.8281 L106.0527,517.4688 L96.0527,527.4688 L46.0967,527.4688 L46.0967,513.8281" fill="#EEEEEE" style="stroke:#000000;stroke-width:1.5;"/><rect fill="none" height="116.2031" style="stroke:#000000;stroke-width:1.5;" width="320.0879" x="46.0967" y="513.8281"/><text fill="#000000" font-family="Helvetica" font-size="10" font-weight="bold" x="61.0967" y="524.1104">alt</text><text fill="#000000" font-family="Helvetica" font-size="10" font-weight="bold" x="121.0527" y="525.1104">[Policy Decision allow]</text><line style="stroke:#000000;stroke-width:1;stroke-dasharray:2,2;" x1="46.0967" x2="366.1846" y1="585.75" y2="585.75"/><text fill="#000000" font-family="Helvetica" font-size="10" font-weight="bold" x="51.0967" y="597.0322">[Policy Decision deny]</text><polygon fill="#181818" points="78.0967,562.75,68.0967,566.75,78.0967,570.75,74.0967,566.75" style="stroke:#181818;stroke-width:1;"/><line style="stroke:#181818;stroke-width:1;stroke-dasharray:2,2;" x1="72.0967" x2="344.1846" y1="566.75" y2="566.75"/><text fill="#000000" font-family="Helvetica" font-size="10" x="84.0967" y="556.5713">(10)</text><text fill="#000000" font-family="Helvetica" font-size="10" x="108.624" y="550.751">200 OK</text><text fill="#000000" font-family="Helvetica" font-size="10" x="108.624" y="562.3916">{Access Token, Refresh Token}</text><polygon fill="#181818" points="78.0967,618.0313,68.0967,622.0313,78.0967,626.0313,74.0967,622.0313" style="stroke:#181818;stroke-width:1;"/><line style="stroke:#181818;stroke-width:1;stroke-dasharray:2,2;" x1="72.0967" x2="344.1846" y1="622.0313" y2="622.0313"/><text fill="#000000" font-family="Helvetica" font-size="10" x="84.0967" y="617.6729">(11)</text><text fill="#000000" font-family="Helvetica" font-size="10" x="108.624" y="617.6729">403 Forbidden</text><polygon fill="#181818" points="78.0967,687.3125,68.0967,691.3125,78.0967,695.3125,74.0967,691.3125" style="stroke:#181818;stroke-width:1;"/><line style="stroke:#181818;stroke-width:1;stroke-dasharray:2,2;" x1="72.0967" x2="349.1846" y1="691.3125" y2="691.3125"/><text fill="#000000" font-family="Helvetica" font-size="10" x="84.0967" y="686.9541">(12)</text><text fill="#000000" font-family="Helvetica" font-size="10" x="108.624" y="686.9541">403 Forbidden</text><?plantuml-src VPJRSjem48Rl_HHRUWD322Jf5HUTSGmvD2HuOgQPTZAJ4VPYgp6IAyaaaCdRz35wbnVhMkPW3bDVW2Nj_lljGMQvaIAVZb51hTxfD6gEVkOYOufD8S89orDp8OK9-0BXf7Fuy8vD4QumdQ7X8QlOz4gRMocapbY8qThQaxdYg2gsAOhO96xqAzS6X1HOETFuEqSHuZrEK1KlvonyZfNCHUJ9L2fuIBYfEWIx3fiSJW_etgBMB4OtvR4Wa8bn7CDDYZ2IpoYW_necJCG8BzmaG9eATLAUESwdJB5uoi2WN81HEJhEMBv2RT2_hi7doqHgKz81s7rVyUd77wNdsk2KB0PiXYAYKW0iBNxsHovuAKTXw3nW8fgVA_aYh4Nn43mLccTCcAKTCBtjPsr9rohIuwnNpkg_n7J5cAEXxe-kuVIu0prorqNSKT-xkXiEXfS_d2hNPSvKj8zLHN9pamIMoE_vZw9OIiKNp70fg3DgXge6Urv3tztu-3BbuHpw8kO2QuVWopoRpTKRjBwkQj45Jo4p23rV-k0hAITGBredSmDtalhT-8_JSkrgZSeIVtiORTnTOr0RcqfLnARSR7R17mOZQ1ixDb4ciwxzVSeAY4Vn5bgF9xOMhvFw4J7U79TYnm6FGTCOqkKmZQD7eSffUxAIxqvPsrL4elxEKXuLtFV5BDFLgUycG2ARGXnjZszZNz1N7tyd2466IXMPvXhgGo_mszxze46tNa5mM_SQhVCTrovSYza6fWnYgHsMcXLdaRFEmv0kt2HFgR6x8bkT9ycCYeu4WYbz8AhsD2-RWizEsYJEsenE5_1sGEITV8iHQwr2jLhhO3qCkIOoCYbGTtPfBvKlTbwNmTTJquNJJWU6DzHPr-PKLdMdo4LeJ3Nk2KSevWTr2xOldJEua6hCeyWcNam-qJbMgLBD2IOfgeJHH-iGuBRCIkGV?></g></svg>