<?plantuml 1.2026.2?><svg xmlns="http://www.w3.org/2000/svg" xmlns:xlink="http://www.w3.org/1999/xlink" contentStyleType="text/css" data-diagram-type="SEQUENCE" height="1162px" preserveAspectRatio="none" style="width:954px;height:1162px;background:#FFFFFF;" version="1.1" viewBox="0 0 954 1162" width="954px" zoomAndPan="magnify"><title>Token Exchange with Attestation</title><defs/><g><rect fill="#F8F8FF" height="1112.9844" style="stroke:#181818;stroke-width:0.5;" width="255.2764" x="11" y="43.2969"/><text fill="#000000" font-family="Helvetica" font-size="10" font-weight="bold" x="130.1763" y="52.5791">LEI</text><rect fill="#E6E6FA" height="1096.3438" style="stroke:#181818;stroke-width:0.5;" width="102.1934" x="164.083" y="59.9375"/><text fill="#000000" font-family="Helvetica" font-size="10" font-weight="bold" x="176.083" y="69.2197">Prim&#228;rsystem</text><rect fill="#F4A460" height="1079.7031" style="stroke:#181818;stroke-width:0.5;" width="102.1934" x="164.083" y="76.5781"/><text fill="#000000" font-family="Helvetica" font-size="10" font-weight="bold" x="182.6797" y="85.8604">ZETA Client</text><rect fill="#C9FFC9" height="1112.9844" style="stroke:#181818;stroke-width:0.5;" width="468.2129" x="480.6465" y="43.2969"/><text fill="#000000" font-family="Helvetica" font-size="10" font-weight="bold" x="652.8608" y="52.5791">Anbieter TI 2.0 Dienst</text><rect fill="#F4A460" height="1096.3438" style="stroke:#181818;stroke-width:0.5;" width="468.2129" x="480.6465" y="59.9375"/><text fill="#000000" font-family="Helvetica" font-size="10" font-weight="bold" x="681.6084" y="69.2197">ZETA Guard</text><text fill="#000000" font-family="Helvetica" font-size="14" font-weight="bold" x="348.4258" y="27.9951">Token Exchange with Attestation</text><g><title>Konnektor or</title><rect fill="#000000" fill-opacity="0.00000" height="981.5" width="8" x="50.9268" y="130.5"/><line style="stroke:#181818;stroke-width:0.5;stroke-dasharray:5,5;" x1="54.4268" x2="54.4268" y1="130.5" y2="1112"/></g><g><title/><rect fill="#FFFFFF" height="25.6406" style="stroke:#181818;stroke-width:1;" width="10" x="49.4268" y="222.4219"/></g><g><title>SM.C.-B</title><rect fill="#000000" fill-opacity="0.00000" height="981.5" width="8" x="127.4683" y="130.5"/><line style="stroke:#181818;stroke-width:0.5;stroke-dasharray:5,5;" x1="130.9683" x2="130.9683" y1="130.5" y2="1112"/></g><g><title>ZETA Client</title><rect fill="#000000" fill-opacity="0.00000" height="981.5" width="8" x="211.6797" y="130.5"/><line style="stroke:#181818;stroke-width:0.5;stroke-dasharray:5,5;" x1="215.1797" x2="215.1797" y1="130.5" y2="1112"/></g><g><title/><rect fill="#FFFFFF" height="973.5" style="stroke:#181818;stroke-width:1;" width="10" x="210.1797" y="138.5"/></g><g><title>PDP</title><rect fill="#000000" fill-opacity="0.00000" height="981.5" width="8" x="539.6211" y="130.5"/><line style="stroke:#181818;stroke-width:0.5;stroke-dasharray:5,5;" x1="543.1211" x2="543.1211" y1="130.5" y2="1112"/></g><g><title/><rect fill="#FFFFFF" height="610.8125" style="stroke:#181818;stroke-width:1;" width="10" x="538.1211" y="399.9063"/></g><g><title>PDP</title><rect fill="#000000" fill-opacity="0.00000" height="981.5" width="8" x="901.0732" y="130.5"/><line style="stroke:#181818;stroke-width:0.5;stroke-dasharray:5,5;" x1="904.5732" x2="904.5732" y1="130.5" y2="1112"/></g><g><title/><rect fill="#FFFFFF" height="25.6406" style="stroke:#181818;stroke-width:1;" width="10" x="899.5732" y="702.3125"/></g><rect fill="#E2E2F0" height="37.2813" rx="2.5" ry="2.5" style="stroke:#181818;stroke-width:0.5;" width="78.8535" x="15" y="92.2188"/><text fill="#000000" font-family="Helvetica" font-size="10" x="22" y="108.501">Konnektor or</text><text fill="#000000" font-family="Helvetica" font-size="10" x="26.0063" y="120.1416">TI-Gateway</text><rect fill="#E2E2F0" height="25.6406" rx="2.5" ry="2.5" style="stroke:#181818;stroke-width:0.5;" width="54.2295" x="103.8535" y="103.8594"/><text fill="#000000" font-family="Helvetica" font-size="10" x="110.8535" y="120.1416">SM(C)-B</text><rect fill="#E2E2F0" height="25.6406" rx="2.5" ry="2.5" style="stroke:#181818;stroke-width:0.5;" width="72.2471" x="179.0562" y="103.8594"/><text fill="#000000" font-family="Helvetica" font-size="10" x="186.0562" y="120.1416">ZETA Client</text><rect fill="#E2E2F0" height="37.2813" rx="2.5" ry="2.5" style="stroke:#181818;stroke-width:0.5;" width="116.9492" x="484.6465" y="92.2188"/><text fill="#000000" font-family="Helvetica" font-size="10" x="533.2407" y="108.501">PDP</text><text fill="#000000" font-family="Helvetica" font-size="10" x="491.6465" y="120.1416">Authorization Server</text><rect fill="#E2E2F0" height="37.2813" rx="2.5" ry="2.5" style="stroke:#181818;stroke-width:0.5;" width="80.5723" x="864.2871" y="92.2188"/><text fill="#000000" font-family="Helvetica" font-size="10" x="894.6929" y="108.501">PDP</text><text fill="#000000" font-family="Helvetica" font-size="10" x="871.2871" y="120.1416">Policy Engine</text><rect fill="#E2E2F0" height="37.2813" rx="2.5" ry="2.5" style="stroke:#181818;stroke-width:0.5;" width="78.8535" x="15" y="1112"/><text fill="#000000" font-family="Helvetica" font-size="10" x="22" y="1128.2822">Konnektor or</text><text fill="#000000" font-family="Helvetica" font-size="10" x="26.0063" y="1139.9229">TI-Gateway</text><rect fill="#E2E2F0" height="25.6406" rx="2.5" ry="2.5" style="stroke:#181818;stroke-width:0.5;" width="54.2295" x="103.8535" y="1112"/><text fill="#000000" font-family="Helvetica" font-size="10" x="110.8535" y="1128.2822">SM(C)-B</text><rect fill="#E2E2F0" height="25.6406" rx="2.5" ry="2.5" style="stroke:#181818;stroke-width:0.5;" width="72.2471" x="179.0562" y="1112"/><text fill="#000000" font-family="Helvetica" font-size="10" x="186.0562" y="1128.2822">ZETA Client</text><rect fill="#E2E2F0" height="37.2813" rx="2.5" ry="2.5" style="stroke:#181818;stroke-width:0.5;" width="116.9492" x="484.6465" y="1112"/><text fill="#000000" font-family="Helvetica" font-size="10" x="533.2407" y="1128.2822">PDP</text><text fill="#000000" font-family="Helvetica" font-size="10" x="491.6465" y="1139.9229">Authorization Server</text><rect fill="#E2E2F0" height="37.2813" rx="2.5" ry="2.5" style="stroke:#181818;stroke-width:0.5;" width="80.5723" x="864.2871" y="1112"/><text fill="#000000" font-family="Helvetica" font-size="10" x="894.6929" y="1128.2822">PDP</text><text fill="#000000" font-family="Helvetica" font-size="10" x="871.2871" y="1139.9229">Policy Engine</text><line style="stroke:#181818;stroke-width:1;" x1="220.1797" x2="262.1797" y1="156.1406" y2="156.1406"/><line style="stroke:#181818;stroke-width:1;" x1="262.1797" x2="262.1797" y1="156.1406" y2="169.1406"/><line style="stroke:#181818;stroke-width:1;" x1="221.1797" x2="262.1797" y1="169.1406" y2="169.1406"/><polygon fill="#181818" points="231.1797,165.1406,221.1797,169.1406,231.1797,173.1406,227.1797,169.1406" style="stroke:#181818;stroke-width:1;"/><text fill="#000000" font-family="Helvetica" font-size="10" x="227.1797" y="151.7822">(01)</text><text fill="#000000" font-family="Helvetica" font-size="10" x="251.707" y="151.7822">Generiere subject_token</text><path d="M33.4268,181.1406 L263.8711,181.1406 L263.8711,184.7813 L253.8711,194.7813 L33.4268,194.7813 L33.4268,181.1406" fill="#EEEEEE" style="stroke:#000000;stroke-width:1.5;"/><rect fill="none" height="74.9219" style="stroke:#000000;stroke-width:1.5;" width="246.4443" x="33.4268" y="181.1406"/><text fill="#000000" font-family="Helvetica" font-size="10" font-weight="bold" x="48.4268" y="191.4229">Sign Subject Token with SM(C)-B</text><polygon fill="#181818" points="70.4268,218.4219,60.4268,222.4219,70.4268,226.4219,66.4268,222.4219" style="stroke:#181818;stroke-width:1;"/><line style="stroke:#181818;stroke-width:1;" x1="64.4268" x2="209.1797" y1="222.4219" y2="222.4219"/><text fill="#000000" font-family="Helvetica" font-size="10" x="76.4268" y="218.0635">(02)</text><text fill="#000000" font-family="Helvetica" font-size="10" x="100.9541" y="218.0635">&#160;</text><polygon fill="#181818" points="198.1797,244.0625,208.1797,248.0625,198.1797,252.0625,202.1797,248.0625" style="stroke:#181818;stroke-width:1;"/><line style="stroke:#181818;stroke-width:1;stroke-dasharray:2,2;" x1="59.4268" x2="204.1797" y1="248.0625" y2="248.0625"/><text fill="#000000" font-family="Helvetica" font-size="10" x="66.4268" y="243.7041">(03)</text><text fill="#000000" font-family="Helvetica" font-size="10" x="90.9541" y="243.7041">&#160;</text><line style="stroke:#181818;stroke-width:1;" x1="220.1797" x2="262.1797" y1="287.7031" y2="287.7031"/><line style="stroke:#181818;stroke-width:1;" x1="262.1797" x2="262.1797" y1="287.7031" y2="300.7031"/><line style="stroke:#181818;stroke-width:1;" x1="221.1797" x2="262.1797" y1="300.7031" y2="300.7031"/><polygon fill="#181818" points="231.1797,296.7031,221.1797,300.7031,231.1797,304.7031,227.1797,300.7031" style="stroke:#181818;stroke-width:1;"/><text fill="#000000" font-family="Helvetica" font-size="10" x="227.1797" y="283.3447">(04)</text><text fill="#000000" font-family="Helvetica" font-size="10" x="251.707" y="283.3447">Create DPoP Key Pair (PrK.DPoP.Sig, PuK.DPoP.Sig)</text><path d="M518.6289,275.0625 L518.6289,296.0625 L744.6289,296.0625 L744.6289,285.0625 L734.6289,275.0625 L518.6289,275.0625" fill="#FEFFDD" style="stroke:#181818;stroke-width:0.5;"/><path d="M734.6289,275.0625 L734.6289,285.0625 L744.6289,285.0625 L734.6289,275.0625" fill="#FEFFDD" style="stroke:#181818;stroke-width:0.5;"/><text fill="#000000" font-family="Helvetica" font-size="10" x="524.6289" y="289.3447">Session-based Key Pair for DPoP binding.</text><line style="stroke:#181818;stroke-width:1;" x1="220.1797" x2="262.1797" y1="326.3438" y2="326.3438"/><line style="stroke:#181818;stroke-width:1;" x1="262.1797" x2="262.1797" y1="326.3438" y2="339.3438"/><line style="stroke:#181818;stroke-width:1;" x1="221.1797" x2="262.1797" y1="339.3438" y2="339.3438"/><polygon fill="#181818" points="231.1797,335.3438,221.1797,339.3438,231.1797,343.3438,227.1797,339.3438" style="stroke:#181818;stroke-width:1;"/><text fill="#000000" font-family="Helvetica" font-size="10" x="227.1797" y="321.9854">(05)</text><text fill="#000000" font-family="Helvetica" font-size="10" x="251.707" y="321.9854">Create DPoP Proof (with Nonce from AuthS)</text><polygon fill="#181818" points="526.1211,395.9063,536.1211,399.9063,526.1211,403.9063,530.1211,399.9063" style="stroke:#181818;stroke-width:1;"/><line style="stroke:#181818;stroke-width:1;" x1="220.1797" x2="532.1211" y1="399.9063" y2="399.9063"/><text fill="#000000" font-family="Helvetica" font-size="10" x="227.1797" y="378.0869">(06)</text><text fill="#000000" font-family="Helvetica" font-size="10" x="251.707" y="360.626">POST /token dpop: dpop_proof</text><text fill="#000000" font-family="Helvetica" font-size="10" x="251.707" y="372.2666">{client_assertion (JWT, PrK.Client.Sig signiert),</text><text fill="#000000" font-family="Helvetica" font-size="10" x="251.707" y="383.9072">subject_token (SMC-B signiert, inkl. Nonce),</text><text fill="#000000" font-family="Helvetica" font-size="10" x="251.707" y="395.5479">[Evidence]}</text><line style="stroke:#181818;stroke-width:1;" x1="548.1211" x2="590.1211" y1="437.1875" y2="437.1875"/><line style="stroke:#181818;stroke-width:1;" x1="590.1211" x2="590.1211" y1="437.1875" y2="450.1875"/><line style="stroke:#181818;stroke-width:1;" x1="549.1211" x2="590.1211" y1="450.1875" y2="450.1875"/><polygon fill="#181818" points="559.1211,446.1875,549.1211,450.1875,559.1211,454.1875,555.1211,450.1875" style="stroke:#181818;stroke-width:1;"/><text fill="#000000" font-family="Helvetica" font-size="10" x="555.1211" y="427.0088">(07)</text><text fill="#000000" font-family="Helvetica" font-size="10" x="579.6484" y="421.1885">Validate Request (Client Assertion, DPoP Proof,</text><text fill="#000000" font-family="Helvetica" font-size="10" x="579.6484" y="432.8291">Subject Token, Nonce and Key bindings from DCR)</text><path d="M527.1211,462.1875 L587.0771,462.1875 L587.0771,465.8281 L577.0771,475.8281 L527.1211,475.8281 L527.1211,462.1875" fill="#EEEEEE" style="stroke:#000000;stroke-width:1.5;"/><rect fill="none" height="142.2031" style="stroke:#000000;stroke-width:1.5;" width="393.4521" x="527.1211" y="462.1875"/><text fill="#000000" font-family="Helvetica" font-size="10" font-weight="bold" x="542.1211" y="472.4697">alt</text><text fill="#000000" font-family="Helvetica" font-size="10" font-weight="bold" x="602.0771" y="473.4697">[TPM Attestation (Windows / Linux)]</text><line style="stroke:#000000;stroke-width:1;stroke-dasharray:2,2;" x1="527.1211" x2="920.5732" y1="547.1094" y2="547.1094"/><text fill="#000000" font-family="Helvetica" font-size="10" font-weight="bold" x="532.1211" y="558.3916">[macOS Attestation (Secure Enclave)]</text><line style="stroke:#181818;stroke-width:1;" x1="548.1211" x2="590.1211" y1="515.1094" y2="515.1094"/><line style="stroke:#181818;stroke-width:1;" x1="590.1211" x2="590.1211" y1="515.1094" y2="528.1094"/><line style="stroke:#181818;stroke-width:1;" x1="549.1211" x2="590.1211" y1="528.1094" y2="528.1094"/><polygon fill="#181818" points="559.1211,524.1094,549.1211,528.1094,559.1211,532.1094,555.1211,528.1094" style="stroke:#181818;stroke-width:1;"/><text fill="#000000" font-family="Helvetica" font-size="10" x="555.1211" y="504.9307">(08)</text><text fill="#000000" font-family="Helvetica" font-size="10" x="579.6484" y="499.1104">Verifiziere Hardware-Signatur (Quote) gegen extrahierte Nonce</text><text fill="#000000" font-family="Helvetica" font-size="10" x="579.6484" y="510.751">PCR-Replay via Event Log</text><line style="stroke:#181818;stroke-width:1;" x1="548.1211" x2="590.1211" y1="583.3906" y2="583.3906"/><line style="stroke:#181818;stroke-width:1;" x1="590.1211" x2="590.1211" y1="583.3906" y2="596.3906"/><line style="stroke:#181818;stroke-width:1;" x1="549.1211" x2="590.1211" y1="596.3906" y2="596.3906"/><polygon fill="#181818" points="559.1211,592.3906,549.1211,596.3906,559.1211,600.3906,555.1211,596.3906" style="stroke:#181818;stroke-width:1;"/><text fill="#000000" font-family="Helvetica" font-size="10" x="555.1211" y="579.0322">(09)</text><text fill="#000000" font-family="Helvetica" font-size="10" x="579.6484" y="579.0322">Pr&#252;fe Signaturen und counter (Replay-Schutz)</text><path d="M161.1797,622.3906 L221.1357,622.3906 L221.1357,626.0313 L211.1357,636.0313 L161.1797,636.0313 L161.1797,622.3906" fill="#EEEEEE" style="stroke:#000000;stroke-width:1.5;"/><rect fill="none" height="465.6094" style="stroke:#000000;stroke-width:1.5;" width="764.3936" x="161.1797" y="622.3906"/><text fill="#000000" font-family="Helvetica" font-size="10" font-weight="bold" x="176.1797" y="632.6729">alt</text><text fill="#000000" font-family="Helvetica" font-size="10" font-weight="bold" x="236.1357" y="633.6729">[Validation successful]</text><line style="stroke:#000000;stroke-width:1;stroke-dasharray:2,2;" x1="161.1797" x2="925.5732" y1="1043.7188" y2="1043.7188"/><text fill="#000000" font-family="Helvetica" font-size="10" font-weight="bold" x="166.1797" y="1055.001">[Validation fehlerhaft]</text><line style="stroke:#181818;stroke-width:1;" x1="548.1211" x2="590.1211" y1="663.6719" y2="663.6719"/><line style="stroke:#181818;stroke-width:1;" x1="590.1211" x2="590.1211" y1="663.6719" y2="676.6719"/><line style="stroke:#181818;stroke-width:1;" x1="549.1211" x2="590.1211" y1="676.6719" y2="676.6719"/><polygon fill="#181818" points="559.1211,672.6719,549.1211,676.6719,559.1211,680.6719,555.1211,676.6719" style="stroke:#181818;stroke-width:1;"/><text fill="#000000" font-family="Helvetica" font-size="10" x="555.1211" y="659.3135">(10)</text><text fill="#000000" font-family="Helvetica" font-size="10" x="579.6484" y="659.3135">Policy Engine Input erstellen</text><polygon fill="#181818" points="887.5732,698.3125,897.5732,702.3125,887.5732,706.3125,891.5732,702.3125" style="stroke:#181818;stroke-width:1;"/><line style="stroke:#181818;stroke-width:1;" x1="548.1211" x2="893.5732" y1="702.3125" y2="702.3125"/><text fill="#000000" font-family="Helvetica" font-size="10" x="555.1211" y="697.9541">(11)</text><text fill="#000000" font-family="Helvetica" font-size="10" x="579.6484" y="697.9541">POST /v1/data/authz {Policy Engine Input}</text><polygon fill="#181818" points="559.1211,723.9531,549.1211,727.9531,559.1211,731.9531,555.1211,727.9531" style="stroke:#181818;stroke-width:1;"/><line style="stroke:#181818;stroke-width:1;stroke-dasharray:2,2;" x1="553.1211" x2="898.5732" y1="727.9531" y2="727.9531"/><text fill="#000000" font-family="Helvetica" font-size="10" x="565.1211" y="723.5947">(12)</text><text fill="#000000" font-family="Helvetica" font-size="10" x="589.6484" y="723.5947">Policy Decision</text><path d="M180.1797,739.9531 L240.1357,739.9531 L240.1357,743.5938 L230.1357,753.5938 L180.1797,753.5938 L180.1797,739.9531" fill="#EEEEEE" style="stroke:#000000;stroke-width:1.5;"/><rect fill="none" height="278.7656" style="stroke:#000000;stroke-width:1.5;" width="711.0479" x="180.1797" y="739.9531"/><text fill="#000000" font-family="Helvetica" font-size="10" font-weight="bold" x="195.1797" y="750.2354">alt</text><text fill="#000000" font-family="Helvetica" font-size="10" font-weight="bold" x="255.1357" y="751.2354">[Policy Decision allow]</text><line style="stroke:#000000;stroke-width:1;stroke-dasharray:2,2;" x1="180.1797" x2="891.2275" y1="974.4375" y2="974.4375"/><text fill="#000000" font-family="Helvetica" font-size="10" font-weight="bold" x="185.1797" y="985.7197">[Policy Decision deny]</text><line style="stroke:#181818;stroke-width:1;" x1="548.1211" x2="590.1211" y1="781.2344" y2="781.2344"/><line style="stroke:#181818;stroke-width:1;" x1="590.1211" x2="590.1211" y1="781.2344" y2="794.2344"/><line style="stroke:#181818;stroke-width:1;" x1="549.1211" x2="590.1211" y1="794.2344" y2="794.2344"/><polygon fill="#181818" points="559.1211,790.2344,549.1211,794.2344,559.1211,798.2344,555.1211,794.2344" style="stroke:#181818;stroke-width:1;"/><text fill="#000000" font-family="Helvetica" font-size="10" x="555.1211" y="776.876">(13)</text><text fill="#000000" font-family="Helvetica" font-size="10" x="579.6484" y="776.876">Create Token (Access Token, Refresh Token)</text><path d="M199.1797,806.2344 L259.1357,806.2344 L259.1357,809.875 L249.1357,819.875 L199.1797,819.875 L199.1797,806.2344" fill="#EEEEEE" style="stroke:#000000;stroke-width:1.5;"/><rect fill="none" height="143.2031" style="stroke:#000000;stroke-width:1.5;" width="667.0479" x="199.1797" y="806.2344"/><text fill="#000000" font-family="Helvetica" font-size="10" font-weight="bold" x="214.1797" y="816.5166">alt</text><text fill="#000000" font-family="Helvetica" font-size="10" font-weight="bold" x="274.1357" y="817.5166">[Hardware Attestation  (TPM / SE)]</text><line style="stroke:#000000;stroke-width:1;stroke-dasharray:2,2;" x1="199.1797" x2="866.2275" y1="905.1563" y2="905.1563"/><text fill="#000000" font-family="Helvetica" font-size="10" font-weight="bold" x="204.1797" y="916.4385">[Software Attestation (Fallback)]</text><line style="stroke:#181818;stroke-width:1;" x1="548.1211" x2="590.1211" y1="847.5156" y2="847.5156"/><line style="stroke:#181818;stroke-width:1;" x1="590.1211" x2="590.1211" y1="847.5156" y2="860.5156"/><line style="stroke:#181818;stroke-width:1;" x1="549.1211" x2="590.1211" y1="860.5156" y2="860.5156"/><polygon fill="#181818" points="559.1211,856.5156,549.1211,860.5156,559.1211,864.5156,555.1211,860.5156" style="stroke:#181818;stroke-width:1;"/><text fill="#000000" font-family="Helvetica" font-size="10" x="555.1211" y="843.1572">(14)</text><text fill="#000000" font-family="Helvetica" font-size="10" x="579.6484" y="843.1572">Create ZETA Guard Attestation Token (zg_att_token)</text><polygon fill="#181818" points="231.1797,882.1563,221.1797,886.1563,231.1797,890.1563,227.1797,886.1563" style="stroke:#181818;stroke-width:1;"/><line style="stroke:#181818;stroke-width:1;stroke-dasharray:2,2;" x1="225.1797" x2="537.1211" y1="886.1563" y2="886.1563"/><text fill="#000000" font-family="Helvetica" font-size="10" x="237.1797" y="881.7979">(15)</text><text fill="#000000" font-family="Helvetica" font-size="10" x="261.707" y="881.7979">200 OK {Access Token, Refresh Token, zg_att_token}</text><polygon fill="#181818" points="231.1797,937.4375,221.1797,941.4375,231.1797,945.4375,227.1797,941.4375" style="stroke:#181818;stroke-width:1;"/><line style="stroke:#181818;stroke-width:1;stroke-dasharray:2,2;" x1="225.1797" x2="537.1211" y1="941.4375" y2="941.4375"/><text fill="#000000" font-family="Helvetica" font-size="10" x="237.1797" y="937.0791">(16)</text><text fill="#000000" font-family="Helvetica" font-size="10" x="261.707" y="937.0791">200 OK {Access Token, Refresh Token}</text><polygon fill="#181818" points="231.1797,1006.7188,221.1797,1010.7188,231.1797,1014.7188,227.1797,1010.7188" style="stroke:#181818;stroke-width:1;"/><line style="stroke:#181818;stroke-width:1;stroke-dasharray:2,2;" x1="225.1797" x2="537.1211" y1="1010.7188" y2="1010.7188"/><text fill="#000000" font-family="Helvetica" font-size="10" x="237.1797" y="1006.3604">(17)</text><text fill="#000000" font-family="Helvetica" font-size="10" x="261.707" y="1006.3604">403 Forbidden</text><polygon fill="#181818" points="231.1797,1076,221.1797,1080,231.1797,1084,227.1797,1080" style="stroke:#181818;stroke-width:1;"/><line style="stroke:#181818;stroke-width:1;stroke-dasharray:2,2;" x1="225.1797" x2="542.1211" y1="1080" y2="1080"/><text fill="#000000" font-family="Helvetica" font-size="10" x="237.1797" y="1075.6416">(18)</text><text fill="#000000" font-family="Helvetica" font-size="10" x="261.707" y="1075.6416">403 Forbidden</text><?plantuml-src hLRBSkf64DthApfa8yh8vZfPUP4g3FWH6wDOL5n9d78DKakQQp53PaPWSFblyXdPtHzBpqY0iCbD5c41agQxp-dkqorOQQGePrDKqFAxtNRBqyzSp9bYCqWmPMLXBgGm4LyZVEeUFhnZCuGhB1PeUCmQDeFAPYI5r7CMOxArxijISLGDsm95Pl9UyhdK1eGKs3ZJ-4U98iPxJ57PYtCMFsTAbYBfoq8gUCYvQJf4xnrsEPmUY3j2hLc6lO9dWeYanlCCDmN2H3wZWE5Bd3EH8IovoQ5d36h339V2yxwPAvRD61YKQp2gHC-RoXTetGwlM_3jPIwrgRW142ILXy-PC70ZXS1dGyoPXjRkJgf7CRaEBfd19Lkrtdb5etDd7utyVZiujySEB5HyzkLFfLVQu8nWRza2HKBL1QWjVXrEUj0lE0f3vn4JoUfSoQLm5lRJXAdi75BJpzbIN1UHFjxspjlyLhdtn9IZ8K5Dhk7qk0i3SjSMTpBiNzsDRyUNltXDNfSbKyb7MarAlTBaaMCK3i97OM-buclN16gsMg1gmGUlSTZR-OIouF4AXYBZ0bk7o5Tv7XtL5n3yKAT-1fSeqEeLGPVJpnYR9sELuNbMX7E8h6wYwgJMZ9DAtIX7R1Tqrsx2iaUx1y4MaoxX32mvxmCVEkWh98t089GXtE0AGiOL-A6wERQFZebG1y9oTzVsX2HxnRESqeb8xrIvOCeq9Zl_b1YuY5Ck4Ywout-53fMKAVWksJj9amIfahEgNUs6itjmT7G6uJYQm8ah7YHpEJzptqzp6-THlCREuubfZShrrl_nOKAPK5vLC9iBQ2etDSEqEuzYhn_WHwD-SBurw00NpyLnHSrQ_pPSyCHE_EzldbU9QiFk37vc1KziQlTsBT0Myki4UXiwdKRM56sluvsw02HYLz6wXhggoA1_tzxCciSAyWb7pKq2_WFPowM64xZbednfEsLye4WgJFdQAV6AfcR950PMVSoKrF-VIcfo6pBCg1RuOXJBRHcmeaOpqByFxd5Ui1KiE8FXmcPtApCF2uqmO_4usYSLOLmIr5341UsKmvn2zUMl5673Wf1fBKDCozdk0B_22w8uByswxGHjyw-BRL5q6SSaoBGi3iTl3YvSYtbf01Mjke9U6ViUDF0xaIq-dH00Es5qkeRN0s7UdBVT4i46BWYsW0ECkNPBtbfPpkyEw5aXbziL-fvtFIVLEl1xBiUDLEYzf53drMrx6yA2RDgwrmZmhLvE81hkZB-2kLkhUr5gAkliYPbwOWw6Qoo-qsuNnZVm-XNw7MW6VDi6T9gAP6e-PEDVKEMcz0h_7z0RUAIiBUxxLj7Ghxn_0h9D_xxx7Ln8DUL9KglAndEn6b9DCIzGvOp-8VotG3R8tm00?></g></svg>