<?xml version="1.0" encoding="UTF-8" standalone="no"?>
<svg
   xml:space="preserve"
   style="enable-background:new 0 0 35.6 35.2"
   viewBox="0 0 35.6 35.2"
   version="1.1"
   id="svg2"
   sodipodi:docname="favicon.svg"
   inkscape:version="1.3.2 (091e20e, 2023-11-25, custom)"
   xmlns:inkscape="http://www.inkscape.org/namespaces/inkscape"
   xmlns:sodipodi="http://sodipodi.sourceforge.net/DTD/sodipodi-0.dtd"
   xmlns="http://www.w3.org/2000/svg"
   xmlns:svg="http://www.w3.org/2000/svg"><defs
     id="defs2" /><sodipodi:namedview
     id="namedview2"
     pagecolor="#ffffff"
     bordercolor="#111111"
     borderopacity="1"
     inkscape:showpageshadow="0"
     inkscape:pageopacity="0"
     inkscape:pagecheckerboard="1"
     inkscape:deskcolor="#d1d1d1"
     showgrid="false"
     inkscape:zoom="31.980511"
     inkscape:cx="15.118583"
     inkscape:cy="16.447517"
     inkscape:window-width="1920"
     inkscape:window-height="992"
     inkscape:window-x="-8"
     inkscape:window-y="-8"
     inkscape:window-maximized="1"
     inkscape:current-layer="svg2" /><path
     d="M24.7 10.1c-1.7-1.8-4.3-2.2-6-2.2-4.9 0-7.8 2.8-7.8 7.1 0 4.1 2.7 6.7 6.7 6.7 1.1 0 1.7-.5 1.7-1.4 0-.8-.6-1.3-1.7-1.3-2.2 0-3.7-1.6-3.7-4 0-2.6 1.7-4.3 4.6-4.3 1 0 2.3.3 3.1 1v9.9c0 2.1-1.9 3-4.2 3-2.1 0-3.6-1-3.8-1.1-1.2-.6-2.3 0-2.3 1.1 0 1.9 3.4 2.8 6.1 2.8 4.1 0 7.3-1.8 7.3-5.8V10.1z"
     style="fill:#000e52;stroke:#003055;stroke-opacity:1;fill-opacity:1"
     id="path2" /><path
     style="fill:#000e52;fill-opacity:1;stroke-width:0.0442907;stroke-dasharray:none;stroke:#003055;stroke-opacity:1"
     d="m 16.472362,27.346561 c -0.08513,-0.01 -0.353769,-0.03952 -0.596985,-0.0656 -1.757633,-0.188441 -3.407854,-0.818997 -4.069591,-1.555009 -0.319285,-0.355121 -0.430364,-0.609657 -0.454112,-1.040585 -0.0246,-0.446345 0.05409,-0.688208 0.316544,-0.972933 0.259925,-0.281985 0.469241,-0.37525 0.894616,-0.398614 0.46219,-0.02539 0.709896,0.0468 1.403332,0.408935 1.346604,0.703245 2.680481,0.989165 4.053482,0.868873 1.700077,-0.148947 2.824547,-0.743008 3.334523,-1.761636 0.253697,-0.506734 0.246475,-0.331961 0.247186,-5.982103 l 6.54e-4,-5.196331 -0.276382,-0.186287 c -0.754031,-0.508231 -1.711709,-0.763764 -2.86241,-0.763764 -0.720674,0 -1.241595,0.07209 -1.787934,0.247419 -1.349029,0.432935 -2.292487,1.417797 -2.631989,2.747494 -0.350394,1.372358 -0.120193,2.883079 0.591236,3.880057 0.630112,0.883023 1.732702,1.434422 2.877026,1.438785 0.412959,0.0016 0.869558,0.08926 1.113883,0.2139 0.247054,0.126038 0.52913,0.4495 0.590713,0.677382 0.07523,0.278384 0.03315,0.815266 -0.08135,1.037819 -0.12864,0.25004 -0.443979,0.51612 -0.725548,0.612212 -0.542947,0.185293 -1.82477,0.125121 -2.839199,-0.133279 -2.705083,-0.689052 -4.441268,-2.894856 -4.619104,-5.868523 -0.227462,-3.803489 1.756705,-6.5400244 5.344525,-7.3710921 0.775516,-0.1796374 1.357471,-0.2397201 2.343718,-0.2419722 0.532629,-0.00122 1.135507,0.02254 1.370855,0.054018 1.830143,0.2447828 3.37407,0.8945793 4.36735,1.8380979 l 0.324382,0.3081304 -0.01687,6.105907 c -0.01846,6.679473 -0.0046,6.322053 -0.278893,7.19619 -0.649439,2.069712 -2.469596,3.386086 -5.280389,3.818884 -0.443343,0.06826 -2.288993,0.126435 -2.653267,0.08362 z"
     id="path3" /><path
     style="fill:#000e52;fill-opacity:1;stroke-width:0.0442907;stroke-dasharray:none;stroke:#003055;stroke-opacity:1"
     d="m 16.184925,27.30213 c -0.07296,-0.01094 -0.351558,-0.05013 -0.619096,-0.0871 -1.771631,-0.244771 -3.292288,-0.90278 -3.87893,-1.678468 -0.223943,-0.296109 -0.299964,-0.540838 -0.299964,-0.965656 0,-0.436619 0.09259,-0.651749 0.399125,-0.92735 0.274888,-0.247148 0.49985,-0.31128 1.006881,-0.287038 0.383295,0.01833 0.405757,0.02579 1.142428,0.37977 1.288246,0.619016 2.099951,0.83923 3.244531,0.880237 1.35696,0.04862 2.610094,-0.254657 3.369089,-0.815359 0.552279,-0.407992 0.935112,-1.002595 1.008271,-1.56601 0.02438,-0.187764 0.04259,-2.486514 0.04339,-5.476241 l 0.0014,-5.152641 -0.298493,-0.182272 c -0.60171,-0.367428 -1.06387,-0.538588 -1.775649,-0.657605 -0.684741,-0.114497 -1.991013,-0.07384 -2.574332,0.08013 -1.956014,0.516285 -3.089864,2.037117 -3.089864,4.144429 0,1.704123 0.749395,3.044047 2.052489,3.669866 0.478006,0.229565 0.805989,0.307325 1.595396,0.378247 0.364824,0.03278 0.762814,0.08996 0.884422,0.127083 0.268465,0.08195 0.522359,0.284342 0.691746,0.551438 0.111637,0.176032 0.126345,0.240088 0.126345,0.55026 0,0.19307 -0.0234,0.429146 -0.05201,0.524613 -0.07384,0.24645 -0.35109,0.540613 -0.64605,0.685457 -0.251914,0.123706 -0.255446,0.124084 -1.137121,0.121841 -0.785948,-0.002 -0.946711,-0.01547 -1.44385,-0.120975 -1.434889,-0.304518 -2.500482,-0.906716 -3.402544,-1.92288 -1.302961,-1.467771 -1.845387,-3.717425 -1.451801,-6.021181 0.595232,-3.484033 3.446591,-5.5748509 7.602717,-5.5748509 0.817043,0 1.464999,0.061859 2.13935,0.2042401 1.472818,0.3109669 2.737161,0.9209315 3.539334,1.7075014 L 24.68986,10.192966 24.65333,16.3397 c -0.03999,6.72924 -0.02618,6.407114 -0.309124,7.20804 -0.696251,1.970833 -2.447999,3.235216 -5.085883,3.670911 -0.408102,0.06741 -2.755343,0.131162 -3.073367,0.08348 z"
     id="path4" /><path
     style="fill:#000e52;fill-opacity:1;stroke-width:0.0313183;stroke-dasharray:none;stroke:#003055;stroke-opacity:1"
     d="m 16.494421,27.327917 c -1.716409,-0.128132 -3.282056,-0.583593 -4.212731,-1.22552 -0.292532,-0.201772 -0.639059,-0.568045 -0.755322,-0.798361 -0.18696,-0.370365 -0.213899,-0.926435 -0.06104,-1.259989 0.09225,-0.2013 0.363612,-0.493288 0.543941,-0.585285 0.299152,-0.152616 0.875858,-0.170445 1.254206,-0.03877 0.106158,0.03694 0.422757,0.180313 0.703554,0.318598 1.117864,0.550516 1.935897,0.790849 2.96516,0.871147 1.17541,0.0917 2.53921,-0.165444 3.328845,-0.627652 0.553257,-0.323845 1.007135,-0.836818 1.202557,-1.35913 0.12351,-0.33011 0.129945,-0.582533 0.149474,-5.863524 l 0.01891,-5.11327 -0.247049,-0.161879 c -0.833762,-0.546323 -1.736007,-0.790213 -2.920552,-0.789467 -0.989244,6.22e-4 -1.698507,0.145036 -2.400406,0.48875 -1.143133,0.559783 -1.874317,1.569265 -2.125442,2.934411 -0.06512,0.353982 -0.07288,1.3318 -0.01329,1.672894 0.219401,1.255745 0.761534,2.123558 1.684251,2.696044 0.510928,0.316998 1.043224,0.477783 1.744834,0.527047 0.947993,0.06656 1.238808,0.15226 1.540856,0.454064 0.107959,0.107871 0.22304,0.256849 0.255736,0.331061 0.130124,0.295352 0.108077,0.819916 -0.04799,1.141878 -0.154768,0.319279 -0.567113,0.59809 -0.982511,0.664333 -0.111787,0.01783 -0.407365,0.03252 -0.656841,0.03265 -1.090188,5.67e-4 -2.154317,-0.228464 -3.057433,-0.65805 -1.844447,-0.877347 -3.023544,-2.538432 -3.372613,-4.751259 -0.08219,-0.521008 -0.08228,-1.953927 -1.66e-4,-2.485889 0.383039,-2.481348 1.811368,-4.2825789 4.114598,-5.1888165 0.633538,-0.2492743 1.613078,-0.4807314 2.33144,-0.5508999 0.554944,-0.054206 2.101859,-0.043894 2.564061,0.017092 1.7607,0.2323202 3.255376,0.8628152 4.311387,1.8186601 l 0.340217,0.3079473 -0.02163,5.487756 c -0.02205,5.594831 -0.0428,6.807999 -0.123528,7.223187 -0.109355,0.562389 -0.437367,1.356098 -0.75596,1.829239 -0.83995,1.247406 -2.23873,2.077579 -4.156987,2.467163 -0.612791,0.124453 -0.782314,0.137458 -2.438986,0.187109 -0.206375,0.0062 -0.522974,2.16e-4 -0.703553,-0.01327 z"
     id="path5" /><path
     style="fill:#000e52;fill-opacity:1;stroke-width:0.0313183;stroke-dasharray:none;stroke:#003055;stroke-opacity:1"
     d="m 16.635132,27.338923 c -0.407763,-0.02257 -1.306849,-0.140485 -1.721217,-0.225737 -1.069175,-0.219972 -2.011717,-0.581481 -2.629443,-1.008514 -0.295403,-0.204212 -0.641589,-0.56982 -0.758104,-0.800636 -0.18696,-0.370365 -0.213899,-0.926435 -0.06104,-1.259989 0.09225,-0.2013 0.363612,-0.493288 0.543941,-0.585285 0.298694,-0.152382 0.875921,-0.170435 1.252984,-0.03919 0.105485,0.03672 0.408013,0.172964 0.672285,0.302771 1.170499,0.574935 1.983169,0.811656 3.047586,0.887724 1.085109,0.07755 2.402473,-0.155108 3.139508,-0.554459 0.714755,-0.387279 1.236,-0.989411 1.395155,-1.611656 0.06512,-0.25461 0.09378,-2.303987 0.101167,-7.23613 l 0.0053,-3.569234 -0.242714,-0.155496 c -0.807434,-0.517287 -1.589154,-0.744583 -2.681699,-0.779741 -1.088999,-0.03504 -1.873281,0.108861 -2.626194,0.48187 -0.441447,0.218703 -0.694065,0.401755 -1.047918,0.759344 -0.488631,0.493791 -0.798288,1.038004 -0.980397,1.723017 -0.131291,0.493861 -0.159342,0.731281 -0.158503,1.341555 6.45e-4,0.469549 0.01389,0.644587 0.07035,0.929559 0.07403,0.373621 0.240503,0.887963 0.371635,1.148185 0.383502,0.761028 1.085345,1.396154 1.868601,1.69097 0.36219,0.136328 0.707045,0.202243 1.305463,0.249524 0.611223,0.04829 0.851126,0.09611 1.109096,0.221053 0.186512,0.09034 0.46162,0.37374 0.544099,0.560508 0.12816,0.290208 0.09887,0.859649 -0.05926,1.152212 -0.106174,0.196436 -0.348338,0.41363 -0.584595,0.524316 -0.280132,0.131242 -0.564034,0.163325 -1.266396,0.143112 -1.094707,-0.0315 -1.948538,-0.226577 -2.83665,-0.648085 -1.95878,-0.92966 -3.177468,-2.761389 -3.41864,-5.138333 -0.04983,-0.491132 -0.02347,-1.672074 0.04756,-2.130686 0.37915,-2.44802 1.820328,-4.2561588 4.110811,-5.1575285 0.532421,-0.2095225 1.384351,-0.4278252 2.018749,-0.5172937 0.76576,-0.1079942 2.496831,-0.091813 3.205077,0.029959 1.676722,0.2882875 2.973941,0.8647643 3.983367,1.7701859 l 0.340524,0.3054383 -0.02192,5.52127 c -0.02229,5.61474 -0.04232,6.771291 -0.124659,7.200474 -0.106106,0.553045 -0.43674,1.349595 -0.758845,1.828177 -0.71787,1.066613 -1.853646,1.830473 -3.382199,2.27468 -0.449024,0.130489 -1.045882,0.252977 -1.443372,0.29621 -0.40917,0.0445 -1.974947,0.0955 -2.329543,0.07587 z"
     id="path6" /><path
     style="fill:#000e52;fill-opacity:1;stroke-width:0.0313183;stroke-dasharray:none;stroke:#003055;stroke-opacity:1"
     d="m 16.478786,27.326197 c -1.615777,-0.107081 -3.180966,-0.553553 -4.127582,-1.177399 -0.335598,-0.221168 -0.696771,-0.591066 -0.824836,-0.844762 -0.188704,-0.37382 -0.214019,-0.926168 -0.05805,-1.266529 0.09369,-0.204454 0.355317,-0.484043 0.542119,-0.579342 0.282731,-0.144239 0.872077,-0.170462 1.216367,-0.05412 0.08599,0.02906 0.430731,0.18393 0.766091,0.344164 0.638885,0.305255 1.108091,0.491338 1.57805,0.625842 1.55725,0.445691 3.545854,0.270609 4.72078,-0.41563 0.327085,-0.191039 0.803769,-0.658034 0.982902,-0.96292 0.204266,-0.347663 0.254697,-0.528139 0.286861,-1.026583 0.01562,-0.242098 0.03806,-2.664207 0.04987,-5.382464 l 0.02147,-4.942286 -0.278747,-0.174727 c -0.374211,-0.234567 -0.678266,-0.383337 -1.011945,-0.495129 -0.733049,-0.245594 -1.662332,-0.334746 -2.58132,-0.247642 -1.981012,0.187765 -3.376262,1.356871 -3.769983,3.158938 -0.270119,1.236337 -0.04964,2.6601 0.552499,3.567891 0.225299,0.33966 0.607834,0.721826 0.950099,0.949183 0.606004,0.402549 1.155908,0.572564 2.017233,0.623671 0.763459,0.0453 1.134286,0.167824 1.418975,0.468841 0.27752,0.293437 0.355675,0.581069 0.288137,1.060428 -0.04273,0.303244 -0.147723,0.506453 -0.361369,0.699378 -0.359552,0.32468 -0.677477,0.39926 -1.595412,0.374261 -1.302253,-0.03546 -2.384178,-0.33102 -3.37754,-0.92266 -0.572169,-0.340779 -1.24795,-0.950781 -1.647249,-1.486908 -0.602937,-0.809546 -1.024025,-1.856038 -1.203989,-2.992171 -0.08122,-0.512738 -0.08047,-1.982552 0.0013,-2.500409 0.307309,-1.946882 1.216731,-3.427424 2.735939,-4.4541171 0.975316,-0.6591265 2.21298,-1.0941769 3.569258,-1.2546275 0.509708,-0.0603 2.095479,-0.06892 2.595331,-0.014109 1.025788,0.1124828 2.310548,0.493199 3.126594,0.9265113 0.428449,0.2275025 0.928822,0.5776662 1.294816,0.9061207 l 0.3408,0.3058446 -0.02193,5.521022 c -0.02227,5.606107 -0.0425,6.769157 -0.125201,7.200226 -0.06951,0.362315 -0.248623,0.87179 -0.453985,1.291356 -0.604504,1.235032 -1.709349,2.139866 -3.279208,2.685571 -0.382509,0.132966 -1.09421,0.311398 -1.503863,0.377036 -0.556694,0.0892 -2.183081,0.151341 -2.833249,0.108253 z"
     id="path7" /><path
     id="path8"
     style="fill:#000e52;fill-opacity:1;stroke-width:0.0313183;stroke-dasharray:none;stroke:#003055;stroke-opacity:1"
     d="M 18.65625 7.9628906 C 18.432854 7.9625539 18.213025 7.9660946 18.007812 7.9746094 C 14.726604 8.1107538 12.218901 9.7983616 11.339844 12.460938 C 11.049221 13.341205 10.975365 13.862809 10.976562 15.025391 C 10.977422 15.829843 10.985348 15.976046 11.048828 16.332031 C 11.309098 17.791534 11.861927 18.915142 12.771484 19.828125 C 13.690504 20.750606 14.810922 21.304888 16.244141 21.546875 C 16.741898 21.630915 17.779553 21.664042 18.115234 21.607422 C 18.546528 21.534674 18.944787 21.263714 19.117188 20.925781 C 19.259967 20.645902 19.278196 20.088686 19.154297 19.808594 C 19.062343 19.600717 18.799131 19.337478 18.576172 19.232422 C 18.324118 19.113657 18.144516 19.080151 17.5 19.025391 C 16.710126 18.958284 16.383507 18.877548 15.888672 18.630859 C 15.521165 18.447651 15.28986 18.280718 14.990234 17.982422 C 14.685079 17.678619 14.408117 17.275802 14.253906 16.910156 C 13.626814 15.423263 13.795348 13.543491 14.660156 12.369141 C 15.522494 11.198144 16.912081 10.630678 18.730469 10.705078 C 19.769705 10.747601 20.493938 10.949515 21.259766 11.414062 L 21.607422 11.625 L 21.607422 12.171875 L 21.603516 12.171875 L 21.603516 15.207031 L 21.603516 15.289062 C 21.603445 16.39757 21.601779 17.18294 21.599609 17.9375 C 21.591007 19.755019 21.576206 21.230578 21.556641 21.902344 C 21.555615 21.929353 21.553838 21.961832 21.552734 21.996094 C 21.55105 22.032827 21.550704 22.070683 21.548828 22.101562 C 21.542783 22.204864 21.535515 22.284992 21.527344 22.339844 L 21.523438 22.373047 C 21.380287 23.038892 20.817496 23.697439 20.060547 24.076172 C 19.582058 24.315579 18.904517 24.500852 18.230469 24.576172 C 17.824562 24.621532 16.907561 24.61417 16.525391 24.5625 C 15.644498 24.443405 15.052904 24.251685 13.925781 23.714844 C 13.258038 23.396805 13.038097 23.328085 12.679688 23.328125 C 12.093834 23.32819 11.686241 23.567467 11.464844 24.044922 C 11.311598 24.375414 11.339856 24.933275 11.527344 25.304688 C 11.643238 25.534269 12.020374 25.932948 12.296875 26.117188 C 13.265858 26.762848 14.81423 27.211689 16.478516 27.328125 C 17.10576 27.372008 18.797537 27.305367 19.324219 27.216797 C 19.737866 27.147238 20.44919 26.96953 20.810547 26.84375 C 22.391107 26.293594 23.491063 25.392587 24.09375 24.15625 C 24.309858 23.712932 24.476492 23.241894 24.544922 22.882812 C 24.565918 22.772632 24.58361 22.614888 24.597656 22.373047 L 24.619141 22.373047 L 24.623047 22.304688 C 24.634687 22.143427 24.643488 21.910957 24.650391 21.544922 C 24.650408 21.544008 24.650373 21.541931 24.650391 21.541016 C 24.657533 21.174278 24.663446 20.669417 24.667969 19.980469 C 24.667984 19.978137 24.667953 19.967212 24.667969 19.964844 C 24.675193 18.852159 24.69157 13.716266 24.691406 12.630859 L 24.691406 12.560547 L 24.691406 12.171875 L 24.667969 12.171875 L 24.671875 10.119141 L 24.34375 9.8261719 C 23.339983 8.9286813 22.034543 8.3489348 20.386719 8.0664062 C 20.019761 8.003489 19.326437 7.9639009 18.65625 7.9628906 z " /><path
     style="fill:#000e52;fill-opacity:1;stroke:#003055;stroke-width:0.0313183;stroke-dasharray:none;stroke-opacity:1"
     d="m 16.541324,27.858582 c -1.832113,-0.131538 -3.471691,-0.590934 -4.470756,-1.252669 -0.500188,-0.331301 -0.951327,-0.846299 -1.111201,-1.268492 -0.292922,-0.773542 -0.117472,-1.58726 0.451597,-2.094463 0.341994,-0.304814 0.76591,-0.456944 1.268633,-0.455271 0.471609,0.0016 0.806091,0.104658 1.407107,0.433672 0.846319,0.4633 1.738421,0.751134 2.657655,0.857483 0.454295,0.05256 1.380068,0.02242 1.848547,-0.06019 1.147472,-0.202325 1.948951,-0.689507 2.295786,-1.395501 0.234756,-0.477854 0.216183,-0.01411 0.226103,-5.645484 l 0.0089,-5.051373 -0.243062,-0.142628 c -0.466579,-0.273789 -0.990979,-0.444697 -1.67194,-0.544906 -0.425611,-0.06263 -1.32762,-0.04694 -1.741532,0.0303 -1.486135,0.277321 -2.476936,1.086137 -2.877051,2.348607 -0.150866,0.476021 -0.175079,0.666294 -0.175079,1.375838 0,0.70913 0.02479,0.903186 0.174353,1.365032 0.179145,0.553177 0.430167,0.958425 0.830511,1.340769 0.564007,0.538647 1.136735,0.756021 2.139856,0.812163 0.638853,0.03575 0.930434,0.09876 1.295485,0.279931 0.602165,0.29885 0.922437,0.830072 0.922437,1.530014 0,0.862831 -0.493017,1.505033 -1.349615,1.758003 -0.35101,0.103661 -1.272758,0.118744 -1.94927,0.0319 -2.969873,-0.381252 -5.097009,-2.211106 -5.799785,-4.989225 -0.174293,-0.688991 -0.225694,-1.088222 -0.243117,-1.888302 -0.02234,-1.025798 0.059,-1.742577 0.291626,-2.569827 0.800786,-2.847729 3.068083,-4.68015 6.361023,-5.1409546 0.890098,-0.1245578 2.001769,-0.1371835 2.900128,-0.032938 2.063811,0.2394849 3.733498,0.9669592 4.925767,2.1461313 l 0.274421,0.2714065 -0.0094,6.2170618 -0.0094,6.217062 -0.06902,0.375229 c -0.133658,0.726643 -0.314507,1.274692 -0.593307,1.79797 -0.990518,1.859092 -2.986687,3.005063 -5.746332,3.298885 -0.559145,0.05953 -1.695329,0.08244 -2.220103,0.04477 z m 1.789101,-0.561588 c 0.704738,-0.04075 1.104354,-0.09696 1.669531,-0.234846 0.704123,-0.171785 1.191162,-0.345089 1.730082,-0.615618 1.09261,-0.548473 1.917331,-1.366793 2.390326,-2.371775 0.374305,-0.795294 0.486362,-1.315178 0.518443,-2.405307 0.03263,-1.108838 0.05441,-7.656694 0.03187,-9.582814 L 24.647421,10.099261 24.299755,9.8013535 C 23.334823,8.9745247 22.196789,8.4412781 20.771615,8.148179 20.116486,8.0134464 19.82745,7.9916077 18.683254,7.9903894 c -1.156343,-0.00123 -1.485707,0.026365 -2.235737,0.1873237 -2.710204,0.5816184 -4.580883,2.2743659 -5.234263,4.7364019 -0.188078,0.708708 -0.204456,0.876887 -0.205551,2.110661 -9.4e-4,1.059216 0.0032,1.145072 0.07067,1.45401 0.271333,1.243065 0.66916,2.128585 1.308551,2.912691 0.405157,0.496857 1.069441,1.060663 1.62961,1.38312 0.506584,0.291611 1.218178,0.556877 1.847063,0.688542 0.547351,0.114594 0.926251,0.151273 1.600167,0.154902 0.646218,0.0035 0.80974,-0.02225 1.107716,-0.174261 0.193185,-0.09856 0.471471,-0.382573 0.554303,-0.565719 0.06495,-0.143605 0.07341,-0.209185 0.07341,-0.568817 0,-0.457666 -0.02955,-0.548991 -0.251399,-0.776925 -0.277067,-0.284668 -0.540232,-0.400236 -1.040468,-0.45692 -0.149372,-0.01693 -0.472434,-0.05284 -0.717917,-0.0798 -0.557313,-0.06121 -0.891716,-0.157015 -1.329244,-0.380816 -0.567546,-0.290307 -0.971054,-0.655055 -1.337066,-1.208632 -0.682016,-1.031518 -0.845948,-2.694902 -0.394938,-4.007369 0.406584,-1.183184 1.291467,-2.041531 2.519282,-2.443734 1.077236,-0.352876 2.678847,-0.341147 3.723414,0.02727 0.312094,0.110074 0.528125,0.214415 0.946781,0.457286 l 0.30484,0.176844 -0.0055,2.892387 c -0.0076,4.021727 -0.04619,7.609862 -0.0841,7.823434 -0.0658,0.370741 -0.268263,0.743221 -0.597023,1.098392 -0.567675,0.613278 -1.493792,1.007017 -2.704453,1.149798 -0.415163,0.04896 -1.593731,0.01948 -1.971524,-0.04932 -0.772323,-0.140646 -1.221247,-0.296287 -2.344375,-0.812787 -0.797511,-0.366757 -1.053551,-0.429075 -1.489635,-0.362559 -0.73687,0.112393 -1.147665,0.700044 -1.031047,1.474935 0.057,0.378769 0.196232,0.6208 0.556934,0.968157 0.195252,0.188028 0.402103,0.351088 0.570002,0.449328 0.853956,0.499662 2.131537,0.877356 3.487969,1.031154 0.461078,0.05228 1.574977,0.06074 2.320674,0.01762 z"
     id="path9" /></svg>
