<?xml version="1.0" encoding="UTF-8" standalone="no"?>
<svg
   xml:space="preserve"
   style="enable-background:new 0 0 35.6 35.2"
   viewBox="0 0 35.6 35.2"
   version="1.1"
   id="svg2"
   sodipodi:docname="favicon.svg"
   inkscape:version="1.3.2 (091e20e, 2023-11-25, custom)"
   xmlns:inkscape="http://www.inkscape.org/namespaces/inkscape"
   xmlns:sodipodi="http://sodipodi.sourceforge.net/DTD/sodipodi-0.dtd"
   xmlns="http://www.w3.org/2000/svg"
   xmlns:svg="http://www.w3.org/2000/svg"><defs
     id="defs2" /><sodipodi:namedview
     id="namedview2"
     pagecolor="#ffffff"
     bordercolor="#111111"
     borderopacity="1"
     inkscape:showpageshadow="0"
     inkscape:pageopacity="0"
     inkscape:pagecheckerboard="1"
     inkscape:deskcolor="#d1d1d1"
     showgrid="false"
     inkscape:zoom="22.613636"
     inkscape:cx="17.1799"
     inkscape:cy="18.705528"
     inkscape:window-width="1920"
     inkscape:window-height="992"
     inkscape:window-x="-8"
     inkscape:window-y="-8"
     inkscape:window-maximized="1"
     inkscape:current-layer="svg2" /><path
     d="M 31.251778,4.9033758 C 27.93106,1.9013444 22.852314,1.2342265 19.531595,1.2342265 c -9.5714802,0 -15.2362348,4.6698259 -15.2362348,11.8413435 0,6.837959 5.2740812,11.174226 13.0875368,11.174226 2.148698,0 3.320717,-0.833898 3.320717,-2.334914 0,-1.334236 -1.172019,-2.168132 -3.320717,-2.168132 -4.2974,0 -7.227445,-2.668474 -7.227445,-6.67118 0,-4.3362672 3.320718,-7.1715176 8.985471,-7.1715176 1.953363,0 4.492736,0.5003381 6.055427,1.6677949 V 24.083017 c 0,3.502369 -3.711391,5.003382 -8.204126,5.003382 -4.102063,0 -7.0321092,-1.667793 -7.4227826,-1.834572 -2.3440357,-1.000678 -4.4927358,0 -4.4927358,1.834572 0,3.168813 6.6414364,4.669826 11.9155184,4.669826 8.00879,0 14.259554,-3.002031 14.259554,-9.673208 z"
     style="fill:#000e52;fill-opacity:1;stroke:#003055;stroke-width:1.80494;stroke-opacity:1"
     id="path2" /><path
     style="fill:#000e52;fill-opacity:1;stroke:#003055;stroke-width:0.0799419;stroke-dasharray:none;stroke-opacity:1"
     d="m 15.18021,33.667102 c -0.16629,-0.01667 -0.691041,-0.06591 -1.16613,-0.109406 -3.433295,-0.31428 -6.6567777,-1.36592 -7.9493912,-2.593435 -0.6236798,-0.592269 -0.8406575,-1.016784 -0.8870455,-1.735483 -0.04806,-0.744412 0.1056564,-1.147792 0.618326,-1.622653 0.5077278,-0.470292 0.9165983,-0.625841 1.7475101,-0.664806 0.9028251,-0.04233 1.3866847,0.07805 2.7412176,0.682019 2.630408,1.172869 5.235954,1.649724 7.917924,1.449102 3.32087,-0.248412 5.517369,-1.239185 6.513535,-2.938048 0.495564,-0.845127 0.481457,-0.553644 0.482846,-9.97692 L 25.200302,7.4910578 24.66043,7.1803703 C 23.187503,6.3327444 21.31681,5.9065684 19.069072,5.9065684 c -1.407739,0 -2.425288,0.1202279 -3.492484,0.4126432 -2.635145,0.7220469 -4.478064,2.3645948 -5.141233,4.5822574 -0.6844473,2.288812 -0.23478,4.808382 1.154898,6.471137 1.230837,1.472703 3.384596,2.392323 5.619879,2.3996 0.806659,0.0027 1.698562,0.148866 2.175818,0.356741 0.482588,0.210205 1.033583,0.749674 1.153878,1.129734 0.146952,0.464289 0.06475,1.359696 -0.158906,1.730869 -0.251282,0.417017 -0.867253,0.860784 -1.41726,1.021044 -1.060581,0.309032 -3.56445,0.208676 -5.545998,-0.222283 C 8.1336596,22.639115 4.7422593,18.960287 4.3948808,14.00082 3.9505639,7.6573802 7.8263638,3.0934011 14.834681,1.7073508 c 1.514866,-0.2995984 2.651635,-0.3998041 4.578133,-0.4035601 1.040418,-0.00203 2.218058,0.037592 2.677777,0.090092 3.574937,0.4082477 6.590788,1.4919751 8.531024,3.0655714 L 31.25525,4.9733516 31.222282,15.15675 c -0.03607,11.139993 -0.009,10.543889 -0.544778,12.00177 -1.268592,3.451854 -4.82402,5.647295 -10.314522,6.369114 -0.866009,0.113839 -4.471234,0.210866 -5.182794,0.139463 z"
     id="path3" /><path
     style="fill:#000e52;fill-opacity:1;stroke:#003055;stroke-width:0.0799419;stroke-dasharray:none;stroke-opacity:1"
     d="M 14.618743,33.592999 C 14.476223,33.574756 13.932019,33.509404 13.40942,33.447735 9.9487809,33.039506 6.978385,31.942081 5.8324595,30.648395 5.3950177,30.154544 5.2465213,29.746387 5.2465213,29.037878 c 0,-0.728191 0.180861,-1.086983 0.7796359,-1.546629 0.5369564,-0.412194 0.9763889,-0.519152 1.9668047,-0.478722 0.748714,0.03057 0.7925911,0.04302 2.2315771,0.633379 2.516413,1.032391 4.101969,1.399663 6.337751,1.468056 2.650635,0.08107 5.098461,-0.424717 6.581055,-1.359853 1.0788,-0.680448 1.826612,-1.672123 1.969519,-2.611784 0.04763,-0.313152 0.08319,-4.146994 0.08476,-9.133247 l 0.0027,-8.5935467 -0.583065,-0.3039921 C 23.441919,6.4987443 22.539153,6.2132853 21.148789,6.0147891 19.81124,5.8238309 17.259617,5.8916361 16.120184,6.1484292 c -3.820809,0.8610572 -6.03563,3.397493 -6.03563,6.9120558 0,2.842129 1.463841,5.076849 4.009259,6.120585 0.933719,0.382867 1.57439,0.512554 3.116387,0.630838 0.712634,0.05468 1.490054,0.150036 1.7276,0.211949 0.524407,0.136677 1.020355,0.474224 1.351229,0.919685 0.218069,0.293588 0.246798,0.400418 0.246798,0.917722 0,0.321999 -0.04571,0.715727 -0.101597,0.874946 -0.144235,0.411028 -0.685806,0.90163 -1.261969,1.143202 -0.492081,0.206316 -0.49898,0.206947 -2.221211,0.203205 -1.535242,-0.0033 -1.849272,-0.02579 -2.820365,-0.20176 C 11.327836,23.372982 9.2463473,22.368639 7.4842918,20.673885 4.9391355,18.225946 3.8795803,14.473985 4.648397,10.631791 5.811101,4.8211394 11.380842,1.3340843 19.499268,1.3340843 c 1.595982,0 2.861676,0.1031681 4.178928,0.3406306 2.876949,0.518629 5.34667,1.5359249 6.913606,2.8477623 l 0.640166,0.5359461 -0.07134,10.2514907 c -0.0781,11.222991 -0.05115,10.685752 -0.603832,12.021533 -1.360031,3.286944 -4.781832,5.395675 -9.93458,6.122326 -0.79717,0.112422 -5.382185,0.218751 -6.003402,0.139227 z"
     id="path4" /><path
     style="fill:#000e52;fill-opacity:1;stroke:#003055;stroke-width:0.0565277;stroke-dasharray:none;stroke-opacity:1"
     d="M 15.223298,33.636006 C 11.870526,33.422307 8.8122492,32.662693 6.9943034,31.59209 6.4228819,31.255574 5.7459878,30.644709 5.5188839,30.260587 5.153683,29.642895 5.1010614,28.715485 5.3996507,28.159183 c 0.180198,-0.335727 0.7102669,-0.822702 1.0625146,-0.976134 0.5843525,-0.254532 1.7108688,-0.284267 2.4499203,-0.06465 0.207366,0.0616 0.8257979,0.300724 1.3742964,0.531355 2.183595,0.918149 3.781511,1.318974 5.792037,1.452895 2.296002,0.152937 4.959999,-0.275927 6.502445,-1.046793 1.080712,-0.540108 1.967299,-1.395642 2.34903,-2.266751 0.24126,-0.550558 0.25383,-0.971546 0.291976,-9.779157 L 25.25881,7.4820561 24.776236,7.2120755 C 23.14759,6.3009208 21.38518,5.8941622 19.071333,5.8954071 c -1.932355,0.00103 -3.317803,0.2418897 -4.688867,0.8151346 -2.232954,0.9336034 -3.661222,2.6172121 -4.151761,4.8939943 -0.127202,0.590371 -0.14236,2.22117 -0.02596,2.790046 0.42857,2.094325 1.487554,3.541659 3.289955,4.496448 0.998027,0.528687 2.037795,0.796843 3.408295,0.879004 1.851775,0.111007 2.419843,0.25394 3.009853,0.757287 0.210882,0.179907 0.435679,0.42837 0.499545,0.552143 0.254177,0.492585 0.211114,1.36745 -0.09374,1.904416 -0.302318,0.532494 -1.107777,0.997493 -1.919201,1.107972 -0.218361,0.02973 -0.795732,0.05422 -1.283049,0.05445 -2.129533,9.45e-4 -4.208164,-0.381031 -5.972278,-1.097493 C 7.5412477,21.585578 5.238042,18.81523 4.5561838,15.124687 4.3956373,14.255753 4.3954607,11.865937 4.5558598,10.978736 5.3040745,6.8403553 8.0941201,3.8362717 12.593166,2.3248531 c 1.23753,-0.4157385 3.150927,-0.8017614 4.55415,-0.918788 1.084007,-0.090406 4.105696,-0.073205 5.008542,0.028506 3.439288,0.3874626 6.358934,1.4389987 8.421708,3.0331522 l 0.664567,0.5135927 -0.04225,9.152451 c -0.04307,9.331029 -0.08361,11.354343 -0.241295,12.046792 -0.213612,0.937951 -0.854337,2.261694 -1.476666,3.050796 -1.640727,2.080417 -4.373054,3.464977 -8.120107,4.114722 -1.197002,0.207561 -1.528144,0.229253 -4.764227,0.312059 -0.403124,0.01036 -1.021557,3.61e-4 -1.374295,-0.02213 z"
     id="path5" /><path
     style="fill:#000e52;fill-opacity:1;stroke:#003055;stroke-width:0.0565277;stroke-dasharray:none;stroke-opacity:1"
     d="m 15.498156,33.654362 c -0.796507,-0.03764 -2.552749,-0.2343 -3.36216,-0.376483 C 10.047508,32.911011 8.2063802,32.308087 6.9997367,31.595884 6.4227078,31.255299 5.7464802,30.645543 5.5188839,30.260587 5.153683,29.642895 5.1010614,28.715485 5.3996507,28.159183 c 0.180198,-0.335727 0.7102669,-0.822702 1.0625146,-0.976134 0.5834587,-0.25414 1.7109922,-0.284249 2.447533,-0.06535 0.2060509,0.06122 0.7969982,0.288468 1.3132177,0.504959 2.286409,0.958875 3.873849,1.353675 5.953044,1.480542 2.119613,0.129332 4.692904,-0.258689 6.1326,-0.924725 1.396175,-0.645901 2.414356,-1.650132 2.725245,-2.687911 0.127203,-0.424636 0.183188,-3.842577 0.197617,-12.068378 L 25.241797,7.4694331 24.767688,7.2100977 C 23.190484,6.3473712 21.663501,5.9682881 19.529363,5.9096512 17.402151,5.8512091 15.870163,6.0912091 14.399451,6.7133115 13.537144,7.078063 13.043689,7.3833566 12.352485,7.9797419 11.398012,8.803284 10.793139,9.71092 10.437413,10.85338 c -0.256458,0.823658 -0.311253,1.219626 -0.309614,2.237439 0.0013,0.783113 0.02714,1.075039 0.13742,1.550314 0.144608,0.623123 0.469791,1.48094 0.725938,1.914938 0.749121,1.269237 2.120075,2.328497 3.650059,2.820191 0.707488,0.227366 1.381114,0.337298 2.550044,0.416153 1.193938,0.08054 1.662557,0.160292 2.166466,0.368673 0.364326,0.150667 0.901712,0.62332 1.062824,0.934812 0.250342,0.484007 0.193129,1.433718 -0.115758,1.921654 -0.207394,0.327613 -0.68043,0.689849 -1.141925,0.87445 -0.5472,0.218885 -1.101763,0.272392 -2.473732,0.23868 -2.138359,-0.05253 -3.806203,-0.377883 -5.541009,-1.080871 -3.8262133,-1.550486 -6.2067542,-4.605435 -6.6778511,-8.56969 -0.097341,-0.819107 -0.045845,-2.788676 0.0929,-3.553546 0.7406179,-4.0827966 3.5557631,-7.0984005 8.0299101,-8.6017003 1.04001,-0.3494404 2.70414,-0.7135245 3.94335,-0.8627396 1.495808,-0.1801124 4.87722,-0.1531255 6.260681,0.049966 3.275248,0.4808045 5.80919,1.4422495 7.780965,2.9523069 l 0.665166,0.5094081 -0.04281,9.2083429 c -0.04354,9.364239 -0.08267,11.293127 -0.243505,12.008916 -0.207263,0.922365 -0.853112,2.250849 -1.482301,3.049024 -1.40226,1.778893 -3.620843,3.052853 -6.606663,3.793699 -0.877106,0.217629 -2.042988,0.421914 -2.819429,0.494016 -0.79926,0.07421 -3.857792,0.159277 -4.550446,0.12654 z"
     id="path6" /><path
     style="fill:#000e52;fill-opacity:1;stroke:#003055;stroke-width:0.0565277;stroke-dasharray:none;stroke-opacity:1"
     d="M 15.192757,33.633137 C 12.036558,33.454547 8.9791746,32.709925 7.130089,31.669479 6.474544,31.300615 5.7690416,30.6837 5.5188839,30.260587 5.1502772,29.637132 5.1008273,28.71593 5.4054888,28.148277 c 0.183011,-0.340986 0.6940639,-0.807285 1.0589556,-0.966223 0.5522772,-0.240561 1.703484,-0.284295 2.3760071,-0.09027 0.1679703,0.04846 0.8413746,0.306756 1.4964555,0.573994 1.247974,0.509102 2.164504,0.819451 3.082504,1.043776 3.041876,0.743325 6.926342,0.451321 9.2214,-0.693185 0.638916,-0.318613 1.570054,-1.097467 1.919966,-1.605953 0.399006,-0.579832 0.497513,-0.880826 0.560343,-1.71213 0.03052,-0.403771 0.07434,-4.443352 0.09741,-8.976846 L 25.260463,7.4787304 24.715967,7.1873212 C 23.985001,6.7961065 23.39107,6.5479897 22.739273,6.3615428 c -1.43191,-0.4096 -3.247138,-0.5582877 -5.042255,-0.413016 -3.869637,0.3131539 -6.595067,2.2629828 -7.364148,5.2684612 -0.5276402,2.061957 -0.09696,4.4365 1.079231,5.950508 0.440093,0.566485 1.187322,1.20386 1.855889,1.583043 1.183746,0.671371 2.25791,0.954922 3.94039,1.040156 1.491311,0.07553 2.215673,0.279897 2.771774,0.781931 0.542098,0.489392 0.694763,0.969103 0.562838,1.768576 -0.08347,0.505749 -0.288559,0.84466 -0.705886,1.16642 -0.702336,0.541499 -1.323359,0.665883 -3.116419,0.62419 -2.543776,-0.05914 -4.657168,-0.552074 -6.597565,-1.538808 C 9.0054682,22.024655 7.6854215,21.007296 6.9054453,20.113147 5.7276902,18.762991 4.9051528,17.017656 4.5536177,15.122821 4.3949649,14.267678 4.3964297,11.816329 4.5561549,10.95265 5.1564418,7.7056512 6.9328736,5.2364103 9.9004394,3.5240968 11.805585,2.4248091 14.223193,1.6992342 16.8725,1.4316355 c 0.995643,-0.1005676 4.09323,-0.1149438 5.069623,-0.023531 2.003737,0.1875979 4.513342,0.8225547 6.107375,1.5452307 0.836916,0.3794273 1.814327,0.9634295 2.529247,1.511224 l 0.665706,0.5100864 -0.04284,9.2079284 c -0.04351,9.349839 -0.08301,11.289567 -0.244561,12.008501 -0.135778,0.60427 -0.485652,1.45397 -0.886798,2.153718 -1.180815,2.059782 -3.338981,3.568859 -6.405488,4.478983 -0.747179,0.221759 -2.13739,0.519347 -2.937588,0.628818 -1.087429,0.148768 -4.264352,0.252406 -5.534368,0.180544 z"
     id="path7" /><path
     id="path8"
     style="fill:#000e52;fill-opacity:1;stroke:#003055;stroke-width:0.0565277;stroke-dasharray:none;stroke-opacity:1"
     d="m 19.446136,1.3391153 c -0.436374,-5.617e-4 -0.865779,0.00534 -1.266634,0.019545 C 11.770107,1.5857209 6.8716529,4.4003037 5.1545354,8.8409358 4.5868427,10.30904 4.4425753,11.178969 4.4449132,13.117918 c 0.00173,1.34166 0.017161,1.585495 0.1411614,2.179207 0.5084025,2.43415 1.5882782,4.308097 3.3649742,5.830768 1.7951802,1.538507 3.9837642,2.462935 6.7833592,2.866521 0.972304,0.140162 2.99922,0.195412 3.654928,0.100984 0.842474,-0.12133 1.620418,-0.573237 1.957181,-1.136838 0.278899,-0.466781 0.314505,-1.396103 0.07248,-1.863239 -0.179619,-0.346696 -0.693769,-0.785725 -1.129289,-0.960937 -0.492352,-0.198076 -0.84318,-0.253957 -2.102155,-0.345283 -1.542913,-0.111923 -2.180919,-0.24657 -3.147512,-0.657998 -0.717873,-0.305552 -1.169696,-0.583963 -1.754975,-1.081459 -0.596074,-0.50668 -1.137082,-1.178497 -1.438313,-1.788319 -1.2249388,-2.479833 -0.8957301,-5.614906 0.793554,-7.5734827 1.68446,-1.9529824 4.39883,-2.8993996 7.9508,-2.7753149 2.030007,0.070916 3.444699,0.4076702 4.940639,1.182439 l 0.679098,0.3518015 v 0.9120763 h -0.0076 v 5.0620168 0.136811 c -1.39e-4,1.848764 -0.0034,3.158599 -0.0076,4.417052 -0.01681,3.031248 -0.04573,5.492178 -0.08393,6.612545 -0.002,0.04504 -0.0054,0.09921 -0.0076,0.156356 -0.0034,0.06126 -0.004,0.1244 -0.0076,0.175898 -0.01181,0.172287 -0.026,0.305925 -0.04197,0.397407 l -0.0076,0.05536 c -0.279626,1.110492 -1.378961,2.208814 -2.857559,2.840462 -0.934662,0.399282 -2.258145,0.70828 -3.574809,0.833897 -0.792882,0.07566 -2.584118,0.06337 -3.330636,-0.02279 C 13.563493,28.82523 12.407895,28.505478 10.206214,27.610138 8.9018699,27.079717 8.4722443,26.965104 7.7721415,26.965171 6.6277557,26.965279 5.8315787,27.364345 5.399109,28.16064 c -0.2993448,0.551195 -0.2441466,1.481592 0.1220853,2.101032 0.2263829,0.382896 0.9630667,1.047809 1.5031741,1.355085 1.892776,1.076828 4.9173086,1.825402 8.1682666,2.019594 1.225236,0.07317 4.52989,-0.03795 5.558692,-0.185673 0.808002,-0.116004 2.197476,-0.412391 2.903339,-0.622166 3.087408,-0.917548 5.236021,-2.420244 6.413289,-4.482198 0.422139,-0.739364 0.747634,-1.524957 0.881303,-2.123834 0.04102,-0.183757 0.07556,-0.446841 0.103004,-0.850182 h 0.04197 l 0.0076,-0.11401 c 0.02274,-0.268951 0.03992,-0.656664 0.05341,-1.267134 3.3e-5,-0.0016 -3.6e-5,-0.0051 0,-0.0066 0.01397,-0.611645 0.0255,-1.45365 0.03433,-2.602674 3e-5,-0.0039 -3.1e-5,-0.0221 0,-0.02605 0.0141,-1.855731 0.04611,-10.421348 0.04578,-12.2315834 V 9.0070286 8.3588041 H 31.18953 L 31.197086,4.9352648 30.55614,4.4466515 C 28.595171,2.949856 26.045172,1.9829577 22.826373,1.511758 22.109569,1.4068251 20.755254,1.3408002 19.446136,1.3391153 Z" /><path
     style="fill:#000e52;fill-opacity:1;stroke:#003055;stroke-width:0.0565277;stroke-dasharray:none;stroke-opacity:1"
     d="M 15.314917,34.521047 C 11.736133,34.301669 8.5334416,33.53549 6.581905,32.431852 5.604855,31.87931 4.7236169,31.0204 4.4113248,30.316267 3.8391424,29.026159 4.181859,27.669042 5.2934582,26.823133 c 0.6680389,-0.508367 1.4961007,-0.76209 2.4781018,-0.7593 0.921224,0.0027 1.5745883,0.17455 2.748592,0.723277 1.653168,0.772688 3.395768,1.252737 5.191366,1.430107 0.887404,0.08765 2.695774,0.03738 3.610884,-0.100383 2.241431,-0.337438 3.807011,-1.149959 4.484506,-2.327411 0.458564,-0.796961 0.422283,-0.02353 0.441662,-9.415507 L 24.265953,7.9492633 23.791165,7.7113889 C 22.879762,7.2547644 21.855417,6.9697252 20.525255,6.8025973 19.69388,6.6981374 17.931929,6.7243081 17.123409,6.853128 c -2.902963,0.4625147 -4.838358,1.8114534 -5.619928,3.916995 -0.294696,0.793906 -0.341992,1.111241 -0.341992,2.294616 0,1.182683 0.04843,1.506328 0.340574,2.276593 0.349937,0.922587 0.840273,1.598455 1.622291,2.236128 1.10171,0.898352 2.220456,1.260886 4.179917,1.35452 1.247911,0.05961 1.817476,0.164713 2.530552,0.466868 1.176247,0.498422 1.801857,1.384389 1.801857,2.551749 0,1.439025 -0.963042,2.510087 -2.63629,2.931989 -0.68565,0.172885 -2.48616,0.198039 -3.807635,0.0532 C 9.3915142,24.299942 5.2364447,21.248122 3.8636678,16.61479 3.5232104,15.465693 3.4228053,14.799859 3.3887718,13.465489 3.34513,11.754667 3.5040235,10.559228 3.958424,9.1795441 5.5226494,4.4301174 9.9515052,1.3740148 16.383815,0.60548725 18.1225,0.39775037 20.293998,0.37669324 22.048819,0.55055371 c 4.031373,0.3994116 7.292879,1.61268949 9.621814,3.57930609 l 0.536044,0.4526513 -0.01836,10.3687819 -0.01836,10.368785 -0.134821,0.625805 c -0.261082,1.211892 -0.614347,2.125925 -1.158943,2.998645 -1.934844,3.100584 -5.834087,5.011827 -11.224676,5.501861 -1.092214,0.09929 -3.311594,0.137496 -4.33667,0.07466 z m 3.494765,-0.936616 c 1.376609,-0.06796 2.157205,-0.161708 3.261201,-0.391674 1.375408,-0.286502 2.326771,-0.575536 3.379479,-1.026724 2.134264,-0.91474 3.745245,-2.27953 4.669177,-3.955634 0.731153,-1.326388 0.95004,-2.193446 1.012706,-4.011558 0.06374,-1.849314 0.10628,-12.769793 0.06226,-15.9821682 L 31.149065,4.9021427 30.469946,4.405294 C 28.585092,3.0263134 26.362095,2.1369674 23.578213,1.6481383 22.298508,1.4234319 21.733915,1.3870095 19.498884,1.3849776 17.240127,1.382931 16.596758,1.4289497 15.131676,1.6973949 9.8376638,2.6674154 6.1835471,5.4905706 4.9072587,9.5967422 4.5398734,10.778721 4.5078813,11.05921 4.5057431,13.116892 c -0.00184,1.766553 0.00623,1.909744 0.1380439,2.42499 0.5300124,2.073175 1.3071134,3.550045 2.5560761,4.857771 0.7914194,0.828654 2.0890074,1.768967 3.1832219,2.306758 0.989541,0.486348 2.379544,0.928759 3.607984,1.148348 1.069177,0.19112 1.809305,0.252294 3.125709,0.258347 1.262299,0.0058 1.581716,-0.03711 2.163771,-0.290634 0.37736,-0.164376 0.920957,-0.638053 1.082757,-0.943503 0.126869,-0.239502 0.143397,-0.348876 0.143397,-0.948669 0,-0.763293 -0.05772,-0.915605 -0.491076,-1.295753 -0.541211,-0.474767 -1.055268,-0.667511 -2.032411,-0.762049 -0.291779,-0.02822 -0.922835,-0.08812 -1.402354,-0.133089 -1.088635,-0.10208 -1.741846,-0.261869 -2.596497,-0.635123 -1.108621,-0.484172 -1.896821,-1.092497 -2.611775,-2.01575 -1.332226,-1.72036 -1.6524446,-4.494543 -0.771457,-6.683469 0.794206,-1.9733089 2.522704,-3.4048551 4.921073,-4.0756468 2.104235,-0.5885249 5.232761,-0.5689632 7.27318,0.045481 0.609635,0.1835809 1.031621,0.3575996 1.849408,0.7626594 l 0.595465,0.2949395 -0.01073,4.8239079 c -0.01483,6.707414 -0.09022,12.691689 -0.164279,13.047881 -0.128531,0.618322 -0.524014,1.239542 -1.166205,1.831893 -1.108873,1.022822 -2.917918,1.679498 -5.282777,1.917628 -0.810966,0.08166 -3.113136,0.03248 -3.851103,-0.08225 C 13.256537,28.736995 12.379626,28.477415 10.185748,27.616 8.6279183,27.004326 8.1277793,26.900392 7.2759486,27.011327 c -1.4393756,0.187448 -2.241807,1.167529 -2.0140102,2.45989 0.1113422,0.631708 0.3833129,1.035365 1.0878947,1.614686 0.3813982,0.313593 0.7854535,0.585544 1.1134216,0.749387 1.668086,0.833333 4.1636663,1.46325 6.8132703,1.719755 0.900655,0.08719 3.076503,0.101293 4.533121,0.02937 z"
     id="path9" /></svg>
