<?xml version="1.0" encoding="utf-8"?>
<!-- Generator: Adobe Illustrator 25.4.1, SVG Export Plug-In . SVG Version: 6.00 Build 0)  -->
<svg version="1.0" id="Ebene_1" xmlns="http://www.w3.org/2000/svg" xmlns:xlink="http://www.w3.org/1999/xlink" x="0px" y="0px"
	 viewBox="0 0 843.3 419.9" width="843.3" height="419.9" enable-background="new 0 0 843.3 419.9" xml:space="preserve">
<g>
	<path fill="#FECB2E" d="M808.9,419.3c26.1-3.8,41.9-32.4,30.8-56.3c-7.4-16-20.4-24.1-38.2-24.1c-133.8,0-267.5,0-401.3,0
		c-132.9,0-265.8,0-398.6,0c-0.5,0-1.1,0-1.6,0v81c267.3,0,534.7,0,802,0C804.3,419.8,806.6,419.6,808.9,419.3z"/>
	<path fill="#DD0A17" d="M602.2,251.2c11.9,0,23.8,0.4,35.7-0.1c17.5-0.7,30.1-9.3,37.1-25.4c6.5-15.1,2.9-32.5-8.6-44.1
		c-9.2-9.3-20.5-12.6-33.2-12.6C423.8,169,214.5,169,5.2,169c-1.7,0-3.5,0-5.2,0.1v82.1c105.9,0,211.7,0,317.6,0
		C412.5,251.2,507.3,251.2,602.2,251.2z"/>
	<path d="M512.5,40.8C512.5,18,494.1,0,470.8,0c-75,0-150,0-225,0H233C155.3,0,77.7,0,0,0v82.2c157,0,314,0,471,0
		C494.3,82.2,512.5,64,512.5,40.8z"/>
</g>
</svg>
