<?xml version="1.0" encoding="UTF-8" standalone="no"?>
<!-- Created with Inkscape (http://www.inkscape.org/) -->

<svg
   width="24"
   height="24"
   viewBox="0 0 9.6 9.6"
   version="1.1"
   id="svg1"
   inkscape:version="1.3.2 (091e20e, 2023-11-25, custom)"
   sodipodi:docname="gematik-simple-logo.svg"
   xmlns:inkscape="http://www.inkscape.org/namespaces/inkscape"
   xmlns:sodipodi="http://sodipodi.sourceforge.net/DTD/sodipodi-0.dtd"
   xmlns="http://www.w3.org/2000/svg"
   xmlns:svg="http://www.w3.org/2000/svg">
  <sodipodi:namedview
     id="namedview1"
     pagecolor="#ffffff"
     bordercolor="#111111"
     borderopacity="1"
     inkscape:showpageshadow="0"
     inkscape:pageopacity="0"
     inkscape:pagecheckerboard="1"
     inkscape:deskcolor="#d1d1d1"
     inkscape:document-units="mm"
     inkscape:zoom="32.091061"
     inkscape:cx="11.218077"
     inkscape:cy="12.090594"
     inkscape:window-width="1920"
     inkscape:window-height="992"
     inkscape:window-x="-8"
     inkscape:window-y="-8"
     inkscape:window-maximized="1"
     inkscape:current-layer="layer1" />
  <defs
     id="defs1" />
  <g
     inkscape:label="Ebene 1"
     inkscape:groupmode="layer"
     id="layer1">
    <path
       id="path8"
       style="fill:#000000;fill-opacity:1;stroke:#003055;stroke-width:0.0149563;stroke-dasharray:none;stroke-opacity:1"
       d="m 5.1888044,0.53277642 c -0.115457,-1.5e-4 -0.22907,0.001 -0.33513,0.005 -1.695819,0.0601 -2.9918681,0.80476998 -3.4461891,1.97968018 -0.150202,0.38844 -0.188373,0.61861 -0.187754,1.13162 4.58e-4,0.35498 0.0045,0.4195 0.03735,0.57658 0.134515,0.64404 0.420232,1.13985 0.890316,1.54273 0.474975,0.40706 1.0540381,0.65165 1.7947641,0.75843 0.257255,0.0371 0.793543,0.0517 0.967033,0.0267 0.222904,-0.0321 0.428735,-0.15167 0.517837,-0.30079 0.07379,-0.1235 0.08321,-0.36938 0.01918,-0.49298 -0.04752,-0.0917 -0.183559,-0.20789 -0.298791,-0.25425 -0.130268,-0.0524 -0.223091,-0.0672 -0.556195,-0.0913 -0.408229,-0.0296 -0.577035,-0.0652 -0.832779,-0.1741 -0.189937,-0.0808 -0.309482,-0.15451 -0.464337,-0.28614 -0.157712,-0.13405 -0.300853,-0.31181 -0.380554,-0.47315 -0.3240981,-0.65613 -0.2369951,-1.48562 0.209961,-2.00382 0.44568,-0.5167301 1.163857,-0.7671302 2.103649,-0.7343002 0.537106,0.0188 0.91141,0.10786 1.307211,0.3128501 l 0.179678,0.0931 v 0.2413201 h -0.002 v 1.33933 0.0362 c -3.7e-5,0.48916 -8.99e-4,0.83572 -0.002,1.16868 -0.0044,0.80202 -0.0121,1.45314 -0.02221,1.74957 -5.29e-4,0.0119 -0.0014,0.0263 -0.002,0.0414 -9e-4,0.0162 -0.0011,0.0329 -0.002,0.0465 -0.0031,0.0456 -0.0069,0.0809 -0.0111,0.10515 l -0.002,0.0146 c -0.07398,0.29382 -0.36485,0.58442 -0.756063,0.75154 -0.247296,0.10565 -0.597467,0.1874 -0.945834,0.22064 -0.209784,0.02 -0.683715,0.0168 -0.881231,-0.006 -0.455202,-0.0525 -0.760954,-0.13716 -1.3434821,-0.37405 -0.345108,-0.14034 -0.458779,-0.17066 -0.644015,-0.17065 -0.302785,3e-5 -0.51344,0.10562 -0.627865,0.31631 -0.0792,0.14583 -0.0646,0.392 0.0323,0.55589 0.0599,0.10131 0.254811,0.27724 0.397715,0.35854 0.500797,0.28491 1.3010381,0.48297 2.1611871,0.53435 0.324177,0.0194 1.198533,-0.01 1.470737,-0.0491 0.213784,-0.0307 0.581416,-0.10911 0.768175,-0.16461 0.816877,-0.24277 1.385364,-0.64036 1.69685,-1.18592 0.111691,-0.19562 0.197811,-0.40348 0.233178,-0.56193 0.01085,-0.0486 0.01999,-0.11823 0.02725,-0.22494 h 0.0111 l 0.002,-0.0302 c 0.006,-0.0712 0.01056,-0.17374 0.01413,-0.33526 8e-6,-4.2e-4 -1e-5,-0.001 0,-0.002 0.0037,-0.16183 0.0067,-0.38461 0.0091,-0.68862 8e-6,-0.001 -8e-6,-0.006 0,-0.007 0.0037,-0.491 0.0122,-2.75732 0.01211,-3.23628 v -0.031 -0.17151 h -0.01212 l 0.002,-0.9058036 -0.169584,-0.12928 C 7.6095434,0.95847303 6.9348554,0.70265302 6.0832154,0.57798302 c -0.189655,-0.0278 -0.547984,-0.0452 -0.894355,-0.0457 z" />
  </g>
</svg>
