<?xml version="1.0" encoding="utf-8"?>
<!-- Generator: Adobe Illustrator 24.0.1, SVG Export Plug-In . SVG Version: 6.00 Build 0)  -->
<svg version="1.2" baseProfile="tiny" id="Ebene_1" xmlns="http://www.w3.org/2000/svg" xmlns:xlink="http://www.w3.org/1999/xlink"
	 x="0px" y="0px" viewBox="0 0 61.58 87.28" xml:space="preserve">
<path fill="#FFFFFF" d="M59.18,11.81C52,4.24,41.33,2.31,34.37,2.31c-20.06,0-31.88,12.03-31.88,30.18
	c0,17.32,11.25,28.74,27.36,28.74c4.64,0,7.19-2.28,7.19-6.13c0-3.61-2.55-5.65-7.19-5.65c-8.93,0-15.19-6.61-15.19-16.96
	c0-11.18,6.84-18.4,19.01-18.4c3.94,0,9.62,1.08,12.87,4.33l-0.12,42.09c0,8.9-7.77,12.99-17.39,12.99
	c-8.81,0-14.61-4.09-15.77-4.69c-4.75-2.4-9.39-0.12-9.39,4.57c0,7.94,13.91,11.9,25.27,11.9c16.93,0,30.03-7.7,30.03-24.77V11.81z"
	/>
<rect x="1.92" y="2.03" fill="none" width="57.83" height="83.54"/>
</svg>
