<?xml version="1.0" encoding="UTF-8" standalone="no"?>
<svg
   id="Logo"
   viewBox="0 0 642.10999 143.2"
   version="1.1"
   sodipodi:docname="gematik-logo-small.svg"
   width="321.05499"
   height="71.599998"
   inkscape:version="1.3.2 (091e20e, 2023-11-25, custom)"
   xmlns:inkscape="http://www.inkscape.org/namespaces/inkscape"
   xmlns:sodipodi="http://sodipodi.sourceforge.net/DTD/sodipodi-0.dtd"
   xmlns="http://www.w3.org/2000/svg"
   xmlns:svg="http://www.w3.org/2000/svg">
  <sodipodi:namedview
     id="namedview31"
     pagecolor="#ffffff"
     bordercolor="#111111"
     borderopacity="1"
     inkscape:showpageshadow="0"
     inkscape:pageopacity="0"
     inkscape:pagecheckerboard="1"
     inkscape:deskcolor="#d1d1d1"
     showgrid="false"
     inkscape:zoom="1.9482644"
     inkscape:cx="321.31163"
     inkscape:cy="71.602193"
     inkscape:window-width="1920"
     inkscape:window-height="1009"
     inkscape:window-x="3832"
     inkscape:window-y="88"
     inkscape:window-maximized="1"
     inkscape:current-layer="Logo" />
  <defs
     id="defs1">
    <style
       id="style1">.cls-1{fill:none;}.cls-2{fill:#000e52;}.cls-3{fill:#e10000;}.cls-4{fill:#fc0;}</style>
  </defs>
  <rect
     id="Schutzraum"
     class="cls-1"
     width="642.10999"
     height="143.2"
     x="0"
     y="0" />
  <rect
     class="cls-2"
     x="443.72"
     y="54.5"
     width="1.6"
     height="36.490002"
     id="rect1" />
  <path
     class="cls-2"
     d="m 402.2,68.39 h -0.3 v -30.5 h -8 V 91 h 8 V 75.59 h 0.2 l 15.9,15.3 h 10.8 L 409,71.59 428.6,54.49 H 417.9 Z M 373.6,91 h 8 V 54.49 h -8 z m 3.9,-53.9 a 5.44,5.44 0 0 0 -5.5,5.6 5.36,5.36 0 0 0 5.5,5.5 5.55,5.55 0 1 0 0,-11.1 M 350,61.69 h 14 v -7.2 h -14 v -10.9 h -8 v 33.9 c 0,9.7 4.9,14.2 13,14.2 a 19.56,19.56 0 0 0 11.1,-3.6 l -3.1,-6.4 a 14.56,14.56 0 0 1 -7.4,2.5 c -3.2,0 -5.8,-2 -5.8,-6.8 z m -34.7,23.8 c -6,0 -8,-2.4 -8,-4.8 0,-2.4 1.7,-4.5 7.1,-5.1 l 10,-1 v 9.6 a 27.89,27.89 0 0 1 -9.1,1.3 m 0.8,-31.7 A 29.4,29.4 0 0 0 300.7,58 l 3,6.4 a 26,26 0 0 1 12.1,-3.6 c 5.5,0 8.7,2.1 8.7,7 v 0.6 l -9,0.9 c -10,1 -16.1,4.5 -16.1,11.3 0,6.8 4.6,11.1 16.3,11.1 5.9,0 12.7,-1.4 16.8,-3.6 V 67.39 c -0.1,-9 -6.1,-13.5 -16.4,-13.6 m -39.9,0 a 26.51,26.51 0 0 0 -13.1,3.6 c -2.9,-2.4 -7,-3.6 -11.9,-3.6 -6.1,0 -12.6,2.4 -16,6 V 91 h 8 l -0.1,-27 a 13.32,13.32 0 0 1 8.9,-2.7 c 5,0 8,3 8,8.1 V 91 h 8 V 69.29 a 17.45,17.45 0 0 0 -0.7,-5.3 15,15 0 0 1 8.7,-2.8 c 4.8,0 8,2.5 8,8.1 V 91 h 8 V 69.29 c -0.1,-10.3 -6.1,-15.5 -15.8,-15.5 M 200,69.09 c 1,-5.1 4.6,-8.4 10.1,-8.4 5.1,0 8.3,3 9.2,8.4 z m 27.5,3 c 0,-11.1 -7.1,-18.4 -17.2,-18.4 -10.7,0 -18.6,7.5 -18.6,18.7 0,12.1 8.2,19.3 19.1,19.3 a 22.16,22.16 0 0 0 14.9,-5.1 l -3.9,-6.3 a 14.65,14.65 0 0 1 -10.5,4.5 c -5.3,0 -10.8,-2.7 -11.4,-9.8 h 27.5 c 0,-0.8 0.1,-1.9 0.1,-2.9 m -45.1,-12.3 c -4.7,-4.8 -11.7,-6 -16.2,-6 -13.1,0 -20.9,7.6 -20.9,19 0,10.9 7.4,18.1 17.9,18.1 3,0 4.7,-1.4 4.7,-3.9 0,-2.3 -1.7,-3.6 -4.7,-3.6 -5.8,0 -9.9,-4.2 -9.9,-10.7 0,-7 4.5,-11.6 12.4,-11.6 2.6,0 6.3,0.7 8.4,2.7 v 26.7 c 0,5.6 -5.1,8.2 -11.4,8.2 a 19.24,19.24 0 0 1 -10.3,-3 c -3.1,-1.5 -6.1,-0.1 -6.1,2.9 0,5 9.1,7.5 16.5,7.5 11.1,0 19.6,-4.8 19.6,-15.6 z"
     id="path1" />
  <path
     d="m 110.5,61.53 h -41 a 3.5,3.5 0 1 1 0,-7 h 41 a 3.5,3.5 0 1 1 0,7 z"
     id="path2" />
  <path
     class="cls-3"
     d="M 110.5,76.26 H 55.1 a 3.56,3.56 0 0 1 -3.6,-3.5 3.5,3.5 0 0 1 3.6,-3.5 h 55.4 a 3.5,3.5 0 1 1 0,7 z"
     id="path3" />
  <path
     class="cls-4"
     d="M 110.5,91 H 40.7 a 3.5,3.5 0 1 1 0,-7 h 69.8 a 3.5,3.5 0 1 1 0,7 z"
     id="path4" />
  <path
     class="cls-2"
     d="M 472,68.12 463.69,57.5 V 68.12 H 461.9 V 54.49 h 1.56 l 8.29,10.61 V 54.49 h 1.77 v 13.63 z"
     id="path5" />
  <path
     class="cls-2"
     d="m 481.12,58.33 a 4.18,4.18 0 0 1 3.37,1.67 v -1.48 h 1.65 v 9.6 h -1.65 v -1.48 a 4.21,4.21 0 0 1 -3.37,1.67 5,5 0 0 1 0,-10 z m 0.25,1.51 a 3.48,3.48 0 1 0 3.26,3.48 3.3,3.3 0 0 0 -3.26,-3.48 z"
     id="path6" />
  <path
     class="cls-2"
     d="m 493.19,68.21 a 2.7,2.7 0 0 1 -2.94,-2.94 V 60 h -2 v -1.48 h 2 v -2.67 h 1.65 v 2.67 h 2.76 V 60 h -2.76 v 5 c 0,1.23 0.56,1.63 1.59,1.63 a 3.46,3.46 0 0 0 1.17,-0.19 V 68 a 4.4,4.4 0 0 1 -1.47,0.21 z"
     id="path7" />
  <path
     class="cls-2"
     d="m 497.69,56 a 1.18,1.18 0 1 1 0,-2.35 1.18,1.18 0 0 1 0,2.35 z m -0.84,2.57 h 1.65 v 9.6 h -1.65 z"
     id="path8" />
  <path
     class="cls-2"
     d="m 506,68.31 a 5,5 0 1 1 5,-5 4.93,4.93 0 0 1 -5,5 z m 0,-1.54 a 3.46,3.46 0 1 0 -3.34,-3.45 3.28,3.28 0 0 0 3.34,3.45 z"
     id="path9" />
  <path
     class="cls-2"
     d="m 513.65,58.52 h 1.65 V 60 a 3.37,3.37 0 0 1 3.05,-1.67 3.53,3.53 0 0 1 3.65,3.87 v 5.92 h -1.64 v -5.67 c 0,-1.61 -0.92,-2.61 -2.26,-2.61 -1.56,0 -2.78,1.27 -2.78,3.51 v 4.77 h -1.65 z"
     id="path10" />
  <path
     class="cls-2"
     d="m 529.18,58.33 a 4.16,4.16 0 0 1 3.37,1.67 v -1.48 h 1.66 v 9.6 h -1.66 v -1.48 a 4.19,4.19 0 0 1 -3.37,1.67 5,5 0 0 1 0,-10 z m 0.24,1.51 a 3.48,3.48 0 1 0 3.27,3.48 3.3,3.3 0 0 0 -3.27,-3.48 z"
     id="path11" />
  <path
     class="cls-2"
     d="m 537.44,53.72 h 1.65 v 14.4 h -1.65 z"
     id="path12" />
  <path
     class="cls-2"
     d="m 547.87,54.49 h 3.91 c 4.19,0 7.26,2.91 7.26,6.81 0,3.9 -3.07,6.82 -7.26,6.82 h -3.91 z m 3.91,12 c 3.29,0 5.46,-2.19 5.46,-5.15 0,-2.96 -2.17,-5.14 -5.46,-5.14 h -2.13 v 10.25 z"
     id="path13" />
  <path
     class="cls-2"
     d="m 562.57,56 a 1.18,1.18 0 1 1 0,-2.35 1.18,1.18 0 0 1 0,2.35 z m -0.84,2.57 h 1.65 v 9.6 h -1.65 z"
     id="path14" />
  <path
     class="cls-2"
     d="m 570.74,72.32 a 5.65,5.65 0 0 1 -4.51,-2 l 1.15,-1.15 a 4.1,4.1 0 0 0 3.36,1.61 3.07,3.07 0 0 0 3.26,-3.28 v -1.09 a 4.11,4.11 0 0 1 -3.34,1.69 4.89,4.89 0 0 1 0,-9.77 A 4.09,4.09 0 0 1 574,60 v -1.48 h 1.65 v 9 c -0.05,3.25 -2.16,4.8 -4.91,4.8 z m 0.1,-5.76 a 3.36,3.36 0 1 0 -3.25,-3.36 3.17,3.17 0 0 0 3.25,3.36 z"
     id="path15" />
  <path
     class="cls-2"
     d="m 579.7,56 a 1.18,1.18 0 1 1 0,-2.35 1.18,1.18 0 0 1 0,2.35 z m -0.85,2.57 h 1.65 v 9.6 h -1.65 z"
     id="path16" />
  <path
     class="cls-2"
     d="M 587.54,68.21 A 2.7,2.7 0 0 1 584.6,65.27 V 60 h -2 v -1.48 h 2 v -2.67 h 1.65 v 2.67 H 589 V 60 h -2.76 v 5 c 0,1.23 0.56,1.63 1.59,1.63 A 3.46,3.46 0 0 0 589,66.5 V 68 a 4.4,4.4 0 0 1 -1.46,0.21 z"
     id="path17" />
  <path
     class="cls-2"
     d="m 595.1,58.33 a 4.2,4.2 0 0 1 3.38,1.67 v -1.48 h 1.65 v 9.6 h -1.65 v -1.48 a 4.23,4.23 0 0 1 -3.38,1.67 5,5 0 0 1 0,-10 z m 0.25,1.51 a 3.48,3.48 0 1 0 3.26,3.48 3.29,3.29 0 0 0 -3.26,-3.48 z"
     id="path18" />
  <path
     class="cls-2"
     d="M 603.37,53.72 H 605 v 14.4 h -1.65 z"
     id="path19" />
  <path
     class="cls-2"
     d="m 461.9,77.39 h 1.79 v 5.81 h 7.47 v -5.81 h 1.78 V 91 h -1.78 v -6.13 h -7.47 V 91 h -1.79 z"
     id="path20" />
  <path
     class="cls-2"
     d="m 480.82,81.23 a 4.87,4.87 0 0 1 4.55,5.31 h -7.87 a 3.39,3.39 0 0 0 6.31,1.46 l 1.31,0.9 a 5,5 0 1 1 -4.3,-7.69 z m -3.21,4 h 6.09 a 2.87,2.87 0 0 0 -2.94,-2.52 3.15,3.15 0 0 0 -3.15,2.49 z"
     id="path21" />
  <path
     class="cls-2"
     d="m 492,81.23 a 4.22,4.22 0 0 1 3.38,1.66 v -1.47 h 1.65 V 91 h -1.65 v -1.46 a 4.23,4.23 0 0 1 -3.38,1.67 5,5 0 0 1 0,-10 z m 0.25,1.51 a 3.48,3.48 0 1 0 3.26,3.48 3.3,3.3 0 0 0 -3.23,-3.48 z"
     id="path22" />
  <path
     class="cls-2"
     d="M 500.29,76.62 H 502 V 91 h -1.66 z"
     id="path23" />
  <path
     class="cls-2"
     d="m 509,91.11 a 2.7,2.7 0 0 1 -3,-2.94 v -5.24 h -2 v -1.51 h 2 v -2.67 h 1.65 v 2.67 h 2.76 v 1.51 h -2.76 v 5 c 0,1.23 0.56,1.63 1.59,1.63 a 3.46,3.46 0 0 0 1.17,-0.19 v 1.48 A 4.4,4.4 0 0 1 509,91.11 Z"
     id="path24" />
  <path
     class="cls-2"
     d="m 512.68,76.62 h 1.65 v 6.27 a 3.41,3.41 0 0 1 3.06,-1.66 3.53,3.53 0 0 1 3.61,3.87 V 91 h -1.63 v -5.65 c 0,-1.61 -0.92,-2.61 -2.26,-2.61 -1.56,0 -2.79,1.27 -2.79,3.51 V 91 h -1.65 z"
     id="path25" />
  <path
     class="cls-2"
     d="m 534,77.39 h 1.48 l 6,13.63 h -1.86 l -1.75,-4 h -6.35 l -1.75,4 H 528 Z m 3.21,8 -2.48,-5.62 -2.47,5.62 z"
     id="path26" />
  <path
     class="cls-2"
     d="m 547.35,95.22 a 5.66,5.66 0 0 1 -4.52,-2 L 544,92.11 a 4.09,4.09 0 0 0 3.36,1.61 3.07,3.07 0 0 0 3.2,-3.32 v -1.09 a 4.1,4.1 0 0 1 -3.35,1.69 4.89,4.89 0 0 1 0,-9.77 4.1,4.1 0 0 1 3.34,1.66 v -1.47 h 1.65 v 9 c 0,3.24 -2.11,4.8 -4.85,4.8 z m 0.09,-5.76 a 3.36,3.36 0 1 0 -3.24,-3.36 3.18,3.18 0 0 0 3.24,3.36 z"
     id="path27" />
  <path
     class="cls-2"
     d="m 559.79,81.23 a 4.87,4.87 0 0 1 4.55,5.31 h -7.87 a 3.39,3.39 0 0 0 6.31,1.46 l 1.31,0.9 a 5,5 0 1 1 -4.3,-7.69 z m -3.21,4 h 6.09 a 2.87,2.87 0 0 0 -2.94,-2.52 3.15,3.15 0 0 0 -3.15,2.49 z"
     id="path28" />
  <path
     class="cls-2"
     d="m 567,81.42 h 1.65 v 1.47 a 3.41,3.41 0 0 1 3.06,-1.66 3.53,3.53 0 0 1 3.62,3.87 V 91 h -1.63 v -5.65 c 0,-1.61 -0.92,-2.61 -2.26,-2.61 -1.56,0 -2.79,1.27 -2.79,3.51 V 91 H 567 Z"
     id="path29" />
  <path
     class="cls-2"
     d="m 582.83,91.21 a 5,5 0 1 1 4.43,-7.41 l -1.44,0.8 a 3.25,3.25 0 0 0 -3,-1.84 3.46,3.46 0 0 0 0,6.91 3.25,3.25 0 0 0 3,-1.84 l 1.44,0.81 a 5,5 0 0 1 -4.43,2.57 z"
     id="path30" />
  <path
     class="cls-2"
     d="m 590.43,95 2.09,-4.51 -4.2,-9.1 h 1.82 l 3.3,7.27 3.29,-7.27 h 1.84 L 592.27,95 Z"
     id="path31" />
</svg>
