<?xml version="1.0" encoding="UTF-8"?>
<svg xmlns="http://www.w3.org/2000/svg" xmlns:xlink="http://www.w3.org/1999/xlink" width="1045.7pt" height="254.77pt" viewBox="0 0 1045.7 254.77" version="1.1">
<defs>
<clipPath id="clip1">
  <path d="M 0 61 L 137 61 L 137 254.769531 L 0 254.769531 Z M 0 61 "/>
</clipPath>
<clipPath id="clip2">
  <path d="M 917 2 L 1045.699219 2 L 1045.699219 199 L 917 199 Z M 917 2 "/>
</clipPath>
</defs>
<g id="surface1">
<path style=" stroke:none;fill-rule:nonzero;fill:rgb(0%,5.499268%,32.199097%);fill-opacity:1;" d="M 540.699219 198.507813 L 511.46875 198.507813 C 511.46875 197.355469 511.46875 196.308594 511.46875 195.261719 C 511.46875 169.769531 511.558594 144.273438 511.382813 118.777344 C 511.351563 114.515625 510.730469 110.074219 509.40625 106.03125 C 505.855469 95.183594 497.484375 90.164063 486.59375 89.171875 C 474.261719 88.050781 462.839844 91.09375 452.292969 97.582031 C 450.492188 98.691406 450.023438 99.695313 450.421875 101.949219 C 451.394531 107.5 452.285156 113.152344 452.324219 118.769531 C 452.519531 144.679688 452.410156 170.589844 452.40625 196.503906 C 452.40625 197.074219 452.347656 197.644531 452.308594 198.414063 L 423.074219 198.414063 C 423.074219 197.441406 423.074219 196.472656 423.074219 195.503906 C 423.074219 170.675781 423.125 145.847656 423.023438 121.023438 C 423.011719 117.136719 422.734375 113.15625 421.859375 109.386719 C 419.382813 98.730469 412.648438 91.796875 401.867188 89.859375 C 388.242188 87.410156 375.195313 89.328125 363.347656 97.109375 C 361.304688 98.453125 360.148438 99.90625 360.878906 102.414063 C 360.988281 102.800781 360.910156 103.242188 360.910156 103.660156 C 360.972656 134.484375 361.03125 165.308594 361.089844 196.132813 C 361.089844 196.863281 361.019531 197.59375 360.976563 198.46875 L 331.890625 198.46875 C 331.847656 197.617188 331.765625 196.746094 331.765625 195.875 C 331.757813 159.214844 331.742188 122.554688 331.828125 85.898438 C 331.828125 84.59375 332.511719 82.9375 333.445313 82.046875 C 342.15625 73.769531 352.730469 68.8125 364.117188 65.496094 C 381.457031 60.449219 398.871094 59.976563 416.292969 65.125 C 422.328125 66.90625 427.941406 69.628906 432.890625 73.542969 C 434.320313 74.675781 435.28125 74.582031 436.808594 73.742188 C 457.105469 62.566406 478.644531 58.636719 501.414063 63.617188 C 522.5 68.230469 536.199219 83.074219 539.535156 104.460938 C 540.25 109.046875 540.632813 113.730469 540.652344 118.371094 C 540.757813 143.949219 540.699219 169.527344 540.699219 195.105469 C 540.699219 196.167969 540.699219 197.230469 540.699219 198.507813 "/>
<g clip-path="url(#clip1)" clip-rule="nonzero">
<path style=" stroke:none;fill-rule:nonzero;fill:rgb(0%,5.499268%,32.199097%);fill-opacity:1;" d="M 136.910156 142.394531 C 136.910156 160.890625 137.011719 179.386719 136.878906 197.882813 C 136.78125 211.566406 132.949219 223.996094 123.398438 234.207031 C 115.914063 242.207031 106.636719 247.378906 96.195313 250.230469 C 70.164063 257.347656 44.496094 256.246094 19.441406 245.871094 C 14.484375 243.820313 10.066406 240.78125 6.738281 236.433594 C 0.0351563 227.679688 3.742188 216.226563 13.960938 214.324219 C 18.820313 213.421875 23.378906 214.671875 27.609375 217.140625 C 33.976563 220.855469 40.707031 223.695313 47.902344 225.304688 C 61.269531 228.289063 74.527344 228.175781 87.433594 223.140625 C 100.011719 218.234375 106.117188 209.085938 106.136719 195.652344 C 106.167969 172.492188 106.203125 149.332031 106.265625 126.171875 C 106.289063 118.011719 106.324219 109.847656 106.519531 101.691406 C 106.570313 99.59375 105.804688 98.292969 104.203125 97.128906 C 98.6875 93.109375 92.433594 90.980469 85.796875 89.878906 C 75.011719 88.082031 64.363281 88.589844 54.109375 92.621094 C 40.363281 98.035156 32.546875 108.386719 30.160156 122.789063 C 28.480469 132.925781 29.171875 142.925781 33.976563 152.238281 C 40.320313 164.535156 50.714844 170.492188 64.375 171.183594 C 67.519531 171.34375 70.71875 171.523438 73.765625 172.242188 C 79.742188 173.648438 83.128906 177.824219 83.40625 183.464844 C 83.738281 190.195313 80.890625 195.335938 74.8125 197.074219 C 70.746094 198.238281 66.289063 198.636719 62.039063 198.46875 C 46.703125 197.867188 32.785156 193.128906 21.144531 182.824219 C 8.835938 171.925781 2.574219 157.878906 0.65625 141.78125 C -0.871094 128.949219 0.171875 116.308594 4.808594 104.167969 C 12.058594 85.1875 25.730469 72.640625 44.894531 66.570313 C 71.414063 58.164063 97.457031 59.605469 122.335938 72.710938 C 126.847656 75.085938 130.730469 78.652344 134.902344 81.671875 C 136.4375 82.78125 136.96875 84.199219 136.960938 86.15625 C 136.878906 104.902344 136.910156 123.648438 136.910156 142.394531 "/>
</g>
<g clip-path="url(#clip2)" clip-rule="nonzero">
<path style=" stroke:none;fill-rule:nonzero;fill:rgb(0%,5.499268%,32.199097%);fill-opacity:1;" d="M 917.699219 198.402344 L 917.699219 2.785156 L 920.496094 2.785156 C 928.160156 2.785156 935.828125 2.78125 943.496094 2.785156 C 946.910156 2.785156 946.910156 2.785156 946.910156 6.09375 C 946.910156 41.511719 946.910156 76.925781 946.910156 112.34375 L 946.910156 116.199219 C 948.476563 114.976563 949.457031 114.285156 950.351563 113.496094 C 968.140625 97.773438 985.929688 82.058594 1003.671875 66.28125 C 1005.261719 64.863281 1006.839844 64.21875 1009 64.238281 C 1020 64.339844 1031 64.285156 1042 64.285156 C 1042.878906 64.285156 1043.75 64.285156 1044.621094 64.285156 C 1044.691406 64.476563 1044.75 64.664063 1044.820313 64.855469 C 1020.949219 85.691406 997.078125 106.527344 972.96875 127.570313 C 997.1875 151.144531 1021.28125 174.597656 1045.699219 198.363281 C 1044.710938 198.480469 1044.121094 198.609375 1043.53125 198.609375 C 1031.691406 198.621094 1019.859375 198.660156 1008.03125 198.550781 C 1006.878906 198.539063 1005.488281 197.851563 1004.628906 197.03125 C 985.960938 179.078125 967.347656 161.0625 948.71875 143.0625 C 948.367188 142.730469 947.957031 142.460938 947.121094 141.8125 L 947.121094 198.402344 "/>
</g>
<path style=" stroke:none;fill-rule:nonzero;fill:rgb(0%,5.499268%,32.199097%);fill-opacity:1;" d="M 201.652344 117.949219 L 273.183594 117.949219 C 271.65625 109.136719 268.671875 101.25 262.089844 95.160156 C 255.203125 88.789063 246.824219 86.90625 237.671875 87.019531 C 222.605469 87.207031 210.089844 95.484375 204.429688 109.46875 C 203.355469 112.128906 202.628906 114.933594 201.652344 117.949219 M 302.515625 140.167969 L 200.5625 140.167969 C 201.71875 144.496094 202.410156 148.605469 203.898438 152.398438 C 209.363281 166.332031 220.347656 173.375 234.609375 175.566406 C 252.503906 178.3125 267.96875 172.953125 281.0625 160.550781 C 281.355469 160.273438 281.671875 160.011719 282.210938 159.535156 C 287.070313 167.292969 291.859375 174.929688 296.71875 182.679688 C 289.570313 188.703125 281.820313 193.34375 273.160156 196.289063 C 254.265625 202.722656 235.058594 203.769531 216.046875 197.398438 C 191.824219 189.289063 177.558594 171.960938 172.679688 147.074219 C 169.3125 129.902344 170.558594 113.03125 178.574219 97.175781 C 188.496094 77.546875 204.847656 66.457031 226.238281 62.691406 C 240.035156 60.261719 253.675781 61.164063 266.640625 66.871094 C 285.511719 75.175781 296.308594 90.132813 301.019531 109.820313 C 303.382813 119.710938 303.632813 129.738281 302.515625 140.167969 "/>
<path style=" stroke:none;fill-rule:nonzero;fill:rgb(0%,5.499268%,32.199097%);fill-opacity:1;" d="M 661.132813 138.558594 C 659.953125 138.617188 659.207031 138.628906 658.464844 138.699219 C 646.785156 139.84375 635.101563 140.914063 623.4375 142.175781 C 616.789063 142.894531 610.246094 144.1875 604.605469 148.144531 C 595.527344 154.519531 595.507813 167.066406 604.769531 173.148438 C 607.554688 174.980469 610.859375 176.398438 614.117188 177.058594 C 629.457031 180.167969 644.5625 178.222656 659.519531 174.292969 C 661.046875 173.894531 661.15625 173.003906 661.148438 171.730469 C 661.117188 163.316406 661.132813 154.902344 661.132813 146.492188 Z M 660.90625 115.566406 C 662.460938 102.242188 655.5625 92.246094 642.742188 89.09375 C 630.925781 86.1875 619.191406 87.226563 607.785156 90.953125 C 599.761719 93.574219 592.019531 97.0625 583.867188 100.273438 C 580.542969 93.035156 576.976563 85.273438 573.3125 77.296875 C 574.058594 76.789063 574.699219 76.300781 575.390625 75.894531 C 595.148438 64.304688 616.546875 60.210938 639.21875 61.980469 C 649.097656 62.75 658.636719 64.804688 667.457031 69.53125 C 681.199219 76.898438 688.328125 88.65625 690.046875 103.898438 C 690.449219 107.445313 690.511719 111.042969 690.515625 114.617188 C 690.554688 138.277344 690.511719 161.941406 690.578125 185.605469 C 690.585938 187.601563 690.066406 188.683594 688.160156 189.554688 C 675.765625 195.207031 662.671875 198.21875 649.269531 200.035156 C 637.183594 201.671875 625.050781 201.996094 612.90625 200.59375 C 603.160156 199.46875 593.699219 197.335938 585.207031 192.128906 C 574.65625 185.660156 569.425781 176.042969 568.617188 163.835938 C 567.488281 146.683594 575.832031 135.367188 590.683594 128.132813 C 601.761719 122.738281 613.671875 120.453125 625.800781 119.140625 C 637.460938 117.878906 649.136719 116.757813 660.90625 115.566406 "/>
<path style=" stroke:none;fill-rule:nonzero;fill:rgb(0%,5.499268%,32.199097%);fill-opacity:1;" d="M 803.644531 164.578125 C 807.519531 172.515625 811.265625 180.195313 815.082031 188.015625 C 807.640625 193.144531 799.785156 196.988281 791.160156 199.234375 C 781.171875 201.832031 771.09375 202.195313 760.972656 200.257813 C 742.441406 196.710938 731.582031 185.226563 727.714844 167.089844 C 726.472656 161.273438 725.863281 155.214844 725.839844 149.265625 C 725.683594 108.523438 725.757813 67.78125 725.757813 27.039063 C 725.757813 26.144531 725.757813 25.25 725.757813 24.234375 L 755 24.234375 L 755 64.210938 L 806.441406 64.210938 L 806.441406 90.933594 L 755.09375 90.933594 L 755.09375 93.863281 C 755.09375 111.777344 755.007813 129.691406 755.160156 147.601563 C 755.195313 151.472656 755.636719 155.460938 756.675781 159.179688 C 759.398438 168.929688 767.183594 174.171875 777.296875 173.753906 C 786.03125 173.394531 793.773438 170.085938 801.257813 165.941406 C 801.972656 165.542969 802.683594 165.125 803.644531 164.578125 "/>
<path style=" stroke:none;fill-rule:nonzero;fill:rgb(0%,5.499268%,32.199097%);fill-opacity:1;" d="M 871.445313 64.402344 L 871.445313 198.480469 L 842.375 198.480469 C 842.335938 197.597656 842.261719 196.71875 842.261719 195.84375 C 842.257813 152.941406 842.277344 110.046875 842.210938 67.144531 C 842.203125 64.847656 842.820313 64.191406 845.125 64.230469 C 853.035156 64.367188 860.949219 64.28125 868.863281 64.289063 C 869.675781 64.289063 870.492188 64.359375 871.445313 64.402344 "/>
<path style=" stroke:none;fill-rule:nonzero;fill:rgb(0%,5.499268%,32.199097%);fill-opacity:1;" d="M 836.46875 20.71875 C 836.457031 8.800781 845.039063 0.0351563 856.761719 -0.00390625 C 868.433594 -0.0429688 877.558594 9.054688 877.535156 20.714844 C 877.515625 32.34375 868.621094 41.058594 856.769531 41.0625 C 844.984375 41.066406 836.480469 32.546875 836.46875 20.71875 "/>
</g>
</svg>
