<svg xmlns="http://www.w3.org/2000/svg" xmlns:xlink="http://www.w3.org/1999/xlink" contentStyleType="text/css" data-diagram-type="SEQUENCE" height="2471px" preserveAspectRatio="none" style="width:1492px;height:2471px;background:#FFFFFF;" version="1.1" viewBox="0 0 1492 2471" width="1492px" zoomAndPan="magnify"><?plantuml 1.2026.3?><defs/><g><rect fill="#F8F8FF" height="2445.1094" style="stroke:#181818;stroke-width:0.5;" width="291.2979" x="191.0063" y="11"/><text fill="#000000" font-family="sans-serif" font-size="10" font-weight="700" x="297.2363" y="20.2822">Mobile Device</text><rect fill="#DDDDDD" height="2428.4688" style="stroke:#181818;stroke-width:0.5;" width="291.2979" x="191.0063" y="27.6406"/><text fill="#000000" font-family="sans-serif" font-size="10" font-weight="700" x="283.9795" y="36.9229">mobile Application</text><rect fill="#C9FFC9" height="2445.1094" style="stroke:#181818;stroke-width:0.5;" width="347.167" x="696.4014" y="11"/><text fill="#000000" font-family="sans-serif" font-size="10" font-weight="700" x="846.0103" y="20.2822">Provider</text><rect fill="#F4A460" height="2428.4688" style="stroke:#181818;stroke-width:0.5;" width="347.167" x="696.4014" y="27.6406"/><text fill="#000000" font-family="sans-serif" font-size="10" font-weight="700" x="831.6206" y="36.9229">ZETA Guard 1</text><rect fill="#C9FFC9" height="2445.1094" style="stroke:#181818;stroke-width:0.5;" width="260.1455" x="1134.8174" y="11"/><text fill="#000000" font-family="sans-serif" font-size="10" font-weight="700" x="1240.9155" y="20.2822">Provider</text><rect fill="#F4A460" height="2428.4688" style="stroke:#181818;stroke-width:0.5;" width="260.1455" x="1134.8174" y="27.6406"/><text fill="#000000" font-family="sans-serif" font-size="10" font-weight="700" x="1226.5259" y="36.9229">ZETA Guard 2</text><g><title>User</title><rect fill="#000000" fill-opacity="0.00000" height="2263.5469" width="8" x="25.5" y="114.9219"/><line style="stroke:#000000;stroke-width:0.5;stroke-dasharray:5,5;" x1="29" x2="29" y1="114.9219" y2="2378.4688"/></g><g><title>Application</title><rect fill="#000000" fill-opacity="0.00000" height="2263.5469" width="8" x="226.4434" y="114.9219"/><line style="stroke:#000000;stroke-width:0.5;stroke-dasharray:5,5;" x1="229.9434" x2="229.9434" y1="114.9219" y2="2378.4688"/></g><g><title/><rect fill="#F0F0F0" height="599.5781" style="stroke:#181818;stroke-width:1;" width="10" x="224.9434" y="1588.0469"/></g><g><title>ZETA Client</title><rect fill="#000000" fill-opacity="0.00000" height="2263.5469" width="8" x="438.6807" y="114.9219"/><line style="stroke:#000000;stroke-width:0.5;stroke-dasharray:5,5;" x1="442.1807" x2="442.1807" y1="114.9219" y2="2378.4688"/></g><g><title/><rect fill="#F0F0F0" height="407.0938" style="stroke:#181818;stroke-width:1;" width="10" x="437.1807" y="162.5625"/></g><g><title/><rect fill="#F0F0F0" height="887.8281" style="stroke:#181818;stroke-width:1;" width="10" x="437.1807" y="620.9375"/></g><line style="stroke:#000000;stroke-width:2;" x1="433.1807" x2="451.1807" y1="1499.7656" y2="1517.7656"/><line style="stroke:#000000;stroke-width:2;" x1="433.1807" x2="451.1807" y1="1517.7656" y2="1499.7656"/><g><title/><rect fill="#F0F0F0" height="573.9375" style="stroke:#181818;stroke-width:1;" width="10" x="437.1807" y="1613.6875"/></g><g><title/><rect fill="#F0F0F0" height="76.9219" style="stroke:#181818;stroke-width:1;" width="10" x="437.1807" y="2244.9063"/></g><g><title>First AuthS</title><rect fill="#000000" fill-opacity="0.00000" height="2263.5469" width="8" x="731.2695" y="114.9219"/><line style="stroke:#000000;stroke-width:0.5;stroke-dasharray:5,5;" x1="734.7695" x2="734.7695" y1="114.9219" y2="2378.4688"/></g><g><title/><rect fill="#F0F0F0" height="886.1875" style="stroke:#181818;stroke-width:1;" width="10" x="729.7695" y="251.125"/></g><g><title>PDP DB</title><rect fill="#000000" fill-opacity="0.00000" height="2263.5469" width="8" x="1010.3184" y="114.9219"/><line style="stroke:#000000;stroke-width:0.5;stroke-dasharray:5,5;" x1="1013.8184" x2="1013.8184" y1="114.9219" y2="2378.4688"/></g><g><title>Attestation</title><rect fill="#000000" fill-opacity="0.00000" height="2263.5469" width="8" x="1090.6929" y="114.9219"/><line style="stroke:#000000;stroke-width:0.5;stroke-dasharray:5,5;" x1="1094.1929" x2="1094.1929" y1="114.9219" y2="2378.4688"/></g><g><title/><rect fill="#F0F0F0" height="25.6406" style="stroke:#181818;stroke-width:1;" width="10" x="1089.1929" y="674.2188"/></g><g><title/><rect fill="#F0F0F0" height="25.6406" style="stroke:#181818;stroke-width:1;" width="10" x="1089.1929" y="806.4219"/></g><g><title>AuthS</title><rect fill="#000000" fill-opacity="0.00000" height="2263.5469" width="8" x="1157.21" y="114.9219"/><line style="stroke:#000000;stroke-width:0.5;stroke-dasharray:5,5;" x1="1160.71" x2="1160.71" y1="114.9219" y2="2378.4688"/></g><g><title/><rect fill="#F0F0F0" height="548.2969" style="stroke:#181818;stroke-width:1;" width="10" x="1155.71" y="1639.3281"/></g><g><title>PDP DB</title><rect fill="#000000" fill-opacity="0.00000" height="2263.5469" width="8" x="1361.7129" y="114.9219"/><line style="stroke:#000000;stroke-width:0.5;stroke-dasharray:5,5;" x1="1365.2129" x2="1365.2129" y1="114.9219" y2="2378.4688"/></g><g><title>Federation </title><rect fill="#000000" fill-opacity="0.00000" height="2263.5469" width="8" x="1442.9517" y="114.9219"/><line style="stroke:#000000;stroke-width:0.5;stroke-dasharray:5,5;" x1="1446.4517" x2="1446.4517" y1="114.9219" y2="2378.4688"/></g><g><title/><rect fill="#F0F0F0" height="25.6406" style="stroke:#181818;stroke-width:1;" width="10" x="1441.4517" y="1789.7344"/></g><text fill="#000000" font-family="sans-serif" font-size="10" x="14.6035" y="112.5635">User</text><ellipse cx="29" cy="51.7813" fill="#FFFFFF" rx="8" ry="8" style="stroke:#000000;stroke-width:0.5;"/><path d="M29,59.7813 L29,86.7813 M16,67.7813 L42,67.7813 M29,86.7813 L16,101.7813 M29,86.7813 L42,101.7813" fill="none" style="stroke:#000000;stroke-width:0.5;"/><rect fill="#00BFFF" height="25.6406" rx="2.5" ry="2.5" style="stroke:#000000;stroke-width:0.5;" width="69.874" x="195.0063" y="88.2813"/><text fill="#000000" font-family="sans-serif" font-size="10" x="202.0063" y="104.5635">Application</text><rect fill="#F4A460" height="37.2813" rx="2.5" ry="2.5" style="stroke:#000000;stroke-width:0.5;" width="72.2471" x="406.0571" y="76.6406"/><text fill="#000000" font-family="sans-serif" font-size="10" x="413.0571" y="92.9229">ZETA Client</text><text fill="#000000" font-family="sans-serif" font-size="10" x="427.9766" y="104.5635">(SDK)</text><rect fill="#FFFFFF" height="25.6406" rx="2.5" ry="2.5" style="stroke:#000000;stroke-width:0.5;" width="68.7363" x="700.4014" y="88.2813"/><text fill="#000000" font-family="sans-serif" font-size="10" x="707.4014" y="104.5635">First AuthS</text><rect fill="#FFFFFF" height="25.6406" rx="2.5" ry="2.5" style="stroke:#000000;stroke-width:0.5;" width="51.5" x="988.0684" y="88.2813"/><text fill="#000000" font-family="sans-serif" font-size="10" x="995.0684" y="104.5635">PDP DB</text><rect fill="#FFFFFF" height="37.2813" rx="2.5" ry="2.5" style="stroke:#000000;stroke-width:0.5;" width="69.249" x="1059.5684" y="76.6406"/><text fill="#000000" font-family="sans-serif" font-size="10" x="1066.5684" y="92.9229">Attestation</text><text fill="#000000" font-family="sans-serif" font-size="10" x="1075.7139" y="104.5635">Service</text><rect fill="#FFFFFF" height="25.6406" rx="2.5" ry="2.5" style="stroke:#000000;stroke-width:0.5;" width="43.7852" x="1138.8174" y="88.2813"/><text fill="#000000" font-family="sans-serif" font-size="10" x="1145.8174" y="104.5635">AuthS</text><rect fill="#FFFFFF" height="25.6406" rx="2.5" ry="2.5" style="stroke:#000000;stroke-width:0.5;" width="51.5" x="1339.4629" y="88.2813"/><text fill="#000000" font-family="sans-serif" font-size="10" x="1346.4629" y="104.5635">PDP DB</text><rect fill="#FFFFFF" height="37.2813" rx="2.5" ry="2.5" style="stroke:#000000;stroke-width:0.5;" width="70.9775" x="1410.9629" y="76.6406"/><text fill="#000000" font-family="sans-serif" font-size="10" x="1417.9629" y="92.9229">Federation</text><text fill="#000000" font-family="sans-serif" font-size="10" x="1429.3765" y="104.5635">Master</text><text fill="#000000" font-family="sans-serif" font-size="10" x="14.6035" y="2447.751">User</text><ellipse cx="29" cy="2386.9688" fill="#FFFFFF" rx="8" ry="8" style="stroke:#000000;stroke-width:0.5;"/><path d="M29,2394.9688 L29,2421.9688 M16,2402.9688 L42,2402.9688 M29,2421.9688 L16,2436.9688 M29,2421.9688 L42,2436.9688" fill="none" style="stroke:#000000;stroke-width:0.5;"/><rect fill="#00BFFF" height="25.6406" rx="2.5" ry="2.5" style="stroke:#000000;stroke-width:0.5;" width="69.874" x="195.0063" y="2378.4688"/><text fill="#000000" font-family="sans-serif" font-size="10" x="202.0063" y="2394.751">Application</text><rect fill="#F4A460" height="37.2813" rx="2.5" ry="2.5" style="stroke:#000000;stroke-width:0.5;" width="72.2471" x="406.0571" y="2378.4688"/><text fill="#000000" font-family="sans-serif" font-size="10" x="413.0571" y="2394.751">ZETA Client</text><text fill="#000000" font-family="sans-serif" font-size="10" x="427.9766" y="2406.3916">(SDK)</text><rect fill="#FFFFFF" height="25.6406" rx="2.5" ry="2.5" style="stroke:#000000;stroke-width:0.5;" width="68.7363" x="700.4014" y="2378.4688"/><text fill="#000000" font-family="sans-serif" font-size="10" x="707.4014" y="2394.751">First AuthS</text><rect fill="#FFFFFF" height="25.6406" rx="2.5" ry="2.5" style="stroke:#000000;stroke-width:0.5;" width="51.5" x="988.0684" y="2378.4688"/><text fill="#000000" font-family="sans-serif" font-size="10" x="995.0684" y="2394.751">PDP DB</text><rect fill="#FFFFFF" height="37.2813" rx="2.5" ry="2.5" style="stroke:#000000;stroke-width:0.5;" width="69.249" x="1059.5684" y="2378.4688"/><text fill="#000000" font-family="sans-serif" font-size="10" x="1066.5684" y="2394.751">Attestation</text><text fill="#000000" font-family="sans-serif" font-size="10" x="1075.7139" y="2406.3916">Service</text><rect fill="#FFFFFF" height="25.6406" rx="2.5" ry="2.5" style="stroke:#000000;stroke-width:0.5;" width="43.7852" x="1138.8174" y="2378.4688"/><text fill="#000000" font-family="sans-serif" font-size="10" x="1145.8174" y="2394.751">AuthS</text><rect fill="#FFFFFF" height="25.6406" rx="2.5" ry="2.5" style="stroke:#000000;stroke-width:0.5;" width="51.5" x="1339.4629" y="2378.4688"/><text fill="#000000" font-family="sans-serif" font-size="10" x="1346.4629" y="2394.751">PDP DB</text><rect fill="#FFFFFF" height="37.2813" rx="2.5" ry="2.5" style="stroke:#000000;stroke-width:0.5;" width="70.9775" x="1410.9629" y="2378.4688"/><text fill="#000000" font-family="sans-serif" font-size="10" x="1417.9629" y="2394.751">Federation</text><text fill="#000000" font-family="sans-serif" font-size="10" x="1429.3765" y="2406.3916">Master</text><rect fill="#EEEEEE" height="3" style="stroke:#EEEEEE;stroke-width:1;" width="1471.9404" x="10" y="141.7422"/><line style="stroke:#000000;stroke-width:1;" x1="10" x2="1481.9404" y1="141.7422" y2="141.7422"/><line style="stroke:#000000;stroke-width:1;" x1="10" x2="1481.9404" y1="144.7422" y2="144.7422"/><rect fill="#EEEEEE" height="19.6406" style="stroke:#000000;stroke-width:2;" width="332.7744" x="579.583" y="132.9219"/><text fill="#000000" font-family="sans-serif" font-size="10" font-weight="700" x="585.583" y="146.2041">Phase 1: Initial Registration (Delegation to ZETA Client)</text><path d="M452.1807,167.5625 L452.1807,200.5625 L822.1807,200.5625 L822.1807,177.5625 L812.1807,167.5625 L452.1807,167.5625" fill="#FEFFDD" style="stroke:#181818;stroke-width:0.5;"/><path d="M812.1807,167.5625 L812.1807,177.5625 L822.1807,177.5625 L812.1807,167.5625" fill="#FEFFDD" style="stroke:#181818;stroke-width:0.5;"/><text fill="#000000" font-family="sans-serif" font-size="10" x="458.1807" y="181.8447">- The ZETA Client is pre-configured with the user's email address.</text><text fill="#000000" font-family="sans-serif" font-size="10" x="458.1807" y="193.4854">- The ZETA Client is pre-configured with the Application's redirect_uri.</text><path d="M13,209.8438 L365.3438,209.8438 L365.3438,213.4844 L355.3438,223.4844 L13,223.4844 L13,209.8438" fill="#EEEEEE" style="stroke:#000000;stroke-width:1.5;"/><rect fill="none" height="829.5469" style="stroke:#000000;stroke-width:1.5;" width="1127.1929" x="13" y="209.8438"/><text fill="#000000" font-family="sans-serif" font-size="10" font-weight="700" x="28" y="220.126">Integrated TOFU OTP Flow (performed by ZETA Client)</text><polygon fill="#000000" points="717.7695,247.125,727.7695,251.125,717.7695,255.125,721.7695,251.125" style="stroke:#000000;stroke-width:1;"/><line style="stroke:#000000;stroke-width:1;" x1="447.1807" x2="723.7695" y1="251.125" y2="251.125"/><text fill="#000000" font-family="sans-serif" font-size="10" font-weight="700" x="454.1807" y="246.7666">Starts DCR (Initiation Request)</text><path d="M547.1436,264.125 L547.1436,355.125 L729.1436,355.125 L729.1436,274.125 L719.1436,264.125 L547.1436,264.125" fill="#FEFFDD" style="stroke:#181818;stroke-width:0.5;"/><path d="M719.1436,264.125 L719.1436,274.125 L729.1436,274.125 L719.1436,264.125" fill="#FEFFDD" style="stroke:#181818;stroke-width:0.5;"/><text fill="#000000" font-family="sans-serif" font-size="10" font-weight="700" x="553.1436" y="278.4072">POST /register</text><text fill="#000000" font-family="sans-serif" font-size="10" x="553.1436" y="290.0479">Content-Type: application/json</text><text fill="#000000" font-family="sans-serif" font-size="10" x="553.1436" y="301.6885">&#160;</text><text fill="#000000" font-family="sans-serif" font-size="10" x="553.1436" y="313.3291">{</text><text fill="#000000" font-family="sans-serif" font-size="10" x="559.501" y="324.9697">"email": "user@example.com",</text><text fill="#000000" font-family="sans-serif" font-size="10" x="559.501" y="336.6104">"application_type": "native"</text><text fill="#000000" font-family="sans-serif" font-size="10" x="553.1436" y="348.251">}</text><line style="stroke:#000000;stroke-width:1;" x1="739.7695" x2="781.7695" y1="378.25" y2="378.25"/><line style="stroke:#000000;stroke-width:1;" x1="781.7695" x2="781.7695" y1="378.25" y2="391.25"/><line style="stroke:#000000;stroke-width:1;" x1="740.7695" x2="781.7695" y1="391.25" y2="391.25"/><polygon fill="#000000" points="750.7695,387.25,740.7695,391.25,750.7695,395.25,746.7695,391.25" style="stroke:#000000;stroke-width:1;"/><text fill="#000000" font-family="sans-serif" font-size="10" x="746.7695" y="373.8916">Generates OTP and `dcr_session_id`</text><polygon fill="#000000" points="40,412.8906,30,416.8906,40,420.8906,36,416.8906" style="stroke:#000000;stroke-width:1;"/><line style="stroke:#000000;stroke-width:1;" x1="34" x2="728.7695" y1="416.8906" y2="416.8906"/><text fill="#000000" font-family="sans-serif" font-size="10" font-weight="700" x="46" y="412.5322">Sends OTP directly via email</text><polygon fill="#000000" points="458.1807,438.5313,448.1807,442.5313,458.1807,446.5313,454.1807,442.5313" style="stroke:#000000;stroke-width:1;"/><line style="stroke:#000000;stroke-width:1;stroke-dasharray:2,2;" x1="452.1807" x2="728.7695" y1="442.5313" y2="442.5313"/><text fill="#000000" font-family="sans-serif" font-size="10" font-weight="700" x="464.1807" y="438.1729">Responds with `dcr_session_id`</text><path d="M226.4639,455.5313 L226.4639,546.5313 L436.4639,546.5313 L436.4639,465.5313 L426.4639,455.5313 L226.4639,455.5313" fill="#FEFFDD" style="stroke:#181818;stroke-width:0.5;"/><path d="M426.4639,455.5313 L426.4639,465.5313 L436.4639,465.5313 L426.4639,455.5313" fill="#FEFFDD" style="stroke:#181818;stroke-width:0.5;"/><text fill="#000000" font-family="sans-serif" font-size="10" font-weight="700" x="232.4639" y="469.8135">201 Created</text><text fill="#000000" font-family="sans-serif" font-size="10" x="232.4639" y="481.4541">Content-Type: application/json</text><text fill="#000000" font-family="sans-serif" font-size="10" x="232.4639" y="493.0947">&#160;</text><text fill="#000000" font-family="sans-serif" font-size="10" x="232.4639" y="504.7354">{</text><text fill="#000000" font-family="sans-serif" font-size="10" x="238.8213" y="516.376">"dcr_session_id": "urn:tx:1a2b3c4d",</text><text fill="#000000" font-family="sans-serif" font-size="10" x="238.8213" y="528.0166">"expires_in": 600</text><text fill="#000000" font-family="sans-serif" font-size="10" x="232.4639" y="539.6572">}</text><polygon fill="#000000" points="240.9434,565.6563,230.9434,569.6563,240.9434,573.6563,236.9434,569.6563" style="stroke:#000000;stroke-width:1;"/><line style="stroke:#000000;stroke-width:1;" x1="234.9434" x2="436.1807" y1="569.6563" y2="569.6563"/><text fill="#000000" font-family="sans-serif" font-size="10" x="246.9434" y="565.2979">Signals: "Waiting for OTP input"</text><polygon fill="#000000" points="217.9434,591.2969,227.9434,595.2969,217.9434,599.2969,221.9434,595.2969" style="stroke:#000000;stroke-width:1;"/><line style="stroke:#000000;stroke-width:1;" x1="29" x2="223.9434" y1="595.2969" y2="595.2969"/><text fill="#000000" font-family="sans-serif" font-size="10" x="36" y="590.9385">Enters the received OTP</text><polygon fill="#000000" points="425.1807,616.9375,435.1807,620.9375,425.1807,624.9375,429.1807,620.9375" style="stroke:#000000;stroke-width:1;"/><line style="stroke:#000000;stroke-width:1;" x1="229.9434" x2="431.1807" y1="620.9375" y2="620.9375"/><text fill="#000000" font-family="sans-serif" font-size="10" x="236.9434" y="616.5791">Passes OTP to complete registration</text><path d="M426.1807,632.9375 L486.1367,632.9375 L486.1367,636.5781 L476.1367,646.5781 L426.1807,646.5781 L426.1807,632.9375" fill="#EEEEEE" style="stroke:#000000;stroke-width:1.5;"/><rect fill="none" height="207.125" style="stroke:#000000;stroke-width:1.5;" width="689.0122" x="426.1807" y="632.9375"/><text fill="#000000" font-family="sans-serif" font-size="10" font-weight="700" x="441.1807" y="643.2197">alt</text><text fill="#000000" font-family="sans-serif" font-size="10" font-weight="700" x="501.1367" y="644.2197">[iOS App (App Attest)]</text><line style="stroke:#000000;stroke-width:1;stroke-dasharray:2,2;" x1="426.1807" x2="1115.1929" y1="718.8594" y2="718.8594"/><text fill="#000000" font-family="sans-serif" font-size="10" font-weight="700" x="431.1807" y="730.1416">[Android App (Play Integrity)]</text><polygon fill="#000000" points="1077.1929,670.2188,1087.1929,674.2188,1077.1929,678.2188,1081.1929,674.2188" style="stroke:#000000;stroke-width:1;"/><line style="stroke:#000000;stroke-width:1;" x1="447.1807" x2="1083.1929" y1="674.2188" y2="674.2188"/><text fill="#000000" font-family="sans-serif" font-size="10" x="454.1807" y="669.8604">Requests Attestation (with `dcr_session_id` as challenge)</text><polygon fill="#000000" points="458.1807,695.8594,448.1807,699.8594,458.1807,703.8594,454.1807,699.8594" style="stroke:#000000;stroke-width:1;"/><line style="stroke:#000000;stroke-width:1;stroke-dasharray:2,2;" x1="452.1807" x2="1088.1929" y1="699.8594" y2="699.8594"/><text fill="#000000" font-family="sans-serif" font-size="10" x="464.1807" y="695.501">Sends</text><text fill="#000000" font-family="sans-serif" font-size="10" font-weight="700" x="497.7549" y="695.501">Attestation Object</text><polygon fill="#000000" points="717.7695,751.1406,727.7695,755.1406,717.7695,759.1406,721.7695,755.1406" style="stroke:#000000;stroke-width:1;"/><line style="stroke:#000000;stroke-width:1;" x1="447.1807" x2="723.7695" y1="755.1406" y2="755.1406"/><text fill="#000000" font-family="sans-serif" font-size="10" x="454.1807" y="750.7822">Requests Nonce</text><polygon fill="#000000" points="458.1807,776.7813,448.1807,780.7813,458.1807,784.7813,454.1807,780.7813" style="stroke:#000000;stroke-width:1;"/><line style="stroke:#000000;stroke-width:1;stroke-dasharray:2,2;" x1="452.1807" x2="728.7695" y1="780.7813" y2="780.7813"/><text fill="#000000" font-family="sans-serif" font-size="10" x="464.1807" y="776.4229">Sends</text><text fill="#000000" font-family="sans-serif" font-size="10" font-weight="700" x="497.7549" y="776.4229">Nonce</text><polygon fill="#000000" points="1077.1929,802.4219,1087.1929,806.4219,1077.1929,810.4219,1081.1929,806.4219" style="stroke:#000000;stroke-width:1;"/><line style="stroke:#000000;stroke-width:1;" x1="447.1807" x2="1083.1929" y1="806.4219" y2="806.4219"/><text fill="#000000" font-family="sans-serif" font-size="10" x="454.1807" y="802.0635">Requests Integrity Token (with</text><text fill="#000000" font-family="sans-serif" font-size="10" font-weight="700" x="611.2363" y="802.0635">Nonce</text><text fill="#000000" font-family="sans-serif" font-size="10" x="646.3047" y="802.0635">)</text><polygon fill="#000000" points="458.1807,828.0625,448.1807,832.0625,458.1807,836.0625,454.1807,832.0625" style="stroke:#000000;stroke-width:1;"/><line style="stroke:#000000;stroke-width:1;stroke-dasharray:2,2;" x1="452.1807" x2="1088.1929" y1="832.0625" y2="832.0625"/><text fill="#000000" font-family="sans-serif" font-size="10" x="464.1807" y="827.7041">Sends</text><text fill="#000000" font-family="sans-serif" font-size="10" font-weight="700" x="497.7549" y="827.7041">Integrity Token (JWT)</text><polygon fill="#000000" points="717.7695,867.7031,727.7695,871.7031,717.7695,875.7031,721.7695,871.7031" style="stroke:#000000;stroke-width:1;"/><line style="stroke:#000000;stroke-width:1;" x1="447.1807" x2="723.7695" y1="871.7031" y2="871.7031"/><text fill="#000000" font-family="sans-serif" font-size="10" font-weight="700" x="454.1807" y="867.3447">Completes DCR (Completion Request)</text><path d="M447.1875,884.7031 L447.1875,1033.7031 L729.1875,1033.7031 L729.1875,894.7031 L719.1875,884.7031 L447.1875,884.7031" fill="#FEFFDD" style="stroke:#181818;stroke-width:0.5;"/><path d="M719.1875,884.7031 L719.1875,894.7031 L729.1875,894.7031 L719.1875,884.7031" fill="#FEFFDD" style="stroke:#181818;stroke-width:0.5;"/><text fill="#000000" font-family="sans-serif" font-size="10" font-weight="700" x="453.1875" y="898.9854">POST /register</text><text fill="#000000" font-family="sans-serif" font-size="10" x="453.1875" y="910.626">Content-Type: application/json</text><text fill="#000000" font-family="sans-serif" font-size="10" x="453.1875" y="922.2666">&#160;</text><text fill="#000000" font-family="sans-serif" font-size="10" x="453.1875" y="933.9072">{</text><text fill="#000000" font-family="sans-serif" font-size="10" x="459.5449" y="945.5479">"dcr_session_id": "urn:tx:1a2b3c4d",</text><text fill="#000000" font-family="sans-serif" font-size="10" x="459.5449" y="957.1885">"otp": "123456",</text><text fill="#000000" font-family="sans-serif" font-size="10" x="459.5449" y="968.8291">"attestation_format": "apple-app-attest",</text><text fill="#000000" font-family="sans-serif" font-size="10" x="459.5449" y="980.4697">"attestation": "&lt;base64_attestation_object&gt;",</text><text fill="#000000" font-family="sans-serif" font-size="10" x="459.5449" y="992.1104">"jwks": { "keys": [ ... ] },</text><text fill="#000000" font-family="sans-serif" font-size="10" x="459.5449" y="1003.751">"token_endpoint_auth_method": "private_key_jwt",</text><text fill="#000000" font-family="sans-serif" font-size="10" x="459.5449" y="1015.3916">"redirect_uris": [ "com.myapp:/callback" ]</text><text fill="#000000" font-family="sans-serif" font-size="10" x="453.1875" y="1027.0322">}</text><line style="stroke:#000000;stroke-width:1;" x1="739.7695" x2="781.7695" y1="1071.0313" y2="1071.0313"/><line style="stroke:#000000;stroke-width:1;" x1="781.7695" x2="781.7695" y1="1071.0313" y2="1084.0313"/><line style="stroke:#000000;stroke-width:1;" x1="740.7695" x2="781.7695" y1="1084.0313" y2="1084.0313"/><polygon fill="#000000" points="750.7695,1080.0313,740.7695,1084.0313,750.7695,1088.0313,746.7695,1084.0313" style="stroke:#000000;stroke-width:1;"/><text fill="#000000" font-family="sans-serif" font-size="10" x="746.7695" y="1066.6729">Validates OTP,</text><text fill="#000000" font-family="sans-serif" font-size="10" font-weight="700" x="822.5996" y="1066.6729">then</text><text fill="#000000" font-family="sans-serif" font-size="10" x="851.5791" y="1066.6729">validates the attestation proof.</text><path d="M153.6768,1096.0313 L213.6328,1096.0313 L213.6328,1099.6719 L203.6328,1109.6719 L153.6768,1109.6719 L153.6768,1096.0313" fill="#EEEEEE" style="stroke:#000000;stroke-width:1.5;"/><rect fill="none" height="420.7344" style="stroke:#000000;stroke-width:1.5;" width="597.0928" x="153.6768" y="1096.0313"/><text fill="#000000" font-family="sans-serif" font-size="10" font-weight="700" x="168.6768" y="1106.3135">alt</text><text fill="#000000" font-family="sans-serif" font-size="10" font-weight="700" x="228.6328" y="1107.3135">[Successful Validation]</text><line style="stroke:#000000;stroke-width:1;stroke-dasharray:2,2;" x1="153.6768" x2="750.7695" y1="1345.3594" y2="1345.3594"/><text fill="#000000" font-family="sans-serif" font-size="10" font-weight="700" x="158.6768" y="1356.6416">[Failed Validation]</text><polygon fill="#000000" points="458.1807,1133.3125,448.1807,1137.3125,458.1807,1141.3125,454.1807,1137.3125" style="stroke:#000000;stroke-width:1;"/><line style="stroke:#000000;stroke-width:1;stroke-dasharray:2,2;" x1="452.1807" x2="728.7695" y1="1137.3125" y2="1137.3125"/><text fill="#000000" font-family="sans-serif" font-size="10" font-weight="700" x="464.1807" y="1132.9541">Sends `client_id` (for this AuthS)</text><path d="M178.583,1150.3125 L178.583,1264.3125 L436.583,1264.3125 L436.583,1160.3125 L426.583,1150.3125 L178.583,1150.3125" fill="#FEFFDD" style="stroke:#181818;stroke-width:0.5;"/><path d="M426.583,1150.3125 L426.583,1160.3125 L436.583,1160.3125 L426.583,1150.3125" fill="#FEFFDD" style="stroke:#181818;stroke-width:0.5;"/><text fill="#000000" font-family="sans-serif" font-size="10" font-weight="700" x="184.583" y="1164.5947">201 Created</text><text fill="#000000" font-family="sans-serif" font-size="10" x="184.583" y="1176.2354">Content-Type: application/json</text><text fill="#000000" font-family="sans-serif" font-size="10" x="184.583" y="1187.876">&#160;</text><text fill="#000000" font-family="sans-serif" font-size="10" x="184.583" y="1199.5166">{</text><text fill="#000000" font-family="sans-serif" font-size="10" x="190.9404" y="1211.1572">"client_id": "client-id-for-auths1",</text><text fill="#000000" font-family="sans-serif" font-size="10" x="190.9404" y="1222.7979">"attestation_proof": "&lt;signed_jwt_as_proof&gt;",</text><text fill="#000000" font-family="sans-serif" font-size="10" x="190.9404" y="1234.4385">"client_id_issued_at": 1672531200,</text><text fill="#000000" font-family="sans-serif" font-size="10" x="190.9404" y="1246.0791">...</text><text fill="#000000" font-family="sans-serif" font-size="10" x="184.583" y="1257.7197">}</text><line style="stroke:#000000;stroke-width:1;" x1="447.1807" x2="489.1807" y1="1287.7188" y2="1287.7188"/><line style="stroke:#000000;stroke-width:1;" x1="489.1807" x2="489.1807" y1="1287.7188" y2="1300.7188"/><line style="stroke:#000000;stroke-width:1;" x1="448.1807" x2="489.1807" y1="1300.7188" y2="1300.7188"/><polygon fill="#000000" points="458.1807,1296.7188,448.1807,1300.7188,458.1807,1304.7188,454.1807,1300.7188" style="stroke:#000000;stroke-width:1;"/><text fill="#000000" font-family="sans-serif" font-size="10" x="454.1807" y="1283.3604">Securely stores `client_id` and `Attestation Proof JWT`</text><polygon fill="#000000" points="240.9434,1322.3594,230.9434,1326.3594,240.9434,1330.3594,236.9434,1326.3594" style="stroke:#000000;stroke-width:1;"/><line style="stroke:#000000;stroke-width:1;stroke-dasharray:2,2;" x1="234.9434" x2="436.1807" y1="1326.3594" y2="1326.3594"/><text fill="#000000" font-family="sans-serif" font-size="10" x="246.9434" y="1322.001">Registration successful</text><polygon fill="#000000" points="458.1807,1377.6406,448.1807,1381.6406,458.1807,1385.6406,454.1807,1381.6406" style="stroke:#000000;stroke-width:1;"/><line style="stroke:#000000;stroke-width:1;stroke-dasharray:2,2;" x1="452.1807" x2="733.7695" y1="1381.6406" y2="1381.6406"/><text fill="#000000" font-family="sans-serif" font-size="10" x="464.1807" y="1377.2822">Sends error message</text><path d="M174.6768,1394.6406 L174.6768,1485.6406 L436.6768,1485.6406 L436.6768,1404.6406 L426.6768,1394.6406 L174.6768,1394.6406" fill="#FEFFDD" style="stroke:#181818;stroke-width:0.5;"/><path d="M426.6768,1394.6406 L426.6768,1404.6406 L436.6768,1404.6406 L426.6768,1394.6406" fill="#FEFFDD" style="stroke:#181818;stroke-width:0.5;"/><text fill="#000000" font-family="sans-serif" font-size="10" font-weight="700" x="180.6768" y="1408.9229">400 Bad Request</text><text fill="#000000" font-family="sans-serif" font-size="10" x="180.6768" y="1420.5635">Content-Type: application/json</text><text fill="#000000" font-family="sans-serif" font-size="10" x="180.6768" y="1432.2041">&#160;</text><text fill="#000000" font-family="sans-serif" font-size="10" x="180.6768" y="1443.8447">{</text><text fill="#000000" font-family="sans-serif" font-size="10" x="187.0342" y="1455.4854">"error": "invalid_request",</text><text fill="#000000" font-family="sans-serif" font-size="10" x="187.0342" y="1467.126">"error_description": "OTP is invalid or expired."</text><text fill="#000000" font-family="sans-serif" font-size="10" x="180.6768" y="1478.7666">}</text><polygon fill="#000000" points="240.9434,1504.7656,230.9434,1508.7656,240.9434,1512.7656,236.9434,1508.7656" style="stroke:#000000;stroke-width:1;"/><line style="stroke:#000000;stroke-width:1;stroke-dasharray:2,2;" x1="234.9434" x2="436.1807" y1="1508.7656" y2="1508.7656"/><text fill="#000000" font-family="sans-serif" font-size="10" x="246.9434" y="1504.4072">Registration failed</text><rect fill="#EEEEEE" height="3" style="stroke:#EEEEEE;stroke-width:1;" width="1471.9404" x="10" y="1549.5859"/><line style="stroke:#000000;stroke-width:1;" x1="10" x2="1481.9404" y1="1549.5859" y2="1549.5859"/><line style="stroke:#000000;stroke-width:1;" x1="10" x2="1481.9404" y1="1552.5859" y2="1552.5859"/><rect fill="#EEEEEE" height="19.6406" style="stroke:#000000;stroke-width:2;" width="309.9473" x="590.9966" y="1540.7656"/><text fill="#000000" font-family="sans-serif" font-size="10" font-weight="700" x="596.9966" y="1554.0479">Phase 2: Subsequent Registration at another AuthS</text><polygon fill="#000000" points="212.9434,1584.0469,222.9434,1588.0469,212.9434,1592.0469,216.9434,1588.0469" style="stroke:#000000;stroke-width:1;"/><line style="stroke:#000000;stroke-width:1;" x1="29" x2="218.9434" y1="1588.0469" y2="1588.0469"/><text fill="#000000" font-family="sans-serif" font-size="10" x="36" y="1583.6885">Initiates action requiring `AuthS2`</text><polygon fill="#000000" points="425.1807,1609.6875,435.1807,1613.6875,425.1807,1617.6875,429.1807,1613.6875" style="stroke:#000000;stroke-width:1;"/><line style="stroke:#000000;stroke-width:1;" x1="234.9434" x2="431.1807" y1="1613.6875" y2="1613.6875"/><text fill="#000000" font-family="sans-serif" font-size="10" x="241.9434" y="1609.3291">Delegates registration at `AuthS2`</text><polygon fill="#000000" points="1143.71,1635.3281,1153.71,1639.3281,1143.71,1643.3281,1147.71,1639.3281" style="stroke:#000000;stroke-width:1;"/><line style="stroke:#000000;stroke-width:1;" x1="447.1807" x2="1149.71" y1="1639.3281" y2="1639.3281"/><text fill="#000000" font-family="sans-serif" font-size="10" x="454.1807" y="1634.9697">Starts DCR</text><path d="M873.1279,1652.3281 L873.1279,1766.3281 L1155.1279,1766.3281 L1155.1279,1662.3281 L1145.1279,1652.3281 L873.1279,1652.3281" fill="#FEFFDD" style="stroke:#181818;stroke-width:0.5;"/><path d="M1145.1279,1652.3281 L1145.1279,1662.3281 L1155.1279,1662.3281 L1145.1279,1652.3281" fill="#FEFFDD" style="stroke:#181818;stroke-width:0.5;"/><text fill="#000000" font-family="sans-serif" font-size="10" font-weight="700" x="879.1279" y="1666.6104">POST /register</text><text fill="#000000" font-family="sans-serif" font-size="10" x="879.1279" y="1678.251">Content-Type: application/json</text><text fill="#000000" font-family="sans-serif" font-size="10" x="879.1279" y="1689.8916">&#160;</text><text fill="#000000" font-family="sans-serif" font-size="10" x="879.1279" y="1701.5322">{</text><text fill="#000000" font-family="sans-serif" font-size="10" x="885.4854" y="1713.1729">"attestation_proof": "&lt;the_jwt_from_phase_1&gt;",</text><text fill="#000000" font-family="sans-serif" font-size="10" x="885.4854" y="1724.8135">"jwks": { "keys": [ ... ] },</text><text fill="#000000" font-family="sans-serif" font-size="10" x="885.4854" y="1736.4541">"token_endpoint_auth_method": "private_key_jwt",</text><text fill="#000000" font-family="sans-serif" font-size="10" x="885.4854" y="1748.0947">"redirect_uris": [ "com.myapp:/callback" ]</text><text fill="#000000" font-family="sans-serif" font-size="10" x="879.1279" y="1759.7354">}</text><polygon fill="#000000" points="1429.4517,1785.7344,1439.4517,1789.7344,1429.4517,1793.7344,1433.4517,1789.7344" style="stroke:#000000;stroke-width:1;"/><line style="stroke:#000000;stroke-width:1;" x1="1165.71" x2="1435.4517" y1="1789.7344" y2="1789.7344"/><text fill="#000000" font-family="sans-serif" font-size="10" x="1172.71" y="1785.376">Retrieves public signing key from `AuthS`</text><polygon fill="#000000" points="1176.71,1811.375,1166.71,1815.375,1176.71,1819.375,1172.71,1815.375" style="stroke:#000000;stroke-width:1;"/><line style="stroke:#000000;stroke-width:1;stroke-dasharray:2,2;" x1="1170.71" x2="1440.4517" y1="1815.375" y2="1815.375"/><text fill="#000000" font-family="sans-serif" font-size="10" x="1182.71" y="1811.0166">Sends key material</text><line style="stroke:#000000;stroke-width:1;" x1="1165.71" x2="1207.71" y1="1841.0156" y2="1841.0156"/><line style="stroke:#000000;stroke-width:1;" x1="1207.71" x2="1207.71" y1="1841.0156" y2="1854.0156"/><line style="stroke:#000000;stroke-width:1;" x1="1166.71" x2="1207.71" y1="1854.0156" y2="1854.0156"/><polygon fill="#000000" points="1176.71,1850.0156,1166.71,1854.0156,1176.71,1858.0156,1172.71,1854.0156" style="stroke:#000000;stroke-width:1;"/><text fill="#000000" font-family="sans-serif" font-size="10" x="1172.71" y="1836.6572">Validates the `Attestation Proof JWT`</text><path d="M212.5977,1866.0156 L272.5537,1866.0156 L272.5537,1869.6563 L262.5537,1879.6563 L212.5977,1879.6563 L212.5977,1866.0156" fill="#EEEEEE" style="stroke:#000000;stroke-width:1.5;"/><rect fill="none" height="307.6094" style="stroke:#000000;stroke-width:1.5;" width="964.1123" x="212.5977" y="1866.0156"/><text fill="#000000" font-family="sans-serif" font-size="10" font-weight="700" x="227.5977" y="1876.2979">alt</text><text fill="#000000" font-family="sans-serif" font-size="10" font-weight="700" x="287.5537" y="1877.2979">[Successful Validation]</text><line style="stroke:#000000;stroke-width:1;stroke-dasharray:2,2;" x1="212.5977" x2="1176.71" y1="2103.7031" y2="2103.7031"/><text fill="#000000" font-family="sans-serif" font-size="10" font-weight="700" x="217.5977" y="2114.9854">[Failed Validation]</text><polygon fill="#000000" points="458.1807,1903.2969,448.1807,1907.2969,458.1807,1911.2969,454.1807,1907.2969" style="stroke:#000000;stroke-width:1;"/><line style="stroke:#000000;stroke-width:1;stroke-dasharray:2,2;" x1="452.1807" x2="1154.71" y1="1907.2969" y2="1907.2969"/><text fill="#000000" font-family="sans-serif" font-size="10" font-weight="700" x="464.1807" y="1902.9385">Sends new `client_id` (for AuthS2)</text><path d="M233.5977,1920.2969 L233.5977,2023.2969 L436.5977,2023.2969 L436.5977,1930.2969 L426.5977,1920.2969 L233.5977,1920.2969" fill="#FEFFDD" style="stroke:#181818;stroke-width:0.5;"/><path d="M426.5977,1920.2969 L426.5977,1930.2969 L436.5977,1930.2969 L426.5977,1920.2969" fill="#FEFFDD" style="stroke:#181818;stroke-width:0.5;"/><text fill="#000000" font-family="sans-serif" font-size="10" font-weight="700" x="239.5977" y="1934.5791">201 Created</text><text fill="#000000" font-family="sans-serif" font-size="10" x="239.5977" y="1946.2197">Content-Type: application/json</text><text fill="#000000" font-family="sans-serif" font-size="10" x="239.5977" y="1957.8604">&#160;</text><text fill="#000000" font-family="sans-serif" font-size="10" x="239.5977" y="1969.501">{</text><text fill="#000000" font-family="sans-serif" font-size="10" x="245.9551" y="1981.1416">"client_id": "client-id-for-auths2",</text><text fill="#000000" font-family="sans-serif" font-size="10" x="245.9551" y="1992.7822">"client_id_issued_at": 1672535000,</text><text fill="#000000" font-family="sans-serif" font-size="10" x="245.9551" y="2004.4229">...</text><text fill="#000000" font-family="sans-serif" font-size="10" x="239.5977" y="2016.0635">}</text><line style="stroke:#000000;stroke-width:1;" x1="447.1807" x2="489.1807" y1="2046.0625" y2="2046.0625"/><line style="stroke:#000000;stroke-width:1;" x1="489.1807" x2="489.1807" y1="2046.0625" y2="2059.0625"/><line style="stroke:#000000;stroke-width:1;" x1="448.1807" x2="489.1807" y1="2059.0625" y2="2059.0625"/><polygon fill="#000000" points="458.1807,2055.0625,448.1807,2059.0625,458.1807,2063.0625,454.1807,2059.0625" style="stroke:#000000;stroke-width:1;"/><text fill="#000000" font-family="sans-serif" font-size="10" x="454.1807" y="2041.7041">Stores the new `client_id`</text><polygon fill="#000000" points="245.9434,2080.7031,235.9434,2084.7031,245.9434,2088.7031,241.9434,2084.7031" style="stroke:#000000;stroke-width:1;"/><line style="stroke:#000000;stroke-width:1;stroke-dasharray:2,2;" x1="239.9434" x2="436.1807" y1="2084.7031" y2="2084.7031"/><text fill="#000000" font-family="sans-serif" font-size="10" x="251.9434" y="2080.3447">Registration at `AuthS2` successful</text><polygon fill="#000000" points="458.1807,2135.9844,448.1807,2139.9844,458.1807,2143.9844,454.1807,2139.9844" style="stroke:#000000;stroke-width:1;"/><line style="stroke:#000000;stroke-width:1;stroke-dasharray:2,2;" x1="452.1807" x2="1154.71" y1="2139.9844" y2="2139.9844"/><text fill="#000000" font-family="sans-serif" font-size="10" x="464.1807" y="2135.626">Sends error message</text><polygon fill="#000000" points="245.9434,2161.625,235.9434,2165.625,245.9434,2169.625,241.9434,2165.625" style="stroke:#000000;stroke-width:1;"/><line style="stroke:#000000;stroke-width:1;stroke-dasharray:2,2;" x1="239.9434" x2="436.1807" y1="2165.625" y2="2165.625"/><text fill="#000000" font-family="sans-serif" font-size="10" x="251.9434" y="2161.2666">Registration at `AuthS2` failed</text><rect fill="#EEEEEE" height="3" style="stroke:#EEEEEE;stroke-width:1;" width="1471.9404" x="10" y="2206.4453"/><line style="stroke:#000000;stroke-width:1;" x1="10" x2="1481.9404" y1="2206.4453" y2="2206.4453"/><line style="stroke:#000000;stroke-width:1;" x1="10" x2="1481.9404" y1="2209.4453" y2="2209.4453"/><rect fill="#EEEEEE" height="19.6406" style="stroke:#000000;stroke-width:2;" width="323.585" x="584.1777" y="2197.625"/><text fill="#000000" font-family="sans-serif" font-size="10" font-weight="700" x="590.1777" y="2210.9072">Phase 3: OIDC/OAuth Flow (Delegation to ZETA Client)</text><polygon fill="#000000" points="425.1807,2240.9063,435.1807,2244.9063,425.1807,2248.9063,429.1807,2244.9063" style="stroke:#000000;stroke-width:1;"/><line style="stroke:#000000;stroke-width:1;" x1="229.9434" x2="431.1807" y1="2244.9063" y2="2244.9063"/><text fill="#000000" font-family="sans-serif" font-size="10" x="236.9434" y="2240.5479">Requests Access Token for a service</text><polygon fill="#000000" points="1148.71,2266.5469,1158.71,2270.5469,1148.71,2274.5469,1152.71,2270.5469" style="stroke:#000000;stroke-width:1;"/><line style="stroke:#000000;stroke-width:1;" x1="447.1807" x2="1154.71" y1="2270.5469" y2="2270.5469"/><text fill="#000000" font-family="sans-serif" font-size="10" x="454.1807" y="2266.1885">Performs OIDC Flow</text><polygon fill="#000000" points="458.1807,2292.1875,448.1807,2296.1875,458.1807,2300.1875,454.1807,2296.1875" style="stroke:#000000;stroke-width:1;"/><line style="stroke:#000000;stroke-width:1;stroke-dasharray:2,2;" x1="452.1807" x2="1159.71" y1="2296.1875" y2="2296.1875"/><text fill="#000000" font-family="sans-serif" font-size="10" x="464.1807" y="2291.8291">Sends Access Token</text><polygon fill="#000000" points="240.9434,2317.8281,230.9434,2321.8281,240.9434,2325.8281,236.9434,2321.8281" style="stroke:#000000;stroke-width:1;"/><line style="stroke:#000000;stroke-width:1;stroke-dasharray:2,2;" x1="234.9434" x2="436.1807" y1="2321.8281" y2="2321.8281"/><text fill="#000000" font-family="sans-serif" font-size="10" x="246.9434" y="2317.4697">Returns Access Token</text><line style="stroke:#000000;stroke-width:1;" x1="229.9434" x2="271.9434" y1="2347.4688" y2="2347.4688"/><line style="stroke:#000000;stroke-width:1;" x1="271.9434" x2="271.9434" y1="2347.4688" y2="2360.4688"/><line style="stroke:#000000;stroke-width:1;" x1="230.9434" x2="271.9434" y1="2360.4688" y2="2360.4688"/><polygon fill="#000000" points="240.9434,2356.4688,230.9434,2360.4688,240.9434,2364.4688,236.9434,2360.4688" style="stroke:#000000;stroke-width:1;"/><text fill="#000000" font-family="sans-serif" font-size="10" x="236.9434" y="2343.1104">Uses Access Token for API calls</text><?plantuml-src pLXjRzis4FwkNt5pWJKnQiTsqWmmbc99t6JPrjgetHRhMYYqHDjCP54ZgIHUqV--8waNoY-9qmxRyi6nnBlZyUwvvux-ZiL1b8OKciszY2nugff9EeyyxpXGNC1RIOKtvdTGUyN7BABGepSie3LuSZxZKhsVCKKz02CnjnB7IHAnW2Z6unek0IH4A1QmXCGAQkug40bd99YTHepYsfCUfSdmUd4IfNHLySFBqJ5OoO_nph3twwxH_q0LoVM790uN9uBVngXEur2xvUN_xIa6Wj-ma0eymEZbwS-l-x_rptytcvbbiybvIaG8xTgIGVld-dISgjbGEr4xOq9cpxMreeFUe7TYHF4Rz4wir8gFrL0fHQKoeVeO3wcmWKSRk90zFlfKdIrFrJ6-FdIWpYDFT4RHINCW-1Y_8b9fbpK8Q6YVFE_e20Op8Ycqkt0HCyL816_eb4cLAUxqQ4IdzhlYuC1Y5uwEF8y4YjqGHHraU377Py6cCmLyuYu0D60qewuLO18IGHi1ZoTicWeQmYrJCr0ebc8rF9L0vuH5GC9GK2cRZpNYL03QmYKcQA3yLB2c2PjsrlEcWgS9Ha3HAHuSzKVzixVG7mtWBEAti9DGCU5YZWlZHIK89WrFOQXeKiPGRsOMd79flB2fxaAzFbIO9WczqpUmKsfWuFzC4OAxzRfHDc6CwCH4qUXcqAZN1_tX2FQ4IHGLcJp0ASS3nAenMYIq2wGy-TwLv3dyid-V2vpLJ81hNQZfWFz4xyWyYMWpuFFQirB8iUOhjA_bOtoyeJbYlnIGD37L3mKwIlTj5PVHEAUn1YcL9jfOAt0P1iANc6kz5GilgsgQ8aqCSIEhOpCQBU264GkMB22P3YgLUT2gRwXCkDOs85dURbtqAnYsAUYqsd0gg0RBjyQ_we19X8YxwgxR9ftnVd0GkdcWTmcUL_eiHi73LcjpyDSWiAJ_BWpPD2QHnDtU4uHWF0L4k0aeYvDKsQo6T5s15zPrCfRjliGO26bg3_D24I2XjchadVQpb9K1aJB30D8COWyXg5d4uQ8geXntt1hieAc8A5siZM520pPX0JZK3jzZbepnmcA4_D4VQgA07VrXfNUBa2yLST4Dkdd1oie6EsjHfNatc94eel6KbhRB0YcRJBvMlbh1i0L_lUxksnzVOHaKMApaRiawZP3nZ-DGS1RQSsFC5XdzCRNOU7PRiiMnN_FOzNTjkUMk6bd7kosYMlW38tvDyyWMflwnAAxiyylxqUvsWOp3JQLMa7q6DvhnVOc-_upl7yKtN2LQejtPFtX-M6a89VPyNMv4QJdj16tWPyEkRz3GeZ-ESV0uFF1TGzo0-8MhTNLxBL7yCzIkwK9_-mE7voPyWY-EaDA9yp4T2MUnyWb6pvzJDUFcU8amsVFHW7zrM_797GYiyHgIJtE-m2Dqzm8is349hclmQJtFQW1uootj7ObOcBUqPvW-vCAuNeURuhqcH-VOEBnmFcbwceg6QH1WRYPfbDl9YMfJExCmlWpC2yCrEvh9rGod8gEp---tjC8P7Nxxq61X0_rgwDp8zYOacKWOT4ZiJpJK-VA9jEyhk2Ysy9cKAKeQ0BOFV-WytsztMgrI5E6okKkwnLtKNBMKgvmHu7o9muR4-ngjXjqCBoub3xJJW6nokM9rgMbMPcvPGC0pJ7s68mqsqQtWOC50XK04pD48cTAjSd_GQi492NDE-kQHKZkWqyXYWtfVMBkLIKRB-26LWM19JWfc_f2GgG6UmWuyORFs3JcyBzeJ4ztC3hxb2pS-ki3N3q7EszAsSwF2IMIOZgK-DxfGsP8en0f74X1P5lLDQjqibLqE46TwBzJKOMH23skNzk9uwQtpOlESbLtdgAoCLjgZLOFkYBMckUa35XSPRxLxTRmrZUi1F7aQGni80UDbs60Y-DnFT8pzjcM41th4LtI7H_I5B-Krieh2JjOPEYQh-PrReqy9Hcym1KawnkE3PZgTKdG0zE6oLBYfBMxinJS3wY8FfkgrFhPXAl0MNu5dUTyl7SfLtrMQqYRwsg8pTJQsffZUhhOdg_C_R4sTRPlCyzRMJUQUVcBRY8xzKfWUHM9E_JwcVNIsxXzVuqZ6h4iKcjN6rv7gVXVw5xtJlRwsalqsyy0lL9kviBo-cO1bqxy69m6PJVdhd7ngo6NvDwZi9oARo-82gxqrH-Q2_MMTFEKXjQwZcQUPjGi5WS6trSzi7kEbM6YbPzW6yVg8TyVSFjemKvxsMUAo2fhMtdgc7kJU6OVqxjwz2713ujsRV8MNXoNvzRcj9i8rybPV_LUIS3ou04sqqliR?></g></svg>