<?plantuml 1.2026.1?><svg xmlns="http://www.w3.org/2000/svg" xmlns:xlink="http://www.w3.org/1999/xlink" contentStyleType="text/css" data-diagram-type="SEQUENCE" height="2457px" preserveAspectRatio="none" style="width:1483px;height:2457px;background:#FFFFFF;" version="1.1" viewBox="0 0 1483 2457" width="1483px" zoomAndPan="magnify"><defs/><g><rect fill="#F8F8FF" height="2445.1094" style="stroke:#181818;stroke-width:0.5;" width="291.2979" x="186.0063" y="6"/><text fill="#000000" font-family="sans-serif" font-size="10" font-weight="bold" x="292.2363" y="15.2822">Mobile Device</text><rect fill="#DDDDDD" height="2428.4688" style="stroke:#181818;stroke-width:0.5;" width="291.2979" x="186.0063" y="22.6406"/><text fill="#000000" font-family="sans-serif" font-size="10" font-weight="bold" x="278.9795" y="31.9229">mobile Application</text><rect fill="#C9FFC9" height="2445.1094" style="stroke:#181818;stroke-width:0.5;" width="347.167" x="691.4014" y="6"/><text fill="#000000" font-family="sans-serif" font-size="10" font-weight="bold" x="841.0103" y="15.2822">Provider</text><rect fill="#F4A460" height="2428.4688" style="stroke:#181818;stroke-width:0.5;" width="347.167" x="691.4014" y="22.6406"/><text fill="#000000" font-family="sans-serif" font-size="10" font-weight="bold" x="826.6206" y="31.9229">ZETA Guard 1</text><rect fill="#C9FFC9" height="2445.1094" style="stroke:#181818;stroke-width:0.5;" width="260.1455" x="1129.8174" y="6"/><text fill="#000000" font-family="sans-serif" font-size="10" font-weight="bold" x="1235.9155" y="15.2822">Provider</text><rect fill="#F4A460" height="2428.4688" style="stroke:#181818;stroke-width:0.5;" width="260.1455" x="1129.8174" y="22.6406"/><text fill="#000000" font-family="sans-serif" font-size="10" font-weight="bold" x="1221.5259" y="31.9229">ZETA Guard 2</text><g><title>User</title><rect fill="#000000" fill-opacity="0.00000" height="2263.5469" width="8" x="20.5" y="109.9219"/><line style="stroke:#000000;stroke-width:0.5;stroke-dasharray:5,5;" x1="24" x2="24" y1="109.9219" y2="2373.4688"/></g><g><title>Application</title><rect fill="#000000" fill-opacity="0.00000" height="2263.5469" width="8" x="221.4434" y="109.9219"/><line style="stroke:#000000;stroke-width:0.5;stroke-dasharray:5,5;" x1="224.9434" x2="224.9434" y1="109.9219" y2="2373.4688"/></g><g><title/><rect fill="#F0F0F0" height="604.5781" style="stroke:#181818;stroke-width:1;" width="10" x="219.9434" y="1583.0469"/></g><g><title>ZETA Client</title><rect fill="#000000" fill-opacity="0.00000" height="2263.5469" width="8" x="433.6807" y="109.9219"/><line style="stroke:#000000;stroke-width:0.5;stroke-dasharray:5,5;" x1="437.1807" x2="437.1807" y1="109.9219" y2="2373.4688"/></g><g><title/><rect fill="#F0F0F0" height="407.0938" style="stroke:#181818;stroke-width:1;" width="10" x="432.1807" y="157.5625"/></g><g><title/><rect fill="#F0F0F0" height="887.8281" style="stroke:#181818;stroke-width:1;" width="10" x="432.1807" y="615.9375"/></g><line style="stroke:#000000;stroke-width:2;" x1="428.1807" x2="446.1807" y1="1494.7656" y2="1512.7656"/><line style="stroke:#000000;stroke-width:2;" x1="428.1807" x2="446.1807" y1="1512.7656" y2="1494.7656"/><g><title/><rect fill="#F0F0F0" height="578.9375" style="stroke:#181818;stroke-width:1;" width="10" x="432.1807" y="1608.6875"/></g><g><title/><rect fill="#F0F0F0" height="76.9219" style="stroke:#181818;stroke-width:1;" width="10" x="432.1807" y="2239.9063"/></g><g><title>First AuthS</title><rect fill="#000000" fill-opacity="0.00000" height="2263.5469" width="8" x="726.2695" y="109.9219"/><line style="stroke:#000000;stroke-width:0.5;stroke-dasharray:5,5;" x1="729.7695" x2="729.7695" y1="109.9219" y2="2373.4688"/></g><g><title/><rect fill="#F0F0F0" height="886.1875" style="stroke:#181818;stroke-width:1;" width="10" x="724.7695" y="246.125"/></g><g><title>PDP DB</title><rect fill="#000000" fill-opacity="0.00000" height="2263.5469" width="8" x="1005.3184" y="109.9219"/><line style="stroke:#000000;stroke-width:0.5;stroke-dasharray:5,5;" x1="1008.8184" x2="1008.8184" y1="109.9219" y2="2373.4688"/></g><g><title>Attestation</title><rect fill="#000000" fill-opacity="0.00000" height="2263.5469" width="8" x="1085.6929" y="109.9219"/><line style="stroke:#000000;stroke-width:0.5;stroke-dasharray:5,5;" x1="1089.1929" x2="1089.1929" y1="109.9219" y2="2373.4688"/></g><g><title/><rect fill="#F0F0F0" height="25.6406" style="stroke:#181818;stroke-width:1;" width="10" x="1084.1929" y="669.2188"/></g><g><title/><rect fill="#F0F0F0" height="25.6406" style="stroke:#181818;stroke-width:1;" width="10" x="1084.1929" y="801.4219"/></g><g><title>AuthS</title><rect fill="#000000" fill-opacity="0.00000" height="2263.5469" width="8" x="1152.21" y="109.9219"/><line style="stroke:#000000;stroke-width:0.5;stroke-dasharray:5,5;" x1="1155.71" x2="1155.71" y1="109.9219" y2="2373.4688"/></g><g><title/><rect fill="#F0F0F0" height="553.2969" style="stroke:#181818;stroke-width:1;" width="10" x="1150.71" y="1634.3281"/></g><g><title>PDP DB</title><rect fill="#000000" fill-opacity="0.00000" height="2263.5469" width="8" x="1356.7129" y="109.9219"/><line style="stroke:#000000;stroke-width:0.5;stroke-dasharray:5,5;" x1="1360.2129" x2="1360.2129" y1="109.9219" y2="2373.4688"/></g><g><title>Federation </title><rect fill="#000000" fill-opacity="0.00000" height="2263.5469" width="8" x="1437.9517" y="109.9219"/><line style="stroke:#000000;stroke-width:0.5;stroke-dasharray:5,5;" x1="1441.4517" x2="1441.4517" y1="109.9219" y2="2373.4688"/></g><g><title/><rect fill="#F0F0F0" height="25.6406" style="stroke:#181818;stroke-width:1;" width="10" x="1436.4517" y="1784.7344"/></g><text fill="#000000" font-family="sans-serif" font-size="10" x="9.6035" y="107.5635">User</text><ellipse cx="24" cy="46.7813" fill="#FFFFFF" rx="8" ry="8" style="stroke:#000000;stroke-width:0.5;"/><path d="M24,54.7813 L24,81.7813 M11,62.7813 L37,62.7813 M24,81.7813 L11,96.7813 M24,81.7813 L37,96.7813" fill="none" style="stroke:#000000;stroke-width:0.5;"/><rect fill="#00BFFF" height="25.6406" rx="2.5" ry="2.5" style="stroke:#000000;stroke-width:0.5;" width="69.874" x="190.0063" y="83.2813"/><text fill="#000000" font-family="sans-serif" font-size="10" x="197.0063" y="99.5635">Application</text><rect fill="#F4A460" height="37.2813" rx="2.5" ry="2.5" style="stroke:#000000;stroke-width:0.5;" width="72.2471" x="401.0571" y="71.6406"/><text fill="#000000" font-family="sans-serif" font-size="10" x="408.0571" y="87.9229">ZETA Client</text><text fill="#000000" font-family="sans-serif" font-size="10" x="422.9766" y="99.5635">(SDK)</text><rect fill="#FFFFFF" height="25.6406" rx="2.5" ry="2.5" style="stroke:#000000;stroke-width:0.5;" width="68.7363" x="695.4014" y="83.2813"/><text fill="#000000" font-family="sans-serif" font-size="10" x="702.4014" y="99.5635">First AuthS</text><rect fill="#FFFFFF" height="25.6406" rx="2.5" ry="2.5" style="stroke:#000000;stroke-width:0.5;" width="51.5" x="983.0684" y="83.2813"/><text fill="#000000" font-family="sans-serif" font-size="10" x="990.0684" y="99.5635">PDP DB</text><rect fill="#FFFFFF" height="37.2813" rx="2.5" ry="2.5" style="stroke:#000000;stroke-width:0.5;" width="69.249" x="1054.5684" y="71.6406"/><text fill="#000000" font-family="sans-serif" font-size="10" x="1061.5684" y="87.9229">Attestation</text><text fill="#000000" font-family="sans-serif" font-size="10" x="1070.7139" y="99.5635">Service</text><rect fill="#FFFFFF" height="25.6406" rx="2.5" ry="2.5" style="stroke:#000000;stroke-width:0.5;" width="43.7852" x="1133.8174" y="83.2813"/><text fill="#000000" font-family="sans-serif" font-size="10" x="1140.8174" y="99.5635">AuthS</text><rect fill="#FFFFFF" height="25.6406" rx="2.5" ry="2.5" style="stroke:#000000;stroke-width:0.5;" width="51.5" x="1334.4629" y="83.2813"/><text fill="#000000" font-family="sans-serif" font-size="10" x="1341.4629" y="99.5635">PDP DB</text><rect fill="#FFFFFF" height="37.2813" rx="2.5" ry="2.5" style="stroke:#000000;stroke-width:0.5;" width="70.9775" x="1405.9629" y="71.6406"/><text fill="#000000" font-family="sans-serif" font-size="10" x="1412.9629" y="87.9229">Federation</text><text fill="#000000" font-family="sans-serif" font-size="10" x="1424.3765" y="99.5635">Master</text><text fill="#000000" font-family="sans-serif" font-size="10" x="9.6035" y="2442.751">User</text><ellipse cx="24" cy="2381.9688" fill="#FFFFFF" rx="8" ry="8" style="stroke:#000000;stroke-width:0.5;"/><path d="M24,2389.9688 L24,2416.9688 M11,2397.9688 L37,2397.9688 M24,2416.9688 L11,2431.9688 M24,2416.9688 L37,2431.9688" fill="none" style="stroke:#000000;stroke-width:0.5;"/><rect fill="#00BFFF" height="25.6406" rx="2.5" ry="2.5" style="stroke:#000000;stroke-width:0.5;" width="69.874" x="190.0063" y="2373.4688"/><text fill="#000000" font-family="sans-serif" font-size="10" x="197.0063" y="2389.751">Application</text><rect fill="#F4A460" height="37.2813" rx="2.5" ry="2.5" style="stroke:#000000;stroke-width:0.5;" width="72.2471" x="401.0571" y="2373.4688"/><text fill="#000000" font-family="sans-serif" font-size="10" x="408.0571" y="2389.751">ZETA Client</text><text fill="#000000" font-family="sans-serif" font-size="10" x="422.9766" y="2401.3916">(SDK)</text><rect fill="#FFFFFF" height="25.6406" rx="2.5" ry="2.5" style="stroke:#000000;stroke-width:0.5;" width="68.7363" x="695.4014" y="2373.4688"/><text fill="#000000" font-family="sans-serif" font-size="10" x="702.4014" y="2389.751">First AuthS</text><rect fill="#FFFFFF" height="25.6406" rx="2.5" ry="2.5" style="stroke:#000000;stroke-width:0.5;" width="51.5" x="983.0684" y="2373.4688"/><text fill="#000000" font-family="sans-serif" font-size="10" x="990.0684" y="2389.751">PDP DB</text><rect fill="#FFFFFF" height="37.2813" rx="2.5" ry="2.5" style="stroke:#000000;stroke-width:0.5;" width="69.249" x="1054.5684" y="2373.4688"/><text fill="#000000" font-family="sans-serif" font-size="10" x="1061.5684" y="2389.751">Attestation</text><text fill="#000000" font-family="sans-serif" font-size="10" x="1070.7139" y="2401.3916">Service</text><rect fill="#FFFFFF" height="25.6406" rx="2.5" ry="2.5" style="stroke:#000000;stroke-width:0.5;" width="43.7852" x="1133.8174" y="2373.4688"/><text fill="#000000" font-family="sans-serif" font-size="10" x="1140.8174" y="2389.751">AuthS</text><rect fill="#FFFFFF" height="25.6406" rx="2.5" ry="2.5" style="stroke:#000000;stroke-width:0.5;" width="51.5" x="1334.4629" y="2373.4688"/><text fill="#000000" font-family="sans-serif" font-size="10" x="1341.4629" y="2389.751">PDP DB</text><rect fill="#FFFFFF" height="37.2813" rx="2.5" ry="2.5" style="stroke:#000000;stroke-width:0.5;" width="70.9775" x="1405.9629" y="2373.4688"/><text fill="#000000" font-family="sans-serif" font-size="10" x="1412.9629" y="2389.751">Federation</text><text fill="#000000" font-family="sans-serif" font-size="10" x="1424.3765" y="2401.3916">Master</text><rect fill="#EEEEEE" height="3" style="stroke:#EEEEEE;stroke-width:1;" width="1471.9404" x="5" y="136.7422"/><line style="stroke:#000000;stroke-width:1;" x1="5" x2="1476.9404" y1="136.7422" y2="136.7422"/><line style="stroke:#000000;stroke-width:1;" x1="5" x2="1476.9404" y1="139.7422" y2="139.7422"/><rect fill="#EEEEEE" height="19.6406" style="stroke:#000000;stroke-width:2;" width="332.7744" x="574.583" y="127.9219"/><text fill="#000000" font-family="sans-serif" font-size="10" font-weight="bold" x="580.583" y="141.2041">Phase 1: Initial Registration (Delegation to ZETA Client)</text><path d="M447.1807,162.5625 L447.1807,195.5625 L817.1807,195.5625 L817.1807,172.5625 L807.1807,162.5625 L447.1807,162.5625" fill="#FEFFDD" style="stroke:#181818;stroke-width:0.5;"/><path d="M807.1807,162.5625 L807.1807,172.5625 L817.1807,172.5625 L807.1807,162.5625" fill="#FEFFDD" style="stroke:#181818;stroke-width:0.5;"/><text fill="#000000" font-family="sans-serif" font-size="10" x="453.1807" y="176.8447">- The ZETA Client is pre-configured with the user's email address.</text><text fill="#000000" font-family="sans-serif" font-size="10" x="453.1807" y="188.4854">- The ZETA Client is pre-configured with the Application's redirect_uri.</text><path d="M8,204.8438 L360.3438,204.8438 L360.3438,208.4844 L350.3438,218.4844 L8,218.4844 L8,204.8438" fill="#EEEEEE" style="stroke:#000000;stroke-width:1.5;"/><rect fill="none" height="829.5469" style="stroke:#000000;stroke-width:1.5;" width="1127.1929" x="8" y="204.8438"/><text fill="#000000" font-family="sans-serif" font-size="10" font-weight="bold" x="23" y="215.126">Integrated TOFU OTP Flow (performed by ZETA Client)</text><polygon fill="#000000" points="712.7695,242.125,722.7695,246.125,712.7695,250.125,716.7695,246.125" style="stroke:#000000;stroke-width:1;"/><line style="stroke:#000000;stroke-width:1;" x1="442.1807" x2="718.7695" y1="246.125" y2="246.125"/><text fill="#000000" font-family="sans-serif" font-size="10" font-weight="bold" x="449.1807" y="241.7666">Starts DCR (Initiation Request)</text><path d="M542.1436,259.125 L542.1436,350.125 L724.1436,350.125 L724.1436,269.125 L714.1436,259.125 L542.1436,259.125" fill="#FEFFDD" style="stroke:#181818;stroke-width:0.5;"/><path d="M714.1436,259.125 L714.1436,269.125 L724.1436,269.125 L714.1436,259.125" fill="#FEFFDD" style="stroke:#181818;stroke-width:0.5;"/><text fill="#000000" font-family="sans-serif" font-size="10" font-weight="bold" x="548.1436" y="273.4072">POST /register</text><text fill="#000000" font-family="sans-serif" font-size="10" x="548.1436" y="285.0479">Content-Type: application/json</text><text fill="#000000" font-family="sans-serif" font-size="10" x="548.1436" y="296.6885">&#160;</text><text fill="#000000" font-family="sans-serif" font-size="10" x="548.1436" y="308.3291">{</text><text fill="#000000" font-family="sans-serif" font-size="10" x="554.501" y="319.9697">"email": "user@example.com",</text><text fill="#000000" font-family="sans-serif" font-size="10" x="554.501" y="331.6104">"application_type": "native"</text><text fill="#000000" font-family="sans-serif" font-size="10" x="548.1436" y="343.251">}</text><line style="stroke:#000000;stroke-width:1;" x1="734.7695" x2="776.7695" y1="373.25" y2="373.25"/><line style="stroke:#000000;stroke-width:1;" x1="776.7695" x2="776.7695" y1="373.25" y2="386.25"/><line style="stroke:#000000;stroke-width:1;" x1="735.7695" x2="776.7695" y1="386.25" y2="386.25"/><polygon fill="#000000" points="745.7695,382.25,735.7695,386.25,745.7695,390.25,741.7695,386.25" style="stroke:#000000;stroke-width:1;"/><text fill="#000000" font-family="sans-serif" font-size="10" x="741.7695" y="368.8916">Generates OTP and `dcr_session_id`</text><polygon fill="#000000" points="35,407.8906,25,411.8906,35,415.8906,31,411.8906" style="stroke:#000000;stroke-width:1;"/><line style="stroke:#000000;stroke-width:1;" x1="29" x2="723.7695" y1="411.8906" y2="411.8906"/><text fill="#000000" font-family="sans-serif" font-size="10" font-weight="bold" x="41" y="407.5322">Sends OTP directly via email</text><polygon fill="#000000" points="453.1807,433.5313,443.1807,437.5313,453.1807,441.5313,449.1807,437.5313" style="stroke:#000000;stroke-width:1;"/><line style="stroke:#000000;stroke-width:1;stroke-dasharray:2,2;" x1="447.1807" x2="723.7695" y1="437.5313" y2="437.5313"/><text fill="#000000" font-family="sans-serif" font-size="10" font-weight="bold" x="459.1807" y="433.1729">Responds with `dcr_session_id`</text><path d="M221.4639,450.5313 L221.4639,541.5313 L431.4639,541.5313 L431.4639,460.5313 L421.4639,450.5313 L221.4639,450.5313" fill="#FEFFDD" style="stroke:#181818;stroke-width:0.5;"/><path d="M421.4639,450.5313 L421.4639,460.5313 L431.4639,460.5313 L421.4639,450.5313" fill="#FEFFDD" style="stroke:#181818;stroke-width:0.5;"/><text fill="#000000" font-family="sans-serif" font-size="10" font-weight="bold" x="227.4639" y="464.8135">201 Created</text><text fill="#000000" font-family="sans-serif" font-size="10" x="227.4639" y="476.4541">Content-Type: application/json</text><text fill="#000000" font-family="sans-serif" font-size="10" x="227.4639" y="488.0947">&#160;</text><text fill="#000000" font-family="sans-serif" font-size="10" x="227.4639" y="499.7354">{</text><text fill="#000000" font-family="sans-serif" font-size="10" x="233.8213" y="511.376">"dcr_session_id": "urn:tx:1a2b3c4d",</text><text fill="#000000" font-family="sans-serif" font-size="10" x="233.8213" y="523.0166">"expires_in": 600</text><text fill="#000000" font-family="sans-serif" font-size="10" x="227.4639" y="534.6572">}</text><polygon fill="#000000" points="235.9434,560.6563,225.9434,564.6563,235.9434,568.6563,231.9434,564.6563" style="stroke:#000000;stroke-width:1;"/><line style="stroke:#000000;stroke-width:1;" x1="229.9434" x2="431.1807" y1="564.6563" y2="564.6563"/><text fill="#000000" font-family="sans-serif" font-size="10" x="241.9434" y="560.2979">Signals: "Waiting for OTP input"</text><polygon fill="#000000" points="212.9434,586.2969,222.9434,590.2969,212.9434,594.2969,216.9434,590.2969" style="stroke:#000000;stroke-width:1;"/><line style="stroke:#000000;stroke-width:1;" x1="24" x2="218.9434" y1="590.2969" y2="590.2969"/><text fill="#000000" font-family="sans-serif" font-size="10" x="31" y="585.9385">Enters the received OTP</text><polygon fill="#000000" points="420.1807,611.9375,430.1807,615.9375,420.1807,619.9375,424.1807,615.9375" style="stroke:#000000;stroke-width:1;"/><line style="stroke:#000000;stroke-width:1;" x1="224.9434" x2="426.1807" y1="615.9375" y2="615.9375"/><text fill="#000000" font-family="sans-serif" font-size="10" x="231.9434" y="611.5791">Passes OTP to complete registration</text><path d="M421.1807,627.9375 L481.1367,627.9375 L481.1367,631.5781 L471.1367,641.5781 L421.1807,641.5781 L421.1807,627.9375" fill="#EEEEEE" style="stroke:#000000;stroke-width:1.5;"/><rect fill="none" height="207.125" style="stroke:#000000;stroke-width:1.5;" width="689.0122" x="421.1807" y="627.9375"/><text fill="#000000" font-family="sans-serif" font-size="10" font-weight="bold" x="436.1807" y="638.2197">alt</text><text fill="#000000" font-family="sans-serif" font-size="10" font-weight="bold" x="496.1367" y="639.2197">[iOS App (App Attest)]</text><line style="stroke:#000000;stroke-width:1;stroke-dasharray:2,2;" x1="421.1807" x2="1110.1929" y1="713.8594" y2="713.8594"/><text fill="#000000" font-family="sans-serif" font-size="10" font-weight="bold" x="426.1807" y="725.1416">[Android App (Play Integrity)]</text><polygon fill="#000000" points="1072.1929,665.2188,1082.1929,669.2188,1072.1929,673.2188,1076.1929,669.2188" style="stroke:#000000;stroke-width:1;"/><line style="stroke:#000000;stroke-width:1;" x1="442.1807" x2="1078.1929" y1="669.2188" y2="669.2188"/><text fill="#000000" font-family="sans-serif" font-size="10" x="449.1807" y="664.8604">Requests Attestation (with `dcr_session_id` as challenge)</text><polygon fill="#000000" points="453.1807,690.8594,443.1807,694.8594,453.1807,698.8594,449.1807,694.8594" style="stroke:#000000;stroke-width:1;"/><line style="stroke:#000000;stroke-width:1;stroke-dasharray:2,2;" x1="447.1807" x2="1083.1929" y1="694.8594" y2="694.8594"/><text fill="#000000" font-family="sans-serif" font-size="10" x="459.1807" y="690.501">Sends</text><text fill="#000000" font-family="sans-serif" font-size="10" font-weight="bold" x="492.7549" y="690.501">Attestation Object</text><polygon fill="#000000" points="712.7695,746.1406,722.7695,750.1406,712.7695,754.1406,716.7695,750.1406" style="stroke:#000000;stroke-width:1;"/><line style="stroke:#000000;stroke-width:1;" x1="442.1807" x2="718.7695" y1="750.1406" y2="750.1406"/><text fill="#000000" font-family="sans-serif" font-size="10" x="449.1807" y="745.7822">Requests Nonce</text><polygon fill="#000000" points="453.1807,771.7813,443.1807,775.7813,453.1807,779.7813,449.1807,775.7813" style="stroke:#000000;stroke-width:1;"/><line style="stroke:#000000;stroke-width:1;stroke-dasharray:2,2;" x1="447.1807" x2="723.7695" y1="775.7813" y2="775.7813"/><text fill="#000000" font-family="sans-serif" font-size="10" x="459.1807" y="771.4229">Sends</text><text fill="#000000" font-family="sans-serif" font-size="10" font-weight="bold" x="492.7549" y="771.4229">Nonce</text><polygon fill="#000000" points="1072.1929,797.4219,1082.1929,801.4219,1072.1929,805.4219,1076.1929,801.4219" style="stroke:#000000;stroke-width:1;"/><line style="stroke:#000000;stroke-width:1;" x1="442.1807" x2="1078.1929" y1="801.4219" y2="801.4219"/><text fill="#000000" font-family="sans-serif" font-size="10" x="449.1807" y="797.0635">Requests Integrity Token (with</text><text fill="#000000" font-family="sans-serif" font-size="10" font-weight="bold" x="606.2363" y="797.0635">Nonce</text><text fill="#000000" font-family="sans-serif" font-size="10" x="641.3047" y="797.0635">)</text><polygon fill="#000000" points="453.1807,823.0625,443.1807,827.0625,453.1807,831.0625,449.1807,827.0625" style="stroke:#000000;stroke-width:1;"/><line style="stroke:#000000;stroke-width:1;stroke-dasharray:2,2;" x1="447.1807" x2="1083.1929" y1="827.0625" y2="827.0625"/><text fill="#000000" font-family="sans-serif" font-size="10" x="459.1807" y="822.7041">Sends</text><text fill="#000000" font-family="sans-serif" font-size="10" font-weight="bold" x="492.7549" y="822.7041">Integrity Token (JWT)</text><polygon fill="#000000" points="712.7695,862.7031,722.7695,866.7031,712.7695,870.7031,716.7695,866.7031" style="stroke:#000000;stroke-width:1;"/><line style="stroke:#000000;stroke-width:1;" x1="442.1807" x2="718.7695" y1="866.7031" y2="866.7031"/><text fill="#000000" font-family="sans-serif" font-size="10" font-weight="bold" x="449.1807" y="862.3447">Completes DCR (Completion Request)</text><path d="M442.1875,879.7031 L442.1875,1028.7031 L724.1875,1028.7031 L724.1875,889.7031 L714.1875,879.7031 L442.1875,879.7031" fill="#FEFFDD" style="stroke:#181818;stroke-width:0.5;"/><path d="M714.1875,879.7031 L714.1875,889.7031 L724.1875,889.7031 L714.1875,879.7031" fill="#FEFFDD" style="stroke:#181818;stroke-width:0.5;"/><text fill="#000000" font-family="sans-serif" font-size="10" font-weight="bold" x="448.1875" y="893.9854">POST /register</text><text fill="#000000" font-family="sans-serif" font-size="10" x="448.1875" y="905.626">Content-Type: application/json</text><text fill="#000000" font-family="sans-serif" font-size="10" x="448.1875" y="917.2666">&#160;</text><text fill="#000000" font-family="sans-serif" font-size="10" x="448.1875" y="928.9072">{</text><text fill="#000000" font-family="sans-serif" font-size="10" x="454.5449" y="940.5479">"dcr_session_id": "urn:tx:1a2b3c4d",</text><text fill="#000000" font-family="sans-serif" font-size="10" x="454.5449" y="952.1885">"otp": "123456",</text><text fill="#000000" font-family="sans-serif" font-size="10" x="454.5449" y="963.8291">"attestation_format": "apple-app-attest",</text><text fill="#000000" font-family="sans-serif" font-size="10" x="454.5449" y="975.4697">"attestation": "&lt;base64_attestation_object&gt;",</text><text fill="#000000" font-family="sans-serif" font-size="10" x="454.5449" y="987.1104">"jwks": { "keys": [ ... ] },</text><text fill="#000000" font-family="sans-serif" font-size="10" x="454.5449" y="998.751">"token_endpoint_auth_method": "private_key_jwt",</text><text fill="#000000" font-family="sans-serif" font-size="10" x="454.5449" y="1010.3916">"redirect_uris": [ "com.myapp:/callback" ]</text><text fill="#000000" font-family="sans-serif" font-size="10" x="448.1875" y="1022.0322">}</text><line style="stroke:#000000;stroke-width:1;" x1="734.7695" x2="776.7695" y1="1066.0313" y2="1066.0313"/><line style="stroke:#000000;stroke-width:1;" x1="776.7695" x2="776.7695" y1="1066.0313" y2="1079.0313"/><line style="stroke:#000000;stroke-width:1;" x1="735.7695" x2="776.7695" y1="1079.0313" y2="1079.0313"/><polygon fill="#000000" points="745.7695,1075.0313,735.7695,1079.0313,745.7695,1083.0313,741.7695,1079.0313" style="stroke:#000000;stroke-width:1;"/><text fill="#000000" font-family="sans-serif" font-size="10" x="741.7695" y="1061.6729">Validates OTP,</text><text fill="#000000" font-family="sans-serif" font-size="10" font-weight="bold" x="817.5996" y="1061.6729">then</text><text fill="#000000" font-family="sans-serif" font-size="10" x="846.5791" y="1061.6729">validates the attestation proof.</text><path d="M148.6768,1091.0313 L208.6328,1091.0313 L208.6328,1094.6719 L198.6328,1104.6719 L148.6768,1104.6719 L148.6768,1091.0313" fill="#EEEEEE" style="stroke:#000000;stroke-width:1.5;"/><rect fill="none" height="420.7344" style="stroke:#000000;stroke-width:1.5;" width="597.0928" x="148.6768" y="1091.0313"/><text fill="#000000" font-family="sans-serif" font-size="10" font-weight="bold" x="163.6768" y="1101.3135">alt</text><text fill="#000000" font-family="sans-serif" font-size="10" font-weight="bold" x="223.6328" y="1102.3135">[Successful Validation]</text><line style="stroke:#000000;stroke-width:1;stroke-dasharray:2,2;" x1="148.6768" x2="745.7695" y1="1340.3594" y2="1340.3594"/><text fill="#000000" font-family="sans-serif" font-size="10" font-weight="bold" x="153.6768" y="1351.6416">[Failed Validation]</text><polygon fill="#000000" points="453.1807,1128.3125,443.1807,1132.3125,453.1807,1136.3125,449.1807,1132.3125" style="stroke:#000000;stroke-width:1;"/><line style="stroke:#000000;stroke-width:1;stroke-dasharray:2,2;" x1="447.1807" x2="723.7695" y1="1132.3125" y2="1132.3125"/><text fill="#000000" font-family="sans-serif" font-size="10" font-weight="bold" x="459.1807" y="1127.9541">Sends `client_id` (for this AuthS)</text><path d="M173.583,1145.3125 L173.583,1259.3125 L431.583,1259.3125 L431.583,1155.3125 L421.583,1145.3125 L173.583,1145.3125" fill="#FEFFDD" style="stroke:#181818;stroke-width:0.5;"/><path d="M421.583,1145.3125 L421.583,1155.3125 L431.583,1155.3125 L421.583,1145.3125" fill="#FEFFDD" style="stroke:#181818;stroke-width:0.5;"/><text fill="#000000" font-family="sans-serif" font-size="10" font-weight="bold" x="179.583" y="1159.5947">201 Created</text><text fill="#000000" font-family="sans-serif" font-size="10" x="179.583" y="1171.2354">Content-Type: application/json</text><text fill="#000000" font-family="sans-serif" font-size="10" x="179.583" y="1182.876">&#160;</text><text fill="#000000" font-family="sans-serif" font-size="10" x="179.583" y="1194.5166">{</text><text fill="#000000" font-family="sans-serif" font-size="10" x="185.9404" y="1206.1572">"client_id": "client-id-for-auths1",</text><text fill="#000000" font-family="sans-serif" font-size="10" x="185.9404" y="1217.7979">"attestation_proof": "&lt;signed_jwt_as_proof&gt;",</text><text fill="#000000" font-family="sans-serif" font-size="10" x="185.9404" y="1229.4385">"client_id_issued_at": 1672531200,</text><text fill="#000000" font-family="sans-serif" font-size="10" x="185.9404" y="1241.0791">...</text><text fill="#000000" font-family="sans-serif" font-size="10" x="179.583" y="1252.7197">}</text><line style="stroke:#000000;stroke-width:1;" x1="442.1807" x2="484.1807" y1="1282.7188" y2="1282.7188"/><line style="stroke:#000000;stroke-width:1;" x1="484.1807" x2="484.1807" y1="1282.7188" y2="1295.7188"/><line style="stroke:#000000;stroke-width:1;" x1="443.1807" x2="484.1807" y1="1295.7188" y2="1295.7188"/><polygon fill="#000000" points="453.1807,1291.7188,443.1807,1295.7188,453.1807,1299.7188,449.1807,1295.7188" style="stroke:#000000;stroke-width:1;"/><text fill="#000000" font-family="sans-serif" font-size="10" x="449.1807" y="1278.3604">Securely stores `client_id` and `Attestation Proof JWT`</text><polygon fill="#000000" points="235.9434,1317.3594,225.9434,1321.3594,235.9434,1325.3594,231.9434,1321.3594" style="stroke:#000000;stroke-width:1;"/><line style="stroke:#000000;stroke-width:1;stroke-dasharray:2,2;" x1="229.9434" x2="431.1807" y1="1321.3594" y2="1321.3594"/><text fill="#000000" font-family="sans-serif" font-size="10" x="241.9434" y="1317.001">Registration successful</text><polygon fill="#000000" points="453.1807,1372.6406,443.1807,1376.6406,453.1807,1380.6406,449.1807,1376.6406" style="stroke:#000000;stroke-width:1;"/><line style="stroke:#000000;stroke-width:1;stroke-dasharray:2,2;" x1="447.1807" x2="728.7695" y1="1376.6406" y2="1376.6406"/><text fill="#000000" font-family="sans-serif" font-size="10" x="459.1807" y="1372.2822">Sends error message</text><path d="M169.6768,1389.6406 L169.6768,1480.6406 L431.6768,1480.6406 L431.6768,1399.6406 L421.6768,1389.6406 L169.6768,1389.6406" fill="#FEFFDD" style="stroke:#181818;stroke-width:0.5;"/><path d="M421.6768,1389.6406 L421.6768,1399.6406 L431.6768,1399.6406 L421.6768,1389.6406" fill="#FEFFDD" style="stroke:#181818;stroke-width:0.5;"/><text fill="#000000" font-family="sans-serif" font-size="10" font-weight="bold" x="175.6768" y="1403.9229">400 Bad Request</text><text fill="#000000" font-family="sans-serif" font-size="10" x="175.6768" y="1415.5635">Content-Type: application/json</text><text fill="#000000" font-family="sans-serif" font-size="10" x="175.6768" y="1427.2041">&#160;</text><text fill="#000000" font-family="sans-serif" font-size="10" x="175.6768" y="1438.8447">{</text><text fill="#000000" font-family="sans-serif" font-size="10" x="182.0342" y="1450.4854">"error": "invalid_request",</text><text fill="#000000" font-family="sans-serif" font-size="10" x="182.0342" y="1462.126">"error_description": "OTP is invalid or expired."</text><text fill="#000000" font-family="sans-serif" font-size="10" x="175.6768" y="1473.7666">}</text><polygon fill="#000000" points="235.9434,1499.7656,225.9434,1503.7656,235.9434,1507.7656,231.9434,1503.7656" style="stroke:#000000;stroke-width:1;"/><line style="stroke:#000000;stroke-width:1;stroke-dasharray:2,2;" x1="229.9434" x2="431.1807" y1="1503.7656" y2="1503.7656"/><text fill="#000000" font-family="sans-serif" font-size="10" x="241.9434" y="1499.4072">Registration failed</text><rect fill="#EEEEEE" height="3" style="stroke:#EEEEEE;stroke-width:1;" width="1471.9404" x="5" y="1544.5859"/><line style="stroke:#000000;stroke-width:1;" x1="5" x2="1476.9404" y1="1544.5859" y2="1544.5859"/><line style="stroke:#000000;stroke-width:1;" x1="5" x2="1476.9404" y1="1547.5859" y2="1547.5859"/><rect fill="#EEEEEE" height="19.6406" style="stroke:#000000;stroke-width:2;" width="309.9473" x="585.9966" y="1535.7656"/><text fill="#000000" font-family="sans-serif" font-size="10" font-weight="bold" x="591.9966" y="1549.0479">Phase 2: Subsequent Registration at another AuthS</text><polygon fill="#000000" points="207.9434,1579.0469,217.9434,1583.0469,207.9434,1587.0469,211.9434,1583.0469" style="stroke:#000000;stroke-width:1;"/><line style="stroke:#000000;stroke-width:1;" x1="24" x2="213.9434" y1="1583.0469" y2="1583.0469"/><text fill="#000000" font-family="sans-serif" font-size="10" x="31" y="1578.6885">Initiates action requiring `AuthS2`</text><polygon fill="#000000" points="420.1807,1604.6875,430.1807,1608.6875,420.1807,1612.6875,424.1807,1608.6875" style="stroke:#000000;stroke-width:1;"/><line style="stroke:#000000;stroke-width:1;" x1="229.9434" x2="426.1807" y1="1608.6875" y2="1608.6875"/><text fill="#000000" font-family="sans-serif" font-size="10" x="236.9434" y="1604.3291">Delegates registration at `AuthS2`</text><polygon fill="#000000" points="1138.71,1630.3281,1148.71,1634.3281,1138.71,1638.3281,1142.71,1634.3281" style="stroke:#000000;stroke-width:1;"/><line style="stroke:#000000;stroke-width:1;" x1="442.1807" x2="1144.71" y1="1634.3281" y2="1634.3281"/><text fill="#000000" font-family="sans-serif" font-size="10" x="449.1807" y="1629.9697">Starts DCR</text><path d="M868.1279,1647.3281 L868.1279,1761.3281 L1150.1279,1761.3281 L1150.1279,1657.3281 L1140.1279,1647.3281 L868.1279,1647.3281" fill="#FEFFDD" style="stroke:#181818;stroke-width:0.5;"/><path d="M1140.1279,1647.3281 L1140.1279,1657.3281 L1150.1279,1657.3281 L1140.1279,1647.3281" fill="#FEFFDD" style="stroke:#181818;stroke-width:0.5;"/><text fill="#000000" font-family="sans-serif" font-size="10" font-weight="bold" x="874.1279" y="1661.6104">POST /register</text><text fill="#000000" font-family="sans-serif" font-size="10" x="874.1279" y="1673.251">Content-Type: application/json</text><text fill="#000000" font-family="sans-serif" font-size="10" x="874.1279" y="1684.8916">&#160;</text><text fill="#000000" font-family="sans-serif" font-size="10" x="874.1279" y="1696.5322">{</text><text fill="#000000" font-family="sans-serif" font-size="10" x="880.4854" y="1708.1729">"attestation_proof": "&lt;the_jwt_from_phase_1&gt;",</text><text fill="#000000" font-family="sans-serif" font-size="10" x="880.4854" y="1719.8135">"jwks": { "keys": [ ... ] },</text><text fill="#000000" font-family="sans-serif" font-size="10" x="880.4854" y="1731.4541">"token_endpoint_auth_method": "private_key_jwt",</text><text fill="#000000" font-family="sans-serif" font-size="10" x="880.4854" y="1743.0947">"redirect_uris": [ "com.myapp:/callback" ]</text><text fill="#000000" font-family="sans-serif" font-size="10" x="874.1279" y="1754.7354">}</text><polygon fill="#000000" points="1424.4517,1780.7344,1434.4517,1784.7344,1424.4517,1788.7344,1428.4517,1784.7344" style="stroke:#000000;stroke-width:1;"/><line style="stroke:#000000;stroke-width:1;" x1="1160.71" x2="1430.4517" y1="1784.7344" y2="1784.7344"/><text fill="#000000" font-family="sans-serif" font-size="10" x="1167.71" y="1780.376">Retrieves public signing key from `AuthS`</text><polygon fill="#000000" points="1171.71,1806.375,1161.71,1810.375,1171.71,1814.375,1167.71,1810.375" style="stroke:#000000;stroke-width:1;"/><line style="stroke:#000000;stroke-width:1;stroke-dasharray:2,2;" x1="1165.71" x2="1435.4517" y1="1810.375" y2="1810.375"/><text fill="#000000" font-family="sans-serif" font-size="10" x="1177.71" y="1806.0166">Sends key material</text><line style="stroke:#000000;stroke-width:1;" x1="1160.71" x2="1202.71" y1="1836.0156" y2="1836.0156"/><line style="stroke:#000000;stroke-width:1;" x1="1202.71" x2="1202.71" y1="1836.0156" y2="1849.0156"/><line style="stroke:#000000;stroke-width:1;" x1="1161.71" x2="1202.71" y1="1849.0156" y2="1849.0156"/><polygon fill="#000000" points="1171.71,1845.0156,1161.71,1849.0156,1171.71,1853.0156,1167.71,1849.0156" style="stroke:#000000;stroke-width:1;"/><text fill="#000000" font-family="sans-serif" font-size="10" x="1167.71" y="1831.6572">Validates the `Attestation Proof JWT`</text><path d="M207.5977,1861.0156 L267.5537,1861.0156 L267.5537,1864.6563 L257.5537,1874.6563 L207.5977,1874.6563 L207.5977,1861.0156" fill="#EEEEEE" style="stroke:#000000;stroke-width:1.5;"/><rect fill="none" height="307.6094" style="stroke:#000000;stroke-width:1.5;" width="964.1123" x="207.5977" y="1861.0156"/><text fill="#000000" font-family="sans-serif" font-size="10" font-weight="bold" x="222.5977" y="1871.2979">alt</text><text fill="#000000" font-family="sans-serif" font-size="10" font-weight="bold" x="282.5537" y="1872.2979">[Successful Validation]</text><line style="stroke:#000000;stroke-width:1;stroke-dasharray:2,2;" x1="207.5977" x2="1171.71" y1="2098.7031" y2="2098.7031"/><text fill="#000000" font-family="sans-serif" font-size="10" font-weight="bold" x="212.5977" y="2109.9854">[Failed Validation]</text><polygon fill="#000000" points="453.1807,1898.2969,443.1807,1902.2969,453.1807,1906.2969,449.1807,1902.2969" style="stroke:#000000;stroke-width:1;"/><line style="stroke:#000000;stroke-width:1;stroke-dasharray:2,2;" x1="447.1807" x2="1149.71" y1="1902.2969" y2="1902.2969"/><text fill="#000000" font-family="sans-serif" font-size="10" font-weight="bold" x="459.1807" y="1897.9385">Sends new `client_id` (for AuthS2)</text><path d="M228.5977,1915.2969 L228.5977,2018.2969 L431.5977,2018.2969 L431.5977,1925.2969 L421.5977,1915.2969 L228.5977,1915.2969" fill="#FEFFDD" style="stroke:#181818;stroke-width:0.5;"/><path d="M421.5977,1915.2969 L421.5977,1925.2969 L431.5977,1925.2969 L421.5977,1915.2969" fill="#FEFFDD" style="stroke:#181818;stroke-width:0.5;"/><text fill="#000000" font-family="sans-serif" font-size="10" font-weight="bold" x="234.5977" y="1929.5791">201 Created</text><text fill="#000000" font-family="sans-serif" font-size="10" x="234.5977" y="1941.2197">Content-Type: application/json</text><text fill="#000000" font-family="sans-serif" font-size="10" x="234.5977" y="1952.8604">&#160;</text><text fill="#000000" font-family="sans-serif" font-size="10" x="234.5977" y="1964.501">{</text><text fill="#000000" font-family="sans-serif" font-size="10" x="240.9551" y="1976.1416">"client_id": "client-id-for-auths2",</text><text fill="#000000" font-family="sans-serif" font-size="10" x="240.9551" y="1987.7822">"client_id_issued_at": 1672535000,</text><text fill="#000000" font-family="sans-serif" font-size="10" x="240.9551" y="1999.4229">...</text><text fill="#000000" font-family="sans-serif" font-size="10" x="234.5977" y="2011.0635">}</text><line style="stroke:#000000;stroke-width:1;" x1="442.1807" x2="484.1807" y1="2041.0625" y2="2041.0625"/><line style="stroke:#000000;stroke-width:1;" x1="484.1807" x2="484.1807" y1="2041.0625" y2="2054.0625"/><line style="stroke:#000000;stroke-width:1;" x1="443.1807" x2="484.1807" y1="2054.0625" y2="2054.0625"/><polygon fill="#000000" points="453.1807,2050.0625,443.1807,2054.0625,453.1807,2058.0625,449.1807,2054.0625" style="stroke:#000000;stroke-width:1;"/><text fill="#000000" font-family="sans-serif" font-size="10" x="449.1807" y="2036.7041">Stores the new `client_id`</text><polygon fill="#000000" points="240.9434,2075.7031,230.9434,2079.7031,240.9434,2083.7031,236.9434,2079.7031" style="stroke:#000000;stroke-width:1;"/><line style="stroke:#000000;stroke-width:1;stroke-dasharray:2,2;" x1="234.9434" x2="431.1807" y1="2079.7031" y2="2079.7031"/><text fill="#000000" font-family="sans-serif" font-size="10" x="246.9434" y="2075.3447">Registration at `AuthS2` successful</text><polygon fill="#000000" points="453.1807,2130.9844,443.1807,2134.9844,453.1807,2138.9844,449.1807,2134.9844" style="stroke:#000000;stroke-width:1;"/><line style="stroke:#000000;stroke-width:1;stroke-dasharray:2,2;" x1="447.1807" x2="1149.71" y1="2134.9844" y2="2134.9844"/><text fill="#000000" font-family="sans-serif" font-size="10" x="459.1807" y="2130.626">Sends error message</text><polygon fill="#000000" points="240.9434,2156.625,230.9434,2160.625,240.9434,2164.625,236.9434,2160.625" style="stroke:#000000;stroke-width:1;"/><line style="stroke:#000000;stroke-width:1;stroke-dasharray:2,2;" x1="234.9434" x2="431.1807" y1="2160.625" y2="2160.625"/><text fill="#000000" font-family="sans-serif" font-size="10" x="246.9434" y="2156.2666">Registration at `AuthS2` failed</text><rect fill="#EEEEEE" height="3" style="stroke:#EEEEEE;stroke-width:1;" width="1471.9404" x="5" y="2201.4453"/><line style="stroke:#000000;stroke-width:1;" x1="5" x2="1476.9404" y1="2201.4453" y2="2201.4453"/><line style="stroke:#000000;stroke-width:1;" x1="5" x2="1476.9404" y1="2204.4453" y2="2204.4453"/><rect fill="#EEEEEE" height="19.6406" style="stroke:#000000;stroke-width:2;" width="323.585" x="579.1777" y="2192.625"/><text fill="#000000" font-family="sans-serif" font-size="10" font-weight="bold" x="585.1777" y="2205.9072">Phase 3: OIDC/OAuth Flow (Delegation to ZETA Client)</text><polygon fill="#000000" points="420.1807,2235.9063,430.1807,2239.9063,420.1807,2243.9063,424.1807,2239.9063" style="stroke:#000000;stroke-width:1;"/><line style="stroke:#000000;stroke-width:1;" x1="224.9434" x2="426.1807" y1="2239.9063" y2="2239.9063"/><text fill="#000000" font-family="sans-serif" font-size="10" x="231.9434" y="2235.5479">Requests Access Token for a service</text><polygon fill="#000000" points="1143.71,2261.5469,1153.71,2265.5469,1143.71,2269.5469,1147.71,2265.5469" style="stroke:#000000;stroke-width:1;"/><line style="stroke:#000000;stroke-width:1;" x1="442.1807" x2="1149.71" y1="2265.5469" y2="2265.5469"/><text fill="#000000" font-family="sans-serif" font-size="10" x="449.1807" y="2261.1885">Performs OIDC Flow</text><polygon fill="#000000" points="453.1807,2287.1875,443.1807,2291.1875,453.1807,2295.1875,449.1807,2291.1875" style="stroke:#000000;stroke-width:1;"/><line style="stroke:#000000;stroke-width:1;stroke-dasharray:2,2;" x1="447.1807" x2="1154.71" y1="2291.1875" y2="2291.1875"/><text fill="#000000" font-family="sans-serif" font-size="10" x="459.1807" y="2286.8291">Sends Access Token</text><polygon fill="#000000" points="235.9434,2312.8281,225.9434,2316.8281,235.9434,2320.8281,231.9434,2316.8281" style="stroke:#000000;stroke-width:1;"/><line style="stroke:#000000;stroke-width:1;stroke-dasharray:2,2;" x1="229.9434" x2="431.1807" y1="2316.8281" y2="2316.8281"/><text fill="#000000" font-family="sans-serif" font-size="10" x="241.9434" y="2312.4697">Returns Access Token</text><line style="stroke:#000000;stroke-width:1;" x1="224.9434" x2="266.9434" y1="2342.4688" y2="2342.4688"/><line style="stroke:#000000;stroke-width:1;" x1="266.9434" x2="266.9434" y1="2342.4688" y2="2355.4688"/><line style="stroke:#000000;stroke-width:1;" x1="225.9434" x2="266.9434" y1="2355.4688" y2="2355.4688"/><polygon fill="#000000" points="235.9434,2351.4688,225.9434,2355.4688,235.9434,2359.4688,231.9434,2355.4688" style="stroke:#000000;stroke-width:1;"/><text fill="#000000" font-family="sans-serif" font-size="10" x="231.9434" y="2338.1104">Uses Access Token for API calls</text><?plantuml-src pLXjRzis4FwkNt5pWJKnQiTsqWmmbc99t6JPrjgetHRhMYYqHDjCP54ZgIHUqV--8waNoY-9qmxRyi6nnBlZyUwvvux-ZiL1b8OKciszY2nugff9EeyyxpXGNC1RIOKtvdTGUyN7BABGepSie3LuSZxZKhsVCKKz02CnjnB7IHAnW2Z6unek0IH4A1QmXCGAQkug40bd99YTHepYsfCUfSdmUd4IfNHLySFBqJ5OoO_nph3twwxH_q0LoVM790uN9uBVngXEur2xvUN_xIa6Wj-ma0eymEZbwS-l-x_rptytcvbbiybvIaG8xTgIGVld-dISgjbGEr4xOq9cpxMreeFUe7TYHF4Rz4wir8gFrL0fHQKoeVeO3wcmWKSRk90zFlfKdIrFrJ6-FdIWpYDFT4RHINCW-1Y_8b9fbpK8Q6YVFE_e20Op8Ycqkt0HCyL816_eb4cLAUxqQ4IdzhlYuC1Y5uwEF8y4YjqGHHraU377Py6cCmLyuYu0D60qewuLO18IGHi1ZoTicWeQmYrJCr0ebc8rF9L0vuH5GC9GK2cRZpNYL03QmYKcQA3yLB2c2PjsrlEcWgS9Ha3HAHuSzKVzixVG7mtWBEAti9DGCU5YZWlZHIK89WrFOQXeKiPGRsOMd79flB2fxaAzFbIO9WczqpUmKsfWuFzC4OAxzRfHDc6CwCH4qUXcqAZN1_tX2FQ4IHGLcJp0ASS3nAenMYIq2wGy-TwLv3dyid-V2vpLJ81hNQZfWFz4xyWyYMWpuFFQirB8iUOhjA_bOtoyeJbYlnIGD37L3mKwIlTj5PVHEAUn1YcL9jfOAt0P1iANc6kz5GilgsgQ8aqCSIEhOpCQBU264GkMB22P3YgLUT2gRwXCkDOs85dURbtqAnYsAUYqsd0gg0RBjyQ_we19X8YxwgxR9ftnVd0GkdcWTmcUL_eiHi73LcjpyDSWiAJ_BWpPD2QHnDtU4uHWF0L4k0aeYvDKsQo6T5s15zPrCfRjliGO26bg3_D24I2XjchadVQpb9K1aJB30D8COWyXg5d4uQ8geXntt1hieAc8A5siZM520pPX0JZK3jzZbepnmcA4_D4VQgA07VrXfNUBa2yLST4Dkdd1oie6EsjHfNatc94eel6KbhRB0YcRJBvMlbh1i0L_lUxksnzVOHaKMApaRiawZP3nZ-DGS1RQSsFC5XdzCRNOU7PRiiMnN_FOzNTjkUMk6bd7kosYMlW38tvDyyWMflwnAAxiyylxqUvsWOp3JQLMa7q6DvhnVOc-_upl7yKtN2LQejtPFtX-M6a89VPyNMv4QJdj16tWPyEkRz3GeZ-ESV0uFF1TGzo0-8MhTNLxBL7yCzIkwK9_-mE7voPyWY-EaDA9yp4T2MUnyWb6pvzJDUFcU8amsVFHW7zrM_797GYiyHgIJtE-m2Dqzm8is349hclmQJtFQW1uootj7ObOcBUqPvW-vCAuNeURuhqcH-VOEBnmFcbwceg6QH1WRYPfbDl9YMfJExCmlWpC2yCrEvh9rGod8gEp---tjC8P7Nxxq61X0_rgwDp8zYOacKWOT4ZiJpJK-VA9jEyhk2Ysy9cKAKeQ0BOFV-WytsztMgrI5E6okKkwnLtKNBMKgvmHu7o9muR4-ngjXjqCBoub3xJJW6nokM9rgMbMPcvPGC0pJ7s68mqsqQtWOC50XK04pD48cTAjSd_GQi492NDE-kQHKZkWqyXYWtfVMBkLIKRB-26LWM19JWfc_f2GgG6UmWuyORFs3JcyBzeJ4ztC3hxb2pS-ki3N3q7EszAsSwF2IMIOZgK-DxfGsP8en0f74X1P5lLDQjqibLqE46TwBzJKOMH23skNzk9uwQtpOlESbLtdgAoCLjgZLOFkYBMckUa35XSPRxLxTRmrZUi1F7aQGni80UDbs60Y-DnFT8pzjcM41th4LtI7H_I5B-Krieh2JjOPEYQh-PrReqy9Hcym1KawnkE3PZgTKdG0zE6oLBYfBMxinJS3wY8FfkgrFhPXAl0MNu5dUTyl7SfLtrMQqYRwsg8pTJQsffZUhhOdg_C_R4sTRPlCyzRMJUQUVcBRY8xzKfWUHM9E_JwcVNIsxXzVuqZ6h4iKcjN6rv7gVXVw5xtJlRwsalqsyy0lL9kviBo-cO1bqxy69m6PJVdhd7ngo6NvDwZi9oARo-82gxqrH-Q2_MMTFEKXjQwZcQUPjGi5WS6trSzi7kEbM6YbPzW6yVg8TyVSFjemKvxsMUAo2fhMtdgc7kJU6OVqxjwz2713ujsRV8MNXoNvzRcj9i8rybPV_LUIS3ou04sqqliR?></g></svg>