<svg xmlns="http://www.w3.org/2000/svg" xmlns:xlink="http://www.w3.org/1999/xlink" contentStyleType="text/css" data-diagram-type="SEQUENCE" height="1340px" preserveAspectRatio="none" style="width:1181px;height:1340px;background:#FFFFFF;" version="1.1" viewBox="0 0 1181 1340" width="1181px" zoomAndPan="magnify"><defs/><g><rect fill="#F8F8FF" height="1328.5156" style="stroke:#181818;stroke-width:0.5;" width="433.3711" x="44.3965" y="6"/><text fill="#000000" font-family="sans-serif" font-size="10" font-weight="bold" x="221.6631" y="15.2822">Mobile Device</text><rect fill="#F0F8FF" height="1311.875" style="stroke:#181818;stroke-width:0.5;" width="160.5215" x="317.2461" y="22.6406"/><text fill="#000000" font-family="sans-serif" font-size="10" font-weight="bold" x="365.6953" y="31.9229">mobile App</text><rect fill="#C9FFC9" height="1328.5156" style="stroke:#181818;stroke-width:0.5;" width="333.7549" x="601.0298" y="6"/><text fill="#000000" font-family="sans-serif" font-size="10" font-weight="bold" x="706.0151" y="15.2822">Anbieter TI 2.0 Dienst</text><rect fill="#F4A460" height="1311.875" style="stroke:#181818;stroke-width:0.5;" width="253.2266" x="601.0298" y="22.6406"/><text fill="#000000" font-family="sans-serif" font-size="10" font-weight="bold" x="694.4985" y="31.9229">ZETA Guard</text><rect fill="#8FBC8F" height="1311.875" style="stroke:#181818;stroke-width:0.5;" width="68.5283" x="866.2563" y="22.6406"/><text fill="#000000" font-family="sans-serif" font-size="10" font-weight="bold" x="882.3394" y="31.9229">TI 2.0</text><text fill="#000000" font-family="sans-serif" font-size="10" font-weight="bold" x="882.3394" y="43.5635">Dienst</text><g><title>User</title><rect fill="#000000" fill-opacity="0.00000" height="1135.3125" width="8" x="20.5" y="121.5625"/><line style="stroke:#000000;stroke-width:0.5;stroke-dasharray:5,5;" x1="24" x2="24" y1="121.5625" y2="1256.875"/></g><g><title>Android TEE</title><rect fill="#000000" fill-opacity="0.00000" height="1135.3125" width="8" x="82.2993" y="121.5625"/><line style="stroke:#000000;stroke-width:0.5;stroke-dasharray:5,5;" x1="85.7993" x2="85.7993" y1="121.5625" y2="1256.875"/></g><g><title/><rect fill="#F0F0F0" height="25.6406" style="stroke:#181818;stroke-width:1;" width="10" x="80.7993" y="251.7656"/></g><g><title/><rect fill="#F0F0F0" height="31.6406" style="stroke:#181818;stroke-width:1;" width="10" x="80.7993" y="365.9688"/></g><g><title>User Agent</title><rect fill="#000000" fill-opacity="0.00000" height="1135.3125" width="8" x="164.4878" y="121.5625"/><line style="stroke:#000000;stroke-width:0.5;stroke-dasharray:5,5;" x1="167.9878" x2="167.9878" y1="121.5625" y2="1256.875"/></g><g><title/><rect fill="#F0F0F0" height="37.2813" style="stroke:#181818;stroke-width:1;" width="10" x="162.9878" y="919.9844"/></g><g><title>Mail</title><rect fill="#000000" fill-opacity="0.00000" height="1135.3125" width="8" x="263.3608" y="121.5625"/><line style="stroke:#000000;stroke-width:0.5;stroke-dasharray:5,5;" x1="266.8608" x2="266.8608" y1="121.5625" y2="1256.875"/></g><g><title/><rect fill="#F0F0F0" height="116.8438" style="stroke:#181818;stroke-width:1;" width="10" x="261.8608" y="803.1406"/></g><g><title>Fach-Client</title><rect fill="#000000" fill-opacity="0.00000" height="1135.3125" width="8" x="352.8833" y="121.5625"/><line style="stroke:#000000;stroke-width:0.5;stroke-dasharray:5,5;" x1="356.3833" x2="356.3833" y1="121.5625" y2="1256.875"/></g><g><title>ZETA Client</title><rect fill="#000000" fill-opacity="0.00000" height="1135.3125" width="8" x="434.144" y="121.5625"/><line style="stroke:#000000;stroke-width:0.5;stroke-dasharray:5,5;" x1="437.644" x2="437.644" y1="121.5625" y2="1256.875"/></g><g><title/><rect fill="#F0F0F0" height="1070.0313" style="stroke:#181818;stroke-width:1;" width="10" x="432.644" y="186.8438"/></g><g><title>PDP</title><rect fill="#000000" fill-opacity="0.00000" height="1135.3125" width="8" x="641.8159" y="121.5625"/><line style="stroke:#000000;stroke-width:0.5;stroke-dasharray:5,5;" x1="645.3159" x2="645.3159" y1="121.5625" y2="1256.875"/></g><g><title/><rect fill="#F0F0F0" height="741.7031" style="stroke:#181818;stroke-width:1;" width="10" x="640.3159" y="510.1719"/></g><g><title>PEP</title><rect fill="#000000" fill-opacity="0.00000" height="1135.3125" width="8" x="811.2358" y="121.5625"/><line style="stroke:#000000;stroke-width:0.5;stroke-dasharray:5,5;" x1="814.7358" x2="814.7358" y1="121.5625" y2="1256.875"/></g><g><title>Resource</title><rect fill="#000000" fill-opacity="0.00000" height="1135.3125" width="8" x="897.0205" y="121.5625"/><line style="stroke:#000000;stroke-width:0.5;stroke-dasharray:5,5;" x1="900.5205" x2="900.5205" y1="121.5625" y2="1256.875"/></g><g><title>Attestation</title><rect fill="#000000" fill-opacity="0.00000" height="1135.3125" width="8" x="981.9092" y="121.5625"/><line style="stroke:#000000;stroke-width:0.5;stroke-dasharray:5,5;" x1="985.4092" x2="985.4092" y1="121.5625" y2="1256.875"/></g><g><title/><rect fill="#F0F0F0" height="25.6406" style="stroke:#181818;stroke-width:1;" width="10" x="980.4092" y="303.0469"/></g><g><title/><rect fill="#F0F0F0" height="156.8438" style="stroke:#181818;stroke-width:1;" width="10" x="980.4092" y="565.0938"/></g><text fill="#000000" font-family="sans-serif" font-size="10" x="9.6035" y="119.2041">User</text><ellipse cx="24" cy="58.4219" fill="#FFFFFF" rx="8" ry="8" style="stroke:#000000;stroke-width:0.5;"/><path d="M24,66.4219 L24,93.4219 M11,74.4219 L37,74.4219 M24,93.4219 L11,108.4219 M24,93.4219 L37,108.4219" fill="none" style="stroke:#000000;stroke-width:0.5;"/><rect fill="#FFFFFF" height="25.6406" rx="2.5" ry="2.5" style="stroke:#000000;stroke-width:0.5;" width="74.8057" x="48.3965" y="94.9219"/><text fill="#000000" font-family="sans-serif" font-size="10" x="55.3965" y="111.2041">Android TEE</text><rect fill="#FFFFFF" height="25.6406" rx="2.5" ry="2.5" style="stroke:#000000;stroke-width:0.5;" width="69.5713" x="133.2021" y="94.9219"/><text fill="#000000" font-family="sans-serif" font-size="10" x="140.2021" y="111.2041">User Agent</text><rect fill="#FFFFFF" height="37.2813" rx="2.5" ry="2.5" style="stroke:#000000;stroke-width:0.5;" width="69.5713" x="232.0752" y="83.2813"/><text fill="#000000" font-family="sans-serif" font-size="10" x="256.7046" y="99.5635">Mail</text><text fill="#000000" font-family="sans-serif" font-size="10" x="239.0752" y="111.2041">User Agent</text><rect fill="#8FBC8F" height="25.6406" rx="2.5" ry="2.5" style="stroke:#000000;stroke-width:0.5;" width="70.2744" x="321.2461" y="94.9219"/><text fill="#000000" font-family="sans-serif" font-size="10" x="328.2461" y="111.2041">Fach-Client</text><rect fill="#F4A460" height="25.6406" rx="2.5" ry="2.5" style="stroke:#000000;stroke-width:0.5;" width="72.2471" x="401.5205" y="94.9219"/><text fill="#000000" font-family="sans-serif" font-size="10" x="408.5205" y="111.2041">ZETA Client</text><rect fill="#FFFFFF" height="48.9219" rx="2.5" ry="2.5" style="stroke:#000000;stroke-width:0.5;" width="80.5723" x="605.0298" y="71.6406"/><text fill="#000000" font-family="sans-serif" font-size="10" x="635.4355" y="87.9229">PDP</text><text fill="#000000" font-family="sans-serif" font-size="10" x="619.4272" y="99.5635">AuthS and</text><text fill="#000000" font-family="sans-serif" font-size="10" x="612.0298" y="111.2041">Policy Engine</text><rect fill="#FFFFFF" height="37.2813" rx="2.5" ry="2.5" style="stroke:#000000;stroke-width:0.5;" width="71.041" x="779.2153" y="83.2813"/><text fill="#000000" font-family="sans-serif" font-size="10" x="805.5464" y="99.5635">PEP</text><text fill="#000000" font-family="sans-serif" font-size="10" x="786.2153" y="111.2041">HTTP Proxy</text><rect fill="#FFFFFF" height="37.2813" rx="2.5" ry="2.5" style="stroke:#000000;stroke-width:0.5;" width="60.5283" x="870.2563" y="83.2813"/><text fill="#000000" font-family="sans-serif" font-size="10" x="877.2563" y="99.5635">Resource</text><text fill="#000000" font-family="sans-serif" font-size="10" x="884.124" y="111.2041">Server</text><rect fill="#FFFFFF" height="37.2813" rx="2.5" ry="2.5" style="stroke:#000000;stroke-width:0.5;" width="69.249" x="950.7847" y="83.2813"/><text fill="#000000" font-family="sans-serif" font-size="10" x="957.7847" y="99.5635">Attestation</text><text fill="#000000" font-family="sans-serif" font-size="10" x="966.9302" y="111.2041">Service</text><text fill="#000000" font-family="sans-serif" font-size="10" x="9.6035" y="1326.1572">User</text><ellipse cx="24" cy="1265.375" fill="#FFFFFF" rx="8" ry="8" style="stroke:#000000;stroke-width:0.5;"/><path d="M24,1273.375 L24,1300.375 M11,1281.375 L37,1281.375 M24,1300.375 L11,1315.375 M24,1300.375 L37,1315.375" fill="none" style="stroke:#000000;stroke-width:0.5;"/><rect fill="#FFFFFF" height="25.6406" rx="2.5" ry="2.5" style="stroke:#000000;stroke-width:0.5;" width="74.8057" x="48.3965" y="1256.875"/><text fill="#000000" font-family="sans-serif" font-size="10" x="55.3965" y="1273.1572">Android TEE</text><rect fill="#FFFFFF" height="25.6406" rx="2.5" ry="2.5" style="stroke:#000000;stroke-width:0.5;" width="69.5713" x="133.2021" y="1256.875"/><text fill="#000000" font-family="sans-serif" font-size="10" x="140.2021" y="1273.1572">User Agent</text><rect fill="#FFFFFF" height="37.2813" rx="2.5" ry="2.5" style="stroke:#000000;stroke-width:0.5;" width="69.5713" x="232.0752" y="1256.875"/><text fill="#000000" font-family="sans-serif" font-size="10" x="256.7046" y="1273.1572">Mail</text><text fill="#000000" font-family="sans-serif" font-size="10" x="239.0752" y="1284.7979">User Agent</text><rect fill="#8FBC8F" height="25.6406" rx="2.5" ry="2.5" style="stroke:#000000;stroke-width:0.5;" width="70.2744" x="321.2461" y="1256.875"/><text fill="#000000" font-family="sans-serif" font-size="10" x="328.2461" y="1273.1572">Fach-Client</text><rect fill="#F4A460" height="25.6406" rx="2.5" ry="2.5" style="stroke:#000000;stroke-width:0.5;" width="72.2471" x="401.5205" y="1256.875"/><text fill="#000000" font-family="sans-serif" font-size="10" x="408.5205" y="1273.1572">ZETA Client</text><rect fill="#FFFFFF" height="48.9219" rx="2.5" ry="2.5" style="stroke:#000000;stroke-width:0.5;" width="80.5723" x="605.0298" y="1256.875"/><text fill="#000000" font-family="sans-serif" font-size="10" x="635.4355" y="1273.1572">PDP</text><text fill="#000000" font-family="sans-serif" font-size="10" x="619.4272" y="1284.7979">AuthS and</text><text fill="#000000" font-family="sans-serif" font-size="10" x="612.0298" y="1296.4385">Policy Engine</text><rect fill="#FFFFFF" height="37.2813" rx="2.5" ry="2.5" style="stroke:#000000;stroke-width:0.5;" width="71.041" x="779.2153" y="1256.875"/><text fill="#000000" font-family="sans-serif" font-size="10" x="805.5464" y="1273.1572">PEP</text><text fill="#000000" font-family="sans-serif" font-size="10" x="786.2153" y="1284.7979">HTTP Proxy</text><rect fill="#FFFFFF" height="37.2813" rx="2.5" ry="2.5" style="stroke:#000000;stroke-width:0.5;" width="60.5283" x="870.2563" y="1256.875"/><text fill="#000000" font-family="sans-serif" font-size="10" x="877.2563" y="1273.1572">Resource</text><text fill="#000000" font-family="sans-serif" font-size="10" x="884.124" y="1284.7979">Server</text><rect fill="#FFFFFF" height="37.2813" rx="2.5" ry="2.5" style="stroke:#000000;stroke-width:0.5;" width="69.249" x="950.7847" y="1256.875"/><text fill="#000000" font-family="sans-serif" font-size="10" x="957.7847" y="1273.1572">Attestation</text><text fill="#000000" font-family="sans-serif" font-size="10" x="966.9302" y="1284.7979">Service</text><rect fill="#EEEEEE" height="3" style="stroke:#EEEEEE;stroke-width:1;" width="1169.9395" x="5" y="148.3828"/><line style="stroke:#000000;stroke-width:1;" x1="5" x2="1174.9395" y1="148.3828" y2="148.3828"/><line style="stroke:#000000;stroke-width:1;" x1="5" x2="1174.9395" y1="151.3828" y2="151.3828"/><rect fill="#EEEEEE" height="19.6406" style="stroke:#000000;stroke-width:2;" width="323.1455" x="428.397" y="139.5625"/><text fill="#000000" font-family="sans-serif" font-size="10" font-weight="bold" x="434.397" y="152.8447">Client Registration (with Client Attestation and Email)</text><polygon fill="#000000" points="420.644,182.8438,430.644,186.8438,420.644,190.8438,424.644,186.8438" style="stroke:#000000;stroke-width:1;"/><line style="stroke:#000000;stroke-width:1;" x1="24" x2="426.644" y1="186.8438" y2="186.8438"/><text fill="#000000" font-family="sans-serif" font-size="10" x="31" y="182.4854">User Starts Registration</text><path d="M64.7993,198.8438 L124.7554,198.8438 L124.7554,202.4844 L114.7554,212.4844 L64.7993,212.4844 L64.7993,198.8438" fill="#EEEEEE" style="stroke:#000000;stroke-width:1.5;"/><rect fill="none" height="279.6875" style="stroke:#000000;stroke-width:1.5;" width="941.6099" x="64.7993" y="198.8438"/><text fill="#000000" font-family="sans-serif" font-size="10" font-weight="bold" x="79.7993" y="209.126">alt</text><text fill="#000000" font-family="sans-serif" font-size="10" font-weight="bold" x="139.7554" y="210.126">[Android Attestation]</text><line style="stroke:#000000;stroke-width:1;stroke-dasharray:2,2;" x1="64.7993" x2="1006.4092" y1="416.6094" y2="416.6094"/><text fill="#000000" font-family="sans-serif" font-size="10" font-weight="bold" x="69.7993" y="427.8916">[iOS Attestation]</text><polygon fill="#000000" points="101.7993,247.7656,91.7993,251.7656,101.7993,255.7656,97.7993,251.7656" style="stroke:#000000;stroke-width:1;"/><line style="stroke:#000000;stroke-width:1;" x1="95.7993" x2="431.644" y1="251.7656" y2="251.7656"/><text fill="#000000" font-family="sans-serif" font-size="10" x="107.7993" y="235.7666">Generate Key Pair</text><text fill="#000000" font-family="sans-serif" font-size="10" x="107.7993" y="247.4072">for Attestation</text><path d="M447.644,227.4844 L447.644,248.4844 L673.644,248.4844 L673.644,237.4844 L663.644,227.4844 L447.644,227.4844" fill="#FEFFDD" style="stroke:#181818;stroke-width:0.5;"/><path d="M663.644,227.4844 L663.644,237.4844 L673.644,237.4844 L663.644,227.4844" fill="#FEFFDD" style="stroke:#181818;stroke-width:0.5;"/><text fill="#000000" font-family="sans-serif" font-size="10" x="453.644" y="241.7666">Using Android TEE or iOS Secure Enclave</text><polygon fill="#000000" points="420.644,273.4063,430.644,277.4063,420.644,281.4063,424.644,277.4063" style="stroke:#000000;stroke-width:1;"/><line style="stroke:#000000;stroke-width:1;stroke-dasharray:2,2;" x1="90.7993" x2="426.644" y1="277.4063" y2="277.4063"/><text fill="#000000" font-family="sans-serif" font-size="10" x="97.7993" y="273.0479">Public Key</text><polygon fill="#000000" points="968.4092,299.0469,978.4092,303.0469,968.4092,307.0469,972.4092,303.0469" style="stroke:#000000;stroke-width:1;"/><line style="stroke:#000000;stroke-width:1;" x1="442.644" x2="974.4092" y1="303.0469" y2="303.0469"/><text fill="#000000" font-family="sans-serif" font-size="10" x="449.644" y="298.6885">Request Attestation Challenge</text><polygon fill="#000000" points="453.644,324.6875,443.644,328.6875,453.644,332.6875,449.644,328.6875" style="stroke:#000000;stroke-width:1;"/><line style="stroke:#000000;stroke-width:1;stroke-dasharray:2,2;" x1="447.644" x2="979.4092" y1="328.6875" y2="328.6875"/><text fill="#000000" font-family="sans-serif" font-size="10" x="459.644" y="324.3291">Attestation Challenge</text><polygon fill="#000000" points="101.7993,361.9688,91.7993,365.9688,101.7993,369.9688,97.7993,365.9688" style="stroke:#000000;stroke-width:1;"/><line style="stroke:#000000;stroke-width:1;" x1="95.7993" x2="431.644" y1="365.9688" y2="365.9688"/><text fill="#000000" font-family="sans-serif" font-size="10" x="107.7993" y="349.9697">Sign Challenge with</text><text fill="#000000" font-family="sans-serif" font-size="10" x="107.7993" y="361.6104">Attestation Key</text><path d="M447.644,341.6875 L447.644,374.6875 L674.644,374.6875 L674.644,351.6875 L664.644,341.6875 L447.644,341.6875" fill="#FEFFDD" style="stroke:#181818;stroke-width:0.5;"/><path d="M664.644,341.6875 L664.644,351.6875 L674.644,351.6875 L664.644,341.6875" fill="#FEFFDD" style="stroke:#181818;stroke-width:0.5;"/><text fill="#000000" font-family="sans-serif" font-size="10" x="453.644" y="355.9697">Using Android SafetyNet/Play Integrity or</text><text fill="#000000" font-family="sans-serif" font-size="10" x="453.644" y="367.6104">iOS DeviceCheck/App Attest API</text><polygon fill="#000000" points="420.644,393.6094,430.644,397.6094,420.644,401.6094,424.644,397.6094" style="stroke:#000000;stroke-width:1;"/><line style="stroke:#000000;stroke-width:1;stroke-dasharray:2,2;" x1="90.7993" x2="426.644" y1="397.6094" y2="397.6094"/><text fill="#000000" font-family="sans-serif" font-size="10" x="97.7993" y="393.251">Attestation Statement</text><line style="stroke:#000000;stroke-width:1;" x1="442.644" x2="484.644" y1="441.25" y2="441.25"/><line style="stroke:#000000;stroke-width:1;" x1="484.644" x2="484.644" y1="441.25" y2="454.25"/><line style="stroke:#000000;stroke-width:1;" x1="443.644" x2="484.644" y1="454.25" y2="454.25"/><polygon fill="#000000" points="453.644,450.25,443.644,454.25,453.644,458.25,449.644,454.25" style="stroke:#000000;stroke-width:1;"/><path d="M497.644,440.25 L497.644,473.25 L706.644,473.25 L706.644,450.25 L696.644,440.25 L497.644,440.25" fill="#FEFFDD" style="stroke:#181818;stroke-width:0.5;"/><path d="M696.644,440.25 L696.644,450.25 L706.644,450.25 L696.644,440.25" fill="#FEFFDD" style="stroke:#181818;stroke-width:0.5;"/><text fill="#000000" font-family="sans-serif" font-size="10" x="503.644" y="454.5322">iOS Attestation with App Attest API or</text><text fill="#000000" font-family="sans-serif" font-size="10" x="503.644" y="466.1729">DeviceCheck API</text><polygon fill="#000000" points="628.3159,506.1719,638.3159,510.1719,628.3159,514.1719,632.3159,510.1719" style="stroke:#000000;stroke-width:1;"/><line style="stroke:#000000;stroke-width:1;" x1="442.644" x2="634.3159" y1="510.1719" y2="510.1719"/><text fill="#000000" font-family="sans-serif" font-size="10" x="449.644" y="505.8135">Client Registration Request</text><path d="M655.3159,497.5313 L655.3159,541.5313 L890.3159,541.5313 L890.3159,507.5313 L880.3159,497.5313 L655.3159,497.5313" fill="#FEFFDD" style="stroke:#181818;stroke-width:0.5;"/><path d="M880.3159,497.5313 L880.3159,507.5313 L890.3159,507.5313 L880.3159,497.5313" fill="#FEFFDD" style="stroke:#181818;stroke-width:0.5;"/><text fill="#000000" font-family="sans-serif" font-size="10" x="661.3159" y="511.8135">client_instance.yaml</text><text fill="#000000" font-family="sans-serif" font-size="10" x="661.3159" y="523.4541">Includes attestation statement, public key,</text><text fill="#000000" font-family="sans-serif" font-size="10" x="661.3159" y="535.0947">User Email and software statement</text><polygon fill="#000000" points="968.4092,561.0938,978.4092,565.0938,968.4092,569.0938,972.4092,565.0938" style="stroke:#000000;stroke-width:1;"/><line style="stroke:#000000;stroke-width:1;" x1="650.3159" x2="974.4092" y1="565.0938" y2="565.0938"/><text fill="#000000" font-family="sans-serif" font-size="10" x="657.3159" y="560.7354">Verify Client Attestation</text><path d="M995.4092,552.4531 L995.4092,585.4531 L1169.4092,585.4531 L1169.4092,562.4531 L1159.4092,552.4531 L995.4092,552.4531" fill="#FEFFDD" style="stroke:#181818;stroke-width:0.5;"/><path d="M1159.4092,552.4531 L1159.4092,562.4531 L1169.4092,562.4531 L1159.4092,552.4531" fill="#FEFFDD" style="stroke:#181818;stroke-width:0.5;"/><text fill="#000000" font-family="sans-serif" font-size="10" x="1001.4092" y="566.7354">AS A forwards attestation data</text><text fill="#000000" font-family="sans-serif" font-size="10" x="1001.4092" y="578.376">to Attestation Service</text><line style="stroke:#000000;stroke-width:1;" x1="990.4092" x2="1032.4092" y1="620.0156" y2="620.0156"/><line style="stroke:#000000;stroke-width:1;" x1="1032.4092" x2="1032.4092" y1="620.0156" y2="633.0156"/><line style="stroke:#000000;stroke-width:1;" x1="991.4092" x2="1032.4092" y1="633.0156" y2="633.0156"/><polygon fill="#000000" points="1001.4092,629.0156,991.4092,633.0156,1001.4092,637.0156,997.4092,633.0156" style="stroke:#000000;stroke-width:1;"/><text fill="#000000" font-family="sans-serif" font-size="10" x="997.4092" y="604.0166">Validate Attestation</text><text fill="#000000" font-family="sans-serif" font-size="10" x="997.4092" y="615.6572">Statement</text><polygon fill="#000000" points="661.3159,654.6563,651.3159,658.6563,661.3159,662.6563,657.3159,658.6563" style="stroke:#000000;stroke-width:1;"/><line style="stroke:#000000;stroke-width:1;stroke-dasharray:2,2;" x1="655.3159" x2="979.4092" y1="658.6563" y2="658.6563"/><text fill="#000000" font-family="sans-serif" font-size="10" x="667.3159" y="654.2979">Attestation Verification Result</text><line style="stroke:#000000;stroke-width:1;" x1="650.3159" x2="692.3159" y1="695.9375" y2="695.9375"/><line style="stroke:#000000;stroke-width:1;" x1="692.3159" x2="692.3159" y1="695.9375" y2="708.9375"/><line style="stroke:#000000;stroke-width:1;" x1="651.3159" x2="692.3159" y1="708.9375" y2="708.9375"/><polygon fill="#000000" points="661.3159,704.9375,651.3159,708.9375,661.3159,712.9375,657.3159,708.9375" style="stroke:#000000;stroke-width:1;"/><text fill="#000000" font-family="sans-serif" font-size="10" x="657.3159" y="679.9385">Verify Email Confirmation JWT</text><text fill="#000000" font-family="sans-serif" font-size="10" x="657.3159" y="691.5791">if exists</text><path d="M8,720.9375 L67.9561,720.9375 L67.9561,724.5781 L57.9561,734.5781 L8,734.5781 L8,720.9375" fill="#EEEEEE" style="stroke:#000000;stroke-width:1.5;"/><rect fill="none" height="511.9375" style="stroke:#000000;stroke-width:1.5;" width="944.019" x="8" y="720.9375"/><text fill="#000000" font-family="sans-serif" font-size="10" font-weight="bold" x="23" y="731.2197">alt</text><text fill="#000000" font-family="sans-serif" font-size="10" font-weight="bold" x="82.9561" y="732.2197">[Email Confirmation Required because E-Mail Confirmation JWT not</text><text fill="#000000" font-family="sans-serif" font-size="10" font-weight="bold" x="82.9561" y="743.8604">provided or Email Confirmation JWT expired]</text><line style="stroke:#000000;stroke-width:1;stroke-dasharray:2,2;" x1="8" x2="952.019" y1="1176.9531" y2="1176.9531"/><text fill="#000000" font-family="sans-serif" font-size="10" font-weight="bold" x="13" y="1188.2354">[Valid Email Confirmation was provided]</text><line style="stroke:#000000;stroke-width:1;" x1="650.3159" x2="692.3159" y1="782.1406" y2="782.1406"/><line style="stroke:#000000;stroke-width:1;" x1="692.3159" x2="692.3159" y1="782.1406" y2="795.1406"/><line style="stroke:#000000;stroke-width:1;" x1="651.3159" x2="692.3159" y1="795.1406" y2="795.1406"/><polygon fill="#000000" points="661.3159,791.1406,651.3159,795.1406,661.3159,799.1406,657.3159,795.1406" style="stroke:#000000;stroke-width:1;"/><text fill="#000000" font-family="sans-serif" font-size="10" x="657.3159" y="766.1416">Generate Confirmation</text><text fill="#000000" font-family="sans-serif" font-size="10" x="657.3159" y="777.7822">Link and send Email</text><line style="stroke:#000000;stroke-width:1;" x1="271.8608" x2="313.8608" y1="820.7813" y2="820.7813"/><line style="stroke:#000000;stroke-width:1;" x1="313.8608" x2="313.8608" y1="820.7813" y2="833.7813"/><line style="stroke:#000000;stroke-width:1;" x1="272.8608" x2="313.8608" y1="833.7813" y2="833.7813"/><polygon fill="#000000" points="282.8608,829.7813,272.8608,833.7813,282.8608,837.7813,278.8608,833.7813" style="stroke:#000000;stroke-width:1;"/><text fill="#000000" font-family="sans-serif" font-size="10" x="278.8608" y="816.4229">Receive Email</text><polygon fill="#000000" points="249.8608,867.0625,259.8608,871.0625,249.8608,875.0625,253.8608,871.0625" style="stroke:#000000;stroke-width:1;"/><line style="stroke:#000000;stroke-width:1;" x1="24" x2="255.8608" y1="871.0625" y2="871.0625"/><text fill="#000000" font-family="sans-serif" font-size="10" x="31" y="855.0635">Click Confirmation</text><text fill="#000000" font-family="sans-serif" font-size="10" x="31" y="866.7041">Link in Email</text><polygon fill="#000000" points="183.9878,915.9844,173.9878,919.9844,183.9878,923.9844,179.9878,919.9844" style="stroke:#000000;stroke-width:1;"/><line style="stroke:#000000;stroke-width:1;" x1="177.9878" x2="260.8608" y1="919.9844" y2="919.9844"/><text fill="#000000" font-family="sans-serif" font-size="10" x="189.9878" y="892.3447">Open</text><text fill="#000000" font-family="sans-serif" font-size="10" x="189.9878" y="903.9854">Confirmation</text><text fill="#000000" font-family="sans-serif" font-size="10" x="189.9878" y="915.626">Link</text><polygon fill="#000000" points="628.3159,953.2656,638.3159,957.2656,628.3159,961.2656,632.3159,957.2656" style="stroke:#000000;stroke-width:1;"/><line style="stroke:#000000;stroke-width:1;" x1="172.9878" x2="634.3159" y1="957.2656" y2="957.2656"/><text fill="#000000" font-family="sans-serif" font-size="10" x="179.9878" y="941.2666">Email Confirmation</text><text fill="#000000" font-family="sans-serif" font-size="10" x="179.9878" y="952.9072">Request</text><line style="stroke:#000000;stroke-width:1;" x1="650.3159" x2="692.3159" y1="1006.1875" y2="1006.1875"/><line style="stroke:#000000;stroke-width:1;" x1="692.3159" x2="692.3159" y1="1006.1875" y2="1019.1875"/><line style="stroke:#000000;stroke-width:1;" x1="651.3159" x2="692.3159" y1="1019.1875" y2="1019.1875"/><polygon fill="#000000" points="661.3159,1015.1875,651.3159,1019.1875,661.3159,1023.1875,657.3159,1019.1875" style="stroke:#000000;stroke-width:1;"/><text fill="#000000" font-family="sans-serif" font-size="10" x="657.3159" y="978.5479">Verify Email</text><text fill="#000000" font-family="sans-serif" font-size="10" x="657.3159" y="990.1885">Confirmation</text><text fill="#000000" font-family="sans-serif" font-size="10" x="657.3159" y="1001.8291">Request</text><line style="stroke:#000000;stroke-width:1;" x1="650.3159" x2="692.3159" y1="1056.4688" y2="1056.4688"/><line style="stroke:#000000;stroke-width:1;" x1="692.3159" x2="692.3159" y1="1056.4688" y2="1069.4688"/><line style="stroke:#000000;stroke-width:1;" x1="651.3159" x2="692.3159" y1="1069.4688" y2="1069.4688"/><polygon fill="#000000" points="661.3159,1065.4688,651.3159,1069.4688,661.3159,1073.4688,657.3159,1069.4688" style="stroke:#000000;stroke-width:1;"/><text fill="#000000" font-family="sans-serif" font-size="10" x="657.3159" y="1040.4697">Generate Email</text><text fill="#000000" font-family="sans-serif" font-size="10" x="657.3159" y="1052.1104">Confirmation JWT</text><path d="M756.313,1032.1875 L756.313,1123.1875 L930.313,1123.1875 L930.313,1042.1875 L920.313,1032.1875 L756.313,1032.1875" fill="#FEFFDD" style="stroke:#181818;stroke-width:0.5;"/><path d="M920.313,1032.1875 L920.313,1042.1875 L930.313,1042.1875 L920.313,1032.1875" fill="#FEFFDD" style="stroke:#181818;stroke-width:0.5;"/><text fill="#000000" font-family="sans-serif" font-size="10" x="762.313" y="1046.4697">JWT Claims:</text><text fill="#000000" font-family="sans-serif" font-size="10" x="765.4917" y="1058.1104">- iss: AS_A_ID</text><text fill="#000000" font-family="sans-serif" font-size="10" x="765.4917" y="1069.751">- sub: Client_id</text><text fill="#000000" font-family="sans-serif" font-size="10" x="765.4917" y="1081.3916">- aud: (all AS)</text><text fill="#000000" font-family="sans-serif" font-size="10" x="765.4917" y="1093.0322">- exp: (Policy Engine decision)</text><text fill="#000000" font-family="sans-serif" font-size="10" x="765.4917" y="1104.6729">- iat: (now)</text><text fill="#000000" font-family="sans-serif" font-size="10" x="765.4917" y="1116.3135">- Email_verified: true</text><polygon fill="#000000" points="453.644,1153.9531,443.644,1157.9531,453.644,1161.9531,449.644,1157.9531" style="stroke:#000000;stroke-width:1;"/><line style="stroke:#000000;stroke-width:1;stroke-dasharray:2,2;" x1="447.644" x2="639.3159" y1="1157.9531" y2="1157.9531"/><text fill="#000000" font-family="sans-serif" font-size="10" x="459.644" y="1141.9541">Client Registration Response</text><text fill="#000000" font-family="sans-serif" font-size="10" x="459.644" y="1153.5947">(client_id, Email Confirmation JWT)</text><polygon fill="#000000" points="453.644,1220.875,443.644,1224.875,453.644,1228.875,449.644,1224.875" style="stroke:#000000;stroke-width:1;"/><line style="stroke:#000000;stroke-width:1;stroke-dasharray:2,2;" x1="447.644" x2="639.3159" y1="1224.875" y2="1224.875"/><text fill="#000000" font-family="sans-serif" font-size="10" x="459.644" y="1208.876">Client Registration Response</text><text fill="#000000" font-family="sans-serif" font-size="10" x="459.644" y="1220.5166">(client_id)</text><!--SRC=[fLPHZ-8s47xFht2vbrrfOQi-8csb770SxUrjjE5wQXK9cMG0QuETsWvi_dt7TXAS4AwgkY-ipSpdRyRVVFWdnjEyp81C9eyvhKIf9qLvp8CWJBMGv9i26Mp5EnazYotBWSpXn58OaG_BWr3w-u5f20Z-5LHgbhA2Sar2dad1ilLYGQWYetf9S3swYZK7X7l0_qoeMH6xl8vy_XRQc6VAyeJt8ot7e-CO5WKI37Ca-Z4l7Ry-sgUP1Vj4qyDubZE3GpxCgNoBWIub01_CSf4syw_5EYHjPanvLdsKukpoW6U6KT1ykXQ6VCj08-_rYlmo-PdCCLcPxFLYzldhovUNvP-NMYp-igGokuQ_QdYf3x5b5SsZXDTBdYKy4jY5YYpudd4O3IP7YyYbBZ3ryteTaKYAzshKAQIbvQWdlEN-hprxTSnUGObIff3m6EG9v6YuKNxcADGQbAQQ2UxIhFGG3R-ebq7mzDHSoolicTBInfExCzE7vXiFoFI5B8ueedloz1G4LaZZN-l8gHKaYJNIK1t0WAQQdQY6EZAWUQjq7z-MLH-Bi9TPc98bS906uNUeI4IPJFWEPwoVt1vqoRNxNE2UPFk3PSduddYJHH28lSGaXhIKW1UUvlJafE-DuzWhD2gtg0t3nKPbSEjShvYsxLFipTybqkwqTdQWUGvy3xqwBhTb-RJB3f_RG3wrBjHmdsEszo284G8EXGVVrFpVEntJ7UZgA-Z72DsIhBY6lMIwmlOdtFJV-UFi0EdR8_fGNHK9ezMFxi8dXzhJS3GAktqja2kmrtrRU3NqLJszBDiTqcLgY_4AiUnnGWEltSPYfeE3LmiZy0zDRTo6eMLGdiAaeaVqy9NxwL64UdnKK_u3APn2tw1wg0tVpgsTO2Ls-anHwMtyPK0jkS2vO4-rVu1aksh05e8XYVabXDWsWkEAXsPTnXdLDE5QT6-nXl35tgD2SvRL1tekrvRJ6vEwu_uPjXYMDcrNPQwzgbryNR1ht4pm7PD7b_3RzpLATaVW7UzE1SD3Pank8DVSCPE0dWqfBL6BY_7pq056UGalf3Yn3AE5l444IHG6pyr8huJMDlsiX7zX_Cr90Hf7xmurFXZiXdau81f-6DTAWPt02s_yttwDka2v3vp3k9TI0xPFbobvAG0Zh_EwXDg4_cGtJ2-FeKlrrmrBU3DYFPWk_e-KqEVg0zvi_q2ckRihXp7tESifEwffmicOCANC-6p2pMfkDrIvRQnZmpAxHSjiIkxGiJ7mtkwW8d2dytx1MbEcy5WNmIWUTiV5sIqjlSt9pWGWcfRrqwykoBFROTjIXU0AtoTtZLjb3pVaUkyCs4xmKCWPdoYDwFydXNjhlFvmMdFx1m00]--></g></svg>