<svg xmlns="http://www.w3.org/2000/svg" xmlns:xlink="http://www.w3.org/1999/xlink" contentStyleType="text/css" data-diagram-type="SEQUENCE" height="583px" preserveAspectRatio="none" style="width:695px;height:583px;background:#FFFFFF;" version="1.1" viewBox="0 0 695 583" width="695px" zoomAndPan="magnify"><defs/><g><rect fill="#F8F8FF" height="571.8594" style="stroke:#181818;stroke-width:0.5;" width="247.6826" x="11" y="6"/><text fill="#000000" font-family="Helvetica" font-size="10" font-weight="bold" x="126.3794" y="15.2822">LEI</text><rect fill="#E6E6FA" height="555.2188" style="stroke:#181818;stroke-width:0.5;" width="247.6826" x="11" y="22.6406"/><text fill="#000000" font-family="Helvetica" font-size="10" font-weight="bold" x="95.7446" y="31.9229">Prim&#228;rsystem</text><rect fill="#F4A460" height="538.5781" style="stroke:#181818;stroke-width:0.5;" width="89" x="11" y="39.2813"/><text fill="#000000" font-family="Helvetica" font-size="10" font-weight="bold" x="23" y="48.5635">ZETA Client</text><rect fill="#C9FFC9" height="571.8594" style="stroke:#181818;stroke-width:0.5;" width="395.3506" x="270.6826" y="6"/><text fill="#000000" font-family="Helvetica" font-size="10" font-weight="bold" x="443.9976" y="15.2822">Anbieter</text><rect fill="#F4A460" height="555.2188" style="stroke:#181818;stroke-width:0.5;" width="284.2871" x="270.6826" y="22.6406"/><text fill="#000000" font-family="Helvetica" font-size="10" font-weight="bold" x="379.6816" y="31.9229">ZETA Guard</text><rect fill="#8FBC8F" height="555.2188" style="stroke:#181818;stroke-width:0.5;" width="99.0635" x="566.9697" y="22.6406"/><text fill="#000000" font-family="Helvetica" font-size="10" font-weight="bold" x="578.9697" y="31.9229">TI 2.0 Dienst</text><g><title>ZETA</title><rect fill="#000000" fill-opacity="0.00000" height="440.375" width="8" x="52" y="93.2031"/><line style="stroke:#181818;stroke-width:0.5;stroke-dasharray:5.0,5.0;" x1="55.5" x2="55.5" y1="93.2031" y2="533.5781"/></g><g><title/><rect fill="#FFFFFF" height="324.5313" style="stroke:#181818;stroke-width:1;" width="10" x="50.5" y="101.2031"/></g><g><title>ZETA Attestation Service</title><rect fill="#000000" fill-opacity="0.00000" height="440.375" width="8" x="181.8413" y="93.2031"/><line style="stroke:#181818;stroke-width:0.5;stroke-dasharray:5.0,5.0;" x1="185.3413" x2="185.3413" y1="93.2031" y2="533.5781"/></g><g><title>PDP</title><rect fill="#000000" fill-opacity="0.00000" height="440.375" width="8" x="329.6572" y="93.2031"/><line style="stroke:#181818;stroke-width:0.5;stroke-dasharray:5.0,5.0;" x1="333.1572" x2="333.1572" y1="93.2031" y2="533.5781"/></g><g><title/><rect fill="#FFFFFF" height="306.8906" style="stroke:#181818;stroke-width:1;" width="10" x="328.1572" y="118.8438"/></g><g><title>PDP DB</title><rect fill="#000000" fill-opacity="0.00000" height="440.375" width="8" x="521.7197" y="93.2031"/><line style="stroke:#181818;stroke-width:0.5;stroke-dasharray:5.0,5.0;" x1="525.2197" x2="525.2197" y1="93.2031" y2="533.5781"/></g><g><title/><rect fill="#FFFFFF" height="103.8438" style="stroke:#181818;stroke-width:1;" width="10" x="520.2197" y="296.25"/></g><g><title>Resource</title><rect fill="#000000" fill-opacity="0.00000" height="440.375" width="8" x="613.0015" y="93.2031"/><line style="stroke:#181818;stroke-width:0.5;stroke-dasharray:5.0,5.0;" x1="616.5015" x2="616.5015" y1="93.2031" y2="533.5781"/></g><rect fill="#E2E2F0" height="37.2813" rx="2.5" ry="2.5" style="stroke:#181818;stroke-width:0.5;" width="42.9502" x="34.0249" y="54.9219"/><text fill="#000000" font-family="Helvetica" font-size="10" x="42.4409" y="71.2041">ZETA</text><text fill="#000000" font-family="Helvetica" font-size="10" x="41.0249" y="82.8447">Client</text><rect fill="#E2E2F0" height="37.2813" rx="2.5" ry="2.5" style="stroke:#181818;stroke-width:0.5;" width="138.6826" x="116" y="54.9219"/><text fill="#000000" font-family="Helvetica" font-size="10" x="123" y="71.2041">ZETA Attestation Service</text><text fill="#000000" font-family="Helvetica" font-size="10" x="149.4746" y="82.8447">(Admin rights)</text><rect fill="#E2E2F0" height="37.2813" rx="2.5" ry="2.5" style="stroke:#181818;stroke-width:0.5;" width="116.9492" x="274.6826" y="54.9219"/><text fill="#000000" font-family="Helvetica" font-size="10" x="323.2769" y="71.2041">PDP</text><text fill="#000000" font-family="Helvetica" font-size="10" x="281.6826" y="82.8447">Authorization Server</text><rect fill="#E2E2F0" height="25.6406" rx="2.5" ry="2.5" style="stroke:#181818;stroke-width:0.5;" width="51.5" x="499.4697" y="66.5625"/><text fill="#000000" font-family="Helvetica" font-size="10" x="506.4697" y="82.8447">PDP DB</text><rect fill="#E2E2F0" height="37.2813" rx="2.5" ry="2.5" style="stroke:#181818;stroke-width:0.5;" width="60.5283" x="586.2373" y="54.9219"/><text fill="#000000" font-family="Helvetica" font-size="10" x="593.2373" y="71.2041">Resource</text><text fill="#000000" font-family="Helvetica" font-size="10" x="600.105" y="82.8447">Server</text><rect fill="#E2E2F0" height="37.2813" rx="2.5" ry="2.5" style="stroke:#181818;stroke-width:0.5;" width="42.9502" x="34.0249" y="533.5781"/><text fill="#000000" font-family="Helvetica" font-size="10" x="42.4409" y="549.8604">ZETA</text><text fill="#000000" font-family="Helvetica" font-size="10" x="41.0249" y="561.501">Client</text><rect fill="#E2E2F0" height="37.2813" rx="2.5" ry="2.5" style="stroke:#181818;stroke-width:0.5;" width="138.6826" x="116" y="533.5781"/><text fill="#000000" font-family="Helvetica" font-size="10" x="123" y="549.8604">ZETA Attestation Service</text><text fill="#000000" font-family="Helvetica" font-size="10" x="149.4746" y="561.501">(Admin rights)</text><rect fill="#E2E2F0" height="37.2813" rx="2.5" ry="2.5" style="stroke:#181818;stroke-width:0.5;" width="116.9492" x="274.6826" y="533.5781"/><text fill="#000000" font-family="Helvetica" font-size="10" x="323.2769" y="549.8604">PDP</text><text fill="#000000" font-family="Helvetica" font-size="10" x="281.6826" y="561.501">Authorization Server</text><rect fill="#E2E2F0" height="25.6406" rx="2.5" ry="2.5" style="stroke:#181818;stroke-width:0.5;" width="51.5" x="499.4697" y="533.5781"/><text fill="#000000" font-family="Helvetica" font-size="10" x="506.4697" y="549.8604">PDP DB</text><rect fill="#E2E2F0" height="37.2813" rx="2.5" ry="2.5" style="stroke:#181818;stroke-width:0.5;" width="60.5283" x="586.2373" y="533.5781"/><text fill="#000000" font-family="Helvetica" font-size="10" x="593.2373" y="549.8604">Resource</text><text fill="#000000" font-family="Helvetica" font-size="10" x="600.105" y="561.501">Server</text><polygon fill="#181818" points="316.1572,114.8438,326.1572,118.8438,316.1572,122.8438,320.1572,118.8438" style="stroke:#181818;stroke-width:1;"/><line style="stroke:#181818;stroke-width:1;" x1="60.5" x2="322.1572" y1="118.8438" y2="118.8438"/><text fill="#000000" font-family="Helvetica" font-size="10" x="67.5" y="114.4854">(01)</text><text fill="#000000" font-family="Helvetica" font-size="10" x="92.0273" y="114.4854">POST /register</text><path d="M343.1572,131.8438 L343.1572,234.8438 L639.1572,234.8438 L639.1572,141.8438 L629.1572,131.8438 L343.1572,131.8438" fill="#ADD8E6" style="stroke:#181818;stroke-width:0.5;"/><path d="M629.1572,131.8438 L629.1572,141.8438 L639.1572,141.8438 L629.1572,131.8438" fill="#ADD8E6" style="stroke:#181818;stroke-width:0.5;"/><text fill="#000000" font-family="Helvetica" font-size="10" x="349.1572" y="146.126">DCR Request Body: {</text><text fill="#000000" font-family="Helvetica" font-size="10" x="355.5146" y="157.7666">"client_name": "myClient",</text><text fill="#000000" font-family="Helvetica" font-size="10" x="355.5146" y="169.4072">"grant_types": [</text><text fill="#000000" font-family="Helvetica" font-size="10" x="361.8721" y="181.0479">"urn:ietf:params:oauth:grant-type:token-exchange",</text><text fill="#000000" font-family="Helvetica" font-size="10" x="361.8721" y="192.6885">"refresh_token"</text><text fill="#000000" font-family="Helvetica" font-size="10" x="355.5146" y="204.3291">],</text><text fill="#000000" font-family="Helvetica" font-size="10" x="355.5146" y="215.9697">"token_endpoint_auth_method": "private_key_jwt"</text><text fill="#000000" font-family="Helvetica" font-size="10" x="349.1572" y="227.6104">}</text><line style="stroke:#181818;stroke-width:1;" x1="338.1572" x2="380.1572" y1="257.6094" y2="257.6094"/><line style="stroke:#181818;stroke-width:1;" x1="380.1572" x2="380.1572" y1="257.6094" y2="270.6094"/><line style="stroke:#181818;stroke-width:1;" x1="339.1572" x2="380.1572" y1="270.6094" y2="270.6094"/><polygon fill="#181818" points="349.1572,266.6094,339.1572,270.6094,349.1572,274.6094,345.1572,270.6094" style="stroke:#181818;stroke-width:1;"/><text fill="#000000" font-family="Helvetica" font-size="10" x="345.1572" y="253.251">(02)</text><text fill="#000000" font-family="Helvetica" font-size="10" x="369.6846" y="253.251">Generate client_id</text><polygon fill="#181818" points="508.2197,292.25,518.2197,296.25,508.2197,300.25,512.2197,296.25" style="stroke:#181818;stroke-width:1;"/><line style="stroke:#181818;stroke-width:1;" x1="338.1572" x2="514.2197" y1="296.25" y2="296.25"/><text fill="#000000" font-family="Helvetica" font-size="10" x="345.1572" y="291.8916">(03)</text><text fill="#000000" font-family="Helvetica" font-size="10" x="369.6846" y="291.8916">Store Client Placeholder</text><path d="M535.2197,309.25 L535.2197,377.25 L688.2197,377.25 L688.2197,319.25 L678.2197,309.25 L535.2197,309.25" fill="#FEFFDD" style="stroke:#181818;stroke-width:0.5;"/><path d="M678.2197,309.25 L678.2197,319.25 L688.2197,319.25 L678.2197,309.25" fill="#FEFFDD" style="stroke:#181818;stroke-width:0.5;"/><text fill="#000000" font-family="Helvetica" font-size="10" x="541.2197" y="323.5322">Store Client Placeholder</text><text fill="#000000" font-family="Helvetica" font-size="10" x="541.2197" y="335.1729">client_id</text><text fill="#000000" font-family="Helvetica" font-size="10" x="541.2197" y="346.8135">client_name</text><text fill="#000000" font-family="Helvetica" font-size="10" x="541.2197" y="358.4541">...</text><text fill="#000000" font-family="Helvetica" font-size="10" x="541.2197" y="370.0947">state: pending_attestation</text><polygon fill="#181818" points="349.1572,396.0938,339.1572,400.0938,349.1572,404.0938,345.1572,400.0938" style="stroke:#181818;stroke-width:1;"/><line style="stroke:#181818;stroke-width:1;stroke-dasharray:2.0,2.0;" x1="343.1572" x2="519.2197" y1="400.0938" y2="400.0938"/><text fill="#000000" font-family="Helvetica" font-size="10" x="355.1572" y="395.7354">(04)</text><text fill="#000000" font-family="Helvetica" font-size="10" x="379.6846" y="395.7354">Client Placeholder Created</text><line style="stroke:#181818;stroke-width:1;" x1="61.5" x2="71.5" y1="425.7344" y2="421.7344"/><line style="stroke:#181818;stroke-width:1;" x1="61.5" x2="71.5" y1="425.7344" y2="429.7344"/><line style="stroke:#181818;stroke-width:1;stroke-dasharray:2.0,2.0;" x1="60.5" x2="327.1572" y1="425.7344" y2="425.7344"/><text fill="#000000" font-family="Helvetica" font-size="10" x="77.5" y="421.376">(05)</text><text fill="#000000" font-family="Helvetica" font-size="10" x="102.0273" y="421.376">201 Created</text><path d="M65.5,438.7344 L65.5,517.7344 L212.5,517.7344 L212.5,448.7344 L202.5,438.7344 L65.5,438.7344" fill="#90EE90" style="stroke:#181818;stroke-width:0.5;"/><path d="M202.5,438.7344 L202.5,448.7344 L212.5,448.7344 L202.5,438.7344" fill="#90EE90" style="stroke:#181818;stroke-width:0.5;"/><text fill="#000000" font-family="Helvetica" font-size="10" x="71.5" y="453.0166">DCR Response Body:</text><text fill="#000000" font-family="Helvetica" font-size="10" x="71.5" y="464.6572">{</text><text fill="#000000" font-family="Helvetica" font-size="10" x="71.5" y="476.2979">"client_id": "&lt;client-id&gt;",</text><text fill="#000000" font-family="Helvetica" font-size="10" x="71.5" y="487.9385">"client_id_issued_at": ...,</text><text fill="#000000" font-family="Helvetica" font-size="10" x="71.5" y="499.5791">// ...</text><text fill="#000000" font-family="Helvetica" font-size="10" x="71.5" y="511.2197">}</text><!--SRC=[XLJRJjj047tVhvYQ1q0X5tYqgaYvq8148KeYLQLKrYQUE4liNNTt7GYeVzC_wOzrrdOSbr3roRkUCpFdd1cRPrR9B9cZ1k-aqpdrc5aBcNBD4mXnoRFOVbBIJiKBmddd_U0jJn2kCDwW5GjUmmmBp6SbbKdv0iCAFL2P5gXhs1XbP5Uzy34p5gIIM8iP_96XNE04bwZTeSyNwqYhJ8O35IiDNrR2rXEcRnFs6YvO-_X_GBkD4UOg3jbncx4FgUPHmi6YUW6hCsHihfx1kxcyzk1ej5B65lq1ylTZBPBVlxJP6ei98Mxu1cL8OW5AnFtbh0U3MA2q59zo6MxxMZt97050rCX8aN9fInHmKsGzo38jXr9PLv2zJRhlJQiCw5cBnd8hb2IvUYCM-21FUc4Y96WHhQmvTTLsjNRFGcDFpWLQr4HpTZcukhsxkHjzPNKPeuphy515dKuliwk2q7WuVf3kghHusLEY-WT911tsTqamxDSvxeoSNSD5gmD3SeIMvcZ8zNgAVAGHtxDoKd2OeA7bSoRKMn_8BurlDAfZirigQJJ0X_7TT0PjZP6WCMicbSN2Jb3B4dSKk_iyfeqP3YOmSRj6FFigtFhmIcszHLuvaFH9U3vuoRQSxfaBHffO1tQReg7WjvocbsdfqqIMVhw_nbUSMlavjEcWlbLhb4ryNgouZ32lH6aQbnhDAiYZJl7tl4L-3KXpgWJrShM216ayeQEJQh7X5eCrReF79zgvdxazJYeh55QM-312YPhGK6eIuHvJpBBHy65gbSRTKezZ-YUiw3Cxy2zFOFy4xrlK36IjLekvHKSVKk8fP1Jm_UxlgHTicXNtPjD_fmaCD5AjIaMpszsXNC95vxn2_Csz11N3Z_9TBAPlKYKD5kDdhyohL3YlFnQtfWYxDBDzB136P1YI4aAHmZFMRhjdVHOLhJy0]--></g></svg>