<?plantuml 1.2026.2?><svg xmlns="http://www.w3.org/2000/svg" xmlns:xlink="http://www.w3.org/1999/xlink" contentStyleType="text/css" data-diagram-type="SEQUENCE" height="1642px" preserveAspectRatio="none" style="width:1329px;height:1642px;background:#FFFFFF;" version="1.1" viewBox="0 0 1329 1642" width="1329px" zoomAndPan="magnify"><defs/><g><rect fill="#F8F8FF" height="1630.7969" style="stroke:#181818;stroke-width:0.5;" width="833.4697" x="11" y="6"/><text fill="#000000" font-family="Helvetica" font-size="10" font-weight="bold" x="419.2729" y="15.2822">LEI</text><rect fill="#E6E6FA" height="1614.1563" style="stroke:#181818;stroke-width:0.5;" width="637.7319" x="11" y="22.6406"/><text fill="#000000" font-family="Helvetica" font-size="10" font-weight="bold" x="290.7693" y="31.9229">Prim&#228;rsystem</text><rect fill="#F4A460" height="1597.5156" style="stroke:#181818;stroke-width:0.5;" width="89" x="11" y="39.2813"/><text fill="#000000" font-family="Helvetica" font-size="10" font-weight="bold" x="23" y="48.5635">ZETA Client</text><rect fill="#C9FFC9" height="1630.7969" style="stroke:#181818;stroke-width:0.5;" width="467.4277" x="856.4697" y="6"/><text fill="#000000" font-family="Helvetica" font-size="10" font-weight="bold" x="1065.8232" y="15.2822">Anbieter</text><rect fill="#F4A460" height="1614.1563" style="stroke:#181818;stroke-width:0.5;" width="467.4277" x="856.4697" y="22.6406"/><text fill="#000000" font-family="Helvetica" font-size="10" font-weight="bold" x="1057.0391" y="31.9229">ZETA Guard</text><g><title>ZETA</title><rect fill="#000000" fill-opacity="0.00000" height="1499.3125" width="8" x="52" y="93.2031"/><line style="stroke:#181818;stroke-width:0.5;stroke-dasharray:5,5;" x1="55.5" x2="55.5" y1="93.2031" y2="1592.5156"/></g><g><title/><rect fill="#FFFFFF" height="1486.3125" style="stroke:#181818;stroke-width:1;" width="10" x="50.5" y="101.2031"/></g><g><title>ZETA Attestation Service</title><rect fill="#000000" fill-opacity="0.00000" height="1499.3125" width="8" x="527.124" y="93.2031"/><line style="stroke:#181818;stroke-width:0.5;stroke-dasharray:5,5;" x1="530.624" x2="530.624" y1="93.2031" y2="1592.5156"/></g><g><title/><rect fill="#FFFFFF" height="68.9219" style="stroke:#181818;stroke-width:1;" width="10" x="525.624" y="318.9688"/></g><g><title>TPM</title><rect fill="#000000" fill-opacity="0.00000" height="1499.3125" width="8" x="623.8486" y="93.2031"/><line style="stroke:#181818;stroke-width:0.5;stroke-dasharray:5,5;" x1="627.3486" x2="627.3486" y1="93.2031" y2="1592.5156"/></g><g><title>Konnektor or</title><rect fill="#000000" fill-opacity="0.00000" height="1499.3125" width="8" x="700.6587" y="93.2031"/><line style="stroke:#181818;stroke-width:0.5;stroke-dasharray:5,5;" x1="704.1587" x2="704.1587" y1="93.2031" y2="1592.5156"/></g><g><title/><rect fill="#FFFFFF" height="76.9219" style="stroke:#181818;stroke-width:1;" width="10" x="699.1587" y="673.6563"/></g><g><title>SM.C.-B</title><rect fill="#000000" fill-opacity="0.00000" height="1499.3125" width="8" x="809.855" y="93.2031"/><line style="stroke:#181818;stroke-width:0.5;stroke-dasharray:5,5;" x1="813.355" x2="813.355" y1="93.2031" y2="1592.5156"/></g><g><title/><rect fill="#FFFFFF" height="25.6406" style="stroke:#181818;stroke-width:1;" width="10" x="808.355" y="699.2969"/></g><g><title>PDP</title><rect fill="#000000" fill-opacity="0.00000" height="1499.3125" width="8" x="915.4443" y="93.2031"/><line style="stroke:#181818;stroke-width:0.5;stroke-dasharray:5,5;" x1="918.9443" x2="918.9443" y1="93.2031" y2="1592.5156"/></g><g><title/><rect fill="#FFFFFF" height="25.6406" style="stroke:#181818;stroke-width:1;" width="10" x="913.9443" y="118.8438"/></g><g><title/><rect fill="#FFFFFF" height="707.0156" style="stroke:#181818;stroke-width:1;" width="10" x="913.9443" y="853.5"/></g><g><title>PDP</title><rect fill="#000000" fill-opacity="0.00000" height="1499.3125" width="8" x="1194.9678" y="93.2031"/><line style="stroke:#181818;stroke-width:0.5;stroke-dasharray:5,5;" x1="1198.4678" x2="1198.4678" y1="93.2031" y2="1592.5156"/></g><g><title/><rect fill="#FFFFFF" height="25.6406" style="stroke:#181818;stroke-width:1;" width="10" x="1193.4678" y="1150.9063"/></g><g><title/><rect fill="#FFFFFF" height="25.6406" style="stroke:#181818;stroke-width:1;" width="10" x="1193.4678" y="1384.6719"/></g><g><title>PDP</title><rect fill="#000000" fill-opacity="0.00000" height="1499.3125" width="8" x="1276.1113" y="93.2031"/><line style="stroke:#181818;stroke-width:0.5;stroke-dasharray:5,5;" x1="1279.6113" x2="1279.6113" y1="93.2031" y2="1592.5156"/></g><g><title/><rect fill="#FFFFFF" height="25.6406" style="stroke:#181818;stroke-width:1;" width="10" x="1274.6113" y="1255.4688"/></g><rect fill="#E2E2F0" height="37.2813" rx="2.5" ry="2.5" style="stroke:#181818;stroke-width:0.5;" width="42.9502" x="34.0249" y="54.9219"/><text fill="#000000" font-family="Helvetica" font-size="10" x="42.4409" y="71.2041">ZETA</text><text fill="#000000" font-family="Helvetica" font-size="10" x="41.0249" y="82.8447">Client</text><rect fill="#E2E2F0" height="37.2813" rx="2.5" ry="2.5" style="stroke:#181818;stroke-width:0.5;" width="138.6826" x="461.2827" y="54.9219"/><text fill="#000000" font-family="Helvetica" font-size="10" x="468.2827" y="71.2041">ZETA Attestation Service</text><text fill="#000000" font-family="Helvetica" font-size="10" x="494.7573" y="82.8447">(Admin rights)</text><rect fill="#E2E2F0" height="25.6406" rx="2.5" ry="2.5" style="stroke:#181818;stroke-width:0.5;" width="34.7666" x="609.9653" y="66.5625"/><text fill="#000000" font-family="Helvetica" font-size="10" x="616.9653" y="82.8447">TPM</text><rect fill="#E2E2F0" height="37.2813" rx="2.5" ry="2.5" style="stroke:#181818;stroke-width:0.5;" width="78.8535" x="664.7319" y="54.9219"/><text fill="#000000" font-family="Helvetica" font-size="10" x="671.7319" y="71.2041">Konnektor or</text><text fill="#000000" font-family="Helvetica" font-size="10" x="675.7383" y="82.8447">TI-Gateway</text><rect fill="#E2E2F0" height="25.6406" rx="2.5" ry="2.5" style="stroke:#181818;stroke-width:0.5;" width="54.2295" x="786.2402" y="66.5625"/><text fill="#000000" font-family="Helvetica" font-size="10" x="793.2402" y="82.8447">SM(C)-B</text><rect fill="#E2E2F0" height="37.2813" rx="2.5" ry="2.5" style="stroke:#181818;stroke-width:0.5;" width="116.9492" x="860.4697" y="54.9219"/><text fill="#000000" font-family="Helvetica" font-size="10" x="909.064" y="71.2041">PDP</text><text fill="#000000" font-family="Helvetica" font-size="10" x="867.4697" y="82.8447">Authorization Server</text><rect fill="#E2E2F0" height="37.2813" rx="2.5" ry="2.5" style="stroke:#181818;stroke-width:0.5;" width="61.7148" x="1167.6104" y="54.9219"/><text fill="#000000" font-family="Helvetica" font-size="10" x="1188.5874" y="71.2041">PDP</text><text fill="#000000" font-family="Helvetica" font-size="10" x="1174.6104" y="82.8447">Database</text><rect fill="#E2E2F0" height="37.2813" rx="2.5" ry="2.5" style="stroke:#181818;stroke-width:0.5;" width="80.5723" x="1239.3252" y="54.9219"/><text fill="#000000" font-family="Helvetica" font-size="10" x="1269.731" y="71.2041">PDP</text><text fill="#000000" font-family="Helvetica" font-size="10" x="1246.3252" y="82.8447">Policy Engine</text><rect fill="#E2E2F0" height="37.2813" rx="2.5" ry="2.5" style="stroke:#181818;stroke-width:0.5;" width="42.9502" x="34.0249" y="1592.5156"/><text fill="#000000" font-family="Helvetica" font-size="10" x="42.4409" y="1608.7979">ZETA</text><text fill="#000000" font-family="Helvetica" font-size="10" x="41.0249" y="1620.4385">Client</text><rect fill="#E2E2F0" height="37.2813" rx="2.5" ry="2.5" style="stroke:#181818;stroke-width:0.5;" width="138.6826" x="461.2827" y="1592.5156"/><text fill="#000000" font-family="Helvetica" font-size="10" x="468.2827" y="1608.7979">ZETA Attestation Service</text><text fill="#000000" font-family="Helvetica" font-size="10" x="494.7573" y="1620.4385">(Admin rights)</text><rect fill="#E2E2F0" height="25.6406" rx="2.5" ry="2.5" style="stroke:#181818;stroke-width:0.5;" width="34.7666" x="609.9653" y="1592.5156"/><text fill="#000000" font-family="Helvetica" font-size="10" x="616.9653" y="1608.7979">TPM</text><rect fill="#E2E2F0" height="37.2813" rx="2.5" ry="2.5" style="stroke:#181818;stroke-width:0.5;" width="78.8535" x="664.7319" y="1592.5156"/><text fill="#000000" font-family="Helvetica" font-size="10" x="671.7319" y="1608.7979">Konnektor or</text><text fill="#000000" font-family="Helvetica" font-size="10" x="675.7383" y="1620.4385">TI-Gateway</text><rect fill="#E2E2F0" height="25.6406" rx="2.5" ry="2.5" style="stroke:#181818;stroke-width:0.5;" width="54.2295" x="786.2402" y="1592.5156"/><text fill="#000000" font-family="Helvetica" font-size="10" x="793.2402" y="1608.7979">SM(C)-B</text><rect fill="#E2E2F0" height="37.2813" rx="2.5" ry="2.5" style="stroke:#181818;stroke-width:0.5;" width="116.9492" x="860.4697" y="1592.5156"/><text fill="#000000" font-family="Helvetica" font-size="10" x="909.064" y="1608.7979">PDP</text><text fill="#000000" font-family="Helvetica" font-size="10" x="867.4697" y="1620.4385">Authorization Server</text><rect fill="#E2E2F0" height="37.2813" rx="2.5" ry="2.5" style="stroke:#181818;stroke-width:0.5;" width="61.7148" x="1167.6104" y="1592.5156"/><text fill="#000000" font-family="Helvetica" font-size="10" x="1188.5874" y="1608.7979">PDP</text><text fill="#000000" font-family="Helvetica" font-size="10" x="1174.6104" y="1620.4385">Database</text><rect fill="#E2E2F0" height="37.2813" rx="2.5" ry="2.5" style="stroke:#181818;stroke-width:0.5;" width="80.5723" x="1239.3252" y="1592.5156"/><text fill="#000000" font-family="Helvetica" font-size="10" x="1269.731" y="1608.7979">PDP</text><text fill="#000000" font-family="Helvetica" font-size="10" x="1246.3252" y="1620.4385">Policy Engine</text><polygon fill="#181818" points="901.9443,114.8438,911.9443,118.8438,901.9443,122.8438,905.9443,118.8438" style="stroke:#181818;stroke-width:1;"/><line style="stroke:#181818;stroke-width:1;" x1="60.5" x2="907.9443" y1="118.8438" y2="118.8438"/><text fill="#000000" font-family="Helvetica" font-size="10" x="67.5" y="114.4854">(01)</text><text fill="#000000" font-family="Helvetica" font-size="10" x="92.0273" y="114.4854">GET /nonce</text><polygon fill="#181818" points="71.5,140.4844,61.5,144.4844,71.5,148.4844,67.5,144.4844" style="stroke:#181818;stroke-width:1;"/><line style="stroke:#181818;stroke-width:1;stroke-dasharray:2,2;" x1="65.5" x2="912.9443" y1="144.4844" y2="144.4844"/><text fill="#000000" font-family="Helvetica" font-size="10" x="77.5" y="140.126">(02)</text><text fill="#000000" font-family="Helvetica" font-size="10" x="102.0273" y="140.126">return 200 OK new-nonce: nonce</text><path d="M20.5,156.4844 L80.4561,156.4844 L80.4561,160.125 L70.4561,170.125 L20.5,170.125 L20.5,156.4844" fill="#EEEEEE" style="stroke:#000000;stroke-width:1.5;"/><rect fill="none" height="1028.0625" style="stroke:#000000;stroke-width:1.5;" width="1198.9678" x="20.5" y="156.4844"/><text fill="#000000" font-family="Helvetica" font-size="10" font-weight="bold" x="35.5" y="166.7666">alt</text><text fill="#000000" font-family="Helvetica" font-size="10" font-weight="bold" x="95.4561" y="167.7666">[Initial SM(C)-B Token Exchangewith Attestation]</text><line style="stroke:#000000;stroke-width:1;stroke-dasharray:2,2;" x1="20.5" x2="1219.4678" y1="922.7813" y2="922.7813"/><text fill="#000000" font-family="Helvetica" font-size="10" font-weight="bold" x="25.5" y="934.0635">[Refresh Token use (without Attestation)]</text><line style="stroke:#181818;stroke-width:1;" x1="60.5" x2="102.5" y1="197.7656" y2="197.7656"/><line style="stroke:#181818;stroke-width:1;" x1="102.5" x2="102.5" y1="197.7656" y2="210.7656"/><line style="stroke:#181818;stroke-width:1;" x1="61.5" x2="102.5" y1="210.7656" y2="210.7656"/><polygon fill="#181818" points="71.5,206.7656,61.5,210.7656,71.5,214.7656,67.5,210.7656" style="stroke:#181818;stroke-width:1;"/><text fill="#000000" font-family="Helvetica" font-size="10" x="67.5" y="193.4072">(03)</text><text fill="#000000" font-family="Helvetica" font-size="10" x="92.0273" y="193.4072">Create DPoP Key Pair (for Token Exchange)</text><path d="M321.2002,185.125 L321.2002,206.125 L547.2002,206.125 L547.2002,195.125 L537.2002,185.125 L321.2002,185.125" fill="#FEFFDD" style="stroke:#181818;stroke-width:0.5;"/><path d="M537.2002,185.125 L537.2002,195.125 L547.2002,195.125 L537.2002,185.125" fill="#FEFFDD" style="stroke:#181818;stroke-width:0.5;"/><text fill="#000000" font-family="Helvetica" font-size="10" x="327.2002" y="199.4072">Session-based Key Pair for DPoP binding.</text><line style="stroke:#181818;stroke-width:1;" x1="60.5" x2="102.5" y1="236.4063" y2="236.4063"/><line style="stroke:#181818;stroke-width:1;" x1="102.5" x2="102.5" y1="236.4063" y2="249.4063"/><line style="stroke:#181818;stroke-width:1;" x1="61.5" x2="102.5" y1="249.4063" y2="249.4063"/><polygon fill="#181818" points="71.5,245.4063,61.5,249.4063,71.5,253.4063,67.5,249.4063" style="stroke:#181818;stroke-width:1;"/><text fill="#000000" font-family="Helvetica" font-size="10" x="67.5" y="232.0479">(04)</text><text fill="#000000" font-family="Helvetica" font-size="10" x="92.0273" y="232.0479">Calculate attestation_challenge</text><path d="M261.957,223.7656 L261.957,267.7656 L705.957,267.7656 L705.957,233.7656 L695.957,223.7656 L261.957,223.7656" fill="#FEFFDD" style="stroke:#181818;stroke-width:0.5;"/><path d="M695.957,223.7656 L695.957,233.7656 L705.957,233.7656 L695.957,223.7656" fill="#FEFFDD" style="stroke:#181818;stroke-width:0.5;"/><text fill="#000000" font-family="Helvetica" font-size="10" x="267.957" y="238.0479">The attestation_challenge is a cryptographic hash of the PuK.Client.Sig and a nonce.</text><text fill="#000000" font-family="Helvetica" font-size="10" x="267.957" y="249.6885">It is used to bind the attestation to the client instance.</text><text fill="#000000" font-family="Helvetica" font-size="10" x="267.957" y="261.3291">attestation_challenge = HASH(JWK Thumbprint ofPuK.Client.Sig + nonce)</text><path d="M39.5,277.6875 L99.4561,277.6875 L99.4561,281.3281 L89.4561,291.3281 L39.5,291.3281 L39.5,277.6875" fill="#EEEEEE" style="stroke:#000000;stroke-width:1.5;"/><rect fill="none" height="325.6875" style="stroke:#000000;stroke-width:1.5;" width="521.1982" x="39.5" y="277.6875"/><text fill="#000000" font-family="Helvetica" font-size="10" font-weight="bold" x="54.5" y="287.9697">alt</text><text fill="#000000" font-family="Helvetica" font-size="10" font-weight="bold" x="114.4561" y="288.9697">[ZETA Attestation Service available]</text><line style="stroke:#000000;stroke-width:1;stroke-dasharray:2,2;" x1="39.5" x2="560.6982" y1="495.8125" y2="495.8125"/><text fill="#000000" font-family="Helvetica" font-size="10" font-weight="bold" x="44.5" y="507.0947">[Fallback: Software-basierte Attestierung]</text><polygon fill="#181818" points="513.624,314.9688,523.624,318.9688,513.624,322.9688,517.624,318.9688" style="stroke:#181818;stroke-width:1;"/><line style="stroke:#181818;stroke-width:1;" x1="60.5" x2="519.624" y1="318.9688" y2="318.9688"/><text fill="#000000" font-family="Helvetica" font-size="10" x="67.5" y="314.6104">(05)</text><text fill="#000000" font-family="Helvetica" font-size="10" x="92.0273" y="314.6104">Get Attestation with `attestation_challenge`</text><path d="M65.5,331.9688 L65.5,352.9688 L539.5,352.9688 L539.5,341.9688 L529.5,331.9688 L65.5,331.9688" fill="#FF0000" style="stroke:#181818;stroke-width:0.5;"/><path d="M529.5,331.9688 L529.5,341.9688 L539.5,341.9688 L529.5,331.9688" fill="#FF0000" style="stroke:#181818;stroke-width:0.5;"/><text fill="#000000" font-family="Helvetica" font-size="10" x="71.5" y="346.251">Der TPM Attestation Flow wird aktuell &#252;berarbeitet und in einer Folgeversion nachgeliefert</text><polygon fill="#181818" points="71.5,383.8906,61.5,387.8906,71.5,391.8906,67.5,387.8906" style="stroke:#181818;stroke-width:1;"/><line style="stroke:#181818;stroke-width:1;stroke-dasharray:2,2;" x1="65.5" x2="524.624" y1="387.8906" y2="387.8906"/><text fill="#000000" font-family="Helvetica" font-size="10" x="77.5" y="377.7119">(06)</text><text fill="#000000" font-family="Helvetica" font-size="10" x="102.0273" y="371.8916">Return Attestation</text><text fill="#000000" font-family="Helvetica" font-size="10" x="102.0273" y="383.5322">(Quote, EventLog, CertChain)</text><line style="stroke:#181818;stroke-width:1;" x1="60.5" x2="102.5" y1="425.1719" y2="425.1719"/><line style="stroke:#181818;stroke-width:1;" x1="102.5" x2="102.5" y1="425.1719" y2="438.1719"/><line style="stroke:#181818;stroke-width:1;" x1="61.5" x2="102.5" y1="438.1719" y2="438.1719"/><polygon fill="#181818" points="71.5,434.1719,61.5,438.1719,71.5,442.1719,67.5,438.1719" style="stroke:#181818;stroke-width:1;"/><text fill="#000000" font-family="Helvetica" font-size="10" x="67.5" y="414.9932">(07)</text><text fill="#000000" font-family="Helvetica" font-size="10" x="92.0273" y="409.1729">Create client_statement</text><text fill="#000000" font-family="Helvetica" font-size="10" x="92.0273" y="420.8135">with posture-tpm</text><line style="stroke:#181818;stroke-width:1;" x1="60.5" x2="102.5" y1="463.8125" y2="463.8125"/><line style="stroke:#181818;stroke-width:1;" x1="102.5" x2="102.5" y1="463.8125" y2="476.8125"/><line style="stroke:#181818;stroke-width:1;" x1="61.5" x2="102.5" y1="476.8125" y2="476.8125"/><polygon fill="#181818" points="71.5,472.8125,61.5,476.8125,71.5,480.8125,67.5,476.8125" style="stroke:#181818;stroke-width:1;"/><text fill="#000000" font-family="Helvetica" font-size="10" x="67.5" y="459.4541">(08)</text><text fill="#000000" font-family="Helvetica" font-size="10" x="92.0273" y="459.4541">Create Client Assertion JWT (with TPM Attestation, sig by Client_Instance_Private_Key)</text><line style="stroke:#181818;stroke-width:1;" x1="60.5" x2="102.5" y1="543.7344" y2="543.7344"/><line style="stroke:#181818;stroke-width:1;" x1="102.5" x2="102.5" y1="543.7344" y2="556.7344"/><line style="stroke:#181818;stroke-width:1;" x1="61.5" x2="102.5" y1="556.7344" y2="556.7344"/><polygon fill="#181818" points="71.5,552.7344,61.5,556.7344,71.5,560.7344,67.5,556.7344" style="stroke:#181818;stroke-width:1;"/><text fill="#000000" font-family="Helvetica" font-size="10" x="67.5" y="533.5557">(09)</text><text fill="#000000" font-family="Helvetica" font-size="10" x="92.0273" y="527.7354">Create client_statement</text><text fill="#000000" font-family="Helvetica" font-size="10" x="92.0273" y="539.376">with posture-software</text><line style="stroke:#181818;stroke-width:1;" x1="60.5" x2="102.5" y1="582.375" y2="582.375"/><line style="stroke:#181818;stroke-width:1;" x1="102.5" x2="102.5" y1="582.375" y2="595.375"/><line style="stroke:#181818;stroke-width:1;" x1="61.5" x2="102.5" y1="595.375" y2="595.375"/><polygon fill="#181818" points="71.5,591.375,61.5,595.375,71.5,599.375,67.5,595.375" style="stroke:#181818;stroke-width:1;"/><text fill="#000000" font-family="Helvetica" font-size="10" x="67.5" y="578.0166">(10)</text><text fill="#000000" font-family="Helvetica" font-size="10" x="92.0273" y="578.0166">Create Client Assertion JWT (with SW Attestation, sig by Client_Instance_Private_Key)</text><line style="stroke:#181818;stroke-width:1;" x1="60.5" x2="102.5" y1="635.0156" y2="635.0156"/><line style="stroke:#181818;stroke-width:1;" x1="102.5" x2="102.5" y1="635.0156" y2="648.0156"/><line style="stroke:#181818;stroke-width:1;" x1="61.5" x2="102.5" y1="648.0156" y2="648.0156"/><polygon fill="#181818" points="71.5,644.0156,61.5,648.0156,71.5,652.0156,67.5,648.0156" style="stroke:#181818;stroke-width:1;"/><text fill="#000000" font-family="Helvetica" font-size="10" x="67.5" y="630.6572">(11)</text><text fill="#000000" font-family="Helvetica" font-size="10" x="92.0273" y="630.6572">Create "SM(C)-B ID Token" (JWT, with Bindigs for nonce, client_key, dpop_key)</text><polygon fill="#181818" points="687.1587,669.6563,697.1587,673.6563,687.1587,677.6563,691.1587,673.6563" style="stroke:#181818;stroke-width:1;"/><line style="stroke:#181818;stroke-width:1;" x1="60.5" x2="693.1587" y1="673.6563" y2="673.6563"/><text fill="#000000" font-family="Helvetica" font-size="10" x="67.5" y="669.2979">(12)</text><text fill="#000000" font-family="Helvetica" font-size="10" x="92.0273" y="669.2979">externalAuthenticate (JWT-hash)</text><polygon fill="#181818" points="796.355,695.2969,806.355,699.2969,796.355,703.2969,800.355,699.2969" style="stroke:#181818;stroke-width:1;"/><line style="stroke:#181818;stroke-width:1;" x1="709.1587" x2="802.355" y1="699.2969" y2="699.2969"/><text fill="#000000" font-family="Helvetica" font-size="10" x="716.1587" y="694.9385">(13)</text><text fill="#000000" font-family="Helvetica" font-size="10" x="740.686" y="694.9385">sign (hash)</text><polygon fill="#181818" points="720.1587,720.9375,710.1587,724.9375,720.1587,728.9375,716.1587,724.9375" style="stroke:#181818;stroke-width:1;"/><line style="stroke:#181818;stroke-width:1;stroke-dasharray:2,2;" x1="714.1587" x2="807.355" y1="724.9375" y2="724.9375"/><text fill="#000000" font-family="Helvetica" font-size="10" x="726.1587" y="720.5791">(14)</text><text fill="#000000" font-family="Helvetica" font-size="10" x="750.686" y="720.5791">Signature</text><polygon fill="#181818" points="71.5,746.5781,61.5,750.5781,71.5,754.5781,67.5,750.5781" style="stroke:#181818;stroke-width:1;"/><line style="stroke:#181818;stroke-width:1;stroke-dasharray:2,2;" x1="65.5" x2="698.1587" y1="750.5781" y2="750.5781"/><text fill="#000000" font-family="Helvetica" font-size="10" x="77.5" y="746.2197">(15)</text><text fill="#000000" font-family="Helvetica" font-size="10" x="102.0273" y="746.2197">JWT-signature</text><line style="stroke:#181818;stroke-width:1;" x1="60.5" x2="102.5" y1="776.2188" y2="776.2188"/><line style="stroke:#181818;stroke-width:1;" x1="102.5" x2="102.5" y1="776.2188" y2="789.2188"/><line style="stroke:#181818;stroke-width:1;" x1="61.5" x2="102.5" y1="789.2188" y2="789.2188"/><polygon fill="#181818" points="71.5,785.2188,61.5,789.2188,71.5,793.2188,67.5,789.2188" style="stroke:#181818;stroke-width:1;"/><text fill="#000000" font-family="Helvetica" font-size="10" x="67.5" y="771.8604">(16)</text><text fill="#000000" font-family="Helvetica" font-size="10" x="92.0273" y="771.8604">Add JWT-Signature to SM(C)-B ID Token</text><line style="stroke:#181818;stroke-width:1;" x1="60.5" x2="102.5" y1="814.8594" y2="814.8594"/><line style="stroke:#181818;stroke-width:1;" x1="102.5" x2="102.5" y1="814.8594" y2="827.8594"/><line style="stroke:#181818;stroke-width:1;" x1="61.5" x2="102.5" y1="827.8594" y2="827.8594"/><polygon fill="#181818" points="71.5,823.8594,61.5,827.8594,71.5,831.8594,67.5,827.8594" style="stroke:#181818;stroke-width:1;"/><text fill="#000000" font-family="Helvetica" font-size="10" x="67.5" y="810.501">(17)</text><text fill="#000000" font-family="Helvetica" font-size="10" x="92.0273" y="810.501">Create DPoP Proof JWT for Token Exchange</text><polygon fill="#181818" points="901.9443,849.5,911.9443,853.5,901.9443,857.5,905.9443,853.5" style="stroke:#181818;stroke-width:1;"/><line style="stroke:#181818;stroke-width:1;" x1="60.5" x2="907.9443" y1="853.5" y2="853.5"/><text fill="#000000" font-family="Helvetica" font-size="10" x="67.5" y="849.1416">(18)</text><text fill="#000000" font-family="Helvetica" font-size="10" x="92.0273" y="849.1416">POST /token (RFC 8693) DPoP: &lt;signed_dpop_jwt&gt;</text><line style="stroke:#181818;stroke-width:1;" x1="923.9443" x2="965.9443" y1="890.7813" y2="890.7813"/><line style="stroke:#181818;stroke-width:1;" x1="965.9443" x2="965.9443" y1="890.7813" y2="903.7813"/><line style="stroke:#181818;stroke-width:1;" x1="924.9443" x2="965.9443" y1="903.7813" y2="903.7813"/><polygon fill="#181818" points="934.9443,899.7813,924.9443,903.7813,934.9443,907.7813,930.9443,903.7813" style="stroke:#181818;stroke-width:1;"/><text fill="#000000" font-family="Helvetica" font-size="10" x="930.9443" y="880.6025">(19)</text><text fill="#000000" font-family="Helvetica" font-size="10" x="955.4717" y="874.7822">Validate Request (Client Assertion, Attestation,</text><text fill="#000000" font-family="Helvetica" font-size="10" x="955.4717" y="886.4229">DPoP Proof, Subject Token and Key bindings)</text><line style="stroke:#181818;stroke-width:1;" x1="60.5" x2="102.5" y1="959.0625" y2="959.0625"/><line style="stroke:#181818;stroke-width:1;" x1="102.5" x2="102.5" y1="959.0625" y2="972.0625"/><line style="stroke:#181818;stroke-width:1;" x1="61.5" x2="102.5" y1="972.0625" y2="972.0625"/><polygon fill="#181818" points="71.5,968.0625,61.5,972.0625,71.5,976.0625,67.5,972.0625" style="stroke:#181818;stroke-width:1;"/><text fill="#000000" font-family="Helvetica" font-size="10" x="67.5" y="954.7041">(20)</text><text fill="#000000" font-family="Helvetica" font-size="10" x="92.0273" y="954.7041">Create Client Assertion JWT without Attestation</text><line style="stroke:#181818;stroke-width:1;" x1="60.5" x2="102.5" y1="997.7031" y2="997.7031"/><line style="stroke:#181818;stroke-width:1;" x1="102.5" x2="102.5" y1="997.7031" y2="1010.7031"/><line style="stroke:#181818;stroke-width:1;" x1="61.5" x2="102.5" y1="1010.7031" y2="1010.7031"/><polygon fill="#181818" points="71.5,1006.7031,61.5,1010.7031,71.5,1014.7031,67.5,1010.7031" style="stroke:#181818;stroke-width:1;"/><text fill="#000000" font-family="Helvetica" font-size="10" x="67.5" y="993.3447">(21)</text><text fill="#000000" font-family="Helvetica" font-size="10" x="92.0273" y="993.3447">Create DPoP Proof JWT for Token Exchange</text><polygon fill="#181818" points="901.9443,1032.3438,911.9443,1036.3438,901.9443,1040.3438,905.9443,1036.3438" style="stroke:#181818;stroke-width:1;"/><line style="stroke:#181818;stroke-width:1;" x1="60.5" x2="907.9443" y1="1036.3438" y2="1036.3438"/><text fill="#000000" font-family="Helvetica" font-size="10" x="67.5" y="1031.9854">(22)</text><text fill="#000000" font-family="Helvetica" font-size="10" x="92.0273" y="1031.9854">POST /token DPoP: &lt;signed_dpop_jwt&gt;</text><line style="stroke:#181818;stroke-width:1;" x1="923.9443" x2="965.9443" y1="1073.625" y2="1073.625"/><line style="stroke:#181818;stroke-width:1;" x1="965.9443" x2="965.9443" y1="1073.625" y2="1086.625"/><line style="stroke:#181818;stroke-width:1;" x1="924.9443" x2="965.9443" y1="1086.625" y2="1086.625"/><polygon fill="#181818" points="934.9443,1082.625,924.9443,1086.625,934.9443,1090.625,930.9443,1086.625" style="stroke:#181818;stroke-width:1;"/><text fill="#000000" font-family="Helvetica" font-size="10" x="930.9443" y="1063.4463">(23)</text><text fill="#000000" font-family="Helvetica" font-size="10" x="955.4717" y="1057.626">Validate Request (Client Assertion,</text><text fill="#000000" font-family="Helvetica" font-size="10" x="955.4717" y="1069.2666">DPoP Proof, Refresh Token)</text><line style="stroke:#181818;stroke-width:1;" x1="923.9443" x2="965.9443" y1="1112.2656" y2="1112.2656"/><line style="stroke:#181818;stroke-width:1;" x1="965.9443" x2="965.9443" y1="1112.2656" y2="1125.2656"/><line style="stroke:#181818;stroke-width:1;" x1="924.9443" x2="965.9443" y1="1125.2656" y2="1125.2656"/><polygon fill="#181818" points="934.9443,1121.2656,924.9443,1125.2656,934.9443,1129.2656,930.9443,1125.2656" style="stroke:#181818;stroke-width:1;"/><text fill="#000000" font-family="Helvetica" font-size="10" x="930.9443" y="1107.9072">(24)</text><text fill="#000000" font-family="Helvetica" font-size="10" x="955.4717" y="1107.9072">Invalidate Refresh token</text><polygon fill="#181818" points="1181.4678,1146.9063,1191.4678,1150.9063,1181.4678,1154.9063,1185.4678,1150.9063" style="stroke:#181818;stroke-width:1;"/><line style="stroke:#181818;stroke-width:1;" x1="923.9443" x2="1187.4678" y1="1150.9063" y2="1150.9063"/><text fill="#000000" font-family="Helvetica" font-size="10" x="930.9443" y="1146.5479">(25)</text><text fill="#000000" font-family="Helvetica" font-size="10" x="955.4717" y="1146.5479">Get Client Data, Session Data, User Data</text><polygon fill="#181818" points="934.9443,1172.5469,924.9443,1176.5469,934.9443,1180.5469,930.9443,1176.5469" style="stroke:#181818;stroke-width:1;"/><line style="stroke:#181818;stroke-width:1;stroke-dasharray:2,2;" x1="928.9443" x2="1192.4678" y1="1176.5469" y2="1176.5469"/><text fill="#000000" font-family="Helvetica" font-size="10" x="940.9443" y="1172.1885">(26)</text><text fill="#000000" font-family="Helvetica" font-size="10" x="965.4717" y="1172.1885">Client Data, Session Data, User Data</text><path d="M20.5,1202.5469 L80.4561,1202.5469 L80.4561,1206.1875 L70.4561,1216.1875 L20.5,1216.1875 L20.5,1202.5469" fill="#EEEEEE" style="stroke:#000000;stroke-width:1.5;"/><rect fill="none" height="365.9688" style="stroke:#000000;stroke-width:1.5;" width="1280.1113" x="20.5" y="1202.5469"/><text fill="#000000" font-family="Helvetica" font-size="10" font-weight="bold" x="35.5" y="1212.8291">alt</text><text fill="#000000" font-family="Helvetica" font-size="10" font-weight="bold" x="95.4561" y="1213.8291">[Validations Successful]</text><line style="stroke:#000000;stroke-width:1;stroke-dasharray:2,2;" x1="20.5" x2="1300.6113" y1="1524.2344" y2="1524.2344"/><text fill="#000000" font-family="Helvetica" font-size="10" font-weight="bold" x="25.5" y="1535.5166">[Validation Failed]</text><polygon fill="#181818" points="1262.6113,1251.4688,1272.6113,1255.4688,1262.6113,1259.4688,1266.6113,1255.4688" style="stroke:#181818;stroke-width:1;"/><line style="stroke:#181818;stroke-width:1;" x1="923.9443" x2="1268.6113" y1="1255.4688" y2="1255.4688"/><text fill="#000000" font-family="Helvetica" font-size="10" x="930.9443" y="1245.29">(27)</text><text fill="#000000" font-family="Helvetica" font-size="10" x="955.4717" y="1239.4697">POST /v1/data/authz, body</text><text fill="#000000" font-family="Helvetica" font-size="10" x="955.4717" y="1251.1104">{  "input": {...}}</text><polygon fill="#181818" points="934.9443,1277.1094,924.9443,1281.1094,934.9443,1285.1094,930.9443,1281.1094" style="stroke:#181818;stroke-width:1;"/><line style="stroke:#181818;stroke-width:1;stroke-dasharray:2,2;" x1="928.9443" x2="1273.6113" y1="1281.1094" y2="1281.1094"/><text fill="#000000" font-family="Helvetica" font-size="10" x="940.9443" y="1276.751">(28)</text><text fill="#000000" font-family="Helvetica" font-size="10" x="965.4717" y="1276.751">200 OK</text><path d="M39.5,1293.1094 L99.4561,1293.1094 L99.4561,1296.75 L89.4561,1306.75 L39.5,1306.75 L39.5,1293.1094" fill="#EEEEEE" style="stroke:#000000;stroke-width:1.5;"/><rect fill="none" height="206.125" style="stroke:#000000;stroke-width:1.5;" width="1179.9678" x="39.5" y="1293.1094"/><text fill="#000000" font-family="Helvetica" font-size="10" font-weight="bold" x="54.5" y="1303.3916">alt</text><text fill="#000000" font-family="Helvetica" font-size="10" font-weight="bold" x="114.4561" y="1304.3916">[Policy Decision allowed]</text><line style="stroke:#000000;stroke-width:1;stroke-dasharray:2,2;" x1="39.5" x2="1219.4678" y1="1454.9531" y2="1454.9531"/><text fill="#000000" font-family="Helvetica" font-size="10" font-weight="bold" x="44.5" y="1466.2354">[Policy Decision denied]</text><line style="stroke:#181818;stroke-width:1;" x1="923.9443" x2="965.9443" y1="1346.0313" y2="1346.0313"/><line style="stroke:#181818;stroke-width:1;" x1="965.9443" x2="965.9443" y1="1346.0313" y2="1359.0313"/><line style="stroke:#181818;stroke-width:1;" x1="924.9443" x2="965.9443" y1="1359.0313" y2="1359.0313"/><polygon fill="#181818" points="934.9443,1355.0313,924.9443,1359.0313,934.9443,1363.0313,930.9443,1359.0313" style="stroke:#181818;stroke-width:1;"/><text fill="#000000" font-family="Helvetica" font-size="10" x="930.9443" y="1335.8525">(29)</text><text fill="#000000" font-family="Helvetica" font-size="10" x="955.4717" y="1330.0322">Generate AS Access Token (AT)</text><text fill="#000000" font-family="Helvetica" font-size="10" x="955.4717" y="1341.6729">and Refresh Token (RT)</text><polygon fill="#181818" points="1181.4678,1380.6719,1191.4678,1384.6719,1181.4678,1388.6719,1185.4678,1384.6719" style="stroke:#181818;stroke-width:1;"/><line style="stroke:#181818;stroke-width:1;" x1="923.9443" x2="1187.4678" y1="1384.6719" y2="1384.6719"/><text fill="#000000" font-family="Helvetica" font-size="10" x="930.9443" y="1380.3135">(30)</text><text fill="#000000" font-family="Helvetica" font-size="10" x="955.4717" y="1380.3135">Update Client, Session and User Data</text><polygon fill="#181818" points="934.9443,1406.3125,924.9443,1410.3125,934.9443,1414.3125,930.9443,1410.3125" style="stroke:#181818;stroke-width:1;"/><line style="stroke:#181818;stroke-width:1;stroke-dasharray:2,2;" x1="928.9443" x2="1192.4678" y1="1410.3125" y2="1410.3125"/><text fill="#000000" font-family="Helvetica" font-size="10" x="940.9443" y="1405.9541">(31)</text><text fill="#000000" font-family="Helvetica" font-size="10" x="965.4717" y="1405.9541">updated</text><polygon fill="#181818" points="71.5,1431.9531,61.5,1435.9531,71.5,1439.9531,67.5,1435.9531" style="stroke:#181818;stroke-width:1;"/><line style="stroke:#181818;stroke-width:1;stroke-dasharray:2,2;" x1="65.5" x2="912.9443" y1="1435.9531" y2="1435.9531"/><text fill="#000000" font-family="Helvetica" font-size="10" x="77.5" y="1431.5947">(32)</text><text fill="#000000" font-family="Helvetica" font-size="10" x="102.0273" y="1431.5947">200 OK, new tokens</text><polygon fill="#181818" points="71.5,1487.2344,61.5,1491.2344,71.5,1495.2344,67.5,1491.2344" style="stroke:#181818;stroke-width:1;"/><line style="stroke:#181818;stroke-width:1;stroke-dasharray:2,2;" x1="65.5" x2="912.9443" y1="1491.2344" y2="1491.2344"/><text fill="#000000" font-family="Helvetica" font-size="10" x="77.5" y="1486.876">(33)</text><text fill="#000000" font-family="Helvetica" font-size="10" x="102.0273" y="1486.876">403 Forbidden</text><polygon fill="#181818" points="71.5,1556.5156,61.5,1560.5156,71.5,1564.5156,67.5,1560.5156" style="stroke:#181818;stroke-width:1;"/><line style="stroke:#181818;stroke-width:1;stroke-dasharray:2,2;" x1="65.5" x2="912.9443" y1="1560.5156" y2="1560.5156"/><text fill="#000000" font-family="Helvetica" font-size="10" x="77.5" y="1556.1572">(34)</text><text fill="#000000" font-family="Helvetica" font-size="10" x="102.0273" y="1556.1572">400 Bad Request</text><?plantuml-src hLVhSjf65FwlfpWbFm9ZP9EaqscPEZCoo9ZuHeqIjndFE8jqW8t5BbsjJ70cRzF7wB-yMC-k19809stIcSn4ID-vVUTgbcefqja85TJghLQZvYHtNCoPOZE8SCpIM1zBeOVy0U5PQ_V72pP3EC7u7ZKFMGdJpJ3dKiXapaACrkYEJ1L7LSB6A2PwwaNlqqI3a09BtnByCqKHuXMEKPc78nRUJPHCHTIHiLHmFUMwB33S52XYUEuSFFqQK2zZX96C8-VfWUFyC5TiCcEWKJw0LYawpaX-WDgPtw_1azvK9Zgp3s3V3nIVVVvB9Sj4uumGP-mUHKJ10kI8jtxWGIVcA3Hz7p8HBO-KN0YB023NY4W-PqBdA6199dKZSZ4B9RL6eRCfzDORhYN0qneJpJINWi9Lzpp46r7teXaNeFXagfD6RKj3C3Yt6kX_yx4mL0QTIY7mJXF_1bhyakf617stnpGksBAs8JKyFxBuuNczqt2FQivAUSQg9qOSDIeY9l0x9nUNPvUzFvmoSRsKgMYRjx8DBzNJZ891Tt0Zp4-f-4D10kdV4Y9ezwWGwZBDHYp17K2_G0rapCCb-6B21PQfMaULPt1lR_Nalipzszk3DlJy00wetaDqihSkVLyXtJOerAaIyBpLWijJ4BXmBRWDcOpp50uF3s4OU5T16uBBK_y2_Dyx9zv5puUXtmdwbnS6uR1OGrzmpLaCEVKGo3iKu7y8fqnCSC7rj5mj54pXSVxKXev2oYjq1t80fxY40UCAwcDAUrLRWyI59AIjiJQndYIar3MKHeMa4RIwHbn4N4psdHrcoIgBmpGsXbdXu2rPYitSm0rRmVGH7F0468HgETToejXyoaEOicGASWoQX0RfwNvcSd_89q05Hd1BzFwDw6iZdXhtjRJ-MfcI8VFUl0ep_xcWzvdiRcyEuSGRdjHVNP-IopI4vugJc1nlkB6NkM0OfN-LX7j1uDEZpN8vsm0ctu_rFx1xncCsYj7MTa6t6HnPLQAk2DhQUBSpYdTMHq6_uJBN-4HXbC-qBYqOCrJAIezZkI3DYaY-qod6CNp-cnOHKoEaSQg1nZjn24YTfU1OnXEalZL518A5qmcI4PhQUZqAZG_sXmbZeuskiZOgcQSX-5jA4atmQJxhCpbfGeVKTQQCYyO6CUiwpAe_I_2jqOGpUheHbg0vhO9KeQldivtoHVlalxqa8OicebVN0TIjaWsMcf1G2OoMkSXjFo-gMrepzwJgbbh9U8jnWd1CEHdHRgHsasEzOEGBzHijMZAPwQJdL4o-AxeaL_tj8Gwllob2qusnNhU0Vz5zl04s6sKrylhTV4vPBurRMRiy7aTjKxG6rB51C-k98pEs9ecTOxPBcolwxd3PX6Wkv-QfKHrhnQwqtOOVQE495fi5G0WweiYkCUAQuMHYBmH8scnGAqUy2QYlCEQrMr7kkWIY2KBZ9xNvAdygjGUXZB6aXDp1XnT55hPMQCRT9ZdErxV6G4aQ4QOQjhT6DRbVJbh5KccZ3Yw7j5Ar5QXV7NVWvvz-UT6mjjlmgmaIerkRcFSB_PAqv7jtfQGDRrZC8-FlbJaFwHwjRnPpirB0T2oi0sl2C1sznr3dBfiTOhPTljyIgWJRgdHnAgJDaw5egsIz8TFAu6qu_xd5TcZvtgHiCrrb-V-bjifcXQV6bies7JNtXSuCQxqgGxFJRhtPSfFcmckk3fFyrslomZwIU2RbhhqtU-HVYQucLQcKlt2P4QmygTvuP_tkza0p-pmdZqmcL6LXIER7QLm9r2_tmFsp0uAp0qQV7vfqZaRB6_4He4P__gIwreQF-_lxdpwPKFsDEBDxCxyZyYEtYo6tyTAMaOjyjMzbk8UqhaqsQ0bxriUydEfUqA1BYBYfrdxzAcXKLPNIzNeU5PLUC6wqb5ErErcf5QxuMTfsMOXDSrDd5PEirkXcl14A_gYQ7rilw3XH8nv5jkXMoRUQYepHRkQnLRBZp0UZfWL7B5hrnQuQUgGordzNkFy0?></g></svg>