<svg xmlns="http://www.w3.org/2000/svg" xmlns:xlink="http://www.w3.org/1999/xlink" contentStyleType="text/css" data-diagram-type="SEQUENCE" height="773px" preserveAspectRatio="none" style="width:1115px;height:773px;background:#FFFFFF;" version="1.1" viewBox="0 0 1115 773" width="1115px" zoomAndPan="magnify"><defs/><g><rect fill="#F8F8FF" height="761.1875" style="stroke:#181818;stroke-width:0.5;" width="494.2036" x="126.5586" y="6"/><text fill="#000000" font-family="Helvetica" font-size="10" font-weight="bold" x="365.1985" y="15.2822">LEI</text><rect fill="#E6E6FA" height="744.5469" style="stroke:#181818;stroke-width:0.5;" width="331.1206" x="126.5586" y="22.6406"/><text fill="#000000" font-family="Helvetica" font-size="10" font-weight="bold" x="253.0222" y="31.9229">Prim&#228;rsystem</text><rect fill="#F4A460" height="727.9063" style="stroke:#181818;stroke-width:0.5;" width="89" x="126.5586" y="39.2813"/><text fill="#000000" font-family="Helvetica" font-size="10" font-weight="bold" x="138.5586" y="48.5635">ZETA Client</text><rect fill="#C9FFC9" height="761.1875" style="stroke:#181818;stroke-width:0.5;" width="444.6436" x="632.7622" y="6"/><text fill="#000000" font-family="Helvetica" font-size="10" font-weight="bold" x="830.7236" y="15.2822">Anbieter</text><rect fill="#F4A460" height="744.5469" style="stroke:#181818;stroke-width:0.5;" width="333.5801" x="632.7622" y="22.6406"/><text fill="#000000" font-family="Helvetica" font-size="10" font-weight="bold" x="766.4077" y="31.9229">ZETA Guard</text><rect fill="#8FBC8F" height="744.5469" style="stroke:#181818;stroke-width:0.5;" width="99.0635" x="978.3423" y="22.6406"/><text fill="#000000" font-family="Helvetica" font-size="10" font-weight="bold" x="990.3423" y="31.9229">TI 2.0 Dienst</text><g><title>User</title><rect fill="#000000" fill-opacity="0.00000" height="562.9844" width="8" x="15.8965" y="126.5625"/><line style="stroke:#181818;stroke-width:0.5;stroke-dasharray:5.0,5.0;" x1="19.3965" x2="19.3965" y1="126.5625" y2="689.5469"/></g><g><title>ZETA</title><rect fill="#000000" fill-opacity="0.00000" height="562.9844" width="8" x="167.5586" y="126.5625"/><line style="stroke:#181818;stroke-width:0.5;stroke-dasharray:5.0,5.0;" x1="171.0586" x2="171.0586" y1="126.5625" y2="689.5469"/></g><g><title/><rect fill="#FFFFFF" height="496.0625" style="stroke:#181818;stroke-width:1;" width="10" x="166.0586" y="175.4844"/></g><g><title>ZETA Attestation Service</title><rect fill="#000000" fill-opacity="0.00000" height="562.9844" width="8" x="336.0713" y="126.5625"/><line style="stroke:#181818;stroke-width:0.5;stroke-dasharray:5.0,5.0;" x1="339.5713" x2="339.5713" y1="126.5625" y2="689.5469"/></g><g><title>TPM</title><rect fill="#000000" fill-opacity="0.00000" height="562.9844" width="8" x="432.7959" y="126.5625"/><line style="stroke:#181818;stroke-width:0.5;stroke-dasharray:5.0,5.0;" x1="436.2959" x2="436.2959" y1="126.5625" y2="689.5469"/></g><g><title>Konnektor or</title><rect fill="#000000" fill-opacity="0.00000" height="562.9844" width="8" x="509.606" y="126.5625"/><line style="stroke:#181818;stroke-width:0.5;stroke-dasharray:5.0,5.0;" x1="513.106" x2="513.106" y1="126.5625" y2="689.5469"/></g><g><title>SM(C)-B</title><rect fill="#000000" fill-opacity="0.00000" height="562.9844" width="8" x="586.1475" y="126.5625"/><line style="stroke:#181818;stroke-width:0.5;stroke-dasharray:5.0,5.0;" x1="589.6475" x2="589.6475" y1="126.5625" y2="689.5469"/></g><g><title>PEP</title><rect fill="#000000" fill-opacity="0.00000" height="562.9844" width="8" x="668.7827" y="126.5625"/><line style="stroke:#181818;stroke-width:0.5;stroke-dasharray:5.0,5.0;" x1="672.2827" x2="672.2827" y1="126.5625" y2="689.5469"/></g><g><title/><rect fill="#FFFFFF" height="212.4063" style="stroke:#181818;stroke-width:1;" width="10" x="667.2827" y="433.5"/></g><g><title>PDP</title><rect fill="#000000" fill-opacity="0.00000" height="562.9844" width="8" x="809.7954" y="126.5625"/><line style="stroke:#181818;stroke-width:0.5;stroke-dasharray:5.0,5.0;" x1="813.2954" x2="813.2954" y1="126.5625" y2="689.5469"/></g><g><title>PDP</title><rect fill="#000000" fill-opacity="0.00000" height="562.9844" width="8" x="918.5562" y="126.5625"/><line style="stroke:#181818;stroke-width:0.5;stroke-dasharray:5.0,5.0;" x1="922.0562" x2="922.0562" y1="126.5625" y2="689.5469"/></g><g><title>Resource</title><rect fill="#000000" fill-opacity="0.00000" height="562.9844" width="8" x="1024.374" y="126.5625"/><line style="stroke:#181818;stroke-width:0.5;stroke-dasharray:5.0,5.0;" x1="1027.874" x2="1027.874" y1="126.5625" y2="689.5469"/></g><g><title/><rect fill="#FFFFFF" height="87.5625" style="stroke:#181818;stroke-width:1;" width="10" x="1022.874" y="532.7031"/></g><text fill="#000000" font-family="Helvetica" font-size="10" x="5" y="124.2041">User</text><ellipse cx="19.3965" cy="63.4219" fill="#E2E2F0" rx="8" ry="8" style="stroke:#181818;stroke-width:0.5;"/><path d="M19.3965,71.4219 L19.3965,98.4219 M6.3965,79.4219 L32.3965,79.4219 M19.3965,98.4219 L6.3965,113.4219 M19.3965,98.4219 L32.3965,113.4219" fill="none" style="stroke:#181818;stroke-width:0.5;"/><rect fill="#E2E2F0" height="37.2813" rx="2.5" ry="2.5" style="stroke:#181818;stroke-width:0.5;" width="42.9502" x="149.5835" y="88.2813"/><text fill="#000000" font-family="Helvetica" font-size="10" x="157.9995" y="104.5635">ZETA</text><text fill="#000000" font-family="Helvetica" font-size="10" x="156.5835" y="116.2041">Client</text><rect fill="#E2E2F0" height="37.2813" rx="2.5" ry="2.5" style="stroke:#181818;stroke-width:0.5;" width="138.6826" x="270.23" y="88.2813"/><text fill="#000000" font-family="Helvetica" font-size="10" x="277.23" y="104.5635">ZETA Attestation Service</text><text fill="#000000" font-family="Helvetica" font-size="10" x="303.7046" y="116.2041">(Admin rights)</text><rect fill="#E2E2F0" height="25.6406" rx="2.5" ry="2.5" style="stroke:#181818;stroke-width:0.5;" width="34.7666" x="418.9126" y="99.9219"/><text fill="#000000" font-family="Helvetica" font-size="10" x="425.9126" y="116.2041">TPM</text><rect fill="#E2E2F0" height="37.2813" rx="2.5" ry="2.5" style="stroke:#181818;stroke-width:0.5;" width="78.8535" x="473.6792" y="88.2813"/><text fill="#000000" font-family="Helvetica" font-size="10" x="480.6792" y="104.5635">Konnektor or</text><text fill="#000000" font-family="Helvetica" font-size="10" x="484.6855" y="116.2041">TI-Gateway</text><rect fill="#E2E2F0" height="25.6406" rx="2.5" ry="2.5" style="stroke:#181818;stroke-width:0.5;" width="54.2295" x="562.5327" y="99.9219"/><text fill="#000000" font-family="Helvetica" font-size="10" x="569.5327" y="116.2041">SM(C)-B</text><rect fill="#E2E2F0" height="37.2813" rx="2.5" ry="2.5" style="stroke:#181818;stroke-width:0.5;" width="71.041" x="636.7622" y="88.2813"/><text fill="#000000" font-family="Helvetica" font-size="10" x="663.0933" y="104.5635">PEP</text><text fill="#000000" font-family="Helvetica" font-size="10" x="643.7622" y="116.2041">HTTP Proxy</text><rect fill="#E2E2F0" height="37.2813" rx="2.5" ry="2.5" style="stroke:#181818;stroke-width:0.5;" width="116.9492" x="754.8208" y="88.2813"/><text fill="#000000" font-family="Helvetica" font-size="10" x="803.415" y="104.5635">PDP</text><text fill="#000000" font-family="Helvetica" font-size="10" x="761.8208" y="116.2041">Authorization Server</text><rect fill="#E2E2F0" height="37.2813" rx="2.5" ry="2.5" style="stroke:#181818;stroke-width:0.5;" width="80.5723" x="881.77" y="88.2813"/><text fill="#000000" font-family="Helvetica" font-size="10" x="912.1758" y="104.5635">PDP</text><text fill="#000000" font-family="Helvetica" font-size="10" x="888.77" y="116.2041">Policy Engine</text><rect fill="#E2E2F0" height="37.2813" rx="2.5" ry="2.5" style="stroke:#181818;stroke-width:0.5;" width="60.5283" x="997.6099" y="88.2813"/><text fill="#000000" font-family="Helvetica" font-size="10" x="1004.6099" y="104.5635">Resource</text><text fill="#000000" font-family="Helvetica" font-size="10" x="1011.4775" y="116.2041">Server</text><text fill="#000000" font-family="Helvetica" font-size="10" x="5" y="758.8291">User</text><ellipse cx="19.3965" cy="698.0469" fill="#E2E2F0" rx="8" ry="8" style="stroke:#181818;stroke-width:0.5;"/><path d="M19.3965,706.0469 L19.3965,733.0469 M6.3965,714.0469 L32.3965,714.0469 M19.3965,733.0469 L6.3965,748.0469 M19.3965,733.0469 L32.3965,748.0469" fill="none" style="stroke:#181818;stroke-width:0.5;"/><rect fill="#E2E2F0" height="37.2813" rx="2.5" ry="2.5" style="stroke:#181818;stroke-width:0.5;" width="42.9502" x="149.5835" y="689.5469"/><text fill="#000000" font-family="Helvetica" font-size="10" x="157.9995" y="705.8291">ZETA</text><text fill="#000000" font-family="Helvetica" font-size="10" x="156.5835" y="717.4697">Client</text><rect fill="#E2E2F0" height="37.2813" rx="2.5" ry="2.5" style="stroke:#181818;stroke-width:0.5;" width="138.6826" x="270.23" y="689.5469"/><text fill="#000000" font-family="Helvetica" font-size="10" x="277.23" y="705.8291">ZETA Attestation Service</text><text fill="#000000" font-family="Helvetica" font-size="10" x="303.7046" y="717.4697">(Admin rights)</text><rect fill="#E2E2F0" height="25.6406" rx="2.5" ry="2.5" style="stroke:#181818;stroke-width:0.5;" width="34.7666" x="418.9126" y="689.5469"/><text fill="#000000" font-family="Helvetica" font-size="10" x="425.9126" y="705.8291">TPM</text><rect fill="#E2E2F0" height="37.2813" rx="2.5" ry="2.5" style="stroke:#181818;stroke-width:0.5;" width="78.8535" x="473.6792" y="689.5469"/><text fill="#000000" font-family="Helvetica" font-size="10" x="480.6792" y="705.8291">Konnektor or</text><text fill="#000000" font-family="Helvetica" font-size="10" x="484.6855" y="717.4697">TI-Gateway</text><rect fill="#E2E2F0" height="25.6406" rx="2.5" ry="2.5" style="stroke:#181818;stroke-width:0.5;" width="54.2295" x="562.5327" y="689.5469"/><text fill="#000000" font-family="Helvetica" font-size="10" x="569.5327" y="705.8291">SM(C)-B</text><rect fill="#E2E2F0" height="37.2813" rx="2.5" ry="2.5" style="stroke:#181818;stroke-width:0.5;" width="71.041" x="636.7622" y="689.5469"/><text fill="#000000" font-family="Helvetica" font-size="10" x="663.0933" y="705.8291">PEP</text><text fill="#000000" font-family="Helvetica" font-size="10" x="643.7622" y="717.4697">HTTP Proxy</text><rect fill="#E2E2F0" height="37.2813" rx="2.5" ry="2.5" style="stroke:#181818;stroke-width:0.5;" width="116.9492" x="754.8208" y="689.5469"/><text fill="#000000" font-family="Helvetica" font-size="10" x="803.415" y="705.8291">PDP</text><text fill="#000000" font-family="Helvetica" font-size="10" x="761.8208" y="717.4697">Authorization Server</text><rect fill="#E2E2F0" height="37.2813" rx="2.5" ry="2.5" style="stroke:#181818;stroke-width:0.5;" width="80.5723" x="881.77" y="689.5469"/><text fill="#000000" font-family="Helvetica" font-size="10" x="912.1758" y="705.8291">PDP</text><text fill="#000000" font-family="Helvetica" font-size="10" x="888.77" y="717.4697">Policy Engine</text><rect fill="#E2E2F0" height="37.2813" rx="2.5" ry="2.5" style="stroke:#181818;stroke-width:0.5;" width="60.5283" x="997.6099" y="689.5469"/><text fill="#000000" font-family="Helvetica" font-size="10" x="1004.6099" y="705.8291">Resource</text><text fill="#000000" font-family="Helvetica" font-size="10" x="1011.4775" y="717.4697">Server</text><polygon fill="#181818" points="154.0586,171.4844,164.0586,175.4844,154.0586,179.4844,158.0586,175.4844" style="stroke:#181818;stroke-width:1;"/><line style="stroke:#181818;stroke-width:1;" x1="19.3965" x2="160.0586" y1="175.4844" y2="175.4844"/><text fill="#000000" font-family="Helvetica" font-size="10" x="26.3965" y="159.4854">(01)</text><text fill="#000000" font-family="Helvetica" font-size="10" x="50.9238" y="147.8447">User wants to</text><text fill="#000000" font-family="Helvetica" font-size="10" x="50.9238" y="159.4854">access resource</text><text fill="#000000" font-family="Helvetica" font-size="10" x="50.9238" y="171.126">on Resource Server</text><rect fill="#FFFFFF" height="37.9375" style="stroke:#000000;stroke-width:1.5;" width="718.1865" x="151.5835" y="183.4844"/><path d="M151.5835,183.4844 L215.5835,183.4844 L215.5835,188.4844 L205.5835,198.4844 L151.5835,198.4844 L151.5835,183.4844" fill="#EEEEEE" style="stroke:#000000;stroke-width:2;"/><text fill="#000000" font-family="Helvetica" font-size="12" font-weight="bold" x="164.5835" y="196.623">ref</text><text fill="#000000" font-family="Helvetica" font-size="12" font-weight="bold" x="414.3896" y="213.623">Discovery and Configuration</text><path d="M133.5835,230.4219 L193.5396,230.4219 L193.5396,234.0625 L183.5396,244.0625 L133.5835,244.0625 L133.5835,230.4219" fill="#EEEEEE" style="stroke:#000000;stroke-width:1.5;"/><rect fill="none" height="66.5781" style="stroke:#000000;stroke-width:1.5;" width="754.1865" x="133.5835" y="230.4219"/><text fill="#000000" font-family="Helvetica" font-size="10" font-weight="bold" x="148.5835" y="240.7041">alt</text><text fill="#000000" font-family="Helvetica" font-size="10" font-weight="bold" x="208.5396" y="241.7041">[Client has no client_id]</text><rect fill="#FFFFFF" height="37.9375" style="stroke:#000000;stroke-width:1.5;" width="718.1865" x="151.5835" y="254.0625"/><path d="M151.5835,254.0625 L215.5835,254.0625 L215.5835,259.0625 L205.5835,269.0625 L151.5835,269.0625 L151.5835,254.0625" fill="#EEEEEE" style="stroke:#000000;stroke-width:2;"/><text fill="#000000" font-family="Helvetica" font-size="12" font-weight="bold" x="164.5835" y="267.2012">ref</text><text fill="#000000" font-family="Helvetica" font-size="12" font-weight="bold" x="342.167" y="284.2012">Dynamic Client Registration with TPM Attestation</text><rect fill="#FFFFFF" height="37.9375" style="stroke:#000000;stroke-width:1.5;" width="808.7588" x="151.5835" y="311"/><path d="M151.5835,311 L215.5835,311 L215.5835,316 L205.5835,326 L151.5835,326 L151.5835,311" fill="#EEEEEE" style="stroke:#000000;stroke-width:2;"/><text fill="#000000" font-family="Helvetica" font-size="12" font-weight="bold" x="164.5835" y="324.1387">ref</text><text fill="#000000" font-family="Helvetica" font-size="12" font-weight="bold" x="394.8066" y="341.1387">Token Exchange with Client Assertion JWT Auth</text><line style="stroke:#181818;stroke-width:1;" x1="176.0586" x2="218.0586" y1="371.5781" y2="371.5781"/><line style="stroke:#181818;stroke-width:1;" x1="218.0586" x2="218.0586" y1="371.5781" y2="384.5781"/><line style="stroke:#181818;stroke-width:1;" x1="177.0586" x2="218.0586" y1="384.5781" y2="384.5781"/><polygon fill="#181818" points="187.0586,380.5781,177.0586,384.5781,187.0586,388.5781,183.0586,384.5781" style="stroke:#181818;stroke-width:1;"/><text fill="#000000" font-family="Helvetica" font-size="10" x="183.0586" y="367.2197">(02)</text><text fill="#000000" font-family="Helvetica" font-size="10" x="207.5859" y="367.2197">Create DPoP Proof for RS</text><polygon fill="#181818" points="655.2827,429.5,665.2827,433.5,655.2827,437.5,659.2827,433.5" style="stroke:#181818;stroke-width:1;"/><line style="stroke:#181818;stroke-width:1;" x1="176.0586" x2="661.2827" y1="433.5" y2="433.5"/><text fill="#000000" font-family="Helvetica" font-size="10" x="183.0586" y="417.501">(03)</text><text fill="#000000" font-family="Helvetica" font-size="10" x="207.5859" y="405.8604">GET /resource</text><text fill="#000000" font-family="Helvetica" font-size="10" x="213.9434" y="417.501">Authorization: DPoP ... (Accesss token)</text><text fill="#000000" font-family="Helvetica" font-size="10" x="213.9434" y="429.1416">DPoP: ... (DPoP token)</text><line style="stroke:#181818;stroke-width:1;" x1="677.2827" x2="719.2827" y1="470.7813" y2="470.7813"/><line style="stroke:#181818;stroke-width:1;" x1="719.2827" x2="719.2827" y1="470.7813" y2="483.7813"/><line style="stroke:#181818;stroke-width:1;" x1="678.2827" x2="719.2827" y1="483.7813" y2="483.7813"/><polygon fill="#181818" points="688.2827,479.7813,678.2827,483.7813,688.2827,487.7813,684.2827,483.7813" style="stroke:#181818;stroke-width:1;"/><text fill="#000000" font-family="Helvetica" font-size="10" x="684.2827" y="460.6025">(04)</text><text fill="#000000" font-family="Helvetica" font-size="10" x="708.8101" y="454.7822">verify Access token</text><text fill="#000000" font-family="Helvetica" font-size="10" x="708.8101" y="466.4229">and DPoP Proof</text><polygon fill="#181818" points="1010.874,528.7031,1020.874,532.7031,1010.874,536.7031,1014.874,532.7031" style="stroke:#181818;stroke-width:1;"/><line style="stroke:#181818;stroke-width:1;" x1="677.2827" x2="1016.874" y1="532.7031" y2="532.7031"/><text fill="#000000" font-family="Helvetica" font-size="10" x="684.2827" y="516.7041">(05)</text><text fill="#000000" font-family="Helvetica" font-size="10" x="708.8101" y="505.0635">forward GET /resource</text><text fill="#000000" font-family="Helvetica" font-size="10" x="708.8101" y="516.7041">with header and</text><text fill="#000000" font-family="Helvetica" font-size="10" x="708.8101" y="528.3447">PEP header as JSON</text><line style="stroke:#181818;stroke-width:1;" x1="1032.874" x2="1074.874" y1="581.625" y2="581.625"/><line style="stroke:#181818;stroke-width:1;" x1="1074.874" x2="1074.874" y1="581.625" y2="594.625"/><line style="stroke:#181818;stroke-width:1;" x1="1033.874" x2="1074.874" y1="594.625" y2="594.625"/><polygon fill="#181818" points="1043.874,590.625,1033.874,594.625,1043.874,598.625,1039.874,594.625" style="stroke:#181818;stroke-width:1;"/><text fill="#000000" font-family="Helvetica" font-size="10" x="1039.874" y="565.626">(06)</text><text fill="#000000" font-family="Helvetica" font-size="10" x="1064.4014" y="553.9854">provide</text><text fill="#000000" font-family="Helvetica" font-size="10" x="1064.4014" y="565.626">resource</text><text fill="#000000" font-family="Helvetica" font-size="10" x="1064.4014" y="577.2666">access</text><polygon fill="#181818" points="688.2827,616.2656,678.2827,620.2656,688.2827,624.2656,684.2827,620.2656" style="stroke:#181818;stroke-width:1;"/><line style="stroke:#181818;stroke-width:1;stroke-dasharray:2.0,2.0;" x1="682.2827" x2="1021.874" y1="620.2656" y2="620.2656"/><text fill="#000000" font-family="Helvetica" font-size="10" x="694.2827" y="615.9072">(07)</text><text fill="#000000" font-family="Helvetica" font-size="10" x="718.8101" y="615.9072">200 OK, Resource</text><polygon fill="#181818" points="187.0586,641.9063,177.0586,645.9063,187.0586,649.9063,183.0586,645.9063" style="stroke:#181818;stroke-width:1;"/><line style="stroke:#181818;stroke-width:1;stroke-dasharray:2.0,2.0;" x1="181.0586" x2="666.2827" y1="645.9063" y2="645.9063"/><text fill="#000000" font-family="Helvetica" font-size="10" x="193.0586" y="641.5479">(08)</text><text fill="#000000" font-family="Helvetica" font-size="10" x="217.5859" y="641.5479">200 OK, Resource</text><polygon fill="#181818" points="30.3965,667.5469,20.3965,671.5469,30.3965,675.5469,26.3965,671.5469" style="stroke:#181818;stroke-width:1;"/><line style="stroke:#181818;stroke-width:1;stroke-dasharray:2.0,2.0;" x1="24.3965" x2="165.0586" y1="671.5469" y2="671.5469"/><text fill="#000000" font-family="Helvetica" font-size="10" x="36.3965" y="667.1885">(09)</text><text fill="#000000" font-family="Helvetica" font-size="10" x="60.9238" y="667.1885">Resource</text><!--SRC=[XLJRRjf047ttLqp9GwuaD8yyH7B09VTOs5NK2AdQs0FUOdRfxZh4-Px-IN-iurt7TaAaFe6PCsVEd3c65KQAOlM42dfxWy5-pzDBBjPCiHMaE6T5Rhv9OIB-Yl1ry7dnZgqGBZ1_HiCJri6C7UPM2gdNBC6qGOzaeJYg3ZP7iJ2Pd_ugj04X1NPg6dyNA1ASuXnLzUMS9Sk5aeL8HpAN2XuoRheDqSU6TeTJxsJtVq1JvWXFCa-ztHFF-x9MRB5YO52-Wb45UfwV69hwNTC6J_85UZV1PGzs9fdKnaa1iB-7Yg_-_b6wr0PNXBXXpoXIwWAe4Oz1xCCevoWCrICcql9SoOsm201IIPxoDHEcHW7JhcicwZOB9TgAqFlOzEX7JGVung0sp70fQ7Frp1ESYJq_NN41YYyoe_TxMmnnU6iPwBCgjeEwe6if12uhKofe-oJLJCIN_Gapk65bxqDNT7jkyT7jtcY_VzxptiYTgxvuucXGaJ5nCBgukx-vd_pmkiPD2gRIRT-wCov2Eo8CmfcuYECGGYLVokqr_S9apgfmJD3gKIh-sffLwTZg2eEs9PGvJqe8n88BV6-LqnnVmkdn0CPqDShupfYfPOHieX0_E_VKgPcYfdUbEbGjujsv6yEgB4B_x2qaXuSmjFc43N5fC78cM9AWrg0QGbhiZRtUqFCKpa7IjvheYFmxSjuCuU1Wp7LILKiWm-ab5dE-A9JrwE30OtaJqeoa2mc9VVh9KojwYxlbBGLRyUIjUueBhetZXGqtcGrX9xqqZ3R_HArbFAApLAonNAA0u2N9c5YW8wed-9gyiVHN3x7j8aglBZOs3c6aaA8Bur3QuCWvp2dLqwW3fO1PjoT132UjkG3l8ZHq7CV7nx3dsqDKHo5z-nMqgWrTqS9SnIDgEs08j2EVb-0wNPaEIZTebTLeYesLGpetz79yb6LDo93Hdr1rGqfj43RF6gwY-pkFA2pH4DPAFlEKsbe2boABSSlt-pJjT320- -kZ9azMJ1l7pp5DySn5rQAQwZy0]--></g></svg>