<?plantuml 1.2026.1?><svg xmlns="http://www.w3.org/2000/svg" xmlns:xlink="http://www.w3.org/1999/xlink" contentStyleType="text/css" data-diagram-type="SEQUENCE" height="856px" preserveAspectRatio="none" style="width:1115px;height:856px;background:#FFFFFF;" version="1.1" viewBox="0 0 1115 856" width="1115px" zoomAndPan="magnify"><defs/><g><rect fill="#F8F8FF" height="844.4688" style="stroke:#181818;stroke-width:0.5;" width="494.2036" x="126.5586" y="6"/><text fill="#000000" font-family="Helvetica" font-size="10" font-weight="bold" x="365.1985" y="15.2822">LEI</text><rect fill="#E6E6FA" height="827.8281" style="stroke:#181818;stroke-width:0.5;" width="331.1206" x="126.5586" y="22.6406"/><text fill="#000000" font-family="Helvetica" font-size="10" font-weight="bold" x="253.0222" y="31.9229">Prim&#228;rsystem</text><rect fill="#F4A460" height="811.1875" style="stroke:#181818;stroke-width:0.5;" width="89" x="126.5586" y="39.2813"/><text fill="#000000" font-family="Helvetica" font-size="10" font-weight="bold" x="138.5586" y="48.5635">ZETA Client</text><rect fill="#C9FFC9" height="844.4688" style="stroke:#181818;stroke-width:0.5;" width="444.6436" x="632.7622" y="6"/><text fill="#000000" font-family="Helvetica" font-size="10" font-weight="bold" x="830.7236" y="15.2822">Anbieter</text><rect fill="#F4A460" height="827.8281" style="stroke:#181818;stroke-width:0.5;" width="333.5801" x="632.7622" y="22.6406"/><text fill="#000000" font-family="Helvetica" font-size="10" font-weight="bold" x="766.4077" y="31.9229">ZETA Guard</text><rect fill="#8FBC8F" height="827.8281" style="stroke:#181818;stroke-width:0.5;" width="99.0635" x="978.3423" y="22.6406"/><text fill="#000000" font-family="Helvetica" font-size="10" font-weight="bold" x="990.3423" y="31.9229">TI 2.0 Dienst</text><g><title>User</title><rect fill="#000000" fill-opacity="0.00000" height="646.2656" width="8" x="15.8965" y="126.5625"/><line style="stroke:#181818;stroke-width:0.5;stroke-dasharray:5,5;" x1="19.3965" x2="19.3965" y1="126.5625" y2="772.8281"/></g><g><title>ZETA</title><rect fill="#000000" fill-opacity="0.00000" height="646.2656" width="8" x="167.5586" y="126.5625"/><line style="stroke:#181818;stroke-width:0.5;stroke-dasharray:5,5;" x1="171.0586" x2="171.0586" y1="126.5625" y2="772.8281"/></g><g><title/><rect fill="#FFFFFF" height="579.3438" style="stroke:#181818;stroke-width:1;" width="10" x="166.0586" y="175.4844"/></g><g><title>ZETA Attestation Service</title><rect fill="#000000" fill-opacity="0.00000" height="646.2656" width="8" x="336.0713" y="126.5625"/><line style="stroke:#181818;stroke-width:0.5;stroke-dasharray:5,5;" x1="339.5713" x2="339.5713" y1="126.5625" y2="772.8281"/></g><g><title>TPM</title><rect fill="#000000" fill-opacity="0.00000" height="646.2656" width="8" x="432.7959" y="126.5625"/><line style="stroke:#181818;stroke-width:0.5;stroke-dasharray:5,5;" x1="436.2959" x2="436.2959" y1="126.5625" y2="772.8281"/></g><g><title>Konnektor or</title><rect fill="#000000" fill-opacity="0.00000" height="646.2656" width="8" x="509.606" y="126.5625"/><line style="stroke:#181818;stroke-width:0.5;stroke-dasharray:5,5;" x1="513.106" x2="513.106" y1="126.5625" y2="772.8281"/></g><g><title>SM.C.-B</title><rect fill="#000000" fill-opacity="0.00000" height="646.2656" width="8" x="586.1475" y="126.5625"/><line style="stroke:#181818;stroke-width:0.5;stroke-dasharray:5,5;" x1="589.6475" x2="589.6475" y1="126.5625" y2="772.8281"/></g><g><title>PEP</title><rect fill="#000000" fill-opacity="0.00000" height="646.2656" width="8" x="668.7827" y="126.5625"/><line style="stroke:#181818;stroke-width:0.5;stroke-dasharray:5,5;" x1="672.2827" x2="672.2827" y1="126.5625" y2="772.8281"/></g><g><title/><rect fill="#FFFFFF" height="212.4063" style="stroke:#181818;stroke-width:1;" width="10" x="667.2827" y="516.7813"/></g><g><title>PDP</title><rect fill="#000000" fill-opacity="0.00000" height="646.2656" width="8" x="809.7954" y="126.5625"/><line style="stroke:#181818;stroke-width:0.5;stroke-dasharray:5,5;" x1="813.2954" x2="813.2954" y1="126.5625" y2="772.8281"/></g><g><title>PDP</title><rect fill="#000000" fill-opacity="0.00000" height="646.2656" width="8" x="918.5562" y="126.5625"/><line style="stroke:#181818;stroke-width:0.5;stroke-dasharray:5,5;" x1="922.0562" x2="922.0562" y1="126.5625" y2="772.8281"/></g><g><title>Resource</title><rect fill="#000000" fill-opacity="0.00000" height="646.2656" width="8" x="1024.374" y="126.5625"/><line style="stroke:#181818;stroke-width:0.5;stroke-dasharray:5,5;" x1="1027.874" x2="1027.874" y1="126.5625" y2="772.8281"/></g><g><title/><rect fill="#FFFFFF" height="87.5625" style="stroke:#181818;stroke-width:1;" width="10" x="1022.874" y="615.9844"/></g><text fill="#000000" font-family="Helvetica" font-size="10" x="5" y="124.2041">User</text><ellipse cx="19.3965" cy="63.4219" fill="#E2E2F0" rx="8" ry="8" style="stroke:#181818;stroke-width:0.5;"/><path d="M19.3965,71.4219 L19.3965,98.4219 M6.3965,79.4219 L32.3965,79.4219 M19.3965,98.4219 L6.3965,113.4219 M19.3965,98.4219 L32.3965,113.4219" fill="none" style="stroke:#181818;stroke-width:0.5;"/><rect fill="#E2E2F0" height="37.2813" rx="2.5" ry="2.5" style="stroke:#181818;stroke-width:0.5;" width="42.9502" x="149.5835" y="88.2813"/><text fill="#000000" font-family="Helvetica" font-size="10" x="157.9995" y="104.5635">ZETA</text><text fill="#000000" font-family="Helvetica" font-size="10" x="156.5835" y="116.2041">Client</text><rect fill="#E2E2F0" height="37.2813" rx="2.5" ry="2.5" style="stroke:#181818;stroke-width:0.5;" width="138.6826" x="270.23" y="88.2813"/><text fill="#000000" font-family="Helvetica" font-size="10" x="277.23" y="104.5635">ZETA Attestation Service</text><text fill="#000000" font-family="Helvetica" font-size="10" x="303.7046" y="116.2041">(Admin rights)</text><rect fill="#E2E2F0" height="25.6406" rx="2.5" ry="2.5" style="stroke:#181818;stroke-width:0.5;" width="34.7666" x="418.9126" y="99.9219"/><text fill="#000000" font-family="Helvetica" font-size="10" x="425.9126" y="116.2041">TPM</text><rect fill="#E2E2F0" height="37.2813" rx="2.5" ry="2.5" style="stroke:#181818;stroke-width:0.5;" width="78.8535" x="473.6792" y="88.2813"/><text fill="#000000" font-family="Helvetica" font-size="10" x="480.6792" y="104.5635">Konnektor or</text><text fill="#000000" font-family="Helvetica" font-size="10" x="484.6855" y="116.2041">TI-Gateway</text><rect fill="#E2E2F0" height="25.6406" rx="2.5" ry="2.5" style="stroke:#181818;stroke-width:0.5;" width="54.2295" x="562.5327" y="99.9219"/><text fill="#000000" font-family="Helvetica" font-size="10" x="569.5327" y="116.2041">SM(C)-B</text><rect fill="#E2E2F0" height="37.2813" rx="2.5" ry="2.5" style="stroke:#181818;stroke-width:0.5;" width="71.041" x="636.7622" y="88.2813"/><text fill="#000000" font-family="Helvetica" font-size="10" x="663.0933" y="104.5635">PEP</text><text fill="#000000" font-family="Helvetica" font-size="10" x="643.7622" y="116.2041">HTTP Proxy</text><rect fill="#E2E2F0" height="37.2813" rx="2.5" ry="2.5" style="stroke:#181818;stroke-width:0.5;" width="116.9492" x="754.8208" y="88.2813"/><text fill="#000000" font-family="Helvetica" font-size="10" x="803.415" y="104.5635">PDP</text><text fill="#000000" font-family="Helvetica" font-size="10" x="761.8208" y="116.2041">Authorization Server</text><rect fill="#E2E2F0" height="37.2813" rx="2.5" ry="2.5" style="stroke:#181818;stroke-width:0.5;" width="80.5723" x="881.77" y="88.2813"/><text fill="#000000" font-family="Helvetica" font-size="10" x="912.1758" y="104.5635">PDP</text><text fill="#000000" font-family="Helvetica" font-size="10" x="888.77" y="116.2041">Policy Engine</text><rect fill="#E2E2F0" height="37.2813" rx="2.5" ry="2.5" style="stroke:#181818;stroke-width:0.5;" width="60.5283" x="997.6099" y="88.2813"/><text fill="#000000" font-family="Helvetica" font-size="10" x="1004.6099" y="104.5635">Resource</text><text fill="#000000" font-family="Helvetica" font-size="10" x="1011.4775" y="116.2041">Server</text><text fill="#000000" font-family="Helvetica" font-size="10" x="5" y="842.1104">User</text><ellipse cx="19.3965" cy="781.3281" fill="#E2E2F0" rx="8" ry="8" style="stroke:#181818;stroke-width:0.5;"/><path d="M19.3965,789.3281 L19.3965,816.3281 M6.3965,797.3281 L32.3965,797.3281 M19.3965,816.3281 L6.3965,831.3281 M19.3965,816.3281 L32.3965,831.3281" fill="none" style="stroke:#181818;stroke-width:0.5;"/><rect fill="#E2E2F0" height="37.2813" rx="2.5" ry="2.5" style="stroke:#181818;stroke-width:0.5;" width="42.9502" x="149.5835" y="772.8281"/><text fill="#000000" font-family="Helvetica" font-size="10" x="157.9995" y="789.1104">ZETA</text><text fill="#000000" font-family="Helvetica" font-size="10" x="156.5835" y="800.751">Client</text><rect fill="#E2E2F0" height="37.2813" rx="2.5" ry="2.5" style="stroke:#181818;stroke-width:0.5;" width="138.6826" x="270.23" y="772.8281"/><text fill="#000000" font-family="Helvetica" font-size="10" x="277.23" y="789.1104">ZETA Attestation Service</text><text fill="#000000" font-family="Helvetica" font-size="10" x="303.7046" y="800.751">(Admin rights)</text><rect fill="#E2E2F0" height="25.6406" rx="2.5" ry="2.5" style="stroke:#181818;stroke-width:0.5;" width="34.7666" x="418.9126" y="772.8281"/><text fill="#000000" font-family="Helvetica" font-size="10" x="425.9126" y="789.1104">TPM</text><rect fill="#E2E2F0" height="37.2813" rx="2.5" ry="2.5" style="stroke:#181818;stroke-width:0.5;" width="78.8535" x="473.6792" y="772.8281"/><text fill="#000000" font-family="Helvetica" font-size="10" x="480.6792" y="789.1104">Konnektor or</text><text fill="#000000" font-family="Helvetica" font-size="10" x="484.6855" y="800.751">TI-Gateway</text><rect fill="#E2E2F0" height="25.6406" rx="2.5" ry="2.5" style="stroke:#181818;stroke-width:0.5;" width="54.2295" x="562.5327" y="772.8281"/><text fill="#000000" font-family="Helvetica" font-size="10" x="569.5327" y="789.1104">SM(C)-B</text><rect fill="#E2E2F0" height="37.2813" rx="2.5" ry="2.5" style="stroke:#181818;stroke-width:0.5;" width="71.041" x="636.7622" y="772.8281"/><text fill="#000000" font-family="Helvetica" font-size="10" x="663.0933" y="789.1104">PEP</text><text fill="#000000" font-family="Helvetica" font-size="10" x="643.7622" y="800.751">HTTP Proxy</text><rect fill="#E2E2F0" height="37.2813" rx="2.5" ry="2.5" style="stroke:#181818;stroke-width:0.5;" width="116.9492" x="754.8208" y="772.8281"/><text fill="#000000" font-family="Helvetica" font-size="10" x="803.415" y="789.1104">PDP</text><text fill="#000000" font-family="Helvetica" font-size="10" x="761.8208" y="800.751">Authorization Server</text><rect fill="#E2E2F0" height="37.2813" rx="2.5" ry="2.5" style="stroke:#181818;stroke-width:0.5;" width="80.5723" x="881.77" y="772.8281"/><text fill="#000000" font-family="Helvetica" font-size="10" x="912.1758" y="789.1104">PDP</text><text fill="#000000" font-family="Helvetica" font-size="10" x="888.77" y="800.751">Policy Engine</text><rect fill="#E2E2F0" height="37.2813" rx="2.5" ry="2.5" style="stroke:#181818;stroke-width:0.5;" width="60.5283" x="997.6099" y="772.8281"/><text fill="#000000" font-family="Helvetica" font-size="10" x="1004.6099" y="789.1104">Resource</text><text fill="#000000" font-family="Helvetica" font-size="10" x="1011.4775" y="800.751">Server</text><polygon fill="#181818" points="154.0586,171.4844,164.0586,175.4844,154.0586,179.4844,158.0586,175.4844" style="stroke:#181818;stroke-width:1;"/><line style="stroke:#181818;stroke-width:1;" x1="19.3965" x2="160.0586" y1="175.4844" y2="175.4844"/><text fill="#000000" font-family="Helvetica" font-size="10" x="26.3965" y="159.4854">(01)</text><text fill="#000000" font-family="Helvetica" font-size="10" x="50.9238" y="147.8447">User wants to</text><text fill="#000000" font-family="Helvetica" font-size="10" x="50.9238" y="159.4854">access resource</text><text fill="#000000" font-family="Helvetica" font-size="10" x="50.9238" y="171.126">on Resource Server</text><path d="M133.5835,187.4844 L193.5396,187.4844 L193.5396,191.125 L183.5396,201.125 L133.5835,201.125 L133.5835,187.4844" fill="#EEEEEE" style="stroke:#000000;stroke-width:1.5;"/><rect fill="none" height="66.5781" style="stroke:#000000;stroke-width:1.5;" width="754.1865" x="133.5835" y="187.4844"/><text fill="#000000" font-family="Helvetica" font-size="10" font-weight="bold" x="148.5835" y="197.7666">alt</text><text fill="#000000" font-family="Helvetica" font-size="10" font-weight="bold" x="208.5396" y="198.7666">[Discovery and Configuration not yet done]</text><rect fill="#FFFFFF" height="37.9375" style="stroke:#000000;stroke-width:1.5;" width="718.1865" x="151.5835" y="211.125"/><path d="M151.5835,211.125 L215.5835,211.125 L215.5835,216.125 L205.5835,226.125 L151.5835,226.125 L151.5835,211.125" fill="#EEEEEE" style="stroke:#000000;stroke-width:2;"/><text fill="#000000" font-family="Helvetica" font-size="12" font-weight="bold" x="164.5835" y="224.2637">ref</text><text fill="#000000" font-family="Helvetica" font-size="12" font-weight="bold" x="414.3896" y="241.2637">Discovery and Configuration</text><path d="M133.5835,272.0625 L193.5396,272.0625 L193.5396,275.7031 L183.5396,285.7031 L133.5835,285.7031 L133.5835,272.0625" fill="#EEEEEE" style="stroke:#000000;stroke-width:1.5;"/><rect fill="none" height="66.5781" style="stroke:#000000;stroke-width:1.5;" width="754.1865" x="133.5835" y="272.0625"/><text fill="#000000" font-family="Helvetica" font-size="10" font-weight="bold" x="148.5835" y="282.3447">alt</text><text fill="#000000" font-family="Helvetica" font-size="10" font-weight="bold" x="208.5396" y="283.3447">[Client has no client_id]</text><rect fill="#FFFFFF" height="37.9375" style="stroke:#000000;stroke-width:1.5;" width="718.1865" x="151.5835" y="295.7031"/><path d="M151.5835,295.7031 L215.5835,295.7031 L215.5835,300.7031 L205.5835,310.7031 L151.5835,310.7031 L151.5835,295.7031" fill="#EEEEEE" style="stroke:#000000;stroke-width:2;"/><text fill="#000000" font-family="Helvetica" font-size="12" font-weight="bold" x="164.5835" y="308.8418">ref</text><text fill="#000000" font-family="Helvetica" font-size="12" font-weight="bold" x="342.167" y="325.8418">Dynamic Client Registration with TPM Attestation</text><path d="M133.5835,356.6406 L193.5396,356.6406 L193.5396,360.2813 L183.5396,370.2813 L133.5835,370.2813 L133.5835,356.6406" fill="#EEEEEE" style="stroke:#000000;stroke-width:1.5;"/><rect fill="none" height="66.5781" style="stroke:#000000;stroke-width:1.5;" width="844.7588" x="133.5835" y="356.6406"/><text fill="#000000" font-family="Helvetica" font-size="10" font-weight="bold" x="148.5835" y="366.9229">alt</text><text fill="#000000" font-family="Helvetica" font-size="10" font-weight="bold" x="208.5396" y="367.9229">[Client has no valid Access Token]</text><rect fill="#FFFFFF" height="37.9375" style="stroke:#000000;stroke-width:1.5;" width="808.7588" x="151.5835" y="380.2813"/><path d="M151.5835,380.2813 L215.5835,380.2813 L215.5835,385.2813 L205.5835,395.2813 L151.5835,395.2813 L151.5835,380.2813" fill="#EEEEEE" style="stroke:#000000;stroke-width:2;"/><text fill="#000000" font-family="Helvetica" font-size="12" font-weight="bold" x="164.5835" y="393.4199">ref</text><text fill="#000000" font-family="Helvetica" font-size="12" font-weight="bold" x="394.8066" y="410.4199">Token Exchange with Client Assertion JWT Auth</text><line style="stroke:#181818;stroke-width:1;" x1="176.0586" x2="218.0586" y1="454.8594" y2="454.8594"/><line style="stroke:#181818;stroke-width:1;" x1="218.0586" x2="218.0586" y1="454.8594" y2="467.8594"/><line style="stroke:#181818;stroke-width:1;" x1="177.0586" x2="218.0586" y1="467.8594" y2="467.8594"/><polygon fill="#181818" points="187.0586,463.8594,177.0586,467.8594,187.0586,471.8594,183.0586,467.8594" style="stroke:#181818;stroke-width:1;"/><text fill="#000000" font-family="Helvetica" font-size="10" x="183.0586" y="450.501">(02)</text><text fill="#000000" font-family="Helvetica" font-size="10" x="207.5859" y="450.501">Create DPoP Proof for RS</text><polygon fill="#181818" points="655.2827,512.7813,665.2827,516.7813,655.2827,520.7813,659.2827,516.7813" style="stroke:#181818;stroke-width:1;"/><line style="stroke:#181818;stroke-width:1;" x1="176.0586" x2="661.2827" y1="516.7813" y2="516.7813"/><text fill="#000000" font-family="Helvetica" font-size="10" x="183.0586" y="500.7822">(03)</text><text fill="#000000" font-family="Helvetica" font-size="10" x="207.5859" y="489.1416">GET /resource</text><text fill="#000000" font-family="Helvetica" font-size="10" x="213.9434" y="500.7822">Authorization: DPoP ... (Accesss token)</text><text fill="#000000" font-family="Helvetica" font-size="10" x="213.9434" y="512.4229">DPoP: ... (DPoP token)</text><line style="stroke:#181818;stroke-width:1;" x1="677.2827" x2="719.2827" y1="554.0625" y2="554.0625"/><line style="stroke:#181818;stroke-width:1;" x1="719.2827" x2="719.2827" y1="554.0625" y2="567.0625"/><line style="stroke:#181818;stroke-width:1;" x1="678.2827" x2="719.2827" y1="567.0625" y2="567.0625"/><polygon fill="#181818" points="688.2827,563.0625,678.2827,567.0625,688.2827,571.0625,684.2827,567.0625" style="stroke:#181818;stroke-width:1;"/><text fill="#000000" font-family="Helvetica" font-size="10" x="684.2827" y="543.8838">(04)</text><text fill="#000000" font-family="Helvetica" font-size="10" x="708.8101" y="538.0635">verify Access token</text><text fill="#000000" font-family="Helvetica" font-size="10" x="708.8101" y="549.7041">and DPoP Proof</text><polygon fill="#181818" points="1010.874,611.9844,1020.874,615.9844,1010.874,619.9844,1014.874,615.9844" style="stroke:#181818;stroke-width:1;"/><line style="stroke:#181818;stroke-width:1;" x1="677.2827" x2="1016.874" y1="615.9844" y2="615.9844"/><text fill="#000000" font-family="Helvetica" font-size="10" x="684.2827" y="599.9854">(05)</text><text fill="#000000" font-family="Helvetica" font-size="10" x="708.8101" y="588.3447">forward GET /resource</text><text fill="#000000" font-family="Helvetica" font-size="10" x="708.8101" y="599.9854">with header and</text><text fill="#000000" font-family="Helvetica" font-size="10" x="708.8101" y="611.626">PEP header as JSON</text><line style="stroke:#181818;stroke-width:1;" x1="1032.874" x2="1074.874" y1="664.9063" y2="664.9063"/><line style="stroke:#181818;stroke-width:1;" x1="1074.874" x2="1074.874" y1="664.9063" y2="677.9063"/><line style="stroke:#181818;stroke-width:1;" x1="1033.874" x2="1074.874" y1="677.9063" y2="677.9063"/><polygon fill="#181818" points="1043.874,673.9063,1033.874,677.9063,1043.874,681.9063,1039.874,677.9063" style="stroke:#181818;stroke-width:1;"/><text fill="#000000" font-family="Helvetica" font-size="10" x="1039.874" y="648.9072">(06)</text><text fill="#000000" font-family="Helvetica" font-size="10" x="1064.4014" y="637.2666">provide</text><text fill="#000000" font-family="Helvetica" font-size="10" x="1064.4014" y="648.9072">resource</text><text fill="#000000" font-family="Helvetica" font-size="10" x="1064.4014" y="660.5479">access</text><polygon fill="#181818" points="688.2827,699.5469,678.2827,703.5469,688.2827,707.5469,684.2827,703.5469" style="stroke:#181818;stroke-width:1;"/><line style="stroke:#181818;stroke-width:1;stroke-dasharray:2,2;" x1="682.2827" x2="1021.874" y1="703.5469" y2="703.5469"/><text fill="#000000" font-family="Helvetica" font-size="10" x="694.2827" y="699.1885">(07)</text><text fill="#000000" font-family="Helvetica" font-size="10" x="718.8101" y="699.1885">200 OK, Resource</text><polygon fill="#181818" points="187.0586,725.1875,177.0586,729.1875,187.0586,733.1875,183.0586,729.1875" style="stroke:#181818;stroke-width:1;"/><line style="stroke:#181818;stroke-width:1;stroke-dasharray:2,2;" x1="181.0586" x2="666.2827" y1="729.1875" y2="729.1875"/><text fill="#000000" font-family="Helvetica" font-size="10" x="193.0586" y="724.8291">(08)</text><text fill="#000000" font-family="Helvetica" font-size="10" x="217.5859" y="724.8291">200 OK, Resource</text><polygon fill="#181818" points="30.3965,750.8281,20.3965,754.8281,30.3965,758.8281,26.3965,754.8281" style="stroke:#181818;stroke-width:1;"/><line style="stroke:#181818;stroke-width:1;stroke-dasharray:2,2;" x1="24.3965" x2="165.0586" y1="754.8281" y2="754.8281"/><text fill="#000000" font-family="Helvetica" font-size="10" x="36.3965" y="750.4697">(09)</text><text fill="#000000" font-family="Helvetica" font-size="10" x="60.9238" y="750.4697">Resource</text><?plantuml-src XLJRSk9647tNLtJOXxMznYP-v66hP52mTtrH8MrjxHPLgR7Ke0bYXioCmFBtv4_oO-cP4P9idEG9XZvz-lJfRbXbfAWsJwXWS38QdGu2lUPYonJRG8vBLfNcDobCmbyGVXsz7tnW6uGRB7TeUCPwcAd7t4iXzPPbcBVeYQmKHzN3bYXMfWZpFofjG4Y1lPZ6FoiK6SvnYSf-kMRPUgLa9VA9BAM2xmKt_OJaRKBNmrLm-V7_WAOk4PvacGSVBuFWbwrYgmq3W_85ZAem2CBCKDLlcZfuaiymk8jk1_1XLaXjl1G0ztki-ERllvIkjS4D8UxO3aLEMG0DucUKXZ0fEGf3yOI9lBvMSYyS0e1KagTyouHfKC2qprg89ir1YTOI1c-JVeP9cm6XCQWDCrmAwbpjU8OBSHBc6ov0yLLXzEdWY26Dxnq3VTfWLwWF-Yg5mBKrnKAxbrGBaTuEPypWdjM3Drd9_RN39_SdazFXzI0ua7jNG_74qQ0YOz9eSlFmUFSu-n7qZPjLJEN7llLhtCIkH1p52t6JfZ74IZxNnss6bIcyLV6KeFOf5N_fpB8wZhBYg4k9PScp6YAnuW9VM-KrfxTmTJ62AKsDTlp3bAbrWcoc4DyRzzohcQEcMx63QaIy6dThcDr567u-BCcdJp1s-mbxuj9Wv4AmB4EjGRM4rDY1lUam25XfIA3E9Brg85lfLCMIhohbdH3IG8q6SdkXG6HBiD2cxZdPVUwj7CFPsNyGdPrPxQvS8xcWReM4pBr-vxdhyuY_uwu5s_3ia3t75TUc4Rddfd1xsrluVosuOoNF8VJcf7BjXl5-tNEQjwtjK10zPmKJA_Jb6j9Ga-bEn9VlgSjg2WSDe9tH62OAwIvW6aktbN89IpgPUTA3qlQwKSwY52wxoG6ysi-nvxYuk80JtuYTE6ayjL0R6_kWW_b8GDIkm1YeJxwi3nQuC6qBJQnJrg1f9vqSqhcdotihonbH8AD_E3jnEeaeRjyQlYIF3m5HEA8nR9NSyPpIEWA_eWxZcnyEgThLQ0IFNy_RPNLYkbr_7zC6F_ixSAWs-Wy0?></g></svg>