<?plantuml 1.2026.2?><svg xmlns="http://www.w3.org/2000/svg" xmlns:xlink="http://www.w3.org/1999/xlink" contentStyleType="text/css" data-diagram-type="SEQUENCE" height="472px" preserveAspectRatio="none" style="width:570px;height:472px;background:#FFFFFF;" version="1.1" viewBox="0 0 570 472" width="570px" zoomAndPan="magnify"><defs/><g><rect fill="#F8F8FF" height="460.8906" style="stroke:#181818;stroke-width:0.5;" width="488.4688" x="11" y="6"/><text fill="#000000" font-family="Helvetica" font-size="10" font-weight="bold" x="246.7725" y="15.2822">LEI</text><rect fill="#E6E6FA" height="444.25" style="stroke:#181818;stroke-width:0.5;" width="250.6958" x="248.7729" y="22.6406"/><text fill="#000000" font-family="Helvetica" font-size="10" font-weight="bold" x="335.0242" y="31.9229">Prim&#228;rsystem</text><g><title>TPM . SE</title><rect fill="#000000" fill-opacity="0.00000" height="369.3281" width="8" x="40.0796" y="64.9219"/><line style="stroke:#000000;stroke-width:0.5;stroke-dasharray:5,5;" x1="43.5796" x2="43.5796" y1="64.9219" y2="434.25"/></g><g><title>ZAS</title><rect fill="#000000" fill-opacity="0.00000" height="369.3281" width="8" x="266.2925" y="64.9219"/><line style="stroke:#000000;stroke-width:0.5;stroke-dasharray:5,5;" x1="269.7925" x2="269.7925" y1="64.9219" y2="434.25"/></g><g><title/><rect fill="#FFFFFF" height="333.6875" style="stroke:#181818;stroke-width:1;" width="10" x="264.7925" y="100.5625"/></g><g><title>ZETA Client</title><rect fill="#000000" fill-opacity="0.00000" height="369.3281" width="8" x="455.8452" y="64.9219"/><line style="stroke:#000000;stroke-width:0.5;stroke-dasharray:5,5;" x1="459.3452" x2="459.3452" y1="64.9219" y2="434.25"/></g><g><title/><rect fill="#FFFFFF" height="60.2813" style="stroke:#181818;stroke-width:1;" width="10" x="454.3452" y="373.9688"/></g><rect fill="#E4E4F4" height="25.6406" rx="2.5" ry="2.5" style="stroke:#181818;stroke-width:0.5;" width="57.1592" x="15" y="38.2813"/><text fill="#000000" font-family="Helvetica" font-size="10" x="22" y="54.5635">TPM / SE</text><rect fill="#FFE6CC" height="25.6406" rx="2.5" ry="2.5" style="stroke:#D79B00;stroke-width:0.5;" width="34.0391" x="252.7729" y="38.2813"/><text fill="#000000" font-family="Helvetica" font-size="10" x="259.7729" y="54.5635">ZAS</text><rect fill="#FFE6CC" height="25.6406" rx="2.5" ry="2.5" style="stroke:#D79B00;stroke-width:0.5;" width="72.2471" x="423.2217" y="38.2813"/><text fill="#000000" font-family="Helvetica" font-size="10" x="430.2217" y="54.5635">ZETA Client</text><rect fill="#E4E4F4" height="25.6406" rx="2.5" ry="2.5" style="stroke:#181818;stroke-width:0.5;" width="57.1592" x="15" y="434.25"/><text fill="#000000" font-family="Helvetica" font-size="10" x="22" y="450.5322">TPM / SE</text><rect fill="#FFE6CC" height="25.6406" rx="2.5" ry="2.5" style="stroke:#D79B00;stroke-width:0.5;" width="34.0391" x="252.7729" y="434.25"/><text fill="#000000" font-family="Helvetica" font-size="10" x="259.7729" y="450.5322">ZAS</text><rect fill="#FFE6CC" height="25.6406" rx="2.5" ry="2.5" style="stroke:#D79B00;stroke-width:0.5;" width="72.2471" x="423.2217" y="434.25"/><text fill="#000000" font-family="Helvetica" font-size="10" x="430.2217" y="450.5322">ZETA Client</text><path d="M8.5796,76.9219 L68.5356,76.9219 L68.5356,80.5625 L58.5356,90.5625 L8.5796,90.5625 L8.5796,76.9219" fill="#EEEEEE" style="stroke:#000000;stroke-width:1.5;"/><rect fill="none" height="283.0469" style="stroke:#000000;stroke-width:1.5;" width="472.4883" x="8.5796" y="76.9219"/><text fill="#000000" font-family="Helvetica" font-size="10" font-weight="bold" x="23.5796" y="87.2041">alt</text><text fill="#000000" font-family="Helvetica" font-size="10" font-weight="bold" x="83.5356" y="88.2041">[Hardware Attestation (TPM / SE)]</text><line style="stroke:#181818;stroke-width:1;" x1="274.7925" x2="316.7925" y1="129.8438" y2="129.8438"/><line style="stroke:#181818;stroke-width:1;" x1="316.7925" x2="316.7925" y1="129.8438" y2="142.8438"/><line style="stroke:#181818;stroke-width:1;" x1="275.7925" x2="316.7925" y1="142.8438" y2="142.8438"/><polygon fill="#181818" points="285.7925,138.8438,275.7925,142.8438,285.7925,146.8438,281.7925,142.8438" style="stroke:#181818;stroke-width:1;"/><text fill="#000000" font-family="Helvetica" font-size="10" x="281.7925" y="119.665">(01)</text><text fill="#000000" font-family="Helvetica" font-size="10" x="306.3198" y="113.8447">Startet als Hintergrunddienst</text><text fill="#000000" font-family="Helvetica" font-size="10" x="309.4985" y="125.4854">(Root/Admin)</text><path d="M27.5796,154.8438 L87.5356,154.8438 L87.5356,158.4844 L77.5356,168.4844 L27.5796,168.4844 L27.5796,154.8438" fill="#EEEEEE" style="stroke:#000000;stroke-width:1.5;"/><rect fill="none" height="191.125" style="stroke:#000000;stroke-width:1.5;" width="428.4883" x="27.5796" y="154.8438"/><text fill="#000000" font-family="Helvetica" font-size="10" font-weight="bold" x="42.5796" y="165.126">alt</text><text fill="#000000" font-family="Helvetica" font-size="10" font-weight="bold" x="102.5356" y="166.126">[Windows / Linux (TPM)]</text><line style="stroke:#000000;stroke-width:1;stroke-dasharray:2,2;" x1="27.5796" x2="456.0679" y1="253.7656" y2="253.7656"/><text fill="#000000" font-family="Helvetica" font-size="10" font-weight="bold" x="32.5796" y="265.0479">[macOS (Secure Enclave)]</text><line style="stroke:#181818;stroke-width:1;stroke-dasharray:2,2;" x1="274.7925" x2="316.7925" y1="196.125" y2="196.125"/><line style="stroke:#181818;stroke-width:1;stroke-dasharray:2,2;" x1="316.7925" x2="316.7925" y1="196.125" y2="209.125"/><line style="stroke:#181818;stroke-width:1;stroke-dasharray:2,2;" x1="275.7925" x2="316.7925" y1="209.125" y2="209.125"/><polygon fill="#181818" points="285.7925,205.125,275.7925,209.125,285.7925,213.125,281.7925,209.125" style="stroke:#181818;stroke-width:1;"/><text fill="#000000" font-family="Helvetica" font-size="10" x="281.7925" y="191.7666">(02)</text><text fill="#000000" font-family="Helvetica" font-size="10" x="306.3198" y="191.7666">Messung des PS</text><polygon fill="#181818" points="54.5796,230.7656,44.5796,234.7656,54.5796,238.7656,50.5796,234.7656" style="stroke:#181818;stroke-width:1;"/><line style="stroke:#181818;stroke-width:1;" x1="48.5796" x2="263.7925" y1="234.7656" y2="234.7656"/><text fill="#000000" font-family="Helvetica" font-size="10" x="60.5796" y="230.4072">(03)</text><text fill="#000000" font-family="Helvetica" font-size="10" x="85.1069" y="230.4072">TPM2_PCR_Extend(23, Messwerte)</text><line style="stroke:#181818;stroke-width:1;stroke-dasharray:2,2;" x1="274.7925" x2="316.7925" y1="324.9688" y2="324.9688"/><line style="stroke:#181818;stroke-width:1;stroke-dasharray:2,2;" x1="316.7925" x2="316.7925" y1="324.9688" y2="337.9688"/><line style="stroke:#181818;stroke-width:1;stroke-dasharray:2,2;" x1="275.7925" x2="316.7925" y1="337.9688" y2="337.9688"/><polygon fill="#181818" points="285.7925,333.9688,275.7925,337.9688,285.7925,341.9688,281.7925,337.9688" style="stroke:#181818;stroke-width:1;"/><text fill="#000000" font-family="Helvetica" font-size="10" x="281.7925" y="303.1494">(04)</text><text fill="#000000" font-family="Helvetica" font-size="10" x="306.3198" y="285.6885">Initiale Ermittlung</text><text fill="#000000" font-family="Helvetica" font-size="10" x="309.4985" y="297.3291">der Posture (SIP-Status,</text><text fill="#000000" font-family="Helvetica" font-size="10" x="309.4985" y="308.9697">Gatekeeper, OS-Version,</text><text fill="#000000" font-family="Helvetica" font-size="10" x="309.4985" y="320.6104">Secure Boot Policy)</text><line style="stroke:#181818;stroke-width:1;" x1="464.3452" x2="506.3452" y1="403.25" y2="403.25"/><line style="stroke:#181818;stroke-width:1;" x1="506.3452" x2="506.3452" y1="403.25" y2="416.25"/><line style="stroke:#181818;stroke-width:1;" x1="465.3452" x2="506.3452" y1="416.25" y2="416.25"/><polygon fill="#181818" points="475.3452,412.25,465.3452,416.25,475.3452,420.25,471.3452,416.25" style="stroke:#181818;stroke-width:1;"/><text fill="#000000" font-family="Helvetica" font-size="10" x="471.3452" y="393.0713">(05)</text><text fill="#000000" font-family="Helvetica" font-size="10" x="495.8726" y="387.251">Start</text><text fill="#000000" font-family="Helvetica" font-size="10" x="499.0513" y="398.8916">(User Space)</text><?plantuml-src TLHjJzim4FwUNt7BfAq861rlOmXLQfiKAb4QDGKqD0cPv2WUZjtP3cyJ_sR_P7zivxoK5ig7n7RkkUVkdZk7vLR9FBj23NwZsLpnFNFBvPHfba6AromNjgUaZVaJmjVcSkC9on2EKDoXvGcRmmGbPg2aCbEMO3f3TrMkEUevh40viJVjz5TkB4WbSSvcy7UECi4HNgDscmvBRYTQvJBjAg4qdDzmE-yGltPugM5p2Uy0ZM4JR0i-aPJ8jVLkU8fWB3ah-pX5p_iC7VK0YOjcl0zKF9S85-6uVNbusXu5bztXyN047tkztbQuCmCSX_tQSdYZZ2tpNBGEek59U3AkSU5skDtRdc6YKN_G3aVnZtWS3chCCRj3cP9yBwZXMJy8HpEIe1U4NPTrn3GrXK-Pj7Ns1yO-2cnvTVK1PnEdnXyFO3e7TsU0BqzeMRK7U2qy5HpkThkLzPXogRu7txvtcitY-tF9CzNgZbJLxtC5E-5UiFsMQs-pixMxE-DoZ-3NA5pb9TdoULYawGW25UxFti56fG4fPBaLD9228zKSMn80Fa5VSikPu8Q6D9SJp_imrMoICR2edi3gd4RYYWR2fnxwBsr-fQ0_ZWQm0N7e0pFW3ajQJZu5KwHvzk-lDeyqTfc_hF55GVFy5-tO4Vkq-d1mu3hLQhr1LQKLG1hOwhpWGDFaal3grMF2mX7JwJtJ26rhqLXckPBGg4jQAU9GvDNLUWVhBRViboeYXHG6ZhYaQpGX5TEKuXhxaqX6IjcDTffnMT8KBnVpdCjKtHkAG8tB7ufmAzL4L37g8ExIKcleHsGWYXSnBIVsldjjNaRTqMNuOAcqnkRMMk5sZvHUIOl286Gi6SRGY379gTnG9e8ks3jXgyaWcCwujO9Ie8hSN4TqmPr_8-v7woI1pSqQcGwPnLl4AUer6CRhPwWD2UaiLRmEYK7EWYUFLKuoTPtmoaQHlbK7AOLoLoaCJifJGw5ZztTTyVu3?></g></svg>