<?plantuml 1.2026.2?><svg xmlns="http://www.w3.org/2000/svg" xmlns:xlink="http://www.w3.org/1999/xlink" contentStyleType="text/css" data-diagram-type="SEQUENCE" height="887px" preserveAspectRatio="none" style="width:838px;height:887px;background:#FFFFFF;" version="1.1" viewBox="0 0 838 887" width="838px" zoomAndPan="magnify"><defs/><g><rect fill="#F8F8FF" height="875.2188" style="stroke:#181818;stroke-width:0.5;" width="673.5322" x="15.4204" y="6"/><text fill="#000000" font-family="Helvetica" font-size="10" font-weight="bold" x="343.7246" y="15.2822">LEI</text><rect fill="#E6E6FA" height="858.5781" style="stroke:#181818;stroke-width:0.5;" width="345.8569" x="343.0957" y="22.6406"/><text fill="#000000" font-family="Helvetica" font-size="10" font-weight="bold" x="476.9275" y="31.9229">Prim&#228;rsystem</text><g><title>TPM . SE</title><rect fill="#000000" fill-opacity="0.00000" height="783.6563" width="8" x="44.5" y="64.9219"/><line style="stroke:#000000;stroke-width:0.5;stroke-dasharray:5,5;" x1="48" x2="48" y1="64.9219" y2="848.5781"/></g><g><title/><rect fill="#FFFFFF" height="218.125" style="stroke:#181818;stroke-width:1;" width="10" x="43" y="327.6875"/></g><g><title/><rect fill="#FFFFFF" height="76.9219" style="stroke:#181818;stroke-width:1;" width="10" x="43" y="607.0938"/></g><g><title>ZAS</title><rect fill="#000000" fill-opacity="0.00000" height="783.6563" width="8" x="360.6152" y="64.9219"/><line style="stroke:#000000;stroke-width:0.5;stroke-dasharray:5,5;" x1="364.1152" x2="364.1152" y1="64.9219" y2="848.5781"/></g><g><title/><rect fill="#FFFFFF" height="748.0156" style="stroke:#181818;stroke-width:1;" width="10" x="359.1152" y="100.5625"/></g><g><title>ZETA Client</title><rect fill="#000000" fill-opacity="0.00000" height="783.6563" width="8" x="645.3291" y="64.9219"/><line style="stroke:#000000;stroke-width:0.5;stroke-dasharray:5,5;" x1="648.8291" x2="648.8291" y1="64.9219" y2="848.5781"/></g><g><title/><rect fill="#FFFFFF" height="709.375" style="stroke:#181818;stroke-width:1;" width="10" x="643.8291" y="139.2031"/></g><rect fill="#E4E4F4" height="25.6406" rx="2.5" ry="2.5" style="stroke:#181818;stroke-width:0.5;" width="57.1592" x="19.4204" y="38.2813"/><text fill="#000000" font-family="Helvetica" font-size="10" x="26.4204" y="54.5635">TPM / SE</text><rect fill="#FFE6CC" height="25.6406" rx="2.5" ry="2.5" style="stroke:#D79B00;stroke-width:0.5;" width="34.0391" x="347.0957" y="38.2813"/><text fill="#000000" font-family="Helvetica" font-size="10" x="354.0957" y="54.5635">ZAS</text><rect fill="#FFE6CC" height="25.6406" rx="2.5" ry="2.5" style="stroke:#D79B00;stroke-width:0.5;" width="72.2471" x="612.7056" y="38.2813"/><text fill="#000000" font-family="Helvetica" font-size="10" x="619.7056" y="54.5635">ZETA Client</text><rect fill="#E4E4F4" height="25.6406" rx="2.5" ry="2.5" style="stroke:#181818;stroke-width:0.5;" width="57.1592" x="19.4204" y="848.5781"/><text fill="#000000" font-family="Helvetica" font-size="10" x="26.4204" y="864.8604">TPM / SE</text><rect fill="#FFE6CC" height="25.6406" rx="2.5" ry="2.5" style="stroke:#D79B00;stroke-width:0.5;" width="34.0391" x="347.0957" y="848.5781"/><text fill="#000000" font-family="Helvetica" font-size="10" x="354.0957" y="864.8604">ZAS</text><rect fill="#FFE6CC" height="25.6406" rx="2.5" ry="2.5" style="stroke:#D79B00;stroke-width:0.5;" width="72.2471" x="612.7056" y="848.5781"/><text fill="#000000" font-family="Helvetica" font-size="10" x="619.7056" y="864.8604">ZETA Client</text><path d="M8,76.9219 L67.9561,76.9219 L67.9561,80.5625 L57.9561,90.5625 L8,90.5625 L8,76.9219" fill="#EEEEEE" style="stroke:#000000;stroke-width:1.5;"/><rect fill="none" height="747.6563" style="stroke:#000000;stroke-width:1.5;" width="823.8916" x="8" y="76.9219"/><text fill="#000000" font-family="Helvetica" font-size="10" font-weight="bold" x="23" y="87.2041">alt</text><text fill="#000000" font-family="Helvetica" font-size="10" font-weight="bold" x="82.9561" y="88.2041">[Hardware Attestation (TPM / SE)]</text><line style="stroke:#000000;stroke-width:1;stroke-dasharray:2,2;" x1="8" x2="831.8916" y1="717.0156" y2="717.0156"/><text fill="#000000" font-family="Helvetica" font-size="10" font-weight="bold" x="13" y="728.2979">[Software Attestation (Fallback)]</text><line style="stroke:#181818;stroke-width:1;stroke-dasharray:2,2;" x1="369.1152" x2="411.1152" y1="118.2031" y2="118.2031"/><line style="stroke:#181818;stroke-width:1;stroke-dasharray:2,2;" x1="411.1152" x2="411.1152" y1="118.2031" y2="131.2031"/><line style="stroke:#181818;stroke-width:1;stroke-dasharray:2,2;" x1="370.1152" x2="411.1152" y1="131.2031" y2="131.2031"/><polygon fill="#181818" points="380.1152,127.2031,370.1152,131.2031,380.1152,135.2031,376.1152,131.2031" style="stroke:#181818;stroke-width:1;"/><text fill="#000000" font-family="Helvetica" font-size="10" x="376.1152" y="113.8447">(01)</text><text fill="#000000" font-family="Helvetica" font-size="10" x="400.6426" y="113.8447">Installation (Root/Admin rights)</text><line style="stroke:#181818;stroke-width:1;stroke-dasharray:2,2;" x1="653.8291" x2="695.8291" y1="156.8438" y2="156.8438"/><line style="stroke:#181818;stroke-width:1;stroke-dasharray:2,2;" x1="695.8291" x2="695.8291" y1="156.8438" y2="169.8438"/><line style="stroke:#181818;stroke-width:1;stroke-dasharray:2,2;" x1="654.8291" x2="695.8291" y1="169.8438" y2="169.8438"/><polygon fill="#181818" points="664.8291,165.8438,654.8291,169.8438,664.8291,173.8438,660.8291,169.8438" style="stroke:#181818;stroke-width:1;"/><text fill="#000000" font-family="Helvetica" font-size="10" x="660.8291" y="152.4854">(02)</text><text fill="#000000" font-family="Helvetica" font-size="10" x="685.3564" y="152.4854">Installation (User Space)</text><path d="M348.1152,181.8438 L745.9473,181.8438 L745.9473,185.4844 L735.9473,195.4844 L348.1152,195.4844 L348.1152,181.8438" fill="#EEEEEE" style="stroke:#000000;stroke-width:1.5;"/><rect fill="none" height="74.9219" style="stroke:#000000;stroke-width:1.5;" width="413.832" x="348.1152" y="181.8438"/><text fill="#000000" font-family="Helvetica" font-size="10" font-weight="bold" x="363.1152" y="192.126">Vertrauensbeziehung zwischen ZAS und Client wird aufgebaut</text><polygon fill="#181818" points="631.8291,219.125,641.8291,223.125,631.8291,227.125,635.8291,223.125" style="stroke:#181818;stroke-width:1;"/><line style="stroke:#181818;stroke-width:1;" x1="369.1152" x2="637.8291" y1="223.125" y2="223.125"/><text fill="#000000" font-family="Helvetica" font-size="10" x="376.1152" y="218.7666">(03)</text><text fill="#000000" font-family="Helvetica" font-size="10" x="400.6426" y="218.7666">&#160;</text><polygon fill="#181818" points="380.1152,244.7656,370.1152,248.7656,380.1152,252.7656,376.1152,248.7656" style="stroke:#181818;stroke-width:1;"/><line style="stroke:#181818;stroke-width:1;stroke-dasharray:2,2;" x1="374.1152" x2="642.8291" y1="248.7656" y2="248.7656"/><text fill="#000000" font-family="Helvetica" font-size="10" x="386.1152" y="244.4072">(04)</text><text fill="#000000" font-family="Helvetica" font-size="10" x="410.6426" y="244.4072">&#160;</text><path d="M27,274.7656 L86.9561,274.7656 L86.9561,278.4063 L76.9561,288.4063 L27,288.4063 L27,274.7656" fill="#EEEEEE" style="stroke:#000000;stroke-width:1.5;"/><rect fill="none" height="417.25" style="stroke:#000000;stroke-width:1.5;" width="673.29" x="27" y="274.7656"/><text fill="#000000" font-family="Helvetica" font-size="10" font-weight="bold" x="42" y="285.0479">alt</text><text fill="#000000" font-family="Helvetica" font-size="10" font-weight="bold" x="101.9561" y="286.0479">[Windows / Linux (TPM)]</text><line style="stroke:#000000;stroke-width:1;stroke-dasharray:2,2;" x1="27" x2="700.29" y1="570.8125" y2="570.8125"/><text fill="#000000" font-family="Helvetica" font-size="10" font-weight="bold" x="32" y="582.0947">[macOS (Secure Enclave)]</text><polygon fill="#181818" points="64,323.6875,54,327.6875,64,331.6875,60,327.6875" style="stroke:#181818;stroke-width:1;"/><line style="stroke:#181818;stroke-width:1;" x1="58" x2="642.8291" y1="327.6875" y2="327.6875"/><text fill="#000000" font-family="Helvetica" font-size="10" x="70" y="317.5088">(05)</text><text fill="#000000" font-family="Helvetica" font-size="10" x="94.5273" y="311.6885">Generiere PrK.Client.Sig, PuK.Client.Sig</text><text fill="#000000" font-family="Helvetica" font-size="10" x="94.5273" y="323.3291">via OS-Provider (z.B. MS CNG)</text><polygon fill="#181818" points="631.8291,349.3281,641.8291,353.3281,631.8291,357.3281,635.8291,353.3281" style="stroke:#181818;stroke-width:1;"/><line style="stroke:#181818;stroke-width:1;stroke-dasharray:2,2;" x1="53" x2="637.8291" y1="353.3281" y2="353.3281"/><text fill="#000000" font-family="Helvetica" font-size="10" x="60" y="348.9697">(06)</text><text fill="#000000" font-family="Helvetica" font-size="10" x="84.5273" y="348.9697">PuK.Client.Sig, Handle_PrK.Client.Sig</text><line style="stroke:#181818;stroke-width:1;stroke-dasharray:2,2;" x1="369.1152" x2="411.1152" y1="378.9688" y2="378.9688"/><line style="stroke:#181818;stroke-width:1;stroke-dasharray:2,2;" x1="411.1152" x2="411.1152" y1="378.9688" y2="391.9688"/><line style="stroke:#181818;stroke-width:1;stroke-dasharray:2,2;" x1="370.1152" x2="411.1152" y1="391.9688" y2="391.9688"/><polygon fill="#181818" points="380.1152,387.9688,370.1152,391.9688,380.1152,395.9688,376.1152,391.9688" style="stroke:#181818;stroke-width:1;"/><text fill="#000000" font-family="Helvetica" font-size="10" x="376.1152" y="374.6104">(07)</text><text fill="#000000" font-family="Helvetica" font-size="10" x="400.6426" y="374.6104">Messung des PS &amp; Vergleich mit Hersteller-Wert</text><polygon fill="#181818" points="64,413.6094,54,417.6094,64,421.6094,60,417.6094" style="stroke:#181818;stroke-width:1;"/><line style="stroke:#181818;stroke-width:1;" x1="58" x2="358.1152" y1="417.6094" y2="417.6094"/><text fill="#000000" font-family="Helvetica" font-size="10" x="70" y="413.251">(08)</text><text fill="#000000" font-family="Helvetica" font-size="10" x="94.5273" y="413.251">TPM2_CreatePrimary() &#8594; Storage Root Key (SRK)</text><polygon fill="#181818" points="64,439.25,54,443.25,64,447.25,60,443.25" style="stroke:#181818;stroke-width:1;"/><line style="stroke:#181818;stroke-width:1;" x1="58" x2="358.1152" y1="443.25" y2="443.25"/><text fill="#000000" font-family="Helvetica" font-size="10" x="70" y="438.8916">(09)</text><text fill="#000000" font-family="Helvetica" font-size="10" x="94.5273" y="438.8916">TPM2_Create(SRK, restricted=sign, fixedTPM=true)</text><polygon fill="#181818" points="347.1152,464.8906,357.1152,468.8906,347.1152,472.8906,351.1152,468.8906" style="stroke:#181818;stroke-width:1;"/><line style="stroke:#181818;stroke-width:1;stroke-dasharray:2,2;" x1="53" x2="353.1152" y1="468.8906" y2="468.8906"/><text fill="#000000" font-family="Helvetica" font-size="10" x="60" y="464.5322">(10)</text><text fill="#000000" font-family="Helvetica" font-size="10" x="84.5273" y="464.5322">PuK.AK.Sig, PrK.AK.Sig (blob)</text><polygon fill="#181818" points="64,490.5313,54,494.5313,64,498.5313,60,494.5313" style="stroke:#181818;stroke-width:1;"/><line style="stroke:#181818;stroke-width:1;" x1="58" x2="358.1152" y1="494.5313" y2="494.5313"/><text fill="#000000" font-family="Helvetica" font-size="10" x="70" y="490.1729">(11)</text><text fill="#000000" font-family="Helvetica" font-size="10" x="94.5273" y="490.1729">TPM2_Load(SRK, PrK.AK.Sig, PuK.AK.Sig)</text><polygon fill="#181818" points="347.1152,516.1719,357.1152,520.1719,347.1152,524.1719,351.1152,520.1719" style="stroke:#181818;stroke-width:1;"/><line style="stroke:#181818;stroke-width:1;stroke-dasharray:2,2;" x1="53" x2="353.1152" y1="520.1719" y2="520.1719"/><text fill="#000000" font-family="Helvetica" font-size="10" x="60" y="515.8135">(12)</text><text fill="#000000" font-family="Helvetica" font-size="10" x="84.5273" y="515.8135">Handle_PrK.AK.Sig</text><polygon fill="#181818" points="64,541.8125,54,545.8125,64,549.8125,60,545.8125" style="stroke:#181818;stroke-width:1;"/><line style="stroke:#181818;stroke-width:1;" x1="58" x2="358.1152" y1="545.8125" y2="545.8125"/><text fill="#000000" font-family="Helvetica" font-size="10" x="70" y="541.4541">(13)</text><text fill="#000000" font-family="Helvetica" font-size="10" x="94.5273" y="541.4541">TPM2_PCR_Extend(23, Messwerte)</text><path d="M374.1152,533.1719 L374.1152,554.1719 L679.1152,554.1719 L679.1152,543.1719 L669.1152,533.1719 L374.1152,533.1719" fill="#FEFFDD" style="stroke:#181818;stroke-width:0.5;"/><path d="M669.1152,533.1719 L669.1152,543.1719 L679.1152,543.1719 L669.1152,533.1719" fill="#FEFFDD" style="stroke:#181818;stroke-width:0.5;"/><text fill="#000000" font-family="Helvetica" font-size="10" x="380.1152" y="547.4541">PCR_23 K&#246;nnte belegt sein; muss vorher gepr&#252;ft werden</text><polygon fill="#181818" points="64,603.0938,54,607.0938,64,611.0938,60,607.0938" style="stroke:#181818;stroke-width:1;"/><line style="stroke:#181818;stroke-width:1;" x1="58" x2="642.8291" y1="607.0938" y2="607.0938"/><text fill="#000000" font-family="Helvetica" font-size="10" x="70" y="602.7354">(14)</text><text fill="#000000" font-family="Helvetica" font-size="10" x="94.5273" y="602.7354">SecKeyCreateRandomKey (f&#252;r PrK.Client.Sig, PuK.Client.Sig in SE)</text><polygon fill="#181818" points="631.8291,628.7344,641.8291,632.7344,631.8291,636.7344,635.8291,632.7344" style="stroke:#181818;stroke-width:1;"/><line style="stroke:#181818;stroke-width:1;stroke-dasharray:2,2;" x1="53" x2="637.8291" y1="632.7344" y2="632.7344"/><text fill="#000000" font-family="Helvetica" font-size="10" x="60" y="628.376">(15)</text><text fill="#000000" font-family="Helvetica" font-size="10" x="84.5273" y="628.376">PuK.Client.Sig, Handle_PrK.Client.Sig</text><polygon fill="#181818" points="64,654.375,54,658.375,64,662.375,60,658.375" style="stroke:#181818;stroke-width:1;"/><line style="stroke:#181818;stroke-width:1;" x1="58" x2="358.1152" y1="658.375" y2="658.375"/><text fill="#000000" font-family="Helvetica" font-size="10" x="70" y="654.0166">(16)</text><text fill="#000000" font-family="Helvetica" font-size="10" x="94.5273" y="654.0166">DCAppAttestService.shared.generateKey()</text><polygon fill="#181818" points="347.1152,680.0156,357.1152,684.0156,347.1152,688.0156,351.1152,684.0156" style="stroke:#181818;stroke-width:1;"/><line style="stroke:#181818;stroke-width:1;stroke-dasharray:2,2;" x1="53" x2="353.1152" y1="684.0156" y2="684.0156"/><text fill="#000000" font-family="Helvetica" font-size="10" x="60" y="679.6572">(17)</text><text fill="#000000" font-family="Helvetica" font-size="10" x="84.5273" y="679.6572">keyId (Referenz f&#252;r PrK.AK.Sig)</text><line style="stroke:#181818;stroke-width:1;stroke-dasharray:2,2;" x1="653.8291" x2="695.8291" y1="753.2969" y2="753.2969"/><line style="stroke:#181818;stroke-width:1;stroke-dasharray:2,2;" x1="695.8291" x2="695.8291" y1="753.2969" y2="766.2969"/><line style="stroke:#181818;stroke-width:1;stroke-dasharray:2,2;" x1="654.8291" x2="695.8291" y1="766.2969" y2="766.2969"/><polygon fill="#181818" points="664.8291,762.2969,654.8291,766.2969,664.8291,770.2969,660.8291,766.2969" style="stroke:#181818;stroke-width:1;"/><text fill="#000000" font-family="Helvetica" font-size="10" x="660.8291" y="748.9385">(18)</text><text fill="#000000" font-family="Helvetica" font-size="10" x="685.3564" y="748.9385">Installation (User Space)</text><line style="stroke:#181818;stroke-width:1;" x1="653.8291" x2="695.8291" y1="803.5781" y2="803.5781"/><line style="stroke:#181818;stroke-width:1;" x1="695.8291" x2="695.8291" y1="803.5781" y2="816.5781"/><line style="stroke:#181818;stroke-width:1;" x1="654.8291" x2="695.8291" y1="816.5781" y2="816.5781"/><polygon fill="#181818" points="664.8291,812.5781,654.8291,816.5781,664.8291,820.5781,660.8291,816.5781" style="stroke:#181818;stroke-width:1;"/><text fill="#000000" font-family="Helvetica" font-size="10" x="660.8291" y="793.3994">(19)</text><text fill="#000000" font-family="Helvetica" font-size="10" x="685.3564" y="787.5791">Generiere PrK.Client.Sig,</text><text fill="#000000" font-family="Helvetica" font-size="10" x="685.3564" y="799.2197">PuK.Client.Sig</text><?plantuml-src hLRRRjj647tdLqnKe96WYrtRSLFNCQ0BPHkMB45qOZG8OAp44RKrjSlkBcLBHLxx0Vs6VaEVykO_wPTqbXGbIfOJeEY3pRtCzSoPMR7OI15FXwYWKDpVBnKSVSz5n1IRWezZ5eUcBONn-0BXX_tTbzTiYd21uGmD7x6SJ2kLwKeXTSH6wA-acp9M75LEDaGHc4dT_pNM1eGKcBlJ-5kCOeG37AEoYmORtGTAni9lob0gk9rmarVmjXNMEHpiiDj5hLc0zP07WW8P6sV2VGHjI5cQUOIEyneQyX56rfjsNb7oN21yT6_gT-VlwuFMNRFNwGtWktQxVUY-MGbqtClivdmYjKdZtBpjzdlNxlLD9kSUkKVjevLCVt3PhRi3xnVlnkrcCXqsG-4JV6kfteVBbZjO6McrMsxJHjrdYeh28oPC5lsfDlCGpvmi-nPdWKNZTmSWoedRFK1jWOOjrm3Rm5F2xd6pkRpjK2pByzQFFpNszvFppwcTICaPeQfUjjLwuxvj7JstzVQWSNXylB9b_q8-nj1cdXhRpOTDCusGX1BrpyxftX83GiXm4n8XGuwKywNGXeKXCrmA-9xiwiHDrJLiI18g5e7Zl8eK2wOC3Ce561KJFOP4ZWBLix0k-HQQXPj-5_R0Sml0DDZDZlAJJcAfh_ZqwI-bvqJ1QM4N2POevJryh7lMT86-1JWzjNKxEziXjqmr4IK2B_Tv5IANZSF9lWuB3LmmvJymXL0t1Wcb1A9YbbN9IJoHxtBPBh8TLAjdzdko2Mrn8ANPg_jJBa3nO69qAT58OocNSvl4GhhSDl9U4vqyErbIRKk123wWCeeHjVKG5nmdL3DOF70zcg18GYAQPBOVkFA1nUC0XomsIx2MWMTULwUvU4WWEIQ4qiGjGhTS-F914nx4klWn0QVqJFlC5hzSFe5p56Y78BMlkggbrpMF1nNen_dz9p7Z37fUjPzrK75HQzIWwq7p-dpjm9OYZzMcbGeLKFWXtcqwsqmvgvKTY1Os7pNqFMe4mZG8aOycCEL41LH4p314LRqbiBTXeq1ExB-3kwP2Pj2ocQbviGJ__F4dU4PI-o1O1i0Lpg7e3QvAtx9XXIgWY7YAZmpwxpJDwWgC-IFw9FREjk5pA99aB0xrgoMoAbj3SHZAuLVyTYJpKwzhfKhEs0lUSYYdSYzxw3S7T-wZ8GuL3muh2UWF16Sk3o4Dflr1QP3qmI5SFVqj19qECSJ0q1F6nSymZRM6cLGJ8aU0aNhwCYPke_A9yVamgzMKjQ56cB9HpoFmSHGJ1Lqn2kbL-GfTIP2gbLPZG4dAQLAyyTCNzGq20pMvdH3_8r6NCBQQzIXAvv67QiP7MDCJcb5-BR3DHP5IZCMTbQfMJ-0UvvS-pQBqLy82LhdaAvoqU8AO9yVc-GHiqpmQqjDI-cypQurp9l_YNFWaDf5Az5_lSjcHzumUjQqsBhO843vXUa9xLDJ9rCIYj6LcRSMBRCVRG5Rlu0KfGsYjqr3GoIsmeNqed7y1?></g></svg>