<?plantuml 1.2026.2?><svg xmlns="http://www.w3.org/2000/svg" xmlns:xlink="http://www.w3.org/1999/xlink" contentStyleType="text/css" data-diagram-type="SEQUENCE" height="297px" preserveAspectRatio="none" style="width:652px;height:297px;background:#FFFFFF;" version="1.1" viewBox="0 0 652 297" width="652px" zoomAndPan="magnify"><defs/><g><rect fill="#F8F8FF" height="285.6875" style="stroke:#181818;stroke-width:0.5;" width="102.1934" x="11" y="6"/><text fill="#000000" font-family="Helvetica" font-size="10" font-weight="bold" x="53.6348" y="15.2822">LEI</text><rect fill="#E6E6FA" height="269.0469" style="stroke:#181818;stroke-width:0.5;" width="102.1934" x="11" y="22.6406"/><text fill="#000000" font-family="Helvetica" font-size="10" font-weight="bold" x="23" y="31.9229">Prim&#228;rsystem</text><rect fill="#EDFDEC" height="285.6875" style="stroke:#181818;stroke-width:0.5;" width="205.9902" x="440.8154" y="6"/><text fill="#000000" font-family="Helvetica" font-size="10" font-weight="bold" x="481.9185" y="15.2822">Anbieter TI 2.0 Dienst</text><rect fill="#FFF3E5" height="269.0469" style="stroke:#181818;stroke-width:0.5;" width="205.9902" x="440.8154" y="22.6406"/><text fill="#000000" font-family="Helvetica" font-size="10" font-weight="bold" x="510.666" y="31.9229">ZETA Guard</text><g><title>ZETA</title><rect fill="#000000" fill-opacity="0.00000" height="170.8438" width="8" x="58.5967" y="76.5625"/><line style="stroke:#000000;stroke-width:0.5;stroke-dasharray:5,5;" x1="62.0967" x2="62.0967" y1="76.5625" y2="247.4063"/></g><g><title/><rect fill="#FFFFFF" height="162.8438" style="stroke:#181818;stroke-width:1;" width="10" x="57.0967" y="84.5625"/></g><g><title>PEP</title><rect fill="#000000" fill-opacity="0.00000" height="170.8438" width="8" x="476.8359" y="76.5625"/><line style="stroke:#000000;stroke-width:0.5;stroke-dasharray:5,5;" x1="480.3359" x2="480.3359" y1="76.5625" y2="247.4063"/></g><g><title/><rect fill="#FFFFFF" height="25.6406" style="stroke:#181818;stroke-width:1;" width="10" x="475.3359" y="102.2031"/></g><g><title>PDP</title><rect fill="#000000" fill-opacity="0.00000" height="170.8438" width="8" x="580.8311" y="76.5625"/><line style="stroke:#000000;stroke-width:0.5;stroke-dasharray:5,5;" x1="584.3311" x2="584.3311" y1="76.5625" y2="247.4063"/></g><g><title/><rect fill="#FFFFFF" height="25.6406" style="stroke:#181818;stroke-width:1;" width="10" x="579.3311" y="165.125"/></g><rect fill="#FFE6CC" height="37.2813" rx="2.5" ry="2.5" style="stroke:#D79B00;stroke-width:0.5;" width="42.9502" x="40.6216" y="38.2813"/><text fill="#000000" font-family="Helvetica" font-size="10" x="49.0376" y="54.5635">ZETA</text><text fill="#000000" font-family="Helvetica" font-size="10" x="47.6216" y="66.2041">Client</text><rect fill="#FFE6CC" height="37.2813" rx="2.5" ry="2.5" style="stroke:#D79B00;stroke-width:0.5;" width="71.041" x="444.8154" y="38.2813"/><text fill="#000000" font-family="Helvetica" font-size="10" x="471.1465" y="54.5635">PEP</text><text fill="#000000" font-family="Helvetica" font-size="10" x="451.8154" y="66.2041">HTTP Proxy</text><rect fill="#FFE6CC" height="37.2813" rx="2.5" ry="2.5" style="stroke:#D79B00;stroke-width:0.5;" width="116.9492" x="525.8564" y="38.2813"/><text fill="#000000" font-family="Helvetica" font-size="10" x="574.4507" y="54.5635">PDP</text><text fill="#000000" font-family="Helvetica" font-size="10" x="532.8564" y="66.2041">Authorization Server</text><rect fill="#FFE6CC" height="37.2813" rx="2.5" ry="2.5" style="stroke:#D79B00;stroke-width:0.5;" width="42.9502" x="40.6216" y="247.4063"/><text fill="#000000" font-family="Helvetica" font-size="10" x="49.0376" y="263.6885">ZETA</text><text fill="#000000" font-family="Helvetica" font-size="10" x="47.6216" y="275.3291">Client</text><rect fill="#FFE6CC" height="37.2813" rx="2.5" ry="2.5" style="stroke:#D79B00;stroke-width:0.5;" width="71.041" x="444.8154" y="247.4063"/><text fill="#000000" font-family="Helvetica" font-size="10" x="471.1465" y="263.6885">PEP</text><text fill="#000000" font-family="Helvetica" font-size="10" x="451.8154" y="275.3291">HTTP Proxy</text><rect fill="#FFE6CC" height="37.2813" rx="2.5" ry="2.5" style="stroke:#D79B00;stroke-width:0.5;" width="116.9492" x="525.8564" y="247.4063"/><text fill="#000000" font-family="Helvetica" font-size="10" x="574.4507" y="263.6885">PDP</text><text fill="#000000" font-family="Helvetica" font-size="10" x="532.8564" y="275.3291">Authorization Server</text><polygon fill="#181818" points="463.3359,98.2031,473.3359,102.2031,463.3359,106.2031,467.3359,102.2031" style="stroke:#181818;stroke-width:1;"/><line style="stroke:#181818;stroke-width:1;" x1="67.0967" x2="469.3359" y1="102.2031" y2="102.2031"/><text fill="#000000" font-family="Helvetica" font-size="10" x="74.0967" y="97.8447">(01)</text><text fill="#000000" font-family="Helvetica" font-size="10" x="98.624" y="97.8447">GET /.well-known/oauth-protected-resource Host: RS-FQDN</text><polygon fill="#181818" points="78.0967,123.8438,68.0967,127.8438,78.0967,131.8438,74.0967,127.8438" style="stroke:#181818;stroke-width:1;"/><line style="stroke:#181818;stroke-width:1;stroke-dasharray:2,2;" x1="72.0967" x2="474.3359" y1="127.8438" y2="127.8438"/><text fill="#000000" font-family="Helvetica" font-size="10" x="84.0967" y="123.4854">(02)</text><text fill="#000000" font-family="Helvetica" font-size="10" x="108.624" y="123.4854">Client: 200 OK; JSON body with Well-Known JSON Document  (RFC9728)</text><polygon fill="#181818" points="567.3311,161.125,577.3311,165.125,567.3311,169.125,571.3311,165.125" style="stroke:#181818;stroke-width:1;"/><line style="stroke:#181818;stroke-width:1;" x1="67.0967" x2="573.3311" y1="165.125" y2="165.125"/><text fill="#000000" font-family="Helvetica" font-size="10" x="74.0967" y="154.9463">(03)</text><text fill="#000000" font-family="Helvetica" font-size="10" x="98.624" y="149.126">GET /.well-known/oauth-authorization-server</text><text fill="#000000" font-family="Helvetica" font-size="10" x="98.624" y="160.7666">Host:  AuthS Issuer from OAuth Protected Resource Metadata</text><polygon fill="#181818" points="78.0967,186.7656,68.0967,190.7656,78.0967,194.7656,74.0967,190.7656" style="stroke:#181818;stroke-width:1;"/><line style="stroke:#181818;stroke-width:1;stroke-dasharray:2,2;" x1="72.0967" x2="578.3311" y1="190.7656" y2="190.7656"/><text fill="#000000" font-family="Helvetica" font-size="10" x="84.0967" y="186.4072">(04)</text><text fill="#000000" font-family="Helvetica" font-size="10" x="108.624" y="186.4072">200 OK; JSON body with Well-Known JSON Document   (RFC8414)</text><line style="stroke:#181818;stroke-width:1;" x1="67.0967" x2="109.0967" y1="216.4063" y2="216.4063"/><line style="stroke:#181818;stroke-width:1;" x1="109.0967" x2="109.0967" y1="216.4063" y2="229.4063"/><line style="stroke:#181818;stroke-width:1;" x1="68.0967" x2="109.0967" y1="229.4063" y2="229.4063"/><polygon fill="#181818" points="78.0967,225.4063,68.0967,229.4063,78.0967,233.4063,74.0967,229.4063" style="stroke:#181818;stroke-width:1;"/><text fill="#000000" font-family="Helvetica" font-size="10" x="74.0967" y="212.0479">(05)</text><text fill="#000000" font-family="Helvetica" font-size="10" x="98.624" y="212.0479">Update Configuration</text><?plantuml-src dLJRKjim47ttLspTXy9a324429HX9eaTICd5TKAPTfXXHAmaAewKIZ8GElnD_wG_rfKlYGDf7_hWiQpTitlEMLaareB7ipigmTugbxTjIzqpFYUIp22aOn97kYMu7h1d2dlbpS4UcL6ueD43rMn42ZbkcjCLNAWv6T5mcTqKiMHK5d8ZoYTwMW-_nqe35vmMOeh-Y2aVqO2EgJIB1XdTJwI8UTWKaP1mFMMw21Yy1gmqL3RKxLAbo8JM8pRXI6IihIaBAIYDOA4NSsfP7w0Xdc1akYdh7OfddC8tRrY_FR-g1-vjiz_f1_2-rMhjUmVBX8xNpYFdKw5qodCzslNxFQytpFEygbTjLPSvVj3krhrWy7KmzBfvJeSyK1wYVQki_fUswmNB8cxBzPg6jKya3eND2TSv-rEb5n4zitBrBYCJuyPF2s1UI3VV03lFL9Di3V3QU1Ji7JQRMRI3NB9zz-YuKIud-ozfdRaK3-Yg_7ijzy2hkTMtjMgLnlxXuRAMUI8sff5HdXRRV1xMopGYJ4hWBzRfRkQ1zMukoMH6G5Fn35h6EEex7BIDix5NuqDOikjBDllzIwe57esPlMau6VkYZys8KNmH1ROvC3SytR3XzDHuUtQ661odwM3bxvH4dTynYeSGXcsex9J1HPpIzgjnv-HCSJYFYGpjDoVJUatgmay8-Pv_mo-6GnzyAPuMQvpM0VLOJmSfnaMC-HIIFHFD1CV_JJvGkKB39acfx58fMu1pPbYKId02vzuGTdSUQHGvzrmyybr1iBw3HqRJaQQX8wd26sE4rmp-HISG39pMPxTd8Tx1Ccb1npd9LYTGAPUXV_aHFWtwFUmUBk2HwIbScmwNfaCQSSKedXaki1MqciT7bTfsWLqg-Ly4IT45HoKke9y9nmpULYh62Owbc47VR1cdKrKGvAgww5f8DB5Ip4eJBk4_r2HoQjMzQb5ExitL75kPAvYFsIIM2NVh3m00?></g></svg>