<?plantuml 1.2026.2?><svg xmlns="http://www.w3.org/2000/svg" xmlns:xlink="http://www.w3.org/1999/xlink" contentStyleType="text/css" data-diagram-type="SEQUENCE" height="738px" preserveAspectRatio="none" style="width:732px;height:738px;background:#FFFFFF;" version="1.1" viewBox="0 0 732 738" width="732px" zoomAndPan="magnify"><defs/><g><rect fill="#F8F8FF" height="726.5781" style="stroke:#181818;stroke-width:0.5;" width="603.3809" x="15.4204" y="6"/><text fill="#000000" font-family="Helvetica" font-size="10" font-weight="bold" x="308.6489" y="15.2822">LEI</text><rect fill="#E6E6FA" height="709.9375" style="stroke:#181818;stroke-width:0.5;" width="316.438" x="302.3633" y="22.6406"/><text fill="#000000" font-family="Helvetica" font-size="10" font-weight="bold" x="421.4856" y="31.9229">Prim&#228;rsystem</text><g><title>TPM . SE</title><rect fill="#000000" fill-opacity="0.00000" height="611.7344" width="8" x="44.5" y="76.5625"/><line style="stroke:#000000;stroke-width:0.5;stroke-dasharray:5,5;" x1="48" x2="48" y1="76.5625" y2="688.2969"/></g><g><title/><rect fill="#FFFFFF" height="179.4844" style="stroke:#181818;stroke-width:1;" width="10" x="43" y="183.125"/></g><g><title/><rect fill="#FFFFFF" height="25.6406" style="stroke:#181818;stroke-width:1;" width="10" x="43" y="443.5313"/></g><g><title>ZAS</title><rect fill="#000000" fill-opacity="0.00000" height="611.7344" width="8" x="319.8828" y="76.5625"/><line style="stroke:#000000;stroke-width:0.5;stroke-dasharray:5,5;" x1="323.3828" x2="323.3828" y1="76.5625" y2="688.2969"/></g><g><title/><rect fill="#FFFFFF" height="576.0938" style="stroke:#181818;stroke-width:1;" width="10" x="318.3828" y="112.2031"/></g><g><title>ZETA Client</title><rect fill="#000000" fill-opacity="0.00000" height="611.7344" width="8" x="575.1777" y="76.5625"/><line style="stroke:#000000;stroke-width:0.5;stroke-dasharray:5,5;" x1="578.6777" x2="578.6777" y1="76.5625" y2="688.2969"/></g><g><title/><rect fill="#FFFFFF" height="576.0938" style="stroke:#181818;stroke-width:1;" width="10" x="573.6777" y="112.2031"/></g><g><title>Apple</title><rect fill="#000000" fill-opacity="0.00000" height="611.7344" width="8" x="676.2813" y="76.5625"/><line style="stroke:#000000;stroke-width:0.5;stroke-dasharray:5,5;" x1="679.7813" x2="679.7813" y1="76.5625" y2="688.2969"/></g><g><title/><rect fill="#FFFFFF" height="37.2813" style="stroke:#181818;stroke-width:1;" width="10" x="674.7813" y="494.8125"/></g><rect fill="#E4E4F4" height="25.6406" rx="2.5" ry="2.5" style="stroke:#181818;stroke-width:0.5;" width="57.1592" x="19.4204" y="49.9219"/><text fill="#000000" font-family="Helvetica" font-size="10" x="26.4204" y="66.2041">TPM / SE</text><rect fill="#FFE6CC" height="25.6406" rx="2.5" ry="2.5" style="stroke:#D79B00;stroke-width:0.5;" width="34.0391" x="306.3633" y="49.9219"/><text fill="#000000" font-family="Helvetica" font-size="10" x="313.3633" y="66.2041">ZAS</text><rect fill="#FFE6CC" height="25.6406" rx="2.5" ry="2.5" style="stroke:#D79B00;stroke-width:0.5;" width="72.2471" x="542.5542" y="49.9219"/><text fill="#000000" font-family="Helvetica" font-size="10" x="549.5542" y="66.2041">ZETA Client</text><rect fill="#E2E2F0" height="37.2813" rx="2.5" ry="2.5" style="stroke:#181818;stroke-width:0.5;" width="56.168" x="651.6973" y="38.2813"/><text fill="#000000" font-family="Helvetica" font-size="10" x="665.5479" y="54.5635">Apple</text><text fill="#000000" font-family="Helvetica" font-size="10" x="658.6973" y="66.2041">Services</text><rect fill="#E4E4F4" height="25.6406" rx="2.5" ry="2.5" style="stroke:#181818;stroke-width:0.5;" width="57.1592" x="19.4204" y="688.2969"/><text fill="#000000" font-family="Helvetica" font-size="10" x="26.4204" y="704.5791">TPM / SE</text><rect fill="#FFE6CC" height="25.6406" rx="2.5" ry="2.5" style="stroke:#D79B00;stroke-width:0.5;" width="34.0391" x="306.3633" y="688.2969"/><text fill="#000000" font-family="Helvetica" font-size="10" x="313.3633" y="704.5791">ZAS</text><rect fill="#FFE6CC" height="25.6406" rx="2.5" ry="2.5" style="stroke:#D79B00;stroke-width:0.5;" width="72.2471" x="542.5542" y="688.2969"/><text fill="#000000" font-family="Helvetica" font-size="10" x="549.5542" y="704.5791">ZETA Client</text><rect fill="#E2E2F0" height="37.2813" rx="2.5" ry="2.5" style="stroke:#181818;stroke-width:0.5;" width="56.168" x="651.6973" y="688.2969"/><text fill="#000000" font-family="Helvetica" font-size="10" x="665.5479" y="704.5791">Apple</text><text fill="#000000" font-family="Helvetica" font-size="10" x="658.6973" y="716.2197">Services</text><path d="M8,88.5625 L67.9561,88.5625 L67.9561,92.2031 L57.9561,102.2031 L8,102.2031 L8,88.5625" fill="#EEEEEE" style="stroke:#000000;stroke-width:1.5;"/><rect fill="none" height="575.7344" style="stroke:#000000;stroke-width:1.5;" width="717.7813" x="8" y="88.5625"/><text fill="#000000" font-family="Helvetica" font-size="10" font-weight="bold" x="23" y="98.8447">alt</text><text fill="#000000" font-family="Helvetica" font-size="10" font-weight="bold" x="82.9561" y="99.8447">[Hardware Attestation (TPM / SE)]</text><line style="stroke:#000000;stroke-width:1;stroke-dasharray:2,2;" x1="8" x2="725.7813" y1="602.375" y2="602.375"/><text fill="#000000" font-family="Helvetica" font-size="10" font-weight="bold" x="13" y="613.6572">[Software Attestation (Fallback)]</text><polygon fill="#181818" points="339.3828,125.8438,329.3828,129.8438,339.3828,133.8438,335.3828,129.8438" style="stroke:#181818;stroke-width:1;"/><line style="stroke:#181818;stroke-width:1;" x1="333.3828" x2="572.6777" y1="129.8438" y2="129.8438"/><text fill="#000000" font-family="Helvetica" font-size="10" x="345.3828" y="125.4854">(01)</text><text fill="#000000" font-family="Helvetica" font-size="10" x="369.9102" y="125.4854">dataToSign = Hash_PuK.Client.Sig</text><path d="M27,141.8438 L86.9561,141.8438 L86.9561,145.4844 L76.9561,155.4844 L27,155.4844 L27,141.8438" fill="#EEEEEE" style="stroke:#000000;stroke-width:1.5;"/><rect fill="none" height="435.5313" style="stroke:#000000;stroke-width:1.5;" width="673.7813" x="27" y="141.8438"/><text fill="#000000" font-family="Helvetica" font-size="10" font-weight="bold" x="42" y="152.126">alt</text><text fill="#000000" font-family="Helvetica" font-size="10" font-weight="bold" x="101.9561" y="153.126">[Windows / Linux (TPM)]</text><line style="stroke:#000000;stroke-width:1;stroke-dasharray:2,2;" x1="27" x2="700.7813" y1="407.25" y2="407.25"/><text fill="#000000" font-family="Helvetica" font-size="10" font-weight="bold" x="32" y="418.5322">[macOS (Secure Enclave)]</text><polygon fill="#181818" points="64,179.125,54,183.125,64,187.125,60,183.125" style="stroke:#181818;stroke-width:1;"/><line style="stroke:#181818;stroke-width:1;" x1="58" x2="317.3828" y1="183.125" y2="183.125"/><text fill="#000000" font-family="Helvetica" font-size="10" x="70" y="178.7666">(02)</text><text fill="#000000" font-family="Helvetica" font-size="10" x="94.5273" y="178.7666">TPM2_Sign(Handle_PrK.AK.Sig, dataToSign)</text><polygon fill="#181818" points="306.3828,204.7656,316.3828,208.7656,306.3828,212.7656,310.3828,208.7656" style="stroke:#181818;stroke-width:1;"/><line style="stroke:#181818;stroke-width:1;stroke-dasharray:2,2;" x1="53" x2="312.3828" y1="208.7656" y2="208.7656"/><text fill="#000000" font-family="Helvetica" font-size="10" x="60" y="204.4072">(03)</text><text fill="#000000" font-family="Helvetica" font-size="10" x="84.5273" y="204.4072">signed_Hash_PuK.Client.Sig</text><polygon fill="#181818" points="561.6777,230.4063,571.6777,234.4063,561.6777,238.4063,565.6777,234.4063" style="stroke:#181818;stroke-width:1;"/><line style="stroke:#181818;stroke-width:1;stroke-dasharray:2,2;" x1="328.3828" x2="567.6777" y1="234.4063" y2="234.4063"/><text fill="#000000" font-family="Helvetica" font-size="10" x="335.3828" y="230.0479">(04)</text><text fill="#000000" font-family="Helvetica" font-size="10" x="359.9102" y="230.0479">PuK.AK.Sig, signed_Hash_PuK.Client.Sig</text><polygon fill="#181818" points="339.3828,256.0469,329.3828,260.0469,339.3828,264.0469,335.3828,260.0469" style="stroke:#181818;stroke-width:1;"/><line style="stroke:#181818;stroke-width:1;" x1="333.3828" x2="572.6777" y1="260.0469" y2="260.0469"/><text fill="#000000" font-family="Helvetica" font-size="10" x="345.3828" y="255.6885">(05)</text><text fill="#000000" font-family="Helvetica" font-size="10" x="369.9102" y="255.6885">Request PuK.EK.Enc, C.EK.Enc</text><polygon fill="#181818" points="64,281.6875,54,285.6875,64,289.6875,60,285.6875" style="stroke:#181818;stroke-width:1;"/><line style="stroke:#181818;stroke-width:1;" x1="58" x2="317.3828" y1="285.6875" y2="285.6875"/><text fill="#000000" font-family="Helvetica" font-size="10" x="70" y="281.3291">(06)</text><text fill="#000000" font-family="Helvetica" font-size="10" x="94.5273" y="281.3291">TPM2_ReadPublic(EndorsementKey)</text><polygon fill="#181818" points="306.3828,307.3281,316.3828,311.3281,306.3828,315.3281,310.3828,311.3281" style="stroke:#181818;stroke-width:1;"/><line style="stroke:#181818;stroke-width:1;stroke-dasharray:2,2;" x1="53" x2="312.3828" y1="311.3281" y2="311.3281"/><text fill="#000000" font-family="Helvetica" font-size="10" x="60" y="306.9697">(07)</text><text fill="#000000" font-family="Helvetica" font-size="10" x="84.5273" y="306.9697">PuK.EK.Enc</text><polygon fill="#181818" points="64,332.9688,54,336.9688,64,340.9688,60,336.9688" style="stroke:#181818;stroke-width:1;"/><line style="stroke:#181818;stroke-width:1;" x1="58" x2="317.3828" y1="336.9688" y2="336.9688"/><text fill="#000000" font-family="Helvetica" font-size="10" x="70" y="332.6104">(08)</text><text fill="#000000" font-family="Helvetica" font-size="10" x="94.5273" y="332.6104">TPM2_NV_Read(EndorsementKey)</text><polygon fill="#181818" points="306.3828,358.6094,316.3828,362.6094,306.3828,366.6094,310.3828,362.6094" style="stroke:#181818;stroke-width:1;"/><line style="stroke:#181818;stroke-width:1;stroke-dasharray:2,2;" x1="53" x2="312.3828" y1="362.6094" y2="362.6094"/><text fill="#000000" font-family="Helvetica" font-size="10" x="60" y="358.251">(09)</text><text fill="#000000" font-family="Helvetica" font-size="10" x="84.5273" y="358.251">C.EK.Enc</text><polygon fill="#181818" points="561.6777,384.25,571.6777,388.25,561.6777,392.25,565.6777,388.25" style="stroke:#181818;stroke-width:1;"/><line style="stroke:#181818;stroke-width:1;stroke-dasharray:2,2;" x1="328.3828" x2="567.6777" y1="388.25" y2="388.25"/><text fill="#000000" font-family="Helvetica" font-size="10" x="335.3828" y="383.8916">(10)</text><text fill="#000000" font-family="Helvetica" font-size="10" x="359.9102" y="383.8916">PuK.EK.Enc, C.EK.Enc</text><polygon fill="#181818" points="64,439.5313,54,443.5313,64,447.5313,60,443.5313" style="stroke:#181818;stroke-width:1;"/><line style="stroke:#181818;stroke-width:1;" x1="58" x2="317.3828" y1="443.5313" y2="443.5313"/><text fill="#000000" font-family="Helvetica" font-size="10" x="70" y="439.1729">(11)</text><text fill="#000000" font-family="Helvetica" font-size="10" x="94.5273" y="439.1729">SE_Sign(Handle_PrK.AK.Sig, dataToSign)</text><polygon fill="#181818" points="306.3828,465.1719,316.3828,469.1719,306.3828,473.1719,310.3828,469.1719" style="stroke:#181818;stroke-width:1;"/><line style="stroke:#181818;stroke-width:1;stroke-dasharray:2,2;" x1="53" x2="312.3828" y1="469.1719" y2="469.1719"/><text fill="#000000" font-family="Helvetica" font-size="10" x="60" y="464.8135">(12)</text><text fill="#000000" font-family="Helvetica" font-size="10" x="84.5273" y="464.8135">signed_Hash_PuK.Client.Sig</text><polygon fill="#181818" points="662.7813,490.8125,672.7813,494.8125,662.7813,498.8125,666.7813,494.8125" style="stroke:#181818;stroke-width:1;"/><line style="stroke:#181818;stroke-width:1;" x1="328.3828" x2="668.7813" y1="494.8125" y2="494.8125"/><text fill="#000000" font-family="Helvetica" font-size="10" x="335.3828" y="490.4541">(13)</text><text fill="#000000" font-family="Helvetica" font-size="10" x="359.9102" y="490.4541">DCAppAttest.attest(Handle_PrK.AK.Sig, Hash_PuK.Client.Sig)</text><polygon fill="#181818" points="339.3828,528.0938,329.3828,532.0938,339.3828,536.0938,335.3828,532.0938" style="stroke:#181818;stroke-width:1;"/><line style="stroke:#181818;stroke-width:1;stroke-dasharray:2,2;" x1="333.3828" x2="673.7813" y1="532.0938" y2="532.0938"/><text fill="#000000" font-family="Helvetica" font-size="10" x="345.3828" y="521.915">(14)</text><text fill="#000000" font-family="Helvetica" font-size="10" x="369.9102" y="516.0947">Apple_Attestation_Object</text><text fill="#000000" font-family="Helvetica" font-size="10" x="369.9102" y="527.7354">(inkl. x5c-Zertifikatskette)</text><polygon fill="#181818" points="561.6777,565.375,571.6777,569.375,561.6777,573.375,565.6777,569.375" style="stroke:#181818;stroke-width:1;"/><line style="stroke:#181818;stroke-width:1;stroke-dasharray:2,2;" x1="328.3828" x2="567.6777" y1="569.375" y2="569.375"/><text fill="#000000" font-family="Helvetica" font-size="10" x="335.3828" y="559.1963">(15)</text><text fill="#000000" font-family="Helvetica" font-size="10" x="359.9102" y="553.376">PuK.AK.Sig, signed_Hash_PuK.Client.Sig,</text><text fill="#000000" font-family="Helvetica" font-size="10" x="359.9102" y="565.0166">Apple_Attestation_Object</text><path d="M278.2783,626.0156 L278.2783,659.0156 L573.2783,659.0156 L573.2783,636.0156 L563.2783,626.0156 L278.2783,626.0156" fill="#FEFFDD" style="stroke:#181818;stroke-width:0.5;"/><path d="M563.2783,626.0156 L563.2783,636.0156 L573.2783,636.0156 L563.2783,626.0156" fill="#FEFFDD" style="stroke:#181818;stroke-width:0.5;"/><text fill="#000000" font-family="Helvetica" font-size="10" x="284.2783" y="640.2979">Keine Hardware-Bindung.</text><text fill="#000000" font-family="Helvetica" font-size="10" x="284.2783" y="651.9385">Identit&#228;t besteht nur aus PrK.Client.Sig, PuK.Client.Sig.</text><?plantuml-src fLN_RXev4Fv_dsBA_L6Y1CgbITgBSaZ0Bar428ZbMbqK2PdT0TmOcxEzQP9JtwPlqXVhU9U5XO0KtKc9xFLyyyqtFsnOOfLCvcFKK2hNQWSbpznpkM2QpI762Kk4RIjfG_wCy7jjj_66pH4kKJoWvH4hOFmCqrLIcGMBC5wXMohH77K1Ar1ExQmHVqsC1Qaa5cm6_qbGHZZ02MgtQRBeVgfL8kEM4ah3bnctHOTmss6Tm_4EtYuQmwRO47mgISZ4UZCU8nXBpie-BT3pta9JFKBaeXdl3INF9S9jC6oCFltL6FYZLk-wDu3Vskts--1q1RWEhdBBfvaoDjEvQUtsUpV1pJ371IV1IVjaXUaFhhgDO13-7Gw3RewvPWyeOohV6jNxVEK7WnM9t_Q3bbFTPvgQmXTCsbpzXR5F0kjUdhtFsTHLuryFO560ks-0wZDQjjm3R1UU4WxEMgsbzPgqBC_z3tyqQxNq_7l6iz3gWQggztFvfy57_-GbryVZvlkpinMN-nTyWi9bdf7jdeTDcgOWKEh-tRjujwo1zzPoAn0w-0HzZMuiB5VIyzuiD9lE6LXKps1rGYCmfW4eKSzAwxPkLQmqx7VX7OH12PW1zx6ZnUIJClKrd__yeSqJZTcyjAlHQG95_jj6w8XBj9RWui9rfbv_WMe9ZhIaG1hGvVU60qsF4-7bgxUHHMEn47WdGzGFF4AJ9fEUUHuJ5YwPZhynZT2m5erD2mRbFFM3L4yMy_0m_I2vozrIMgNkpiuXPfODLUXktPz4QsQZVjAfPg0g7QS-BkGNBcFrpL00wcVoc4OxM0vAokyewUpmyDmjnoF7MRvaCXOuwkjEjT5nV4U5Y6jtfxoIIp9amdYqJymg7E4pqpauMCx_2lUj6WpSBQGdpw43-fFH4RIMknqPBlCR88lxoLZmg1nGQRJ1EP7I5Ez9Qys-d_FcSqhx6i9AvNoFoAswxCm8XK6OiwWNGZd4AA5H8fEWHsrVJyFWltRKANrjJ-lPbBk0VekssNnNMRhiYhs3SIqYvIhAI0z6XKipwes_OcJlP9dBUr65nzEeSejq4IVydbbpZmGz-9zZTtGdzyNDUY5ZB-r7g2RsvQrkCo76z6vcCgIocFu-WfgiT7JGlSFver1fqbLDvBHw9wzYidFxyuU5CJ7YZ7xN4mqiCU2AMD08cvghxbtoVW40?></g></svg>