<?plantuml 1.2026.2?><svg xmlns="http://www.w3.org/2000/svg" xmlns:xlink="http://www.w3.org/1999/xlink" contentStyleType="text/css" data-diagram-type="SEQUENCE" height="728px" preserveAspectRatio="none" style="width:818px;height:728px;background:#FFFFFF;" version="1.1" viewBox="0 0 818 728" width="818px" zoomAndPan="magnify"><defs/><g><rect fill="#F8F8FF" height="716.2188" style="stroke:#181818;stroke-width:0.5;" width="584.4355" x="15.4204" y="6"/><text fill="#000000" font-family="Helvetica" font-size="10" font-weight="bold" x="299.1763" y="15.2822">LEI</text><rect fill="#E6E6FA" height="699.5781" style="stroke:#181818;stroke-width:0.5;" width="328.2788" x="271.5771" y="22.6406"/><text fill="#000000" font-family="Helvetica" font-size="10" font-weight="bold" x="396.6199" y="31.9229">Prim&#228;rsystem</text><rect fill="#EDFDEC" height="716.2188" style="stroke:#181818;stroke-width:0.5;" width="147.7842" x="664.8022" y="6"/><text fill="#000000" font-family="Helvetica" font-size="10" font-weight="bold" x="676.8022" y="15.2822">Anbieter TI 2.0 Dienst</text><rect fill="#FFF3E5" height="699.5781" style="stroke:#181818;stroke-width:0.5;" width="147.7842" x="664.8022" y="22.6406"/><text fill="#000000" font-family="Helvetica" font-size="10" font-weight="bold" x="705.5498" y="31.9229">ZETA Guard</text><g><title>TPM . SE</title><rect fill="#000000" fill-opacity="0.00000" height="601.375" width="8" x="44.5" y="76.5625"/><line style="stroke:#000000;stroke-width:0.5;stroke-dasharray:5,5;" x1="48" x2="48" y1="76.5625" y2="677.9375"/></g><g><title/><rect fill="#FFFFFF" height="25.6406" style="stroke:#181818;stroke-width:1;" width="10" x="43" y="246.0469"/></g><g><title/><rect fill="#FFFFFF" height="25.6406" style="stroke:#181818;stroke-width:1;" width="10" x="43" y="297.3281"/></g><g><title/><rect fill="#FFFFFF" height="37.2813" style="stroke:#181818;stroke-width:1;" width="10" x="43" y="489.0938"/></g><g><title>ZAS</title><rect fill="#000000" fill-opacity="0.00000" height="601.375" width="8" x="289.0967" y="76.5625"/><line style="stroke:#000000;stroke-width:0.5;stroke-dasharray:5,5;" x1="292.5967" x2="292.5967" y1="76.5625" y2="677.9375"/></g><g><title/><rect fill="#FFFFFF" height="593.375" style="stroke:#181818;stroke-width:1;" width="10" x="287.5967" y="84.5625"/></g><g><title>ZETA Client</title><rect fill="#000000" fill-opacity="0.00000" height="601.375" width="8" x="556.2324" y="76.5625"/><line style="stroke:#000000;stroke-width:0.5;stroke-dasharray:5,5;" x1="559.7324" x2="559.7324" y1="76.5625" y2="677.9375"/></g><g><title/><rect fill="#FFFFFF" height="593.375" style="stroke:#181818;stroke-width:1;" width="10" x="554.7324" y="84.5625"/></g><g><title>PDP</title><rect fill="#000000" fill-opacity="0.00000" height="601.375" width="8" x="735.1943" y="76.5625"/><line style="stroke:#000000;stroke-width:0.5;stroke-dasharray:5,5;" x1="738.6943" x2="738.6943" y1="76.5625" y2="677.9375"/></g><g><title/><rect fill="#FFFFFF" height="25.6406" style="stroke:#181818;stroke-width:1;" width="10" x="733.6943" y="102.2031"/></g><rect fill="#E4E4F4" height="25.6406" rx="2.5" ry="2.5" style="stroke:#181818;stroke-width:0.5;" width="57.1592" x="19.4204" y="49.9219"/><text fill="#000000" font-family="Helvetica" font-size="10" x="26.4204" y="66.2041">TPM / SE</text><rect fill="#FFE6CC" height="25.6406" rx="2.5" ry="2.5" style="stroke:#D79B00;stroke-width:0.5;" width="34.0391" x="275.5771" y="49.9219"/><text fill="#000000" font-family="Helvetica" font-size="10" x="282.5771" y="66.2041">ZAS</text><rect fill="#FFE6CC" height="25.6406" rx="2.5" ry="2.5" style="stroke:#D79B00;stroke-width:0.5;" width="72.2471" x="523.6089" y="49.9219"/><text fill="#000000" font-family="Helvetica" font-size="10" x="530.6089" y="66.2041">ZETA Client</text><rect fill="#FFE6CC" height="37.2813" rx="2.5" ry="2.5" style="stroke:#D79B00;stroke-width:0.5;" width="116.9492" x="680.2197" y="38.2813"/><text fill="#000000" font-family="Helvetica" font-size="10" x="728.814" y="54.5635">PDP</text><text fill="#000000" font-family="Helvetica" font-size="10" x="687.2197" y="66.2041">Authorization Server</text><rect fill="#E4E4F4" height="25.6406" rx="2.5" ry="2.5" style="stroke:#181818;stroke-width:0.5;" width="57.1592" x="19.4204" y="677.9375"/><text fill="#000000" font-family="Helvetica" font-size="10" x="26.4204" y="694.2197">TPM / SE</text><rect fill="#FFE6CC" height="25.6406" rx="2.5" ry="2.5" style="stroke:#D79B00;stroke-width:0.5;" width="34.0391" x="275.5771" y="677.9375"/><text fill="#000000" font-family="Helvetica" font-size="10" x="282.5771" y="694.2197">ZAS</text><rect fill="#FFE6CC" height="25.6406" rx="2.5" ry="2.5" style="stroke:#D79B00;stroke-width:0.5;" width="72.2471" x="523.6089" y="677.9375"/><text fill="#000000" font-family="Helvetica" font-size="10" x="530.6089" y="694.2197">ZETA Client</text><rect fill="#FFE6CC" height="37.2813" rx="2.5" ry="2.5" style="stroke:#D79B00;stroke-width:0.5;" width="116.9492" x="680.2197" y="677.9375"/><text fill="#000000" font-family="Helvetica" font-size="10" x="728.814" y="694.2197">PDP</text><text fill="#000000" font-family="Helvetica" font-size="10" x="687.2197" y="705.8604">Authorization Server</text><polygon fill="#181818" points="721.6943,98.2031,731.6943,102.2031,721.6943,106.2031,725.6943,102.2031" style="stroke:#181818;stroke-width:1;"/><line style="stroke:#181818;stroke-width:1;" x1="564.7324" x2="727.6943" y1="102.2031" y2="102.2031"/><text fill="#000000" font-family="Helvetica" font-size="10" x="571.7324" y="97.8447">(01)</text><text fill="#000000" font-family="Helvetica" font-size="10" x="596.2598" y="97.8447">GET /nonce</text><polygon fill="#181818" points="575.7324,123.8438,565.7324,127.8438,575.7324,131.8438,571.7324,127.8438" style="stroke:#181818;stroke-width:1;"/><line style="stroke:#181818;stroke-width:1;stroke-dasharray:2,2;" x1="569.7324" x2="732.6943" y1="127.8438" y2="127.8438"/><text fill="#000000" font-family="Helvetica" font-size="10" x="581.7324" y="123.4854">(02)</text><text fill="#000000" font-family="Helvetica" font-size="10" x="606.2598" y="123.4854">Nonce</text><path d="M8,139.8438 L67.9561,139.8438 L67.9561,143.4844 L57.9561,153.4844 L8,153.4844 L8,139.8438" fill="#EEEEEE" style="stroke:#000000;stroke-width:1.5;"/><rect fill="none" height="514.0938" style="stroke:#000000;stroke-width:1.5;" width="746.6943" x="8" y="139.8438"/><text fill="#000000" font-family="Helvetica" font-size="10" font-weight="bold" x="23" y="150.126">alt</text><text fill="#000000" font-family="Helvetica" font-size="10" font-weight="bold" x="82.9561" y="151.126">[Hardware Attestation (TPM / SE)]</text><line style="stroke:#000000;stroke-width:1;stroke-dasharray:2,2;" x1="8" x2="754.6943" y1="585.0156" y2="585.0156"/><text fill="#000000" font-family="Helvetica" font-size="10" font-weight="bold" x="13" y="596.2979">[Software Attestation (Fallback)]</text><polygon fill="#181818" points="308.5967,177.125,298.5967,181.125,308.5967,185.125,304.5967,181.125" style="stroke:#181818;stroke-width:1;"/><line style="stroke:#181818;stroke-width:1;" x1="302.5967" x2="553.7324" y1="181.125" y2="181.125"/><text fill="#000000" font-family="Helvetica" font-size="10" x="314.5967" y="176.7666">(03)</text><text fill="#000000" font-family="Helvetica" font-size="10" x="339.124" y="176.7666">GetEvidence(Nonce)</text><path d="M27,193.125 L86.9561,193.125 L86.9561,196.7656 L76.9561,206.7656 L27,206.7656 L27,193.125" fill="#EEEEEE" style="stroke:#000000;stroke-width:1.5;"/><rect fill="none" height="366.8906" style="stroke:#000000;stroke-width:1.5;" width="548.7324" x="27" y="193.125"/><text fill="#000000" font-family="Helvetica" font-size="10" font-weight="bold" x="42" y="203.4072">alt</text><text fill="#000000" font-family="Helvetica" font-size="10" font-weight="bold" x="101.9561" y="204.4072">[Windows / Linux (TPM)]</text><line style="stroke:#000000;stroke-width:1;stroke-dasharray:2,2;" x1="27" x2="575.7324" y1="367.6094" y2="367.6094"/><text fill="#000000" font-family="Helvetica" font-size="10" font-weight="bold" x="32" y="378.8916">[macOS (Secure Enclave)]</text><polygon fill="#181818" points="64,242.0469,54,246.0469,64,250.0469,60,246.0469" style="stroke:#181818;stroke-width:1;"/><line style="stroke:#181818;stroke-width:1;" x1="58" x2="286.5967" y1="246.0469" y2="246.0469"/><text fill="#000000" font-family="Helvetica" font-size="10" x="70" y="235.8682">(04)</text><text fill="#000000" font-family="Helvetica" font-size="10" x="94.5273" y="230.0479">TPM2_Quote(PCR=[7,23],</text><text fill="#000000" font-family="Helvetica" font-size="10" x="94.5273" y="241.6885">Nonce, Handle_PrK.AK.Sig)</text><polygon fill="#181818" points="275.5967,267.6875,285.5967,271.6875,275.5967,275.6875,279.5967,271.6875" style="stroke:#181818;stroke-width:1;"/><line style="stroke:#181818;stroke-width:1;stroke-dasharray:2,2;" x1="53" x2="281.5967" y1="271.6875" y2="271.6875"/><text fill="#000000" font-family="Helvetica" font-size="10" x="60" y="267.3291">(05)</text><text fill="#000000" font-family="Helvetica" font-size="10" x="84.5273" y="267.3291">tpm_quote (signiert mit PrK.AK.Sig)</text><polygon fill="#181818" points="64,293.3281,54,297.3281,64,301.3281,60,297.3281" style="stroke:#181818;stroke-width:1;"/><line style="stroke:#181818;stroke-width:1;" x1="58" x2="286.5967" y1="297.3281" y2="297.3281"/><text fill="#000000" font-family="Helvetica" font-size="10" x="70" y="292.9697">(06)</text><text fill="#000000" font-family="Helvetica" font-size="10" x="94.5273" y="292.9697">TPM2_GetEventLog()</text><polygon fill="#181818" points="275.5967,318.9688,285.5967,322.9688,275.5967,326.9688,279.5967,322.9688" style="stroke:#181818;stroke-width:1;"/><line style="stroke:#181818;stroke-width:1;stroke-dasharray:2,2;" x1="53" x2="281.5967" y1="322.9688" y2="322.9688"/><text fill="#000000" font-family="Helvetica" font-size="10" x="60" y="318.6104">(07)</text><text fill="#000000" font-family="Helvetica" font-size="10" x="84.5273" y="318.6104">tpm_event_log</text><polygon fill="#181818" points="542.7324,344.6094,552.7324,348.6094,542.7324,352.6094,546.7324,348.6094" style="stroke:#181818;stroke-width:1;"/><line style="stroke:#181818;stroke-width:1;stroke-dasharray:2,2;" x1="297.5967" x2="548.7324" y1="348.6094" y2="348.6094"/><text fill="#000000" font-family="Helvetica" font-size="10" x="304.5967" y="344.251">(08)</text><text fill="#000000" font-family="Helvetica" font-size="10" x="329.124" y="344.251">Evidence {tpm_quote, tpm_event_log}</text><line style="stroke:#181818;stroke-width:1;" x1="297.5967" x2="339.5967" y1="415.5313" y2="415.5313"/><line style="stroke:#181818;stroke-width:1;" x1="339.5967" x2="339.5967" y1="415.5313" y2="428.5313"/><line style="stroke:#181818;stroke-width:1;" x1="298.5967" x2="339.5967" y1="428.5313" y2="428.5313"/><polygon fill="#181818" points="308.5967,424.5313,298.5967,428.5313,308.5967,432.5313,304.5967,428.5313" style="stroke:#181818;stroke-width:1;"/><text fill="#000000" font-family="Helvetica" font-size="10" x="304.5967" y="405.3525">(09)</text><text fill="#000000" font-family="Helvetica" font-size="10" x="329.124" y="399.5322">Ermittle Posture</text><text fill="#000000" font-family="Helvetica" font-size="10" x="329.124" y="411.1729">(SIP, Gatekeeper, OS-Version, Secure Boot)</text><polygon fill="#181818" points="64,485.0938,54,489.0938,64,493.0938,60,489.0938" style="stroke:#181818;stroke-width:1;"/><line style="stroke:#181818;stroke-width:1;" x1="58" x2="286.5967" y1="489.0938" y2="489.0938"/><text fill="#000000" font-family="Helvetica" font-size="10" x="70" y="467.2744">(10)</text><text fill="#000000" font-family="Helvetica" font-size="10" x="94.5273" y="449.8135">DCAppAttest.generateAssertion(</text><text fill="#000000" font-family="Helvetica" font-size="10" x="100.8848" y="461.4541">Handle_PrK.AK.Sig,</text><text fill="#000000" font-family="Helvetica" font-size="10" x="100.8848" y="473.0947">Hash(Nonce + Posture)</text><text fill="#000000" font-family="Helvetica" font-size="10" x="94.5273" y="484.7354">)</text><polygon fill="#181818" points="275.5967,522.375,285.5967,526.375,275.5967,530.375,279.5967,526.375" style="stroke:#181818;stroke-width:1;"/><line style="stroke:#181818;stroke-width:1;stroke-dasharray:2,2;" x1="53" x2="281.5967" y1="526.375" y2="526.375"/><text fill="#000000" font-family="Helvetica" font-size="10" x="60" y="516.1963">(11)</text><text fill="#000000" font-family="Helvetica" font-size="10" x="84.5273" y="510.376">dc_assertion</text><text fill="#000000" font-family="Helvetica" font-size="10" x="84.5273" y="522.0166">(CBOR: Signatur + Receipt + counter)</text><polygon fill="#181818" points="542.7324,548.0156,552.7324,552.0156,542.7324,556.0156,546.7324,552.0156" style="stroke:#181818;stroke-width:1;"/><line style="stroke:#181818;stroke-width:1;stroke-dasharray:2,2;" x1="297.5967" x2="548.7324" y1="552.0156" y2="552.0156"/><text fill="#000000" font-family="Helvetica" font-size="10" x="304.5967" y="547.6572">(12)</text><text fill="#000000" font-family="Helvetica" font-size="10" x="329.124" y="547.6572">Evidence {dc_assertion, posture, counter}</text><line style="stroke:#181818;stroke-width:1;" x1="564.7324" x2="606.7324" y1="632.9375" y2="632.9375"/><line style="stroke:#181818;stroke-width:1;" x1="606.7324" x2="606.7324" y1="632.9375" y2="645.9375"/><line style="stroke:#181818;stroke-width:1;" x1="565.7324" x2="606.7324" y1="645.9375" y2="645.9375"/><polygon fill="#181818" points="575.7324,641.9375,565.7324,645.9375,575.7324,649.9375,571.7324,645.9375" style="stroke:#181818;stroke-width:1;"/><text fill="#000000" font-family="Helvetica" font-size="10" x="571.7324" y="622.7588">(13)</text><text fill="#000000" font-family="Helvetica" font-size="10" x="596.2598" y="616.9385">Generiere client-statement</text><text fill="#000000" font-family="Helvetica" font-size="10" x="596.2598" y="628.5791">(OS und PS Daten)</text><?plantuml-src ZLJRSjis47tdLspOXyeZoLPbnqazhcSeaN8yiInML9Dfweu69jSIOWfW0D29dSdVz4_wOrtmedlQFaW0WRC7v-mkm78ZHRwuGmLkezCvS1tzm4N655j0WlSiJyr02XFnPuIVElitRzW2uGscZsXupDOmVeaPIY5rnc9CbkY-p1L7jOPDKSpCt4i-vjg0a0BNzZH-ob74ECPxL7RIO_73JCbS97sPIWNlvzoi1qJR0IiFtJsyGzIQpT1B-KoGa7lZp7c2e0q5I_EKeUFy23tv1M9xcdPUa7ak43u44szw-PitzgVzqVLe33yC1eFZuEKIS1rSrJkNSwbDgNDpTnYEReARIOqBJeAJmSaI4uwlXbumZdwF9i6mnbopHnG9fM-56hsxyeFnaiGV-47VgWwPegBmZ0bJgp_NvYd52wTsxtCsizduwW1aQt3x3N3uZ8PLSu3jn9FXuBJVhtQlIKkrxh_wkTVf5ElVIfvCoKVAgle-b_yoUEsVx7AzxlQEJq-NNFQNydjChVEIR7y_RDBqKW8LuT-SywCg1pP5XfiKONHd61VW6OFQCCEbWC3gfGGvpejCiTc2WK7v34Rbj7H7xU1I1TrLaRVovqx28Hn15BZ0DDYFFGMdc88fL7pnzrzAFr7JBTnzPI_ihFD_y29BxDBemlcvhTF5nGwgdtAaeG1IkrRV6m7KIrQ4Ku-bDq_SSQGR09Chw1vsmASuRTojNglr5zoNELE9ktCjTZHvkPcNsaC_l1NsKoh-N6OzGlM8wjy5EgMBPjCXy_HVcMnVLDJD9fp1PJ218tf9g83bQflsQsIR03V5diDI0sz8-6UcSAF-ZRg01uM3rI4syyIFfkwGHa5LmYpTUouI-LbJCFLV_gLWEgWQ6ufmOg6rGYUDtUclkJJO2FlZN_vurUeU_zcw5GLdYwI99CLfgDuUUcyF8pvR4LbzxKfFuSXaY-adomGDJMyPlR065jp0lk1zAWfBPF9QpXh_SGnQt3ILiqt2LOhFblS7lYvrjJPZowS1KusmOF4eWaQ4SKvb24ISqYEtevO6ubNaoTxPa9vKGj-AHdGLjk2I6Nn0p52rO1Irtw7ILCOML9mzASrtxVjzBylAuX_EKA0YBazhIY1HD6u5xDQXLQxgULbzQDPw3cx5tkGLkKlYAQjvINY_DngV0R49Hg74CSOOUMPe5jDxHlVluFyaU9sr1LcferLJL6aMYLEaEfBtPhVP1onDx-Y9t6xsScRRdR927OKG5ojj6uaBcf4DAXqzlX16uDCYsRU7_GC0?></g></svg>