<?plantuml 1.2026.2?><svg xmlns="http://www.w3.org/2000/svg" xmlns:xlink="http://www.w3.org/1999/xlink" contentStyleType="text/css" data-diagram-type="SEQUENCE" height="1165px" preserveAspectRatio="none" style="width:1465px;height:1165px;background:#FFFFFF;" version="1.1" viewBox="0 0 1465 1165" width="1465px" zoomAndPan="magnify"><defs/><g><rect fill="#EDFDEC" height="1153.8594" style="stroke:#181818;stroke-width:0.5;" width="512.9741" x="21.5078" y="6"/><text fill="#000000" font-family="Helvetica" font-size="10" font-weight="bold" x="210.4924" y="15.2822">TI 2.0 Dienst Anbieter A</text><rect fill="#FFF3E5" height="1137.2188" style="stroke:#181818;stroke-width:0.5;" width="328.8193" x="21.5078" y="22.6406"/><text fill="#000000" font-family="Helvetica" font-size="10" font-weight="bold" x="147.1626" y="31.9229">ZETA Guard A</text><rect fill="#EDFDEC" height="1153.8594" style="stroke:#181818;stroke-width:0.5;" width="641.8818" x="817.4727" y="6"/><text fill="#000000" font-family="Helvetica" font-size="10" font-weight="bold" x="1070.9697" y="15.2822">TI 2.0 Dienst Anbieter B</text><rect fill="#FFF3E5" height="1137.2188" style="stroke:#181818;stroke-width:0.5;" width="516.0713" x="817.4727" y="22.6406"/><text fill="#000000" font-family="Helvetica" font-size="10" font-weight="bold" x="1036.812" y="31.9229">ZETA Guard B</text><g><title>cronjob Pod</title><rect fill="#000000" fill-opacity="0.00000" height="1039.0156" width="8" x="58.5" y="76.5625"/><line style="stroke:#000000;stroke-width:0.5;stroke-dasharray:5,5;" x1="62" x2="62" y1="76.5625" y2="1115.5781"/></g><g><title/><rect fill="#FFFFFF" height="581.4531" style="stroke:#181818;stroke-width:1;" width="10" x="57" y="198.0781"/></g><g><title>PDP</title><rect fill="#000000" fill-opacity="0.00000" height="1039.0156" width="8" x="238.4336" y="76.5625"/><line style="stroke:#000000;stroke-width:0.5;stroke-dasharray:5,5;" x1="241.9336" x2="241.9336" y1="76.5625" y2="1115.5781"/></g><g><title/><rect fill="#FFFFFF" height="25.6406" style="stroke:#181818;stroke-width:1;" width="10" x="236.9336" y="215.7188"/></g><g><title/><rect fill="#FFFFFF" height="25.6406" style="stroke:#181818;stroke-width:1;" width="10" x="236.9336" y="304.2813"/></g><g><title/><rect fill="#FFFFFF" height="25.6406" style="stroke:#181818;stroke-width:1;" width="10" x="236.9336" y="355.5625"/></g><g><title>etcd</title><rect fill="#000000" fill-opacity="0.00000" height="1039.0156" width="8" x="324.8677" y="76.5625"/><line style="stroke:#000000;stroke-width:0.5;stroke-dasharray:5,5;" x1="328.3677" x2="328.3677" y1="76.5625" y2="1115.5781"/></g><g><title/><rect fill="#FFFFFF" height="917.5" style="stroke:#181818;stroke-width:1;" width="10" x="323.3677" y="198.0781"/></g><g><title>Resource Server</title><rect fill="#000000" fill-opacity="0.00000" height="1039.0156" width="8" x="478.7319" y="76.5625"/><line style="stroke:#000000;stroke-width:0.5;stroke-dasharray:5,5;" x1="482.2319" x2="482.2319" y1="76.5625" y2="1115.5781"/></g><g><title/><rect fill="#FFFFFF" height="299.4063" style="stroke:#181818;stroke-width:1;" width="10" x="477.2319" y="816.1719"/></g><g><title>gematik</title><rect fill="#000000" fill-opacity="0.00000" height="1039.0156" width="8" x="780.543" y="76.5625"/><line style="stroke:#000000;stroke-width:0.5;stroke-dasharray:5,5;" x1="784.043" x2="784.043" y1="76.5625" y2="1115.5781"/></g><g><title>PDP</title><rect fill="#000000" fill-opacity="0.00000" height="1039.0156" width="8" x="876.4473" y="76.5625"/><line style="stroke:#000000;stroke-width:0.5;stroke-dasharray:5,5;" x1="879.9473" x2="879.9473" y1="76.5625" y2="1115.5781"/></g><g><title/><rect fill="#FFFFFF" height="404.6094" style="stroke:#181818;stroke-width:1;" width="10" x="874.9473" y="278.6406"/></g><g><title>PEP</title><rect fill="#000000" fill-opacity="0.00000" height="1039.0156" width="8" x="1128.6904" y="76.5625"/><line style="stroke:#000000;stroke-width:0.5;stroke-dasharray:5,5;" x1="1132.1904" x2="1132.1904" y1="76.5625" y2="1115.5781"/></g><g><title/><rect fill="#FFFFFF" height="198.4844" style="stroke:#181818;stroke-width:1;" width="10" x="1127.1904" y="871.0938"/></g><g><title>PDP</title><rect fill="#000000" fill-opacity="0.00000" height="1039.0156" width="8" x="1285.7578" y="76.5625"/><line style="stroke:#000000;stroke-width:0.5;stroke-dasharray:5,5;" x1="1289.2578" x2="1289.2578" y1="76.5625" y2="1115.5781"/></g><g><title/><rect fill="#FFFFFF" height="25.6406" style="stroke:#181818;stroke-width:1;" width="10" x="1284.2578" y="511.7656"/></g><g><title>Resource Server</title><rect fill="#000000" fill-opacity="0.00000" height="1039.0156" width="8" x="1403.6045" y="76.5625"/><line style="stroke:#000000;stroke-width:0.5;stroke-dasharray:5,5;" x1="1407.1045" x2="1407.1045" y1="76.5625" y2="1115.5781"/></g><g><title/><rect fill="#FFFFFF" height="25.6406" style="stroke:#181818;stroke-width:1;" width="10" x="1402.1045" y="963.0156"/></g><rect fill="#FFE6CC" height="25.6406" rx="2.5" ry="2.5" style="stroke:#D79B00;stroke-width:0.5;" width="72.9844" x="25.5078" y="49.9219"/><text fill="#000000" font-family="Helvetica" font-size="10" x="32.5078" y="66.2041">cronjob Pod</text><rect fill="#FFE6CC" height="37.2813" rx="2.5" ry="2.5" style="stroke:#D79B00;stroke-width:0.5;" width="116.9492" x="183.459" y="38.2813"/><text fill="#000000" font-family="Helvetica" font-size="10" x="232.0532" y="54.5635">PDP</text><text fill="#000000" font-family="Helvetica" font-size="10" x="190.459" y="66.2041">Authorization Server</text><rect fill="#FFE6CC" height="25.6406" rx="2.5" ry="2.5" style="stroke:#D79B00;stroke-width:0.5;" width="35.9189" x="310.4082" y="49.9219"/><text fill="#000000" font-family="Helvetica" font-size="10" x="317.4082" y="66.2041">etcd</text><rect fill="#D5E8D4" height="25.6406" rx="2.5" ry="2.5" style="stroke:#82B366;stroke-width:0.5;" width="96.5" x="433.9819" y="49.9219"/><text fill="#000000" font-family="Helvetica" font-size="10" x="440.9819" y="66.2041">Resource Server</text><rect fill="#E2E2F0" height="25.6406" rx="2.5" ry="2.5" style="stroke:#181818;stroke-width:0.5;" width="54.8594" x="756.6133" y="49.9219"/><text fill="#000000" font-family="Helvetica" font-size="10" x="763.6133" y="66.2041">gematik</text><rect fill="#FFE6CC" height="37.2813" rx="2.5" ry="2.5" style="stroke:#D79B00;stroke-width:0.5;" width="116.9492" x="821.4727" y="38.2813"/><text fill="#000000" font-family="Helvetica" font-size="10" x="870.0669" y="54.5635">PDP</text><text fill="#000000" font-family="Helvetica" font-size="10" x="828.4727" y="66.2041">Authorization Server</text><rect fill="#FFE6CC" height="37.2813" rx="2.5" ry="2.5" style="stroke:#D79B00;stroke-width:0.5;" width="71.041" x="1096.6699" y="38.2813"/><text fill="#000000" font-family="Helvetica" font-size="10" x="1123.001" y="54.5635">PEP</text><text fill="#000000" font-family="Helvetica" font-size="10" x="1103.6699" y="66.2041">HTTP Proxy</text><rect fill="#FFE6CC" height="37.2813" rx="2.5" ry="2.5" style="stroke:#D79B00;stroke-width:0.5;" width="80.5723" x="1248.9717" y="38.2813"/><text fill="#000000" font-family="Helvetica" font-size="10" x="1279.3774" y="54.5635">PDP</text><text fill="#000000" font-family="Helvetica" font-size="10" x="1255.9717" y="66.2041">Policy Engine</text><rect fill="#D5E8D4" height="25.6406" rx="2.5" ry="2.5" style="stroke:#82B366;stroke-width:0.5;" width="96.5" x="1358.8545" y="49.9219"/><text fill="#000000" font-family="Helvetica" font-size="10" x="1365.8545" y="66.2041">Resource Server</text><rect fill="#FFE6CC" height="25.6406" rx="2.5" ry="2.5" style="stroke:#D79B00;stroke-width:0.5;" width="72.9844" x="25.5078" y="1115.5781"/><text fill="#000000" font-family="Helvetica" font-size="10" x="32.5078" y="1131.8604">cronjob Pod</text><rect fill="#FFE6CC" height="37.2813" rx="2.5" ry="2.5" style="stroke:#D79B00;stroke-width:0.5;" width="116.9492" x="183.459" y="1115.5781"/><text fill="#000000" font-family="Helvetica" font-size="10" x="232.0532" y="1131.8604">PDP</text><text fill="#000000" font-family="Helvetica" font-size="10" x="190.459" y="1143.501">Authorization Server</text><rect fill="#FFE6CC" height="25.6406" rx="2.5" ry="2.5" style="stroke:#D79B00;stroke-width:0.5;" width="35.9189" x="310.4082" y="1115.5781"/><text fill="#000000" font-family="Helvetica" font-size="10" x="317.4082" y="1131.8604">etcd</text><rect fill="#D5E8D4" height="25.6406" rx="2.5" ry="2.5" style="stroke:#82B366;stroke-width:0.5;" width="96.5" x="433.9819" y="1115.5781"/><text fill="#000000" font-family="Helvetica" font-size="10" x="440.9819" y="1131.8604">Resource Server</text><rect fill="#E2E2F0" height="25.6406" rx="2.5" ry="2.5" style="stroke:#181818;stroke-width:0.5;" width="54.8594" x="756.6133" y="1115.5781"/><text fill="#000000" font-family="Helvetica" font-size="10" x="763.6133" y="1131.8604">gematik</text><rect fill="#FFE6CC" height="37.2813" rx="2.5" ry="2.5" style="stroke:#D79B00;stroke-width:0.5;" width="116.9492" x="821.4727" y="1115.5781"/><text fill="#000000" font-family="Helvetica" font-size="10" x="870.0669" y="1131.8604">PDP</text><text fill="#000000" font-family="Helvetica" font-size="10" x="828.4727" y="1143.501">Authorization Server</text><rect fill="#FFE6CC" height="37.2813" rx="2.5" ry="2.5" style="stroke:#D79B00;stroke-width:0.5;" width="71.041" x="1096.6699" y="1115.5781"/><text fill="#000000" font-family="Helvetica" font-size="10" x="1123.001" y="1131.8604">PEP</text><text fill="#000000" font-family="Helvetica" font-size="10" x="1103.6699" y="1143.501">HTTP Proxy</text><rect fill="#FFE6CC" height="37.2813" rx="2.5" ry="2.5" style="stroke:#D79B00;stroke-width:0.5;" width="80.5723" x="1248.9717" y="1115.5781"/><text fill="#000000" font-family="Helvetica" font-size="10" x="1279.3774" y="1131.8604">PDP</text><text fill="#000000" font-family="Helvetica" font-size="10" x="1255.9717" y="1143.501">Policy Engine</text><rect fill="#D5E8D4" height="25.6406" rx="2.5" ry="2.5" style="stroke:#82B366;stroke-width:0.5;" width="96.5" x="1358.8545" y="1115.5781"/><text fill="#000000" font-family="Helvetica" font-size="10" x="1365.8545" y="1131.8604">Resource Server</text><rect fill="#FFFFFF" height="37.9375" style="stroke:#000000;stroke-width:1.5;" width="624.0137" x="185.459" y="84.5625"/><path d="M185.459,84.5625 L249.459,84.5625 L249.459,89.5625 L239.459,99.5625 L185.459,99.5625 L185.459,84.5625" fill="#EEEEEE" style="stroke:#000000;stroke-width:2;"/><text fill="#000000" font-family="Helvetica" font-size="12" font-weight="bold" x="198.459" y="97.7012">ref</text><text fill="#000000" font-family="Helvetica" font-size="12" font-weight="bold" x="189.459" y="114.7012">Registrierung der Issuer URI oder des Signing Keys des Anbieters (Workload Identity Pool)</text><rect fill="#FFFFFF" height="37.9375" style="stroke:#000000;stroke-width:1.5;" width="568.9307" x="758.6133" y="127.5"/><path d="M758.6133,127.5 L822.6133,127.5 L822.6133,132.5 L812.6133,142.5 L758.6133,142.5 L758.6133,127.5" fill="#EEEEEE" style="stroke:#000000;stroke-width:2;"/><text fill="#000000" font-family="Helvetica" font-size="12" font-weight="bold" x="771.6133" y="140.6387">ref</text><text fill="#000000" font-family="Helvetica" font-size="12" font-weight="bold" x="813.5112" y="157.6387">Verteilung der Zugriffsberechtigten Workloads an die Policy Engine</text><path d="M8,174.4375 L71.8379,174.4375 L71.8379,178.0781 L61.8379,188.0781 L8,188.0781 L8,174.4375" fill="#EEEEEE" style="stroke:#000000;stroke-width:1.5;"/><rect fill="none" height="600.0938" style="stroke:#000000;stroke-width:1.5;" width="1327.2578" x="8" y="174.4375"/><text fill="#000000" font-family="Helvetica" font-size="10" font-weight="bold" x="23" y="184.7197">par</text><text fill="#000000" font-family="Helvetica" font-size="10" font-weight="bold" x="86.8379" y="185.7197">[Regelm&#228;&#223;iger Token Exchange (Subject Token gegen Access Token)]</text><polygon fill="#181818" points="224.9336,211.7188,234.9336,215.7188,224.9336,219.7188,228.9336,215.7188" style="stroke:#181818;stroke-width:1;"/><line style="stroke:#181818;stroke-width:1;" x1="67" x2="230.9336" y1="215.7188" y2="215.7188"/><text fill="#000000" font-family="Helvetica" font-size="10" x="74" y="211.3604">(01)</text><text fill="#000000" font-family="Helvetica" font-size="10" x="98.5273" y="211.3604">Fordert Subject Token an</text><polygon fill="#181818" points="78,237.3594,68,241.3594,78,245.3594,74,241.3594" style="stroke:#181818;stroke-width:1;"/><line style="stroke:#181818;stroke-width:1;stroke-dasharray:2,2;" x1="72" x2="235.9336" y1="241.3594" y2="241.3594"/><text fill="#000000" font-family="Helvetica" font-size="10" x="84" y="237.001">(02)</text><text fill="#000000" font-family="Helvetica" font-size="10" x="108.5273" y="237.001">Subject Token</text><polygon fill="#181818" points="862.9473,274.6406,872.9473,278.6406,862.9473,282.6406,866.9473,278.6406" style="stroke:#181818;stroke-width:1;"/><line style="stroke:#181818;stroke-width:1;" x1="67" x2="868.9473" y1="278.6406" y2="278.6406"/><text fill="#000000" font-family="Helvetica" font-size="10" x="74" y="268.4619">(03)</text><text fill="#000000" font-family="Helvetica" font-size="10" x="98.5273" y="262.6416">Fordert Access-Token an</text><text fill="#000000" font-family="Helvetica" font-size="10" x="98.5273" y="274.2822">(Token Exchange mit Subject Token)</text><polygon fill="#181818" points="257.9336,300.2813,247.9336,304.2813,257.9336,308.2813,253.9336,304.2813" style="stroke:#181818;stroke-width:1;"/><line style="stroke:#181818;stroke-width:1;" x1="251.9336" x2="873.9473" y1="304.2813" y2="304.2813"/><text fill="#000000" font-family="Helvetica" font-size="10" x="263.9336" y="299.9229">(04)</text><text fill="#000000" font-family="Helvetica" font-size="10" x="288.4609" y="299.9229">GET /.well-known/openid-configuration</text><polygon fill="#181818" points="862.9473,325.9219,872.9473,329.9219,862.9473,333.9219,866.9473,329.9219" style="stroke:#181818;stroke-width:1;"/><line style="stroke:#181818;stroke-width:1;stroke-dasharray:2,2;" x1="246.9336" x2="868.9473" y1="329.9219" y2="329.9219"/><text fill="#000000" font-family="Helvetica" font-size="10" x="253.9336" y="325.5635">(05)</text><text fill="#000000" font-family="Helvetica" font-size="10" x="278.4609" y="325.5635">OpenID Provider Metadaten</text><polygon fill="#181818" points="257.9336,351.5625,247.9336,355.5625,257.9336,359.5625,253.9336,355.5625" style="stroke:#181818;stroke-width:1;"/><line style="stroke:#181818;stroke-width:1;" x1="251.9336" x2="873.9473" y1="355.5625" y2="355.5625"/><text fill="#000000" font-family="Helvetica" font-size="10" x="263.9336" y="351.2041">(06)</text><text fill="#000000" font-family="Helvetica" font-size="10" x="288.4609" y="351.2041">GET /openid/v1/jwks</text><polygon fill="#181818" points="862.9473,377.2031,872.9473,381.2031,862.9473,385.2031,866.9473,381.2031" style="stroke:#181818;stroke-width:1;"/><line style="stroke:#181818;stroke-width:1;stroke-dasharray:2,2;" x1="246.9336" x2="868.9473" y1="381.2031" y2="381.2031"/><text fill="#000000" font-family="Helvetica" font-size="10" x="253.9336" y="376.8447">(07)</text><text fill="#000000" font-family="Helvetica" font-size="10" x="278.4609" y="376.8447">JWKS</text><line style="stroke:#181818;stroke-width:1;" x1="884.9473" x2="926.9473" y1="406.8438" y2="406.8438"/><line style="stroke:#181818;stroke-width:1;" x1="926.9473" x2="926.9473" y1="406.8438" y2="419.8438"/><line style="stroke:#181818;stroke-width:1;" x1="885.9473" x2="926.9473" y1="419.8438" y2="419.8438"/><polygon fill="#181818" points="895.9473,415.8438,885.9473,419.8438,895.9473,423.8438,891.9473,419.8438" style="stroke:#181818;stroke-width:1;"/><text fill="#000000" font-family="Helvetica" font-size="10" x="891.9473" y="402.4854">(08)</text><text fill="#000000" font-family="Helvetica" font-size="10" x="916.4746" y="402.4854">Validiert Subject Token (Signaturpr&#252;fung)</text><path d="M27,431.8438 L86.9561,431.8438 L86.9561,435.4844 L76.9561,445.4844 L27,445.4844 L27,431.8438" fill="#EEEEEE" style="stroke:#000000;stroke-width:1.5;"/><rect fill="none" height="328.6875" style="stroke:#000000;stroke-width:1.5;" width="1283.2578" x="27" y="431.8438"/><text fill="#000000" font-family="Helvetica" font-size="10" font-weight="bold" x="42" y="442.126">alt</text><text fill="#000000" font-family="Helvetica" font-size="10" font-weight="bold" x="101.9561" y="443.126">[Validation successful]</text><line style="stroke:#000000;stroke-width:1;stroke-dasharray:2,2;" x1="27" x2="1310.2578" y1="716.25" y2="716.25"/><text fill="#000000" font-family="Helvetica" font-size="10" font-weight="bold" x="32" y="727.5322">[Validation fehlerhaft]</text><line style="stroke:#181818;stroke-width:1;" x1="884.9473" x2="926.9473" y1="473.125" y2="473.125"/><line style="stroke:#181818;stroke-width:1;" x1="926.9473" x2="926.9473" y1="473.125" y2="486.125"/><line style="stroke:#181818;stroke-width:1;" x1="885.9473" x2="926.9473" y1="486.125" y2="486.125"/><polygon fill="#181818" points="895.9473,482.125,885.9473,486.125,895.9473,490.125,891.9473,486.125" style="stroke:#181818;stroke-width:1;"/><text fill="#000000" font-family="Helvetica" font-size="10" x="891.9473" y="468.7666">(09)</text><text fill="#000000" font-family="Helvetica" font-size="10" x="916.4746" y="468.7666">Policy Engine Input erstellen</text><polygon fill="#181818" points="1272.2578,507.7656,1282.2578,511.7656,1272.2578,515.7656,1276.2578,511.7656" style="stroke:#181818;stroke-width:1;"/><line style="stroke:#181818;stroke-width:1;" x1="884.9473" x2="1278.2578" y1="511.7656" y2="511.7656"/><text fill="#000000" font-family="Helvetica" font-size="10" x="891.9473" y="507.4072">(10)</text><text fill="#000000" font-family="Helvetica" font-size="10" x="916.4746" y="507.4072">POST /v1/data/authz {Policy Engine Input}</text><polygon fill="#181818" points="895.9473,533.4063,885.9473,537.4063,895.9473,541.4063,891.9473,537.4063" style="stroke:#181818;stroke-width:1;"/><line style="stroke:#181818;stroke-width:1;stroke-dasharray:2,2;" x1="889.9473" x2="1283.2578" y1="537.4063" y2="537.4063"/><text fill="#000000" font-family="Helvetica" font-size="10" x="901.9473" y="533.0479">(11)</text><text fill="#000000" font-family="Helvetica" font-size="10" x="926.4746" y="533.0479">Policy Decision</text><path d="M46,549.4063 L105.9561,549.4063 L105.9561,553.0469 L95.9561,563.0469 L46,563.0469 L46,549.4063" fill="#EEEEEE" style="stroke:#000000;stroke-width:1.5;"/><rect fill="none" height="141.8438" style="stroke:#000000;stroke-width:1.5;" width="849.9473" x="46" y="549.4063"/><text fill="#000000" font-family="Helvetica" font-size="10" font-weight="bold" x="61" y="559.6885">alt</text><text fill="#000000" font-family="Helvetica" font-size="10" font-weight="bold" x="120.9561" y="560.6885">[Policy Decision allow]</text><line style="stroke:#000000;stroke-width:1;stroke-dasharray:2,2;" x1="46" x2="895.9473" y1="646.9688" y2="646.9688"/><text fill="#000000" font-family="Helvetica" font-size="10" font-weight="bold" x="51" y="658.251">[Policy Decision deny]</text><polygon fill="#181818" points="78,598.3281,68,602.3281,78,606.3281,74,602.3281" style="stroke:#181818;stroke-width:1;"/><line style="stroke:#181818;stroke-width:1;stroke-dasharray:2,2;" x1="72" x2="873.9473" y1="602.3281" y2="602.3281"/><text fill="#000000" font-family="Helvetica" font-size="10" x="84" y="592.1494">(12)</text><text fill="#000000" font-family="Helvetica" font-size="10" x="108.5273" y="586.3291">200 OK</text><text fill="#000000" font-family="Helvetica" font-size="10" x="108.5273" y="597.9697">{Access Token}</text><polygon fill="#181818" points="311.3677,623.9688,321.3677,627.9688,311.3677,631.9688,315.3677,627.9688" style="stroke:#181818;stroke-width:1;"/><line style="stroke:#181818;stroke-width:1;" x1="67" x2="317.3677" y1="627.9688" y2="627.9688"/><text fill="#000000" font-family="Helvetica" font-size="10" x="74" y="623.6104">(13)</text><text fill="#000000" font-family="Helvetica" font-size="10" x="98.5273" y="623.6104">Speichert Access-Token als Secret</text><polygon fill="#181818" points="78,679.25,68,683.25,78,687.25,74,683.25" style="stroke:#181818;stroke-width:1;"/><line style="stroke:#181818;stroke-width:1;stroke-dasharray:2,2;" x1="72" x2="873.9473" y1="683.25" y2="683.25"/><text fill="#000000" font-family="Helvetica" font-size="10" x="84" y="678.8916">(14)</text><text fill="#000000" font-family="Helvetica" font-size="10" x="108.5273" y="678.8916">403 Forbidden</text><polygon fill="#181818" points="78,748.5313,68,752.5313,78,756.5313,74,752.5313" style="stroke:#181818;stroke-width:1;"/><line style="stroke:#181818;stroke-width:1;stroke-dasharray:2,2;" x1="72" x2="878.9473" y1="752.5313" y2="752.5313"/><text fill="#000000" font-family="Helvetica" font-size="10" x="84" y="748.1729">(15)</text><text fill="#000000" font-family="Helvetica" font-size="10" x="108.5273" y="748.1729">403 Forbidden</text><path d="M46,792.5313 L109.8379,792.5313 L109.8379,796.1719 L99.8379,806.1719 L46,806.1719 L46,792.5313" fill="#EEEEEE" style="stroke:#000000;stroke-width:1.5;"/><rect fill="none" height="299.0469" style="stroke:#000000;stroke-width:1.5;" width="1407.1045" x="46" y="792.5313"/><text fill="#000000" font-family="Helvetica" font-size="10" font-weight="bold" x="61" y="802.8135">par</text><text fill="#000000" font-family="Helvetica" font-size="10" font-weight="bold" x="124.8379" y="803.8135">[Ressourcenzugriff mit Access Token]</text><polygon fill="#181818" points="344.3677,841.4531,334.3677,845.4531,344.3677,849.4531,340.3677,845.4531" style="stroke:#181818;stroke-width:1;"/><line style="stroke:#181818;stroke-width:1;" x1="338.3677" x2="476.2319" y1="845.4531" y2="845.4531"/><text fill="#000000" font-family="Helvetica" font-size="10" x="350.3677" y="835.2744">(16)</text><text fill="#000000" font-family="Helvetica" font-size="10" x="374.895" y="829.4541">Liest Access-Token</text><text fill="#000000" font-family="Helvetica" font-size="10" x="374.895" y="841.0947">Secret aus</text><polygon fill="#181818" points="1115.1904,867.0938,1125.1904,871.0938,1115.1904,875.0938,1119.1904,871.0938" style="stroke:#181818;stroke-width:1;"/><line style="stroke:#181818;stroke-width:1;" x1="487.2319" x2="1121.1904" y1="871.0938" y2="871.0938"/><text fill="#000000" font-family="Helvetica" font-size="10" x="494.2319" y="866.7354">(17)</text><text fill="#000000" font-family="Helvetica" font-size="10" x="518.7593" y="866.7354">Anfrage mit Access-Token</text><line style="stroke:#181818;stroke-width:1;" x1="1137.1904" x2="1179.1904" y1="896.7344" y2="896.7344"/><line style="stroke:#181818;stroke-width:1;" x1="1179.1904" x2="1179.1904" y1="896.7344" y2="909.7344"/><line style="stroke:#181818;stroke-width:1;" x1="1138.1904" x2="1179.1904" y1="909.7344" y2="909.7344"/><polygon fill="#181818" points="1148.1904,905.7344,1138.1904,909.7344,1148.1904,913.7344,1144.1904,909.7344" style="stroke:#181818;stroke-width:1;"/><text fill="#000000" font-family="Helvetica" font-size="10" x="1144.1904" y="892.376">(18)</text><text fill="#000000" font-family="Helvetica" font-size="10" x="1168.7178" y="892.376">Validiert Access-Token</text><path d="M466.2319,921.7344 L526.188,921.7344 L526.188,925.375 L516.188,935.375 L466.2319,935.375 L466.2319,921.7344" fill="#EEEEEE" style="stroke:#000000;stroke-width:1.5;"/><rect fill="none" height="155.8438" style="stroke:#000000;stroke-width:1.5;" width="961.8726" x="466.2319" y="921.7344"/><text fill="#000000" font-family="Helvetica" font-size="10" font-weight="bold" x="481.2319" y="932.0166">alt</text><text fill="#000000" font-family="Helvetica" font-size="10" font-weight="bold" x="541.188" y="933.0166">[Erfolgreiche Validierung]</text><line style="stroke:#000000;stroke-width:1;stroke-dasharray:2,2;" x1="466.2319" x2="1428.1045" y1="1033.2969" y2="1033.2969"/><text fill="#000000" font-family="Helvetica" font-size="10" font-weight="bold" x="471.2319" y="1044.5791">[Fehlgeschlagene Validierung]</text><polygon fill="#181818" points="1390.1045,959.0156,1400.1045,963.0156,1390.1045,967.0156,1394.1045,963.0156" style="stroke:#181818;stroke-width:1;"/><line style="stroke:#181818;stroke-width:1;" x1="1137.1904" x2="1396.1045" y1="963.0156" y2="963.0156"/><text fill="#000000" font-family="Helvetica" font-size="10" x="1144.1904" y="958.6572">(19)</text><text fill="#000000" font-family="Helvetica" font-size="10" x="1168.7178" y="958.6572">Weiterleitung der Anfrage mit Access-Token</text><polygon fill="#181818" points="1148.1904,984.6563,1138.1904,988.6563,1148.1904,992.6563,1144.1904,988.6563" style="stroke:#181818;stroke-width:1;"/><line style="stroke:#181818;stroke-width:1;stroke-dasharray:2,2;" x1="1142.1904" x2="1401.1045" y1="988.6563" y2="988.6563"/><text fill="#000000" font-family="Helvetica" font-size="10" x="1154.1904" y="984.2979">(20)</text><text fill="#000000" font-family="Helvetica" font-size="10" x="1178.7178" y="984.2979">Antwort</text><polygon fill="#181818" points="498.2319,1010.2969,488.2319,1014.2969,498.2319,1018.2969,494.2319,1014.2969" style="stroke:#181818;stroke-width:1;"/><line style="stroke:#181818;stroke-width:1;stroke-dasharray:2,2;" x1="492.2319" x2="1126.1904" y1="1014.2969" y2="1014.2969"/><text fill="#000000" font-family="Helvetica" font-size="10" x="504.2319" y="1009.9385">(21)</text><text fill="#000000" font-family="Helvetica" font-size="10" x="528.7593" y="1009.9385">Antwort</text><polygon fill="#181818" points="498.2319,1065.5781,488.2319,1069.5781,498.2319,1073.5781,494.2319,1069.5781" style="stroke:#181818;stroke-width:1;"/><line style="stroke:#181818;stroke-width:1;stroke-dasharray:2,2;" x1="492.2319" x2="1126.1904" y1="1069.5781" y2="1069.5781"/><text fill="#000000" font-family="Helvetica" font-size="10" x="504.2319" y="1065.2197">(22)</text><text fill="#000000" font-family="Helvetica" font-size="10" x="528.7593" y="1065.2197">Fehler 401 Unauthorized</text><?plantuml-src dLRRSjis47tdLspSX_eInOhZfAd7unbTA5kD7N4a9PvcF9E1oIK52m8K0BGZP_8jVUbdz2q_rWKl2Yd9Jje7on2mUtRtxC52BBLAfhDhrB2rtMpkR7bcokMSQJQ326EM2jjJqexuFSBpvkR3jso6S8RY5YqFMSMcczjSAAdCd8KOBQqxAjKSTSLMe4pif1NTfCQ2L18hPmO_fIX376ACsYtQB9mcMgKowYYXD5nEkAqwZ5OTljTmi07t0erX2RO4JoGb4bjlmYC4OybPsSKSFUzNQAlF4Bfendj2nNE9yC4VjpwUlciDknyxW_F147xfzNel_9TBWtE_NvwSJfInUPxrqujWyDP_Eoxj_4F_i7Uuj0c6_OkMFnpzEHhx5wNDERj56H5ztwq6x_jTVxW4wVQwViTb7J1DJU5p9csP_R6n2u4dNbbzbxF4iV750vXNpDrtW6VtQ5cn1bWbdWhsNtKwnUavvLBiTt_xlTriPljVSvovLhV4gduOg_lIVzqzNCTwVT1-yUhL4ilz2HwZS9NdO9lrK8Tf2pBAtBzwn_i51zwJkMR9Z855TGzMfzJgQshqrhWF1y-QqEKeIOyjUSsHr02jhHMk2J2pTrA0qvJfoDci2YDBfShjLgYLl57N4AXe2vY1udj7K40BnyUEzPEJTR-W6rp9LcedIlDxPhcI97PzYpf3SGUZHxpHXdaujwZQaPnS7UiUGpHqLKEiHhbJUYeKYvR9bgqbg1B8gw4aEADSfvathH_dkFqJ7BT_XkF7kVf0jO_6Zx4L-EH_DXu746ZrUP5vdGK_QawW10yNuCk4f9Vv38BM_-QwtCkt7k1QOmpA7MVzV-eeFeBTtI4ct5WtPrEPWBjwVMDI-lTks0VblaTeO4H3ZzFv6roORADiX87jowBJq8-eqzmkIAzAxEpkLc9IiAUkH1VnFMgBN9JXFgI9vd5iw7N1S69vOb52YMc0IOWu3QygOGwQIA6w4nIpRtz_-uidX3HMKtBrFuSJ9XE4xL5wVOEXBVOJCfRG2aEQu_dMZkEPDBwtHulQtLhVWSP9JjpUtX7qbARCBTG3C4bE-ULga7NDlT4ugbjxcm8KQgk6oFDjb16kvFPAbJE-aeUhgfHjDMauzSUm_-mEXMXCfRgJ-sgEaaUDKCcO9wdEn5yheO1noG_8jjzr6i_dymKTHOnQzMYqFCB-xVFzcxkfUGZxZyitepfCiJo2zqnmQlyQrzjEaCocUgw__HEJb7OSeKpOt2E_noRDo8jJaLsZJVWrMK5VpbCB96fB96MbrRn8lwwqO32YqgWc2iFs6LLq3rys0ELFchlNA_KMjbqCkSafprDVsQSzeUwAbswPnggoZk2WsOJ1colvfQhjhuNVciQSu4cBS-JXP5rWWguwXXfjvex2u5fMTCaNFqhALNdOVE5KVCsZgA3IZIAgqok0AvsASI9GJrXilV-C-nrrnTIDlc9Cc7m-oljyrcINfieMETVVgsm0h3nXI_BEEPewSLSoPmrOQZOwdWLEEIqPqmy9h8HlbE7foSZCgf9VCSaqukjOYKHdtLkQaluptdAG-clWubuY_TBHWZxBeVj89h3wd3Ion1prBMcfDBkCHGVrKcicMPDxrDa4JJWH54wkf_m0a8lMoqH1_NuExoGhNcYCl5n9xhv7o4BBRsaCrNllElyl?></g></svg>