<?plantuml 1.2026.2?><svg xmlns="http://www.w3.org/2000/svg" xmlns:xlink="http://www.w3.org/1999/xlink" contentStyleType="text/css" data-diagram-type="SEQUENCE" height="1127px" preserveAspectRatio="none" style="width:1147px;height:1127px;background:#FFFFFF;" version="1.1" viewBox="0 0 1147 1127" width="1147px" zoomAndPan="magnify"><defs/><g><rect fill="#EDFDEC" height="1115.2188" style="stroke:#181818;stroke-width:0.5;" width="480.7134" x="11" y="6"/><text fill="#000000" font-family="Helvetica" font-size="10" font-weight="bold" x="183.8542" y="15.2822">TI 2.0 Dienst Anbieter A</text><rect fill="#FFF3E5" height="1098.5781" style="stroke:#181818;stroke-width:0.5;" width="302.5156" x="11" y="22.6406"/><text fill="#000000" font-family="Helvetica" font-size="10" font-weight="bold" x="123.5029" y="31.9229">ZETA Guard A</text><rect fill="#EDFDEC" height="1115.2188" style="stroke:#181818;stroke-width:0.5;" width="546.6963" x="594.4092" y="6"/><text fill="#000000" font-family="Helvetica" font-size="10" font-weight="bold" x="800.3135" y="15.2822">TI 2.0 Dienst Anbieter B</text><rect fill="#FFF3E5" height="1098.5781" style="stroke:#181818;stroke-width:0.5;" width="420.8857" x="594.4092" y="22.6406"/><text fill="#000000" font-family="Helvetica" font-size="10" font-weight="bold" x="766.1558" y="31.9229">ZETA Guard B</text><g><title>cronjob Pod</title><rect fill="#000000" fill-opacity="0.00000" height="1000.375" width="8" x="47.9922" y="76.5625"/><line style="stroke:#000000;stroke-width:0.5;stroke-dasharray:5,5;" x1="51.4922" x2="51.4922" y1="76.5625" y2="1076.9375"/></g><g><title/><rect fill="#FFFFFF" height="542.8125" style="stroke:#181818;stroke-width:1;" width="10" x="46.4922" y="198.0781"/></g><g><title>PDP</title><rect fill="#000000" fill-opacity="0.00000" height="1000.375" width="8" x="201.6221" y="76.5625"/><line style="stroke:#000000;stroke-width:0.5;stroke-dasharray:5,5;" x1="205.1221" x2="205.1221" y1="76.5625" y2="1076.9375"/></g><g><title/><rect fill="#FFFFFF" height="25.6406" style="stroke:#181818;stroke-width:1;" width="10" x="200.1221" y="215.7188"/></g><g><title/><rect fill="#FFFFFF" height="25.6406" style="stroke:#181818;stroke-width:1;" width="10" x="200.1221" y="304.2813"/></g><g><title/><rect fill="#FFFFFF" height="25.6406" style="stroke:#181818;stroke-width:1;" width="10" x="200.1221" y="355.5625"/></g><g><title>etcd</title><rect fill="#000000" fill-opacity="0.00000" height="1000.375" width="8" x="288.0562" y="76.5625"/><line style="stroke:#000000;stroke-width:0.5;stroke-dasharray:5,5;" x1="291.5562" x2="291.5562" y1="76.5625" y2="1076.9375"/></g><g><title/><rect fill="#FFFFFF" height="878.8594" style="stroke:#181818;stroke-width:1;" width="10" x="286.5562" y="198.0781"/></g><g><title>Resource Server</title><rect fill="#000000" fill-opacity="0.00000" height="1000.375" width="8" x="435.9634" y="76.5625"/><line style="stroke:#000000;stroke-width:0.5;stroke-dasharray:5,5;" x1="439.4634" x2="439.4634" y1="76.5625" y2="1076.9375"/></g><g><title/><rect fill="#FFFFFF" height="299.4063" style="stroke:#181818;stroke-width:1;" width="10" x="434.4634" y="777.5313"/></g><g><title>gematik</title><rect fill="#000000" fill-opacity="0.00000" height="1000.375" width="8" x="557.4795" y="76.5625"/><line style="stroke:#000000;stroke-width:0.5;stroke-dasharray:5,5;" x1="560.9795" x2="560.9795" y1="76.5625" y2="1076.9375"/></g><g><title>PDP</title><rect fill="#000000" fill-opacity="0.00000" height="1000.375" width="8" x="653.3838" y="76.5625"/><line style="stroke:#000000;stroke-width:0.5;stroke-dasharray:5,5;" x1="656.8838" x2="656.8838" y1="76.5625" y2="1076.9375"/></g><g><title/><rect fill="#FFFFFF" height="435.25" style="stroke:#181818;stroke-width:1;" width="10" x="651.8838" y="278.6406"/></g><g><title>PEP</title><rect fill="#000000" fill-opacity="0.00000" height="1000.375" width="8" x="810.4414" y="76.5625"/><line style="stroke:#000000;stroke-width:0.5;stroke-dasharray:5,5;" x1="813.9414" x2="813.9414" y1="76.5625" y2="1076.9375"/></g><g><title/><rect fill="#FFFFFF" height="198.4844" style="stroke:#181818;stroke-width:1;" width="10" x="808.9414" y="832.4531"/></g><g><title>PDP</title><rect fill="#000000" fill-opacity="0.00000" height="1000.375" width="8" x="967.5088" y="76.5625"/><line style="stroke:#000000;stroke-width:0.5;stroke-dasharray:5,5;" x1="971.0088" x2="971.0088" y1="76.5625" y2="1076.9375"/></g><g><title/><rect fill="#FFFFFF" height="25.6406" style="stroke:#181818;stroke-width:1;" width="10" x="966.0088" y="484.7656"/></g><g><title>Resource Server</title><rect fill="#000000" fill-opacity="0.00000" height="1000.375" width="8" x="1085.3555" y="76.5625"/><line style="stroke:#000000;stroke-width:0.5;stroke-dasharray:5,5;" x1="1088.8555" x2="1088.8555" y1="76.5625" y2="1076.9375"/></g><g><title/><rect fill="#FFFFFF" height="25.6406" style="stroke:#181818;stroke-width:1;" width="10" x="1083.8555" y="924.375"/></g><rect fill="#FFE6CC" height="25.6406" rx="2.5" ry="2.5" style="stroke:#D79B00;stroke-width:0.5;" width="72.9844" x="15" y="49.9219"/><text fill="#000000" font-family="Helvetica" font-size="10" x="22" y="66.2041">cronjob Pod</text><rect fill="#FFE6CC" height="37.2813" rx="2.5" ry="2.5" style="stroke:#D79B00;stroke-width:0.5;" width="116.9492" x="146.6475" y="38.2813"/><text fill="#000000" font-family="Helvetica" font-size="10" x="195.2417" y="54.5635">PDP</text><text fill="#000000" font-family="Helvetica" font-size="10" x="153.6475" y="66.2041">Authorization Server</text><rect fill="#FFE6CC" height="25.6406" rx="2.5" ry="2.5" style="stroke:#D79B00;stroke-width:0.5;" width="35.9189" x="273.5967" y="49.9219"/><text fill="#000000" font-family="Helvetica" font-size="10" x="280.5967" y="66.2041">etcd</text><rect fill="#D5E8D4" height="25.6406" rx="2.5" ry="2.5" style="stroke:#82B366;stroke-width:0.5;" width="96.5" x="391.2134" y="49.9219"/><text fill="#000000" font-family="Helvetica" font-size="10" x="398.2134" y="66.2041">Resource Server</text><rect fill="#E2E2F0" height="25.6406" rx="2.5" ry="2.5" style="stroke:#181818;stroke-width:0.5;" width="54.8594" x="533.5498" y="49.9219"/><text fill="#000000" font-family="Helvetica" font-size="10" x="540.5498" y="66.2041">gematik</text><rect fill="#FFE6CC" height="37.2813" rx="2.5" ry="2.5" style="stroke:#D79B00;stroke-width:0.5;" width="116.9492" x="598.4092" y="38.2813"/><text fill="#000000" font-family="Helvetica" font-size="10" x="647.0034" y="54.5635">PDP</text><text fill="#000000" font-family="Helvetica" font-size="10" x="605.4092" y="66.2041">Authorization Server</text><rect fill="#FFE6CC" height="37.2813" rx="2.5" ry="2.5" style="stroke:#D79B00;stroke-width:0.5;" width="71.041" x="778.4209" y="38.2813"/><text fill="#000000" font-family="Helvetica" font-size="10" x="804.752" y="54.5635">PEP</text><text fill="#000000" font-family="Helvetica" font-size="10" x="785.4209" y="66.2041">HTTP Proxy</text><rect fill="#FFE6CC" height="37.2813" rx="2.5" ry="2.5" style="stroke:#D79B00;stroke-width:0.5;" width="80.5723" x="930.7227" y="38.2813"/><text fill="#000000" font-family="Helvetica" font-size="10" x="961.1284" y="54.5635">PDP</text><text fill="#000000" font-family="Helvetica" font-size="10" x="937.7227" y="66.2041">Policy Engine</text><rect fill="#D5E8D4" height="25.6406" rx="2.5" ry="2.5" style="stroke:#82B366;stroke-width:0.5;" width="96.5" x="1040.6055" y="49.9219"/><text fill="#000000" font-family="Helvetica" font-size="10" x="1047.6055" y="66.2041">Resource Server</text><rect fill="#FFE6CC" height="25.6406" rx="2.5" ry="2.5" style="stroke:#D79B00;stroke-width:0.5;" width="72.9844" x="15" y="1076.9375"/><text fill="#000000" font-family="Helvetica" font-size="10" x="22" y="1093.2197">cronjob Pod</text><rect fill="#FFE6CC" height="37.2813" rx="2.5" ry="2.5" style="stroke:#D79B00;stroke-width:0.5;" width="116.9492" x="146.6475" y="1076.9375"/><text fill="#000000" font-family="Helvetica" font-size="10" x="195.2417" y="1093.2197">PDP</text><text fill="#000000" font-family="Helvetica" font-size="10" x="153.6475" y="1104.8604">Authorization Server</text><rect fill="#FFE6CC" height="25.6406" rx="2.5" ry="2.5" style="stroke:#D79B00;stroke-width:0.5;" width="35.9189" x="273.5967" y="1076.9375"/><text fill="#000000" font-family="Helvetica" font-size="10" x="280.5967" y="1093.2197">etcd</text><rect fill="#D5E8D4" height="25.6406" rx="2.5" ry="2.5" style="stroke:#82B366;stroke-width:0.5;" width="96.5" x="391.2134" y="1076.9375"/><text fill="#000000" font-family="Helvetica" font-size="10" x="398.2134" y="1093.2197">Resource Server</text><rect fill="#E2E2F0" height="25.6406" rx="2.5" ry="2.5" style="stroke:#181818;stroke-width:0.5;" width="54.8594" x="533.5498" y="1076.9375"/><text fill="#000000" font-family="Helvetica" font-size="10" x="540.5498" y="1093.2197">gematik</text><rect fill="#FFE6CC" height="37.2813" rx="2.5" ry="2.5" style="stroke:#D79B00;stroke-width:0.5;" width="116.9492" x="598.4092" y="1076.9375"/><text fill="#000000" font-family="Helvetica" font-size="10" x="647.0034" y="1093.2197">PDP</text><text fill="#000000" font-family="Helvetica" font-size="10" x="605.4092" y="1104.8604">Authorization Server</text><rect fill="#FFE6CC" height="37.2813" rx="2.5" ry="2.5" style="stroke:#D79B00;stroke-width:0.5;" width="71.041" x="778.4209" y="1076.9375"/><text fill="#000000" font-family="Helvetica" font-size="10" x="804.752" y="1093.2197">PEP</text><text fill="#000000" font-family="Helvetica" font-size="10" x="785.4209" y="1104.8604">HTTP Proxy</text><rect fill="#FFE6CC" height="37.2813" rx="2.5" ry="2.5" style="stroke:#D79B00;stroke-width:0.5;" width="80.5723" x="930.7227" y="1076.9375"/><text fill="#000000" font-family="Helvetica" font-size="10" x="961.1284" y="1093.2197">PDP</text><text fill="#000000" font-family="Helvetica" font-size="10" x="937.7227" y="1104.8604">Policy Engine</text><rect fill="#D5E8D4" height="25.6406" rx="2.5" ry="2.5" style="stroke:#82B366;stroke-width:0.5;" width="96.5" x="1040.6055" y="1076.9375"/><text fill="#000000" font-family="Helvetica" font-size="10" x="1047.6055" y="1093.2197">Resource Server</text><rect fill="#FFFFFF" height="37.9375" style="stroke:#000000;stroke-width:1.5;" width="437.7617" x="148.6475" y="84.5625"/><path d="M148.6475,84.5625 L212.6475,84.5625 L212.6475,89.5625 L202.6475,99.5625 L148.6475,99.5625 L148.6475,84.5625" fill="#EEEEEE" style="stroke:#000000;stroke-width:2;"/><text fill="#000000" font-family="Helvetica" font-size="12" font-weight="bold" x="161.6475" y="97.7012">ref</text><text fill="#000000" font-family="Helvetica" font-size="12" font-weight="bold" x="152.6475" y="114.7012">Registrierung beim Federation Master (Workload Identity Pool)</text><rect fill="#FFFFFF" height="37.9375" style="stroke:#000000;stroke-width:1.5;" width="473.7451" x="535.5498" y="127.5"/><path d="M535.5498,127.5 L599.5498,127.5 L599.5498,132.5 L589.5498,142.5 L535.5498,142.5 L535.5498,127.5" fill="#EEEEEE" style="stroke:#000000;stroke-width:2;"/><text fill="#000000" font-family="Helvetica" font-size="12" font-weight="bold" x="548.5498" y="140.6387">ref</text><text fill="#000000" font-family="Helvetica" font-size="12" font-weight="bold" x="542.855" y="157.6387">Verteilung der Zugriffsberechtigten Workloads an die Policy Engine</text><path d="M16.4922,174.4375 L80.3301,174.4375 L80.3301,178.0781 L70.3301,188.0781 L16.4922,188.0781 L16.4922,174.4375" fill="#EEEEEE" style="stroke:#000000;stroke-width:1.5;"/><rect fill="none" height="561.4531" style="stroke:#000000;stroke-width:1.5;" width="1000.5166" x="16.4922" y="174.4375"/><text fill="#000000" font-family="Helvetica" font-size="10" font-weight="bold" x="31.4922" y="184.7197">par</text><text fill="#000000" font-family="Helvetica" font-size="10" font-weight="bold" x="95.3301" y="185.7197">[Regelm&#228;&#223;iger Token Exchange (ID Token gegen Access Token)]</text><polygon fill="#181818" points="188.1221,211.7188,198.1221,215.7188,188.1221,219.7188,192.1221,215.7188" style="stroke:#181818;stroke-width:1;"/><line style="stroke:#181818;stroke-width:1;" x1="56.4922" x2="194.1221" y1="215.7188" y2="215.7188"/><text fill="#000000" font-family="Helvetica" font-size="10" x="63.4922" y="211.3604">(01)</text><text fill="#000000" font-family="Helvetica" font-size="10" x="88.0195" y="211.3604">Fordert ID-Token an</text><polygon fill="#181818" points="67.4922,237.3594,57.4922,241.3594,67.4922,245.3594,63.4922,241.3594" style="stroke:#181818;stroke-width:1;"/><line style="stroke:#181818;stroke-width:1;stroke-dasharray:2,2;" x1="61.4922" x2="199.1221" y1="241.3594" y2="241.3594"/><text fill="#000000" font-family="Helvetica" font-size="10" x="73.4922" y="237.001">(02)</text><text fill="#000000" font-family="Helvetica" font-size="10" x="98.0195" y="237.001">ID-Token</text><polygon fill="#181818" points="639.8838,274.6406,649.8838,278.6406,639.8838,282.6406,643.8838,278.6406" style="stroke:#181818;stroke-width:1;"/><line style="stroke:#181818;stroke-width:1;" x1="56.4922" x2="645.8838" y1="278.6406" y2="278.6406"/><text fill="#000000" font-family="Helvetica" font-size="10" x="63.4922" y="268.4619">(03)</text><text fill="#000000" font-family="Helvetica" font-size="10" x="88.0195" y="262.6416">Fordert Access-Token an</text><text fill="#000000" font-family="Helvetica" font-size="10" x="88.0195" y="274.2822">(Token Exchange mit ID-Token)</text><polygon fill="#181818" points="221.1221,300.2813,211.1221,304.2813,221.1221,308.2813,217.1221,304.2813" style="stroke:#181818;stroke-width:1;"/><line style="stroke:#181818;stroke-width:1;" x1="215.1221" x2="650.8838" y1="304.2813" y2="304.2813"/><text fill="#000000" font-family="Helvetica" font-size="10" x="227.1221" y="299.9229">(04)</text><text fill="#000000" font-family="Helvetica" font-size="10" x="251.6494" y="299.9229">GET&#160;/.well-known/openid-configuration</text><polygon fill="#181818" points="639.8838,325.9219,649.8838,329.9219,639.8838,333.9219,643.8838,329.9219" style="stroke:#181818;stroke-width:1;"/><line style="stroke:#181818;stroke-width:1;stroke-dasharray:2,2;" x1="210.1221" x2="645.8838" y1="329.9219" y2="329.9219"/><text fill="#000000" font-family="Helvetica" font-size="10" x="217.1221" y="325.5635">(05)</text><text fill="#000000" font-family="Helvetica" font-size="10" x="241.6494" y="325.5635">OpenID Provider Metadaten</text><polygon fill="#181818" points="221.1221,351.5625,211.1221,355.5625,221.1221,359.5625,217.1221,355.5625" style="stroke:#181818;stroke-width:1;"/><line style="stroke:#181818;stroke-width:1;" x1="215.1221" x2="650.8838" y1="355.5625" y2="355.5625"/><text fill="#000000" font-family="Helvetica" font-size="10" x="227.1221" y="351.2041">(06)</text><text fill="#000000" font-family="Helvetica" font-size="10" x="251.6494" y="351.2041">GET /openid/v1/jwks</text><polygon fill="#181818" points="639.8838,377.2031,649.8838,381.2031,639.8838,385.2031,643.8838,381.2031" style="stroke:#181818;stroke-width:1;"/><line style="stroke:#181818;stroke-width:1;stroke-dasharray:2,2;" x1="210.1221" x2="645.8838" y1="381.2031" y2="381.2031"/><text fill="#000000" font-family="Helvetica" font-size="10" x="217.1221" y="376.8447">(07)</text><text fill="#000000" font-family="Helvetica" font-size="10" x="241.6494" y="376.8447">JWKS</text><line style="stroke:#181818;stroke-width:1;" x1="661.8838" x2="703.8838" y1="418.4844" y2="418.4844"/><line style="stroke:#181818;stroke-width:1;" x1="703.8838" x2="703.8838" y1="418.4844" y2="431.4844"/><line style="stroke:#181818;stroke-width:1;" x1="662.8838" x2="703.8838" y1="431.4844" y2="431.4844"/><polygon fill="#181818" points="672.8838,427.4844,662.8838,431.4844,672.8838,435.4844,668.8838,431.4844" style="stroke:#181818;stroke-width:1;"/><text fill="#000000" font-family="Helvetica" font-size="10" x="668.8838" y="408.3057">(08)</text><text fill="#000000" font-family="Helvetica" font-size="10" x="693.4111" y="402.4854">Validiert ID-Token</text><text fill="#000000" font-family="Helvetica" font-size="10" x="693.4111" y="414.126">(Signatur, Ablauf, etc.)</text><path d="M35.4922,443.4844 L95.4482,443.4844 L95.4482,447.125 L85.4482,457.125 L35.4922,457.125 L35.4922,443.4844" fill="#EEEEEE" style="stroke:#000000;stroke-width:1.5;"/><rect fill="none" height="130.2031" style="stroke:#000000;stroke-width:1.5;" width="956.5166" x="35.4922" y="443.4844"/><text fill="#000000" font-family="Helvetica" font-size="10" font-weight="bold" x="50.4922" y="453.7666">alt</text><text fill="#000000" font-family="Helvetica" font-size="10" font-weight="bold" x="110.4482" y="454.7666">[Erfolgreiche Validierung]</text><line style="stroke:#000000;stroke-width:1;stroke-dasharray:2,2;" x1="35.4922" x2="992.0088" y1="529.4063" y2="529.4063"/><text fill="#000000" font-family="Helvetica" font-size="10" font-weight="bold" x="40.4922" y="540.6885">[Fehlgeschlagene Validierung]</text><polygon fill="#181818" points="954.0088,480.7656,964.0088,484.7656,954.0088,488.7656,958.0088,484.7656" style="stroke:#181818;stroke-width:1;"/><line style="stroke:#181818;stroke-width:1;" x1="661.8838" x2="960.0088" y1="484.7656" y2="484.7656"/><text fill="#000000" font-family="Helvetica" font-size="10" x="668.8838" y="480.4072">(09)</text><text fill="#000000" font-family="Helvetica" font-size="10" x="693.4111" y="480.4072">Entscheidungsanfrage (issuer uri, etc.)</text><polygon fill="#181818" points="672.8838,506.4063,662.8838,510.4063,672.8838,514.4063,668.8838,510.4063" style="stroke:#181818;stroke-width:1;"/><line style="stroke:#181818;stroke-width:1;stroke-dasharray:2,2;" x1="666.8838" x2="965.0088" y1="510.4063" y2="510.4063"/><text fill="#000000" font-family="Helvetica" font-size="10" x="678.8838" y="506.0479">(10)</text><text fill="#000000" font-family="Helvetica" font-size="10" x="703.4111" y="506.0479">Ergebnis</text><polygon fill="#181818" points="67.4922,561.6875,57.4922,565.6875,67.4922,569.6875,63.4922,565.6875" style="stroke:#181818;stroke-width:1;"/><line style="stroke:#181818;stroke-width:1;stroke-dasharray:2,2;" x1="61.4922" x2="650.8838" y1="565.6875" y2="565.6875"/><text fill="#000000" font-family="Helvetica" font-size="10" x="73.4922" y="561.3291">(11)</text><text fill="#000000" font-family="Helvetica" font-size="10" x="98.0195" y="561.3291">Fehler 403 Forbidden</text><path d="M35.4922,591.6875 L95.4482,591.6875 L95.4482,595.3281 L85.4482,605.3281 L35.4922,605.3281 L35.4922,591.6875" fill="#EEEEEE" style="stroke:#000000;stroke-width:1.5;"/><rect fill="none" height="130.2031" style="stroke:#000000;stroke-width:1.5;" width="637.3916" x="35.4922" y="591.6875"/><text fill="#000000" font-family="Helvetica" font-size="10" font-weight="bold" x="50.4922" y="601.9697">alt</text><text fill="#000000" font-family="Helvetica" font-size="10" font-weight="bold" x="110.4482" y="602.9697">[Erfolgreiche Autorisierung]</text><line style="stroke:#000000;stroke-width:1;stroke-dasharray:2,2;" x1="35.4922" x2="672.8838" y1="677.6094" y2="677.6094"/><text fill="#000000" font-family="Helvetica" font-size="10" font-weight="bold" x="40.4922" y="688.8916">[Fehlgeschlagene Autorisierung]</text><polygon fill="#181818" points="67.4922,628.9688,57.4922,632.9688,67.4922,636.9688,63.4922,632.9688" style="stroke:#181818;stroke-width:1;"/><line style="stroke:#181818;stroke-width:1;stroke-dasharray:2,2;" x1="61.4922" x2="650.8838" y1="632.9688" y2="632.9688"/><text fill="#000000" font-family="Helvetica" font-size="10" x="73.4922" y="628.6104">(12)</text><text fill="#000000" font-family="Helvetica" font-size="10" x="98.0195" y="628.6104">Access-Token</text><polygon fill="#181818" points="274.5562,654.6094,284.5562,658.6094,274.5562,662.6094,278.5562,658.6094" style="stroke:#181818;stroke-width:1;"/><line style="stroke:#181818;stroke-width:1;" x1="56.4922" x2="280.5562" y1="658.6094" y2="658.6094"/><text fill="#000000" font-family="Helvetica" font-size="10" x="63.4922" y="654.251">(13)</text><text fill="#000000" font-family="Helvetica" font-size="10" x="88.0195" y="654.251">Speichert Access-Token als Secret</text><polygon fill="#181818" points="67.4922,709.8906,57.4922,713.8906,67.4922,717.8906,63.4922,713.8906" style="stroke:#181818;stroke-width:1;"/><line style="stroke:#181818;stroke-width:1;stroke-dasharray:2,2;" x1="61.4922" x2="650.8838" y1="713.8906" y2="713.8906"/><text fill="#000000" font-family="Helvetica" font-size="10" x="73.4922" y="709.5322">(14)</text><text fill="#000000" font-family="Helvetica" font-size="10" x="98.0195" y="709.5322">Fehler 403 Forbidden</text><path d="M35.4922,753.8906 L99.3301,753.8906 L99.3301,757.5313 L89.3301,767.5313 L35.4922,767.5313 L35.4922,753.8906" fill="#EEEEEE" style="stroke:#000000;stroke-width:1.5;"/><rect fill="none" height="299.0469" style="stroke:#000000;stroke-width:1.5;" width="1099.3633" x="35.4922" y="753.8906"/><text fill="#000000" font-family="Helvetica" font-size="10" font-weight="bold" x="50.4922" y="764.1729">par</text><text fill="#000000" font-family="Helvetica" font-size="10" font-weight="bold" x="114.3301" y="765.1729">[Ressourcenzugriff mit Access Token]</text><polygon fill="#181818" points="307.5562,802.8125,297.5562,806.8125,307.5562,810.8125,303.5562,806.8125" style="stroke:#181818;stroke-width:1;"/><line style="stroke:#181818;stroke-width:1;" x1="301.5562" x2="433.4634" y1="806.8125" y2="806.8125"/><text fill="#000000" font-family="Helvetica" font-size="10" x="313.5562" y="796.6338">(15)</text><text fill="#000000" font-family="Helvetica" font-size="10" x="338.0835" y="790.8135">Liest Secret mit</text><text fill="#000000" font-family="Helvetica" font-size="10" x="338.0835" y="802.4541">Access-Token aus</text><polygon fill="#181818" points="796.9414,828.4531,806.9414,832.4531,796.9414,836.4531,800.9414,832.4531" style="stroke:#181818;stroke-width:1;"/><line style="stroke:#181818;stroke-width:1;" x1="444.4634" x2="802.9414" y1="832.4531" y2="832.4531"/><text fill="#000000" font-family="Helvetica" font-size="10" x="451.4634" y="828.0947">(16)</text><text fill="#000000" font-family="Helvetica" font-size="10" x="475.9907" y="828.0947">Anfrage mit Access-Token</text><line style="stroke:#181818;stroke-width:1;" x1="818.9414" x2="860.9414" y1="858.0938" y2="858.0938"/><line style="stroke:#181818;stroke-width:1;" x1="860.9414" x2="860.9414" y1="858.0938" y2="871.0938"/><line style="stroke:#181818;stroke-width:1;" x1="819.9414" x2="860.9414" y1="871.0938" y2="871.0938"/><polygon fill="#181818" points="829.9414,867.0938,819.9414,871.0938,829.9414,875.0938,825.9414,871.0938" style="stroke:#181818;stroke-width:1;"/><text fill="#000000" font-family="Helvetica" font-size="10" x="825.9414" y="853.7354">(17)</text><text fill="#000000" font-family="Helvetica" font-size="10" x="850.4688" y="853.7354">Validiert Access-Token</text><path d="M423.4634,883.0938 L483.4194,883.0938 L483.4194,886.7344 L473.4194,896.7344 L423.4634,896.7344 L423.4634,883.0938" fill="#EEEEEE" style="stroke:#000000;stroke-width:1.5;"/><rect fill="none" height="155.8438" style="stroke:#000000;stroke-width:1.5;" width="686.3921" x="423.4634" y="883.0938"/><text fill="#000000" font-family="Helvetica" font-size="10" font-weight="bold" x="438.4634" y="893.376">alt</text><text fill="#000000" font-family="Helvetica" font-size="10" font-weight="bold" x="498.4194" y="894.376">[Erfolgreiche Validierung]</text><line style="stroke:#000000;stroke-width:1;stroke-dasharray:2,2;" x1="423.4634" x2="1109.8555" y1="994.6563" y2="994.6563"/><text fill="#000000" font-family="Helvetica" font-size="10" font-weight="bold" x="428.4634" y="1005.9385">[Fehlgeschlagene Validierung]</text><polygon fill="#181818" points="1071.8555,920.375,1081.8555,924.375,1071.8555,928.375,1075.8555,924.375" style="stroke:#181818;stroke-width:1;"/><line style="stroke:#181818;stroke-width:1;" x1="818.9414" x2="1077.8555" y1="924.375" y2="924.375"/><text fill="#000000" font-family="Helvetica" font-size="10" x="825.9414" y="920.0166">(18)</text><text fill="#000000" font-family="Helvetica" font-size="10" x="850.4688" y="920.0166">Weiterleitung der Anfrage mit Access-Token</text><polygon fill="#181818" points="829.9414,946.0156,819.9414,950.0156,829.9414,954.0156,825.9414,950.0156" style="stroke:#181818;stroke-width:1;"/><line style="stroke:#181818;stroke-width:1;stroke-dasharray:2,2;" x1="823.9414" x2="1082.8555" y1="950.0156" y2="950.0156"/><text fill="#000000" font-family="Helvetica" font-size="10" x="835.9414" y="945.6572">(19)</text><text fill="#000000" font-family="Helvetica" font-size="10" x="860.4688" y="945.6572">Antwort</text><polygon fill="#181818" points="455.4634,971.6563,445.4634,975.6563,455.4634,979.6563,451.4634,975.6563" style="stroke:#181818;stroke-width:1;"/><line style="stroke:#181818;stroke-width:1;stroke-dasharray:2,2;" x1="449.4634" x2="807.9414" y1="975.6563" y2="975.6563"/><text fill="#000000" font-family="Helvetica" font-size="10" x="461.4634" y="971.2979">(20)</text><text fill="#000000" font-family="Helvetica" font-size="10" x="485.9907" y="971.2979">Antwort</text><polygon fill="#181818" points="455.4634,1026.9375,445.4634,1030.9375,455.4634,1034.9375,451.4634,1030.9375" style="stroke:#181818;stroke-width:1;"/><line style="stroke:#181818;stroke-width:1;stroke-dasharray:2,2;" x1="449.4634" x2="807.9414" y1="1030.9375" y2="1030.9375"/><text fill="#000000" font-family="Helvetica" font-size="10" x="461.4634" y="1026.5791">(21)</text><text fill="#000000" font-family="Helvetica" font-size="10" x="485.9907" y="1026.5791">Fehler 401 Unauthorized</text><?plantuml-src dLRRSjis47tNLspSX_ecMxuaJJqUpr0YPQkrOewan5DFPZ8GkQ8GGO0AW7RiJhwbVUYND3_M1Kd9f2mhRXyiKy3PWzsp1qknr2gPJeUeOMEpqTZQg9a9bpEcsHHY7B5KsBQIjiyV40uQgpVViId21OfRj3nY9OoVOxfAAZDZ4SOBT4kbcgCkOGNAn8wz-7DgB4WbiRHdyFSKPOGz7A5s3qqMJHAjKXctb50QhiVSbWFwom6FDHokuEsYCIn1J_14KY8ZMnlp6C5O2bRsVeQrse_GL5yWSgUPsYigdak4cs3WVJf_x_NyJwshowiU_D1kju-2rml0PT2PxvoFbR5vdjNTRdZrBdWtcEE2u-2uVRp0XBrErmjw_T_wWw0xnrooMvGnoVU8klhGyOFUWiHl-q7BPHqoJKtXCoRjFFjJO-y5djNcrVkS9KwDFse0inBSVGVOUq3BYcU0PU6fuE1DgrNiNb8knRh_qy_DHYDR_vhppBIw9LNryrp-w-2jV_oKw-rXy-ZDcmMN-nDyXC9LdfEjzaELfYa8b8L_hPtk5nhKNiqqIwOCBAe7i3gbLW-fqHk33XpkDS3dACcFdXno93U0jx6aDH5cU6S5E4-PZXrcsHXPAcLjDoAjv6SrX5356y0C5DzRWWwqS7hgL3yxUneN-k57wQLsh3H_O9OhIMRNjwWp5hVHNnEDDigFSmzb7Dd9rV4qeeU6hcg4vLFkb9u8nU95ilFM4jMSg5PXIN1AkKwoQ7fUht7p1HetNwBnUgrkgFR-O9rQOK3n5uD12A5MN-wpg8lmUyq9bU3HFGGo8UjbCLUXzx-rdg_bIyzehN44ocrd_Tzr4f_0zdOF4swicxEfJ628V0fjfD1SYYvpymqshujkGYUcRd9xJvvKOcjxkyHBXBkk3CVw0RL5BXobkyqtQQBvQ6Je3OBHsFB4eeGvfm4c8UOqeCgYE6egd6fBK4o__VtjJvuGqq1DA3Ju4esPJ10sEtwnb11EWXT5DARpfIqd8rbuPuSUAbVdwGhKpt9TTdPEeAqq9MsXuzTpRYO9dr-REW4haVNwoG9OMqLRMAXCd6Uv8FyeDvVAclB7qrqPSnkMiuJpOF3FN_jxToX4VIBLdTnNCvGyhaTAZdYIvYsiP5xmk9ol24lYXVE1swMjc55VrXm7nGdxjmVxd-ycvZdkNwv_xLTfYiSJ-C04frwNrANg-_HAPJRLk-0D1Kj7kwvlUwvm9Ym4UgH4ef57Orp4axEokr4wWwpd4WsaDOJaCK4CaoCQtUGJRanALT8FYaToo2xTKkw1Jd0ekQiDXK6w36EH834Auf5h4bWsnaaMIcSUDuvSvuSyZZDrwKQkgeoKf15aIjHhoSiUAj1FhEVSVmBzMNR04zy9GpCaqcYVA_K_PUIqMrlm4jeDfkA2ctnwoOTyIcJkBrza2gw-JRBxk_I2MPHxoP5U57bbZegcUwNirAmClWYTURp2BuyfB1IcePx1oXvURi9txPgJLEUrE_SQwRU85lGv7vbhCe7bWL_F4dCTyAIbqkpYBDgebbg1lCZWpn1L-dq0xoKhtg4OPzJKNVeV8uiilwMvKks_w_w_?></g></svg>