<svg xmlns="http://www.w3.org/2000/svg" xmlns:xlink="http://www.w3.org/1999/xlink" contentStyleType="text/css" data-diagram-type="SEQUENCE" height="449px" preserveAspectRatio="none" style="width:1024px;height:449px;background:#FFFFFF;" version="1.1" viewBox="0 0 1024 449" width="1024px" zoomAndPan="magnify"><defs/><g><rect fill="#F8F8FF" height="437.6875" style="stroke:#181818;stroke-width:0.5;" width="558.7642" x="39.793" y="6"/><text fill="#000000" font-family="Helvetica" font-size="10" font-weight="bold" x="310.7131" y="15.2822">LEI</text><rect fill="#E6E6FA" height="421.0469" style="stroke:#181818;stroke-width:0.5;" width="395.6812" x="39.793" y="22.6406"/><text fill="#000000" font-family="Helvetica" font-size="10" font-weight="bold" x="198.5369" y="31.9229">Prim&#228;rsystem</text><rect fill="#F4A460" height="404.4063" style="stroke:#181818;stroke-width:0.5;" width="89" x="39.793" y="39.2813"/><text fill="#000000" font-family="Helvetica" font-size="10" font-weight="bold" x="51.793" y="48.5635">ZETA Client</text><rect fill="#C9FFC9" height="437.6875" style="stroke:#181818;stroke-width:0.5;" width="407.626" x="610.5571" y="6"/><text fill="#000000" font-family="Helvetica" font-size="10" font-weight="bold" x="790.0098" y="15.2822">Anbieter</text><rect fill="#F4A460" height="421.0469" style="stroke:#181818;stroke-width:0.5;" width="296.5625" x="610.5571" y="22.6406"/><text fill="#000000" font-family="Helvetica" font-size="10" font-weight="bold" x="725.6938" y="31.9229">ZETA Guard</text><rect fill="#8FBC8F" height="421.0469" style="stroke:#181818;stroke-width:0.5;" width="99.0635" x="919.1196" y="22.6406"/><text fill="#000000" font-family="Helvetica" font-size="10" font-weight="bold" x="931.1196" y="31.9229">TI 2.0 Dienst</text><g><title>User</title><rect fill="#000000" fill-opacity="0.00000" height="239.4844" width="8" x="15.8965" y="126.5625"/><line style="stroke:#181818;stroke-width:0.5;stroke-dasharray:5,5;" x1="19.3965" x2="19.3965" y1="126.5625" y2="366.0469"/></g><g><title>ZETA</title><rect fill="#000000" fill-opacity="0.00000" height="239.4844" width="8" x="80.793" y="126.5625"/><line style="stroke:#181818;stroke-width:0.5;stroke-dasharray:5,5;" x1="84.293" x2="84.293" y1="126.5625" y2="366.0469"/></g><g><title/><rect fill="#FFFFFF" height="203.8438" style="stroke:#181818;stroke-width:1;" width="10" x="79.293" y="162.2031"/></g><g><title>TPM</title><rect fill="#000000" fill-opacity="0.00000" height="239.4844" width="8" x="402.3525" y="126.5625"/><line style="stroke:#181818;stroke-width:0.5;stroke-dasharray:5,5;" x1="405.8525" x2="405.8525" y1="126.5625" y2="366.0469"/></g><g><title>Konnektor or</title><rect fill="#000000" fill-opacity="0.00000" height="239.4844" width="8" x="487.4009" y="126.5625"/><line style="stroke:#181818;stroke-width:0.5;stroke-dasharray:5,5;" x1="490.9009" x2="490.9009" y1="126.5625" y2="366.0469"/></g><g><title>SM.C.-B</title><rect fill="#000000" fill-opacity="0.00000" height="239.4844" width="8" x="563.9424" y="126.5625"/><line style="stroke:#181818;stroke-width:0.5;stroke-dasharray:5,5;" x1="567.4424" x2="567.4424" y1="126.5625" y2="366.0469"/></g><g><title>PEP</title><rect fill="#000000" fill-opacity="0.00000" height="239.4844" width="8" x="646.5776" y="126.5625"/><line style="stroke:#181818;stroke-width:0.5;stroke-dasharray:5,5;" x1="650.0776" x2="650.0776" y1="126.5625" y2="366.0469"/></g><g><title/><rect fill="#FFFFFF" height="25.6406" style="stroke:#181818;stroke-width:1;" width="10" x="645.0776" y="179.8438"/></g><g><title>PDP</title><rect fill="#000000" fill-opacity="0.00000" height="239.4844" width="8" x="750.5728" y="126.5625"/><line style="stroke:#181818;stroke-width:0.5;stroke-dasharray:5,5;" x1="754.0728" x2="754.0728" y1="126.5625" y2="366.0469"/></g><g><title/><rect fill="#FFFFFF" height="25.6406" style="stroke:#181818;stroke-width:1;" width="10" x="749.0728" y="269.7656"/></g><g><title>PDP</title><rect fill="#000000" fill-opacity="0.00000" height="239.4844" width="8" x="859.3335" y="126.5625"/><line style="stroke:#181818;stroke-width:0.5;stroke-dasharray:5,5;" x1="862.8335" x2="862.8335" y1="126.5625" y2="366.0469"/></g><g><title>Resource</title><rect fill="#000000" fill-opacity="0.00000" height="239.4844" width="8" x="965.1514" y="126.5625"/><line style="stroke:#181818;stroke-width:0.5;stroke-dasharray:5,5;" x1="968.6514" x2="968.6514" y1="126.5625" y2="366.0469"/></g><text fill="#000000" font-family="Helvetica" font-size="10" x="5" y="124.2041">User</text><ellipse cx="19.3965" cy="63.4219" fill="#E2E2F0" rx="8" ry="8" style="stroke:#181818;stroke-width:0.5;"/><path d="M19.3965,71.4219 L19.3965,98.4219 M6.3965,79.4219 L32.3965,79.4219 M19.3965,98.4219 L6.3965,113.4219 M19.3965,98.4219 L32.3965,113.4219" fill="none" style="stroke:#181818;stroke-width:0.5;"/><rect fill="#E2E2F0" height="37.2813" rx="2.5" ry="2.5" style="stroke:#181818;stroke-width:0.5;" width="42.9502" x="62.8179" y="88.2813"/><text fill="#000000" font-family="Helvetica" font-size="10" x="71.2339" y="104.5635">ZETA</text><text fill="#000000" font-family="Helvetica" font-size="10" x="69.8179" y="116.2041">Client</text><rect fill="#E2E2F0" height="25.6406" rx="2.5" ry="2.5" style="stroke:#181818;stroke-width:0.5;" width="34.7666" x="388.4692" y="99.9219"/><text fill="#000000" font-family="Helvetica" font-size="10" x="395.4692" y="116.2041">TPM</text><rect fill="#E2E2F0" height="37.2813" rx="2.5" ry="2.5" style="stroke:#181818;stroke-width:0.5;" width="78.8535" x="451.4741" y="88.2813"/><text fill="#000000" font-family="Helvetica" font-size="10" x="458.4741" y="104.5635">Konnektor or</text><text fill="#000000" font-family="Helvetica" font-size="10" x="462.4805" y="116.2041">TI-Gateway</text><rect fill="#E2E2F0" height="25.6406" rx="2.5" ry="2.5" style="stroke:#181818;stroke-width:0.5;" width="54.2295" x="540.3276" y="99.9219"/><text fill="#000000" font-family="Helvetica" font-size="10" x="547.3276" y="116.2041">SM(C)-B</text><rect fill="#E2E2F0" height="37.2813" rx="2.5" ry="2.5" style="stroke:#181818;stroke-width:0.5;" width="71.041" x="614.5571" y="88.2813"/><text fill="#000000" font-family="Helvetica" font-size="10" x="640.8882" y="104.5635">PEP</text><text fill="#000000" font-family="Helvetica" font-size="10" x="621.5571" y="116.2041">HTTP Proxy</text><rect fill="#E2E2F0" height="37.2813" rx="2.5" ry="2.5" style="stroke:#181818;stroke-width:0.5;" width="116.9492" x="695.5981" y="88.2813"/><text fill="#000000" font-family="Helvetica" font-size="10" x="744.1924" y="104.5635">PDP</text><text fill="#000000" font-family="Helvetica" font-size="10" x="702.5981" y="116.2041">Authorization Server</text><rect fill="#E2E2F0" height="37.2813" rx="2.5" ry="2.5" style="stroke:#181818;stroke-width:0.5;" width="80.5723" x="822.5474" y="88.2813"/><text fill="#000000" font-family="Helvetica" font-size="10" x="852.9531" y="104.5635">PDP</text><text fill="#000000" font-family="Helvetica" font-size="10" x="829.5474" y="116.2041">Policy Engine</text><rect fill="#E2E2F0" height="37.2813" rx="2.5" ry="2.5" style="stroke:#181818;stroke-width:0.5;" width="60.5283" x="938.3872" y="88.2813"/><text fill="#000000" font-family="Helvetica" font-size="10" x="945.3872" y="104.5635">Resource</text><text fill="#000000" font-family="Helvetica" font-size="10" x="952.2549" y="116.2041">Server</text><text fill="#000000" font-family="Helvetica" font-size="10" x="5" y="435.3291">User</text><ellipse cx="19.3965" cy="374.5469" fill="#E2E2F0" rx="8" ry="8" style="stroke:#181818;stroke-width:0.5;"/><path d="M19.3965,382.5469 L19.3965,409.5469 M6.3965,390.5469 L32.3965,390.5469 M19.3965,409.5469 L6.3965,424.5469 M19.3965,409.5469 L32.3965,424.5469" fill="none" style="stroke:#181818;stroke-width:0.5;"/><rect fill="#E2E2F0" height="37.2813" rx="2.5" ry="2.5" style="stroke:#181818;stroke-width:0.5;" width="42.9502" x="62.8179" y="366.0469"/><text fill="#000000" font-family="Helvetica" font-size="10" x="71.2339" y="382.3291">ZETA</text><text fill="#000000" font-family="Helvetica" font-size="10" x="69.8179" y="393.9697">Client</text><rect fill="#E2E2F0" height="25.6406" rx="2.5" ry="2.5" style="stroke:#181818;stroke-width:0.5;" width="34.7666" x="388.4692" y="366.0469"/><text fill="#000000" font-family="Helvetica" font-size="10" x="395.4692" y="382.3291">TPM</text><rect fill="#E2E2F0" height="37.2813" rx="2.5" ry="2.5" style="stroke:#181818;stroke-width:0.5;" width="78.8535" x="451.4741" y="366.0469"/><text fill="#000000" font-family="Helvetica" font-size="10" x="458.4741" y="382.3291">Konnektor or</text><text fill="#000000" font-family="Helvetica" font-size="10" x="462.4805" y="393.9697">TI-Gateway</text><rect fill="#E2E2F0" height="25.6406" rx="2.5" ry="2.5" style="stroke:#181818;stroke-width:0.5;" width="54.2295" x="540.3276" y="366.0469"/><text fill="#000000" font-family="Helvetica" font-size="10" x="547.3276" y="382.3291">SM(C)-B</text><rect fill="#E2E2F0" height="37.2813" rx="2.5" ry="2.5" style="stroke:#181818;stroke-width:0.5;" width="71.041" x="614.5571" y="366.0469"/><text fill="#000000" font-family="Helvetica" font-size="10" x="640.8882" y="382.3291">PEP</text><text fill="#000000" font-family="Helvetica" font-size="10" x="621.5571" y="393.9697">HTTP Proxy</text><rect fill="#E2E2F0" height="37.2813" rx="2.5" ry="2.5" style="stroke:#181818;stroke-width:0.5;" width="116.9492" x="695.5981" y="366.0469"/><text fill="#000000" font-family="Helvetica" font-size="10" x="744.1924" y="382.3291">PDP</text><text fill="#000000" font-family="Helvetica" font-size="10" x="702.5981" y="393.9697">Authorization Server</text><rect fill="#E2E2F0" height="37.2813" rx="2.5" ry="2.5" style="stroke:#181818;stroke-width:0.5;" width="80.5723" x="822.5474" y="366.0469"/><text fill="#000000" font-family="Helvetica" font-size="10" x="852.9531" y="382.3291">PDP</text><text fill="#000000" font-family="Helvetica" font-size="10" x="829.5474" y="393.9697">Policy Engine</text><rect fill="#E2E2F0" height="37.2813" rx="2.5" ry="2.5" style="stroke:#181818;stroke-width:0.5;" width="60.5283" x="938.3872" y="366.0469"/><text fill="#000000" font-family="Helvetica" font-size="10" x="945.3872" y="382.3291">Resource</text><text fill="#000000" font-family="Helvetica" font-size="10" x="952.2549" y="393.9697">Server</text><path d="M63.293,138.5625 L391.9307,138.5625 L391.9307,142.2031 L381.9307,152.2031 L63.293,152.2031 L63.293,138.5625" fill="#EEEEEE" style="stroke:#000000;stroke-width:1.5;"/><rect fill="none" height="203.4844" style="stroke:#000000;stroke-width:1.5;" width="711.7798" x="63.293" y="138.5625"/><text fill="#000000" font-family="Helvetica" font-size="10" font-weight="bold" x="78.293" y="148.8447">ZETA Client has Resource Server FQDN (RS-FQDN)</text><polygon fill="#181818" points="633.0776,175.8438,643.0776,179.8438,633.0776,183.8438,637.0776,179.8438" style="stroke:#181818;stroke-width:1;"/><line style="stroke:#181818;stroke-width:1;" x1="89.293" x2="639.0776" y1="179.8438" y2="179.8438"/><text fill="#000000" font-family="Helvetica" font-size="10" x="96.293" y="175.4854">(01)</text><text fill="#000000" font-family="Helvetica" font-size="10" x="120.8203" y="175.4854">GET /.well-known/oauth-protected-resource Host: RS-FQDN</text><polygon fill="#181818" points="100.293,201.4844,90.293,205.4844,100.293,209.4844,96.293,205.4844" style="stroke:#181818;stroke-width:1;"/><line style="stroke:#181818;stroke-width:1;stroke-dasharray:2,2;" x1="94.293" x2="644.0776" y1="205.4844" y2="205.4844"/><text fill="#000000" font-family="Helvetica" font-size="10" x="106.293" y="201.126">(02)</text><text fill="#000000" font-family="Helvetica" font-size="10" x="130.8203" y="201.126">Client: 200 OK; JSON body with Well-Known JSON Document (RFC9728)</text><line style="stroke:#181818;stroke-width:1;" x1="89.293" x2="131.293" y1="231.125" y2="231.125"/><line style="stroke:#181818;stroke-width:1;" x1="131.293" x2="131.293" y1="231.125" y2="244.125"/><line style="stroke:#181818;stroke-width:1;" x1="90.293" x2="131.293" y1="244.125" y2="244.125"/><polygon fill="#181818" points="100.293,240.125,90.293,244.125,100.293,248.125,96.293,244.125" style="stroke:#181818;stroke-width:1;"/><text fill="#000000" font-family="Helvetica" font-size="10" x="96.293" y="226.7666">(03)</text><text fill="#000000" font-family="Helvetica" font-size="10" x="120.8203" y="226.7666">Update Resource Server and ZETA Guard Configuration</text><polygon fill="#181818" points="737.0728,265.7656,747.0728,269.7656,737.0728,273.7656,741.0728,269.7656" style="stroke:#181818;stroke-width:1;"/><line style="stroke:#181818;stroke-width:1;" x1="89.293" x2="743.0728" y1="269.7656" y2="269.7656"/><text fill="#000000" font-family="Helvetica" font-size="10" x="96.293" y="265.4072">(04)</text><text fill="#000000" font-family="Helvetica" font-size="10" x="120.8203" y="265.4072">GET /.well-known/oauth-authorization-server&#160;Host: AuthS-FQDN</text><polygon fill="#181818" points="100.293,291.4063,90.293,295.4063,100.293,299.4063,96.293,295.4063" style="stroke:#181818;stroke-width:1;"/><line style="stroke:#181818;stroke-width:1;stroke-dasharray:2,2;" x1="94.293" x2="748.0728" y1="295.4063" y2="295.4063"/><text fill="#000000" font-family="Helvetica" font-size="10" x="106.293" y="291.0479">(05)</text><text fill="#000000" font-family="Helvetica" font-size="10" x="130.8203" y="291.0479">200 OK; JSON body with Well-Known JSON Document (RFC8414)</text><line style="stroke:#181818;stroke-width:1;" x1="89.293" x2="131.293" y1="321.0469" y2="321.0469"/><line style="stroke:#181818;stroke-width:1;" x1="131.293" x2="131.293" y1="321.0469" y2="334.0469"/><line style="stroke:#181818;stroke-width:1;" x1="90.293" x2="131.293" y1="334.0469" y2="334.0469"/><polygon fill="#181818" points="100.293,330.0469,90.293,334.0469,100.293,338.0469,96.293,334.0469" style="stroke:#181818;stroke-width:1;"/><text fill="#000000" font-family="Helvetica" font-size="10" x="96.293" y="316.6885">(06)</text><text fill="#000000" font-family="Helvetica" font-size="10" x="120.8203" y="316.6885">Update Authorization Server Configuration</text><!--SRC=[dLJRRjf047ttLqp9Gq38WQ18JLEf4XS7KWAus57KYfV5di0MUzTThqF8r_IXNzB-MCSNWe4ebVhajVUSCtDcZimIBKKIpb51fTfirYf6lE8YOeg5uEC3Im9zBOLs-3F2UVFrop4B4GOOFABc7YjXUZbc98MC8-QX_uBkoaHnL2LiW6AXbst_Un9h459WwIx67maA3wVuW2ezT9YtMYYP2Byh0wdWVibrcU0S4dOUMaRZz5z0lGaGvZBmZTE6OHZl8iKM8GEDyXcqIj0msfwcidSnMPZB9wZSMZSLEEalPQppNW2oxxRYuPzVAjx46aD2tB9753wn00h4DyjjGpVWA3JTEqpucuwIQv4X0AXD6YgFcD052bYSisQYe6LGaaq5ZKEIQuyo1ZrJu0vM1Wsb4BXABQNGtPjKC-7Uc7scSSqsbGEMC-faU6TKxTRCJiNOYkSpQOivHusARBbMTp2Ut4xwNusoxNx2b7_ikbnZO6SbRCkUYO7hsc0h-RIf7E7QYLuwERH7qFHLAlxCD9U2jgmUqpwEMBQrezWouDu6BB7W0lT7bVVita3hh0azcZb5zAJ7rCf1rbU8horhcdSpnPYYxk5C54tiBUjbO6cO8oXb0PR4tf8B0t3zfJU6wjGnqqEDb0filRuxcv_IcTNhS0LzouN6sHg3m5m96cv3CXgB6IcfqTFecsghFw3SNa4XJ5gaO9BGLj8aiVny1Qrc4oR3Z_3PcOofTty3QwwNS9zM6QPLyfkUz98m9LUdrzqFxrkNjRqMjsftaK_PEZ9AUO1TGkXl8Hxu8b7PDlTqyhM_vPQLas36cVxldxdXZBtrd4iTsluVkvSNvnTlsdqjdGScAHd6Nm00]--></g></svg>