<?xml version="1.0" encoding="us-ascii" standalone="no"?><svg xmlns="http://www.w3.org/2000/svg" xmlns:xlink="http://www.w3.org/1999/xlink" contentStyleType="text/css" height="1063px" preserveAspectRatio="none" style="width:991px;height:1063px;background:#FFFFFF;" version="1.1" viewBox="0 0 991 1063" width="991px" zoomAndPan="magnify"><defs/><g><rect fill="#F8F8FF" height="1012.6563" style="stroke:#181818;stroke-width:0.5;" width="651.5" x="39" y="44.6094"/><text fill="#000000" font-family="Helvetica" font-size="10" font-weight="bold" x="356.75" y="54.9902">LEI</text><rect fill="#E6E6FA" height="995.0781" style="stroke:#181818;stroke-width:0.5;" width="651.5" x="39" y="62.1875"/><text fill="#000000" font-family="Helvetica" font-size="10" font-weight="bold" x="330.75" y="72.5684">Prim&#228;rsystem</text><rect fill="#F4A460" height="977.5" style="stroke:#181818;stroke-width:0.5;" width="85" x="338.5" y="79.7656"/><text fill="#000000" font-family="Helvetica" font-size="10" font-weight="bold" x="350.5" y="90.1465">ZAS Attester</text><rect fill="#F4A460" height="977.5" style="stroke:#181818;stroke-width:0.5;" width="87" x="603.5" y="79.7656"/><text fill="#000000" font-family="Helvetica" font-size="10" font-weight="bold" x="619" y="90.1465">ZETA Client</text><text fill="#000000" font-family="Helvetica" font-size="14" font-weight="bold" x="383" y="29.5332">Client Installation &amp; Baseline-Etablierung</text><line style="stroke:#181818;stroke-width:0.5;stroke-dasharray:5.0,5.0;" x1="75" x2="75" y1="136.5" y2="1011.1094"/><rect fill="#FFFFFF" height="225.625" style="stroke:#181818;stroke-width:1.0;" width="10" x="70" y="407.7031"/><rect fill="#FFFFFF" height="79.7344" style="stroke:#181818;stroke-width:1.0;" width="10" x="70" y="696.4844"/><line style="stroke:#181818;stroke-width:0.5;stroke-dasharray:5.0,5.0;" x1="381" x2="381" y1="136.5" y2="1011.1094"/><rect fill="#FFFFFF" height="838.0313" style="stroke:#181818;stroke-width:1.0;" width="10" x="376" y="173.0781"/><line style="stroke:#181818;stroke-width:0.5;stroke-dasharray:5.0,5.0;" x1="647" x2="647" y1="136.5" y2="1011.1094"/><rect fill="#FFFFFF" height="798.4531" style="stroke:#181818;stroke-width:1.0;" width="10" x="642" y="212.6563"/><rect fill="#E2E2F0" height="39.1563" rx="2.5" ry="2.5" style="stroke:#181818;stroke-width:0.5;" width="64" x="43" y="96.3438"/><text fill="#000000" font-family="Helvetica" font-size="10" x="52" y="113.7246">TPM / SE</text><text fill="#000000" font-family="Helvetica" font-size="10" x="50" y="126.3027">(Hardware)</text><rect fill="#E2E2F0" height="39.1563" rx="2.5" ry="2.5" style="stroke:#181818;stroke-width:0.5;" width="55" x="353.5" y="96.3438"/><text fill="#000000" font-family="Helvetica" font-size="10" x="371" y="113.7246">ZAS</text><text fill="#000000" font-family="Helvetica" font-size="10" x="360.5" y="126.3027">(Attester)</text><rect fill="#E2E2F0" height="39.1563" rx="2.5" ry="2.5" style="stroke:#181818;stroke-width:0.5;" width="79" x="607.5" y="96.3438"/><text fill="#000000" font-family="Helvetica" font-size="10" x="614.5" y="113.7246">PS und ZETA</text><text fill="#000000" font-family="Helvetica" font-size="10" x="633" y="126.3027">Client</text><rect fill="#E2E2F0" height="39.1563" rx="2.5" ry="2.5" style="stroke:#181818;stroke-width:0.5;" width="64" x="43" y="1011.1094"/><text fill="#000000" font-family="Helvetica" font-size="10" x="52" y="1028.4902">TPM / SE</text><text fill="#000000" font-family="Helvetica" font-size="10" x="50" y="1041.0684">(Hardware)</text><rect fill="#E2E2F0" height="39.1563" rx="2.5" ry="2.5" style="stroke:#181818;stroke-width:0.5;" width="55" x="353.5" y="1011.1094"/><text fill="#000000" font-family="Helvetica" font-size="10" x="371" y="1028.4902">ZAS</text><text fill="#000000" font-family="Helvetica" font-size="10" x="360.5" y="1041.0684">(Attester)</text><rect fill="#E2E2F0" height="39.1563" rx="2.5" ry="2.5" style="stroke:#181818;stroke-width:0.5;" width="79" x="607.5" y="1011.1094"/><text fill="#000000" font-family="Helvetica" font-size="10" x="614.5" y="1028.4902">PS und ZETA</text><text fill="#000000" font-family="Helvetica" font-size="10" x="633" y="1041.0684">Client</text><path d="M8,148.5 L65,148.5 L65,153.0781 L55,163.0781 L8,163.0781 L8,148.5 " fill="#EEEEEE" style="stroke:#000000;stroke-width:1.5;"/><rect fill="none" height="838.6094" style="stroke:#000000;stroke-width:1.5;" width="976" x="8" y="148.5"/><text fill="#000000" font-family="Helvetica" font-size="10" font-weight="bold" x="23" y="159.8809">alt</text><text fill="#000000" font-family="Helvetica" font-size="10" font-weight="bold" x="80" y="160.8809">[Hardware Attestation (TPM / SE)]</text><line style="stroke:#000000;stroke-width:1.0;stroke-dasharray:2.0,2.0;" x1="8" x2="984" y1="809.2188" y2="809.2188"/><text fill="#000000" font-family="Helvetica" font-size="10" font-weight="bold" x="13" y="821.5996">[Software Attestation (Fallback)]</text><line style="stroke:#181818;stroke-width:1.0;stroke-dasharray:2.0,2.0;" x1="386" x2="428" y1="191.6563" y2="191.6563"/><line style="stroke:#181818;stroke-width:1.0;stroke-dasharray:2.0,2.0;" x1="428" x2="428" y1="191.6563" y2="204.6563"/><line style="stroke:#181818;stroke-width:1.0;stroke-dasharray:2.0,2.0;" x1="387" x2="428" y1="204.6563" y2="204.6563"/><polygon fill="#181818" points="397,200.6563,387,204.6563,397,208.6563,393,204.6563" style="stroke:#181818;stroke-width:1.0;"/><text fill="#000000" font-family="Helvetica" font-size="10" x="393" y="187.459">(01)</text><text fill="#000000" font-family="Helvetica" font-size="10" x="415" y="187.459">Installation (als Root/Admin)</text><line style="stroke:#181818;stroke-width:1.0;stroke-dasharray:2.0,2.0;" x1="652" x2="694" y1="231.2344" y2="231.2344"/><line style="stroke:#181818;stroke-width:1.0;stroke-dasharray:2.0,2.0;" x1="694" x2="694" y1="231.2344" y2="244.2344"/><line style="stroke:#181818;stroke-width:1.0;stroke-dasharray:2.0,2.0;" x1="653" x2="694" y1="244.2344" y2="244.2344"/><polygon fill="#181818" points="663,240.2344,653,244.2344,663,248.2344,659,244.2344" style="stroke:#181818;stroke-width:1.0;"/><text fill="#000000" font-family="Helvetica" font-size="10" x="659" y="227.0371">(02)</text><text fill="#000000" font-family="Helvetica" font-size="10" x="681" y="227.0371">Installation (User Space)</text><path d="M365,256.2344 L715,256.2344 L715,260.8125 L705,270.8125 L365,270.8125 L365,256.2344 " fill="#EEEEEE" style="stroke:#000000;stroke-width:1.5;"/><rect fill="none" height="77.7344" style="stroke:#000000;stroke-width:1.5;" width="366" x="365" y="256.2344"/><text fill="#000000" font-family="Helvetica" font-size="10" font-weight="bold" x="380" y="267.6152">Vertrauensbeziehung zwischen ZAS und Client wird aufgebaut</text><polygon fill="#181818" points="630,295.3906,640,299.3906,630,303.3906,634,299.3906" style="stroke:#181818;stroke-width:1.0;"/><line style="stroke:#181818;stroke-width:1.0;" x1="386" x2="636" y1="299.3906" y2="299.3906"/><text fill="#000000" font-family="Helvetica" font-size="10" x="393" y="295.1934">(03)</text><text fill="#000000" font-family="Helvetica" font-size="10" x="415" y="295.1934">&#160;</text><polygon fill="#181818" points="397,321.9688,387,325.9688,397,329.9688,393,325.9688" style="stroke:#181818;stroke-width:1.0;"/><line style="stroke:#181818;stroke-width:1.0;stroke-dasharray:2.0,2.0;" x1="391" x2="641" y1="325.9688" y2="325.9688"/><text fill="#000000" font-family="Helvetica" font-size="10" x="403" y="321.7715">(04)</text><text fill="#000000" font-family="Helvetica" font-size="10" x="425" y="321.7715">&#160;</text><path d="M27,351.9688 L84,351.9688 L84,356.5469 L74,366.5469 L27,366.5469 L27,351.9688 " fill="#EEEEEE" style="stroke:#000000;stroke-width:1.5;"/><rect fill="none" height="432.25" style="stroke:#000000;stroke-width:1.5;" width="671" x="27" y="351.9688"/><text fill="#000000" font-family="Helvetica" font-size="10" font-weight="bold" x="42" y="363.3496">alt</text><text fill="#000000" font-family="Helvetica" font-size="10" font-weight="bold" x="99" y="364.3496">[Windows / Linux (TPM)]</text><line style="stroke:#000000;stroke-width:1.0;stroke-dasharray:2.0,2.0;" x1="27" x2="698" y1="658.3281" y2="658.3281"/><text fill="#000000" font-family="Helvetica" font-size="10" font-weight="bold" x="32" y="670.709">[macOS (Secure Enclave)]</text><polygon fill="#181818" points="91,403.7031,81,407.7031,91,411.7031,87,407.7031" style="stroke:#181818;stroke-width:1.0;"/><line style="stroke:#181818;stroke-width:1.0;" x1="85" x2="641" y1="407.7031" y2="407.7031"/><text fill="#000000" font-family="Helvetica" font-size="10" x="97" y="397.2168">(05)</text><text fill="#000000" font-family="Helvetica" font-size="10" x="119" y="390.9277">Generiere PrK.Client.Sig, PuK.Client.Sig</text><text fill="#000000" font-family="Helvetica" font-size="10" x="119" y="403.5059">via OS-Provider (z.B. MS CNG)</text><polygon fill="#181818" points="630,430.2813,640,434.2813,630,438.2813,634,434.2813" style="stroke:#181818;stroke-width:1.0;"/><line style="stroke:#181818;stroke-width:1.0;stroke-dasharray:2.0,2.0;" x1="80" x2="636" y1="434.2813" y2="434.2813"/><text fill="#000000" font-family="Helvetica" font-size="10" x="87" y="430.084">(06)</text><text fill="#000000" font-family="Helvetica" font-size="10" x="109" y="430.084">PuK.Client.Sig, Handle_PrK.Client.Sig</text><line style="stroke:#181818;stroke-width:1.0;stroke-dasharray:2.0,2.0;" x1="386" x2="428" y1="460.8594" y2="460.8594"/><line style="stroke:#181818;stroke-width:1.0;stroke-dasharray:2.0,2.0;" x1="428" x2="428" y1="460.8594" y2="473.8594"/><line style="stroke:#181818;stroke-width:1.0;stroke-dasharray:2.0,2.0;" x1="387" x2="428" y1="473.8594" y2="473.8594"/><polygon fill="#181818" points="397,469.8594,387,473.8594,397,477.8594,393,473.8594" style="stroke:#181818;stroke-width:1.0;"/><text fill="#000000" font-family="Helvetica" font-size="10" x="393" y="456.6621">(07)</text><text fill="#000000" font-family="Helvetica" font-size="10" x="415" y="456.6621">Messung des PS &amp; Vergleich mit Hersteller-Wert</text><polygon fill="#181818" points="91,496.4375,81,500.4375,91,504.4375,87,500.4375" style="stroke:#181818;stroke-width:1.0;"/><line style="stroke:#181818;stroke-width:1.0;" x1="85" x2="375" y1="500.4375" y2="500.4375"/><text fill="#000000" font-family="Helvetica" font-size="10" x="97" y="496.2402">(08)</text><text fill="#000000" font-family="Helvetica" font-size="10" x="119" y="496.2402">TPM2_CreatePrimary() &#8594; Storage Root Key (SRK)</text><polygon fill="#181818" points="91,523.0156,81,527.0156,91,531.0156,87,527.0156" style="stroke:#181818;stroke-width:1.0;"/><line style="stroke:#181818;stroke-width:1.0;" x1="85" x2="375" y1="527.0156" y2="527.0156"/><text fill="#000000" font-family="Helvetica" font-size="10" x="97" y="522.8184">(09)</text><text fill="#000000" font-family="Helvetica" font-size="10" x="119" y="522.8184">TPM2_Create(SRK, restricted=sign, fixedTPM=true)</text><polygon fill="#181818" points="364,549.5938,374,553.5938,364,557.5938,368,553.5938" style="stroke:#181818;stroke-width:1.0;"/><line style="stroke:#181818;stroke-width:1.0;stroke-dasharray:2.0,2.0;" x1="80" x2="370" y1="553.5938" y2="553.5938"/><text fill="#000000" font-family="Helvetica" font-size="10" x="87" y="549.3965">(10)</text><text fill="#000000" font-family="Helvetica" font-size="10" x="109" y="549.3965">PuK.AK.Sig, PrK.AK.Sig (blob)</text><polygon fill="#181818" points="91,576.1719,81,580.1719,91,584.1719,87,580.1719" style="stroke:#181818;stroke-width:1.0;"/><line style="stroke:#181818;stroke-width:1.0;" x1="85" x2="375" y1="580.1719" y2="580.1719"/><text fill="#000000" font-family="Helvetica" font-size="10" x="97" y="575.9746">(11)</text><text fill="#000000" font-family="Helvetica" font-size="10" x="119" y="575.9746">TPM2_Load(SRK, PrK.AK.Sig, PuK.AK.Sig)</text><polygon fill="#181818" points="364,602.75,374,606.75,364,610.75,368,606.75" style="stroke:#181818;stroke-width:1.0;"/><line style="stroke:#181818;stroke-width:1.0;stroke-dasharray:2.0,2.0;" x1="80" x2="370" y1="606.75" y2="606.75"/><text fill="#000000" font-family="Helvetica" font-size="10" x="87" y="602.5527">(12)</text><text fill="#000000" font-family="Helvetica" font-size="10" x="109" y="602.5527">Handle_PrK.AK.Sig</text><polygon fill="#181818" points="91,629.3281,81,633.3281,91,637.3281,87,633.3281" style="stroke:#181818;stroke-width:1.0;"/><line style="stroke:#181818;stroke-width:1.0;" x1="85" x2="375" y1="633.3281" y2="633.3281"/><text fill="#000000" font-family="Helvetica" font-size="10" x="97" y="629.1309">(13)</text><text fill="#000000" font-family="Helvetica" font-size="10" x="119" y="629.1309">TPM2_PCR_Extend(23, Messwerte)</text><path d="M391,619.75 L391,641.75 L677,641.75 L677,629.75 L667,619.75 L391,619.75 " fill="#FEFFDD" style="stroke:#181818;stroke-width:0.5;"/><path d="M667,619.75 L667,629.75 L677,629.75 L667,619.75 " fill="#FEFFDD" style="stroke:#181818;stroke-width:0.5;"/><text fill="#000000" font-family="Helvetica" font-size="10" x="397" y="635.1309">PCR_23 K&#246;nnte belegt sein; muss vorher gepr&#252;ft werden</text><polygon fill="#181818" points="91,692.4844,81,696.4844,91,700.4844,87,696.4844" style="stroke:#181818;stroke-width:1.0;"/><line style="stroke:#181818;stroke-width:1.0;" x1="85" x2="641" y1="696.4844" y2="696.4844"/><text fill="#000000" font-family="Helvetica" font-size="10" x="97" y="692.2871">(14)</text><text fill="#000000" font-family="Helvetica" font-size="10" x="119" y="692.2871">SecKeyCreateRandomKey (f&#252;r PrK.Client.Sig, PuK.Client.Sig in SE)</text><polygon fill="#181818" points="630,719.0625,640,723.0625,630,727.0625,634,723.0625" style="stroke:#181818;stroke-width:1.0;"/><line style="stroke:#181818;stroke-width:1.0;stroke-dasharray:2.0,2.0;" x1="80" x2="636" y1="723.0625" y2="723.0625"/><text fill="#000000" font-family="Helvetica" font-size="10" x="87" y="718.8652">(15)</text><text fill="#000000" font-family="Helvetica" font-size="10" x="109" y="718.8652">PuK.Client.Sig, Handle_PrK.Client.Sig</text><polygon fill="#181818" points="91,745.6406,81,749.6406,91,753.6406,87,749.6406" style="stroke:#181818;stroke-width:1.0;"/><line style="stroke:#181818;stroke-width:1.0;" x1="85" x2="375" y1="749.6406" y2="749.6406"/><text fill="#000000" font-family="Helvetica" font-size="10" x="97" y="745.4434">(16)</text><text fill="#000000" font-family="Helvetica" font-size="10" x="119" y="745.4434">SecKeyCreateRandomKey (f&#252;r Attestation Key in SE)</text><polygon fill="#181818" points="364,772.2188,374,776.2188,364,780.2188,368,776.2188" style="stroke:#181818;stroke-width:1.0;"/><line style="stroke:#181818;stroke-width:1.0;stroke-dasharray:2.0,2.0;" x1="80" x2="370" y1="776.2188" y2="776.2188"/><text fill="#000000" font-family="Helvetica" font-size="10" x="87" y="772.0215">(17)</text><text fill="#000000" font-family="Helvetica" font-size="10" x="109" y="772.0215">PuK.AK.Sig, Handle_PrK.AK.Sig</text><line style="stroke:#181818;stroke-width:1.0;stroke-dasharray:2.0,2.0;" x1="652" x2="694" y1="847.375" y2="847.375"/><line style="stroke:#181818;stroke-width:1.0;stroke-dasharray:2.0,2.0;" x1="694" x2="694" y1="847.375" y2="860.375"/><line style="stroke:#181818;stroke-width:1.0;stroke-dasharray:2.0,2.0;" x1="653" x2="694" y1="860.375" y2="860.375"/><polygon fill="#181818" points="663,856.375,653,860.375,663,864.375,659,860.375" style="stroke:#181818;stroke-width:1.0;"/><text fill="#000000" font-family="Helvetica" font-size="10" x="659" y="843.1777">(18)</text><text fill="#000000" font-family="Helvetica" font-size="10" x="681" y="843.1777">Installation (User Space)</text><line style="stroke:#181818;stroke-width:1.0;" x1="652" x2="694" y1="886.9531" y2="886.9531"/><line style="stroke:#181818;stroke-width:1.0;" x1="694" x2="694" y1="886.9531" y2="899.9531"/><line style="stroke:#181818;stroke-width:1.0;" x1="653" x2="694" y1="899.9531" y2="899.9531"/><polygon fill="#181818" points="663,895.9531,653,899.9531,663,903.9531,659,899.9531" style="stroke:#181818;stroke-width:1.0;"/><text fill="#000000" font-family="Helvetica" font-size="10" x="659" y="882.7559">(19)</text><text fill="#000000" font-family="Helvetica" font-size="10" x="681" y="882.7559">Generiere PrK.Client.Sig, PuK.Client.Sig lokal im RAM/Disk</text><line style="stroke:#181818;stroke-width:1.0;stroke-dasharray:2.0,2.0;" x1="652" x2="694" y1="926.5313" y2="926.5313"/><line style="stroke:#181818;stroke-width:1.0;stroke-dasharray:2.0,2.0;" x1="694" x2="694" y1="926.5313" y2="939.5313"/><line style="stroke:#181818;stroke-width:1.0;stroke-dasharray:2.0,2.0;" x1="653" x2="694" y1="939.5313" y2="939.5313"/><polygon fill="#181818" points="663,935.5313,653,939.5313,663,943.5313,659,939.5313" style="stroke:#181818;stroke-width:1.0;"/><text fill="#000000" font-family="Helvetica" font-size="10" x="659" y="922.334">(20)</text><text fill="#000000" font-family="Helvetica" font-size="10" x="681" y="922.334">Lokale Messung des PS (Dateihashes ermitteln)</text><line style="stroke:#181818;stroke-width:1.0;" x1="652" x2="694" y1="966.1094" y2="966.1094"/><line style="stroke:#181818;stroke-width:1.0;" x1="694" x2="694" y1="966.1094" y2="979.1094"/><line style="stroke:#181818;stroke-width:1.0;" x1="653" x2="694" y1="979.1094" y2="979.1094"/><polygon fill="#181818" points="663,975.1094,653,979.1094,663,983.1094,659,979.1094" style="stroke:#181818;stroke-width:1.0;"/><text fill="#000000" font-family="Helvetica" font-size="10" x="659" y="961.9121">(21)</text><text fill="#000000" font-family="Helvetica" font-size="10" x="681" y="961.9121">Speichere Baseline-Hash lokal &amp; sicher ab</text><!--SRC=[hLLHRjiu4FtNAMQzG20ZLf9D_r8qWEEuIM6xDQpk1bW422XfB753aLwIiXCVe0Ve6Ng6_UfVRh8dwL2oOjc9qwAeFsnQd7byVFDcn0ghP957gA7b7nsrMvwvvNB6DCiXmIahX7shf0tv4k6Fe-SttxCSuHB572sFMIFcl8ePAQdCZCMOF4RtLA4vwaQiG9dQh9lyKnWBKabix1dyjq0PumIdgDtYZCMtgLQ5J7fAA0rN6RVDX70xONs7usTmHsWCIx4hU2g9oDHwdkLM44t1KLfu9urbGZ3BbOGzE6C61PSOz2sBA48NClMytsQQfJa3Yse9LXVeUP6wWzQm_wu5lrzaojYA9a3vVAnv_l15ctjZCQU88PkZJ4WJe0_n8otvZD7fhO_Z4Hn2sB-M_YNJoO9fRBU06Q2DChh4-xiRGjTQ93XDS26JoVsPLWjPXZm1fN32gnCgF7fM1XCFXzd0xd_ihiJu0UXn25GPS4dNiiuY-6hPFC4jlVLvzIzzcB1GNtPrhKf-lrQZNG8HvVtzUWL1SEf-JpOhvZDXOAAKFUmcEPTLOaLcbRkgiqklbji8VnfgaD1vkCfsvfl1NwYjPcGX4-6IOqO-WEM2cpX3MV9nCgom5rmdm8ffYX4hxADm9UlJfZHRV1erySg5K-QAoqGj3EamvBAuAqLfFya-TGRPtp-12vJesWrXh0S7rVP1oDCEZ8lc_sivvmm-XC5OgpadBuA_F3WxW548lVSNwmDS2PfQRQ9qg70o4NYpUTZcbUj2kTPpiYLeW7opvpHD1V8uWvoJ1L2JFOL07LoHsDko4P4JztLyqzF8BBgUOlhURyF_dpv3Q1Mr99QbXm7UWnzE1ktlORYW3cWodEQnnUIDeQdGWIc_muJ2thZMVYf5UHcdGtUmKbRNQ_0ZeQ8NpXqgbbIdhfCw3R0TfpLKhk9sdp3kJMxwTvOyv1-_wfIYBqZEnZsaiWYQfvah9qKVluB1mtzIqjC81QQMXYMNho4lZ86vqXcP8yMPVlWw9M-ZJiZnJPf1KBbM68ISnHz24X_ZWYpObx6WKVU2NIcGgbLLOqANL7bPlEd3L_qT0mENZvFX5nbr9UDBd9hZoJtTGOBWWc3J9C-Ni6prKhbGJUtJ2VYMvb94Ry3spyskjTvr_8_E1n3gbWdWEKoweyDpRcvtCHYwGDpkRl-SrECPCndzHqqDJhqjTx4APsuCE5QFBznBIbsHs0DJxWABt7l3-mO0]--></g></svg>