<svg xmlns="http://www.w3.org/2000/svg" xmlns:xlink="http://www.w3.org/1999/xlink" contentStyleType="text/css" data-diagram-type="SEQUENCE" height="885px" preserveAspectRatio="none" style="width:782px;height:885px;background:#FFFFFF;" version="1.1" viewBox="0 0 782 885" width="782px" zoomAndPan="magnify"><defs/><g><rect fill="#F8F8FF" height="873.2969" style="stroke:#181818;stroke-width:0.5;" width="102.1934" x="39.793" y="6"/><text fill="#000000" font-family="Helvetica" font-size="10" font-weight="bold" x="82.4277" y="15.2822">LEI</text><rect fill="#E6E6FA" height="856.6563" style="stroke:#181818;stroke-width:0.5;" width="102.1934" x="39.793" y="22.6406"/><text fill="#000000" font-family="Helvetica" font-size="10" font-weight="bold" x="51.793" y="31.9229">Prim&#228;rsystem</text><rect fill="#F4A460" height="840.0156" style="stroke:#181818;stroke-width:0.5;" width="102.1934" x="39.793" y="39.2813"/><text fill="#000000" font-family="Helvetica" font-size="10" font-weight="bold" x="58.3896" y="48.5635">ZETA Client</text><rect fill="#C9FFC9" height="873.2969" style="stroke:#181818;stroke-width:0.5;" width="205.9902" x="486.3369" y="6"/><text fill="#000000" font-family="Helvetica" font-size="10" font-weight="bold" x="527.4399" y="15.2822">Anbieter TI 2.0 Dienst</text><rect fill="#F4A460" height="856.6563" style="stroke:#181818;stroke-width:0.5;" width="205.9902" x="486.3369" y="22.6406"/><text fill="#000000" font-family="Helvetica" font-size="10" font-weight="bold" x="556.1875" y="31.9229">ZETA Guard</text><g><title>User</title><rect fill="#000000" fill-opacity="0.00000" height="675.0938" width="8" x="15.8965" y="126.5625"/><line style="stroke:#181818;stroke-width:0.5;stroke-dasharray:5,5;" x1="19.3965" x2="19.3965" y1="126.5625" y2="801.6563"/></g><g><title>ZETA</title><rect fill="#000000" fill-opacity="0.00000" height="675.0938" width="8" x="87.3896" y="126.5625"/><line style="stroke:#181818;stroke-width:0.5;stroke-dasharray:5,5;" x1="90.8896" x2="90.8896" y1="126.5625" y2="801.6563"/></g><g><title/><rect fill="#FFFFFF" height="596.1719" style="stroke:#181818;stroke-width:1;" width="10" x="85.8896" y="205.4844"/></g><g><title>PEP</title><rect fill="#000000" fill-opacity="0.00000" height="675.0938" width="8" x="522.3574" y="126.5625"/><line style="stroke:#181818;stroke-width:0.5;stroke-dasharray:5,5;" x1="525.8574" x2="525.8574" y1="126.5625" y2="801.6563"/></g><g><title/><rect fill="#FFFFFF" height="25.6406" style="stroke:#181818;stroke-width:1;" width="10" x="520.8574" y="223.125"/></g><g><title/><rect fill="#FFFFFF" height="25.6406" style="stroke:#181818;stroke-width:1;" width="10" x="520.8574" y="302.0469"/></g><g><title/><rect fill="#FFFFFF" height="25.6406" style="stroke:#181818;stroke-width:1;" width="10" x="520.8574" y="615.4531"/></g><g><title>PDP</title><rect fill="#000000" fill-opacity="0.00000" height="675.0938" width="8" x="626.3525" y="126.5625"/><line style="stroke:#181818;stroke-width:0.5;stroke-dasharray:5,5;" x1="629.8525" x2="629.8525" y1="126.5625" y2="801.6563"/></g><g><title/><rect fill="#FFFFFF" height="25.6406" style="stroke:#181818;stroke-width:1;" width="10" x="624.8525" y="705.375"/></g><g><title>OpenID</title><rect fill="#000000" fill-opacity="0.00000" height="675.0938" width="8" x="738.7266" y="126.5625"/><line style="stroke:#181818;stroke-width:0.5;stroke-dasharray:5,5;" x1="742.2266" x2="742.2266" y1="126.5625" y2="801.6563"/></g><g><title/><rect fill="#FFFFFF" height="76.9219" style="stroke:#181818;stroke-width:1;" width="10" x="737.2266" y="405.9688"/></g><text fill="#000000" font-family="Helvetica" font-size="10" x="5" y="124.2041">User</text><ellipse cx="19.3965" cy="63.4219" fill="#E2E2F0" rx="8" ry="8" style="stroke:#181818;stroke-width:0.5;"/><path d="M19.3965,71.4219 L19.3965,98.4219 M6.3965,79.4219 L32.3965,79.4219 M19.3965,98.4219 L6.3965,113.4219 M19.3965,98.4219 L32.3965,113.4219" fill="none" style="stroke:#181818;stroke-width:0.5;"/><rect fill="#E2E2F0" height="37.2813" rx="2.5" ry="2.5" style="stroke:#181818;stroke-width:0.5;" width="42.9502" x="69.4146" y="88.2813"/><text fill="#000000" font-family="Helvetica" font-size="10" x="77.8306" y="104.5635">ZETA</text><text fill="#000000" font-family="Helvetica" font-size="10" x="76.4146" y="116.2041">Client</text><rect fill="#E2E2F0" height="37.2813" rx="2.5" ry="2.5" style="stroke:#181818;stroke-width:0.5;" width="71.041" x="490.3369" y="88.2813"/><text fill="#000000" font-family="Helvetica" font-size="10" x="516.668" y="104.5635">PEP</text><text fill="#000000" font-family="Helvetica" font-size="10" x="497.3369" y="116.2041">HTTP Proxy</text><rect fill="#E2E2F0" height="37.2813" rx="2.5" ry="2.5" style="stroke:#181818;stroke-width:0.5;" width="116.9492" x="571.3779" y="88.2813"/><text fill="#000000" font-family="Helvetica" font-size="10" x="619.9722" y="104.5635">PDP</text><text fill="#000000" font-family="Helvetica" font-size="10" x="578.3779" y="116.2041">Authorization Server</text><rect fill="#E2E2F0" height="48.9219" rx="2.5" ry="2.5" style="stroke:#181818;stroke-width:0.5;" width="67.7988" x="708.3271" y="76.6406"/><text fill="#000000" font-family="Helvetica" font-size="10" x="723.5474" y="92.9229">OpenID</text><text fill="#000000" font-family="Helvetica" font-size="10" x="715.3271" y="104.5635">Federation</text><text fill="#000000" font-family="Helvetica" font-size="10" x="725.1514" y="116.2041">Master</text><text fill="#000000" font-family="Helvetica" font-size="10" x="5" y="870.9385">User</text><ellipse cx="19.3965" cy="810.1563" fill="#E2E2F0" rx="8" ry="8" style="stroke:#181818;stroke-width:0.5;"/><path d="M19.3965,818.1563 L19.3965,845.1563 M6.3965,826.1563 L32.3965,826.1563 M19.3965,845.1563 L6.3965,860.1563 M19.3965,845.1563 L32.3965,860.1563" fill="none" style="stroke:#181818;stroke-width:0.5;"/><rect fill="#E2E2F0" height="37.2813" rx="2.5" ry="2.5" style="stroke:#181818;stroke-width:0.5;" width="42.9502" x="69.4146" y="801.6563"/><text fill="#000000" font-family="Helvetica" font-size="10" x="77.8306" y="817.9385">ZETA</text><text fill="#000000" font-family="Helvetica" font-size="10" x="76.4146" y="829.5791">Client</text><rect fill="#E2E2F0" height="37.2813" rx="2.5" ry="2.5" style="stroke:#181818;stroke-width:0.5;" width="71.041" x="490.3369" y="801.6563"/><text fill="#000000" font-family="Helvetica" font-size="10" x="516.668" y="817.9385">PEP</text><text fill="#000000" font-family="Helvetica" font-size="10" x="497.3369" y="829.5791">HTTP Proxy</text><rect fill="#E2E2F0" height="37.2813" rx="2.5" ry="2.5" style="stroke:#181818;stroke-width:0.5;" width="116.9492" x="571.3779" y="801.6563"/><text fill="#000000" font-family="Helvetica" font-size="10" x="619.9722" y="817.9385">PDP</text><text fill="#000000" font-family="Helvetica" font-size="10" x="578.3779" y="829.5791">Authorization Server</text><rect fill="#E2E2F0" height="48.9219" rx="2.5" ry="2.5" style="stroke:#181818;stroke-width:0.5;" width="67.7988" x="708.3271" y="801.6563"/><text fill="#000000" font-family="Helvetica" font-size="10" x="723.5474" y="817.9385">OpenID</text><text fill="#000000" font-family="Helvetica" font-size="10" x="715.3271" y="829.5791">Federation</text><text fill="#000000" font-family="Helvetica" font-size="10" x="725.1514" y="841.2197">Master</text><path d="M95.8896,139.5625 L95.8896,172.5625 L521.8896,172.5625 L521.8896,149.5625 L511.8896,139.5625 L95.8896,139.5625" fill="#FFFFE0" style="stroke:#181818;stroke-width:0.5;"/><path d="M511.8896,139.5625 L511.8896,149.5625 L521.8896,149.5625 L511.8896,139.5625" fill="#FFFFE0" style="stroke:#181818;stroke-width:0.5;"/><text fill="#000000" font-family="Helvetica" font-size="10" x="101.8896" y="153.8447">- ZETA Client is pre-configured with Federation Master issuer (Fed-Master-issuer)</text><text fill="#000000" font-family="Helvetica" font-size="10" x="101.8896" y="165.4854">- ZETA Client is pre-configured with Resource Server FQDN (RS-FQDN)</text><path d="M55.8896,181.8438 L115.8457,181.8438 L115.8457,185.4844 L105.8457,195.4844 L55.8896,195.4844 L55.8896,181.8438" fill="#EEEEEE" style="stroke:#000000;stroke-width:1.5;"/><rect fill="none" height="595.8125" style="stroke:#000000;stroke-width:1.5;" width="707.3369" x="55.8896" y="181.8438"/><text fill="#000000" font-family="Helvetica" font-size="10" font-weight="bold" x="70.8896" y="192.126">alt</text><text fill="#000000" font-family="Helvetica" font-size="10" font-weight="bold" x="130.8457" y="193.126">[ZETA Client supports api-catalog]</text><line style="stroke:#000000;stroke-width:1;stroke-dasharray:2,2;" x1="55.8896" x2="763.2266" y1="579.1719" y2="579.1719"/><text fill="#000000" font-family="Helvetica" font-size="10" font-weight="bold" x="60.8896" y="590.4541">[ZETA Client doesn't support api-catalog yet]</text><polygon fill="#181818" points="508.8574,219.125,518.8574,223.125,508.8574,227.125,512.8574,223.125" style="stroke:#181818;stroke-width:1;"/><line style="stroke:#181818;stroke-width:1;" x1="95.8896" x2="514.8574" y1="223.125" y2="223.125"/><text fill="#000000" font-family="Helvetica" font-size="10" x="102.8896" y="218.7666">(01)</text><text fill="#000000" font-family="Helvetica" font-size="10" x="127.417" y="218.7666">GET /.well-known/api-catalog Host: RS-FQDN</text><polygon fill="#181818" points="106.8896,244.7656,96.8896,248.7656,106.8896,252.7656,102.8896,248.7656" style="stroke:#181818;stroke-width:1;"/><line style="stroke:#181818;stroke-width:1;stroke-dasharray:2,2;" x1="100.8896" x2="519.8574" y1="248.7656" y2="248.7656"/><text fill="#000000" font-family="Helvetica" font-size="10" x="112.8896" y="244.4072">(02)</text><text fill="#000000" font-family="Helvetica" font-size="10" x="137.417" y="244.4072">Client: 200 OK; JSON body with Well-Known JSON Document  (RFC9727)</text><path d="M74.8896,260.7656 L144.2158,260.7656 L144.2158,264.4063 L134.2158,274.4063 L74.8896,274.4063 L74.8896,260.7656" fill="#EEEEEE" style="stroke:#000000;stroke-width:1.5;"/><rect fill="none" height="113.5625" style="stroke:#000000;stroke-width:1.5;" width="471.9678" x="74.8896" y="260.7656"/><text fill="#000000" font-family="Helvetica" font-size="10" font-weight="bold" x="89.8896" y="271.0479">loop</text><text fill="#000000" font-family="Helvetica" font-size="10" font-weight="bold" x="159.2158" y="272.0479">[for each resource-name in list of APIs]</text><polygon fill="#181818" points="508.8574,298.0469,518.8574,302.0469,508.8574,306.0469,512.8574,302.0469" style="stroke:#181818;stroke-width:1;"/><line style="stroke:#181818;stroke-width:1;" x1="95.8896" x2="514.8574" y1="302.0469" y2="302.0469"/><text fill="#000000" font-family="Helvetica" font-size="10" x="102.8896" y="297.6885">(03)</text><text fill="#000000" font-family="Helvetica" font-size="10" x="127.417" y="297.6885">GET /.well-known/oauth-protected-resource/resource-name   Host: RS-FQDN</text><polygon fill="#181818" points="106.8896,323.6875,96.8896,327.6875,106.8896,331.6875,102.8896,327.6875" style="stroke:#181818;stroke-width:1;"/><line style="stroke:#181818;stroke-width:1;stroke-dasharray:2,2;" x1="100.8896" x2="519.8574" y1="327.6875" y2="327.6875"/><text fill="#000000" font-family="Helvetica" font-size="10" x="112.8896" y="323.3291">(04)</text><text fill="#000000" font-family="Helvetica" font-size="10" x="137.417" y="323.3291">Client: 200 OK; JSON body with Well-Known JSON Document  (RFC9728)</text><line style="stroke:#181818;stroke-width:1;" x1="95.8896" x2="137.8896" y1="353.3281" y2="353.3281"/><line style="stroke:#181818;stroke-width:1;" x1="137.8896" x2="137.8896" y1="353.3281" y2="366.3281"/><line style="stroke:#181818;stroke-width:1;" x1="96.8896" x2="137.8896" y1="366.3281" y2="366.3281"/><polygon fill="#181818" points="106.8896,362.3281,96.8896,366.3281,106.8896,370.3281,102.8896,366.3281" style="stroke:#181818;stroke-width:1;"/><text fill="#000000" font-family="Helvetica" font-size="10" x="102.8896" y="348.9697">(05)</text><text fill="#000000" font-family="Helvetica" font-size="10" x="127.417" y="348.9697">Update Configuration</text><polygon fill="#181818" points="725.2266,401.9688,735.2266,405.9688,725.2266,409.9688,729.2266,405.9688" style="stroke:#181818;stroke-width:1;"/><line style="stroke:#181818;stroke-width:1;" x1="95.8896" x2="731.2266" y1="405.9688" y2="405.9688"/><text fill="#000000" font-family="Helvetica" font-size="10" x="102.8896" y="401.6104">(06)</text><text fill="#000000" font-family="Helvetica" font-size="10" x="127.417" y="401.6104">GET /federation/fetch?iss=&lt;Fed-Master-issuer&gt;&amp;  sub=&lt;ZETA-Guard-AS-issuer&gt;</text><polygon fill="#181818" points="106.8896,427.6094,96.8896,431.6094,106.8896,435.6094,102.8896,431.6094" style="stroke:#181818;stroke-width:1;"/><line style="stroke:#181818;stroke-width:1;stroke-dasharray:2,2;" x1="100.8896" x2="736.2266" y1="431.6094" y2="431.6094"/><text fill="#000000" font-family="Helvetica" font-size="10" x="112.8896" y="427.251">(07)</text><text fill="#000000" font-family="Helvetica" font-size="10" x="137.417" y="427.251">200 OK; JSON body with ZETA Guard AS Metadata</text><polygon fill="#181818" points="725.2266,453.25,735.2266,457.25,725.2266,461.25,729.2266,457.25" style="stroke:#181818;stroke-width:1;"/><line style="stroke:#181818;stroke-width:1;" x1="95.8896" x2="731.2266" y1="457.25" y2="457.25"/><text fill="#000000" font-family="Helvetica" font-size="10" x="102.8896" y="452.8916">(08)</text><text fill="#000000" font-family="Helvetica" font-size="10" x="127.417" y="452.8916">GET /openid/v1/jwks</text><polygon fill="#181818" points="106.8896,478.8906,96.8896,482.8906,106.8896,486.8906,102.8896,482.8906" style="stroke:#181818;stroke-width:1;"/><line style="stroke:#181818;stroke-width:1;stroke-dasharray:2,2;" x1="100.8896" x2="736.2266" y1="482.8906" y2="482.8906"/><text fill="#000000" font-family="Helvetica" font-size="10" x="112.8896" y="478.5322">(09)</text><text fill="#000000" font-family="Helvetica" font-size="10" x="137.417" y="478.5322">200 OK; JSON body with JSON Web Key Set</text><line style="stroke:#181818;stroke-width:1;" x1="95.8896" x2="137.8896" y1="508.5313" y2="508.5313"/><line style="stroke:#181818;stroke-width:1;" x1="137.8896" x2="137.8896" y1="508.5313" y2="521.5313"/><line style="stroke:#181818;stroke-width:1;" x1="96.8896" x2="137.8896" y1="521.5313" y2="521.5313"/><polygon fill="#181818" points="106.8896,517.5313,96.8896,521.5313,106.8896,525.5313,102.8896,521.5313" style="stroke:#181818;stroke-width:1;"/><text fill="#000000" font-family="Helvetica" font-size="10" x="102.8896" y="504.1729">(10)</text><text fill="#000000" font-family="Helvetica" font-size="10" x="127.417" y="504.1729">Verify signature of fetched JSON Document</text><line style="stroke:#181818;stroke-width:1;" x1="95.8896" x2="137.8896" y1="547.1719" y2="547.1719"/><line style="stroke:#181818;stroke-width:1;" x1="137.8896" x2="137.8896" y1="547.1719" y2="560.1719"/><line style="stroke:#181818;stroke-width:1;" x1="96.8896" x2="137.8896" y1="560.1719" y2="560.1719"/><polygon fill="#181818" points="106.8896,556.1719,96.8896,560.1719,106.8896,564.1719,102.8896,560.1719" style="stroke:#181818;stroke-width:1;"/><text fill="#000000" font-family="Helvetica" font-size="10" x="102.8896" y="542.8135">(11)</text><text fill="#000000" font-family="Helvetica" font-size="10" x="127.417" y="542.8135">Update Configuration</text><polygon fill="#181818" points="508.8574,611.4531,518.8574,615.4531,508.8574,619.4531,512.8574,615.4531" style="stroke:#181818;stroke-width:1;"/><line style="stroke:#181818;stroke-width:1;" x1="95.8896" x2="514.8574" y1="615.4531" y2="615.4531"/><text fill="#000000" font-family="Helvetica" font-size="10" x="102.8896" y="611.0947">(12)</text><text fill="#000000" font-family="Helvetica" font-size="10" x="127.417" y="611.0947">GET /.well-known/oauth-protected-resource Host: RS-FQDN</text><polygon fill="#181818" points="106.8896,637.0938,96.8896,641.0938,106.8896,645.0938,102.8896,641.0938" style="stroke:#181818;stroke-width:1;"/><line style="stroke:#181818;stroke-width:1;stroke-dasharray:2,2;" x1="100.8896" x2="519.8574" y1="641.0938" y2="641.0938"/><text fill="#000000" font-family="Helvetica" font-size="10" x="112.8896" y="636.7354">(13)</text><text fill="#000000" font-family="Helvetica" font-size="10" x="137.417" y="636.7354">Client: 200 OK; JSON body with Well-Known JSON Document  (RFC9728)</text><line style="stroke:#181818;stroke-width:1;" x1="95.8896" x2="137.8896" y1="666.7344" y2="666.7344"/><line style="stroke:#181818;stroke-width:1;" x1="137.8896" x2="137.8896" y1="666.7344" y2="679.7344"/><line style="stroke:#181818;stroke-width:1;" x1="96.8896" x2="137.8896" y1="679.7344" y2="679.7344"/><polygon fill="#181818" points="106.8896,675.7344,96.8896,679.7344,106.8896,683.7344,102.8896,679.7344" style="stroke:#181818;stroke-width:1;"/><text fill="#000000" font-family="Helvetica" font-size="10" x="102.8896" y="662.376">(14)</text><text fill="#000000" font-family="Helvetica" font-size="10" x="127.417" y="662.376">Update Configuration</text><polygon fill="#181818" points="612.8525,701.375,622.8525,705.375,612.8525,709.375,616.8525,705.375" style="stroke:#181818;stroke-width:1;"/><line style="stroke:#181818;stroke-width:1;" x1="95.8896" x2="618.8525" y1="705.375" y2="705.375"/><text fill="#000000" font-family="Helvetica" font-size="10" x="102.8896" y="701.0166">(15)</text><text fill="#000000" font-family="Helvetica" font-size="10" x="127.417" y="701.0166">GET /.well-known/oauth-authorization-server&#160;Host:  AuthS-FQDN</text><polygon fill="#181818" points="106.8896,727.0156,96.8896,731.0156,106.8896,735.0156,102.8896,731.0156" style="stroke:#181818;stroke-width:1;"/><line style="stroke:#181818;stroke-width:1;stroke-dasharray:2,2;" x1="100.8896" x2="623.8525" y1="731.0156" y2="731.0156"/><text fill="#000000" font-family="Helvetica" font-size="10" x="112.8896" y="726.6572">(16)</text><text fill="#000000" font-family="Helvetica" font-size="10" x="137.417" y="726.6572">200 OK; JSON body with Well-Known JSON Document   (RFC8414)</text><line style="stroke:#181818;stroke-width:1;" x1="95.8896" x2="137.8896" y1="756.6563" y2="756.6563"/><line style="stroke:#181818;stroke-width:1;" x1="137.8896" x2="137.8896" y1="756.6563" y2="769.6563"/><line style="stroke:#181818;stroke-width:1;" x1="96.8896" x2="137.8896" y1="769.6563" y2="769.6563"/><polygon fill="#181818" points="106.8896,765.6563,96.8896,769.6563,106.8896,773.6563,102.8896,769.6563" style="stroke:#181818;stroke-width:1;"/><text fill="#000000" font-family="Helvetica" font-size="10" x="102.8896" y="752.2979">(17)</text><text fill="#000000" font-family="Helvetica" font-size="10" x="127.417" y="752.2979">Update Configuration</text><!--SRC=[jLHjKnCn4FwUNx7M6Q73X1R66H4Lf_I58fHMMcLq-9BURTl8DJcJ7ANy6Z_uI_IFkNUvqYkWCZfykbnszzbzTf-DI9nMoNI81ahhrMgvnEo5LB4mOWeXZaGIkPPMhY-l4RQgznjFn1IXZT4bEXc8Wa_3-tIqqZOM0OOttdMT68ccu1kX6hj9BVoIM0TAAopOB7vDK0LuYYCqwM5V11TZenCLrdMa3PnDf2i6z6y7B3biiyhQtnpTF48OwYXaQnN6s9FOYF5KW4Dz3Suao5WjS9JsWoKAGtq5fUFcOGcU7aoqTRuMWEo-P-JqvtTZvzRXb3oEnIMgaA80Se_FpK4Dwf54vSZU5ogSxnizKva709L9JPMnK2xt0c5zrBdAmp9NWaq1sVAq-FeAQseeqT6O1uUmlLc51eNQDEMWMM-VT8-x1vzOiQI3H9ZmRaN5Ujgzh9PUitUkseD13tf6NyrBT_ngYPlqlMk3NDDVRUIrS58hce2vH5E2-melWhGw6K8tHdNOE5Sjf2vc2EUg8wYxfiIOqWx1oF74WHujslNqEBtuX56aPvI4Gw7Z82t41dcWrKYE4uCXpAIRm18TF3WvseG-wsJX_ehxg_93CK_HakW3p1b3wttZ1DPF-pmzb3FIQVsCYSYjuDaaZhLn5aGiUI2SYFIOakRMZOtbcU_HJ3OsTk6WEO3Avemuymj5ewiKGg5D8js5F345qnWvHNeCpdVpqoviLwlGFNe5x_hT4nf8EFT4pbBOenJMMnewIAPfUcBJghzyiVqYxKcaTGmZMX8KmGHCJfwhTFkbWaZQR4Yrtg7D15EaGAJW7X9Qa79uRAXBWQCvB40hg-XmX-4ZSDmftwfw0VWX3eLB7pW__Kn4NjjiPL2jpisWHZTgewCB9cz9MMzUtr7QtZCWBGpVl4x5mRFzvBN-maZWj29Bal1RRilrXbeVEkW4LInk5PUNfcdTP5YvtAfycLtOspdIHlucIVPxXaCumZafth7xUlKHZHpDmSgn4eus9HL4rW7QcPMsimTtcc5aSMLzGerMhTsiKN6BO8uE6FilyJt-EcLIUoZzegT_T_z4HnIVOcwpX-d7Dy_8XozOUQo2l3Y7Vw2KSTfvllMyp1vEYdRd5m00]--></g></svg>