<svg xmlns="http://www.w3.org/2000/svg" xmlns:xlink="http://www.w3.org/1999/xlink" contentStyleType="text/css" data-diagram-type="SEQUENCE" height="765px" preserveAspectRatio="none" style="width:1047px;height:765px;background:#FFFFFF;" version="1.1" viewBox="0 0 1047 765" width="1047px" zoomAndPan="magnify"><defs/><g><rect fill="#F8F8FF" height="753.7344" style="stroke:#181818;stroke-width:0.5;" width="497.2944" x="39.793" y="6"/><text fill="#000000" font-family="Helvetica" font-size="10" font-weight="bold" x="279.9783" y="15.2822">LEI</text><rect fill="#E6E6FA" height="737.0938" style="stroke:#181818;stroke-width:0.5;" width="334.2114" x="39.793" y="22.6406"/><text fill="#000000" font-family="Helvetica" font-size="10" font-weight="bold" x="167.802" y="31.9229">Prim&#228;rsystem</text><rect fill="#F4A460" height="720.4531" style="stroke:#181818;stroke-width:0.5;" width="89" x="39.793" y="39.2813"/><text fill="#000000" font-family="Helvetica" font-size="10" font-weight="bold" x="51.793" y="48.5635">ZETA Client</text><rect fill="#C9FFC9" height="753.7344" style="stroke:#181818;stroke-width:0.5;" width="407.626" x="549.0874" y="6"/><text fill="#000000" font-family="Helvetica" font-size="10" font-weight="bold" x="728.54" y="15.2822">Anbieter</text><rect fill="#F4A460" height="737.0938" style="stroke:#181818;stroke-width:0.5;" width="296.5625" x="549.0874" y="22.6406"/><text fill="#000000" font-family="Helvetica" font-size="10" font-weight="bold" x="664.2241" y="31.9229">ZETA Guard</text><rect fill="#8FBC8F" height="737.0938" style="stroke:#181818;stroke-width:0.5;" width="99.0635" x="857.6499" y="22.6406"/><text fill="#000000" font-family="Helvetica" font-size="10" font-weight="bold" x="869.6499" y="31.9229">TI 2.0 Dienst</text><g><title>User</title><rect fill="#000000" fill-opacity="0.00000" height="555.5313" width="8" x="15.8965" y="126.5625"/><line style="stroke:#181818;stroke-width:0.5;stroke-dasharray:5,5;" x1="19.3965" x2="19.3965" y1="126.5625" y2="682.0938"/></g><g><title>ZETA</title><rect fill="#000000" fill-opacity="0.00000" height="555.5313" width="8" x="80.793" y="126.5625"/><line style="stroke:#181818;stroke-width:0.5;stroke-dasharray:5,5;" x1="84.293" x2="84.293" y1="126.5625" y2="682.0938"/></g><g><title/><rect fill="#FFFFFF" height="464.6094" style="stroke:#181818;stroke-width:1;" width="10" x="79.293" y="217.4844"/></g><g><title>TPM</title><rect fill="#000000" fill-opacity="0.00000" height="555.5313" width="8" x="340.8828" y="126.5625"/><line style="stroke:#181818;stroke-width:0.5;stroke-dasharray:5,5;" x1="344.3828" x2="344.3828" y1="126.5625" y2="682.0938"/></g><g><title>Konnektor or</title><rect fill="#000000" fill-opacity="0.00000" height="555.5313" width="8" x="425.9312" y="126.5625"/><line style="stroke:#181818;stroke-width:0.5;stroke-dasharray:5,5;" x1="429.4312" x2="429.4312" y1="126.5625" y2="682.0938"/></g><g><title>SM.C.-B</title><rect fill="#000000" fill-opacity="0.00000" height="555.5313" width="8" x="502.4727" y="126.5625"/><line style="stroke:#181818;stroke-width:0.5;stroke-dasharray:5,5;" x1="505.9727" x2="505.9727" y1="126.5625" y2="682.0938"/></g><g><title>PEP</title><rect fill="#000000" fill-opacity="0.00000" height="555.5313" width="8" x="585.1079" y="126.5625"/><line style="stroke:#181818;stroke-width:0.5;stroke-dasharray:5,5;" x1="588.6079" x2="588.6079" y1="126.5625" y2="682.0938"/></g><g><title/><rect fill="#FFFFFF" height="25.6406" style="stroke:#181818;stroke-width:1;" width="10" x="583.6079" y="235.125"/></g><g><title/><rect fill="#FFFFFF" height="25.6406" style="stroke:#181818;stroke-width:1;" width="10" x="583.6079" y="314.0469"/></g><g><title>PDP</title><rect fill="#000000" fill-opacity="0.00000" height="555.5313" width="8" x="689.103" y="126.5625"/><line style="stroke:#181818;stroke-width:0.5;stroke-dasharray:5,5;" x1="692.603" x2="692.603" y1="126.5625" y2="682.0938"/></g><g><title/><rect fill="#FFFFFF" height="25.6406" style="stroke:#181818;stroke-width:1;" width="10" x="687.603" y="599.8125"/></g><g><title>PDP</title><rect fill="#000000" fill-opacity="0.00000" height="555.5313" width="8" x="797.8638" y="126.5625"/><line style="stroke:#181818;stroke-width:0.5;stroke-dasharray:5,5;" x1="801.3638" x2="801.3638" y1="126.5625" y2="682.0938"/></g><g><title>Resource</title><rect fill="#000000" fill-opacity="0.00000" height="555.5313" width="8" x="903.6816" y="126.5625"/><line style="stroke:#181818;stroke-width:0.5;stroke-dasharray:5,5;" x1="907.1816" x2="907.1816" y1="126.5625" y2="682.0938"/></g><g><title>OpenID</title><rect fill="#000000" fill-opacity="0.00000" height="555.5313" width="8" x="1003.1128" y="126.5625"/><line style="stroke:#181818;stroke-width:0.5;stroke-dasharray:5,5;" x1="1006.6128" x2="1006.6128" y1="126.5625" y2="682.0938"/></g><g><title/><rect fill="#FFFFFF" height="263.125" style="stroke:#181818;stroke-width:1;" width="10" x="1001.6128" y="418.9688"/></g><text fill="#000000" font-family="Helvetica" font-size="10" x="5" y="124.2041">User</text><ellipse cx="19.3965" cy="63.4219" fill="#E2E2F0" rx="8" ry="8" style="stroke:#181818;stroke-width:0.5;"/><path d="M19.3965,71.4219 L19.3965,98.4219 M6.3965,79.4219 L32.3965,79.4219 M19.3965,98.4219 L6.3965,113.4219 M19.3965,98.4219 L32.3965,113.4219" fill="none" style="stroke:#181818;stroke-width:0.5;"/><rect fill="#E2E2F0" height="37.2813" rx="2.5" ry="2.5" style="stroke:#181818;stroke-width:0.5;" width="42.9502" x="62.8179" y="88.2813"/><text fill="#000000" font-family="Helvetica" font-size="10" x="71.2339" y="104.5635">ZETA</text><text fill="#000000" font-family="Helvetica" font-size="10" x="69.8179" y="116.2041">Client</text><rect fill="#E2E2F0" height="25.6406" rx="2.5" ry="2.5" style="stroke:#181818;stroke-width:0.5;" width="34.7666" x="326.9995" y="99.9219"/><text fill="#000000" font-family="Helvetica" font-size="10" x="333.9995" y="116.2041">TPM</text><rect fill="#E2E2F0" height="37.2813" rx="2.5" ry="2.5" style="stroke:#181818;stroke-width:0.5;" width="78.8535" x="390.0044" y="88.2813"/><text fill="#000000" font-family="Helvetica" font-size="10" x="397.0044" y="104.5635">Konnektor or</text><text fill="#000000" font-family="Helvetica" font-size="10" x="401.0107" y="116.2041">TI-Gateway</text><rect fill="#E2E2F0" height="25.6406" rx="2.5" ry="2.5" style="stroke:#181818;stroke-width:0.5;" width="54.2295" x="478.8579" y="99.9219"/><text fill="#000000" font-family="Helvetica" font-size="10" x="485.8579" y="116.2041">SM(C)-B</text><rect fill="#E2E2F0" height="37.2813" rx="2.5" ry="2.5" style="stroke:#181818;stroke-width:0.5;" width="71.041" x="553.0874" y="88.2813"/><text fill="#000000" font-family="Helvetica" font-size="10" x="579.4185" y="104.5635">PEP</text><text fill="#000000" font-family="Helvetica" font-size="10" x="560.0874" y="116.2041">HTTP Proxy</text><rect fill="#E2E2F0" height="37.2813" rx="2.5" ry="2.5" style="stroke:#181818;stroke-width:0.5;" width="116.9492" x="634.1284" y="88.2813"/><text fill="#000000" font-family="Helvetica" font-size="10" x="682.7227" y="104.5635">PDP</text><text fill="#000000" font-family="Helvetica" font-size="10" x="641.1284" y="116.2041">Authorization Server</text><rect fill="#E2E2F0" height="37.2813" rx="2.5" ry="2.5" style="stroke:#181818;stroke-width:0.5;" width="80.5723" x="761.0776" y="88.2813"/><text fill="#000000" font-family="Helvetica" font-size="10" x="791.4834" y="104.5635">PDP</text><text fill="#000000" font-family="Helvetica" font-size="10" x="768.0776" y="116.2041">Policy Engine</text><rect fill="#E2E2F0" height="37.2813" rx="2.5" ry="2.5" style="stroke:#181818;stroke-width:0.5;" width="60.5283" x="876.9175" y="88.2813"/><text fill="#000000" font-family="Helvetica" font-size="10" x="883.9175" y="104.5635">Resource</text><text fill="#000000" font-family="Helvetica" font-size="10" x="890.7852" y="116.2041">Server</text><rect fill="#E2E2F0" height="48.9219" rx="2.5" ry="2.5" style="stroke:#181818;stroke-width:0.5;" width="67.7988" x="972.7134" y="76.6406"/><text fill="#000000" font-family="Helvetica" font-size="10" x="987.9336" y="92.9229">OpenID</text><text fill="#000000" font-family="Helvetica" font-size="10" x="979.7134" y="104.5635">Federation</text><text fill="#000000" font-family="Helvetica" font-size="10" x="989.5376" y="116.2041">Master</text><text fill="#000000" font-family="Helvetica" font-size="10" x="5" y="751.376">User</text><ellipse cx="19.3965" cy="690.5938" fill="#E2E2F0" rx="8" ry="8" style="stroke:#181818;stroke-width:0.5;"/><path d="M19.3965,698.5938 L19.3965,725.5938 M6.3965,706.5938 L32.3965,706.5938 M19.3965,725.5938 L6.3965,740.5938 M19.3965,725.5938 L32.3965,740.5938" fill="none" style="stroke:#181818;stroke-width:0.5;"/><rect fill="#E2E2F0" height="37.2813" rx="2.5" ry="2.5" style="stroke:#181818;stroke-width:0.5;" width="42.9502" x="62.8179" y="682.0938"/><text fill="#000000" font-family="Helvetica" font-size="10" x="71.2339" y="698.376">ZETA</text><text fill="#000000" font-family="Helvetica" font-size="10" x="69.8179" y="710.0166">Client</text><rect fill="#E2E2F0" height="25.6406" rx="2.5" ry="2.5" style="stroke:#181818;stroke-width:0.5;" width="34.7666" x="326.9995" y="682.0938"/><text fill="#000000" font-family="Helvetica" font-size="10" x="333.9995" y="698.376">TPM</text><rect fill="#E2E2F0" height="37.2813" rx="2.5" ry="2.5" style="stroke:#181818;stroke-width:0.5;" width="78.8535" x="390.0044" y="682.0938"/><text fill="#000000" font-family="Helvetica" font-size="10" x="397.0044" y="698.376">Konnektor or</text><text fill="#000000" font-family="Helvetica" font-size="10" x="401.0107" y="710.0166">TI-Gateway</text><rect fill="#E2E2F0" height="25.6406" rx="2.5" ry="2.5" style="stroke:#181818;stroke-width:0.5;" width="54.2295" x="478.8579" y="682.0938"/><text fill="#000000" font-family="Helvetica" font-size="10" x="485.8579" y="698.376">SM(C)-B</text><rect fill="#E2E2F0" height="37.2813" rx="2.5" ry="2.5" style="stroke:#181818;stroke-width:0.5;" width="71.041" x="553.0874" y="682.0938"/><text fill="#000000" font-family="Helvetica" font-size="10" x="579.4185" y="698.376">PEP</text><text fill="#000000" font-family="Helvetica" font-size="10" x="560.0874" y="710.0166">HTTP Proxy</text><rect fill="#E2E2F0" height="37.2813" rx="2.5" ry="2.5" style="stroke:#181818;stroke-width:0.5;" width="116.9492" x="634.1284" y="682.0938"/><text fill="#000000" font-family="Helvetica" font-size="10" x="682.7227" y="698.376">PDP</text><text fill="#000000" font-family="Helvetica" font-size="10" x="641.1284" y="710.0166">Authorization Server</text><rect fill="#E2E2F0" height="37.2813" rx="2.5" ry="2.5" style="stroke:#181818;stroke-width:0.5;" width="80.5723" x="761.0776" y="682.0938"/><text fill="#000000" font-family="Helvetica" font-size="10" x="791.4834" y="698.376">PDP</text><text fill="#000000" font-family="Helvetica" font-size="10" x="768.0776" y="710.0166">Policy Engine</text><rect fill="#E2E2F0" height="37.2813" rx="2.5" ry="2.5" style="stroke:#181818;stroke-width:0.5;" width="60.5283" x="876.9175" y="682.0938"/><text fill="#000000" font-family="Helvetica" font-size="10" x="883.9175" y="698.376">Resource</text><text fill="#000000" font-family="Helvetica" font-size="10" x="890.7852" y="710.0166">Server</text><rect fill="#E2E2F0" height="48.9219" rx="2.5" ry="2.5" style="stroke:#181818;stroke-width:0.5;" width="67.7988" x="972.7134" y="682.0938"/><text fill="#000000" font-family="Helvetica" font-size="10" x="987.9336" y="698.376">OpenID</text><text fill="#000000" font-family="Helvetica" font-size="10" x="979.7134" y="710.0166">Federation</text><text fill="#000000" font-family="Helvetica" font-size="10" x="989.5376" y="721.6572">Master</text><path d="M89.293,139.5625 L89.293,172.5625 L515.293,172.5625 L515.293,149.5625 L505.293,139.5625 L89.293,139.5625" fill="#FFFFE0" style="stroke:#181818;stroke-width:0.5;"/><path d="M505.293,139.5625 L505.293,149.5625 L515.293,149.5625 L505.293,139.5625" fill="#FFFFE0" style="stroke:#181818;stroke-width:0.5;"/><text fill="#000000" font-family="Helvetica" font-size="10" x="95.293" y="153.8447">- ZETA Client is pre-configured with Federation Master issuer (Fed-Master-issuer)</text><text fill="#000000" font-family="Helvetica" font-size="10" x="95.293" y="165.4854">- ZETA Client is pre-configured with Resource Server FQDN (RS-FQDN)</text><rect fill="#EEEEEE" height="3" style="stroke:#EEEEEE;stroke-width:1;" width="1035.5122" x="5" y="196.6641"/><line style="stroke:#000000;stroke-width:1;" x1="5" x2="1040.5122" y1="196.6641" y2="196.6641"/><line style="stroke:#000000;stroke-width:1;" x1="5" x2="1040.5122" y1="199.6641" y2="199.6641"/><rect fill="#EEEEEE" height="19.6406" style="stroke:#000000;stroke-width:2;" width="128.2578" x="458.6272" y="187.8438"/><text fill="#000000" font-family="Helvetica" font-size="10" font-weight="bold" x="464.6272" y="201.126">Resource Discovery</text><polygon fill="#181818" points="571.6079,231.125,581.6079,235.125,571.6079,239.125,575.6079,235.125" style="stroke:#181818;stroke-width:1;"/><line style="stroke:#181818;stroke-width:1;" x1="89.293" x2="577.6079" y1="235.125" y2="235.125"/><text fill="#000000" font-family="Helvetica" font-size="10" x="96.293" y="230.7666">(01)</text><text fill="#000000" font-family="Helvetica" font-size="10" x="120.8203" y="230.7666">GET /.well-known/api-catalog Host: RS-FQDN</text><polygon fill="#181818" points="100.293,256.7656,90.293,260.7656,100.293,264.7656,96.293,260.7656" style="stroke:#181818;stroke-width:1;"/><line style="stroke:#181818;stroke-width:1;stroke-dasharray:2,2;" x1="94.293" x2="582.6079" y1="260.7656" y2="260.7656"/><text fill="#000000" font-family="Helvetica" font-size="10" x="106.293" y="256.4072">(02)</text><text fill="#000000" font-family="Helvetica" font-size="10" x="130.8203" y="256.4072">Client: 200 OK; JSON body with Well-Known JSON Document (RFC9727)</text><path d="M68.293,272.7656 L137.6191,272.7656 L137.6191,276.4063 L127.6191,286.4063 L68.293,286.4063 L68.293,272.7656" fill="#EEEEEE" style="stroke:#000000;stroke-width:1.5;"/><rect fill="none" height="74.9219" style="stroke:#000000;stroke-width:1.5;" width="541.3149" x="68.293" y="272.7656"/><text fill="#000000" font-family="Helvetica" font-size="10" font-weight="bold" x="83.293" y="283.0479">loop</text><text fill="#000000" font-family="Helvetica" font-size="10" font-weight="bold" x="152.6191" y="284.0479">[for each resource-name in list of APIs]</text><polygon fill="#181818" points="571.6079,310.0469,581.6079,314.0469,571.6079,318.0469,575.6079,314.0469" style="stroke:#181818;stroke-width:1;"/><line style="stroke:#181818;stroke-width:1;" x1="89.293" x2="577.6079" y1="314.0469" y2="314.0469"/><text fill="#000000" font-family="Helvetica" font-size="10" x="96.293" y="309.6885">(03)</text><text fill="#000000" font-family="Helvetica" font-size="10" x="120.8203" y="309.6885">GET /.well-known/oauth-protected-resource/resource-name Host: RS-FQDN</text><polygon fill="#181818" points="100.293,335.6875,90.293,339.6875,100.293,343.6875,96.293,339.6875" style="stroke:#181818;stroke-width:1;"/><line style="stroke:#181818;stroke-width:1;stroke-dasharray:2,2;" x1="94.293" x2="582.6079" y1="339.6875" y2="339.6875"/><text fill="#000000" font-family="Helvetica" font-size="10" x="106.293" y="335.3291">(04)</text><text fill="#000000" font-family="Helvetica" font-size="10" x="130.8203" y="335.3291">Client: 200 OK; JSON body with Well-Known JSON Document (RFC9728)</text><rect fill="#EEEEEE" height="3" style="stroke:#EEEEEE;stroke-width:1;" width="1035.5122" x="5" y="380.5078"/><line style="stroke:#000000;stroke-width:1;" x1="5" x2="1040.5122" y1="380.5078" y2="380.5078"/><line style="stroke:#000000;stroke-width:1;" x1="5" x2="1040.5122" y1="383.5078" y2="383.5078"/><rect fill="#EEEEEE" height="19.6406" style="stroke:#000000;stroke-width:2;" width="187.3643" x="429.074" y="371.6875"/><text fill="#000000" font-family="Helvetica" font-size="10" font-weight="bold" x="435.074" y="384.9697">Check federation membership</text><polygon fill="#181818" points="989.6128,414.9688,999.6128,418.9688,989.6128,422.9688,993.6128,418.9688" style="stroke:#181818;stroke-width:1;"/><line style="stroke:#181818;stroke-width:1;" x1="89.293" x2="995.6128" y1="418.9688" y2="418.9688"/><text fill="#000000" font-family="Helvetica" font-size="10" x="96.293" y="414.6104">(05)</text><text fill="#000000" font-family="Helvetica" font-size="10" x="120.8203" y="414.6104">GET /federation/fetch?iss=&lt;Fed-Master-issuer&gt;&amp;sub=&lt;ZETA-Guard-AS-issuer&gt;</text><polygon fill="#181818" points="100.293,440.6094,90.293,444.6094,100.293,448.6094,96.293,444.6094" style="stroke:#181818;stroke-width:1;"/><line style="stroke:#181818;stroke-width:1;stroke-dasharray:2,2;" x1="94.293" x2="1000.6128" y1="444.6094" y2="444.6094"/><text fill="#000000" font-family="Helvetica" font-size="10" x="106.293" y="440.251">(06)</text><text fill="#000000" font-family="Helvetica" font-size="10" x="130.8203" y="440.251">200 OK; JSON body with ZETA Guard AS Metadata</text><polygon fill="#181818" points="989.6128,466.25,999.6128,470.25,989.6128,474.25,993.6128,470.25" style="stroke:#181818;stroke-width:1;"/><line style="stroke:#181818;stroke-width:1;" x1="89.293" x2="995.6128" y1="470.25" y2="470.25"/><text fill="#000000" font-family="Helvetica" font-size="10" x="96.293" y="465.8916">(07)</text><text fill="#000000" font-family="Helvetica" font-size="10" x="120.8203" y="465.8916">GET /openid/v1/jwks</text><polygon fill="#181818" points="100.293,491.8906,90.293,495.8906,100.293,499.8906,96.293,495.8906" style="stroke:#181818;stroke-width:1;"/><line style="stroke:#181818;stroke-width:1;stroke-dasharray:2,2;" x1="94.293" x2="1000.6128" y1="495.8906" y2="495.8906"/><text fill="#000000" font-family="Helvetica" font-size="10" x="106.293" y="491.5322">(08)</text><text fill="#000000" font-family="Helvetica" font-size="10" x="130.8203" y="491.5322">200 OK; JSON body with JSON Web Key Set</text><line style="stroke:#181818;stroke-width:1;" x1="89.293" x2="131.293" y1="521.5313" y2="521.5313"/><line style="stroke:#181818;stroke-width:1;" x1="131.293" x2="131.293" y1="521.5313" y2="534.5313"/><line style="stroke:#181818;stroke-width:1;" x1="90.293" x2="131.293" y1="534.5313" y2="534.5313"/><polygon fill="#181818" points="100.293,530.5313,90.293,534.5313,100.293,538.5313,96.293,534.5313" style="stroke:#181818;stroke-width:1;"/><text fill="#000000" font-family="Helvetica" font-size="10" x="96.293" y="517.1729">(09)</text><text fill="#000000" font-family="Helvetica" font-size="10" x="120.8203" y="517.1729">Verify signature of fetched JSON Document</text><rect fill="#EEEEEE" height="3" style="stroke:#EEEEEE;stroke-width:1;" width="1035.5122" x="5" y="561.3516"/><line style="stroke:#000000;stroke-width:1;" x1="5" x2="1040.5122" y1="561.3516" y2="561.3516"/><line style="stroke:#000000;stroke-width:1;" x1="5" x2="1040.5122" y1="564.3516" y2="564.3516"/><rect fill="#EEEEEE" height="19.6406" style="stroke:#000000;stroke-width:2;" width="183.1211" x="431.1956" y="552.5313"/><text fill="#000000" font-family="Helvetica" font-size="10" font-weight="bold" x="437.1956" y="565.8135">Configure ZETA Guard access</text><polygon fill="#181818" points="675.603,595.8125,685.603,599.8125,675.603,603.8125,679.603,599.8125" style="stroke:#181818;stroke-width:1;"/><line style="stroke:#181818;stroke-width:1;" x1="89.293" x2="681.603" y1="599.8125" y2="599.8125"/><text fill="#000000" font-family="Helvetica" font-size="10" x="96.293" y="595.4541">(10)</text><text fill="#000000" font-family="Helvetica" font-size="10" x="120.8203" y="595.4541">GET /.well-known/oauth-authorization-server&#160;Host: AuthS-FQDN</text><polygon fill="#181818" points="100.293,621.4531,90.293,625.4531,100.293,629.4531,96.293,625.4531" style="stroke:#181818;stroke-width:1;"/><line style="stroke:#181818;stroke-width:1;stroke-dasharray:2,2;" x1="94.293" x2="686.603" y1="625.4531" y2="625.4531"/><text fill="#000000" font-family="Helvetica" font-size="10" x="106.293" y="621.0947">(11)</text><text fill="#000000" font-family="Helvetica" font-size="10" x="130.8203" y="621.0947">200 OK; JSON body with Well-Known JSON Document (RFC8414)</text><line style="stroke:#181818;stroke-width:1;" x1="89.293" x2="131.293" y1="651.0938" y2="651.0938"/><line style="stroke:#181818;stroke-width:1;" x1="131.293" x2="131.293" y1="651.0938" y2="664.0938"/><line style="stroke:#181818;stroke-width:1;" x1="90.293" x2="131.293" y1="664.0938" y2="664.0938"/><polygon fill="#181818" points="100.293,660.0938,90.293,664.0938,100.293,668.0938,96.293,664.0938" style="stroke:#181818;stroke-width:1;"/><text fill="#000000" font-family="Helvetica" font-size="10" x="96.293" y="646.7354">(12)</text><text fill="#000000" font-family="Helvetica" font-size="10" x="120.8203" y="646.7354">Update ZETA Guard Configuration</text><!--SRC=[hLNRSjis47t7LspbcKOQ3oFPavcaRfIEh7jjMQofr9EENY1o9IAY01O0hT1VquT-IVjZNLvaKhRJTZfz4aYSFTXpze3YYLKosQrGGwFPwRGQp6o5ZBdcEmXmpPF8ZfIqddX0EEkyl7d3TmWJZExH2f_NC8C2CrDIcPZx63oY-ohH0dKD6w7SsB0NV4wC1QaarlOC_fgWzF4MrwYpnINtjnkj4XdqLQGqt8N2rWkyfmMLXdFMVlLFG9j622iL1UnLcp7sJQpvPiV1ede0gnDahETRElQZ8GahzGKQryDf0qx6eJAsw0KWV-zgiVlpTsrIOt57Y6j-ZpAWAe0IySjmqOD-951QslUu3D9BhVOoHm1GcsIgYBcq9GguAQgMiYpBeKIR4RAdHGjtbbVGRmQiO7NGbP8Ijvca35ezARsKYwapvXRtF6qygV9cbpdUcpNxBUUomGxaXISzkH9eKPEinR0_kPbVpyUVM5tsEE4wUAwwViR4pOzmX-vIJXOB5rojlgIDPxXUOaElW0u8cZqgBHwu5KhIbFLzriUpAdTObRWg4duAGxaH4e-jAdfUJE7yTGS6v3b5z6J0zTP3FjQ8BmthjkZc5Wr5tSUbB9iu6jQZOVNAKJ6mUOnoEbZA4L9USXrBEUCcCvGngIo25flGWbeVWd5odRtuX56azdIC0xLiWJ0GQtHy9TTYasWCO2zi21Kx5EG4D0dzD6d7ALuvnQlMl-KyQ2vzXz5FWnjetdfEjcZbehF-MRTRGGV2-8h0ANIxhAG_FJsid0yKXDFJ2nWF5z1-lIU9pbPINjey5exFBO_K1YPq-owWF8THSXogAnWSvw9SNS1vfmFpg-_XHsz-G-u7QT7rNKPwbP4MEmFb9xliyERjgF_Ts_EtBHOf5SEQxWLoFmHTzkx8x8ic94J2vEFekLD3NjLx9otmGlUAKqwTM9CRlYM_3vJjO-vZOG3_jxHt-L2oUVH3zBUmhaAnm-o_mOGYpWPJcyTezZYF2avBwuS_K5wwxv_bvyEt9bbrtsS1SlARx_IymnQZq5UIuAjAgiy6z3oOeUK13V-ehR8fHTT71Etxi_Rd_TOSyt-LFd-ymnLSOKhfjJNYG-NFgCKw1ICsablAV3RmN3Mb_yZStCx3pQWtpdqVZNbYP_7z-hkKyFedpJ7vrVhZjo8QUNMHZeAevgNZm7yBnhitPszQx0KBFiPa-f6aWywyD_ON]--></g></svg>